<svg version="1.1" xmlns="http://www.w3.org/2000/svg" xmlns:xlink="http://www.w3.org/1999/xlink" width="34.17311" height="34.17311" viewBox="0,0,34.17311,34.17311"><defs><linearGradient x1="234.80953" y1="170.60226" x2="235.48264" y2="173.16627" gradientUnits="userSpaceOnUse" id="color-1"><stop offset="0" stop-color="#5f4f39"/><stop offset="1" stop-color="#5f4f39" stop-opacity="0"/></linearGradient></defs><g transform="translate(-222.91347,-162.91346)"><g data-paper-data="{&quot;isPaintingLayer&quot;:true}" stroke-miterlimit="10" stroke-dasharray="" stroke-dashoffset="0" style="mix-blend-mode: normal"><path d="M229.98313,162.91346h20.03379c3.9166,0 7.06966,3.15307 7.06966,7.06966v20.03379c0,3.91659 -3.15306,7.06966 -7.06966,7.06966h-20.03379c-3.91659,0 -7.06966,-3.15307 -7.06966,-7.06966v-20.03379c0,-3.91659 3.15307,-7.06966 7.06966,-7.06966z" fill="#dab683" fill-rule="evenodd" stroke="none" stroke-width="4.43922" stroke-linecap="round" stroke-linejoin="round"/><g fill-rule="nonzero" stroke="#000000" stroke-width="0.5" stroke-linejoin="miter"><g stroke-linecap="butt"><path d="M255.9947,176.36306c0.99296,3.78235 -3.66524,11.02138 -6.2503,11.70003c-2.58506,0.67864 -2.11807,-5.4601 -3.11103,-9.24245c-0.99296,-3.78235 -3.44565,-8.41728 -0.8606,-9.09592c2.58506,-0.67864 9.22896,2.85599 10.22192,6.63834z" fill="#ffd498"/><path d="M253.92826,176.68611c0.80127,3.05218 0.20583,5.85331 -1.32997,6.2565c-1.5358,0.40318 -3.43037,-1.74425 -4.23164,-4.79643c-0.80127,-3.05218 -0.20583,-5.85331 1.32997,-6.2565c1.5358,-0.40318 3.43037,1.74425 4.23164,4.79643z" fill="#000000"/></g><path d="M225.35239,184.60845c-2.28283,-8.69566 3.26948,-12.80387 10.92161,-14.81274c7.65214,-2.00888 14.5064,-1.1577 16.78923,7.53796c2.28283,8.69566 -3.22516,12.09445 -10.8773,14.10333c-7.65214,2.00888 -14.55072,1.86712 -16.83355,-6.82854z" fill="#ffd498" stroke-linecap="butt"/><path d="M237.13045,171.77743c0,0 -5.17216,1.02319 -5.60608,0.6152c-0.25591,-0.24061 2.36402,-1.60144 4.98054,-2.23214c0.82197,-0.19813 4.04304,-0.61707 4.52234,-0.16043c0.49737,0.47385 -1.77124,1.83173 -2.27426,2.0572c-3.202,1.43526 -9.34419,2.39687 -9.34419,2.39687" fill="url(#color-1)" stroke-linecap="round"/></g></g></g></svg>