<svg version="1.1" xmlns="http://www.w3.org/2000/svg" xmlns:xlink="http://www.w3.org/1999/xlink" width="155.28627" height="391.00066" viewBox="0,0,155.28627,391.00066"><defs><linearGradient x1="239.72615" y1="174.30005" x2="239.72615" y2="306.30003" gradientUnits="userSpaceOnUse" id="color-1"><stop offset="0" stop-color="#000000"/><stop offset="1" stop-color="#79c5d8"/></linearGradient><linearGradient x1="240.1942" y1="189.71086" x2="240.1942" y2="202.37753" gradientUnits="userSpaceOnUse" id="color-2"><stop offset="0" stop-color="#000000"/><stop offset="1" stop-color="#5e97a5"/></linearGradient><linearGradient x1="240.19875" y1="210.21899" x2="240.19875" y2="239.08437" gradientUnits="userSpaceOnUse" id="color-3"><stop offset="0" stop-color="#000000"/><stop offset="1" stop-color="#ffff00"/></linearGradient><linearGradient x1="242.14766" y1="64.95212" x2="242.14766" y2="127.1702" gradientUnits="userSpaceOnUse" id="color-4"><stop offset="0" stop-color="#000000"/><stop offset="1" stop-color="#f6f5f6"/></linearGradient><linearGradient x1="240.00004" y1="112.83815" x2="240.00004" y2="195.94455" gradientUnits="userSpaceOnUse" id="color-5"><stop offset="0" stop-color="#000000"/><stop offset="1" stop-color="#d75454"/></linearGradient><linearGradient x1="212.51358" y1="112.59504" x2="212.51358" y2="136.62303" gradientUnits="userSpaceOnUse" id="color-6"><stop offset="0" stop-color="#000000"/><stop offset="1" stop-color="#ec3434"/></linearGradient><linearGradient x1="267.26358" y1="111.34504" x2="267.26358" y2="135.37303" gradientUnits="userSpaceOnUse" id="color-7"><stop offset="0" stop-color="#000000"/><stop offset="1" stop-color="#ec3434"/></linearGradient><linearGradient x1="237.7951" y1="171.12526" x2="237.15002" y2="183.12157" gradientUnits="userSpaceOnUse" id="color-8"><stop offset="0" stop-color="#000000"/><stop offset="1" stop-color="#ffffff"/></linearGradient></defs><g transform="translate(-159.36884,84.70064)"><g data-paper-data="{&quot;isPaintingLayer&quot;:true}" fill-rule="nonzero" stroke-linejoin="miter" stroke-miterlimit="10" stroke-dasharray="" stroke-dashoffset="0" style="mix-blend-mode: normal"><path d="M206.47616,306.30001l15.14285,-131.8421l37.78325,-0.15789l13.57389,132z" fill="url(#color-1)" stroke="none" stroke-width="2" stroke-linecap="butt"/><path d="M218.11292,201.37752c0,0 -0.86037,-1.64644 -1.18821,-3.42169c-0.34066,-1.84471 -0.14619,-3.82852 0.02426,-4.24864c0.80908,-1.99419 2.99728,-3.99633 2.99728,-3.99633l40.16666,0.5c0,0 2.58695,1.45609 3.27161,3.19102c0.40553,1.02761 0.22839,2.86943 0.22839,3.47565c0,0.73804 -0.05964,2.54278 -1.11019,3.48972c-1.03264,0.9308 -3.05648,2.01028 -3.05648,2.01028z" fill="url(#color-2)" stroke="none" stroke-width="2" stroke-linecap="butt"/><path d="M249.6893,238.887c-0.62016,0.45845 -9.37984,-4.83026 -9.37984,-4.83026c0,0 -8.55454,5.5227 -9.29851,4.99165c-0.70482,-0.50263 1.69445,-10.41655 1.69445,-10.41655c0,0 -7.79039,-6.76005 -7.61958,-7.30111c0.17273,-0.54769 10.4295,-1.60702 10.4295,-1.60702c0,0 3.98902,-9.49914 4.58738,-9.50471c0.64722,-0.00567 4.75443,9.42378 4.75443,9.42378c0,0 10.32385,1.038 10.45386,1.42773c0.18992,0.56532 -7.49126,7.43109 -7.49126,7.43109c0,0 2.20947,10.13468 1.86957,10.3854z" fill="url(#color-3)" stroke="none" stroke-width="0" stroke-linecap="butt"/><path d="M306.73589,121.43078c0,0.91304 -7.21508,5.69319 -7.63052,6.3565c-4.43549,7.08191 -24.70976,-3.15389 -56.90511,-3.15389c-35.21086,0 -64.64083,5.1253 -64.64083,-5.53596c0,-5.42596 -13.35232,-43.40536 -12.4464,-44.15755c0.04615,-0.03833 24.52119,24.1664 24.55229,24.14148c0.10947,-0.08773 23.7146,-33.94284 24.14148,-33.81191c0.787,0.24138 18.39045,26.12725 18.78112,25.49193c1.12568,-1.8306 29.6527,-43.76998 30.08434,-43.21915c4.20097,5.361 16.78821,43.20547 18.3789,42.69823c0.10204,-0.03253 -0.94884,5.46287 0.57051,4.63992c7.8674,-4.26136 33.02448,-23.05904 33.03317,-23.05438c0.05372,0.02882 -7.91895,49.60476 -7.91895,49.60476z" fill="url(#color-4)" stroke="none" stroke-width="2" stroke-linecap="butt"/><g fill="#000000" stroke="none" stroke-width="0" stroke-linecap="butt"><path d="M210.23139,137.60765c0,0 14.35111,-18.73147 14.22562,-40.53885c-0.03387,-5.88734 1.31303,-24.50269 -1.1675,-42.09496c-2.48567,-17.62884 -28.34094,-79.42527 -28.34094,-79.42527l51.19548,-4.82793c0,0 9.85391,12.82827 16.89874,33.26227c2.64303,7.66632 4.89069,16.40319 6.07423,25.93482c1.79863,14.48532 3.67671,43.89351 4.50362,52.662c1.82387,19.34039 -12.19376,50.20001 -12.19376,50.20001z"/><path d="M255.57248,-28.04514c0.628,6.65932 -0.63074,30.29766 -4.6192,35.56087c-5.40995,7.13904 -15.15511,-5.03043 -25.62035,-4.04351c-6.11115,0.57631 0.11831,20.48038 -5.02212,18.43856c-10.15235,-4.03257 -29.59393,-33.32971 -30.57633,-43.74711c-1.47983,-15.69205 12.05889,-29.80284 30.23955,-31.51735c18.18067,-1.71451 34.11864,9.61653 35.59846,25.30857z"/><path d="M160.45109,-48.32259c5.98354,2.23234 17.94279,12.33739 23.14942,13.71585c8.01017,2.12071 23.79084,4.04105 23.79084,4.04105l-12.01623,20.63489c0,0 -14.7402,-7.87874 -20.82558,-13.89945c-2.78052,-2.75097 -7.99884,-6.02171 -11.12479,-11.11789c-3.86218,-6.29644 -5.21166,-14.20938 -2.97367,-13.37443z" data-paper-data="{&quot;index&quot;:null}"/><path d="M198.00342,-84.39759c3.09414,5.00115 5.34718,19.55593 8.43249,23.45207c4.7466,5.99403 15.67048,15.97889 15.67048,15.97889l-23.71122,10.24859c0,0 -5.96471,-14.24243 -6.49895,-22.3585c-0.2441,-3.7084 -2.0203,-9.1395 -0.8991,-14.9271c1.38528,-7.15072 5.84901,-14.2645 7.0063,-12.39395z" data-paper-data="{&quot;index&quot;:null}"/><path d="M258.49814,-83.33486c-1.5515,5.61973 -10.98707,18.03255 -11.704,22.8046c-1.10296,7.34159 -0.74174,21.33276 -0.74174,21.33276l-25.0791,-6.03037c0,0 6.49301,-14.34182 12.28072,-20.84186c2.64452,-2.96998 5.48369,-8.14803 10.7056,-11.90615c6.4518,-4.64325 15.11882,-7.4609 14.53853,-5.35898z" data-paper-data="{&quot;index&quot;:null}"/><path d="M299.35582,-32.09686c-5.87651,2.69261 -22.61407,4.6156 -27.22861,7.30429c-7.09927,4.13641 -19.08825,13.66908 -19.08825,13.66908l-10.4187,-20.80156c0,0 16.58149,-5.17477 25.87571,-5.61466c4.24669,-0.201 10.54283,-1.73785 17.08941,-0.73596c8.08845,1.23788 15.96841,5.17175 13.77044,6.17883z" data-paper-data="{&quot;index&quot;:null}"/></g><path d="M175.56654,135.64622c0,-4.57959 -1.07458,-16.52941 3.13267,-19.84945c2.69857,-2.1295 45.56049,-2.70502 59.04646,-2.93068c20.30584,-0.33977 63.05159,2.50082 64.5063,4.09508c2.64686,2.90079 2.28808,15.13418 2.28808,18.68505c0,33.30185 -28.87171,60.29833 -64.48675,60.29833c-35.61504,0 -64.48675,-26.99649 -64.48675,-60.29833z" fill="url(#color-5)" stroke="none" stroke-width="2" stroke-linecap="butt"/><path d="M303.94408,117.18023c0,4.43784 -33.33567,5.17838 -65,5.17838c-31.66432,0 -61.66667,-1.4548 -61.66667,-5.89264c0,-4.43784 30.66901,-4.10699 62.33334,-4.10699c31.66432,0 64.33334,0.38341 64.33334,4.82125z" fill="#000000" stroke="none" stroke-width="2" stroke-linecap="butt"/><path d="M183.04374,125.24962c-0.16892,-0.26134 -0.34139,-0.52345 -0.51703,-0.78691c-0.48674,-0.73011 -1.05333,-1.53505 -1.47196,-2.37359c-0.00431,0.7692 0.19221,1.52701 0.69657,2.25398c0.38281,0.28267 0.82477,0.58651 1.29242,0.90651zM181.18332,118.34614c0.50837,-1.11278 -4.40229,-1.46561 -3.98959,-2.57049c1.01399,-2.71465 8.71633,-7.04582 8.9858,-6.84639c0.21006,0.15546 4.54783,-0.78419 4.90705,-0.90155c6.73299,-0.04024 13.33711,0.66021 20.08009,0.66021c6.88201,0 13.54538,0.31885 20.39278,1.00323c2.39574,0.19961 4.79521,0.35951 7.19634,0.50595c2.24712,-2.87002 4.08958,-6.60111 8.08353,-5.91586c0.01849,0.10264 0.56574,2.13012 1.13358,1.42823c0.85849,-1.06115 1.05479,-2.77289 1.54688,-4.00594c1.11143,-2.78494 2.44794,-5.98228 4.56954,-8.1294c3.76997,-3.71299 4.11642,4.4128 3.89412,6.57893c-0.13281,1.29412 -0.93309,2.71235 -1.51734,3.86783c-0.21676,0.42868 -0.95405,1.02684 -0.57471,1.32155c0.22222,0.17265 1.40993,0.04236 1.59438,0.04236c2.86741,0.37594 0.37161,3.9226 -0.58856,5.03286c-0.20709,0.23946 -0.41563,0.47122 -0.62583,0.6955c5.4283,0.18345 10.85028,0.57461 16.27921,0.57489c7.00209,0.00035 13.99276,0.66188 20.97732,0.66836c2.09386,0.00283 6.69583,-0.04604 8.07961,1.92891c0.28894,0.41238 0.39753,2.04606 0.48011,2.53657c0.51236,3.04336 1.23974,6.60793 1.24572,9.69935c0,7.0531 -0.44918,13.76231 -2.69113,20.48782c-0.65278,2.06321 -2.7652,10.92963 -6.49576,7.19907c-1.87627,-1.87627 1.1266,-7.45056 1.8977,-9.40277c1.34184,-3.39085 1.38775,-6.68638 1.26598,-10.29828c-0.03389,-1.00539 0.11411,-3.37336 -0.40005,-4.22336c-0.21213,-0.35068 -0.50852,0.64289 -0.76225,0.96476c-0.65274,0.82807 -1.2801,1.30881 -1.75341,2.26861c-0.66113,1.3176 -3.33148,6.24278 -5.30005,3.62984c-0.37774,-0.50139 -0.09438,-2.64138 -0.09438,-3.29236c0,-3.57068 0.00131,-7.14137 -0.00083,-10.71205c-0.02483,-2.55937 -2.16905,-3.136 -4.35152,-3.47649c-4.4527,-0.69468 -8.88705,-1.56425 -13.26879,-2.65968c-6.68872,-1.66831 -13.58642,-3.04432 -19.16086,2.02249c-3.17996,2.89038 -6.84185,6.68398 -7.93631,10.979c-0.54676,2.14567 -0.29194,4.66491 -0.27292,6.85741c0.0598,6.89459 1.70728,13.47769 2.32404,20.30001c0.00242,3.24868 0.40805,7.75026 -1.85292,10.37701c-1.59729,1.85569 -4.87384,1.32608 -5.8706,-0.92363c-0.58029,-1.30973 -0.23243,-2.96789 0.16673,-4.26221c0.79999,-3.18738 1.89064,-5.82942 1.89064,-9.16851c0,-0.99989 -0.00709,-2.00014 0,-3c0.00278,-0.3921 0.32387,-1.48528 0.08658,-1.17312c-1.8582,2.4444 -2.92225,-0.30845 -3.61851,-2.10923c-0.70061,-1.40532 -1.68059,-3.10335 -2.11327,-4.57276c-0.70513,-2.39463 0.36602,-5.187 0.64764,-7.5275c0.28539,-2.37186 -0.46546,-4.73906 -0.8683,-7.05088c-0.16155,-0.92977 -0.3239,-1.94083 -0.65483,-2.82919c-0.79207,-2.1263 -2.40061,-2.38563 -4.36971,-1.32057c-3.27333,1.77049 -3.42092,6.08373 -7.95689,6.08311c-3.51676,-0.15953 -2.55385,-4.53656 -2.87177,-7.01562c-0.6453,-5.03186 -3.47664,-6.79766 -8.32522,-5.70062c-7.12852,1.54198 -9.60485,9.12918 -10.48598,15.29714c-0.92842,6.4389 -0.23998,13.75715 0.34715,20.21552c0.6252,6.87724 0.94656,13.64145 0.82272,20.55064c-0.02587,1.21466 -0.20282,3.24721 -1.1244,4.17826c-0.84677,0.85548 -5.42477,0.72951 -6.33478,-0.01171c-0.81825,-0.66647 -0.51374,-2.45606 -0.51374,-3.34681c0,-2.53242 0.00521,-5.0649 -0.00304,-7.59731c-0.00794,-2.43618 0.55412,-7.5057 -1.04631,-9.52468c-1.11798,-1.41035 -3.23594,1.34805 -4.33577,1.60861c-1.8008,0.42661 -2.45883,-2.16186 -2.93919,-3.39207c-0.01783,-2.16349 -0.41981,-4.92528 0.23389,-7.01813c0.46178,-1.47843 1.45635,-2.99535 1.7673,-4.51029c0.50252,-2.44824 0.15885,-6.03453 -0.11962,-8.52315c-0.31694,-2.8524 -1.2689,-5.24215 -2.58444,-7.57362c-1.13831,-0.83701 -2.40787,-1.62905 -3.28141,-2.29377c-1.08303,-1.6662 -1.03914,-3.26795 -0.56369,-4.83763c-0.04573,-0.52241 0.02372,-1.04595 0.2584,-1.56157c0,0 0.15462,-0.30924 0.46386,-0.28485zM186.33905,129.13968c0.2401,0.54423 0.45838,1.09732 0.65206,1.66336c-0.06916,-0.55507 -0.21973,-1.07547 -0.52548,-1.49749c-0.04001,-0.05522 -0.08225,-0.11052 -0.12658,-0.16587zM242.87786,106.65885c-0.26598,0.25768 -0.52047,0.53267 -0.76709,0.81957c0.18728,-0.19621 0.3835,-0.38494 0.59937,-0.55594z" fill="#000000" stroke="none" stroke-width="0.5" stroke-linecap="butt"/><path d="M189.11629,136.07566c0,-12.968 10.51265,-23.48065 23.48065,-23.48065c12.968,0 23.48065,10.51265 23.48065,23.48065c0,12.968 -10.51265,23.48065 -23.48065,23.48065c-12.968,0 -23.48065,-10.51265 -23.48065,-23.48065z" fill="#ff0000" stroke="none" stroke-width="2" stroke-linecap="butt"/><path d="M267.10535,159.55632c-12.968,0 -23.48065,-10.51265 -23.48065,-23.48065c0,-12.968 10.51265,-23.48065 23.48065,-23.48065c12.968,0 23.48065,10.51265 23.48065,23.48065c0,12.968 -10.51265,23.48065 -23.48065,23.48065z" data-paper-data="{&quot;index&quot;:null}" fill="#ff0000" stroke="none" stroke-width="2" stroke-linecap="butt"/><path d="M189.44355,139.07271c1.25206,0.04455 45.95431,0.59617 46.2126,0.62024c-0.51423,3.48577 -1.14834,6.30024 -3.04203,9.21768c-4.24825,6.54493 -11.74714,10.2393 -19.77722,10.2393c-11.87745,0 -22.06545,-8.38944 -23.39336,-20.07721z" data-paper-data="{&quot;index&quot;:null}" fill="#ff5d5d" stroke="none" stroke-width="2" stroke-linecap="butt"/><path d="M196.18166,135.80004c0,-9.12808 7.39976,-16.52784 16.52783,-16.52784c9.12808,0 16.52784,7.39977 16.52784,16.52784c0,9.12808 -7.39977,16.52784 -16.52784,16.52784c-9.12808,0 -16.52783,-7.39977 -16.52783,-16.52784z" fill="#000000" stroke="none" stroke-width="0" stroke-linecap="butt"/><path d="M290.15614,139.07271c-1.32791,11.68777 -11.51591,20.07721 -23.39336,20.07721c-8.03008,0 -15.52897,-3.69437 -19.77722,-10.2393c-1.89369,-2.91744 -2.5278,-5.73191 -3.04203,-9.21768c0.25829,-0.02407 44.96054,-0.57569 46.2126,-0.62024z" data-paper-data="{&quot;index&quot;:null}" fill="#ff5d5d" stroke="none" stroke-width="2" stroke-linecap="butt"/><path d="M266.7428,152.32789c-9.12807,0 -16.52783,-7.39977 -16.52783,-16.52784c0,-9.12808 7.39977,-16.52784 16.52783,-16.52784c9.12807,0 16.52783,7.39977 16.52783,16.52784c0,9.12808 -7.39977,16.52784 -16.52783,16.52784z" data-paper-data="{&quot;index&quot;:null}" fill="#000000" stroke="none" stroke-width="0" stroke-linecap="butt"/><g fill="none" stroke="#ff0000" stroke-width="1" stroke-linecap="butt"><path d="M218.44772,144.43687c-0.3822,0.28254 -5.78073,-2.97686 -5.78073,-2.97686c0,0 -5.2721,3.4036 -5.73061,3.07632c-0.43438,-0.30977 1.04428,-6.41965 1.04428,-6.41965c0,0 -4.80116,-4.16617 -4.69589,-4.49962c0.10645,-0.33754 6.42763,-0.9904 6.42763,-0.9904c0,0 2.45841,-5.85425 2.82717,-5.85769c0.39888,-0.00349 2.93012,5.80781 2.93012,5.80781c0,0 6.36252,0.63971 6.44264,0.8799c0.11705,0.3484 -4.61681,4.57973 -4.61681,4.57973c0,0 1.36168,6.24593 1.1522,6.40045z"/><path d="M215.7391,140.8835c-0.20521,0.1517 -3.10371,-1.59829 -3.10371,-1.59829c0,0 -2.83062,1.82741 -3.07679,1.65169c-0.23322,-0.16632 0.56068,-3.44674 0.56068,-3.44674c0,0 -2.57777,-2.23684 -2.52125,-2.41587c0.05715,-0.18123 3.45103,-0.53175 3.45103,-0.53175c0,0 1.31993,-3.14318 1.51792,-3.14502c0.21416,-0.00188 1.5732,3.11824 1.5732,3.11824c0,0 3.41607,0.34346 3.45909,0.47242c0.06284,0.18706 -2.47879,2.45888 -2.47879,2.45888c0,0 0.73109,3.35347 0.61862,3.43644z"/></g><g data-paper-data="{&quot;index&quot;:null}" fill="none" stroke="#ff0000" stroke-width="1" stroke-linecap="butt"><path d="M262.402,137.33644c0,0 -4.73386,-4.23132 -4.61681,-4.57973c0.08013,-0.24019 6.44264,-0.8799 6.44264,-0.8799c0,0 2.53125,-5.81131 2.93012,-5.80781c0.36877,0.00344 2.82717,5.85769 2.82717,5.85769c0,0 6.32118,0.65286 6.42763,0.9904c0.10527,0.33345 -4.69589,4.49963 -4.69589,4.49963c0,0 1.47865,6.10988 1.04428,6.41965c-0.45851,0.32728 -5.73061,-3.07632 -5.73061,-3.07632c0,0 -5.39853,3.2594 -5.78073,2.97686c-0.20948,-0.15452 1.1522,-6.40045 1.1522,-6.40045z"/><path d="M264.57705,136.74705c0,0 -2.54164,-2.27182 -2.47879,-2.45888c0.04302,-0.12896 3.45909,-0.47242 3.45909,-0.47242c0,0 1.35904,-3.12012 1.5732,-3.11825c0.19799,0.00185 1.51793,3.14503 1.51793,3.14503c0,0 3.39387,0.35052 3.45103,0.53175c0.05652,0.17903 -2.52125,2.41587 -2.52125,2.41587c0,0 0.7939,3.28043 0.56068,3.44674c-0.24617,0.17572 -3.0768,-1.6517 -3.0768,-1.6517c0,0 -2.8985,1.74999 -3.1037,1.59829c-0.11247,-0.08296 0.61863,-3.43644 0.61863,-3.43644z"/></g><path d="M189.24514,130.97735l-2.28205,-1.53333" fill="none" stroke="#000000" stroke-width="1" stroke-linecap="round"/><path d="M289.66309,127.92736l2.28205,-1.53333" data-paper-data="{&quot;index&quot;:null}" fill="none" stroke="#000000" stroke-width="1" stroke-linecap="round"/><path d="M189.03294,136.07566c0,-12.968 10.51265,-23.48065 23.48065,-23.48065c12.968,0 23.48065,10.51265 23.48065,23.48065c0,0 -21.20565,-1.77943 -31.57633,-1.61725c-12.84354,0.20084 -15.38497,2.29862 -15.38497,1.61726z" fill="url(#color-6)" stroke="none" stroke-width="0" stroke-linecap="butt"/><path d="M290.74424,134.82566c0,0.68137 -4.29145,-3.34969 -17.13497,-3.55052c-10.37069,-0.16216 -29.82633,3.55052 -29.82633,3.55052c0,-12.968 10.51265,-23.48065 23.48065,-23.48065c12.968,0 23.48065,10.51265 23.48065,23.48065z" data-paper-data="{&quot;index&quot;:null}" fill="url(#color-7)" stroke="none" stroke-width="0" stroke-linecap="butt"/><path d="M302.01511,139.73093c0,0.50626 -0.3731,0.91667 -0.83333,0.91667c-0.46024,0 -0.83333,-0.41041 -0.83333,-0.91667c0,-0.50626 0.3731,-0.91667 0.83333,-0.91667c0.46024,0 0.83333,0.41041 0.83333,0.91667z" fill="#000000" stroke="none" stroke-width="0" stroke-linecap="butt"/><path d="M246.73574,100.8848c0,0.27614 -0.50368,0.5 -1.125,0.5c-0.62132,0 -1.125,-0.22386 -1.125,-0.5c0,-0.27614 0.50368,-0.5 1.125,-0.5c0.62132,0 1.125,0.22386 1.125,0.5z" fill="#000000" stroke="none" stroke-width="0" stroke-linecap="butt"/><g><g fill="url(#color-8)" stroke="none" stroke-width="0" stroke-linecap="butt"><path d="M258.46037,172.28311c-0.05297,0.98522 0.59224,3.4521 -2.62995,5.69229c-0.76008,0.52843 -8.94904,5.19445 -15.33152,5.4322c-8.07307,0.30074 -14.65839,-3.92833 -15.20388,-4.26605c-5.29187,-3.27635 -8.25644,-7.47716 -8.17088,-9.0683c0.02238,-0.41592 10.02616,2.29745 20.35322,2.84953c10.65771,0.56976 20.99858,-0.92915 20.98301,-0.63967z"/></g><path d="M222.95745,177.4013l4.87944,-1.38506l3.96786,1.96873l4.29801,-1.6014l4.1574,2.43931l5.08573,-2.47774l4.25366,2.53667l4.10155,-1.42829l1.74626,0.46509" fill="none" stroke="#000000" stroke-width="0.5" stroke-linecap="round"/></g><path d="M201.66375,159.55648l1,-2.28572" fill="none" stroke="#000000" stroke-width="0.5" stroke-linecap="round"/><path d="M208.09233,158.98505l0.14286,3.42857" fill="none" stroke="#000000" stroke-width="0.5" stroke-linecap="round"/><path d="M279.3959,161.03859l-0.625,-4.625" fill="none" stroke="#000000" stroke-width="0.5" stroke-linecap="round"/><path d="M286.0209,155.91359l-2.125,-3.5" fill="none" stroke="#000000" stroke-width="0.5" stroke-linecap="round"/></g></g></svg>