<svg version="1.1" xmlns="http://www.w3.org/2000/svg" xmlns:xlink="http://www.w3.org/1999/xlink" width="143.69372" height="281.70238" viewBox="0,0,143.69372,281.70238"><defs><linearGradient x1="239.99979" y1="175.91989" x2="239.99979" y2="307.91989" gradientUnits="userSpaceOnUse" id="color-1"><stop offset="0" stop-color="#000000"/><stop offset="1" stop-color="#ff80c9"/></linearGradient><linearGradient x1="220.99579" y1="32.51649" x2="228.99372" y2="131.19982" gradientUnits="userSpaceOnUse" id="color-2"><stop offset="0" stop-color="#000000"/><stop offset="1" stop-color="#8cefef"/></linearGradient><linearGradient x1="227.66589" y1="81.80542" x2="237.40786" y2="202.00795" gradientUnits="userSpaceOnUse" id="color-3"><stop offset="0" stop-color="#000000"/><stop offset="1" stop-color="#8cefef"/></linearGradient><linearGradient x1="245.35442" y1="79.10576" x2="245.65318" y2="82.79217" gradientUnits="userSpaceOnUse" id="color-4"><stop offset="0" stop-color="#000000"/><stop offset="1" stop-color="#000000"/></linearGradient><linearGradient x1="190.41568" y1="53.96966" x2="200.92753" y2="183.67143" gradientUnits="userSpaceOnUse" id="color-5"><stop offset="0" stop-color="#000000"/><stop offset="1" stop-color="#ff80c9"/></linearGradient><linearGradient x1="196.21544" y1="82.75384" x2="196.48482" y2="86.07758" gradientUnits="userSpaceOnUse" id="color-6"><stop offset="0" stop-color="#000000"/><stop offset="1" stop-color="#ce52af"/></linearGradient><linearGradient x1="196.73666" y1="83.62328" x2="197.02879" y2="87.22774" gradientUnits="userSpaceOnUse" id="color-7"><stop offset="0" stop-color="#000000"/><stop offset="1" stop-color="#000000"/></linearGradient><linearGradient x1="200.09807" y1="82.77362" x2="200.39684" y2="86.46003" gradientUnits="userSpaceOnUse" id="color-8"><stop offset="0" stop-color="#000000"/><stop offset="1" stop-color="#000000"/></linearGradient><linearGradient x1="202.23552" y1="101.26427" x2="202.50491" y2="104.58801" gradientUnits="userSpaceOnUse" id="color-9"><stop offset="0" stop-color="#000000"/><stop offset="1" stop-color="#ce52af"/></linearGradient><linearGradient x1="201.6052" y1="101.36945" x2="202.03719" y2="106.69966" gradientUnits="userSpaceOnUse" id="color-10"><stop offset="0" stop-color="#000000"/><stop offset="1" stop-color="#000000"/></linearGradient><linearGradient x1="257.60974" y1="49.52711" x2="268.28315" y2="181.22236" gradientUnits="userSpaceOnUse" id="color-11"><stop offset="0" stop-color="#000000"/><stop offset="1" stop-color="#ff80c9"/></linearGradient><linearGradient x1="256.55712" y1="79.31628" x2="256.83064" y2="82.69111" gradientUnits="userSpaceOnUse" id="color-12"><stop offset="0" stop-color="#000000"/><stop offset="1" stop-color="#ce52af"/></linearGradient><linearGradient x1="256.18385" y1="80.27223" x2="256.48047" y2="83.9321" gradientUnits="userSpaceOnUse" id="color-13"><stop offset="0" stop-color="#000000"/><stop offset="1" stop-color="#000000"/></linearGradient><linearGradient x1="252.72877" y1="79.96614" x2="253.03213" y2="83.70921" gradientUnits="userSpaceOnUse" id="color-14"><stop offset="0" stop-color="#000000"/><stop offset="1" stop-color="#000000"/></linearGradient><linearGradient x1="253.61994" y1="98.84465" x2="253.89346" y2="102.21948" gradientUnits="userSpaceOnUse" id="color-15"><stop offset="0" stop-color="#000000"/><stop offset="1" stop-color="#ce52af"/></linearGradient><linearGradient x1="254.25905" y1="98.84779" x2="254.69769" y2="104.25993" gradientUnits="userSpaceOnUse" id="color-16"><stop offset="0" stop-color="#000000"/><stop offset="1" stop-color="#000000"/></linearGradient><linearGradient x1="225.6562" y1="75.28668" x2="228.0074" y2="104.29724" gradientUnits="userSpaceOnUse" id="color-17"><stop offset="0" stop-color="#000000"/><stop offset="1" stop-color="#e3e854"/></linearGradient><linearGradient x1="233.22114" y1="142.8635" x2="234.21977" y2="161.83723" gradientUnits="userSpaceOnUse" id="color-18"><stop offset="0" stop-color="#000000" stop-opacity="0"/><stop offset="1" stop-color="#000000"/></linearGradient></defs><g transform="translate(-159.04197,-32.32999)"><g data-paper-data="{&quot;isPaintingLayer&quot;:true}" fill-rule="nonzero" stroke-linejoin="miter" stroke-miterlimit="10" stroke-dasharray="" stroke-dashoffset="0" style="mix-blend-mode: normal"><path d="M179.28348,314.03237v-267.22501h123.18203v267.22501z" fill-opacity="0.01" fill="#000000" stroke="none" stroke-width="0" stroke-linecap="butt"/><path d="M206.7498,307.91988l15.14285,-131.8421l37.78325,-0.15789l13.57389,132z" fill="url(#color-1)" stroke="none" stroke-width="0" stroke-linecap="butt"/><path d="M228.99372,131.19982c-29.03065,2.35282 -54.35506,-17.83084 -56.56362,-45.0815c-2.20856,-27.25064 19.53506,-51.24901 48.56571,-53.60184c29.03066,-2.35283 54.35506,17.83085 56.56362,45.0815c2.20856,27.25065 -19.53505,51.24901 -48.56571,53.60184z" fill="url(#color-2)" stroke="none" stroke-width="0" stroke-linecap="butt"/><g stroke="none" stroke-width="0" stroke-linecap="butt"><path d="M168.5098,147.09584c-2.69017,-33.19301 23.79492,-62.42453 59.1561,-65.29042c35.36117,-2.86589 66.20789,21.7191 68.89806,54.91211c2.69017,33.19301 -23.79492,62.42453 -59.1561,65.29042c-35.36117,2.86589 -66.20789,-21.7191 -68.89806,-54.91211z" fill="url(#color-3)"/><path d="M208.70629,93.96509c1.03629,1.52158 -2.07078,5.4433 -6.93983,8.75943c-4.86905,3.31612 -9.65628,4.77089 -10.69257,3.24931c-1.03629,-1.52158 2.07079,-5.44331 6.93983,-8.75944c4.86905,-3.31612 9.65628,-4.77088 10.69257,-3.2493z" fill="#d4f0f0"/><path d="M219.25926,91.37671c0.11897,1.46795 -0.97459,2.75439 -2.44254,2.87336c-1.46795,0.11897 -2.75439,-0.97459 -2.87336,-2.44253c-0.11897,-1.46795 0.97459,-2.7544 2.44253,-2.87337c1.46795,-0.11897 2.7544,0.97459 2.87337,2.44254z" fill="#d4f0f0"/></g><path d="M182.05041,146.42933c-1.04758,-12.92562 8.58149,-24.25314 21.50711,-25.30071c12.92562,-1.04758 24.25314,8.58149 25.30071,21.50711c1.04758,12.92562 -8.58149,24.25314 -21.50711,25.30071c-12.92562,1.04758 -24.25314,-8.58149 -25.30071,-21.50711z" fill="#ff0000" stroke="none" stroke-width="0" stroke-linecap="butt"/><path d="M261.43221,163.55333c-12.92562,1.04758 -24.25314,-8.58149 -25.30071,-21.50711c-1.04758,-12.92562 8.58149,-24.25314 21.50711,-25.30071c12.92562,-1.04758 24.25314,8.58149 25.30071,21.50711c1.04758,12.92562 -8.58149,24.25314 -21.50711,25.30071z" data-paper-data="{&quot;index&quot;:null}" fill="#ff0000" stroke="none" stroke-width="0" stroke-linecap="butt"/><path d="M255.25404,101.76839c-3.99117,-0.60191 -11.99814,0.1075 -11.99814,0.1075c0,0 7.06921,-2.47284 12.23732,-1.69345c5.16811,0.77939 12.27271,5.38976 12.27271,5.38976c0,0 -8.34097,-3.1748 -12.51189,-3.80381z" data-paper-data="{&quot;index&quot;:null}" fill="#000000" stroke="none" stroke-width="0" stroke-linecap="butt"/><path d="M178.17681,143.83382l3.79827,2.30069" fill="none" stroke="#000000" stroke-width="2" stroke-linecap="round"/><path d="M287.137,133.30087l-3.91162,3.72817" fill="none" stroke="#000000" stroke-width="2" stroke-linecap="round"/><path d="M205.50869,97.26094c1.97013,2.52576 -0.63375,7.8501 -5.8159,11.89224c-5.18215,4.04216 -10.98022,5.27143 -12.95033,2.74567c-1.97013,-2.52576 0.63375,-7.8501 5.81591,-11.89224c5.18216,-4.04215 10.98022,-5.27143 12.95033,-2.74567z" fill="#ecfefe" stroke="none" stroke-width="0" stroke-linecap="butt"/><path d="M213.43132,94.04748c0.11154,1.3762 -0.82443,2.57501 -2.09053,2.67763c-1.26609,0.10261 -2.3829,-0.92983 -2.49443,-2.30603c-0.11154,-1.3762 0.82442,-2.57501 2.09053,-2.67763c1.26609,-0.10261 2.3829,0.92983 2.49443,2.30603z" fill="#ecfefe" stroke="none" stroke-width="0" stroke-linecap="butt"/><path d="M191.91643,111.71952c0,0 6.26945,-5.69429 11.2446,-7.29575c4.97516,-1.60147 12.35032,-0.29928 12.35032,-0.29928c0,0 -8.01671,0.58925 -11.85887,1.82601c-4.0152,1.29247 -11.73605,5.76902 -11.73605,5.76902z" fill="#000000" stroke="none" stroke-width="0" stroke-linecap="butt"/><path d="M246.30661,79.0286l-1.60563,3.84074" fill="url(#color-4)" stroke="none" stroke-width="2" stroke-linecap="round"/><path d="M198.6554,171.6581l0.40867,-3.21016" fill="none" stroke="#000000" stroke-width="2" stroke-linecap="round"/><path d="M217.60676,170.28937l-0.37698,-4.65141" fill="none" stroke="#000000" stroke-width="2" stroke-linecap="round"/><path d="M249.46178,167.20601l-0.04474,-4.67834" fill="none" stroke="#000000" stroke-width="2" stroke-linecap="round"/><path d="M270.45296,166.95952l-1.09278,-4.64117" fill="none" stroke="#000000" stroke-width="2" stroke-linecap="round"/><path d="M182.8753,151.5225c0.42394,-0.02066 44.62237,-3.60681 45.75595,-3.80285c-0.51658,10.59276 -9.40463,19.48568 -20.97769,20.42363c-4.53522,0.36757 -11.78103,-1.1779 -15.79099,-4.14034c-6.6535,-4.91539 -8.98727,-12.48045 -8.98727,-12.48045z" data-paper-data="{&quot;index&quot;:null}" fill="#ff4242" stroke="none" stroke-width="2" stroke-linecap="butt"/><path d="M189.07043,145.58382c-0.73738,-9.09825 6.04044,-17.07159 15.13868,-17.80897c9.09825,-0.73738 17.07159,6.04045 17.80896,15.13869c0.73738,9.09825 -6.04045,17.07159 -15.13869,17.80896c-9.09825,0.73738 -17.07158,-6.04045 -17.80895,-15.13868z" fill="#000000" stroke="none" stroke-width="0" stroke-linecap="butt"/><path d="M276.18407,156.96834c-3.48057,3.56952 -10.38294,6.26164 -14.91816,6.6292c-11.57307,0.93795 -21.77717,-6.40762 -23.99282,-16.77894c1.15035,0.01094 45.34944,-3.56721 45.77117,-3.61509c0,0 -1.08508,7.84214 -6.86019,13.76483z" data-paper-data="{&quot;index&quot;:null}" fill="#ff4242" stroke="none" stroke-width="2" stroke-linecap="butt"/><path d="M260.73611,156.35762c-9.09824,0.73738 -17.07158,-6.04045 -17.80895,-15.13868c-0.73738,-9.09825 6.04045,-17.07159 15.13868,-17.80897c9.09824,-0.73738 17.07158,6.04045 17.80895,15.13868c0.73738,9.09825 -6.04045,17.07159 -15.13868,17.80897z" data-paper-data="{&quot;index&quot;:null}" fill="#000000" stroke="none" stroke-width="0" stroke-linecap="butt"/><g stroke="none" stroke-width="0"><path d="M228.27552,85.09383c0.01437,0.17728 -19.10318,43.36353 -20.61818,44.10705c-0.10471,0.05138 -21.91967,50.86754 -32.26969,56.46787c-3.28231,1.77605 -9.42155,-20.23979 -10.05249,-22.93524c-5.48812,-23.44653 -4.49861,-62.52197 -4.32395,-68.54947c0.2634,-9.09013 2.66367,-18.15533 3.89739,-21.1189c4.76855,-11.45475 13.00704,-18.08239 20.79209,-18.71333c10.26242,-0.83173 20.17986,8.5348 28.82081,16.87969c6.81202,6.57862 13.62,12.20864 13.75402,13.86236z" fill="url(#color-5)" stroke-linecap="butt"/><path d="M199.18203,82.62063c0.024,0.29614 1.99082,3.077 0.0785,3.23199c-1.91231,0.15499 -6.63492,-1.74287 -6.65892,-2.03901c-0.024,-0.29614 1.50679,-0.66185 3.41911,-0.81683c1.91231,-0.15499 3.1373,-0.67229 3.1613,-0.37616z" data-paper-data="{&quot;index&quot;:null}" fill="url(#color-6)" stroke-linecap="butt"/><path d="M192.07588,84.00102l9.6137,2.84899" fill="url(#color-7)" stroke-linecap="round"/><path d="M199.14587,82.8508l2.20318,3.53205" fill="url(#color-8)" stroke-linecap="round"/><path d="M202.27361,104.3796c-1.91232,0.15499 -3.48202,0.04057 -3.50602,-0.25557c-0.024,-0.29614 4.33133,-2.92973 6.24366,-3.08472c1.91232,-0.15499 0.41899,2.90631 0.44299,3.20245c0.024,0.29614 -1.26831,-0.01715 -3.18062,0.13784z" data-paper-data="{&quot;index&quot;:null}" fill="url(#color-9)" stroke-linecap="butt"/><path d="M197.23654,105.35166l9.02944,-4.35995l-2.16812,5.54094" data-paper-data="{&quot;index&quot;:null}" fill="url(#color-10)" stroke-linecap="round"/></g><path d="M208.47853,144.75448c0.09242,1.14028 -0.78892,2.14216 -1.96852,2.23776c-1.17961,0.0956 -2.21077,-0.75128 -2.30319,-1.89156c-0.09242,-1.14028 0.78892,-2.14216 1.96852,-2.23776c1.17961,-0.0956 2.21077,0.75128 2.30319,1.89156z" fill="#ff0000" stroke="none" stroke-width="0" stroke-linecap="butt"/><path d="M261.92568,140.34635c0.09242,1.14028 -0.78892,2.14216 -1.96852,2.23776c-1.17961,0.0956 -2.21076,-0.75127 -2.30318,-1.89155c-0.09242,-1.14028 0.78892,-2.14216 1.96851,-2.23776c1.17961,-0.0956 2.21077,0.75128 2.30319,1.89156z" fill="#ff0000" stroke="none" stroke-width="0" stroke-linecap="butt"/><g data-paper-data="{&quot;index&quot;:null}" stroke="none" stroke-width="0"><path d="M225.29841,86.86392c-0.13608,-1.67913 5.66875,-8.42639 11.32366,-16.125c7.17317,-9.7656 15.44025,-20.76222 25.70267,-21.59395c7.78504,-0.63095 16.99066,4.6745 23.55528,15.38086c1.6984,2.76995 5.53814,11.46576 7.27315,20.53331c1.15044,6.01251 8.4678,45.01407 6.85659,69.40317c-0.18523,2.80381 -2.67116,25.86471 -6.19851,24.61735c-11.12269,-3.93321 -40.8968,-51.32213 -41.00847,-51.35663c-1.61573,-0.49933 -27.48978,-40.67913 -27.50438,-40.85913z" fill="url(#color-11)" stroke-linecap="butt"/><path d="M256.78872,79.52817c1.91232,-0.15499 3.48232,-0.03687 3.50669,0.26381c0.02437,0.30069 -4.32816,2.9691 -6.24047,3.12408c-1.91232,0.15499 -0.42262,-2.9512 -0.447,-3.2519c-0.02437,-0.30069 1.26845,0.01898 3.18077,-0.13601z" data-paper-data="{&quot;index&quot;:null}" fill="url(#color-12)" stroke-linecap="butt"/><path d="M251.81968,84.30983l9.02496,-4.41535" fill="url(#color-13)" stroke-linecap="round"/><path d="M252.07992,83.78636l1.60105,-3.89739" fill="url(#color-14)" stroke-linecap="round"/><path d="M250.92673,102.35106c-0.02437,-0.30069 -1.99483,-3.12645 -0.08251,-3.28144c1.91232,-0.15499 6.63774,1.77768 6.66211,2.07837c0.02437,0.30069 -1.50612,0.67009 -3.41844,0.82507c-1.91231,0.15499 -3.13679,0.67868 -3.16116,0.37799z" data-paper-data="{&quot;index&quot;:null}" fill="url(#color-15)" stroke-linecap="butt"/><path d="M252.63701,104.42693l-3.03875,-5.20141l9.61819,2.9044" data-paper-data="{&quot;index&quot;:null}" fill="url(#color-16)" stroke-linecap="round"/></g><path d="M247.48607,189.07602c0.28354,3.49855 -21.64456,5.27574 -21.9281,1.77719c-0.28354,-3.49855 4.39537,-6.73253 10.45065,-7.22329c6.05528,-0.49076 11.19391,1.94756 11.47746,5.44611z" fill="#000000" stroke="none" stroke-width="0" stroke-linecap="butt"/><path d="M205.57984,170.01453l-3.03636,-0.32721" fill="none" stroke="#000000" stroke-width="0.5" stroke-linecap="round"/><path d="M202.93212,170.94575l1.44698,0.16937" fill="none" stroke="#000000" stroke-width="0.5" stroke-linecap="round"/><path d="M265.15317,164.82802l2.09227,-1.00563" fill="none" stroke="#000000" stroke-width="0.5" stroke-linecap="round"/><path d="M266.45067,166.39499l1.26165,-0.93831" fill="none" stroke="#000000" stroke-width="0.5" stroke-linecap="round"/><path d="M159.71139,143.16455c-0.32901,-1.09359 -1.33776,-4.43033 0.0217,-5.30716c0.16531,-0.10663 0.34599,-0.11253 0.53373,-0.06221l-0.02328,-0.28726c-0.03346,-0.41285 0.27411,-0.77467 0.68696,-0.80813c0.41285,-0.03346 0.77467,0.27411 0.80813,0.68696l0.06793,0.83811c0.03864,-0.00805 0.07991,-0.01402 0.12398,-0.0176c0.29067,-0.02355 0.47748,0.07507 0.59726,0.20443c0.03336,0.00205 0.06815,0.00598 0.10442,0.012c0.34079,0.05643 0.49863,0.24384 0.56975,0.4296c2.38786,0.37416 3.19036,-4.1984 5.61096,-2.27389c1.37719,1.09494 0.96476,3.15126 0.87692,4.61645c-0.16889,2.81691 -1.24102,5.51827 -2.11171,8.21277c-0.61458,2.08449 -0.13286,4.23923 0.04249,6.39552c0.05886,0.72387 -0.2864,1.60062 0.16083,2.17285c0.34918,0.44677 1.05691,-0.48307 1.44676,-0.89485c3.27779,-3.46222 3.71172,-10.16967 4.33984,-14.67416c0.14626,-5.17132 0.24441,-12.41236 3.03792,-16.87992c2.42493,-3.87809 7.11575,-6.43356 8.89074,-0.64293c1.15467,3.08906 1.72705,6.64785 2.48142,9.85263c0.16254,0.6905 -0.14354,1.30936 0.42012,1.87279c0.21557,0.21549 0.46696,-0.3969 0.66054,-0.63234c0.4689,-0.57031 0.64283,-1.33026 1.00162,-1.97553c1.26993,-2.28387 2.7997,-4.87363 5.33162,-5.77546c5.40005,-0.43765 1.28857,8.83831 2.89571,12.11968c0.17016,0.34743 0.47262,-0.64817 0.81711,-0.8242c0.46254,-0.23634 2.05337,-0.79048 2.56768,-0.30285c0.36967,0.3505 0.37772,0.99397 0.30317,1.4979c-0.20321,1.37389 -1.04558,3.8024 -1.59577,5.16884c-0.73966,4.33422 -3.84703,7.93878 -5.61074,11.8492c-1.88162,4.17188 -3.46665,8.52881 -6.29334,12.21629c-2.37609,4.70667 -4.35593,9.37348 -7.80535,13.41928c-0.71958,0.84398 -1.27586,2.20214 -2.20598,2.81834c-2.09882,1.39045 -5.94103,0.66698 -6.94619,-1.56824c-3.92637,-6.51676 -5.43158,-13.78373 -7.51892,-21.09179c-0.76925,-2.45046 -1.10094,-5.07018 -1.29711,-7.71197c-0.97912,-4.22135 -1.74533,-8.51286 -2.99095,-12.65314zM160.5434,141.01867c-0.00513,-0.05456 -0.01023,-0.10912 -0.01532,-0.16367c-0.09849,-0.45334 -0.16042,-0.87084 -0.11467,-1.28233c-0.00784,-0.09117 -0.01561,-0.18234 -0.02333,-0.27349c-0.10129,0.46916 -0.01409,1.07698 0.15331,1.7195z" fill="#000000" stroke="none" stroke-width="0.5" stroke-linecap="butt"/><path d="M301.63684,148.31987c0.23182,2.6389 0.32633,5.27784 -0.03829,7.82018c-0.88324,7.54882 -1.19859,14.96335 -4.02428,22.02734c-0.63209,2.36792 -4.30766,3.70067 -6.60298,2.66635c-1.01722,-0.45837 -1.78494,-1.70923 -2.63103,-2.42632c-4.05592,-3.43753 -6.76145,-7.7246 -9.86446,-11.98721c-3.38361,-3.18416 -5.64958,-7.22898 -8.17845,-11.04341c-2.37039,-3.57537 -6.01767,-6.63249 -7.44564,-10.79104c-0.76304,-1.26 -1.9855,-3.52117 -2.4073,-4.84441c-0.15471,-0.48536 -0.25042,-1.12171 0.058,-1.52718c0.42906,-0.56408 2.08835,-0.27337 2.58292,-0.11459c0.36835,0.11826 0.82719,1.05216 0.93918,0.68186c1.05775,-3.49735 -4.49383,-11.99016 0.90623,-12.42782c2.6441,0.48234 4.57094,2.79194 6.19209,4.84151c0.45803,0.57907 0.75208,1.3011 1.30669,1.78844c0.22898,0.2012 0.57569,0.76511 0.75375,0.51771c0.46557,-0.64684 0.06383,-1.20833 0.11305,-1.916c0.22844,-3.28443 0.22026,-6.88893 0.86242,-10.12364c0.81933,-6.00089 5.86045,-4.23417 8.87824,-0.79719c3.47648,3.9594 4.7394,11.09014 5.71652,16.17041c1.34529,4.34455 2.85369,10.89458 6.64624,13.78378c0.45106,0.34363 1.29929,1.14737 1.57197,0.65018c0.34924,-0.63677 -0.1327,-1.44648 -0.19117,-2.17039c-0.17416,-2.15638 -0.04571,-4.36058 -0.98796,-6.31889c-1.29324,-2.51911 -2.7864,-5.01258 -3.40669,-7.76553c-0.32264,-1.43191 -1.06083,-3.39498 0.12207,-4.69741c2.0791,-2.28917 3.60746,2.09448 5.90391,1.34067c0.04028,-0.19479 0.16588,-0.40517 0.49314,-0.51574c0.03482,-0.01177 0.06854,-0.02126 0.10113,-0.02865c0.09738,-0.14695 0.26586,-0.27437 0.55655,-0.29793c0.04407,-0.00357 0.08577,-0.00433 0.1252,-0.0026l-0.06793,-0.83811c-0.03346,-0.41285 0.2741,-0.77467 0.68696,-0.80813c0.41286,-0.03346 0.77467,0.27411 0.80813,0.68696l0.02328,0.28726c0.17719,-0.07988 0.35647,-0.10316 0.53678,-0.02455c1.48293,0.64647 1.02467,4.10211 0.87605,5.23441c-0.56264,4.28683 -0.62777,8.64573 -0.91433,12.96966zM301.25885,131.64458c0.00707,0.09122 0.01408,0.18244 0.02103,0.27368c0.11143,0.39876 0.11753,0.82078 0.09332,1.28405c0.00378,0.05467 0.00751,0.10933 0.01123,0.16401c0.06175,-0.66109 0.04994,-1.27501 -0.12559,-1.72174z" data-paper-data="{&quot;index&quot;:null}" fill="#000000" stroke="none" stroke-width="0.5" stroke-linecap="butt"/><path d="M247.40595,88.07351c0.86921,10.72491 -6.60872,15.18715 -19.27461,16.21368c-12.66588,1.02653 -21.00451,-2.05186 -21.87372,-12.77678c-0.86921,-10.72491 6.73268,-15.19722 19.39857,-16.22373c12.66588,-1.02653 20.88055,2.06192 21.74977,12.78683z" fill="url(#color-17)" stroke="none" stroke-width="0" stroke-linecap="butt"/><path d="M236.78951,191.62737c0.31905,-1.74339 4.76113,-2.65041 6.75739,-3.00247l0.2145,-0.12991c0.03315,-0.02104 0.07175,-0.03455 0.11361,-0.03794c0.13762,-0.01115 0.25823,0.09137 0.26938,0.22899c0.00483,0.05961 -0.01167,0.11602 -0.0431,0.16174l-0.20778,0.30774c-0.58158,1.85441 -0.58949,3.39478 -0.28562,5.3126c0.77982,3.09273 1.93141,4.26084 4.2014,5.86785l0.00478,-0.01546l0.31601,0.09763c0.0975,0.02766 0.17229,0.11343 0.18095,0.22039c0.01115,0.13762 -0.09137,0.25823 -0.22899,0.26938l-0.23373,0.01895c-0.46774,0.11715 -0.94292,0.19581 -1.41549,0.3022c-2.31917,0.18423 -5.49309,1.51398 -7.83472,1.03496l0.00318,0.03932l-0.24919,0.02019c-0.13762,0.01115 -0.25823,-0.09137 -0.26938,-0.22899c-0.00961,-0.1186 0.06519,-0.22454 0.17411,-0.25871l0.23918,-0.08082l0.00084,0.00248l0.00482,-0.00432c2.09975,-0.57097 1.38388,-3.87356 0.75988,-5.33323c-0.47146,-1.65032 -2.63745,-5.54292 -4.82359,-5.25418c0,0 -0.24919,0.02019 -0.26938,-0.22899c-0.02019,-0.24919 0.22899,-0.26938 0.22899,-0.26938c0.84495,-0.04246 1.66015,0.34712 2.39194,0.95999z" fill="#000000" stroke="none" stroke-width="0.5" stroke-linecap="butt"/><path d="M245.89342,195.69877c0.03447,0.42537 -0.26213,0.79651 -0.66248,0.82895c-0.40035,0.03244 -0.75284,-0.28608 -0.78731,-0.71145c-0.03447,-0.42537 0.26213,-0.79651 0.66248,-0.82895c0.40035,-0.03244 0.75284,0.28608 0.78731,0.71145z" fill="#000000" stroke="none" stroke-width="0" stroke-linecap="butt"/><path d="M219.16167,164.29875c0,0 6.83994,-7.06508 8.61289,-10.96238c1.35365,-2.97559 1.11048,-10.41156 1.11048,-10.41156c0,0 7.53206,-1.27229 6.85573,-1.01047c-0.84563,0.32736 0.94244,6.50439 4.23222,11.75281c2.98013,4.75442 8.77054,8.24014 8.77054,8.24014c0,0 -9.83778,-3.72229 -14.67938,-3.33089c-5.01305,0.40526 -14.90248,5.72234 -14.90248,5.72234z" fill="url(#color-18)" stroke="none" stroke-width="0" stroke-linecap="butt"/></g></g></svg>