<svg version="1.1" xmlns="http://www.w3.org/2000/svg" xmlns:xlink="http://www.w3.org/1999/xlink" width="260.53417" height="429.60845" viewBox="0,0,260.53417,429.60845"><defs><linearGradient x1="192.09995" y1="113.87743" x2="211.66541" y2="138.7329" gradientUnits="userSpaceOnUse" id="color-1"><stop offset="0" stop-color="#000000"/><stop offset="1" stop-color="#7ebb78"/></linearGradient><linearGradient x1="197.39639" y1="128.35709" x2="218.4397" y2="146.27695" gradientUnits="userSpaceOnUse" id="color-2"><stop offset="0" stop-color="#000000"/><stop offset="1" stop-color="#7ebb78"/></linearGradient><linearGradient x1="202.86497" y1="134.13807" x2="227.71448" y2="145.38351" gradientUnits="userSpaceOnUse" id="color-3"><stop offset="0" stop-color="#000000"/><stop offset="1" stop-color="#7ebb78"/></linearGradient><linearGradient x1="264.22604" y1="70.35835" x2="278.57093" y2="208.48102" gradientUnits="userSpaceOnUse" id="color-4"><stop offset="0" stop-color="#000000"/><stop offset="1" stop-color="#f5d7d7"/></linearGradient><linearGradient x1="263.86935" y1="70.09082" x2="278.21424" y2="208.2135" gradientUnits="userSpaceOnUse" id="color-5"><stop offset="0" stop-color="#000000"/><stop offset="1" stop-color="#c88989"/></linearGradient><linearGradient x1="243.1496" y1="94.50785" x2="243.1496" y2="316.59794" gradientUnits="userSpaceOnUse" id="color-6"><stop offset="0" stop-color="#000000"/><stop offset="1" stop-color="#d93838"/></linearGradient><linearGradient x1="235.83005" y1="95.66409" x2="235.83005" y2="142.90102" gradientUnits="userSpaceOnUse" id="color-7"><stop offset="0" stop-color="#000000"/><stop offset="1" stop-color="#f5d7d7"/></linearGradient><linearGradient x1="248.60249" y1="95.66411" x2="248.60249" y2="142.49396" gradientUnits="userSpaceOnUse" id="color-8"><stop offset="0" stop-color="#000000"/><stop offset="1" stop-color="#f5b4b4"/></linearGradient><linearGradient x1="218.69271" y1="95.66411" x2="218.69271" y2="141.11135" gradientUnits="userSpaceOnUse" id="color-9"><stop offset="0" stop-color="#000000"/><stop offset="1" stop-color="#f5b4b4"/></linearGradient><linearGradient x1="236.89317" y1="-58.39012" x2="220.60695" y2="11.53573" gradientUnits="userSpaceOnUse" id="color-10"><stop offset="0" stop-color="#000000"/><stop offset="1" stop-color="#7ebb78"/></linearGradient><linearGradient x1="222.65147" y1="-55.86968" x2="243.98543" y2="12.68489" gradientUnits="userSpaceOnUse" id="color-11"><stop offset="0" stop-color="#000000"/><stop offset="1" stop-color="#7ebb78"/></linearGradient><linearGradient x1="233.9079" y1="0.72297" x2="238.55477" y2="128.20587" gradientUnits="userSpaceOnUse" id="color-12"><stop offset="0" stop-color="#000000"/><stop offset="1" stop-color="#fa4242"/></linearGradient><linearGradient x1="253.45095" y1="-28.55527" x2="322.28355" y2="140.22558" gradientUnits="userSpaceOnUse" id="color-13"><stop offset="0" stop-color="#000000"/><stop offset="1" stop-color="#7ebb78"/></linearGradient><linearGradient x1="249.61506" y1="14.11247" x2="259.72531" y2="152.38558" gradientUnits="userSpaceOnUse" id="color-14"><stop offset="0" stop-color="#000000"/><stop offset="1" stop-color="#7ebb78"/></linearGradient><linearGradient x1="188.20184" y1="-8.83209" x2="169.32719" y2="80.95506" gradientUnits="userSpaceOnUse" id="color-15"><stop offset="0" stop-color="#000000"/><stop offset="1" stop-color="#7ebb78"/></linearGradient><linearGradient x1="178.78038" y1="5.92942" x2="188.84864" y2="120.29169" gradientUnits="userSpaceOnUse" id="color-16"><stop offset="0" stop-color="#000000"/><stop offset="1" stop-color="#7ebb78"/></linearGradient><linearGradient x1="233.97832" y1="71.11935" x2="234.46401" y2="84.44384" gradientUnits="userSpaceOnUse" id="color-17"><stop offset="0" stop-color="#5c1818" stop-opacity="0"/><stop offset="1" stop-color="#5c1818"/></linearGradient><radialGradient cx="209.23445" cy="64.82477" r="8.85714" gradientUnits="userSpaceOnUse" id="color-18"><stop offset="0" stop-color="#ff0000"/><stop offset="1" stop-color="#ff0000" stop-opacity="0"/></radialGradient></defs><g transform="translate(-119.21214,112.93844)"><g data-paper-data="{&quot;isPaintingLayer&quot;:true}" fill-rule="nonzero" stroke-linejoin="miter" stroke-miterlimit="10" stroke-dasharray="" stroke-dashoffset="0" style="mix-blend-mode: normal"><g stroke="none" stroke-width="0" stroke-linecap="butt"><path d="M211.66541,138.7329c-7.45135,7.58785 -28.87785,9.81171 -29.96856,8.4261c-0.64262,-0.81637 2.17745,-24.90523 10.4031,-33.28157c9.3361,-9.50712 21.28438,-11.65007 26.68723,-4.78643c5.40285,6.86365 2.21433,20.13478 -7.12177,29.6419z" fill="url(#color-1)"/><path d="M218.4397,146.27695c-5.3388,9.19354 -23.76466,17.22462 -24.93776,16.22564c-0.69116,-0.58857 -1.99912,-23.99661 3.89445,-34.14549c6.6892,-11.51896 16.82257,-16.84542 22.63352,-11.89699c5.81095,4.94843 5.09898,18.29788 -1.59021,29.81684z" fill="url(#color-2)"/><path d="M227.71448,145.38351c-3.37314,10.10888 -20.07086,22.64094 -21.45614,22.01405c-0.81617,-0.36936 -7.11703,-22.10018 -3.39337,-33.2595c4.22635,-12.66581 13.21523,-20.4161 20.07723,-17.31075c6.862,3.10535 8.99863,15.89039 4.77228,28.55621z" fill="url(#color-3)"/></g><g stroke="none" stroke-linecap="butt"><g data-paper-data="{&quot;index&quot;:null}" stroke-width="0"><path d="M295.80447,115.31117c1.10895,10.67772 11.30464,68.70208 26.61125,108.16651c14.50819,37.40586 54.48862,75.62699 53.8389,75.70124c-24.67511,2.81966 -145.57315,-116.51227 -149.53438,-154.65379c-3.96123,-38.14152 12.83068,-71.34712 37.50579,-74.16678c24.67511,-2.81966 27.6172,6.8113 31.57843,44.95282z" fill="url(#color-4)"/><g fill="url(#color-5)"><path d="M322.05904,223.21017c0.4109,1.05942 0.84224,2.11949 1.29251,3.17933c-2.21765,2.63072 -4.4417,5.25611 -6.67328,7.87582c-3.96462,4.65418 -7.88209,9.34594 -11.95799,13.89998c-11.96011,-11.51813 -23.967,-24.01732 -34.86598,-36.39607c4.44027,-4.31357 9.08368,-8.44707 13.58894,-12.67983c5.41229,-5.08493 11.63865,-9.45134 17.45919,-14.06459c2.48937,-1.97302 4.98072,-3.94353 7.47304,-5.91282c3.86625,15.11803 8.47952,30.68079 13.68357,44.09819z"/><path d="M375.89794,298.9114c-8.04321,0.91911 -26.31039,-11.14074 -47.41881,-29.13687c3.59367,-3.61433 7.19275,-7.22316 10.79643,-10.82769c0.58115,-0.58128 1.16186,-1.16269 1.74201,-1.74442c16.50266,23.51196 35.32785,41.65784 34.88037,41.70898z"/><path d="M295.44779,115.04366c0.19663,1.8933 0.67895,5.27517 1.42479,9.77821c-5.24469,2.21501 -10.45962,4.5056 -15.69129,6.7476c-6.86144,2.94042 -13.29196,7.05812 -19.80283,10.70796c-6.54043,3.66641 -13.01159,7.43207 -19.46772,11.2448c-3.42163,2.02067 -6.84108,4.02473 -10.28509,5.98637c-2.97825,-5.88464 -4.82665,-11.05833 -5.26208,-15.25098c-1.50404,-14.48196 -0.01621,-28.25233 3.75901,-39.91804c3.94104,-0.84427 7.86317,-1.7739 11.80712,-2.70826c7.28469,-1.72581 14.44433,-4.05349 21.62875,-6.15736c7.24246,-1.90626 14.50546,-3.74917 21.72328,-5.74661c2.08797,-0.57782 4.17389,-1.16594 6.26069,-1.75154c1.61985,6.74475 2.71673,15.62273 3.90538,27.06785z"/></g></g><path d="M351.83358,263.9653c1.62637,2.16514 3.42196,3.94786 5.22165,6.10611c4.10612,4.92419 7.7848,10.11869 11.97574,14.97145c2.36649,2.74019 7.28611,6.65552 8.36539,10.22742c0.69232,2.29124 2.13984,5.08443 0.88936,7.12536c-0.91431,1.49227 -3.52462,0.28369 -5.25027,-0.00777c-3.68818,-0.62293 -6.76706,-3.59429 -9.69261,-5.68396c-5.40614,-3.93412 -10.95847,-7.79077 -16.33333,-11.66667c-2.59206,-1.86917 -4.61046,-4.72162 -7.11248,-6.75267c-4.71479,-3.82731 -10.54237,-6.21153 -14.86019,-10.50766c-2.35024,-2.33844 -4.44724,-4.94194 -6.50766,-7.52685c-0.85883,-1.07745 -2.31385,-1.83559 -2.65099,-3.17157c-0.57524,-2.27948 -1.65229,-5.45321 0.07087,-7.05248c0.67692,-0.62826 6.57287,1.46729 8.88378,2.28797c-0.8133,-1.03081 -1.5066,-2.16566 -2.01289,-3.36842c-1.81296,-4.30687 -1.67701,-14.75799 4.94626,-15.40862c6.47181,-0.63575 7.15309,5.88994 7.84422,10.43558c0.99405,6.53795 2.53474,12.97734 8.55529,16.75766c0.52162,0.32753 1.11222,0.41033 1.73375,0.37532c0.22697,-0.4188 0.62838,-0.81155 1.31,-1.0842c1.30895,-0.52358 2.17502,-0.01376 2.68146,0.53044c0.75426,0.11544 1.91866,0.56547 2.07008,2.23108c0.04276,0.47038 -0.01142,0.85996 -0.12745,1.1825z" fill="#000000" stroke-width="0.5"/></g><g stroke="none" stroke-width="0" stroke-linecap="butt"><path d="M197.89961,316.59792l20.60794,-221.82442l51.41931,-0.26565l18.47274,222.09009z" fill="url(#color-6)"/><path d="M269.84736,94.57992l18.8075,222.09009l-36.00904,-0.00001c0.2516,-0.51191 0.45843,-0.9315 0.52253,-1.10891c0.73517,-2.03948 3.58291,-5.91647 1.42471,-8.02902c-0.43195,-0.42281 -1.82757,0.31333 -1.80626,-0.28528c0.00339,-0.0952 1.38508,-1.88452 1.52842,-2.27686c0.96722,-2.64755 1.00442,-5.28826 1.00408,-8.05478c-0.01105,-1.27685 0.58006,-4.58576 -0.85882,-5.30613c-1.05355,-0.52745 -2.39916,0.61016 -3.20536,0.90728c-0.82425,0.30377 -2.0675,0.08619 -2.97952,0.33412c-0.83655,0.22742 -2.5576,0.90364 -3.21398,-0.13808c-0.5765,-0.91495 0.06419,-4.57446 0.05892,-5.74234c-0.0061,-0.33854 -0.00239,-2.19281 -0.19387,-2.35609c-1.16161,-0.99054 -2.35724,0.6596 -3.26914,0.95292c-1.57825,0.50767 -3.27645,0.52882 -4.91036,1.07732c-0.38037,0.12769 -4.20301,1.0477 -4.27375,0.50333c-0.06813,-0.52424 2.83552,-3.83775 3.33746,-4.50786c4.20645,-5.61581 7.30115,-12.67376 7.27853,-19.66176c-0.00513,-1.58073 0.84848,-6.24762 -1.80493,-5.38063c-1.59793,0.52212 -4.18823,4.06547 -4.90827,5.47125c-0.10839,0.21162 -1.41836,2.81749 -1.55212,2.47825c-0.28901,-0.733 0.13328,-2.80176 0.13328,-3.6627c0,-3.66389 -0.03453,-7.32976 0.01455,-10.99334c0.0143,-1.06712 -0.31795,-2.84778 0.02663,-3.84563c0.56368,-1.63234 2.60981,-3.25264 3.5109,-4.78529c0.70198,-1.19633 1.51738,-2.26852 2.40781,-3.26784c0.67775,-0.59501 1.31007,-1.25027 1.90498,-1.95034c1.68002,-1.59285 3.50555,-3.0726 5.2799,-4.70191c2.09038,-1.91951 4.16416,-2.44197 4.16152,-5.4407c-0.04986,-1.53876 -0.87514,-2.20098 -2.04852,-2.45749c0.05976,-2.41725 0.60368,-5.90067 -0.33714,-8.11616c-0.97443,-2.29464 -3.71198,-2.86653 -5.51027,-4.46273c-1.50979,-1.34012 -1.28752,-3.44927 -1.19577,-5.22903c0.05678,-1.21832 0.31252,-2.48264 0.64956,-3.75988c0.05679,-0.02976 0.11268,-0.06052 0.16763,-0.09231c1.85611,-1.07406 0.23286,-3.33214 2.20798,-3.66734c5.21167,-4.94795 12.49543,-9.73022 10.66769,-17.59104c-1.79411,-0.70208 -2.21176,-2.12426 -4.27497,-2.7401c-3.18827,-0.95165 -6.60859,-0.89498 -9.89518,-1.96861c-0.28195,-0.09211 -2.63011,-0.44362 -2.71105,-0.5506c-0.25048,-0.33107 0.51778,-2.04924 0.68221,-2.35765c1.55065,-2.98627 3.0503,-5.90658 4.54356,-8.92318c1.6843,-3.40252 4.24572,-6.3492 3.86741,-10.37692c-0.11803,-1.18109 0.11749,-2.49283 -1.25291,-3.09587c-0.39642,-0.17444 -2.48423,0.29121 -2.78014,-0.15578c-0.80143,-1.2106 0.69933,-4.21177 1.11335,-5.33113c1.08906,-2.94441 1.1022,-5.9856 0.97638,-9.0707c-0.0141,-0.34495 -0.05355,-2.16492 -0.23758,-2.3388c-0.92059,-0.86984 -3.95119,0.6019 -4.79508,-0.81677c-0.41052,-0.69013 0.89615,-2.81713 1.05046,-3.49256c0.75291,-3.29544 0.98079,-6.58303 0.92835,-9.97875c-0.03956,-2.51076 -0.56171,-4.69023 -1.74818,-6.92709c-0.41747,-0.78705 -1.97536,-2.31277 -1.92853,-3.21776c0.03212,-0.6207 0.58854,-1.10719 0.78219,-1.69887c0.83693,-2.55708 1.18103,-5.12231 2.18646,-7.65046c0.7888,-1.98344 1.18309,-4.03964 1.42616,-6.1244z" fill="#000000"/></g><g stroke="none" stroke-width="0" stroke-linecap="butt"><path d="M278.85008,108.45435c0,16.7447 -38.58415,36.10426 -38.87849,36.10426c-2.40888,0 -7.33187,-2.70742 -9.87832,-3.13086c-16.56616,-2.75472 -35.67652,-14.9043 -35.67652,-29.65824c0,-17.02181 22.92467,-16.00606 41.00482,-16.00606c18.08015,0 43.42852,-4.33093 43.42852,12.69089z" fill="url(#color-7)"/><g><path d="M240.95023,142.49396c-0.00055,-0.01953 -0.0011,-0.0391 -0.00167,-0.05863c-0.20513,-7.22939 -0.36693,-14.44813 -0.497,-21.69166c-0.12957,-7.21579 -0.03692,-14.50101 -0.03692,-21.72656c0,-1.09719 -0.00275,-2.19473 -0.00537,-3.29208c6.15369,-0.08163 11.79902,-0.20587 16.40736,0.57222c-0.01576,3.74812 0.00581,7.50339 0.00581,11.24952c0,7.25192 0,14.50386 0,21.7558c0,1.96413 0,3.92823 0,5.89237c-4.46651,3.71912 -9.91398,6.33659 -15.87222,7.29904z" fill="url(#color-8)"/><path d="M212.00027,132.22923c0,-4.50943 0,-9.01889 0,-13.52833c0,-7.24388 0,-14.48774 0,-21.73162c3.55799,-1.10312 8.04011,-1.31171 13.11787,-1.30504c-0.03296,3.29078 -0.07712,6.58145 -0.12734,9.87989c-0.11025,7.24212 -0.08218,14.54222 -0.0137,21.78782c0.04415,4.6708 0.22117,9.2147 0.40804,13.77937c-5.17876,-1.81982 -9.75932,-4.93065 -13.38487,-8.8821z" fill="url(#color-9)"/></g><path d="M268.56705,110.52633c0,17.02181 -14.85347,32.37469 -32.93362,32.37469c-18.08014,0 -32.54038,-15.35288 -32.54038,-32.37469c0,-17.02181 14.24836,-14.76286 32.32851,-14.76286c18.08015,0 33.14549,-2.25895 33.14549,14.76286z" fill="none"/></g><g stroke="none" stroke-width="0" stroke-linecap="butt"><path d="M214.3124,-74.3362c12.6994,6.90103 53.484,18.34372 63.09928,39.06353c16.6839,35.95186 -11.52222,75.86969 -31.46062,72.94041c-0.02392,-0.00351 12.31772,-18.34953 1.76147,-33.99169c-8.02349,-11.88915 -37.85774,-18.88907 -46.49166,-34.43537c-17.73881,-31.94061 -5.98247,-78.67643 -5.35443,-81.37304c1.19562,-5.13352 5.04456,30.51367 18.44595,37.79617z" data-paper-data="{&quot;index&quot;:null}" fill="url(#color-10)"/><path d="M259.65662,-112.45624c0.82272,2.64372 15.95046,48.3996 0.58415,81.54693c-7.47917,16.13364 -36.72461,25.28706 -43.86123,37.72881c-9.38939,16.36921 4.25516,33.768 4.23155,33.77326c-19.67221,4.37312 -50.7097,-33.38523 -36.68755,-70.45635c8.08126,-21.36487 47.92457,-35.74652 60.08783,-43.5538c12.83564,-8.23885 14.07904,-44.07168 15.64524,-39.03881z" fill="url(#color-11)"/></g><g stroke="none" stroke-width="0" stroke-linecap="butt"><path d="M300.13719,46.98981c0.84614,23.21306 -18.75791,66.00684 -47.088,78.01276c-4.43873,1.88108 -9.09168,3.00636 -13.91374,3.18214c-35.59872,1.29761 -66.93394,-49.64579 -67.91264,-76.49585c-0.97871,-26.85007 27.08636,-49.66827 62.68508,-50.96588c35.59873,-1.29761 65.2506,19.41677 66.22931,46.26684z" fill="url(#color-12)"/><path d="M300.13112,46.82325c0.84614,23.21306 -18.75791,66.00685 -47.088,78.01276c-4.43873,1.88108 -9.09167,3.00636 -13.91373,3.18213c-4.93987,0.18006 -15.02542,-0.35117 -21.80668,-4.36275c-0.94292,-0.55781 -5.70969,-2.12808 -9.3093,-5.31276c-5.47114,-4.84048 -10.48951,-12.01769 -12.98077,-14.0535c1.19129,0.02615 5.62623,-0.74839 6.14517,-1.30252c0.3059,-0.32666 11.34977,3.38859 11.90029,3.36853c3.34414,-0.1219 1.18354,-0.27939 4.52619,-0.43726c1.8604,-0.40228 6.96899,4.5487 7.76889,2.99339c1.66873,-3.24462 4.184,-7.50642 6.60465,-10.32773c1.32896,-1.54895 3.24478,-2.49815 4.23087,-4.26948c2.59131,-3.81294 4.30295,-6.95815 2.04738,-11.4352c-0.51946,-1.03104 -2.80561,-2.91254 -2.96739,-3.8196c-0.12553,-0.7038 1.32196,-2.47416 1.28262,-3.61724c-0.07057,-1.66003 0.01019,-3.61002 -0.79138,-5.12899c-0.28471,-0.53954 -0.83691,-0.96456 -0.95063,-1.56392c-0.48715,-2.56756 1.87689,-6.98694 -0.02486,-9.08289c-0.7707,-0.8494 -3.20246,-1.70511 -4.28484,-2.19609c1.09896,-2.09342 2.95369,-3.96322 1.67123,-6.47728c-0.66485,-1.30334 -2.56182,-1.31612 -3.12174,-2.39229c-0.48404,-0.93032 1.56852,-3.33399 1.87884,-4.16771c0.61058,-1.6404 0.37299,-3.46716 0.28349,-5.16699c-0.14878,-1.6227 -1.65392,-2.89226 -1.47589,-4.57102c0.15297,-1.44246 2.14442,-2.47002 2.97884,-3.54007c2.66686,-3.41991 2.86949,-7.18522 -0.34146,-10.27333c-0.92484,-1.35852 -1.3862,-0.74677 -2.65893,-1.3864c-1.24015,-0.62326 -2.87399,-1.90394 -3.91045,-2.85921c-1.50882,-1.39062 -1.23398,-5.31583 -0.04937,-6.87283c0.87878,-1.15502 3.15003,-0.79971 4.37743,-0.84446c2.26701,-0.32921 1.40569,-2.61469 1.33509,-4.55165c-0.04471,-1.22671 -0.08943,-2.45343 -0.13415,-3.68014c0.84524,-0.05568 1.69511,-0.09921 2.54931,-0.13035c35.59873,-1.29761 65.2506,19.41677 66.2293,46.26684z" fill="#000000"/></g><path d="M185.64473,64.7928c-0.47238,-12.95939 9.65036,-23.84801 22.60975,-24.32039c12.95939,-0.47238 23.84801,9.65035 24.32039,22.60974c0.47238,12.95939 -9.65035,23.84801 -22.60974,24.32039c-12.95939,0.47238 -23.84801,-9.65036 -24.32039,-22.60975z" fill="#ff0000" stroke="none" stroke-width="2" stroke-linecap="butt"/><path d="M186.00733,68.23097c1.25285,-0.00109 45.94553,-1.07819 46.20453,-1.06355c-0.38691,3.50219 -0.91808,6.33789 -2.70425,9.32238c-4.00702,6.69533 -11.36636,10.66041 -19.39111,10.95291c-11.86957,0.43265 -22.35641,-7.5801 -24.10918,-19.21174z" data-paper-data="{&quot;index&quot;:null}" fill="#ff5d5d" stroke="none" stroke-width="2" stroke-linecap="butt"/><path d="M198.06161,65.06497c-0.2185,-5.99449 4.46384,-11.0311 10.45832,-11.24961c5.99449,-0.2185 11.0311,4.46385 11.2496,10.45833c0.2185,5.99449 -4.46385,11.03109 -10.45833,11.2496c-5.99449,0.2185 -11.03108,-4.46384 -11.24958,-10.45833z" fill="#000000" stroke="none" stroke-width="0" stroke-linecap="butt"/><path d="M211.08154,64.75448c0.03593,0.98557 -0.79783,1.81598 -1.86224,1.85478c-1.06441,0.0388 -1.95642,-0.7287 -1.99234,-1.71427c-0.03593,-0.98557 0.79783,-1.81598 1.86224,-1.85478c1.06441,-0.0388 1.95642,0.7287 1.99234,1.71427z" fill="#ff0000" stroke="none" stroke-width="0" stroke-linecap="butt"/><g><g><path d="M302.28674,-3.48229c0.79203,1.94213 29.59512,70.28148 42.20114,83.85123c15.53752,16.7254 35.33638,31.95112 35.2582,31.98905c-0.42034,0.20385 -22.75123,5.86606 -39.92384,2.51173c-18.21027,-3.55702 -31.4673,-16.32406 -37.33285,-22.83951c-24.26253,-26.95082 -39.58997,-56.09023 -57.75416,-65.55732c-2.91208,-1.51776 -10.55922,-4.26708 -14.58745,0.31252c-7.41102,8.42544 -24.81412,10.99633 -25.01346,10.50751c-9.392,-23.02961 12.85756,-48.65163 40.00069,-61.81523c27.14315,-13.16359 47.75976,-1.9896 57.15175,21.04001z" fill="url(#color-13)" stroke="none" stroke-width="0" stroke-linecap="butt"/><path d="M225.3404,5.3271c0,0 28.42263,-18.26052 46.16677,-4.26881c9.17591,7.23542 37.2606,59.86278 57.49697,88.72118c9.0317,12.8798 23.64346,16.13219 23.64346,16.13219" fill="none" stroke="#000000" stroke-width="0.5" stroke-linecap="round"/></g><g><path d="M291.50419,44.57612c0.11633,1.59109 5.18568,57.81757 13.39591,70.75202c10.11951,15.94232 25.2464,31.90838 25.1507,31.91538c-0.51443,0.03762 -25.94918,-1.65602 -42.68203,-8.46576c-17.74394,-7.22121 -26.92953,-19.74949 -30.67585,-25.91177c-15.49649,-25.49007 -22.10198,-61.07121 -37.63059,-72.50297c-2.48955,-1.83274 -9.45252,-3.83259 -15.34539,-1.59598c-10.84156,4.11486 -21.9008,15.04958 -21.93007,14.64913c-1.37952,-18.86694 24.4316,-36.13061 57.65073,-38.55952c33.21913,-2.42891 50.68709,10.85257 52.06661,29.71951z" fill="url(#color-14)" stroke="none" stroke-width="0" stroke-linecap="butt"/><path d="M207.78669,31.09504c0,0 36.42647,-5.74154 49.85658,8.81483c6.94503,7.52744 17.0243,52.34405 27.60986,78.16223c4.72444,11.52292 18.81598,17.6017 18.81598,17.6017" fill="none" stroke="#000000" stroke-width="0.5" stroke-linecap="round"/></g></g><g><g data-paper-data="{&quot;index&quot;:null}"><path d="M194.05339,-7.10403c19.09943,5.64039 32.49484,20.14438 29.91946,32.39555c-0.05467,0.26004 -5.46176,-8.28318 -11.38298,-12.31079c-3.21845,-2.18918 -7.45758,-1.71994 -9.07827,-0.81644c-10.10905,5.63559 -23.8757,23.36377 -35.28699,38.25704c-2.75872,3.6005 -5.86725,15.17444 -16.86959,17.76894c-10.37542,2.44666 -31.847,-7.83959 -32.14278,-7.92694c-0.04318,-0.01275 14.59764,4.40868 23.46289,-0.0484c0.90199,-0.45349 11.88758,-7.89422 14.96594,-17.1073c5.21557,-15.60942 8.11713,-33.40584 8.2537,-34.05552c2.57539,-12.25117 9.05918,-21.7965 28.15863,-16.15611z" fill="url(#color-15)" stroke="none" stroke-width="0" stroke-linecap="butt"/><path d="M145.09716,64.55961c0,0 8.76995,-2.28687 12.60145,-9.29695c8.58483,-15.70672 18.66021,-43.98063 23.40826,-48.09055c9.18167,-7.94765 29.83598,0.26348 29.83598,0.26348" fill="none" stroke="#000000" stroke-width="0.5" stroke-linecap="round"/></g><g data-paper-data="{&quot;index&quot;:null}"><path d="M186.17665,5.27827c24.14134,-2.12536 44.82544,8.80152 46.1992,24.40591c0.02916,0.33121 -9.27654,-7.24461 -17.57162,-9.26856c-4.50874,-1.1001 -9.25463,1.39778 -10.81145,3.20519c-9.71066,11.27377 -19.35819,38.4619 -27.28458,61.23171c-1.91623,5.50466 -1.40124,20.55647 -13.22908,28.66016c-11.15386,7.64192 -39.69712,5.38669 -40.07096,5.41961c-0.05458,0.0048 18.48591,-1.50933 27.17437,-10.82492c0.884,-0.94781 10.96833,-14.74892 11.25829,-27.00763c0.49125,-20.76947 -2.4773,-43.05155 -2.55014,-43.87907c-1.37379,-15.60437 2.7446,-29.81706 26.88594,-31.94242z" fill="url(#color-16)" stroke="none" stroke-width="0" stroke-linecap="butt"/><path d="M154.93518,112.11049c0,0 9.35011,-6.71701 11.29661,-16.72789c4.36135,-22.4303 5.97924,-60.33909 10.01972,-67.35645c7.8134,-13.56999 34.67123,-13.38261 34.67123,-13.38261" fill="none" stroke="#000000" stroke-width="0.5" stroke-linecap="round"/></g></g><path d="M220.4733,84.9538c0,0 5.56276,-3.79904 7.6711,-6.37345c2.24714,-2.74394 3.92289,-9.55945 3.92289,-9.55945c0,0 4.52479,0.59813 4.55165,1.33509c0.07545,2.06989 4.68602,14.17204 4.68602,14.17204c0,0 -2.64227,-2.26885 -4.25271,-2.23593c-3.58278,0.07323 -16.57894,2.66171 -16.57894,2.66171z" fill="url(#color-17)" stroke="none" stroke-width="0" stroke-linecap="butt"/><path d="M240.54159,81.88741c0.14417,3.95541 -1.67775,7.23258 -4.0694,7.31976c-2.39165,0.08718 -4.44734,-3.04864 -4.59153,-7.00405c-0.14417,-3.95541 1.67776,-7.23258 4.06941,-7.31976c2.39165,-0.08718 4.44733,3.04864 4.59151,7.00405z" fill="#000000" stroke="none" stroke-width="0" stroke-linecap="butt"/><path d="M238.0216,76.80917c0.05701,1.56377 -0.56791,2.85591 -1.3958,2.88609c-0.82788,0.03017 -1.54522,-1.21303 -1.60221,-2.77681c-0.05701,-1.56377 0.56791,-2.85592 1.3958,-2.8861c0.82788,-0.03017 1.54522,1.21304 1.60221,2.77682z" fill="#000000" stroke="none" stroke-width="0" stroke-linecap="butt"/><path d="M240.93646,94.21236c0.02623,0.20529 -0.04336,0.33646 -0.13395,0.41969c0.14438,0.04827 0.36266,0.17738 0.33296,0.51428c-0.04391,0.49807 -0.54197,0.45416 -0.54197,0.45416c-0.45146,-0.03995 -1.08151,0.01401 -1.72198,0.05335c-0.01051,0.01667 -0.0211,0.03334 -0.03177,0.05002c0.18142,1.93114 -0.25805,4.30829 -1.13113,6.24531c0.00741,0.03138 0.0119,0.06395 0.01312,0.0974c0.00217,0.05934 -0.00611,0.11665 -0.02317,0.17014l-0.14507,0.49454l-0.19304,-0.05662c-0.12896,0.23884 -0.26503,0.4681 -0.40778,0.68578c-0.11921,0.21655 -0.24781,0.42755 -0.37291,0.63218l0.11433,0.07941l-0.47207,0.67965c-0.0864,0.12732 -0.23021,0.21319 -0.39576,0.21923c-0.06875,0.0025 -0.13477,-0.009 -0.19531,-0.03193c-1.66522,2.5716 -3.28001,5.61501 -5.54797,7.63285c-2.17291,1.93327 -4.20705,1.43582 -5.29618,-0.66556c-0.748,0.56909 -1.51787,0.93232 -2.1139,0.62841c0.06845,0.75641 0.16367,1.50429 0.29697,2.23836l0.03167,0.17568c0,0 0.08869,0.49207 -0.40338,0.58077c-0.49208,0.08869 -0.58076,-0.40337 -0.58076,-0.40337l-0.03166,-0.17568c-0.2983,-1.66653 -0.40894,-3.39805 -0.45562,-5.13919c-0.21523,-0.0493 -0.37929,-0.23806 -0.38771,-0.46922c-0.00503,-0.13798 0.04634,-0.26494 0.13348,-0.35866l0.23243,-0.25001c-0.01628,-1.10902 -0.017,-2.21729 -0.03403,-3.31058c-0.06738,-0.86348 -0.08016,-1.70394 -0.12615,-2.14872c-0.47662,-4.61037 -0.60414,-9.21891 -0.77294,-13.84985c-0.01227,-0.3368 -0.02456,-0.67358 -0.03683,-1.01038c-0.01914,-0.15058 -0.03681,-0.3017 -0.05173,-0.45212c-0.14302,0.10099 -0.2877,0.1994 -0.4339,0.29502l0.06393,0.06789l-0.57761,0.54381c-0.24819,0.37588 -0.41642,0.76766 -0.44709,1.18092c0,0 -0.02539,0.23991 -0.20756,0.36879c-0.2293,1.32512 -0.51085,3.6325 -1.24965,4.07011c-2.33791,1.3848 -1.37543,-6.54473 -3.85063,-2.95112c-0.17275,0.2508 -0.35001,0.50215 -0.47866,0.77817c-0.25703,0.5514 -0.28022,0.83756 -0.37836,1.37579c-0.11576,0.63493 -0.19428,1.27791 -0.23244,1.92216c-0.39478,6.55809 0.83929,13.51911 -0.61233,19.94535c-0.65591,0.38675 -1.91092,1.16311 -2.50257,0.01939c-0.35974,-0.69542 -0.14797,-2.43554 -0.177,-3.23163c-0.08657,-2.37519 -0.69019,-4.85432 -0.63954,-7.19456c0.00758,-0.35006 -0.01006,0.70797 -0.10403,1.04526c-0.26828,0.96305 -0.50733,1.93093 -0.74867,2.90104c-0.56916,1.7873 -2.79226,2.56793 -2.95966,0.07499c-0.31604,-4.70643 1.1501,-9.84729 -0.07826,-14.41831c-0.49054,-1.30004 -1.17763,-3.79848 -2.40845,-4.59811c-1.1504,-0.74738 -2.85805,-0.56112 -4.15046,-1.14544c-1.87674,-0.84851 -3.879,-2.54616 -5.23553,-4.28075l-0.04407,0.04739l-0.51788,-0.48145c-0.09372,-0.08713 -0.15419,-0.21002 -0.15923,-0.34799c-0.01006,-0.27596 0.2055,-0.50782 0.48145,-0.51788l0.49967,-0.01821c1.68217,-0.04646 3.3719,0.78551 4.96637,1.27635c6.55254,2.02113 11.76534,1.37861 18.05058,-0.74588c1.76849,-0.97151 3.7081,-1.81598 5.69317,-2.23763c1.21219,-0.25749 2.92823,-0.28649 2.4306,1.42657c-0.16807,0.57859 -0.47835,1.02476 -0.86769,1.39249c0.17273,0.07362 0.29659,0.24192 0.30388,0.44198c0.00136,0.03712 -0.00137,0.07346 -0.00779,0.10854l-0.13454,0.82866l-0.10046,-0.01631c0.00267,1.70788 -0.31972,3.56507 -0.65679,5.35779c-0.01254,2.5573 0.02688,5.10858 0.09436,7.66056c0.10561,1.37727 0.29352,2.89464 0.13474,4.26561c0.00593,0.16598 0.01193,0.33197 0.01798,0.498l0.02428,0.66623c0.01006,0.27596 -0.2055,0.50782 -0.48145,0.51788c0.02848,0.78124 0.05696,1.56247 0.08543,2.34369c0.25627,-0.29696 0.5166,-0.60349 0.78106,-0.91624c0.09868,-0.29762 0.27934,-0.58301 0.59954,-0.87622c0.00143,-0.00735 0.0029,-0.01475 0.0044,-0.02218c0.60331,-1.33262 1.64177,-2.69563 2.73995,-3.81926c-0.10867,-0.73341 -0.09443,-1.44914 0.4929,-2.0401c0.28357,-0.28533 1.03221,-0.224 1.69323,-0.17351c0.28768,-0.22627 0.58438,-0.43374 0.88994,-0.61812c0.25689,-0.33653 0.51082,-0.66154 0.75842,-0.9729c0.01211,-0.14634 0.02369,-0.28014 0.04137,-0.3891c0.17267,-0.81468 0.19546,-1.65283 1.18527,-1.93033c0.0692,-0.0194 0.28479,0.03722 0.52622,0.09623c0.47864,-0.5993 0.98813,-1.17536 1.55711,-1.60286c0.01462,-0.01099 0.02949,-0.0219 0.04461,-0.03272c0.07478,-0.11676 0.16914,-0.22594 0.29252,-0.3229c0.27048,-0.21258 0.53999,-0.25282 0.80239,-0.19319c0.88003,-0.26556 1.91879,-0.29557 2.61067,0.12988c0.44081,-0.29738 0.93432,-0.34412 1.4482,0.24751c0.04041,0.04653 0.07079,0.09916 0.09205,0.15718c0.03082,-0.00386 0.0616,-0.00775 0.09236,-0.01169l0.83412,-0.10659c0,0 0.49597,-0.06338 0.55934,0.43259zM237.22604,95.79987c-0.12996,0.38515 -0.40876,0.85139 -0.7128,1.29736c0.29514,-0.38153 0.70245,-0.92475 1.06288,-1.41899c-0.08019,-0.00468 -0.15829,-0.01113 -0.23385,-0.01963c-0.0051,0.0062 -0.01021,0.01242 -0.01537,0.01867zM226.53977,108.83097c-0.0477,0.0512 -0.09556,0.10224 -0.14357,0.15312c0.01904,-0.01697 0.03809,-0.03393 0.05713,-0.0509c0.02882,-0.03407 0.05764,-0.06814 0.08645,-0.10223zM223.72463,111.33573c-0.08763,0.02826 -0.17528,0.04638 -0.26217,0.05186c-0.19651,0.27926 -0.35702,0.4949 -0.19647,0.35286c0.15257,-0.13499 0.30548,-0.26988 0.45864,-0.40471zM233.96705,97.86498c-0.05618,0.00714 -0.11394,0.01854 -0.17309,0.03393c-0.2033,0.17733 -0.40501,0.35577 -0.60522,0.53552c0.04161,0.06976 0.06677,0.15067 0.06994,0.23758c0.0034,0.09337 -0.01903,0.1817 -0.06088,0.25807l-0.08909,0.17001c0.11779,-0.16607 0.2349,-0.33291 0.35133,-0.50057c0.17111,-0.24637 0.34052,-0.49025 0.50701,-0.73456zM228.49955,104.80955c0.16285,-0.24333 0.32062,-0.48773 0.47289,-0.7323c0.0449,-0.07198 0.08976,-0.14399 0.13458,-0.21601c-0.09396,0.0101 -0.18608,0.01504 -0.27504,0.01369c-0.44156,0.47803 -0.9078,0.93612 -1.39321,1.37577c-0.17489,0.39197 -0.33968,0.78616 -0.49342,1.1819c0.43284,-0.41486 0.83471,-0.84934 1.16257,-1.20054c0.13139,-0.14035 0.26194,-0.28118 0.39165,-0.42251zM222.83486,110.39541c0.09981,-0.49586 0.3667,-1.0877 0.60298,-1.54585c-0.07689,-0.04156 -0.15185,-0.09062 -0.22459,-0.14767c-0.03318,-0.02601 -0.0585,-0.0595 -0.07672,-0.09963c-0.06421,0.04586 -0.12894,0.09105 -0.1942,0.13554c-0.02243,0.20275 -0.16677,0.37066 -0.36028,0.42547l-0.07151,0.06052c0.01233,0.64202 0.03205,1.28338 0.06569,1.92102c0.0717,-0.24064 0.16139,-0.49573 0.25861,-0.74941zM234.04605,101.15383c-0.26198,0.22509 -0.52906,0.44294 -0.80009,0.65128c-1.76662,2.51181 -3.63682,4.92589 -5.62529,7.29227c0.43661,-0.25794 0.84365,-0.59323 1.26364,-0.97047c2.14516,-1.92355 4.27857,-4.13454 5.16173,-6.97309zM237.70789,97.23517c-0.27387,0.33619 -0.50042,0.59958 -0.60477,0.73072c-0.51615,0.64688 -1.10277,1.31294 -1.73886,1.95616c-0.07454,0.41642 -0.15531,0.76786 -0.2006,0.94741c-0.83016,3.29234 -3.18088,5.82142 -5.61168,8.00193c-0.70983,0.63572 -2.1502,1.50276 -3.23866,1.61952c-0.24376,0.24851 -0.51363,0.51778 -0.79726,0.77864c0.15865,0.4548 0.35353,0.88601 0.61948,1.20845c0.82382,0.99883 2.62415,-0.08651 3.28573,-0.67591c2.3704,-2.11176 4.00964,-5.41471 5.76432,-8.02301c0.39101,-0.50673 0.78222,-1.01333 1.17365,-1.51973l0.02086,-0.01183l-0.00568,-0.00528l0.11468,-0.12336c0.03582,-0.07512 0.0702,-0.15256 0.10189,-0.23299c0.57869,-1.46867 0.99372,-3.05391 1.11688,-4.65071zM228.06226,100.36294c0.02485,-0.02557 0.04979,-0.05103 0.07481,-0.07635c-0.01826,0.00644 -0.03113,0.01418 -0.03798,0.02341c-0.01288,0.01735 -0.02514,0.035 -0.03684,0.05296zM229.26494,105.45564c-0.09055,0.1322 -0.18239,0.26358 -0.27547,0.39413c0.17962,-0.22556 0.35831,-0.45169 0.53601,-0.67851c-0.08665,0.09509 -0.1735,0.18987 -0.26053,0.28438zM224.92349,108.91441c-0.0307,0.0096 -0.06135,0.01868 -0.09192,0.02722c0.0107,0.04168 0.02157,0.08332 0.03263,0.1249c0.01777,-0.01478 0.03534,-0.02935 0.05263,-0.04369c0.00163,-0.03541 0.00384,-0.07154 0.00665,-0.10843zM236.71733,94.10145c0.17439,-0.0015 0.34648,0.01172 0.52052,0.03656c-0.14638,-0.05193 -0.32434,-0.06034 -0.52052,-0.03656z" fill="#000000" stroke="none" stroke-width="0.5" stroke-linecap="butt"/><path d="M217.99268,96.33621c0.02012,0.55192 -0.3737,1.01428 -0.87963,1.03272c-0.50592,0.01845 -0.93237,-0.41403 -0.95249,-0.96594c-0.02012,-0.55192 0.37371,-1.01428 0.87964,-1.03273c0.50592,-0.01845 0.93236,0.41403 0.95248,0.96594z" fill="#000000" stroke="none" stroke-width="0" stroke-linecap="butt"/><path d="M239.70748,92.4679c0.02012,0.55192 -0.59741,1.02244 -1.3793,1.05094c-0.78189,0.0285 -1.43204,-0.39581 -1.45216,-0.94772c-0.02012,-0.55192 0.59741,-1.02244 1.3793,-1.05094c0.78189,-0.0285 1.43204,0.39582 1.45216,0.94773z" fill="#000000" stroke="none" stroke-width="0" stroke-linecap="butt"/><path d="M241.81504,90.80669c0.0855,2.34565 -1.262,4.29883 -3.00975,4.36253c-1.74774,0.06371 -3.23388,-1.78618 -3.31939,-4.13183c-0.0855,-2.34565 1.262,-4.29882 3.00975,-4.36252c1.74774,-0.06371 3.23388,1.78617 3.31939,4.13183z" fill="#000000" stroke="none" stroke-width="0" stroke-linecap="butt"/><path d="M237.91444,89.03093c0.04694,1.28781 -0.9217,2.36847 -2.16351,2.41374c-1.24181,0.04527 -2.28656,-0.96202 -2.3335,-2.24983c-0.04694,-1.28781 0.92169,-2.36847 2.16351,-2.41373c1.24181,-0.04527 2.28657,0.96201 2.33351,2.24982z" fill="#000000" stroke="none" stroke-width="0" stroke-linecap="butt"/><path d="M230.47788,100.05914c0.05197,1.4258 -0.91259,2.61831 -2.1544,2.66357c-1.24181,0.04527 -2.29064,-1.07387 -2.34261,-2.49965c-0.05197,-1.4258 0.91259,-2.61831 2.1544,-2.66358c1.24181,-0.04527 2.29064,1.07388 2.34261,2.49965z" fill="#000000" stroke="none" stroke-width="0" stroke-linecap="butt"/><path d="M239.11716,94.57413c0.06873,1.88572 -1.40422,3.47012 -3.28995,3.53886c-1.88572,0.06873 -3.47012,-1.40422 -3.53886,-3.28995c-0.06873,-1.88572 1.40422,-3.47012 3.28995,-3.53886c1.88572,-0.06873 3.47012,1.40422 3.53886,3.28995z" fill="#000000" stroke="none" stroke-width="0" stroke-linecap="butt"/><path d="M232.36424,96.905c0.03017,0.82788 -0.54191,1.52075 -1.2778,1.54757c-0.73589,0.02682 -1.35691,-0.62256 -1.38708,-1.45044c-0.03017,-0.82788 0.54191,-1.52075 1.2778,-1.54757c0.73589,-0.02682 1.35691,0.62256 1.38708,1.45044z" fill="#000000" stroke="none" stroke-width="0" stroke-linecap="butt"/><path d="M230.38946,93.05771c0.02514,0.6899 -0.25274,1.26004 -0.62069,1.27346c-0.36794,0.01342 -0.68662,-0.53498 -0.71176,-1.22489c-0.02514,-0.6899 0.25274,-1.26004 0.62069,-1.27346c0.36794,-0.01342 0.68662,0.53498 0.71176,1.22488z" fill="#000000" stroke="none" stroke-width="0" stroke-linecap="butt"/><path d="M220.07026,107.35977c0.05701,1.56377 -0.97806,2.87086 -2.31186,2.91948c-1.3338,0.04862 -2.46127,-1.17965 -2.51827,-2.74342c-0.05701,-1.56377 0.97805,-2.87086 2.31185,-2.91948c1.3338,-0.04862 2.46127,1.17965 2.51828,2.74342z" fill="#000000" stroke="none" stroke-width="0" stroke-linecap="butt"/><path d="M206.4244,103.60434c0.03856,1.05785 -0.78774,1.94666 -1.84558,1.98522c-1.05785,0.03856 -1.94666,-0.78774 -1.98522,-1.84558c-0.03856,-1.05785 0.78774,-1.94666 1.84558,-1.98522c1.05785,-0.03856 1.94666,0.78774 1.98522,1.84558z" fill="#000000" stroke="none" stroke-width="0" stroke-linecap="butt"/><path d="M201.03322,106.69003c-0.00947,-0.25973 0.20657,-0.47843 0.48253,-0.48849c0.27596,-0.01006 0.50734,0.19234 0.51681,0.45206c0.00947,0.25973 -0.20657,0.47844 -0.48253,0.48849c-0.27596,0.01006 -0.50734,-0.19234 -0.51681,-0.45207z" fill="#000000" stroke="none" stroke-width="0" stroke-linecap="butt"/><path d="M205.65536,105.38354c0.03689,1.01185 -0.49249,1.8525 -1.18239,1.87764c-0.6899,0.02514 -1.27907,-0.77473 -1.31596,-1.78658c-0.03689,-1.01185 0.49249,-1.8525 1.18239,-1.87765c0.6899,-0.02514 1.27907,0.77474 1.31596,1.78659z" fill="#000000" stroke="none" stroke-width="0" stroke-linecap="butt"/><path d="M202.96011,104.64789c0.02682,0.73589 -0.62256,1.35691 -1.45044,1.38708c-0.82788,0.03017 -1.52075,-0.54191 -1.54757,-1.2778c-0.02682,-0.73589 0.62256,-1.35691 1.45044,-1.38708c0.82788,-0.03017 1.52075,0.54191 1.54757,1.2778z" fill="#000000" stroke="none" stroke-width="0" stroke-linecap="butt"/><path d="M218.25634,107.92622c0.03689,1.01185 -0.90262,1.86744 -2.09845,1.91103c-1.19582,0.04359 -2.19514,-0.74134 -2.23201,-1.75319c-0.03689,-1.01185 0.90262,-1.86745 2.09845,-1.91104c1.19582,-0.04359 2.19513,0.74135 2.23201,1.7532z" fill="#000000" stroke="none" stroke-width="0" stroke-linecap="butt"/><path d="M217.83707,64.82477c0,4.89166 -3.85153,8.85715 -8.60263,8.85715c-4.7511,0 -8.60263,-3.96548 -8.60263,-8.85715c0,-4.89166 3.85153,-8.85714 8.60263,-8.85714c4.7511,0 8.60263,3.96548 8.60263,8.85714z" fill="url(#color-18)" stroke="none" stroke-width="0" stroke-linecap="butt"/></g></g></svg>