<svg version="1.1" xmlns="http://www.w3.org/2000/svg" xmlns:xlink="http://www.w3.org/1999/xlink" width="165.83929" height="240.63133" viewBox="0,0,165.83929,240.63133"><defs><linearGradient x1="240.00021" y1="184.00001" x2="240.00021" y2="307.50001" gradientUnits="userSpaceOnUse" id="color-1"><stop offset="0" stop-color="#000000"/><stop offset="1" stop-color="#353535"/></linearGradient><linearGradient x1="222.90282" y1="184.56648" x2="222.90282" y2="248.156" gradientUnits="userSpaceOnUse" id="color-2"><stop offset="0" stop-color="#000000"/><stop offset="1" stop-color="#353535"/></linearGradient><linearGradient x1="257.90281" y1="184.56647" x2="257.90281" y2="248.15598" gradientUnits="userSpaceOnUse" id="color-3"><stop offset="0" stop-color="#000000"/><stop offset="1" stop-color="#353535"/></linearGradient><linearGradient x1="240.39432" y1="184.07353" x2="240.39432" y2="236.6112" gradientUnits="userSpaceOnUse" id="color-4"><stop offset="0" stop-color="#000000"/><stop offset="1" stop-color="#ffffff"/></linearGradient><linearGradient x1="240.62434" y1="187.26884" x2="240.62434" y2="221.17459" gradientUnits="userSpaceOnUse" id="color-5"><stop offset="0" stop-color="#000000"/><stop offset="1" stop-color="#4953bd"/></linearGradient><linearGradient x1="234.80843" y1="201.45558" x2="234.80843" y2="219.03891" gradientUnits="userSpaceOnUse" id="color-6"><stop offset="0" stop-color="#000000"/><stop offset="1" stop-color="#000000"/></linearGradient><linearGradient x1="245.22513" y1="201.37225" x2="245.22513" y2="220.12225" gradientUnits="userSpaceOnUse" id="color-7"><stop offset="0" stop-color="#000000"/><stop offset="1" stop-color="#000000"/></linearGradient><linearGradient x1="308.51653" y1="157.72339" x2="308.51653" y2="213.3327" gradientUnits="userSpaceOnUse" id="color-8"><stop offset="0" stop-color="#000000"/><stop offset="1" stop-color="#4a4039"/></linearGradient><linearGradient x1="310.49661" y1="169.24777" x2="310.49661" y2="204.65686" gradientUnits="userSpaceOnUse" id="color-9"><stop offset="0" stop-color="#000000"/><stop offset="1" stop-color="#4953bd"/></linearGradient><linearGradient x1="240.07713" y1="70.54783" x2="240.07713" y2="197.14449" gradientUnits="userSpaceOnUse" id="color-10"><stop offset="0" stop-color="#000000"/><stop offset="1" stop-color="#4a413a"/></linearGradient><linearGradient x1="240.00817" y1="80.70835" x2="240.00817" y2="186.47595" gradientUnits="userSpaceOnUse" id="color-11"><stop offset="0" stop-color="#000000"/><stop offset="1" stop-color="#ffa0a0"/></linearGradient></defs><g transform="translate(-175.84011,-70.54783)"><g data-paper-data="{&quot;isPaintingLayer&quot;:true}" fill-rule="nonzero" stroke="none" stroke-linejoin="miter" stroke-miterlimit="10" stroke-dasharray="" stroke-dashoffset="0" style="mix-blend-mode: normal"><path d="M206.75022,307.5l15.14285,-123.35226l37.78325,-0.14773l13.57389,123.5z" fill="url(#color-1)" stroke-width="2" stroke-linecap="butt"/><path d="M219.00318,254.82266c0,0 1.22622,-34.49671 1.70182,-35.92658c0.18516,-0.55665 -12.01417,0.3083 -12.44295,0.58225c-1.0335,0.6603 12.01739,-34.17891 13.18655,-34.59793c3.03843,-1.08895 9.62146,1.00477 9.62146,1.00477c0,0 12.98302,49.51078 9.09932,51.26401c-4.40681,1.98938 -21.1662,17.67348 -21.1662,17.67348z" fill="url(#color-2)" stroke-width="2" stroke-linecap="butt"/><path d="M239.96962,236.81584c-3.8837,-1.75322 9.76599,-50.93068 9.76599,-50.93068c0,0 6.58303,-2.09373 9.62147,-1.00477c1.16916,0.41902 14.71146,29.65112 14.6244,30.01315c-0.00013,0.00052 -15.962,-4.24376 -15.54746,-2.99747c0.31934,0.96009 5.45182,41.92658 5.45182,41.92658z" data-paper-data="{&quot;index&quot;:null}" fill="url(#color-3)" stroke-width="2" stroke-linecap="butt"/><path d="M240.89225,236.6112c0,0 -2.65537,-3.32712 -5.22963,-7.82261c-1.29976,-2.26981 -2.32503,-4.83747 -3.4926,-7.42513c-2.8337,-6.28023 -4.8027,-16.56799 -5.20886,-18.7929c-2.06315,-11.30176 -2.04746,-18.35808 -2.04746,-18.35808l30.91805,-0.13895c0,0 0.35647,8.43706 -0.97875,17.90802c-1.05042,7.45083 -3.67074,15.98628 -4.77772,18.5314c-1.36344,3.13476 -2.58332,6.32161 -4.17395,9.02358c-2.41004,4.09389 -5.00907,7.07467 -5.00907,7.07467z" fill="url(#color-4)" stroke-width="2" stroke-linecap="butt"/><g stroke-width="2"><path d="M252.94301,220.31318c-0.27195,0.19577 -0.89974,0.67359 -1.95912,0.5606c-1.09903,-0.11722 -2.65409,-0.82793 -4.27941,-0.75498c-2.07641,0.0932 -4.44885,1.19963 -6.77627,1.04008c-1.82623,-0.12519 -3.62476,-1.45107 -5.23083,-1.48842c-0.88533,-0.02059 -1.67436,0.93878 -2.36921,1.05209c-2.15359,0.35118 -3.4026,0.22483 -3.8106,-0.0377c-5.3697,-3.45511 3.5651,-33.41601 11.55425,-33.41601c7.98916,0 18.0491,29.3169 12.87119,33.04434z" fill="url(#color-5)" stroke-linecap="butt"/><path d="M234.2668,219.03891l1.08333,-17.58333" fill="url(#color-6)" stroke-linecap="round"/><path d="M244.18344,201.37225l2.08334,18.75" fill="url(#color-7)" stroke-linecap="round"/></g><path d="M263.22855,247.77022c-0.35355,0.35355 -0.70711,0 -0.70711,0l0.10355,-0.10355c-0.19115,-0.02357 -0.38131,0.03175 -0.5658,0.13945c0.0703,0.1532 0.14642,0.3039 0.22882,0.45184c0.55175,0.15559 1.02088,-0.82622 1.62961,-0.35708c1.08965,0.83978 1.04194,6.53033 -0.36069,7.213c-0.84967,0.41354 -1.52854,-0.11588 -2.16927,-0.53229c-0.51238,-0.33299 -1.02848,-0.69364 -1.54316,-1.07195c0.02757,1.94613 0.36419,4.04551 0.53246,5.39165c0.65071,5.19692 1.24176,10.14016 1.42183,15.27279c0.30075,0.2326 0.56613,0.51958 0.77348,0.84644c2.26394,3.56895 3.10463,7.36961 4.62966,11.49985c2.00682,5.47378 4.9829,9.42235 5.79159,15.44761c0.31722,2.36348 0.98709,4.61272 -0.78012,6.17212c-6.50755,2.38576 -13.96076,1.40632 -20.71343,1.40632c-6.88474,0 -13.75553,0.80879 -20.66667,0.80879c-6.90867,0 -13.76725,0.40439 -20.66667,0.40439c-0.74179,0 -3.82589,0.74882 -4.3002,0.24569c-0.58151,-0.61686 -0.1998,-4.37387 -0.1998,-5.3006c-0.00001,-5.20058 -0.50039,-10.18955 1.99217,-14.72495c0.49522,-0.66973 0.81022,-1.46085 1.12631,-2.2646c-0.0234,-0.03657 -0.04546,-0.07899 -0.06569,-0.12808c-0.22361,-0.54255 0.22361,-0.81383 0.22361,-0.81383c5.39991,-3.27553 8.96093,-7.82133 11.90093,-14.23552c1.47918,-3.93197 2.94206,-7.71765 5.43576,-10.86794c0.9316,-1.17688 2.46133,-2.87844 3.96701,-2.45148c2.1473,0.6089 0.78053,2.68613 2.36141,3.6488c2.48004,-7.54024 3.52938,-15.56102 6.82438,-22.82359c0.8342,-1.02192 1.74188,-2.37343 2.8354,-3.00539c2.3136,-1.33704 3.93424,-0.9698 5.06955,0.33517c0.08966,-0.02398 0.19732,-0.0382 0.32917,-0.03997c1.00164,-0.01341 5.58269,4.65003 5.5,2.16667c0,-1.93225 -0.60668,-4.23553 1.5,-4.41084v-0.08916h0.12416c-0.63993,-1.54878 -0.12416,-4.51939 -0.12416,-6c0,-0.73394 -0.21799,-1.95788 0.24586,-2.60337c1.53394,-2.13461 3.50416,-0.89405 4.14068,1.04881c0.27441,0.83757 0.46081,1.7299 0.65182,2.58894c0.60718,2.73299 1.31151,5.63069 1.46062,8.43362c0.12543,2.35782 -0.16008,5.06636 0.53306,7.37601c0.28094,-0.09803 0.58893,-0.15878 0.9263,-0.17736l0.60355,0.39645c0,0 0.35355,0.35355 0,0.70711zM255.67407,261.31414c-0.94257,-4.50284 -2.63487,-8.98258 -5.75275,-12.37322c0.06595,1.48081 0.07256,2.8335 0.07365,3.85939c0.00879,8.31117 -0.2824,17.03346 1.00077,25.21721c0.4211,2.68568 0.97154,5.302 1.51944,7.94974c0.25555,1.23491 0.30695,2.93185 1.20187,3.82403c0.39659,0.39538 1.22934,-1.54671 1.29012,-1.65807c1.21145,-2.21957 1.38967,-5.04928 1.67216,-7.63641c0.4354,-1.59643 0.57936,-4.53038 1.41799,-5.84988c0.00752,-0.01183 0.01509,-0.02357 0.02271,-0.03519c-0.66242,-4.43932 -1.50847,-8.81904 -2.44595,-13.29759z" fill="#000000" stroke-width="0.5" stroke-linecap="butt"/><path d="M251.83333,238c0,0.73638 -0.59695,1.33333 -1.33333,1.33333c-0.73638,0 -1.33333,-0.59695 -1.33333,-1.33333c0,-0.73638 0.59695,-1.33333 1.33333,-1.33333c0.73638,0 1.33333,0.59695 1.33333,1.33333z" fill="#000000" stroke-width="0" stroke-linecap="butt"/><g stroke-linecap="butt"><g stroke-width="0"><path d="M329.11663,213.3327l-53.76306,-37.6883l12.56277,-17.92101l53.76306,37.68829z" fill="url(#color-8)"/><path d="M292.18602,187.19053c3.02762,-6.41268 7.87704,-12.37401 12.53177,-17.94276l24.08936,16.88681c-4.03134,6.14667 -7.91788,12.36597 -11.70506,18.52228z" fill="url(#color-9)"/></g><path d="M175.84012,133.84616c0,-34.9587 28.7599,-63.29833 64.23702,-63.29833c35.47712,0 64.23702,28.33964 64.23702,63.29833c0,34.9587 -28.7599,63.29833 -64.23702,63.29833c-35.47712,0 -64.23702,-28.33964 -64.23702,-63.29833z" fill="url(#color-10)" stroke-width="2"/><path d="M186.34012,133.59215c0,-29.20692 24.02801,-52.8838 53.66805,-52.8838c29.64004,0 53.66805,23.67689 53.66805,52.8838c0,29.20692 -24.02801,52.8838 -53.66805,52.8838c-29.64004,0 -53.66805,-23.67689 -53.66805,-52.8838z" fill="url(#color-11)" stroke-width="2"/><path d="M207.89034,132.3673c0,-17.80508 14.2063,-32.23899 31.73065,-32.23899c17.52435,0 31.73065,14.43389 31.73065,32.23899c0,17.80508 -14.2063,32.23899 -31.73065,32.23899c-17.52435,0 -31.73065,-14.43389 -31.73065,-32.23899z" fill="#ff0000" stroke-width="2"/><path d="M208.0038,136.06714c0.59226,0.02108 61.57182,0.27234 63.1714,0.11194c-1.91355,16.24453 -15.28498,28.82731 -31.49566,28.82731c-16.89305,0 -30.70279,-11.70613 -31.67574,-28.93924z" data-paper-data="{&quot;index&quot;:null}" fill="#ff4242" stroke-width="2"/><path d="M229.52508,133.72063c0,-5.5437 4.41601,-10.03775 9.86343,-10.03775c5.44744,0 9.86345,4.49406 9.86345,10.03775c0,5.5437 -4.41602,10.03775 -9.86345,10.03775c-5.44744,0 -9.86343,-4.49406 -9.86343,-10.03775z" fill="#000000" stroke-width="0"/><path d="M240.5189,133.8361c0,0.93198 -0.50368,1.6875 -1.125,1.6875c-0.62132,0 -1.125,-0.75552 -1.125,-1.6875c0,-0.93198 0.50368,-1.6875 1.125,-1.6875c0.62132,0 1.125,0.75552 1.125,1.6875z" fill="#ff0000" stroke-width="0"/></g></g></g></svg>