<svg version="1.1" xmlns="http://www.w3.org/2000/svg" xmlns:xlink="http://www.w3.org/1999/xlink" width="202.04324" height="267.22501" viewBox="0,0,202.04324,267.22501"><defs><linearGradient x1="240.9984" y1="177.03175" x2="240.9984" y2="309.03175" gradientUnits="userSpaceOnUse" id="color-1"><stop offset="0" stop-color="#000000"/><stop offset="1" stop-color="#d4b490"/></linearGradient><linearGradient x1="240.53166" y1="192.82773" x2="240.53166" y2="235.07339" gradientUnits="userSpaceOnUse" id="color-2"><stop offset="0" stop-color="#000000"/><stop offset="1" stop-color="#deb88e"/></linearGradient><linearGradient x1="241.07531" y1="82.91782" x2="241.07531" y2="200.67618" gradientUnits="userSpaceOnUse" id="color-3"><stop offset="0" stop-color="#000000"/><stop offset="1" stop-color="#e8c49a"/></linearGradient><linearGradient x1="140.95458" y1="167.36791" x2="195.00576" y2="162.56712" gradientUnits="userSpaceOnUse" id="color-4"><stop offset="0" stop-color="#000000"/><stop offset="1" stop-color="#967e63"/></linearGradient><linearGradient x1="287.98887" y1="159.04155" x2="341.97148" y2="164.56014" gradientUnits="userSpaceOnUse" id="color-5"><stop offset="0" stop-color="#957e64"/><stop offset="1" stop-color="#000000"/></linearGradient><linearGradient x1="261.78674" y1="50.305" x2="258.04176" y2="106.50333" gradientUnits="userSpaceOnUse" id="color-6"><stop offset="0" stop-color="#a1886b"/><stop offset="1" stop-color="#000000"/></linearGradient><linearGradient x1="242.70867" y1="147.80586" x2="242.70867" y2="163.66303" gradientUnits="userSpaceOnUse" id="color-7"><stop offset="0" stop-color="#412d4c" stop-opacity="0"/><stop offset="1" stop-color="#412d4c"/></linearGradient><linearGradient x1="239.94734" y1="175.01071" x2="239.94734" y2="186.20197" gradientUnits="userSpaceOnUse" id="color-8"><stop offset="0" stop-color="#000000"/><stop offset="1" stop-color="#ffffff"/></linearGradient></defs><g transform="translate(-140.57283,-49.11922)"><g data-paper-data="{&quot;isPaintingLayer&quot;:true}" fill-rule="nonzero" stroke-linejoin="miter" stroke-miterlimit="10" stroke-dasharray="" stroke-dashoffset="0" style="mix-blend-mode: normal"><path d="M180.28205,316.34423v-267.22501h123.18203v267.22501z" fill-opacity="0.01" fill="#000000" stroke="none" stroke-width="0" stroke-linecap="butt"/><path d="M207.7484,309.03175l15.14285,-131.8421l37.78325,-0.15789l13.57389,132z" fill="url(#color-1)" stroke="none" stroke-width="0" stroke-linecap="butt"/><path d="M270.90666,198.69839c0,2.30815 -3.18821,22.08962 -5.54022,24.62356c-1.44432,1.55604 -8.61003,-1.89423 -10.01931,-0.61498c-1.83404,1.66481 -12.20782,12.36642 -16.19046,12.36642c-0.98854,0 -7.79625,-10.39799 -10.55794,-12.06768c-3.0515,-1.84491 -10.07195,2.62103 -11.28693,1.75156c-3.77432,-2.70101 -7.15514,-21.29382 -7.15514,-24.30887c0,-7.66295 12.84567,-7.375 29,-7.375c16.15433,0 31.75,-2.03795 31.75,5.625z" data-paper-data="{&quot;index&quot;:null}" fill="url(#color-2)" stroke="none" stroke-width="0" stroke-linecap="butt"/><path d="M176.83829,140.37784c0,-24.86961 0.53942,-44.72272 23.43776,-53.94172c7.76386,-3.12578 78.06474,-7.32917 89.64055,3.26571c11.96565,10.95168 15.39573,33.74936 15.39573,50.67601c0,22.27378 -4.86585,44.06016 -24.00215,54.50148c-9.47466,5.16965 -28.48645,5.79685 -40.23487,5.79685c-8.03759,0 -28.39706,-1.05234 -35.48875,-3.58308c-24.21035,-8.6397 -28.74827,-30.95817 -28.74827,-56.71525z" fill="url(#color-3)" stroke="none" stroke-width="2" stroke-linecap="butt"/><path d="M190.38851,140.80737c0,-12.968 10.51265,-23.48065 23.48065,-23.48065c12.968,0 23.48065,10.51265 23.48065,23.48065c0,12.968 -10.51265,17.88065 -23.48065,17.88065c-12.968,0 -23.48065,-4.91265 -23.48065,-17.88065z" fill="#ff0000" stroke="none" stroke-width="2" stroke-linecap="butt"/><path d="M267.72755,159.48798c-12.968,0 -23.08065,-5.71265 -23.08065,-18.68065c0,-12.968 10.51265,-23.48065 23.48065,-23.48065c12.968,0 23.48065,10.51265 23.48065,23.48065c0,12.968 -10.91265,18.68065 -23.88065,18.68065z" data-paper-data="{&quot;index&quot;:null}" fill="#ff0000" stroke="none" stroke-width="2" stroke-linecap="butt"/><path d="M227.15752,105.24019c0,0 -6.70895,5.16922 -11.79721,6.36355c-5.08827,1.19433 -12.33413,-0.69937 -12.33413,-0.69937c0,0 8.03812,0.06028 11.96762,-0.86207c4.10648,-0.96389 12.16372,-4.80211 12.16372,-4.80211z" data-paper-data="{&quot;index&quot;:null}" fill="#000000" stroke="none" stroke-width="0" stroke-linecap="butt"/><path d="M267.15675,110.04231c3.9295,0.92235 11.96762,0.86207 11.96762,0.86207c0,0 -7.24586,1.8937 -12.33413,0.69937c-5.08826,-1.19433 -11.79721,-6.36355 -11.79721,-6.36355c0,0 8.05724,3.83822 12.16372,4.80211z" data-paper-data="{&quot;index&quot;:null}" fill="#000000" stroke="none" stroke-width="0" stroke-linecap="butt"/><path d="M197.19427,187.20712c0,0 -4.14628,2.84936 -10.27534,5.24649c-2.59474,1.01483 -11.03168,4.06789 -18.86846,3.05439c-9.37385,-1.2123 -18.18472,-6.70301 -19.12974,-7.53482c-5.53563,-4.87247 -7.02985,-10.0636 -7.02985,-10.0636c0,0 8.85011,0.11787 16.25808,-0.73823c3.46372,-0.40028 6.18844,-1.36809 8.3175,-2.01465c1.82801,-0.55513 4.7102,-1.6683 6.64194,-3.07567c3.25187,-2.36917 5.22084,-5.23709 5.22084,-5.23709c0,0 -2.82946,0.18662 -7.00043,-0.09773c-1.75423,-0.11959 -6.54656,-0.01116 -10.68522,-1.30367c-5.74065,-1.79282 -11.06226,-5.27893 -12.77199,-6.84777c-5.35566,-4.91434 -7.29877,-11.01039 -7.29877,-11.01039c0,0 17.49183,0.36469 23.09425,-3.20621c6.72768,-4.28813 14.58872,-11.48684 14.58872,-11.48684" data-paper-data="{&quot;index&quot;:null}" fill="url(#color-4)" stroke="none" stroke-width="2" stroke-linecap="round"/><g stroke="none" stroke-width="0" stroke-linecap="butt"><path d="M205.40892,175.29213c0,4.86067 -4.2906,8.80102 -9.58333,8.80102c-5.29273,0 -9.58333,-3.94035 -9.58333,-8.80102c0,-4.86067 4.2906,-8.80102 9.58333,-8.80102c5.29273,0 9.58333,3.94035 9.58333,8.80102z" fill="#bd9568"/><path d="M192.724,171.75596c0,0.86412 -0.71643,1.56463 -1.60019,1.56463c-0.88376,0 -1.60019,-0.70051 -1.60019,-1.56463c0,-0.86412 0.71643,-1.56463 1.60019,-1.56463c0.88376,0 1.60019,0.70051 1.60019,1.56463z" fill="#860000"/><path d="M202.68071,173.03612c0,0.86412 -0.71643,1.56463 -1.60019,1.56463c-0.88376,0 -1.60019,-0.70051 -1.60019,-1.56463c0,-0.86412 0.71643,-1.56463 1.60019,-1.56463c0.88376,0 1.60019,0.70051 1.60019,1.56463z" fill="#860000"/><path d="M197.20452,180.29026c0,0.86412 -0.71643,1.56463 -1.60019,1.56463c-0.88376,0 -1.60019,-0.70051 -1.60019,-1.56463c0,-0.86412 0.71643,-1.56463 1.60019,-1.56463c0.88376,0 1.60019,0.70051 1.60019,1.56463z" fill="#860000"/></g><path d="M305.13166,129.59097c0,0 7.76469,7.30252 14.4348,11.67967c5.55448,3.64503 23.04961,3.51279 23.04961,3.51279c0,0 -2.02395,6.0697 -7.44443,10.91244c-1.73043,1.54598 -7.09789,4.96107 -12.86186,6.67745c-4.15547,1.2374 -8.94593,1.0653 -10.7016,1.16157c-4.17437,0.2289 -7.00111,0.0047 -7.00111,0.0047c0,0 1.93069,2.89383 5.15079,5.306c1.91286,1.43292 4.78,2.58428 6.60048,3.16365c2.12028,0.67479 4.8319,1.67872 8.28999,2.12499c7.39594,0.95446 16.24684,0.95419 16.24684,0.95419c0,0 -1.56306,5.17082 -7.16295,9.96931c-0.95599,0.81918 -9.83904,6.19234 -19.22817,7.27997c-7.84956,0.90928 -16.24518,-2.25561 -18.82621,-3.30483c-6.09666,-2.47835 -10.20472,-5.38256 -10.20472,-5.38256" data-paper-data="{&quot;index&quot;:null}" fill="url(#color-5)" stroke="none" stroke-width="2" stroke-linecap="round"/><g data-paper-data="{&quot;index&quot;:null}" stroke="none" stroke-width="0" stroke-linecap="butt"><path d="M287.58315,166.50624c4.74045,0 8.58333,3.52918 8.58333,7.88265c0,4.35347 -3.84289,7.88265 -8.58333,7.88265c-4.74045,0 -8.58333,-3.52918 -8.58333,-7.88265c0,-4.35347 3.84289,-7.88265 8.58333,-7.88265z" fill="#bd9568"/><path d="M291.79433,169.82034c0.79154,0 1.43321,0.62741 1.43321,1.40136c0,0.77395 -0.64167,1.40136 -1.43321,1.40136c-0.79154,0 -1.43321,-0.62741 -1.43321,-1.40136c0,-0.77395 0.64167,-1.40136 1.43321,-1.40136z" fill="#005387"/><path d="M282.87657,170.96693c0.79154,0 1.43321,0.62741 1.43321,1.40136c0,0.77395 -0.64167,1.40136 -1.43321,1.40136c-0.79154,0 -1.43321,-0.62741 -1.43321,-1.40136c0,-0.77395 0.64167,-1.40136 1.43321,-1.40136z" fill="#005387"/><path d="M287.78132,177.46414c0.79154,0 1.43321,0.62741 1.43321,1.40136c0,0.77395 -0.64167,1.40136 -1.43321,1.40136c-0.79154,0 -1.43321,-0.62741 -1.43321,-1.40136c0,-0.77395 0.64167,-1.40136 1.43321,-1.40136z" fill="#005387"/></g><path d="M227.95975,85.92664c0,0 7.65006,-7.42251 12.32774,-13.88542c3.8953,-5.38193 4.56348,-22.8648 4.56348,-22.8648c0,0 5.97076,2.29947 10.56048,7.93581c1.4652,1.79933 4.63121,7.3174 6.08213,13.15385c1.04602,4.20772 0.65498,8.98529 0.67082,10.74353c0.03771,4.18048 -0.31557,6.994 -0.31557,6.994c0,0 2.97912,-1.79629 5.53607,-4.90268c1.51892,-1.84531 2.80022,-4.65679 3.46226,-6.44885c0.77107,-2.08719 1.898,-4.75005 2.50199,-8.18411c1.29178,-7.34453 1.69637,-16.18618 1.69637,-16.18618c0,0 5.0939,1.79796 9.63121,7.61147c0.77459,0.99246 5.73578,10.112 6.39279,19.54105c0.54927,7.88294 -2.99636,16.125 -4.16255,18.65533c-2.75464,5.97691 -5.84372,9.94782 -5.84372,9.94782" data-paper-data="{&quot;index&quot;:null}" fill="url(#color-6)" stroke="none" stroke-width="2" stroke-linecap="round"/><path d="M215.26753,160.42134c-8.03007,0 -17.12896,-0.18008 -21.37722,-6.72501c-1.89369,-2.91744 -2.52779,-5.73191 -3.04203,-9.21768c0.25829,-0.02407 44.96055,-0.57569 46.21261,-0.62024c-1.32791,11.68777 -9.91591,16.56293 -21.79336,16.56293z" fill="#ff5d5d" stroke="none" stroke-width="2" stroke-linecap="butt"/><path d="M197.45389,140.53168c0,-9.12808 7.39976,-16.52784 16.52783,-16.52784c9.12808,0 16.52784,7.39977 16.52784,16.52784c0,9.12808 -7.39977,16.52784 -16.52784,16.52784c-9.12808,0 -16.52783,-7.39977 -16.52783,-16.52784z" fill="#000000" stroke="none" stroke-width="0" stroke-linecap="butt"/><path d="M244.84829,143.35841c1.25206,0.04455 45.95431,0.59617 46.2126,0.62024c-0.51423,3.48577 -1.14834,6.30024 -3.04203,9.21768c-4.24825,6.54493 -11.74714,6.52501 -19.77722,6.52501c-11.87745,0 -22.06545,-4.67515 -23.39336,-16.36292z" data-paper-data="{&quot;index&quot;:null}" fill="#ff5d5d" stroke="none" stroke-width="2" stroke-linecap="butt"/><path d="M268.015,157.05953c-9.12807,0 -16.52783,-7.39977 -16.52783,-16.52784c0,-9.12808 7.39977,-16.52784 16.52783,-16.52784c9.12807,0 16.52783,7.39977 16.52783,16.52784c0,9.12808 -7.39977,16.52784 -16.52783,16.52784z" data-paper-data="{&quot;index&quot;:null}" fill="#000000" stroke="none" stroke-width="0" stroke-linecap="butt"/><path d="M216.04651,141.09022c0,1.07005 -0.89543,1.9375 -2,1.9375c-1.10457,0 -2,-0.86745 -2,-1.9375c0,-1.07005 0.89543,-1.9375 2,-1.9375c1.10457,0 2,0.86745 2,1.9375z" fill="#ff0000" stroke="none" stroke-width="0" stroke-linecap="butt"/><path d="M269.79651,140.59022c0,1.07005 -0.89543,1.9375 -2,1.9375c-1.10457,0 -2,-0.86745 -2,-1.9375c0,-1.07005 0.89543,-1.9375 2,-1.9375c1.10457,0 2,0.86745 2,1.9375z" fill="#ff0000" stroke="none" stroke-width="0" stroke-linecap="butt"/><path d="M211.85205,173.09622c0,0.27614 -0.16789,0.5 -0.375,0.5c-0.20711,0 -0.375,-0.22386 -0.375,-0.5c0,-0.27614 0.16789,-0.5 0.375,-0.5c0.20711,0 0.375,0.22386 0.375,0.5z" fill="#000000" stroke="none" stroke-width="0" stroke-linecap="butt"/><path d="M221.13724,160.3773c0,0 4.88424,-1.48782 8.63465,-3.70607c1.6296,-0.96386 2.81335,-2.64506 3.67587,-3.4357c0.88784,-0.81386 2.23182,-4.33647 2.96007,-8.20063c0.84904,-4.50513 0.30085,-8.9433 0.30085,-8.9433l8.14285,-0.28572c0,0 0.33259,8.63836 2.45766,14.36477c0.8315,2.24064 2.69684,4.32117 3.4952,4.97823c2.49871,2.05645 11.04714,4.22843 11.04714,4.22843c0,0 -12.83349,-3.71429 -20.14286,-3.71429c-7.26175,0 -20.57143,4.71429 -20.57143,4.71429z" fill="url(#color-7)" stroke="none" stroke-width="0" stroke-linecap="butt"/><g><path d="M266.09701,189.57518c0.07299,1.13086 -11.80506,-1.56125 -23.59166,-1.69339c-11.71249,-0.13131 -24.48599,2.57134 -24.56037,1.41885c-0.29478,-4.56691 0.62072,-14.80196 13.59931,-14.65249c1.77343,0.02042 8.55346,2.64332 10.66885,2.33347c0.56666,-0.083 10.83866,-3.72492 13.72459,-1.94322c7.63717,4.71494 9.98241,11.79657 10.15929,14.53679z" fill="#000000" stroke="none" stroke-width="0" stroke-linecap="butt"/><path d="M231.56028,175.11071c1.77343,0.02042 8.55346,2.64334 10.66885,2.33348c0.56666,-0.083 10.83866,-3.72492 13.72459,-1.94323c2.49283,1.53899 4.42185,3.33014 5.89568,5.14016c-1.79039,0.86046 -3.48511,2.3344 -5.14626,3.58017c-3.05046,-0.0666 -5.25083,-4.05692 -8.4572,-4.05692c-1.96482,0.07504 -5.93215,6.65013 -7.3135,3.52996c-2.64065,-3.67498 -5.50565,-3.90238 -8.38011,-1.1057c-0.58705,0.61991 -1.32251,1.52266 -1.97654,1.96537c-0.34866,0.236 -1.19179,-0.77982 -1.45236,-0.9923c-1.44108,-1.17517 -3.29727,-1.08685 -4.8728,-1.77443c-1.62456,0.06027 -4.44994,2.56946 -6.20536,4.4147c0.56812,-4.91742 3.31925,-11.20871 13.51501,-11.09127z" fill="url(#color-8)" stroke="none" stroke-width="0" stroke-linecap="butt"/><path d="M219.35124,185.1152c0.73385,-0.81519 5.05382,-4.00773 5.05382,-4.00773l6.12933,3.32615l5.18497,-4.32985l5.83188,4.43516l7.14044,-4.99602l6.87932,4.39921l5.67227,-2.84685" fill="none" stroke="#000000" stroke-width="1" stroke-linecap="round"/></g><path d="M227.05531,157.30886c0.02862,-0.14542 0.12994,-0.4029 0.48874,-0.4029c0.5,0 0.5,0.5 0.5,0.5l-0.02566,0.55187c-0.7594,2.26377 -1.85472,4.31051 -2.27177,6.67076c-0.52516,1.83044 -0.23703,3.94799 -0.87536,5.7235c-0.27471,0.76412 -0.65651,1.60473 -1.69758,1.07926c-2.36936,-1.19589 1.032,-9.94616 -2.31615,-6.13972c-3.27644,5.03961 -2.05674,13.10409 -1.4498,18.78674c0.26615,3.15048 0.36745,6.3438 0.36745,9.50624c0,0.65246 0.27505,2.87289 -0.14644,3.35356c-0.70675,0.80596 -1.25887,-0.05116 -1.65494,-0.36064c-1.56104,-1.21972 -2.04235,-3.10853 -2.39589,-5.0096c-0.61704,-4.30499 0.24411,-8.76132 0.24411,-13.09606c0,-0.70513 -0.16625,-1.83945 -0.167,-2.85962c-0.90989,0.38573 -2.58928,-1.66549 -2.58928,-3.24359c0,-1.63455 0.20043,-3.41582 0.00645,-5.03872c-0.03573,-0.29889 -0.42847,-1.89786 -0.75114,-1.76389c-2.13898,0.88814 -1.40536,7.19109 -1.40536,8.93704c0,6.78766 -0.26779,13.6404 0.13644,20.41605c0.05119,0.8612 0.49165,3.70856 -0.08601,4.38155c-0.56932,0.66329 -3.23766,0.10104 -3.70407,-0.44381c-1.49352,-1.74471 -0.49647,-7.43526 -0.49634,-9.5489c-0.1984,-6.30278 -0.94501,-12.56661 -1.57109,-18.84163c-0.50818,-2.5329 -0.94221,-5.57967 -2.08509,-7.86023c-0.26809,-0.53496 -2.66031,-1.12474 -3.17644,-1.41736c-1.04486,-0.59239 -2.27382,-1.67365 -3.15592,-2.74445l-0.10271,0.10271l-0.59063,-0.59063c-0.09048,-0.09048 -0.14645,-0.21549 -0.14645,-0.35356c0,-0.27614 0.22386,-0.5 0.5,-0.5c0.04961,0 0.09754,0.00723 0.14279,0.02068l0.82183,0.22446c4.53477,0.63974 8.5443,1.32988 13.21058,1.32988c5.51819,0 11.03131,-0.28676 16.43967,-1.36843c0,0 0.00105,-0.00021 0.00307,-0.00057z" fill="#000000" stroke="none" stroke-width="0.5" stroke-linecap="butt"/><path d="M253.92919,156.30942c5.40836,1.08167 10.92148,1.36843 16.43967,1.36843c4.66627,0 8.6758,-0.69015 13.21058,-1.32988l0.82183,-0.22446c0.04525,-0.01345 0.09317,-0.02068 0.14279,-0.02068c0.27614,0 0.5,0.22386 0.5,0.5c0,0.13807 -0.05597,0.26307 -0.14645,0.35356l-0.59063,0.59063l-0.10271,-0.10271c-0.88211,1.0708 -2.11106,2.15206 -3.15592,2.74445c-0.51612,0.29262 -2.90834,0.8824 -3.17644,1.41736c-1.14289,2.28056 -1.57691,5.32733 -2.0851,7.86023c-0.62607,6.27502 -1.37269,12.53885 -1.57108,18.84163c0.00013,2.11363 0.99718,7.80419 -0.49634,9.5489c-0.46641,0.54485 -3.13475,1.1071 -3.70407,0.44381c-0.57766,-0.67299 -0.1372,-3.52035 -0.08601,-4.38155c0.40422,-6.77565 0.13644,-13.62839 0.13644,-20.41605c0,-1.74595 0.73361,-8.04891 -1.40537,-8.93704c-0.32266,-0.13397 -0.71541,1.465 -0.75114,1.76389c-0.19397,1.62291 0.00646,3.40418 0.00646,5.03872c0,1.5781 -1.67939,3.62932 -2.58928,3.24359c-0.00075,1.02017 -0.167,2.15449 -0.167,2.85962c0,4.33473 0.86115,8.79107 0.24411,13.09606c-0.35354,1.90107 -0.83485,3.78988 -2.39589,5.0096c-0.39607,0.30947 -0.94819,1.1666 -1.65494,0.36064c-0.42149,-0.48066 -0.14644,-2.7011 -0.14644,-3.35355c0,-3.16244 0.1013,-6.35577 0.36745,-9.50624c0.60693,-5.68265 1.82664,-13.74712 -1.4498,-18.78674c-3.34815,-3.80643 0.05321,4.94384 -2.31615,6.13972c-1.04107,0.52546 -1.42286,-0.31515 -1.69757,-1.07926c-0.63833,-1.77551 -0.3502,-3.89306 -0.87536,-5.7235c-0.41706,-2.36025 -1.51237,-4.40699 -2.27177,-6.67076l-0.02566,-0.55187c0,0 0,-0.5 0.5,-0.5c0.3588,0 0.46013,0.25748 0.48874,0.4029c0.00202,0.00036 0.00307,0.00057 0.00307,0.00057z" data-paper-data="{&quot;index&quot;:null}" fill="#000000" stroke="none" stroke-width="0.5" stroke-linecap="butt"/></g></g></svg>