<svg version="1.1" xmlns="http://www.w3.org/2000/svg" xmlns:xlink="http://www.w3.org/1999/xlink" width="202.34225" height="281.53307" viewBox="0,0,202.34225,281.53307"><g transform="translate(-138.80946,-34.81113)"><g data-paper-data="{&quot;isPaintingLayer&quot;:true}" fill-rule="nonzero" stroke-linejoin="miter" stroke-miterlimit="10" stroke-dasharray="" stroke-dashoffset="0" style="mix-blend-mode: normal"><g stroke-linecap="butt"><path d="M180.28205,316.3442v-267.22501h123.18203v267.22501z" fill-opacity="0.01" fill="#000000" stroke="none" stroke-width="0"/><path d="M207.7484,309.03171l15.14285,-131.8421l37.78325,-0.15789l13.57389,132z" fill="#ffc98c" stroke="#000000" stroke-width="2"/><path d="M217.12729,234.55256l1.81955,-14.45576h45.32077l1.25968,14.00472c0,0 -4.68002,-3.84225 -12.19042,-3.27595c-1.24659,0.094 -1.77005,3.30928 -3.61006,5.05858c-2.85775,2.71686 -7.12602,4.36879 -8.58021,4.38234c-0.59366,0.00553 -5.24197,-1.01361 -7.39759,-2.86222c-3.31818,-2.84561 -4.49605,-6.9719 -5.21348,-7.0195c-6.54919,-0.43454 -11.40823,4.1678 -11.40823,4.1678z" fill="#c59b6c" stroke="none" stroke-width="NaN"/><path d="M220.69862,205.64434l3.12142,-26.32765l35.83075,-0.14203l2.76735,26.1059c0,0 -7.51543,4.19603 -21.55904,4.50964c-12.48458,0.27879 -20.16049,-4.14586 -20.16049,-4.14586z" fill="#cca170" stroke="#000000" stroke-width="0"/><g><path d="M270.90666,198.69837c0,2.30815 -3.18821,22.08962 -5.54022,24.62356c-2.35122,2.53308 -6.36561,-3.93153 -10.01931,-0.61498c-4.82557,4.38029 -9.76615,12.36642 -16.19046,12.36642c-4.20178,0 -6.94663,-9.88432 -10.55794,-12.06768c-4.81002,-2.90809 -7.96365,4.12979 -11.28693,1.75156c-3.77432,-2.70101 -7.15514,-21.29382 -7.15514,-24.30887c0,-7.66295 12.84567,-7.375 29,-7.375c16.15433,0 31.75,-2.03795 31.75,5.625z" fill="#deaf7a" stroke="#000000" stroke-width="2"/><path d="M211.91498,199.36502l-0.43055,-1.34722c0,0 2.30061,-2.10321 5.7274,-3.10961c3.43428,-1.00861 7.99803,-0.92054 11.00417,-1.02956c4.09936,-0.14865 8.9871,0.36715 12.33397,0.28032c0.22267,-0.00577 8.60029,-0.76212 14.35212,-0.53942c3.36286,0.1302 9.74383,0.44438 13.0537,1.68131c1.40779,0.5261 1.98697,2.6753 1.98697,2.6753c0,0 0.58775,2.10701 -0.45337,2.96919c-0.09479,0.0785 -5.70116,1.34507 -13.70615,2.40924c-6.2198,0.82684 -15.1558,1.53149 -15.94565,1.46168c-0.93945,-0.08303 -8.25238,-0.68599 -11.16764,-1.23828c-8.38563,-1.58865 -16.75496,-4.21295 -16.75496,-4.21295z" fill="#cca170" stroke="none" stroke-width="0"/></g></g><path d="M176.83829,138.37784c0,-24.86961 0.53942,-44.72272 23.43776,-53.94172c7.76386,-3.12578 78.06474,-7.32917 89.64055,3.26571c11.96565,10.95168 15.39573,33.74936 15.39573,50.67601c0,22.27378 -4.86585,44.06016 -24.00215,54.50148c-9.47466,5.16965 -28.48645,5.79685 -40.23487,5.79685c-8.03759,0 -28.39706,-1.05234 -35.48875,-3.58308c-24.21035,-8.6397 -28.74827,-30.95817 -28.74827,-56.71525z" fill="#ffc98c" stroke="#000000" stroke-width="2" stroke-linecap="butt"/><path d="M177.56135,138.43171c0,-0.50023 -2.54161,28.09005 17.86421,45.10631c9.29088,7.74759 27.30231,11.51046 45.49625,11.82798c18.67549,0.32593 34.97207,-4.44756 44.39578,-13.10363c18.61382,-17.09756 19.1178,-44.50707 19.1178,-43.83066c0,19.32927 -3.52722,40.16877 -18.79528,51.01565c-10.64422,7.56197 -30.24998,8.88268 -44.64174,8.88268c-14.94606,0 -35.01822,-1.67303 -45.85983,-9.77002c-14.57239,-10.8833 -17.57719,-31.31805 -17.57719,-50.12831z" fill="#cca170" stroke="#000000" stroke-width="0" stroke-linecap="butt"/><path d="M190.38851,138.80734c0,-12.968 10.51265,-23.48065 23.48065,-23.48065c12.968,0 23.48065,10.51265 23.48065,23.48065c0,12.968 -10.51265,23.48065 -23.48065,23.48065c-12.968,0 -23.48065,-10.51265 -23.48065,-23.48065z" fill="#ffffff" stroke="#000000" stroke-width="2" stroke-linecap="butt"/><path d="M197.45389,138.53168c0,-9.12808 7.39976,-16.52784 16.52783,-16.52784c9.12808,0 16.52784,7.39977 16.52784,16.52784c0,9.12808 -7.39977,16.52784 -16.52784,16.52784c-9.12808,0 -16.52783,-7.39977 -16.52783,-16.52784z" fill="#000000" stroke="none" stroke-width="0" stroke-linecap="butt"/><path d="M268.12755,162.28797c-12.968,0 -23.48065,-10.51265 -23.48065,-23.48065c0,-12.968 10.51265,-23.48065 23.48065,-23.48065c12.968,0 23.48065,10.51265 23.48065,23.48065c0,12.968 -10.51265,23.48065 -23.48065,23.48065z" data-paper-data="{&quot;index&quot;:null}" fill="#ffffff" stroke="#000000" stroke-width="2" stroke-linecap="butt"/><path d="M268.015,155.05952c-9.12807,0 -16.52783,-7.39977 -16.52783,-16.52784c0,-9.12808 7.39977,-16.52784 16.52783,-16.52784c9.12807,0 16.52783,7.39977 16.52783,16.52784c0,9.12808 -7.39977,16.52784 -16.52783,16.52784z" data-paper-data="{&quot;index&quot;:null}" fill="#000000" stroke="none" stroke-width="0" stroke-linecap="butt"/><path d="M203.02618,109.99887c0,0 6.70895,-5.16922 11.79721,-6.36355c5.08827,-1.19433 12.33413,0.69937 12.33413,0.69937c0,0 -8.03812,-0.06028 -11.96762,0.86207c-4.10648,0.96389 -12.16372,4.80211 -12.16372,4.80211z" fill="#000000" stroke="none" stroke-width="0" stroke-linecap="butt"/><path d="M266.96065,105.19677c-3.9295,-0.92235 -11.96762,-0.86207 -11.96762,-0.86207c0,0 7.24586,-1.8937 12.33413,-0.69937c5.08826,1.19433 11.79721,6.36355 11.79721,6.36355c0,0 -8.05724,-3.83822 -12.16372,-4.80211z" data-paper-data="{&quot;index&quot;:null}" fill="#000000" stroke="none" stroke-width="0" stroke-linecap="butt"/><g><path d="M195.11215,185.03784c0,0 -19.68256,5.01129 -28.85803,5.15636c-8.62894,0.13643 -24.65593,-4.31022 -24.65593,-4.31022c0,0 13.59313,-6.72534 19.87589,-10.64702c5.86302,-3.65969 16.64857,-12.15148 16.64857,-12.15148c0,0 -13.65266,-2.64432 -19.85565,-4.89074c-6.00898,-2.17614 -16.79878,-8.38366 -16.79878,-8.38366c0,0 10.14097,-3.58921 16.03735,-6.65046c7.08068,-3.67611 23.54777,-13.90111 23.54777,-13.90111" data-paper-data="{&quot;index&quot;:null}" fill="#ffc98c" stroke="#000000" stroke-width="2" stroke-linecap="round"/><path d="M145.13181,185.44879c0,0 -0.58915,0.48699 3.05934,-2.09124c2.26898,-1.6034 23.19451,-11.00695 28.04479,-19.32853c0.52645,-0.90324 -4.91958,-2.46457 -9.02239,-3.94703c-8.82021,-3.187 -24.44878,-8.28924 -23.86486,-10.32341c0.31419,-1.09451 13.0817,-5.54258 17.72537,-7.71689c0.94629,-0.44308 12.6614,-6.46183 15.92415,-8.63061c2.55579,-1.69886 4.1336,-2.69492 4.1336,-2.69492c0,0 -0.30082,4.17125 -5.88087,7.60011c-6.79936,4.1781 -23.91028,7.82101 -23.77135,11.83133c0.21293,6.14658 30.71272,7.14571 29.6212,11.79491c-0.61189,2.60626 -4.08584,5.19334 -4.81347,5.79449c-8.5728,7.08248 -24.8879,18.65957 -18.95551,18.65957c7.90158,0 38.2,-2.60632 38.2,-2.60632v1.65856c0,0 -20.05188,3.79101 -27.8,3.79101c-8.51308,0 -22.6,-3.79101 -22.6,-3.79101z" fill="#cca170" stroke="none" stroke-width="0" stroke-linecap="butt"/><path d="M195.11215,185.03784c0,0 -19.68256,5.01129 -28.85803,5.15636c-8.62894,0.13643 -24.65593,-4.31022 -24.65593,-4.31022c0,0 13.59313,-6.72534 19.87589,-10.64702c5.86302,-3.65969 16.64857,-12.15148 16.64857,-12.15148c0,0 -13.65266,-2.64432 -19.85565,-4.89074c-6.00898,-2.17614 -16.79878,-8.38366 -16.79878,-8.38366c0,0 10.14097,-3.58921 16.03735,-6.65046c7.08068,-3.67611 23.54777,-13.90111 23.54777,-13.90111" data-paper-data="{&quot;index&quot;:null}" fill="none" stroke="#000000" stroke-width="2" stroke-linecap="round"/></g><g data-paper-data="{&quot;index&quot;:null}"><path d="M298.94668,124.75953c0,0 16.46709,10.3928 23.54777,14.12923c5.89638,3.11148 16.03735,6.7596 16.03735,6.7596c0,0 -10.7898,6.30938 -16.79878,8.52123c-6.20299,2.28329 -19.85565,4.971 -19.85565,4.971c0,0 10.78555,8.63114 16.64857,12.35088c6.28276,3.98603 19.87589,10.82174 19.87589,10.82174c0,0 -16.02699,4.51962 -24.65593,4.38095c-9.17547,-0.14746 -28.85803,-5.24097 -28.85803,-5.24097" data-paper-data="{&quot;index&quot;:null}" fill="#ffc98c" stroke="#000000" stroke-width="2" stroke-linecap="round"/><path d="M312.26822,185.72408c-7.74811,0 -27.8,-3.85322 -27.8,-3.85322v-1.68578c0,0 30.29842,2.64908 38.2,2.64908c5.93239,0 -10.38271,-11.76704 -18.95551,-18.96577c-0.72764,-0.61101 -4.20158,-3.24054 -4.81347,-5.88959c-1.09152,-4.72549 29.40826,-5.74101 29.6212,-11.98846c0.13893,-4.07613 -16.97199,-7.77883 -23.77134,-12.02549c-5.58006,-3.48513 -5.88087,-7.72482 -5.88087,-7.72482c0,0 1.57781,1.01241 4.13361,2.73914c3.26275,2.20436 14.97785,8.32188 15.92415,8.77223c4.64367,2.20999 17.41118,6.73105 17.72537,7.84353c0.58392,2.06755 -15.04465,7.25353 -23.86486,10.49282c-4.10281,1.50679 -9.54884,3.09375 -9.02239,4.0118c4.85028,8.45815 25.7758,18.01602 28.04478,19.64572c3.64848,2.62053 3.05934,2.12555 3.05934,2.12555c0,0 -14.08691,3.85322 -22.6,3.85322z" fill="#cca170" stroke="none" stroke-width="0" stroke-linecap="butt"/><path d="M298.94668,124.75953c0,0 16.46709,10.3928 23.54777,14.12923c5.89638,3.11148 16.03735,6.7596 16.03735,6.7596c0,0 -10.7898,6.30938 -16.79878,8.52123c-6.20299,2.28329 -19.85565,4.971 -19.85565,4.971c0,0 10.78555,8.63114 16.64857,12.35088c6.28276,3.98603 19.87589,10.82174 19.87589,10.82174c0,0 -16.02699,4.51962 -24.65593,4.38095c-9.17547,-0.14746 -28.85803,-5.24097 -28.85803,-5.24097" data-paper-data="{&quot;index&quot;:null}" fill="none" stroke="#000000" stroke-width="2" stroke-linecap="round"/></g><g data-paper-data="{&quot;index&quot;:null}"><path d="M231.98471,82.71123c0,0 13.05164,-18.38743 17.97644,-26.42658c4.10109,-6.69452 9.55608,-18.51691 9.55608,-18.51691c0,0 3.75939,14.42576 4.63129,22.2237c0.90006,8.04971 0.68731,25.34326 0.68731,25.34326c0,0 10.26029,-11.71274 14.92551,-18.25597c4.99919,-7.01167 14.13705,-22.50593 14.13705,-22.50593c0,0 1.03071,20.54838 -0.82803,31.14548c-1.97647,11.26829 -10.69927,34.57441 -10.69927,34.57441" data-paper-data="{&quot;index&quot;:null}" fill="#ffc98c" stroke="#000000" stroke-width="2" stroke-linecap="round"/><path d="M291.86398,77.36146c-1.55214,9.53794 -9.18502,33.52349 -9.18502,33.52349l-1.58197,-0.30553c0,0 8.55552,-36.81727 10.13842,-46.54414c1.18842,-7.30278 -13.12241,10.64848 -21.59522,19.89694c-0.71915,0.78499 -3.8827,4.58485 -6.49119,4.85797c-4.65317,0.48722 0.50373,-37.2421 -5.31637,-38.6365c-3.79732,-0.90978 -10.69976,19.48272 -16.04703,27.08308c-4.38836,6.23741 -8.42724,5.83933 -8.42724,5.83933c0,0 1.26614,-1.7588 3.39854,-4.59204c2.72224,-3.61695 10.8099,-16.92952 11.42209,-18.01279c3.00415,-5.31583 9.80449,-20.21327 10.91141,-20.39841c2.05722,-0.34408 3.79306,19.83459 5.06599,31.27937c0.59212,5.32366 0.99037,12.31534 1.95736,11.83367c8.90897,-4.43777 22.07022,-28.46486 24.05413,-30.96261c3.19007,-4.01635 2.60755,-3.38082 2.60755,-3.38082c0,0 0.79399,18.03936 -0.91141,28.51898z" fill="#cca170" stroke="none" stroke-width="0" stroke-linecap="butt"/><path d="M231.98471,82.71123c0,0 13.05164,-18.38743 17.97644,-26.42658c4.10109,-6.69452 9.55608,-18.51691 9.55608,-18.51691c0,0 3.75939,14.42576 4.63129,22.2237c0.90006,8.04971 0.68731,25.34326 0.68731,25.34326c0,0 10.26029,-11.71274 14.92551,-18.25597c4.99919,-7.01167 14.13705,-22.50593 14.13705,-22.50593c0,0 1.03071,20.54838 -0.82803,31.14548c-1.97647,11.26829 -10.69927,34.57441 -10.69927,34.57441" data-paper-data="{&quot;index&quot;:null}" fill="none" stroke="#000000" stroke-width="2" stroke-linecap="round"/></g><g stroke="none" stroke-width="0" stroke-linecap="butt"><path d="M205.40892,173.29213c0,4.86067 -4.2906,8.80102 -9.58333,8.80102c-5.29273,0 -9.58333,-3.94035 -9.58333,-8.80102c0,-4.86067 4.2906,-8.80102 9.58333,-8.80102c5.29273,0 9.58333,3.94035 9.58333,8.80102z" fill="#bd9568"/><path d="M192.724,169.75591c0,0.86412 -0.71643,1.56463 -1.60019,1.56463c-0.88376,0 -1.60019,-0.70051 -1.60019,-1.56463c0,-0.86412 0.71643,-1.56463 1.60019,-1.56463c0.88376,0 1.60019,0.70051 1.60019,1.56463z" fill="#860000"/><path d="M202.68071,171.03606c0,0.86412 -0.71643,1.56463 -1.60019,1.56463c-0.88376,0 -1.60019,-0.70051 -1.60019,-1.56463c0,-0.86412 0.71643,-1.56463 1.60019,-1.56463c0.88376,0 1.60019,0.70051 1.60019,1.56463z" fill="#860000"/><path d="M197.20452,178.29024c0,0.86412 -0.71643,1.56463 -1.60019,1.56463c-0.88376,0 -1.60019,-0.70051 -1.60019,-1.56463c0,-0.86412 0.71643,-1.56463 1.60019,-1.56463c0.88376,0 1.60019,0.70051 1.60019,1.56463z" fill="#860000"/></g><g data-paper-data="{&quot;index&quot;:null}" stroke="none" stroke-width="0" stroke-linecap="butt"><path d="M287.58315,164.50624c4.74045,0 8.58333,3.52918 8.58333,7.88265c0,4.35347 -3.84289,7.88265 -8.58333,7.88265c-4.74045,0 -8.58333,-3.52918 -8.58333,-7.88265c0,-4.35347 3.84289,-7.88265 8.58333,-7.88265z" fill="#bd9568"/><path d="M291.79433,167.82034c0.79154,0 1.43321,0.62741 1.43321,1.40136c0,0.77395 -0.64167,1.40136 -1.43321,1.40136c-0.79154,0 -1.43321,-0.62741 -1.43321,-1.40136c0,-0.77395 0.64167,-1.40136 1.43321,-1.40136z" fill="#005387"/><path d="M282.87657,168.9669c0.79154,0 1.43321,0.62741 1.43321,1.40136c0,0.77395 -0.64167,1.40136 -1.43321,1.40136c-0.79154,0 -1.43321,-0.62741 -1.43321,-1.40136c0,-0.77395 0.64167,-1.40136 1.43321,-1.40136z" fill="#005387"/><path d="M287.78132,175.46412c0.79154,0 1.43321,0.62741 1.43321,1.40136c0,0.77395 -0.64167,1.40136 -1.43321,1.40136c-0.79154,0 -1.43321,-0.62741 -1.43321,-1.40136c0,-0.77395 0.64167,-1.40136 1.43321,-1.40136z" fill="#005387"/></g><path d="M190.32183,138.67401c0,-12.968 10.51265,-23.48065 23.48065,-23.48065c12.968,0 23.48065,10.51265 23.48065,23.48065c0,0 -12.14334,0.66076 -22.87924,0.82232c-12.59558,0.18954 -24.08207,-0.15746 -24.08207,-0.82232z" fill="#ffc98c" stroke="#000000" stroke-width="2" stroke-linecap="butt"/><path d="M291.88311,138.47401c0,0.66485 -11.48649,1.01187 -24.08207,0.82232c-10.7359,-0.16156 -22.87924,-0.82232 -22.87924,-0.82232c0,-12.968 10.51265,-23.48065 23.48065,-23.48065c12.968,0 23.48065,10.51265 23.48065,23.48065z" data-paper-data="{&quot;index&quot;:null}" fill="#ffc98c" stroke="#000000" stroke-width="2" stroke-linecap="butt"/><path d="M254.43288,181.06152c0,0 -3.67643,1.28846 -8.06953,1.99669c-1.96546,0.31686 -4.83277,0.40331 -6.27068,0.40331c-1.43978,0 -4.71436,-0.23446 -6.5807,-0.55681c-4.10491,-0.70899 -6.85536,-1.84319 -6.85536,-1.84319" data-paper-data="{&quot;index&quot;:null}" fill="none" stroke="#000000" stroke-width="2" stroke-linecap="round"/></g></g></svg>