<svg version="1.1" xmlns="http://www.w3.org/2000/svg" xmlns:xlink="http://www.w3.org/1999/xlink" width="34.17311" height="34.17311" viewBox="0,0,34.17311,34.17311"><defs><linearGradient x1="232.03712" y1="180.36748" x2="232.36345" y2="181.17216" gradientUnits="userSpaceOnUse" id="color-1"><stop offset="0" stop-color="#000000"/><stop offset="1" stop-color="#000000"/></linearGradient><linearGradient x1="232.74602" y1="179.93092" x2="233.07976" y2="180.7539" gradientUnits="userSpaceOnUse" id="color-2"><stop offset="0" stop-color="#000000"/><stop offset="1" stop-color="#000000"/></linearGradient><linearGradient x1="245.53515" y1="174.95851" x2="245.86147" y2="175.76321" gradientUnits="userSpaceOnUse" id="color-3"><stop offset="0" stop-color="#000000"/><stop offset="1" stop-color="#000000"/></linearGradient><linearGradient x1="244.72242" y1="175.13901" x2="245.05616" y2="175.96199" gradientUnits="userSpaceOnUse" id="color-4"><stop offset="0" stop-color="#000000"/><stop offset="1" stop-color="#000000"/></linearGradient></defs><g transform="translate(-222.91347,-162.91346)"><g data-paper-data="{&quot;isPaintingLayer&quot;:true}" stroke-miterlimit="10" stroke-dasharray="" stroke-dashoffset="0" style="mix-blend-mode: normal"><path d="M229.98313,162.91346h20.03379c3.9166,0 7.06966,3.15307 7.06966,7.06966v20.03379c0,3.91659 -3.15306,7.06966 -7.06966,7.06966h-20.03379c-3.91659,0 -7.06966,-3.15307 -7.06966,-7.06966v-20.03379c0,-3.91659 3.15307,-7.06966 7.06966,-7.06966z" fill="#e874b6" fill-rule="evenodd" stroke="none" stroke-width="4.43922" stroke-linecap="round" stroke-linejoin="round"/><g fill-rule="nonzero" stroke-width="0.5" stroke-linejoin="miter"><g><path d="M239.36794,178.43461c0.01605,0.03958 1.49879,2.92385 1.06577,6.29787c-0.24613,1.91779 -2.32126,5.01072 -2.61481,5.29007c-0.35811,0.3408 -1.34615,1.55183 -2.59595,2.11083c-1.78742,0.79945 -4.04522,0.8709 -5.2081,0.30965c-0.98904,-0.47735 -2.12085,-1.21104 -2.86912,-2.04983c-0.83771,-0.93905 -1.93303,-2.91366 -2.53265,-5.03543c-0.59384,-2.10134 -0.69637,-4.35075 -0.62702,-5.11844c0.26803,-2.96725 1.67836,-5.07841 3.41636,-5.78321c2.29108,-0.92908 5.23706,0.5029 7.81709,1.79271c2.03395,1.01681 3.9987,1.8166 4.14842,2.18579z" fill="#ff80c9" stroke="#000000" stroke-linecap="butt"/><path d="M232.52516,179.9618c0.02681,0.06611 0.6775,0.56161 0.25058,0.73474c-0.42692,0.17313 -1.64537,0.07823 -1.67218,0.01212c-0.02681,-0.06611 0.29755,-0.26005 0.72447,-0.43318c0.42692,-0.17313 0.67032,-0.37979 0.69713,-0.31368z" data-paper-data="{&quot;index&quot;:null}" fill="#ce52af" stroke="none" stroke-linecap="butt"/><path d="M233.40397,180.75022l-2.40736,0.03921" fill="url(#color-1)" stroke="#000000" stroke-linecap="round"/><path d="M232.53343,180.01714l0.7589,0.65057" fill="url(#color-2)" stroke="#000000" stroke-linecap="round"/><path d="M234.79929,184.7239c-0.42692,0.17313 -0.79475,0.25988 -0.82156,0.19377c-0.02681,-0.06611 0.78139,-0.98286 1.20831,-1.15598c0.42692,-0.17313 0.30514,0.63563 0.33195,0.70174c0.02681,0.06611 -0.29178,0.08735 -0.7187,0.26047z" data-paper-data="{&quot;index&quot;:null}" fill="#ce52af" stroke="none" stroke-linecap="butt"/><path d="M233.71535,185.30907l1.75471,-1.6486l-0.09792,1.42536" data-paper-data="{&quot;index&quot;:null}" fill="none" stroke="#000000" stroke-linecap="round"/></g><g data-paper-data="{&quot;index&quot;:null}"><path d="M238.92866,178.67752c-0.14971,-0.36919 0.70304,-2.31154 1.45429,-4.45781c0.95296,-2.72251 2.06947,-5.80192 4.36055,-6.731c1.73801,-0.7048 4.22042,-0.17222 6.47945,1.77025c0.58446,0.50256 2.07761,2.18804 3.11509,4.10948c1.04757,1.94012 1.63694,4.11991 1.68989,5.37719c0.0473,1.12305 -0.25381,2.43782 -0.63103,3.46922c-0.44352,1.21268 -2.11336,2.73398 -3.95276,3.40527c-1.28614,0.46938 -2.8386,0.28857 -3.33293,0.29346c-0.40521,0.00401 -4.04846,-0.76999 -5.56083,-1.97468c-2.66073,-2.11943 -3.60569,-5.22179 -3.62174,-5.26137z" fill="#ff80c9" stroke="#000000" stroke-linecap="butt"/><path d="M245.62111,174.74687c0.42692,-0.17313 0.79475,-0.25988 0.82156,-0.19377c0.02681,0.06611 -0.78139,0.98286 -1.20831,1.15598c-0.42692,0.17313 -0.30514,-0.63563 -0.33195,-0.70174c-0.02681,-0.06611 0.29178,-0.08735 0.7187,-0.26047z" data-paper-data="{&quot;index&quot;:null}" fill="#ce52af" stroke="none" stroke-linecap="butt"/><path d="M246.57566,174.53656l-1.75471,1.6486" fill="url(#color-3)" stroke="#000000" stroke-linecap="round"/><path d="M244.935,175.0528l-0.09142,0.9954" fill="url(#color-4)" stroke="#000000" stroke-linecap="round"/><path d="M245.89029,180.32202c-0.02681,-0.06611 -0.6775,-0.56161 -0.25058,-0.73474c0.42692,-0.17313 1.64537,-0.07823 1.67218,-0.01212c0.02681,0.06611 -0.29755,0.26005 -0.72447,0.43318c-0.42692,0.17313 -0.67032,0.37979 -0.69713,0.31368z" data-paper-data="{&quot;index&quot;:null}" fill="#ce52af" stroke="none" stroke-linecap="butt"/><path d="M246.42846,180.66704l-1.06303,-0.95457l2.40735,-0.03921" data-paper-data="{&quot;index&quot;:null}" fill="none" stroke="#000000" stroke-linecap="round"/></g><path d="M243.96481,177.74047c0.97095,2.39433 -0.42098,3.95471 -3.24863,5.10138c-2.82765,1.14667 -4.95942,1.04157 -5.93037,-1.35276c-0.97095,-2.39433 0.44865,-3.96593 3.2763,-5.11261c2.82765,-1.14667 4.93175,-1.03035 5.9027,1.36398z" fill="#e3e854" stroke="#000000" stroke-linecap="butt"/></g></g></g></svg>