<svg version="1.1" xmlns="http://www.w3.org/2000/svg" xmlns:xlink="http://www.w3.org/1999/xlink" width="131.29219" height="267.22501" viewBox="0,0,131.29219,267.22501"><defs><radialGradient cx="240.64765" cy="99.80005" r="63.7549" gradientUnits="userSpaceOnUse" id="color-1"><stop offset="0" stop-color="#ffffff"/><stop offset="1" stop-color="#c3c3c3"/></radialGradient></defs><g transform="translate(-174.44368,-46.38752)"><g data-paper-data="{&quot;isPaintingLayer&quot;:true}" fill-rule="nonzero" stroke-linejoin="miter" stroke-miterlimit="10" stroke-dasharray="" stroke-dashoffset="0" style="mix-blend-mode: normal"><path d="M206.47615,306.30001l15.14285,-131.8421l37.78325,-0.15789l13.57389,132z" fill="#5fd6f4" stroke="#000000" stroke-width="2" stroke-linecap="butt"/><path d="M219.42637,202.91268l3.12142,-26.32765l35.83075,-0.14203l2.76735,26.1059c0,0 -7.51543,4.19603 -21.55904,4.50964c-12.48458,0.27879 -20.16049,-4.14586 -20.16049,-4.14586z" fill="#387e8f" stroke="#000000" stroke-width="0" stroke-linecap="butt"/><path d="M218.11291,201.3775c0,0 -0.86037,-1.64644 -1.18821,-3.42169c-0.34066,-1.84471 -0.14619,-3.82852 0.02426,-4.24864c0.80908,-1.99419 2.99728,-3.99633 2.99728,-3.99633l40.16666,0.5c0,0 2.58695,1.45609 3.27161,3.19102c0.40553,1.02761 0.22839,2.86943 0.22839,3.47565c0,0.73804 -0.05964,2.54278 -1.11019,3.48972c-1.03264,0.9308 -3.05648,2.01028 -3.05648,2.01028z" fill="#54bed8" stroke="#000000" stroke-width="2" stroke-linecap="butt"/><path d="M179.00982,313.61253v-267.22501h123.18203v267.22501z" fill-opacity="0.01" fill="#000000" stroke="none" stroke-width="0" stroke-linecap="butt"/><path d="M249.68929,238.88698c-2.12043,1.56754 -9.37984,-4.83026 -9.37984,-4.83026c0,0 -7.15111,6.52447 -9.29851,4.99165c-2.14911,-1.53259 1.69445,-10.41655 1.69445,-10.41655c0,0 -8.41373,-4.78548 -7.61958,-7.30111c0.79398,-2.51748 10.4295,-1.60702 10.4295,-1.60702c0,0 1.94919,-9.48018 4.58738,-9.50471c2.64192,-0.02316 4.75443,9.42378 4.75443,9.42378c0,0 9.61861,-1.07594 10.45386,1.42773c0.84036,2.50147 -7.49126,7.43109 -7.49126,7.43109c0,0 3.99534,8.81736 1.86957,10.3854z" fill="#ffff00" stroke="#000000" stroke-width="2" stroke-linecap="butt"/><path d="M227.48489,196.03313l-0.25,4.5" fill="none" stroke="#000000" stroke-width="2" stroke-linecap="round"/><path d="M240.48489,196.53313l0.125,3.75" fill="none" stroke="#000000" stroke-width="2" stroke-linecap="round"/><path d="M255.48489,194.78313l-0.125,7.125" fill="none" stroke="#000000" stroke-width="2" stroke-linecap="round"/><path d="M304.73588,126.43076c0,10.66125 -29.32477,3.20262 -64.53563,3.20262c-35.21086,0 -64.64083,5.1253 -64.64083,-5.53596c0,-5.82479 3.323,-27.17214 16.5536,-38.15755c6.71964,-5.57933 15.06665,-10.6428 25.74496,-13.47513c6.77923,-1.79813 15.69199,-2.49803 21.89487,-2.49803c12.81486,0 24.865,-0.59806 36.90198,5.85928c1.16651,0.62578 13.74649,7.6646 18.70392,17.24186c6.981,13.48659 9.37713,33.36291 9.37713,33.36291z" fill="url(#color-1)" stroke="#000000" stroke-width="2" stroke-linecap="butt"/><path d="M175.56653,135.6462c0,-4.57959 -1.07458,-16.52941 3.13267,-19.84945c2.69857,-2.1295 45.56049,-2.70502 59.04646,-2.93068c20.30584,-0.33977 63.05159,2.50082 64.5063,4.09508c2.64686,2.90079 2.28808,15.13418 2.28808,18.68505c0,33.30185 -28.87171,60.29833 -64.48675,60.29833c-35.61504,0 -64.48675,-26.99649 -64.48675,-60.29833z" fill="#ec3434" stroke="#000000" stroke-width="2" stroke-linecap="butt"/><path d="M176.2924,135.70001c0,-0.72799 5.22691,55.91939 63.60679,56.93429c55.77953,0.9697 63.7605,-57.95314 63.7605,-56.93429c0,32.80479 -28.51215,59.39833 -63.68365,59.39833c-35.17149,0 -63.68364,-26.59354 -63.68364,-59.39833z" fill="#a12323" stroke="#000000" stroke-width="0" stroke-linecap="butt"/><path d="M303.94407,117.18021c0,4.43784 -33.33567,5.17838 -65,5.17838c-31.66432,0 -61.66667,-1.4548 -61.66667,-5.89264c0,-4.43784 30.66901,-4.10699 62.33334,-4.10699c31.66432,0 64.33334,0.38341 64.33334,4.82125z" fill="#b10000" stroke="#000000" stroke-width="2" stroke-linecap="butt"/><path d="M189.11628,136.07567c0,-12.968 10.51265,-23.48065 23.48065,-23.48065c12.968,0 23.48065,10.51265 23.48065,23.48065c0,12.968 -10.51265,23.48065 -23.48065,23.48065c-12.968,0 -23.48065,-10.51265 -23.48065,-23.48065z" fill="#ffffff" stroke="#000000" stroke-width="2" stroke-linecap="butt"/><path d="M196.18165,135.80002c0,-9.12808 7.39976,-16.52784 16.52783,-16.52784c9.12808,0 16.52784,7.39977 16.52784,16.52784c0,9.12808 -7.39977,16.52784 -16.52784,16.52784c-9.12808,0 -16.52783,-7.39977 -16.52783,-16.52784z" fill="#000000" stroke="none" stroke-width="0" stroke-linecap="butt"/><path d="M267.10534,159.5563c-12.968,0 -23.48065,-10.51265 -23.48065,-23.48065c0,-12.968 10.51265,-23.48065 23.48065,-23.48065c12.968,0 23.48065,10.51265 23.48065,23.48065c0,12.968 -10.51265,23.48065 -23.48065,23.48065z" data-paper-data="{&quot;index&quot;:null}" fill="#ffffff" stroke="#000000" stroke-width="2" stroke-linecap="butt"/><path d="M266.74279,152.32787c-9.12807,0 -16.52783,-7.39977 -16.52783,-16.52784c0,-9.12808 7.39977,-16.52784 16.52783,-16.52784c9.12807,0 16.52783,7.39977 16.52783,16.52784c0,9.12808 -7.39977,16.52784 -16.52783,16.52784z" data-paper-data="{&quot;index&quot;:null}" fill="#000000" stroke="none" stroke-width="0" stroke-linecap="butt"/><path d="M189.03294,136.07567c0,-12.968 10.51265,-23.48065 23.48065,-23.48065c12.968,0 23.48065,10.51265 23.48065,23.48065c0,0 -46.96131,1.23155 -46.96131,0z" fill="#ec3434" stroke="#000000" stroke-width="2" stroke-linecap="butt"/><path d="M243.37471,136.07567c0,-12.968 10.51265,-23.48065 23.48065,-23.48065c12.968,0 23.48065,10.51265 23.48065,23.48065c0,1.2138 -46.96131,0 -46.96131,0z" data-paper-data="{&quot;index&quot;:null}" fill="#ec3434" stroke="#000000" stroke-width="2" stroke-linecap="butt"/><path d="M201.75395,107.26721c0,0 6.70895,-5.16922 11.79721,-6.36355c5.08827,-1.19433 12.33413,0.69937 12.33413,0.69937c0,0 -8.03812,-0.06028 -11.96762,0.86207c-4.10648,0.96389 -12.16372,4.80211 -12.16372,4.80211z" fill="#000000" stroke="none" stroke-width="0" stroke-linecap="butt"/><path d="M265.68844,102.46511c-3.9295,-0.92235 -11.96762,-0.86207 -11.96762,-0.86207c0,0 7.24586,-1.8937 12.33413,-0.69937c5.08826,1.19433 11.79721,6.36355 11.79721,6.36355c0,0 -8.05724,-3.83822 -12.16372,-4.80211z" data-paper-data="{&quot;index&quot;:null}" fill="#000000" stroke="none" stroke-width="0" stroke-linecap="butt"/><path d="M189.06502,135.77574l-3.6,-2.6" fill="none" stroke="#000000" stroke-width="2" stroke-linecap="round"/><path d="M289.86501,135.57573l4.2,-3.4" fill="none" stroke="#000000" stroke-width="2" stroke-linecap="round"/><path d="M213.19508,79.86794c0.95437,1.74419 -1.57117,4.96337 -5.64096,7.19024c-4.06979,2.22687 -8.14267,2.61815 -9.09704,0.87395c-0.95437,-1.74419 1.57117,-4.96337 5.64096,-7.19024c4.06979,-2.22687 8.14267,-2.61815 9.09704,-0.87395z" fill="#ffffff" stroke="none" stroke-width="0" stroke-linecap="butt"/><path d="M220.02608,78.80005c0,1.1598 -0.9402,2.1 -2.1,2.1c-1.1598,0 -2.1,-0.9402 -2.1,-2.1c0,-1.1598 0.9402,-2.1 2.1,-2.1c1.1598,0 2.1,0.9402 2.1,2.1z" fill="#ffffff" stroke="none" stroke-width="0" stroke-linecap="butt"/><path d="M252.61665,176.65648c0,0 -4.09668,4 -12.91066,4.14285c-7.26585,0.11777 -12.19893,-4.14285 -12.19893,-4.14285" fill="none" stroke="#000000" stroke-width="2" stroke-linecap="round"/></g></g></svg>