<svg version="1.1" xmlns="http://www.w3.org/2000/svg" xmlns:xlink="http://www.w3.org/1999/xlink" width="34.17311" height="34.17311" viewBox="0,0,34.17311,34.17311"><g transform="translate(-222.91346,-162.91347)"><g data-paper-data="{&quot;isPaintingLayer&quot;:true}" stroke-miterlimit="10" stroke-dasharray="" stroke-dashoffset="0" style="mix-blend-mode: normal"><g stroke="none" stroke-width="4.43922"><path d="M229.98313,162.91348h20.03379c3.9166,0 7.06966,3.15307 7.06966,7.06966v20.03379c0,3.91659 -3.15306,7.06966 -7.06966,7.06966h-20.03379c-3.91659,0 -7.06966,-3.15307 -7.06966,-7.06966v-20.03379c0,-3.91659 3.15307,-7.06966 7.06966,-7.06966z" fill="#c1c1c1" fill-rule="evenodd" stroke-linecap="round" stroke-linejoin="round"/><path d="M249.85025,162.91348c3.9166,0 7.06966,3.15307 7.06966,7.06966v20.03379c0,3.91659 -3.15306,7.06966 -7.06966,7.06966h-9.12404c0,-1.26695 0.14463,-33.85884 0.14779,-34.17311z" fill="#888888" fill-rule="nonzero" stroke-linecap="butt" stroke-linejoin="miter"/></g><g fill-rule="nonzero" stroke="#000000" stroke-width="0.5" stroke-linecap="butt" stroke-linejoin="miter"><path d="M236.86784,164.48576c0.06748,-0.3077 2.85646,7.84971 7.16588,8.79555c4.47242,0.98162 10.4689,-5.23581 10.40456,-4.94241c-0.70939,3.23486 -1.1825,10.11711 -4.30632,13.86307c-2.77789,3.33114 -8.24516,3.74218 -8.77263,3.6265c-0.35024,-0.07681 -5.17962,-3.42767 -6.19918,-6.81436c-1.47561,-4.90153 0.8871,-10.78644 1.70769,-14.52835z" fill="#5c5c5c"/><path d="M225.56621,175.64739c-0.03614,-0.32276 5.17413,7.86482 9.79189,7.34863c4.79243,-0.53571 8.98696,-9.21938 9.02142,-8.91162c0.3799,3.39318 1.91984,10.8811 0.0626,15.57922c-1.14401,2.89393 -3.78495,4.5204 -5.69813,5.29133c-0.8488,0.34204 -1.82899,0.54641 -2.00268,0.56585c-0.11883,0.01331 -1.17009,-0.03873 -2.08575,-0.26995c-1.97618,-0.49902 -4.75012,-1.67261 -6.22347,-3.69808c-3.12039,-4.28973 -2.86588,-15.90538 -2.86588,-15.90538z" fill="#ffffff"/></g></g></g></svg>