<svg version="1.1" xmlns="http://www.w3.org/2000/svg" xmlns:xlink="http://www.w3.org/1999/xlink" width="34.17311" height="34.17311" viewBox="0,0,34.17311,34.17311"><g transform="translate(-222.91348,-162.9135)"><g data-paper-data="{&quot;isPaintingLayer&quot;:true}" stroke-miterlimit="10" stroke-dasharray="" stroke-dashoffset="0" style="mix-blend-mode: normal"><path d="M229.98315,162.9135h20.03379c3.9166,0 7.06966,3.15307 7.06966,7.06966v20.03379c0,3.91659 -3.15306,7.06966 -7.06966,7.06966h-20.03379c-3.91659,0 -7.06966,-3.15307 -7.06966,-7.06966v-20.03379c0,-3.91659 3.15307,-7.06966 7.06966,-7.06966z" fill="#434343" fill-rule="evenodd" stroke="none" stroke-width="4.43922" stroke-linecap="round" stroke-linejoin="round"/><g fill-rule="nonzero" stroke-width="0.5" stroke-linecap="butt" stroke-linejoin="miter"><g><path d="M250.88633,195.24376l-8.16867,-9.32169l3.10724,-2.72289l8.16867,9.32168z" fill="#797979" stroke="#000000"/><path d="M245.68651,188.79406c0.84273,-1.04014 1.39927,-1.71584 2.50252,-2.52827l3.6601,4.37673c-1.01485,0.94636 -1.60641,1.41253 -2.57692,2.3716z" fill="#bdbdbd" stroke="none"/></g><path d="M226.34394,173.79529c1.56754,-6.41043 8.11204,-10.31752 14.61753,-8.72673c6.50549,1.59079 10.50849,8.07706 8.94095,14.48749c-1.56754,6.41043 -8.11204,10.31751 -14.61753,8.72672c-6.50549,-1.59079 -10.5085,-8.07706 -8.94095,-14.48749z" fill="#656565" stroke="#000000"/><path d="M228.28072,174.21953c1.30963,-5.35572 6.77736,-8.61997 12.21249,-7.29091c5.43514,1.32906 8.77952,6.74813 7.46989,12.10385c-1.30963,5.35572 -6.77735,8.61996 -12.21249,7.29091c-5.43514,-1.32906 -8.77952,-6.74813 -7.46989,-12.10385z" fill="#ffffff" stroke="#000000"/></g></g></g></svg>