<svg version="1.1" xmlns="http://www.w3.org/2000/svg" xmlns:xlink="http://www.w3.org/1999/xlink" width="34.17311" height="34.17311" viewBox="0,0,34.17311,34.17311"><g transform="translate(-222.91348,-162.91347)"><g data-paper-data="{&quot;isPaintingLayer&quot;:true}" stroke-miterlimit="10" stroke-dasharray="" stroke-dashoffset="0" style="mix-blend-mode: normal"><path d="M229.98314,162.91348h20.03379c3.9166,0 7.06966,3.15307 7.06966,7.06966v20.03379c0,3.91659 -3.15306,7.06966 -7.06966,7.06966h-20.03379c-3.91659,0 -7.06966,-3.15307 -7.06966,-7.06966v-20.03379c0,-3.91659 3.15307,-7.06966 7.06966,-7.06966z" fill="#d80054" fill-rule="evenodd" stroke="none" stroke-width="4.43922" stroke-linecap="round" stroke-linejoin="round"/><path d="M247.79963,195.02089l-2.99151,-4.56102l2.88865,-1.89462l2.99151,4.56102z" fill="#9e9a92" fill-rule="nonzero" stroke="#000000" stroke-width="0.5" stroke-linecap="butt" stroke-linejoin="miter"/><path d="M245.76538,169.44729c2.968,4.52517 1.38963,10.80687 -3.52538,14.03056c-4.91502,3.22369 -11.30546,2.16863 -14.27346,-2.35654c-2.968,-4.52517 -1.38963,-10.80687 3.52538,-14.03056c4.91502,-3.22369 11.30546,-2.16863 14.27346,2.35654z" fill="#fdf6e9" fill-rule="nonzero" stroke="#000000" stroke-width="0.5" stroke-linecap="butt" stroke-linejoin="miter"/><path d="M239.40934,190.84802l-4.21919,-5.60402c0,0 1.62751,-0.37666 3.50899,-1.195c0.80972,-0.35218 2.10004,-1.07054 2.6124,-1.40659c0.58742,-0.38528 1.8551,-1.36104 2.67676,-2.09258c1.6489,-1.46805 2.88231,-2.85817 2.88231,-2.85817l2.95306,6.32574z" fill="#bfb9af" fill-rule="nonzero" stroke="#000000" stroke-width="0.5" stroke-linecap="butt" stroke-linejoin="miter"/><path d="M242.05922,193.89362l-2.19378,-3.34475l9.57815,-6.28218l2.19378,3.34475z" fill="#bfb9af" fill-rule="nonzero" stroke="#000000" stroke-width="0.5" stroke-linecap="butt" stroke-linejoin="miter"/></g></g></svg>