<svg version="1.1" xmlns="http://www.w3.org/2000/svg" xmlns:xlink="http://www.w3.org/1999/xlink" width="34.17311" height="34.17311" viewBox="0,0,34.17311,34.17311"><g transform="translate(-222.91348,-162.91347)"><g data-paper-data="{&quot;isPaintingLayer&quot;:true}" stroke-miterlimit="10" stroke-dasharray="" stroke-dashoffset="0" style="mix-blend-mode: normal"><path d="M229.98314,162.91348h20.03379c3.9166,0 7.06966,3.15307 7.06966,7.06966v20.03379c0,3.91659 -3.15306,7.06966 -7.06966,7.06966h-20.03379c-3.91659,0 -7.06966,-3.15307 -7.06966,-7.06966v-20.03379c0,-3.91659 3.15307,-7.06966 7.06966,-7.06966z" fill="#434343" fill-rule="evenodd" stroke="none" stroke-width="4.43922" stroke-linecap="round" stroke-linejoin="round"/><g fill-rule="nonzero" stroke-width="0.5" stroke-linejoin="miter"><g><g data-paper-data="{&quot;index&quot;:null}"><path d="M245.75465,185.91874c1.68132,1.9663 2.52212,5.37214 2.27365,6.23805c-0.53785,1.8744 -3.09267,3.12168 -4.56014,3.48512c-1.31736,0.32627 -4.18194,0.11652 -5.38939,-1.084c-0.75717,-0.75283 -1.31075,-4.07001 -0.56233,-6.7269c0.54323,-1.92845 2.07979,-3.43462 3.23344,-3.72033c1.28526,-0.31831 3.52243,0.07451 5.00476,1.80808z" data-paper-data="{&quot;index&quot;:null}" fill="#454545" stroke="#000000" stroke-linecap="butt"/><g><path d="M243.10012,193.63197c-0.17941,0.04443 -0.78705,-1.7834 -1.3572,-4.08259c-0.57014,-2.29918 -0.8869,-4.19907 -0.70749,-4.2435c0.17941,-0.04443 0.78705,1.78341 1.3572,4.08259c0.57014,2.29918 0.8869,4.19906 0.70749,4.24349z" fill="#af2525" stroke="none" stroke-linecap="butt"/><path d="M243.01797,193.30508l-1.91264,-7.66926" fill="none" stroke="#000000" stroke-linecap="round"/></g></g><g><g><g data-paper-data="{&quot;index&quot;:null}"><g data-paper-data="{&quot;index&quot;:null}"><path d="M242.87491,176.83378c-0.76944,-0.89375 -1.12946,-2.99957 -0.43221,-4.87932c0.96063,-2.5898 3.3701,-4.97013 4.43052,-5.14828c1.69104,-0.28409 4.14455,1.18764 5.02319,2.20822c0.97876,1.13688 2.31976,3.61594 1.65007,5.44865c-0.30937,0.84664 -3.0048,3.13442 -5.53351,3.76959c-2.22943,0.55999 -4.28083,-0.40314 -5.13806,-1.39886z" data-paper-data="{&quot;index&quot;:null}" fill="#838383" stroke="#000000" stroke-linecap="butt"/><g><path d="M247.32818,173.48339c-1.82167,1.54295 -3.39543,2.68108 -3.5151,2.54209c-0.11966,-0.13899 1.26009,-1.50248 3.08176,-3.04542c1.82167,-1.54295 3.39543,-2.68107 3.5151,-2.54208c0.11966,0.13899 -1.26009,1.50247 -3.08176,3.04541z" fill="#b05425" stroke="none" stroke-linecap="butt"/><path d="M250.15006,170.65672l-6.08526,5.1405" fill="none" stroke="#000000" stroke-linecap="round"/></g></g><g data-paper-data="{&quot;index&quot;:null}"><path d="M231.86149,181.95967c-2.56048,0.49156 -5.96904,-0.44481 -6.60658,-1.08182c-1.38006,-1.37891 -1.20973,-4.19257 -0.80181,-5.63646c0.3662,-1.29619 1.96997,-3.66618 3.62293,-4.12244c1.03654,-0.28611 4.22489,0.85488 6.188,2.79738c1.42488,1.40992 1.98655,3.47109 1.66586,4.6062c-0.35727,1.2646 -1.81097,3.00376 -4.0684,3.43714z" data-paper-data="{&quot;index&quot;:null}" fill="#8e8e8e" stroke="#000000" stroke-linecap="butt"/><g><path d="M226.40114,175.90459c0.04987,-0.17652 1.95667,0.19102 4.25895,0.82094c2.30228,0.62992 4.12822,1.28367 4.07834,1.4602c-0.04987,0.17652 -1.95667,-0.19101 -4.25895,-0.82093c-2.30228,-0.62992 -4.12821,-1.28368 -4.07834,-1.4602z" fill="#660092" stroke="none" stroke-linecap="butt"/><path d="M234.41397,178.08504c0,0 -2.3847,-0.64911 -3.62777,-0.98747c-1.31458,-0.35782 -4.05719,-1.10436 -4.05719,-1.10436" fill="none" stroke="#000000" stroke-linecap="round"/></g></g><g data-paper-data="{&quot;index&quot;:null}"><path d="M238.75102,175.95328c-1.16425,0.23881 -3.19935,-0.4591 -4.51956,-1.96587c-1.8189,-2.07593 -2.74675,-5.30841 -2.38728,-6.31392c0.57323,-1.60349 3.06859,-3.02617 4.39806,-3.29887c1.48096,-0.30378 4.32373,-0.27794 5.61584,1.18235c0.5969,0.6746 1.30366,4.11078 0.63224,6.60949c-0.59195,2.20297 -2.44222,3.52077 -3.73929,3.78682z" data-paper-data="{&quot;index&quot;:null}" fill="#676767" stroke="#000000" stroke-linecap="butt"/><g><path d="M237.96253,170.48215c0.47481,2.32076 0.71293,4.23222 0.53187,4.26936c-0.18106,0.03714 -0.71275,-1.8141 -1.18756,-4.13486c-0.47481,-2.32076 -0.71293,-4.23222 -0.53187,-4.26935c0.18106,-0.03714 0.71275,1.8141 1.18756,4.13486z" fill="#af2525" stroke="none" stroke-linecap="butt"/><path d="M236.84151,166.67772l1.574,7.7459" fill="none" stroke="#000000" stroke-linecap="round"/></g></g></g><g data-paper-data="{&quot;index&quot;:null}"><path d="M237.09784,183.00625c0.77794,0.88649 1.15797,2.98877 0.47859,4.87488c-0.936,2.59855 -3.32282,5.00119 -4.38155,5.18922c-1.68833,0.29986 -4.15583,-1.14882 -5.04417,-2.16111c-0.98956,-1.12764 -2.35413,-3.59396 -1.70186,-5.43277c0.30132,-0.84946 2.97499,-3.16222 5.49766,-3.82095c2.2241,-0.58077 4.28465,0.36312 5.15134,1.35074z" data-paper-data="{&quot;index&quot;:null}" fill="#6e6e6e" stroke="#000000" stroke-linecap="butt"/><g><path d="M232.67644,186.39795c1.807,-1.55983 3.36993,-2.71256 3.49092,-2.5747c0.12098,0.13787 -1.2458,1.51412 -3.0528,3.07395c-1.807,1.55983 -3.36993,2.71256 -3.49092,2.57469c-0.12098,-0.13787 1.2458,-1.51411 3.0528,-3.07394z" fill="#2c3daa" stroke="none" stroke-linecap="butt"/><path d="M235.91781,184.05384c0,0 -2.59817,2.23685 -3.6895,3.17641c-0.8704,0.74935 -2.34687,2.02049 -2.34687,2.02049" fill="none" stroke="#000000" stroke-linecap="round"/></g></g></g><g data-paper-data="{&quot;index&quot;:null}"><path d="M248.09563,177.92174c2.5558,-0.51543 5.97325,0.38902 6.61684,1.02002c1.39316,1.3659 1.24958,4.18091 0.85539,5.62849c-0.35387,1.2995 -1.93511,3.68427 -3.58373,4.15593c-1.03382,0.29577 -4.23299,-0.81535 -6.21456,-2.73934c-1.43828,-1.39649 -2.01955,-3.45225 -1.70965,-4.59025c0.34525,-1.26783 1.78241,-3.02041 4.03572,-3.47484z" data-paper-data="{&quot;index&quot;:null}" fill="#a2a2a2" stroke="#000000" stroke-linecap="butt"/><g><path d="M253.61353,183.92531c-0.04819,0.17697 -1.95848,-0.17272 -4.26674,-0.78108c-2.30826,-0.60836 -4.14041,-1.24501 -4.09222,-1.42199c0.04819,-0.17698 1.95849,0.17272 4.26675,0.78108c2.30826,0.60836 4.1404,1.245 4.09221,1.42198z" fill="#b09725" stroke="none" stroke-linecap="butt"/><path d="M253.28482,183.83976l-7.70482,-2.01987" fill="none" stroke="#000000" stroke-linecap="round"/></g></g></g></g><path d="M230.5253,182.13251c-1.11057,-4.78781 2.12394,-9.6282 7.22449,-10.81131c5.10055,-1.18311 10.13566,1.73907 11.24623,6.52688c1.11057,4.78781 -2.12394,9.6282 -7.22449,10.81131c-5.10055,1.18311 -10.13566,-1.73907 -11.24623,-6.52688z" fill="#fbf6f6" stroke="#000000" stroke-linecap="butt"/></g></g></g></svg>