<svg version="1.1" xmlns="http://www.w3.org/2000/svg" xmlns:xlink="http://www.w3.org/1999/xlink" width="157.26275" height="276.65371" viewBox="0,0,157.26275,276.65371"><g transform="translate(-150.41031,-46.00649)"><g data-paper-data="{&quot;isPaintingLayer&quot;:true}" fill-rule="nonzero" stroke-linejoin="miter" stroke-miterlimit="10" stroke-dasharray="" stroke-dashoffset="0" style="mix-blend-mode: normal"><g stroke="#000000" stroke-width="2"><path d="M211.59016,263.77046c-9.45061,4.5737 -28.10116,18.40291 -28.10116,18.40291l-2.85125,-5.89152c0,0 19.03073,-14.01321 28.53356,-18.61218c2.88485,-1.39614 11.57052,-0.33486 18.78834,-3.57427c6.26301,-2.81088 15.38652,-14.19454 20.38001,-17.56363c5.7492,-3.87895 6.92959,0.42947 6.92959,0.42947c0,0 -10.66894,14.17543 -23.31153,21.96759c-7.03317,4.33484 -17.37917,3.39538 -20.36756,4.84162z" fill="#e8aa00" stroke-linecap="butt"/><g stroke-linecap="butt"><path d="M203.17012,279.45921l-17.66102,41.79557l-33.65997,-18.29467l25.00209,-37.53222z" fill="#c50c40"/><path d="M151.88261,302.79832c0.80767,-1.48602 9.00928,1.41114 18.31879,6.47098c9.30951,5.05985 16.20161,10.36633 15.39394,11.85236c-0.80767,1.48602 -9.00928,-1.41113 -18.31879,-6.47098c-9.30951,-5.05985 -16.20161,-10.36633 -15.39394,-11.85236z" fill="#8f092f"/><path d="M151.96262,302.83977c0.51126,-0.94065 4.68053,-1.59131 10.45402,0.0232c2.42902,0.67925 7.16952,2.99644 8.77445,3.86873c1.63029,0.88609 6.19814,3.36156 8.21226,4.95202c4.68147,3.69675 6.76392,7.254 6.25606,8.18839c-0.29522,0.54318 -2.68741,-2.04517 -7.36838,-5.32048c-2.15722,-1.50943 -14.01767,-7.8894 -16.37476,-8.69711c-5.54998,-1.90183 -10.14941,-2.65459 -9.95365,-3.01477z" fill="#b64d6b"/></g><path d="M190.01763,283.57641l-8.56342,-4.16226" fill="none" stroke-linecap="round"/><path d="M172.75523,299.94603l5.81353,3.48778" fill="none" stroke-linecap="round"/></g><g stroke-linecap="butt"><path d="M179.05899,313.23151v-267.22501h123.18203v267.22501z" fill-opacity="0.01" fill="#000000" stroke="none" stroke-width="0"/><g stroke="#000000"><path d="M204.0253,306.41901l18.64285,-132.3421l37.78325,-0.15789l16.82389,131.25c0,0 -5.02256,-2.3858 -10.18011,-1.99017c-5.53178,0.42434 -11.30909,3.62731 -13.98201,3.47494c-2.40795,-0.13727 -4.93774,-1.79572 -7.32122,-2.51924c-3.35354,-1.018 -6.22152,-1.16481 -6.34293,-1.17002c-3.74527,-0.16056 -7.96682,3.37713 -11.31307,3.68497c-6.6019,0.60733 -12.74052,-3.61992 -15.75761,-3.59837c-4.53713,0.03241 -8.35303,3.36788 -8.35303,3.36788z" fill="#edf3f5" stroke-width="2"/><path d="M220.67554,202.73164l3.12142,-26.32765l35.83075,-0.14203l2.76735,26.1059c0,0 -7.51543,4.19603 -21.55904,4.50964c-12.48458,0.27879 -20.16049,-4.14586 -20.16049,-4.14586z" fill="#cbd0d1" stroke-width="0"/></g></g><g><g data-paper-data="{&quot;index&quot;:null}"><g stroke="#000000" stroke-width="2"><path d="M257.99556,95.22232c2.45903,-4.64967 47.10481,-41.94861 47.76206,-41.60102c0.99669,0.52711 1.06198,66.43718 -5.70122,79.22544c-7.5274,14.23324 -49.58825,-23.39117 -42.06085,-37.62442z" fill="#e90e4b" stroke-linecap="butt"/><path d="M272.79969,123.20645l30.45466,-67.36181l-21.65521,75.56187" fill="#7d0829" stroke-linecap="round"/></g><path d="M305.17639,67.23536c-0.11725,0.05739 -1.5863,-12.28595 -0.6115,-12.19479c0.24899,0.02329 0.61651,0.41932 0.76178,1.50716c0.42347,3.17102 -0.03229,10.62989 -0.15027,10.68763z" fill="#770727" stroke="none" stroke-width="0" stroke-linecap="butt"/><path d="M300.76493,58.63727c0.74124,0.63962 -9.17587,8.13408 -9.21575,8.00979c-0.04012,-0.12507 5.02164,-5.62245 7.60126,-7.51458c0.88498,-0.64911 1.42518,-0.65859 1.61451,-0.49521z" data-paper-data="{&quot;index&quot;:null}" fill="#770727" stroke="none" stroke-width="0" stroke-linecap="butt"/><path d="M293.99487,78.57443c1.15943,-2.63155 4.23891,-9.64121 4.47912,-9.53537c0.02037,0.00897 -0.05152,0.27856 -0.19436,0.73995c-0.95797,3.09437 -3.86494,15.85293 -4.77906,15.45018c-0.56651,-0.24959 -1.66029,-0.98411 -1.5352,-2.03036c0.14153,-1.18355 1.26128,-2.8807 2.02953,-4.6244z" fill="#620620" stroke="none" stroke-width="0" stroke-linecap="butt"/></g><g><g stroke="#000000" stroke-width="2"><path d="M224.34851,96.88898c7.5274,14.23325 -34.53345,51.85766 -42.06085,37.62442c-6.7632,-12.78826 -6.69791,-78.69833 -5.70122,-79.22544c0.65725,-0.34759 45.30303,36.95135 47.76206,41.60102z" fill="#e90e4b" stroke-linecap="butt"/><path d="M200.74492,133.07317l-21.65521,-75.56187l30.45466,67.36181" fill="#7d0829" stroke-linecap="round"/></g><path d="M177.16766,68.90202c-0.11798,-0.05774 -0.57374,-7.51661 -0.15027,-10.68763c0.14527,-1.08784 0.51279,-1.48387 0.76178,-1.50716c0.9748,-0.09116 -0.49425,12.25218 -0.6115,12.19479z" fill="#770727" stroke="none" stroke-width="0" stroke-linecap="butt"/><path d="M181.57911,60.30393c0.18933,-0.16338 0.72953,-0.1539 1.61451,0.49521c2.57962,1.89213 7.64138,7.38951 7.60126,7.51458c-0.03988,0.12429 -9.95699,-7.37017 -9.21575,-8.00979z" data-paper-data="{&quot;index&quot;:null}" fill="#770727" stroke="none" stroke-width="0" stroke-linecap="butt"/><path d="M188.34915,80.24109c0.76825,1.7437 1.888,3.44085 2.02953,4.6244c0.12509,1.04625 -0.96869,1.78077 -1.5352,2.03036c-0.91412,0.40275 -3.82109,-12.35581 -4.77906,-15.45018c-0.14284,-0.46139 -0.21473,-0.73098 -0.19436,-0.73995c0.24021,-0.10584 3.31969,6.90382 4.47912,9.53537z" fill="#620620" stroke="none" stroke-width="0" stroke-linecap="butt"/></g></g><path d="M174.39304,139.01612c0.92481,-0.98563 26.43521,-54.50329 26.86465,-54.72962c0.72159,-0.3803 72.28359,-2.2452 76.23108,-0.42149c0.21874,0.10106 28.56569,52.39963 29.1843,52.98632c0.57062,0.54119 -23.06407,56.31439 -23.08932,56.31684c-3.5528,0.34488 -83.32747,0.89041 -84.83858,-1.01716c-0.37687,-0.47574 -24.64877,-52.81875 -24.35213,-53.13489z" data-paper-data="{&quot;index&quot;:null}" fill="#f9d20e" stroke="#000000" stroke-width="2" stroke-linecap="butt"/><path d="M189.91543,136.19466c0,-12.968 10.51265,-23.48065 23.48065,-23.48065c12.968,0 23.48065,10.51265 23.48065,23.48065c0,12.968 -10.51265,23.48065 -23.48065,23.48065c-12.968,0 -23.48065,-10.51265 -23.48065,-23.48065z" fill="#ffffff" stroke="#000000" stroke-width="2" stroke-linecap="butt"/><path d="M196.9808,130.73567c0,-9.12808 7.39976,-16.52784 16.52783,-16.52784c9.12808,0 16.52784,7.39977 16.52784,16.52784c0,9.12808 -7.39977,16.52784 -16.52784,16.52784c-9.12808,0 -16.52783,-7.39977 -16.52783,-16.52784z" fill="#000000" stroke="none" stroke-width="0" stroke-linecap="butt"/><path d="M267.65449,159.67531c-12.968,0 -23.48065,-10.51265 -23.48065,-23.48065c0,-12.968 10.51265,-23.48065 23.48065,-23.48065c12.968,0 23.48065,10.51265 23.48065,23.48065c0,12.968 -10.51265,23.48065 -23.48065,23.48065z" data-paper-data="{&quot;index&quot;:null}" fill="#ffffff" stroke="#000000" stroke-width="2" stroke-linecap="butt"/><path d="M267.67528,148.4135c-9.12807,0 -16.52783,-7.39977 -16.52783,-16.52784c0,-9.12808 7.39977,-16.52784 16.52783,-16.52784c9.12807,0 16.52783,7.39977 16.52783,16.52784c0,9.12808 -7.39977,16.52784 -16.52783,16.52784z" data-paper-data="{&quot;index&quot;:null}" fill="#000000" stroke="none" stroke-width="0" stroke-linecap="butt"/><path d="M202.55314,104.3862c0,0 6.70895,-5.16922 11.79721,-6.36355c5.08827,-1.19433 12.33413,0.69937 12.33413,0.69937c0,0 -8.03812,-0.06028 -11.96762,0.86207c-4.10648,0.96389 -12.16372,4.80211 -12.16372,4.80211z" fill="#000000" stroke="none" stroke-width="0" stroke-linecap="butt"/><path d="M266.48757,99.58412c-3.9295,-0.92235 -11.96762,-0.86207 -11.96762,-0.86207c0,0 7.24586,-1.8937 12.33413,-0.69937c5.08826,1.19433 11.79721,6.36355 11.79721,6.36355c0,0 -8.05724,-3.83822 -12.16372,-4.80211z" data-paper-data="{&quot;index&quot;:null}" fill="#000000" stroke="none" stroke-width="0" stroke-linecap="butt"/><path d="M189.83207,136.28707c0,-12.96801 10.51265,-23.48065 23.48066,-23.48065c12.96801,0 23.48065,10.51264 23.48065,23.48065c0,0 -6.95852,-14.64634 -23.43307,-14.78879c-16.22494,-0.14029 -23.52823,15.4054 -23.52823,14.78879z" fill="#f9d20e" stroke="#000000" stroke-width="2" stroke-linecap="butt"/><path d="M244.17386,136.18705c0,-12.96801 10.51264,-23.48065 23.48065,-23.48065c12.96801,0 23.48066,10.51264 23.48066,23.48065c0,0.60606 -7.87275,-14.38438 -22.92496,-14.781c-15.05221,-0.39662 -24.03635,14.781 -24.03635,14.781z" data-paper-data="{&quot;index&quot;:null}" fill="#f9d20e" stroke="#000000" stroke-width="2" stroke-linecap="butt"/><path d="M253.08006,177.71906c0,0 -1.90061,1.05926 -5.5597,1.75306c-2.39248,0.45363 -6.88987,0.64694 -7.40377,0.64694c-0.46383,0 -4.59418,-0.12298 -6.55922,-0.51534c-3.54899,-0.70862 -5.58691,-1.88466 -5.58691,-1.88466" data-paper-data="{&quot;index&quot;:null}" fill="none" stroke="#000000" stroke-width="2" stroke-linecap="round"/><path d="M192.91197,113.7224l3.33333,5.66666" fill="none" stroke="#000000" stroke-width="2" stroke-linecap="round"/><path d="M191.47299,125.42058l-6.12204,-2.3964" fill="none" stroke="#000000" stroke-width="2" stroke-linecap="round"/><g data-paper-data="{&quot;index&quot;:null}" fill="none" stroke="#000000" stroke-width="2" stroke-linecap="round"><path d="M290.35093,114.7224l-3.33333,5.66666"/><path d="M291.78989,126.42058l6.12205,-2.3964"/></g><path d="M286.89958,182.57582c0,0.03765 -1.87045,5.8573 -1.90648,5.91707c-1.05433,1.74886 -1.44313,3.65836 -2.18858,3.79553c-5.49004,1.01022 -26.2322,0.47489 -31.30494,0.47489c-8.49423,0 -39.81955,-0.06342 -51.69545,-0.489c-0.9262,-0.03319 -6.47122,-14.1067 -6.47122,-14.37867c0,-0.31096 1.41114,8.24619 14.64939,11.27811c9.05355,2.07351 45.50254,1.49352 52.83209,1.49092c8.26984,-0.00293 15.79807,-0.87897 20.14928,-2.82346c4.742,-2.11913 5.93591,-5.31955 5.93591,-5.26539z" fill="#8e7709" stroke="none" stroke-width="0" stroke-linecap="butt"/><path d="M210.92651,112.49781c-0.16888,-0.72993 1.54976,-10.3985 2.35158,-10.3985c0.76516,0 2.65408,9.92852 2.50748,10.71544c-0.08189,0.43955 -1.14484,-0.19624 -2.25618,-0.2753c-1.22782,-0.08734 -2.51472,0.33941 -2.60288,-0.04163z" fill="#c30c40" stroke="#000000" stroke-width="2" stroke-linecap="butt"/><path d="M213.02938,160.02812c1.11134,-0.07906 2.1743,-0.71485 2.25618,-0.2753c0.1466,0.78691 -1.74231,10.71544 -2.50748,10.71544c-0.80183,0 -2.52047,-9.66857 -2.35158,-10.3985c0.08816,-0.38104 1.37505,0.04572 2.60288,-0.04163z" data-paper-data="{&quot;index&quot;:null}" fill="#c30c40" stroke="#000000" stroke-width="2" stroke-linecap="butt"/><g data-paper-data="{&quot;index&quot;:null}" fill="#c30c40" stroke="#000000" stroke-width="2" stroke-linecap="butt"><path d="M265.42651,112.49782c-0.16888,-0.72993 1.54976,-10.3985 2.35158,-10.3985c0.76517,0 2.65409,9.92852 2.50748,10.71544c-0.08189,0.43955 -1.14484,-0.19624 -2.25618,-0.2753c-1.22783,-0.08734 -2.51472,0.33941 -2.60288,-0.04163z" data-paper-data="{&quot;index&quot;:null}"/><path d="M267.52935,160.02812c1.11134,-0.07906 2.17429,-0.71485 2.25618,-0.2753c0.14661,0.78691 -1.74231,10.71544 -2.50748,10.71544c-0.80183,0 -2.52047,-9.66857 -2.35158,-10.3985c0.08816,-0.38104 1.37505,0.04572 2.60288,-0.04163z" data-paper-data="{&quot;index&quot;:null}"/></g></g></g></svg>