<svg version="1.1" xmlns="http://www.w3.org/2000/svg" xmlns:xlink="http://www.w3.org/1999/xlink" width="206.19841" height="279.13196" viewBox="0,0,206.19841,279.13196"><g transform="translate(-137.01609,-38.18225)"><g data-paper-data="{&quot;isPaintingLayer&quot;:true}" fill-rule="nonzero" stroke-linejoin="miter" stroke-miterlimit="10" stroke-dasharray="" stroke-dashoffset="0" style="mix-blend-mode: normal"><path d="M206.85429,316.3142l15.52237,-131.8421l38.7302,-0.15789l13.91409,132z" fill="#ffffff" stroke="#000000" stroke-width="2" stroke-linecap="butt"/><path d="M265.67181,245.88876c0.14989,0.77999 0.92986,-0.37092 1.25789,1.5842c0.25335,1.51001 0.70203,5.68268 0.97493,7.22792c0.4048,2.29211 0.51098,4.73416 -0.16488,5.28928c-4.81148,3.95186 -18.64524,2.79363 -26.32299,2.79363c-5.79883,0 -20.8049,-0.00514 -25.5375,-2.50081c-1.58104,-0.83374 -1.09002,-3.28941 -0.7029,-5.89144c0.38796,-2.60764 0.67374,-5.36155 0.67374,-6.10775c0,-6.95879 9.98405,-12.6 22.3,-12.6c12.31595,0 27.22059,8.63799 27.52172,10.20497z" fill="#8c8c8c" stroke="none" stroke-width="0" stroke-linecap="butt"/><g><g data-paper-data="{&quot;index&quot;:null}"><path d="M268.94185,195.95323c8.08701,15.5525 8.42222,39.31979 5.45651,44.65469c-6.41979,11.54836 -25.19226,15.86949 -35.43458,16.02162c-9.19463,0.13657 -27.78097,-5.63357 -33.9126,-15.40617c-3.84503,-6.12822 -2.4202,-28.87053 6.58743,-45.26131c6.53799,-11.89689 18.98597,-19.48568 27.03793,-19.60528c8.97058,-0.13324 23.13544,5.8847 30.26531,19.59646z" data-paper-data="{&quot;index&quot;:null}" fill="#2cf245" stroke="#000000" stroke-width="2" stroke-linecap="butt"/><g><path d="M239.61174,242.79966c-1.2522,0.0186 -2.46442,-12.97619 -2.70752,-29.02469c-0.2431,-16.04848 0.57493,-29.07344 1.82715,-29.09204c1.25221,-0.0186 2.46442,12.97621 2.70752,29.0247c0.2431,16.04849 -0.57494,29.07343 -1.82715,29.09203z" fill="#198b28" stroke="none" stroke-width="0" stroke-linecap="butt"/><path d="M239.57001,240.51626l-0.88247,-53.54864" fill="none" stroke="#000000" stroke-width="2" stroke-linecap="round"/></g></g><g><g><g data-paper-data="{&quot;index&quot;:null}"><g data-paper-data="{&quot;index&quot;:null}"><path d="M263.84366,131.57978c-3.71031,-7.07718 -2.86249,-21.52767 4.61759,-32.86731c10.30558,-15.62302 29.8534,-27.64526 37.12537,-27.19757c11.59653,0.71392 25.53751,14.18426 29.77435,22.26579c4.7196,9.00238 9.77533,27.4183 2.54915,38.48967c-3.3382,5.11455 -24.63174,16.08805 -42.29481,16.40892c-15.57252,0.28289 -27.63806,-9.2149 -31.77166,-17.09949z" data-paper-data="{&quot;index&quot;:null}" fill="#ff7a36" stroke="#000000" stroke-width="2" stroke-linecap="butt"/><g><path d="M298.36661,116.28384c-14.38607,7.39507 -26.51607,12.49774 -27.09308,11.39712c-0.57702,-1.10062 10.61745,-7.98773 25.00352,-15.3828c14.38608,-7.39508 26.51606,-12.49772 27.09307,-11.39711c0.57701,1.10062 -10.61744,7.98772 -25.00351,15.3828z" fill="#b05425" stroke="none" stroke-width="0" stroke-linecap="butt"/><path d="M273.28436,126.5598l48.0355,-24.6128" fill="none" stroke="#000000" stroke-width="2" stroke-linecap="round"/></g></g><g data-paper-data="{&quot;index&quot;:null}"><path d="M183.30262,148.55106c-17.65285,-0.67566 -38.71717,-12.07469 -41.9499,-17.25525c-6.99784,-11.21426 -1.56584,-29.52482 3.33725,-38.43053c4.40156,-7.99475 18.61567,-21.18224 30.22444,-21.66304c7.27964,-0.30151 26.57713,12.11098 36.56048,27.93782c7.2462,11.48758 7.79776,25.95212 3.94321,32.95331c-4.2943,7.79993 -16.55196,17.05338 -32.11547,16.4577z" data-paper-data="{&quot;index&quot;:null}" fill="#9b00e0" stroke="#000000" stroke-width="2" stroke-linecap="butt"/><g><path d="M156.53247,100.22505c0.59944,-1.08879 12.62238,4.25649 26.85397,11.93906c14.23158,7.68256 25.28264,14.79315 24.68319,15.88195c-0.59944,1.0888 -12.6224,-4.2565 -26.85399,-11.93907c-14.23158,-7.68256 -25.28262,-14.79315 -24.68318,-15.88195z" fill="#660092" stroke="none" stroke-width="0" stroke-linecap="butt"/><path d="M206.08217,126.88474c0,0 -14.74622,-7.93541 -22.43295,-12.07189c-8.12895,-4.37446 -25.08836,-13.50087 -25.08836,-13.50087" fill="none" stroke="#000000" stroke-width="2" stroke-linecap="round"/></g></g><g data-paper-data="{&quot;index&quot;:null}"><path d="M237.97231,119.45437c-8.05016,-0.20623 -20.41413,-7.92852 -26.82119,-19.89505c-8.82723,-16.48673 -10.00242,-39.24303 -6.09036,-45.32952c6.23851,-9.70604 24.88708,-15.27587 34.07966,-15.04037c10.24004,0.26233 28.96398,4.7852 35.25667,16.40194c2.90698,5.36649 2.31098,29.12877 -5.94623,44.59334c-7.27991,13.63423 -21.50998,19.49942 -30.47856,19.26966z" data-paper-data="{&quot;index&quot;:null}" fill="#f32b2b" stroke="#000000" stroke-width="2" stroke-linecap="butt"/><g><path d="M241.14435,82.13541c-0.41919,16.04492 -1.77394,29.02593 -3.02586,28.99386c-1.25194,-0.03208 -1.92699,-13.06506 -1.50779,-29.10998c0.4192,-16.04493 1.77395,-29.02592 3.02586,-28.99384c1.25193,0.03207 1.92699,13.06505 1.50779,29.10997z" fill="#af2525" stroke="none" stroke-width="0" stroke-linecap="butt"/><path d="M239.56978,55.30829l-1.47005,53.53598" fill="none" stroke="#000000" stroke-width="2" stroke-linecap="round"/></g></g></g><g data-paper-data="{&quot;index&quot;:null}"><path d="M216.26237,163.47582c3.77749,7.04225 3.06723,21.50001 -4.30461,32.90894c-10.15644,15.71849 -29.58898,27.9226 -36.86489,27.54279c-11.6028,-0.60568 -25.67136,-13.94533 -29.98493,-21.98697c-4.80507,-8.95794 -10.03582,-27.32587 -2.91533,-38.46417c3.28939,-5.14547 24.47754,-16.31718 42.13677,-16.80286c15.56914,-0.42819 27.72453,8.95661 31.93298,16.80228z" data-paper-data="{&quot;index&quot;:null}" fill="#3c53e8" stroke="#000000" stroke-width="2" stroke-linecap="butt"/><g><path d="M181.88651,179.09326c14.31505,-7.52898 26.39596,-12.74461 26.98342,-11.64942c0.58747,1.09519 -10.54096,8.08645 -24.85601,15.61543c-14.31506,7.52899 -26.39595,12.74459 -26.98341,11.64941c-0.58746,-1.09518 10.54095,-8.08644 24.856,-15.61542z" fill="#2c3daa" stroke="none" stroke-width="0" stroke-linecap="butt"/><path d="M206.86984,168.58371c0,0 -20.57366,10.78628 -29.21536,15.31691c-6.89224,3.61343 -18.58378,9.74302 -18.58378,9.74302" fill="none" stroke="#000000" stroke-width="2" stroke-linecap="round"/></g></g></g><g data-paper-data="{&quot;index&quot;:null}"><path d="M296.63685,146.7538c17.6585,0.51091 38.83035,11.71288 42.11224,16.86305c7.10426,11.14846 1.84674,29.50891 -2.97138,38.45997c-4.32528,8.03546 -18.41326,21.35501 -30.01693,21.94411c-7.27645,0.36942 -26.6912,-11.86244 -36.82472,-27.59543c-7.3552,-11.41945 -8.04439,-25.87821 -4.25664,-32.91505c4.21988,-7.83964 16.38893,-17.20708 31.95743,-16.75664z" data-paper-data="{&quot;index&quot;:null}" fill="#ffdb36" stroke="#000000" stroke-width="2" stroke-linecap="butt"/><g><path d="M323.86573,194.82787c-0.58905,1.09434 -12.66233,-4.13852 -26.96641,-11.68795c-14.30406,-7.54943 -25.42229,-14.55659 -24.83323,-15.65094c0.58905,-1.09435 12.66235,4.13854 26.96641,11.68796c14.30406,7.54943 25.42228,14.55658 24.83322,15.65092z" fill="#b09725" stroke="none" stroke-width="0" stroke-linecap="butt"/><path d="M274.0645,168.63172l47.76257,25.1282" fill="none" stroke="#000000" stroke-width="2" stroke-linecap="round"/></g></g></g></g><path d="M174.21862,147.6461c0,-33.30185 28.7599,-60.29833 64.23702,-60.29833c35.47712,0 64.23702,26.99649 64.23702,60.29833c0,33.30185 -28.7599,60.29833 -64.23702,60.29833c-35.47712,0 -64.23702,-26.99649 -64.23702,-60.29833z" fill="#fbf6f6" stroke="#000000" stroke-width="2" stroke-linecap="butt"/><path d="M174.94167,147.69991c0,-0.72799 5.20666,55.91939 63.36046,56.93429c55.56352,0.9697 63.51358,-57.95314 63.51358,-56.93429c0,32.80479 -28.40173,59.39833 -63.43702,59.39833c-35.03529,0 -63.43702,-26.59354 -63.43702,-59.39833z" fill="#d3cece" stroke="#000000" stroke-width="0" stroke-linecap="butt"/><path d="M187.76883,148.07554c0,-12.968 10.51265,-23.48065 23.48065,-23.48065c12.968,0 23.48065,10.51265 23.48065,23.48065c0,12.968 -10.51265,23.48065 -23.48065,23.48065c-12.968,0 -23.48065,-10.51265 -23.48065,-23.48065z" fill="#ffffff" stroke="#000000" stroke-width="2" stroke-linecap="butt"/><path d="M194.83421,147.79993c0,-9.12808 7.39976,-16.52784 16.52783,-16.52784c9.12808,0 16.52784,7.39977 16.52784,16.52784c0,9.12808 -7.39977,16.52784 -16.52784,16.52784c-9.12808,0 -16.52783,-7.39977 -16.52783,-16.52784z" fill="#000000" stroke="none" stroke-width="0" stroke-linecap="butt"/><path d="M265.50791,171.55621c-12.968,0 -23.48065,-10.51265 -23.48065,-23.48065c0,-12.968 10.51265,-23.48065 23.48065,-23.48065c12.968,0 23.48065,10.51265 23.48065,23.48065c0,12.968 -10.51265,23.48065 -23.48065,23.48065z" data-paper-data="{&quot;index&quot;:null}" fill="#ffffff" stroke="#000000" stroke-width="2" stroke-linecap="butt"/><path d="M265.39533,164.32777c-9.12807,0 -16.52783,-7.39977 -16.52783,-16.52784c0,-9.12808 7.39977,-16.52784 16.52783,-16.52784c9.12807,0 16.52783,7.39977 16.52783,16.52784c0,9.12808 -7.39977,16.52784 -16.52783,16.52784z" data-paper-data="{&quot;index&quot;:null}" fill="#000000" stroke="none" stroke-width="0" stroke-linecap="butt"/><path d="M200.40649,119.2671c0,0 6.70895,-5.16922 11.79721,-6.36355c5.08827,-1.19433 12.33413,0.69937 12.33413,0.69937c0,0 -8.03812,-0.06028 -11.96762,0.86207c-4.10648,0.96389 -12.16372,4.80211 -12.16372,4.80211z" fill="#000000" stroke="none" stroke-width="0" stroke-linecap="butt"/><path d="M264.34098,114.465c-3.9295,-0.92235 -11.96762,-0.86207 -11.96762,-0.86207c0,0 7.24586,-1.8937 12.33413,-0.69937c5.08826,1.19433 11.79721,6.36355 11.79721,6.36355c0,0 -8.05724,-3.83822 -12.16372,-4.80211z" data-paper-data="{&quot;index&quot;:null}" fill="#000000" stroke="none" stroke-width="0" stroke-linecap="butt"/><path d="M187.76881,147.99224c0,-12.96801 10.51265,-23.48065 23.48066,-23.48065c12.96801,0 23.48065,10.51264 23.48065,23.48065c0,0 -7.9534,-10.97633 -24.17315,-10.86577c-15.92464,0.10855 -22.78816,11.47381 -22.78816,10.86577z" fill="#fbf6f6" stroke="#000000" stroke-width="2" stroke-linecap="butt"/><path d="M266.19192,137.37647c-16.21975,-0.11056 -24.17315,10.86577 -24.17315,10.86577c0,-12.96801 10.51264,-23.48065 23.48065,-23.48065c12.96801,0 23.48066,10.51264 23.48066,23.48065c0,0.60804 -6.86352,-10.75722 -22.78816,-10.86577z" data-paper-data="{&quot;index&quot;:null}" fill="#fbf6f6" stroke="#000000" stroke-width="2" stroke-linecap="butt"/><path d="M238.18023,190.98984c-4.72609,0 -16.57314,-4.11538 -16.57314,-4.11538c0,0 11.07277,0.52311 16.74764,0.52311c5.17458,0 16.54528,-0.63611 16.54528,-0.63611c0,0 -11.69057,4.22839 -16.71978,4.22839z" fill="#000000" stroke="#000000" stroke-width="2" stroke-linecap="round"/></g></g></svg>