<svg version="1.1" xmlns="http://www.w3.org/2000/svg" xmlns:xlink="http://www.w3.org/1999/xlink" width="34.17311" height="34.17311" viewBox="0,0,34.17311,34.17311"><g transform="translate(-222.91347,-162.91348)"><g data-paper-data="{&quot;isPaintingLayer&quot;:true}" stroke-miterlimit="10" stroke-dasharray="" stroke-dashoffset="0" style="mix-blend-mode: normal"><path d="M229.98314,162.91349h20.03379c3.9166,0 7.06966,3.15307 7.06966,7.06966v20.03379c0,3.91659 -3.15306,7.06966 -7.06966,7.06966h-20.03379c-3.91659,0 -7.06966,-3.15307 -7.06966,-7.06966v-20.03379c0,-3.91659 3.15307,-7.06966 7.06966,-7.06966z" fill="#434343" fill-rule="evenodd" stroke="none" stroke-width="4.43922" stroke-linecap="round" stroke-linejoin="round"/><g fill-rule="nonzero" stroke-width="0.5" stroke-linejoin="miter"><path d="M228.22159,188.79045c-3.85047,-6.30527 -1.69851,-14.63701 4.80654,-18.60948c6.50504,-3.97246 14.89984,-2.08135 18.75031,4.22392c3.85047,6.30527 1.69851,14.63702 -4.80654,18.60949c-6.50504,3.97246 -14.89984,2.08134 -18.75031,-4.22393z" fill="#d4d4d4" stroke="#000000" stroke-linecap="butt"/><g fill="#f5f5f5" stroke="#000000" stroke-linecap="butt"><path d="M229.17965,188.29818c-3.56405,-5.83626 -1.57216,-13.54827 4.44902,-17.22524c6.02117,-3.67698 13.79154,-1.92653 17.35559,3.90973c3.56405,5.83626 1.57217,13.54827 -4.44901,17.22525c-6.02117,3.67698 -13.79155,1.92653 -17.3556,-3.90973z"/></g><path d="M240.93088,166.36542c1.07586,1.76177 -0.07525,4.42553 -2.57109,5.94968c-1.95511,1.19393 -6.08474,1.78814 -7.54433,0.99545c-0.4037,-0.21923 1.00642,-0.85846 0.77333,-1.24016c-1.07586,-1.76177 0.37909,-4.61109 2.87493,-6.13523c2.49585,-1.52415 5.39129,-1.33151 6.46716,0.43026z" fill="#d4d4d4" stroke="#000000" stroke-linecap="butt"/><path d="M229.73335,174.0788l1.42445,-2.23017l3.29113,-2.00981l0.3324,0.54431z" fill="#d4d4d4" stroke="none" stroke-linecap="butt"/><path d="M236.86019,170.04958c0,0 -2.67224,-0.71411 -2.74972,-1.4872c-0.06681,-0.66663 2.39991,-1.41739 3.04376,-1.3167c1.32667,0.20747 2.02761,2.5156 1.18825,3.19323c-1.58427,1.279 -6.17015,1.47033 -6.17015,1.47033" fill="none" stroke="#000000" stroke-linecap="round"/></g></g></g></svg>