<svg version="1.1" xmlns="http://www.w3.org/2000/svg" xmlns:xlink="http://www.w3.org/1999/xlink" width="34.17311" height="34.17311" viewBox="0,0,34.17311,34.17311"><g transform="translate(-222.91346,-162.91346)"><g data-paper-data="{&quot;isPaintingLayer&quot;:true}" stroke-miterlimit="10" stroke-dasharray="" stroke-dashoffset="0" style="mix-blend-mode: normal"><path d="M229.98313,162.91347h20.03379c3.9166,0 7.06966,3.15307 7.06966,7.06966v20.03379c0,3.91659 -3.15306,7.06966 -7.06966,7.06966h-20.03379c-3.91659,0 -7.06966,-3.15307 -7.06966,-7.06966v-20.03379c0,-3.91659 3.15307,-7.06966 7.06966,-7.06966z" fill="#ff6f00" fill-rule="evenodd" stroke="none" stroke-width="4.43922" stroke-linecap="round" stroke-linejoin="round"/><g fill-rule="nonzero" stroke-width="0.5" stroke-linejoin="miter"><g><g stroke-linecap="butt"><path d="M232.20244,175.39157c1.14236,-2.35909 -0.47963,-8.54023 -0.28577,-8.43057c0.59979,0.33926 3.7926,1.60687 5.6948,3.08586c1.06043,0.8245 2.05208,3.55643 2.2673,3.55643c0.83977,0 0.74095,-2.10198 2.50134,-3.48397c1.85294,-1.45464 4.76736,-3.44127 4.82974,-3.38426c0.25515,0.23321 -0.81935,3.37156 0.00191,6.42727c1.64501,6.12073 5.51264,15.41985 6.31321,18.48954c-0.42429,0.01856 -0.84883,0.03056 -1.27384,0.04409c-0.70798,0.02253 -1.41594,0.04543 -2.12401,0.06535c-0.70813,0.01992 -1.41626,0.03985 -2.12439,0.05977c-0.70814,0.01992 -1.41626,0.04012 -2.12439,0.06031c-0.70785,0.02019 -1.41874,0.02392 -2.12568,0.06341c-0.70723,0.03954 -1.41445,0.07909 -2.12168,0.11863c-0.1951,0.01091 -0.3901,0.02138 -0.58506,0.03124c0.00002,-0.0075 0.00003,-0.01503 0.00004,-0.02259c0.00001,-0.00033 0.00001,-0.00051 0.00001,-0.00051l-0.00001,0c0.00001,-0.00643 0.00001,-0.01288 0.00001,-0.01936l-0.0506,0.00968l-0.0506,-0.00968c0,0.01598 -0.00002,0.03182 -0.00004,0.04753c-0.47807,0.02364 -0.95606,0.04342 -1.43511,0.05673c-0.70814,0.01968 -1.41627,0.03937 -2.12441,0.05905c-0.70754,0.01967 -1.41584,0.01122 -2.12366,0.01122c-0.70843,0 -1.41685,0.00004 -2.12528,-0.00031c-0.70843,-0.00035 -1.41687,-0.00071 -2.1253,-0.00106c-0.70659,-0.0003 -1.41599,-0.04584 -2.12215,-0.07042c-0.7085,-0.02466 -1.41125,-0.07704 -2.11763,-0.13432c-0.1327,-0.01076 -0.26434,-0.02254 -0.39525,-0.03544c0.31601,-2.9057 3.10032,-10.96371 5.82652,-16.5936z" fill="#f74848" stroke="#000000"/><path d="M230.54938,178.98492c0.32637,0.02926 0.65274,0.05853 0.97912,0.0878c1.4193,0.12727 2.82401,0.1861 4.24897,0.21886c1.41646,0.03257 2.83292,0.06514 4.24938,0.09771c1.41803,0.03261 2.83409,0.04199 4.25251,0.0421c1.41687,0.00011 2.83374,0.00023 4.25061,0.00034c0.20501,0.00002 0.40825,-0.00209 0.61018,-0.00627c1.00502,2.87758 2.10737,5.804 2.96719,8.17484c-1.05936,0.03673 -2.12131,0.04732 -3.17964,0.07695c-1.41602,0.03964 -2.82975,0.07925 -4.24642,0.07904c-1.41687,-0.00021 -2.83374,-0.00043 -4.25061,-0.00064c-1.41676,-0.00021 -2.82976,-0.04537 -4.24567,-0.09057c-1.41581,-0.04519 -2.83171,-0.08714 -4.24707,-0.14371c-1.41416,-0.05652 -2.83166,-0.09082 -4.24407,-0.17856c-0.07239,-0.0045 -0.14453,-0.00917 -0.21643,-0.01393c0.78351,-2.51291 1.88342,-5.52204 3.07196,-8.34395z" fill="#e86500" stroke="none"/><path d="M232.20244,175.46143c1.14236,-2.3957 -0.47963,-8.67279 -0.28577,-8.56144c0.59979,0.34452 3.7926,1.63181 5.6948,3.13376c1.06043,0.8373 2.05208,3.61163 2.2673,3.61163c0.83977,0 0.74095,-2.1346 2.50134,-3.53805c1.85294,-1.47721 4.76736,-3.49469 4.82974,-3.43679c0.25515,0.23683 -0.81935,3.4239 0.00191,6.52703c0.48783,1.84329 1.17113,3.97044 1.91194,6.13229c-0.17982,0.00338 -0.36075,0.00508 -0.54311,0.00507c-1.41687,-0.00012 -2.83374,-0.00023 -4.25061,-0.00035c-1.4168,-0.00012 -2.83125,-0.00962 -4.24766,-0.0427c-1.41646,-0.03308 -2.83292,-0.06615 -4.24938,-0.09923c-1.42033,-0.03317 -2.82027,-0.09264 -4.23494,-0.22146c-0.30628,-0.02789 -0.61257,-0.05578 -0.91885,-0.08367c0.4987,-1.19491 1.01202,-2.35387 1.5233,-3.4261z" fill="#ff8800" stroke="none"/><path d="M226.43023,191.99045c0.24083,-2.78381 3.07024,-11.00876 5.83968,-16.72795c1.14236,-2.35909 -0.47963,-8.54023 -0.28577,-8.43057c0.59979,0.33926 3.7926,1.60687 5.6948,3.08586c1.06043,0.8245 2.05208,3.55643 2.2673,3.55643c0.83977,0 0.74095,-2.10198 2.50134,-3.48397c1.85294,-1.45464 4.76736,-3.44127 4.82974,-3.38426c0.25515,0.23321 -0.81935,3.37156 0.00191,6.42727c1.66792,6.20598 5.6208,15.67948 6.34485,18.61414" fill="none" stroke="#000000"/></g><path d="M234.39201,169.85936l2.1253,3.43632" fill="none" stroke="#ffc482" stroke-linecap="round"/><path d="M245.32214,169.71417l-2.1253,3.43632" data-paper-data="{&quot;index&quot;:null}" fill="none" stroke="#ffc482" stroke-linecap="round"/></g></g></g></g></svg>