<svg version="1.1" xmlns="http://www.w3.org/2000/svg" xmlns:xlink="http://www.w3.org/1999/xlink" width="851.73123" height="796.56729" viewBox="0,0,851.73123,796.56729"><defs><linearGradient x1="240.00002" y1="578.28365" x2="240.00002" y2="-218.28363" gradientUnits="userSpaceOnUse" id="color-1"><stop offset="0" stop-color="#ffffff"/><stop offset="1" stop-color="#0095ff"/></linearGradient><linearGradient x1="64.03596" y1="74.14797" x2="64.60714" y2="78.70421" gradientUnits="userSpaceOnUse" id="color-2"><stop offset="0" stop-color="#000000"/><stop offset="1" stop-color="#000000"/></linearGradient><linearGradient x1="68.25283" y1="72.88306" x2="68.837" y2="77.54287" gradientUnits="userSpaceOnUse" id="color-3"><stop offset="0" stop-color="#000000"/><stop offset="1" stop-color="#000000"/></linearGradient><linearGradient x1="125.45927" y1="65.71151" x2="126.04344" y2="70.37133" gradientUnits="userSpaceOnUse" id="color-4"><stop offset="0" stop-color="#000000"/><stop offset="1" stop-color="#000000"/></linearGradient><linearGradient x1="140.37447" y1="64.89792" x2="140.94565" y2="69.45413" gradientUnits="userSpaceOnUse" id="color-5"><stop offset="0" stop-color="#000000"/><stop offset="1" stop-color="#000000"/></linearGradient><linearGradient x1="135.97583" y1="64.71304" x2="136.56" y2="69.37287" gradientUnits="userSpaceOnUse" id="color-6"><stop offset="0" stop-color="#000000"/><stop offset="1" stop-color="#000000"/></linearGradient><linearGradient x1="230.92638" y1="12.99906" x2="230.92638" y2="30.90151" gradientUnits="userSpaceOnUse" id="color-7"><stop offset="0" stop-color="#5f4f39"/><stop offset="1" stop-color="#5f4f39" stop-opacity="0"/></linearGradient><linearGradient x1="243.76428" y1="245.7958" x2="243.76428" y2="460.51051" gradientUnits="userSpaceOnUse" id="color-8"><stop offset="0" stop-color="#ffffff" stop-opacity="0"/><stop offset="1" stop-color="#ffffff"/></linearGradient><linearGradient x1="227.99851" y1="-69.73166" x2="227.99851" y2="107.44552" gradientUnits="userSpaceOnUse" id="color-9"><stop offset="0" stop-color="#ffffff"/><stop offset="1" stop-color="#ffffff" stop-opacity="0"/></linearGradient></defs><g transform="translate(185.86559,218.28364)"><g data-paper-data="{&quot;isPaintingLayer&quot;:true}" fill-rule="nonzero" stroke-linejoin="miter" stroke-miterlimit="10" stroke-dasharray="" stroke-dashoffset="0" style="mix-blend-mode: normal"><path d="M665.86564,-218.28363v796.56729h-851.73123v-796.56729z" data-paper-data="{&quot;index&quot;:null}" fill="url(#color-1)" stroke="none" stroke-width="0" stroke-linecap="butt"/><path d="M127.50002,247.00001c0,14.91169 -14.55075,27 -32.5,27c-17.94925,0 -32.5,-12.08831 -32.5,-27c0,-14.91169 14.55075,-27 32.5,-27c17.94925,0 32.5,12.08831 32.5,27z" fill="#0fb000" stroke="none" stroke-width="0" stroke-linecap="butt"/><path d="M524.50002,302.00001c0,43.6305 -48.12939,79 -107.5,79c-59.37061,0 -107.5,-35.36951 -107.5,-79c0,-43.63049 48.12939,-79 107.5,-79c59.37061,0 107.5,35.36951 107.5,79z" fill="#0c8d00" stroke="none" stroke-width="0" stroke-linecap="butt"/><path d="M381.50002,269.50001c0,40.04064 -65.81414,72.5 -147,72.5c-81.18586,0 -147,-32.45936 -147,-72.5c0,-40.04064 65.81414,-72.5 147,-72.5c81.18586,0 147,32.45936 147,72.5z" fill="#10ba00" stroke="none" stroke-width="0" stroke-linecap="butt"/><path d="M157.50001,329.50001c0,51.63862 -49.92025,93.5 -111.5,93.5c-61.57975,0 -111.5,-41.86138 -111.5,-93.5c0,-51.63862 49.92025,-93.5 111.5,-93.5c61.57975,0 111.5,41.86138 111.5,93.5z" fill="#0c9100" stroke="none" stroke-width="0" stroke-linecap="butt"/><path d="M261.16897,354.09397l29.81358,-353.97169l163.16943,13.7431l-29.81359,353.97169z" fill-opacity="0.01" fill="#000000" stroke="none" stroke-width="0" stroke-linecap="butt"/><g><path d="M298.21111,349.32647l33.82061,-161.70546l50.06495,4.01969l4.20168,165.10502z" fill="#353535" stroke="#000000" stroke-width="2" stroke-linecap="butt"/><path d="M370.02575,261.38251c7.68146,0.64698 13.6879,3.79077 13.41576,7.02186c-0.27214,3.23109 0.92802,12.1955 -6.75344,11.54852c-4.51544,-0.38032 -13.14492,-7.93452 -19.43604,-14.75334c-4.41101,-4.78102 -7.67246,-9.20051 -7.5603,-10.53225c0.27214,-3.2311 12.65256,6.06823 20.33402,6.71521z" data-paper-data="{&quot;index&quot;:null}" fill="#212121" stroke="none" stroke-width="0" stroke-linecap="butt"/><path d="M352.52265,255.35041c-0.11217,1.33173 -4.06691,5.14344 -9.21547,9.11928c-7.34304,5.67047 -17.11449,11.67485 -21.62995,11.29453c-7.68146,-0.64698 -4.99876,-9.28434 -4.72663,-12.51543c0.27214,-3.23109 6.71981,-5.32592 14.40127,-4.67894c7.68146,0.64698 21.44291,-6.45053 21.17077,-3.21944z" fill="#212121" stroke="none" stroke-width="0" stroke-linecap="butt"/><path d="M320.06905,272.00154c0,0 -2.40976,-13.0682 -0.67951,-26.89407c0.12322,-0.98462 0.84015,-7.4233 3.4586,-12.62783c1.73361,-3.44577 5.45351,-5.80391 6.24303,-7.64489c0.68815,-1.6046 -5.83471,-1.64335 -9.87996,0.50479c-6.05311,3.21436 -10.71548,9.65286 -10.71558,9.65216c-0.07493,-0.48928 -0.75831,-6.82824 1.37543,-14.62599c2.21864,-8.10802 7.3059,-17.74609 9.84172,-21.51066c4.15292,-6.16521 10.05303,-9.88855 11.64847,-10.31315c4.14626,-1.10345 12.63268,2.40437 12.63268,2.40437c0,0 9.28487,63.71756 3.94484,65.60663c-6.0593,2.14351 -27.86973,15.44864 -27.86973,15.44864z" fill="#353535" stroke="#000000" stroke-width="2" stroke-linecap="butt"/><path d="M353.85574,257.05128c-4.94882,-2.75564 14.86298,-64.02252 14.86298,-64.02252c0,0 8.95361,-2.03895 12.8569,-0.2575c1.50194,0.68548 6.69614,5.34327 9.75933,12.11625c1.87043,4.13568 5.27391,14.48888 6.1051,22.85378c0.79937,8.04479 -0.93466,14.18016 -1.09037,14.65c-0.00023,0.00068 -3.51998,-7.12698 -8.95015,-11.30853c-3.62896,-2.79451 -10.0664,-3.84735 -9.65634,-2.15024c0.47046,1.94709 3.74353,4.89423 4.87635,8.58142c1.71102,5.56918 1.34088,12.03707 1.29768,13.02843c-0.60671,13.9205 -5.16838,26.40153 -5.16838,26.40153c0,0 -19.27768,-16.76581 -24.89308,-19.89264z" data-paper-data="{&quot;index&quot;:null}" fill="#353535" stroke="#000000" stroke-width="2" stroke-linecap="butt"/><path d="M351.34526,259.23487c0,0 -3.14616,-4.70343 -6.05453,-10.94545c-1.46845,-3.15165 -2.54008,-6.66721 -3.79796,-10.22514c-3.05291,-8.63507 -4.51331,-22.48212 -4.80309,-25.4746c-1.47199,-15.20072 -0.66395,-24.54592 -0.66395,-24.54592l40.97018,3.26539c0,0 -0.46911,11.21567 -3.29442,23.61213c-2.22267,9.75233 -6.64589,20.76622 -8.39616,24.01404c-2.15578,4.00025 -4.1272,8.08552 -6.53563,11.48714c-3.64914,5.15397 -7.42442,8.81241 -7.42442,8.81241z" fill="#ffffff" stroke="#000000" stroke-width="2" stroke-linecap="butt"/><path d="M363.1681,240.0758c-0.10954,1.30057 -4.39845,2.11229 -10.65742,1.58512c-6.25898,-0.52717 -9.56968,-2.09014 -9.46015,-3.3907c0.10954,-1.30057 3.59787,-1.84622 9.85683,-1.31906c6.25898,0.52717 10.37028,1.82406 10.26074,3.12464z" fill="#e8e8e8" stroke="none" stroke-width="0" stroke-linecap="butt"/><g stroke="#000000" stroke-width="2"><path d="M369.12624,238.99064c-0.38207,0.22898 -1.26696,0.79187 -2.65763,0.524c-1.44272,-0.27789 -3.42329,-1.39281 -5.58436,-1.47751c-2.76085,-0.1082 -6.02688,1.09271 -9.09203,0.62171c-2.4051,-0.36957 -4.63954,-2.32653 -6.76281,-2.55519c-1.17043,-0.12605 -2.32262,1.05673 -3.25568,1.1293c-2.89187,0.22491 -4.53224,-0.08181 -5.04339,-0.47508c-6.72733,-5.17579 8.45054,-43.86578 19.03313,-42.97445c10.58261,0.89133 20.6374,40.84745 13.36277,45.20721z" fill="#4953bd" stroke-linecap="butt"/><path d="M344.5295,235.21907l3.39673,-23.17037" fill="none" stroke-linecap="round"/><path d="M360.30409,237.99289l-0.66775,-25.06907" fill="none" stroke-linecap="round"/></g></g><path d="M372.31672,191.63221c-0.18697,2.21985 -1.51963,7.45898 -6.32824,11.23556c-3.81927,2.99958 -7.5048,5.35659 -10.90512,5.0702c-3.18475,-0.26824 -6.19383,-3.63655 -8.52488,-6.8285c-3.29131,-4.5069 -5.94709,-9.65126 -5.7507,-11.98289c0.06168,-0.73231 8.63938,0.07725 17.12739,0.77644c8.58695,0.70736 14.43543,1.08927 14.38153,1.7292z" fill="#4953bd" stroke="#000000" stroke-width="2" stroke-linecap="butt"/><g stroke-linecap="butt"><path d="M469.48169,238.13109l-67.01086,-55.92089l18.6403,-22.33694l67.01086,55.92088z" fill="#685346" stroke="#000000" stroke-width="2"/><path d="M485.66482,216.22276c-0.45034,2.40449 -4.78035,6.86354 -8.0265,10.96642c-2.96109,3.74262 -6.61161,8.07428 -8.0361,8.38299c-1.84968,0.40087 -14.81092,-11.01289 -15.07051,-12.21061c-0.49631,-2.29003 9.36146,5.41322 14.86845,4.21971c5.50696,-1.19351 16.99164,-15.24002 16.26466,-11.35852z" fill="#4a3b31" stroke="none" stroke-width="0"/><path d="M423.4792,199.38239c4.72589,-8.15659 11.81463,-15.51204 18.60167,-22.36921l30.02524,25.0562c-6.02576,7.69224 -11.86783,15.49684 -17.57125,23.22909z" fill="#4953bd" stroke="none" stroke-width="0"/><path d="M469.54526,238.4244l-67.01086,-55.92088l18.6403,-22.33696l67.01086,55.9209z" fill="none" stroke="#000000" stroke-width="2"/></g><path d="M275.31646,115.74093c3.90025,-46.307 45.15797,-80.63759 92.15169,-76.67951c46.99372,3.95809 81.92789,44.70602 78.02764,91.01302c-3.90025,46.30701 -45.15798,80.63759 -92.15169,76.6795c-46.99372,-3.95809 -81.92788,-44.70601 -78.02763,-91.01301z" fill="#685346" stroke="#000000" stroke-width="2" stroke-linecap="butt"/><path d="M289.2533,116.57592c3.25854,-38.68808 37.7281,-67.37021 76.9899,-64.06335c39.2618,3.30686 68.44822,37.35049 65.18969,76.03856c-3.25854,38.68808 -37.7281,67.37021 -76.9899,64.06335c-39.2618,-3.30686 -68.44822,-37.35049 -65.18968,-76.03856z" fill="#ffffff" stroke="#000000" stroke-width="2" stroke-linecap="butt"/><path d="M277.25802,119.98005c0.08083,-0.95965 0.5795,74.28568 76.28423,82.00932c72.3327,7.37964 89.23958,-69.42052 89.12647,-68.07745c-3.64225,43.24388 -43.62333,75.18119 -89.30023,71.334c-45.67689,-3.84718 -79.75272,-42.02201 -76.11047,-85.26587z" fill="#4a3b31" stroke="#000000" stroke-width="0" stroke-linecap="butt"/><path d="M318.02505,116.29806c1.93718,-22.99973 22.32552,-40.05977 45.53863,-38.10462c23.21311,1.95515 40.46068,22.18509 38.5235,45.18483c-1.93718,22.99973 -22.32552,40.05977 -45.53863,38.10463c-23.21311,-1.95514 -40.46068,-22.1851 -38.5235,-45.18484z" fill="#ffffff" stroke="#000000" stroke-width="2" stroke-linecap="butt"/><path d="M339.71351,113.87444c1.36356,-16.18934 15.71473,-28.19774 32.05424,-26.82153c16.33954,1.37621 28.47995,15.6159 27.11639,31.80523c-1.36356,16.18934 -15.71475,28.19774 -32.05428,26.82154c-16.33954,-1.37621 -28.47992,-15.61591 -27.11635,-31.80524z" fill="#000000" stroke="none" stroke-width="0" stroke-linecap="butt"/><path d="M318.02505,116.29806c1.93718,-22.99973 22.32552,-40.05977 45.53863,-38.10462c23.21311,1.95515 40.46068,22.18509 38.5235,45.18483c0,0 -84.24611,-4.89596 -84.06214,-7.08021z" fill="#685346" stroke="#000000" stroke-width="2" stroke-linecap="butt"/><path d="M369.18848,67.36492c0,0 -14.16322,1.10264 -20.59376,3.03357c-6.15341,1.84771 -17.1947,8.31342 -17.1947,8.31342c0,0 8.49252,-8.36597 16.46048,-10.75856c7.96796,-2.39259 21.32797,-0.58843 21.32797,-0.58843z" data-paper-data="{&quot;index&quot;:null}" fill="#000000" stroke="none" stroke-width="0" stroke-linecap="butt"/><path d="M366.65024,116.98703l-10.59697,-0.89254" fill="none" stroke="#000000" stroke-width="2" stroke-linecap="round"/><path d="M343.25531,165.28044l-4.46882,-2.37741" fill="none" stroke="#000000" stroke-width="2" stroke-linecap="round"/><path d="M382.66546,155.19673c-0.03667,0.43533 -4.24347,4.44362 -10.44628,6.36452c-5.37934,1.66587 -11.86884,2.42812 -15.9084,2.08789c-3.00916,-0.25345 -8.30921,-1.68417 -11.83422,-3.30249c-6.6635,-3.05919 -12.90254,-9.21419 -12.85777,-9.74581c0.02851,-0.3385 1.91004,2.30224 5.22134,4.59393c1.92073,1.32931 4.64842,2.1752 6.92651,3.20645c3.22519,1.46 7.96467,2.93527 10.93914,3.1858c3.00173,0.25283 9.99328,0.15788 14.23016,-0.73552c8.03949,-1.69521 13.77437,-6.18708 13.72954,-5.65478z" fill="#000000" stroke="#000000" stroke-width="2" stroke-linecap="butt"/><g><path d="M64.33522,380.92568l-42.20735,-336.68279l155.19981,-19.45621l42.20735,336.68279z" fill-opacity="0.01" fill="#000000" stroke="none" stroke-width="0" stroke-linecap="butt"/><g stroke="#000000" stroke-linecap="butt"><path d="M97.9752,368.88621l-1.74523,-168.50259l47.57903,-6.16667l37.95103,164.16581z" fill="#ff80c9" stroke-width="2"/><path d="M97.96179,236.58068l-0.22562,-33.66382l45.12153,-5.8383l7.60999,32.45432c0,0 -8.80611,6.47371 -26.45044,9.08698c-15.68557,2.32315 -26.05548,-2.03918 -26.05548,-2.03918z" fill="#c7649c" stroke-width="0"/></g><g data-paper-data="{&quot;index&quot;:null}" stroke-linecap="butt"><path d="M107.60384,132.70666c-36.6963,4.60033 -69.9452,-19.59457 -74.26347,-54.04086c-4.31827,-34.44627 21.92934,-66.09982 58.62564,-70.70015c36.69631,-4.60034 69.9452,19.59458 74.26347,54.04086c4.31827,34.44628 -21.92933,66.09982 -58.62564,70.70015z" fill="#8cefef" stroke="#000000" stroke-width="2"/><path d="M93.96415,22.62792c27.03984,-3.38978 51.65955,15.39648 54.98965,41.96027c3.3301,26.56379 -15.89044,50.84595 -42.93029,54.23573c-27.03984,3.38978 -51.65955,-15.39647 -54.98965,-41.96026c-3.3301,-26.56379 15.89044,-50.84596 42.93029,-54.23574z" fill="#c2f0f0" stroke="none" stroke-width="0"/><path d="M97.42053,46.0087c13.4247,-1.68295 25.74929,8.45309 27.52773,22.63949c1.77844,14.1864 -7.66273,27.05105 -21.08743,28.734c-13.4247,1.68295 -25.74931,-8.45309 -27.52775,-22.63949c-1.77844,-14.1864 7.66273,-27.05105 21.08744,-28.734z" fill="#d4f0f0" stroke="none" stroke-width="0"/><path d="M125.50542,17.38055c5.6746,2.34798 9.67997,5.68895 8.94622,7.46226c-0.73373,1.77332 -5.92874,1.30746 -11.60334,-1.04053c-5.6746,-2.34798 -9.67994,-5.68894 -8.94621,-7.46225c0.73373,-1.77332 5.92873,-1.30747 11.60333,1.04052z" fill="#d4f0f0" stroke="none" stroke-width="0"/><path d="M104.99438,12.84018c1.52337,-0.19097 2.91312,0.88914 3.1041,2.41251c0.19097,1.52337 -0.88915,2.91311 -2.41252,3.10409c-1.52337,0.19097 -2.91312,-0.88914 -3.1041,-2.41251c-0.19097,-1.52337 0.88915,-2.91311 2.41252,-3.10409z" fill="#d4f0f0" stroke="none" stroke-width="0"/></g><g stroke-linecap="butt"><path d="M31.76077,156.23786c-5.25992,-41.95775 26.71131,-80.51376 71.40973,-86.11725c44.69842,-5.6035 85.19767,23.86745 90.45759,65.82519c5.25992,41.95775 -26.71131,80.51376 -71.40973,86.11725c-44.69842,5.6035 -85.19767,-23.86745 -90.45759,-65.82519z" fill="#8cefef" stroke="#000000" stroke-width="2"/><path d="M172.20135,139.13856c4.05627,32.35637 -19.35556,61.93358 -52.2918,66.06254c-32.93624,4.12896 -62.9246,-18.75387 -66.98087,-51.11024c-4.05627,-32.35637 19.35557,-61.93358 52.29181,-66.06255c32.93624,-4.12896 62.92458,18.75387 66.98085,51.11024z" fill="#c2f0f0" stroke="none" stroke-width="0"/><path d="M141.70119,144.24185c2.16625,17.27992 -9.33369,32.94988 -25.68583,34.99982c-16.35214,2.04994 -31.36427,-10.29639 -33.53052,-27.57632c-2.16625,-17.27992 9.33369,-32.94988 25.68583,-34.99982c16.35214,-2.04994 31.36427,10.29639 33.53052,27.57632z" fill="#d4f0f0" stroke="none" stroke-width="0"/><path d="M79.79574,86.60109c1.39928,1.87255 -2.32398,7.02042 -8.31614,11.49811c-5.99215,4.47769 -11.9841,6.58957 -13.38338,4.71702c-1.39928,-1.87255 2.324,-7.02043 8.31614,-11.49812c5.99215,-4.47769 11.9841,-6.58956 13.38337,-4.71701z" fill="#d4f0f0" stroke="none" stroke-width="0"/><path d="M93.03881,82.73023c0.23262,1.85556 -1.08304,3.54836 -2.93861,3.78098c-1.85556,0.23262 -3.54836,-1.08304 -3.78098,-2.93859c-0.23262,-1.85556 1.08304,-3.54837 2.93859,-3.78099c1.85556,-0.23262 3.54837,1.08304 3.78099,2.93861z" fill="#d4f0f0" stroke="none" stroke-width="0"/></g><path d="M50.03355,142.03044l-4.45117,-35.50643l127.69857,-16.00859l4.45117,35.50643c0,0 -50.00829,-15.87567 -71.87728,-13.13412c-20.62421,2.5855 -55.82129,29.14272 -55.82129,29.14272z" fill="#62a6a6" stroke="none" stroke-width="NaN" stroke-linecap="butt"/><path d="M48.9008,154.63878c-2.04825,-16.33867 9.53643,-31.24424 25.8751,-33.29249c16.33867,-2.04825 31.24424,9.53643 33.29249,25.8751c2.04825,16.33867 -9.53643,31.24424 -25.8751,33.29249c-16.33867,2.04825 -31.24424,-9.53643 -33.29249,-25.8751z" fill="#ffffff" stroke="#000000" stroke-width="2" stroke-linecap="butt"/><path d="M150.55472,171.94389c-16.33867,2.04825 -31.24424,-9.53643 -33.29249,-25.8751c-2.04825,-16.33867 9.53643,-31.24424 25.8751,-33.29249c16.33867,-2.04825 31.24424,9.53643 33.29249,25.8751c2.04825,16.33867 -9.53643,31.24424 -25.8751,33.29249z" data-paper-data="{&quot;index&quot;:null}" fill="#ffffff" stroke="#000000" stroke-width="2" stroke-linecap="butt"/><path d="M139.27884,93.90958c-5.09655,-0.54144 -15.21443,0.80411 -15.21443,0.80411c0,0 8.83012,-3.53038 15.42958,-2.82929c6.59945,0.70109 15.86867,6.15425 15.86867,6.15425c0,0 -10.75773,-3.56324 -16.08382,-4.12907z" data-paper-data="{&quot;index&quot;:null}" fill="#000000" stroke="none" stroke-width="0" stroke-linecap="butt"/><path d="M43.84246,151.56178l4.94638,2.70719" fill="none" stroke="#000000" stroke-width="2" stroke-linecap="round"/><path d="M175.75744,138.09592l4.75466,-4.94711" fill="none" stroke="#000000" stroke-width="2" stroke-linecap="round"/><path d="M75.9228,90.96002c2.63979,3.09444 -0.36707,9.99362 -6.716,15.40974c-6.34894,5.41613 -13.63573,7.29821 -16.27553,4.20377c-2.63979,-3.09444 0.36707,-9.99362 6.71602,-15.40974c6.34894,-5.41612 13.63573,-7.29821 16.27553,-4.20377z" fill="#ecfefe" stroke="none" stroke-width="0" stroke-linecap="butt"/><path d="M85.79432,86.44264c0.21808,1.73959 -0.90254,3.31245 -2.50295,3.51308c-1.60042,0.20063 -3.07461,-1.04694 -3.29269,-2.78653c-0.21808,-1.73959 0.90253,-3.31245 2.50295,-3.51308c1.60042,-0.20063 3.07461,1.04694 3.29269,2.78653z" fill="#ecfefe" stroke="none" stroke-width="0" stroke-linecap="butt"/><path d="M59.4848,110.0581c0,0 7.63629,-7.57247 13.85847,-9.88091c6.22218,-2.30844 15.65051,-1.06698 15.65051,-1.06698c0,0 -10.13693,1.19365 -14.94211,2.97639c-5.0216,1.86303 -14.56687,7.97151 -14.56687,7.97151z" fill="#000000" stroke="none" stroke-width="0" stroke-linecap="butt"/><path d="M57.75911,153.1755c-1.44175,-11.50067 6.7126,-21.99257 18.21326,-23.43432c11.50067,-1.44175 21.99257,6.71262 23.43432,18.21328c1.44175,11.50067 -6.71262,21.99257 -18.21328,23.43432c-11.50067,1.44175 -21.99255,-6.71262 -23.4343,-18.21328z" fill="#000000" stroke="none" stroke-width="0" stroke-linecap="butt"/><path d="M149.27119,162.85442c-11.50066,1.44175 -21.99255,-6.71262 -23.4343,-18.21328c-1.44175,-11.50067 6.71262,-21.99257 18.21326,-23.43432c11.50066,-1.44175 21.99255,6.71262 23.4343,18.21328c1.44175,11.50067 -6.71262,21.99257 -18.21326,23.43432z" data-paper-data="{&quot;index&quot;:null}" fill="#000000" stroke="none" stroke-width="0" stroke-linecap="butt"/><path d="M48.88761,154.53375c-2.04826,-16.33869 9.53643,-31.24424 25.87512,-33.29249c16.33869,-2.04826 31.24424,9.53642 33.29249,25.8751c0,0 -12.28083,-16.77285 -32.699,-14.07169c-20.04667,2.65201 -26.37257,22.25517 -26.46861,21.48908z" fill="#8cefef" stroke="#000000" stroke-width="2" stroke-linecap="butt"/><path d="M146.90873,123.96803c-20.45309,2.42256 -29.15884,20.9732 -29.15884,20.9732c-2.04826,-16.33869 9.53642,-31.24424 25.8751,-33.29249c16.33869,-2.04826 31.24425,9.53642 33.29251,25.8751c0.09604,0.76608 -9.92781,-15.93429 -30.00877,-13.55581z" data-paper-data="{&quot;index&quot;:null}" fill="#8cefef" stroke="#000000" stroke-width="2" stroke-linecap="butt"/><g><path d="M104.12685,74.25824c0.02809,0.22409 3.67526,16.98158 -3.1336,33.63172c-3.87016,9.46395 -18.68673,22.44083 -20.56722,23.46835c-2.2941,1.25353 -8.99234,6.09552 -16.13987,7.24923c-10.22215,1.64999 -21.85601,-1.06065 -27.03335,-5.51258c-4.40338,-3.78641 -9.18703,-9.07714 -11.86779,-14.3824c-3.00117,-5.93937 -5.90793,-17.52104 -6.08136,-29.1794c-0.17175,-11.54606 2.36865,-23.17944 3.76878,-27.00758c5.41173,-14.79647 15.49393,-23.66253 25.33465,-24.89619c12.97225,-1.62623 26.07442,9.70388 37.50044,19.80902c9.0076,7.96629 17.95727,14.72947 18.21933,16.81984z" fill="#ff80c9" stroke="#000000" stroke-width="2" stroke-linecap="butt"/><path d="M67.08226,72.73996c0.04693,0.37434 2.69673,3.79258 0.27945,4.09562c-2.41726,0.30303 -8.51381,-1.84169 -8.56074,-2.21603c-0.04693,-0.37434 1.87463,-0.92345 4.2919,-1.22648c2.41726,-0.30303 3.94246,-1.02745 3.98938,-0.65311z" data-paper-data="{&quot;index&quot;:null}" fill="#ce52af" stroke="none" stroke-width="0" stroke-linecap="butt"/><path d="M70.49862,77.96562l-12.35415,-3.0791" fill="url(#color-2)" stroke="#000000" stroke-width="2" stroke-linecap="round"/><path d="M70.04064,77.39196l-2.99143,-4.35802" fill="url(#color-3)" stroke="#000000" stroke-width="2" stroke-linecap="round"/><path d="M72.21506,100.17053c-2.41727,0.30304 -4.41491,0.24524 -4.46184,-0.12909c-0.04693,-0.37434 5.33153,-3.95759 7.74881,-4.26063c2.41727,-0.30304 0.69325,3.66353 0.74018,4.03786c0.04693,0.37434 -1.60989,0.04883 -4.02715,0.35186z" data-paper-data="{&quot;index&quot;:null}" fill="#ce52af" stroke="none" stroke-width="0" stroke-linecap="butt"/><path d="M65.87933,101.68399l11.21178,-6.03338l-2.44203,7.1497" data-paper-data="{&quot;index&quot;:null}" fill="none" stroke="#000000" stroke-width="2" stroke-linecap="round"/></g><path d="M126.6629,65.56063l-1.82311,4.96158" fill="url(#color-4)" stroke="none" stroke-width="2" stroke-linecap="round"/><g data-paper-data="{&quot;index&quot;:null}"><path d="M101.55139,74.90101c-0.26205,-2.09038 6.74121,-10.85345 13.50363,-20.79671c8.57804,-12.6129 18.47797,-26.82661 31.45022,-28.45284c9.84071,-1.23365 21.79947,4.86931 30.69617,17.87203c2.30176,3.36408 7.63519,14.01036 10.31885,25.24153c2.70975,11.3404 2.75181,23.2812 1.30963,29.77759c-1.28822,5.80282 -4.61785,12.11065 -7.95031,16.86685c-3.91819,5.59217 -14.52292,11.0907 -24.83604,12.01505c-7.21113,0.64632 -14.89733,-2.3924 -17.42986,-3.04085c-2.07594,-0.53153 -19.63728,-9.44944 -25.72382,-17.6652c-10.70817,-14.45417 -11.31036,-31.59338 -11.33846,-31.81747z" fill="#ff80c9" stroke="#000000" stroke-width="2" stroke-linecap="butt"/><path d="M141.10202,63.93357c2.41727,-0.30304 4.41491,-0.24524 4.46184,0.12909c0.04693,0.37434 -5.33155,3.9576 -7.74881,4.26063c-2.41727,0.30304 -0.69325,-3.66353 -0.74018,-4.03786c-0.04693,-0.37434 1.60989,-0.04883 4.02715,-0.35186z" data-paper-data="{&quot;index&quot;:null}" fill="#ce52af" stroke="none" stroke-width="0" stroke-linecap="butt"/><path d="M146.26595,64.15932l-11.21179,6.03339" fill="url(#color-5)" stroke="#000000" stroke-width="2" stroke-linecap="round"/><path d="M135.35637,69.52374l1.82311,-4.96158" fill="url(#color-6)" stroke="#000000" stroke-width="2" stroke-linecap="round"/><path d="M134.88263,92.78731c-0.04693,-0.37434 -2.69673,-3.79258 -0.27945,-4.09562c2.41727,-0.30304 8.51381,1.84169 8.56074,2.21603c0.04693,0.37434 -1.87463,0.92345 -4.2919,1.22648c-2.41726,0.30303 -3.94246,1.02745 -3.98938,0.65311z" data-paper-data="{&quot;index&quot;:null}" fill="#ce52af" stroke="none" stroke-width="0" stroke-linecap="butt"/><path d="M137.16248,95.28341l-4.13133,-6.32565l12.35414,3.07911" data-paper-data="{&quot;index&quot;:null}" fill="none" stroke="#000000" stroke-width="2" stroke-linecap="round"/></g><path d="M128.56087,76.97351c1.69952,13.55687 -7.53838,19.63367 -23.54875,21.64077c-16.01035,2.0071 -26.75975,-1.43397 -28.45927,-14.99083c-1.69952,-13.55687 7.69508,-19.65333 23.70544,-21.66042c16.01035,-2.0071 26.60307,1.45362 28.30259,15.01049z" fill="#e3e854" stroke="#000000" stroke-width="2" stroke-linecap="butt"/><path d="M136.98838,188.68402c0,0 -3.28467,23.39058 -16.42401,25.27649c-10.83148,1.55468 -21.09177,-20.57343 -21.09177,-20.57343z" fill="#000000" stroke="#000000" stroke-width="2" stroke-linecap="round"/></g><g><g stroke-linecap="butt"><path d="M195.00715,316.807l20.83739,-181.42196l51.99182,-0.21727l18.67842,181.63923z" fill="#ffd498" stroke="#000000" stroke-width="2"/><path d="M212.82738,174.54031l4.29524,-36.22829l49.30508,-0.19544l3.80803,35.92315c0,0 -10.34164,5.77397 -29.66642,6.20551c-17.17947,0.38363 -27.74194,-5.70493 -27.74194,-5.70493z" fill="#bd9e72" stroke="#000000" stroke-width="0"/><path d="M194.31913,316.46299l21.15073,-181.42196c0,0 9.02762,0.26927 9.1704,0.58826c0.47657,1.06476 -5.18632,40.23697 -3.19374,49.98154c0.75955,3.71454 36.38988,4.69646 37.54281,-0.0394c1.92774,-7.91848 -0.48988,-46.02672 0.76066,-48.908c1.07771,-2.48312 7.0968,-2.1837 7.0968,-2.1837l20.35605,181.98325z" fill="#a18660" stroke="#000000" stroke-width="2"/><path d="M215.46987,134.69703c0,0 9.02762,0.26927 9.1704,0.58826c0.2471,0.55207 -1.96799,5.69861 -3.31278,17.75369c-1.24887,11.19527 -2.0592,28.59727 -1.09976,33.28937c0.40189,1.96542 8.87881,3.8436 19.16537,3.91968c9.15447,0.0677 20.23281,-1.41452 20.7757,-3.64455c1.92774,-7.91848 -1.66935,-47.40278 -0.41882,-50.28406c1.07771,-2.48312 7.0968,-2.1837 7.0968,-2.1837c0,0 2.77974,36.96557 4.03924,50.54391c0.7478,8.06182 2.81973,23.40067 2.81973,23.40067c-2.14348,-0.00197 -63.56076,-0.50233 -65.03406,-0.66148c0,0 2.44102,-18.51235 3.33615,-28.08781c1.25013,-13.37294 3.46202,-44.63399 3.46202,-44.63399z" fill="#7c674a" stroke="none" stroke-width="0"/></g><g stroke="#000000" stroke-width="2" stroke-linecap="butt"><path d="M359.42952,86.95734c0,26.40909 -42.84104,65.70662 -60.89043,65.70662c-18.04938,0 -4.47218,-39.29752 -4.47218,-65.70662c0,-26.40911 -8.07298,-60.89043 9.9764,-60.89043c18.04938,0 55.38621,34.48132 55.38621,60.89043z" fill="#ffd498"/><path d="M345.37755,85.52391c0,21.31095 -8.6929,38.58686 -19.41613,38.58686c-10.72324,0 -19.41613,-17.27593 -19.41613,-38.58686c0,-21.31095 8.6929,-38.58686 19.41613,-38.58686c10.72324,0 19.41613,17.27593 19.41613,38.58686z" fill="#000000"/></g><path d="M145.13419,88.27045c0,-60.71481 43.31254,-78.02849 96.74125,-78.02849c53.42871,0 96.74125,17.31369 96.74125,78.02849c0,60.71481 -41.80654,73.47055 -95.23525,73.47055c-53.42871,0 -98.24726,-12.75577 -98.24726,-73.47055z" fill="#ffd498" stroke="#000000" stroke-width="2" stroke-linecap="butt"/><path d="M171.11899,82.56897c0,-17.84468 14.46598,-32.31066 32.31066,-32.31066c17.84468,0 32.31066,14.46598 32.31066,32.31066c0,17.84468 -14.46598,32.31066 -32.31066,32.31066c-17.84468,0 -32.31066,-14.46598 -32.31066,-32.31066z" fill="#ffffff" stroke="#000000" stroke-width="2" stroke-linecap="butt"/><path d="M180.65787,82.69415c0,-12.56074 10.18248,-22.74321 22.7432,-22.74321c12.56074,0 22.74321,10.18249 22.74321,22.74321c0,12.56074 -10.18249,22.74321 -22.74321,22.74321c-12.56074,0 -22.7432,-10.18249 -22.7432,-22.74321z" fill="#000000" stroke="none" stroke-width="0" stroke-linecap="butt"/><path d="M278.09224,114.8796c-17.84468,0 -32.31066,-14.46598 -32.31066,-32.31066c0,-17.84468 14.46598,-32.31066 32.31066,-32.31066c17.84468,0 32.31066,14.46598 32.31066,32.31066c0,17.84468 -14.46598,32.31066 -32.31066,32.31066z" data-paper-data="{&quot;index&quot;:null}" fill="#ffffff" stroke="#000000" stroke-width="2" stroke-linecap="butt"/><path d="M278.48775,105.43739c-12.56072,0 -22.7432,-10.18249 -22.7432,-22.74321c0,-12.56074 10.18249,-22.74321 22.7432,-22.74321c12.56072,0 22.7432,10.18249 22.7432,22.74321c0,12.56074 -10.18249,22.74321 -22.7432,22.74321z" data-paper-data="{&quot;index&quot;:null}" fill="#000000" stroke="none" stroke-width="0" stroke-linecap="butt"/><path d="M188.50913,42.92695c0,0 9.23188,-7.11313 16.23361,-8.75659c7.00174,-1.64346 16.97244,0.96237 16.97244,0.96237c0,0 -11.06089,-0.08295 -16.4681,1.18626c-5.65074,1.32637 -16.73795,6.60797 -16.73795,6.60797z" fill="#000000" stroke="none" stroke-width="0" stroke-linecap="butt"/><path d="M276.4865,36.31899c-5.40721,-1.2692 -16.4681,-1.18626 -16.4681,-1.18626c0,0 9.9707,-2.60583 16.97244,-0.96237c7.00172,1.64346 16.23361,8.75659 16.23361,8.75659c0,0 -11.0872,-5.2816 -16.73795,-6.60797z" data-paper-data="{&quot;index&quot;:null}" fill="#000000" stroke="none" stroke-width="0" stroke-linecap="butt"/><path d="M190.58651,120.05823l2.52276,-5.9629" fill="none" stroke="#000000" stroke-width="2" stroke-linecap="round"/><path d="M211.91536,114.32468l0.22933,6.88027" fill="none" stroke="#000000" stroke-width="2" stroke-linecap="round"/><g fill="none" stroke="#000000" stroke-width="2" stroke-linecap="round"><path d="M290.80916,114.09534l2.52276,5.9629" data-paper-data="{&quot;index&quot;:null}"/><path d="M271.77374,121.20495l0.22935,-6.88027" data-paper-data="{&quot;index&quot;:null}"/></g><path d="M244.07146,24.65524c0,0 -35.5392,-2.18584 -37.67394,-5.59489c-1.25898,-2.01051 18.188,-6.40675 36.36064,-6.03964c5.70891,0.11531 27.46737,2.90235 29.81513,6.70703c2.43625,3.94807 -14.71085,8.92753 -18.38321,9.53772c-23.37668,3.8843 -65.14658,-0.36719 -65.14658,-0.36719" fill="url(#color-7)" stroke="#000000" stroke-width="2" stroke-linecap="round"/><path d="M315.96156,142.76388c0,1.14632 -8.69547,8.79192 -24.28021,12.6013c-6.61198,1.61618 -14.21641,3.14898 -21.58266,4.00626c-1.16387,0.13545 -14.93647,1.80847 -28.78294,1.60997c-4.23938,-0.06077 -9.41571,-0.37979 -14.52777,-0.79641c-10.28741,-0.83838 -20.31453,-2.0719 -21.92167,-2.39113c-6.99278,-1.38896 -14.39883,-3.55198 -19.97269,-5.99013c-14.90002,-6.51763 -23.0502,-15.0013 -23.0502,-15.92014c0,-1.2555 7.38763,8.69352 23.60303,14.95348c5.89029,2.27393 26.48286,4.45926 29.16117,4.88073c10.1795,1.60192 22.94889,1.76985 25.22368,1.76985c3.61199,0 15.38667,0.17992 25.89631,-1.13895c4.38242,-0.54995 23.41291,-2.74114 32.90827,-5.56329c13.38242,-3.97746 17.32564,-8.75584 17.32564,-8.02152z" fill="#5f4f39" stroke="none" stroke-width="0" stroke-linecap="butt"/><path d="M358.14576,84.90943c0,1.5632 -0.05694,6.30251 -1.16502,10.26025c-1.58549,5.66288 -4.06368,11.29796 -5.25657,11.29796c-0.37286,0 3.91051,-8.77432 3.89223,-17.58147c-0.02332,-11.23046 -4.26547,-23.08859 -4.04512,-23.08859c2.0266,0 6.57449,15.31199 6.57449,19.11187z" fill="#5f4f39" stroke="none" stroke-width="0" stroke-linecap="butt"/><path d="M171.17284,82.69615c0,-17.84469 14.46598,-32.31066 32.31068,-32.31066c17.84469,0 32.31066,14.46597 32.31066,32.31066c0,0 -9.5753,-20.15417 -32.24519,-20.35019c-22.32641,-0.19305 -32.37613,21.19867 -32.37613,20.35019z" fill="#ffd498" stroke="#000000" stroke-width="2" stroke-linecap="butt"/><path d="M246.16783,82.69615c0,-17.84469 14.46598,-32.31066 32.31068,-32.31066c17.84469,0 32.31066,14.46597 32.31066,32.31066c0,0 -9.5753,-20.15417 -32.24519,-20.35019c-22.32641,-0.19305 -32.37613,21.19867 -32.37613,20.35019z" fill="#ffd498" stroke="#000000" stroke-width="2" stroke-linecap="butt"/><path d="M240.85934,154.32671c-5.569,0 -19.52898,-20.04454 -19.52898,-20.04454c0,0 12.62159,1.33019 19.30858,1.33019c6.09748,0 19.92218,-1.88061 19.92218,-1.88061c0,0 -13.7756,20.59496 -19.70177,20.59496z" fill="#000000" stroke="#000000" stroke-width="2" stroke-linecap="round"/></g><path d="M491.50002,361.50001c0,46.66806 -109.24252,84.5 -244,84.5c-134.75748,0 -244,-37.83194 -244,-84.5c0,-46.66806 109.24252,-84.5 244,-84.5c134.75748,0 244,37.83194 244,84.5z" fill="#15ec00" stroke="none" stroke-width="NaN" stroke-linecap="butt"/><path d="M368.1528,331.6378h-271.5" fill="#ffffff" stroke="#000000" stroke-width="4" stroke-linecap="round"/><path d="M163.6528,338.6378h140" fill="#ffffff" stroke="#000000" stroke-width="2" stroke-linecap="round"/><path d="M-67.04653,460.51051v-214.71471h621.62162v214.71471z" fill="url(#color-8)" stroke="none" stroke-width="0" stroke-linecap="butt"/><g stroke="#000000" stroke-width="1" stroke-linecap="butt"><path d="M369.42585,260.27895c0.36291,-1.36086 1.28526,-2.0413 2.76708,-2.0413h2.72174c0.75603,0 1.28526,0.28728 1.58769,0.86188c0.33265,0.5746 0.40827,1.25501 0.2268,2.0413l-15.87676,62.32763c-0.36291,1.36086 -1.28526,2.0413 -2.76708,2.0413h-2.72174c-0.75603,0 -1.30038,-0.27217 -1.63303,-0.81651c-0.33265,-0.5746 -0.40827,-1.25501 -0.2268,-2.0413z" fill="#ff63c6"/><path d="M327.21273,260.27895c0.36291,-1.36086 1.28526,-2.0413 2.76708,-2.0413h2.72174c0.75603,0 1.28527,0.28728 1.58769,0.86188c0.33265,0.5746 0.40827,1.25501 0.2268,2.0413l-6.57751,25.76571l22.31819,-27.17193c0.78629,-0.99798 1.79935,-1.49696 3.03925,-1.49696h3.90116c0.81651,0 1.34574,0.27217 1.58769,0.81651c0.27217,0.54434 0.15121,1.14916 -0.36291,1.8145l-25.35747,30.07511l9.48069,31.79888c0.5746,1.84472 0.04536,2.76711 -1.58769,2.76711h-3.44752c-0.87699,0 -1.4667,-0.15121 -1.76913,-0.45361c-0.30243,-0.33265 -0.5746,-0.95261 -0.81651,-1.85986l-8.7549,-29.34934l-7.53012,29.6215c-0.36291,1.36086 -1.28526,2.0413 -2.76708,2.0413h-2.72174c-0.75603,0 -1.30038,-0.27217 -1.63303,-0.81651c-0.33265,-0.5746 -0.40827,-1.25501 -0.2268,-2.0413z" fill="#e463ff"/><path d="M279.68121,260.27895c0.36291,-1.33063 1.25501,-2.01104 2.67638,-2.0413h2.81244c1.2399,0 2.0413,0.96773 2.4042,2.90318l8.21056,47.04058l12.20243,-47.90246c0.36291,-1.36086 1.30038,-2.0413 2.81245,-2.0413h2.67638c0.75603,0 1.30038,0.28728 1.63303,0.86188c0.33268,0.5746 0.40824,1.25501 0.22668,2.0413l-15.87675,62.32763c-0.36291,1.36086 -1.30038,2.0413 -2.81245,2.0413h-3.31145c-0.78629,0 -1.28526,-0.3629 -1.49696,-1.08868c-0.12099,-0.45361 -0.21172,-0.83163 -0.2722,-1.13405c-0.03013,-0.30243 -0.06039,-0.51412 -0.09073,-0.63508l-8.21056,-46.85915l-12.15706,47.67566c-0.36291,1.36086 -1.28526,2.0413 -2.76708,2.0413h-2.72174c-0.75603,0 -1.30038,-0.27217 -1.63303,-0.81651c-0.33265,-0.5746 -0.40827,-1.25501 -0.2268,-2.0413z" fill="#638fff"/><path d="M157.86059,291.30669l5.17128,-0.27217c4.92933,-0.18144 8.34664,-2.0413 10.25186,-5.57955c1.20964,-2.23788 2.11689,-4.79326 2.72171,-7.66622c0.63508,-2.90318 0.95262,-5.3225 0.95262,-7.25795c0,-3.65922 -2.10178,-5.57955 -6.30534,-5.76099c-1.36086,-0.06048 -3.35682,-0.10584 -5.98783,-0.1361zM157.13477,264.58835c-1.02821,0 -2.01104,0 -2.94855,0c-0.90725,0 -1.54229,-0.25706 -1.9052,-0.77115c-0.36291,-0.54434 -0.45364,-1.16431 -0.2722,-1.85986l0.54434,-1.85986c0.12099,-0.54434 0.40827,-0.98284 0.86188,-1.31549c0.45364,-0.36291 0.87702,-0.54434 1.27015,-0.54434h14.56127c4.98985,0 8.77002,1.04331 11.34052,3.12998c2.60078,2.08667 3.90116,5.50393 3.90116,10.25186c0,3.508 -0.75604,7.37891 -2.26811,11.61272c-1.48184,4.23381 -3.26608,7.15211 -5.35275,8.75491c-1.02821,0.78629 -1.75398,1.33063 -2.17737,1.63303c-0.39313,0.27217 -1.36086,0.77115 -2.90318,1.49696c-1.54232,0.72578 -3.06951,1.2399 -4.58158,1.54232c-3.17535,0.63508 -6.83459,0.98284 -10.97767,1.04332l-6.57751,25.76571c-0.36291,1.36086 -1.28526,2.0413 -2.76708,2.0413h-2.67637c-0.75603,0 -1.30038,-0.27217 -1.63306,-0.81651c-0.33265,-0.5746 -0.40821,-1.25501 -0.22668,-2.0413z" fill="#ffa763"/><path d="M196.88925,289.71898l5.80636,-0.27217c4.20356,-0.18144 7.42428,-1.99593 9.66216,-5.44346c2.14714,-3.29631 3.22072,-7.78718 3.22072,-13.47255c0,-1.6028 -0.54434,-2.94855 -1.63306,-4.03723c-1.05843,-1.08868 -2.54027,-1.64817 -4.44547,-1.67839c-1.90523,-0.03026 -3.97678,-0.06048 -6.21463,-0.09073zM195.70979,264.67907c-0.96773,0 -1.90519,0 -2.81244,0c-0.90725,0 -1.54232,-0.25706 -1.90523,-0.77115c-0.36291,-0.54434 -0.45364,-1.16431 -0.2722,-1.85986l0.45364,-1.95056c0.12099,-0.54434 0.40827,-0.98284 0.86188,-1.31549c0.45361,-0.36291 0.87699,-0.54434 1.27012,-0.54434h15.78605c4.26403,0 7.68133,1.07357 10.25186,3.22072c2.5705,2.11689 3.85576,5.26202 3.85576,9.43535c0,4.17333 -0.8014,8.08958 -2.40417,11.74879c-1.57255,3.65922 -3.31145,6.27511 -5.21665,7.84766c-1.87497,1.54232 -3.31145,2.57053 -4.3094,3.08462c-0.99798,0.48386 -2.08667,0.92236 -3.26608,1.31549l4.26403,27.4441c0.33265,2.11689 -0.34779,3.17535 -2.0413,3.17535h-3.17535c-0.81651,0 -1.40622,-0.24191 -1.76913,-0.72578c-0.33265,-0.48386 -0.57457,-1.33063 -0.72578,-2.54027l-3.49289,-26.21935l-5.80636,0.09073l-6.98578,27.3534c-0.36291,1.36086 -1.28526,2.0413 -2.76711,2.0413h-2.67634c-0.75607,0 -1.30041,-0.27217 -1.63306,-0.81651c-0.33265,-0.5746 -0.40821,-1.25501 -0.22668,-2.0413z" fill="#ffe363"/><path d="M131.07272,257.23968c4.02212,0 6.86479,1.64817 8.52807,4.94448c1.66328,3.29631 2.49494,8.0291 2.49494,14.19836c0,1.54232 -0.51412,2.46468 -1.54232,2.76708l-3.26608,1.04331c-0.51409,0.15121 -1.01309,0.06048 -1.49696,-0.27217c-0.48386,-0.33265 -0.72578,-0.89214 -0.72578,-1.67839c0,-8.19542 -1.33063,-12.91309 -3.99187,-14.15299c-1.2399,-0.63508 -2.72174,-0.52923 -4.4455,0.31754c-1.72376,0.81651 -3.47778,2.81244 -5.26202,5.98779c-1.78424,3.14513 -2.73685,6.74383 -2.85781,10.79621c-0.06048,1.63303 0.21169,2.88807 0.81651,3.76506c0.60482,0.84677 1.78424,1.57255 3.53826,2.1774l3.81043,1.31549c3.65922,1.2399 6.06342,2.75197 7.21258,4.53621c1.02821,1.63303 1.54232,4.27918 1.54232,7.93839c0,3.62896 -0.98284,7.53012 -2.94855,11.70345c-1.93545,4.17333 -4.56646,7.62086 -7.89303,10.34257c-3.32657,2.69149 -6.80434,4.03723 -10.4333,4.03723c-7.31843,0 -10.97764,-5.94246 -10.97764,-17.82735v-0.31754c0,-2.35884 0.46875,-3.65921 1.40622,-3.90116l3.44752,-1.08869c0.60482,-0.24192 1.10382,-0.19655 1.49696,0.1361c0.42338,0.33265 0.63508,0.87699 0.63508,1.63303c0,4.86889 0.28728,8.54322 0.86188,11.02301c0.5746,2.44957 1.52718,4.00701 2.85781,4.67231c0.93747,0.21169 2.14714,0 3.62896,-0.63508c2.51005,-1.11894 4.76304,-3.43241 6.75897,-6.94041c2.44954,-4.23381 3.62896,-9.02707 3.53826,-14.3798c-0.03035,-1.63303 -0.9376,-2.93343 -2.72174,-3.90116c-0.90725,-0.45361 -2.19248,-0.93747 -3.85576,-1.45159l-3.90116,-1.22479c-1.75402,-0.51412 -3.26608,-1.49696 -4.5362,-2.94855c-1.27015,-1.45159 -1.90523,-3.4173 -1.90523,-5.89709c0,-2.47979 0.49897,-5.29225 1.49696,-8.43737c1.02821,-3.17535 2.38909,-6.1239 4.0826,-8.84564c1.72376,-2.72174 3.87091,-4.97473 6.44144,-6.75897c2.60075,-1.78424 5.32249,-2.67638 8.16519,-2.67638z" fill="#ff6363"/><path d="M227.04602,322.83336c-4.32452,-4.59672 -5.06544,-12.33853 -2.22274,-23.22544l10.02503,-39.32903c0.36291,-1.36086 1.30038,-2.0413 2.81248,-2.0413h2.67634c0.75607,0 1.30041,0.28729 1.63306,0.86188c0.33265,0.5746 0.40821,1.25501 0.22668,2.0413l-10.47866,41.41566c-2.99388,11.70345 -0.8921,17.55518 6.30534,17.55518c2.99392,0 5.62492,-1.22479 7.89303,-3.67433c2.2681,-2.47979 4.18844,-6.75897 5.76099,-12.8375l11.06838,-43.32089c0.36291,-1.36086 1.28526,-2.0413 2.76711,-2.0413h2.31347c0.75603,0 1.28526,0.28729 1.58766,0.86188c0.30243,0.5746 0.36291,1.25501 0.18147,2.0413l-10.84157,43.09409c-2.35884,9.61678 -6.19949,16.01285 -11.52198,19.1882c-3.05439,1.81449 -6.65313,2.72174 -10.79621,2.72174c-4.11285,0 -7.24284,-1.10382 -9.38998,-3.31145z" fill="#63ff67"/></g><path d="M-155.63513,107.44552v-177.17718h767.26727v177.17718z" fill="url(#color-9)" stroke="none" stroke-width="0" stroke-linecap="butt"/><text transform="translate(166.38204,355.12785) scale(0.5,0.5)" font-size="40" xml:space="preserve" fill="#ff00ad" fill-rule="nonzero" stroke="none" stroke-width="1" stroke-linecap="butt" stroke-linejoin="miter" stroke-miterlimit="10" stroke-dasharray="" stroke-dashoffset="0" font-family="Handwriting" font-weight="normal" text-anchor="start" style="mix-blend-mode: normal"><tspan x="0" dy="0">x Dandy's World!</tspan></text><path d="M368.25703,130.5c0,-1.38071 1.11929,-2.5 2.5,-2.5c1.38071,0 2.5,1.11929 2.5,2.5c0,1.38071 -1.11929,2.5 -2.5,2.5c-1.38071,0 -2.5,-1.11929 -2.5,-2.5z" fill="#000000" stroke="none" stroke-width="0.5" stroke-linecap="butt"/></g></g></svg>