<svg version="1.1" xmlns="http://www.w3.org/2000/svg" xmlns:xlink="http://www.w3.org/1999/xlink" width="130.47404" height="275.98353" viewBox="0,0,130.47404,275.98353"><g transform="translate(-174.26299,-37.62901)"><g data-paper-data="{&quot;isPaintingLayer&quot;:true}" fill-rule="nonzero" stroke-linejoin="miter" stroke-miterlimit="10" stroke-dasharray="" stroke-dashoffset="0" style="mix-blend-mode: normal"><path d="M179.20671,313.61253v-187.22501h123.18203v187.22501z" fill-opacity="0.01" fill="#000000" stroke="none" stroke-width="0" stroke-linecap="butt"/><path d="M206.67309,308.48921l15.14285,-92.37211l37.78325,-0.11061l13.57389,92.48274z" fill="#ffffff" stroke="#000000" stroke-width="2" stroke-linecap="butt"/><path d="M219.62331,236.05324l3.12142,-18.44586l35.83075,-0.09951l2.76735,18.29049c0,0 -7.51543,2.93985 -21.55904,3.15958c-12.48458,0.19533 -20.16049,-2.90471 -20.16049,-2.90471z" fill="#b5b5b5" stroke="#000000" stroke-width="0" stroke-linecap="butt"/><g stroke="#000000" stroke-width="2"><path d="M228.67863,254.64215l-0.4697,-23.89138" fill="none" stroke-linecap="round"/><path d="M228.67863,255.03705c1.90232,0 3.44445,0.8349 3.44445,1.8648c0,1.0299 -1.54214,1.8648 -3.44445,1.8648c-1.90232,0 -3.44445,-0.8349 -3.44445,-1.8648c0,-1.0299 1.54214,-1.8648 3.44445,-1.8648z" fill="#000000" stroke-linecap="butt"/></g><g data-paper-data="{&quot;index&quot;:null}" stroke="#000000" stroke-width="2"><path d="M252.14832,231.10109l-0.4697,23.89137" fill="none" stroke-linecap="round"/><path d="M255.12306,257.25216c0,1.0299 -1.54213,1.86479 -3.44445,1.86479c-1.90231,0 -3.44445,-0.8349 -3.44445,-1.86479c0,-1.0299 1.54213,-1.8648 3.44445,-1.8648c1.90231,0 3.44445,0.83491 3.44445,1.8648z" fill="#000000" stroke-linecap="butt"/></g><path d="M175.26299,164.47947c0,-33.30185 28.7599,-60.29833 64.23702,-60.29833c35.47712,0 64.23702,26.99649 64.23702,60.29833c0,33.30185 -28.7599,60.29833 -64.23702,60.29833c-35.47712,0 -64.23702,-26.99649 -64.23702,-60.29833z" fill="#414141" stroke="#000000" stroke-width="2" stroke-linecap="butt"/><path d="M175.98605,164.53337c0,-0.72799 5.20666,55.91939 63.36046,56.93429c55.56352,0.9697 63.51358,-57.95314 63.51358,-56.93429c0,32.80479 -28.40173,59.39833 -63.43702,59.39833c-35.03529,0 -63.43702,-26.59354 -63.43702,-59.39833z" fill="#252525" stroke="#000000" stroke-width="0" stroke-linecap="butt"/><path d="M188.81322,164.909c0,-12.968 10.51265,-23.48065 23.48065,-23.48065c12.968,0 23.48065,10.51265 23.48065,23.48065c0,12.968 -10.51265,23.48065 -23.48065,23.48065c-12.968,0 -23.48065,-10.51265 -23.48065,-23.48065z" fill="#ffffff" stroke="#000000" stroke-width="2" stroke-linecap="butt"/><path d="M195.82857,161.83334c0,-9.12808 7.39976,-16.52784 16.52783,-16.52784c9.12808,0 16.52784,7.39977 16.52784,16.52784c0,9.12808 -7.39977,16.52784 -16.52784,16.52784c-9.12808,0 -16.52783,-7.39977 -16.52783,-16.52784z" fill="#000000" stroke="none" stroke-width="0" stroke-linecap="butt"/><path d="M266.55228,188.38965c-12.968,0 -23.48065,-10.51265 -23.48065,-23.48065c0,-12.968 10.51265,-23.48065 23.48065,-23.48065c12.968,0 23.48065,10.51265 23.48065,23.48065c0,12.968 -10.51265,23.48065 -23.48065,23.48065z" data-paper-data="{&quot;index&quot;:null}" fill="#ffffff" stroke="#000000" stroke-width="2" stroke-linecap="butt"/><path d="M266.00639,185.12788c-9.12807,0 -16.52783,-7.39977 -16.52783,-16.52784c0,-9.12808 7.39977,-16.52784 16.52783,-16.52784c9.12807,0 16.52783,7.39977 16.52783,16.52784c0,9.12808 -7.39977,16.52784 -16.52783,16.52784z" data-paper-data="{&quot;index&quot;:null}" fill="#000000" stroke="none" stroke-width="0" stroke-linecap="butt"/><path d="M201.45088,136.10054c0,0 6.70895,-5.16922 11.79721,-6.36355c5.08827,-1.19433 12.33413,0.69937 12.33413,0.69937c0,0 -8.03812,-0.06028 -11.96762,0.86207c-4.10648,0.96389 -12.16372,4.80211 -12.16372,4.80211z" fill="#000000" stroke="none" stroke-width="0" stroke-linecap="butt"/><path d="M265.38533,131.29845c-3.9295,-0.92235 -11.96762,-0.86207 -11.96762,-0.86207c0,0 7.24586,-1.8937 12.33413,-0.69937c5.08826,1.19433 11.79721,6.36355 11.79721,6.36355c0,0 -8.05724,-3.83822 -12.16372,-4.80211z" data-paper-data="{&quot;index&quot;:null}" fill="#000000" stroke="none" stroke-width="0" stroke-linecap="butt"/><path d="M191.21195,143.60006l4.66666,3.33333" fill="none" stroke="#000000" stroke-width="2" stroke-linecap="round"/><path d="M203.7917,137.00008l1.50717,5.53329" fill="none" stroke="#000000" stroke-width="2" stroke-linecap="round"/><g data-paper-data="{&quot;index&quot;:null}" fill="none" stroke="#000000" stroke-width="2" stroke-linecap="round"><path d="M288.26315,143.74284l-4.66666,3.33333"/><path d="M275.68338,137.14291l-1.50716,5.53329"/></g><path d="M265.28539,116.23339c0,6.87595 -11.78514,12.45 -26.32286,12.45c-14.53771,0 -26.32286,-5.57406 -26.32286,-12.45c0,-6.87595 11.78514,-12.45 26.32286,-12.45c14.53771,0 26.32286,5.57405 26.32286,12.45z" fill="#ffffff" stroke="#000000" stroke-width="2" stroke-linecap="butt"/><text transform="translate(232.1712,124.78339) scale(0.5,0.63543)" font-size="40" xml:space="preserve" fill="#adadad" fill-rule="nonzero" stroke="none" stroke-width="1" stroke-linecap="butt" stroke-linejoin="miter" stroke-miterlimit="10" stroke-dasharray="" stroke-dashoffset="0" font-family="Handwriting" font-weight="normal" text-anchor="start" style="mix-blend-mode: normal"><tspan x="0" dy="0">8</tspan></text><path d="M254.28331,197.73978c0,0 -4.74929,20.26529 -14.96735,20.47584c-8.42331,0.17358 -14.14224,-20.47584 -14.14224,-20.47584z" fill="#000000" stroke="#000000" stroke-width="2" stroke-linecap="round"/><path d="M233.35713,111.59129c-2.18463,7.0495 -9.38346,22.84893 -14.2527,21.14385c-4.86927,-1.70508 -5.56507,-20.269 -3.38043,-27.3185c0.27266,-0.87985 0.60038,-1.71738 0.97461,-2.50612c2.62421,-5.53081 18.84316,1.63127 16.65853,8.68076z" fill="#838383" stroke="#000000" stroke-width="2" stroke-linecap="butt"/><path d="M264.01608,79.96541c7.18029,-3.92151 16.87713,-0.24971 21.65851,8.20119c4.78138,8.4509 14.14856,33.04303 6.96827,36.96454c-7.18029,3.92151 -28.18901,-14.31259 -32.97039,-22.76348c-4.78138,-8.4509 -2.83668,-18.48072 4.34361,-22.40223z" data-paper-data="{&quot;index&quot;:null}" fill="#5b5b5b" stroke="#000000" stroke-width="2" stroke-linecap="butt"/><path d="M185.14314,69.36541l5.5771,-30.35459l33.18047,13.26169l0.39809,46.28946z" fill="#5b5b5b" stroke="#000000" stroke-width="2" stroke-linecap="butt"/><path d="M219.7801,101.06045c-4.78138,8.4509 -25.79009,26.68499 -32.97038,22.76348c-7.18029,-3.92151 2.18688,-28.51364 6.96827,-36.96453c4.78138,-8.4509 14.47822,-12.1227 21.65851,-8.20119c7.18029,3.92151 9.12499,13.95134 4.34361,22.40224z" fill="#5b5b5b" stroke="#000000" stroke-width="2" stroke-linecap="butt"/><path d="M217.37187,111.47022c-3.53251,6.35796 -13.22314,20.02261 -16.52627,17.11371c-3.30314,-2.9089 1.03207,-21.28983 4.56457,-27.64777c0.44089,-0.79352 0.91308,-1.53159 1.4083,-2.20997c3.47258,-4.75705 14.08592,6.38609 10.55341,12.74404z" fill="#838383" stroke="#000000" stroke-width="2" stroke-linecap="butt"/><path d="M268.15252,95.20673c0.53289,0.64922 1.04618,1.35929 1.53138,2.12654c3.88743,6.14734 9.25821,24.25279 6.12539,27.34437c-3.13283,3.09157 -13.58292,-10.00144 -17.47036,-16.1488c-3.88744,-6.14735 6.07678,-17.87452 9.8136,-13.32211z" data-paper-data="{&quot;index&quot;:null}" fill="#838383" stroke="#000000" stroke-width="2" stroke-linecap="butt"/><path d="M259.60066,100.61466c0.46405,0.73948 0.88761,1.53284 1.26147,2.37469c2.99539,6.74505 4.47904,25.26267 -0.15695,27.52642c-4.636,2.26375 -13.63606,-12.58362 -16.63146,-19.32866c-2.99539,-6.74505 12.27291,-15.75775 15.52694,-10.57244z" data-paper-data="{&quot;index&quot;:null}" fill="#838383" stroke="#000000" stroke-width="2" stroke-linecap="butt"/><path d="M199.75113,107.91l3.43997,-28.35495c0,0 35.72972,-13.59001 35.90522,-13.54648c4.01155,0.99451 37.25149,13.31716 37.25149,13.31716l3.89862,28.81359z" fill="#5b5b5b" stroke="#000000" stroke-width="2" stroke-linecap="butt"/><path d="M232.97533,73.78666c2.37473,4.87784 -2.13734,11.96599 -10.07801,15.83185c-7.94066,3.86585 -16.30295,3.04547 -18.67771,-1.83236c-2.37473,-4.87784 2.13734,-11.96599 10.07801,-15.83185c7.94066,-3.86585 16.30296,-3.04547 18.6777,1.83236z" fill="#ffffff" stroke="#000000" stroke-width="2" stroke-linecap="butt"/><path d="M264.17696,71.95429c7.94067,3.86585 12.45275,10.95401 10.07801,15.83185c-2.37473,4.87784 -10.73703,5.69822 -18.67771,1.83236c-7.94066,-3.86585 -12.45275,-10.95401 -10.07802,-15.83185c2.37473,-4.87784 10.73702,-5.69822 18.6777,-1.83236z" data-paper-data="{&quot;index&quot;:null}" fill="#ffffff" stroke="#000000" stroke-width="2" stroke-linecap="butt"/><path d="M227.70267,82.01864c1.04933,1.73368 -1.30614,5.07962 -5.26108,7.47341c-3.95494,2.39378 -8.01169,2.9289 -9.06102,1.19523c-1.04933,-1.73368 1.30614,-5.07962 5.26108,-7.4734c3.95494,-2.39378 8.01169,-2.9289 9.06102,-1.19523z" fill="#000000" stroke="#000000" stroke-width="2" stroke-linecap="butt"/><path d="M259.06908,83.10302c3.95493,2.39378 6.31039,5.73974 5.26106,7.47341c-1.04933,1.73368 -5.10609,1.19854 -9.06102,-1.19523c-3.95493,-2.39378 -6.31039,-5.73974 -5.26108,-7.4734c1.04933,-1.73368 5.10608,-1.19854 9.06102,1.19523z" data-paper-data="{&quot;index&quot;:null}" fill="#000000" stroke="#000000" stroke-width="2" stroke-linecap="butt"/><path d="M242.06503,93.50178c0,1.39321 -6.42127,1.39321 -6.42127,0c0,-1.39321 1.43746,-2.52264 3.21063,-2.52264c1.77319,0 3.21063,1.12942 3.21063,2.52264z" fill="#000000" stroke="#000000" stroke-width="2" stroke-linecap="butt"/><path d="M238.72085,99.42435l0.00689,-5.83837" fill="none" stroke="#000000" stroke-width="1" stroke-linecap="round"/><path d="M238.66443,98.8218c0,0 -0.07557,0.8797 -0.58108,1.70308c-0.44577,0.72609 -1.29623,1.38491 -1.72737,1.69029c-0.27663,0.19595 -1.74057,0.6507 -2.52704,0.35807c-1.25027,-0.46521 -1.91614,-1.85254 -1.91614,-1.85254" data-paper-data="{&quot;index&quot;:null}" fill="none" stroke="#000000" stroke-width="1" stroke-linecap="round"/><path d="M207.59988,98.40839c0.05928,0.03719 0.12492,0.11083 0.12505,0.25464c0.00009,0.11243 -0.03996,0.17135 -0.08574,0.20197c-0.02223,0.03704 -0.05846,0.06833 -0.11624,0.08381c-0.08798,0.02361 -0.15107,-0.00949 -0.19452,-0.05531c-1.10583,0.0888 -4.0962,1.8571 -2.39359,2.85473c0.56853,0.34748 1.4201,0.24589 1.92663,-0.10388c0.12369,-0.08541 0.4991,-0.47168 0.67582,-0.42262c0.48012,0.13328 0.56913,1.16859 0.69618,1.58521c0.25418,0.8336 0.85449,1.4541 1.4954,1.8539c1.6916,0.62529 2.21261,-0.74161 2.09475,-2.61369c-0.0222,-0.35265 -0.43728,-1.33396 -0.31599,-1.60062c0.11473,-0.25222 0.5404,-0.32831 0.7643,-0.38849c0.80174,-0.40503 2.08174,-1.11604 2.5102,-2.08219c0.76369,-1.7221 -0.84573,-1.98164 -1.80672,-1.7233c-0.44185,0.11853 -1.64551,1.04009 -2.03987,0.95482c-0.45784,-0.09899 -0.43761,-0.61182 -0.57037,-0.96237c-0.43081,-1.13757 -1.80629,-2.82619 -2.73099,-1.6164c-0.75776,0.88851 -0.35224,2.58558 -0.03429,3.77977zM207.15018,98.38115c-0.36007,-1.39284 -0.67872,-3.10457 0.15856,-4.14539c0.93868,-1.08252 2.32784,-0.25182 3.01607,1.01059c0.06767,0.12416 0.39135,0.7125 0.43212,0.82015c0.07644,0.20185 0.02365,0.64827 0.19503,0.61898c0.56323,-0.09631 1.25737,-0.78045 1.88508,-0.94882c1.34914,-0.36114 3.25946,0.40735 2.33556,2.52548c-0.4706,1.0789 -1.83473,1.85104 -2.7286,2.30088c-0.80812,0.21634 -0.16709,1.32537 -0.19481,2.38258c-0.05204,1.98486 -1.04221,2.80289 -2.64553,2.20088c-0.64574,-0.40082 -1.2696,-0.98669 -1.62458,-1.7784c-0.05149,-0.11484 -0.4639,-1.6298 -0.47689,-1.6283c-0.99638,0.11535 -1.48179,1.21699 -2.72404,0.47695c-2.32745,-1.38139 0.82538,-3.6197 2.37204,-3.83558z" fill="#c5c5c5" stroke="none" stroke-width="0.5" stroke-linecap="butt"/><path d="M270.62315,94.07822c-0.92471,-1.20979 -2.30017,0.47883 -2.73098,1.6164c-0.13275,0.35056 -0.11251,0.86338 -0.57036,0.96237c-0.39437,0.08527 -1.59803,-0.83631 -2.03987,-0.95484c-0.96099,-0.25834 -2.57041,0.0012 -1.80673,1.7233c0.42844,0.96615 1.70846,1.67715 2.5102,2.0822c0.2239,0.06019 0.64955,0.13627 0.76428,0.38849c0.12129,0.26667 -0.29377,1.24796 -0.31597,1.60062c-0.11788,1.87207 0.40315,3.23898 2.09475,2.61369c0.64091,-0.39979 1.24122,-1.02029 1.4954,-1.85389c0.12705,-0.41663 0.21606,-1.45194 0.69617,-1.58522c0.17673,-0.04905 0.55212,0.33721 0.67582,0.42262c0.50655,0.34976 1.35811,0.45136 1.92665,0.10387c1.70261,-0.99764 -1.28776,-2.76593 -2.3936,-2.85474c-0.04344,0.04582 -0.10653,0.07893 -0.19452,0.05532c-0.05778,-0.0155 -0.094,-0.04678 -0.11624,-0.08383c-0.04578,-0.03063 -0.08582,-0.08953 -0.08573,-0.20197c0.00013,-0.14382 0.06577,-0.21746 0.12505,-0.25465c0.31795,-1.19419 0.72346,-2.89126 -0.03429,-3.77977zM273.47921,101.66634c-1.24227,0.74005 -1.72766,-0.36159 -2.72405,-0.47695c-0.01297,-0.0015 -0.4254,1.51346 -0.47689,1.6283c-0.35496,0.7917 -0.97884,1.37757 -1.62457,1.7784c-1.60332,0.60201 -2.59349,-0.21601 -2.64553,-2.20088c-0.02772,-1.05721 0.61332,-2.16624 -0.1948,-2.38258c-0.89387,-0.44983 -2.258,-1.22197 -2.7286,-2.30087c-0.9239,-2.11813 0.98642,-2.88663 2.33557,-2.52549c0.62771,0.16838 1.32183,0.85253 1.88507,0.94883c0.17138,0.0293 0.1186,-0.41713 0.19502,-0.61898c0.04077,-0.10765 0.36445,-0.69602 0.43213,-0.82016c0.68822,-1.26242 2.07738,-2.09311 3.01607,-1.01059c0.83727,1.04082 0.51863,2.75256 0.15856,4.1454c1.54667,0.21588 4.6995,2.45417 2.37203,3.83558z" data-paper-data="{&quot;index&quot;:null}" fill="#c5c5c5" stroke="none" stroke-width="0.5" stroke-linecap="butt"/><path d="M245.52158,100.86357c0,0 -0.66587,1.38733 -1.91613,1.85254c-0.78647,0.29263 -2.25041,-0.16213 -2.52704,-0.35807c-0.43114,-0.30538 -1.28161,-0.9642 -1.72737,-1.69029c-0.5055,-0.82339 -0.58108,-1.70309 -0.58108,-1.70309" data-paper-data="{&quot;index&quot;:null}" fill="none" stroke="#000000" stroke-width="1" stroke-linecap="round"/></g></g></svg>