<svg version="1.1" xmlns="http://www.w3.org/2000/svg" xmlns:xlink="http://www.w3.org/1999/xlink" width="166.94662" height="195.26524" viewBox="0,0,166.94662,195.26524"><defs><linearGradient x1="240.00013" y1="175.50002" x2="240.00013" y2="307.50002" gradientUnits="userSpaceOnUse" id="color-1"><stop offset="0" stop-color="#000000"/><stop offset="1" stop-color="#ffffff"/></linearGradient><linearGradient x1="240.14846" y1="295.78342" x2="240.14846" y2="308.0809" gradientUnits="userSpaceOnUse" id="color-2"><stop offset="0" stop-color="#000000"/><stop offset="1" stop-color="#ffffff"/></linearGradient><linearGradient x1="239.41036" y1="117.02947" x2="239.41036" y2="212.07148" gradientUnits="userSpaceOnUse" id="color-3"><stop offset="0" stop-color="#000000"/><stop offset="1" stop-color="#916b51"/></linearGradient><linearGradient x1="177.63333" y1="190.65014" x2="177.63333" y2="202.29382" gradientUnits="userSpaceOnUse" id="color-4"><stop offset="0" stop-color="#000000"/><stop offset="1" stop-color="#ceff00"/></linearGradient><linearGradient x1="182.32135" y1="180.79536" x2="182.32135" y2="192.47113" gradientUnits="userSpaceOnUse" id="color-5"><stop offset="0" stop-color="#000000"/><stop offset="1" stop-color="#ff6de0"/></linearGradient><linearGradient x1="190.10035" y1="190.76951" x2="190.10035" y2="202.44527" gradientUnits="userSpaceOnUse" id="color-6"><stop offset="0" stop-color="#000000"/><stop offset="1" stop-color="#6eddff"/></linearGradient><linearGradient x1="298.08396" y1="191.65015" x2="298.08396" y2="203.29383" gradientUnits="userSpaceOnUse" id="color-7"><stop offset="0" stop-color="#000000"/><stop offset="1" stop-color="#ceff00"/></linearGradient><linearGradient x1="293.39601" y1="181.79535" x2="293.39601" y2="193.47112" gradientUnits="userSpaceOnUse" id="color-8"><stop offset="0" stop-color="#000000"/><stop offset="1" stop-color="#ff6de0"/></linearGradient><linearGradient x1="285.61696" y1="191.7695" x2="285.61696" y2="203.44526" gradientUnits="userSpaceOnUse" id="color-9"><stop offset="0" stop-color="#000000"/><stop offset="1" stop-color="#6eddff"/></linearGradient><linearGradient x1="237.74867" y1="114.09252" x2="237.74867" y2="128.68304" gradientUnits="userSpaceOnUse" id="color-10"><stop offset="0" stop-color="#000000"/><stop offset="1" stop-color="#ffffff"/></linearGradient><linearGradient x1="236.29445" y1="159.6101" x2="236.29445" y2="180.16571" gradientUnits="userSpaceOnUse" id="color-11"><stop offset="0" stop-color="#000000" stop-opacity="0"/><stop offset="1" stop-color="#000000"/></linearGradient><linearGradient x1="243.48016" y1="193.36095" x2="243.48016" y2="209.35101" gradientUnits="userSpaceOnUse" id="color-12"><stop offset="0" stop-color="#000000"/><stop offset="1" stop-color="#ffffff"/></linearGradient><linearGradient x1="241.6753" y1="193.36095" x2="241.6753" y2="209.35101" gradientUnits="userSpaceOnUse" id="color-13"><stop offset="0" stop-color="#000000"/><stop offset="1" stop-color="#ffffff"/></linearGradient></defs><g transform="translate(-155.20077,-112.81566)"><g data-paper-data="{&quot;isPaintingLayer&quot;:true}" fill-rule="nonzero" stroke-linejoin="miter" stroke-miterlimit="10" stroke-dasharray="" stroke-dashoffset="0" style="mix-blend-mode: normal"><path d="M206.75014,307.50001l15.14285,-131.8421l37.78325,-0.15789l13.57389,132z" fill="url(#color-1)" stroke="none" stroke-width="2" stroke-linecap="butt"/><g data-paper-data="{&quot;index&quot;:null}" stroke-width="2"><path d="M270.27074,295.78342c0,0 3.14048,1.09832 4.73735,2.03872c1.62456,0.9567 1.6913,2.76192 1.68055,3.49993c-0.00883,0.6062 0.24063,2.44959 -0.40676,3.47337c-1.09298,1.72846 -5.14855,3.16035 -5.14855,3.16035l-62.64752,0.12511c0,0 -3.38337,-2.02247 -4.61611,-4.02413c-0.2597,-0.42169 -0.5341,-2.40724 0.02401,-4.24869c0.53711,-1.77211 1.90282,-3.41045 1.90282,-3.41045z" fill="url(#color-2)" stroke="none" stroke-linecap="butt"/><path d="M220.0101,297.32709l0.32438,4.50213" fill="none" stroke="#000000" stroke-linecap="round"/><path d="M240.61536,301.45057l0.24952,-3.74867" fill="none" stroke="#000000" stroke-linecap="round"/><path d="M263.98251,303.34049l-0.09124,-7.12586" fill="none" stroke="#000000" stroke-linecap="round"/></g><g stroke="#000000"><path d="M227.81971,236.30117v-25.25" fill="none" stroke-width="2.5" stroke-linecap="round"/><path d="M232.81971,239.42617c0,2.55432 -2.29454,4.625 -5.125,4.625c-2.83046,0 -5.125,-2.07068 -5.125,-4.625c0,-2.55432 2.29454,-4.625 5.125,-4.625c2.83046,0 5.125,2.07068 5.125,4.625z" fill="#000000" stroke-width="0.5" stroke-linecap="butt"/></g><g stroke="#000000"><path d="M252.65304,211.38451v25.25" fill="none" stroke-width="2.5" stroke-linecap="round"/><path d="M257.65299,239.75951c0,2.55432 -2.29454,4.625 -5.125,4.625c-2.83046,0 -5.125,-2.07068 -5.125,-4.625c0,-2.55432 2.29454,-4.625 5.125,-4.625c2.83046,0 5.125,2.07068 5.125,4.625z" fill="#000000" stroke-width="0.5" stroke-linecap="butt"/></g><g stroke="#000000" stroke-width="2"><path d="M217.99705,198.80001c0,0 -0.8757,-1.63834 -1.22009,-3.41045c-0.35786,-1.84145 -0.18192,-3.82699 -0.01539,-4.24868c0.79043,-2.00165 2.95985,-4.02413 2.95985,-4.02413l40.16958,0.1251c0,0 2.60043,1.43188 3.30125,3.16035c0.4151,1.02378 0.25516,2.86717 0.26082,3.47337c0.00689,0.73801 -0.03591,2.54323 -1.07757,3.49993c-1.02391,0.9404 -3.03759,2.03872 -3.03759,2.03872z" fill="#ffffff" stroke-linecap="butt"/><path d="M227.11075,197.87054l0.20799,-4.50214" fill="none" stroke-linecap="round"/><path d="M240.32284,193.74705l0.15999,3.74867" fill="none" stroke-linecap="round"/><path d="M255.30585,191.85714l-0.0585,7.12586" fill="none" stroke-linecap="round"/></g><path d="M219.70038,206.69597l3.12142,-26.32765l35.83075,-0.14203l2.76735,26.1059c0,0 -7.51543,4.19603 -21.55904,4.50964c-12.48458,0.27879 -20.16049,-4.14586 -20.16049,-4.14586z" fill="#e6e6e6" stroke="#000000" stroke-width="0" stroke-linecap="butt"/><g stroke="#000000" stroke-width="2"><path d="M217.99704,198.80001c0,0 -0.8757,-1.63834 -1.22009,-3.41045c-0.35786,-1.84145 -0.18192,-3.82699 -0.01539,-4.24868c0.79043,-2.00165 2.95985,-4.02413 2.95985,-4.02413l40.16958,0.1251c0,0 2.60043,1.43188 3.30125,3.16035c0.4151,1.02378 0.25516,2.86717 0.26082,3.47337c0.00689,0.73801 -0.03591,2.54323 -1.07757,3.49993c-1.02391,0.9404 -3.03759,2.03872 -3.03759,2.03872z" fill="#ffffff" stroke-linecap="butt"/><path d="M227.31875,193.3684l-0.20799,4.50214" fill="none" stroke-linecap="round"/><path d="M240.32286,193.74705l0.15999,3.74867" fill="none" stroke-linecap="round"/><path d="M255.24736,198.983l0.0585,-7.12586" fill="none" stroke-linecap="round"/></g><path d="M156.67334,161.97544c0,-52.44772 38.33064,-44.51859 84.02502,-44.51859c45.69438,0 81.44903,-7.92911 81.44903,44.51859c0,38.62977 -19.74586,47.52265 -48.40824,49.52715c-10.2526,0.71701 -21.64607,0.55265 -33.68478,0.55265c-45.69438,0 -83.38102,2.3679 -83.38102,-50.0798z" fill="url(#color-3)" stroke="none" stroke-width="0" stroke-linecap="butt"/><path d="M275.46263,184.00627c-12.968,0 -23.48065,-10.51265 -23.48065,-23.48065c0,-12.968 10.51265,-23.48065 23.48065,-23.48065c12.968,0 23.48065,10.51265 23.48065,23.48065c0,12.968 -10.51265,23.48065 -23.48065,23.48065z" data-paper-data="{&quot;index&quot;:null}" fill="#ff0000" stroke="none" stroke-width="2" stroke-linecap="butt"/><g stroke="none" stroke-width="0" stroke-linecap="butt"><path d="M175.16602,198.17472c0,0 -3.39225,-2.15115 -3.35523,-2.38071c0.02516,-0.1582 3.92999,-1.21567 3.92999,-1.21567c0,0 0.97863,-3.88883 1.22795,-3.92792c0.23051,-0.03601 2.37049,3.36345 2.37049,3.36345c0,0 4.01274,-0.24646 4.1141,-0.04681c0.1002,0.19723 -2.46534,3.29412 -2.46534,3.29412c0,0 1.55494,3.66036 1.31588,3.89863c-0.25231,0.2517 -3.89486,-1.32717 -3.89486,-1.32717c0,0 -3.03217,2.59275 -3.29994,2.45595c-0.14673,-0.07477 0.05699,-4.11388 0.05699,-4.11388z" data-paper-data="{&quot;index&quot;:null}" fill="url(#color-4)"/><path d="M187.09795,191.21155c-0.20932,0.21588 -3.91586,-1.25992 -3.91586,-1.25992c0,0 -2.93834,2.66967 -3.25836,2.51285c-0.30316,-0.1484 -0.01236,-4.1147 -0.01236,-4.1147c0,0 -3.42751,-2.10352 -3.39631,-2.32252c0.03152,-0.22168 3.90918,-1.28308 3.90918,-1.28308c0,0 0.92873,-3.90812 1.15853,-3.94841c0.24858,-0.04344 2.42959,3.32169 2.42959,3.32169c0,0 4.03718,-0.25895 4.11204,-0.11733c0.1091,0.20533 -2.40769,3.33593 -2.40769,3.33593c0,0 1.496,3.75738 1.38125,3.87549z" fill="url(#color-5)"/><path d="M194.87696,201.18568c-0.20932,0.21588 -3.91586,-1.2599 -3.91586,-1.2599c0,0 -2.93835,2.66967 -3.25837,2.51284c-0.30316,-0.1484 -0.01235,-4.11469 -0.01235,-4.11469c0,0 -3.42752,-2.10353 -3.39632,-2.32254c0.03152,-0.22168 3.90919,-1.28307 3.90919,-1.28307c0,0 0.92873,-3.90811 1.15853,-3.9484c0.24858,-0.04344 2.42959,3.32167 2.42959,3.32167c0,0 4.03718,-0.25895 4.11204,-0.11733c0.1091,0.20533 -2.40769,3.33594 -2.40769,3.33594c0,0 1.496,3.75737 1.38125,3.87548z" data-paper-data="{&quot;index&quot;:null}" fill="url(#color-6)"/></g><g data-paper-data="{&quot;index&quot;:null}" stroke="none" stroke-width="0" stroke-linecap="butt"><path d="M300.55126,199.17472c0,0 0.20371,4.03911 0.05699,4.11388c-0.26777,0.1368 -3.29994,-2.45595 -3.29994,-2.45595c0,0 -3.64255,1.57887 -3.89486,1.32717c-0.23906,-0.23827 1.31588,-3.89863 1.31588,-3.89863c0,0 -2.56554,-3.0969 -2.46534,-3.29412c0.10136,-0.19965 4.1141,0.04681 4.1141,0.04681c0,0 2.13998,-3.39946 2.37049,-3.36345c0.24931,0.03909 1.22794,3.92792 1.22794,3.92792c0,0 3.90483,1.05747 3.92999,1.21567c0.03701,0.22957 -3.35524,2.38071 -3.35524,2.38071z" data-paper-data="{&quot;index&quot;:null}" fill="url(#color-7)"/><path d="M290.00067,188.33605c0,0 -2.5168,-3.13059 -2.40769,-3.33593c0.07486,-0.14162 4.11204,0.11733 4.11204,0.11733c0,0 2.181,-3.36513 2.42959,-3.32169c0.2298,0.04029 1.15853,3.94841 1.15853,3.94841c0,0 3.87766,1.06141 3.90918,1.28308c0.0312,0.21901 -3.3963,2.32252 -3.3963,2.32252c0,0 0.2908,3.9663 -0.01236,4.1147c-0.32002,0.15682 -3.25836,-2.51285 -3.25836,-2.51285c0,0 -3.70654,1.47579 -3.91585,1.25992c-0.11476,-0.11811 1.38124,-3.87549 1.38124,-3.87549z" fill="url(#color-8)"/><path d="M282.22159,198.31019c0,0 -2.5168,-3.13061 -2.4077,-3.33594c0.07486,-0.14162 4.11204,0.11733 4.11204,0.11733c0,0 2.181,-3.36511 2.42958,-3.32167c0.2298,0.04029 1.15853,3.9484 1.15853,3.9484c0,0 3.87767,1.0614 3.90919,1.28307c0.0312,0.21901 -3.39632,2.32254 -3.39632,2.32254c0,0 0.29081,3.96629 -0.01235,4.11469c-0.32002,0.15682 -3.25837,-2.51284 -3.25837,-2.51284c0,0 -3.70654,1.47578 -3.91585,1.2599c-0.11476,-0.11811 1.38125,-3.87548 1.38125,-3.87548z" data-paper-data="{&quot;index&quot;:null}" fill="url(#color-9)"/></g><path d="M173.98208,121.5184c6.82488,-3.01699 14.12316,-4.5661 21.76771,-5.59208c2.6863,-0.36053 5.75439,-0.60643 8.34236,0.13787c1.66333,0.47838 2.8809,1.76611 3.66606,2.97177c0.02966,0.04554 0.04246,0.12645 0.10627,0.12838c1.38285,0.0417 12.00049,-2.45238 15.59635,-3.02241c6.74453,-1.06919 10.49849,-1.08316 18.02882,-0.99301c2.83264,0.03391 4.21939,1.49186 5.6951,3.13954c0.37503,0.41873 0.6552,2.29199 0.83715,2.29309c1.05988,0.00643 10.33586,-2.38165 13.14653,-3.25655c5.13935,-1.59977 11.43536,-2.5802 16.91463,-2.88468c2.55951,-0.14223 6.75363,-0.96686 8.98323,0.57211c3.35079,2.31286 1.13096,4.28083 2.52682,6.27773c0.44574,0.63768 4.39429,-0.55552 4.81305,-0.69053c3.19369,-1.02967 9.28676,-5.03075 11.38675,0.04252c1.41213,3.4115 -1.59672,3.83402 -3.98354,4.80397c-5.48967,2.23087 -12.70174,4.73322 -18.78216,2.12176c-2.68556,-1.15341 -2.06872,-4.34971 -2.23351,-6.27772c-0.04578,-0.53565 -1.3253,0.12009 -1.98976,0.16438c-2.23708,0.1491 -4.10096,0.5792 -6.30566,0.91084c-4.42718,0.66595 -11.07322,3.02988 -17.7435,3.64249c-6.97003,0.64014 -13.88566,-0.50174 -14.47505,-1.29279c-0.20211,-0.27126 -0.53622,-2.45375 -0.88573,-2.48011c-4.07614,-0.30751 -9.71679,-0.10686 -14.01744,0.83364c-4.12057,0.90112 -19.43034,3.60354 -21.57774,2.73891c-1.2612,-0.50781 -2.43641,-2.82274 -3.5477,-3.10014c-1.13077,-0.28226 -17.31687,2.70998 -22.34285,5.13839c-0.35845,0.86441 -7.9496,1.28907 -8.43641,-0.24094c-0.94862,-1.38456 3.58538,-5.67758 4.51021,-6.0864z" fill="url(#color-10)" stroke="none" stroke-width="0" stroke-linecap="butt"/><path d="M242.08018,160.60857c0,0.73638 -0.97005,1.33333 -2.16667,1.33333c-1.19662,0 -2.16667,-0.59695 -2.16667,-1.33333c0,-0.73638 0.97005,-1.33334 2.16667,-1.33334c1.19662,0 2.16667,0.59696 2.16667,1.33334z" fill="#000000" stroke="none" stroke-width="0" stroke-linecap="butt"/><path d="M298.65614,163.65604c-1.32791,11.68777 -11.51591,20.07721 -23.39336,20.07721c-8.03008,0 -15.52897,-3.69437 -19.77722,-10.2393c-1.89369,-2.91744 -2.5278,-5.73191 -3.04203,-9.21768c0.25829,-0.02407 44.96054,-0.57569 46.2126,-0.62024z" data-paper-data="{&quot;index&quot;:null}" fill="#ff5d5d" stroke="none" stroke-width="2" stroke-linecap="butt"/><path d="M274.75457,176.77785c-9.12807,0 -16.52783,-7.39977 -16.52783,-16.52784c0,-9.12808 7.39977,-16.52784 16.52783,-16.52784c9.12807,0 16.52783,7.39977 16.52783,16.52784c0,9.12808 -7.39977,16.52784 -16.52783,16.52784z" data-paper-data="{&quot;index&quot;:null}" fill="#000000" stroke="none" stroke-width="0" stroke-linecap="butt"/><path d="M276.23365,160.05772c0,0.9665 -0.70889,1.75 -1.58334,1.75c-0.87445,0 -1.58333,-0.7835 -1.58333,-1.75c0,-0.9665 0.70888,-1.75 1.58333,-1.75c0.87445,0 1.58334,0.7835 1.58334,1.75z" fill="#ff0000" stroke="none" stroke-width="0" stroke-linecap="butt"/><path d="M281.63182,183.78026c0,1.24264 -3.21796,2.25 -7.1875,2.25c-3.96954,0 -7.1875,-1.00736 -7.1875,-2.25c0,-1.24264 3.21796,-2.25 7.1875,-2.25c3.96954,0 7.1875,1.00736 7.1875,2.25z" fill="#000000" stroke="none" stroke-width="0" stroke-linecap="butt"/><path d="M284.75682,183.28026c0,1.03554 -1.0913,1.875 -2.4375,1.875c-1.3462,0 -2.4375,-0.83946 -2.4375,-1.875c0,-1.03554 1.0913,-1.875 2.4375,-1.875c1.3462,0 2.4375,0.83946 2.4375,1.875z" fill="#000000" stroke="none" stroke-width="0" stroke-linecap="butt"/><path d="M271.24108,189.10594c-0.10926,-0.14427 -0.10926,-0.32568 -0.10926,-0.32568v-0.125c0,-1.61735 -1.08804,-4.08952 0.54118,-4.61793c2.28418,-0.31818 4.59475,-0.07235 6.89246,-0.37765c0.67115,-0.08918 2.31342,-0.50506 2.83546,0.18787c0.6647,0.88228 0.10919,5.77069 -1.00431,6.16276c-0.48624,0.17121 -0.87964,-0.10667 -1.11528,-0.48678c-0.18714,1.31847 -0.38183,2.64332 -0.47544,3.96789c-0.1171,1.64433 -0.09244,6.46591 -1.62702,7.56602c-1.02233,0.73289 -2.0098,-0.09532 -2.39126,-0.97944c-0.52983,-1.22802 -0.67122,-4.34463 -0.35647,-6.1415c-0.51245,0.60705 -1.25732,1.10965 -2.02787,0.4473c-0.29546,-0.25396 -0.58668,-1.99353 -0.64092,-2.28536c-0.16958,-0.91234 -0.3769,-1.94825 -0.52126,-2.99252z" fill="#000000" stroke="none" stroke-width="0.5" stroke-linecap="butt"/><path d="M274.75682,195.96776c0,0.51776 -0.44772,0.9375 -1,0.9375c-0.55228,0 -1,-0.41974 -1,-0.9375c0,-0.51776 0.44772,-0.9375 1,-0.9375c0.55228,0 1,0.41974 1,0.9375z" fill="#000000" stroke="none" stroke-width="0" stroke-linecap="butt"/><path d="M278.08229,160.0038c0,2.14807 -1.54422,3.88942 -3.44911,3.88942c-1.90489,0 -3.44911,-1.74135 -3.44911,-3.88942c0,-2.14807 1.54422,-3.88942 3.44911,-3.88942c1.90489,0 3.44911,1.74135 3.44911,3.88942z" fill="none" stroke="#ff0000" stroke-width="1" stroke-linecap="butt"/><path d="M218.9584,180.16571l3.14683,-24.36493c0,0 15.32349,1.19613 21.14145,1.06527c2.79405,-0.06284 8.8143,-2.93822 8.8143,-2.93822c0,0 -0.32686,13.38435 1.86672,17.22313c0.77557,1.35724 5.0757,7.40851 9.94548,10.71992c2.0924,1.42282 6.51128,0.72432 7.14153,1.59167c1.86437,2.56573 -18.41262,-8.32381 -25.84018,-8.63329c-8.32088,-0.3467 -26.21612,5.33645 -26.21612,5.33645z" fill="url(#color-11)" stroke="none" stroke-width="0" stroke-linecap="butt"/><path d="M193.85869,113.28857c3.97923,-1.11856 8.86864,-0.06435 12.70428,1.2065c1.49255,0.50222 2.71438,1.47744 4.22487,1.95722c4.54847,1.44473 10.39341,0.1239 14.84747,-0.98447c4.16904,-1.64614 9.08634,-1.91678 13.46192,-0.66155c0.9482,0.27201 3.42003,0.90282 3.64321,2.04519c0.1186,0.60706 -1.07079,2.35232 -1.3547,2.91958c-1.56396,3.85649 1.05708,7.60338 0.03105,11.43024c-0.36828,1.37361 -1.91909,1.06415 -2.86098,2.03063c-1.01066,1.03704 -0.74665,3.10772 -0.74665,4.42569c-0.01018,3.97788 2.95393,5.53851 4.56529,8.7089c1.24858,2.45661 -0.14476,5.03636 -2.59182,5.92891c-0.89248,0.32552 -1.96293,0.2067 -2.89756,0.51267c-1.11498,0.33698 -3.24027,1.33617 -3.72499,2.50583c-0.56268,1.35778 -0.2938,3.25805 -0.27888,4.68809c0.03618,3.46752 0.36934,6.988 1.65812,10.22317c1.31716,3.30641 3.43217,6.93638 3.21589,10.53956c-0.06013,1.00177 -0.23583,2.48905 -1.1576,3.15322c-0.32746,0.23595 -1.8506,0.5575 -2.27546,0.19123c-0.32003,-0.27589 0.16286,-1.11285 -0.2385,-1.24496c-0.41771,-0.1375 -1.49975,0.10642 -1.93744,0.19645c-7.05323,1.40414 -11.05162,5.96018 -14.47494,12.12043c-1.44299,2.88727 -2.16808,6.0271 -3.61808,8.88229c-0.54302,1.06926 -1.3313,2.61341 -2.63458,2.89246c-2.44353,0.5232 -2.3823,-3.63891 -4.02824,-4.36038c-1.61115,-1.74035 -4.63978,0.63291 -6.73536,0.08101c-3.13513,-0.82569 -4.29709,-7.36712 -4.34645,-10.0928c-0.02687,-2.95326 -1.39318,-6.49687 -2.27183,-9.34175c-0.31516,-1.02042 -0.64645,-2.62605 -1.48328,-3.37824c-1.31473,-1.18176 -4.61117,-0.5458 -6.23024,-0.5458c-5.10655,0 -10.77802,-0.97423 -13.17894,4.76017c-0.60792,1.45197 -0.77751,3.26523 -1.23456,4.7887c-0.90644,3.02012 -1.26351,7.18625 -4.52511,8.51811c-0.67262,0.27466 -2.68218,0.80908 -3.41685,0.29256c-1.15885,-0.81473 -1.57361,-4.99545 -2.0963,-6.37201c-1.3625,-2.95835 -4.85428,-4.46535 -6.04955,-7.64954c-1.17119,-3.12004 -0.32875,-7.85578 -0.31711,-11.15356c1.59231,-6.50257 2.08254,-13.69318 2.55974,-20.37395c0.51322,-7.1618 1.22978,-13.98351 4.75367,-20.31804c3.9625,-5.7561 9.56593,-10.19844 16.1525,-12.66961c2.9525,-1.10719 5.89562,-2.35371 8.68319,-3.82793c1.34337,-0.71045 3.04498,-2.29398 4.62039,-2.37608c0.43456,-0.02264 1.01353,0.14784 1.58441,0.35184zM192.10897,113.95868c-0.20201,0.03224 -0.40974,0.09338 -0.62067,0.17591l0.27268,0.00754c0.11471,-0.06373 0.23073,-0.12487 0.34799,-0.18345z" fill="#000000" stroke="none" stroke-width="0.5" stroke-linecap="butt"/><path d="M218.70412,152.81246c0,-0.27614 0.22386,-0.5 0.5,-0.5c0.27614,0 0.5,0.22386 0.5,0.5c0,0.27614 -0.22386,0.5 -0.5,0.5c-0.27614,0 -0.5,-0.22386 -0.5,-0.5z" fill="#000000" stroke="none" stroke-width="0.5" stroke-linecap="butt"/><g stroke="none" stroke-width="0" stroke-linecap="butt"><path d="M250.30774,202.5598c0,4.73517 -3.37094,8.5738 -7.52918,8.5738c-4.15824,0 -7.52918,-3.83862 -7.52918,-8.57379c0,-4.73517 3.37092,-8.57379 7.52918,-8.57379c4.15824,0 7.52918,3.83862 7.52918,8.5738z" fill="#000000"/><path d="M242.64834,194.12921c1.20775,0 2.30837,0.21271 3.62324,0.75024c0.30042,0.12281 0.61202,1.06188 0.93864,1.11177c-0.42604,0.71873 -2.07327,3.21472 -2.09874,3.18595c-0.20257,-0.22889 -2.66146,-5.04795 -2.46314,-5.04795z" fill="url(#color-12)"/><path d="M240.04398,199.17716c-0.02547,0.02876 -1.67269,-2.46725 -2.09873,-3.18597c0.21497,-0.03284 1.32518,-1.08669 2.59123,-1.62719c0.65759,-0.28072 1.55779,-0.23481 1.97065,-0.23481c0.19831,0 -2.26057,4.81907 -2.46314,5.04796z" data-paper-data="{&quot;index&quot;:null}" fill="url(#color-13)"/></g></g></g></svg>