<svg version="1.1" xmlns="http://www.w3.org/2000/svg" xmlns:xlink="http://www.w3.org/1999/xlink" width="159.51174" height="267.22501" viewBox="0,0,159.51174,267.22501"><defs><linearGradient x1="240.00008" y1="175.50001" x2="240.00008" y2="307.50001" gradientUnits="userSpaceOnUse" id="color-1"><stop offset="0" stop-color="#000000"/><stop offset="1" stop-color="#e67c00"/></linearGradient><linearGradient x1="167.80339" y1="100.17447" x2="165.72535" y2="168.94309" gradientUnits="userSpaceOnUse" id="color-2"><stop offset="0" stop-color="#000000"/><stop offset="1" stop-color="#f7dbb5"/></linearGradient><linearGradient x1="259.64489" y1="78.60534" x2="258.95309" y2="101.49921" gradientUnits="userSpaceOnUse" id="color-3"><stop offset="0" stop-color="#000000"/><stop offset="1" stop-color="#f7dbb5"/></linearGradient><linearGradient x1="293.54529" y1="89.25825" x2="292.88473" y2="111.11832" gradientUnits="userSpaceOnUse" id="color-4"><stop offset="0" stop-color="#000000"/><stop offset="1" stop-color="#f7dbb5"/></linearGradient><linearGradient x1="278.48919" y1="83.48957" x2="277.82863" y2="105.34963" gradientUnits="userSpaceOnUse" id="color-5"><stop offset="0" stop-color="#000000"/><stop offset="1" stop-color="#f7dbb5"/></linearGradient><linearGradient x1="222.90565" y1="77.49516" x2="222.21385" y2="100.38903" gradientUnits="userSpaceOnUse" id="color-6"><stop offset="0" stop-color="#000000"/><stop offset="1" stop-color="#f7dbb5"/></linearGradient><linearGradient x1="237.87499" y1="78.35318" x2="237.18319" y2="101.24706" gradientUnits="userSpaceOnUse" id="color-7"><stop offset="0" stop-color="#000000"/><stop offset="1" stop-color="#f7dbb5"/></linearGradient><linearGradient x1="189.82414" y1="86.12403" x2="189.16358" y2="107.98409" gradientUnits="userSpaceOnUse" id="color-8"><stop offset="0" stop-color="#000000"/><stop offset="1" stop-color="#f7dbb5"/></linearGradient><linearGradient x1="204.57791" y1="81.25613" x2="203.91734" y2="103.1162" gradientUnits="userSpaceOnUse" id="color-9"><stop offset="0" stop-color="#000000"/><stop offset="1" stop-color="#f7dbb5"/></linearGradient><linearGradient x1="258.97608" y1="100.73797" x2="258.47465" y2="117.33182" gradientUnits="userSpaceOnUse" id="color-10"><stop offset="0" stop-color="#000000"/><stop offset="1" stop-color="#f7dbb5"/></linearGradient><linearGradient x1="293.3552" y1="95.54792" x2="292.87641" y2="111.39247" gradientUnits="userSpaceOnUse" id="color-11"><stop offset="0" stop-color="#000000"/><stop offset="1" stop-color="#f7dbb5"/></linearGradient><linearGradient x1="278.02244" y1="98.93607" x2="277.54365" y2="114.78062" gradientUnits="userSpaceOnUse" id="color-12"><stop offset="0" stop-color="#000000"/><stop offset="1" stop-color="#f7dbb5"/></linearGradient><linearGradient x1="222.27719" y1="98.29241" x2="221.7354" y2="116.22166" gradientUnits="userSpaceOnUse" id="color-13"><stop offset="0" stop-color="#000000"/><stop offset="1" stop-color="#f7dbb5"/></linearGradient><linearGradient x1="237.26837" y1="98.42769" x2="236.72659" y2="116.35693" gradientUnits="userSpaceOnUse" id="color-14"><stop offset="0" stop-color="#000000"/><stop offset="1" stop-color="#f7dbb5"/></linearGradient><linearGradient x1="189.65421" y1="91.74733" x2="189.15035" y2="108.42172" gradientUnits="userSpaceOnUse" id="color-15"><stop offset="0" stop-color="#000000"/><stop offset="1" stop-color="#f7dbb5"/></linearGradient><linearGradient x1="204.12518" y1="96.2378" x2="203.62132" y2="112.91218" gradientUnits="userSpaceOnUse" id="color-16"><stop offset="0" stop-color="#000000"/><stop offset="1" stop-color="#f7dbb5"/></linearGradient><linearGradient x1="240.57083" y1="101.41146" x2="237.64237" y2="198.32321" gradientUnits="userSpaceOnUse" id="color-17"><stop offset="0" stop-color="#000000"/><stop offset="1" stop-color="#ffffff"/></linearGradient><radialGradient cx="236.77484" cy="94.45686" r="15.35715" gradientUnits="userSpaceOnUse" id="color-18"><stop offset="0" stop-color="#af4300"/><stop offset="1" stop-color="#af4300" stop-opacity="0"/></radialGradient><radialGradient cx="258.08337" cy="96.38705" r="3.14285" gradientUnits="userSpaceOnUse" id="color-19"><stop offset="0" stop-color="#af4300"/><stop offset="1" stop-color="#af4300" stop-opacity="0"/></radialGradient><radialGradient cx="254.40337" cy="97.56216" r="2.64286" gradientUnits="userSpaceOnUse" id="color-20"><stop offset="0" stop-color="#af4300"/><stop offset="1" stop-color="#af4300" stop-opacity="0"/></radialGradient><radialGradient cx="267.65476" cy="96.53337" r="2.71429" gradientUnits="userSpaceOnUse" id="color-21"><stop offset="0" stop-color="#af4300"/><stop offset="1" stop-color="#af4300" stop-opacity="0"/></radialGradient><radialGradient cx="217.26432" cy="94.51045" r="4.57143" gradientUnits="userSpaceOnUse" id="color-22"><stop offset="0" stop-color="#af4300"/><stop offset="1" stop-color="#af4300" stop-opacity="0"/></radialGradient><linearGradient x1="214.04784" y1="114.22269" x2="213.18902" y2="142.64353" gradientUnits="userSpaceOnUse" id="color-23"><stop offset="0" stop-color="#000000"/><stop offset="1" stop-color="#d95300"/></linearGradient><linearGradient x1="219.53856" y1="116.84866" x2="218.81163" y2="140.90476" gradientUnits="userSpaceOnUse" id="color-24"><stop offset="0" stop-color="#000000"/><stop offset="1" stop-color="#fa6000"/></linearGradient><linearGradient x1="203.08149" y1="114.15333" x2="202.33388" y2="138.89406" gradientUnits="userSpaceOnUse" id="color-25"><stop offset="0" stop-color="#000000"/><stop offset="1" stop-color="#fa6000"/></linearGradient><linearGradient x1="266.95761" y1="115.66049" x2="266.09879" y2="144.08132" gradientUnits="userSpaceOnUse" id="color-26"><stop offset="0" stop-color="#000000"/><stop offset="1" stop-color="#d95300"/></linearGradient><linearGradient x1="259.21867" y1="118.08527" x2="258.49175" y2="142.14137" gradientUnits="userSpaceOnUse" id="color-27"><stop offset="0" stop-color="#000000"/><stop offset="1" stop-color="#fa6000"/></linearGradient><linearGradient x1="275.80844" y1="116.38855" x2="275.06082" y2="141.12927" gradientUnits="userSpaceOnUse" id="color-28"><stop offset="0" stop-color="#000000"/><stop offset="1" stop-color="#fa6000"/></linearGradient></defs><g transform="translate(-145.51988,-46.38751)"><g data-paper-data="{&quot;isPaintingLayer&quot;:true}" fill-rule="nonzero" stroke-linejoin="miter" stroke-miterlimit="10" stroke-dasharray="" stroke-dashoffset="0" style="mix-blend-mode: normal"><path d="M179.28377,313.61252v-267.22501h123.18203v267.22501z" fill-opacity="0.01" fill="#000000" stroke="none" stroke-width="0" stroke-linecap="butt"/><path d="M206.75008,307.5c0,0 2.17955,-18.9764 3.7767,-32.88207c2.77074,-24.12361 11.36615,-98.96003 11.36615,-98.96003l37.78325,-0.15789l13.57389,132z" fill="url(#color-1)" stroke="none" stroke-width="0" stroke-linecap="butt"/><path d="M231.85216,214.86615c-2.13398,1.54514 -3.08827,3.39502 -4.25035,5.58208l-0.05911,0.3547c-0.01506,0.10142 -0.1025,0.17923 -0.20811,0.17923c-0.11621,0 -0.21041,-0.0942 -0.21041,-0.21041v-0.24047c0.00236,-0.50599 -0.1423,-0.98298 -0.40109,-1.41397c-0.53521,-1.55178 -1.79894,-2.95848 -3.45683,-3.26683c-0.71072,-0.13218 -1.4219,-0.06065 -2.12365,-0.14803v0.04959h-0.3607c-0.11621,0 -0.21041,-0.0942 -0.21041,-0.21041c0,-0.08399 0.04922,-0.15649 0.12039,-0.19023l0.23067,-0.11534c0.71767,-0.43462 1.57126,-0.74066 2.20946,-1.2903c0.87711,-0.75181 1.97169,-1.94227 2.20524,-3.17148c0.00492,-0.40392 -0.04991,-0.81418 -0.10098,-1.22111c-0.1551,-0.50711 -0.36622,-1.00557 -0.27,-1.45688c0,0 0.02578,-0.1031 0.11395,-0.14444v-0.045c0,-0.11621 0.0942,-0.21041 0.21041,-0.21041c0.10342,0 0.18942,0.07462 0.20709,0.17297l0.05935,0.29676l-0.00815,0.00163l0.01121,0.0189c-0.00023,0.09705 0.00353,0.19172 0.011,0.28435c0.08928,0.22143 0.13168,0.49954 0.15186,0.76584c0.15715,0.4964 0.41389,0.95432 0.70713,1.44277c1.05053,1.56452 2.70229,2.78143 4.6032,3.09094c0.53089,0.08644 1.02528,0.06326 1.53139,0.11996v-0.06223h0.42082c0.11621,0 0.2104,0.0942 0.2104,0.21041c0,0.10013 -0.06994,0.18393 -0.16364,0.2052l-0.22508,0.05627c-0.37025,0.15268 -0.64625,0.30736 -0.95504,0.56597zM222.15348,215.05318c-0.15022,0.07772 -0.30116,0.15415 -0.45062,0.23188c0.01923,-0.00005 0.03853,0.0001 0.05791,0.00044c0.04252,-0.04563 0.0968,-0.06372 0.0968,-0.06372l0.11544,-0.02481c0.06052,-0.04813 0.12067,-0.09603 0.18046,-0.14379z" fill="#000000" stroke="none" stroke-width="0.5" stroke-linecap="butt"/><path d="M230.00616,217.1689l-0.07091,-0.0644c-0.02994,-0.02603 -0.03904,-0.07017 -0.01949,-0.10661c0.02268,-0.04228 0.07534,-0.05817 0.11763,-0.03548l0.15312,0.08213l-0.01215,0.02264c0.19522,0.07816 0.37058,0.18309 0.58062,0.25526c0.75207,0.25841 1.5906,0.13802 2.27822,-0.2262c0.20203,-0.12049 0.38483,-0.23699 0.53889,-0.38694c0.05932,-0.09295 0.12903,-0.18588 0.20473,-0.24902c0.02079,-0.03224 0.04064,-0.06596 0.05949,-0.10131l0.00777,-0.00469l-0.00264,-0.00219l0.07951,-0.0964c0.02562,-0.03233 0.07147,-0.0427 0.1091,-0.02251c0.04228,0.02268 0.05817,0.07534 0.03549,0.11763l-0.00878,0.01638c0.02401,0.03225 0.01327,0.07479 0.01327,0.07479c-0.05308,0.18299 -0.22718,0.32315 -0.3826,0.4774c-0.09801,0.13809 -0.19804,0.27667 -0.27508,0.4246c-0.15494,0.49284 0.01097,1.13965 0.18337,1.5844c0.12493,0.32456 0.37579,0.60252 0.55209,0.90073l0.06142,0.08699c0.01931,0.02616 0.02307,0.06215 0.00667,0.09271c-0.02268,0.04228 -0.07534,0.05817 -0.11762,0.03549l-0.13125,-0.0704l0.00968,-0.01804c-0.27239,-0.10518 -0.5172,-0.27001 -0.8016,-0.36064c-0.66342,-0.2114 -1.3978,0.05378 -1.89542,0.51395c-0.17828,0.1063 -0.32403,0.25163 -0.42193,0.4362l-0.04693,0.0875c-0.02268,0.04228 -0.07534,0.05818 -0.11763,0.03549c-0.03842,-0.02061 -0.05506,-0.066 -0.04074,-0.10584l0.04772,-0.1406c0.00404,-1.02259 0.01788,-1.88196 -0.457,-2.86068c-0.06188,-0.15437 -0.13211,-0.26452 -0.23703,-0.39234zM233.77322,219.60985l0.03716,0.03156c0,0 0.01622,0.01718 0.02278,0.04208c0.00712,0.00366 0.01417,0.00737 0.02116,0.01114c-0.03921,-0.05746 -0.07922,-0.11472 -0.1187,-0.17233c0.01244,0.02905 0.02497,0.05822 0.0376,0.08755z" data-paper-data="{&quot;index&quot;:null}" fill="#000000" stroke="none" stroke-width="0.5" stroke-linecap="butt"/><g fill="#000000" stroke="none" stroke-width="0.5" stroke-linecap="butt"><path d="M252.92446,293.90018l-0.22508,-0.05627c-0.0937,-0.02127 -0.16364,-0.10506 -0.16364,-0.2052c0,-0.1162 0.0942,-0.2104 0.2104,-0.2104h0.42082v0.06223c0.50611,-0.0567 1.00051,-0.03352 1.53139,-0.11996c1.9009,-0.30951 3.55266,-1.52642 4.6032,-3.09094c0.29324,-0.48845 0.54998,-0.94636 0.70713,-1.44276c0.02018,-0.2663 0.06257,-0.54442 0.15186,-0.76584c0.00746,-0.09262 0.01122,-0.1873 0.01099,-0.28434l0.01121,-0.0189l-0.00815,-0.00163l0.05935,-0.29676c0.01767,-0.09834 0.10366,-0.17297 0.20708,-0.17297c0.1162,0 0.21041,0.09421 0.21041,0.21041v0.045c0.08817,0.04134 0.11395,0.14443 0.11395,0.14443c0.09621,0.4513 -0.1149,0.94977 -0.27,1.45688c-0.05106,0.40693 -0.1059,0.81719 -0.10098,1.2211c0.23355,1.22922 1.32813,2.41968 2.20524,3.17149c0.6382,0.54964 1.49179,0.85568 2.20945,1.2903l0.23067,0.11534c0.07117,0.03373 0.12039,0.10623 0.12039,0.19023c0,0.1162 -0.0942,0.21041 -0.21041,0.21041h-0.3607v-0.04959c-0.70175,0.08738 -1.41293,0.01585 -2.12365,0.14803c-1.65789,0.30834 -2.92162,1.71505 -3.45683,3.26683c-0.2588,0.43099 -0.40346,0.90798 -0.40109,1.41397v0.24046c0,0.1162 -0.09421,0.21041 -0.21041,0.21041c-0.10561,0 -0.19305,-0.07781 -0.20811,-0.17923l-0.05912,-0.3547c-1.16208,-2.18705 -2.11637,-4.03694 -4.25035,-5.58208c-0.30879,-0.25861 -0.58479,-0.41329 -0.95504,-0.56597zM263.75864,294.79697l0.11545,0.02481c0,0 0.05428,0.0181 0.09679,0.06372c0.01938,-0.00034 0.03869,-0.00049 0.05792,-0.00044c-0.14945,-0.07773 -0.30041,-0.15416 -0.45062,-0.23188c0.0598,0.04776 0.11995,0.09566 0.18046,0.1438z" data-paper-data="{&quot;index&quot;:null}"/><path d="M261.80616,289.1689l-0.07092,-0.06441c-0.02994,-0.02603 -0.03904,-0.07017 -0.01949,-0.10661c0.02268,-0.04228 0.07535,-0.05816 0.11763,-0.03548l0.15312,0.08213l-0.01215,0.02264c0.19522,0.07815 0.37058,0.18309 0.58062,0.25525c0.75207,0.2584 1.5906,0.13802 2.27821,-0.2262c0.20204,-0.12049 0.38483,-0.23699 0.5389,-0.38694c0.05932,-0.09296 0.12903,-0.18588 0.20473,-0.24902c0.0208,-0.03224 0.04064,-0.06595 0.0595,-0.10131l0.00777,-0.00469l-0.00264,-0.00218l0.07951,-0.09639c0.02562,-0.03233 0.07148,-0.0427 0.1091,-0.02251c0.04228,0.02268 0.05817,0.07534 0.03549,0.11762l-0.00878,0.01638c0.02402,0.03225 0.01327,0.07479 0.01327,0.07479c-0.05307,0.18299 -0.22718,0.32315 -0.3826,0.4774c-0.09801,0.1381 -0.19804,0.27667 -0.27508,0.4246c-0.15494,0.49284 0.01097,1.13964 0.18337,1.58439c0.12493,0.32456 0.37579,0.60252 0.55209,0.90073l0.06142,0.08699c0.01931,0.02616 0.02306,0.06216 0.00667,0.09271c-0.02268,0.04228 -0.07534,0.05817 -0.11762,0.03549l-0.13124,-0.0704l0.00968,-0.01804c-0.2724,-0.10517 -0.5172,-0.27001 -0.8016,-0.36064c-0.66342,-0.2114 -1.39781,0.05378 -1.89542,0.51394c-0.17829,0.10631 -0.32403,0.25163 -0.42192,0.4362l-0.04694,0.08749c-0.02268,0.04228 -0.07534,0.05817 -0.11762,0.03549c-0.03843,-0.02062 -0.05506,-0.06599 -0.04075,-0.10583l0.04773,-0.1406c0.00405,-1.0226 0.01788,-1.88196 -0.457,-2.86068c-0.06188,-0.15437 -0.13211,-0.26452 -0.23703,-0.39234zM265.5732,291.60985l0.03717,0.03156c0,0 0.01621,0.01718 0.02278,0.04208c0.00712,0.00366 0.01417,0.00737 0.02116,0.01114c-0.03921,-0.05746 -0.07921,-0.11473 -0.1187,-0.17233c0.01244,0.02905 0.02497,0.05822 0.0376,0.08755z" data-paper-data="{&quot;index&quot;:null}"/><path d="M255.48847,297.16123c-0.47488,0.97872 -0.46104,1.83808 -0.457,2.86068l0.04772,0.1406c0.01432,0.03984 -0.00232,0.08522 -0.04074,0.10584c-0.04228,0.02268 -0.09494,0.00678 -0.11763,-0.0355l-0.04693,-0.08749c-0.0979,-0.18457 -0.24364,-0.32989 -0.42193,-0.4362c-0.49762,-0.46017 -1.232,-0.72535 -1.89542,-0.51394c-0.2844,0.09062 -0.52921,0.25546 -0.8016,0.36064l0.00968,0.01804l-0.13125,0.0704c-0.04228,0.02268 -0.09494,0.00679 -0.11762,-0.03549c-0.01639,-0.03056 -0.01264,-0.06655 0.00667,-0.09271l0.06142,-0.08699c0.1763,-0.29822 0.42715,-0.57617 0.55209,-0.90073c0.1724,-0.44475 0.33832,-1.09155 0.18337,-1.5844c-0.07704,-0.14793 -0.17708,-0.2865 -0.27508,-0.4246c-0.15542,-0.15425 -0.32952,-0.29441 -0.3826,-0.4774c0,0 -0.01074,-0.04254 0.01327,-0.07479l-0.00878,-0.01638c-0.02268,-0.04228 -0.00679,-0.09495 0.03549,-0.11763c0.03763,-0.02019 0.08348,-0.00982 0.1091,0.02251l0.07951,0.0964l-0.00264,0.00218l0.00777,0.00469c0.01886,0.03535 0.0387,0.06907 0.05949,0.10131c0.0757,0.06314 0.14541,0.15606 0.20473,0.24902c0.15407,0.14995 0.33686,0.26645 0.53889,0.38694c0.68761,0.36422 1.52615,0.4846 2.27822,0.2262c0.21004,-0.07216 0.3854,-0.1771 0.58062,-0.25526l-0.01215,-0.02264l0.15312,-0.08213c0.04228,-0.02268 0.09494,-0.0068 0.11763,0.03548c0.01954,0.03643 0.01045,0.08058 -0.01949,0.10661l-0.07091,0.0644c-0.10492,0.12782 -0.17515,0.23797 -0.23703,0.39234zM251.99603,299.1223c-0.03949,0.0576 -0.07949,0.11487 -0.1187,0.17233c0.00699,-0.00377 0.01404,-0.00748 0.02116,-0.01114c0.00656,-0.0249 0.02278,-0.04208 0.02278,-0.04208l0.03716,-0.03156c0.01263,-0.02932 0.02516,-0.05849 0.0376,-0.08754z" data-paper-data="{&quot;index&quot;:null}"/></g><path d="M213.67722,273.79286c0.5,0 0.5,0.5 0.5,0.5l-0.01496,0.07016c1.38313,-0.18609 2.73529,-0.65051 3.88309,-1.47288c0.41039,-0.29403 1.80043,-1.78884 2.48988,-1.39255c0.60504,0.34777 0.22946,2.49631 0.69378,1.97532c1.15136,-1.29189 2.14684,-2.9411 3.25465,-4.31723c1.59911,-1.2982 3.37531,-2.88054 5.64177,-2.34944c2.45587,0.57549 2.86216,6.4962 2.01014,8.35308c-0.85412,1.86146 -2.72526,3.17735 -4.14629,4.55702c-4.1031,3.96955 -12.73054,6.84882 -12.82543,13.12831c0.61668,1.42864 2.86136,-0.23347 3.60537,1.18534c0.79555,1.51712 -1.10625,2.90196 -1.87264,3.9186c-2.48249,3.29312 -4.28494,6.92674 -8.48609,8.1005c-1.07805,-6.57612 -0.65814,-14.6307 0.44349,-21.1824c0.99271,-3.01276 1.64427,-6.79244 3.54596,-9.48436c-0.11527,-0.0667 -0.22272,-0.19103 -0.22272,-0.42281c0,-0.5 0.5,-0.5 0.5,-0.5c0.1584,0.00028 0.31721,-0.00271 0.47616,-0.00911c0.05585,-0.06009 0.1126,-0.11936 0.17028,-0.17778l-0.14645,0.02022c0,0 0,-0.5 0.5,-0.5z" fill="#000000" stroke="none" stroke-width="0.5" stroke-linecap="butt"/><path d="M184.46894,113.96011c-1.31248,0.3655 -11.65742,3.97544 -15.52095,7.09449c-3.22278,2.62355 -4.37531,9.4614 -4.50285,12.51835c-0.15522,3.72809 0.70894,6.73257 2.97847,10.37523c2.1942,3.52148 13.86433,11.58169 15.75962,12.56014l3.8732,13.07934c0,0 -20.07723,-5.10519 -31.85412,-15.86379c-3.97945,-3.63537 -9.4353,-13.10116 -9.67466,-21.79152c-0.22775,-8.26853 4.61495,-15.82456 6.61291,-17.39157c12.12129,-9.50681 32.72938,-13.8506 32.72938,-13.8506z" data-paper-data="{&quot;index&quot;:null}" fill="url(#color-2)" stroke="none" stroke-width="0" stroke-linecap="butt"/><g stroke="none" stroke-width="0" stroke-linecap="butt"><g data-paper-data="{&quot;index&quot;:null}"><g data-paper-data="{&quot;index&quot;:null}" fill="url(#color-3)"><path d="M250.3571,99.16605c-1.40041,-1.26415 -2.35281,-3.01668 -2.64436,-5.14846c-0.80476,-5.88425 3.73018,-12.42972 10.1291,-14.6197c6.39891,-2.18999 12.23865,0.80482 13.04342,6.68907c0.80476,5.88425 -3.73019,12.4297 -10.1291,14.61969c-4.08068,1.39658 -7.93396,0.68463 -10.39904,-1.54059z"/></g><g data-paper-data="{&quot;index&quot;:null}"><path d="M281.4031,99.83136c0.18241,-6.0365 5.61865,-10.77023 12.14219,-10.5731c6.52354,0.19713 11.66404,5.25048 11.48163,11.28696c-0.18241,6.0365 -5.61865,10.77023 -12.14219,10.5731c-6.52354,-0.19713 -11.66403,-5.25046 -11.48163,-11.28696z" fill="url(#color-4)"/><path d="M266.34699,94.06267c0.18241,-6.0365 5.61866,-10.77023 12.14219,-10.5731c6.52354,0.19713 11.66403,5.25047 11.48163,11.28696c-0.18241,6.0365 -5.61865,10.77023 -12.14219,10.5731c-6.52354,-0.19713 -11.66404,-5.25047 -11.48163,-11.28696z" fill="url(#color-5)"/></g></g><g data-paper-data="{&quot;index&quot;:null}"><path d="M220.53473,99.49124c-5.99588,-2.56453 -9.94988,-9.3665 -8.83149,-15.19264c1.11838,-5.82614 6.88566,-8.4702 12.88154,-5.90567c5.99588,2.56453 9.94987,9.36651 8.83149,15.19265c-1.11838,5.82614 -6.88566,8.47019 -12.88153,5.90566z" fill="url(#color-6)"/><path d="M235.50406,100.34928c-5.99588,-2.56453 -9.94988,-9.36651 -8.83149,-15.19265c1.11838,-5.82614 6.88566,-8.47019 12.88154,-5.90566c5.99588,2.56453 9.94988,9.3665 8.83149,15.19264c-1.11838,5.82614 -6.88566,8.47019 -12.88154,5.90567z" fill="url(#color-7)"/></g><g data-paper-data="{&quot;index&quot;:null}"><path d="M189.16359,107.98409c-6.25637,-0.18905 -11.1803,-5.23585 -10.99789,-11.27235c0.18241,-6.0365 5.40207,-10.77677 11.65845,-10.58772c6.25637,0.18905 11.18029,5.23585 10.99788,11.27234c-0.18241,6.0365 -5.40207,10.77677 -11.65844,10.58772z" fill="url(#color-8)"/><path d="M203.91735,103.1162c-6.25637,-0.18905 -11.1803,-5.23586 -10.99788,-11.27235c0.18241,-6.0365 5.40207,-10.77677 11.65845,-10.58772c6.25637,0.18905 11.18029,5.23584 10.99788,11.27234c-0.18241,6.0365 -5.40208,10.77677 -11.65844,10.58772z" fill="url(#color-9)"/></g></g><path d="M304.91398,104.75125c-0.23354,7.72846 -28.76522,13.13717 -63.72729,12.08069c-34.96207,-1.05648 -63.11512,-8.17807 -62.88158,-15.90653c0.23354,-7.72846 28.76522,-13.13717 63.72729,-12.08069c34.96207,1.05648 63.11511,8.17807 62.88158,15.90654z" fill="#6c2a00" stroke="none" stroke-width="0" stroke-linecap="butt"/><g stroke="none" stroke-width="0" stroke-linecap="butt"><g data-paper-data="{&quot;index&quot;:null}" fill="url(#color-10)"><path d="M260.73503,101.40506c6.2748,1.9171 10.46179,6.8872 9.35188,11.10104c-1.1099,4.21384 -7.09641,6.07571 -13.37122,4.15863c-6.27481,-1.9171 -10.46177,-6.88721 -9.35187,-11.10105c0.4021,-1.52661 1.44427,-2.74453 2.9083,-3.58589c2.57708,-1.48102 6.46136,-1.79529 10.4629,-0.57273z"/></g><g data-paper-data="{&quot;index&quot;:null}"><path d="M293.3552,95.54792c6.52354,0.19713 11.70473,3.90385 11.57251,8.2792c-0.13221,4.37535 -5.52776,7.76247 -12.0513,7.56534c-6.52354,-0.19713 -11.70473,-3.90385 -11.57251,-8.2792c0.13221,-4.37535 5.52776,-7.76247 12.0513,-7.56534z" fill="url(#color-11)"/><path d="M278.02244,98.93607c6.52354,0.19713 11.70473,3.90385 11.57252,8.2792c-0.13221,4.37535 -5.52776,7.76247 -12.0513,7.56534c-6.52354,-0.19713 -11.70473,-3.90385 -11.57252,-8.2792c0.13221,-4.37535 5.52777,-7.76247 12.0513,-7.56534z" fill="url(#color-12)"/></g></g><g stroke="none" stroke-width="0" stroke-linecap="butt"><path d="M233.09513,104.21249c0.80292,4.61345 -3.51081,9.71648 -9.635,11.39793c-6.12419,1.68145 -11.73973,-0.69542 -12.54266,-5.30887c-0.80292,-4.61345 3.51081,-9.71646 9.635,-11.39791c6.12419,-1.68145 11.73973,0.6954 12.54266,5.30885z" fill="url(#color-13)"/><path d="M248.08632,104.34777c0.80292,4.61345 -3.51081,9.71647 -9.635,11.39792c-6.12419,1.68145 -11.73973,-0.6954 -12.54267,-5.30885c-0.80292,-4.61345 3.51081,-9.71648 9.635,-11.39792c6.12419,-1.68145 11.73973,0.6954 12.54266,5.30885z" fill="url(#color-14)"/></g><g stroke="none" stroke-width="0" stroke-linecap="butt"><path d="M200.73045,100.42684c-0.13914,4.60451 -5.32373,8.18393 -11.58009,7.99488c-6.25637,-0.18905 -11.21537,-4.07499 -11.07623,-8.6795c0.13914,-4.60451 5.32372,-8.18393 11.5801,-7.99488c6.25637,0.18905 11.21537,4.07499 11.07623,8.6795z" fill="url(#color-15)"/><path d="M215.20142,104.91731c-0.13914,4.60451 -5.32372,8.18392 -11.58009,7.99487c-6.25637,-0.18905 -11.21538,-4.07499 -11.07624,-8.6795c0.13914,-4.60451 5.32372,-8.18393 11.5801,-7.99488c6.25637,0.18905 11.21537,4.07499 11.07623,8.6795z" fill="url(#color-16)"/></g><path d="M174.60778,135.76327c0.0475,-1.57199 1.26174,-30.48359 4.14497,-36.2085c0.15453,-0.30684 29.19571,6.7858 59.05192,7.75864c32.56652,1.06115 66.19292,-3.95369 66.63094,-3.40514c0.71192,0.89156 0.02307,31.826 -0.10621,36.10421c-1.00585,33.28665 -30.56803,59.40216 -66.02896,58.33061c-35.46093,-1.07155 -64.6985,-29.29319 -63.69265,-62.57984z" fill="url(#color-17)" stroke="none" stroke-width="0" stroke-linecap="butt"/><path d="M189.44502,136.97062c0.39168,-12.96208 11.21706,-23.15241 24.17915,-22.76073c12.96208,0.39168 23.15241,11.21706 22.76073,24.17915c-0.39168,12.96208 -11.21706,23.15241 -24.17915,22.76073c-12.96208,-0.39168 -23.15241,-11.21706 -22.76073,-24.17915z" fill="#ff0000" stroke="none" stroke-width="2" stroke-linecap="butt"/><path d="M266.43939,162.78856c-12.96208,-0.39168 -23.15241,-11.21706 -22.76073,-24.17915c0.39168,-12.96208 11.21706,-23.15241 24.17915,-22.76073c12.96208,0.39168 23.15241,11.21706 22.76073,24.17915c-0.39168,12.96208 -11.21706,23.15241 -24.17915,22.76073z" data-paper-data="{&quot;index&quot;:null}" fill="#ff0000" stroke="none" stroke-width="2" stroke-linecap="butt"/><path d="M268.49221,111.40258c-3.89985,-1.04061 -11.93612,-1.22315 -11.93612,-1.22315c0,0 7.29975,-1.67398 12.34962,-0.32651c5.04987,1.34747 11.59962,6.71697 11.59962,6.71697c0,0 -7.93763,-4.07983 -12.01312,-5.16732z" data-paper-data="{&quot;index&quot;:null}" fill="#000000" stroke="none" stroke-width="0" stroke-linecap="butt"/><path d="M200.99587,163.09323l2.1199,-3.93777" fill="none" stroke="#000000" stroke-width="2" stroke-linecap="round"/><path d="M212.64495,161.64442l-0.32072,3.99213" fill="none" stroke="#000000" stroke-width="2" stroke-linecap="round"/><g fill="none" stroke="#000000" stroke-width="2" stroke-linecap="round"><path d="M275.87649,161.55422l1.87827,4.05858" data-paper-data="{&quot;index&quot;:null}"/><path d="M266.29353,167.46747l-0.07909,-4.00421" data-paper-data="{&quot;index&quot;:null}"/></g><path d="M252.12497,94.92071c-0.04885,1.61667 -6.96095,2.71956 -15.4386,2.46338c-8.47765,-0.25618 -15.31053,-1.77442 -15.26168,-3.39108c0.04885,-1.61667 6.96095,-2.71956 15.43859,-2.46338c8.47765,0.25618 15.31054,1.77442 15.26169,3.39108z" fill="url(#color-18)" stroke="none" stroke-width="0" stroke-linecap="butt"/><path d="M261.22482,96.48198c-0.03455,1.1435 -1.46903,2.02798 -3.20398,1.97556c-1.73496,-0.05243 -3.11341,-1.02192 -3.07886,-2.16541c0.03455,-1.1435 1.46903,-2.02798 3.20399,-1.97556c1.73496,0.05243 3.1134,1.02191 3.07885,2.16541z" fill="url(#color-19)" stroke="none" stroke-width="0" stroke-linecap="butt"/><path d="M257.04501,97.64198c-0.02264,0.74919 -1.2237,1.32079 -2.68264,1.2767c-1.45894,-0.04408 -2.62329,-0.68716 -2.60065,-1.43635c0.02264,-0.74919 1.22369,-1.32078 2.68264,-1.27669c1.45894,0.04408 2.6233,0.68716 2.60066,1.43634z" fill="url(#color-20)" stroke="none" stroke-width="0" stroke-linecap="butt"/><path d="M270.36779,96.61535c-0.02025,0.67033 -1.25135,1.17703 -2.74973,1.13176c-1.49838,-0.04528 -2.69663,-0.62539 -2.67638,-1.29572c0.02025,-0.67033 1.25135,-1.17703 2.74973,-1.13175c1.49838,0.04528 2.69663,0.62539 2.67637,1.29571z" fill="url(#color-21)" stroke="none" stroke-width="0" stroke-linecap="butt"/><path d="M221.83365,94.64853c-0.04766,1.57724 -2.13207,2.79402 -4.65564,2.71776c-2.52358,-0.07626 -4.53071,-1.41667 -4.48305,-2.99391c0.04766,-1.57724 2.13206,-2.79403 4.65565,-2.71777c2.52358,0.07626 4.53071,1.41668 4.48305,2.99392z" fill="url(#color-22)" stroke="none" stroke-width="0" stroke-linecap="butt"/><path d="M290.59258,140.13426c-0.01393,0.4612 -4.94596,-1.73037 -13.02906,-3.30447c-3.46078,-0.67396 -8.64205,-1.26926 -12.38671,-1.43803c-2.34849,-0.10584 -6.08782,-0.05253 -8.31298,0.16231c-8.05803,0.77798 -13.21115,3.16177 -13.21115,3.16177c0.39168,-12.96208 11.21706,-23.15241 24.17915,-22.76073c12.96208,0.39168 23.15241,11.21707 22.76073,24.17915z" data-paper-data="{&quot;index&quot;:null}" fill="none" stroke="none" stroke-width="2" stroke-linecap="butt"/><path d="M196.35196,116.02788c0,0 6.86202,-4.96422 11.98403,-6.00432c5.12202,-1.0401 12.30738,1.07159 12.30738,1.07159c0,0 -8.03263,-0.30304 -11.9882,0.5002c-4.13372,0.83942 -12.30321,4.43253 -12.30321,4.43253z" data-paper-data="{&quot;index&quot;:null}" fill="#000000" stroke="none" stroke-width="0" stroke-linecap="butt"/><path d="M290.4917,139.50338c-0.01393,0.4612 -47.33704,3.525 -47.33704,3.525c0.10469,-3.46445 1.33535,-10.54217 2.81389,-13.97899c4.05334,-9.42191 12.26477,-14.01216 21.76241,-13.72516c12.96208,0.39168 23.15241,11.21706 22.76073,24.17915z" data-paper-data="{&quot;index&quot;:null}" fill="none" stroke="none" stroke-width="0" stroke-linecap="butt"/><path d="M178.78787,153.3782c0.49977,0.0151 0.48467,0.51487 0.48467,0.51487l-0.0151,0.49977c-0.05262,0.80926 0.0696,1.65406 0.28677,2.51258c0.4021,0.69206 0.96077,1.31835 1.46036,1.96927c2.33218,3.03863 4.57869,5.88456 7.7931,8.01454c0.06918,0.04632 1.30165,1.14869 1.32922,1.14092c0.20838,-0.05876 -1.09684,-3.26124 -1.14717,-3.42938c-0.59008,-1.97128 -1.06945,-4.63216 -0.82455,-6.68722c0.28482,-2.39022 3.02224,-0.09801 3.83228,0.76219c4.42515,4.70092 8.36252,9.05387 14.37281,11.68565c2.8919,0.68668 8.01987,1.64763 10.0642,-1.13656c1.34319,-1.82928 2.09616,-4.40539 3.19115,-6.40153c1.78025,-1.57057 5.0248,-0.68553 5.83927,1.57455c0.27022,0.74984 -0.0146,1.66206 0.12474,2.38688c0.10295,0.5355 1.05579,-0.37927 1.45167,-0.75429c0.95974,-0.90918 1.81736,-1.9022 2.694,-2.89141c2.18286,-2.46144 3.91564,-5.37119 6.82139,-7.07073c0.58808,-0.34396 1.94004,-1.22512 2.65382,-0.82649c1.34302,0.75006 2.67301,4.31034 3.37546,5.71177c2.10781,2.58248 5.44868,4.00182 8.82653,3.62944c1.29657,-0.14293 2.61243,-1.20466 3.99537,-0.61461c1.50615,0.64262 1.48128,1.88182 2.22095,3.09731c1.14031,5.22753 8.01103,4.82722 11.89541,3.03197c1.0731,-0.61631 2.01236,-1.16664 3.10828,-1.67515l-0.05511,-0.05854l0.12744,-0.11997c-0.8104,-0.67197 -2.02427,-2.23235 -1.6981,-2.98345c0.44921,-1.03445 2.27102,-0.49679 2.92353,-0.21562c2.54239,1.09556 2.65585,2.78484 3.48104,5.19172c2.33994,0.70121 3.05464,-0.7925 4.17655,-2.65504c2.08255,-3.45734 3.99854,-7.13386 6.61477,-10.22722c2.23949,-2.63372 4.95341,-5.33145 7.63419,-7.52655c0.39258,-0.32146 2.04895,-1.63454 2.67391,-1.26138c1.21226,0.72384 -0.73484,4.46714 -1.10235,5.30542c-0.57784,0.81903 -1.06883,1.7738 -1.73924,2.49902c-0.22145,0.23956 0.53956,-0.36826 0.79242,-0.57439c0.504,-0.41086 0.94442,-0.89407 1.41875,-1.33885c1.6581,-1.55483 2.73134,-3.5943 3.31683,-5.73982l0.02218,-0.03065l-0.0086,-0.00376l0.34032,-0.77618c0.0769,-0.18704 0.26362,-0.31611 0.47769,-0.30965c0.19951,0.00603 0.36818,0.12813 0.44321,0.29961l0.23024,0.49749l-0.17896,0.08282c0.39724,1.03095 0.16583,2.09942 0.12681,3.3908c-0.13432,4.44484 -2.09047,8.78712 -4.4172,12.55827c-1.66794,5.94876 -6.56235,12.1744 -10.96846,16.20783c-3.81326,5.03258 -9.56108,10.16013 -15.70285,12.03785c-0.82713,0.24671 -2.28467,0.58799 -2.82,1.26866c-1.21378,1.54331 0.77502,7.13128 -2.68505,6.33081c-0.45652,-0.10562 -0.72831,-0.59297 -1.12295,-0.8456c-0.38619,-0.24722 -0.85365,-0.40181 -1.15512,-0.74719c0.01915,0.0699 0.12863,2.11271 0.11332,2.54122c-0.02721,0.76109 1.17784,3.73454 0.2219,4.36224c-1.94152,1.27486 -2.39534,-5.42688 -2.41068,-6.41781c0.00772,-0.25666 0.25673,-3.65184 0.25673,-3.65184c0,0 -2.05774,0.24503 -2.24851,0.30302c-2.82157,0.85766 -5.76424,1.4561 -8.43155,2.67386c-6.63221,1.64528 -13.30821,0.94682 -20.09276,0.74181c-6.95253,-0.21009 -12.06579,-1.56972 -18.42006,-4.33689c-5.96093,-2.62808 -12.38161,-4.0858 -16.54623,-9.64216c-1.49907,-1.59231 -3.14927,-3.67463 -4.92687,-4.77251c-1.4595,-0.90141 -2.41574,2.35111 -3.88531,1.07683c-0.87658,-0.76009 -0.87255,-3.47817 -1.0536,-4.56115c-0.07308,-0.24241 -0.14729,-0.48447 -0.21925,-0.72722c-1.23301,-4.15966 -1.60838,1.79413 -3.3298,1.74211c-1.60722,-0.04857 -1.34664,-5.24124 -1.30205,-6.49303c-0.44033,-2.5965 -0.13607,-5.31057 -0.73149,-7.89987c-0.45818,-1.99245 -1.42971,-4.06992 -2.019,-6.14741c-0.46134,-0.77069 -0.77299,-1.60207 -0.75026,-2.61532c0,0 0.00955,-0.316 0.26472,-0.43787c0.00002,-0.01812 0.00011,-0.03624 0.00027,-0.05435l0.0151,-0.49978c0,0 0.0151,-0.49977 0.51487,-0.48467z" fill="#000000" stroke="none" stroke-width="0.5" stroke-linecap="butt"/><path d="M190.33513,143.00008c0.42052,0.0253 43.75146,1.48479 44.8911,1.4234c-1.65289,9.65563 -11.38234,16.87943 -22.90255,16.53131c-12.00515,-0.36277 -21.60797,-7.64699 -21.98855,-17.95469z" data-paper-data="{&quot;index&quot;:null}" fill="#ff4242" stroke="none" stroke-width="2" stroke-linecap="butt"/><path d="M196.51553,136.90851c0.2757,-9.12391 7.89559,-16.2968 17.0195,-16.02109c9.12391,0.2757 16.2968,7.8956 16.02109,17.01951c-0.2757,9.12391 -7.8956,16.2968 -17.01951,16.02109c-9.12391,-0.2757 -16.29679,-7.8956 -16.02108,-17.0195z" fill="#000000" stroke="none" stroke-width="0" stroke-linecap="butt"/><path d="M289.35791,145.61123c-1.00742,10.43598 -11.03602,17.24261 -23.04117,16.87984c-11.52021,-0.34812 -20.79199,-8.27038 -21.854,-18.1685c1.13381,0.13167 44.47389,1.28872 44.89517,1.28865z" data-paper-data="{&quot;index&quot;:null}" fill="#ff4242" stroke="none" stroke-width="2" stroke-linecap="butt"/><path d="M266.54522,155.56004c-9.1239,-0.2757 -16.29679,-7.8956 -16.02108,-17.0195c0.2757,-9.12391 7.89561,-16.29679 17.0195,-16.02109c9.1239,0.2757 16.29678,7.89561 16.02108,17.01951c-0.2757,9.12391 -7.8956,16.29679 -17.0195,16.02109z" data-paper-data="{&quot;index&quot;:null}" fill="#000000" stroke="none" stroke-width="0" stroke-linecap="butt"/><path d="M215.11929,138.41555c-0.07599,2.51481 -1.15694,4.52267 -2.41434,4.48467c-1.2574,-0.038 -2.21512,-2.10746 -2.13913,-4.62227c0.07599,-2.51481 1.15692,-4.52267 2.41433,-4.48468c1.2574,0.038 2.21514,2.10746 2.13915,4.62227z" fill="#ff0000" stroke="none" stroke-width="0" stroke-linecap="butt"/><path d="M269.38646,140.32218c-0.08378,2.77243 -1.17103,4.98913 -2.42843,4.95113c-1.2574,-0.038 -2.20883,-2.3163 -2.12505,-5.08872c0.08378,-2.77243 1.17102,-4.98913 2.42843,-4.95113c1.2574,0.038 2.20883,2.3163 2.12505,5.08872z" fill="#ff0000" stroke="none" stroke-width="0" stroke-linecap="butt"/><path d="M189.04524,136.95854c0.39168,-12.96208 11.52868,-23.14299 24.87516,-22.7397c9.77929,0.29551 17.93775,5.38041 21.52647,15.03325c1.30905,3.52105 2.14024,10.66109 2.03556,14.12553c0,0 -48.45112,-5.95789 -48.43719,-6.41909z" fill="url(#color-23)" stroke="none" stroke-width="0" stroke-linecap="butt"/><g stroke="none" stroke-width="0" stroke-linecap="butt"><path d="M211.68444,139.18988c-0.11228,-0.00172 2.98572,-7.47872 3.57836,-8.62003c1.58807,-3.05836 3.08099,-6.15473 4.61048,-9.24203c0.79049,-1.59564 1.44905,-3.07702 2.34112,-4.3983c1.58479,0.79986 3.06503,1.77358 4.41646,2.89533c-0.88404,1.59449 -7.36834,18.20322 -8.08371,19.69009c-1.50631,3.13083 -6.86272,-0.32506 -6.86272,-0.32506z" fill="url(#color-24)"/><path d="M212.35496,114.43356c0.28809,0.0087 0.5748,0.02257 0.86006,0.04149c-1.30756,1.86452 -2.18384,4.92197 -2.72197,6.64198c-0.10409,0.33268 -0.21168,0.66398 -0.3224,0.99407c-0.98385,2.9331 -5.06423,15.66249 -5.54289,16.84328c-1.43119,0.10836 -10.32332,-1.98301 -12.39299,-1.5215c0.35232,-0.60304 6.10162,-9.17296 7.94868,-12.13032c1.84299,-2.95085 3.506,-6.00964 5.32121,-8.9795c0.24252,-0.42877 0.47175,-0.8517 0.69668,-1.26631c1.96981,-0.46814 4.03313,-0.68725 6.15362,-0.62318z" fill="url(#color-25)"/></g><path d="M290.64174,139.86754c-0.01393,0.4612 -48.93631,3.47667 -48.93631,3.47667c0.10469,-3.46445 1.36979,-10.54113 2.89487,-13.97654c4.18095,-9.41805 12.66573,-14.00004 22.48526,-13.70332c13.40139,0.40496 23.94786,11.2411 23.55617,24.20318z" data-paper-data="{&quot;index&quot;:null}" fill="url(#color-26)" stroke="none" stroke-width="0" stroke-linecap="butt"/><g data-paper-data="{&quot;index&quot;:null}" stroke="none" stroke-width="0" stroke-linecap="butt"><path d="M258.83966,140.77006c-0.62428,-1.52735 -6.0939,-18.49731 -6.88005,-20.14226c1.41669,-1.0381 2.95303,-1.92067 4.58322,-2.62338c0.81067,1.37273 1.37857,2.89117 2.07128,4.53163c1.34028,3.17402 2.64352,6.35489 4.04403,9.50355c0.52265,1.175 3.16353,8.82541 3.05135,8.82037c0,0 -5.55531,3.12617 -6.86983,-0.0899z" fill="url(#color-27)"/><path d="M266.53498,116.10833c2.12049,0.06408 4.16681,0.40738 6.10476,0.9936c0.19948,0.42744 0.40276,0.86343 0.61895,1.30606c1.63258,3.07404 3.10786,6.22767 4.76932,9.28442c1.66512,3.06349 6.88648,11.96493 7.20174,12.58814c-2.03802,-0.58563 -11.04021,0.96501 -12.46225,0.77043c-0.40648,-1.20754 -3.71081,-14.16007 -4.51577,-17.14723c-0.09059,-0.33617 -0.17798,-0.67336 -0.26179,-1.01172c-0.4333,-1.74936 -1.12337,-4.85415 -2.31596,-6.79422c0.28588,-0.00165 0.57291,0.00182 0.86099,0.01052z" fill="url(#color-28)"/></g></g></g></svg>