<svg version="1.1" xmlns="http://www.w3.org/2000/svg" xmlns:xlink="http://www.w3.org/1999/xlink" width="131.46793" height="267.22501" viewBox="0,0,131.46793,267.22501"><defs><radialGradient cx="242.83646" cy="102.55003" r="63.7549" gradientUnits="userSpaceOnUse" id="color-1"><stop offset="0" stop-color="#ffffff"/><stop offset="1" stop-color="#c3c3c3"/></radialGradient></defs><g transform="translate(-175.39754,-46.38752)"><g data-paper-data="{&quot;isPaintingLayer&quot;:true}" fill-rule="nonzero" stroke-linejoin="miter" stroke-miterlimit="10" stroke-dasharray="" stroke-dashoffset="0" style="mix-blend-mode: normal"><path d="M179.00981,313.61253v-267.22501h123.18203v267.22501z" fill-opacity="0.01" fill="#000000" stroke="none" stroke-width="0" stroke-linecap="butt"/><path d="M305.86548,131.59892c-0.40548,10.65354 -29.42535,2.085 -64.61074,0.74585c-35.18539,-1.33917 -64.78899,2.66312 -64.38351,-7.99041c0.22153,-5.82058 4.35403,-27.02609 17.99286,-37.50036c6.92698,-5.31972 15.46052,-10.06207 26.23884,-12.48623c6.84272,-1.539 15.77564,-1.89942 21.97403,-1.6635c12.80559,0.48738 24.86976,0.34805 36.65243,7.25852c1.14186,0.6697 13.44505,8.18187 18.03463,17.94074c6.46301,13.74233 8.10146,33.69541 8.10146,33.69541z" fill="url(#color-1)" stroke="#000000" stroke-width="2" stroke-linecap="butt"/><g fill="#9a9a9a" stroke="none" stroke-width="0" stroke-linecap="butt"><path d="M244.2702,132.63526l1.94763,-27.59803l37.90573,2.67508l-1.94764,27.59802z"/><path d="M256.71604,115.45568l1.03483,-14.66353l3.27881,0.23138l-1.03483,14.66353z"/><path d="M257.769,103.19104l0.16928,-2.39879l14.8905,1.05084l-0.16929,2.3988z"/><path d="M268.59449,116.36557l1.03483,-14.66353l3.2788,0.23139l-1.03483,14.66353z"/></g><g stroke="none" stroke-width="0" stroke-linecap="butt"><path d="M246.89095,84.07689c3.59681,6.12106 1.49453,14.03185 -4.69559,17.66924c-6.19011,3.63739 -14.12399,1.62398 -17.7208,-4.49708c-3.59681,-6.12106 -1.49452,-14.03184 4.69559,-17.66923c6.19011,-3.63739 14.12398,-1.62399 17.72079,4.49707z" fill="#9a9a9a"/><path d="M240.06675,98.49916c-3.83787,2.25518 -8.57507,1.59604 -11.60285,-1.31543c0.98575,-0.22179 2.21369,-0.57446 2.87675,-1.3261c0.86199,-0.97713 1.05956,-2.10985 2.21884,-2.91722c1.02497,-0.71383 2.1606,-0.49658 3.30563,-0.89183c1.38695,-0.53534 1.78653,-1.65307 2.89775,-2.46622c1.0692,-0.78241 2.37546,-0.41177 3.46195,-1.3676c0.41391,-0.36414 0.75699,-0.81588 1.09623,-1.27544c1.52839,4.25864 -0.16787,9.15859 -4.25431,11.55983z" fill="#cacaca"/><path d="M227.67585,85.38375l-3.03973,-5.17301l7.66372,-4.5033l3.03973,5.17301z" fill="#9a9a9a"/><path d="M226.57376,80.8764l-2.08278,-3.54447l5.26881,-3.09602l2.08278,3.54447z" fill="#9a9a9a"/></g><g stroke="none" stroke-width="0" stroke-linecap="butt"><path d="M233.60036,91.53369c0,0 0.50538,-1.30766 2.09489,-2.17302c1.85882,-1.01199 4.96834,-1.70718 6.97393,-3.36112c1.20125,-0.99062 3.82691,-3.47101 4.75041,-4.05928c3.24041,-2.06417 7.50711,-3.99168 7.50711,-3.99168l5.60289,8.79561c0,0 -2.0456,2.35698 -5.26568,4.40821c-1.41897,0.9039 -5.27898,2.9758 -7.5611,3.94506c-1.8312,0.77774 -4.14395,3.95555 -5.33797,4.9503c-1.29675,1.08033 -3.16157,0.28151 -3.16157,0.28151z" fill="#9a9a9a"/><path d="M250.40433,83.87822l10.12097,-6.44716l2.60957,4.09659l-10.12097,6.44716z" fill="#9a9a9a"/><path d="M239.60723,86.66038l6.53646,-4.16379l6.49194,10.19126l-6.53646,4.1638z" fill="#5f5f5f"/></g><path d="M202.67031,111.47008l-7.7436,-16.47048l13.03159,-6.1268l7.7436,16.47048z" fill="#9a9a9a" stroke="none" stroke-width="0" stroke-linecap="butt"/><path d="M206.47614,306.30001l15.14285,-131.8421l37.78325,-0.15789l13.57389,132z" fill="#5fd6f4" stroke="#000000" stroke-width="2" stroke-linecap="butt"/><path d="M219.42636,202.91268l3.12142,-26.32765l35.83075,-0.14203l2.76735,26.1059c0,0 -7.51543,4.19603 -21.55904,4.50964c-12.48458,0.27879 -20.16049,-4.14586 -20.16049,-4.14586z" fill="#387e8f" stroke="#000000" stroke-width="0" stroke-linecap="butt"/><path d="M218.1129,201.37751c0,0 -0.86037,-1.64644 -1.18821,-3.42169c-0.34066,-1.84471 -0.14619,-3.82852 0.02426,-4.24864c0.80908,-1.99419 2.99728,-3.99633 2.99728,-3.99633l40.16666,0.5c0,0 2.58695,1.45609 3.27161,3.19102c0.40553,1.02761 0.22839,2.86943 0.22839,3.47565c0,0.73804 -0.05964,2.54278 -1.11019,3.48972c-1.03264,0.9308 -3.05648,2.01028 -3.05648,2.01028z" fill="#54bed8" stroke="#000000" stroke-width="2" stroke-linecap="butt"/><path d="M249.68928,238.88698c-2.12043,1.56754 -9.37984,-4.83026 -9.37984,-4.83026c0,0 -7.15111,6.52447 -9.29851,4.99165c-2.14911,-1.53259 1.69445,-10.41655 1.69445,-10.41655c0,0 -8.41373,-4.78548 -7.61958,-7.30111c0.79398,-2.51748 10.4295,-1.60702 10.4295,-1.60702c0,0 1.94919,-9.48018 4.58738,-9.50471c2.64192,-0.02316 4.75443,9.42378 4.75443,9.42378c0,0 9.61861,-1.07594 10.45386,1.42773c0.84036,2.50147 -7.49126,7.43109 -7.49126,7.43109c0,0 3.99534,8.81736 1.86957,10.3854z" fill="#ffff00" stroke="#000000" stroke-width="2" stroke-linecap="butt"/><path d="M227.48488,196.03314l-0.25,4.5" fill="none" stroke="#000000" stroke-width="2" stroke-linecap="round"/><path d="M240.60988,200.28314l-0.125,-3.75" fill="none" stroke="#000000" stroke-width="2" stroke-linecap="round"/><path d="M255.48488,194.78314l-0.125,7.125" fill="none" stroke="#000000" stroke-width="2" stroke-linecap="round"/><path d="M176.43911,135.89504c0.17418,-4.57628 -0.44515,-16.55832 3.88532,-19.71594c2.77761,-2.02533 45.63042,-0.97028 59.11521,-0.68286c20.30406,0.43276 62.91086,4.89703 64.30388,6.54547c2.53462,2.99937 1.71084,15.21025 1.57579,18.75855c-1.26656,33.27776 -31.14413,59.15664 -66.7334,57.80211c-35.58928,-1.35453 -63.41334,-29.42956 -62.14678,-62.7073z" fill="#ec3434" stroke="#000000" stroke-width="2" stroke-linecap="butt"/><path d="M177.16241,135.97643c0.02769,-0.72747 3.09637,56.07772 61.39541,59.31224c55.70229,3.09044 65.91848,-55.48624 65.87974,-54.46811c-1.24766,32.78106 -30.7506,58.27097 -65.89665,56.9333c-35.14604,-1.33767 -62.62614,-28.99636 -61.37849,-61.77741z" fill="#a12323" stroke="#000000" stroke-width="0" stroke-linecap="butt"/><path d="M305.42608,122.32495c-0.16878,4.43463 -33.50849,3.90679 -65.14991,2.70252c-31.64141,-1.20428 -61.56673,-3.79909 -61.39795,-8.23372c0.16878,-4.43463 30.80303,-2.9376 62.44445,-1.73331c31.64141,1.20428 64.27221,2.82989 64.10342,7.26452z" fill="#b10000" stroke="#000000" stroke-width="2" stroke-linecap="butt"/><path d="M189.96271,136.83954c0.4932,-12.95862 11.39806,-23.06384 24.35669,-22.57063c12.95862,0.4932 23.06384,11.39806 22.57063,24.35669c-0.4932,12.95862 -11.39806,23.06384 -24.35669,22.57063c-12.95862,-0.4932 -23.06384,-11.39806 -22.57063,-24.35669z" fill="#ffffff" stroke="#000000" stroke-width="2" stroke-linecap="butt"/><path d="M197.03346,136.8328c0.34717,-9.12148 8.023,-16.23444 17.14448,-15.88729c9.12148,0.34717 16.23445,8.02301 15.88729,17.14449c-0.34717,9.12148 -8.02301,16.23445 -17.14449,15.88729c-9.12148,-0.34717 -16.23444,-8.02301 -15.88728,-17.14448z" fill="#000000" stroke="none" stroke-width="0" stroke-linecap="butt"/><path d="M267.00233,163.26931c-12.95862,-0.4932 -23.06384,-11.39806 -22.57063,-24.35669c0.4932,-12.95862 11.39806,-23.06384 24.35669,-22.57063c12.95862,0.4932 23.06384,11.39806 22.57063,24.35669c-0.4932,12.95862 -11.39806,23.06384 -24.35669,22.57063z" data-paper-data="{&quot;index&quot;:null}" fill="#ffffff" stroke="#000000" stroke-width="2" stroke-linecap="butt"/><path d="M266.91495,156.03232c-9.12147,-0.34716 -16.23444,-8.02301 -15.88728,-17.14448c0.34717,-9.12148 8.02301,-16.23445 17.14448,-15.88729c9.12147,0.34716 16.23444,8.02301 15.88728,17.14448c-0.34717,9.12148 -8.02301,16.23445 -17.14448,15.88729z" data-paper-data="{&quot;index&quot;:null}" fill="#000000" stroke="none" stroke-width="0" stroke-linecap="butt"/><path d="M189.87944,136.83638c0.4932,-12.95862 11.39806,-23.06384 24.35669,-22.57063c12.95862,0.4932 23.06384,11.39806 22.57063,24.35669c0,0 -46.97417,-0.55541 -46.92733,-1.78606z" fill="#ec3434" stroke="#000000" stroke-width="2" stroke-linecap="butt"/><path d="M244.1819,138.90315c0.4932,-12.95862 11.39806,-23.06384 24.35669,-22.57063c12.95862,0.4932 23.06384,11.39806 22.57063,24.35669c-0.04615,1.21291 -46.92733,-1.78606 -46.92733,-1.78606z" data-paper-data="{&quot;index&quot;:null}" fill="#ec3434" stroke="#000000" stroke-width="2" stroke-linecap="butt"/><path d="M203.68691,108.53255c0,0 6.9007,-4.91032 12.03071,-5.91026c5.13002,-0.99994 12.29861,1.16797 12.29861,1.16797c0,0 -8.03001,-0.36594 -11.99175,0.40629c-4.14016,0.80702 -12.33755,4.33602 -12.33755,4.33602z" fill="#000000" stroke="none" stroke-width="0" stroke-linecap="butt"/><path d="M267.75777,106.16552c-3.89158,-1.07113 -11.92618,-1.3166 -11.92618,-1.3166c0,0 7.31265,-1.61674 12.35181,-0.22977c5.03916,1.38697 11.54665,6.80763 11.54665,6.80763c0,0 -7.90543,-4.14189 -11.97228,-5.26126z" data-paper-data="{&quot;index&quot;:null}" fill="#000000" stroke="none" stroke-width="0" stroke-linecap="butt"/><path d="M186.4244,133.80281l3.49851,2.73505" fill="none" stroke="#000000" stroke-width="2" stroke-linecap="round"/><path d="M290.02902,139.77112l4.32627,-3.2378" fill="none" stroke="#000000" stroke-width="2" stroke-linecap="round"/><path d="M216.16184,81.58824c0.88734,1.77922 -1.7588,4.90003 -5.91034,6.97049c-4.15154,2.07048 -8.23635,2.30656 -9.12369,0.52733c-0.88734,-1.77922 1.7588,-4.90003 5.91034,-6.97049c4.15154,-2.07048 8.23635,-2.30656 9.12369,-0.52733z" fill="#ffffff" stroke="none" stroke-width="0" stroke-linecap="butt"/><path d="M222.69516,80.11425c-0.04411,1.15896 -1.01939,2.06271 -2.17835,2.01862c-1.15896,-0.04411 -2.06271,-1.01939 -2.01862,-2.17835c0.04411,-1.15896 1.01939,-2.06271 2.17835,-2.01862c1.15896,0.04411 2.06271,1.01939 2.01862,2.17835z" fill="#ffffff" stroke="none" stroke-width="0" stroke-linecap="butt"/><path d="M251.87375,179.80608c0,0 -4.24584,3.8413 -13.05889,3.64883c-7.26507,-0.15865 -12.03255,-4.60381 -12.03255,-4.60381" fill="none" stroke="#000000" stroke-width="2" stroke-linecap="round"/></g></g></svg>