<svg version="1.1" xmlns="http://www.w3.org/2000/svg" xmlns:xlink="http://www.w3.org/1999/xlink" width="143.81176" height="286.73136" viewBox="0,0,143.81176,286.73136"><defs><linearGradient x1="239.99979" y1="175.91989" x2="239.99979" y2="307.91989" gradientUnits="userSpaceOnUse" id="color-1"><stop offset="0" stop-color="#000000"/><stop offset="1" stop-color="#ff80c9"/></linearGradient><linearGradient x1="237.41007" y1="27.30101" x2="237.41007" y2="126.30791" gradientUnits="userSpaceOnUse" id="color-2"><stop offset="0" stop-color="#000000"/><stop offset="1" stop-color="#8cefef"/></linearGradient><linearGradient x1="240.07674" y1="76.96768" x2="240.07674" y2="197.56434" gradientUnits="userSpaceOnUse" id="color-3"><stop offset="0" stop-color="#000000"/><stop offset="1" stop-color="#8cefef"/></linearGradient><linearGradient x1="257.92553" y1="75.70575" x2="257.92553" y2="79.40424" gradientUnits="userSpaceOnUse" id="color-4"><stop offset="0" stop-color="#000000"/><stop offset="1" stop-color="#000000"/></linearGradient><linearGradient x1="205.19688" y1="46.21376" x2="205.19688" y2="176.34081" gradientUnits="userSpaceOnUse" id="color-5"><stop offset="0" stop-color="#000000"/><stop offset="1" stop-color="#ff80c9"/></linearGradient><linearGradient x1="208.65246" y1="75.37239" x2="208.65246" y2="78.70703" gradientUnits="userSpaceOnUse" id="color-6"><stop offset="0" stop-color="#000000"/><stop offset="1" stop-color="#ce52af"/></linearGradient><linearGradient x1="209.10174" y1="76.28109" x2="209.10174" y2="79.89737" gradientUnits="userSpaceOnUse" id="color-7"><stop offset="0" stop-color="#000000"/><stop offset="1" stop-color="#000000"/></linearGradient><linearGradient x1="212.5208" y1="75.70575" x2="212.5208" y2="79.40424" gradientUnits="userSpaceOnUse" id="color-8"><stop offset="0" stop-color="#000000"/><stop offset="1" stop-color="#000000"/></linearGradient><linearGradient x1="213.15757" y1="94.30863" x2="213.15757" y2="97.64327" gradientUnits="userSpaceOnUse" id="color-9"><stop offset="0" stop-color="#000000"/><stop offset="1" stop-color="#ce52af"/></linearGradient><linearGradient x1="212.5208" y1="94.36255" x2="212.5208" y2="99.71024" gradientUnits="userSpaceOnUse" id="color-10"><stop offset="0" stop-color="#000000"/><stop offset="1" stop-color="#000000"/></linearGradient><linearGradient x1="272.53021" y1="47.21376" x2="272.53021" y2="179.34082" gradientUnits="userSpaceOnUse" id="color-11"><stop offset="0" stop-color="#000000"/><stop offset="1" stop-color="#ff80c9"/></linearGradient><linearGradient x1="269.07462" y1="76.82055" x2="269.07462" y2="80.20644" gradientUnits="userSpaceOnUse" id="color-12"><stop offset="0" stop-color="#000000"/><stop offset="1" stop-color="#ce52af"/></linearGradient><linearGradient x1="268.62535" y1="77.74322" x2="268.62535" y2="81.41508" gradientUnits="userSpaceOnUse" id="color-13"><stop offset="0" stop-color="#000000"/><stop offset="1" stop-color="#000000"/></linearGradient><linearGradient x1="265.20628" y1="77.15903" x2="265.20628" y2="80.91437" gradientUnits="userSpaceOnUse" id="color-14"><stop offset="0" stop-color="#000000"/><stop offset="1" stop-color="#000000"/></linearGradient><linearGradient x1="264.56951" y1="96.04783" x2="264.56951" y2="99.43372" gradientUnits="userSpaceOnUse" id="color-15"><stop offset="0" stop-color="#000000"/><stop offset="1" stop-color="#ce52af"/></linearGradient><linearGradient x1="265.20628" y1="96.10258" x2="265.20628" y2="101.53246" gradientUnits="userSpaceOnUse" id="color-16"><stop offset="0" stop-color="#000000"/><stop offset="1" stop-color="#000000"/></linearGradient><linearGradient x1="238.60021" y1="70.3079" x2="238.60021" y2="99.41358" gradientUnits="userSpaceOnUse" id="color-17"><stop offset="0" stop-color="#000000"/><stop offset="1" stop-color="#e3e854"/></linearGradient><linearGradient x1="240.48062" y1="138.05501" x2="240.48062" y2="157.05501" gradientUnits="userSpaceOnUse" id="color-18"><stop offset="0" stop-color="#000000" stop-opacity="0"/><stop offset="1" stop-color="#000000"/></linearGradient></defs><g transform="translate(-166.98387,-27.30101)"><g data-paper-data="{&quot;isPaintingLayer&quot;:true}" fill-rule="nonzero" stroke-linejoin="miter" stroke-miterlimit="10" stroke-dasharray="" stroke-dashoffset="0" style="mix-blend-mode: normal"><path d="M179.28348,314.03237v-267.22501h123.18203v267.22501z" fill-opacity="0.01" fill="#000000" stroke="none" stroke-width="0" stroke-linecap="butt"/><path d="M206.7498,307.91988l15.14285,-131.8421l37.78325,-0.15789l13.57389,132z" fill="url(#color-1)" stroke="none" stroke-width="0" stroke-linecap="butt"/><path d="M237.41007,126.30791c-29.12584,0 -52.73702,-22.16344 -52.73702,-49.50345c0,-27.33999 23.61118,-49.50345 52.73702,-49.50345c29.12585,0 52.73702,22.16345 52.73702,49.50345c0,27.34 -23.61117,49.50345 -52.73702,49.50345z" fill="url(#color-2)" stroke="none" stroke-width="0" stroke-linecap="butt"/><g stroke="none" stroke-width="0" stroke-linecap="butt"><path d="M175.83972,137.26601c0,-33.30185 28.7599,-60.29833 64.23702,-60.29833c35.47712,0 64.23702,26.99649 64.23702,60.29833c0,33.30185 -28.7599,60.29833 -64.23702,60.29833c-35.47712,0 -64.23702,-26.99649 -64.23702,-60.29833z" fill="url(#color-3)"/><path d="M220.19683,87.55603c0.90999,1.60032 -2.50373,5.25823 -7.62475,8.17019c-5.12102,2.91196 -10.01012,3.97525 -10.92011,2.37493c-0.90999,-1.60032 2.50374,-5.25824 7.62475,-8.1702c5.12102,-2.91196 10.01012,-3.97524 10.9201,-2.37492z" fill="#d4f0f0"/><path d="M230.9244,85.82858c0,1.47276 -1.19391,2.66666 -2.66667,2.66666c-1.47276,0 -2.66666,-1.19391 -2.66666,-2.66666c0,-1.47276 1.19391,-2.66667 2.66666,-2.66667c1.47276,0 2.66667,1.19391 2.66667,2.66667z" fill="#d4f0f0"/></g><path d="M189.38992,137.6955c0,-12.968 10.51265,-23.48065 23.48065,-23.48065c12.968,0 23.48065,10.51265 23.48065,23.48065c0,12.968 -10.51265,23.48065 -23.48065,23.48065c-12.968,0 -23.48065,-10.51265 -23.48065,-23.48065z" fill="#ff0000" stroke="none" stroke-width="0" stroke-linecap="butt"/><path d="M267.12899,161.17611c-12.968,0 -23.48065,-10.51265 -23.48065,-23.48065c0,-12.968 10.51265,-23.48065 23.48065,-23.48065c12.968,0 23.48065,10.51265 23.48065,23.48065c0,12.968 -10.51265,23.48065 -23.48065,23.48065z" data-paper-data="{&quot;index&quot;:null}" fill="#ff0000" stroke="none" stroke-width="0" stroke-linecap="butt"/><path d="M265.96209,99.09402c-3.9295,-0.92235 -11.96762,-0.86207 -11.96762,-0.86207c0,0 7.24586,-1.8937 12.33413,-0.69937c5.08826,1.19433 11.79721,6.36355 11.79721,6.36355c0,0 -8.05724,-3.83822 -12.16372,-4.80211z" data-paper-data="{&quot;index&quot;:null}" fill="#000000" stroke="none" stroke-width="0" stroke-linecap="butt"/><path d="M185.73866,134.79556l3.6,2.6" fill="none" stroke="#000000" stroke-width="2" stroke-linecap="round"/><path d="M290.13866,137.19554l4.2,-3.4" fill="none" stroke="#000000" stroke-width="2" stroke-linecap="round"/><path d="M216.74344,90.58279c1.75965,2.67665 -1.26582,7.77325 -6.75756,11.38356c-5.49175,3.61032 -11.37016,4.3672 -13.12981,1.69055c-1.75965,-2.67665 1.26582,-7.77325 6.75757,-11.38356c5.49175,-3.61031 11.37016,-4.3672 13.12981,-1.69055z" fill="#ecfefe" stroke="none" stroke-width="0" stroke-linecap="butt"/><path d="M224.89975,88.01984c0,1.38071 -1.02975,2.5 -2.3,2.5c-1.27025,0 -2.3,-1.11929 -2.3,-2.5c0,-1.38071 1.02974,-2.5 2.3,-2.5c1.27025,0 2.3,1.11929 2.3,2.5z" fill="#ecfefe" stroke="none" stroke-width="0" stroke-linecap="butt"/><path d="M202.0276,103.89612c0,0 6.70895,-5.16922 11.79721,-6.36355c5.08827,-1.19433 12.33413,0.69937 12.33413,0.69937c0,0 -8.03812,-0.06028 -11.96762,0.86207c-4.10648,0.96389 -12.16372,4.80211 -12.16372,4.80211z" fill="#000000" stroke="none" stroke-width="0" stroke-linecap="butt"/><path d="M256.9702,79.40423l1.91065,-3.69848" fill="url(#color-4)" stroke="none" stroke-width="2" stroke-linecap="round"/><path d="M203.90263,164.1832l0.66666,-3.16666" fill="none" stroke="#000000" stroke-width="2" stroke-linecap="round"/><path d="M222.90262,164.34986v-4.66666" fill="none" stroke="#000000" stroke-width="2" stroke-linecap="round"/><path d="M255.23595,159.1832l-0.33333,4.66666" fill="none" stroke="#000000" stroke-width="2" stroke-linecap="round"/><path d="M275.84511,165.29988l-0.71429,-4.71428" fill="none" stroke="#000000" stroke-width="2" stroke-linecap="round"/><path d="M189.80069,142.83866c0.42422,0.01365 44.7679,0.00964 45.91361,-0.09419c-1.37059,10.51641 -10.94797,18.66228 -22.55898,18.66228c-4.55009,0 -11.64737,-2.12574 -15.40492,-5.40243c-6.23468,-5.4368 -7.94971,-13.16566 -7.94971,-13.16566z" data-paper-data="{&quot;index&quot;:null}" fill="#ff4242" stroke="none" stroke-width="2" stroke-linecap="butt"/><path d="M196.45531,137.41984c0,-9.12808 7.39976,-16.52784 16.52783,-16.52784c9.12808,0 16.52784,7.39977 16.52784,16.52784c0,9.12808 -7.39977,16.52784 -16.52784,16.52784c-9.12808,0 -16.52783,-7.39977 -16.52783,-16.52784z" fill="#000000" stroke="none" stroke-width="0" stroke-linecap="butt"/><path d="M282.36458,155.80432c-3.75755,3.27669 -10.85483,5.40243 -15.40492,5.40243c-11.61101,0 -21.18839,-8.14587 -22.55898,-18.66228c1.14571,0.10383 45.48939,0.10784 45.91361,0.09419c0,0 -1.71503,7.72886 -7.94971,13.16566z" data-paper-data="{&quot;index&quot;:null}" fill="#ff4242" stroke="none" stroke-width="2" stroke-linecap="butt"/><path d="M267.01644,153.94769c-9.12807,0 -16.52783,-7.39977 -16.52783,-16.52784c0,-9.12808 7.39977,-16.52784 16.52783,-16.52784c9.12807,0 16.52783,7.39977 16.52783,16.52784c0,9.12808 -7.39977,16.52784 -16.52783,16.52784z" data-paper-data="{&quot;index&quot;:null}" fill="#000000" stroke="none" stroke-width="0" stroke-linecap="butt"/><g stroke="none" stroke-width="0"><path d="M240.41873,80.29458c0,0.17786 -22.54372,41.67863 -24.11383,42.29734c-0.10852,0.04276 -25.95719,48.9306 -36.72578,53.67653c-3.41506,1.50509 -7.75576,-20.93473 -8.16689,-23.67234c-3.57614,-23.81324 0.56671,-62.68105 1.2277,-68.67473c0.99685,-9.03914 4.12158,-17.88082 5.59067,-20.73505c5.6783,-11.03211 14.42525,-16.97256 22.23582,-16.97256c10.29607,0 19.42445,10.13706 27.36306,19.15271c6.25833,7.1074 12.58925,13.26899 12.58925,14.92812z" fill="url(#color-5)" stroke-linecap="butt"/><path d="M211.62011,75.47926c0,0.29711 1.73575,3.22777 -0.18284,3.22777c-1.91858,0 -6.47244,-2.27315 -6.47244,-2.57026c0,-0.29711 1.55533,-0.53796 3.47392,-0.53796c1.91858,0 3.18136,-0.41666 3.18136,-0.11955z" data-paper-data="{&quot;index&quot;:null}" fill="url(#color-6)" stroke-linecap="butt"/><path d="M213.77781,79.89737l-9.35214,-3.61629" fill="url(#color-7)" stroke-linecap="round"/><path d="M211.56548,75.70575l1.91065,3.69848" fill="url(#color-8)" stroke-linecap="round"/><path d="M212.94386,97.41685c-1.91859,0 -3.47392,-0.24085 -3.47392,-0.53796c0,-0.29711 4.55385,-2.57026 6.47244,-2.57026c1.91859,0 0.18284,2.93066 0.18284,3.22777c0,0.29711 -1.26278,-0.11955 -3.18136,-0.11955z" data-paper-data="{&quot;index&quot;:null}" fill="url(#color-9)" stroke-linecap="butt"/><path d="M207.84474,97.97884l9.35213,-3.61629l-2.60864,5.34769" data-paper-data="{&quot;index&quot;:null}" fill="url(#color-10)" stroke-linecap="round"/></g><path d="M215.86697,138.16103c0,1.14402 -0.95939,2.07143 -2.14286,2.07143c-1.18347,0 -2.14286,-0.92741 -2.14286,-2.07143c0,-1.14402 0.95939,-2.07143 2.14286,-2.07143c1.18347,0 2.14286,0.92741 2.14286,2.07143z" fill="#ff0000" stroke="none" stroke-width="0" stroke-linecap="butt"/><path d="M269.49554,138.08484c0,1.14402 -0.95939,2.07143 -2.14286,2.07143c-1.18347,0 -2.14285,-0.9274 -2.14285,-2.07143c0,-1.14402 0.95939,-2.07143 2.14285,-2.07143c1.18347,0 2.14286,0.92741 2.14286,2.07143z" fill="#ff0000" stroke="none" stroke-width="0" stroke-linecap="butt"/><g data-paper-data="{&quot;index&quot;:null}" stroke="none" stroke-width="0"><path d="M237.30836,81.8184c0,-1.68463 6.33092,-7.94092 12.58925,-15.15756c7.93861,-9.15422 17.06699,-19.44708 27.36306,-19.44708c7.81057,0 16.55752,6.03175 22.23582,17.23342c1.46909,2.8981 4.59382,11.87567 5.59067,21.05374c0.66099,6.0858 4.80383,45.55099 1.22769,69.73024c-0.41112,2.77969 -4.75182,25.5644 -8.16688,24.03618c-10.7686,-4.81887 -36.61726,-54.4581 -36.72578,-54.50151c-1.57011,-0.62822 -24.11383,-42.76684 -24.11383,-42.94743z" fill="url(#color-11)" stroke-linecap="butt"/><path d="M269.28834,77.05045c1.91859,0 3.47392,0.24456 3.47392,0.54623c0,0.30168 -4.55386,2.60976 -6.47244,2.60976c-1.91859,0 -0.18284,-2.9757 -0.18284,-3.27738c0,-0.30168 1.26278,0.12138 3.18136,0.12138z" data-paper-data="{&quot;index&quot;:null}" fill="url(#color-12)" stroke-linecap="butt"/><path d="M273.30142,77.74321l-9.35214,3.67187" fill="url(#color-13)" stroke-linecap="round"/><path d="M266.16161,77.15903l-1.91065,3.75532" fill="url(#color-14)" stroke-linecap="round"/><path d="M261.60186,99.32521c0,-0.30168 -1.73575,-3.27738 0.18284,-3.27738c1.91859,0 6.47244,2.30808 6.47244,2.60976c0,0.30168 -1.55533,0.54623 -3.47392,0.54623c-1.91858,0 -3.18136,0.42307 -3.18136,0.12139z" data-paper-data="{&quot;index&quot;:null}" fill="url(#color-15)" stroke-linecap="butt"/><path d="M263.13885,101.53246l-2.60864,-5.42988l9.35213,3.67188" data-paper-data="{&quot;index&quot;:null}" fill="url(#color-16)" stroke-linecap="round"/></g><path d="M251.16667,185.4888c0,3.51002 -22,3.51002 -22,0c0,-3.51002 4.92487,-6.35547 11,-6.35547c6.07513,0 11,2.84545 11,6.35547z" fill="#000000" stroke="none" stroke-width="0" stroke-linecap="butt"/><path d="M207.9372,162.53294l3,0.57143" fill="none" stroke="#000000" stroke-width="0.5" stroke-linecap="round"/><path d="M208.22292,163.81865l1.42857,0.28571" fill="none" stroke="#000000" stroke-width="0.5" stroke-linecap="round"/><path d="M270.73482,162.74722l2.16667,-0.83333" fill="none" stroke="#000000" stroke-width="0.5" stroke-linecap="round"/><path d="M273.23482,163.58056l-1.33333,0.83333" fill="none" stroke="#000000" stroke-width="0.5" stroke-linecap="round"/><path d="M167.38764,132.63682c-0.23959,-1.11659 -0.9755,-4.52392 0.45035,-5.28807c0.17338,-0.09292 0.35395,-0.08421 0.53701,-0.01889v-0.2882c0,-0.41421 0.33579,-0.75 0.75,-0.75c0.41421,0 0.75,0.33579 0.75,0.75v0.84085c0.03916,-0.00491 0.08078,-0.00752 0.125,-0.00752c0.29163,0 0.46986,0.1134 0.57879,0.25201c0.03309,0.00474 0.06744,0.01147 0.10311,0.02039c0.33512,0.08378 0.4773,0.28332 0.53319,0.47422c2.34983,0.56584 3.51909,-3.92695 5.77631,-1.8132c1.28424,1.20261 0.70704,3.2189 0.50113,4.6722c-0.39589,2.79406 -1.68273,5.39999 -2.76825,8.01534c-0.78096,2.02803 -0.47488,4.21464 -0.47428,6.37805c0.0002,0.72626 -0.41476,1.57225 -0.01522,2.17874c0.31195,0.47352 1.09248,-0.39611 1.51431,-0.77505c3.54677,-3.18612 4.52111,-9.8366 5.51105,-14.27562c0.56353,-5.1426 1.2463,-12.35205 4.39158,-16.57935c2.73028,-3.66953 7.61221,-5.83772 8.91362,0.07738c0.90136,3.17224 1.18438,6.76564 1.6774,10.02088c0.10623,0.70138 -0.24884,1.29348 0.26746,1.90061c0.19746,0.2322 0.4975,-0.35788 0.70946,-0.57692c0.51343,-0.53057 0.74819,-1.27399 1.15794,-1.88816c1.45028,-2.17382 3.18424,-4.63153 5.78075,-5.32589c5.41776,0 0.57039,8.91352 1.9072,12.314c0.14154,0.36004 0.52343,-0.60788 0.88102,-0.7555c0.48013,-0.19821 2.11052,-0.62202 2.58375,-0.09444c0.34015,0.37922 0.29619,1.02123 0.18118,1.5175c-0.31353,1.35298 -1.34933,3.70551 -2.0081,5.02304c-1.08737,4.26031 -4.47577,7.60207 -6.54959,11.35723c-2.21248,4.00625 -4.14429,8.22089 -7.25962,11.66799c-2.74853,4.49934 -5.0989,8.99097 -8.86387,12.7449c-0.7854,0.7831 -1.44958,2.09188 -2.42644,2.63093c-2.20428,1.21636 -5.97549,0.18488 -6.7968,-2.12424c-3.3871,-6.81264 -4.30036,-14.17745 -5.79052,-21.63025c-0.56879,-2.50459 -0.68777,-5.14254 -0.66989,-7.79154c-0.63491,-4.28665 -1.05195,-8.62603 -1.95904,-12.8534zM168.39029,130.56516c-0.00071,-0.05479 -0.00139,-0.10959 -0.00205,-0.16438c-0.06154,-0.45981 -0.08955,-0.88095 -0.01071,-1.2874c-0.00045,-0.0915 -0.00083,-0.183 -0.00116,-0.27448c-0.13886,0.45945 -0.10104,1.07232 0.01391,1.72626z" fill="#000000" stroke="none" stroke-width="0.5" stroke-linecap="butt"/><path d="M308.43281,149.24023c0.01788,2.649 -0.10109,5.28695 -0.66989,7.79153c-1.49016,7.4528 -2.40343,14.81762 -5.79053,21.63026c-0.82131,2.30912 -4.59252,3.3406 -6.7968,2.12424c-0.97686,-0.53904 -1.64103,-1.84783 -2.42643,-2.63093c-3.76497,-3.75394 -6.11534,-8.24556 -8.86387,-12.7449c-3.11533,-3.44709 -5.04715,-7.66173 -7.25962,-11.66798c-2.07382,-3.75517 -5.46222,-7.09693 -6.54959,-11.35724c-0.65876,-1.31753 -1.69456,-3.67006 -2.00809,-5.02304c-0.115,-0.49627 -0.15898,-1.13827 0.18118,-1.5175c0.47322,-0.52758 2.10361,-0.10377 2.58374,0.09444c0.3576,0.14763 0.73949,1.11555 0.88103,0.7555c1.33681,-3.40048 -3.51057,-12.314 1.9072,-12.314c2.5965,0.69436 4.33047,3.15207 5.78075,5.32589c0.40976,0.61418 0.64451,1.3576 1.15794,1.88816c0.21197,0.21904 0.512,0.80911 0.70946,0.57691c0.5163,-0.60712 0.16123,-1.19923 0.26746,-1.90061c0.49302,-3.25524 0.77604,-6.84863 1.67741,-10.02088c1.30141,-5.9151 6.18334,-3.74691 8.91363,-0.07739c3.14528,4.22729 3.82804,11.43675 4.39157,16.57935c0.98994,4.43903 1.96428,11.0895 5.51105,14.27562c0.42183,0.37894 1.20236,1.24858 1.51431,0.77505c0.39954,-0.60648 -0.01542,-1.45247 -0.01522,-2.17874c0.00061,-2.16341 0.30669,-4.35002 -0.47428,-6.37805c-1.08552,-2.61535 -2.37237,-5.22128 -2.76825,-8.01534c-0.20592,-1.45329 -0.78311,-3.46958 0.50113,-4.6722c2.25722,-2.11374 3.42648,2.37905 5.77631,1.81321c0.05588,-0.1909 0.19807,-0.39044 0.53319,-0.47422c0.03566,-0.00892 0.07003,-0.01565 0.10311,-0.02039c0.10893,-0.13861 0.28716,-0.252 0.57879,-0.252c0.04422,0 0.08584,0.00261 0.125,0.00752v-0.84085c0,-0.41421 0.33578,-0.75 0.75,-0.75c0.41422,0 0.75,0.33579 0.75,0.75v0.2882c0.18306,-0.06531 0.36364,-0.07403 0.53701,0.01889c1.42586,0.76415 0.68995,4.17148 0.45035,5.28807c-0.9071,4.22737 -1.32413,8.56676 -1.95905,12.85341zM309.40311,132.5889c-0.00032,0.09149 -0.00071,0.18298 -0.00115,0.27448c0.07885,0.40645 0.05084,0.82759 -0.01071,1.2874c-0.00065,0.05479 -0.00135,0.10958 -0.00206,0.16438c0.11495,-0.65394 0.15277,-1.26681 0.01391,-1.72626z" data-paper-data="{&quot;index&quot;:null}" fill="#000000" stroke="none" stroke-width="0.5" stroke-linecap="butt"/><path d="M259.24593,84.80992c0,10.76008 -7.81396,14.60366 -20.52138,14.60366c-12.70741,0 -20.77011,-3.74193 -20.77011,-14.50201c0,-10.76008 7.93833,-14.60367 20.64575,-14.60367c12.70741,0 20.64575,3.74194 20.64575,14.50202z" fill="url(#color-17)" stroke="none" stroke-width="0" stroke-linecap="butt"/><path d="M240.29897,187.16773c0.45884,-1.71192 4.95967,-2.25714 6.97784,-2.44679l0.22429,-0.11215c0.03474,-0.01829 0.07431,-0.02864 0.1163,-0.02864c0.13807,0 0.25,0.11193 0.25,0.25c0,0.0598 -0.021,0.1147 -0.05603,0.15773l-0.23196,0.28995c-0.72948,1.80137 -0.8618,3.33607 -0.71384,5.27216c0.52744,3.14562 1.58091,4.40293 3.71366,6.18807l0.00601,-0.01502l0.30709,0.12284c0.09495,0.03545 0.16256,0.12697 0.16256,0.23428c0,0.13807 -0.11193,0.25 -0.25,0.25h-0.2345c-0.47568,0.07899 -0.95566,0.119 -1.43528,0.18687c-2.32647,-0.00371 -5.59744,1.0653 -7.89272,0.39868v0.03945h-0.25c-0.13807,0 -0.25,-0.11193 -0.25,-0.25c0,-0.11898 0.08311,-0.21854 0.19444,-0.2438l0.24493,-0.06123l0.00064,0.00254l0.00515,-0.00392c2.13901,-0.39949 1.69227,-3.74911 1.18822,-5.25442c-0.3366,-1.68301 -2.18106,-5.73786 -4.38338,-5.62667c0,0 -0.25,0 -0.25,-0.25c0,-0.25 0.25,-0.25 0.25,-0.25c0.84562,0.02594 1.62668,0.48009 2.30657,1.15008z" fill="#000000" stroke="none" stroke-width="0.5" stroke-linecap="butt"/><path d="M249.04423,191.96125c0,0.42677 -0.32561,0.77273 -0.72727,0.77273c-0.40166,0 -0.72727,-0.34596 -0.72727,-0.77273c0,-0.42677 0.32561,-0.77273 0.72727,-0.77273c0.40166,0 0.72727,0.34596 0.72727,0.77273z" fill="#000000" stroke="none" stroke-width="0" stroke-linecap="butt"/><path d="M225.31395,158.72168c0,0 7.20182,-6.69581 9.17716,-10.49454c1.50818,-2.90034 1.65617,-10.33879 1.65617,-10.33879c0,0 7.58853,-0.87466 6.89937,-0.64874c-0.86167,0.28247 0.59927,6.54494 3.60864,11.95901c2.72612,4.90448 8.32532,8.68973 8.32532,8.68973c0,0 -9.62854,-4.23422 -14.48402,-4.09783c-5.02742,0.14122 -15.18265,4.93116 -15.18265,4.93116z" fill="url(#color-18)" stroke="none" stroke-width="0" stroke-linecap="butt"/></g></g></svg>