<svg version="1.1" xmlns="http://www.w3.org/2000/svg" xmlns:xlink="http://www.w3.org/1999/xlink" width="861.74929" height="631.30911" viewBox="0,0,861.74929,631.30911"><defs><linearGradient x1="240" y1="-112.04204" x2="240" y2="472.04204" gradientUnits="userSpaceOnUse" id="color-1"><stop offset="0" stop-color="#000000"/><stop offset="1" stop-color="#9a0000"/></linearGradient><linearGradient x1="433.05552" y1="333.08089" x2="433.05552" y2="519.26708" gradientUnits="userSpaceOnUse" id="color-2"><stop offset="0" stop-color="#000000"/><stop offset="1" stop-color="#ff3b3b"/></linearGradient><linearGradient x1="372.99546" y1="264.01182" x2="372.99546" y2="405.15296" gradientUnits="userSpaceOnUse" id="color-3"><stop offset="0" stop-color="#000000"/><stop offset="1" stop-color="#430f0f"/></linearGradient><linearGradient x1="55.42789" y1="282.02984" x2="55.42789" y2="507.25506" gradientUnits="userSpaceOnUse" id="color-4"><stop offset="0" stop-color="#000000"/><stop offset="1" stop-color="#912121"/></linearGradient><linearGradient x1="91.61328" y1="231.41315" x2="98.23536" y2="363.24694" gradientUnits="userSpaceOnUse" id="color-5"><stop offset="0" stop-color="#000000"/><stop offset="1" stop-color="#ff80c9"/></linearGradient><linearGradient x1="81.57103" y1="83.11132" x2="86.53793" y2="181.99355" gradientUnits="userSpaceOnUse" id="color-6"><stop offset="0" stop-color="#000000"/><stop offset="1" stop-color="#8cefef"/></linearGradient><linearGradient x1="86.72598" y1="132.58167" x2="92.77598" y2="253.02648" gradientUnits="userSpaceOnUse" id="color-7"><stop offset="0" stop-color="#000000"/><stop offset="1" stop-color="#8cefef"/></linearGradient><linearGradient x1="104.48899" y1="130.42591" x2="104.67453" y2="134.11974" gradientUnits="userSpaceOnUse" id="color-8"><stop offset="0" stop-color="#000000"/><stop offset="1" stop-color="#000000"/></linearGradient><linearGradient x1="50.3472" y1="103.6163" x2="56.87531" y2="233.5795" gradientUnits="userSpaceOnUse" id="color-9"><stop offset="0" stop-color="#000000"/><stop offset="1" stop-color="#ff80c9"/></linearGradient><linearGradient x1="55.26124" y1="132.56486" x2="55.42853" y2="135.8953" gradientUnits="userSpaceOnUse" id="color-10"><stop offset="0" stop-color="#000000"/><stop offset="1" stop-color="#ce52af"/></linearGradient><linearGradient x1="55.75554" y1="133.44988" x2="55.93696" y2="137.0616" gradientUnits="userSpaceOnUse" id="color-11"><stop offset="0" stop-color="#000000"/><stop offset="1" stop-color="#000000"/></linearGradient><linearGradient x1="59.14143" y1="132.70374" x2="59.32697" y2="136.39757" gradientUnits="userSpaceOnUse" id="color-12"><stop offset="0" stop-color="#000000"/><stop offset="1" stop-color="#000000"/></linearGradient><linearGradient x1="60.71065" y1="151.25125" x2="60.87794" y2="154.58169" gradientUnits="userSpaceOnUse" id="color-13"><stop offset="0" stop-color="#000000"/><stop offset="1" stop-color="#ce52af"/></linearGradient><linearGradient x1="60.07739" y1="151.33704" x2="60.34567" y2="156.678" gradientUnits="userSpaceOnUse" id="color-14"><stop offset="0" stop-color="#000000"/><stop offset="1" stop-color="#000000"/></linearGradient><linearGradient x1="110.6359" y1="99.71154" x2="139.54305" y2="228.63763" gradientUnits="userSpaceOnUse" id="color-15"><stop offset="0" stop-color="#000000"/><stop offset="1" stop-color="#ff80c9"/></linearGradient><linearGradient x1="113.74149" y1="129.35708" x2="114.48226" y2="132.66095" gradientUnits="userSpaceOnUse" id="color-16"><stop offset="0" stop-color="#000000"/><stop offset="1" stop-color="#ce52af"/></linearGradient><linearGradient x1="113.50497" y1="130.3557" x2="114.30831" y2="133.9386" gradientUnits="userSpaceOnUse" id="color-17"><stop offset="0" stop-color="#000000"/><stop offset="1" stop-color="#000000"/></linearGradient><linearGradient x1="110.04093" y1="130.53369" x2="110.86253" y2="134.19805" gradientUnits="userSpaceOnUse" id="color-18"><stop offset="0" stop-color="#000000"/><stop offset="1" stop-color="#000000"/></linearGradient><linearGradient x1="113.55213" y1="149.1042" x2="114.29291" y2="152.40806" gradientUnits="userSpaceOnUse" id="color-19"><stop offset="0" stop-color="#000000"/><stop offset="1" stop-color="#ce52af"/></linearGradient><linearGradient x1="114.18545" y1="149.01831" x2="115.37341" y2="154.31664" gradientUnits="userSpaceOnUse" id="color-20"><stop offset="0" stop-color="#000000"/><stop offset="1" stop-color="#000000"/></linearGradient><linearGradient x1="84.9172" y1="126.00435" x2="86.37736" y2="155.07338" gradientUnits="userSpaceOnUse" id="color-21"><stop offset="0" stop-color="#000000"/><stop offset="1" stop-color="#e3e854"/></linearGradient><linearGradient x1="90.19393" y1="193.57182" x2="91.14711" y2="212.5479" gradientUnits="userSpaceOnUse" id="color-22"><stop offset="0" stop-color="#000000"/><stop offset="1" stop-color="#000000" stop-opacity="0"/></linearGradient><linearGradient x1="243.14526" y1="502.9421" x2="243.14526" y2="723.71331" gradientUnits="userSpaceOnUse" id="color-23"><stop offset="0" stop-color="#000000"/><stop offset="1" stop-color="#ffd498"/></linearGradient><linearGradient x1="243.14526" y1="502.9421" x2="243.14526" y2="723.71331" gradientUnits="userSpaceOnUse" id="color-24"><stop offset="0" stop-color="#000000"/><stop offset="1" stop-color="#ffd498"/></linearGradient><linearGradient x1="243.14527" y1="502.09209" x2="243.14527" y2="723.29517" gradientUnits="userSpaceOnUse" id="color-25"><stop offset="0" stop-color="#000000"/><stop offset="1" stop-color="#a18660"/></linearGradient><linearGradient x1="243.14527" y1="502.09209" x2="243.14527" y2="723.29517" gradientUnits="userSpaceOnUse" id="color-26"><stop offset="0" stop-color="#000000"/><stop offset="1" stop-color="#a18660"/></linearGradient><linearGradient x1="243.14526" y1="502.9421" x2="243.14526" y2="723.71331" gradientUnits="userSpaceOnUse" id="color-27"><stop offset="0" stop-color="#000000"/><stop offset="1" stop-color="#ffd498"/></linearGradient><linearGradient x1="243.14526" y1="502.9421" x2="243.14526" y2="723.71331" gradientUnits="userSpaceOnUse" id="color-28"><stop offset="0" stop-color="#000000"/><stop offset="1" stop-color="#ffd498"/></linearGradient><linearGradient x1="243.14527" y1="502.09209" x2="243.14527" y2="723.29517" gradientUnits="userSpaceOnUse" id="color-29"><stop offset="0" stop-color="#000000"/><stop offset="1" stop-color="#a18660"/></linearGradient><linearGradient x1="243.14527" y1="502.09209" x2="243.14527" y2="723.29517" gradientUnits="userSpaceOnUse" id="color-30"><stop offset="0" stop-color="#000000"/><stop offset="1" stop-color="#a18660"/></linearGradient><linearGradient x1="245.65359" y1="131.14356" x2="244.45325" y2="363.31459" gradientUnits="userSpaceOnUse" id="color-31"><stop offset="0" stop-color="#000000"/><stop offset="1" stop-color="#ffd498"/></linearGradient><linearGradient x1="245.65359" y1="131.14356" x2="244.45325" y2="363.31459" gradientUnits="userSpaceOnUse" id="color-32"><stop offset="0" stop-color="#000000"/><stop offset="1" stop-color="#ffd498"/></linearGradient><linearGradient x1="245.65823" y1="130.24966" x2="244.45553" y2="362.87486" gradientUnits="userSpaceOnUse" id="color-33"><stop offset="0" stop-color="#000000"/><stop offset="1" stop-color="#a18660"/></linearGradient><linearGradient x1="308.15309" y1="39.44224" x2="307.65288" y2="136.19278" gradientUnits="userSpaceOnUse" id="color-34"><stop offset="0" stop-color="#000000"/><stop offset="1" stop-color="#ffd498"/></linearGradient><linearGradient x1="245.22459" y1="27.0225" x2="244.62599" y2="142.80415" gradientUnits="userSpaceOnUse" id="color-35"><stop offset="0" stop-color="#000000"/><stop offset="1" stop-color="#eccfa5"/></linearGradient><linearGradient x1="236.84598" y1="29.08631" x2="236.77525" y2="42.76808" gradientUnits="userSpaceOnUse" id="color-36"><stop offset="0" stop-color="#000000"/><stop offset="1" stop-color="#000000" stop-opacity="0"/></linearGradient><linearGradient x1="244.78154" y1="118.34119" x2="244.94312" y2="128.01118" gradientUnits="userSpaceOnUse" id="color-37"><stop offset="0" stop-color="#000000"/><stop offset="1" stop-color="#ffffff"/></linearGradient><linearGradient x1="244.71544" y1="92.48177" x2="244.65745" y2="103.69922" gradientUnits="userSpaceOnUse" id="color-38"><stop offset="0" stop-color="#000000"/><stop offset="1" stop-color="#000000" stop-opacity="0"/></linearGradient><linearGradient x1="390.67793" y1="232.50817" x2="374.49939" y2="366.28878" gradientUnits="userSpaceOnUse" id="color-39"><stop offset="0" stop-color="#000000"/><stop offset="1" stop-color="#353535"/></linearGradient><linearGradient x1="372.08311" y1="230.88203" x2="363.75286" y2="299.76498" gradientUnits="userSpaceOnUse" id="color-40"><stop offset="0" stop-color="#000000"/><stop offset="1" stop-color="#353535"/></linearGradient><linearGradient x1="409.99665" y1="235.46704" x2="401.6664" y2="304.34998" gradientUnits="userSpaceOnUse" id="color-41"><stop offset="0" stop-color="#000000"/><stop offset="1" stop-color="#353535"/></linearGradient><linearGradient x1="391.09524" y1="232.63944" x2="384.21279" y2="289.55055" gradientUnits="userSpaceOnUse" id="color-42"><stop offset="0" stop-color="#000000"/><stop offset="1" stop-color="#ffffff"/></linearGradient><linearGradient x1="390.92582" y1="236.13087" x2="386.48416" y2="272.85907" gradientUnits="userSpaceOnUse" id="color-43"><stop offset="0" stop-color="#000000"/><stop offset="1" stop-color="#4953bd"/></linearGradient><linearGradient x1="382.7673" y1="250.73668" x2="380.46387" y2="269.78372" gradientUnits="userSpaceOnUse" id="color-44"><stop offset="0" stop-color="#000000"/><stop offset="1" stop-color="#000000"/></linearGradient><linearGradient x1="394.06203" y1="252.01101" x2="391.60577" y2="272.32183" gradientUnits="userSpaceOnUse" id="color-45"><stop offset="0" stop-color="#000000"/><stop offset="1" stop-color="#000000"/></linearGradient><linearGradient x1="467.25686" y1="212.88886" x2="459.97202" y2="273.12729" gradientUnits="userSpaceOnUse" id="color-46"><stop offset="0" stop-color="#000000"/><stop offset="1" stop-color="#4a4039"/></linearGradient><linearGradient x1="467.89204" y1="225.63196" x2="463.25343" y2="263.98863" gradientUnits="userSpaceOnUse" id="color-47"><stop offset="0" stop-color="#000000"/><stop offset="1" stop-color="#4953bd"/></linearGradient><linearGradient x1="404.54029" y1="109.49088" x2="387.95608" y2="246.62592" gradientUnits="userSpaceOnUse" id="color-48"><stop offset="0" stop-color="#000000"/><stop offset="1" stop-color="#4a413a"/></linearGradient><linearGradient x1="403.13456" y1="120.48817" x2="389.27896" y2="235.06026" gradientUnits="userSpaceOnUse" id="color-49"><stop offset="0" stop-color="#000000"/><stop offset="1" stop-color="#ffb7b7"/></linearGradient><radialGradient cx="395.38986" cy="177.32737" r="14.86673" gradientUnits="userSpaceOnUse" id="color-50"><stop offset="0" stop-color="#ff0000"/><stop offset="1" stop-color="#ff0000" stop-opacity="0"/></radialGradient><linearGradient x1="249.12158" y1="513.26107" x2="249.12158" y2="327.07488" gradientUnits="userSpaceOnUse" id="color-51"><stop offset="0" stop-color="#8b2c2c"/><stop offset="1" stop-color="#300000"/></linearGradient><linearGradient x1="412.78525" y1="445.6935" x2="412.78525" y2="450.19801" gradientUnits="userSpaceOnUse" id="color-52"><stop offset="0" stop-color="#000000"/><stop offset="1" stop-color="#ff3b3b"/></linearGradient><linearGradient x1="231.00151" y1="-50.21214" x2="231.00151" y2="126.96504" gradientUnits="userSpaceOnUse" id="color-53"><stop offset="0" stop-color="#000000"/><stop offset="1" stop-color="#000000" stop-opacity="0"/></linearGradient><linearGradient x1="239.00451" y1="454.78787" x2="239.00451" y2="246.07916" gradientUnits="userSpaceOnUse" id="color-54"><stop offset="0" stop-color="#000000"/><stop offset="1" stop-color="#000000" stop-opacity="0"/></linearGradient><linearGradient x1="228.33174" y1="309.28365" x2="228.33174" y2="332.35865" gradientTransform="translate(-277.54347,-653.1798) scale(2,2)" gradientUnits="userSpaceOnUse" id="color-55"><stop offset="0" stop-color="#542323"/><stop offset="1" stop-color="#ff0000"/></linearGradient><linearGradient x1="252.79854" y1="329.35291" x2="252.79854" y2="362.92791" gradientTransform="translate(-174.40916,-487.31948) scale(0.80859,1.37453)" gradientUnits="userSpaceOnUse" id="color-56"><stop offset="0" stop-color="#900000"/><stop offset="1" stop-color="#b10000"/></linearGradient></defs><g transform="translate(217.09463,112.04204)"><g data-paper-data="{&quot;isPaintingLayer&quot;:true}" fill-rule="nonzero" stroke-linejoin="miter" stroke-miterlimit="10" stroke-dasharray="" stroke-dashoffset="0" style="mix-blend-mode: normal"><path d="M-164.65465,472.04204v-584.08408h809.30931v584.08408z" fill="url(#color-1)" stroke="none" stroke-width="0" stroke-linecap="butt"/><path d="M638.76122,426.17398c0,51.4139 -92.09758,93.09309 -205.70571,93.09309c-113.60812,0 -205.70571,-41.6792 -205.70571,-93.09309c0,-51.4139 92.09758,-93.09309 205.70571,-93.09309c113.60812,0 205.70571,41.6792 205.70571,93.09309z" fill="url(#color-2)" stroke="none" stroke-width="0" stroke-linecap="butt"/><path d="M550.17264,334.58239c0,25.83405 -34.85148,48.42589 -86.84913,60.72342c-26.44963,6.25538 -57.33575,9.84715 -90.32805,9.84715c-97.85225,0 -177.17718,-31.59552 -177.17718,-70.57057c0,-38.97505 79.32492,-70.57057 177.17718,-70.57057c97.85225,0 177.17718,31.59552 177.17718,70.57057z" fill="url(#color-3)" stroke="none" stroke-width="0" stroke-linecap="butt"/><path d="M327.95041,394.64245c0,62.19423 -122.01249,112.61261 -272.52252,112.61261c-150.51003,0 -272.52252,-50.41838 -272.52252,-112.61261c0,-62.19423 122.01249,-112.61261 272.52252,-112.61261c150.51003,0 272.52252,50.41838 272.52252,112.61261z" fill="url(#color-4)" stroke="none" stroke-width="0" stroke-linecap="butt"/><path d="M37.90215,372.39769l-13.40594,-266.88853l123.02693,-6.1797l13.40594,266.88853z" fill-opacity="0.01" fill="#000000" stroke="none" stroke-width="0" stroke-linecap="butt"/><path d="M65.02722,364.91499l8.50963,-132.43576l37.72776,-2.05318l20.17887,131.15283z" fill="url(#color-5)" stroke="none" stroke-width="0" stroke-linecap="butt"/><path d="M86.53793,181.99355c-29.08916,1.46116 -53.78249,-19.48986 -55.15406,-46.79545c-1.37157,-27.30556 21.098,-50.62562 50.18717,-52.08678c29.08917,-1.46117 53.7825,19.48987 55.15407,46.79545c1.37157,27.30557 -21.09799,50.62562 -50.18717,52.08679z" fill="url(#color-6)" stroke="none" stroke-width="0" stroke-linecap="butt"/><g stroke="none" stroke-width="0" stroke-linecap="butt"><path d="M25.59484,196.02667c-1.67066,-33.25992 25.69868,-61.6652 61.13114,-63.44499c35.43245,-1.77979 65.51048,23.73991 67.18114,56.99981c1.67066,33.25992 -25.69869,61.66521 -61.13113,63.445c-35.43245,1.77979 -65.51047,-23.73991 -67.18113,-56.99982z" fill="url(#color-7)"/><path d="M67.40229,144.15401c0.98913,1.55266 -2.23678,5.37722 -7.20527,8.54242c-4.96849,3.1652 -9.79809,4.47243 -10.78722,2.91977c-0.98913,-1.55265 2.2368,-5.37722 7.20528,-8.54242c4.96848,-3.1652 9.79808,-4.47241 10.7872,-2.91976z" fill="#d4f0f0"/><path d="M78.02968,141.89056c0.07389,1.47091 -1.05862,2.7232 -2.52953,2.79708c-1.47091,0.07389 -2.72319,-1.05863 -2.79708,-2.52952c-0.07389,-1.47091 1.05862,-2.72321 2.52952,-2.79709c1.47091,-0.07389 2.7232,1.05863 2.79709,2.52953z" fill="#d4f0f0"/></g><path d="M39.14953,195.77584c-0.65057,-12.95167 9.32146,-23.97847 22.27313,-24.62904c12.95167,-0.65057 23.97848,9.32145 24.62905,22.27312c0.65057,12.95167 -9.32146,23.97848 -22.27313,24.62904c-12.95167,0.65057 -23.97847,-9.32145 -24.62904,-22.27312z" fill="#ff0000" stroke="none" stroke-width="0" stroke-linecap="butt"/><path d="M117.96867,215.32693c-12.95167,0.65057 -23.97847,-9.32145 -24.62904,-22.27312c-0.65057,-12.95167 9.32146,-23.97847 22.27312,-24.62904c12.95167,-0.65057 23.97847,9.32145 24.62904,22.27312c0.65057,12.95167 -9.32145,23.97847 -22.27312,24.62904z" data-paper-data="{&quot;index&quot;:null}" fill="#ff0000" stroke="none" stroke-width="0" stroke-linecap="butt"/><path d="M113.68875,153.38156c-3.97083,-0.72405 -11.9958,-0.2606 -11.9958,-0.2606c0,0 7.14173,-2.25482 12.28351,-1.31726c5.14177,0.93756 12.1016,5.7637 12.1016,5.7637c0,0 -8.23964,-3.42917 -12.38931,-4.18584z" data-paper-data="{&quot;index&quot;:null}" fill="#000000" stroke="none" stroke-width="0" stroke-linecap="butt"/><path d="M35.35738,193.06273l3.7259,2.41613" fill="none" stroke="#000000" stroke-width="2" stroke-linecap="round"/><path d="M143.77047,186.61581l-4.02414,3.60642" fill="none" stroke="#000000" stroke-width="2" stroke-linecap="round"/><path d="M64.10509,147.35021c1.89172,2.585 -0.87426,7.82696 -6.17797,11.70823c-5.30372,3.88128 -11.13676,4.93212 -13.02847,2.34711c-1.89171,-2.585 0.87427,-7.82697 6.17798,-11.70824c5.30371,-3.88127 11.13675,-4.93211 13.02847,-2.3471z" fill="#ecfefe" stroke="none" stroke-width="0" stroke-linecap="butt"/><path d="M72.12255,144.3813c0.06927,1.37897 -0.90304,2.54851 -2.17168,2.61224c-1.26865,0.06373 -2.35326,-1.0025 -2.42252,-2.38147c-0.06927,-1.37897 0.90303,-2.54851 2.17169,-2.61223c1.26865,-0.06373 2.35325,1.00249 2.42252,2.38146z" fill="#ecfefe" stroke="none" stroke-width="0" stroke-linecap="butt"/><path d="M50.07567,161.38502c0,0 6.44118,-5.49928 11.46311,-6.94737c5.02195,-1.44809 12.35368,0.07972 12.35368,0.07972c0,0 -8.03102,0.34305 -11.9093,1.46137c-4.05295,1.16869 -11.9075,5.40628 -11.9075,5.40628z" fill="#000000" stroke="none" stroke-width="0" stroke-linecap="butt"/><path d="M103.7204,134.16766l1.7227,-3.78968" fill="url(#color-8)" stroke="none" stroke-width="2" stroke-linecap="round"/><path d="M55.47974,218.30602l-0.50696,3.19611" fill="none" stroke="#000000" stroke-width="2" stroke-linecap="round"/><path d="M73.72309,216.05461l0.23411,4.66079" fill="none" stroke="#000000" stroke-width="2" stroke-linecap="round"/><path d="M105.89183,218.61067l0.0988,-4.6775" fill="none" stroke="#000000" stroke-width="2" stroke-linecap="round"/><path d="M125.9308,214.33574l0.94989,4.67251" fill="none" stroke="#000000" stroke-width="2" stroke-linecap="round"/><path d="M39.8178,200.89192c0.42437,-0.00765 44.71202,-2.23625 45.85108,-2.39743c-0.84128,10.57192 -9.99795,19.18801 -21.59434,19.7705c-4.54436,0.22826 -11.73935,-1.53875 -15.65655,-4.6228c-6.49958,-5.11718 -8.60019,-12.75027 -8.60019,-12.75027z" data-paper-data="{&quot;index&quot;:null}" fill="#ff4242" stroke="none" stroke-width="2" stroke-linecap="butt"/><path d="M50.02552,191.81275c-0.45793,-9.11658 6.56129,-16.87825 15.67787,-17.33618c9.11659,-0.45793 16.87825,6.5613 17.33618,15.67787c0.45793,9.11659 -6.5613,16.87825 -15.67787,17.33619c-9.11659,0.45793 -16.87825,-6.5613 -17.33618,-15.67787z" fill="#000000" stroke="none" stroke-width="0" stroke-linecap="butt"/><path d="M132.91559,209.19758c-3.58844,3.46107 -10.57014,5.94018 -15.1145,6.16844c-11.59639,0.58249 -21.57036,-7.07264 -23.46681,-17.50705c1.14947,0.04622 45.43752,-2.17437 45.86053,-2.20929c0,0 -1.32513,7.80517 -7.27921,13.5479z" data-paper-data="{&quot;index&quot;:null}" fill="#ff4242" stroke="none" stroke-width="2" stroke-linecap="butt"/><path d="M118.49363,204.9466c-9.11657,0.45793 -16.87824,-6.5613 -17.33617,-15.67787c-0.45793,-9.11658 6.5613,-16.87825 15.67786,-17.33618c9.11657,-0.45793 16.87825,6.5613 17.33618,15.67788c0.45793,9.11659 -6.5613,16.87825 -15.67786,17.33619z" data-paper-data="{&quot;index&quot;:null}" fill="#000000" stroke="none" stroke-width="0" stroke-linecap="butt"/><g stroke="none" stroke-width="0"><path d="M87.23444,135.88723c0.00893,0.17763 -20.42443,42.75711 -21.96152,43.45381c-0.10624,0.04815 -23.4698,50.17119 -33.98674,55.45137c-3.33525,1.67452 -8.79623,-20.51928 -9.34418,-23.23282c-4.76628,-23.60385 -2.57854,-62.63055 -2.21907,-68.64985c0.54212,-9.07776 3.21936,-18.06507 4.54341,-20.98941c5.1177,-11.30308 13.55562,-17.67486 21.35636,-18.0667c10.2831,-0.51653 19.90854,9.14983 28.28944,17.75587c6.60701,6.78449 13.23907,12.62072 13.32231,14.27776z" fill="url(#color-9)" stroke-linecap="butt"/><path d="M58.23051,132.52272c0.0149,0.29673 1.89549,3.13663 -0.02069,3.23288c-1.91616,0.09625 -6.57833,-1.94559 -6.59323,-2.24232c-0.0149,-0.29673 1.52638,-0.61531 3.44256,-0.71156c1.91616,-0.09625 3.15646,-0.57573 3.17136,-0.279z" data-paper-data="{&quot;index&quot;:null}" fill="url(#color-10)" stroke-linecap="butt"/><path d="M51.08535,133.68445l9.52179,3.14257" fill="url(#color-11)" stroke-linecap="round"/><path d="M58.18731,132.75166l2.09379,3.59797" fill="url(#color-12)" stroke-linecap="round"/><path d="M60.65314,154.36627c-1.91618,0.09625 -3.48163,-0.06627 -3.49654,-0.363c-0.0149,-0.29674 4.41917,-2.79548 6.33534,-2.89173c1.91617,-0.09625 0.32964,2.91779 0.34454,3.21453c0.0149,0.29674 -1.26718,-0.05605 -3.18335,0.0402z" data-paper-data="{&quot;index&quot;:null}" fill="url(#color-13)" stroke-linecap="butt"/><path d="M55.58864,155.18337l9.15894,-4.08091l-2.33708,5.47182" data-paper-data="{&quot;index&quot;:null}" fill="url(#color-14)" stroke-linecap="round"/></g><path d="M69.11658,189.91251c0.05739,1.14258 -0.85426,2.11695 -2.03624,2.17632c-1.18198,0.05937 -2.18669,-0.81874 -2.24408,-1.96132c-0.05739,-1.14258 0.85426,-2.11695 2.03624,-2.17632c1.18198,-0.05937 2.18669,0.81874 2.24408,1.96132z" fill="#ff0000" stroke="none" stroke-width="0" stroke-linecap="butt"/><path d="M120.00714,186.81269c0.05739,1.14258 -0.85426,2.11695 -2.03624,2.17632c-1.18198,0.05937 -2.18667,-0.81873 -2.24407,-1.96132c-0.05739,-1.14258 0.85426,-2.11695 2.03623,-2.17632c1.18198,-0.05937 2.18669,0.81874 2.24408,1.96132z" fill="#ff0000" stroke="none" stroke-width="0" stroke-linecap="butt"/><g data-paper-data="{&quot;index&quot;:null}" stroke="none" stroke-width="0"><path d="M83.83826,141.18378c-0.36857,-1.64382 4.44021,-9.13364 8.96805,-17.54466c5.74349,-10.66927 12.39882,-22.70992 22.44546,-24.96252c7.62134,-1.70883 17.47603,2.26312 25.46751,11.9511c2.06755,2.50647 7.08072,10.58292 10.06142,19.32054c1.97644,5.79375 14.65324,43.39646 16.45374,67.77232c0.207,2.8023 0.95634,25.98468 -2.71032,25.24064c-11.562,-2.34614 -47.64465,-45.12754 -47.76004,-45.14615c-1.66952,-0.26949 -32.88629,-36.45505 -32.9258,-36.63127z" fill="url(#color-15)" stroke-linecap="butt"/><path d="M114.00034,129.53466c1.87211,-0.41975 3.44326,-0.52141 3.50926,-0.22705c0.06601,0.29437 -3.87256,3.54285 -5.74466,3.9626c-1.87211,0.41975 -0.82945,-2.86361 -0.89545,-3.15798c-0.06601,-0.29437 1.25874,-0.15784 3.13085,-0.5776z" data-paper-data="{&quot;index&quot;:null}" fill="url(#color-16)" stroke-linecap="butt"/><path d="M118.06776,129.33265l-8.32223,5.629" fill="url(#color-17)" stroke-linecap="round"/><path d="M110.97311,130.32469l-1.04276,4.08235" fill="url(#color-18)" stroke-linecap="round"/><path d="M111.37341,152.95146c-0.06601,-0.29437 -2.41073,-2.81824 -0.53861,-3.23799c1.87211,-0.41975 6.8206,0.83611 6.8866,1.13047c0.06601,0.29437 -1.39814,0.87328 -3.27025,1.29304c-1.87211,0.41976 -3.01172,1.10885 -3.07774,0.81448z" data-paper-data="{&quot;index&quot;:null}" fill="url(#color-19)" stroke-linecap="butt"/><path d="M113.35608,154.76896l-3.73341,-4.72761l9.92892,1.53684" data-paper-data="{&quot;index&quot;:null}" fill="url(#color-20)" stroke-linecap="round"/></g><path d="M103.24615,240.4098c0.17609,3.5056 -21.79621,4.60927 -21.9723,1.10368c-0.17609,-3.5056 4.59983,-6.59454 10.66732,-6.8993c6.06748,-0.30477 11.1289,2.29003 11.30499,5.79563z" fill="#000000" stroke="none" stroke-width="0" stroke-linecap="butt"/><path d="M61.94437,220.07175l-3.02489,-0.42021" fill="none" stroke="#000000" stroke-width="0.5" stroke-linecap="round"/><path d="M59.26934,220.9213l1.4411,0.21368" fill="none" stroke="#000000" stroke-width="0.5" stroke-linecap="round"/><path d="M123.77092,215.77419l-2.12214,0.94098" fill="none" stroke="#000000" stroke-width="0.5" stroke-linecap="round"/><path d="M122.89758,218.32121l1.28985,-0.89917" fill="none" stroke="#000000" stroke-width="0.5" stroke-linecap="round"/><path d="M16.92117,191.82733c-0.2953,-1.10316 -1.20123,-4.46928 0.18449,-5.304c0.1685,-0.1015 0.34928,-0.10186 0.53539,-0.04581l-0.01446,-0.28784c-0.02078,-0.41369 0.29774,-0.7659 0.71143,-0.78668c0.41369,-0.02078 0.7659,0.29774 0.78668,0.71143l0.04218,0.83979c0.03887,-0.00687 0.0803,-0.01156 0.12447,-0.01378c0.29126,-0.01463 0.47496,0.08969 0.5907,0.22266c0.03328,0.00307 0.06793,0.00808 0.104,0.0152c0.3389,0.06686 0.49092,0.25901 0.55631,0.44687c2.37526,0.44725 3.31765,-4.09855 5.67807,-2.1007c1.34296,1.13667 0.86764,3.17937 0.73489,4.64118c-0.25522,2.81041 -1.4097,5.47761 -2.36266,8.14413c-0.67824,2.06465 -0.26284,4.23316 -0.15371,6.39381c0.03664,0.72534 -0.33537,1.59107 0.0941,2.17676c0.33531,0.45728 1.07124,-0.45042 1.47353,-0.85004c3.38247,-3.36004 4.02194,-10.05103 4.78794,-14.53412c0.30483,-5.1644 0.62506,-12.39902 3.55431,-16.77879c2.54275,-3.80188 7.30976,-6.21225 8.90628,-0.36989c1.05937,3.12303 1.5223,6.6977 2.17801,9.92411c0.14129,0.69517 -0.18364,1.30433 0.36247,1.8848c0.20886,0.222 0.47892,-0.38238 0.67963,-0.61178c0.48616,-0.55566 0.68333,-1.30992 1.06175,-1.94387c1.3394,-2.24384 2.94788,-4.78545 5.50628,-5.60919c5.41094,-0.27179 1.01684,8.87368 2.52256,12.20282c0.15942,0.35249 0.49227,-0.63337 0.84201,-0.79875c0.46958,-0.22205 2.07666,-0.72711 2.57576,-0.22394c0.35874,0.36168 0.34705,1.00508 0.25708,1.5065c-0.24526,1.36701 -1.16174,3.76854 -1.75358,5.11746c-0.87228,4.30949 -4.08876,7.81704 -5.97159,11.6715c-2.00871,4.1122 -3.72665,8.41845 -6.66512,12.01749c-2.51935,4.63156 -4.64143,9.23544 -8.21334,13.17353c-0.74513,0.82152 -1.34281,2.16196 -2.2914,2.74934c-2.14048,1.32541 -5.95869,0.48442 -6.89481,-1.78059c-3.72461,-6.63414 -5.00619,-13.94385 -6.86836,-21.31251c-0.69372,-2.4729 -0.94489,-5.10157 -1.05992,-7.74813c-0.84916,-4.2494 -1.48337,-8.5624 -2.60139,-12.73893zM17.81863,189.70797c-0.00346,-0.05469 -0.00689,-0.10938 -0.01029,-0.16407c-0.08453,-0.45614 -0.13364,-0.87534 -0.07529,-1.28524c-0.00504,-0.09136 -0.01,-0.18273 -0.01492,-0.27408c-0.11564,0.46584 -0.04712,1.07604 0.10049,1.72339z" fill="#000000" stroke="none" stroke-width="0.5" stroke-linecap="butt"/><path d="M165.98598,190.88216c0.74601,2.54185 1.35741,5.11073 1.49966,7.67514c0.61785,7.57517 1.76612,14.90701 0.3841,22.38863c-0.15429,2.44598 -3.49617,4.47523 -5.95004,3.91228c-1.08747,-0.24947 -2.08609,-1.32502 -3.05663,-1.86181c-4.65249,-2.57321 -8.14794,-6.24481 -12.02831,-9.8143c-3.9435,-2.45693 -6.96035,-5.97741 -10.18967,-9.22032c-3.02695,-3.03967 -7.204,-5.32021 -9.42155,-9.11692c-0.99582,-1.08544 -2.63891,-3.0622 -3.31259,-4.27671c-0.2471,-0.44548 -0.46603,-1.0506 -0.24332,-1.50878c0.30981,-0.63742 1.99388,-0.67854 2.51002,-0.62007c0.38441,0.04354 1.01787,0.86903 1.05489,0.48395c0.34965,-3.63704 -6.76305,-10.87289 -1.55437,-12.36349c2.68733,-0.04683 5.03057,1.83898 7.02298,3.52988c0.56293,0.47774 0.99314,1.12787 1.63273,1.4967c0.26405,0.15226 0.71485,0.63703 0.84081,0.35945c0.32933,-0.72573 -0.17494,-1.19731 -0.26578,-1.90085c-0.42163,-3.26526 -1.13819,-6.79783 -1.1444,-10.09565c-0.37624,-6.04487 4.91381,-5.30353 8.54834,-2.52682c4.18696,3.19878 6.82691,9.94215 8.78358,14.73123c2.17306,3.99535 4.93955,10.12109 9.22603,12.20842c0.50981,0.24826 1.49949,0.86959 1.66912,0.32851c0.21725,-0.693 -0.41445,-1.39218 -0.61407,-2.09047c-0.59464,-2.08009 -0.90198,-4.26651 -2.21079,-6.00141c-1.76319,-2.21576 -3.71735,-4.36707 -4.86668,-6.94438c-0.59782,-1.34055 -1.70747,-3.12021 -0.80367,-4.62975c1.58856,-2.65319 3.94878,1.34449 6.05225,0.15398c0.00119,-0.19891 0.08301,-0.42987 0.38214,-0.60261c0.03183,-0.01839 0.06302,-0.03432 0.09352,-0.04798c0.06659,-0.16323 0.20674,-0.32127 0.48712,-0.40151c0.04251,-0.01217 0.08325,-0.02111 0.12224,-0.02716l-0.23134,-0.8084c-0.11397,-0.39822 0.11647,-0.81343 0.51471,-0.9274c0.39823,-0.11397 0.81343,0.11648 0.9274,0.5147l0.0793,0.27708c0.15803,-0.11316 0.32925,-0.17121 0.52149,-0.12958c1.58107,0.34235 1.81103,3.82065 1.88788,4.96007c0.29099,4.31379 1.08394,8.60045 1.65292,12.89636zM162.33753,174.6065c0.02487,0.08804 0.04966,0.17612 0.07441,0.26421c0.18763,0.36907 0.27658,0.78165 0.34391,1.24066c0.01445,0.05286 0.02885,0.10572 0.04325,0.1586c-0.0694,-0.66033 -0.20167,-1.25995 -0.46157,-1.66346z" data-paper-data="{&quot;index&quot;:null}" fill="#000000" stroke="none" stroke-width="0.5" stroke-linecap="butt"/><path d="M106.26445,139.45237c0.53981,10.74653 -7.0715,14.97728 -19.76292,15.61477c-12.69141,0.6375 -20.93167,-2.69524 -21.47148,-13.44177c-0.53981,-10.74653 7.1957,-14.98352 19.88712,-15.62102c12.69141,-0.6375 20.80748,2.70149 21.34728,13.44802z" fill="url(#color-21)" stroke="none" stroke-width="0" stroke-linecap="butt"/><path d="M92.47636,242.63181c0.37238,-1.73279 4.84019,-2.50311 6.84631,-2.79376l0.21838,-0.12327c0.03378,-0.02001 0.07278,-0.03233 0.11471,-0.03444c0.1379,-0.00692 0.2553,0.09925 0.26223,0.23714c0.003,0.05972 -0.01522,0.11561 -0.04804,0.16034l-0.21712,0.30122c-0.63819,1.8357 -0.69335,3.3751 -0.44845,5.30133c0.68458,3.1152 1.7998,4.31807 4.01942,5.99398l0.00525,-0.0153l0.31286,0.10728c0.09661,0.03064 0.16873,0.11865 0.17411,0.22583c0.00692,0.13789 -0.09925,0.2553 -0.23715,0.26222l-0.2342,0.01177c-0.47112,0.10276 -0.94849,0.16679 -1.4241,0.25864c-2.32372,0.113 -5.53695,1.34477 -7.86278,0.79414l0.00198,0.0394l-0.24968,0.01254c-0.1379,0.00692 -0.25531,-0.09925 -0.26223,-0.23714c-0.00597,-0.11883 0.07204,-0.22243 0.18197,-0.25325l0.24155,-0.07344l0.00077,0.00251l0.00495,-0.00418c2.11628,-0.50629 1.50206,-3.82928 0.92312,-5.30741c-0.42061,-1.66401 -2.46617,-5.62122 -4.66013,-5.39968c0,0 -0.24969,0.01254 -0.26223,-0.23714c-0.01254,-0.24968 0.23714,-0.26223 0.23714,-0.26223c0.84586,-0.01651 1.64872,0.39787 2.36136,1.03292z" fill="#000000" stroke="none" stroke-width="0.5" stroke-linecap="butt"/><path d="M101.45109,246.98057c0.02141,0.42623 -0.28643,0.78809 -0.68759,0.80824c-0.40116,0.02015 -0.74371,-0.30903 -0.76512,-0.73527c-0.02141,-0.42623 0.28643,-0.78809 0.68759,-0.80824c0.40116,-0.02015 0.74371,0.30903 0.76512,0.73527z" fill="#000000" stroke="none" stroke-width="0" stroke-linecap="butt"/><path d="M76.08314,214.97334c0,0 6.85685,-7.04867 8.63913,-10.94172c1.36078,-2.97235 1.13541,-10.40886 1.13541,-10.40886c0,0 7.53509,-1.25426 6.85814,-0.99404c-0.84641,0.32534 0.92686,6.50663 4.20405,11.76291c2.96873,4.76155 8.75078,8.26113 8.75078,8.26113c0,0 -9.82884,-3.74585 -14.67136,-3.36604c-5.014,0.39326 -14.91615,5.68662 -14.91615,5.68662z" fill="url(#color-22)" stroke="none" stroke-width="0" stroke-linecap="butt"/><path d="" fill="url(#color-23)" stroke="none" stroke-width="0" stroke-linecap="butt"/><path d="" fill="url(#color-24)" stroke="none" stroke-width="0" stroke-linecap="butt"/><path d="" fill="url(#color-25)" stroke="none" stroke-width="0" stroke-linecap="butt"/><path d="" fill="url(#color-26)" stroke="none" stroke-width="0" stroke-linecap="butt"/><path d="" fill="url(#color-27)" stroke="none" stroke-width="0" stroke-linecap="butt"/><path d="" fill="url(#color-28)" stroke="none" stroke-width="0" stroke-linecap="butt"/><path d="" fill="url(#color-29)" stroke="none" stroke-width="0" stroke-linecap="butt"/><path d="" fill="url(#color-30)" stroke="none" stroke-width="0" stroke-linecap="butt"/><path d="M220.27209,131.29005l52.96071,-0.00392l9.31554,121.3822c-2.20866,0.14103 -4.40703,0.33929 -6.54271,0.88534c-1.2745,0.32586 -2.36108,1.12937 -3.40969,1.97018c-0.70461,-0.42338 -1.46902,-0.68197 -2.18021,-0.68381c-3.27227,-0.00842 -6.21015,1.79284 -9.16325,3.41623c-0.08189,-0.11823 -0.17507,-0.22438 -0.27323,-0.311c-1.49747,-1.32129 -3.16236,-2.50168 -4.97234,-3.34733c-2.2559,-3.0529 -4.0362,-7.40735 -7.68839,-7.99756c-2.37981,-0.38458 -4.79783,-0.00194 -7.15138,0.79074c-1.91437,-2.15837 -4.7037,-3.52459 -7.81576,-3.54068c-5.80802,-0.03003 -10.5407,4.65397 -10.57073,10.46199v0l-0.00526,1.01623c-1.21173,0.8589 -2.2209,2.01763 -3.24576,3.09888c-0.10482,0.11058 0.52015,0.24781 0.36931,0.26937c-0.85924,0.12284 -1.77779,-0.21767 -2.60345,0.05002c-1.48188,0.48046 -3.02489,0.89252 -4.51855,1.4012c-1.5106,-1.22494 -3.0598,-2.40076 -4.62758,-3.55306z" fill="url(#color-31)" stroke="none" stroke-width="0" stroke-linecap="butt"/><path d="M197.84805,363.07361l5.05568,-52.25749c4.08046,4.99631 9.67963,9.16602 16.70471,7.3501c0.45201,-0.11684 0.88147,-0.24342 1.28988,-0.37934c2.11879,1.42084 4.71461,2.1969 7.21743,2.6722c8.50535,1.6152 12.22501,-0.48239 19.8012,-3.89301c1.53812,-0.69243 2.86083,-1.29723 4.02672,-1.84283c1.09161,4.96622 3.14813,10.01106 6.62998,12.63426c3.00836,2.26646 7.39427,1.51639 11.14461,1.86578c6.1008,0.56837 9.88297,-0.24365 15.42937,-3.23273c0.92431,-0.49814 1.92323,-0.95495 2.91814,-1.42961l2.99266,38.99459z" fill="url(#color-32)" stroke="none" stroke-width="0" stroke-linecap="butt"/><path d="M197.1495,362.63028c0,0 2.28979,-22.3415 5.29033,-52.39379c4.11593,5.24647 9.87342,9.81548 17.1686,7.92975c0.45201,-0.11684 0.88147,-0.24343 1.28988,-0.37935c2.11879,1.42084 4.71461,2.1969 7.21743,2.67219c8.50535,1.6152 12.22501,-0.48239 19.8012,-3.89301c1.53812,-0.69243 2.86083,-1.29723 4.02672,-1.84283c1.09161,4.96622 3.14813,10.01107 6.62998,12.63426c3.00836,2.26646 7.39427,1.51638 11.14461,1.86577c6.1008,0.56837 9.88297,-0.24365 15.42937,-3.23273c1.15503,-0.62247 2.42657,-1.18043 3.66124,-1.7893c1.73625,23.05434 2.9527,38.91819 2.9527,38.91819z" fill="#000000" stroke="none" stroke-width="0" stroke-linecap="butt"/><path d="M216.21408,160.86289c0.75758,-13.28938 -6.35813,-21.12726 -6.35813,-21.12726c0,0 -4.42905,-7.33525 -2.7843,-7.24336c2.7011,0.15091 22.06912,-1.09758 22.15821,-0.84369c0.4784,1.36348 -5.54873,51.40352 -3.58347,63.86952c0.74914,4.75191 37.03598,6.19465 38.24166,0.14736c2.01594,-10.11124 -0.19483,-58.83387 1.09801,-62.51014c1.11418,-3.16823 16.17404,-1.13017 16.17404,-1.13017c0,0 -4.64965,12.65281 -4.06367,25.42644c0.70071,15.27414 3.46088,54.79463 6.40078,95.15885c-2.52695,0.14928 -5.05023,0.319 -7.49159,0.94323c-1.2745,0.32586 -2.36108,1.12937 -3.40969,1.97018c-0.70461,-0.42338 -1.46902,-0.68197 -2.18021,-0.68381c-3.27227,-0.00842 -6.21015,1.79284 -9.16325,3.41623c-0.08189,-0.11823 -0.17507,-0.22438 -0.27323,-0.311c-1.49747,-1.32129 -3.16236,-2.50168 -4.97234,-3.34733c-2.2559,-3.0529 -4.0362,-7.40735 -7.68839,-7.99756c-2.37981,-0.38458 -4.79783,-0.00194 -7.15138,0.79074c-1.91437,-2.15837 -4.7037,-3.5246 -7.81576,-3.54068c-5.80802,-0.03003 -10.5407,4.65397 -10.57073,10.46199v0l-0.00526,1.01623c-1.21173,0.8589 -2.2209,2.01763 -3.24576,3.09888c-0.10482,0.11058 0.52015,0.24781 0.36931,0.26937c-0.85924,0.12284 -1.77779,-0.21766 -2.60345,0.05003c-1.48188,0.48046 -3.02489,0.89251 -4.51855,1.40119c-1.63809,-1.32834 -3.32161,-2.59889 -5.02495,-3.84436c3.9008,-40.25423 7.5866,-80.08358 8.46206,-95.4409z" fill="url(#color-33)" stroke="none" stroke-width="0" stroke-linecap="butt"/><path d="M208.39377,255.62349c0.70249,-3.58598 5.61461,-11.2095 8.00084,-5.96495c0.03051,1.89671 1.95189,3.24518 3.28973,1.08975c0.94244,-1.51838 0.41809,-3.27277 0.60263,-4.92631c0.36052,-3.23059 2.4917,-5.52289 4.91029,-7.48537c1.97633,-0.49925 4.28965,-0.32058 6.27845,0.08259c2.07524,0.4207 4.30026,1.93602 6.58856,0.90803c2.19358,-0.98543 4.20624,-3.94377 5.92853,-5.59187c4.34894,-4.16139 13.78768,-12.91223 19.4675,-6.7172c1.15777,3.41282 2.50559,12.70225 7.39431,11.60664c1.58285,-0.35474 2.23527,-2.35801 3.98355,-2.79418c1.81982,0.00373 4.14436,-0.43403 5.34368,1.30577c1.15835,1.6804 0.11432,4.37035 0.43724,6.27486c0.62943,3.71218 3.14988,5.69554 3.06323,9.58409c-0.99937,1.9155 -2.71017,2.0586 -4.53235,2.79575c-4.689,1.89686 -9.59236,2.70252 -14.52605,3.90702c-4.3512,1.05497 -9.77139,1.07121 -13.06901,-2.43501c-1.35425,-1.43993 -1.41454,-4.07476 -1.95521,-5.87024c-2.01474,0.18796 -4.38682,2.48396 -6.5926,1.40664c-1.70692,-0.83366 -2.14007,-3.12843 -3.58963,-4.28445c-1.51887,-1.2113 -4.10155,-1.33274 -6.00732,-1.3089c-2.23297,0.13277 -6.3646,1.25252 -6.85298,3.71971c-0.32212,1.62734 0.84908,5.22708 -0.17412,6.57701c-0.39998,0.5277 -1.31797,0.21332 -1.93247,0.45997c-1.17826,0.47293 -2.2461,0.98542 -3.34823,1.62183c-5.6009,5.57242 -11.1236,1.66096 -14.13316,-4.41769c0,0 -0.23273,-0.47152 0.23879,-0.70424c0.47152,-0.23272 0.70424,0.23879 0.70424,0.23879c0.15466,0.31444 0.31527,0.62212 0.48158,0.92197z" fill="#000000" stroke="none" stroke-width="0.5" stroke-linecap="butt"/><path d="M268.60504,222.47358c-0.00851,1.64561 -1.4279,2.97234 -3.17032,2.96334c-1.74241,-0.00901 -3.14801,-1.35035 -3.1395,-2.99596c0.00851,-1.64561 1.4279,-2.97234 3.17032,-2.96334c1.74241,0.00901 3.14801,1.35035 3.1395,2.99596z" fill="#000000" stroke="none" stroke-width="0" stroke-linecap="butt"/><g data-paper-data="{&quot;index&quot;:null}" fill="#000000" stroke="none" stroke-width="0" stroke-linecap="butt"><path d="M239.40488,344.3157l0.67419,-130.40291l9.46473,0.04893l-0.6742,130.40291z"/><path d="M239.22426,254.36142c-8.72065,3.6665 -26.55538,9.97996 -26.62025,10.08306c-5.23669,8.32236 24.76923,18.49526 12.80141,15.57494c-12.22485,-2.98303 -28.51737,-9.57483 -23.54058,-18.24822c4.97679,-8.67338 29.68968,-12.93219 41.91452,-9.94915c0.69035,0.16846 -1.29584,1.16904 -4.5551,2.53936z" data-paper-data="{&quot;index&quot;:null}"/><g><path d="M242.54104,251.64039c14.35527,-2.84562 43.25938,1.69039 48.99246,10.41913c5.73309,8.72876 -13.42813,15.13725 -27.78339,17.98287c-14.05345,2.78579 21.21363,-7.04967 15.17211,-15.43032c-0.07484,-0.10382 -20.89788,-6.61716 -31.07324,-10.38134c-3.80294,-1.40683 -6.11859,-2.42965 -5.30794,-2.59035z" data-paper-data="{&quot;index&quot;:null}"/><g><path d="M238.79941,268.73197c-8.72065,3.6665 -26.55538,9.97996 -26.62026,10.08305c-5.23669,8.32236 24.76923,18.49527 12.80141,15.57496c-12.22485,-2.98303 -28.51737,-9.57483 -23.54058,-18.24822c4.97679,-8.67338 29.68968,-12.93217 41.91452,-9.94914c0.69035,0.16846 -1.29584,1.16904 -4.5551,2.53934z" data-paper-data="{&quot;index&quot;:null}"/><path d="M242.11619,266.01094c14.35527,-2.84562 43.25938,1.69039 48.99246,10.41915c5.73309,8.72875 -13.42812,15.13725 -27.78338,17.98287c-14.05345,2.78578 21.21361,-7.04967 15.1721,-15.43032c-0.07484,-0.10382 -20.89788,-6.61714 -31.07324,-10.38134c-3.80294,-1.40683 -6.11859,-2.42964 -5.30794,-2.59034z" data-paper-data="{&quot;index&quot;:null}"/></g></g><g><path d="M239.77674,283.10977c-8.72065,3.66649 -26.55538,9.97996 -26.62025,10.08306c-5.23669,8.32236 24.76923,18.49526 12.80141,15.57494c-12.22485,-2.98303 -28.51736,-9.57483 -23.54057,-18.2482c4.97679,-8.67338 29.68968,-12.93217 41.91452,-9.94915c0.69035,0.16846 -1.29584,1.16904 -4.5551,2.53936z" data-paper-data="{&quot;index&quot;:null}"/><g><path d="M243.09352,280.38873c14.35527,-2.84562 43.25938,1.6904 48.99246,10.41915c5.73309,8.72875 -13.42812,15.13724 -27.78338,17.98286c-14.05345,2.78579 21.21362,-7.04967 15.1721,-15.43032c-0.07484,-0.10383 -20.89788,-6.61714 -31.07324,-10.38134c-3.80294,-1.40683 -6.11859,-2.42965 -5.30794,-2.59034z" data-paper-data="{&quot;index&quot;:null}"/><g><path d="M239.35189,297.48032c-8.72065,3.6665 -26.55538,9.97996 -26.62026,10.08306c-5.23669,8.32236 24.76923,18.49526 12.80141,15.57495c-12.22485,-2.98303 -28.51737,-9.57483 -23.54058,-18.24821c4.97679,-8.67338 29.68968,-12.93217 41.91452,-9.94914c0.69035,0.16846 -1.29584,1.16904 -4.5551,2.53936z" data-paper-data="{&quot;index&quot;:null}"/><path d="M242.66866,294.75929c14.35527,-2.84562 43.25937,1.69039 48.99246,10.41913c5.73309,8.72875 -13.42812,15.13725 -27.78338,17.98286c-14.05345,2.78579 21.21361,-7.04967 15.1721,-15.43032c-0.07484,-0.10382 -20.89788,-6.61715 -31.07324,-10.38134c-3.80294,-1.40683 -6.11859,-2.42965 -5.30794,-2.59035z" data-paper-data="{&quot;index&quot;:null}"/></g></g></g></g><path d="M180.62392,355.41902l1.45291,-281.02354l129.5427,0.66975l-1.45292,281.02354z" fill-opacity="0.01" fill="#000000" stroke="none" stroke-width="0" stroke-linecap="butt"/><g stroke="none" stroke-width="0" stroke-linecap="butt"><path d="M334.76102,86.11596c-0.10435,20.18289 -33.00047,50.04636 -46.79453,49.97505c-13.79406,-0.07131 -3.26254,-30.05041 -3.1582,-50.2333c0.10435,-20.1829 -5.9291,-46.56681 7.86496,-46.4955c13.79406,0.07131 42.19212,26.57085 42.08777,46.75376z" fill="url(#color-34)"/><path d="M324.0276,84.96495c-0.0842,16.28668 -6.79592,29.45529 -14.99105,29.41292c-8.19513,-0.04237 -14.77033,-13.27967 -14.68613,-29.56634c0.0842,-16.28668 6.79592,-29.45528 14.99105,-29.41291c8.19513,0.04237 14.77033,13.27967 14.68613,29.56635z" fill="#000000"/></g><path d="M170.98273,86.27276c0.23989,-46.4007 33.40948,-59.46136 74.24185,-59.25026c40.83237,0.2111 73.86514,13.61405 73.62525,60.01474c-0.23989,46.4007 -32.24054,55.98396 -73.0729,55.77286c-40.83237,-0.21111 -75.0341,-10.13666 -74.79421,-56.53734z" fill="url(#color-35)" stroke="none" stroke-width="0" stroke-linecap="butt"/><path d="M190.86389,82.01813c0.07051,-13.63762 11.18316,-24.63595 24.82077,-24.56544c13.63762,0.07051 24.63595,11.18315 24.56544,24.82077c-0.07051,13.63762 -11.18315,24.63595 -24.82077,24.56544c-13.63762,-0.07051 -24.63595,-11.18315 -24.56544,-24.82077z" fill="#ff0000" stroke="none" stroke-width="2" stroke-linecap="butt"/><path d="M272.48947,107.13388c-13.63762,-0.07051 -24.63595,-11.18315 -24.56544,-24.82077c0.07051,-13.63762 11.18315,-24.63595 24.82077,-24.56544c13.63762,0.07051 24.63595,11.18315 24.56544,24.82077c-0.07051,13.63762 -11.18315,24.63595 -24.82077,24.56544z" data-paper-data="{&quot;index&quot;:null}" fill="#ff0000" stroke="none" stroke-width="2" stroke-linecap="butt"/><path d="M204.31077,51.79081c0,0 7.08348,-5.39967 12.44097,-6.628c5.35751,-1.22834 12.96722,0.80255 12.96722,0.80255c0,0 -8.45285,-0.10709 -12.59027,0.84152c-4.32377,0.99134 -12.81792,4.98394 -12.81792,4.98394z" fill="#000000" stroke="none" stroke-width="0" stroke-linecap="butt"/><path d="M271.57271,47.08836c-4.12739,-0.99134 -12.5809,-0.97165 -12.5809,-0.97165c0,0 7.63031,-1.95209 12.97482,-0.66842c5.34451,1.28366 12.37178,6.75628 12.37178,6.75628c0,0 -8.45242,-4.08022 -12.7657,-5.11621z" data-paper-data="{&quot;index&quot;:null}" fill="#000000" stroke="none" stroke-width="0" stroke-linecap="butt"/><path d="M207.54518,106.19872l-1.95156,4.54712" fill="none" stroke="#000000" stroke-width="2" stroke-linecap="round"/><path d="M221.91664,106.44832l0.14808,5.25908" fill="none" stroke="#000000" stroke-width="2" stroke-linecap="round"/><g fill="none" stroke="#000000" stroke-width="2" stroke-linecap="round"><path d="M282.21135,106.58476l1.90444,4.56705" data-paper-data="{&quot;index&quot;:null}"/><path d="M267.63563,111.94301l0.20247,-5.25727" data-paper-data="{&quot;index&quot;:null}"/></g><path d="M246.84592,38.04637c0,0 -27.15185,-1.81093 -28.76983,-4.42469c-0.95422,-1.54149 13.92532,-4.82443 27.81212,-4.47207c4.36252,0.11069 20.9802,2.32662 22.75942,5.24359c1.84628,3.02689 -11.2779,6.76465 -14.08688,7.21647c-17.88074,2.87617 -49.78618,-0.53803 -49.78618,-0.53803" fill="url(#color-36)" stroke="#000000" stroke-width="2" stroke-linecap="round"/><g><path d="M276.68473,112.31579c0.01783,1.06759 -6.56475,8.83354 -14.11009,11.86159c-5.54665,2.22594 -14.82572,3.83045 -17.93038,3.83416c-1.95437,0.00233 -8.42603,-1.41518 -11.9516,-2.37871c-8.57536,-2.3436 -16.61313,-11.60306 -16.63673,-13.01565c-0.00559,-0.33527 14.84087,6.30232 28.84119,6.28561c14.44859,-0.01723 31.78763,-6.58699 31.78763,-6.58699z" fill="url(#color-37)" stroke="none" stroke-width="0" stroke-linecap="butt"/><path d="M228.42723,123.02938l6.36584,-2.32066l5.17292,2.94667l5.71698,-2.82272l6.23637,2.70789l5.39677,-2.82235l7.22251,1.92704" fill="none" stroke="#000000" stroke-width="1" stroke-linecap="round"/></g><path d="M239.50519,86.03776c-0.81127,12.44729 -11.45631,20.85034 -24.42459,20.78329c-12.44445,-0.06434 -22.66228,-9.20864 -24.07057,-20.95314c1.22735,0.12223 48.04042,0.1827 48.49516,0.16983z" data-paper-data="{&quot;index&quot;:null}" fill="#ff4242" stroke="none" stroke-width="2" stroke-linecap="butt"/><path d="M296.55782,86.06981c-0.81128,12.44729 -11.45631,20.85034 -24.4246,20.78329c-12.44444,-0.06434 -22.66229,-9.20864 -24.07057,-20.95314c1.22735,0.12223 48.04043,0.1827 48.49517,0.16983z" data-paper-data="{&quot;index&quot;:null}" fill="#ff4242" stroke="none" stroke-width="2" stroke-linecap="butt"/><path d="M199.16111,90.36476c0.03574,-6.91321 5.66896,-12.48848 12.58217,-12.45274c6.91321,0.03574 12.48848,5.66897 12.45274,12.58218c-0.03574,6.91321 -5.66897,12.48848 -12.58218,12.45274c-6.91321,-0.03574 -12.48847,-5.66897 -12.45273,-12.58218z" fill="#000000" stroke="none" stroke-width="0" stroke-linecap="butt"/><path d="M252.13051,91.09047c0.03574,-6.91321 5.66896,-12.48848 12.58216,-12.45274c6.91321,0.03574 12.48848,5.66897 12.45274,12.58217c-0.03574,6.91321 -5.66898,12.48848 -12.58218,12.45274c-6.91321,-0.03574 -12.48847,-5.66897 -12.45273,-12.58218z" fill="#000000" stroke="none" stroke-width="0" stroke-linecap="butt"/><path d="M265.05094,90.5451c-0.00367,0.70987 -0.50364,1.28278 -1.11671,1.27961c-0.61307,-0.00317 -1.10708,-0.58121 -1.10341,-1.29108c0.00367,-0.70987 0.50364,-1.28276 1.1167,-1.2796c0.61307,0.00317 1.10709,0.5812 1.10342,1.29107z" fill="#ff0000" stroke="none" stroke-width="0" stroke-linecap="butt"/><path d="M211.50102,90.48723c-0.00367,0.70987 -0.50364,1.28277 -1.11671,1.2796c-0.61307,-0.00317 -1.10708,-0.5812 -1.10341,-1.29108c0.00367,-0.70987 0.50364,-1.28276 1.1167,-1.2796c0.61307,0.00317 1.10709,0.5812 1.10342,1.29107z" fill="#ff0000" stroke="none" stroke-width="0" stroke-linecap="butt"/><path d="M200.35273,117.06414c0.68731,-1.11675 1.7725,-2.18421 2.86768,-1.2311c0.7331,0.63799 0.49849,2.28771 1.38037,2.6881c0.38584,0.1752 1.18934,0.08906 1.8592,0.01268l-0.0176,-0.05373l0.49386,-0.16179c0.02784,-0.00984 0.05782,-0.01513 0.08904,-0.01497c0.1452,0.00075 0.2623,0.11907 0.26155,0.26427c-0.00052,0.09991 -0.0567,0.18653 -0.13901,0.23059l-0.38254,0.21408c-0.38972,0.84547 -0.75607,1.78366 -0.75719,2.72437c-0.00767,1.28214 -0.92571,5.32927 -3.14111,4.58422c-1.37022,-0.46081 0.15351,-2.99962 -0.54972,-3.36505c-0.17302,-0.08991 -1.13028,0.04972 -1.33881,0.04857c-0.52799,-0.00291 -1.05888,0.00086 -1.58646,-0.02192c-4.25484,-0.18376 0.08214,-4.54793 0.44401,-5.98947c0,0 0.06507,-0.25473 0.31981,-0.18964c0.17665,0.04514 0.19949,0.18147 0.19691,0.2608z" fill="#000000" stroke="none" stroke-width="0.5" stroke-linecap="butt"/><path d="M207.03208,116.98879c-0.0021,0.40657 -0.33338,0.73444 -0.73995,0.73234c-0.40657,-0.0021 -0.73444,-0.33338 -0.73234,-0.73995c0.0021,-0.40657 0.33339,-0.73444 0.73996,-0.73234c0.40657,0.0021 0.73443,0.33339 0.73233,0.73995z" fill="#000000" stroke="none" stroke-width="0" stroke-linecap="butt"/><g fill="#000000" stroke="none" stroke-linecap="butt"><path d="M287.77665,117.78218c0.2554,-0.06245 0.31784,0.19294 0.31784,0.19294c0.34695,1.44521 4.63857,5.85399 0.38205,5.99374c-0.52778,0.01732 -1.05862,0.00807 -1.5866,0.00552c-0.20853,-0.00101 -1.16429,-0.15054 -1.33823,-0.06242c-0.70698,0.35815 0.79043,2.91257 -0.58449,3.35918c-2.22298,0.7221 -3.09912,-3.33429 -3.09354,-4.61644c0.0086,-0.94066 -0.34801,-1.88259 -0.72898,-2.73205l-0.3803,-0.21803c-0.08185,-0.04491 -0.13714,-0.1321 -0.13662,-0.23201c0.00075,-0.1452 0.11907,-0.2623 0.26427,-0.26155c0.03123,0.00016 0.06115,0.00575 0.08889,0.01589l0.49215,0.16689l-0.01815,0.05354c0.66905,0.0833 1.4716,0.17775 1.85924,0.00655c0.88596,-0.39127 0.66843,-2.04331 1.40809,-2.67368c1.10496,-0.94173 2.17907,0.13688 2.8548,1.26068c-0.00176,-0.07937 0.02248,-0.21546 0.19959,-0.25875z" data-paper-data="{&quot;index&quot;:null}" stroke-width="0.5"/><path d="M281.6388,117.16418c0.40657,0.0021 0.73444,0.33339 0.73234,0.73995c-0.0021,0.40657 -0.33339,0.73444 -0.73995,0.73234c-0.40657,-0.0021 -0.73444,-0.33338 -0.73234,-0.73995c0.0021,-0.40657 0.33339,-0.73444 0.73996,-0.73234z" data-paper-data="{&quot;index&quot;:null}" stroke-width="0"/></g><path d="M229.49635,103.62084c0,0 3.82917,-3.83871 5.37245,-6.16788c1.77944,-2.6856 4.69693,-9.0292 4.69693,-9.0292c0,0 8.76468,-0.15722 8.76182,0.39585c-0.00588,1.13751 3.73032,7.71312 7.11295,11.73833c1.95468,2.326 4.37802,3.21966 4.37802,3.21966c0,0 -10.14618,-2.33107 -15.06167,-2.35648c-5.17821,-0.02677 -15.2605,2.19971 -15.2605,2.19971z" fill="url(#color-38)" stroke="none" stroke-width="0" stroke-linecap="butt"/><g><path d="M307.95424,364.7396l35.00658,-289.46982l133.43616,16.13689l-35.00658,289.46982z" fill-opacity="0.01" fill="#000000" stroke="none" stroke-width="0" stroke-linecap="butt"/><path d="M338.48154,361.933l32.56259,-131.63685l40.94782,4.78959l-1.47472,135.55879z" fill="url(#color-39)" stroke="none" stroke-width="2" stroke-linecap="butt"/><path d="M343.44617,305.00282c0,0 23.37411,-42.78174 24.07662,-44.26834c0.27349,-0.57873 -28.18152,17.8134 -28.68188,18.05398c-1.20603,0.57988 19.82955,-36.98722 21.76328,-39.64434c3.59035,-4.93346 8.54112,-7.8118 9.8625,-8.11254c3.43401,-0.78156 10.29076,2.34883 10.29076,2.34883c0,0 5.71702,52.54346 1.28036,53.93387c-5.03426,1.57769 -38.59163,17.68855 -38.59163,17.68855z" fill="url(#color-40)" stroke="none" stroke-width="2" stroke-linecap="butt"/><path d="M386.87658,287.89943c-3.97732,-2.40793 14.10023,-52.07384 14.10023,-52.07384c0,0 7.40531,-1.40564 10.55402,0.17201c1.21159,0.60706 5.33349,4.58261 7.64431,10.2297c1.41102,3.4482 7.79153,35.217 7.6498,35.59777c-0.00021,0.00055 -19.80144,-17.68342 -19.51566,-16.27908c0.22015,1.08185 12.69001,47.61557 12.69001,47.61557c0,0 -28.60966,-22.52985 -33.1227,-25.26213z" data-paper-data="{&quot;index&quot;:null}" fill="url(#color-41)" stroke="none" stroke-width="2" stroke-linecap="butt"/><path d="M384.75217,289.61577c0,0 -2.44056,-3.95194 -4.6402,-9.15888c-1.11061,-2.62903 -1.88486,-5.54474 -2.81064,-8.50076c-2.24688,-7.17424 -3.03208,-18.57633 -3.18059,-21.03965c-0.75436,-12.51283 0.18702,-20.15449 0.18702,-20.15449l33.50999,3.89976c0,0 -0.71911,9.18609 -3.40618,19.27053c-2.11392,7.93346 -6.07051,16.83617 -7.60306,19.44814c-1.88759,3.2171 -3.6265,6.50943 -5.7035,9.22795c-3.14696,4.11896 -6.35283,7.0074 -6.35283,7.0074z" fill="url(#color-42)" stroke="none" stroke-width="2" stroke-linecap="butt"/><g stroke="none" stroke-width="2"><path d="M399.9411,273.5397c-0.32023,0.17644 -1.06288,0.6118 -2.19564,0.35062c-1.17516,-0.27095 -2.76657,-1.24454 -4.53674,-1.37843c-2.26147,-0.17105 -4.97634,0.71669 -7.4766,0.23897c-1.96185,-0.37485 -3.73641,-2.04671 -5.47128,-2.29756c-0.95633,-0.13828 -1.93672,0.79759 -2.70426,0.8293c-2.37887,0.09829 -3.7153,-0.2022 -4.12287,-0.54003c-5.36407,-4.44616 8.23938,-35.73065 16.89358,-34.68407c8.65421,1.04658 15.71105,34.12179 9.61382,37.48121z" fill="url(#color-43)" stroke-linecap="butt"/><path d="M379.87714,269.71276l3.47693,-18.90512" fill="url(#color-44)" stroke-linecap="round"/><path d="M392.73414,272.45829l0.19949,-20.58374" fill="url(#color-45)" stroke-linecap="round"/></g><path d="M403.96984,234.78727c-0.21954,1.81534 -1.46886,6.07321 -5.52587,9.02775c-3.22231,2.34668 -6.31575,4.17025 -9.09646,3.83397c-2.60441,-0.31496 -4.97232,-3.16763 -6.78931,-5.85543c-2.56548,-3.79506 -4.59064,-8.09408 -4.36005,-10.00083c0.07242,-0.59887 7.08447,0.32088 14.02624,1.14742c7.02268,0.83619 11.80874,1.32379 11.74545,1.84712z" fill="#4953bd" stroke="#000000" stroke-width="2" stroke-linecap="butt"/><g stroke="none" stroke-width="0" stroke-linecap="butt"><path d="M482.28697,275.82592l-53.30132,-47.8686l15.9562,-17.76709l53.30132,47.86859z" fill="url(#color-46)"/><path d="M445.70673,242.66965c4.11971,-6.54988 10.15375,-12.37217 15.92547,-17.79472l23.88247,21.44825c-5.17214,6.13023 -10.19694,12.35811 -15.10586,18.53078z" fill="url(#color-47)"/></g><path d="M326.66385,169.64333c4.5796,-37.86879 39.44609,-64.79996 77.87646,-60.15245c38.43037,4.64752 65.87185,39.11381 61.29225,76.98259c-4.5796,37.86879 -39.44609,64.79996 -77.87646,60.15245c-38.43037,-4.64752 -65.87185,-39.11381 -61.29225,-76.98259z" fill="url(#color-48)" stroke="none" stroke-width="2" stroke-linecap="butt"/><path d="M338.07118,170.74368c3.82612,-31.63821 32.95599,-54.13837 65.06338,-50.25551c32.10739,3.88286 55.0339,32.67838 51.20778,64.31658c-3.82612,31.63821 -32.95599,54.13837 -65.06338,50.25551c-32.10739,-3.88286 -55.0339,-32.67838 -51.20778,-64.31658z" fill="url(#color-49)" stroke="none" stroke-width="2" stroke-linecap="butt"/><path d="M361.57578,172.23996c2.33247,-19.28724 19.61221,-33.06165 38.59535,-30.76596c18.98314,2.2957 32.48118,19.79215 30.14871,39.07941c-2.33247,19.28724 -19.61221,33.06165 -38.59535,30.76596c-18.98314,-2.2957 -32.48118,-19.79215 -30.14871,-39.07941z" fill="#ff0000" stroke="none" stroke-width="2" stroke-linecap="butt"/><path d="M361.214,176.26265c0.6388,0.10042 66.66161,8.36094 68.41536,8.39674c-4.20088,17.34611 -20.33375,29.22467 -37.89387,27.10106c-18.29929,-2.213 -31.7251,-16.70267 -30.5215,-35.49778z" data-paper-data="{&quot;index&quot;:null}" fill="#ff4242" stroke="none" stroke-width="2" stroke-linecap="butt"/><path d="M384.83419,176.5401c0.72623,-6.00518 6.09856,-10.29483 11.99945,-9.58122c5.90091,0.71362 10.0958,6.16028 9.36957,12.16545c-0.72623,6.00518 -6.09858,10.29483 -11.99947,9.58121c-5.90091,-0.71362 -10.09578,-6.16028 -9.36955,-12.16544z" fill="#000000" stroke="none" stroke-width="0" stroke-linecap="butt"/><path d="M396.531,177.71519c-0.12209,1.00956 -0.76667,1.76199 -1.43971,1.6806c-0.67304,-0.08139 -1.11968,-0.96579 -0.99759,-1.97535c0.12209,-1.00956 0.76667,-1.76199 1.43971,-1.6806c0.67304,0.08139 1.11968,0.96579 0.99759,1.97535z" fill="#ff0000" stroke="none" stroke-width="0" stroke-linecap="butt"/><path d="M410.14906,179.11225c-0.91341,7.55301 -8.2618,12.87683 -16.41308,11.89107c-8.15128,-0.98576 -14.01873,-7.90782 -13.10532,-15.46083c0.91341,-7.55301 8.2618,-12.87683 16.41308,-11.89107c8.15128,0.98576 14.01873,7.90782 13.10532,15.46083z" fill="url(#color-50)" stroke="none" stroke-width="0" stroke-linecap="butt"/></g><path d="M249.12158,513.26107c-134.75416,0 -243.99399,-41.6792 -243.99399,-93.09309c0,-51.4139 109.23983,-93.09309 243.99399,-93.09309c134.75416,0 243.99399,41.6792 243.99399,93.09309c0,51.4139 -109.23983,93.09309 -243.99399,93.09309z" data-paper-data="{&quot;index&quot;:null}" fill="url(#color-51)" stroke="none" stroke-width="0" stroke-linecap="butt"/><path d="M410.533,447.94575c0,-1.24388 1.00837,-2.25225 2.25225,-2.25225c1.24388,0 2.25225,1.00837 2.25225,2.25225c0,1.24388 -1.00837,2.25225 -2.25225,2.25225c-1.24388,0 -2.25225,-1.00837 -2.25225,-2.25225z" fill="url(#color-52)" stroke="none" stroke-width="0" stroke-linecap="butt"/><path d="M-152.63213,126.96504v-177.17718h767.26727v177.17718z" fill="url(#color-53)" stroke="none" stroke-width="0" stroke-linecap="butt"/><path d="M622.63814,246.07916v208.70871h-767.26727v-208.70871z" data-paper-data="{&quot;index&quot;:null}" fill="url(#color-54)" stroke="none" stroke-width="0" stroke-linecap="butt"/><text transform="translate(138.77173,326.5899) scale(0.5,0.5)" font-size="40" xml:space="preserve" fill="url(#color-55)" fill-rule="nonzero" stroke="none" stroke-width="1" stroke-linecap="butt" stroke-linejoin="miter" stroke-miterlimit="10" stroke-dasharray="" stroke-dashoffset="0" font-family="Pixel" font-weight="normal" text-anchor="start" style="mix-blend-mode: normal"><tspan x="0" dy="0">You will become one of</tspan></text><text transform="translate(215.6967,354.53416) scale(1.23673,0.72752)" font-size="40" xml:space="preserve" fill="url(#color-56)" fill-rule="nonzero" stroke="none" stroke-width="1" stroke-linecap="butt" stroke-linejoin="miter" stroke-miterlimit="10" stroke-dasharray="" stroke-dashoffset="0" font-family="Pixel" font-weight="normal" text-anchor="start" style="mix-blend-mode: normal"><tspan x="0" dy="0">US</tspan></text></g></g></svg>