<svg version="1.1" xmlns="http://www.w3.org/2000/svg" xmlns:xlink="http://www.w3.org/1999/xlink" width="212.29662" height="267.22501" viewBox="0,0,212.29662,267.22501"><defs><radialGradient cx="242.75" cy="92.87162" r="42.87838" gradientUnits="userSpaceOnUse" id="color-1"><stop offset="0" stop-color="#ffffff"/><stop offset="1" stop-color="#ffffff" stop-opacity="0"/></radialGradient></defs><g transform="translate(-132.78843,-46.38751)"><g data-paper-data="{&quot;isPaintingLayer&quot;:true}" fill-rule="nonzero" stroke-linejoin="miter" stroke-miterlimit="10" stroke-dasharray="" stroke-dashoffset="0" style="mix-blend-mode: normal"><path d="M284.5,92.87162c0,23.68107 -18.69211,42.87838 -41.75,42.87838c-23.05789,0 -41.75,-19.1973 -41.75,-42.87838c0,-23.68107 18.69211,-42.87838 41.75,-42.87838c23.05789,0 41.75,19.1973 41.75,42.87838z" fill="url(#color-1)" stroke="none" stroke-width="0" stroke-linecap="butt"/><path d="M179.28376,313.61252v-267.22501h123.18203v267.22501z" fill-opacity="0.01" fill="#000000" stroke="none" stroke-width="0" stroke-linecap="butt"/><path d="M206.75008,307.5l15.14285,-131.8421l37.78325,-0.15789l13.57389,132z" fill="#73214c" stroke="#000000" stroke-width="2" stroke-linecap="butt"/><path d="M218.9503,214.36263l3.87142,-36.57765l35.83075,-0.14203l3.76735,36.1059c0,0 -14.31001,4.17734 -21.1187,4.27348c-7.59503,0.10724 -22.35082,-3.6597 -22.35082,-3.6597z" fill="#5e1b3e" stroke="#000000" stroke-width="0" stroke-linecap="butt"/><path d="M278.50001,85.16667c0,5.79899 -22.31217,7.16667 -37.5,7.16667c-15.18783,0 -36.83334,-0.36768 -36.83334,-6.16667c0,-5.79899 21.64551,-14.83333 36.83334,-14.83333c15.18783,0 37.5,8.03434 37.5,13.83333z" fill="#ffffff" stroke="#000000" stroke-width="2" stroke-linecap="butt"/><g stroke-linecap="butt"><g><path d="M138.43168,210.87872c0,0 23.84902,-22.11199 27.31533,-35.19609c5.43361,-20.51002 7.70646,-83.48384 11.10527,-100.07343c0.1613,-0.78735 31.96849,4.26022 64.47229,4.0386c32.8085,-0.22371 66.73439,-4.97428 66.73439,-4.97428c0,0 2.73295,75.94807 8.1486,100.26727c3.28894,14.76907 28.41015,33.68341 27.86887,33.66612c-2.83517,-0.09056 -24.63115,-9.16433 -59.04522,-8.45935c-14.09108,0.28866 -29.788,6.19491 -44.81818,6.02362c-15.84405,-0.18057 -36.4964,-7.34622 -50.37255,-7.23695c-30.01952,0.23638 -51.40881,11.94451 -51.40881,11.94451z" fill="#d21869" stroke="#000000" stroke-width="2"/><path d="M176.88548,75.3084c0.1613,-0.78735 31.96849,4.26023 64.47229,4.0386c32.8085,-0.22371 66.73439,-4.97429 66.73439,-4.97429c0,0 0.22719,6.31361 0.68037,15.88298c-2.87009,0.90992 -5.62201,2.05114 -7.9335,3.84359c-0.80453,0.62387 -2.33893,1.52313 -2.67302,2.49222c-0.0943,-0.17575 -0.1886,-0.35151 -0.2829,-0.52725c-3.30727,-6.16293 -12.6324,-6.02624 -19.29175,-5.44383c-2.94032,0.25836 -6.18549,0.20816 -9.06273,0.7865c-3.87041,0.77797 -7.70639,2.6157 -11.31302,4.03639c-0.91556,0.59215 -3.61095,2.82466 -4.7897,2.6994c-0.50841,-0.05403 -0.52524,-0.77837 -0.72934,-1.19263c-0.56742,-1.15174 -1.03328,-2.19867 -1.88268,-3.22002c-1.63582,-1.96697 -5.31568,-3.5558 -8.02643,-4.01513c-6.56476,-1.08537 -14.81069,-1.26343 -21.15664,0.72596c-4.62921,1.45498 -8.31676,3.57993 -12.3764,5.97543c-0.59596,0.35166 -3.28211,2.45632 -3.82818,2.40899c-0.54095,-0.04689 -0.62367,-0.78642 -0.96647,-1.1585c-1.63345,-2.19958 -5.13028,-5.02465 -8.21256,-5.41707c-3.62309,-0.46128 -7.57774,0.59052 -11.14123,1.07645c-3.84915,1.12042 -7.47503,2.01042 -10.78804,3.54808c0.82998,-9.37349 1.65849,-17.12876 2.56755,-21.56587z" fill="#ffffff" stroke="none" stroke-width="0"/><path d="M138.43168,210.73098c0,0 23.84902,-22.112 27.31533,-35.1961c5.43361,-20.51002 7.70646,-83.48383 11.10527,-100.07342c0.1613,-0.78735 31.96849,4.26023 64.47229,4.0386c32.8085,-0.22371 66.73439,-4.97429 66.73439,-4.97429c0,0 2.73295,75.94806 8.1486,100.26727c3.28894,14.76907 28.41015,33.68341 27.86887,33.66612c-2.83517,-0.09056 -24.63115,-9.16433 -59.04522,-8.45935c-14.09108,0.28866 -29.788,6.19491 -44.81818,6.02362c-15.84405,-0.18057 -36.4964,-7.34622 -50.37255,-7.23695c-30.01952,0.23638 -51.40881,11.94451 -51.40881,11.94451z" fill="none" stroke="#000000" stroke-width="2"/></g><path d="M186.22151,166.714c0,13.25484 -11.0881,24 -24.76596,24c-1.52212,0 -3.01217,-0.13306 -4.45844,-0.38785c1.27099,-1.19511 4.5198,-2.78315 5.03714,-4.88823c0.63171,-0.9708 2.79168,-5.96904 3.94337,-10.50395c0.85036,-3.34836 0.69619,-6.29251 1.32155,-7.95983c2.14921,-5.77466 0.94664,-12.2938 2.14336,-18.26992c0.06407,-1.4625 0.18654,-3.01407 0.31338,-4.6091c9.5955,3.30698 16.46561,12.18544 16.46561,22.61888z" fill="#ffffff" stroke="none" stroke-width="0"/><path d="M311.86271,142.19511c0.12683,1.59503 0.2493,3.1466 0.31338,4.6091c1.19673,5.97612 -0.00585,12.49526 2.14336,18.26992c0.62536,1.66732 0.4712,4.61147 1.32155,7.95983c1.15169,4.53491 3.31166,9.53315 3.94337,10.50394c0.51734,2.10507 3.76615,3.69312 5.03714,4.88823c-1.44626,0.25479 -2.93631,0.38786 -4.45844,0.38786c-13.67786,0 -24.76596,-10.74516 -24.76596,-24c0,-10.43344 6.8701,-19.3119 16.4656,-22.61888z" data-paper-data="{&quot;index&quot;:null}" fill="#ffffff" stroke="none" stroke-width="0"/><g fill="none"><path d="M138.43168,210.87872c0,0 23.84902,-22.11199 27.31533,-35.19609c5.43361,-20.51002 7.70646,-83.48384 11.10527,-100.07343c0.1613,-0.78735 31.96849,4.26022 64.47229,4.0386c32.8085,-0.22371 66.73439,-4.97428 66.73439,-4.97428c0,0 2.73295,75.94807 8.1486,100.26727c3.28894,14.76907 28.41015,33.68341 27.86887,33.66612c-2.83517,-0.09056 -24.63115,-9.16433 -59.04522,-8.45935c-14.09108,0.28866 -29.788,6.19491 -44.81818,6.02362c-15.84405,-0.18057 -36.4964,-7.34622 -50.37255,-7.23695c-30.01952,0.23638 -51.40881,11.94451 -51.40881,11.94451z" stroke="#000000" stroke-width="2"/><path d="M176.88548,75.3084c0.1613,-0.78735 31.96849,4.26023 64.47229,4.0386c32.8085,-0.22371 66.73439,-4.97429 66.73439,-4.97429c0,0 0.22719,6.31361 0.68037,15.88298c-2.87009,0.90992 -5.62201,2.05114 -7.9335,3.84359c-0.80453,0.62387 -2.33893,1.52313 -2.67302,2.49222c-0.0943,-0.17575 -0.1886,-0.35151 -0.2829,-0.52725c-3.30727,-6.16293 -12.6324,-6.02624 -19.29175,-5.44383c-2.94032,0.25836 -6.18549,0.20816 -9.06273,0.7865c-3.87041,0.77797 -7.70639,2.6157 -11.31302,4.03639c-0.91556,0.59215 -3.61095,2.82466 -4.7897,2.6994c-0.50841,-0.05403 -0.52524,-0.77837 -0.72934,-1.19263c-0.56742,-1.15174 -1.03328,-2.19867 -1.88268,-3.22002c-1.63582,-1.96697 -5.31568,-3.5558 -8.02643,-4.01513c-6.56476,-1.08537 -14.81069,-1.26343 -21.15664,0.72596c-4.62921,1.45498 -8.31676,3.57993 -12.3764,5.97543c-0.59596,0.35166 -3.28211,2.45632 -3.82818,2.40899c-0.54095,-0.04689 -0.62367,-0.78642 -0.96647,-1.1585c-1.63345,-2.19958 -5.13028,-5.02465 -8.21256,-5.41707c-3.62309,-0.46128 -7.57774,0.59052 -11.14123,1.07645c-3.84915,1.12042 -7.47503,2.01042 -10.78804,3.54808c0.82998,-9.37349 1.65849,-17.12876 2.56755,-21.56587z" stroke="none" stroke-width="0"/><path d="M138.43168,210.73098c0,0 23.84902,-22.112 27.31533,-35.1961c5.43361,-20.51002 7.70646,-83.48383 11.10527,-100.07342c0.1613,-0.78735 31.96849,4.26023 64.47229,4.0386c32.8085,-0.22371 66.73439,-4.97429 66.73439,-4.97429c0,0 2.73295,75.94806 8.1486,100.26727c3.28894,14.76907 28.41015,33.68341 27.86887,33.66612c-2.83517,-0.09056 -24.63115,-9.16433 -59.04522,-8.45935c-14.09108,0.28866 -29.788,6.19491 -44.81818,6.02362c-15.84405,-0.18057 -36.4964,-7.34622 -50.37255,-7.23695c-30.01952,0.23638 -51.40881,11.94451 -51.40881,11.94451z" stroke="#000000" stroke-width="2"/></g></g><g stroke-linecap="butt"><path d="M187.14019,135.52566c0,-12.968 10.51265,-23.48065 23.48065,-23.48065c12.968,0 23.48065,10.51265 23.48065,23.48065c0,12.968 -10.51265,23.48065 -23.48065,23.48065c-12.968,0 -23.48065,-10.51265 -23.48065,-23.48065z" fill="#ffffff" stroke="#000000" stroke-width="2"/><path d="M194.20558,135.25c0,-9.12808 7.39976,-16.52784 16.52783,-16.52784c9.12808,0 16.52784,7.39977 16.52784,16.52784c0,9.12808 -7.39977,16.52784 -16.52784,16.52784c-9.12808,0 -16.52783,-7.39977 -16.52783,-16.52784z" fill="#000000" stroke="none" stroke-width="0"/><path d="M199.77786,106.71718c0,0 6.70895,-5.16922 11.79721,-6.36355c5.08827,-1.19433 12.33413,0.69937 12.33413,0.69937c0,0 -8.03812,-0.06028 -11.96762,0.86207c-4.10648,0.96389 -12.16372,4.80211 -12.16372,4.80211z" fill="#000000" stroke="none" stroke-width="0"/></g><g stroke-linecap="butt"><path d="M271.71261,159.00626c-12.968,0 -23.48065,-10.51265 -23.48065,-23.48065c0,-12.968 10.51265,-23.48065 23.48065,-23.48065c12.968,0 23.48065,10.51265 23.48065,23.48065c0,12.968 -10.51265,23.48065 -23.48065,23.48065z" data-paper-data="{&quot;index&quot;:null}" fill="#ffffff" stroke="#000000" stroke-width="2"/><path d="M271.60004,151.77785c-9.12807,0 -16.52783,-7.39977 -16.52783,-16.52784c0,-9.12808 7.39977,-16.52784 16.52783,-16.52784c9.12807,0 16.52783,7.39977 16.52783,16.52784c0,9.12808 -7.39977,16.52784 -16.52783,16.52784z" data-paper-data="{&quot;index&quot;:null}" fill="#000000" stroke="none" stroke-width="0"/><path d="M270.54571,101.91508c-3.9295,-0.92235 -11.96762,-0.86207 -11.96762,-0.86207c0,0 7.24586,-1.8937 12.33413,-0.69937c5.08826,1.19433 11.79721,6.36355 11.79721,6.36355c0,0 -8.05724,-3.83822 -12.16372,-4.80211z" data-paper-data="{&quot;index&quot;:null}" fill="#000000" stroke="none" stroke-width="0"/></g><path d="M187.35447,135.27565c0,-12.968 10.46788,-23.48065 23.38065,-23.48065c12.91277,0 23.38065,10.51265 23.38065,23.48065c0,0 -6.64267,-4.45215 -15.19215,-6.25895c-2.29724,-0.48548 -5.78797,-0.77998 -8.06019,-0.74579c-2.64677,0.03983 -6.64807,0.54867 -9.06927,1.0948c-9.02636,2.036 -14.43969,6.43277 -14.43969,5.90993z" fill="#d21869" stroke="#000000" stroke-width="2" stroke-linecap="butt"/><path d="M295.51577,135.40898c0,0.52283 -5.43648,-3.87394 -14.50145,-5.90993c-2.43156,-0.54613 -6.44997,-1.05498 -9.10807,-1.09481c-2.28194,-0.03419 -5.7876,0.2603 -8.09466,0.74579c-8.58605,1.8068 -15.25714,6.25895 -15.25714,6.25895c0,-12.968 10.51265,-23.48065 23.48065,-23.48065c12.968,0 23.48065,10.51265 23.48065,23.48065z" data-paper-data="{&quot;index&quot;:null}" fill="#d21869" stroke="#000000" stroke-width="2" stroke-linecap="butt"/><path d="M185.45573,115.54963l6.375,4" fill="none" stroke="#000000" stroke-width="2" stroke-linecap="round"/><path d="M197.7474,107.04963l1.5,6.91667" fill="none" stroke="#000000" stroke-width="2" stroke-linecap="round"/><g fill="none" stroke="#000000" stroke-width="2" stroke-linecap="round"><path d="M298.58072,117.04963l-6.375,4" data-paper-data="{&quot;index&quot;:null}"/><path d="M286.28907,108.54964l-1.5,6.91667" data-paper-data="{&quot;index&quot;:null}"/></g><path d="M253.0548,176.9274c0,0 -4.09668,4 -12.91066,4.14285c-7.26585,0.11777 -12.19893,-4.14285 -12.19893,-4.14285" fill="none" stroke="#000000" stroke-width="2" stroke-linecap="round"/></g></g></svg>