<svg version="1.1" xmlns="http://www.w3.org/2000/svg" xmlns:xlink="http://www.w3.org/1999/xlink" width="635.04686" height="437.77849" viewBox="0,0,635.04686,437.77849"><defs><linearGradient x1="137.22908" y1="129.98364" x2="137.22908" y2="152.6752" gradientUnits="userSpaceOnUse" id="color-1"><stop offset="0" stop-color="#404040"/><stop offset="1" stop-color="#808080"/></linearGradient><linearGradient x1="143.91885" y1="124.93015" x2="143.91885" y2="150.21451" gradientUnits="userSpaceOnUse" id="color-2"><stop offset="0" stop-color="#404040"/><stop offset="1" stop-color="#808080"/></linearGradient><linearGradient x1="152.52522" y1="121.78746" x2="152.52522" y2="148.03565" gradientUnits="userSpaceOnUse" id="color-3"><stop offset="0" stop-color="#404040"/><stop offset="1" stop-color="#808080"/></linearGradient><linearGradient x1="161.65388" y1="121.47425" x2="161.65388" y2="146.29141" gradientUnits="userSpaceOnUse" id="color-4"><stop offset="0" stop-color="#404040"/><stop offset="1" stop-color="#808080"/></linearGradient><linearGradient x1="186.33754" y1="129.98364" x2="186.33754" y2="152.6752" gradientUnits="userSpaceOnUse" id="color-5"><stop offset="0" stop-color="#404040"/><stop offset="1" stop-color="#808080"/></linearGradient><linearGradient x1="179.64781" y1="124.93015" x2="179.64781" y2="150.21451" gradientUnits="userSpaceOnUse" id="color-6"><stop offset="0" stop-color="#404040"/><stop offset="1" stop-color="#808080"/></linearGradient><linearGradient x1="171.04143" y1="121.78746" x2="171.04143" y2="148.03565" gradientUnits="userSpaceOnUse" id="color-7"><stop offset="0" stop-color="#404040"/><stop offset="1" stop-color="#808080"/></linearGradient><linearGradient x1="161.65388" y1="217.68687" x2="161.65388" y2="242.50404" gradientUnits="userSpaceOnUse" id="color-8"><stop offset="0" stop-color="#808080"/><stop offset="1" stop-color="#404040"/></linearGradient><linearGradient x1="153.52782" y1="217.68687" x2="153.52782" y2="242.50404" gradientUnits="userSpaceOnUse" id="color-9"><stop offset="0" stop-color="#808080"/><stop offset="1" stop-color="#404040"/></linearGradient><linearGradient x1="145.80805" y1="217.68687" x2="145.80805" y2="242.37785" gradientUnits="userSpaceOnUse" id="color-10"><stop offset="0" stop-color="#808080"/><stop offset="1" stop-color="#404040"/></linearGradient><linearGradient x1="137.68198" y1="216.77056" x2="137.68198" y2="241.46156" gradientUnits="userSpaceOnUse" id="color-11"><stop offset="0" stop-color="#808080"/><stop offset="1" stop-color="#404040"/></linearGradient><linearGradient x1="129.55594" y1="215.85426" x2="129.55594" y2="240.53855" gradientUnits="userSpaceOnUse" id="color-12"><stop offset="0" stop-color="#808080"/><stop offset="1" stop-color="#404040"/></linearGradient><linearGradient x1="121.83617" y1="213.56348" x2="121.83617" y2="238.24777" gradientUnits="userSpaceOnUse" id="color-13"><stop offset="0" stop-color="#808080"/><stop offset="1" stop-color="#404040"/></linearGradient><linearGradient x1="169.77988" y1="218.14504" x2="169.77988" y2="242.96221" gradientUnits="userSpaceOnUse" id="color-14"><stop offset="0" stop-color="#808080"/><stop offset="1" stop-color="#404040"/></linearGradient><linearGradient x1="177.49962" y1="218.14504" x2="177.49962" y2="242.83602" gradientUnits="userSpaceOnUse" id="color-15"><stop offset="0" stop-color="#808080"/><stop offset="1" stop-color="#404040"/></linearGradient><linearGradient x1="185.62569" y1="217.22873" x2="185.62569" y2="241.91971" gradientUnits="userSpaceOnUse" id="color-16"><stop offset="0" stop-color="#808080"/><stop offset="1" stop-color="#404040"/></linearGradient><linearGradient x1="193.75172" y1="216.3124" x2="193.75172" y2="240.9967" gradientUnits="userSpaceOnUse" id="color-17"><stop offset="0" stop-color="#808080"/><stop offset="1" stop-color="#404040"/></linearGradient><linearGradient x1="201.47141" y1="214.02164" x2="201.47141" y2="238.70593" gradientUnits="userSpaceOnUse" id="color-18"><stop offset="0" stop-color="#808080"/><stop offset="1" stop-color="#404040"/></linearGradient><radialGradient cx="281.18371" cy="171.86866" r="46.18237" gradientUnits="userSpaceOnUse" id="color-19"><stop offset="0" stop-color="#939393"/><stop offset="1" stop-color="#424242"/></radialGradient></defs><g transform="translate(77.52344,38.88925)"><g data-paper-data="{&quot;isPaintingLayer&quot;:true}" fill-rule="nonzero" stroke-linejoin="miter" stroke-miterlimit="10" stroke-dasharray="" stroke-dashoffset="0" style="mix-blend-mode: normal"><g stroke="#000000" stroke-width="1" stroke-linecap="butt"><path d="M211.75857,237.99427c0,14.33726 -100.22686,11.69628 -100.22686,0c0,-23.08809 6.72935,-90.51393 17.36347,-104.51136c8.78334,-11.5613 20.23053,-18.55412 32.74997,-18.55412c12.96338,0 24.77713,7.49757 33.67423,19.80116c10.09826,13.96465 16.43921,80.85245 16.43921,103.26433z" fill="#0a0a0a"/><path d="M205.56694,234.09691c0,12.37584 -87.84362,10.09618 -87.84362,0c0,-20.9668 6.52785,-86.37817 16.70092,-98.44592c7.48355,-8.87732 16.93969,-14.17675 27.2209,-14.17675c10.51328,0 20.16384,5.54137 27.72467,14.78338c9.8843,12.08212 16.19716,77.22067 16.19716,97.8393z" fill="#000000"/><g><path d="M137.29346,152.66356c-0.48688,-1.40411 -2.55592,-16.76234 -2.7535,-17.1495c1.26469,-1.48994 4.00729,-4.25248 5.37821,-5.53044c-0.21558,1.5969 -2.42173,23.26526 -2.62471,22.67993z" fill="url(#color-1)"/><path d="M144.88411,150.20609c-0.48158,0.47727 -4.05225,-19.55446 -4.75962,-20.55414c2.39139,-2.14875 4.93036,-3.27868 7.58866,-4.72188c-0.83405,2.91251 -2.58733,25.03645 -2.82904,25.276z" fill="url(#color-2)"/><path d="M153.10286,148.03565c0,0 -4.92317,-22.04962 -5.38748,-23.17872c3.06963,-1.53882 6.29021,-2.583 9.6197,-3.06949c-0.37863,1.23436 -4.23223,26.2482 -4.23223,26.2482z" fill="url(#color-3)"/><path d="M161.64512,121.47425c0.9691,0 3.14978,0.04709 4.10324,0.13981c-0.60778,2.27308 -4.13331,24.67738 -4.13331,24.67738c0,0 -3.39047,-21.9911 -4.0557,-24.64169c1.40653,-0.14232 2.83925,-0.1755 4.08575,-0.1755z" fill="url(#color-4)"/><path d="M183.64843,129.98364c1.37092,1.27795 4.11353,4.04047 5.37821,5.53044c-0.19759,0.38716 -2.26661,15.74539 -2.7535,17.1495c-0.20298,0.58535 -2.40913,-21.08303 -2.62471,-22.67993z" data-paper-data="{&quot;index&quot;:null}" fill="url(#color-5)"/><path d="M175.85348,124.93015c2.65832,1.4432 5.19728,2.57312 7.58866,4.72188c-0.70738,0.99968 -4.27804,21.03141 -4.75962,20.55414c-0.24172,-0.23955 -1.99499,-22.3635 -2.82904,-25.276z" data-paper-data="{&quot;index&quot;:null}" fill="url(#color-6)"/><path d="M166.23162,121.78746c3.32949,0.48648 6.55008,1.53067 9.6197,3.06949c-0.46431,1.12909 -5.38748,23.17872 -5.38748,23.17872c0,0 -3.8536,-25.01383 -4.23223,-26.2482z" data-paper-data="{&quot;index&quot;:null}" fill="url(#color-7)"/></g><g><path d="M157.55934,242.32856c0.66523,-2.65059 4.0557,-24.64169 4.0557,-24.64169c0,0 3.52554,22.40427 4.13331,24.67738c-0.95348,0.09272 -3.13414,0.13981 -4.10324,0.13981c-1.2465,0 -2.67922,-0.03316 -4.08575,-0.1755z" data-paper-data="{&quot;index&quot;:null}" fill="url(#color-8)"/><path d="M149.43323,242.32856c0.66523,-2.65059 4.0557,-24.64169 4.0557,-24.64169c0,0 3.52554,22.40427 4.13331,24.67738c-0.95348,0.09272 -3.13414,0.13981 -4.10324,0.13981c-1.2465,0 -2.67922,-0.03316 -4.08575,-0.1755z" data-paper-data="{&quot;index&quot;:null}" fill="url(#color-9)"/><path d="M141.7135,241.41225c0.66523,-2.65059 4.0557,-23.72538 4.0557,-23.72538c0,0 3.52554,22.40427 4.13331,24.67738c-0.95348,0.09272 -3.13414,-0.31834 -4.10324,-0.31834c-1.2465,0 -2.67922,-0.49132 -4.08575,-0.63365z" data-paper-data="{&quot;index&quot;:null}" fill="url(#color-10)"/><path d="M133.58746,240.49594c0.66523,-2.65059 4.0557,-23.72538 4.0557,-23.72538c0,0 3.52554,22.40427 4.13331,24.67738c-0.95348,0.09272 -3.13414,-0.31834 -4.10324,-0.31834c-1.2465,0 -2.67922,-0.49132 -4.08575,-0.63365z" data-paper-data="{&quot;index&quot;:null}" fill="url(#color-11)"/><path d="M125.46144,238.66331c0.66523,-2.65059 4.0557,-22.80906 4.0557,-22.80906c0,0 3.52554,22.40427 4.13331,24.67738c-0.95348,0.09272 -3.13414,-0.77651 -4.10324,-0.77651c-1.2465,0 -2.67922,-0.94947 -4.08575,-1.09181z" data-paper-data="{&quot;index&quot;:null}" fill="url(#color-12)"/><path d="M118.14799,235.91438c0.66523,-2.65059 3.64939,-22.3509 3.64939,-22.3509c0,0 3.11925,22.40427 3.72701,24.67738c-0.95348,0.09272 -3.13414,-0.77651 -4.10324,-0.77651c-1.2465,0 -1.86663,-1.40763 -3.27316,-1.54996z" data-paper-data="{&quot;index&quot;:null}" fill="url(#color-13)"/><path d="M169.78865,242.96221c-0.9691,0 -3.14978,-0.04709 -4.10324,-0.13981c0.60778,-2.27308 4.13331,-24.67738 4.13331,-24.67738c0,0 3.39047,21.9911 4.0557,24.64169c-1.40653,0.14232 -2.83925,0.1755 -4.08575,0.1755z" data-paper-data="{&quot;index&quot;:null}" fill="url(#color-14)"/><path d="M177.50839,242.50404c-0.9691,0 -3.14978,0.41107 -4.10324,0.31834c0.60778,-2.27308 4.13331,-24.67738 4.13331,-24.67738c0,0 3.39047,21.07479 4.0557,23.72538c-1.40653,0.14232 -2.83925,0.63365 -4.08575,0.63365z" data-paper-data="{&quot;index&quot;:null}" fill="url(#color-15)"/><path d="M185.63442,241.58774c-0.9691,0 -3.14978,0.41107 -4.10324,0.31834c0.60778,-2.27308 4.13331,-24.67738 4.13331,-24.67738c0,0 3.39047,21.07479 4.0557,23.72538c-1.40653,0.14232 -2.83925,0.63365 -4.08575,0.63365z" data-paper-data="{&quot;index&quot;:null}" fill="url(#color-16)"/><path d="M193.76045,240.21326c-0.9691,0 -3.14978,0.86923 -4.10324,0.77651c0.60778,-2.27308 4.13331,-24.67738 4.13331,-24.67738c0,0 3.39047,20.15846 4.0557,22.80906c-1.40653,0.14232 -2.83925,1.09181 -4.08575,1.09181z" data-paper-data="{&quot;index&quot;:null}" fill="url(#color-17)"/><path d="M201.88651,237.92251c-0.9691,0 -3.14978,0.86923 -4.10324,0.77651c0.60778,-2.27308 3.72701,-24.67738 3.72701,-24.67738c0,0 2.98416,19.70032 3.64939,22.3509c-1.40653,0.14232 -2.02665,1.54996 -3.27316,1.54996z" data-paper-data="{&quot;index&quot;:null}" fill="url(#color-18)"/></g></g><g stroke="#000000" stroke-width="1"><g stroke-linecap="butt"><path d="M331.01025,214.49745c0,10.93784 -100.22686,8.92305 -100.22686,0c0,-17.61381 6.72935,-69.05271 17.36347,-79.73129c8.78334,-8.82007 20.23053,-14.15486 32.74997,-14.15486c12.96338,0 24.77713,5.71987 33.67423,15.10623c10.09826,10.65358 16.43921,61.682 16.43921,78.77993z" fill="#0a0a0a"/><path d="M324.81862,211.52418c0,9.44148 -87.84362,7.70234 -87.84362,0c0,-15.99549 6.52785,-65.89756 16.70092,-75.10399c7.48355,-6.77247 16.93969,-10.81539 27.2209,-10.81539c10.51328,0 20.16384,4.2275 27.72467,11.27819c9.8843,9.2174 16.19716,58.91133 16.19716,74.64121z" fill="url(#color-19)"/></g><path d="M241.18371,171.11866l10.5,-18.75l6.75,18l6.5,-17.5l7.75,17.75l4.75,-19l6.25,18.75l6.75,-21l9.25,18.5l4.75,-19.5l7.75,19.75l3.25,-17.75" fill="none" stroke-linecap="round"/></g><path d="M272.08091,122.86814l-7.11064,-13.34304l-3.95035,14.77265l-4.34539,-9.53075l-4.34539,10.00728l-5.13546,-12.8665l-6.32056,11.43689l-5.13546,-8.10114l-3.55532,8.57767l-9.87588,-15.72573l-9.08582,14.29612l-7.50567,-15.72573l-6.71561,13.81958l-3.16029,-3.33576l-3.16029,8.10114l-4.74043,-10.96036l-8.69078,9.53075l12.64114,-78.62864l3.16029,-8.57767l2.76524,5.71845l6.71561,-3.8123l3.16029,7.14806l4.74043,-11.43689l6.32056,12.38997l2.76524,-11.43689l1.18511,3.33576l5.13546,-11.43689l6.32056,16.20226l2.37021,-6.67153l1.18511,-6.19498l6.32056,10.00728v5.24191l4.74043,-11.91343l6.71561,11.91343l3.95035,-9.0542l2.37021,6.67153z" fill="#000000" stroke="#000000" stroke-width="1" stroke-linecap="round"/><path d="M213.97195,257.79999l-4.66958,-14.28339l7.41638,3.84553l7.69106,-12.90999l6.86701,13.73403l16.20616,-10.71255l5.76829,9.88851l10.43787,-4.66958l8.24042,13.18467l7.96574,-3.02148l-2.54839,20.22257l6.14677,1.38258l-10.4654,21.7944l1.64808,16.20616l-5.49361,-3.84554l-10.43787,10.16318l-15.38212,-8.24042l-10.98723,5.49361l-3.84553,-11.60827l-16.82435,4.61625l1.57181,-21.2175l-8.64467,-14.366l5.7803,-9.41082c0,0 4.29086,-0.35964 4.87691,-1.3882c0.59991,-1.05287 -1.31808,-4.85779 -1.31808,-4.85779z" fill="#000000" stroke="#323232" stroke-width="1" stroke-linecap="round"/><g data-paper-data="{&quot;index&quot;:null}" fill="#323232" stroke="#000000" stroke-width="1" stroke-linecap="butt"><g><path d="M234.17726,257.42936c-0.0962,0.6288 -1.08071,9.16105 -1.17129,8.93057c-0.21728,-0.55289 -1.14059,-6.60042 -1.22877,-6.75287c0.56438,-0.58668 1.78828,-1.67447 2.40006,-2.17769z"/><path d="M236.39333,265.39229c-0.21491,0.18794 -1.80835,-7.69986 -2.12401,-8.0935c1.06717,-0.8461 2.20021,-1.29103 3.38649,-1.85932c-0.3722,1.14685 -1.15461,9.85848 -1.26248,9.95281z"/><path d="M240.06096,264.53762c0,0 -2.197,-8.68238 -2.4042,-9.12697c1.36984,-0.60593 2.80705,-1.01709 4.29286,-1.20866c-0.16896,0.48605 -1.88866,10.33563 -1.88866,10.33563z"/><path d="M243.87301,254.07866c0.43247,0 1.40562,0.01854 1.83111,0.05505c-0.27122,0.89506 -1.84453,9.71709 -1.84453,9.71709c0,0 -1.51301,-8.65932 -1.80988,-9.70303c0.62768,-0.05605 1.26703,-0.0691 1.8233,-0.0691z"/><path d="M254.86342,266.35994c-0.09058,0.23049 -1.07509,-8.30176 -1.17129,-8.93056c0.61178,0.50321 1.83569,1.59099 2.40006,2.17769c-0.08818,0.15245 -1.01149,6.19998 -1.22877,6.75287z" data-paper-data="{&quot;index&quot;:null}"/><path d="M250.21352,255.43948c1.1863,0.56829 2.31932,1.0132 3.38649,1.85932c-0.31567,0.39364 -1.90911,8.28144 -2.12402,8.0935c-0.10787,-0.09433 -0.89028,-8.80596 -1.26248,-9.95281z" data-paper-data="{&quot;index&quot;:null}"/><path d="M245.91975,254.20199c1.48581,0.19155 2.92301,0.60273 4.29286,1.20866c-0.2072,0.4446 -2.4042,9.12697 -2.4042,9.12697c0,0 -1.7197,-9.84957 -1.88866,-10.33563z" data-paper-data="{&quot;index&quot;:null}"/></g><g><path d="M242.04966,301.66684c0.29686,-1.04371 1.80988,-9.70303 1.80988,-9.70303c0,0 1.5733,8.82203 1.84453,9.7171c-0.4255,0.03651 -1.39864,0.05505 -1.83111,0.05505c-0.55626,0 -1.19562,-0.01305 -1.8233,-0.0691z" data-paper-data="{&quot;index&quot;:null}"/><path d="M238.42341,301.66684c0.29686,-1.04371 1.80989,-9.70303 1.80989,-9.70303c0,0 1.5733,8.82203 1.84452,9.7171c-0.4255,0.03651 -1.39863,0.05505 -1.8311,0.05505c-0.55626,0 -1.19562,-0.01305 -1.8233,-0.0691z" data-paper-data="{&quot;index&quot;:null}"/><path d="M234.97844,301.30607c0.29686,-1.04371 1.80989,-9.34223 1.80989,-9.34223c0,0 1.5733,8.82203 1.84452,9.71709c-0.4255,0.03651 -1.39863,-0.12536 -1.8311,-0.12536c-0.55626,0 -1.19562,-0.19346 -1.8233,-0.24951z" data-paper-data="{&quot;index&quot;:null}"/><path d="M231.35214,300.94523c0.29686,-1.04371 1.80989,-9.34223 1.80989,-9.34223c0,0 1.5733,8.82203 1.84452,9.7171c-0.4255,0.03651 -1.39863,-0.12536 -1.8311,-0.12536c-0.55626,0 -1.19562,-0.19346 -1.8233,-0.24951z" data-paper-data="{&quot;index&quot;:null}"/><path d="M227.72581,300.2236c0.29686,-1.04371 1.80988,-8.98141 1.80988,-8.98141c0,0 1.5733,8.82203 1.84452,9.71709c-0.4255,0.03651 -1.39863,-0.30576 -1.8311,-0.30576c-0.55626,0 -1.19562,-0.37387 -1.8233,-0.42992z" data-paper-data="{&quot;index&quot;:null}"/><path d="M225.92283,299.75151c-0.55626,0 -0.83299,-0.55427 -1.46067,-0.61032c0.29686,-1.0437 1.62857,-8.801 1.62857,-8.801c0,0 1.39198,8.82203 1.6632,9.7171c-0.4255,0.03651 -1.39863,-0.30577 -1.8311,-0.30577z" data-paper-data="{&quot;index&quot;:null}"/><path d="M247.50705,301.91639c-0.43247,0 -1.40561,-0.01855 -1.8311,-0.05506c0.27122,-0.89506 1.84452,-9.71709 1.84452,-9.71709c0,0 1.51302,8.65932 1.80989,9.70304c-0.62768,0.05605 -1.26704,0.06911 -1.8233,0.06911z" data-paper-data="{&quot;index&quot;:null}"/><path d="M250.95207,301.73596c-0.43247,0 -1.40561,0.16187 -1.8311,0.12536c0.27122,-0.89506 1.84452,-9.71709 1.84452,-9.71709c0,0 1.51302,8.29852 1.80988,9.34223c-0.62768,0.05605 -1.26703,0.24951 -1.8233,0.24951z" data-paper-data="{&quot;index&quot;:null}"/><path d="M254.57834,301.37517c-0.43247,0 -1.40561,0.16187 -1.8311,0.12536c0.27122,-0.89506 1.84452,-9.71709 1.84452,-9.71709c0,0 1.51302,8.29852 1.80989,9.34223c-0.62768,0.05605 -1.26703,0.24951 -1.8233,0.24951z" data-paper-data="{&quot;index&quot;:null}"/><path d="M258.20468,300.83392c-0.43247,0 -1.40561,0.34228 -1.8311,0.30577c0.27122,-0.89506 1.84452,-9.71709 1.84452,-9.71709c0,0 1.51302,7.9377 1.80989,8.98141c-0.62768,0.05605 -1.26704,0.42992 -1.8233,0.42992z" data-paper-data="{&quot;index&quot;:null}"/><path d="M263.2916,299.32158c-0.62768,0.05605 -0.90441,0.61031 -1.46067,0.61031c-0.43247,0 -1.40561,0.34228 -1.8311,0.30577c0.27123,-0.89506 1.6632,-9.71709 1.6632,-9.71709c0,0 1.3317,7.75729 1.62857,8.80101z" data-paper-data="{&quot;index&quot;:null}"/></g></g><g data-paper-data="{&quot;index&quot;:null}" fill="#000000" stroke="#000000" stroke-width="1"><path d="M397.11544,217.75803c-3.27231,-5.23915 -3.03185,-39.7226 -17.90018,-62.32109c-18.40352,-27.97168 -44.10418,-33.85935 -45.9044,-37.69586c-3.25461,-6.93601 -10.97024,-23.29491 -7.5698,-19.9286c8.5301,9.00587 31.54704,4.92875 52.45628,30.64031c1.73269,2.13065 3.07797,-15.49453 8.34282,-9.95145c5.06905,5.33692 10.55236,32.63089 12.34798,34.78167c3.42483,4.10225 2.4758,-15.46457 5.82847,-11.49711c3.37093,3.98906 11.0424,31.51087 14.04695,35.0578c3.0543,3.60566 6.87376,-16.76242 9.24287,-13.93323c4.0185,4.79885 5.79856,31.91503 6.64697,33.23031c2.19194,3.40955 -2.19827,16.62843 -1.78652,20.86694c0.29513,3.04749 -5.81073,5.62125 -7.45568,7.73474c-1.64506,2.11359 -10.69425,5.22071 -12.91834,4.61012c-3.31495,-0.91466 -11.20838,-4.15326 -15.19265,-10.53208z" stroke-linecap="butt"/><g stroke-linecap="round"><path d="M431.98282,199.22845c-2.13984,-4.87835 0.63713,-4.44239 1.99197,-3.48453c1.35486,0.95784 6.09933,5.55667 8.28455,10.74975c2.18521,5.19304 2.35945,22.82365 2.35945,22.82365c0,0 -2.32129,-15.93025 -4.70884,-20.04245c-2.38754,-4.11218 -5.78733,-5.16804 -7.92716,-10.04645z"/><path d="M431.98733,203.89489c1.35485,0.95785 6.09931,5.5567 8.28455,10.74976c2.18522,5.19306 1.62168,23.66026 1.62168,23.66026c0,0 -1.58353,-16.76686 -3.97107,-20.87905c-2.38754,-4.11218 -5.78733,-5.16807 -7.92717,-10.04645c-2.13981,-4.87834 0.63711,-4.44236 1.99198,-3.48453z"/><path d="M430.13602,214.26987c1.35485,0.95785 6.09931,5.55669 8.28455,10.74975c2.18522,5.19306 -0.335,22.0471 -0.335,22.0471c0,0 0.37315,-15.15369 -2.01439,-19.26587c-2.38754,-4.11218 -5.78733,-5.16807 -7.92717,-10.04645c-2.13981,-4.87834 0.63711,-4.44237 1.99198,-3.48454z"/><path d="M424.96116,220.62613c1.35484,0.95785 6.09931,5.5567 8.28455,10.74976c2.1852,5.19305 -2.44484,21.47288 -2.44484,21.47288c0,0 2.48299,-14.57946 0.09545,-18.69165c-2.38755,-4.1122 -5.78733,-5.16807 -7.92715,-10.04644c-2.13981,-4.87834 0.63712,-4.44236 1.99198,-3.48453z"/><path d="M395.84234,220.41552c-0.10583,-1.91664 0.79381,-5.17505 3.42158,-0.67125c2.62776,4.5038 1.90805,8.72207 3.86697,13.1633c1.95891,4.44122 11.06927,9.78252 11.06927,9.78252c0,0 -11.29552,-3.71591 -14.13345,-8.40795c-2.8379,-4.69197 -4.11853,-11.94992 -4.22436,-13.86659z" data-paper-data="{&quot;index&quot;:null}"/></g></g><g data-paper-data="{&quot;index&quot;:null}" fill="#000000" stroke="#000000" stroke-width="1"><path d="M385.27236,331.77497c-3.39105,-6.14227 8.19566,-44.0157 -7.60449,-70.59807c-19.55689,-32.9028 -45.81735,-62.87024 -47.37262,-67.29816c-2.81176,-8.00526 -6.7188,-22.60097 -2.51931,-18.50215c10.35201,10.899 44.60728,39.54988 68.80012,70.2624c21.46386,27.2481 51.16336,61.58233 54.16701,66.77847c2.30394,4.00459 -8.8292,18.01894 -9.5663,22.72585c-0.53141,3.38419 -10.87435,5.49699 -14.1225,7.62706c-3.2484,2.13016 -18.34713,4.48397 -21.6112,3.55201c-4.86354,-1.39414 -16.09959,-5.8795 -20.2285,-13.35791z" stroke-linecap="butt"/><g stroke-linecap="round"><path d="M445.58134,315.49793c-1.74525,-5.61288 2.43637,-4.80803 4.23425,-3.59633c1.79791,1.21168 7.68913,6.82282 9.40271,12.78696c1.71357,5.96411 -1.11204,16.0687 -1.11204,16.0687c0,0 -1.06996,-8.48751 -3.44997,-13.28733c-2.38003,-4.79982 -7.32974,-6.35909 -9.07496,-11.97201z"/><path d="M444.07107,320.6275c1.79787,1.2117 7.68907,6.82285 9.40268,12.78695c1.71356,5.96412 -1.11204,16.0687 -1.11204,16.0687c0,0 -1.06996,-8.48751 -3.44997,-13.28733c-2.38002,-4.79982 -7.32973,-6.35911 -9.07496,-11.972c-1.74522,-5.61287 2.43635,-4.80801 4.23425,-3.59633z"/><path d="M437.8154,331.81382c1.79787,1.2117 7.68907,6.82285 9.40267,12.78695c1.71357,5.96412 -1.11204,16.0687 -1.11204,16.0687c0,0 -1.06996,-8.48751 -3.44997,-13.28733c-2.38002,-4.79982 -7.32973,-6.35912 -9.07496,-11.97201c-1.74522,-5.61287 2.43635,-4.80801 4.23426,-3.59633z"/><path d="M427.69206,338.19321c1.79787,1.2117 7.68907,6.82286 9.40268,12.78695c1.71356,5.96412 -1.11205,16.0687 -1.11205,16.0687c0,0 -1.06996,-8.48751 -3.44997,-13.28733c-2.38002,-4.79982 -7.32973,-6.35912 -9.07496,-11.97201c-1.74522,-5.61287 2.43635,-4.80801 4.23426,-3.59633z"/><path d="M382.42619,334.54665c0.45842,-2.11906 2.91852,-5.59493 5.54521,-0.33651c2.62667,5.25842 0.13461,9.81042 1.74032,14.92163c1.60571,5.11122 6.70983,11.97638 6.70983,11.97638c0,0 -9.03463,-5.33496 -11.92731,-10.82492c-2.89265,-5.48991 -2.52648,-13.61749 -2.06804,-15.73656z" data-paper-data="{&quot;index&quot;:null}"/></g></g><g data-paper-data="{&quot;index&quot;:null}" fill="#000000" stroke="#000000" stroke-width="1"><path d="M449.9672,102.50433c-6.71413,-1.9058 -35.23344,-14.11245 -65.01087,-21.92373c-36.85751,-9.66857 -75.83826,-15.19392 -80.10878,-16.91315c-7.7207,-3.1082 -21.01641,-9.24885 -15.29555,-8.7291c14.69026,1.6984 57.81834,3.42846 96.02567,10.14763c33.89747,5.96122 63.71315,16.97571 69.47951,18.53554c4.43706,1.20639 8.8221,3.69697 11.83062,6.45274c2.16216,1.98192 3.57447,4.73257 3.06905,7.11146c-0.50551,2.37902 -2.8794,4.30032 -5.65932,5.07886c-4.14618,1.15715 -6.15551,2.56003 -14.33029,0.23972z" stroke-linecap="butt"/><g stroke-linecap="round"><path d="M458.08987,86.16255c-5.26847,-2.26716 -1.99483,-3.46867 0.05278,-3.5311c2.04761,-0.06244 9.97041,0.59386 15.47833,3.05759c5.50789,2.46372 11.1701,8.86247 11.1701,8.86247c0,0 -6.96163,-4.03759 -12.03544,-5.63168c-5.07381,-1.59408 -9.39729,-0.49009 -14.66575,-2.75728z"/><path d="M461.52908,88.23262c2.04761,-0.06244 9.97039,0.59387 15.4783,3.05758c5.50789,2.46374 11.1701,8.86249 11.1701,8.86249c0,0 -6.96163,-4.03759 -12.03544,-5.63168c-5.07379,-1.59408 -9.39731,-0.49011 -14.66575,-2.75728c-5.26843,-2.26716 -1.99483,-3.46866 0.05278,-3.5311z"/><path d="M463.6888,92.60757c2.04762,-0.06244 9.9704,0.59387 15.47831,3.05758c5.50791,2.46374 11.1701,8.86249 11.1701,8.86249c0,0 -6.96163,-4.03759 -12.03544,-5.63168c-5.07379,-1.59408 -9.3973,-0.49011 -14.66574,-2.75728c-5.26843,-2.26716 -1.99483,-3.46866 0.05278,-3.5311z"/><path d="M464.60467,96.90924c2.04761,-0.06244 9.97039,0.59387 15.4783,3.05758c5.50791,2.46374 11.1701,8.86249 11.1701,8.86249c0,0 -6.96163,-4.03759 -12.03544,-5.63168c-5.07382,-1.59409 -9.39733,-0.49012 -14.66577,-2.75729c-5.26843,-2.26716 -1.99483,-3.46866 0.05278,-3.5311z"/><path d="M453.71888,102.73377c-1.27336,-1.2898 -2.26791,-4.06877 3.30302,-2.32986c5.57093,1.73893 7.34078,5.09491 12.14889,7.15304c4.80813,2.05813 13.15407,3.67801 13.15407,3.67801c0,0 -9.73201,0.70927 -15.64454,-1.04783c-5.91249,-1.75708 -11.68808,-6.16352 -12.96143,-7.45334z" data-paper-data="{&quot;index&quot;:null}"/></g></g><g data-paper-data="{&quot;index&quot;:null}" fill="#000000" stroke="#000000" stroke-width="1"><path d="M425.25555,35.21125c8.49616,-0.16128 10.08182,1.70717 13.79645,3.88235c2.48988,1.46102 4.29602,3.92368 4.17881,6.35297c-0.11726,2.42916 -2.18369,4.72929 -4.77939,6.09503c-3.61128,1.89845 -8.4861,3.18981 -13.0841,3.22608c-3.64137,0.02404 -102.75721,-17.59406 -106.78882,-23.23551c-2.2825,-3.1939 2.80332,-9.74644 18.93677,-9.09987c30.77607,1.23339 85.04042,12.83021 87.74025,12.77891z" stroke-linecap="butt"/><g stroke-linecap="round"><path d="M428.94728,53.0831c5.67219,-0.85029 9.57181,1.31865 14.88431,1.06968c5.3125,-0.24898 13.07301,-2.37995 13.07301,-2.37995c0,0 -7.10545,4.74524 -13.05924,5.72459c-5.95383,0.97934 -13.78243,-0.40428 -15.74657,-0.98628c-1.96416,-0.58198 -4.82372,-2.5778 0.84848,-3.42805z"/><path d="M432.80033,51.9574c-1.96416,-0.582 -4.82368,-2.57778 0.84848,-3.42805c5.67218,-0.85027 9.57183,1.31866 14.88431,1.06968c5.3125,-0.24898 13.07301,-2.37995 13.07301,-2.37995c0,0 -7.10545,4.74524 -13.05924,5.7246c-5.9538,0.97933 -13.78239,-0.40429 -15.74654,-0.98627z"/><path d="M436.00331,48.27697c-1.96416,-0.582 -4.82368,-2.57778 0.84848,-3.42805c5.67218,-0.85027 9.57181,1.31867 14.8843,1.06969c5.3125,-0.24898 13.07301,-2.37995 13.07301,-2.37995c0,0 -7.10542,4.74524 -13.05924,5.7246c-5.95381,0.97934 -13.7824,-0.4043 -15.74656,-0.98628z"/><path d="M437.98476,44.35056c-1.96416,-0.582 -4.82368,-2.57778 0.84848,-3.42805c5.67218,-0.85027 9.57182,1.31866 14.88433,1.06967c5.3125,-0.24898 13.07301,-2.37995 13.07301,-2.37995c0,0 -7.10544,4.74525 -13.05924,5.7246c-5.9538,0.97933 -13.78239,-0.40429 -15.74654,-0.98627z"/><path d="M428.94186,35.94508c1.55993,-0.9229 8.26747,-3.71267 14.43251,-3.90561c6.16508,-0.19296 15.39534,2.97207 15.39534,2.97207c0,0 -8.48325,-0.55964 -13.65705,0.20577c-5.17378,0.7654 -7.74015,3.55981 -13.57027,3.82221c-5.83012,0.26238 -4.16045,-2.17155 -2.60053,-3.09442z" data-paper-data="{&quot;index&quot;:null}"/></g></g><path d="M50.69066,64.71144c-21.31132,-16.15494 -24.68683,-40.49428 -43.77342,-53.41682c-0.75451,-0.51084 -17.04212,7.61619 -31.01776,18.9076c-14.74051,11.90938 -27.21047,27.0196 -28.12195,26.56353c-1.05793,-0.52936 9.23255,-16.05632 22.16223,-29.09892c11.8988,-12.00272 26.53735,-21.60949 25.39816,-21.98143c-30.03417,-9.80591 -72.36136,2.88686 -72.36136,2.88686c0,0 51.79888,-21.27388 81.8553,-14.83947c0.64948,0.13904 -0.64815,-3.91485 -5.48142,-9.65417c-3.17559,-3.77089 -9.00598,-8.40498 -12.84387,-12.57844c-7.95153,-8.64677 -20.05263,-10.79958 -18.27367,-9.5715c0.37285,0.25739 13.36812,-1.86073 20.02734,4.70495c6.00797,5.92358 14.91284,13.73721 20.21747,20.24718c6.41906,7.87763 8.71874,13.9848 9.14718,14.31613c5.1211,3.96031 10.58898,9.13396 14.57188,14.67181c10.21345,14.20085 15.04964,30.73976 28.8019,34.71304c15.18784,4.38805 34.67873,9.13821 48.96609,6.49208c25.19128,-4.66562 41.32265,-20.84973 40.03216,-20.54143c-0.92153,0.22015 1.38487,15.59357 -7.60647,24.09328c-12.51111,11.82703 -38.38359,17.96876 -49.56738,19.24545c-20.88744,2.38441 -38.32524,-12.27371 -42.13241,-15.15971z" fill="#000000" stroke="#000000" stroke-width="1" stroke-linecap="round"/><g data-paper-data="{&quot;index&quot;:null}" fill="#000000" stroke="#000000" stroke-width="1"><g data-paper-data="{&quot;index&quot;:null,&quot;origRot&quot;:0}" stroke-linecap="butt"><path d="M-50.20949,179.60453c1.37234,-0.4593 2.60444,-0.54509 3.48592,-0.31225c0.88155,0.23278 1.41234,0.78425 1.38326,1.59837c-0.02901,0.81404 -0.61251,1.73843 -1.53212,2.57401c-0.91961,0.83563 -2.17536,1.58241 -3.5477,2.0417c-1.37226,0.45923 -2.60449,0.54504 -3.48597,0.3122c-0.8814,-0.23281 -1.41226,-0.78432 -1.38325,-1.59837c0.02901,-0.81405 0.61258,-1.73845 1.5322,-2.57403c0.91956,-0.83562 2.17528,-1.58238 3.54769,-2.04165z"/><path d="M-48.44953,180.86672c0.49684,0.13124 0.796,0.44207 0.77964,0.90089c-0.01636,0.45888 -0.34523,0.97988 -0.86357,1.45084c-0.51834,0.47097 -1.22609,0.8919 -1.99962,1.15075c-0.77353,0.25886 -1.46796,0.3072 -1.96481,0.17597c-0.49684,-0.13124 -0.79601,-0.44207 -0.77964,-0.90089c0.01635,-0.45882 0.34522,-0.97987 0.8635,-1.45083c0.51834,-0.47096 1.22617,-0.8919 1.99969,-1.15076c0.77346,-0.25885 1.46798,-0.30721 1.96481,-0.17597z"/></g><g data-paper-data="{&quot;index&quot;:null,&quot;origRot&quot;:0}" stroke-linecap="butt"><path d="M-27.43158,172.12506c1.31158,0.06162 2.26933,0.44833 2.75651,1.02353c0.48728,0.57517 0.50383,1.33885 -0.06533,2.15375c-0.56907,0.81487 -1.61744,1.52848 -2.85157,2.02274c-1.23417,0.4943 -2.65404,0.76921 -3.96562,0.70758c-1.31148,-0.06167 -2.26936,-0.4484 -2.75654,-1.0236c-0.48716,-0.57514 -0.50373,-1.33889 0.06534,-2.15375c0.56907,-0.81487 1.61751,-1.52847 2.85164,-2.02273c1.23411,-0.49433 2.65399,-0.76923 3.96559,-0.70754z"/><path d="M-30.78442,173.9044c0.69561,-0.27858 1.49597,-0.43354 2.23523,-0.39878c0.7392,0.03475 1.27907,0.25272 1.55367,0.57692c0.2746,0.3242 0.28393,0.75463 -0.03683,1.21392c-0.32079,0.45934 -0.91166,0.86155 -1.60727,1.14013c-0.69561,0.27858 -1.49592,0.43356 -2.23518,0.3988c-0.73926,-0.03476 -1.27906,-0.25273 -1.55367,-0.57693c-0.2746,-0.3242 -0.28392,-0.75463 0.03683,-1.21392c0.32075,-0.45929 0.91166,-0.86154 1.60721,-1.14013z"/></g><g data-paper-data="{&quot;index&quot;:null,&quot;origRot&quot;:0}" stroke-linecap="butt"><path d="M-9.15897,179.26671c-0.04845,0.77416 -0.56555,1.55258 -1.53877,2.15097c-0.97314,0.59838 -2.22038,0.90478 -3.44908,0.91595c-1.22877,0.01121 -2.43893,-0.27283 -3.33819,-0.85416c-0.89918,-0.58132 -1.31922,-1.35127 -1.27068,-2.12543c0.04852,-0.77409 0.56563,-1.55257 1.53877,-2.15096c0.97313,-0.59839 2.2204,-0.90475 3.4491,-0.91592c1.22874,-0.01125 2.43889,0.2728 3.33814,0.8542c0.89927,0.58133 1.31924,1.35119 1.27071,2.12535z"/><path d="M-14.07016,177.61288c0.69255,-0.00629 1.3747,0.15381 1.88154,0.48149c0.50681,0.32766 0.74357,0.7616 0.71621,1.19795c-0.02736,0.43635 -0.3188,0.87508 -0.8673,1.21236c-0.54856,0.33731 -1.25152,0.50999 -1.94407,0.51628c-0.69255,0.00629 -1.37467,-0.15377 -1.88151,-0.48145c-0.50685,-0.32768 -0.74357,-0.7616 -0.71621,-1.19795c0.02735,-0.43635 0.3188,-0.87508 0.8673,-1.21236c0.5485,-0.33727 1.25151,-0.50999 1.94403,-0.51632z"/></g><g data-paper-data="{&quot;index&quot;:null,&quot;origRot&quot;:0}" stroke-linecap="butt"><path d="M7.06072,182.25898c1.30027,0.08628 2.23868,0.49323 2.7038,1.08121c0.4652,0.58794 0.45692,1.35693 -0.13457,2.16665c-0.59139,0.80968 -1.6554,1.5086 -2.89675,1.98329c-1.24139,0.47473 -2.66006,0.72519 -3.96033,0.63891c-1.30016,-0.08632 -2.23871,-0.49331 -2.70382,-1.08128c-0.46508,-0.58791 -0.45683,-1.35698 0.13457,-2.16667c0.59139,-0.80968 1.65547,-1.50858 2.89682,-1.98327c1.24133,-0.47475 2.66001,-0.7252 3.96028,-0.63885z"/><path d="M5.90634,183.6279c0.73282,0.04864 1.2618,0.27802 1.52395,0.60943c0.26215,0.33141 0.2575,0.76483 -0.07583,1.2212c-0.33338,0.45642 -0.93307,0.85034 -1.63276,1.11789c-0.69969,0.26754 -1.49931,0.40876 -2.23218,0.36009c-0.73288,-0.04865 -1.2618,-0.27803 -1.52396,-0.60944c-0.26215,-0.33141 -0.25749,-0.76483 0.07584,-1.2212c0.33334,-0.45637 0.93306,-0.85034 1.6327,-1.11791c0.69968,-0.26754 1.49937,-0.40872 2.23224,-0.36007z"/></g><g data-paper-data="{&quot;index&quot;:null,&quot;origRot&quot;:0}" stroke-linecap="butt"><path d="M31.46485,178.26542c0.83655,0.28835 1.29839,0.88102 1.18723,1.70869c-0.11109,0.82763 -0.77447,1.73544 -1.75681,2.53325c-0.98234,0.79787 -2.28363,1.48567 -3.66947,1.87385c-1.38575,0.38811 -2.5969,0.40393 -3.43337,0.11552c-0.8364,-0.28838 -1.29832,-0.88107 -1.18723,-1.7087c0.11109,-0.82762 0.77455,-1.73544 1.75689,-2.53325c0.98228,-0.79785 2.28355,-1.48566 3.66945,-1.87379c1.38584,-0.38818 2.59685,-0.40399 3.43331,-0.11557z"/><path d="M27.68532,179.83423c0.78107,-0.21875 1.46368,-0.22767 1.93515,-0.06511c0.47147,0.16256 0.73179,0.4966 0.66916,0.96308c-0.06263,0.46653 -0.43651,0.97818 -0.99021,1.42786c-0.55369,0.44969 -1.28712,0.83738 -2.06825,1.05615c-0.78113,0.21877 -1.46369,0.22767 -1.93514,0.06511c-0.47146,-0.16256 -0.73179,-0.4966 -0.66916,-0.96308c0.06263,-0.46648 0.43652,-0.97818 0.99015,-1.42786c0.55369,-0.44968 1.28719,-0.83738 2.06832,-1.05615z"/></g><g data-paper-data="{&quot;index&quot;:null,&quot;origRot&quot;:0}" stroke-linecap="butt"><path d="M52.64813,169.44526c1.38583,-0.38818 2.59685,-0.40399 3.43331,-0.11557c0.83655,0.28836 1.29839,0.88102 1.18723,1.70869c-0.11108,0.82762 -0.77448,1.73545 -1.75681,2.53325c-0.98235,0.79787 -2.28363,1.48567 -3.66947,1.87385c-1.38575,0.38811 -2.5969,0.40393 -3.43337,0.11552c-0.83641,-0.28838 -1.29832,-0.88107 -1.18723,-1.7087c0.11108,-0.82762 0.77454,-1.73544 1.75687,-2.53325c0.98229,-0.79786 2.28356,-1.48567 3.66946,-1.8738z"/><path d="M50.23356,171.95465c0.55369,-0.44968 1.2872,-0.83738 2.06833,-1.05615c0.78107,-0.21876 1.4637,-0.22768 1.93515,-0.06512c0.47145,0.16257 0.73177,0.4966 0.66915,0.96308c-0.06263,0.46654 -0.43651,0.9782 -0.99021,1.42788c-0.55368,0.44969 -1.28712,0.83738 -2.06825,1.05615c-0.78113,0.21877 -1.4637,0.22767 -1.93515,0.06511c-0.47146,-0.16257 -0.73179,-0.49659 -0.66917,-0.96307c0.06263,-0.46648 0.43653,-0.97819 0.99016,-1.42787z"/></g><g data-paper-data="{&quot;index&quot;:null,&quot;origRot&quot;:0}" stroke-linecap="butt"><path d="M72.31205,156.1093c1.32797,-0.58347 2.58129,-0.79665 3.53293,-0.66927c0.95169,0.1273 1.60159,0.59524 1.7238,1.3728c0.12227,0.77749 -0.30609,1.71916 -1.09733,2.61224c-0.79124,0.89312 -1.94534,1.73761 -3.27332,2.32107c-1.32791,0.58339 -2.58135,0.7966 -3.53298,0.66923c-0.95157,-0.12734 -1.60154,-0.59532 -1.72381,-1.37281c-0.12227,-0.77749 0.30616,-1.71918 1.0974,-2.61226c0.79117,-0.89311 1.94527,-1.73759 3.27332,-2.32103z"/><path d="M72.36973,157.49925c0.74846,-0.32883 1.45493,-0.44901 1.9913,-0.37721c0.53638,0.07179 0.90268,0.33554 0.97159,0.77376c0.06892,0.43828 -0.17251,0.96901 -0.61849,1.47239c-0.44598,0.50337 -1.09646,0.97937 -1.84497,1.30822c-0.74851,0.32885 -1.45492,0.44901 -1.99129,0.37721c-0.53638,-0.07179 -0.9027,-0.33553 -0.9716,-0.77375c-0.06891,-0.43822 0.17252,-0.96902 0.61844,-1.47237c0.44597,-0.50338 1.09652,-0.9794 1.84504,-1.30825z"/></g><path d="M78.72893,152.91105l-18.72316,15.35064l-30.3433,12.22279l-22.04696,4.91211l-19.25131,-6.98242l-16.57153,-6.06348l-23.81568,9.66904l-8.512,9.1409l4.20161,12.4533l4.92823,5.49833l8.37294,6.23526l12.70855,0.20051l-18.22231,4.00211l-12.44149,-4.04423l-6.89952,-7.69766l-4.85366,-10.07452l2.71099,-13.54211l11.07385,-13.53064l13.81512,-8.40141l19.20289,-6.01433l12.68035,-0.34868l12.16938,4.77607l16.67432,2.03648l9.97233,-1.81682l17.06734,-8.39694l13.51479,-8.21877l10.90958,-13.71391l14.94896,16.67826z" stroke-linecap="round"/></g><g stroke="#000000" stroke-width="0.5"><path d="M179.57851,257.92855c20.99247,4.43934 4.20969,9.67499 4.44632,20.54721c0.23664,10.87219 9.16036,16.18739 1.62045,19.72883c-7.53995,3.54146 -28.92784,4.20469 -51.28104,4.20469c-15.84123,0 -50.24491,-2.18997 -55.23334,-5.85551c-3.19226,-2.34568 2.68155,-6.90783 2.9247,-18.07801c0.24312,-11.17015 -10.67368,-14.96965 -3.37921,-18.48367c7.29444,-3.51401 32.90203,-6.28235 54.78873,-6.28235c21.88666,0 25.26181,-0.19076 46.11343,4.21881z" fill="#000000" stroke-linecap="round"/><path d="M133.90968,260.3131c18.71277,0 47.8228,3.30166 47.8228,3.30166c0,0 -2.60853,10.21731 -2.60853,16.09561c0,5.87831 2.60853,14.85749 2.60853,14.85749c0,0 -28.61378,2.558 -47.8228,2.47624c-19.20902,-0.08176 -49.12705,-2.88897 -49.12705,-2.88897c0,0 2.17375,-7.53936 2.17375,-14.03207c0,-6.49271 -2.17375,-16.50831 -2.17375,-16.50831c0,0 30.41432,-3.30166 49.12705,-3.30166z" fill="#000000" stroke-linecap="round"/><g fill="#3f3f3f" stroke-linecap="butt"><path d="M129.15655,296.79091c0.73556,-1.22844 4.48441,-11.42041 4.48441,-11.42041c0,0 3.89823,10.38347 4.57024,11.43697c-1.05427,0.04296 -3.46544,0.0648 -4.53699,0.0648c-1.37826,0 -2.96245,-0.01535 -4.51766,-0.08133z" data-paper-data="{&quot;index&quot;:null}"/><path d="M120.17158,296.79091c0.73556,-1.22844 4.48441,-11.42041 4.48441,-11.42041c0,0 3.89823,10.38347 4.57024,11.43697c-1.05427,0.04296 -3.46544,0.0648 -4.53699,0.0648c-1.37826,0 -2.96245,-0.01535 -4.51766,-0.08133z" data-paper-data="{&quot;index&quot;:null}"/><path d="M111.63581,296.36624c0.73556,-1.22844 4.48441,-10.99577 4.48441,-10.99577c0,0 3.89823,10.38347 4.57024,11.43697c-1.05427,0.04296 -3.46544,-0.14755 -4.53699,-0.14755c-1.37826,0 -2.96245,-0.2277 -4.51766,-0.29368z" data-paper-data="{&quot;index&quot;:null}"/><path d="M102.65076,295.94154c0.73556,-1.22844 4.48441,-10.99574 4.48441,-10.99574c0,0 3.89823,10.38347 4.57024,11.43697c-1.05427,0.04296 -3.46544,-0.14755 -4.53699,-0.14755c-1.37826,0 -2.96245,-0.2277 -4.51766,-0.29368z" data-paper-data="{&quot;index&quot;:null}"/><path d="M93.66573,295.0922c0.73556,-1.22844 4.48441,-10.57107 4.48441,-10.57107c0,0 3.89823,10.38347 4.57024,11.43697c-1.05427,0.04296 -3.46544,-0.35987 -4.53699,-0.35987c-1.37826,0 -2.96245,-0.44005 -4.51766,-0.506z" data-paper-data="{&quot;index&quot;:null}"/><path d="M85.57918,293.81816c0.73556,-1.22844 4.03518,-10.35872 4.03518,-10.35872c0,0 3.44897,10.38347 4.12097,11.43697c-1.05427,0.04296 -3.46544,-0.35987 -4.53699,-0.35987c-1.37826,0 -2.06395,-0.65237 -3.61916,-0.71835z" data-paper-data="{&quot;index&quot;:null}"/><path d="M142.67861,297.08459c-1.07155,0 -3.48275,-0.02184 -4.53699,-0.0648c0.67204,-1.05347 4.57024,-11.43697 4.57024,-11.43697c0,0 3.74888,10.192 4.48441,11.42041c-1.55522,0.06598 -3.13937,0.08133 -4.51766,0.08133z" data-paper-data="{&quot;index&quot;:null}"/><path d="M151.21442,296.87224c-1.07155,0 -3.48275,0.19051 -4.53699,0.14755c0.67204,-1.05347 4.57024,-11.43697 4.57024,-11.43697c0,0 3.74888,9.7673 4.48441,10.99574c-1.55522,0.06598 -3.13937,0.29368 -4.51766,0.29368z" data-paper-data="{&quot;index&quot;:null}"/><path d="M160.19947,296.44755c-1.07155,0 -3.48275,0.19051 -4.53699,0.14755c0.67204,-1.05347 4.57024,-11.43697 4.57024,-11.43697c0,0 3.74888,9.7673 4.48441,10.99574c-1.55522,0.06598 -3.13937,0.29368 -4.51766,0.29368z" data-paper-data="{&quot;index&quot;:null}"/><path d="M169.18449,295.81055c-1.07155,0 -3.48275,0.40286 -4.53699,0.35987c0.67204,-1.05347 4.57024,-11.43697 4.57024,-11.43697c0,0 3.74888,9.34263 4.48441,10.57107c-1.55522,0.06598 -3.13937,0.506 -4.51766,0.506z" data-paper-data="{&quot;index&quot;:null}"/><path d="M178.1695,294.74886c-1.07155,0 -3.48275,0.40286 -4.53699,0.35987c0.67204,-1.05347 4.12097,-11.43697 4.12097,-11.43697c0,0 3.29961,9.13031 4.03518,10.35872c-1.55522,0.06598 -2.2409,0.71835 -3.61916,0.71835z" data-paper-data="{&quot;index&quot;:null}"/></g><g data-paper-data="{&quot;index&quot;:null}" fill="#3f3f3f" stroke-linecap="butt"><path d="M129.15663,260.64149c1.55522,-0.06598 3.13937,-0.08133 4.51766,-0.08133c1.07155,0 3.48271,0.02184 4.53699,0.0648c-0.67204,1.0535 -4.57024,11.43697 -4.57024,11.43697c0,0 -3.74888,-10.192 -4.48441,-11.42041z" data-paper-data="{&quot;index&quot;:null}"/><path d="M120.17158,260.64149c1.55522,-0.06598 3.13937,-0.08133 4.51766,-0.08133c1.07155,0 3.48271,0.02184 4.53699,0.0648c-0.67204,1.0535 -4.57024,11.43697 -4.57024,11.43697c0,0 -3.74888,-10.192 -4.48441,-11.42041z" data-paper-data="{&quot;index&quot;:null}"/><path d="M111.63581,261.06616c1.55522,-0.06598 3.13937,-0.29368 4.51766,-0.29368c1.07155,0 3.48271,-0.19051 4.53699,-0.14755c-0.67204,1.0535 -4.57024,11.43697 -4.57024,11.43697c0,0 -3.74888,-9.76733 -4.48441,-10.99577z" data-paper-data="{&quot;index&quot;:null}"/><path d="M102.65078,261.49086c1.55522,-0.06598 3.13937,-0.29368 4.51766,-0.29368c1.07155,0 3.48271,-0.19051 4.53699,-0.14755c-0.67204,1.0535 -4.57024,11.43697 -4.57024,11.43697c0,0 -3.74888,-9.7673 -4.48441,-10.99574z" data-paper-data="{&quot;index&quot;:null}"/><path d="M93.66573,262.3402c1.55522,-0.06598 3.13937,-0.506 4.51766,-0.506c1.07155,0 3.48271,-0.40286 4.53699,-0.35987c-0.67204,1.0535 -4.57024,11.43697 -4.57024,11.43697c0,0 -3.74888,-9.34263 -4.48441,-10.57107z" data-paper-data="{&quot;index&quot;:null}"/><path d="M89.19834,262.89586c1.07155,0 3.48271,-0.40286 4.53699,-0.35987c-0.67201,1.0535 -4.12097,11.43697 -4.12097,11.43697c0,0 -3.29961,-9.13031 -4.03518,-10.35872c1.55522,-0.06598 2.2409,-0.71835 3.61916,-0.71835z" data-paper-data="{&quot;index&quot;:null}"/><path d="M142.67866,260.34784c1.37826,0 2.96245,0.01538 4.51766,0.08133c-0.73556,1.22844 -4.48441,11.42041 -4.48441,11.42041c0,0 -3.89823,-10.38347 -4.57024,-11.43697c1.05424,-0.04296 3.46544,-0.0648 4.53699,-0.0648z" data-paper-data="{&quot;index&quot;:null}"/><path d="M151.21445,260.56016c1.37826,0 2.96245,0.2277 4.51766,0.29368c-0.73556,1.22844 -4.48441,10.99577 -4.48441,10.99577c0,0 -3.89823,-10.38347 -4.57024,-11.43697c1.05424,-0.04296 3.46544,0.14752 4.53699,0.14752z" data-paper-data="{&quot;index&quot;:null}"/><path d="M160.19947,260.98483c1.37826,0 2.96245,0.2277 4.51766,0.29368c-0.73556,1.22844 -4.48441,10.99577 -4.48441,10.99577c0,0 -3.89823,-10.38347 -4.57024,-11.43697c1.05424,-0.04296 3.46544,0.14755 4.53699,0.14755z" data-paper-data="{&quot;index&quot;:null}"/><path d="M169.18452,261.62185c1.37826,0 2.96245,0.44005 4.51766,0.506c-0.73556,1.22844 -4.48441,10.57107 -4.48441,10.57107c0,0 -3.89823,-10.38347 -4.57024,-11.43697c1.05424,-0.04296 3.46544,0.35987 4.53699,0.35987z" data-paper-data="{&quot;index&quot;:null}"/><path d="M181.78867,263.40186c-0.73556,1.22844 -4.03518,10.35872 -4.03518,10.35872c0,0 -3.44897,-10.38347 -4.12097,-11.43697c1.05424,-0.04296 3.46544,0.35987 4.53699,0.35987c1.37826,0 2.06395,0.65237 3.61916,0.71835z" data-paper-data="{&quot;index&quot;:null}"/></g></g><g fill="#000000" stroke="#000000" stroke-width="1"><path d="M44.2631,277.91088c-1.39136,6.04671 -6.87469,11.9951 -9.30669,14.20741c-1.63258,1.48231 -9.89737,3.92557 -11.84915,3.37593c-1.95165,-0.5496 -7.66671,0.79271 -8.31069,-1.3075c-0.89461,-2.92159 -8.30203,-9.25118 -7.50763,-12.51375c1.03828,-4.2371 13.12769,-34.84556 21.60432,-58.57868c9.55437,-26.75059 34.16233,-47.95647 38.49049,-57.91774c1.79031,-3.82738 0.25817,10.45277 -0.37782,16.49924c-0.35181,3.34447 -19.55627,19.72398 -26.41603,46.69622c-5.54205,21.79105 4.658,43.8002 3.51531,48.7665z" data-paper-data="{&quot;index&quot;:null}" stroke-linecap="butt"/><g data-paper-data="{&quot;index&quot;:null}"><path d="M-4.69716,317.66624c-1.06848,4.29343 -4.21349,6.3876 -5.69339,10.23825c-1.47992,3.85069 -2.09471,10.02616 -2.09471,10.02616c0,0 -1.88312,-6.52438 -0.83761,-11.05799c1.04549,-4.53365 4.75873,-9.6629 5.89595,-10.87665c1.1372,-1.21376 3.79825,-2.62316 2.72977,1.67025z" stroke-linecap="round"/><path d="M3.73666,324.84192c0.82345,-1.47667 3.16707,-3.70346 3.31184,0.3913c0.14475,4.09479 -2.50027,7.09449 -2.9103,10.9663c-0.41004,3.8718 0.75255,9.40934 0.75255,9.40934c0,0 -3.84954,-4.8828 -4.08809,-9.17505c-0.23852,-4.29225 2.11055,-10.11517 2.93398,-11.59184z" stroke-linecap="round"/><path d="M18.15452,333.75917c0.30826,-1.58257 1.90356,-4.4941 3.53987,-1.26282c1.63633,3.23127 0.01262,6.90939 0.99877,10.22532c0.98614,3.31595 4.19085,7.22499 4.19085,7.22499c0,0 -5.72346,-2.10098 -7.52773,-5.44674c-1.80425,-3.34577 -1.51,-9.15822 -1.20174,-10.74077z" stroke-linecap="round"/><path d="M38.17407,320.12294c-0.04703,-1.51254 0.93241,-4.60772 3.37765,-2.20787c2.44526,2.39986 1.61394,6.19096 3.40469,8.86429c1.79074,2.67333 6.01918,5.20426 6.01918,5.20426c0,0 -6.42102,-0.14449 -9.06694,-2.59595c-2.6459,-2.4515 -3.68748,-7.75219 -3.73455,-9.26471z" stroke-linecap="round"/><path d="M59.82641,292.73238c1.04859,3.89887 -0.82935,11.56334 -0.82935,11.56334c0,0 -0.61916,-5.80143 -2.10158,-8.75416c-1.48242,-2.95272 -4.62825,-3.13999 -5.69964,-6.78472c-1.07137,-3.64476 1.59011,-3.84875 2.72794,-3.32463c1.13785,0.52413 4.85402,3.40134 5.90259,7.30018z" data-paper-data="{&quot;index&quot;:null}" stroke-linecap="round"/><g data-paper-data="{&quot;origRot&quot;:0}"><path d="M44.0987,270.92172l14.11631,16.11009l-5.78606,8.05913l-11.65154,-11.43633l-2.74927,13.52791l6.79261,23.01468l-9.55217,5.58632l-6.38528,-21.98l-2.19909,0.83651l-2.47951,31.21024l-8.85822,2.39327l3.39297,-31.91256l-0.73999,-0.09595l-10.10455,24.83537l-8.05265,-2.55088l9.96202,-23.5607l-2.55823,-1.22367l-11.24391,17.70202l-6.82606,-4.482l16.33606,-22.5681l2.07623,-20.07282l35.96551,-8.31114z" data-paper-data="{&quot;origPos&quot;:null}" stroke-linecap="round"/><path d="M27.64838,288.17571l5.03429,3.7272l-6.94183,2.18924l-4.26172,8.16613l-1.73503,-7.46481l-6.75282,1.89169l5.84238,-6.28484l-1.16794,-8.35758l6.06522,3.56074l5.68199,-5.5467z" data-paper-data="{&quot;origPos&quot;:null}" stroke-linecap="round"/><path d="M44.0987,270.92172l-32.62461,7.32698l-5.0214,7.045l1.13569,-10.97949l35.96549,-8.31111z" data-paper-data="{&quot;origPos&quot;:null}" stroke-linecap="butt"/></g></g></g><path d="M160.35279,119.09323c-0.88535,0.05846 -1.43775,-0.37492 -1.793,-0.55061c-0.02176,0.01764 -0.04785,0.02791 -0.0759,0.02791c-0.0523,0 -0.0978,-0.03571 -0.12111,-0.08833l-0.13457,-0.29059c-0.04267,-0.09278 -0.08534,-0.18557 -0.12801,-0.27835c-0.31527,-0.44372 -0.34066,-1.06457 -0.44241,-1.63197c-0.19698,-1.09844 -0.39394,-2.19688 -0.59092,-3.29532c-0.04707,-0.26248 -0.17756,-0.56174 -0.27048,-0.84769c-0.00355,0.54892 -0.01067,1.09772 -0.01779,1.64665c-0.01608,1.23921 0.08112,2.56559 -0.35191,3.72442c-0.08138,0.21775 -0.49834,1.15694 -0.67944,1.22238c-0.66932,0.24188 -0.78829,-1.33856 -0.88218,-1.79912c-0.34771,-1.75966 -0.66869,-3.50426 -0.91024,-5.29102c-0.04085,-0.30221 -0.20002,-0.51667 -0.28182,-0.77282c-0.01238,0.08479 -0.02476,0.16959 -0.03713,0.25438c-0.33897,2.3223 -0.08291,4.70361 -0.38789,7.04507c-0.05659,0.43446 -0.41201,2.61378 -1.10648,1.83406c-0.16214,-0.18204 -0.15936,-1.15013 -0.19175,-1.42428c-0.1314,-1.11185 -0.3288,-2.20146 -0.52112,-3.2997c-0.35061,-2.00223 -0.8559,-4.05793 -1.07247,-6.09435c-0.12066,0.7363 -0.24229,1.47229 -0.3662,2.20778c-0.21416,1.2712 -0.25217,3.23333 -0.84479,4.30471c-0.08093,0.14632 -0.43177,0.91379 -0.57545,0.90858c-0.35082,-0.01273 -0.477,-1.3706 -0.55311,-1.69625c-0.53047,-2.26995 -0.9274,-4.56247 -1.87854,-6.62123c-0.06739,-0.36451 -0.14349,1.47631 -0.17132,1.88021c-0.07657,1.11108 -0.01455,2.43756 -0.19215,3.57093c0.00063,0.0379 0.00126,0.07581 0.00189,0.11371l0.00004,0.00296h0.0049l-0.00015,0.33737v0.00001v0c-0.00004,0.09313 -0.06168,0.1686 -0.13772,0.1686c-0.07536,0 -0.13658,-0.07415 -0.1377,-0.16614l-0.00477,-0.33697c-0.00078,-0.06862 -0.00156,-0.13724 -0.00234,-0.20586c-0.00829,-0.05795 -0.01293,-0.11808 -0.01505,-0.17933c-0.46357,-2.2633 -0.72798,-4.57531 -1.19035,-6.84006c-0.44094,-2.1598 -0.6661,-4.81241 -1.52501,-6.77234c-0.0331,-0.07553 -0.2653,-0.79209 -0.28423,-0.80386c-0.11571,-0.07195 -0.07147,0.30563 -0.10554,0.45901c-0.0964,0.43404 -0.19724,0.86669 -0.29585,1.29998c-0.29584,1.29993 -0.52744,2.61773 -0.77277,3.93321c-0.34452,1.40359 -0.67924,2.8107 -1.05762,4.20118c-0.09195,0.33793 -0.22632,1.54356 -0.76496,1.02377c-0.03311,-0.03196 -0.19331,-1.167 -0.25687,-1.33789c-0.44622,-1.19979 -0.41409,-2.3642 -0.64903,-3.62795c-0.22082,-1.1878 -0.51132,-2.06972 -0.51132,-3.31337c0,-2.36173 -0.00005,-4.72345 0.00009,-7.08518c0.00014,-2.40051 0.00419,-4.71638 0.28638,-7.09365c0.07683,-0.37215 0.19152,-1.98003 0.78261,-1.32868c0.13907,0.15325 0.03531,1.21843 0.03651,1.45747c0.0057,1.14386 0.19345,2.28354 0.27011,3.42902c0.00377,-0.08014 0.00681,-0.15796 0.00785,-0.23218c0.02047,-1.45683 0.30919,-2.92409 0.50164,-4.36142c0.30293,-2.23828 0.04275,-4.78183 0.04278,-7.05341c0.00004,-2.36172 0.00006,-4.72344 0.0001,-7.08516c0.00004,-2.36063 -0.11761,-4.78192 0.35501,-7.09175c0.04476,-0.21814 0.08951,-0.43628 0.13426,-0.65442c0.10547,-0.51405 0.43587,-1.28845 0.89185,-0.49367c0.21314,0.37151 0.29592,2.18657 1.03403,1.81238c0.11017,-0.05585 0.07666,-0.43076 0.07888,-0.4833c0.02567,-0.60708 0.16425,-1.10452 0.32662,-1.67357c0.08967,-0.31429 0.1582,-0.67758 0.2794,-0.97515c0.20594,-0.50559 0.6094,-0.97507 1.05376,-0.43025c0.21185,0.25975 0.33142,0.95944 0.44559,1.3027c0.16904,0.50823 0.45398,0.94938 0.7027,1.40499c0.13291,0.24347 0.11252,0.75359 0.3514,0.76601c0.1419,0.00738 0.13184,-0.31087 0.2211,-0.44621c0.46849,-1.28715 0.57988,-2.81748 0.81027,-4.19824c0.06569,-0.39371 0.08849,-1.445 0.31029,-1.73445c0.32012,-0.41776 0.69909,-0.19458 0.87489,0.17076c0.27936,0.72181 0.33332,1.48426 0.66147,2.18597c0.11888,0.25421 0.07226,0.73725 0.30681,0.7945c0.22969,0.05607 0.23749,-0.49513 0.3702,-0.73153c0.37991,-0.67678 1.17784,-2.27652 1.68905,-0.81501c0.17002,0.52792 0.35724,1.0497 0.48384,1.59585c0.05015,0.21637 0.1037,0.43162 0.1503,0.64917c0.02886,0.13468 0.10264,0.53167 0.11503,0.39326c0.02435,-0.27191 -0.08723,-0.59878 -0.02096,-0.90492c0.19986,-0.92311 0.76054,-1.8925 1.10091,-2.75613c0.04706,-0.11434 0.06858,-0.25089 0.14118,-0.34304c0.93986,-1.193 1.05986,1.55467 1.71943,1.65112c0.15499,0.02266 0.24717,-0.62317 0.27179,-0.71343c0.2331,-0.85444 0.44661,-1.72535 0.72258,-2.56042c0.1356,-0.41007 0.44368,-1.86545 0.96495,-1.80171c0.26783,0.03275 0.43094,0.73577 0.51788,0.97323c0.44971,1.22831 0.99523,2.45448 1.27455,3.75729c0.07295,0.34024 0.30419,1.98957 0.67542,0.8917c0.06909,-0.20434 1.20809,-4.64721 1.35836,-4.1451c0.01077,0.03599 0.01948,0.1071 0.02644,0.20631c0.00696,-0.09922 0.01566,-0.17032 0.02643,-0.20631c0.15027,-0.50211 1.28927,3.94077 1.35836,4.1451c0.37123,1.09787 0.60248,-0.55147 0.67542,-0.8917c0.27932,-1.30281 0.82484,-2.52897 1.27455,-3.75728c0.08694,-0.23746 0.25004,-0.94049 0.51788,-0.97323c0.52128,-0.06374 0.82936,1.39164 0.96496,1.80171c0.27597,0.83507 0.48947,1.70598 0.72257,2.56042c0.02463,0.09026 0.1168,0.73609 0.27179,0.71343c0.65958,-0.09645 0.77957,-2.84411 1.71943,-1.65112c0.0726,0.09215 0.09412,0.22869 0.14118,0.34304c0.34038,0.86363 0.90105,1.83302 1.10091,2.75613c0.06628,0.30614 -0.04531,0.63301 -0.02096,0.90492c0.0124,0.13842 0.08618,-0.25857 0.11503,-0.39326c0.04661,-0.21755 0.10015,-0.4328 0.1503,-0.64917c0.1266,-0.54616 0.31383,-1.06794 0.48385,-1.59585c0.51121,-1.46152 1.30913,0.13823 1.68904,0.81501c0.1327,0.2364 0.14051,0.7876 0.3702,0.73153c0.23455,-0.05726 0.18792,-0.54029 0.3068,-0.7945c0.32815,-0.70171 0.38212,-1.46416 0.66148,-2.18597c0.1758,-0.36534 0.55477,-0.58852 0.87489,-0.17076c0.2218,0.28945 0.24459,1.34073 0.31029,1.73445c0.23039,1.38076 0.34179,2.9111 0.81028,4.19824c0.08927,0.13533 0.07919,0.45359 0.2211,0.4462c0.23888,-0.01243 0.2185,-0.52254 0.3514,-0.76601c0.24872,-0.45561 0.53365,-0.89676 0.7027,-1.40499c0.11417,-0.34325 0.23374,-1.04295 0.44559,-1.3027c0.44436,-0.54482 0.84782,-0.07534 1.05376,0.43025c0.1212,0.29756 0.18972,0.66086 0.2794,0.97515c0.16237,0.56906 0.30095,1.06649 0.32662,1.67357c0.00222,0.05254 -0.0313,0.42745 0.07888,0.4833c0.73811,0.37418 0.8209,-1.44088 1.03404,-1.81238c0.45599,-0.79478 0.78638,-0.02038 0.89186,0.49367c0.04476,0.21814 0.08951,0.43628 0.13426,0.65443c0.47262,2.30983 0.35497,4.73112 0.355,7.09175c0.00004,2.36172 0.00006,4.72344 0.00011,7.08516c0.00003,2.27158 -0.26014,4.81514 0.04278,7.05341c0.19245,1.43733 0.48117,2.90459 0.50165,4.36142c0.00104,0.07422 0.00408,0.15204 0.00785,0.23218c0.07666,-1.14547 0.26441,-2.28516 0.27011,-3.42901c0.00119,-0.23904 -0.10256,-1.30423 0.03651,-1.45747c0.59109,-0.65134 0.70578,0.95654 0.78261,1.32868c0.28219,2.37727 0.28625,4.69314 0.28638,7.09366c0.00013,2.36173 0.00008,4.72345 0.00008,7.08518c0,1.24365 -0.2905,2.12558 -0.51132,3.31337c-0.23494,1.26376 -0.20281,2.42816 -0.64903,3.62795c-0.06356,0.17089 -0.22375,1.30593 -0.25687,1.33789c-0.53865,0.5198 -0.67301,-0.68584 -0.76496,-1.02377c-0.37837,-1.39049 -0.71309,-2.7976 -1.05762,-4.20119c-0.24532,-1.31549 -0.47693,-2.63328 -0.77277,-3.93321c-0.09861,-0.43329 -0.19946,-0.86594 -0.29586,-1.29998c-0.03406,-0.15338 0.01017,-0.53095 -0.10554,-0.45901c-0.01893,0.01177 -0.25114,0.72832 -0.28423,0.80385c-0.85891,1.95993 -1.08406,4.61253 -1.52501,6.77234c-0.46237,2.26475 -0.72679,4.57677 -1.19035,6.84006c-0.00211,0.06125 -0.00676,0.12138 -0.01505,0.17934c-0.00078,0.06862 -0.00156,0.13724 -0.00234,0.20586l-0.00477,0.33698c-0.00112,0.09198 -0.06234,0.16613 -0.1377,0.16613c-0.07603,0 -0.13767,-0.07548 -0.13771,-0.1686v0v-0.00001l-0.00015,-0.33737h0.0049l0.00004,-0.00296c0.00063,-0.0379 0.00126,-0.07581 0.00189,-0.11372c-0.17759,-1.13337 -0.11557,-2.45985 -0.19215,-3.57093c-0.02784,-0.4039 -0.10394,-2.24471 -0.17132,-1.8802c-0.95114,2.05876 -1.34806,4.35128 -1.87854,6.62123c-0.0761,0.32565 -0.20227,1.68352 -0.5531,1.69626c-0.14369,0.00522 -0.49452,-0.76226 -0.57546,-0.90858c-0.59262,-1.07138 -0.63063,-3.03351 -0.84479,-4.30471c-0.12391,-0.7355 -0.24553,-1.47149 -0.36619,-2.20779c-0.21657,2.03642 -0.72186,4.09213 -1.07247,6.09436c-0.19232,1.09825 -0.38971,2.18786 -0.52111,3.2997c-0.0324,0.27414 -0.02962,1.24224 -0.19175,1.42428c-0.69448,0.77973 -1.04989,-1.39961 -1.10648,-1.83406c-0.30499,-2.34145 -0.04893,-4.72277 -0.3879,-7.04506c-0.01238,-0.08479 -0.02475,-0.16959 -0.03713,-0.25438c-0.0818,0.25615 -0.24096,0.47061 -0.28182,0.77282c-0.24155,1.78676 -0.56253,3.53136 -0.91024,5.29102c-0.09389,0.46056 -0.21286,2.04099 -0.88218,1.79912c-0.18109,-0.06544 -0.59806,-1.00463 -0.67944,-1.22238c-0.43303,-1.15882 -0.33583,-2.4852 -0.35191,-3.72442c-0.00712,-0.54893 -0.01424,-1.09772 -0.01779,-1.64665c-0.09293,0.28595 -0.22342,0.5852 -0.27049,0.84769c-0.19697,1.09844 -0.39394,2.19688 -0.59092,3.29532c-0.10174,0.56739 -0.12713,1.18825 -0.44241,1.63197c-0.04267,0.09278 -0.08534,0.18557 -0.12801,0.27835l-0.04128,0.08914c0.00725,0.0064 -1.2875,0.75401 -2.17286,0.81247zM181.27585,92.38309c-0.01464,0.03966 0.04133,-0.07485 0.0455,-0.11807c0.00179,-0.01853 0.0032,-0.03709 0.00428,-0.05567c-0.01305,0.06047 -0.02942,0.11861 -0.04977,0.17374zM139.46953,92.20937c0.00108,0.01858 0.00248,0.03714 0.00427,0.05567c0.00418,0.04322 0.06014,0.15773 0.0455,0.11807c-0.02035,-0.05513 -0.03672,-0.11327 -0.04977,-0.17374z" fill="#000000" stroke="none" stroke-width="0.5" stroke-linecap="butt"/><g data-paper-data="{&quot;index&quot;:null}" fill="#000000" stroke="#000000" stroke-width="1" stroke-linecap="round"><path d="M271.14652,375.99184c0,0 17.31649,-1.31752 26.2624,-7.02054c8.94591,-5.70302 21.31816,-23.31207 21.31816,-23.31207l-11.30038,4.1633l13.67941,-15.46368l-11.30038,4.75806l15.46368,-16.05844l-13.08466,3.56854c0,0 7.83898,-11.50627 14.86893,-16.6532c7.02995,-5.14693 10.72574,-9.18141 18.43747,-7.73184c7.71173,1.44957 15.44669,6.62775 21.11388,15.16631c5.66718,8.53856 3.15218,11.20013 1.18951,18.43747c-1.96267,7.23734 -10.70563,16.6532 -10.70563,16.6532l1.78427,-15.46368l-10.11087,22.60077l1.18951,-13.08466l-12.4899,25.57455l-0.59476,-13.67941l-13.08466,25.57455l2.37903,-17.84271c0,0 -10.4061,15.56036 -20.23488,21.66099c-9.82879,6.10063 -31.50898,10.45589 -31.50898,10.45589z"/><path d="M359.51228,324.56464c0,0 14.10486,-2.91829 17.55049,-17.05955c3.44562,-14.14127 -5.54226,-32.2236 -5.54226,-32.2236c0,0 12.83557,20.84495 11.08452,32.2236c-1.75105,11.37866 -19.39791,21.79832 -19.39791,21.79832z"/><path d="M353.16097,321.35045c0,0 14.10487,-2.91829 17.5505,-17.05955c3.44562,-14.14127 -5.54226,-32.22361 -5.54226,-32.22361c0,0 12.83558,20.84495 11.08452,32.22361c-1.75105,11.37865 -19.39792,21.79832 -19.39792,21.79832z"/><path d="M346.17905,317.23592c0,0 14.10486,-2.91829 17.55049,-17.05955c3.44562,-14.14126 -5.54226,-32.2236 -5.54226,-32.2236c0,0 12.83557,20.84495 11.08452,32.2236c-1.75105,11.37865 -19.39791,21.79832 -19.39791,21.79832z"/><path d="M339.82774,314.02172c0,0 14.10487,-2.91829 17.55049,-17.05955c3.44563,-14.14127 -5.54226,-32.22361 -5.54226,-32.22361c0,0 12.83557,20.84495 11.08452,32.22361c-1.75105,11.37866 -19.39791,21.79832 -19.39791,21.79832z"/><path d="M334.62108,314.82419c0,0 -11.65019,-11.87481 -9.11606,-19.86643c2.53412,-7.99162 21.1472,-18.075 21.1472,-18.075c0,0 -14.27701,9.3567 -16.32095,19.64914c-2.04394,10.29244 9.19771,16.22065 9.19771,16.22065z" data-paper-data="{&quot;index&quot;:null}"/></g><g data-paper-data="{&quot;index&quot;:null}" fill="#000000" stroke="#000000" stroke-width="1"><g data-paper-data="{&quot;index&quot;:null}"><path d="M546.29157,171.02859c0.58243,-5.17744 4.77839,-7.38853 6.07842,-11.96954c1.30005,-4.58107 0.7631,-12.1385 0.7631,-12.1385c0,0 4.34318,8.28777 3.85153,13.76475c-0.49162,5.47704 -4.82036,11.37053 -6.23015,12.73416c-1.40975,1.36364 -5.04535,2.78652 -4.46291,-2.3909z" stroke-linecap="round"/><path d="M532.02872,161.15138c-0.88011,1.7261 -3.85006,4.19705 -5.02969,-0.88021c-1.1796,-5.07729 2.05778,-8.46724 1.75777,-13.20254c-0.29999,-4.7353 -3.33666,-11.71732 -3.33666,-11.71732c0,0 6.88852,6.49479 8.25444,11.82732c1.36588,5.33253 -0.76577,12.24659 -1.64584,13.97269z" stroke-linecap="round"/><path d="M508.4344,148.40539c-0.08709,1.91867 -1.78021,5.32539 -4.98032,1.13649c-3.20014,-4.18889 -1.64509,-8.53949 -3.89581,-12.75512c-2.25071,-4.21565 -7.94866,-9.42992 -7.94866,-9.42992c0,0 9.02756,3.28172 12.50503,7.6322c3.47744,4.35049 4.40683,11.49773 4.31974,13.41638z" stroke-linecap="round"/><path d="M481.79709,162.85793c0.42613,1.87469 -0.30559,5.58211 -4.51603,2.32372c-4.21047,-3.2584 -3.86338,-7.84351 -7.16242,-11.36145c-3.29902,-3.51793 -10.19887,-7.15188 -10.19887,-7.15188c0,0 9.60704,0.94762 14.12882,4.29382c4.52176,3.34625 7.32227,10.0211 7.74845,11.89576z" stroke-linecap="round"/><path d="M455.9628,194.1112c-2.48102,-4.94345 -1.48522,-14.18956 -1.48522,-14.18956c0,0 2.28859,7.24302 5.19371,11.06928c2.90511,3.82625 7.63928,4.43445 10.09447,9.0666c2.45517,4.63218 -1.46479,4.56546 -3.28453,3.78152c-1.81977,-0.78396 -8.03739,-4.78445 -10.51837,-9.72786z" data-paper-data="{&quot;index&quot;:null}" stroke-linecap="round"/><g data-paper-data="{&quot;origRot&quot;:0}"><path d="M484.54473,222.94656l-24.83772,-21.59812l6.72948,-9.26569l20.06295,15.5275l0.91477,-16.38723l-15.54404,-29.25296l12.92637,-5.75894l14.69322,27.92562l3.08171,-0.77029l-3.64934,-38.2697l12.64332,-1.89638l2.45278,39.02815l1.12583,0.2072l9.21922,-29.47894l12.60602,4.11664l-9.30674,27.9209l4.10206,1.81851l12.59687,-20.52776l11.23184,6.35602l-19.04336,25.93089l1.62915,24.55543l-51.66439,5.96236z" data-paper-data="{&quot;origPos&quot;:null}" stroke-linecap="round"/><path d="M505.00921,203.59603l-8.38285,-5.2087l9.83421,-1.8738l4.43168,-9.58049l4.34375,9.43212l9.62246,-1.52875l-7.23106,7.06645l3.70841,10.4674l-9.88067,-5.12649l-7.16568,6.17353z" data-paper-data="{&quot;origPos&quot;:null}" stroke-linecap="round"/><path d="M484.54473,222.94656l46.91513,-5.14638l5.82815,-8.10411l0.89108,13.4314l-51.66437,5.96232z" data-paper-data="{&quot;origPos&quot;:null}" stroke-linecap="butt"/></g></g><path d="M484.52183,222.91847c-1.36829,-7.43387 3.45292,-14.48906 5.83458,-17.08839c1.60039,-1.74143 12.59282,-4.26246 15.83227,-3.4565c3.23924,0.80596 11.03878,-0.50548 13.20366,2.14718c3.00974,3.69006 17.728,12.02727 18.40083,16.03556c0.86389,5.20515 0.22642,42.51939 1.07698,71.50819c0.95871,32.67453 -5.67389,66.61983 -6.47154,78.73877c-0.4973,4.64842 -5.84164,-8.62978 -8.34202,-16.1107c-1.38302,-4.1379 -0.60874,-36.80661 -5.73297,-69.92572c-4.13988,-26.75713 -32,-54.77213 -33.12393,-60.87777z" stroke-linecap="butt"/></g><g data-paper-data="{&quot;index&quot;:null}" fill="#000000" stroke="#000000" stroke-width="1"><g stroke-linecap="butt"><path d="M32.94384,92.06813c0.89499,6.26376 -2.83998,10.97252 -10.60158,12.08154c-7.76159,1.10901 -19.49881,2.63641 -20.3938,-3.62735c-0.89499,-6.26374 8.68674,-15.83335 16.44834,-16.94236c7.7616,-1.10901 13.65204,2.22443 14.54704,8.48819z" data-paper-data="{&quot;index&quot;:null}"/><path d="M78.15756,107.14145c-3.53029,-0.84306 -4.94283,-3.88674 -4.09907,-6.70912c1.50534,-5.03546 7.30508,-4.40394 7.30508,-4.40394c0,0 -4.96014,-2.44142 -4.18077,-6.50903c0.50626,-2.642 3.49818,-5.26449 7.11523,-4.3457c5.21125,1.32372 4.25772,6.69092 4.25772,6.69092l24.66512,6.32247c0,0 2.37189,-5.76411 7.78571,-4.3625c3.96183,1.02571 5.09031,4.45543 4.43311,6.8966c-1.29008,4.79197 -7.22423,4.45851 -7.22423,4.45851c0,0 5.19934,2.87748 4.01784,7.41928c-1.02041,3.92258 -4.14541,5.29646 -7.21531,4.45897c-6.29245,-1.71664 -4.63204,-7.87898 -4.63204,-7.87898l-24.66511,-6.32246c0,0 -1.92836,5.63069 -7.5632,4.285z" data-paper-data="{&quot;index&quot;:null}"/><path d="M32.79993,103.30144c-3.62653,-0.14807 -5.59828,-2.86312 -5.31332,-5.79508c0.5084,-5.23102 6.32128,-5.72717 6.32128,-5.72717c0,0 -5.33725,-1.44147 -5.35502,-5.58302c-0.01154,-2.69003 2.4199,-5.83919 6.14616,-5.63351c5.36859,0.29633 5.4655,5.74674 5.4655,5.74674l25.42073,1.45875c0,0 1.21852,-6.1128 6.80087,-5.77901c4.08514,0.24427 5.85239,3.39279 5.67717,5.91478c-0.344,4.95063 -6.23142,5.76518 -6.23142,5.76518c0,0 5.65582,1.82335 5.37024,6.50763c-0.24664,4.04565 -3.0489,5.99509 -6.22259,5.76389c-6.50517,-0.47392 -6.06144,-6.84056 -6.06144,-6.84056l-25.4207,-1.45875c0,0 -0.80896,5.89648 -6.59745,5.66011z" data-paper-data="{&quot;index&quot;:null}"/></g><g data-paper-data="{&quot;index&quot;:null}"><path d="M-13.99606,107.85905c-4.33596,0.84457 -9.79199,-1.0011 -11.93481,-1.94296c-1.43663,-0.63306 -5.41743,-5.3023 -5.62466,-6.73098c-0.20722,-1.42857 -2.73407,-4.75779 -1.55423,-5.78441c1.64163,-1.42731 3.61561,-8.07732 5.96775,-8.50461c3.05666,-0.55062 26.46548,-1.54328 44.35656,-2.8966c20.16577,-1.52537 41.08058,8.34594 48.81272,8.27904c3.00772,0.0571 -6.72479,3.19252 -10.84202,4.5284c-2.27734,0.7389 -18.48908,-7.01401 -38.01933,-3.67168c-15.77862,2.7003 -27.14401,15.70387 -30.70523,16.3976z" data-paper-data="{&quot;index&quot;:null}" stroke-linecap="butt"/><g data-paper-data="{&quot;index&quot;:null}"><path d="M-54.02375,87.51405c-3.10202,0.54728 -5.37429,-0.89257 -8.30735,-0.74101c-2.93308,0.15154 -7.12809,1.53853 -7.12809,1.53853c0,0 3.69919,-3.11282 6.95081,-3.74456c3.25165,-0.63174 7.66264,0.29951 8.78125,0.68806c1.1186,0.38853 2.80541,1.71172 -0.29661,2.259z" stroke-linecap="round"/><path d="M-56.25111,95.07657c1.19883,0.10838 3.32551,0.98856 0.70377,2.26757c-2.62175,1.27901 -5.33841,0.42642 -7.97565,1.28002c-2.63724,0.85361 -5.90298,3.21219 -5.90298,3.21219c0,0 2.06236,-3.91699 4.78541,-5.31415c2.72308,-1.39715 7.19059,-1.55397 8.38943,-1.44561z" stroke-linecap="round"/><path d="M-57.87987,107.03558c1.11864,-0.2574 3.4742,-0.06214 1.84575,1.93726c-1.62844,1.99943 -4.49088,2.00748 -6.36251,3.60846c-1.87166,1.60097 -3.48718,4.81672 -3.48718,4.81672c0,0 -0.28942,-4.33099 1.36489,-6.47279c1.65433,-2.14176 5.52045,-3.63224 6.63909,-3.88963z" stroke-linecap="round"/><path d="M-43.21675,116.11247c0.97029,-0.46826 3.2671,-0.72674 2.41355,1.55829c-0.85354,2.28504 -3.56018,2.84126 -4.781,4.77968c-1.22083,1.93842 -1.64367,5.42134 -1.64367,5.42134c0,0 -1.76396,-4.21866 -0.93491,-6.64915c0.82908,-2.43051 3.97579,-4.64185 4.94605,-5.11012z" stroke-linecap="round"/><path d="M-19.13405,122.27163c-2.23277,1.81026 -7.76188,2.80644 -7.76188,2.80644c0,0 3.59465,-2.08145 5.08644,-3.90014c1.49179,-1.81869 0.70334,-3.91922 2.76421,-5.67078c2.0609,-1.75156 2.96369,-0.07932 2.952,0.8125c-0.0117,0.89183 -0.80803,4.14172 -3.04079,5.95197z" data-paper-data="{&quot;index&quot;:null}" stroke-linecap="round"/><g data-paper-data="{&quot;origRot&quot;:0}"><path d="M-9.4972,105.72975l-6.39489,13.84416l-6.91666,-1.43184l4.06784,-10.88846l-9.59537,2.126l-13.00548,11.07802l-6.39785,-4.59723l12.45028,-10.51364l-1.18047,-1.18845l-21.01959,7.41797l-4.12,-5.06973l21.74076,-7.02699l-0.15171,-0.50911l-19.07913,0.6133l-0.67075,-5.97634l18.20871,-0.33718l0.05575,-2.01819l-14.76859,-2.19194l0.94036,-5.73721l19.40741,4.09633l13.65806,-4.45762l15.81321,20.99055z" data-paper-data="{&quot;origPos&quot;:null}" stroke-linecap="round"/><path d="M-25.48087,100.02144l-0.96782,4.35327l-3.43276,-3.88215l-6.54517,-0.40931l4.35378,-3.28863l-3.18452,-3.84529l5.77878,1.98189l5.09861,-3.17806l-0.56124,4.97573l5.25223,2.09113z" data-paper-data="{&quot;origPos&quot;:null}" stroke-linecap="round"/><path d="M-9.49722,105.72976l-14.2063,-19.10207l-6.03572,-1.22788l7.47073,-2.43824l15.81319,20.99054z" data-paper-data="{&quot;origPos&quot;:null}" stroke-linecap="butt"/></g></g></g></g></g></g></svg>