<svg version="1.1" xmlns="http://www.w3.org/2000/svg" xmlns:xlink="http://www.w3.org/1999/xlink" width="168.29841" height="267.22501" viewBox="0,0,168.29841,267.22501"><g transform="translate(-172.34002,-46.18751)"><g data-paper-data="{&quot;isPaintingLayer&quot;:true}" fill-rule="nonzero" stroke-linejoin="miter" stroke-miterlimit="10" stroke-dasharray="" stroke-dashoffset="0" style="mix-blend-mode: normal"><path d="M179.28374,313.41252v-267.22501h123.18203v267.22501z" fill-opacity="0.01" fill="#000000" stroke="none" stroke-width="0" stroke-linecap="butt"/><g><path d="M206.7501,307.5l15.14285,-123.35226l37.78325,-0.14773l13.57389,123.5z" fill="#353535" stroke="#000000" stroke-width="2" stroke-linecap="butt"/><path d="M255.03094,237.04168c5.79899,0 10.5,1.97741 10.5,4.41666c0,2.43926 1.46565,9.08334 -4.33334,9.08334c-3.40886,0 -10.3546,-5.11791 -15.50104,-9.8322c-3.60842,-3.30543 -6.33229,-6.41243 -6.33229,-7.4178c0,-2.43926 9.86768,3.75 15.66667,3.75z" data-paper-data="{&quot;index&quot;:null}" fill="#212121" stroke="none" stroke-width="0" stroke-linecap="butt"/><path d="M241.5295,233.62501c0,1.00537 -2.72388,4.11237 -6.3323,7.41779c-5.14644,4.71429 -12.09217,9.83221 -15.50104,9.83221c-5.79899,0 -4.33334,-6.64408 -4.33334,-9.08334c0,-2.43926 4.70101,-4.41666 10.5,-4.41666c5.79899,0 15.66667,-6.18926 15.66667,-3.75z" fill="#212121" stroke="none" stroke-width="0" stroke-linecap="butt"/><path d="M218.25308,248.15599c0,0 -2.63148,-9.64398 -2.20738,-20.11731c0.0302,-0.74587 0.16111,-5.61767 1.79534,-9.68438c1.08198,-2.69246 3.72159,-4.69502 4.19719,-6.12489c0.41454,-1.24628 -4.47754,-0.8635 -7.3743,1.00219c-4.33456,2.79171 -7.42304,7.91248 -7.42316,7.91196c-0.08706,-0.36204 -0.99955,-5.07068 0.1076,-11.05071c1.15121,-6.21798 4.35618,-13.76402 6.01939,-16.7461c2.72384,-4.88374 6.91157,-8.04733 8.08073,-8.46635c3.03843,-1.08895 9.62146,1.00477 9.62146,1.00477c0,0 10.98302,47.17745 7.09932,48.93068c-4.40681,1.98938 -19.9162,13.34015 -19.9162,13.34015z" fill="#353535" stroke="#000000" stroke-width="2" stroke-linecap="butt"/><path d="M242.63619,234.81584c-3.8837,-1.75322 7.09932,-48.93068 7.09932,-48.93068c0,0 6.58303,-2.09373 9.62147,-1.00477c1.16916,0.41902 5.35689,3.58262 8.08073,8.46635c1.66322,2.98208 4.86819,10.52811 6.0194,16.74609c1.10715,5.98003 0.19466,10.68868 0.1076,11.05071c-0.00013,0.00052 -3.08861,-5.12025 -7.42316,-7.91196c-2.89676,-1.86569 -7.78884,-2.24847 -7.3743,-1.00218c0.4756,1.42987 3.11521,3.43243 4.19719,6.12489c1.63423,4.06671 1.76513,8.93851 1.79534,9.68438c0.4241,10.47333 -2.20738,20.11731 -2.20738,20.11731c0,0 -15.50939,-11.35077 -19.9162,-13.34015z" data-paper-data="{&quot;index&quot;:null}" fill="#353535" stroke="#000000" stroke-width="2" stroke-linecap="butt"/><path d="M240.89216,236.6112c0,0 -2.65537,-3.32712 -5.22963,-7.82261c-1.29976,-2.26981 -2.32503,-4.83747 -3.4926,-7.42513c-2.8337,-6.28023 -4.8027,-16.56799 -5.20886,-18.7929c-2.06315,-11.30176 -2.04746,-18.35808 -2.04746,-18.35808l30.91805,-0.13895c0,0 0.35647,8.43706 -0.97875,17.90802c-1.05042,7.45083 -3.67074,15.98628 -4.77772,18.5314c-1.36344,3.13476 -2.58332,6.32161 -4.17395,9.02358c-2.41004,4.09389 -5.00907,7.07467 -5.00907,7.07467z" fill="#ffffff" stroke="#000000" stroke-width="2" stroke-linecap="butt"/><path d="M248.5451,221.50281c0,0.98184 -3.16378,1.86111 -7.88889,1.86111c-4.72511,0 -7.30555,-0.9626 -7.30555,-1.94444c0,-0.98184 2.58045,-1.61112 7.30555,-1.61112c4.72511,0 7.88889,0.7126 7.88889,1.69445z" fill="#e8e8e8" stroke="none" stroke-width="0" stroke-linecap="butt"/><g stroke="#000000" stroke-width="2"><path d="M252.9429,220.31318c-0.27195,0.19577 -0.89974,0.67359 -1.95912,0.5606c-1.09903,-0.11722 -2.65409,-0.82793 -4.27941,-0.75498c-2.07641,0.0932 -4.44885,1.19963 -6.77627,1.04008c-1.82623,-0.12519 -3.62476,-1.45107 -5.23083,-1.48842c-0.88533,-0.02059 -1.67436,0.93878 -2.36921,1.05209c-2.15359,0.35118 -3.4026,0.22483 -3.8106,-0.0377c-5.3697,-3.45511 3.5651,-33.41601 11.55425,-33.41601c7.98916,0 18.0491,29.3169 12.87119,33.04434z" fill="#4953bd" stroke-linecap="butt"/><path d="M235.35001,201.45558l-1.08333,17.58333" fill="none" stroke-linecap="round"/><path d="M246.26668,220.12225l-2.08334,-18.75" fill="none" stroke-linecap="round"/></g></g><path d="M250.84448,186.36112c0,1.67584 -0.6682,5.68731 -4.03436,8.82189c-2.6736,2.48967 -5.28751,4.48922 -7.85453,4.48922c-2.40427,0 -4.87259,-2.33495 -6.82151,-4.58051c-2.75177,-3.17064 -5.06738,-6.85926 -5.06738,-8.61948c0,-0.55285 6.48109,-0.48756 12.88798,-0.49934c6.48157,-0.01191 10.8898,-0.09488 10.8898,0.38823z" fill="#4953bd" stroke="#000000" stroke-width="2" stroke-linecap="butt"/><g stroke-linecap="butt"><path d="M326.61663,215.0827l-53.76306,-37.6883l12.56277,-17.92101l53.76306,37.68829z" fill="#685346" stroke="#000000" stroke-width="2"/><path d="M337.36455,197.63811c-0.18577,1.83088 -3.15008,5.44684 -5.3244,8.72737c-1.98338,2.99248 -4.44638,6.47004 -5.49471,6.7914c-1.36124,0.41728 -11.79782,-7.32032 -12.06803,-8.20176c-0.51663,-1.68531 7.35927,3.46678 11.41204,2.22441c4.05275,-1.24237 11.77499,-12.49696 11.4751,-9.54143z" fill="#4a3b31" stroke="none" stroke-width="0"/><path d="M289.68598,188.94053c3.02762,-6.41268 7.87704,-12.37401 12.53177,-17.94276l24.08936,16.88681c-4.03134,6.14667 -7.91788,12.36597 -11.70506,18.52228z" fill="#4953bd" stroke="none" stroke-width="0"/><path d="M326.6828,215.29855l-53.76306,-37.68829l12.56277,-17.92102l53.76306,37.6883z" fill="none" stroke="#000000" stroke-width="2"/></g><path d="M173.34003,135.59616c0,-34.9587 28.7599,-63.29833 64.23702,-63.29833c35.47712,0 64.23702,28.33964 64.23702,63.29833c0,34.9587 -28.7599,63.29833 -64.23702,63.29833c-35.47712,0 -64.23702,-28.33964 -64.23702,-63.29833z" fill="#685346" stroke="#000000" stroke-width="2" stroke-linecap="butt"/><path d="M183.84003,135.34215c0,-29.20692 24.02801,-52.8838 53.66805,-52.8838c29.64004,0 53.66805,23.67689 53.66805,52.8838c0,29.20692 -24.02801,52.8838 -53.66805,52.8838c-29.64004,0 -53.66805,-23.67689 -53.66805,-52.8838z" fill="#ffffff" stroke="#000000" stroke-width="2" stroke-linecap="butt"/><path d="M175.06309,138.65128c0,-0.72447 5.12458,55.64911 62.36167,56.6591c54.68764,0.96502 62.51237,-57.67303 62.51237,-56.6591c0,32.64624 -27.95401,59.11123 -62.43702,59.11123c-34.48301,0 -62.43702,-26.465 -62.43702,-59.11123z" fill="#4a3b31" stroke="#000000" stroke-width="0" stroke-linecap="butt"/><path d="M205.39024,133.3173c0,-17.36326 14.2063,-31.43899 31.73065,-31.43899c17.52435,0 31.73065,14.07572 31.73065,31.43899c0,17.36326 -14.2063,31.43899 -31.73065,31.43899c-17.52435,0 -31.73065,-14.07572 -31.73065,-31.43899z" fill="#ffffff" stroke="#000000" stroke-width="2" stroke-linecap="butt"/><path d="M214.93808,132.94824c0,-12.22187 9.99969,-22.12964 22.33493,-22.12964c12.33526,0 22.33495,9.90778 22.33495,22.12964c0,12.22187 -9.9997,22.12965 -22.33495,22.12965c-12.33526,0 -22.33493,-9.90779 -22.33493,-22.12965z" fill="#000000" stroke="none" stroke-width="0" stroke-linecap="butt"/><path d="M205.39024,133.3173c0,-17.36326 14.2063,-31.43899 31.73065,-31.43899c17.52435,0 31.73065,14.07572 31.73065,31.43899c0,0 -14.60724,-1.23604 -29.46026,-1.0211c-16.76196,0.24257 -34.00105,1.89536 -34.00105,1.0211z" fill="#685346" stroke="#000000" stroke-width="2" stroke-linecap="butt"/><path d="M240.65361,93.40595c0,0 -10.54735,1.72078 -15.24587,3.57424c-4.49603,1.77358 -12.36453,7.31749 -12.36453,7.31749c0,0 5.83792,-6.80745 11.65977,-9.10405c5.82184,-2.2966 15.95062,-1.78768 15.95062,-1.78768z" data-paper-data="{&quot;index&quot;:null}" fill="#000000" stroke="none" stroke-width="0" stroke-linecap="butt"/><path d="M233.68392,129.1637h8" fill="none" stroke="#000000" stroke-width="2" stroke-linecap="round"/><path d="M223.89582,166.94228l3.5,1.5" fill="none" stroke="#000000" stroke-width="2" stroke-linecap="round"/><path d="M256.30161,158.39513c0,0.32864 -2.90041,3.59893 -7.42886,5.43049c-3.92726,1.5884 -8.74376,2.56952 -11.79336,2.56952c-2.27172,0 -6.33505,-0.73786 -9.07963,-1.72842c-5.18821,-1.8725 -10.2537,-6.09247 -10.2537,-6.49381c0,-0.25555 1.57715,1.6052 4.20404,3.11402c1.52374,0.8752 3.62187,1.33708 5.39467,1.96629c2.50983,0.89081 6.15576,1.69746 8.40129,1.69746c2.26611,0 7.50108,-0.5126 10.62071,-1.44981c5.91949,-1.77835 9.93485,-5.50761 9.93485,-5.10575z" fill="#000000" stroke="#000000" stroke-width="2" stroke-linecap="butt"/></g></g></svg>