<svg version="1.1" xmlns="http://www.w3.org/2000/svg" xmlns:xlink="http://www.w3.org/1999/xlink" width="135.85922" height="289.44564" viewBox="0,0,135.85922,289.44564"><defs><linearGradient x1="209.10172" y1="74.5668" x2="209.10172" y2="78.18308" gradientUnits="userSpaceOnUse" id="color-1"><stop offset="0" stop-color="#000000"/><stop offset="1" stop-color="#000000"/></linearGradient><linearGradient x1="212.52078" y1="73.99146" x2="212.52078" y2="77.68995" gradientUnits="userSpaceOnUse" id="color-2"><stop offset="0" stop-color="#000000"/><stop offset="1" stop-color="#000000"/></linearGradient><linearGradient x1="257.92551" y1="73.99146" x2="257.92551" y2="77.68995" gradientUnits="userSpaceOnUse" id="color-3"><stop offset="0" stop-color="#000000"/><stop offset="1" stop-color="#000000"/></linearGradient><linearGradient x1="269.66023" y1="74.8168" x2="269.66023" y2="78.43307" gradientUnits="userSpaceOnUse" id="color-4"><stop offset="0" stop-color="#000000"/><stop offset="1" stop-color="#000000"/></linearGradient><linearGradient x1="266.24117" y1="74.24145" x2="266.24117" y2="77.93995" gradientUnits="userSpaceOnUse" id="color-5"><stop offset="0" stop-color="#000000"/><stop offset="1" stop-color="#000000"/></linearGradient></defs><g transform="translate(-171.26281,-24.58672)"><g data-paper-data="{&quot;isPaintingLayer&quot;:true}" fill-rule="nonzero" stroke-linejoin="miter" stroke-miterlimit="10" stroke-dasharray="" stroke-dashoffset="0" style="mix-blend-mode: normal"><path d="M179.28346,314.03237v-267.22501h123.18203v267.22501z" fill-opacity="0.01" fill="#000000" stroke="none" stroke-width="0" stroke-linecap="butt"/><g stroke="#000000" stroke-linecap="butt"><path d="M206.74978,307.91988l15.14285,-131.8421l37.78325,-0.15789l13.57389,132z" fill="#ff80c9" stroke-width="2"/><path d="M219.70002,204.5325l3.12142,-26.32765l35.83075,-0.14203l2.76735,26.1059c0,0 -7.51543,4.19603 -21.55904,4.50964c-12.48458,0.27879 -20.16049,-4.14586 -20.16049,-4.14586z" fill="#c7649c" stroke-width="0"/></g><g data-paper-data="{&quot;index&quot;:null}" stroke-linecap="butt"><path d="M237.41005,124.59362c-29.12584,0 -52.73702,-22.16344 -52.73702,-49.50345c0,-27.33999 23.61118,-49.50345 52.73702,-49.50345c29.12585,0 52.73702,22.16345 52.73702,49.50345c0,27.34 -23.61117,49.50345 -52.73702,49.50345z" fill="#8cefef" stroke="#000000" stroke-width="2"/><path d="M237.53511,37.23984c21.46151,0 38.85951,17.0917 38.85951,38.17537c0,21.08367 -17.39799,38.17536 -38.85951,38.17536c-21.46151,0 -38.85951,-17.09169 -38.85951,-38.17536c0,-21.08367 17.39799,-38.17537 38.85951,-38.17537z" fill="#c2f0f0" stroke="none" stroke-width="0"/><path d="M237.9456,55.84862c10.65518,0 19.29292,9.12782 19.29292,20.38756c0,11.25974 -8.63774,20.38756 -19.29292,20.38756c-10.65518,0 -19.29293,-9.12782 -19.29293,-20.38756c0,-11.25974 8.63774,-20.38756 19.29293,-20.38756z" fill="#d4f0f0" stroke="none" stroke-width="0"/><path d="M262.6961,36.22924c4.20423,2.39064 7.00682,5.39371 6.25974,6.70753c-0.74707,1.31383 -4.76091,0.44089 -8.96514,-1.94976c-4.20423,-2.39064 -7.0068,-5.3937 -6.25973,-6.70752c0.74707,-1.31383 4.7609,-0.4409 8.96513,1.94975z" fill="#d4f0f0" stroke="none" stroke-width="0"/><path d="M247.11316,30.67204c1.2091,0 2.18927,0.98016 2.18927,2.18926c0,1.2091 -0.98017,2.18926 -2.18927,2.18926c-1.2091,0 -2.18927,-0.98016 -2.18927,-2.18926c0,-1.2091 0.98017,-2.18926 2.18927,-2.18926z" fill="#d4f0f0" stroke="none" stroke-width="0"/></g><g stroke-linecap="butt"><path d="M175.8397,135.55172c0,-33.30185 28.7599,-60.29833 64.23702,-60.29833c35.47712,0 64.23702,26.99649 64.23702,60.29833c0,33.30185 -28.7599,60.29833 -64.23702,60.29833c-35.47712,0 -64.23702,-26.99649 -64.23702,-60.29833z" fill="#8cefef" stroke="#000000" stroke-width="2"/><path d="M287.25771,135.94763c0,25.68124 -21.19185,46.5 -47.33333,46.5c-26.14148,0 -47.33334,-20.81876 -47.33334,-46.5c0,-25.68124 21.19186,-46.5 47.33334,-46.5c26.14148,0 47.33333,20.81876 47.33333,46.5z" fill="#c2f0f0" stroke="none" stroke-width="0"/><path d="M262.92438,136.94763c0,13.71507 -10.52131,24.83333 -23.5,24.83333c-12.97869,0 -23.5,-11.11826 -23.5,-24.83333c0,-13.71507 10.52131,-24.83333 23.5,-24.83333c12.97869,0 23.5,11.11826 23.5,24.83333z" fill="#d4f0f0" stroke="none" stroke-width="0"/><path d="M220.19681,85.84174c0.90999,1.60032 -2.50373,5.25823 -7.62475,8.17019c-5.12102,2.91196 -10.01012,3.97525 -10.92011,2.37493c-0.90999,-1.60032 2.50374,-5.25824 7.62475,-8.1702c5.12102,-2.91196 10.01012,-3.97524 10.9201,-2.37492z" fill="#d4f0f0" stroke="none" stroke-width="0"/><path d="M230.92438,84.11429c0,1.47276 -1.19391,2.66666 -2.66667,2.66666c-1.47276,0 -2.66666,-1.19391 -2.66666,-2.66666c0,-1.47276 1.19391,-2.66667 2.66666,-2.66667c1.47276,0 2.66667,1.19391 2.66667,2.66667z" fill="#d4f0f0" stroke="none" stroke-width="0"/></g><path d="M191.51017,126.23978v-28.18144h101.35431v28.18144c0,0 -37.52224,-17.30439 -54.87965,-17.30439c-16.36943,0 -46.47466,17.30439 -46.47466,17.30439z" fill="#62a6a6" stroke="none" stroke-width="NaN" stroke-linecap="butt"/><path d="M189.3899,135.98121c0,-12.968 10.51265,-23.48065 23.48065,-23.48065c12.968,0 23.48065,10.51265 23.48065,23.48065c0,12.968 -10.51265,23.48065 -23.48065,23.48065c-12.968,0 -23.48065,-10.51265 -23.48065,-23.48065z" fill="#ffffff" stroke="#000000" stroke-width="2" stroke-linecap="butt"/><path d="M267.12899,159.46182c-12.968,0 -23.48065,-10.51265 -23.48065,-23.48065c0,-12.968 10.51265,-23.48065 23.48065,-23.48065c12.968,0 23.48065,10.51265 23.48065,23.48065c0,12.968 -10.51265,23.48065 -23.48065,23.48065z" data-paper-data="{&quot;index&quot;:null}" fill="#ffffff" stroke="#000000" stroke-width="2" stroke-linecap="butt"/><path d="M265.96209,97.37973c-3.9295,-0.92235 -11.96762,-0.86207 -11.96762,-0.86207c0,0 7.24586,-1.8937 12.33413,-0.69937c5.08826,1.19433 11.79721,6.36355 11.79721,6.36355c0,0 -8.05724,-3.83822 -12.16372,-4.80211z" data-paper-data="{&quot;index&quot;:null}" fill="#000000" stroke="none" stroke-width="0" stroke-linecap="butt"/><path d="M185.73864,133.08127l3.6,2.6" fill="none" stroke="#000000" stroke-width="2" stroke-linecap="round"/><path d="M294.33864,132.08125l-4.2,3.4" fill="none" stroke="#000000" stroke-width="2" stroke-linecap="round"/><path d="M216.74342,88.8685c1.75965,2.67665 -1.26582,7.77325 -6.75756,11.38356c-5.49175,3.61032 -11.37016,4.3672 -13.12981,1.69055c-1.75965,-2.67665 1.26582,-7.77325 6.75757,-11.38356c5.49175,-3.61031 11.37016,-4.3672 13.12981,-1.69055z" fill="#ecfefe" stroke="none" stroke-width="0" stroke-linecap="butt"/><path d="M224.89973,86.30555c0,1.38071 -1.02975,2.5 -2.3,2.5c-1.27025,0 -2.3,-1.11929 -2.3,-2.5c0,-1.38071 1.02974,-2.5 2.3,-2.5c1.27025,0 2.3,1.11929 2.3,2.5z" fill="#ecfefe" stroke="none" stroke-width="0" stroke-linecap="butt"/><path d="M202.02758,102.18183c0,0 6.70895,-5.16922 11.79721,-6.36355c5.08827,-1.19433 12.33413,0.69937 12.33413,0.69937c0,0 -8.03812,-0.06028 -11.96762,0.86207c-4.10648,0.96389 -12.16372,4.80211 -12.16372,4.80211z" fill="#000000" stroke="none" stroke-width="0" stroke-linecap="butt"/><path d="M196.45529,135.70555c0,-9.12808 7.39976,-16.52784 16.52783,-16.52784c9.12808,0 16.52784,7.39977 16.52784,16.52784c0,9.12808 -7.39977,16.52784 -16.52784,16.52784c-9.12808,0 -16.52783,-7.39977 -16.52783,-16.52784z" fill="#000000" stroke="none" stroke-width="0" stroke-linecap="butt"/><path d="M267.01643,152.2334c-9.12807,0 -16.52783,-7.39977 -16.52783,-16.52784c0,-9.12808 7.39977,-16.52784 16.52783,-16.52784c9.12807,0 16.52783,7.39977 16.52783,16.52784c0,9.12808 -7.39977,16.52784 -16.52783,16.52784z" data-paper-data="{&quot;index&quot;:null}" fill="#000000" stroke="none" stroke-width="0" stroke-linecap="butt"/><path d="M189.38988,135.89785c0,-12.96801 10.51265,-23.48065 23.48066,-23.48065c12.96801,0 23.48065,10.51264 23.48065,23.48065c0,0 -7.9534,-14.30966 -24.17315,-14.1991c-15.92464,0.10855 -22.78816,14.80714 -22.78816,14.1991z" fill="#8cefef" stroke="#000000" stroke-width="2" stroke-linecap="butt"/><path d="M268.97969,121.61541c-16.21975,-0.11056 -24.83982,13.53244 -24.83982,13.53244c0,-12.96801 10.51264,-23.48065 23.48065,-23.48065c12.96801,0 23.48066,10.51264 23.48066,23.48065c0,0.60804 -6.19685,-13.42389 -22.12149,-13.53244z" data-paper-data="{&quot;index&quot;:null}" fill="#8cefef" stroke="#000000" stroke-width="2" stroke-linecap="butt"/><g><path d="M240.41871,78.58029c0,0.17786 1.20839,13.62976 -5.74324,25.9735c-3.95131,7.01619 -16.80048,15.70513 -18.37059,16.32384c-1.91545,0.7548 -7.62391,3.88226 -13.32214,4.08362c-8.14942,0.28797 -16.9748,-2.96984 -20.58436,-6.95584c-3.06997,-3.39013 -6.28972,-7.99302 -7.86481,-12.40126c-1.76335,-4.93513 -2.9002,-14.27002 -1.89366,-23.39707c0.99685,-9.03914 4.12158,-17.88082 5.59067,-20.73505c5.6783,-11.03211 14.42525,-16.97256 22.23582,-16.97256c10.29607,0 19.42445,10.13706 27.36306,19.15271c6.25833,7.1074 12.58925,13.26899 12.58925,14.92812z" fill="#ff80c9" stroke="#000000" stroke-width="2" stroke-linecap="butt"/><path d="M211.62009,73.76497c0,0.29711 1.73575,3.22777 -0.18284,3.22777c-1.91858,0 -6.47244,-2.27315 -6.47244,-2.57026c0,-0.29711 1.55533,-0.53796 3.47392,-0.53796c1.91858,0 3.18136,-0.41666 3.18136,-0.11955z" data-paper-data="{&quot;index&quot;:null}" fill="#ce52af" stroke="none" stroke-width="0" stroke-linecap="butt"/><path d="M213.77779,78.18308l-9.35214,-3.61629" fill="url(#color-1)" stroke="#000000" stroke-width="2" stroke-linecap="round"/><path d="M211.56546,73.99146l1.91065,3.69848" fill="url(#color-2)" stroke="#000000" stroke-width="2" stroke-linecap="round"/><path d="M212.94384,95.70256c-1.91859,0 -3.47392,-0.24085 -3.47392,-0.53796c0,-0.29711 4.55385,-2.57026 6.47244,-2.57026c1.91859,0 0.18284,2.93066 0.18284,3.22777c0,0.29711 -1.26278,-0.11955 -3.18136,-0.11955z" data-paper-data="{&quot;index&quot;:null}" fill="#ce52af" stroke="none" stroke-width="0" stroke-linecap="butt"/><path d="M207.84472,96.26455l9.35213,-3.61629l-2.60864,5.34769" data-paper-data="{&quot;index&quot;:null}" fill="none" stroke="#000000" stroke-width="2" stroke-linecap="round"/></g><path d="M258.88083,73.99146l-1.91065,3.69848" fill="url(#color-3)" stroke="none" stroke-width="2" stroke-linecap="round"/><g data-paper-data="{&quot;index&quot;:null}"><path d="M238.34323,78.83028c0,-1.65913 6.33092,-7.82072 12.58925,-14.92812c7.93861,-9.01565 17.06699,-19.15271 27.36306,-19.15271c7.81057,0 16.55752,5.94046 22.23582,16.97256c1.46909,2.85424 4.59382,11.69591 5.59067,20.73505c1.00654,9.12705 -0.13032,18.46194 -1.89366,23.39707c-1.57509,4.40824 -4.79484,9.01113 -7.86481,12.40126c-3.60956,3.986 -12.43494,7.24381 -20.58436,6.95584c-5.69823,-0.20136 -11.4067,-3.32882 -13.32214,-4.08362c-1.57011,-0.61871 -14.41927,-9.30765 -18.37059,-16.32384c-6.95163,-12.34374 -5.74323,-25.79564 -5.74323,-25.9735z" fill="#ff80c9" stroke="#000000" stroke-width="2" stroke-linecap="butt"/><path d="M270.32322,74.13452c1.91859,0 3.47392,0.24085 3.47392,0.53796c0,0.29711 -4.55386,2.57026 -6.47244,2.57026c-1.91859,0 -0.18284,-2.93066 -0.18284,-3.22777c0,-0.29711 1.26278,0.11955 3.18136,0.11955z" data-paper-data="{&quot;index&quot;:null}" fill="#ce52af" stroke="none" stroke-width="0" stroke-linecap="butt"/><path d="M264.98416,78.43307l9.35214,-3.61629" fill="url(#color-4)" stroke="#000000" stroke-width="2" stroke-linecap="round"/><path d="M265.28584,77.93994l1.91065,-3.69848" fill="url(#color-5)" stroke="#000000" stroke-width="2" stroke-linecap="round"/><path d="M262.63675,96.07211c0,-0.29711 -1.73575,-3.22777 0.18284,-3.22777c1.91859,0 6.47244,2.27315 6.47244,2.57026c0,0.29711 -1.55533,0.53796 -3.47392,0.53796c-1.91858,0 -3.18136,0.41666 -3.18136,0.11955z" data-paper-data="{&quot;index&quot;:null}" fill="#ce52af" stroke="none" stroke-width="0" stroke-linecap="butt"/><path d="M264.17374,98.24595l-2.60864,-5.34769l9.35213,3.61629" data-paper-data="{&quot;index&quot;:null}" fill="none" stroke="#000000" stroke-width="2" stroke-linecap="round"/></g><path d="M259.24593,83.09563c0,10.76008 -7.81396,14.60366 -20.52138,14.60366c-12.70741,0 -20.77011,-3.74193 -20.77011,-14.50201c0,-10.76008 7.93833,-14.60367 20.64575,-14.60367c12.70741,0 20.64575,3.74194 20.64575,14.50202z" fill="#e3e854" stroke="#000000" stroke-width="2" stroke-linecap="butt"/><path d="M254.88813,171.71391c0,0 -4.85806,16.96642 -15.31013,17.14268c-8.61622,0.14532 -14.46613,-17.14268 -14.46613,-17.14268z" fill="#000000" stroke="#000000" stroke-width="2" stroke-linecap="round"/></g></g></svg>