<svg version="1.1" xmlns="http://www.w3.org/2000/svg" xmlns:xlink="http://www.w3.org/1999/xlink" width="167.47405" height="267.22501" viewBox="0,0,167.47405,267.22501"><g transform="translate(-154.1019,-49.1192)"><g data-paper-data="{&quot;isPaintingLayer&quot;:true}" fill-rule="nonzero" stroke-linejoin="miter" stroke-miterlimit="10" stroke-dasharray="" stroke-dashoffset="0" style="mix-blend-mode: normal"><path d="M180.28209,316.34421v-267.22501h123.18203v267.22501z" fill-opacity="0.01" fill="#000000" stroke="none" stroke-width="0" stroke-linecap="butt"/><path d="M206.75011,307.50001l15.14285,-131.8421l37.78325,-0.15789l13.57389,132z" fill="#ffffff" stroke="#000000" stroke-width="2" stroke-linecap="butt"/><path d="M218.53368,213.61913l3.25859,-35.78313l37.40531,-0.19304l2.88896,35.48174c0,0 -7.84569,5.70302 -22.50644,6.12926c-13.03321,0.37892 -21.04643,-5.63483 -21.04643,-5.63483z" fill="#e6e6e6" stroke="#000000" stroke-width="0" stroke-linecap="butt"/><g stroke="#000000" stroke-width="2"><path d="M217.99702,196.21668c0,0 -0.8757,-1.63834 -1.22009,-3.41045c-0.35786,-1.84145 -0.18192,-3.82699 -0.01539,-4.24868c0.79043,-2.00165 2.95985,-4.02413 2.95985,-4.02413l40.16958,0.1251c0,0 2.60043,1.43188 3.30125,3.16035c0.4151,1.02378 0.25516,2.86717 0.26082,3.47337c0.00689,0.73801 -0.03591,2.54323 -1.07757,3.49993c-1.02391,0.9404 -3.03759,2.03872 -3.03759,2.03872z" fill="#ffffff" stroke-linecap="butt"/><path d="M227.31871,190.78507l-0.20799,4.50214" fill="none" stroke-linecap="round"/><path d="M240.32281,191.16372l0.15999,3.74867" fill="none" stroke-linecap="round"/><path d="M255.30582,189.27381l-0.0585,7.12586" fill="none" stroke-linecap="round"/></g><g data-paper-data="{&quot;index&quot;:null}" stroke="#000000" stroke-width="2"><path d="M270.27074,295.78342c0,0 3.14048,1.09832 4.73735,2.03872c1.62456,0.9567 1.6913,2.76192 1.68055,3.49993c-0.00883,0.6062 0.24063,2.44959 -0.40676,3.47337c-1.09298,1.72846 -5.14855,3.16035 -5.14855,3.16035l-62.64752,0.12511c0,0 -3.38337,-2.02247 -4.61611,-4.02413c-0.2597,-0.42169 -0.5341,-2.40724 0.02401,-4.24869c0.53711,-1.77211 1.90282,-3.41045 1.90282,-3.41045z" fill="#ffffff" stroke-linecap="butt"/><path d="M220.33445,301.82922l-0.32438,-4.50213" fill="none" stroke-linecap="round"/><path d="M240.61533,301.45057l0.24952,-3.74867" fill="none" stroke-linecap="round"/><path d="M263.89124,296.21463l0.09124,7.12586" fill="none" stroke-linecap="round"/></g><g stroke="#000000"><path d="M227.81968,211.05117v25.25" fill="none" stroke-width="2.5" stroke-linecap="round"/><path d="M232.81968,239.42617c0,2.55432 -2.29454,4.625 -5.125,4.625c-2.83046,0 -5.125,-2.07068 -5.125,-4.625c0,-2.55432 2.29454,-4.625 5.125,-4.625c2.83046,0 5.125,2.07068 5.125,4.625z" fill="#000000" stroke-width="0.5" stroke-linecap="butt"/></g><g stroke="#000000"><path d="M252.65301,211.38451v25.25" fill="none" stroke-width="2.5" stroke-linecap="round"/><path d="M257.65299,239.75951c0,2.55432 -2.29454,4.625 -5.125,4.625c-2.83046,0 -5.125,-2.07068 -5.125,-4.625c0,-2.55432 2.29454,-4.625 5.125,-4.625c2.83046,0 5.125,2.07068 5.125,4.625z" fill="#000000" stroke-width="0.5" stroke-linecap="butt"/></g><path d="M218.12894,204.71978l3.12142,-26.32765l35.83075,-0.14203l2.76735,26.1059c0,0 -7.51543,4.19603 -21.55904,4.50964c-12.48458,0.27879 -20.16049,-4.14586 -20.16049,-4.14586z" fill="#e6e6e6" stroke="#000000" stroke-width="0" stroke-linecap="butt"/><g stroke="#000000" stroke-width="2"><path d="M216.4256,196.82382c0,0 -0.8757,-1.63834 -1.22009,-3.41045c-0.35786,-1.84145 -0.18192,-3.82699 -0.01539,-4.24868c0.79043,-2.00165 2.95985,-4.02413 2.95985,-4.02413l40.16958,0.1251c0,0 2.60043,1.43188 3.30125,3.16035c0.4151,1.02378 0.25516,2.86717 0.26082,3.47337c0.00689,0.73801 -0.03591,2.54323 -1.07757,3.49993c-1.02391,0.9404 -3.03759,2.03872 -3.03759,2.03872z" fill="#ffffff" stroke-linecap="butt"/><path d="M225.7473,191.39221l-0.20799,4.50214" fill="none" stroke-linecap="round"/><path d="M238.7514,191.77086l0.15999,3.74867" fill="none" stroke-linecap="round"/><path d="M253.73441,189.88095l-0.0585,7.12586" fill="none" stroke-linecap="round"/></g><path d="M155.1019,159.99925c0,-52.44772 38.33064,-44.51859 84.02502,-44.51859c45.69438,0 81.44903,-7.92911 81.44903,44.51859c0,38.62977 -19.74586,47.52265 -48.40824,49.52715c-10.2526,0.71701 -21.64607,0.55265 -33.68478,0.55265c-45.69438,0 -83.38102,2.3679 -83.38102,-50.0798z" fill="#925f3e" stroke="#000000" stroke-width="2" stroke-linecap="butt"/><path d="M177.65214,157.88278c0,-12.968 10.51265,-23.48065 23.48065,-23.48065c12.968,0 23.48065,10.51265 23.48065,23.48065c0,12.968 -10.51265,23.48065 -23.48065,23.48065c-12.968,0 -23.48065,-10.51265 -23.48065,-23.48065z" fill="#ffffff" stroke="#000000" stroke-width="2" stroke-linecap="butt"/><path d="M184.71752,157.60714c0,-9.12808 7.39976,-16.52784 16.52783,-16.52784c9.12808,0 16.52784,7.39977 16.52784,16.52784c0,9.12808 -7.39977,16.52784 -16.52784,16.52784c-9.12808,0 -16.52783,-7.39977 -16.52783,-16.52784z" fill="#000000" stroke="none" stroke-width="0" stroke-linecap="butt"/><path d="M273.8912,182.03008c-12.968,0 -23.48065,-10.51265 -23.48065,-23.48065c0,-12.968 10.51265,-23.48065 23.48065,-23.48065c12.968,0 23.48065,10.51265 23.48065,23.48065c0,12.968 -10.51265,23.48065 -23.48065,23.48065z" data-paper-data="{&quot;index&quot;:null}" fill="#ffffff" stroke="#000000" stroke-width="2" stroke-linecap="butt"/><path d="M273.77863,174.80166c-9.12807,0 -16.52783,-7.39977 -16.52783,-16.52784c0,-9.12808 7.39977,-16.52784 16.52783,-16.52784c9.12807,0 16.52783,7.39977 16.52783,16.52784c0,9.12808 -7.39977,16.52784 -16.52783,16.52784z" data-paper-data="{&quot;index&quot;:null}" fill="#000000" stroke="none" stroke-width="0" stroke-linecap="butt"/><path d="M177.65214,157.88278c0,-12.968 10.51265,-23.48065 23.48065,-23.48065c12.968,0 23.48065,10.51265 23.48065,23.48065c0,0 -3.45838,-6.01029 -9.69202,-9.80893c-1.27604,-0.77759 -6.2194,-2.90114 -9.82878,-3.31498c-5.83245,-0.66872 -12.25114,1.21017 -13.92124,1.87168c-9.25519,3.66587 -13.51928,11.76882 -13.51928,11.25223z" fill="#925f3e" stroke="#000000" stroke-width="2" stroke-linecap="butt"/><path d="M298.11342,158.29945c0,0.51659 -4.26409,-7.58636 -13.51927,-11.25223c-1.6701,-0.66151 -8.0888,-2.5404 -13.92124,-1.87168c-3.60937,0.41384 -8.55274,2.53739 -9.82878,3.31498c-6.23364,3.79864 -9.69202,9.80893 -9.69202,9.80893c0,-12.968 10.51265,-23.48065 23.48065,-23.48065c12.968,0 23.48065,10.51265 23.48065,23.48065z" data-paper-data="{&quot;index&quot;:null}" fill="#925f3e" stroke="#000000" stroke-width="2" stroke-linecap="butt"/><path d="M246.35669,200.11841c-0.26675,1.95432 -32.25585,-2.41199 -31.9891,-4.36631c0.26675,-1.95432 7.644,-2.56119 16.47754,-1.35547c8.83355,1.20572 15.7783,3.76744 15.51155,5.72177z" fill="#ffffff" stroke="#000000" stroke-width="2" stroke-linecap="butt"/><g stroke="none" stroke-width="0" stroke-linecap="butt"><path d="M173.59458,196.19853c0,0 -3.39225,-2.15115 -3.35523,-2.38071c0.02516,-0.1582 3.92999,-1.21567 3.92999,-1.21567c0,0 0.97863,-3.88883 1.22795,-3.92792c0.23051,-0.03601 2.37049,3.36345 2.37049,3.36345c0,0 4.01274,-0.24646 4.1141,-0.04681c0.1002,0.19723 -2.46534,3.29412 -2.46534,3.29412c0,0 1.55494,3.66036 1.31588,3.89863c-0.25231,0.2517 -3.89486,-1.32717 -3.89486,-1.32717c0,0 -3.03217,2.59275 -3.29994,2.45595c-0.14673,-0.07477 0.05699,-4.11388 0.05699,-4.11388z" data-paper-data="{&quot;index&quot;:null}" fill="#ceff00"/><path d="M185.5265,189.23536c-0.20932,0.21588 -3.91586,-1.25992 -3.91586,-1.25992c0,0 -2.93834,2.66967 -3.25836,2.51285c-0.30316,-0.1484 -0.01236,-4.1147 -0.01236,-4.1147c0,0 -3.42751,-2.10352 -3.39631,-2.32252c0.03152,-0.22168 3.90918,-1.28308 3.90918,-1.28308c0,0 0.92873,-3.90812 1.15853,-3.94841c0.24858,-0.04344 2.42959,3.32169 2.42959,3.32169c0,0 4.03718,-0.25895 4.11204,-0.11733c0.1091,0.20533 -2.40769,3.33593 -2.40769,3.33593c0,0 1.496,3.75738 1.38125,3.87549z" fill="#ff6de0"/><path d="M193.30552,199.20949c-0.20932,0.21588 -3.91586,-1.2599 -3.91586,-1.2599c0,0 -2.93835,2.66967 -3.25837,2.51284c-0.30316,-0.1484 -0.01235,-4.11469 -0.01235,-4.11469c0,0 -3.42752,-2.10353 -3.39632,-2.32254c0.03152,-0.22168 3.90919,-1.28307 3.90919,-1.28307c0,0 0.92873,-3.90811 1.15853,-3.9484c0.24858,-0.04344 2.42959,3.32167 2.42959,3.32167c0,0 4.03718,-0.25895 4.11204,-0.11733c0.1091,0.20533 -2.40769,3.33594 -2.40769,3.33594c0,0 1.496,3.75737 1.38125,3.87548z" data-paper-data="{&quot;index&quot;:null}" fill="#6eddff"/></g><g data-paper-data="{&quot;index&quot;:null}" stroke="none" stroke-width="0" stroke-linecap="butt"><path d="M298.97982,197.19853c0,0 0.20371,4.03911 0.05699,4.11388c-0.26777,0.1368 -3.29994,-2.45595 -3.29994,-2.45595c0,0 -3.64255,1.57887 -3.89486,1.32717c-0.23906,-0.23827 1.31588,-3.89863 1.31588,-3.89863c0,0 -2.56554,-3.0969 -2.46534,-3.29412c0.10136,-0.19965 4.1141,0.04681 4.1141,0.04681c0,0 2.13998,-3.39946 2.37049,-3.36345c0.24931,0.03909 1.22794,3.92792 1.22794,3.92792c0,0 3.90483,1.05747 3.92999,1.21567c0.03701,0.22957 -3.35524,2.38071 -3.35524,2.38071z" data-paper-data="{&quot;index&quot;:null}" fill="#ceff00"/><path d="M288.42923,186.35986c0,0 -2.5168,-3.13059 -2.40769,-3.33593c0.07486,-0.14162 4.11204,0.11733 4.11204,0.11733c0,0 2.181,-3.36513 2.42959,-3.32169c0.2298,0.04029 1.15853,3.94841 1.15853,3.94841c0,0 3.87766,1.06141 3.90918,1.28308c0.0312,0.21901 -3.3963,2.32252 -3.3963,2.32252c0,0 0.2908,3.9663 -0.01236,4.1147c-0.32002,0.15682 -3.25836,-2.51285 -3.25836,-2.51285c0,0 -3.70654,1.47579 -3.91585,1.25992c-0.11476,-0.11811 1.38124,-3.87549 1.38124,-3.87549z" fill="#ff6de0"/><path d="M280.65017,196.334c0,0 -2.5168,-3.13061 -2.4077,-3.33594c0.07486,-0.14162 4.11204,0.11733 4.11204,0.11733c0,0 2.181,-3.36511 2.42958,-3.32167c0.2298,0.04029 1.15853,3.9484 1.15853,3.9484c0,0 3.87767,1.0614 3.90919,1.28307c0.0312,0.21901 -3.39632,2.32254 -3.39632,2.32254c0,0 0.29081,3.96629 -0.01235,4.11469c-0.32002,0.15682 -3.25837,-2.51284 -3.25837,-2.51284c0,0 -3.70654,1.47578 -3.91585,1.2599c-0.11476,-0.11811 1.38125,-3.87548 1.38125,-3.87548z" data-paper-data="{&quot;index&quot;:null}" fill="#6eddff"/></g><path d="M289.8198,205.82761c0,0.08931 -6.10267,1.71616 -15.17582,2.41527c-12.62042,0.97245 -30.24025,1.08473 -38.52418,1.08473c-6.86806,0 -16.39904,-0.00257 -24.68741,-0.39534c-12.03978,-0.57054 -22.01259,-1.68691 -22.01259,-2.50466c0,-0.18926 32.96425,0.5 47.5,0.5c14.6885,0 52.9,-1.27674 52.9,-1.1z" fill="#5c3c27" stroke="none" stroke-width="0" stroke-linecap="butt"/><path d="M174.97412,122.99368c6.55051,-2.8957 13.5554,-4.38254 20.89263,-5.36727c2.57831,-0.34604 5.52306,-0.58205 8.00699,0.13233c1.59646,0.45915 2.76509,1.69511 3.51868,2.8523c0.02847,0.04371 0.04075,0.12137 0.102,0.12322c1.32726,0.04002 11.51806,-2.35379 14.96936,-2.90091c6.47339,-1.02621 10.07644,-1.03962 17.30405,-0.95309c2.71877,0.03255 4.04977,1.43189 5.46615,3.01333c0.35995,0.4019 0.62886,2.19985 0.8035,2.20091c1.01727,0.00617 9.92035,-2.28591 12.61803,-3.12563c4.93274,-1.53546 10.97565,-2.47647 16.23465,-2.76871c2.45662,-0.13651 6.48213,-0.92799 8.6221,0.54911c3.21609,2.21988 1.08549,4.10874 2.42524,6.02536c0.42782,0.61204 4.21764,-0.53319 4.61956,-0.66277c3.0653,-0.98828 8.91342,-4.82851 10.92899,0.04081c1.35536,3.27435 -1.53253,3.67989 -3.8234,4.61085c-5.26898,2.14119 -12.19112,4.54294 -18.0271,2.03646c-2.5776,-1.10704 -1.98556,-4.17485 -2.14372,-6.02535c-0.04394,-0.51412 -1.27202,0.11526 -1.90977,0.15777c-2.14715,0.14311 -3.9361,0.55592 -6.05217,0.87422c-4.2492,0.63918 -10.62807,2.90808 -17.0302,3.49606c-6.68983,0.61441 -13.32744,-0.48157 -13.89314,-1.24082c-0.19399,-0.26036 -0.51466,-2.35511 -0.85012,-2.38041c-3.91228,-0.29515 -9.32617,-0.10256 -13.45393,0.80013c-3.95492,0.86489 -18.64922,3.45867 -20.7103,2.6288c-1.2105,-0.4874 -2.33846,-2.70926 -3.40508,-2.97551c-1.08531,-0.27091 -16.62072,2.60104 -21.44465,4.93182c-0.34404,0.82966 -7.63002,1.23725 -8.09726,-0.23125c-0.91048,-1.3289 3.44124,-5.44934 4.3289,-5.84172z" fill="#603f28" stroke="none" stroke-width="0" stroke-linecap="butt"/><path d="M172.41064,119.54221c6.82488,-3.01699 14.12316,-4.5661 21.76771,-5.59208c2.6863,-0.36053 5.75439,-0.60643 8.34236,0.13787c1.66333,0.47838 2.8809,1.76611 3.66606,2.97177c0.02966,0.04554 0.04246,0.12645 0.10627,0.12838c1.38285,0.0417 12.00049,-2.45238 15.59635,-3.02241c6.74453,-1.06919 10.49849,-1.08316 18.02882,-0.99301c2.83264,0.03391 4.21939,1.49186 5.6951,3.13954c0.37503,0.41873 0.6552,2.29199 0.83715,2.29309c1.05988,0.00643 10.33586,-2.38165 13.14653,-3.25655c5.13935,-1.59977 11.43536,-2.5802 16.91463,-2.88468c2.55951,-0.14223 6.75363,-0.96686 8.98323,0.57211c3.35079,2.31286 1.13096,4.28083 2.52682,6.27773c0.44574,0.63768 4.39429,-0.55552 4.81305,-0.69053c3.19369,-1.02967 9.28676,-5.03075 11.38675,0.04252c1.41213,3.4115 -1.59672,3.83402 -3.98354,4.80397c-5.48967,2.23087 -12.70174,4.73322 -18.78216,2.12176c-2.68556,-1.15341 -2.06872,-4.34971 -2.23351,-6.27772c-0.04578,-0.53565 -1.3253,0.12009 -1.98976,0.16438c-2.23708,0.1491 -4.10096,0.5792 -6.30566,0.91084c-4.42718,0.66595 -11.07322,3.02988 -17.7435,3.64249c-6.97003,0.64014 -13.88566,-0.50174 -14.47505,-1.29279c-0.20211,-0.27126 -0.53622,-2.45375 -0.88573,-2.48011c-4.07614,-0.30751 -9.71679,-0.10686 -14.01744,0.83364c-4.12057,0.90112 -19.43034,3.60354 -21.57774,2.73891c-1.2612,-0.50781 -2.43641,-2.82274 -3.5477,-3.10014c-1.13077,-0.28226 -17.31687,2.70998 -22.34285,5.13839c-0.35845,0.86441 -7.9496,1.28907 -8.43641,-0.24094c-0.94862,-1.38456 3.58538,-5.67758 4.51021,-6.0864z" fill="#ffffff" stroke="#000000" stroke-width="2" stroke-linecap="butt"/><path d="M190.28984,132.07431c0,0 6.70895,-5.16922 11.79721,-6.36355c5.08827,-1.19433 12.33413,0.69937 12.33413,0.69937c0,0 -8.03812,-0.06028 -11.96762,0.86207c-4.10648,0.96389 -12.16372,4.80211 -12.16372,4.80211z" fill="#000000" stroke="none" stroke-width="0" stroke-linecap="butt"/><path d="M272.72428,127.27221c-3.9295,-0.92235 -11.96762,-0.86207 -11.96762,-0.86207c0,0 7.24586,-1.8937 12.33413,-0.69937c5.08826,1.19433 11.79721,6.36355 11.79721,6.36355c0,0 -8.05724,-3.83822 -12.16372,-4.80211z" data-paper-data="{&quot;index&quot;:null}" fill="#000000" stroke="none" stroke-width="0" stroke-linecap="butt"/></g></g></svg>