<svg version="1.1" xmlns="http://www.w3.org/2000/svg" xmlns:xlink="http://www.w3.org/1999/xlink" width="157.47137" height="241.71157" viewBox="0,0,157.47137,241.71157"><defs><linearGradient x1="240.00008" y1="175.50004" x2="240.00008" y2="307.50004" gradientUnits="userSpaceOnUse" id="color-1"><stop offset="0" stop-color="#000000"/><stop offset="1" stop-color="#e67c00"/></linearGradient><linearGradient x1="167.19179" y1="97.47883" x2="168.57868" y2="166.26485" gradientUnits="userSpaceOnUse" id="color-2"><stop offset="0" stop-color="#000000"/><stop offset="1" stop-color="#efd4af"/></linearGradient><linearGradient x1="256.22032" y1="65.84446" x2="256.68203" y2="88.74413" gradientUnits="userSpaceOnUse" id="color-3"><stop offset="0" stop-color="#000000"/><stop offset="1" stop-color="#f7dbb5"/></linearGradient><linearGradient x1="290.61406" y1="74.77708" x2="291.05493" y2="96.64268" gradientUnits="userSpaceOnUse" id="color-4"><stop offset="0" stop-color="#000000"/><stop offset="1" stop-color="#f7dbb5"/></linearGradient><linearGradient x1="275.28662" y1="69.77374" x2="275.72748" y2="91.63935" gradientUnits="userSpaceOnUse" id="color-5"><stop offset="0" stop-color="#000000"/><stop offset="1" stop-color="#f7dbb5"/></linearGradient><linearGradient x1="219.47177" y1="66.58541" x2="219.93349" y2="89.48507" gradientUnits="userSpaceOnUse" id="color-6"><stop offset="0" stop-color="#000000"/><stop offset="1" stop-color="#f7dbb5"/></linearGradient><linearGradient x1="234.46533" y1="66.68867" x2="234.92704" y2="89.58835" gradientUnits="userSpaceOnUse" id="color-7"><stop offset="0" stop-color="#000000"/><stop offset="1" stop-color="#f7dbb5"/></linearGradient><linearGradient x1="186.86666" y1="76.86888" x2="187.30752" y2="98.73449" gradientUnits="userSpaceOnUse" id="color-8"><stop offset="0" stop-color="#000000"/><stop offset="1" stop-color="#f7dbb5"/></linearGradient><linearGradient x1="201.35663" y1="71.26436" x2="201.79749" y2="93.12995" gradientUnits="userSpaceOnUse" id="color-9"><stop offset="0" stop-color="#000000"/><stop offset="1" stop-color="#f7dbb5"/></linearGradient><linearGradient x1="256.66666" y1="87.98271" x2="257.00132" y2="104.58075" gradientUnits="userSpaceOnUse" id="color-10"><stop offset="0" stop-color="#000000"/><stop offset="1" stop-color="#f7dbb5"/></linearGradient><linearGradient x1="290.74088" y1="81.06835" x2="291.06042" y2="96.91691" gradientUnits="userSpaceOnUse" id="color-11"><stop offset="0" stop-color="#000000"/><stop offset="1" stop-color="#f7dbb5"/></linearGradient><linearGradient x1="275.59815" y1="85.22416" x2="275.91769" y2="101.07272" gradientUnits="userSpaceOnUse" id="color-12"><stop offset="0" stop-color="#000000"/><stop offset="1" stop-color="#f7dbb5"/></linearGradient><linearGradient x1="219.89118" y1="87.38792" x2="220.25277" y2="105.32171" gradientUnits="userSpaceOnUse" id="color-13"><stop offset="0" stop-color="#000000"/><stop offset="1" stop-color="#f7dbb5"/></linearGradient><linearGradient x1="234.87017" y1="86.76827" x2="235.23175" y2="104.70206" gradientUnits="userSpaceOnUse" id="color-14"><stop offset="0" stop-color="#000000"/><stop offset="1" stop-color="#f7dbb5"/></linearGradient><linearGradient x1="186.98006" y1="82.49361" x2="187.31634" y2="99.17222" gradientUnits="userSpaceOnUse" id="color-15"><stop offset="0" stop-color="#000000"/><stop offset="1" stop-color="#f7dbb5"/></linearGradient><linearGradient x1="201.65876" y1="86.24982" x2="201.99503" y2="102.92842" gradientUnits="userSpaceOnUse" id="color-16"><stop offset="0" stop-color="#000000"/><stop offset="1" stop-color="#f7dbb5"/></linearGradient><linearGradient x1="238.31866" y1="89.58198" x2="240.27312" y2="186.51828" gradientUnits="userSpaceOnUse" id="color-17"><stop offset="0" stop-color="#000000"/><stop offset="1" stop-color="#f3e5e5"/></linearGradient><radialGradient cx="234.17734" cy="82.82733" r="15.35715" gradientUnits="userSpaceOnUse" id="color-18"><stop offset="0" stop-color="#af4300"/><stop offset="1" stop-color="#af4300" stop-opacity="0"/></radialGradient><radialGradient cx="255.55603" cy="83.68225" r="3.14285" gradientUnits="userSpaceOnUse" id="color-19"><stop offset="0" stop-color="#af4300"/><stop offset="1" stop-color="#af4300" stop-opacity="0"/></radialGradient><radialGradient cx="251.93987" cy="85.04114" r="2.64286" gradientUnits="userSpaceOnUse" id="color-20"><stop offset="0" stop-color="#af4300"/><stop offset="1" stop-color="#af4300" stop-opacity="0"/></radialGradient><radialGradient cx="265.12265" cy="83.34648" r="2.71429" gradientUnits="userSpaceOnUse" id="color-21"><stop offset="0" stop-color="#af4300"/><stop offset="1" stop-color="#af4300" stop-opacity="0"/></radialGradient><radialGradient cx="214.69426" cy="83.86314" r="4.57143" gradientUnits="userSpaceOnUse" id="color-22"><stop offset="0" stop-color="#af4300"/><stop offset="1" stop-color="#af4300" stop-opacity="0"/></radialGradient><linearGradient x1="211.80241" y1="101.39207" x2="212.37558" y2="129.8201" gradientUnits="userSpaceOnUse" id="color-23"><stop offset="0" stop-color="#000000"/><stop offset="1" stop-color="#d95300"/></linearGradient><linearGradient x1="266.09218" y1="100.13648" x2="266.66535" y2="128.5645" gradientUnits="userSpaceOnUse" id="color-24"><stop offset="0" stop-color="#000000"/><stop offset="1" stop-color="#d95300"/></linearGradient><linearGradient x1="220.04687" y1="103.88531" x2="220.53202" y2="127.9475" gradientUnits="userSpaceOnUse" id="color-25"><stop offset="0" stop-color="#000000"/><stop offset="1" stop-color="#fa6000"/></linearGradient><linearGradient x1="203.47496" y1="102.02196" x2="203.97392" y2="126.76895" gradientUnits="userSpaceOnUse" id="color-26"><stop offset="0" stop-color="#000000"/><stop offset="1" stop-color="#fa6000"/></linearGradient><linearGradient x1="257.43937" y1="103.16895" x2="257.92453" y2="127.23113" gradientUnits="userSpaceOnUse" id="color-27"><stop offset="0" stop-color="#000000"/><stop offset="1" stop-color="#fa6000"/></linearGradient><linearGradient x1="273.92269" y1="100.63912" x2="274.42165" y2="125.3861" gradientUnits="userSpaceOnUse" id="color-28"><stop offset="0" stop-color="#000000"/><stop offset="1" stop-color="#fa6000"/></linearGradient><linearGradient x1="236.43443" y1="133.53015" x2="236.6648" y2="144.95658" gradientUnits="userSpaceOnUse" id="color-29"><stop offset="0" stop-color="#7d3030" stop-opacity="0"/><stop offset="1" stop-color="#7d3030"/></linearGradient><linearGradient x1="280.80758" y1="158.19721" x2="280.93659" y2="164.5959" gradientUnits="userSpaceOnUse" id="color-30"><stop offset="0" stop-color="#000000"/><stop offset="1" stop-color="#ffffff"/></linearGradient><linearGradient x1="280.80758" y1="158.19721" x2="280.93659" y2="164.5959" gradientUnits="userSpaceOnUse" id="color-31"><stop offset="0" stop-color="#000000"/><stop offset="1" stop-color="#e2e2e2"/></linearGradient><linearGradient x1="285.87429" y1="156.49473" x2="285.97911" y2="161.69366" gradientUnits="userSpaceOnUse" id="color-32"><stop offset="0" stop-color="#000000"/><stop offset="1" stop-color="#ffffff"/></linearGradient><linearGradient x1="285.87429" y1="156.49473" x2="285.97911" y2="161.69366" gradientUnits="userSpaceOnUse" id="color-33"><stop offset="0" stop-color="#000000"/><stop offset="1" stop-color="#e2e2e2"/></linearGradient><linearGradient x1="193.43501" y1="157.95844" x2="193.56402" y2="164.35713" gradientUnits="userSpaceOnUse" id="color-34"><stop offset="0" stop-color="#000000"/><stop offset="1" stop-color="#e2e2e2"/></linearGradient><linearGradient x1="198.59042" y1="160.65506" x2="198.69524" y2="165.854" gradientUnits="userSpaceOnUse" id="color-35"><stop offset="0" stop-color="#000000"/><stop offset="1" stop-color="#e2e2e2"/></linearGradient><linearGradient x1="209.70206" y1="161.55136" x2="209.84042" y2="168.4137" gradientUnits="userSpaceOnUse" id="color-36"><stop offset="0" stop-color="#000000"/><stop offset="1" stop-color="#3f3f3f"/></linearGradient><linearGradient x1="216.25742" y1="162.16903" x2="216.65612" y2="169.02235" gradientUnits="userSpaceOnUse" id="color-37"><stop offset="0" stop-color="#000000"/><stop offset="1" stop-color="#3f3f3f"/></linearGradient><linearGradient x1="222.55866" y1="162.63908" x2="223.28541" y2="169.4703" gradientUnits="userSpaceOnUse" id="color-38"><stop offset="0" stop-color="#000000"/><stop offset="1" stop-color="#3f3f3f"/></linearGradient><linearGradient x1="229.15131" y1="162.82636" x2="230.137" y2="169.63157" gradientUnits="userSpaceOnUse" id="color-39"><stop offset="0" stop-color="#000000"/><stop offset="1" stop-color="#3f3f3f"/></linearGradient><linearGradient x1="236.06723" y1="162.93623" x2="236.97811" y2="169.74972" gradientUnits="userSpaceOnUse" id="color-40"><stop offset="0" stop-color="#000000"/><stop offset="1" stop-color="#3f3f3f"/></linearGradient><linearGradient x1="242.66397" y1="162.98797" x2="243.83305" y2="169.77014" gradientUnits="userSpaceOnUse" id="color-41"><stop offset="0" stop-color="#000000"/><stop offset="1" stop-color="#3f3f3f"/></linearGradient><linearGradient x1="269.21431" y1="160.72652" x2="269.35267" y2="167.58886" gradientUnits="userSpaceOnUse" id="color-42"><stop offset="0" stop-color="#000000"/><stop offset="1" stop-color="#3f3f3f"/></linearGradient><linearGradient x1="262.68916" y1="161.60793" x2="262.56703" y2="168.47175" gradientUnits="userSpaceOnUse" id="color-43"><stop offset="0" stop-color="#000000"/><stop offset="1" stop-color="#3f3f3f"/></linearGradient><linearGradient x1="256.41198" y1="162.3316" x2="255.96119" y2="169.18655" gradientUnits="userSpaceOnUse" id="color-44"><stop offset="0" stop-color="#000000"/><stop offset="1" stop-color="#3f3f3f"/></linearGradient><linearGradient x1="249.83224" y1="162.78445" x2="249.12165" y2="169.62387" gradientUnits="userSpaceOnUse" id="color-45"><stop offset="0" stop-color="#000000"/><stop offset="1" stop-color="#3f3f3f"/></linearGradient><linearGradient x1="213.85313" y1="228.05872" x2="213.66949" y2="221.19832" gradientUnits="userSpaceOnUse" id="color-46"><stop offset="0" stop-color="#000000"/><stop offset="1" stop-color="#3f3f3f"/></linearGradient><linearGradient x1="219.31309" y1="228.92919" x2="219.35294" y2="222.06443" gradientUnits="userSpaceOnUse" id="color-47"><stop offset="0" stop-color="#000000"/><stop offset="1" stop-color="#3f3f3f"/></linearGradient><linearGradient x1="225.45163" y1="229.36493" x2="224.7912" y2="222.53908" gradientUnits="userSpaceOnUse" id="color-48"><stop offset="0" stop-color="#000000"/><stop offset="1" stop-color="#3f3f3f"/></linearGradient><linearGradient x1="230.96174" y1="229.83965" x2="230.52407" y2="222.99335" gradientUnits="userSpaceOnUse" id="color-49"><stop offset="0" stop-color="#000000"/><stop offset="1" stop-color="#3f3f3f"/></linearGradient><linearGradient x1="237.4043" y1="229.53431" x2="236.29332" y2="222.77311" gradientUnits="userSpaceOnUse" id="color-50"><stop offset="0" stop-color="#000000"/><stop offset="1" stop-color="#3f3f3f"/></linearGradient><linearGradient x1="242.93648" y1="229.63026" x2="242.04653" y2="222.83341" gradientUnits="userSpaceOnUse" id="color-51"><stop offset="0" stop-color="#000000"/><stop offset="1" stop-color="#3f3f3f"/></linearGradient><linearGradient x1="249.08269" y1="229.20103" x2="247.5036" y2="222.54082" gradientUnits="userSpaceOnUse" id="color-52"><stop offset="0" stop-color="#000000"/><stop offset="1" stop-color="#3f3f3f"/></linearGradient><linearGradient x1="254.611" y1="228.89843" x2="253.25004" y2="222.18677" gradientUnits="userSpaceOnUse" id="color-53"><stop offset="0" stop-color="#000000"/><stop offset="1" stop-color="#3f3f3f"/></linearGradient><linearGradient x1="260.68118" y1="227.96249" x2="258.63118" y2="221.4402" gradientUnits="userSpaceOnUse" id="color-54"><stop offset="0" stop-color="#000000"/><stop offset="1" stop-color="#3f3f3f"/></linearGradient><linearGradient x1="266.17685" y1="227.25354" x2="264.34089" y2="220.66391" gradientUnits="userSpaceOnUse" id="color-55"><stop offset="0" stop-color="#000000"/><stop offset="1" stop-color="#3f3f3f"/></linearGradient></defs><g transform="translate(-146.48018,-65.78846)"><g data-paper-data="{&quot;isPaintingLayer&quot;:true}" fill-rule="nonzero" stroke-linejoin="miter" stroke-miterlimit="10" stroke-dasharray="" stroke-dashoffset="0" style="mix-blend-mode: normal"><path d="M206.75008,307.50003c0,0 2.17955,-18.9764 3.7767,-32.88207c2.77074,-24.12361 11.36615,-98.96003 11.36615,-98.96003l37.78325,-0.15789l13.57389,132c0,0 -9.36671,-0.5571 -16.98313,-3.00491c-9.3232,-2.99635 -17.68511,-7.99509 -23.58972,-7.99509c-11.39783,0 -25.92714,10.99999 -25.92714,10.99999z" fill="url(#color-1)" stroke="none" stroke-width="0" stroke-linecap="butt"/><path d="M230.00616,217.16893l-0.07091,-0.0644c-0.02994,-0.02603 -0.03904,-0.07017 -0.01949,-0.10661c0.02268,-0.04228 0.07534,-0.05817 0.11763,-0.03548l0.15312,0.08213l-0.01215,0.02264c0.19522,0.07816 0.37058,0.18309 0.58062,0.25526c0.75207,0.25841 1.5906,0.13802 2.27822,-0.2262c0.20203,-0.12049 0.38483,-0.23699 0.53889,-0.38694c0.05932,-0.09295 0.12903,-0.18588 0.20473,-0.24902c0.02079,-0.03224 0.04064,-0.06596 0.05949,-0.10131l0.00777,-0.00469l-0.00264,-0.00219l0.07951,-0.0964c0.02562,-0.03233 0.07147,-0.0427 0.1091,-0.02251c0.04228,0.02268 0.05817,0.07534 0.03549,0.11763l-0.00878,0.01638c0.02401,0.03225 0.01327,0.07479 0.01327,0.07479c-0.05308,0.18299 -0.22718,0.32315 -0.3826,0.4774c-0.09801,0.13809 -0.19804,0.27667 -0.27508,0.4246c-0.15494,0.49284 0.01097,1.13965 0.18337,1.5844c0.12493,0.32456 0.37579,0.60252 0.55209,0.90073l0.06142,0.08699c0.01931,0.02616 0.02307,0.06215 0.00667,0.09271c-0.02268,0.04228 -0.07534,0.05817 -0.11762,0.03549l-0.13125,-0.0704l0.00968,-0.01804c-0.27239,-0.10518 -0.5172,-0.27001 -0.8016,-0.36064c-0.66342,-0.2114 -1.3978,0.05378 -1.89542,0.51395c-0.17828,0.1063 -0.32403,0.25163 -0.42193,0.4362l-0.04693,0.0875c-0.02268,0.04228 -0.07534,0.05818 -0.11763,0.03549c-0.03842,-0.02061 -0.05506,-0.066 -0.04074,-0.10584l0.04772,-0.1406c0.00404,-1.02259 0.01788,-1.88196 -0.457,-2.86068c-0.06188,-0.15437 -0.13211,-0.26452 -0.23703,-0.39234zM233.77322,219.60988l0.03716,0.03156c0,0 0.01622,0.01718 0.02278,0.04208c0.00712,0.00366 0.01417,0.00737 0.02116,0.01114c-0.03921,-0.05746 -0.07922,-0.11472 -0.1187,-0.17233c0.01244,0.02905 0.02497,0.05822 0.0376,0.08755z" data-paper-data="{&quot;index&quot;:null}" fill="#000000" stroke="none" stroke-width="0.5" stroke-linecap="butt"/><path d="M248.37938,244.93135c0,0.72487 -0.50368,1.3125 -1.125,1.3125c-0.62132,0 -1.125,-0.58763 -1.125,-1.3125c0,-0.72487 0.50368,-1.3125 1.125,-1.3125c0.62132,0 1.125,0.58763 1.125,1.3125z" fill="#000000" stroke="none" stroke-width="0" stroke-linecap="butt"/><path d="M184.53028,110.40792c-1.29241,0.43112 -11.44249,4.55731 -15.14409,7.86692c-3.08661,2.78249 -3.89341,9.66969 -3.86688,12.72918c0.03267,3.73118 1.04701,6.68833 3.49706,10.21211c2.36871,3.40654 14.42985,10.86898 16.37199,11.75077l4.52679,12.86775c0,0 -20.3088,-4.08789 -32.61242,-14.23992c-4.15744,-3.43041 -10.08293,-12.6095 -10.75953,-21.27679c-0.64376,-8.24658 3.81238,-16.03684 5.72891,-17.70245c11.62728,-10.10501 31.99053,-15.48086 31.99053,-15.48086z" data-paper-data="{&quot;index&quot;:null}" fill="url(#color-2)" stroke="none" stroke-width="0" stroke-linecap="butt"/><g stroke="none" stroke-width="0" stroke-linecap="butt"><g data-paper-data="{&quot;index&quot;:null}"><g data-paper-data="{&quot;index&quot;:null}" fill="url(#color-3)"><path d="M247.97947,86.84672c-1.46227,-1.19203 -2.50171,-2.8944 -2.90021,-5.00879c-1.1,-5.83627 3.09965,-12.60175 9.38019,-15.11113c6.28053,-2.50937 12.26366,0.18761 13.36365,6.02389c1.1,5.83627 -3.09966,12.60174 -9.3802,15.11112c-4.00519,1.60026 -7.88943,1.08321 -10.46342,-1.01509z"/></g><g data-paper-data="{&quot;index&quot;:null}"><path d="M279.0196,85.9481c-0.12174,-6.03802 5.06928,-11.03945 11.59446,-11.17101c6.5252,-0.13156 11.91359,4.65657 12.03533,10.69458c0.12174,6.03802 -5.06928,11.03945 -11.59446,11.17101c-6.5252,0.13156 -11.91359,-4.65656 -12.03533,-10.69458z" fill="url(#color-4)"/><path d="M263.69214,80.94477c-0.12174,-6.03802 5.06929,-11.03945 11.59446,-11.17101c6.5252,-0.13156 11.91359,4.65656 12.03533,10.69458c0.12174,6.03802 -5.06928,11.03945 -11.59446,11.17101c-6.5252,0.13156 -11.91359,-4.65657 -12.03533,-10.69458z" fill="url(#color-5)"/></g></g><g data-paper-data="{&quot;index&quot;:null}"><path d="M218.2113,88.67296c-6.1174,-2.25941 -10.40884,-8.85367 -9.5852,-14.72873c0.82364,-5.87505 6.45048,-8.80613 12.56787,-6.54672c6.1174,2.25941 10.40883,8.85368 9.5852,14.72874c-0.82364,5.87505 -6.45048,8.80612 -12.56786,6.54671z" fill="url(#color-6)"/><path d="M233.20485,88.77624c-6.1174,-2.25941 -10.40884,-8.85368 -9.5852,-14.72874c0.82364,-5.87505 6.45048,-8.80612 12.56787,-6.54671c6.1174,2.25941 10.40883,8.85367 9.5852,14.72873c-0.82364,5.87505 -6.45048,8.80612 -12.56786,6.54672z" fill="url(#color-7)"/></g><g data-paper-data="{&quot;index&quot;:null}"><path d="M187.30753,98.73449c-6.25795,0.12618 -11.42973,-4.66632 -11.55147,-10.70434c-0.12174,-6.03802 4.85264,-11.03508 11.11061,-11.16126c6.25795,-0.12618 11.42972,4.66632 11.55146,10.70433c0.12174,6.03802 -4.85264,11.03508 -11.1106,11.16126z" fill="url(#color-8)"/><path d="M201.7975,93.12995c-6.25795,0.12618 -11.42973,-4.66633 -11.55147,-10.70434c-0.12174,-6.03802 4.85264,-11.03508 11.11061,-11.16126c6.25795,-0.12618 11.42972,4.66631 11.55146,10.70433c0.12174,6.03802 -4.85264,11.03508 -11.1106,11.16126z" fill="url(#color-9)"/></g></g><path d="M302.74835,89.67805c0.15586,7.73042 -28.06732,14.56874 -63.03824,15.27385c-34.97092,0.7051 -63.44681,-4.99004 -63.60268,-12.72046c-0.15586,-7.73042 28.06732,-14.56874 63.03824,-15.27385c34.97092,-0.7051 63.44681,4.99004 63.60268,12.72046z" fill="#6c2a00" stroke="none" stroke-width="0" stroke-linecap="butt"/><g stroke="none" stroke-width="0" stroke-linecap="butt"><g data-paper-data="{&quot;index&quot;:null}" fill="url(#color-10)"><path d="M258.45697,88.56039c6.36336,1.59875 10.79526,6.35175 9.89892,10.61612c-0.89634,4.26437 -6.78152,6.42529 -13.14488,4.82655c-6.36337,-1.59875 -10.79525,-6.35176 -9.89891,-10.61613c0.32473,-1.54492 1.30425,-2.81377 2.72407,-3.72776c2.49925,-1.60888 6.36278,-2.11832 10.4208,-1.09878z"/></g><g data-paper-data="{&quot;index&quot;:null}"><path d="M290.74088,81.06835c6.5252,-0.13156 11.88643,3.3096 11.97467,7.68606c0.08824,4.37646 -5.12994,8.03093 -11.65513,8.1625c-6.5252,0.13156 -11.88643,-3.3096 -11.97467,-7.68606c-0.08824,-4.37646 5.12994,-8.03093 11.65513,-8.1625z" fill="url(#color-11)"/><path d="M275.59815,85.22416c6.5252,-0.13156 11.88643,3.3096 11.97467,7.68606c0.08824,4.37646 -5.12994,8.03093 -11.65513,8.1625c-6.5252,0.13156 -11.88643,-3.3096 -11.97467,-7.68606c-0.08824,-4.37646 5.12995,-8.03093 11.65513,-8.1625z" fill="url(#color-12)"/></g></g><g stroke="none" stroke-width="0" stroke-linecap="butt"><path d="M230.99347,92.75584c1.03418,4.56717 -3.01716,9.8809 -9.04893,11.86856c-6.03177,1.98766 -11.75985,-0.10347 -12.79404,-4.67064c-1.03418,-4.56717 3.01716,-9.88089 9.04893,-11.86855c6.03177,-1.98766 11.75985,0.10346 12.79403,4.67063z" fill="url(#color-13)"/><path d="M245.97245,92.13619c1.03418,4.56717 -3.01716,9.88089 -9.04893,11.86855c-6.03177,1.98766 -11.75985,-0.10346 -12.79404,-4.67063c-1.03418,-4.56717 3.01716,-9.8809 9.04893,-11.86855c6.03177,-1.98766 11.75985,0.10346 12.79403,4.67063z" fill="url(#color-14)"/></g><g stroke="none" stroke-width="0" stroke-linecap="butt"><path d="M198.47923,90.60446c0.09286,4.60567 -4.90494,8.44159 -11.16288,8.56776c-6.25795,0.12618 -11.40631,-3.50517 -11.49917,-8.11084c-0.09286,-4.60567 4.90494,-8.44159 11.16289,-8.56776c6.25795,-0.12618 11.4063,3.50517 11.49916,8.11084z" fill="url(#color-15)"/><path d="M213.15794,94.36066c0.09286,4.60567 -4.90494,8.44158 -11.16288,8.56775c-6.25795,0.12618 -11.40631,-3.50517 -11.49917,-8.11083c-0.09286,-4.60567 4.90494,-8.44159 11.16289,-8.56776c6.25795,-0.12618 11.4063,3.50517 11.49916,8.11084z" fill="url(#color-16)"/></g><path d="M174.16877,127.21128c-0.0317,-1.5724 -0.27461,-30.50845 2.31673,-36.37126c0.13888,-0.31424 29.50033,5.30728 59.36766,4.77572c32.57865,-0.57982 65.90992,-7.28129 66.375,-6.75549c0.7559,0.85459 1.62538,31.78447 1.71166,36.06377c0.67131,33.29508 -27.53855,60.86582 -63.00845,61.58099c-35.46992,0.71516 -66.09126,-25.99867 -66.76258,-59.29374z" fill="url(#color-17)" stroke="none" stroke-width="0" stroke-linecap="butt"/><path d="M189.00095,125.33722c-0.26141,-12.96536 10.03719,-23.6878 23.00255,-23.94921c12.96536,-0.26141 23.6878,10.03719 23.94921,23.00255c0.26141,12.96536 -10.03719,23.6878 -23.00255,23.94921c-12.96536,0.26141 -23.6878,-10.03719 -23.94921,-23.00255z" fill="#ff0000" stroke="none" stroke-width="2" stroke-linecap="butt"/><path d="M267.19753,147.24598c-12.96536,0.26141 -23.6878,-10.03719 -23.94921,-23.00255c-0.26141,-12.96536 10.03719,-23.6878 23.00255,-23.94921c12.96536,-0.26141 23.6878,10.03719 23.94921,23.00255c0.26141,12.96536 -10.03719,23.6878 -23.00255,23.94921z" data-paper-data="{&quot;index&quot;:null}" fill="#ff0000" stroke="none" stroke-width="2" stroke-linecap="butt"/><path d="M266.66062,95.82182c-3.94729,-0.84295 -11.98256,-0.62065 -11.98256,-0.62065c0,0 7.20621,-2.03938 12.31752,-0.94786c5.1113,1.09152 11.92309,6.12445 11.92309,6.12445c0,0 -8.13297,-3.67502 -12.25805,-4.55593z" data-paper-data="{&quot;index&quot;:null}" fill="#000000" stroke="none" stroke-width="0" stroke-linecap="butt"/><path d="M203.77131,146.80565l-1.91896,4.0395" fill="none" stroke="#000000" stroke-width="2" stroke-linecap="round"/><path d="M213.41371,148.81168l-0.11933,4.00322" fill="none" stroke="#000000" stroke-width="2" stroke-linecap="round"/><g fill="none" stroke="#000000" stroke-width="2" stroke-linecap="round"><path d="M278.64074,149.49696l-2.08022,-3.95887" data-paper-data="{&quot;index&quot;:null}"/><path d="M267.00682,147.93116l0.28059,3.99516" data-paper-data="{&quot;index&quot;:null}"/></g><path d="M249.53135,82.51775c0.03261,1.61708 -6.8152,3.06658 -15.295,3.23754c-8.4798,0.17097 -15.38045,-1.00133 -15.41306,-2.6184c-0.03261,-1.61708 6.8152,-3.06658 15.29499,-3.23754c8.4798,-0.17097 15.38046,1.00133 15.41307,2.6184z" fill="url(#color-18)" stroke="none" stroke-width="0" stroke-linecap="butt"/><path d="M258.69827,83.61888c0.02307,1.14378 -1.36507,2.09937 -3.10046,2.13436c-1.7354,0.03499 -3.16091,-0.86387 -3.18398,-2.00766c-0.02307,-1.14378 1.36507,-2.09937 3.10047,-2.13436c1.7354,-0.03499 3.1609,0.86386 3.18397,2.00766z" fill="url(#color-19)" stroke="none" stroke-width="0" stroke-linecap="butt"/><path d="M254.58217,84.98787c0.01511,0.74938 -1.15565,1.38073 -2.61496,1.41015c-1.45931,0.02943 -2.65456,-0.55421 -2.66967,-1.3036c-0.01511,-0.74938 1.15564,-1.38072 2.61495,-1.41013c1.45931,-0.02943 2.65457,0.55421 2.66968,1.30358z" fill="url(#color-20)" stroke="none" stroke-width="0" stroke-linecap="butt"/><path d="M267.83637,83.29177c0.01352,0.67049 -1.1905,1.23854 -2.68926,1.26876c-1.49875,0.03022 -2.72469,-0.48883 -2.73822,-1.15933c-0.01352,-0.67049 1.1905,-1.23854 2.68926,-1.26876c1.49875,-0.03022 2.72469,0.48883 2.73822,1.15933z" fill="url(#color-21)" stroke="none" stroke-width="0" stroke-linecap="butt"/><path d="M219.26475,83.77099c0.03181,1.57764 -1.98869,2.89781 -4.51291,2.94872c-2.52421,0.05089 -4.59629,-1.18677 -4.62809,-2.7644c-0.03181,-1.57764 1.98868,-2.89782 4.51291,-2.94873c2.52421,-0.05089 4.59629,1.18678 4.62809,2.76441z" fill="url(#color-22)" stroke="none" stroke-width="0" stroke-linecap="butt"/><path d="M290.17951,123.40439c0.0093,0.46132 -5.02681,-1.47916 -13.17891,-2.64431c-3.49033,-0.49887 -8.69499,-0.83254 -12.44339,-0.81257c-2.35084,0.01253 -6.08274,0.25404 -8.29426,0.58064c-8.00865,1.18269 -13.03521,3.8229 -13.03521,3.8229c-0.26141,-12.96536 10.03719,-23.6878 23.00255,-23.94921c12.96536,-0.26141 23.6878,10.03719 23.94921,23.00255z" data-paper-data="{&quot;index&quot;:null}" fill="none" stroke="none" stroke-width="2" stroke-linecap="butt"/><path d="M290.047,122.77938c0.0093,0.46132 -47.09953,5.90381 -47.09953,5.90381c-0.06986,-3.46532 0.80289,-10.59603 2.10651,-14.10292c3.57383,-9.61404 11.54375,-14.61188 21.04379,-14.80342c12.96536,-0.26141 23.6878,10.03719 23.94921,23.00255z" data-paper-data="{&quot;index&quot;:null}" fill="none" stroke="none" stroke-width="0" stroke-linecap="butt"/><path d="M252.23264,244.07888c0,0 0.6117,7.10015 0.51519,7.29751c-0.02685,0.05488 -1.7644,12.5807 -1.7644,12.5807l-0.00034,0.00008c0.0038,0.29442 0.00749,0.58888 0.01106,0.88337c0,0 0.1974,2.20167 -0.36056,3.49187c-0.39938,0.92354 -1.55541,1.06816 -1.74555,1.04045c-0.10338,-0.01508 -1.59666,-0.05472 -2.1538,-0.9167c-0.80728,-1.24901 -0.7397,-3.4623 -0.7397,-3.4623c-0.23987,-19.76534 -8.86324,7.32388 -9.2255,-12.39834c-7.53979,0.28563 -11.61125,-3.41117 -11.79777,-2.9602c-3.34154,8.07574 -11.02841,0.08963 -10.98719,-1.23561c-6.03104,-3.00464 -13.92566,-49.60187 -18.30526,-56.6014c-1.57123,-2.00164 -8.79555,-1.37482 -10.32259,-2.95761c-0.91086,-0.94411 -1.71435,-3.22374 -1.94533,-4.64438c-0.08423,-0.31569 0.84045,-1.50381 0.75734,-1.82003c-1.42425,-5.41863 -3.43799,-5.04385 -5.16006,-4.99104c-1.60783,0.0493 3.77037,-8.99434 3.75699,-10.65438c-0.56005,-3.40563 -0.38168,-7.0195 -1.09632,-10.40465c-0.54991,-2.60484 -1.6166,-5.28594 -2.30143,-7.99408c-0.49654,-0.9875 -0.84635,-2.06589 -0.87052,-3.40864c0,0 -0.00509,-0.41893 0.24418,-0.59827c-0.00082,-0.02398 -0.00156,-0.04798 -0.00224,-0.07197l-0.00804,-0.66258c0,0 -0.00804,-0.66258 0.49192,-0.67791h0.00003c0.49997,-0.01534 0.508,0.64723 0.508,0.64723l0.00804,0.66258c-0.01511,1.07485 0.14607,2.18441 0.40275,3.30541c0.43372,0.8876 1.0208,1.67706 1.55,2.50333c2.47042,3.85713 4.84635,7.46526 8.15606,10.05734c0.07125,0.05643 1.35348,1.42843 1.38066,1.4162c0.20545,-0.09251 -1.24664,-4.23911 -1.3047,-4.45808c-0.6807,-2.56751 -1.28272,-6.0556 -1.13317,-8.793c0.17393,-3.18384 3.01463,-0.34333 3.86364,0.738c4.63819,5.90944 8.23014,7.87438 14.3561,10.93305c2.92073,0.70451 8.59058,1.81952 10.504,-2.01013c1.25717,-2.51619 1.93038,-2.66631 2.93186,-5.38581c1.70576,-2.20465 4.98796,-1.26252 5.90619,1.6714c0.30465,0.9734 0.06233,2.20095 0.23508,3.15048c0.12763,0.70153 1.03717,-0.57662 1.41528,-1.10098c0.91668,-1.27123 1.72749,-2.6462 2.55745,-4.0175c2.06674,-3.41226 3.6631,-7.3861 6.48724,-9.84099c0.57156,-0.49684 1.88137,-1.75869 2.61287,-1.28151c1.37636,0.89787 2.86975,5.5163 3.63634,7.32159c2.22517,3.26923 5.62833,4.91175 8.9855,4.18015c1.28864,-0.28081 2.55402,-1.77914 3.96286,-1.09589c1.53435,0.74414 1.56685,2.38609 2.36203,3.94266c1.38106,6.83861 8.22626,5.82317 12.0236,3.17243c1.0435,-0.89159 1.95632,-1.6864 3.02759,-2.43693l-0.05776,-0.07359l0.12175,-0.1678c-0.84068,-0.83215 -2.12551,-2.8117 -1.83443,-3.82891c0.40088,-1.40097 2.24572,-0.81806 2.91057,-0.49201c2.5905,1.27041 2.78202,3.49833 3.71775,6.62578c2.37001,0.76276 3.01486,-1.26486 4.04943,-3.80942c1.92043,-4.72335 3.66433,-9.72506 6.13476,-14.00437c2.11533,-3.6443 4.70165,-7.40684 7.27812,-10.50178c0.3773,-0.45324 1.97123,-2.3083 2.61281,-1.85856c1.24452,0.8724 -0.52737,5.96468 -0.85571,7.10023c-0.53935,1.12491 -0.98566,2.42336 -1.62183,3.43065c-0.21014,0.33274 0.52197,-0.52556 0.76503,-0.81627c0.48447,-0.57943 0.90208,-1.25016 1.35534,-1.87239c1.58446,-2.17518 2.56223,-4.95048 3.04784,-7.8317l0.02074,-0.04214l-0.00876,-0.00437l0.30405,-1.05141c0.06817,-0.253 0.24873,-0.43704 0.46287,-0.44361c0.19958,-0.00612 0.37374,0.14358 0.45662,0.36523l0.25303,0.64222l-0.17493,0.12228c0.44454,1.3365 0.26281,2.76709 0.28359,4.47913c0.07151,5.89274 -1.68171,11.77846 -3.83155,16.93446c-1.39095,7.99172 0.32051,18.41283 -3.89446,24.06292c-3.57649,6.93068 -3.75321,14.62253 -9.80184,17.54196c-0.81487,0.38502 -19.98984,58.79289 -19.92765,63.91794l-2.44931,-17.25954c0,0 -2.94954,2.39719 -5.44935,2.47384z" fill="#000000" stroke="none" stroke-width="0.5" stroke-linecap="butt"/><path d="M190.1935,131.31423c0.42126,0.0041 43.77072,-0.71985 44.90583,-0.83853c-1.16466,9.72661 -10.51808,17.43108 -22.0412,17.66343c-12.00819,0.24211 -21.96556,-6.54939 -22.86463,-16.82486z" data-paper-data="{&quot;index&quot;:null}" fill="#ff4242" stroke="none" stroke-width="2" stroke-linecap="butt"/><path d="M196.05937,124.91921c-0.18401,-9.12622 7.06509,-16.67365 16.1913,-16.85766c9.12622,-0.18401 16.67365,7.0651 16.85766,16.19131c0.18401,9.12622 -7.0651,16.67365 -16.19131,16.85766c-9.12622,0.18401 -16.67364,-7.0651 -16.85765,-16.19131z" fill="#000000" stroke="none" stroke-width="0" stroke-linecap="butt"/><path d="M289.22215,128.93656c-0.48072,10.47347 -10.15391,17.77637 -22.1621,18.01848c-11.52312,0.23233 -21.182,-7.21307 -22.74101,-17.04517c1.139,0.07442 44.48237,-0.95204 44.90312,-0.97333z" data-paper-data="{&quot;index&quot;:null}" fill="#ff4242" stroke="none" stroke-width="2" stroke-linecap="butt"/><path d="M266.9393,140.02129c-9.12621,0.18401 -16.67364,-7.0651 -16.85765,-16.19131c-0.18401,-9.12622 7.0651,-16.67365 16.1913,-16.85766c9.12621,-0.18401 16.67364,7.0651 16.85765,16.19131c0.18401,9.12622 -7.0651,16.67365 -16.1913,16.85766z" data-paper-data="{&quot;index&quot;:null}" fill="#000000" stroke="none" stroke-width="0" stroke-linecap="butt"/><path d="M216.92456,125.81401c0.05407,2.68198 -1.91639,4.89676 -4.40118,4.94687c-2.48477,0.0501 -4.54292,-2.08346 -4.597,-4.76544c-0.05407,-2.68198 1.91639,-4.89677 4.40118,-4.94688c2.48477,-0.0501 4.54292,2.08346 4.597,4.76545z" fill="none" stroke="#ff0000" stroke-width="2.5" stroke-linecap="butt"/><path d="M271.6191,124.28256c0.05407,2.68198 -1.91639,4.89677 -4.40118,4.94688c-2.48477,0.0501 -4.54292,-2.08346 -4.597,-4.76545c-0.05407,-2.68198 1.91639,-4.89677 4.40118,-4.94688c2.48477,-0.0501 4.54292,2.08346 4.597,4.76545z" fill="none" stroke="#ff0000" stroke-width="2.5" stroke-linecap="butt"/><path d="M188.60107,125.34528c-0.26141,-12.96536 10.07059,-23.68847 23.07714,-23.95071c9.53023,-0.19215 18.46555,4.2148 22.43598,13.67671c0.15871,0.3782 1.0448,0.28828 1.17967,0.74999c1.0958,3.7516 0.69419,10.43592 0.7564,13.52148c0,0 -47.43989,-3.53616 -47.4492,-3.99748z" fill="url(#color-23)" stroke="none" stroke-width="0" stroke-linecap="butt"/><path d="M290.21518,123.13551c0.0093,0.46132 -47.19951,5.90582 -47.19951,5.90582c-0.06986,-3.46532 0.05017,-10.83091 1.3567,-14.33786c3.58182,-9.6142 12.32369,-14.37755 21.84386,-14.56951c12.99283,-0.26196 23.73752,10.03618 23.99894,23.00155z" data-paper-data="{&quot;index&quot;:null}" fill="url(#color-24)" stroke="none" stroke-width="0" stroke-linecap="butt"/><g stroke="none" stroke-width="0" stroke-linecap="butt"><path d="M213.32752,126.59362c-0.11222,0.00393 2.60541,-7.61956 3.13983,-8.78925c1.43208,-3.13444 2.76722,-6.30204 4.13933,-9.46243c0.70916,-1.63342 1.2923,-3.14607 2.11672,-4.51059c1.62305,0.71905 3.15044,1.61702 4.55663,2.6693c-0.80264,1.63698 -6.44252,18.55111 -7.08212,20.07211c-1.34678,3.2027 -6.87038,0.02087 -6.87038,0.02087z" fill="url(#color-25)"/><path d="M212.75079,101.83493c0.28816,-0.00581 0.57521,-0.0064 0.86105,-0.00186c-1.21203,1.92798 -1.93327,5.02568 -2.38412,6.77061c-0.08721,0.3375 -0.17798,0.6738 -0.27195,1.00903c-0.83493,2.97891 -4.26925,15.8976 -4.68785,17.101c-1.42392,0.18028 -10.41007,-1.46074 -12.45388,-0.89562c0.32151,-0.62002 5.63205,-9.46853 7.32788,-12.51513c1.69208,-3.03989 3.19899,-6.17854 4.86237,-9.23602c0.22063,-0.44043 0.42827,-0.87436 0.63203,-1.29978c1.94374,-0.56672 3.99341,-0.88944 6.11444,-0.93221z" fill="url(#color-26)"/></g><g data-paper-data="{&quot;index&quot;:null}" stroke="none" stroke-width="0" stroke-linecap="butt"><path d="M258.20297,125.84403c-0.70039,-1.49399 -7.01745,-18.16704 -7.88543,-19.77033c1.36262,-1.10811 2.85258,-2.0669 4.44532,-2.85079c0.87875,1.33017 1.52239,2.81809 2.29681,4.4216c1.49838,3.10251 2.96012,6.21374 4.51738,9.2879c0.58114,1.1472 3.60385,8.65495 3.49156,8.65556c0,0 -5.39087,3.4019 -6.86564,0.25609z" fill="url(#color-27)"/><path d="M264.64688,100.82615c2.12103,-0.04277 4.18204,0.19708 6.14705,0.68499c0.22075,0.41685 0.44572,0.84206 0.68392,1.27324c1.78527,2.98795 3.41747,6.0633 5.23072,9.03252c1.81725,2.97577 7.48015,11.60304 7.82638,12.20958c-2.06493,-0.48228 -10.97762,1.51963 -12.40765,1.39689c-0.46676,-1.18554 -4.41902,-13.95529 -5.37335,-16.89812c-0.10739,-0.33118 -0.21165,-0.66354 -0.3124,-0.99726c-0.52082,-1.72533 -1.36634,-4.79144 -2.6551,-6.669c0.28543,-0.01604 0.57227,-0.02703 0.86043,-0.03284z" fill="url(#color-28)"/></g><path d="M224.00967,145.65627c0,0 5.83157,-3.89059 7.57916,-6.03086c1.45037,-1.77629 2.71713,-6.9346 2.71713,-6.9346c0,0 3.16879,-1.07559 5.41741,-1.00993c2.15859,0.06303 5.14021,1.00572 5.14021,1.00572c0,0 1.57868,3.53175 3.02021,5.728c0.69219,1.05459 1.77668,1.62169 1.83958,1.68085c1.85285,1.7426 5.04558,4.3328 5.04558,4.3328c0,0 -11.79699,-4.84944 -14.9884,-4.78509c-4.75746,0.09592 -15.77088,6.01311 -15.77088,6.01311z" fill="url(#color-29)" stroke="none" stroke-width="0" stroke-linecap="butt"/><g stroke-width="1" stroke-linecap="round"><path d="M282.33631,164.56767l-2.92845,-6.34225" fill="url(#color-30)" stroke="url(#color-31)"/><path d="M284.97446,156.51286l1.90446,5.16266" fill="url(#color-32)" stroke="url(#color-33)"/></g><g data-paper-data="{&quot;index&quot;:null}" fill="none" stroke-width="1" stroke-linecap="round"><path d="M192.1643,164.38536l2.67042,-6.45514" stroke="url(#color-34)"/><path d="M199.49023,160.63692l-1.69481,5.23523" stroke="url(#color-35)"/></g><g stroke="none" stroke-width="0" stroke-linecap="butt"><g><path d="M213.29224,162.90974c-0.60109,0.64432 -3.49101,5.50472 -3.49101,5.50472c0,0 -3.12436,-5.41601 -3.8111,-6.13933c1.41977,-0.06822 6.33859,0.62822 7.30211,0.6346z" data-paper-data="{&quot;index&quot;:null}" fill="url(#color-36)"/><path d="M219.89782,163.42264c-0.57642,0.66121 -3.28085,5.60162 -3.28085,5.60162c0,0 -3.32874,-5.32173 -4.04267,-6.02466c1.41668,-0.10921 6.3601,0.44453 7.32352,0.42305z" data-paper-data="{&quot;index&quot;:null}" fill="url(#color-37)"/></g><g><path d="M226.25678,163.75849c-0.54437,0.68152 -3.01041,5.71515 -3.01041,5.71515c0,0 -3.58151,-5.19438 -4.32866,-5.87049c1.41053,-0.16078 6.37731,0.21195 7.33906,0.15532z" data-paper-data="{&quot;index&quot;:null}" fill="url(#color-38)"/><path d="M232.89055,163.83804c-0.51831,0.69676 -2.79243,5.79798 -2.79243,5.79798c0,0 -3.7773,-5.08705 -4.54984,-5.74106c1.40391,-0.20144 6.383,0.02744 7.34226,-0.05694z" data-paper-data="{&quot;index&quot;:null}" fill="url(#color-39)"/></g><g><path d="M239.795,163.97918c-0.52591,0.69242 -2.85582,5.77468 -2.85582,5.77468c0,0 -3.72106,-5.11869 -4.48634,-5.77915c1.40598,-0.1897 6.38208,0.08083 7.34218,0.00449z" data-paper-data="{&quot;index&quot;:null}" fill="url(#color-40)"/><path d="M246.42994,163.92241c-0.49945,0.70712 -2.63565,5.85301 -2.63565,5.85301c0,0 -3.91394,-5.00738 -4.70399,-5.64524c1.39826,-0.2302 6.3828,-0.10371 7.33965,-0.20775z" data-paper-data="{&quot;index&quot;:null}" fill="url(#color-41)"/></g><g><g data-paper-data="{&quot;index&quot;:null}"><path d="M272.95239,161.30013c-0.65704,0.75041 -3.56055,6.28795 -3.56055,6.28795c0,0 -3.08349,-4.73998 -3.71005,-5.35954c0.96249,-0.0452 5.84923,-0.93935 7.2706,-0.92841z" data-paper-data="{&quot;index&quot;:null}" fill="url(#color-42)"/><path d="M266.40276,162.28938c-0.68504,0.73113 -3.79655,6.18272 -3.79655,6.18272c0,0 -2.90135,-4.82737 -3.50396,-5.46482c0.9635,-0.01736 5.88059,-0.76992 7.3005,-0.7179z" data-paper-data="{&quot;index&quot;:null}" fill="url(#color-43)"/></g><g data-paper-data="{&quot;index&quot;:null}"><path d="M260.08882,163.14813c-0.7193,0.70566 -4.08851,6.04019 -4.08851,6.04019c0,0 -2.66693,-4.93013 -3.23832,-5.58916c0.96326,0.01781 5.91098,-0.55483 7.32684,-0.45103z" data-paper-data="{&quot;index&quot;:null}" fill="url(#color-44)"/><path d="M253.47542,163.70698c-0.74554,0.68461 -4.31472,5.91979 -4.31472,5.91979c0,0 -2.47788,-5.00541 -3.02386,-5.68072c0.96189,0.04564 5.92771,-0.38376 7.33859,-0.23907z" data-paper-data="{&quot;index&quot;:null}" fill="url(#color-45)"/></g></g></g><g stroke="none" stroke-width="0" stroke-linecap="butt"><g><g><path d="M210.64055,227.52638c0.5566,-0.75761 2.99531,-6.32683 2.99531,-6.32683c0,0 2.20302,6.54246 2.74645,7.15507c-0.82535,0.05581 -4.52218,-0.83299 -5.74176,-0.82824z" data-paper-data="{&quot;index&quot;:null}" fill="url(#color-46)"/><path d="M216.12052,228.28874c0.58081,-0.73864 3.19879,-6.22421 3.19879,-6.22421c0,0 2.4821,6.1613 3.00515,6.79205c-0.82648,0.02799 -4.9852,-0.53148 -6.20393,-0.56784z" data-paper-data="{&quot;index&quot;:null}" fill="url(#color-47)"/></g><g><path d="M222.20814,229.06552c0.50286,-0.79532 2.5496,-6.52279 2.5496,-6.52279c0,0 2.65383,6.36354 3.23883,6.93512c-0.8199,0.11506 -4.57149,-0.50486 -5.78844,-0.41233z" data-paper-data="{&quot;index&quot;:null}" fill="url(#color-48)"/><path d="M227.73069,229.43101c0.52832,-0.77816 2.75983,-6.43513 2.75983,-6.43513c0,0 2.90587,5.96346 3.47179,6.55461c-0.82297,0.0874 -5.01268,-0.17096 -6.23162,-0.11947z" data-paper-data="{&quot;index&quot;:null}" fill="url(#color-49)"/></g></g><g><path d="M234.1465,229.4579c0.44939,-0.82751 2.11365,-6.6789 2.11365,-6.6789c0,0 3.07041,6.16369 3.69226,6.69357c-0.81089,0.17089 -4.59715,-0.19029 -5.80591,-0.01468z" data-paper-data="{&quot;index&quot;:null}" fill="url(#color-50)"/><path d="M239.68388,229.44409c0.47594,-0.81213 2.32932,-6.60589 2.32932,-6.60589c0,0 3.29556,5.74748 3.89963,6.29818c-0.81579,0.14353 -5.01548,0.17287 -6.22895,0.3077z" data-paper-data="{&quot;index&quot;:null}" fill="url(#color-51)"/></g><g><path d="M245.82578,229.35939c0.39098,-0.85728 1.64513,-6.81028 1.64513,-6.81028c0,0 3.49323,5.92349 4.15075,6.40697c-0.79747,0.22873 -4.60164,0.14123 -5.79588,0.40332z" data-paper-data="{&quot;index&quot;:null}" fill="url(#color-52)"/><path d="M251.35165,228.947c0.41855,-0.84387 1.86547,-6.75303 1.86547,-6.75303c0,0 3.689,5.49236 4.33023,5.99787c-0.80424,0.2018 -4.99392,0.53339 -6.1957,0.75517z" data-paper-data="{&quot;index&quot;:null}" fill="url(#color-53)"/></g><g><path d="M257.44209,228.3603c0.32917,-0.8833 1.15706,-6.90941 1.15706,-6.90941c0,0 3.90785,5.6469 4.59846,6.08037c-0.77958,0.28674 -4.58233,0.47982 -5.75552,0.82904z" data-paper-data="{&quot;index&quot;:null}" fill="url(#color-54)"/><path d="M262.9275,227.5421c0.35764,-0.87197 1.38103,-6.86859 1.38103,-6.86859c0,0 4.07254,5.20276 4.74846,5.65938c-0.78827,0.26041 -4.94592,0.8996 -6.1295,1.2092z" data-paper-data="{&quot;index&quot;:null}" fill="url(#color-55)"/></g></g></g></g></svg>