<svg version="1.1" xmlns="http://www.w3.org/2000/svg" xmlns:xlink="http://www.w3.org/1999/xlink" width="130.47404" height="261.68497" viewBox="0,0,130.47404,261.68497"><g transform="translate(-177.59632,-51.92755)"><g data-paper-data="{&quot;isPaintingLayer&quot;:true}" fill-rule="nonzero" stroke-linejoin="miter" stroke-miterlimit="10" stroke-dasharray="" stroke-dashoffset="0" style="mix-blend-mode: normal"><path d="M179.20671,313.61253v-187.22501h123.18203v187.22501z" fill-opacity="0.01" fill="#000000" stroke="none" stroke-width="0" stroke-linecap="butt"/><path d="M206.67309,308.48921l15.14285,-92.37211l37.78325,-0.11061l13.57389,92.48274z" fill="#ffffff" stroke="#000000" stroke-width="2" stroke-linecap="butt"/><path d="M219.62331,236.05324l3.12142,-18.44586l35.83075,-0.09951l2.76735,18.29049c0,0 -7.51543,2.93985 -21.55904,3.15958c-12.48458,0.19533 -20.16049,-2.90471 -20.16049,-2.90471z" fill="#b5b5b5" stroke="#000000" stroke-width="0" stroke-linecap="butt"/><g stroke="#000000" stroke-width="2"><path d="M228.20893,230.75077l0.4697,23.89138" fill="none" stroke-linecap="round"/><path d="M228.67863,255.03705c1.90232,0 3.44445,0.8349 3.44445,1.8648c0,1.0299 -1.54214,1.8648 -3.44445,1.8648c-1.90232,0 -3.44445,-0.8349 -3.44445,-1.8648c0,-1.0299 1.54214,-1.8648 3.44445,-1.8648z" fill="#000000" stroke-linecap="butt"/></g><g data-paper-data="{&quot;index&quot;:null}" stroke="#000000" stroke-width="2"><path d="M251.67862,254.99246l0.4697,-23.89137" fill="none" stroke-linecap="round"/><path d="M255.12306,257.25216c0,1.0299 -1.54213,1.86479 -3.44445,1.86479c-1.90231,0 -3.44445,-0.8349 -3.44445,-1.86479c0,-1.0299 1.54213,-1.8648 3.44445,-1.8648c1.90231,0 3.44445,0.83491 3.44445,1.8648z" fill="#000000" stroke-linecap="butt"/></g><path d="M178.59632,167.47946c0,-33.30185 28.7599,-60.29833 64.23702,-60.29833c35.47712,0 64.23702,26.99649 64.23702,60.29833c0,33.30185 -28.7599,60.29833 -64.23702,60.29833c-35.47712,0 -64.23702,-26.99649 -64.23702,-60.29833z" fill="#414141" stroke="#000000" stroke-width="2" stroke-linecap="butt"/><path d="M179.31938,167.53337c0,-0.72799 5.20666,55.91939 63.36046,56.93429c55.56352,0.9697 63.51358,-57.95314 63.51358,-56.93429c0,32.80479 -28.40173,59.39833 -63.43702,59.39833c-35.03529,0 -63.43702,-26.59354 -63.43702,-59.39833z" fill="#252525" stroke="#000000" stroke-width="0" stroke-linecap="butt"/><path d="M192.14655,167.90899c0,-12.968 10.51265,-23.48065 23.48065,-23.48065c12.968,0 23.48065,10.51265 23.48065,23.48065c0,12.968 -10.51265,23.48065 -23.48065,23.48065c-12.968,0 -23.48065,-10.51265 -23.48065,-23.48065z" fill="#ffffff" stroke="#000000" stroke-width="2" stroke-linecap="butt"/><path d="M196.82857,163.83334c0,-9.12808 7.39976,-16.52784 16.52783,-16.52784c9.12808,0 16.52784,7.39977 16.52784,16.52784c0,9.12808 -7.39977,16.52784 -16.52784,16.52784c-9.12808,0 -16.52783,-7.39977 -16.52783,-16.52784z" fill="#000000" stroke="none" stroke-width="0" stroke-linecap="butt"/><path d="M269.88561,191.38965c-12.968,0 -23.48065,-10.51265 -23.48065,-23.48065c0,-12.968 10.51265,-23.48065 23.48065,-23.48065c12.968,0 23.48065,10.51265 23.48065,23.48065c0,12.968 -10.51265,23.48065 -23.48065,23.48065z" data-paper-data="{&quot;index&quot;:null}" fill="#ffffff" stroke="#000000" stroke-width="2" stroke-linecap="butt"/><path d="M272.67306,189.46121c-9.12807,0 -16.52783,-7.39977 -16.52783,-16.52784c0,-9.12808 7.39977,-16.52784 16.52783,-16.52784c9.12807,0 16.52783,7.39977 16.52783,16.52784c0,9.12808 -7.39977,16.52784 -16.52783,16.52784z" data-paper-data="{&quot;index&quot;:null}" fill="#000000" stroke="none" stroke-width="0" stroke-linecap="butt"/><path d="M204.78421,139.10053c0,0 6.70895,-5.16922 11.79721,-6.36355c5.08827,-1.19433 12.33413,0.69937 12.33413,0.69937c0,0 -8.03812,-0.06028 -11.96762,0.86207c-4.10648,0.96389 -12.16372,4.80211 -12.16372,4.80211z" fill="#000000" stroke="none" stroke-width="0" stroke-linecap="butt"/><path d="M268.71866,134.29845c-3.9295,-0.92235 -11.96762,-0.86207 -11.96762,-0.86207c0,0 7.24586,-1.8937 12.33413,-0.69937c5.08826,1.19433 11.79721,6.36355 11.79721,6.36355c0,0 -8.05724,-3.83822 -12.16372,-4.80211z" data-paper-data="{&quot;index&quot;:null}" fill="#000000" stroke="none" stroke-width="0" stroke-linecap="butt"/><path d="M194.54528,146.60006l4.66666,3.33333" fill="none" stroke="#000000" stroke-width="2" stroke-linecap="round"/><path d="M208.6322,145.53337l-1.50717,-5.53329" fill="none" stroke="#000000" stroke-width="2" stroke-linecap="round"/><g data-paper-data="{&quot;index&quot;:null}" fill="none" stroke="#000000" stroke-width="2" stroke-linecap="round"><path d="M286.92982,150.07617l4.66666,-3.33333"/><path d="M279.01671,140.1429l-1.50716,5.53329"/></g><path d="M268.61872,119.23339c0,6.87595 -11.78514,12.45 -26.32286,12.45c-14.53771,0 -26.32286,-5.57406 -26.32286,-12.45c0,-6.87595 11.78514,-12.45 26.32286,-12.45c14.53771,0 26.32286,5.57405 26.32286,12.45z" fill="#ffffff" stroke="#000000" stroke-width="2" stroke-linecap="butt"/><text transform="translate(235.50453,127.78339) scale(0.5,0.63543)" font-size="40" xml:space="preserve" fill="#adadad" fill-rule="nonzero" stroke="none" stroke-width="1" stroke-linecap="butt" stroke-linejoin="miter" stroke-miterlimit="10" stroke-dasharray="" stroke-dashoffset="0" font-family="Handwriting" font-weight="normal" text-anchor="start" style="mix-blend-mode: normal"><tspan x="0" dy="0">8</tspan></text><path d="M251.65288,209.56666c0,5.91741 -3.72473,10.71439 -8.31944,10.71439c-4.59469,0 -8.31944,-4.797 -8.31944,-10.71439c0,-5.91741 3.72473,-10.71439 8.31944,-10.71439c4.59469,0 8.31944,4.797 8.31944,10.71439z" fill="#000000" stroke="none" stroke-width="0" stroke-linecap="butt"/><path d="M239.05254,108.70555c0.52723,7.36139 -0.43626,24.69681 -5.59223,24.87829c-5.15598,0.18147 -12.55199,-16.85973 -13.07919,-24.22113c-0.0658,-0.91878 -0.06493,-1.81814 -0.003,-2.68896c0.43431,-6.10636 18.14721,-5.3296 18.67443,2.03179z" fill="#838383" stroke="#000000" stroke-width="2" stroke-linecap="butt"/><path d="M270.21705,85.098c7.36565,-3.56117 16.86879,0.58625 21.22588,9.26352c4.35708,8.67727 12.49514,33.70305 5.12949,37.26423c-7.36565,3.56117 -27.44577,-15.69078 -31.80286,-24.36804c-4.35708,-8.67727 -1.91815,-18.59851 5.44749,-22.15969z" data-paper-data="{&quot;index&quot;:null}" fill="#5b5b5b" stroke="#000000" stroke-width="2" stroke-linecap="butt"/><path d="M275.86042,57.51405l30.54427,-4.42184l-1.9557,35.679l-43.73193,15.17864z" fill="#5b5b5b" stroke="#000000" stroke-width="2" stroke-linecap="butt"/><path d="M223.43064,106.16505c-5.19395,8.20379 -27.07972,25.3753 -34.05704,21.10308c-6.97731,-4.27222 3.596,-28.37039 8.78996,-36.57417c5.19395,-8.20379 15.0607,-11.39096 22.03801,-7.11875c6.97731,4.27222 8.42302,14.38604 3.22907,22.58984z" fill="#5b5b5b" stroke="#000000" stroke-width="2" stroke-linecap="butt"/><path d="M220.29684,109.6636c-1.62491,7.08956 -7.13291,22.91022 -11.11473,21.03472c-3.98183,-1.8755 -4.92963,-20.73693 -3.30471,-27.82648c0.20281,-0.88483 0.45109,-1.7251 0.73811,-2.51444c2.01259,-5.53515 15.30626,2.21667 13.68135,9.30623z" fill="#838383" stroke="#000000" stroke-width="2" stroke-linecap="butt"/><path d="M275.61608,99.03335c0.53488,0.64759 1.05032,1.35609 1.53788,2.12185c3.90622,6.13543 9.33239,24.22434 6.20904,27.32549c-3.12335,3.10115 -13.61346,-9.95983 -17.5197,-16.09526c-3.90624,-6.13543 6.02205,-17.89304 9.77278,-13.35208z" data-paper-data="{&quot;index&quot;:null}" fill="#838383" stroke="#000000" stroke-width="2" stroke-linecap="butt"/><path d="M267.35984,102.6127c0.37898,0.78648 0.71172,1.62201 0.98967,2.5002c2.22704,7.03621 1.64306,25.604 -3.21584,27.33838c-4.85891,1.73438 -12.15274,-14.02143 -14.37979,-21.05763c-2.22704,-7.03621 13.94849,-14.29583 16.60595,-8.78094z" data-paper-data="{&quot;index&quot;:null}" fill="#838383" stroke="#000000" stroke-width="2" stroke-linecap="butt"/><path d="M204.51584,107.80302l4.8397,-28.14985c0,0 36.35878,-11.80424 36.53191,-11.75207c3.95739,1.19192 36.54642,15.14528 36.54642,15.14528l2.46718,28.97128z" fill="#5b5b5b" stroke="#000000" stroke-width="2" stroke-linecap="butt"/><path d="M239.38886,75.36658c2.1303,4.98944 -2.7272,11.84549 -10.84954,15.31344c-8.12233,3.46794 -16.43374,2.23452 -18.56407,-2.75491c-2.1303,-4.98944 2.7272,-11.84549 10.84954,-15.31343c8.12233,-3.46794 16.43375,-2.23452 18.56406,2.75491z" fill="#ffffff" stroke="#000000" stroke-width="2" stroke-linecap="butt"/><path d="M270.64294,75.08136c7.73952,4.25428 11.8951,11.55716 9.28175,16.31144c-2.61334,4.75428 -11.006,5.15961 -18.74552,0.90532c-7.73951,-4.25428 -11.89511,-11.55716 -9.28177,-16.31144c2.61334,-4.75428 11.00598,-5.1596 18.74552,-0.90531z" data-paper-data="{&quot;index&quot;:null}" fill="#ffffff" stroke="#000000" stroke-width="2" stroke-linecap="butt"/><path d="M233.71506,83.32739c0.9622,1.78352 -1.55605,5.00872 -5.62466,7.20375c-4.06861,2.19502 -8.14689,2.52862 -9.10908,0.74513c-0.9622,-1.78352 1.55604,-5.00873 5.62466,-7.20375c4.06861,-2.19502 8.14689,-2.52862 9.10909,-0.74512z" fill="#000000" stroke="#000000" stroke-width="2" stroke-linecap="butt"/><path d="M264.98932,85.9635c3.83156,2.58667 6.01846,6.04515 4.88458,7.72473c-1.13389,1.6796 -5.15917,0.94425 -8.99073,-1.64241c-3.83156,-2.58667 -6.01846,-6.04515 -4.8846,-7.72473c1.13389,-1.6796 5.15916,-0.94424 8.99073,1.64241z" data-paper-data="{&quot;index&quot;:null}" fill="#000000" stroke="#000000" stroke-width="2" stroke-linecap="butt"/><path d="M247.49124,95.50758c-0.06899,1.39149 -6.48238,1.07357 -6.41339,-0.31794c0.06899,-1.39149 1.5606,-2.44838 3.33159,-2.36058c1.77102,0.0878 3.15077,1.287 3.08179,2.67852z" fill="#000000" stroke="#000000" stroke-width="2" stroke-linecap="butt"/><path d="M243.85792,101.2573l0.29595,-5.83086" fill="none" stroke="#000000" stroke-width="1" stroke-linecap="round"/><path d="M243.8314,100.6527c0,0 -0.11903,0.87488 -0.6647,1.67222c-0.48118,0.70312 -1.3632,1.31904 -1.80894,1.60269c-0.28599,0.18202 -1.77065,0.56373 -2.54167,0.23251c-1.22571,-0.52655 -1.82207,-1.94515 -1.82207,-1.94515" data-paper-data="{&quot;index&quot;:null}" fill="none" stroke="#000000" stroke-width="1" stroke-linecap="round"/><path d="M212.82542,98.70168c0.05737,0.04008 0.11928,0.11688 0.1123,0.26052c-0.00548,0.1123 -0.0484,0.16917 -0.09564,0.19748c-0.02404,0.03589 -0.06177,0.06535 -0.12025,0.07795c-0.08904,0.01922 -0.15042,-0.01696 -0.19155,-0.06488c-1.10888,0.03394 -4.18313,1.65201 -2.532,2.73272c0.55063,0.3752 1.40619,0.31591 1.92942,-0.00835c0.12777,-0.07919 0.52185,-0.44639 0.69591,-0.38864c0.47293,0.15689 0.51058,1.19534 0.61684,1.61774c0.2126,0.84517 0.78144,1.49463 1.40177,1.92567c1.65857,0.70828 2.24661,-0.63114 2.22159,-2.50677c-0.00471,-0.35332 -0.37069,-1.35398 -0.23634,-1.61431c0.12708,-0.24624 0.55599,-0.30115 0.7826,-0.35017c0.82081,-0.36484 2.13445,-1.0116 2.61022,-1.95535c0.84803,-1.68218 -0.74658,-2.02108 -1.71919,-1.81064c-0.44718,0.0965 -1.69498,0.95734 -2.08464,0.85265c-0.45238,-0.12153 -0.40678,-0.63274 -0.52202,-0.98942c-0.37395,-1.15751 -1.66414,-2.91216 -2.64761,-1.74964c-0.80083,0.84989 -0.47984,2.56496 -0.2214,3.77343zM212.37763,98.65221c-0.29067,-1.40895 -0.52418,-3.13436 0.36361,-4.13245c0.99113,-1.03471 2.33746,-0.13626 2.96233,1.15868c0.06144,0.12736 0.35559,0.731 0.39097,0.84054c0.06635,0.20539 -0.00848,0.64865 0.16414,0.62787c0.56731,-0.0683 1.29447,-0.71724 1.92975,-0.85432c1.36537,-0.2939 3.2353,0.56823 2.20765,2.63802c-0.52344,1.05428 -1.92414,1.75792 -2.83919,2.16296c-0.81784,0.17607 -0.2325,1.31547 -0.31253,2.37002c-0.15025,1.97984 -1.17971,2.74785 -2.75126,2.06719c-0.6251,-0.43229 -1.21918,-1.04834 -1.53453,-1.85665c-0.04574,-0.11725 -0.38264,-1.65077 -0.39568,-1.64992c-1.00087,0.06587 -1.54024,1.14214 -2.74432,0.34149c-2.2562,-1.49494 1.00359,-3.57439 2.55904,-3.71343z" fill="#c5c5c5" stroke="none" stroke-width="0.5" stroke-linecap="butt"/><path d="M275.98579,97.49732c-0.86367,-1.25408 -2.32106,0.36435 -2.80766,1.4792c-0.14994,0.34356 -0.15512,0.85676 -0.61731,0.93294c-0.39811,0.06564 -1.55466,-0.91441 -1.99009,-1.05467c-0.94702,-0.3056 -2.56731,-0.12608 -1.88984,1.63173c0.38007,0.98618 1.62333,1.75969 2.40403,2.20394c0.22065,0.07121 0.642,0.16826 0.74411,0.42586c0.10794,0.27235 -0.3552,1.23189 -0.39484,1.58302c-0.21043,1.86394 0.24228,3.25497 1.96276,2.7142c0.65992,-0.36757 1.29021,-0.95758 1.58535,-1.77757c0.14752,-0.40982 0.28769,-1.43946 0.7738,-1.54881c0.17894,-0.04024 0.53476,0.36413 0.65407,0.45556c0.48862,0.37441 1.3341,0.51805 1.91915,0.19914c1.74992,-0.91212 -1.14924,-2.8263 -2.24932,-2.96976c-0.04566,0.04362 -0.11031,0.07356 -0.19702,0.04562c-0.05694,-0.01834 -0.09157,-0.05137 -0.11195,-0.08948c-0.04421,-0.03286 -0.08128,-0.09368 -0.07562,-0.20597c0.00725,-0.14364 0.07645,-0.21394 0.1375,-0.24815c0.37669,-1.17698 0.86573,-2.85189 0.15291,-3.77683zM278.46264,105.21755c-1.27739,0.67764 -1.70763,-0.44669 -2.69709,-0.61124c-0.01288,-0.00214 -0.49982,1.49053 -0.55693,1.60269c-0.39372,0.77315 -1.04585,1.32742 -1.71063,1.69578c-1.63115,0.52189 -2.57962,-0.34415 -2.53331,-2.32917c0.02466,-1.05729 0.71982,-2.13322 -0.07659,-2.38931c-0.8705,-0.49354 -2.19472,-1.33228 -2.61132,-2.43316c-0.81789,-2.16128 1.12813,-2.83425 2.45774,-2.40674c0.6186,0.19925 1.27799,0.91693 1.83578,1.041c0.16971,0.03775 0.13912,-0.41075 0.22543,-0.60856c0.04605,-0.1055 0.39847,-0.67712 0.47221,-0.79776c0.74988,-1.2268 2.17846,-1.98768 3.06241,-0.86001c0.78471,1.081 0.38171,2.77486 -0.04689,4.14816c1.53409,0.29219 4.57222,2.68385 2.1792,3.94832z" data-paper-data="{&quot;index&quot;:null}" fill="#c5c5c5" stroke="none" stroke-width="0.5" stroke-linecap="butt"/><path d="M250.57904,103.03149c0,0 -0.73374,1.35267 -2.00551,1.7554c-0.8,0.25333 -2.23962,-0.27336 -2.5062,-0.48276c-0.41549,-0.32635 -1.2323,-1.02647 -1.64156,-1.77375c-0.4641,-0.8474 -0.49605,-1.72977 -0.49605,-1.72977" data-paper-data="{&quot;index&quot;:null}" fill="none" stroke="#000000" stroke-width="1" stroke-linecap="round"/></g></g></svg>