<svg version="1.1" xmlns="http://www.w3.org/2000/svg" xmlns:xlink="http://www.w3.org/1999/xlink" width="142.49724" height="280.13239" viewBox="0,0,142.49724,280.13239"><defs><linearGradient x1="239.99979" y1="175.91989" x2="239.99979" y2="307.91989" gradientUnits="userSpaceOnUse" id="color-1"><stop offset="0" stop-color="#000000"/><stop offset="1" stop-color="#ff80c9"/></linearGradient><linearGradient x1="256.76024" y1="34.31839" x2="244.77613" y2="132.59732" gradientUnits="userSpaceOnUse" id="color-2"><stop offset="0" stop-color="#000000"/><stop offset="1" stop-color="#8cefef"/></linearGradient><linearGradient x1="253.39549" y1="83.94266" x2="238.79809" y2="203.6526" gradientUnits="userSpaceOnUse" id="color-3"><stop offset="0" stop-color="#000000"/><stop offset="1" stop-color="#8cefef"/></linearGradient><linearGradient x1="271.26579" y1="84.85048" x2="270.81811" y2="88.52178" gradientUnits="userSpaceOnUse" id="color-4"><stop offset="0" stop-color="#000000"/><stop offset="1" stop-color="#000000"/></linearGradient><linearGradient x1="222.49465" y1="49.1929" x2="206.74365" y2="178.36316" gradientUnits="userSpaceOnUse" id="color-5"><stop offset="0" stop-color="#000000"/><stop offset="1" stop-color="#ff80c9"/></linearGradient><linearGradient x1="222.39536" y1="78.5554" x2="221.99173" y2="81.86553" gradientUnits="userSpaceOnUse" id="color-6"><stop offset="0" stop-color="#000000"/><stop offset="1" stop-color="#ce52af"/></linearGradient><linearGradient x1="222.73135" y1="79.51181" x2="222.29362" y2="83.1015" gradientUnits="userSpaceOnUse" id="color-7"><stop offset="0" stop-color="#000000"/><stop offset="1" stop-color="#000000"/></linearGradient><linearGradient x1="226.19491" y1="79.35455" x2="225.74723" y2="83.02585" gradientUnits="userSpaceOnUse" id="color-8"><stop offset="0" stop-color="#000000"/><stop offset="1" stop-color="#000000"/></linearGradient><linearGradient x1="224.57525" y1="97.89773" x2="224.17161" y2="101.20785" gradientUnits="userSpaceOnUse" id="color-9"><stop offset="0" stop-color="#000000"/><stop offset="1" stop-color="#ce52af"/></linearGradient><linearGradient x1="223.93663" y1="97.87417" x2="223.28933" y2="103.18254" gradientUnits="userSpaceOnUse" id="color-10"><stop offset="0" stop-color="#000000"/><stop offset="1" stop-color="#000000"/></linearGradient><linearGradient x1="289.21185" y1="58.33579" x2="273.21876" y2="189.49135" gradientUnits="userSpaceOnUse" id="color-11"><stop offset="0" stop-color="#000000"/><stop offset="1" stop-color="#ff80c9"/></linearGradient><linearGradient x1="282.19796" y1="87.30661" x2="281.78813" y2="90.6676" gradientUnits="userSpaceOnUse" id="color-12"><stop offset="0" stop-color="#000000"/><stop offset="1" stop-color="#ce52af"/></linearGradient><linearGradient x1="281.64032" y1="88.16811" x2="281.19586" y2="91.81297" gradientUnits="userSpaceOnUse" id="color-13"><stop offset="0" stop-color="#000000"/><stop offset="1" stop-color="#000000"/></linearGradient><linearGradient x1="278.3171" y1="87.17437" x2="277.86254" y2="90.90209" gradientUnits="userSpaceOnUse" id="color-14"><stop offset="0" stop-color="#000000"/><stop offset="1" stop-color="#000000"/></linearGradient><linearGradient x1="275.39865" y1="105.8472" x2="274.98881" y2="109.2082" gradientUnits="userSpaceOnUse" id="color-15"><stop offset="0" stop-color="#000000"/><stop offset="1" stop-color="#ce52af"/></linearGradient><linearGradient x1="276.02411" y1="105.97863" x2="275.36686" y2="111.36858" gradientUnits="userSpaceOnUse" id="color-16"><stop offset="0" stop-color="#000000"/><stop offset="1" stop-color="#000000"/></linearGradient><linearGradient x1="252.73594" y1="77.15313" x2="249.21289" y2="106.0448" gradientUnits="userSpaceOnUse" id="color-17"><stop offset="0" stop-color="#000000"/><stop offset="1" stop-color="#e3e854"/></linearGradient><linearGradient x1="246.71815" y1="145.32622" x2="243.42988" y2="164.03951" gradientUnits="userSpaceOnUse" id="color-18"><stop offset="0" stop-color="#000000" stop-opacity="0"/><stop offset="1" stop-color="#000000"/></linearGradient></defs><g transform="translate(-174.40302,-33.89998)"><g data-paper-data="{&quot;isPaintingLayer&quot;:true}" fill-rule="nonzero" stroke-linejoin="miter" stroke-miterlimit="10" stroke-dasharray="" stroke-dashoffset="0" style="mix-blend-mode: normal"><path d="M179.28348,314.03237v-267.22501h123.18203v267.22501z" fill-opacity="0.01" fill="#000000" stroke="none" stroke-width="0" stroke-linecap="butt"/><path d="M206.7498,307.91988l15.14285,-131.8421l37.78325,-0.15789l13.57389,132z" fill="url(#color-1)" stroke="none" stroke-width="0" stroke-linecap="butt"/><path d="M244.77613,132.59732c-28.91168,-3.52549 -49.66652,-28.38393 -46.3572,-55.52292c3.30932,-27.13897 29.42963,-46.2815 58.34131,-42.75601c28.91169,3.52549 49.66652,28.38394 46.3572,55.52292c-3.30932,27.13898 -29.42962,46.28149 -58.34131,42.756z" fill="url(#color-2)" stroke="none" stroke-width="0" stroke-linecap="butt"/><g stroke="none" stroke-width="0" stroke-linecap="butt"><path d="M182.33209,136.02218c4.03096,-33.05699 35.84713,-56.37378 71.0634,-52.07952c35.21627,4.29426 60.49696,34.57344 56.466,67.63042c-4.03096,33.05699 -35.84713,56.37378 -71.0634,52.07952c-35.21627,-4.29426 -60.49696,-34.57344 -56.466,-67.63042z" fill="url(#color-3)"/><path d="M232.3801,92.04683c0.70959,1.6987 -3.12179,4.91651 -8.55763,7.18719c-5.43584,2.27069 -10.41769,2.73436 -11.12728,1.03566c-0.70959,-1.6987 3.1218,-4.91651 8.55763,-7.1872c5.43584,-2.27069 10.41769,-2.73435 11.12727,-1.03565z" fill="#d4f0f0"/><path d="M243.23789,91.63058c-0.17827,1.46193 -1.50791,2.50254 -2.96984,2.32427c-1.46193,-0.17827 -2.50254,-1.50791 -2.32427,-2.96983c0.17827,-1.46193 1.50792,-2.50255 2.96984,-2.32428c1.46193,0.17827 2.50255,1.50791 2.32428,2.96984z" fill="#d4f0f0"/></g><path d="M195.73067,138.08867c1.56969,-12.87265 13.27752,-22.03552 26.15017,-20.46583c12.87265,1.56969 22.03552,13.27753 20.46583,26.15018c-1.56969,12.87265 -13.27752,22.03552 -26.15017,20.46583c-12.87265,-1.56969 -22.03552,-13.27753 -20.46583,-26.15018z" fill="#ff0000" stroke="none" stroke-width="0" stroke-linecap="butt"/><path d="M270.05597,170.80642c-12.87265,-1.56969 -22.03552,-13.27753 -20.46583,-26.15018c1.56969,-12.87265 13.27753,-22.03552 26.15018,-20.46583c12.87265,1.56969 22.03552,13.27753 20.46583,26.15018c-1.56969,12.87265 -13.27753,22.03552 -26.15018,20.46583z" data-paper-data="{&quot;index&quot;:null}" fill="#ff0000" stroke="none" stroke-width="0" stroke-linecap="butt"/><path d="M276.41227,109.03956c-3.78897,-1.39121 -11.77528,-2.30433 -11.77528,-2.30433c0,0 7.4218,-1.00271 12.32809,0.79873c4.90628,1.80145 10.94021,7.74473 10.94021,7.74473c0,0 -7.53341,-4.78527 -11.49302,-6.23914z" data-paper-data="{&quot;index&quot;:null}" fill="#000000" stroke="none" stroke-width="0" stroke-linecap="butt"/><path d="M192.45728,134.76809l3.25882,3.01664" fill="none" stroke="#000000" stroke-width="2" stroke-linecap="round"/><path d="M300.37981,146.92072l-4.58067,2.86662" fill="none" stroke="#000000" stroke-width="2" stroke-linecap="round"/><path d="M228.58574,94.63332c1.42272,2.86996 -2.19741,7.56288 -8.08578,10.48191c-5.88837,2.91903 -11.81518,2.95881 -13.2379,0.08884c-1.42272,-2.86996 2.19741,-7.56288 8.08579,-10.4819c5.88837,-2.91902 11.81518,-2.95881 13.2379,-0.08884z" fill="#ecfefe" stroke="none" stroke-width="0" stroke-linecap="butt"/><path d="M236.9923,93.07649c-0.16713,1.37056 -1.32478,2.35697 -2.58569,2.20322c-1.26091,-0.15376 -2.14761,-1.38946 -1.98048,-2.76002c0.16713,-1.37056 1.32478,-2.35697 2.5857,-2.20322c1.26091,0.15376 2.14761,1.38946 1.98048,2.76002z" fill="#ecfefe" stroke="none" stroke-width="0" stroke-linecap="butt"/><path d="M212.36661,106.06751c0,0 7.28532,-4.31914 12.48074,-4.88879c5.19542,-0.56965 12.15878,2.18719 12.15878,2.18719c0,0 -7.97172,-1.0328 -11.98397,-0.59287c-4.19296,0.45974 -12.65555,3.29446 -12.65555,3.29446z" fill="#000000" stroke="none" stroke-width="0" stroke-linecap="butt"/><path d="M269.86981,88.40613l2.34428,-3.44001" fill="url(#color-4)" stroke="none" stroke-width="2" stroke-linecap="round"/><path d="M206.93052,166.13828l1.04506,-3.06268" fill="none" stroke="#000000" stroke-width="2" stroke-linecap="round"/><path d="M225.77063,168.60353l0.56487,-4.63235" fill="none" stroke="#000000" stroke-width="2" stroke-linecap="round"/><path d="M258.49161,167.38859l-0.89574,4.592" fill="none" stroke="#000000" stroke-width="2" stroke-linecap="round"/><path d="M278.07045,171.18881l0.1384,4.76608" fill="none" stroke="#000000" stroke-width="2" stroke-linecap="round"/><path d="M195.51587,143.24374c0.41945,0.0649 44.43757,5.42842 45.58742,5.46403c-2.63345,10.27319 -13.12642,17.19988 -24.65205,15.79445c-4.51663,-0.55076 -11.30442,-3.51995 -14.63772,-7.22737c-5.53075,-6.15149 -6.29765,-14.03111 -6.29765,-14.03111z" data-paper-data="{&quot;index&quot;:null}" fill="#ff4242" stroke="none" stroke-width="2" stroke-linecap="butt"/><path d="M202.77748,138.67026c1.10489,-9.06096 9.34593,-15.51063 18.40689,-14.40573c9.06096,1.10489 15.51063,9.34594 14.40573,18.4069c-1.10489,9.06096 -9.34595,15.51062 -18.4069,14.40573c-9.06096,-1.10489 -15.51061,-9.34594 -14.40572,-18.4069z" fill="#000000" stroke="none" stroke-width="0" stroke-linecap="butt"/><path d="M285.82976,167.31829c-4.12654,2.79777 -11.42895,4.04881 -15.94558,3.49805c-11.52563,-1.40543 -20.04659,-10.65069 -20.13417,-21.25567c1.12472,0.24175 45.14186,5.61322 45.56462,5.65103c0,0 -2.63794,7.46444 -9.48487,12.1066z" data-paper-data="{&quot;index&quot;:null}" fill="#ff4242" stroke="none" stroke-width="2" stroke-linecap="butt"/><path d="M270.8192,163.61752c-9.06095,-1.10489 -15.51062,-9.34594 -14.40572,-18.4069c1.10489,-9.06096 9.34594,-15.51063 18.40689,-14.40573c9.06095,1.10489 15.51062,9.34594 14.40572,18.4069c-1.10489,9.06096 -9.34594,15.51063 -18.40689,14.40573z" data-paper-data="{&quot;index&quot;:null}" fill="#000000" stroke="none" stroke-width="0" stroke-linecap="butt"/><g stroke="none" stroke-width="0"><path d="M253.33227,87.28649c-0.02153,0.17655 -27.42287,38.64341 -29.05633,39.06752c-0.1129,0.02931 -31.68905,45.42888 -42.95292,48.83646c-3.57213,1.08065 -5.16472,-21.71958 -5.24146,-24.48683c-0.66741,-24.07101 8.14965,-62.15158 9.53128,-68.02118c2.08364,-8.85201 6.25563,-17.25046 8.0594,-19.90588c6.97191,-10.26367 16.3736,-15.10169 24.12674,-14.15627c10.22036,1.24627 18.05461,12.41372 24.84356,22.324c5.35201,7.81267 10.89056,14.69527 10.68973,16.3422z" fill="url(#color-5)" stroke-linecap="butt"/><path d="M225.32826,79.02071c-0.03596,0.29492 1.33229,3.41414 -0.57219,3.18191c-1.90448,-0.23223 -6.1497,-3.03989 -6.11374,-3.33481c0.03596,-0.29492 1.60901,-0.34574 3.51349,-0.11351c1.90448,0.23223 3.2084,-0.02851 3.17244,0.26641z" data-paper-data="{&quot;index&quot;:null}" fill="url(#color-6)" stroke-linecap="butt"/><path d="M226.93531,83.6675l-8.84565,-4.72171" fill="url(#color-7)" stroke-linecap="round"/><path d="M225.24661,79.23892l1.44893,3.90256" fill="url(#color-8)" stroke-linecap="round"/><path d="M223.98688,100.95722c-1.90449,-0.23223 -3.41922,-0.65957 -3.38326,-0.9545c0.03596,-0.29492 4.83148,-2.00015 6.73596,-1.76792c1.90449,0.23223 -0.17324,2.93125 -0.2092,3.22617c-0.03596,0.29492 -1.23902,-0.27152 -3.1435,-0.50375z" data-paper-data="{&quot;index&quot;:null}" fill="url(#color-9)" stroke-linecap="butt"/><path d="M218.85722,100.89787l9.7211,-2.45769l-3.23676,4.99261" data-paper-data="{&quot;index&quot;:null}" fill="url(#color-10)" stroke-linecap="round"/></g><path d="M221.95669,141.75564c-0.13848,1.13561 -1.20307,1.94008 -2.37783,1.79682c-1.17477,-0.14325 -2.01485,-1.17997 -1.87637,-2.31558c0.13848,-1.13561 1.20307,-1.94008 2.37784,-1.79682c1.17477,0.14325 2.01485,1.17997 1.87637,2.31558z" fill="#ff0000" stroke="none" stroke-width="0" stroke-linecap="butt"/><path d="M275.20017,148.17139c-0.13848,1.13561 -1.20307,1.94008 -2.37784,1.79682c-1.17477,-0.14325 -2.01484,-1.17996 -1.87636,-2.31558c0.13848,-1.13561 1.20307,-1.94008 2.37783,-1.79682c1.17477,0.14325 2.01485,1.17997 1.87637,2.31558z" fill="#ff0000" stroke="none" stroke-width="0" stroke-linecap="butt"/><g data-paper-data="{&quot;index&quot;:null}" stroke="none" stroke-width="0"><path d="M250.06032,88.42262c0.20391,-1.67224 7.24557,-7.11622 14.33141,-13.52227c8.9883,-8.126 19.29543,-17.23825 29.5158,-15.99198c7.75314,0.94541 15.70567,7.99158 19.98634,19.7982c1.10749,3.05461 3.12257,12.3444 3.00115,21.57565c-0.08051,6.12106 -0.74513,45.79754 -7.22171,69.36614c-0.74456,2.70949 -7.81127,24.80125 -11.01624,22.8709c-10.10613,-6.0869 -29.75624,-58.48995 -29.85871,-58.54618c-1.48253,-0.81365 -18.75989,-45.3712 -18.73804,-45.55046z" fill="url(#color-11)" stroke-linecap="butt"/><path d="M282.38228,87.56069c1.90449,0.23223 3.41878,0.66326 3.38226,0.96271c-0.03652,0.29946 -4.83627,2.03936 -6.74074,1.80713c-1.90449,-0.23223 0.17869,-2.97596 0.21521,-3.27542c0.03652,-0.29946 1.2388,0.27334 3.14327,0.50557z" data-paper-data="{&quot;index&quot;:null}" fill="url(#color-12)" stroke-linecap="butt"/><path d="M286.282,88.73411l-9.72783,2.51286" fill="url(#color-13)" stroke-linecap="round"/><path d="M279.2654,87.29l-2.35116,3.49644" fill="url(#color-14)" stroke-linecap="round"/><path d="M272.05611,108.74127c0.03652,-0.29946 -1.32629,-3.46338 0.5782,-3.23115c1.90449,0.23223 6.14548,3.07455 6.10896,3.37401c-0.03652,0.29946 -1.61001,0.35395 -3.5145,0.12172c-1.90448,-0.23223 -3.20918,0.03488 -3.17266,-0.26458z" data-paper-data="{&quot;index&quot;:null}" fill="url(#color-15)" stroke-linecap="butt"/><path d="M273.31463,111.11834l-1.93221,-5.70571l8.83891,4.77689" data-paper-data="{&quot;index&quot;:null}" fill="url(#color-16)" stroke-linecap="round"/></g><path d="M251.26814,193.00821c-0.42486,3.48421 -22.2631,0.82126 -21.83824,-2.66295c0.42486,-3.48421 5.65795,-5.71261 11.68841,-4.97726c6.03046,0.73535 10.57469,4.156 10.14983,7.64021z" fill="#000000" stroke="none" stroke-width="0" stroke-linecap="butt"/><path d="M211.13517,164.98851l2.90878,0.93036" fill="none" stroke="#000000" stroke-width="0.5" stroke-linecap="round"/><path d="M211.26316,166.29935l1.38349,0.45653" fill="none" stroke="#000000" stroke-width="0.5" stroke-linecap="round"/><path d="M275.69673,172.2375l-2.25161,0.56494" fill="none" stroke="#000000" stroke-width="0.5" stroke-linecap="round"/><path d="M275.82587,173.93226l-1.4244,0.66581" fill="none" stroke="#000000" stroke-width="0.5" stroke-linecap="round"/><path d="M174.50248,130.40396c-0.10267,-1.13738 -0.42073,-4.60874 1.08713,-5.19468c0.18335,-0.07125 0.36154,-0.04075 0.53535,0.04625l0.03488,-0.28608c0.05014,-0.41116 0.42411,-0.70384 0.83527,-0.6537c0.41116,0.05014 0.70384,0.4241 0.6537,0.83526l-0.10178,0.83467c0.03947,-0.00014 0.0811,0.00232 0.12499,0.00767c0.28949,0.0353 0.45268,0.16944 0.54403,0.32022c0.03227,0.00871 0.06556,0.01955 0.09988,0.03272c0.32252,0.12373 0.43949,0.33901 0.47186,0.53527c2.26406,0.84611 3.96854,-3.47211 5.95331,-1.10069c1.12923,1.34922 0.31221,3.28081 -0.06809,4.6985c-0.73118,2.7256 -2.32399,5.1566 -3.7181,7.62133c-1.0207,1.91859 -0.98154,4.12617 -1.24281,6.27374c-0.08771,0.72095 -0.60202,1.51049 -0.27883,2.16088c0.25234,0.5078 1.13239,-0.26096 1.59699,-0.58605c3.90635,-2.73338 5.67852,-9.21703 7.1985,-13.50358c1.18186,-5.03658 2.73227,-12.11037 6.36611,-15.92588c3.15438,-3.31207 8.26285,-4.87339 8.83871,1.15575c0.51075,3.25802 0.35673,6.85926 0.45211,10.15024c0.02055,0.70908 -0.40358,1.25385 0.03544,1.91901c0.1679,0.25439 0.53716,-0.29503 0.77407,-0.4868c0.57388,-0.46452 0.8969,-1.17406 1.37798,-1.73412c1.70274,-1.98229 3.72144,-4.21204 6.38291,-4.58701c5.37793,0.65578 -0.51273,8.91702 0.40265,12.45431c0.09692,0.37453 0.59316,-0.54005 0.96599,-0.64331c0.50059,-0.13864 2.17029,-0.36198 2.57618,0.219c0.29175,0.41761 0.1704,1.04957 -0.00383,1.52827c-0.475,1.30508 -1.78794,3.51494 -2.60134,4.74304c-1.59505,4.09737 -5.36304,7.00441 -7.87615,10.48094c-2.68114,3.70898 -5.1089,7.65881 -8.61857,10.70347c-3.27293,4.13357 -6.1497,8.30767 -10.34138,11.57828c-0.87441,0.68228 -1.69213,1.90103 -2.72705,2.31788c-2.3353,0.9406 -5.95393,-0.53977 -6.4897,-2.93132c-2.53757,-7.17253 -2.55266,-14.59374 -3.12975,-22.17211c-0.26145,-2.55502 -0.06024,-5.18798 0.27815,-7.81533c-0.11137,-4.33198 -0.00009,-8.68994 -0.38882,-12.99602zM175.74852,128.4689c0.00592,-0.05447 0.01189,-0.10896 0.01786,-0.16342c-0.00543,-0.46388 0.01774,-0.88531 0.1452,-1.27923c0.01063,-0.09088 0.02132,-0.18175 0.03207,-0.2726c-0.19345,0.43926 -0.23009,1.05221 -0.19514,1.71525z" fill="#000000" stroke="none" stroke-width="0.5" stroke-linecap="butt"/><path d="M312.50085,163.95785c-0.3029,2.63169 -0.7403,5.23584 -1.60808,7.65315c-2.38132,7.21763 -4.17932,14.41775 -8.36615,20.77032c-1.09478,2.19273 -4.96311,2.76014 -7.00395,1.28592c-0.90443,-0.65332 -1.4053,-2.03288 -2.09013,-2.90529c-3.2829,-4.18206 -5.07231,-8.92516 -7.25602,-13.7241c-2.67518,-3.79883 -4.08264,-8.21632 -5.79391,-12.46091c-1.60403,-3.97858 -4.56302,-7.70591 -5.12671,-12.06652c-0.49444,-1.38758 -1.23786,-3.84819 -1.38532,-5.22918c-0.05409,-0.50654 -0.02003,-1.14914 0.36353,-1.48441c0.5336,-0.46642 2.10071,0.15162 2.55331,0.40649c0.3371,0.18983 0.59902,1.19686 0.7831,0.85659c1.73858,-3.21366 -1.99423,-12.64839 3.3837,-11.99261c2.49336,1.00355 3.91709,3.65307 5.09359,5.98645c0.33241,0.65926 0.47544,1.42563 0.92088,2.01444c0.1839,0.24309 0.4103,0.86513 0.63441,0.65854c0.58599,-0.54016 0.3052,-1.1709 0.49555,-1.85427c0.88342,-3.17163 1.59931,-6.70434 2.87803,-9.74416c2.00783,-5.71408 6.59141,-2.97091 8.85746,1.00211c2.61047,4.57692 2.41555,11.81602 2.35246,16.98902c0.44534,4.52622 0.60753,11.24572 3.74256,14.83773c0.37286,0.42721 1.04239,1.38494 1.40936,0.95265c0.47001,-0.55366 0.16051,-1.44366 0.24862,-2.16456c0.26247,-2.14743 0.83097,-4.28091 0.30122,-6.38856c-0.76097,-2.72752 -1.72292,-5.47005 -1.77769,-8.29148c-0.02849,-1.46753 -0.35738,-3.53886 1.06298,-4.57719c2.49648,-1.82498 3.11332,2.77631 5.51436,2.49906c0.07858,-0.18273 0.24387,-0.36359 0.58667,-0.40619c0.03648,-0.00454 0.07141,-0.00706 0.10482,-0.00776c0.12491,-0.12441 0.31555,-0.21538 0.60504,-0.18008c0.04389,0.00535 0.0849,0.01298 0.12317,0.02259l0.10178,-0.83467c0.05014,-0.41116 0.42409,-0.70384 0.83526,-0.6537c0.41117,0.05014 0.70384,0.42411 0.65371,0.83527l-0.03488,0.28608c0.18962,-0.04267 0.36992,-0.02947 0.53077,0.08375c1.32288,0.93112 0.17995,4.22432 -0.19304,5.3037c-1.41212,4.08649 -2.35135,8.3435 -3.50047,12.52177zM315.47955,147.54639c-0.01139,0.09078 -0.02286,0.18155 -0.03437,0.27232c0.02907,0.413 -0.04971,0.82766 -0.16646,1.27664c-0.00728,0.05431 -0.0146,0.10861 -0.02194,0.16292c0.19326,-0.63522 0.30499,-1.23901 0.22276,-1.71188z" data-paper-data="{&quot;index&quot;:null}" fill="#000000" stroke="none" stroke-width="0.5" stroke-linecap="butt"/><path d="M271.47448,94.04754c-1.30244,10.68097 -9.52418,13.55046 -22.13817,12.01231c-12.61397,-1.53815 -20.16446,-6.2285 -18.86202,-16.90946c1.30244,-10.68097 9.64764,-13.53541 22.26162,-11.99726c12.61397,1.53815 20.04101,6.21345 18.73857,16.89442z" fill="url(#color-17)" stroke="none" stroke-width="0" stroke-linecap="butt"/><path d="M240.27712,193.35934c0.66268,-1.64379 5.19642,-1.64021 7.2227,-1.58418l0.23622,-0.08418c0.0367,-0.01395 0.07723,-0.01943 0.11891,-0.01435c0.13706,0.01671 0.23461,0.14137 0.2179,0.27842c-0.00724,0.05936 -0.03473,0.11131 -0.07471,0.14979l-0.26535,0.25974c-0.94216,1.69983 -1.25927,3.20722 -1.34675,5.14699c0.14281,3.18633 1.03634,4.56192 2.93733,6.59209l0.00778,-0.01418l0.28996,0.15911c0.08996,0.04668 0.146,0.14571 0.13301,0.25223c-0.01671,0.13706 -0.14137,0.23462 -0.27843,0.2179l-0.23278,-0.02839c-0.48174,0.02083 -0.96303,0.00245 -1.44734,0.01176c-2.30891,-0.28529 -5.68524,0.37994 -7.88295,-0.55961l-0.00478,0.03916l-0.24816,-0.03026c-0.13706,-0.01671 -0.23461,-0.14137 -0.2179,-0.27842c0.0144,-0.1181 0.10895,-0.20687 0.22252,-0.21847l0.25054,-0.03113l0.00033,0.0026l0.00558,-0.00327c2.17164,-0.13764 2.13364,-3.5167 1.8155,-5.07196c-0.13041,-1.71138 -1.47049,-5.95967 -3.67008,-6.11588c0,0 -0.24817,-0.03026 -0.21791,-0.27842c0.03026,-0.24816 0.27843,-0.2179 0.27843,-0.2179c0.83626,0.12811 1.55661,0.67346 2.1504,1.42082z" fill="#000000" stroke="none" stroke-width="0.5" stroke-linecap="butt"/><path d="M248.37785,199.17616c-0.05166,0.42363 -0.41675,0.72763 -0.81546,0.67902c-0.39871,-0.04862 -0.68004,-0.43145 -0.62839,-0.85508c0.05166,-0.42363 0.41675,-0.72763 0.81546,-0.67902c0.39871,0.04862 0.68004,0.43145 0.62839,0.85508z" fill="#000000" stroke="none" stroke-width="0" stroke-linecap="butt"/><path d="M228.20363,163.05617c0,0 8.25197,-5.34837 10.85494,-8.74791c1.98737,-2.59555 3.42049,-9.89616 3.42049,-9.89616c0,0 7.62538,0.45187 6.90753,0.55511c-0.89755,0.12908 -0.54249,6.54988 1.48448,12.40309c1.83618,5.30228 6.69578,9.99944 6.69578,9.99944c0,0 -8.75044,-5.8367 -13.55626,-6.5427c-4.976,-0.731 -15.80696,2.22913 -15.80696,2.22913z" fill="url(#color-18)" stroke="none" stroke-width="0" stroke-linecap="butt"/></g></g></svg>