<svg version="1.1" xmlns="http://www.w3.org/2000/svg" xmlns:xlink="http://www.w3.org/1999/xlink" width="138.72221" height="289.20955" viewBox="0,0,138.72221,289.20955"><defs><linearGradient x1="238.15588" y1="100.28079" x2="238.15588" y2="277.13788" gradientUnits="userSpaceOnUse" id="color-1"><stop offset="0" stop-color="#000000"/><stop offset="1" stop-color="#2b2861"/></linearGradient><linearGradient x1="240.00024" y1="125.50001" x2="240.00024" y2="307.50001" gradientUnits="userSpaceOnUse" id="color-2"><stop offset="0" stop-color="#000000"/><stop offset="1" stop-color="#3b3786"/></linearGradient><linearGradient x1="208.81668" y1="161.42779" x2="208.81668" y2="177.78913" gradientUnits="userSpaceOnUse" id="color-3"><stop offset="0" stop-color="#000000"/><stop offset="1" stop-color="#2b2752"/></linearGradient><linearGradient x1="213.97528" y1="163.54801" x2="213.97528" y2="184.18903" gradientUnits="userSpaceOnUse" id="color-4"><stop offset="0" stop-color="#000000"/><stop offset="1" stop-color="#2b2752"/></linearGradient><linearGradient x1="273.00131" y1="160.32779" x2="273.00131" y2="176.68913" gradientUnits="userSpaceOnUse" id="color-5"><stop offset="0" stop-color="#000000"/><stop offset="1" stop-color="#423d7e"/></linearGradient><linearGradient x1="267.84263" y1="162.44801" x2="267.84263" y2="183.08903" gradientUnits="userSpaceOnUse" id="color-6"><stop offset="0" stop-color="#000000"/><stop offset="1" stop-color="#423d7e"/></linearGradient><linearGradient x1="241.00011" y1="18.29047" x2="241.00011" y2="127.79047" gradientUnits="userSpaceOnUse" id="color-7"><stop offset="0" stop-color="#000000"/><stop offset="1" stop-color="#221f4d"/></linearGradient><linearGradient x1="240.48004" y1="45.1022" x2="240.48004" y2="86.53961" gradientUnits="userSpaceOnUse" id="color-8"><stop offset="0" stop-color="#000000"/><stop offset="1" stop-color="#56539b"/></linearGradient><linearGradient x1="240.07721" y1="48.3383" x2="240.07721" y2="168.93496" gradientUnits="userSpaceOnUse" id="color-9"><stop offset="0" stop-color="#000000"/><stop offset="1" stop-color="#9af1fa"/></linearGradient><linearGradient x1="236.95647" y1="119.16547" x2="236.95647" y2="133.91547" gradientUnits="userSpaceOnUse" id="color-10"><stop offset="0" stop-color="#60959b" stop-opacity="0"/><stop offset="1" stop-color="#60959b"/></linearGradient></defs><g transform="translate(-165.77784,-18.29047)"><g data-paper-data="{&quot;isPaintingLayer&quot;:true}" fill-rule="nonzero" stroke-linejoin="miter" stroke-miterlimit="10" stroke-dasharray="" stroke-dashoffset="0" style="mix-blend-mode: normal"><g stroke-linecap="butt"><g><path d="M175.44734,100.68237l126.45246,-0.40158c0,0 -2.21954,33.35335 -14.28564,66.66334c-10.07581,27.81554 -49.27667,38.76833 -79.62613,58.81133c-9.58173,6.32784 -3.80071,15.28363 -2.69891,26.6307c0.58038,5.97712 -30.86033,24.72121 -30.87618,24.75018c-0.11575,0.21154 10.37581,-21.4976 8.28346,-27.95284c-3.18293,-9.81985 -4.84101,-12.68848 -0.10004,-25.20484c5.66975,-14.96835 19.84727,-25.20923 12.72658,-42.95384c-15.7723,-39.30428 -19.87559,-80.34243 -19.87559,-80.34243z" fill="url(#color-1)" stroke="none" stroke-width="0"/><path d="M189.77784,268.86102c0,6.60628 -5.14873,11.96171 -11.5,11.96171c-6.35127,0 -11.5,-5.35544 -11.5,-11.96171c0,-6.60628 5.14873,-11.96172 11.5,-11.96172c6.35127,0 11.5,5.35545 11.5,11.96172z" fill="#000000" stroke="#000000" stroke-width="2"/><path d="M183.25986,261.97147l-0.03709,-0.05563c-0.57895,-0.87394 -0.91464,-2.16705 -1.04564,-3.6375c-0.06578,0.10925 -0.13168,0.22018 -0.19751,0.33308c0,0 -0.265,0.45419 -0.689,0.17032c-0.424,-0.28387 -0.159,-0.73806 -0.159,-0.73806c0.35978,-0.61635 0.69151,-1.16312 0.98572,-1.68514c0.04642,-2.18952 0.45657,-4.52619 1.12715,-6.36227c-0.31731,-1.22053 -0.74043,-2.62261 -0.07327,-3.43736c0.68798,-0.84017 2.09672,-0.4349 2.88539,-0.07087c0.55604,-0.40372 0.6963,-1.95413 0.91656,-2.6219c0.66759,-2.02394 1.34407,-4.29226 2.7397,-5.91537c2.23461,-2.59885 6.55355,-2.58343 6.56497,1.57129c0,1.8075 0.19485,5.77957 -0.98971,7.17585c-0.21087,0.24855 0.50549,-0.3975 0.76009,-0.59349c0.3444,-0.26511 1.13569,-1.23587 1.72758,-0.87409c0.95538,0.58397 0.18286,1.545 0.59825,2.16766c0.11632,0.17436 1.04211,-3.12096 1.1031,-3.4184c1.13721,-4.15864 3.40669,2.83195 3.46656,4.31973c0.17943,4.45868 -2.13905,7.14703 -4.62275,10.41692c-0.43657,1.20213 -0.02303,1.02419 1.07292,0.53278l0.02617,-0.00145l-0.00179,-0.00675l0.76667,-0.23465c0.04691,-0.01561 0.09677,-0.02401 0.14846,-0.02401c0.27614,0 0.5,0.2398 0.5,0.5356c0,0.08996 -0.02071,0.17474 -0.05729,0.24917l-0.32883,0.7045l-0.16106,-0.08626c-1.57448,3.23676 -6.12952,5.67832 -8.81724,7.33491c-2.02427,1.24767 -3.88455,2.45322 -5.28256,-0.21178c-0.72509,-1.65111 -2.01942,-3.47306 -2.52671,-5.30021c-0.24367,-0.00239 -0.39985,-0.23662 -0.39985,-0.23662zM183.88941,248.54412l-0.06244,-0.02676c0.00421,0.03878 0.00875,0.07805 0.01361,0.11778c0.01619,-0.03063 0.03247,-0.06096 0.04883,-0.09102zM183.28117,258.86535c-0.04337,-0.38439 -0.09783,-0.79568 -0.15542,-1.22548c-0.01634,0.70497 0.03815,1.39571 0.2052,2.05201c-0.01036,-0.24656 -0.01583,-0.49361 -0.01703,-0.74107zM183.86873,247.87527c-0.02874,-0.03078 -0.0528,-0.06156 -0.07276,-0.09214c-0.00937,0.16616 -0.0032,0.35662 0.01446,0.56444l0.14662,-0.39264c-0.0293,-0.02172 -0.05881,-0.04805 -0.08832,-0.07967z" fill="#000000" stroke="none" stroke-width="0.5"/></g><path d="M198.88896,236.78455c0,0.52587 -0.34823,0.95218 -0.77778,0.95218c-0.42955,0 -0.77778,-0.42631 -0.77778,-0.95218c0,-0.52587 0.34823,-0.95218 0.77778,-0.95218c0.42955,0 0.77778,0.42631 0.77778,0.95218z" fill="#000000" stroke="#000000" stroke-width="2"/></g><path d="M200.75025,307.5l17.8754,-181.78229l44.60128,-0.21769l16.02331,182z" fill="url(#color-2)" stroke="none" stroke-width="0" stroke-linecap="butt"/><path d="M198.82243,177.78242c0.9141,-0.9096 6.09704,-9.86534 13.3003,-16.32175c0.53405,-0.47869 6.88663,4.42428 6.68626,4.60471c-7.90941,7.1224 -20.19901,11.92845 -19.98656,11.71704z" data-paper-data="{&quot;index&quot;:null}" fill="url(#color-3)" stroke="none" stroke-width="0" stroke-linecap="butt"/><path d="M207.51978,184.18298c0.42811,-1.21642 1.20529,-11.53456 4.88802,-20.47938c0.27304,-0.66318 8.12491,0.99282 8.02283,1.2424c-4.02939,9.85146 -13.01035,19.5197 -12.91085,19.23698z" data-paper-data="{&quot;index&quot;:null}" fill="url(#color-4)" stroke="none" stroke-width="0" stroke-linecap="butt"/><g stroke="none" stroke-width="0" stroke-linecap="butt"><path d="M263.009,164.96538c-0.20038,-0.18043 6.1522,-5.0834 6.68625,-4.60471c7.20326,6.45641 12.3862,15.41215 13.3003,16.32175c0.21245,0.21141 -12.07715,-4.59464 -19.98656,-11.71704z" data-paper-data="{&quot;index&quot;:null}" fill="url(#color-5)"/><path d="M261.38732,163.846c-0.10208,-0.24957 7.74979,-1.90557 8.02283,-1.24239c3.68273,8.94482 4.4599,19.26296 4.88802,20.47938c0.0995,0.28272 -8.88145,-9.38552 -12.91085,-19.23698z" data-paper-data="{&quot;index&quot;:null}" fill="url(#color-6)"/></g><g stroke="none" stroke-width="0" stroke-linecap="butt"><path d="M304.50005,96.25906c0,30.3959 -51.5949,31.53141 -77,31.53141c-25.4051,0 -50,-2.85541 -50,-33.25131c0,-30.3959 35.0949,-76.24869 60.5,-76.24869c25.4051,0 66.5,47.57269 66.5,77.96859z" fill="url(#color-7)"/><path d="M298.45754,86.46979c-3.02723,1.14141 -13.10356,-11.97386 -26.01513,-20.16208c-4.92575,-3.1238 -15.35745,-6.93149 -25.88719,-7.93295c-12.81652,-1.21894 -25.77826,0.85168 -29.13334,2.39993c-19.65232,9.06884 -34.92184,27.02292 -34.92184,24.9019c0,-1.69311 5.75431,-17.84839 20.19071,-29.06785c9.27267,-7.20639 25.2113,-11.50654 35.30929,-11.50654c6.93821,0 23.90442,1.22861 37.3906,11.19404c13.05021,9.64326 23.24635,30.1059 23.06689,30.17357z" fill="url(#color-8)"/></g><path d="M175.84019,108.63663c0,-33.30185 28.7599,-60.29833 64.23702,-60.29833c35.47712,0 64.23702,26.99649 64.23702,60.29833c0,33.30185 -28.7599,60.29833 -64.23702,60.29833c-35.47712,0 -64.23702,-26.99649 -64.23702,-60.29833z" fill="url(#color-9)" stroke="none" stroke-width="2" stroke-linecap="butt"/><path d="M189.3904,109.0661c0,-12.968 10.51265,-23.48065 23.48065,-23.48065c12.968,0 23.48065,10.51265 23.48065,23.48065c0,12.968 -11.01265,20.48065 -23.98065,20.48065c-12.968,0 -22.98065,-7.51265 -22.98065,-20.48065z" fill="#ff0000" stroke="none" stroke-width="2" stroke-linecap="butt"/><path d="M224.86175,72.14318c0,0 -5.54935,6.39809 -10.29928,8.57868c-4.74994,2.18059 -12.22751,1.76289 -12.22751,1.76289c0,0 7.89013,-1.5365 11.55834,-3.22051c3.83343,-1.75985 10.96845,-7.12107 10.96845,-7.12107z" data-paper-data="{&quot;index&quot;:null}" fill="#000000" stroke="none" stroke-width="0" stroke-linecap="butt"/><path d="M303.42868,107.33135c0,22.91982 -15.45108,51.16667 -35.33333,51.16667c-19.88225,0 -29.66667,-28.91352 -29.66667,-51.83333c0,-22.91982 8.78442,-48.5 28.66667,-48.5c19.88225,0 36.33333,26.24685 36.33333,49.16667z" fill="#000000" stroke="#000000" stroke-width="2" stroke-linecap="butt"/><g fill="none" stroke="#ff0000" stroke-width="5" stroke-linecap="round"><path d="M271.56525,76.58175v65.25"/><path d="M251.1105,107.06471l41.41611,0.29326"/></g><path d="M267.82021,113.31406l-1.42857,-1.85714" fill="none" stroke="#ff0000" stroke-width="0.5" stroke-linecap="round"/><path d="M277.10594,110.88549l-1.57143,3" fill="none" stroke="#ff0000" stroke-width="0.5" stroke-linecap="round"/><path d="M266.39162,102.74263l1.42857,-1.57143" fill="none" stroke="#ff0000" stroke-width="0.5" stroke-linecap="round"/><path d="M274.10595,101.59977l1.85714,1.85714" fill="none" stroke="#ff0000" stroke-width="0.5" stroke-linecap="round"/><path d="M214.41048,129.49751c-8.03007,0 -17.12896,-0.18008 -21.37722,-6.72501c-1.89369,-2.91744 -2.52779,-5.73191 -3.04203,-9.21768c0.25829,-0.02407 44.96055,-0.57569 46.21261,-0.62024c-1.32791,11.68777 -9.91591,16.56293 -21.79336,16.56293z" fill="#ff5d5d" stroke="none" stroke-width="2" stroke-linecap="butt"/><path d="M200.95578,108.79047c0,-9.12808 5.44101,-16.52784 12.15283,-16.52784c6.71183,0 12.15284,7.39977 12.15284,16.52784c0,9.12808 -5.44101,16.52784 -12.15284,16.52784c-6.71183,0 -12.15283,-7.39977 -12.15283,-16.52784z" fill="#000000" stroke="none" stroke-width="0" stroke-linecap="butt"/><path d="M214.65752,107.97797c0,1.48426 -0.67157,2.6875 -1.5,2.6875c-0.82843,0 -1.5,-1.20324 -1.5,-2.6875c0,-1.48426 0.67157,-2.6875 1.5,-2.6875c0.82843,0 1.5,1.20324 1.5,2.6875z" fill="#ff0000" stroke="none" stroke-width="0" stroke-linecap="butt"/><path d="M211.30574,155.93714c0,0.43394 -0.41574,0.78572 -0.92857,0.78572c-0.51283,0 -0.92857,-0.35178 -0.92857,-0.78572c0,-0.43394 0.41573,-0.78571 0.92857,-0.78571c0.51283,0 0.92857,0.35177 0.92857,0.78571z" fill="#000000" stroke="none" stroke-width="0" stroke-linecap="butt"/><path d="M218.83147,129.41547c0,-2.83043 4.60445,-2.28844 10.07703,-3.52483c1.11565,-0.25205 2.96453,-2.91428 4.82416,-5.12c2.30154,-2.72987 1.16685,-6.60518 2.72382,-6.60518c0.13913,0 1.01477,0.58986 1.81712,2.99832c0.65908,1.97841 1.11674,9.01557 1.85571,11.8088c0.5182,1.95876 1.4924,3.63363 1.408,4.3455c-0.01005,0.0848 -4.21758,0.09657 -6.28536,0.06863c-6.35315,-0.08587 -16.42047,-0.89831 -16.42047,-3.97125z" fill="url(#color-10)" stroke="none" stroke-width="0" stroke-linecap="butt"/><path d="M228.17569,129.31933c-1.19956,2.32026 -0.80103,4.9226 -0.79695,7.53035c0.95852,6.65012 1.03534,13.13198 0.27251,19.83759c-0.47992,1.36597 -2.54936,3.16202 -3.12264,0.69255c-0.32876,-1.41618 0.14818,-3.26111 0.27919,-4.70223c0.3065,-3.37149 0.71095,-6.53012 0.71274,-9.93207c-0.12592,-1.37113 -0.17068,-2.74999 -0.28382,-4.11644c-0.04317,-0.52146 0.24698,-1.72036 -0.24776,-1.55004c-1.42298,0.48987 -0.41798,4.91526 -1.46421,5.84601c-1.20595,1.07283 -1.70646,-0.35836 -1.71901,-1.20219c-0.00873,-0.58665 0.00119,-1.17342 0.00272,-1.76013c0.29218,-2.06227 0.88801,-5.33282 0.04002,-7.32331c-1.18934,-2.79174 -3.04629,-0.91357 -3.50351,1.23128c-1.38816,6.41193 -0.59633,13.24964 -1.32143,19.77675c-0.29774,2.67964 -0.40403,6.12186 -1.56576,8.59466c-0.31747,0.67575 -1.62186,2.40171 -2.64845,1.40573c-0.16932,-0.16427 -0.14644,-1.38312 -0.14644,-1.78213c0,-2.16512 0.36371,-14.63402 0.0068,-16.77494c-0.41738,-2.61703 -2.80511,10.27176 -4.18254,8.65923c-0.64153,-0.75102 -0.16123,-2.51174 -0.10901,-3.34394c0.16071,-2.56153 0.28261,-5.60173 -0.24524,-8.11659c-0.36033,-1.72625 -0.51598,-3.78248 -1.53029,-5.29138c-2.00505,-2.98273 -5.51925,-3.0878 -8.26027,-4.95166c-1.32183,-1.10756 -5.13314,-4.87939 -3.35978,-6.84796c0.47594,-0.52833 2.42699,0.0337 2.91349,0.19411c2.16096,0.71254 4.37626,1.27201 6.53414,1.98781c5.72762,0.81367 12.98673,0.25373 18.57886,-1.1333c1.95037,-0.77514 4.33075,-1.77264 6.43955,-1.73854c0.68109,0.01102 1.60249,-0.16629 1.91,0.79357c0.39058,1.21916 -3.12129,3.96825 -3.18291,4.01718z" fill="#000000" stroke="none" stroke-width="0.5" stroke-linecap="butt"/><path d="M246.67327,158.42046c0,5.40449 -2.97411,9.78572 -6.64286,9.78572c-3.66875,0 -6.64285,-4.3812 -6.64285,-9.78572c0,-5.40449 2.97411,-9.78571 6.64285,-9.78571c3.66875,0 6.64286,4.3812 6.64286,9.78571z" fill="#000000" stroke="none" stroke-width="0" stroke-linecap="butt"/></g></g></svg>