<svg version="1.1" xmlns="http://www.w3.org/2000/svg" xmlns:xlink="http://www.w3.org/1999/xlink" width="34.17311" height="34.17311" viewBox="0,0,34.17311,34.17311"><g transform="translate(-222.9135,-162.9135)"><g data-paper-data="{&quot;isPaintingLayer&quot;:true}" stroke-miterlimit="10" stroke-dasharray="" stroke-dashoffset="0" style="mix-blend-mode: normal"><path d="M229.98316,162.9135h20.03379c3.9166,0 7.06966,3.15307 7.06966,7.06966v20.03379c0,3.91659 -3.15306,7.06966 -7.06966,7.06966h-20.03379c-3.91659,0 -7.06966,-3.15307 -7.06966,-7.06966v-20.03379c0,-3.91659 3.15307,-7.06966 7.06966,-7.06966z" fill="#434343" fill-rule="evenodd" stroke="none" stroke-width="4.43922" stroke-linecap="round" stroke-linejoin="round"/><g fill-rule="nonzero" stroke-linecap="butt" stroke-linejoin="miter"><path d="M224.85584,179.20838c-1.58231,-5.85112 2.18808,-11.9609 8.4214,-13.64657c6.23332,-1.68567 12.56914,1.6911 14.15144,7.54223c1.58231,5.85112 -2.18808,11.96089 -8.4214,13.64656c-6.23332,1.68567 -12.56914,-1.6911 -14.15144,-7.54222z" fill="#282828" stroke="#000000" stroke-width="0.5"/><path d="M238.38038,166.45422c0.32671,1.2081 -1.4791,2.74742 -4.03337,3.43818c-2.55427,0.69075 -4.88977,0.27134 -5.21648,-0.93676c-0.32671,-1.2081 1.4791,-2.74742 4.03337,-3.43818c2.55427,-0.69075 4.88976,-0.27135 5.21647,0.93676z" fill="#b8b8b8" stroke="#000000" stroke-width="0.5"/><text transform="translate(232.96847,169.52985) rotate(-15.13033) scale(0.09101,0.11565) skewX(0.00231)" font-size="40" xml:space="preserve" fill="#8c8c8c" fill-rule="nonzero" stroke="none" stroke-width="1" stroke-linecap="butt" stroke-linejoin="miter" stroke-miterlimit="10" stroke-dasharray="" stroke-dashoffset="0" font-family="Handwriting" font-weight="normal" text-anchor="start" style="mix-blend-mode: normal"><tspan x="0" dy="0">8</tspan></text></g><g fill="#ffffff" fill-rule="nonzero" stroke-width="0.5" stroke-linecap="butt" stroke-linejoin="miter"><path d="M238.02691,189.49275l1.17424,-6.90081l11.875,2.02066l-1.17425,6.90081z" stroke="#000000"/><path d="M241.51983,184.378c-0.37984,2.23228 -2.0292,3.81365 -3.68393,3.53208c-1.65473,-0.28157 -2.68822,-2.31945 -2.30838,-4.55173c0.37984,-2.23228 2.0292,-3.81365 3.68393,-3.53208c1.65473,0.28157 2.68822,2.31945 2.30838,4.55173z" stroke="#000000"/><path d="M241.11788,189.45951c-0.37984,2.23228 -2.0292,3.81364 -3.68393,3.53207c-1.65473,-0.28157 -2.68822,-2.31945 -2.30838,-4.55173c0.37984,-2.23228 2.0292,-3.81365 3.68393,-3.53208c1.65473,0.28157 2.68822,2.31945 2.30838,4.55173z" stroke="#000000"/><path d="M235.77935,188.60613c0,0 1.95815,-2.64313 1.98358,-3.53215c0.01929,-0.67454 -1.90728,0.43241 -1.83634,0.01551c0.17209,-1.01133 0.86338,-2.42255 0.86338,-2.42255l6.33333,1.07769l-1.01062,5.93918z" stroke="none"/><g><path d="M254.04083,182.40304c1.65473,0.28157 2.68822,2.31945 2.30837,4.55173c-0.37984,2.23228 -2.0292,3.81364 -3.68392,3.53207c-1.65473,-0.28157 -2.68822,-2.31945 -2.30837,-4.55173c0.37984,-2.23228 2.0292,-3.81364 3.68392,-3.53207z" data-paper-data="{&quot;index&quot;:null}" stroke="#000000"/><path d="M252.73947,187.3315c1.65473,0.28157 2.68822,2.31945 2.30838,4.55173c-0.37984,2.23228 -2.0292,3.81364 -3.68393,3.53207c-1.65473,-0.28157 -2.68822,-2.31945 -2.30838,-4.55173c0.37984,-2.23228 2.0292,-3.81364 3.68393,-3.53207z" data-paper-data="{&quot;index&quot;:null}" stroke="#000000"/><path d="M248.04255,190.74623l1.01062,-5.93919l6.33333,1.07769c0,0 0.18563,1.56044 0.01354,2.57177c-0.07094,0.4169 -1.52296,-1.26496 -1.72786,-0.62199c-0.27004,0.8474 0.7037,3.98942 0.7037,3.98942z" data-paper-data="{&quot;index&quot;:null}" stroke="none"/></g></g></g></g></svg>