<svg version="1.1" xmlns="http://www.w3.org/2000/svg" xmlns:xlink="http://www.w3.org/1999/xlink" width="154.24123" height="291.72309" viewBox="0,0,154.24123,291.72309"><defs><linearGradient x1="239.12765" y1="76.44562" x2="239.12765" y2="286.00011" gradientUnits="userSpaceOnUse" id="color-1"><stop offset="0" stop-color="#2a241d"/><stop offset="1" stop-color="#efdbc0"/></linearGradient><linearGradient x1="239.12765" y1="76.29936" x2="239.12765" y2="285.60321" gradientUnits="userSpaceOnUse" id="color-2"><stop offset="0" stop-color="#000000"/><stop offset="1" stop-color="#846f51"/></linearGradient><linearGradient x1="307.30837" y1="36.23223" x2="302.84838" y2="114.01592" gradientUnits="userSpaceOnUse" id="color-3"><stop offset="0" stop-color="#000000"/><stop offset="1" stop-color="#ffd498"/></linearGradient><linearGradient x1="249.12047" y1="15.16984" x2="243.19014" y2="118.59664" gradientUnits="userSpaceOnUse" id="color-4"><stop offset="0" stop-color="#000000"/><stop offset="1" stop-color="#efd0a4"/></linearGradient><linearGradient x1="245.6325" y1="74.63337" x2="244.92001" y2="87.05939" gradientUnits="userSpaceOnUse" id="color-5"><stop offset="0" stop-color="#6a5d49" stop-opacity="0"/><stop offset="1" stop-color="#6a5d49"/></linearGradient><linearGradient x1="243.95909" y1="97.33873" x2="243.42425" y2="106.6665" gradientUnits="userSpaceOnUse" id="color-6"><stop offset="0" stop-color="#000000"/><stop offset="1" stop-color="#ffffff"/></linearGradient><linearGradient x1="244.54033" y1="92.96018" x2="243.70048" y2="104.68914" gradientUnits="userSpaceOnUse" id="color-7"><stop offset="0" stop-color="#000000"/><stop offset="1" stop-color="#ffffff"/></linearGradient></defs><g transform="translate(-175.75369,-14.88015)"><g data-paper-data="{&quot;isPaintingLayer&quot;:true}" fill-rule="nonzero" stroke-linejoin="miter" stroke-miterlimit="10" stroke-dasharray="" stroke-dashoffset="0" style="mix-blend-mode: normal"><g data-paper-data="{&quot;index&quot;:null}" fill="#000000" stroke-linecap="butt"><path d="M236.18297,259.1667v-92.62046h6.67534v92.62046z" stroke="none" stroke-width="0"/><g data-paper-data="{&quot;index&quot;:null}" stroke="#000000" stroke-width="0.5"><path d="M237.94994,187.58738l17.76273,-14.86198l3.50394,3.81471z"/><path d="M254.79946,177.8876l0.85499,-5.10868l22.99477,2.76293z" data-paper-data="{&quot;index&quot;:null}"/></g><g data-paper-data="{&quot;index&quot;:null}" stroke="#000000" stroke-width="0.5"><path d="M239.34064,203.7195l17.76273,-14.86199l3.50394,3.81471z"/><path d="M256.19015,194.01968l0.85499,-5.10868l22.99477,2.76293z" data-paper-data="{&quot;index&quot;:null}"/></g><g stroke="#000000" stroke-width="0.5"><g data-paper-data="{&quot;index&quot;:null}"><path d="M217.78939,176.03947l3.50394,-3.81472l17.76273,14.86199z"/><path d="M198.35678,175.04117l22.99477,-2.76293l0.85499,5.10868z" data-paper-data="{&quot;index&quot;:null}"/></g><g data-paper-data="{&quot;index&quot;:null}"><path d="M219.18008,192.17155l3.50394,-3.81471l17.76273,14.86199z"/><path d="M199.74748,191.1733l22.99477,-2.76293l0.85499,5.10868z" data-paper-data="{&quot;index&quot;:null}"/></g></g><g data-paper-data="{&quot;index&quot;:null}" stroke="#000000" stroke-width="0.5"><path d="M238.57576,219.08671l17.76273,-14.86198l3.50394,3.81471z"/><path d="M255.42527,209.38689l0.85499,-5.10868l22.99477,2.76293z" data-paper-data="{&quot;index&quot;:null}"/></g><g data-paper-data="{&quot;index&quot;:null}" stroke="#000000" stroke-width="0.5"><path d="M239.96645,235.2188l17.76273,-14.86199l3.50394,3.81471z"/><path d="M256.81597,225.51897l0.85499,-5.10868l22.99477,2.76293z" data-paper-data="{&quot;index&quot;:null}"/></g><g stroke="#000000" stroke-width="0.5"><g data-paper-data="{&quot;index&quot;:null}"><path d="M218.4152,208.09506l3.50394,-3.81471l17.76273,14.86198z"/><path d="M198.9826,207.09677l22.99477,-2.76293l0.85499,5.10868z" data-paper-data="{&quot;index&quot;:null}"/></g><g data-paper-data="{&quot;index&quot;:null}"><path d="M219.8059,224.22715l3.50394,-3.81471l17.76273,14.86198z"/><path d="M200.37329,223.22885l22.99477,-2.76293l0.85499,5.10868z" data-paper-data="{&quot;index&quot;:null}"/></g></g><g stroke="#000000" stroke-width="0.5"><path d="M219.52776,241.41617l3.50394,-3.81471l17.76273,14.86199z" data-paper-data="{&quot;index&quot;:null}"/><path d="M200.09515,240.41787l22.99477,-2.76293l0.85499,5.10868z" data-paper-data="{&quot;index&quot;:null}"/><g data-paper-data="{&quot;index&quot;:null}"><path d="M239.68831,252.51905l17.76273,-14.86199l3.50394,3.81471z"/><path d="M256.53783,242.81926l0.85499,-5.10868l22.99477,2.76293z" data-paper-data="{&quot;index&quot;:null}"/></g></g></g><g stroke="none" stroke-linecap="butt"><path d="M217.26495,76.69625l45.61978,-0.25065l7.16304,91.58746c-1.88894,-0.84003 -5.29413,2.3217 -7.06429,2.26905c-0.72163,-0.02146 -1.1511,-0.88931 -1.80211,-1.2014c-0.17131,-0.08212 -0.56286,0.12268 -0.73633,0.16363c-4.06877,0.96051 -4.42571,0.87938 -7.82269,0.87938c-1.18417,0 -3.03621,-1.09807 -3.94099,-1.04301c-1.89487,0.11532 -3.80325,2.15845 -5.52868,1.3668c-1.16858,-0.53616 -3.93407,-2.48773 -5.47132,-2.3668c-1.71267,0.13473 -3.37821,0.64985 -5.03115,1.11803c-0.54487,0.15434 -1.14158,1.10574 -1.54448,0.70777c-4.10153,-4.05132 -7.51194,-4.34409 -13.48338,-2.5135c-1.10621,0.33911 -1.44858,1.8569 -2.41477,2.49344c-1.68666,1.1112 -3.85652,1.11572 -6.16475,0.91356z" fill="url(#color-1)" stroke-width="0"/><path d="M216.93618,76.29936c0,0 7.9212,0.31065 8.04648,0.67867c0.41816,1.2284 -4.5507,46.42081 -2.80232,57.66298c0.66646,4.2854 31.92999,5.41824 32.94162,-0.04545c1.69148,-9.13544 -0.42984,-53.10035 0.66743,-56.42444c0.94563,-2.86473 7.22702,-1.51931 7.22702,-1.51931c0,0 4.88277,58.59783 9.0272,76.98666c2.18147,9.67921 13.99459,25.16099 13.99459,25.16099c-2.69441,1.28011 -20.23812,-6.07022 -22.2088,-4.96562c-2.38252,1.33544 -6.08759,-1.66731 -8.63821,-1.06069c-0.39361,0.09361 0.2006,3.47156 -0.22055,3.45475c-2.43318,-0.09715 -3.09764,17.63219 -5.49816,18.23232c-1.50835,0.37709 -1.53578,-8.24603 -2.89389,-7.99699c-0.55815,0.10235 -5.62516,-11.68119 -5.75206,-11.70589c-1.91216,-0.37221 -5.42352,0.27635 -7.71741,-0.29712c-0.7253,-0.18132 -2.94815,-0.70536 -4.69525,0.25996c-0.24899,0.13757 -0.84196,3.21739 -1.11233,3.21965c-2.0053,0.01678 -3.36332,-3.66728 -4.38298,-2.67703c-2.20963,2.14589 -0.06605,7.23288 -1.59994,7.72143c-0.09377,0.02987 -5.84866,-6.17765 -5.87617,-6.19067c-2.10082,-0.99513 -23.16539,5.06757 -24.76362,5.05605c-0.04656,-0.00034 13.27551,-8.21025 13.14582,-8.30852c0,0 5.58307,-15.52733 6.31975,-21.96266c1.75167,-15.30178 6.79179,-75.27906 6.79179,-75.27906z" fill="url(#color-2)" stroke-width="0"/><path d="M206.625,172.75006c0,0.29424 -0.17315,0.41533 -0.31566,0.46516c2.0659,0.81874 4.91119,2.21513 6.58661,1.56483c2.21013,-0.85783 3.08491,-5.62038 3.71965,-7.56041c0.23892,-0.34448 0.36145,-0.77467 0.65584,-1.07314c2.50144,-2.53606 3.35978,0.70512 3.84018,2.73868c0.09118,0.38599 -0.3373,1.03099 0.02624,1.18955c1.51323,0.66002 2.43784,-1.53899 2.71235,-2.55047c1.21982,-5.88619 -0.74535,-11.61807 -1.4723,-17.47737c-0.00387,-1.76546 -0.60676,-5.02172 0.32176,-6.5597c0.91821,-1.5209 3.22526,-1.72002 3.90387,0.11798c0.6917,1.87344 0.52146,4.149 0.52146,6.14489c0,3.9052 -0.56234,8.3051 -0.00645,12.16991c0.22927,1.59399 1.06089,3.30163 0.96839,4.88875c2.29058,1.98074 3.21221,-1.32043 4.11274,-2.82153c1.4524,-2.42103 3.80751,-2.43148 5.56199,-0.80413c1.34398,2.00945 -0.03291,3.92054 0.78865,5.80413c0.20986,0.48113 1.04977,0.01287 1.57468,0.01287c1.87835,0 3.65012,-0.25 5.5,-0.25c3.08844,0.10727 -0.05043,-6.40668 1.64645,-8.10355c0.83737,-0.83737 3.01222,-0.58803 3.56549,0.41222c0.34074,0.61601 0.03806,2.23955 0.03806,2.94134c-0.28463,0.28463 0.64475,0.13605 0.73713,0.07468c0.7038,-0.46749 0.51156,-2.86202 0.51287,-3.57573c0.00646,-3.51778 -0.01595,-7.03578 0.00298,-10.55351c0.58264,-2.65735 0.91648,-6.16909 2.71329,-8.31599c0.57069,-0.68187 2.25266,-2.05196 3.29659,-1.30477c0.94088,0.67344 1.31232,4.41532 1.72212,5.55369c0.85633,5.88663 -0.07814,12.85626 2.3306,18.34695c0.28627,0.96482 0.72498,1.81431 1.11115,2.74319c0.03449,0.08297 0.31841,0.51166 0.5314,0.87842c0.08434,-0.28579 0.274,-0.59495 0.30524,-0.7118c0.26944,-1.00787 1.00811,-6.07299 2.94857,-2.82646c0.24654,0.41248 0.47451,1.19832 0.73528,1.71774c0.69259,1.38519 1.22548,2.67871 2.18945,3.90661c0.09663,0.12309 1.1215,0.95669 1.32098,0.66137c1.35048,-1.99939 0.64601,-4.34438 4.04235,-4.34438c3.36953,0.05211 5.88457,3.87844 7.19916,6.53033c0.81261,1.63924 1.18445,4.21013 -0.86907,4.96322c-4.4117,0 -8.91326,0.9616 -13.18474,-0.647c-0.99644,-0.37525 -3.00237,-0.58033 -3.40821,-1.67122c-0.73623,0.06292 -0.82891,-0.57714 -1.56723,-0.68178c-2.03348,-0.28818 -4.36672,0.67135 -6.28478,0.24308c-0.20369,-0.04548 -1.91484,-1.30649 -2.12226,-1.0613c-0.29176,0.34489 -0.26687,1.15928 -0.26286,1.57468c0,5.89791 -2.75,11.6756 -2.75,17.75c0,1.34804 -0.03675,5.2851 -2.54235,3.40562c-0.60671,-0.45509 -0.72865,-2.275 -0.92316,-2.95744c-0.70044,-2.4575 -1.63307,-3.83171 -2.7317,-5.97458c-0.56067,-1.3271 -1.72033,-0.70091 -2.53871,-1.28277c-0.86479,-0.61485 -1.25591,-2.3416 -1.49732,-3.3125c-0.34276,-1.37849 -0.06993,-6.55479 -1.38163,-7.14171c-3.91613,0.05918 -7.84347,0.06287 -11.76046,0.00726c0.32015,0.70624 0.32379,2.13737 0.05066,2.51898c-0.74084,1.03504 -2.61557,0.47958 -3.27888,-0.15931c-0.15691,-0.15114 -0.40588,-0.43449 -0.60707,-0.70505c0.05822,0.8838 -0.03938,2.36378 -0.03938,2.6015c-0.01361,1.74928 -1.94344,7.95939 -4.64736,4.80349c-2.13145,-2.48775 -1.47164,-5.31987 -4.71752,-7.06687c-0.1813,0.00629 -1.03157,-0.13307 -1.03157,-0.13307c0,0 0.14644,1.65773 0.14644,1.89645v0.75c0,0.27614 -0.22386,0.5 -0.5,0.5c-0.1996,0 -0.37189,-0.11695 -0.45206,-0.28608l-0.24516,-0.49032l0.18946,-0.09472c-0.0841,-0.15703 -0.15788,-0.31922 -0.22079,-0.48399c-0.14635,-0.38336 -0.58373,-1.3408 -0.75859,-0.96957c-0.8392,1.78174 0.27536,5.21752 -0.01661,7.13577c-0.40027,2.6298 -2.13265,1.69262 -2.82575,-0.03923c-0.79658,-1.68222 -1.43331,-3.6874 -1.84714,-5.47924c-0.10607,-0.45927 -0.10702,-1.3612 -0.57336,-1.29262c-0.71419,0.10502 -1.97467,1.1279 -2.80866,1.46194c-1.97494,0.79101 -4.06016,1.23092 -6.04919,2.01743c-1.97556,0.39346 -4.94841,1.7108 -7.00702,1.00726c-0.71406,-0.24403 -1.432,-1.34135 -0.73868,-2.09018c0.38503,-0.41584 2.61847,-0.86522 3.21551,-1.15264c1.781,-0.85738 3.21434,-2.20163 4.72066,-3.46072c2.65054,-2.19547 3.47074,-4.53308 7.16739,-4.53308h0.25c0,0 0.5,0 0.5,0.5z" fill="#000000" stroke-width="0.5"/><path d="M225.875,138.625c0,1.03554 -1.11929,1.875 -2.5,1.875c-1.38071,0 -2.5,-0.83946 -2.5,-1.875c0,-1.03554 1.11929,-1.875 2.5,-1.875c1.38071,0 2.5,0.83946 2.5,1.875z" fill="#000000" stroke-width="0"/></g><path d="M199.37765,306.60321l7.09432,-61.01433c0.91843,0.08647 4.62757,6.50971 4.95788,6.81313c1.11192,1.0214 4.78332,0.96323 6.96785,1.19027c5.68485,0.59081 8.27417,3.29001 11.87187,3.56484c3.15789,0.24124 4.59942,-4.56263 7.71146,-4.01492c1.52246,0.26794 4.42635,0.84755 5.7643,1.19662c2.26136,0.58997 3.56502,3.4071 6.08793,2.45984c0.72949,-0.2739 2.41367,0.14258 3.07883,-0.34136c1.01919,-0.74151 3.99375,-3.87533 5.01828,-4.19001c1.72242,-0.52905 4.70025,-0.45416 6.61042,-0.87999c2.68579,-0.59875 4.11453,3.49315 5.92962,-0.0564c0.77024,-1.50626 1.86004,-5.91229 2.89499,-6.33734l7.51225,61.60968z" fill="#000000" stroke="none" stroke-width="0" stroke-linecap="butt"/><g stroke="none" stroke-width="0" stroke-linecap="butt"><g fill="url(#color-3)"><path d="M329.97673,53.74868c-0.89517,15.61197 -32.16453,59.97846 -41.52211,59.44191c-9.35758,-0.53655 -8.69971,-78.53821 0.65788,-78.00166c9.35758,0.53655 41.7594,2.94777 40.86424,18.55975z"/></g><path d="M311.62218,84.41371c-9.08432,13.72872 -19.09247,20.62779 -22.35383,15.40954c-3.26136,-5.21826 1.45909,-20.5778 10.54341,-34.30651c1.79279,-2.70937 3.62156,-5.15273 5.42736,-7.28946c7.34442,-8.69039 14.30875,-12.30852 16.92648,-8.12008c3.26136,5.21825 -1.45909,20.57781 -10.54341,34.30652z" fill="#000000"/></g><path d="M175.87804,64.41458c2.37664,-41.44936 34.47863,-51.4674 73.24242,-49.24475c38.76379,2.22265 69.51032,15.84433 67.13369,57.29368c-2.37664,41.44936 -33.20758,48.41841 -71.97137,46.19575c-38.76379,-2.22265 -70.78138,-12.79535 -68.40475,-54.24469z" fill="url(#color-4)" stroke="none" stroke-width="0" stroke-linecap="butt"/><path d="M221.84185,85.73612l0.71249,-12.42602l46.15633,2.64653l-0.71249,12.42602c0,0 -16.01343,-4.14116 -23.64274,-4.57861c-7.7541,-0.44461 -22.51359,1.93208 -22.51359,1.93208z" fill="url(#color-5)" stroke="none" stroke-width="0" stroke-linecap="butt"/><path d="M202.95042,33.72662c0,0 6.99386,-4.7767 12.14214,-5.67779c5.14829,-0.9011 12.27387,1.40428 12.27387,1.40428c0,0 -8.02148,-0.52032 -11.99734,0.17557c-4.15492,0.72723 -12.41867,4.09793 -12.41867,4.09793z" fill="#000000" stroke="none" stroke-width="0" stroke-linecap="butt"/><path d="M278.61031,30.50034c-3.87025,-1.14578 -11.89865,-1.54574 -11.89865,-1.54574c0,0 7.34238,-1.47581 12.35394,0.00783c5.01155,1.48365 11.41359,7.02844 11.41359,7.02844c0,0 -7.82431,-4.29315 -11.86888,-5.49054z" data-paper-data="{&quot;index&quot;:null}" fill="#000000" stroke="none" stroke-width="0" stroke-linecap="butt"/><path d="M207.94605,85.06595l-2.07838,4.22128" fill="none" stroke="#000000" stroke-width="2" stroke-linecap="round"/><path d="M221.58076,86.01468l-0.11984,5.00134" fill="none" stroke="#000000" stroke-width="2" stroke-linecap="round"/><g fill="none" stroke="#000000" stroke-width="2" stroke-linecap="round"><path d="M283.64967,92.41162l-1.58226,-4.43117" data-paper-data="{&quot;index&quot;:null}"/><path d="M268.50369,88.70515l-0.45262,4.98226" data-paper-data="{&quot;index&quot;:null}"/></g><path d="M253.93188,26.10052c0,0 -25.71689,-2.658 -27.16022,-4.58645c-0.85121,-1.13732 13.39407,-2.70066 26.56738,-1.74658c2.03344,0.14727 8.67733,0.9449 14.34654,2.34803c1.57245,0.38918 5.65093,3.41299 3.44291,5.26487c-1.45802,1.22285 -8.93081,1.5587 -9.99797,1.6289c-17.08052,1.12363 -47.25402,-2.90827 -47.25402,-2.90827" fill="none" stroke="#000000" stroke-width="1" stroke-linecap="round"/><path d="M193.30309,61.27799c0.74234,-12.94674 11.83954,-22.84036 24.78628,-22.09801c12.94674,0.74234 22.84036,11.83954 22.09801,24.78628c-0.74234,12.94674 -11.83954,22.84036 -24.78628,22.09801c-12.94674,-0.74234 -22.84036,-11.83954 -22.09801,-24.78628z" fill="#ff5b5b" stroke="none" stroke-width="0" stroke-linecap="butt"/><path d="M272.89842,89.36109c-12.94674,-0.74234 -22.84035,-11.83954 -22.09801,-24.78628c0.74234,-12.94674 11.83954,-22.84036 24.78628,-22.09801c12.94674,0.74234 22.84035,11.83954 22.09801,24.78628c-0.74234,12.94674 -11.83954,22.84036 -24.78628,22.09801z" data-paper-data="{&quot;index&quot;:null}" fill="#ff5b5b" stroke="none" stroke-width="0" stroke-linecap="butt"/><path d="M193.16532,60.76928c0.74234,-12.94674 11.83954,-22.84036 24.78628,-22.09801c12.94674,0.74234 22.84036,11.83954 22.09801,24.78628c-0.02052,0.35779 -46.91167,-2.21075 -46.88429,-2.68827z" fill="#ff0000" stroke="none" stroke-width="0" stroke-linecap="butt"/><path d="M250.78056,64.774c0.74234,-12.94674 11.83954,-22.84036 24.78628,-22.09801c12.94674,0.74234 22.84036,11.83954 22.09801,24.78628c-0.02738,0.47752 -46.90481,-2.33048 -46.88429,-2.68827z" data-paper-data="{&quot;index&quot;:null}" fill="#ff0000" stroke="none" stroke-width="0" stroke-linecap="butt"/><g stroke="none" stroke-width="0" stroke-linecap="butt"><path d="M212.05803,62.87123c0.27465,-4.78996 4.08558,-8.46724 8.51196,-8.21344c4.42638,0.2538 7.79203,4.34258 7.51738,9.13253c-0.27465,4.78996 -4.08559,8.46723 -8.51197,8.21343c-4.42638,-0.2538 -7.79202,-4.34257 -7.51737,-9.13252z" fill="#000000"/><path d="M221.76404,63.43094c-0.0494,0.86153 -0.84373,1.51669 -1.77418,1.46334c-0.93045,-0.05335 -1.64468,-0.79501 -1.59529,-1.65653c0.0494,-0.86153 0.84372,-1.51669 1.77418,-1.46334c0.93045,0.05335 1.64469,0.79501 1.59529,1.65654z" fill="#ff5b5b"/></g><g stroke="none" stroke-width="0" stroke-linecap="butt"><path d="M262.33171,65.3532c0.27465,-4.78996 4.08559,-8.46723 8.51197,-8.21343c4.42638,0.2538 7.79202,4.34257 7.51737,9.13252c-0.27465,4.78996 -4.08558,8.46723 -8.51196,8.21343c-4.42638,-0.2538 -7.79203,-4.34257 -7.51738,-9.13253z" fill="#000000"/><path d="M272.03772,65.9129c-0.0494,0.86153 -0.84372,1.51669 -1.77418,1.46334c-0.93045,-0.05335 -1.64469,-0.79501 -1.59529,-1.65654c0.0494,-0.86153 0.84373,-1.51669 1.77418,-1.46334c0.93045,0.05335 1.64468,0.79501 1.59529,1.65653z" fill="#ff5b5b"/></g><path d="M213.75312,97.51602c-0.05744,1.0893 0.11196,3.38181 -1.39399,3.67374c-1.70198,0.32993 -0.97639,-4.71654 -2.83563,-3.06063c-2.41475,2.15065 -1.31804,6.46448 -2.4109,9.14652c-3.6818,3.14386 -1.75187,-3.30754 -3.2399,-4.43027c-2.19694,-1.65761 -5.04294,-0.76703 -7.12578,-3.08474c-1.05466,-1.19964 -3.01061,-4.95134 -0.97953,-6.22855c0.87209,-0.54839 2.13026,-0.05328 3.06835,-0.11713c1.85509,-0.12626 4.58115,-0.73767 4.85776,-0.32115c0.1047,0.15765 9.35519,0.78631 10.05963,4.42222z" fill="#000000" stroke="none" stroke-width="0.5" stroke-linecap="butt"/><path d="M212.71103,103.52712c-0.01265,0.22056 -0.46987,0.37372 -1.02125,0.3421c-0.55139,-0.03162 -0.98811,-0.23604 -0.97546,-0.45659c0.01265,-0.22056 0.46987,-0.37372 1.02125,-0.3421c0.55139,0.03162 0.98811,0.23603 0.97546,0.45659z" fill="#000000" stroke="none" stroke-width="0" stroke-linecap="butt"/><path d="M284.50973,98.9018c0.02561,-0.2334 0.05692,-0.46171 0.09685,-0.69177l-0.08008,-0.00459l0.04579,-0.79869c0.01581,-0.27569 0.25212,-0.48637 0.52781,-0.47056c0.13784,0.0079 0.25944,0.07094 0.3446,0.16644l0.37645,0.42224c1.87544,2.21418 5.60427,0.15492 7.6743,-0.26586c2.9125,-1.65879 5.97659,0.82509 4.23127,3.92662c-0.86291,1.53343 -2.87987,1.34524 -4.38599,1.80114c-1.28771,0.3898 -2.22904,1.52992 -2.97217,2.58216c-0.99108,1.39665 -2.32001,6.02924 -4.31487,5.84521c-2.51911,-0.2324 0.25954,-3.50802 -0.99695,-4.33849c-1.03736,-0.68565 -3.79044,0.05855 -5.11071,-0.4567c-1.50772,-0.86451 -4.17218,-3.28594 -1.36743,-4.59692c1.30621,-0.61054 3.05196,0.29117 4.18298,-0.33727c0.98901,-0.54954 0.97579,-1.54323 1.33157,-2.4606c0,0 0.12199,-0.30632 0.4166,-0.32239z" fill="#000000" stroke="none" stroke-width="0.5" stroke-linecap="butt"/><path d="M286.97156,95.74138c-0.02529,0.4411 -0.44807,0.77562 -0.94432,0.74717c-0.49624,-0.02845 -0.87802,-0.4091 -0.85273,-0.8502c0.02529,-0.4411 0.44809,-0.77562 0.94432,-0.74717c0.49624,0.02845 0.87802,0.4091 0.85272,0.85021z" fill="#000000" stroke="none" stroke-width="0" stroke-linecap="butt"/><g><path d="M265.48901,98.57375c-0.12876,2.24556 -11.5875,8.56495 -21.60219,8.11709c-11.43619,-0.51143 -21.59939,-8.11506 -21.45771,-10.58608c0.00203,-0.03535 10.47801,2.96684 21.2809,3.58484c10.72695,0.61366 21.78135,-1.15714 21.77899,-1.11586z" fill="url(#color-6)" stroke="none" stroke-width="0" stroke-linecap="butt"/><path d="M260.06439,102.48824l-3.64053,-2.28502l-4.982,5.16456l-7.23658,-5.34609l-6.57682,5.07312l-5.01285,-6.25673l-4.7247,2.67049" fill="none" stroke="#000000" stroke-width="0.5" stroke-linecap="round"/></g><g><path d="M242.97112,124.22996c-9.42068,-0.51765 -17.47859,-13.98501 -21.65177,-23.63754c0.37228,-0.23851 0.94431,-0.48052 1.17846,-0.62766c0.17015,-0.10692 -0.28333,-1.44833 -0.11348,-1.55514c1.7336,-1.09016 4.07734,-0.93763 5.82785,-1.95951c0.15203,-0.09555 2.16428,-1.61511 2.23492,-1.56263c1.92019,1.42642 4.13676,4.11971 5.18153,6.30931c0.19629,0.26289 -0.27465,1.48698 1.59932,0.76104c1.63909,-0.63495 5.11936,-3.58977 5.60602,-4.07359c0.7002,-0.90835 1.27403,-1.66247 2.56715,-1.03027c2.07774,1.0158 5.06595,4.14983 6.3109,5.00336c0.53719,0.30653 1.25488,0.94817 1.88509,0.9047c0.38513,-0.02657 1.09947,-1.84091 1.60271,-1.9865c0.17728,-0.05129 3.90508,-2.51683 4.65477,-4.04327c0.00588,-0.01837 3.10831,2.34232 3.54229,2.6834c1.32934,1.04475 2.28078,1.42481 3.59391,2.50153c-5.48365,8.92468 -15.73154,22.76819 -24.01967,22.31279z" fill="#000000" stroke="none" stroke-width="0" stroke-linecap="butt"/><path d="M270.80597,94.74613c-0.06234,0.87053 -1.16008,3.27753 -3.57464,7.26824c-1.6227,-1.31355 -3.23812,-2.23025 -4.88895,-3.49836c-0.79987,-0.61442 -1.81975,-2.18574 -2.68673,-1.34796c-0.19999,0.44409 -1.00616,0.70155 -1.51097,1.10048c-1.07328,0.84814 -2.15743,1.78566 -2.80775,2.64973c-0.09735,0.12935 -1.77126,1.84192 -1.79985,1.83908c-0.54862,-0.05466 -1.045,-0.61532 -1.5715,-0.91765c-1.31501,-0.90471 -3.83917,-3.40026 -5.79082,-4.58122c-1.52275,-0.92143 -2.45498,-0.56981 -3.44018,0.67143c-1.08029,1.07303 -4.75408,3.98949 -5.95694,4.35057c-0.10721,0.03219 -0.84222,-0.35919 -1.74552,-1.57114c-1.56683,-2.1022 -3.41213,-5.2642 -4.70132,-5.81743c-0.33286,-0.14284 -2.36877,1.45435 -4.65414,2.74868c-1.99642,1.13069 -4.18177,2.06107 -4.55152,2.40943c-1.83001,-4.33912 -2.91938,-7.91318 -2.85056,-8.87447c0.00318,-0.04446 12.73539,3.84543 25.91452,4.73943c13.08648,0.88771 26.62057,-1.22077 26.61686,-1.16886z" fill="url(#color-7)" stroke="none" stroke-width="0" stroke-linecap="butt"/><path d="M221.6018,100.17013l9.05686,-5.44608l5.99597,7.92529l8.13258,-6.31125l8.72961,6.80367l6.18697,-6.44348l6.86602,5.32762" fill="none" stroke="#000000" stroke-width="0.5" stroke-linecap="round"/></g></g></g></svg>