<svg version="1.1" xmlns="http://www.w3.org/2000/svg" xmlns:xlink="http://www.w3.org/1999/xlink" width="155.43574" height="284.59862" viewBox="0,0,155.43574,284.59862"><defs><linearGradient x1="239.12765" y1="76.44563" x2="239.12765" y2="286.00012" gradientUnits="userSpaceOnUse" id="color-1"><stop offset="0" stop-color="#2a241d"/><stop offset="1" stop-color="#efdbc0"/></linearGradient><linearGradient x1="239.12765" y1="76.29936" x2="239.12765" y2="285.60321" gradientUnits="userSpaceOnUse" id="color-2"><stop offset="0" stop-color="#000000"/><stop offset="1" stop-color="#846f51"/></linearGradient><linearGradient x1="283.56941" y1="51.12438" x2="270.95774" y2="128.00832" gradientUnits="userSpaceOnUse" id="color-3"><stop offset="0" stop-color="#000000"/><stop offset="1" stop-color="#ffd498"/></linearGradient><linearGradient x1="227.9179" y1="24.06214" x2="211.1485" y2="126.29256" gradientUnits="userSpaceOnUse" id="color-4"><stop offset="0" stop-color="#000000"/><stop offset="1" stop-color="#efd0a4"/></linearGradient><linearGradient x1="218.19862" y1="82.82959" x2="216.18389" y2="95.11187" gradientUnits="userSpaceOnUse" id="color-5"><stop offset="0" stop-color="#6a5d49" stop-opacity="0"/><stop offset="1" stop-color="#6a5d49"/></linearGradient><linearGradient x1="214.14776" y1="105.23325" x2="212.63538" y2="114.45313" gradientUnits="userSpaceOnUse" id="color-6"><stop offset="0" stop-color="#000000"/><stop offset="1" stop-color="#ffffff"/></linearGradient><linearGradient x1="212.82157" y1="101.09973" x2="209.98828" y2="112.51228" gradientUnits="userSpaceOnUse" id="color-7"><stop offset="0" stop-color="#000000"/><stop offset="1" stop-color="#ffffff"/></linearGradient></defs><g transform="translate(-148.97743,-22.00463)"><g data-paper-data="{&quot;isPaintingLayer&quot;:true}" fill-rule="nonzero" stroke-linejoin="miter" stroke-miterlimit="10" stroke-dasharray="" stroke-dashoffset="0" style="mix-blend-mode: normal"><g data-paper-data="{&quot;index&quot;:null}" fill="#000000" stroke-linecap="butt"><path d="M236.18297,259.1667v-92.62046h6.67534v92.62046z" stroke="none" stroke-width="0"/><g data-paper-data="{&quot;index&quot;:null}" stroke="#000000" stroke-width="0.5"><path d="M237.94994,187.58739l17.76273,-14.86198l3.50394,3.81471z"/><path d="M254.79946,177.88761l0.85499,-5.10868l22.99477,2.76293z" data-paper-data="{&quot;index&quot;:null}"/></g><g data-paper-data="{&quot;index&quot;:null}" stroke="#000000" stroke-width="0.5"><path d="M239.34064,203.71951l17.76273,-14.86199l3.50394,3.81471z"/><path d="M256.19015,194.01969l0.85499,-5.10868l22.99477,2.76293z" data-paper-data="{&quot;index&quot;:null}"/></g><g stroke="#000000" stroke-width="0.5"><g data-paper-data="{&quot;index&quot;:null}"><path d="M217.78939,176.03948l3.50394,-3.81472l17.76273,14.86199z"/><path d="M198.35678,175.04118l22.99477,-2.76293l0.85499,5.10868z" data-paper-data="{&quot;index&quot;:null}"/></g><g data-paper-data="{&quot;index&quot;:null}"><path d="M219.18008,192.17156l3.50394,-3.81471l17.76273,14.86199z"/><path d="M199.74748,191.17331l22.99477,-2.76293l0.85499,5.10868z" data-paper-data="{&quot;index&quot;:null}"/></g></g><g data-paper-data="{&quot;index&quot;:null}" stroke="#000000" stroke-width="0.5"><path d="M238.57576,219.08672l17.76273,-14.86198l3.50394,3.81471z"/><path d="M255.42527,209.3869l0.85499,-5.10868l22.99477,2.76293z" data-paper-data="{&quot;index&quot;:null}"/></g><g data-paper-data="{&quot;index&quot;:null}" stroke="#000000" stroke-width="0.5"><path d="M239.96645,235.21881l17.76273,-14.86199l3.50394,3.81471z"/><path d="M256.81597,225.51898l0.85499,-5.10868l22.99477,2.76293z" data-paper-data="{&quot;index&quot;:null}"/></g><g stroke="#000000" stroke-width="0.5"><g data-paper-data="{&quot;index&quot;:null}"><path d="M218.4152,208.09507l3.50394,-3.81471l17.76273,14.86198z"/><path d="M198.9826,207.09678l22.99477,-2.76293l0.85499,5.10868z" data-paper-data="{&quot;index&quot;:null}"/></g><g data-paper-data="{&quot;index&quot;:null}"><path d="M219.8059,224.22716l3.50394,-3.81471l17.76273,14.86198z"/><path d="M200.37329,223.22886l22.99477,-2.76293l0.85499,5.10868z" data-paper-data="{&quot;index&quot;:null}"/></g></g><g stroke="#000000" stroke-width="0.5"><path d="M219.52776,241.41618l3.50394,-3.81471l17.76273,14.86199z" data-paper-data="{&quot;index&quot;:null}"/><path d="M200.09515,240.41788l22.99477,-2.76293l0.85499,5.10868z" data-paper-data="{&quot;index&quot;:null}"/><g data-paper-data="{&quot;index&quot;:null}"><path d="M239.68831,252.51906l17.76273,-14.86199l3.50394,3.81471z"/><path d="M256.53783,242.81927l0.85499,-5.10868l22.99477,2.76293z" data-paper-data="{&quot;index&quot;:null}"/></g></g></g><g stroke="none" stroke-linecap="butt"><path d="M217.26495,76.69625l45.61978,-0.25065l7.16304,91.58746c-1.88894,-0.84003 -5.29413,2.3217 -7.06429,2.26905c-0.72163,-0.02146 -1.1511,-0.88931 -1.80211,-1.2014c-0.17131,-0.08212 -0.56286,0.12268 -0.73633,0.16363c-4.06877,0.96051 -4.42571,0.87938 -7.82269,0.87938c-1.18417,0 -3.03621,-1.09807 -3.94099,-1.04301c-1.89487,0.11532 -3.80325,2.15845 -5.52868,1.3668c-1.16858,-0.53616 -3.93407,-2.48773 -5.47132,-2.3668c-1.71267,0.13473 -3.37821,0.64985 -5.03115,1.11803c-0.54487,0.15434 -1.14158,1.10574 -1.54448,0.70777c-4.10153,-4.05132 -7.51194,-4.34409 -13.48338,-2.5135c-1.10621,0.33911 -1.44858,1.8569 -2.41477,2.49344c-1.68666,1.1112 -3.85652,1.11572 -6.16475,0.91356z" fill="url(#color-1)" stroke-width="0"/><path d="M216.93618,76.29936c0,0 7.9212,0.31065 8.04648,0.67867c0.41816,1.2284 -4.5507,46.42081 -2.80232,57.66298c0.66646,4.2854 31.92999,5.41824 32.94162,-0.04545c1.69148,-9.13544 -0.42984,-53.10035 0.66743,-56.42444c0.94563,-2.86473 7.22702,-1.51931 7.22702,-1.51931c0,0 4.88277,58.59783 9.0272,76.98666c2.18147,9.67921 13.99459,25.16099 13.99459,25.16099c-2.69441,1.28011 -20.23812,-6.07022 -22.2088,-4.96562c-2.38252,1.33544 -6.08759,-1.66731 -8.63821,-1.06069c-0.39361,0.09361 0.2006,3.47156 -0.22055,3.45475c-2.43318,-0.09715 -3.09764,17.63219 -5.49816,18.23232c-1.50835,0.37709 -1.53578,-8.24603 -2.89389,-7.99699c-0.55815,0.10235 -5.62516,-11.68119 -5.75206,-11.70589c-1.91216,-0.37221 -5.42352,0.27635 -7.71741,-0.29712c-0.7253,-0.18132 -2.94815,-0.70536 -4.69525,0.25996c-0.24899,0.13757 -0.84196,3.21739 -1.11233,3.21965c-2.0053,0.01678 -3.36332,-3.66728 -4.38298,-2.67703c-2.20963,2.14589 -0.06605,7.23288 -1.59994,7.72143c-0.09377,0.02987 -5.84866,-6.17765 -5.87617,-6.19067c-2.10082,-0.99513 -23.16539,5.06757 -24.76362,5.05605c-0.04656,-0.00034 13.27551,-8.21025 13.14582,-8.30852c0,0 5.58307,-15.52733 6.31975,-21.96266c1.75167,-15.30178 6.79179,-75.27906 6.79179,-75.27906z" fill="url(#color-2)" stroke-width="0"/><path d="M206.625,172.75007c0,0.29424 -0.17315,0.41533 -0.31566,0.46516c2.0659,0.81874 4.91119,2.21513 6.58661,1.56483c2.21013,-0.85783 3.08491,-5.62038 3.71965,-7.56041c0.23892,-0.34448 0.36145,-0.77467 0.65584,-1.07314c2.50144,-2.53606 3.35978,0.70512 3.84018,2.73868c0.09118,0.38599 -0.3373,1.03099 0.02624,1.18955c1.51323,0.66002 2.43784,-1.53899 2.71235,-2.55047c1.21982,-5.88619 -0.74535,-11.61807 -1.4723,-17.47737c-0.00387,-1.76546 -0.60676,-5.02172 0.32176,-6.5597c0.91821,-1.5209 3.22526,-1.72002 3.90387,0.11798c0.6917,1.87344 0.52146,4.149 0.52146,6.14489c0,3.9052 -0.56234,8.3051 -0.00645,12.16991c0.22927,1.59399 1.06089,3.30163 0.96839,4.88875c2.29058,1.98074 3.21221,-1.32043 4.11274,-2.82153c1.4524,-2.42103 3.80751,-2.43148 5.56199,-0.80413c1.34398,2.00945 -0.03291,3.92054 0.78865,5.80413c0.20986,0.48113 1.04977,0.01287 1.57468,0.01287c1.87835,0 3.65012,-0.25 5.5,-0.25c3.08844,0.10727 -0.05043,-6.40668 1.64645,-8.10355c0.83737,-0.83737 3.01222,-0.58803 3.56549,0.41222c0.34074,0.61601 0.03806,2.23955 0.03806,2.94134c-0.28463,0.28463 0.64475,0.13605 0.73713,0.07468c0.7038,-0.46749 0.51156,-2.86202 0.51287,-3.57573c0.00646,-3.51778 -0.01595,-7.03578 0.00298,-10.55351c0.58264,-2.65735 0.91648,-6.16909 2.71329,-8.31599c0.57069,-0.68187 2.25266,-2.05196 3.29659,-1.30477c0.94088,0.67344 1.31232,4.41532 1.72212,5.55369c0.85633,5.88663 -0.07814,12.85626 2.3306,18.34695c0.28627,0.96482 0.72498,1.81431 1.11115,2.74319c0.03449,0.08297 0.31841,0.51166 0.5314,0.87842c0.08434,-0.28579 0.274,-0.59495 0.30524,-0.7118c0.26944,-1.00787 1.00811,-6.07299 2.94857,-2.82646c0.24654,0.41248 0.47451,1.19832 0.73528,1.71774c0.69259,1.38519 1.22548,2.67871 2.18945,3.90661c0.09663,0.12309 1.1215,0.95669 1.32098,0.66137c1.35048,-1.99939 0.64601,-4.34438 4.04235,-4.34438c3.36953,0.05211 5.88457,3.87844 7.19916,6.53033c0.81261,1.63924 1.18445,4.21013 -0.86907,4.96322c-4.4117,0 -8.91326,0.9616 -13.18474,-0.647c-0.99644,-0.37525 -3.00237,-0.58033 -3.40821,-1.67122c-0.73623,0.06292 -0.82891,-0.57714 -1.56723,-0.68178c-2.03348,-0.28818 -4.36672,0.67135 -6.28478,0.24308c-0.20369,-0.04548 -1.91484,-1.30649 -2.12226,-1.0613c-0.29176,0.34489 -0.26687,1.15928 -0.26286,1.57468c0,5.89791 -2.75,11.6756 -2.75,17.75c0,1.34804 -0.03675,5.2851 -2.54235,3.40562c-0.60671,-0.45509 -0.72865,-2.275 -0.92316,-2.95744c-0.70044,-2.4575 -1.63307,-3.83171 -2.7317,-5.97458c-0.56067,-1.3271 -1.72033,-0.70091 -2.53871,-1.28277c-0.86479,-0.61485 -1.25591,-2.3416 -1.49732,-3.3125c-0.34276,-1.37849 -0.06993,-6.55479 -1.38163,-7.14171c-3.91613,0.05918 -7.84347,0.06287 -11.76046,0.00726c0.32015,0.70624 0.32379,2.13737 0.05066,2.51898c-0.74084,1.03504 -2.61557,0.47958 -3.27888,-0.15931c-0.15691,-0.15114 -0.40588,-0.43449 -0.60707,-0.70505c0.05822,0.8838 -0.03938,2.36378 -0.03938,2.6015c-0.01361,1.74928 -1.94344,7.95939 -4.64736,4.80349c-2.13145,-2.48775 -1.47164,-5.31987 -4.71752,-7.06687c-0.1813,0.00629 -1.03157,-0.13307 -1.03157,-0.13307c0,0 0.14644,1.65773 0.14644,1.89645v0.75c0,0.27614 -0.22386,0.5 -0.5,0.5c-0.1996,0 -0.37189,-0.11695 -0.45206,-0.28608l-0.24516,-0.49032l0.18946,-0.09472c-0.0841,-0.15703 -0.15788,-0.31922 -0.22079,-0.48399c-0.14635,-0.38336 -0.58373,-1.3408 -0.75859,-0.96957c-0.8392,1.78174 0.27536,5.21752 -0.01661,7.13577c-0.40027,2.6298 -2.13265,1.69262 -2.82575,-0.03923c-0.79658,-1.68222 -1.43331,-3.6874 -1.84714,-5.47924c-0.10607,-0.45927 -0.10702,-1.3612 -0.57336,-1.29262c-0.71419,0.10502 -1.97467,1.1279 -2.80866,1.46194c-1.97494,0.79101 -4.06016,1.23092 -6.04919,2.01743c-1.97556,0.39346 -4.94841,1.7108 -7.00702,1.00726c-0.71406,-0.24403 -1.432,-1.34135 -0.73868,-2.09018c0.38503,-0.41584 2.61847,-0.86522 3.21551,-1.15264c1.781,-0.85738 3.21434,-2.20163 4.72066,-3.46072c2.65054,-2.19547 3.47074,-4.53308 7.16739,-4.53308h0.25c0,0 0.5,0 0.5,0.5z" fill="#000000" stroke-width="0.5"/><path d="M225.875,138.625c0,1.03554 -1.11929,1.875 -2.5,1.875c-1.38071,0 -2.5,-0.83946 -2.5,-1.875c0,-1.03554 1.11929,-1.875 2.5,-1.875c1.38071,0 2.5,0.83946 2.5,1.875z" fill="#000000" stroke-width="0"/></g><path d="M199.37765,306.60321l7.09432,-61.01433c0.91843,0.08647 4.62757,6.50971 4.95788,6.81313c1.11192,1.0214 4.78332,0.96323 6.96785,1.19027c5.68485,0.59081 8.27417,3.29001 11.87187,3.56484c3.15789,0.24124 4.59942,-4.56263 7.71146,-4.01492c1.52246,0.26794 4.42635,0.84755 5.7643,1.19662c2.26136,0.58997 3.56502,3.4071 6.08793,2.45984c0.72949,-0.2739 2.41367,0.14258 3.07883,-0.34136c1.01919,-0.74151 3.99375,-3.87533 5.01828,-4.19001c1.72242,-0.52905 4.70025,-0.45416 6.61042,-0.87999c2.68579,-0.59875 4.11453,3.49315 5.92962,-0.0564c0.77024,-1.50626 1.86004,-5.91229 2.89499,-6.33734l7.51225,61.60968z" fill="#000000" stroke="none" stroke-width="0" stroke-linecap="butt"/><g stroke="none" stroke-width="0" stroke-linecap="butt"><g fill="url(#color-3)"><path d="M304.27091,70.92662c-2.5313,15.43138 -38.29109,56.26513 -47.54043,54.74791c-9.24934,-1.51722 -0.39581,-79.01758 8.85354,-77.50037c9.24934,1.51722 41.21819,7.32106 38.6869,22.75246z"/></g><path d="M282.79463,99.49239c-10.47711,12.69774 -21.15503,18.50656 -23.84979,12.9744c-2.69476,-5.53217 3.61408,-20.31042 14.0912,-33.00815c2.06766,-2.50591 4.14314,-4.7435 6.16354,-6.67857c8.21724,-7.87022 15.52331,-10.73624 17.68626,-6.29583c2.69476,5.53216 -3.61409,20.31043 -14.0912,33.00816z" fill="#000000"/></g><path d="M149.90478,65.33503c6.72051,-40.9699 39.69772,-47.55797 78.01311,-41.2729c38.31539,6.28507 67.45971,23.06327 60.73922,64.03316c-6.72051,40.9699 -38.11321,44.65948 -76.4286,38.3744c-38.31539,-6.28507 -69.04423,-20.16479 -62.32373,-61.13467z" fill="url(#color-4)" stroke="none" stroke-width="0" stroke-linecap="butt"/><path d="M193.37269,91.37002l2.01473,-12.28228l45.62242,7.48369l-2.01473,12.28228c0,0 -15.48941,-5.8015 -23.03047,-7.0385c-7.66441,-1.25724 -22.59196,-0.44519 -22.59196,-0.44519z" fill="url(#color-5)" stroke="none" stroke-width="0" stroke-linecap="butt"/><path d="M180.053,37.66285c0,0 7.45723,-4.01506 12.6717,-4.36999c5.21449,-0.35493 12.05826,2.68669 12.05826,2.68669c0,0 -7.92235,-1.36063 -11.94933,-1.08653c-4.20835,0.28645 -12.78063,2.76981 -12.78063,2.76981z" fill="#000000" stroke="none" stroke-width="0" stroke-linecap="butt"/><path d="M255.63286,42.40759c-3.72837,-1.54626 -11.67025,-2.78793 -11.67025,-2.78793c0,0 7.45683,-0.69582 12.28467,1.3064c4.82783,2.00223 10.61155,8.18926 10.61155,8.18926c0,0 -7.32968,-5.09183 -11.22598,-6.70774z" data-paper-data="{&quot;index&quot;:null}" fill="#000000" stroke="none" stroke-width="0" stroke-linecap="butt"/><path d="M179.62432,89.24288l-2.51059,3.97942" fill="none" stroke="#000000" stroke-width="2" stroke-linecap="round"/><path d="M193.08376,91.6196l-0.6449,4.96103" fill="none" stroke="#000000" stroke-width="2" stroke-linecap="round"/><g fill="none" stroke="#000000" stroke-width="2" stroke-linecap="round"><path d="M254.13637,104.5056l-1.1077,-4.57294" data-paper-data="{&quot;index&quot;:null}"/><path d="M239.46392,99.22756l-0.97383,4.90708" data-paper-data="{&quot;index&quot;:null}"/></g><path d="M231.55365,35.43802c0,0 -25.29501,-5.34656 -26.52763,-7.41604c-0.72694,-1.2205 13.60375,-1.27775 26.60379,1.05578c2.00669,0.3602 8.52993,1.8518 14.02024,3.84309c1.52283,0.55232 5.26086,3.98809 2.87041,5.59761c-1.57848,1.06281 -9.04518,0.61128 -10.1138,0.56892c-17.104,-0.67805 -46.68652,-7.85936 -46.68652,-7.85936" fill="none" stroke="#000000" stroke-width="1" stroke-linecap="round"/><path d="M167.563,64.04749c2.09915,-12.79698 14.17486,-21.46928 26.97184,-19.37012c12.79698,2.09915 21.46928,14.17486 19.37012,26.97184c-2.09915,12.79698 -14.17486,21.46928 -26.97184,19.37012c-12.79698,-2.09915 -21.46928,-14.17486 -19.37012,-26.97184z" fill="#ff5b5b" stroke="none" stroke-width="0" stroke-linecap="butt"/><path d="M243.76535,100.34183c-12.79698,-2.09915 -21.46927,-14.17486 -19.37012,-26.97184c2.09915,-12.79698 14.17486,-21.46928 26.97184,-19.37012c12.79698,2.09915 21.46927,14.17486 19.37012,26.97184c-2.09915,12.79698 -14.17486,21.46928 -26.97184,19.37012z" data-paper-data="{&quot;index&quot;:null}" fill="#ff5b5b" stroke="none" stroke-width="0" stroke-linecap="butt"/><path d="M167.47947,63.52711c2.09915,-12.79698 14.17486,-21.46928 26.97184,-19.37012c12.79698,2.09915 21.46928,14.17486 19.37012,26.97184c-0.05802,0.35365 -46.41938,-7.12972 -46.34196,-7.60172z" fill="#ff0000" stroke="none" stroke-width="0" stroke-linecap="butt"/><path d="M224.35455,73.56599c2.09915,-12.79698 14.17486,-21.46928 26.97184,-19.37012c12.79698,2.09915 21.46928,14.17486 19.37012,26.97184c-0.07742,0.472 -46.39998,-7.24806 -46.34196,-7.60172z" data-paper-data="{&quot;index&quot;:null}" fill="#ff0000" stroke="none" stroke-width="0" stroke-linecap="butt"/><g stroke="none" stroke-width="0" stroke-linecap="butt"><path d="M186.04656,67.60336c0.77663,-4.73455 4.953,-7.99087 9.32818,-7.27318c4.37518,0.71768 7.29238,5.1376 6.51575,9.87214c-0.77663,4.73455 -4.95301,7.99086 -9.32818,7.27317c-4.37518,-0.71768 -7.29237,-5.13759 -6.51574,-9.87213z" fill="#000000"/><path d="M195.63996,69.18024c-0.13969,0.85156 -0.99849,1.4196 -1.91817,1.26874c-0.91969,-0.15086 -1.552,-0.96349 -1.41232,-1.81504c0.13969,-0.85156 0.99848,-1.4196 1.91817,-1.26874c0.91969,0.15086 1.55201,0.96349 1.41232,1.81505z" fill="#ff5b5b"/></g><g stroke="none" stroke-width="0" stroke-linecap="butt"><path d="M235.78082,75.3562c0.77663,-4.73455 4.95301,-7.99086 9.32818,-7.27317c4.37518,0.71768 7.29237,5.13759 6.51574,9.87213c-0.77663,4.73455 -4.953,7.99086 -9.32817,7.27317c-4.37518,-0.71768 -7.29238,-5.13759 -6.51575,-9.87214z" fill="#000000"/><path d="M245.37422,76.93307c-0.13969,0.85156 -0.99848,1.4196 -1.91817,1.26874c-0.91969,-0.15086 -1.55201,-0.96349 -1.41232,-1.81505c0.13969,-0.85156 0.99849,-1.4196 1.91817,-1.26874c0.91969,0.15086 1.552,0.96349 1.41232,1.81504z" fill="#ff5b5b"/></g><path d="M184.0905,102.2344c-0.17163,1.07723 -0.24415,3.37484 -1.77244,3.50685c-1.72723,0.14919 -0.47519,-4.79304 -2.4982,-3.34175c-2.62744,1.8849 -1.99027,6.29012 -3.359,8.84242c-3.99188,2.73942 -1.39449,-3.47337 -2.75625,-4.74629c-2.01053,-1.87936 -4.93437,-1.29288 -6.76204,-3.81669c-0.92271,-1.30386 -2.47346,-5.24038 -0.31938,-6.29701c0.9249,-0.45368 2.12406,0.17094 3.06366,0.20605c1.85808,0.06944 4.63331,-0.25203 4.86461,0.19126c0.08755,0.16778 9.22071,1.76534 9.53905,5.45516z" fill="#000000" stroke="none" stroke-width="0.5" stroke-linecap="butt"/><path d="M182.42231,108.10265c-0.03576,0.21801 -0.50655,0.32226 -1.05155,0.23285c-0.54501,-0.08941 -0.95782,-0.3386 -0.92206,-0.5566c0.03576,-0.21801 0.50655,-0.32226 1.05155,-0.23285c0.54501,0.08941 0.95782,0.33859 0.92206,0.5566z" fill="#000000" stroke="none" stroke-width="0" stroke-linecap="butt"/><path d="M254.30944,111.05023c0.05,-0.22941 0.10514,-0.45317 0.16903,-0.67776l-0.07915,-0.01298l0.12949,-0.78945c0.0447,-0.2725 0.30185,-0.45717 0.57435,-0.41247c0.13625,0.02235 0.25055,0.09782 0.3252,0.20174l0.32998,0.45947c1.6323,2.39905 5.55694,0.74317 7.65973,0.54231c3.07073,-1.34345 5.85675,1.44876 3.79507,4.34964c-1.01932,1.43423 -3.00532,1.03506 -4.55102,1.33012c-1.32155,0.25228 -2.37751,1.28713 -3.22713,2.25543c-1.1324,1.28473 -2.94093,5.75196 -4.9054,5.35926c-2.48072,-0.49591 0.62685,-3.4613 -0.53538,-4.41925c-0.95954,-0.7909 -3.7756,-0.34021 -5.03439,-0.99139c-1.40849,-1.01821 -3.80366,-3.7063 -0.87664,-4.71519c1.36315,-0.46985 3.00444,0.61037 4.19526,0.1043c1.0413,-0.44253 1.1326,-1.43211 1.58284,-2.307c0,0 0.15351,-0.2918 0.44818,-0.27681z" fill="#000000" stroke="none" stroke-width="0.5" stroke-linecap="butt"/><path d="M257.08984,108.1661c-0.07152,0.436 -0.52712,0.72422 -1.01763,0.64377c-0.4905,-0.08046 -0.83015,-0.49913 -0.75864,-0.93513c0.07152,-0.436 0.52714,-0.72422 1.01763,-0.64377c0.4905,0.08046 0.83015,0.49913 0.75862,0.93514z" fill="#000000" stroke="none" stroke-width="0" stroke-linecap="butt"/><g><path d="M235.42858,108.72459c-0.36409,2.21958 -12.42363,7.29945 -22.33576,5.80136c-11.31907,-1.71074 -20.62669,-10.34057 -20.22605,-12.783c0.00573,-0.03494 10.10809,4.05182 20.78617,5.80197c10.60301,1.73785 21.78231,1.13886 21.77563,1.17967z" fill="url(#color-6)" stroke="none" stroke-width="0" stroke-linecap="butt"/><path d="M229.62253,112.04718l-3.38017,-2.65504l-5.49728,4.61225l-6.63452,-6.07716l-7.07365,4.35368l-4.32739,-6.749l-4.97924,2.15905" fill="none" stroke="#000000" stroke-width="0.5" stroke-linecap="round"/></g><g><path d="M205.92791,131.64051c-9.19338,-2.12109 -14.82948,-16.76807 -17.29046,-26.99208c0.40759,-0.17133 1.01257,-0.31195 1.26844,-0.41688c0.18593,-0.07625 -0.03147,-1.47545 0.15415,-1.55164c1.89449,-0.77763 4.17762,-0.22654 6.0771,-0.934c0.16613,-0.06814 2.40861,-1.22119 2.46923,-1.1574c1.64797,1.73379 3.3713,4.76647 4.02622,7.10248c0.14844,0.29259 -0.52489,1.4181 1.44562,1.02334c1.72353,-0.34529 5.65785,-2.6614 6.22008,-3.05488c0.84522,-0.77522 1.53957,-1.4201 2.70552,-0.57607c1.87342,1.35615 4.28165,4.95505 5.36228,6.0089c0.47685,0.39388 1.07424,1.1488 1.7026,1.21375c0.384,0.03969 1.39809,-1.62577 1.91882,-1.68315c0.18344,-0.02022 4.27796,-1.81193 5.27765,-3.18768c0.00893,-0.01709 2.66195,2.83938 3.03121,3.24965c1.13109,1.2567 2.00352,1.79387 3.11317,3.07928c-6.92911,7.85543 -19.39347,19.74247 -27.48163,17.87639z" fill="#000000" stroke="none" stroke-width="0" stroke-linecap="butt"/><path d="M238.39486,107.35116c-0.2103,0.84704 -1.70349,3.03085 -4.76495,6.54986c-1.37416,-1.5717 -2.80901,-2.75116 -4.21866,-4.2829c-0.68301,-0.74216 -1.41915,-2.46474 -2.41663,-1.78757c-0.27299,0.40335 -1.11132,0.51915 -1.67691,0.82587c-1.20252,0.6521 -2.43102,1.3904 -3.21953,2.13054c-0.11804,0.1108 -2.06016,1.51188 -2.08784,1.50419c-0.53119,-0.14768 -0.92438,-0.78497 -1.39142,-1.17289c-1.14092,-1.11626 -3.20112,-4.00672 -4.92206,-5.50404c-1.34274,-1.16827 -2.32137,-0.98125 -3.50433,0.07322c-1.24788,0.87248 -5.3663,3.11771 -6.6132,3.26776c-0.11113,0.01338 -0.76839,-0.49793 -1.45112,-1.8465c-1.18424,-2.33918 -2.46161,-5.77017 -3.6372,-6.53572c-0.30353,-0.19766 -2.58259,1.02783 -5.05564,1.91227c-2.16037,0.77262 -4.47264,1.31556 -4.89651,1.59556c-1.061,-4.58815 -1.52311,-8.29587 -1.29091,-9.23122c0.01074,-0.04326 11.89016,5.96671 24.72226,9.10136c12.74189,3.1126 26.43718,3.3497 26.42464,3.40021z" fill="url(#color-7)" stroke="none" stroke-width="0" stroke-linecap="butt"/><path d="M188.98796,104.28066l9.8548,-3.817l4.5523,8.83394l9.09209,-4.82749l7.43749,8.19633l7.19775,-5.2905l5.85377,6.42332" fill="none" stroke="#000000" stroke-width="0.5" stroke-linecap="round"/></g></g></g></svg>