<svg version="1.1" xmlns="http://www.w3.org/2000/svg" xmlns:xlink="http://www.w3.org/1999/xlink" width="202.53655" height="382.28869" viewBox="0,0,202.53655,382.28869"><defs><linearGradient x1="239.72615" y1="174.30005" x2="239.72615" y2="306.30003" gradientUnits="userSpaceOnUse" id="color-1"><stop offset="0" stop-color="#000000"/><stop offset="1" stop-color="#79c5d8"/></linearGradient><linearGradient x1="240.1942" y1="189.71086" x2="240.1942" y2="202.37753" gradientUnits="userSpaceOnUse" id="color-2"><stop offset="0" stop-color="#000000"/><stop offset="1" stop-color="#5e97a5"/></linearGradient><linearGradient x1="240.19875" y1="210.21899" x2="240.19875" y2="239.08437" gradientUnits="userSpaceOnUse" id="color-3"><stop offset="0" stop-color="#000000"/><stop offset="1" stop-color="#ffff00"/></linearGradient><linearGradient x1="231.10407" y1="69.35219" x2="234.49092" y2="131.47801" gradientUnits="userSpaceOnUse" id="color-4"><stop offset="0" stop-color="#000000"/><stop offset="1" stop-color="#f6f5f6"/></linearGradient><linearGradient x1="234.45446" y1="115.3099" x2="233.24996" y2="198.40756" gradientUnits="userSpaceOnUse" id="color-5"><stop offset="0" stop-color="#000000"/><stop offset="1" stop-color="#d75454"/></linearGradient><linearGradient x1="206.97441" y1="114.66844" x2="206.62616" y2="138.6939" gradientUnits="userSpaceOnUse" id="color-6"><stop offset="0" stop-color="#000000"/><stop offset="1" stop-color="#ec3434"/></linearGradient><linearGradient x1="261.73677" y1="114.21208" x2="261.38853" y2="138.23755" gradientUnits="userSpaceOnUse" id="color-7"><stop offset="0" stop-color="#000000"/><stop offset="1" stop-color="#ec3434"/></linearGradient><linearGradient x1="231.40497" y1="173.55893" x2="230.58609" y2="185.54463" gradientUnits="userSpaceOnUse" id="color-8"><stop offset="0" stop-color="#000000"/><stop offset="1" stop-color="#ffffff"/></linearGradient></defs><g transform="translate(-154.69233,75.98867)"><g data-paper-data="{&quot;isPaintingLayer&quot;:true}" fill-rule="nonzero" stroke-linejoin="miter" stroke-miterlimit="10" stroke-dasharray="" stroke-dashoffset="0" style="mix-blend-mode: normal"><path d="M206.47616,306.30001l15.14285,-131.8421l37.78325,-0.15789l13.57389,132z" fill="url(#color-1)" stroke="none" stroke-width="2" stroke-linecap="butt"/><path d="M218.11292,201.37752c0,0 -0.86037,-1.64644 -1.18821,-3.42169c-0.34066,-1.84471 -0.14619,-3.82852 0.02426,-4.24864c0.80908,-1.99419 2.99728,-3.99633 2.99728,-3.99633l40.16666,0.5c0,0 2.58695,1.45609 3.27161,3.19102c0.40553,1.02761 0.22839,2.86943 0.22839,3.47565c0,0.73804 -0.05964,2.54278 -1.11019,3.48972c-1.03264,0.9308 -3.05648,2.01028 -3.05648,2.01028z" fill="url(#color-2)" stroke="none" stroke-width="2" stroke-linecap="butt"/><path d="M249.6893,238.887c-0.62016,0.45845 -9.37984,-4.83026 -9.37984,-4.83026c0,0 -8.55454,5.5227 -9.29851,4.99165c-0.70482,-0.50263 1.69445,-10.41655 1.69445,-10.41655c0,0 -7.79039,-6.76005 -7.61958,-7.30111c0.17273,-0.54769 10.4295,-1.60702 10.4295,-1.60702c0,0 3.98902,-9.49914 4.58738,-9.50471c0.64722,-0.00567 4.75443,9.42378 4.75443,9.42378c0,0 10.32385,1.038 10.45386,1.42773c0.18992,0.56532 -7.49126,7.43109 -7.49126,7.43109c0,0 2.20947,10.13468 1.86957,10.3854z" fill="url(#color-3)" stroke="none" stroke-width="0" stroke-linecap="butt"/><path d="M298.67096,122.23123c0.04971,0.91169 -6.89448,6.0775 -7.27319,6.76246c-4.04341,7.31286 -24.8448,-1.80413 -56.99242,-0.05156c-35.15865,1.91672 -64.26599,8.63644 -64.84633,-2.00901c-0.29536,-5.41791 -15.69531,-42.61416 -14.83168,-43.41455c0.04399,-0.04079 25.80034,22.79575 25.83004,22.76917c0.10453,-0.09355 21.83175,-35.18343 22.26513,-35.07593c0.79897,0.19818 19.78542,25.08742 20.14093,24.43178c1.02436,-1.88916 27.2261,-45.31923 27.68708,-44.79273c4.48657,5.12437 19.11522,42.22754 20.67595,41.63446c0.10012,-0.03804 -0.65006,5.50643 0.82224,4.60198c7.62377,-4.68331 31.72029,-24.82255 31.72923,-24.81837c0.05521,0.02585 -5.20695,49.96228 -5.20695,49.96228z" fill="url(#color-4)" stroke="none" stroke-width="2" stroke-linecap="butt"/><g data-paper-data="{&quot;index&quot;:null}" fill="#000000" stroke="none" stroke-width="0" stroke-linecap="butt"><path d="M219.42637,135.17262c0,0 -7.1766,-33.12562 -1.30511,-51.64325c2.662,-8.39548 10.71495,-36.74189 15.53535,-50.51953c3.17192,-9.06596 7.21586,-17.13016 11.41993,-24.06442c11.20564,-18.48273 23.5489,-28.93777 23.5489,-28.93777l49.01759,15.5423c0,0 -38.33553,54.93341 -44.49202,71.63827c-6.14371,16.6702 -8.76283,35.14953 -10.0406,40.89664c-4.73306,21.28791 5.33355,42.63003 5.33355,42.63003z"/><path d="M299.29364,-37.98979c17.40724,5.51942 27.6567,22.17354 22.89279,37.19804c-3.16259,9.97424 -28.35858,34.49893 -39.13399,36.29398c-5.45591,0.9089 4.84076,-17.22827 -1.01041,-19.08354c-10.02004,-3.17711 -22.11773,6.65701 -25.89609,-1.4644c-2.78559,-5.98746 0.98161,-29.35761 3.0033,-35.73363c4.76391,-15.02448 22.73717,-22.72987 40.14441,-17.21046z"/><path d="M356.40747,-20.48835c2.36391,-0.34294 -0.62797,7.10584 -5.73401,12.44344c-4.1327,4.32012 -9.92455,6.4137 -13.22381,8.51464c-7.2207,4.59808 -23.2934,9.18244 -23.2934,9.18244l-7.3821,-22.70888c0,0 15.82997,1.45933 24.10743,1.08003c5.38037,-0.24654 19.20565,-7.59481 25.5259,-8.51169z" data-paper-data="{&quot;index&quot;:null}"/><path d="M327.33075,-63.68706c1.5266,-1.58359 4.38548,6.31308 4.22767,13.59504c-0.12773,5.89381 -3.012,10.82664 -4.03459,14.39961c-2.23802,7.81967 -11.07896,20.47914 -11.07896,20.47914l-21.00856,-15.02984c0,0 12.78791,-7.44969 18.69445,-12.30474c3.83927,-3.1558 9.11848,-16.90525 13.2,-21.13921z" data-paper-data="{&quot;index&quot;:null}"/><path d="M267.97874,-75.43782c-0.12279,-2.17709 7.75263,2.4092 13.07695,8.31151c4.30934,4.77716 5.98963,10.43841 7.94647,13.90035c4.28269,7.57673 7.59686,22.96709 7.59686,22.96709l-25.78714,0.59196c0,0 3.311,-13.59856 3.78509,-21.00738c0.30816,-4.81576 -6.28988,-18.94283 -6.61822,-24.76354z" data-paper-data="{&quot;index&quot;:null}"/><path d="M217.21213,-33.99591c-1.93537,-1.44901 6.59815,-3.62802 14.76548,-3.1279c6.61041,0.4048 12.43934,3.23801 16.54753,4.33228c8.99115,2.3949 24.1038,10.95827 24.1038,10.95827l-14.58096,18.1287c0,0 -9.70265,-11.85185 -15.76694,-17.39565c-3.9418,-3.60349 -19.89448,-9.02159 -25.06891,-12.89571z" data-paper-data="{&quot;index&quot;:null}"/></g><path d="M169.69716,137.18171c0.06637,-4.57911 -0.8349,-16.54325 3.42003,-19.80196c2.72915,-2.09017 45.59491,-2.0444 59.08274,-2.07458c20.30863,-0.04543 63.00872,3.41439 64.44017,5.02957c2.60454,2.93885 2.06849,15.16575 2.01703,18.71625c-0.48266,33.29835 -29.74261,59.87355 -65.35391,59.35736c-35.6113,-0.51619 -64.0887,-27.92829 -63.60604,-61.22663z" fill="url(#color-5)" stroke="none" stroke-width="2" stroke-linecap="butt"/><path d="M298.32885,120.57829c-0.06432,4.43737 -33.40722,4.69469 -65.06823,4.23576c-31.66099,-0.45893 -61.63911,-2.34841 -61.57479,-6.78579c0.06432,-4.43737 30.72531,-3.66206 62.38632,-3.20314c31.66099,0.45893 64.32103,1.31579 64.25671,5.75316z" fill="#000000" stroke="none" stroke-width="2" stroke-linecap="butt"/><path d="M177.32426,126.89457c-0.16511,-0.26376 -0.33377,-0.52835 -0.50557,-0.79432c-0.47611,-0.73709 -1.03097,-1.55015 -1.43741,-2.39467c-0.01546,0.76906 0.17006,1.52963 0.66383,2.26384c0.37867,0.28819 0.81618,0.5984 1.27915,0.92515zM175.56408,119.96485c0.52444,-1.1053 -4.38058,-1.52926 -3.95191,-2.62804c1.05323,-2.69967 8.81753,-6.91875 9.08408,-6.71543c0.20779,0.15849 4.55872,-0.7182 4.9196,-0.83034c6.73286,0.05735 13.32614,0.85345 20.06841,0.95117c6.88129,0.09974 13.53934,0.51514 20.3761,1.29869c2.39259,0.23431 4.78949,0.42897 7.18825,0.6102c2.28848,-2.83715 4.18482,-6.54114 8.16842,-5.79808c0.017,0.1029 0.5348,2.1381 1.11276,1.44451c0.87378,-1.0486 1.09487,-2.75731 1.60478,-3.9831c1.15168,-2.76854 2.53439,-5.94618 4.68688,-8.06232c3.82339,-3.65796 4.05203,4.472 3.79836,6.63468c-0.15155,1.29206 -0.9723,2.69854 -1.57324,3.84543c-0.22295,0.42549 -0.96883,1.01291 -0.5938,1.31308c0.21969,0.17585 1.40916,0.06279 1.5936,0.06547c2.86166,0.41746 0.31472,3.92757 -0.66144,5.0238c-0.21054,0.23643 -0.42242,0.46515 -0.63585,0.68636c5.42507,0.26211 10.84081,0.73181 16.26917,0.81077c7.00135,0.10183 13.9817,0.86461 20.96543,0.97232c2.0936,0.03318 6.69579,0.05101 8.05081,2.04581c0.28293,0.41653 0.36783,2.05161 0.4433,2.54327c0.4682,3.05047 1.14384,6.6252 1.10501,9.71638c-0.10222,7.05236 -0.6486,13.75436 -2.98779,20.44666c-0.68262,2.05353 -2.92332,10.88841 -6.59942,7.10417c-1.84888,-1.90327 1.23447,-7.43345 2.03378,-9.37428c1.39085,-3.37105 1.48451,-6.66556 1.41511,-10.27885c-0.01931,-1.00578 0.16299,-3.37135 -0.3388,-4.22871c-0.20703,-0.35372 -0.51779,0.63545 -0.77615,0.95361c-0.66468,0.81852 -1.29893,1.29012 -1.78611,2.24296c-0.68015,1.30788 -3.42161,6.19384 -5.3521,3.55265c-0.37043,-0.50681 -0.05609,-2.64247 -0.04665,-3.29339c0.05175,-3.57031 0.10481,-7.1406 0.15443,-10.71093c0.01227,-2.55946 -2.12337,-3.16711 -4.30068,-3.53919c-4.44216,-0.75914 -8.86345,-1.69289 -13.22885,-2.85171c-6.66384,-1.76508 -13.54086,-3.24092 -19.18816,1.74457c-3.22152,2.84399 -6.93801,6.58412 -8.0946,10.86282c-0.5778,2.13752 -0.35952,4.66019 -0.37228,6.85273c-0.04013,6.89473 1.51176,13.50102 2.02958,20.33156c-0.04466,3.24837 0.29568,7.75536 -2.00313,10.34907c-1.62402,1.83235 -4.89255,1.2553 -5.8566,-1.00862c-0.56125,-1.318 -0.18939,-2.97095 0.22849,-4.25934c0.8461,-3.17545 1.97493,-5.80141 2.02333,-9.14015c0.01449,-0.99978 0.02189,-2.00003 0.04348,-2.99968c0.00846,-0.39202 0.34536,-1.48043 0.10358,-1.17174c-1.89343,2.41721 -2.91747,-0.35077 -3.58756,-2.16146c-0.68017,-1.41533 -1.63543,-3.12738 -2.04677,-4.60291c-0.67035,-2.4046 0.44116,-5.18115 0.75667,-7.51732c0.31974,-2.36747 -0.39673,-4.74531 -0.76602,-7.06272c-0.14806,-0.93202 -0.29573,-1.94532 -0.61375,-2.83838c-0.76117,-2.13755 -2.36578,-2.42017 -4.35011,-1.38376c-3.29865,1.72286 -3.50873,6.03351 -8.04422,5.96715c-3.51408,-0.21048 -2.48783,-4.5731 -2.76979,-7.05651c-0.5723,-5.04068 -3.37775,-6.84733 -8.24173,-5.82068c-7.15012,1.4385 -9.73616,8.98901 -10.70659,15.14355c-1.02165,6.42477 -0.43935,13.75223 0.05412,20.21843c0.52546,6.88558 0.74875,13.65374 0.52479,20.56041c-0.04347,1.21416 -0.24986,3.24393 -1.18484,4.16152c-0.85908,0.84312 -5.43477,0.65081 -6.33394,-0.10352c-0.80851,-0.67826 -0.47809,-2.46325 -0.46518,-3.3539c0.0367,-2.53215 0.07862,-5.06429 0.10707,-7.59656c0.02737,-2.43604 0.66285,-7.49688 -0.90815,-9.53884c-1.09742,-1.4264 -3.25514,1.30101 -4.35863,1.5456c-1.80679,0.40046 -2.42723,-2.19727 -2.88972,-3.43432c0.01353,-2.16352 -0.34838,-4.93085 0.33558,-7.014c0.48316,-1.47158 1.49961,-2.97392 1.83248,-4.4842c0.53795,-2.4407 0.24629,-6.03159 0.00392,-8.52399c-0.27556,-2.85669 -1.19279,-5.25999 -2.4744,-7.61028c-1.12606,-0.85342 -2.384,-1.66378 -3.24782,-2.34109c-1.05877,-1.68172 -0.99166,-3.28267 -0.49351,-4.84529c-0.03815,-0.52302 0.03887,-1.0455 0.281,-1.55766c0,0 0.15908,-0.30697 0.46794,-0.2781zM180.56284,130.83198c0.23219,0.54766 0.44243,1.10385 0.62788,1.67264c-0.06111,-0.55601 -0.20412,-1.07854 -0.50372,-1.50495c-0.03921,-0.05579 -0.08064,-0.1117 -0.12416,-0.16769zM237.42154,109.17295c-0.26969,0.2538 -0.52814,0.52507 -0.77889,0.80836c0.1901,-0.19348 0.38904,-0.37934 0.60736,-0.54719z" fill="#000000" stroke="none" stroke-width="0.5" stroke-linecap="butt"/><path d="M183.23926,137.80748c0.18795,-12.96664 10.85186,-23.32582 23.8185,-23.13787c12.96664,0.18795 23.32582,10.85186 23.13787,23.8185c-0.18795,12.96664 -10.85186,23.32582 -23.8185,23.13787c-12.96664,-0.18795 -23.32582,-10.85186 -23.13787,-23.8185z" fill="#ff0000" stroke="none" stroke-width="2" stroke-linecap="butt"/><path d="M260.8798,162.41601c-12.96664,-0.18795 -23.32582,-10.85186 -23.13787,-23.8185c0.18795,-12.96664 10.85186,-23.32582 23.8185,-23.13787c12.96664,0.18795 23.32582,10.85186 23.13787,23.8185c-0.18795,12.96664 -10.85186,23.32582 -23.8185,23.13787z" data-paper-data="{&quot;index&quot;:null}" fill="#ff0000" stroke="none" stroke-width="2" stroke-linecap="butt"/><path d="M183.52305,140.80896c1.25129,0.06269 45.94084,1.26215 46.19876,1.28996c-0.5647,3.47795 -1.23954,6.28293 -3.17531,9.17262c-4.34266,6.48267 -11.89431,10.06797 -19.92354,9.95158c-11.8762,-0.17215 -21.94154,-8.70837 -23.09992,-20.41416z" data-paper-data="{&quot;index&quot;:null}" fill="#ff5d5d" stroke="none" stroke-width="2" stroke-linecap="butt"/><path d="M190.30788,137.63429c0.1323,-9.12712 7.63853,-16.41885 16.76564,-16.28656c9.12712,0.1323 16.41886,7.63854 16.28656,16.76565c-0.1323,9.12712 -7.63854,16.41885 -16.76565,16.28656c-9.12712,-0.1323 -16.41884,-7.63854 -16.28655,-16.76565z" fill="#000000" stroke="none" stroke-width="0" stroke-linecap="butt"/><path d="M284.22506,142.26863c-1.49716,11.66729 -11.80568,19.90819 -23.68189,19.73605c-8.02924,-0.11638 -15.47379,-3.91905 -19.62674,-10.52486c-1.85121,-2.94458 -2.44446,-5.76794 -2.90812,-9.2608c0.25861,-0.02032 44.96416,0.076 46.21673,0.0496z" data-paper-data="{&quot;index&quot;:null}" fill="#ff5d5d" stroke="none" stroke-width="2" stroke-linecap="butt"/><path d="M260.62207,155.18308c-9.12711,-0.1323 -16.41885,-7.63854 -16.28655,-16.76565c0.1323,-9.12712 7.63854,-16.41886 16.76564,-16.28656c9.12711,0.1323 16.41884,7.63854 16.28655,16.76565c-0.1323,9.12712 -7.63854,16.41886 -16.76564,16.28656z" data-paper-data="{&quot;index&quot;:null}" fill="#000000" stroke="none" stroke-width="0" stroke-linecap="butt"/><g fill="none" stroke="#ff0000" stroke-width="1" stroke-linecap="butt"><path d="M212.44643,146.59293c-0.38626,0.27697 -5.73698,-3.06033 -5.73698,-3.06033c0,0 -5.32088,3.32683 -5.7746,2.99294c-0.42985,-0.31603 1.13721,-6.40384 1.13721,-6.40384c0,0 -4.74027,-4.23532 -4.63018,-4.56721c0.11133,-0.33596 6.44131,-0.89714 6.44131,-0.89714c0,0 2.543,-5.818 2.91177,-5.8161c0.39889,0.00229 2.84564,5.84967 2.84564,5.84967c0,0 6.35258,0.73186 6.42921,0.97318c0.11199,0.35006 -4.6827,4.51234 -4.6827,4.51234c0,0 1.27102,6.26501 1.05932,6.41648z"/><path d="M209.78959,143.00068c-0.20739,0.14871 -3.08022,-1.64311 -3.08022,-1.64311c0,0 -2.85681,1.7862 -3.10041,1.60693c-0.23078,-0.16968 0.61058,-3.43825 0.61058,-3.43825c0,0 -2.54508,-2.27397 -2.48597,-2.45216c0.05977,-0.18038 3.45837,-0.48168 3.45837,-0.48168c0,0 1.36535,-3.12372 1.56334,-3.12269c0.21416,0.00122 1.52784,3.14072 1.52784,3.14072c0,0 3.41073,0.39293 3.45188,0.5225c0.06012,0.18795 -2.51416,2.4227 -2.51416,2.4227c0,0 0.68241,3.36371 0.56875,3.44505z"/></g><g data-paper-data="{&quot;index&quot;:null}" fill="none" stroke="#ff0000" stroke-width="1" stroke-linecap="butt"><path d="M256.49899,140.13028c0,0 -4.67204,-4.29948 -4.54995,-4.64616c0.0836,-0.23901 6.45472,-0.78643 6.45472,-0.78643c0,0 2.6152,-5.77401 3.01398,-5.76473c0.36868,0.00878 2.74198,5.89805 2.74198,5.89805c0,0 6.31106,0.74441 6.4126,1.08345c0.10043,0.33494 -4.76061,4.4311 -4.76061,4.4311c0,0 1.38994,6.13067 0.95113,6.43411c-0.46321,0.3206 -5.68542,-3.15906 -5.68542,-3.15906c0,0 -5.4452,3.18082 -5.82327,2.89277c-0.20722,-0.15754 1.24484,-6.38308 1.24484,-6.38308z"/><path d="M258.68235,139.57249c0,0 -2.50844,-2.30842 -2.44289,-2.49455c0.04489,-0.12832 3.46557,-0.42224 3.46557,-0.42224c0,0 1.40412,-3.10009 1.61823,-3.09512c0.19794,0.00472 1.47219,3.1667 1.47219,3.1667c0,0 3.38843,0.39967 3.44296,0.58171c0.05392,0.17983 -2.556,2.37908 -2.556,2.37908c0,0 0.74627,3.29159 0.51067,3.4545c-0.24869,0.17213 -3.05254,-1.69612 -3.05254,-1.69612c0,0 -2.92356,1.70779 -3.12654,1.55314c-0.11126,-0.08458 0.66837,-3.42711 0.66837,-3.42711z"/></g><path d="M181.1824,131.14533l2.25959,1.56625" fill="none" stroke="#000000" stroke-width="1" stroke-linecap="round"/><path d="M286.19762,129.61721l-2.30403,1.50009" data-paper-data="{&quot;index&quot;:null}" fill="none" stroke="#000000" stroke-width="1" stroke-linecap="round"/><path d="M183.15592,137.80627c0.18795,-12.96664 10.85186,-23.32582 23.8185,-23.13787c12.96664,0.18795 23.32582,10.85186 23.13787,23.8185c0,0 -21.17763,-2.08658 -31.54958,-2.07473c-12.8451,0.01467 -15.41667,2.0754 -15.4068,1.3941z" fill="url(#color-6)" stroke="none" stroke-width="0" stroke-linecap="butt"/><path d="M284.87465,138.03054c-0.00987,0.6813 -4.24244,-3.41154 -17.08171,-3.7985c-10.36725,-0.31245 -29.87466,3.11787 -29.87466,3.11787c0.18795,-12.96664 10.85186,-23.32582 23.8185,-23.13787c12.96664,0.18795 23.32582,10.85186 23.13787,23.8185z" data-paper-data="{&quot;index&quot;:null}" fill="url(#color-7)" stroke="none" stroke-width="0" stroke-linecap="butt"/><path d="M296.07324,143.09866c-0.00734,0.50621 -0.38635,0.91117 -0.84653,0.9045c-0.46019,-0.00667 -0.8273,-0.42245 -0.81996,-0.92865c0.00734,-0.50621 0.38635,-0.91117 0.84653,-0.9045c0.46019,0.00667 0.82729,0.42245 0.81995,0.92865z" fill="#000000" stroke="none" stroke-width="0" stroke-linecap="butt"/><path d="M241.36269,103.45542c-0.004,0.27611 -0.51087,0.49265 -1.13213,0.48364c-0.62125,-0.009 -1.12164,-0.24014 -1.11764,-0.51625c0.004,-0.27611 0.51088,-0.49265 1.13213,-0.48364c0.62125,0.009 1.12163,0.24014 1.11763,0.51625z" fill="#000000" stroke="none" stroke-width="0" stroke-linecap="butt"/><g><g fill="url(#color-8)" stroke="none" stroke-width="0" stroke-linecap="butt"><path d="M252.05128,175.01617c-0.06724,0.98435 0.54215,3.46032 -2.71217,5.65357c-0.76766,0.51736 -9.02339,5.06421 -15.40864,5.20943c-8.07658,0.1837 -14.59991,-4.14037 -15.14045,-4.48596c-5.24383,-3.3527 -8.14721,-7.59604 -8.03859,-9.18577c0.0284,-0.41555 9.99181,2.44253 20.30978,3.14422c10.64833,0.72417 21.00984,-0.62471 20.99007,-0.33549z"/></g><path d="M216.47792,179.61926l4.899,-1.3142l3.93891,2.02603l4.32077,-1.53894l4.12161,2.49931l5.12111,-2.40377l4.21645,2.59805l4.12182,-1.3687l1.73933,0.49035" fill="none" stroke="#000000" stroke-width="0.5" stroke-linecap="round"/></g><path d="M195.44508,161.46768l1.03302,-2.27099" fill="none" stroke="#000000" stroke-width="0.5" stroke-linecap="round"/><path d="M201.97442,164.41977l-0.09315,-3.43028" fill="none" stroke="#000000" stroke-width="0.5" stroke-linecap="round"/><path d="M272.58968,159.44269l0.5579,4.63357" fill="none" stroke="#000000" stroke-width="0.5" stroke-linecap="round"/><path d="M279.84617,159.0478l-2.07405,-3.53043" fill="none" stroke="#000000" stroke-width="0.5" stroke-linecap="round"/></g></g></svg>