<svg version="1.1" xmlns="http://www.w3.org/2000/svg" xmlns:xlink="http://www.w3.org/1999/xlink" width="34.17311" height="34.17311" viewBox="0,0,34.17311,34.17311"><defs><radialGradient cx="241.33375" cy="181.79971" r="14.72071" gradientUnits="userSpaceOnUse" id="color-1"><stop offset="0" stop-color="#c9e2f0"/><stop offset="1" stop-color="#81caef"/></radialGradient></defs><g transform="translate(-222.9135,-162.9135)"><g data-paper-data="{&quot;isPaintingLayer&quot;:true}" stroke-miterlimit="10" stroke-dasharray="" stroke-dashoffset="0" style="mix-blend-mode: normal"><path d="M229.98316,162.9135h20.03379c3.9166,0 7.06966,3.15307 7.06966,7.06966v20.03379c0,3.91659 -3.15306,7.06966 -7.06966,7.06966h-20.03379c-3.91659,0 -7.06966,-3.15307 -7.06966,-7.06966v-20.03379c0,-3.91659 3.15307,-7.06966 7.06966,-7.06966z" fill="#94dbff" fill-rule="evenodd" stroke="none" stroke-width="4.43922" stroke-linecap="round" stroke-linejoin="round"/><g fill-rule="nonzero" stroke="#000000" stroke-width="0.5" stroke-linecap="butt" stroke-linejoin="miter"><path d="M253.00731,170.73047c0.87712,2.46939 2.41247,6.39802 1.67582,10.28598c-0.77983,4.11587 -4.00165,8.17647 -9.3672,10.05066c-3.65959,1.2783 -7.66452,0.98783 -10.53689,-0.16203c-5.31714,-2.12854 -8.36682,-7.17488 -9.53916,-10.47543c-1.80564,-5.08354 3.10325,-4.12707 13.53722,-7.77166c10.43398,-3.64459 12.42455,-7.01105 14.2302,-1.92751z" fill="url(#color-1)"/><path d="M251.46156,168.87504c0.65593,1.84666 -5.69471,3.74314 -13.01394,6.29975c-7.31923,2.55661 -12.83542,4.80521 -13.49133,2.95855c-0.65593,-1.84666 5.14164,-4.30165 12.46086,-6.85826c7.31923,-2.55661 13.38848,-4.2467 14.04441,-2.40004z" fill="#649eba"/></g></g></g></svg>