<svg version="1.1" xmlns="http://www.w3.org/2000/svg" xmlns:xlink="http://www.w3.org/1999/xlink" width="208.3718" height="267.22501" viewBox="0,0,208.3718,267.22501"><defs><radialGradient cx="242.75" cy="92.87162" r="42.87838" gradientUnits="userSpaceOnUse" id="color-1"><stop offset="0" stop-color="#ffffff"/><stop offset="1" stop-color="#ffffff" stop-opacity="0"/></radialGradient></defs><g transform="translate(-135.7795,-46.38751)"><g data-paper-data="{&quot;isPaintingLayer&quot;:true}" fill-rule="nonzero" stroke-linejoin="miter" stroke-miterlimit="10" stroke-dasharray="" stroke-dashoffset="0" style="mix-blend-mode: normal"><path d="M284.5,92.87162c0,23.68108 -18.69211,42.87838 -41.75,42.87838c-23.05789,0 -41.75,-19.1973 -41.75,-42.87838c0,-23.68108 18.69211,-42.87837 41.75,-42.87837c23.05789,0 41.75,19.1973 41.75,42.87837z" fill="url(#color-1)" stroke="none" stroke-width="0" stroke-linecap="butt"/><path d="M179.28376,313.61252v-267.22501h123.18203v267.22501z" fill-opacity="0.01" fill="#000000" stroke="none" stroke-width="0" stroke-linecap="butt"/><path d="M206.75008,307.5l15.14285,-131.8421l37.78325,-0.15789l13.57389,132z" fill="#73214c" stroke="#000000" stroke-width="2" stroke-linecap="butt"/><path d="M218.9503,214.36263l3.87142,-36.57765l35.83075,-0.14203l3.76735,36.1059c0,0 -14.31001,4.17734 -21.1187,4.27348c-7.59503,0.10724 -22.35082,-3.6597 -22.35082,-3.6597z" fill="#5e1b3e" stroke="#000000" stroke-width="0" stroke-linecap="butt"/><path d="M179.28378,313.61252v-267.22501h123.18203v267.22501z" fill-opacity="0.01" fill="#000000" stroke="none" stroke-width="0" stroke-linecap="butt"/><path d="M206.7501,307.5l15.14285,-131.8421l37.78325,-0.15789l13.57389,132z" fill="#73214c" stroke="#000000" stroke-width="2" stroke-linecap="butt"/><path d="M218.95032,214.36263l3.87142,-36.57765l35.83075,-0.14203l3.76735,36.1059c0,0 -14.31001,4.17734 -21.1187,4.27348c-7.59503,0.10724 -22.35082,-3.6597 -22.35082,-3.6597z" fill="#5e1b3e" stroke="#000000" stroke-width="0" stroke-linecap="butt"/><path d="M264.56336,82.13245c0.62906,5.76477 -21.40307,9.54476 -36.50128,11.1923c-15.0982,1.64754 -36.65587,3.63009 -37.28493,-2.13468c-0.62906,-5.76477 19.90868,-17.09386 35.00689,-18.7414c15.0982,-1.64754 38.15026,3.91901 38.77932,9.68378z" fill="#ffffff" stroke="#000000" stroke-width="2" stroke-linecap="butt"/><g stroke-linecap="butt"><g><path d="M138.95858,222.29698c0,0 21.30962,-24.56859 23.33614,-37.95151c3.17666,-20.97842 -1.39517,-83.82717 0.18397,-100.68756c0.07494,-0.8002 32.24198,0.7672 64.52992,-2.97906c32.59063,-3.78139 65.80098,-12.18413 65.80098,-12.18413c0,0 10.95551,75.20342 18.9773,98.79163c4.87164,14.32514 31.89641,30.40276 31.35644,30.44429c-2.82826,0.21753 -25.47993,-6.43831 -59.61444,-2.00433c-13.97662,1.81553 -28.94021,9.3897 -43.90028,10.84986c-15.77014,1.53922 -37.07794,-3.34381 -50.86034,-1.72993c-29.81672,3.49144 -49.80973,17.45074 -49.80973,17.45074z" fill="#d21869" stroke="#000000" stroke-width="2"/><path d="M162.47908,83.35529c0.07494,-0.8002 32.24198,0.76721 64.52992,-2.97906c32.59063,-3.78139 65.80098,-12.18414 65.80098,-12.18414c0,0 0.91073,6.25171 2.39931,15.71545c-2.75445,1.21589 -5.36633,2.6489 -7.46974,4.68152c-0.73211,0.70747 -2.1599,1.76787 -2.38689,2.76747c-0.11281,-0.16448 -0.22561,-0.32898 -0.33842,-0.49345c-3.9563,-5.76779 -13.21157,-4.62035 -19.76844,-3.31897c-2.89494,0.5758 -6.12641,0.87792 -8.92393,1.76496c-3.76318,1.19324 -7.37717,3.43624 -10.8084,5.23978c-0.84592,0.68797 -3.28323,3.1997 -4.46861,3.20305c-0.51127,0.00144 -0.60657,-0.7168 -0.85441,-1.10647c-0.68901,-1.08339 -1.26569,-2.07361 -2.22087,-2.99679c-1.83954,-1.77791 -5.67003,-2.95819 -8.41462,-3.12075c-6.64376,-0.36684 -14.86034,0.35065 -20.95304,3.0167c-4.44405,1.94856 -7.87934,4.46099 -11.65517,7.28273c-0.5543,0.41424 -2.99629,2.79786 -3.54427,2.81005c-0.54284,0.01207 -0.7053,-0.71413 -1.08644,-1.04682c-1.86242,-2.00941 -5.64507,-4.43848 -8.75173,-4.49422c-3.65175,-0.06554 -7.46897,1.40905 -10.95871,2.27867c-3.70489,1.53136 -7.21283,2.80944 -10.33949,4.6974c-0.19173,-9.40821 -0.20939,-17.20759 0.21298,-21.71713z" fill="#ffffff" stroke="none" stroke-width="0"/><path d="M138.94255,222.15011c0,0 21.30962,-24.5686 23.33614,-37.95152c3.17666,-20.97842 -1.39517,-83.82716 0.18397,-100.68755c0.07494,-0.8002 32.24198,0.76721 64.52992,-2.97906c32.59063,-3.78139 65.80098,-12.18414 65.80098,-12.18414c0,0 10.95551,75.20341 18.9773,98.79163c4.87164,14.32514 31.89641,30.40276 31.35644,30.44429c-2.82826,0.21753 -25.47993,-6.43831 -59.61444,-2.00433c-13.97662,1.81553 -28.94021,9.3897 -43.90028,10.84986c-15.77014,1.53922 -37.07794,-3.34381 -50.86034,-1.72993c-29.81672,3.49144 -49.80973,17.45074 -49.80973,17.45074z" fill="none" stroke="#000000" stroke-width="2"/></g><path d="M181.6755,173.20874c1.43786,13.17662 -8.41919,25.06118 -22.01634,26.54493c-1.51314,0.16512 -3.00883,0.19448 -4.4742,0.09808c1.13385,-1.32593 4.19122,-3.25703 4.47715,-5.4058c0.52267,-1.0336 2.1277,-6.23665 2.78065,-10.86974c0.48212,-3.42085 0.00949,-6.3309 0.45028,-8.05622c1.5101,-5.97373 -0.39255,-12.32394 0.14882,-18.39461c-0.09496,-1.46082 -0.14152,-3.01652 -0.18845,-4.6159c9.89761,2.24657 17.6903,10.32738 18.82209,20.69924z" fill="#ffffff" stroke="none" stroke-width="0"/><path d="M303.91551,135.20524c0.29911,1.57186 0.58917,3.10099 0.81151,4.5479c1.83795,5.81103 1.34964,12.42216 4.1126,17.9296c0.80254,1.58965 0.96866,4.53315 2.17722,7.76949c1.63683,4.38322 4.32625,9.11765 5.05954,10.01419c0.74264,2.03653 4.14455,3.26278 5.53768,4.31297c-1.41009,0.41017 -2.87691,0.7041 -4.39006,0.86921c-13.59715,1.48375 -25.78542,-7.99519 -27.22328,-21.17181c-1.13179,-10.37187 4.73464,-19.9432 13.91479,-24.27155z" data-paper-data="{&quot;index&quot;:null}" fill="#ffffff" stroke="none" stroke-width="0"/><g fill="none"><path d="M138.95858,222.29698c0,0 21.30962,-24.56859 23.33614,-37.95151c3.17666,-20.97842 -1.39517,-83.82717 0.18397,-100.68756c0.07494,-0.8002 32.24198,0.7672 64.52992,-2.97906c32.59063,-3.78139 65.80098,-12.18413 65.80098,-12.18413c0,0 10.95551,75.20342 18.9773,98.79163c4.87164,14.32514 31.89641,30.40276 31.35644,30.44429c-2.82826,0.21753 -25.47993,-6.43831 -59.61444,-2.00433c-13.97662,1.81553 -28.94021,9.3897 -43.90028,10.84986c-15.77014,1.53922 -37.07794,-3.34381 -50.86034,-1.72993c-29.81672,3.49144 -49.80973,17.45074 -49.80973,17.45074z" stroke="#000000" stroke-width="2"/><path d="M162.47908,83.35529c0.07494,-0.8002 32.24198,0.76721 64.52992,-2.97906c32.59063,-3.78139 65.80098,-12.18414 65.80098,-12.18414c0,0 0.91073,6.25171 2.39931,15.71545c-2.75445,1.21589 -5.36633,2.6489 -7.46974,4.68152c-0.73211,0.70747 -2.1599,1.76787 -2.38689,2.76747c-0.11281,-0.16448 -0.22561,-0.32898 -0.33842,-0.49345c-3.9563,-5.76779 -13.21157,-4.62035 -19.76844,-3.31897c-2.89494,0.5758 -6.12641,0.87792 -8.92393,1.76496c-3.76318,1.19324 -7.37717,3.43624 -10.8084,5.23978c-0.84592,0.68797 -3.28323,3.1997 -4.46861,3.20305c-0.51127,0.00144 -0.60657,-0.7168 -0.85441,-1.10647c-0.68901,-1.08339 -1.26569,-2.07361 -2.22087,-2.99679c-1.83954,-1.77791 -5.67003,-2.95819 -8.41462,-3.12075c-6.64376,-0.36684 -14.86034,0.35065 -20.95304,3.0167c-4.44405,1.94856 -7.87934,4.46099 -11.65517,7.28273c-0.5543,0.41424 -2.99629,2.79786 -3.54427,2.81005c-0.54284,0.01207 -0.7053,-0.71413 -1.08644,-1.04682c-1.86242,-2.00941 -5.64507,-4.43848 -8.75173,-4.49422c-3.65175,-0.06554 -7.46897,1.40905 -10.95871,2.27867c-3.70489,1.53136 -7.21283,2.80944 -10.33949,4.6974c-0.19173,-9.40821 -0.20939,-17.20759 0.21298,-21.71713z" stroke="none" stroke-width="0"/><path d="M138.94255,222.15011c0,0 21.30962,-24.5686 23.33614,-37.95152c3.17666,-20.97842 -1.39517,-83.82716 0.18397,-100.68755c0.07494,-0.8002 32.24198,0.76721 64.52992,-2.97906c32.59063,-3.78139 65.80098,-12.18414 65.80098,-12.18414c0,0 10.95551,75.20341 18.9773,98.79163c4.87164,14.32514 31.89641,30.40276 31.35644,30.44429c-2.82826,0.21753 -25.47993,-6.43831 -59.61444,-2.00433c-13.97662,1.81553 -28.94021,9.3897 -43.90028,10.84986c-15.77014,1.53922 -37.07794,-3.34381 -50.86034,-1.72993c-29.81672,3.49144 -49.80973,17.45074 -49.80973,17.45074z" stroke="#000000" stroke-width="2"/></g></g><g stroke-linecap="butt"><path d="M179.20552,142.10479c-1.40674,-12.89147 7.90348,-24.48247 20.79495,-25.88922c12.89147,-1.40674 24.48247,7.90348 25.88922,20.79495c1.40674,12.89147 -7.90348,24.48247 -20.79495,25.88922c-12.89147,1.40674 -24.48247,-7.90348 -25.88922,-20.79495z" fill="#ffffff" stroke="#000000" stroke-width="2"/><path d="M186.19931,141.06431c-0.9902,-9.07422 5.56319,-17.23302 14.6374,-18.22321c9.07422,-0.9902 17.23302,5.5632 18.22321,14.63741c0.9902,9.07422 -5.5632,17.23302 -14.63741,18.22321c-9.07422,0.9902 -17.23301,-5.5632 -18.2232,-14.6374z" fill="#000000" stroke="none" stroke-width="0"/><path d="M188.64352,112.09541c0,0 6.10861,-5.86648 11.03729,-7.60573c4.92869,-1.73925 12.33721,-0.64273 12.33721,-0.64273c0,0 -7.99723,0.81203 -11.80349,2.1552c-3.97769,1.40367 -11.57101,6.09326 -11.57101,6.09326z" fill="#000000" stroke="none" stroke-width="0"/></g><g stroke-linecap="butt"><path d="M265.82599,156.27259c-12.89147,1.40674 -24.48247,-7.90348 -25.88922,-20.79495c-1.40674,-12.89147 7.90348,-24.48247 20.79495,-25.88922c12.89147,-1.40674 24.48247,7.90348 25.88922,20.79495c1.40674,12.89147 -7.90348,24.48247 -20.79495,25.88922z" data-paper-data="{&quot;index&quot;:null}" fill="#ffffff" stroke="#000000" stroke-width="2"/><path d="M264.92996,149.09904c-9.07421,0.9902 -17.23301,-5.5632 -18.2232,-14.6374c-0.9902,-9.07422 5.5632,-17.23302 14.6374,-18.22321c9.07421,-0.9902 17.23301,5.5632 18.2232,14.6374c0.9902,9.07422 -5.5632,17.23302 -14.6374,18.22321z" data-paper-data="{&quot;index&quot;:null}" fill="#000000" stroke="none" stroke-width="0"/><path d="M258.47283,99.6449c-4.00637,-0.49064 -11.99052,0.44124 -11.99052,0.44124c0,0 6.99767,-2.66855 12.18547,-2.03323c5.18779,0.63532 12.4179,5.04626 12.4179,5.04626c0,0 -8.42606,-2.94154 -12.61286,-3.45428z" data-paper-data="{&quot;index&quot;:null}" fill="#000000" stroke="none" stroke-width="0"/></g><path d="M179.39141,141.83301c-1.40674,-12.89147 7.85897,-24.47762 20.69555,-25.87837c12.83657,-1.40075 24.38307,7.91433 25.78981,20.80581c0,0 -7.08643,-3.70529 -15.78146,-4.574c-2.33635,-0.23341 -5.83842,-0.14751 -8.09353,0.13296c-2.62683,0.32671 -6.54933,1.2666 -8.89699,2.07215c-8.75223,3.00315 -13.65667,7.9612 -13.71339,7.44144z" fill="#d21869" stroke="#000000" stroke-width="2" stroke-linecap="butt"/><path d="M286.92888,130.23244c0.05672,0.51975 -5.82464,-3.26134 -15.05697,-4.30196c-2.47646,-0.27914 -6.52635,-0.34908 -9.17308,-0.10032c-2.27218,0.21356 -5.72521,0.88659 -7.96599,1.61949c-8.33938,2.72754 -14.48815,7.87708 -14.48815,7.87708c-1.40674,-12.89147 7.90348,-24.48247 20.79495,-25.88922c12.89147,-1.40674 24.48247,7.90348 25.88922,20.79495z" data-paper-data="{&quot;index&quot;:null}" fill="#d21869" stroke="#000000" stroke-width="2" stroke-linecap="butt"/><path d="M175.36403,122.42936l6.77129,3.28485" fill="none" stroke="#000000" stroke-width="2" stroke-linecap="round"/><path d="M188.90256,119.35929l-2.24146,-6.71314" fill="none" stroke="#000000" stroke-width="2" stroke-linecap="round"/><g fill="none" stroke="#000000" stroke-width="2" stroke-linecap="round"><path d="M287.98416,111.64895l-5.90346,4.66795" data-paper-data="{&quot;index&quot;:null}"/><path d="M274.10215,111.57107l0.74084,-7.03857" data-paper-data="{&quot;index&quot;:null}"/></g><path d="M249.22233,176.11193c0,0 -3.63859,4.4208 -12.38506,5.51892c-7.21019,0.90526 -12.57635,-2.79508 -12.57635,-2.79508" fill="none" stroke="#000000" stroke-width="2" stroke-linecap="round"/></g></g></svg>