<svg version="1.1" xmlns="http://www.w3.org/2000/svg" xmlns:xlink="http://www.w3.org/1999/xlink" width="134.23625" height="267.22501" viewBox="0,0,134.23625,267.22501"><defs><radialGradient cx="229.24544" cy="104.35234" r="63.7549" gradientUnits="userSpaceOnUse" id="color-1"><stop offset="0" stop-color="#ffffff"/><stop offset="1" stop-color="#c3c3c3"/></radialGradient></defs><g transform="translate(-166.95559,-46.38752)"><g data-paper-data="{&quot;isPaintingLayer&quot;:true}" fill-rule="nonzero" stroke-linejoin="miter" stroke-miterlimit="10" stroke-dasharray="" stroke-dashoffset="0" style="mix-blend-mode: normal"><path d="M296.29996,122.24609c1.41426,10.56703 -28.64076,7.06438 -63.54044,11.73527c-34.89968,4.67088 -63.38966,13.65491 -64.80393,3.08787c-0.77269,-5.77331 -0.31088,-27.37281 11.34553,-40.01624c5.92013,-6.42141 13.52168,-12.5474 23.7299,-16.77123c6.48079,-2.68154 15.22193,-4.55757 21.36999,-5.38041c12.70161,-1.69995 24.56592,-3.89123 37.35311,0.91228c1.23921,0.46551 14.64175,5.77333 20.82583,14.60832c8.70836,12.44134 13.72,31.82414 13.72,31.82414z" fill="url(#color-1)" stroke="#000000" stroke-width="2" stroke-linecap="butt"/><path d="M178.00981,313.61253v-267.22501h123.18203v267.22501z" fill-opacity="0.01" fill="#000000" stroke="none" stroke-width="0" stroke-linecap="butt"/><g fill="#9a9a9a" stroke="none" stroke-width="0" stroke-linecap="butt"><path d="M201.02594,114.82303l-0.18764,-27.66604l37.99913,-0.25771l0.18764,27.66603z"/><path d="M212.1091,96.73436l-0.09969,-14.69967l3.28688,-0.02229l0.09969,14.69967z"/><path d="M212.21258,84.42503l-0.01631,-2.40471l14.92719,-0.10124l0.01631,2.40472z"/><path d="M224.02235,96.72499l-0.09969,-14.69966l3.28688,-0.02229l0.0997,14.69966z"/></g><g stroke="none" stroke-width="0" stroke-linecap="butt"><path d="M226.86575,110.31772c4.61873,5.39182 3.94271,13.54922 -1.50993,18.22006c-5.45265,4.67084 -13.61712,4.08637 -18.23585,-1.30545c-4.61873,-5.39182 -3.94271,-13.54922 1.50994,-18.22006c5.45265,-4.67084 13.61711,-4.08637 18.23585,1.30545z" fill="#9a9a9a"/><path d="M222.68856,125.7165c-3.38064,2.89592 -8.15987,3.08148 -11.65314,0.74885c0.93127,-0.39196 2.0779,-0.9554 2.59821,-1.81208c0.67641,-1.11369 0.67137,-2.26349 1.67031,-3.26243c0.88322,-0.88321 2.03936,-0.86939 3.09687,-1.46013c1.27097,-0.77128 1.46743,-1.94189 2.41805,-2.93806c0.91468,-0.95851 2.26579,-0.82374 3.16693,-1.956c0.3433,-0.43134 0.60145,-0.93646 0.85444,-1.44859c2.2546,3.92285 1.44793,9.04496 -2.15167,12.12844z" fill="#cacaca"/><path d="M208.18126,114.98867l-3.90337,-4.55672l6.7507,-5.78277l3.90337,4.55672z" fill="#9a9a9a"/><path d="M206.30248,110.74591l-2.67453,-3.1222l4.6411,-3.97565l2.67453,3.1222z" fill="#9a9a9a"/></g><g stroke="none" stroke-width="0" stroke-linecap="butt"><path d="M183.82106,128.5238c0,0 -0.83137,-1.1288 -0.70725,-2.93433c0.14515,-2.11146 1.22945,-5.10757 0.91202,-7.68772c-0.19012,-1.54538 -0.87143,-5.09253 -0.87143,-6.18747c0,-3.84201 0.66666,-8.47619 0.66666,-8.47619h10.42857c0,0 0.88889,2.99161 0.88889,6.80953c0,1.68241 -0.32637,6.05116 -0.73498,8.49668c-0.32788,1.96231 1.10977,5.62023 1.30725,7.16174c0.21447,1.67412 -1.46116,2.81776 -1.46116,2.81776z" fill="#9a9a9a"/><path d="M186.39249,110.23809v-12h4.85715v12z" fill="#9a9a9a"/><path d="M182.93812,120.83928v-7.75h12.08334v7.75z" fill="#5f5f5f"/></g><path d="M240.69343,94.17882l8.51497,-16.08525l12.72679,6.73712l-8.51497,16.08525z" fill="#9a9a9a" stroke="none" stroke-width="0" stroke-linecap="butt"/><path d="M206.47614,306.30001l15.14285,-131.8421l37.78325,-0.15789l13.57389,132z" fill="#5fd6f4" stroke="#000000" stroke-width="2" stroke-linecap="butt"/><path d="M219.42636,202.91271l3.12142,-26.32765l35.83075,-0.14203l2.76735,26.1059c0,0 -7.51543,4.19603 -21.55904,4.50964c-12.48458,0.27879 -20.16049,-4.14586 -20.16049,-4.14586z" fill="#387e8f" stroke="#000000" stroke-width="0" stroke-linecap="butt"/><path d="M218.1129,201.37753c0,0 -0.86037,-1.64644 -1.18821,-3.42169c-0.34066,-1.84471 -0.14619,-3.82852 0.02426,-4.24864c0.80908,-1.99419 2.99728,-3.99633 2.99728,-3.99633l40.16666,0.5c0,0 2.58695,1.45609 3.27161,3.19102c0.40553,1.02761 0.22839,2.86943 0.22839,3.47565c0,0.73804 -0.05964,2.54278 -1.11019,3.48972c-1.03264,0.9308 -3.05648,2.01028 -3.05648,2.01028z" fill="#54bed8" stroke="#000000" stroke-width="2" stroke-linecap="butt"/><path d="M249.68928,238.88701c-2.12043,1.56754 -9.37984,-4.83026 -9.37984,-4.83026c0,0 -7.15111,6.52447 -9.29851,4.99165c-2.14911,-1.53259 1.69445,-10.41655 1.69445,-10.41655c0,0 -8.41373,-4.78548 -7.61958,-7.30111c0.79398,-2.51748 10.4295,-1.60702 10.4295,-1.60702c0,0 1.94919,-9.48018 4.58738,-9.50471c2.64192,-0.02316 4.75443,9.42378 4.75443,9.42378c0,0 9.61861,-1.07594 10.45386,1.42773c0.84036,2.50147 -7.49126,7.43109 -7.49126,7.43109c0,0 3.99534,8.81736 1.86957,10.3854z" fill="#ffff00" stroke="#000000" stroke-width="2" stroke-linecap="butt"/><path d="M227.23488,200.53316l0.25,-4.5" fill="none" stroke="#000000" stroke-width="2" stroke-linecap="round"/><path d="M240.48488,196.53316l0.125,3.75" fill="none" stroke="#000000" stroke-width="2" stroke-linecap="round"/><path d="M255.35988,201.90816l0.125,-7.125" fill="none" stroke="#000000" stroke-width="2" stroke-linecap="round"/><path d="M169.49464,148.51501c-0.6075,-4.53912 -3.25779,-16.24078 0.47186,-20.08959c2.39223,-2.46866 44.79901,-8.72493 58.13586,-10.73757c20.08131,-3.03043 62.82611,-5.88537 64.47945,-4.49817c3.00827,2.52404 4.27548,14.6969 4.74652,18.21639c4.41765,33.00754 -20.6177,63.5954 -55.91798,68.3199c-35.30029,4.7245 -67.49805,-18.20344 -71.91569,-51.21096z" fill="#ec3434" stroke="#000000" stroke-width="2" stroke-linecap="butt"/><path d="M170.22124,148.47206c-0.09657,-0.72156 12.59868,54.73182 70.59725,47.99339c55.4152,-6.43828 55.50925,-65.8991 55.64441,-64.88925c4.35171,32.51487 -20.3807,62.65566 -55.24137,67.32132c-34.86066,4.66566 -66.64858,-17.91058 -71.00029,-50.42545z" fill="#a12323" stroke="#000000" stroke-width="0" stroke-linecap="butt"/><path d="M294.28802,113.18233c0.5887,4.39862 -32.35412,9.55475 -63.73861,13.75517c-31.38448,4.20042 -61.31467,6.73843 -61.90337,2.33981c-0.5887,-4.39862 29.85316,-8.13908 61.23765,-12.3395c31.38448,-4.20042 63.81564,-8.1541 64.40434,-3.75548z" fill="#b10000" stroke="#000000" stroke-width="2" stroke-linecap="butt"/><path d="M182.98161,147.14325c-1.72027,-12.85339 7.30492,-24.66769 20.15832,-26.38795c12.85339,-1.72027 24.66769,7.30492 26.38795,20.15832c1.72027,12.85339 -7.30492,24.66769 -20.15832,26.38795c-12.85339,1.72027 -24.66769,-7.30492 -26.38795,-20.15832z" fill="#ffffff" stroke="#000000" stroke-width="2" stroke-linecap="butt"/><path d="M184.74798,147.33279c-1.21088,-9.04741 5.14187,-17.36338 14.18927,-18.57427c9.04741,-1.21088 17.36339,5.14188 18.57427,14.18928c1.21088,9.04741 -5.14188,17.36339 -14.18928,18.57427c-9.04741,1.21088 -17.36338,-5.14188 -18.57426,-14.18928z" fill="#000000" stroke="none" stroke-width="0" stroke-linecap="butt"/><path d="M263.39625,160.07074c-12.85339,1.72027 -24.66769,-7.30492 -26.38795,-20.15832c-1.72027,-12.85339 7.30492,-24.66769 20.15832,-26.38795c12.85339,-1.72027 24.66769,7.30492 26.38795,20.15832c1.72027,12.85339 -7.30492,24.66769 -20.15832,26.38795z" data-paper-data="{&quot;index&quot;:null}" fill="#ffffff" stroke="#000000" stroke-width="2" stroke-linecap="butt"/><path d="M256.87802,153.3543c-9.0474,1.21088 -17.36338,-5.14188 -18.57426,-14.18928c-1.21088,-9.04741 5.14188,-17.36339 14.18927,-18.57427c9.0474,-1.21088 17.36338,5.14188 18.57426,14.18928c1.21088,9.04741 -5.14188,17.36339 -14.18927,18.57427z" data-paper-data="{&quot;index&quot;:null}" fill="#000000" stroke="none" stroke-width="0" stroke-linecap="butt"/><path d="M182.89901,147.15429c-1.72027,-12.85339 7.30492,-24.66769 20.15832,-26.38795c12.85339,-1.72027 24.66769,7.30492 26.38795,20.15832c0,0 -46.38291,7.4503 -46.54628,6.22964z" fill="#ec3434" stroke="#000000" stroke-width="2" stroke-linecap="butt"/><path d="M236.76053,139.94562c-1.72027,-12.85339 7.30492,-24.66769 20.15832,-26.38795c12.85339,-1.72027 24.66769,7.30492 26.38795,20.15832c0.16102,1.20307 -46.54628,6.22964 -46.54628,6.22964z" data-paper-data="{&quot;index&quot;:null}" fill="#ec3434" stroke="#000000" stroke-width="2" stroke-linecap="butt"/><path d="M191.68602,116.91293c0,0 5.96394,-6.01351 10.8488,-7.87227c4.88487,-1.85876 12.3179,-0.94299 12.3179,-0.94299c0,0 -7.97508,1.00655 -11.7475,2.44201c-3.94232,1.50012 -11.4192,6.37324 -11.4192,6.37324z" fill="#000000" stroke="none" stroke-width="0" stroke-linecap="butt"/><path d="M254.41846,103.67206c-4.01713,-0.39293 -11.97621,0.73311 -11.97621,0.73311c0,0 6.93062,-2.83816 12.13235,-2.32937c5.20173,0.50879 12.5371,4.74236 12.5371,4.74236c0,0 -8.49519,-2.73547 -12.69324,-3.1461z" data-paper-data="{&quot;index&quot;:null}" fill="#000000" stroke="none" stroke-width="0" stroke-linecap="butt"/><path d="M178.97793,144.75329l3.91309,2.09947" fill="none" stroke="#000000" stroke-width="2" stroke-linecap="round"/><path d="M283.10697,131.94959l3.71186,-3.9271" fill="none" stroke="#000000" stroke-width="2" stroke-linecap="round"/><path d="M199.3914,88.23809c1.17731,1.60217 -0.89887,5.12793 -4.63729,7.87499c-3.73842,2.74707 -7.7234,3.67517 -8.90071,2.07299c-1.17731,-1.60217 0.89887,-5.12793 4.63729,-7.87499c3.73842,-2.74707 7.7234,-3.67517 8.90071,-2.07299z" fill="#ffffff" stroke="none" stroke-width="0" stroke-linecap="butt"/><path d="M206.35369,84.94013c0.15385,1.14955 -0.65332,2.20616 -1.80287,2.36002c-1.14955,0.15385 -2.20616,-0.65332 -2.36002,-1.80287c-0.15385,-1.14955 0.65332,-2.20616 1.80287,-2.36002c1.14955,-0.15385 2.20616,0.65332 2.36002,1.80287z" fill="#ffffff" stroke="none" stroke-width="0" stroke-linecap="butt"/><path d="M244.68114,183.70757c0,5.20068 -3.05939,9.41667 -6.83333,9.41667c-3.77395,0 -6.83333,-4.21599 -6.83333,-9.41667c0,-5.20068 3.05939,-9.41667 6.83333,-9.41667c3.77395,0 6.83333,4.21599 6.83333,9.41667z" fill="#000000" stroke="#000000" stroke-width="2" stroke-linecap="butt"/></g></g></svg>