<svg version="1.1" xmlns="http://www.w3.org/2000/svg" xmlns:xlink="http://www.w3.org/1999/xlink" width="131.58449" height="267.22501" viewBox="0,0,131.58449,267.22501"><defs><radialGradient cx="235.09685" cy="102.52042" r="63.7549" gradientUnits="userSpaceOnUse" id="color-1"><stop offset="0" stop-color="#ffffff"/><stop offset="1" stop-color="#c3c3c3"/></radialGradient></defs><g transform="translate(-170.74468,-46.38752)"><g data-paper-data="{&quot;isPaintingLayer&quot;:true}" fill-rule="nonzero" stroke-linejoin="miter" stroke-miterlimit="10" stroke-dasharray="" stroke-dashoffset="0" style="mix-blend-mode: normal"><path d="M179.00981,313.61253v-267.22501h123.18203v267.22501z" fill-opacity="0.01" fill="#000000" stroke="none" stroke-width="0" stroke-linecap="butt"/><path d="M300.79553,124.88506c0.70011,10.63824 -29.05115,5.12143 -64.18601,7.43369c-35.13486,2.31225 -64.16473,9.35912 -64.86484,-1.27912c-0.38251,-5.81222 1.53147,-27.3317 14.01211,-39.16224c6.33875,-6.00855 14.33523,-11.60923 24.8045,-15.13668c6.64652,-2.23944 15.49407,-3.52312 21.68356,-3.93045c12.7872,-0.84154 24.77206,-2.22963 37.20709,3.42332c1.20508,0.54783 14.22015,6.74534 19.7958,15.97637c7.85157,12.99904 11.54779,32.67511 11.54779,32.67511z" fill="url(#color-1)" stroke="#000000" stroke-width="2" stroke-linecap="butt"/><g fill="#9a9a9a" stroke="none" stroke-width="0" stroke-linecap="butt"><path d="M210.0888,132.52736l-7.20254,-26.71269l36.68973,-9.89263l7.20253,26.71269z"/><path d="M216.2186,112.21818l-3.82689,-14.19313l3.17362,-0.85571l3.82689,14.19313z"/><path d="M213.19485,100.28558l-0.62604,-2.32184l14.41282,-3.88613l0.62604,2.32185z"/><path d="M227.73946,109.1858l-3.82689,-14.19313l3.17362,-0.8557l3.82689,14.19313z"/></g><g stroke="none" stroke-width="0" stroke-linecap="butt"><path d="M250.82326,74.38024c6.65116,2.48324 10.00723,9.94896 7.49598,16.67516c-2.51125,6.7262 -9.93886,10.1658 -16.59002,7.68256c-6.65116,-2.48324 -10.00722,-9.94896 -7.49597,-16.67515c2.51125,-6.7262 9.93885,-10.1658 16.59002,-7.68256z" fill="#9a9a9a"/><path d="M254.61981,89.87727c-1.55698,4.17024 -5.6495,6.64546 -9.83532,6.29468c0.62528,-0.79368 1.35602,-1.84164 1.39677,-2.84312c0.05297,-1.30193 -0.50786,-2.30568 -0.11711,-3.66329c0.34549,-1.20032 1.36392,-1.74772 2.00347,-2.77645c0.73898,-1.29001 0.3444,-2.4095 0.69421,-3.74129c0.33659,-1.28144 1.58417,-1.81735 1.82482,-3.24429c0.09168,-0.54361 0.07314,-1.11057 0.0467,-1.68116c3.87142,2.34182 5.64427,7.21457 3.98645,11.65491z" fill="#cacaca"/><path d="M236.73283,87.50989l-5.62101,-2.09863l3.10908,-8.32743l5.62101,2.09863z" fill="#9a9a9a"/><path d="M233.03548,84.70624l-3.85143,-1.43795l2.13749,-5.7251l3.85143,1.43795z" fill="#9a9a9a"/></g><g stroke="none" stroke-width="0" stroke-linecap="butt"><path d="M204.67727,82.84375c0,0 1.31661,-0.48157 3.01494,0.14377c1.98609,0.73129 4.55805,2.61208 7.12372,3.03074c1.53671,0.25076 5.13261,0.59123 6.18364,0.89821c3.68793,1.07713 7.94936,3.01628 7.94936,3.01628l-2.92372,10.01035c0,0 -3.12084,0.01453 -6.78564,-1.05585c-1.61494,-0.47167 -5.71699,-2.00976 -7.94988,-3.0876c-1.79169,-0.86487 -5.70597,-0.5104 -7.24102,-0.75301c-1.6671,-0.26348 -2.29511,-2.19254 -2.29511,-2.19254z" fill="#9a9a9a"/><path d="M221.50874,90.43857l11.51875,3.36428l-1.36173,4.66235l-11.51875,-3.36428z" fill="#9a9a9a"/><path d="M212.30116,84.15064l7.43919,2.17276l-3.38764,11.59875l-7.43919,-2.17276z" fill="#5f5f5f"/></g><path d="M270.9365,108.69322l-9.51818,-15.51271l12.27379,-7.53087l9.51818,15.51271z" fill="#9a9a9a" stroke="none" stroke-width="0" stroke-linecap="butt"/><path d="M206.47614,306.30001l15.14285,-131.8421l37.78325,-0.15789l13.57389,132z" fill="#5fd6f4" stroke="#000000" stroke-width="2" stroke-linecap="butt"/><path d="M219.42636,202.91267l3.12142,-26.32765l35.83075,-0.14203l2.76735,26.1059c0,0 -7.51543,4.19603 -21.55904,4.50964c-12.48458,0.27879 -20.16049,-4.14586 -20.16049,-4.14586z" fill="#387e8f" stroke="#000000" stroke-width="0" stroke-linecap="butt"/><path d="M218.1129,201.37752c0,0 -0.86037,-1.64644 -1.18821,-3.42169c-0.34066,-1.84471 -0.14619,-3.82852 0.02426,-4.24864c0.80908,-1.99419 2.99728,-3.99633 2.99728,-3.99633l40.16666,0.5c0,0 2.58695,1.45609 3.27161,3.19102c0.40553,1.02761 0.22839,2.86943 0.22839,3.47565c0,0.73804 -0.05964,2.54278 -1.11019,3.48972c-1.03264,0.9308 -3.05648,2.01028 -3.05648,2.01028z" fill="#54bed8" stroke="#000000" stroke-width="2" stroke-linecap="butt"/><path d="M249.68928,238.88697c-2.12043,1.56754 -9.37984,-4.83026 -9.37984,-4.83026c0,0 -7.15111,6.52447 -9.29851,4.99165c-2.14911,-1.53259 1.69445,-10.41655 1.69445,-10.41655c0,0 -8.41373,-4.78548 -7.61958,-7.30111c0.79398,-2.51748 10.4295,-1.60702 10.4295,-1.60702c0,0 1.94919,-9.48018 4.58738,-9.50471c2.64192,-0.02316 4.75443,9.42378 4.75443,9.42378c0,0 9.61861,-1.07594 10.45386,1.42773c0.84036,2.50147 -7.49126,7.43109 -7.49126,7.43109c0,0 3.99534,8.81736 1.86957,10.3854z" fill="#ffff00" stroke="#000000" stroke-width="2" stroke-linecap="butt"/><path d="M227.23488,200.53315l0.25,-4.5" fill="none" stroke="#000000" stroke-width="2" stroke-linecap="round"/><path d="M240.60988,200.28315l-0.125,-3.75" fill="none" stroke="#000000" stroke-width="2" stroke-linecap="round"/><path d="M255.48488,194.78315l-0.125,7.125" fill="none" stroke="#000000" stroke-width="2" stroke-linecap="round"/><path d="M172.5102,142.563c-0.30073,-4.56971 -2.15773,-16.42316 1.82241,-20.01232c2.5529,-2.30212 45.28452,-5.69109 58.72656,-6.80186c20.23969,-1.6725 63.07972,-1.6451 64.63598,-0.14981c2.83164,2.72072 3.27699,14.95125 3.51017,18.49446c2.18689,33.22997 -24.84967,62.06415 -60.38783,64.40295c-35.53817,2.3388 -66.12038,-22.70345 -68.30727,-55.9334z" fill="#ec3434" stroke="#000000" stroke-width="2" stroke-linecap="butt"/><path d="M173.23804,142.56903c-0.0478,-0.72643 8.88779,55.45544 67.2083,52.63442c55.7228,-2.69537 59.81715,-62.01513 59.88407,-60.99847c2.15425,32.73398 -24.54999,61.14248 -59.64557,63.45215c-35.09557,2.30967 -65.29254,-22.35411 -67.4468,-55.08808z" fill="#a12323" stroke="#000000" stroke-width="0" stroke-linecap="butt"/><path d="M299.39797,115.70646c0.29143,4.42826 -32.92365,7.35632 -64.51963,9.43568c-31.59597,2.07936 -61.6291,2.59792 -61.92053,-1.83034c-0.29143,-4.42826 30.33312,-6.11213 61.9291,-8.19148c31.59597,-2.07936 64.21965,-3.84212 64.51107,0.58614z" fill="#b10000" stroke="#000000" stroke-width="2" stroke-linecap="butt"/><path d="M186.05889,142.10177c-0.8516,-12.94001 8.948,-24.12032 21.88802,-24.97191c12.94001,-0.8516 24.12032,8.948 24.97191,21.88802c0.8516,12.94001 -8.948,24.12032 -21.88802,24.97191c-12.94001,0.8516 -24.12032,-8.948 -24.97191,-21.88802z" fill="#ffffff" stroke="#000000" stroke-width="2" stroke-linecap="butt"/><path d="M188.09092,142.02937c-0.59943,-9.10838 6.29842,-16.97809 15.4068,-17.57753c9.10838,-0.59943 16.9781,6.29843 17.57753,15.40681c0.59943,9.10838 -6.29843,16.9781 -15.40681,17.57753c-9.10838,0.59943 -16.97809,-6.29843 -17.57752,-15.4068z" fill="#000000" stroke="none" stroke-width="0" stroke-linecap="butt"/><path d="M265.42152,160.41024c-12.94001,0.8516 -24.12032,-8.948 -24.97191,-21.88802c-0.8516,-12.94001 8.948,-24.12032 21.88802,-24.97191c12.94001,-0.8516 24.12032,8.948 24.97191,21.88802c0.8516,12.94001 -8.948,24.12032 -21.88802,24.97191z" data-paper-data="{&quot;index&quot;:null}" fill="#ffffff" stroke="#000000" stroke-width="2" stroke-linecap="butt"/><path d="M260.25176,153.55454c-9.10837,0.59943 -16.97809,-6.29843 -17.57752,-15.4068c-0.59943,-9.10838 6.29843,-16.9781 15.4068,-17.57753c9.10837,-0.59943 16.97809,6.29843 17.57752,15.4068c0.59943,9.10838 -6.29843,16.9781 -15.4068,17.57753z" data-paper-data="{&quot;index&quot;:null}" fill="#000000" stroke="none" stroke-width="0" stroke-linecap="butt"/><path d="M185.97573,142.10723c-0.8516,-12.94001 8.948,-24.12032 21.88802,-24.97191c12.94001,-0.8516 24.12032,8.948 24.97191,21.88802c0,0 -46.77907,4.31278 -46.85994,3.0839z" fill="#ec3434" stroke="#000000" stroke-width="2" stroke-linecap="butt"/><path d="M240.20021,138.53867c-0.8516,-12.94001 8.948,-24.12032 21.88802,-24.97191c12.94001,-0.8516 24.12032,8.948 24.97191,21.88802c0.07972,1.21117 -46.85994,3.0839 -46.85994,3.0839z" data-paper-data="{&quot;index&quot;:null}" fill="#ec3434" stroke="#000000" stroke-width="2" stroke-linecap="butt"/><path d="M196.77747,112.52556c0,0 6.35502,-5.59863 11.35387,-7.12452c4.99886,-1.52589 12.35344,-0.1121 12.35344,-0.1121c0,0 -8.02473,0.46771 -11.88518,1.64611c-4.03431,1.23148 -11.82211,5.59052 -11.82211,5.59052z" fill="#000000" stroke="none" stroke-width="0" stroke-linecap="butt"/><path d="M260.25861,103.53532c-3.98159,-0.66231 -11.9984,-0.0743 -11.9984,-0.0743c0,0 7.10587,-2.36543 12.26158,-1.50783c5.15571,0.8576 12.18963,5.57511 12.18963,5.57511c0,0 -8.2919,-3.30083 -12.45281,-3.99297z" data-paper-data="{&quot;index&quot;:null}" fill="#000000" stroke="none" stroke-width="0" stroke-linecap="butt"/><path d="M185.98805,141.80583l-3.76297,-2.35799" fill="none" stroke="#000000" stroke-width="2" stroke-linecap="round"/><path d="M289.85834,130.98504l-3.96766,3.66847" fill="none" stroke="#000000" stroke-width="2" stroke-linecap="round"/><path d="M206.39464,84.4341c1.06685,1.67775 -1.24184,5.05584 -5.15661,7.54515c-3.91477,2.48933 -7.95316,3.14721 -9.02001,1.46945c-1.06685,-1.67775 1.24184,-5.05584 5.15661,-7.54515c3.91477,-2.48933 7.95316,-3.14721 9.02001,-1.46945z" fill="#ffffff" stroke="none" stroke-width="0" stroke-linecap="butt"/><path d="M213.14074,82.91993c0.07616,1.1573 -0.80027,2.1572 -1.95756,2.23338c-1.1573,0.07616 -2.1572,-0.80027 -2.23338,-1.95756c-0.07616,-1.1573 0.80027,-2.1572 1.95756,-2.23338c1.1573,-0.07616 2.1572,0.80027 2.23338,1.95756z" fill="#ffffff" stroke="none" stroke-width="0" stroke-linecap="butt"/><path d="M245.51447,182.45758c0,4.87851 -3.05938,8.83333 -6.83333,8.83333c-3.77394,0 -6.83334,-3.95482 -6.83334,-8.83333c0,-4.87851 3.05939,-8.83334 6.83334,-8.83334c3.77394,0 6.83333,3.95482 6.83333,8.83334z" fill="#000000" stroke="#000000" stroke-width="2" stroke-linecap="butt"/></g></g></svg>