<svg version="1.1" xmlns="http://www.w3.org/2000/svg" xmlns:xlink="http://www.w3.org/1999/xlink" width="34.17311" height="34.17311" viewBox="0,0,34.17311,34.17311"><g transform="translate(-222.91348,-162.91348)"><g data-paper-data="{&quot;isPaintingLayer&quot;:true}" stroke-miterlimit="10" stroke-dasharray="" stroke-dashoffset="0" style="mix-blend-mode: normal"><path d="M229.98315,162.91349h20.03379c3.9166,0 7.06966,3.15307 7.06966,7.06966v20.03379c0,3.91659 -3.15306,7.06966 -7.06966,7.06966h-20.03379c-3.91659,0 -7.06966,-3.15307 -7.06966,-7.06966v-20.03379c0,-3.91659 3.15307,-7.06966 7.06966,-7.06966z" fill="#e42121" fill-rule="evenodd" stroke="none" stroke-width="4.43922" stroke-linecap="round" stroke-linejoin="round"/><g fill-rule="nonzero" stroke-width="0.5" stroke-linejoin="miter"><path d="M251.56323,174.5462c1.17941,3.46968 -4.19401,4.7341 -10.78176,6.97339c-6.33799,2.15439 -11.05402,4.83756 -12.55534,1.68084c-0.05917,-0.1244 -1.46362,-3.77711 -1.50834,-3.90866c-1.17941,-3.46968 3.20493,-8.09772 9.79268,-10.33701c6.00187,-2.04014 12.05331,-0.8408 14.06831,2.41076c0.1967,0.31741 0.87956,2.87209 0.98445,3.18067z" fill="#ec6565" stroke="#000000" stroke-linecap="butt"/><path d="M232.78532,192.90284c0,0 -0.67058,-0.78638 -1.302,-1.91681c-0.29732,-0.5323 -1.10284,-1.8676 -1.67898,-3.1291c-0.53747,-1.17682 -0.85137,-2.28536 -1.0119,-2.72682c-0.52312,-1.43861 -1.5815,-2.5952 -1.5815,-2.5952c0,0 8.61035,-2.33754 12.4774,-3.65202c3.86085,-1.31237 12.33793,-5.70809 12.33793,-5.70809c0,0 -0.2685,2.43422 0.20079,3.71635c0.31178,0.85181 0.568,1.87965 0.72156,2.57282c0.24098,1.08776 0.56698,2.77866 0.69391,4.15899c0.09708,1.05587 0.02485,1.98694 0.02485,1.98694c0,0 -6.72867,2.41778 -10.22488,3.63881c-3.46418,1.20984 -10.65718,3.65412 -10.65718,3.65412z" fill="#de3535" stroke="#000000" stroke-linecap="butt"/><path d="M243.49602,167.50292c0.06897,0.00158 0.13758,0.0038 0.20583,0.0067c1.75132,0.07435 5.48314,1.2161 3.70566,3.24472c-1.23745,0.33092 -2.77259,0.67032 -3.76984,1.52953c-1.1282,0.97204 -0.85138,2.66694 -2.23534,3.5676c-1.64416,1.06999 -2.21495,-0.83297 -3.4623,-0.60396c-1.71997,0.31578 -3.01121,1.7455 -4.62509,2.29621c-0.90161,0.06339 -1.6891,-1.00347 -2.18787,-0.91211c-1.16115,0.2127 -3.03916,2.77357 -4.32305,1.53772c-1.25995,-1.21281 0.12869,-3.11301 1.35093,-4.43703c0.02961,-0.06649 0.07176,-0.12727 0.12461,-0.17855l0.62656,-0.63402l0.01875,0.01852c0.13868,-0.1381 0.26204,-0.25975 0.36268,-0.36163c0,0 0.04503,-0.04556 0.12019,-0.09114c2.8178,-3.51748 8.2785,-5.72929 12.50597,-5.34512c0.6433,0.08853 1.14929,0.16057 1.58231,0.36254z" fill="#ffffff" stroke="#000000" stroke-linecap="butt"/><path d="M246.31187,173.09389c0.07184,0.21135 -0.19831,0.49431 -0.6034,0.632c-0.40509,0.1377 -0.79172,0.07799 -0.86356,-0.13336c-0.07184,-0.21135 0.19831,-0.49431 0.6034,-0.632c0.40509,-0.1377 0.79172,-0.07799 0.86356,0.13336z" fill="#ffffff" stroke="#000000" stroke-linecap="butt"/><path d="M236.02047,172.74999l-1.5678,1.45788" fill="none" stroke="#ff0000" stroke-linecap="round"/><path d="M228.79912,176.41421l0.91209,-0.66579" fill="none" stroke="#ff0000" stroke-linecap="round"/><path d="M230.22928,173.29551l1.53829,0.75781" fill="none" stroke="#ff0000" stroke-linecap="round"/><path d="M233.81009,170.01497l0.77167,0.80496" fill="none" stroke="#ff0000" stroke-linecap="round"/><path d="M233.54462,171.95512l1.3394,-0.45528" fill="none" stroke="#ff0000" stroke-linecap="round"/><path d="M239.42532,168.53316l1.97064,1.8204" fill="none" stroke="#ff0000" stroke-linecap="round"/><path d="M238.44793,172.56521l1.50906,-0.5841" fill="none" stroke="#ff0000" stroke-linecap="round"/><path d="M237.04375,169.27155l0.48578,2.89434" fill="none" stroke="#ff0000" stroke-linecap="round"/><path d="M236.86096,174.38535l1.31771,-0.51907" fill="none" stroke="#ff0000" stroke-linecap="round"/><path d="M242.32596,169.11249l0.51907,1.31772" fill="none" stroke="#ff0000" stroke-linecap="round"/></g></g></g></svg>