<svg version="1.1" xmlns="http://www.w3.org/2000/svg" xmlns:xlink="http://www.w3.org/1999/xlink" width="141.90217" height="247.4676" viewBox="0,0,141.90217,247.4676"><g transform="translate(-168.02144,-60.28242)"><g data-paper-data="{&quot;isPaintingLayer&quot;:true}" fill-rule="nonzero" stroke-linejoin="miter" stroke-miterlimit="10" stroke-dasharray="" stroke-dashoffset="0" style="mix-blend-mode: normal"><g fill="#ffb5fa" stroke="#000000" stroke-width="2" stroke-linecap="butt"><path d="M171.61905,293.08755c-9.08783,-28.55565 8.58839,-36.75257 8.58839,-36.75257c0,0 -13.78202,-8.76891 -10.02804,-35.9113c4.8243,-34.88119 69.58319,22.9465 69.58319,22.9465l-0.47989,30.59537c0,0 -59.31214,45.36403 -67.66365,19.12204z"/><g><path d="M306.32599,293.08759c-8.35151,26.24199 -67.66364,-19.12204 -67.66364,-19.12204l-0.4799,-30.59538c0,0 64.75889,-57.82768 69.5832,-22.94649c3.75398,27.1424 -10.02804,35.9113 -10.02804,35.9113c0,0 17.67622,8.19692 8.58839,36.75257z" data-paper-data="{&quot;index&quot;:null}"/><path d="M277.70327,254.96096c0,19.90215 -16.25003,36.03604 -36.29547,36.03604c-20.04543,0 -36.29547,-16.13388 -36.29547,-36.03604c0,-19.90215 16.25003,-36.03604 36.29547,-36.03604c20.04543,0 36.29547,16.13388 36.29547,36.03604z"/></g></g><path d="M206.75007,306.75001l15.14285,-131.8421l37.78325,-0.15789l13.57389,132z" fill="#ffdeb4" stroke="#000000" stroke-width="2" stroke-linecap="butt"/><path d="M219.7003,203.36264l3.12142,-26.32765l35.83075,-0.14203l2.76735,26.1059c0,0 -7.51543,4.19603 -21.55904,4.50964c-12.48458,0.27879 -20.16049,-4.14586 -20.16049,-4.14586z" fill="#e5bd89" stroke="#000000" stroke-width="0" stroke-linecap="butt"/><path d="M263.60796,227.02228c0,0.67371 1.41956,2.44943 -2.88549,3.81645c-4.62068,1.46724 -15.19539,2.50637 -21.70326,2.50637c-4.44716,0 -15.95524,-1.74052 -19.16541,-2.59913c-5.86434,-1.5685 -1.77015,-2.82102 -1.77015,-3.72369c0,-1.3968 10.19097,-2.52913 22.76217,-2.52913c12.57119,0 22.76216,1.13233 22.76216,2.52913z" fill="#e5bd89" stroke="none" stroke-width="0" stroke-linecap="butt"/><path d="M215.92857,227.58334l2.57143,-19.61905c0,0 4.7974,1.03822 11.13194,1.58521c3.61685,0.31232 8.60138,0.27193 11.29663,0.27193c2.36113,0 6.89647,-0.05161 10.01909,-0.31468c6.52728,-0.54991 11.6952,-1.54247 11.6952,-1.54247l2.42858,19.19048c0,0 -6.06872,1.26849 -12.97046,2.08842c-0.93485,0.11106 -8.98471,0.67572 -11.17097,0.69479c-0.96441,0.00841 -7.3509,-0.18391 -11.7209,-0.60382c-7.17747,-0.68968 -13.28053,-1.75081 -13.28053,-1.75081z" fill="#ffb5fa" stroke="#000000" stroke-width="2" stroke-linecap="butt"/><path d="M175.83998,136.93022c0,-34.38761 28.7599,-62.26428 64.23702,-62.26428c35.47712,0 64.23702,27.87667 64.23702,62.26428c0,34.38762 -28.7599,62.26429 -64.23702,62.26429c-35.47712,0 -64.23702,-27.87668 -64.23702,-62.26428z" fill="#ffdeb4" stroke="#000000" stroke-width="2" stroke-linecap="butt"/><g stroke="#000000" stroke-linecap="butt"><path d="M180.83998,137.29879c0,-31.82975 26.62064,-57.63285 59.45885,-57.63285c32.83821,0 59.45885,25.80311 59.45885,57.63285c0,31.82975 -26.62064,57.63286 -59.45885,57.63286c-32.83821,0 -59.45885,-25.80312 -59.45885,-57.63286z" fill="#f5f5f5" stroke-width="2"/><path d="M181.50926,137.35023c0,-0.69581 4.81937,53.44749 58.64749,54.41753c51.43052,0.92684 58.78922,-55.39134 58.78922,-54.41753c0,31.35466 -26.28911,56.77264 -58.71836,56.77264c-32.42925,0 -58.71836,-25.41798 -58.71836,-56.77264z" fill="#a0a0a0" stroke-width="0"/></g><path d="M176.56304,136.9858c0,-0.75172 5.53619,59.39022 63.68999,60.43821c55.56352,1.00132 63.18405,-61.49028 63.18405,-60.43821c0,33.87435 -28.40173,61.33494 -63.43702,61.33494c-35.03529,0 -63.43702,-27.46059 -63.43702,-61.33494z" fill="#cca97a" stroke="#000000" stroke-width="0" stroke-linecap="butt"/><path d="M189.39019,137.37369c0,-13.3908 10.51265,-24.24621 23.48065,-24.24621c12.968,0 23.48065,10.85541 23.48065,24.24621c0,13.39081 -10.51265,24.24621 -23.48065,24.24621c-12.968,0 -23.48065,-10.8554 -23.48065,-24.24621z" fill="#ffffff" stroke="#000000" stroke-width="2" stroke-linecap="butt"/><path d="M196.45558,137.08907c0,-9.42569 7.39976,-17.06671 16.52783,-17.06671c9.12808,0 16.52784,7.64103 16.52784,17.06671c0,9.42569 -7.39977,17.06671 -16.52784,17.06671c-9.12808,0 -16.52783,-7.64103 -16.52783,-17.06671z" fill="#000000" stroke="none" stroke-width="0" stroke-linecap="butt"/><path d="M267.12928,161.61989c-12.968,0 -23.48065,-10.8554 -23.48065,-24.24621c0,-13.3908 10.51265,-24.24621 23.48065,-24.24621c12.968,0 23.48065,10.8554 23.48065,24.24621c0,13.39081 -10.51265,24.24621 -23.48065,24.24621z" data-paper-data="{&quot;index&quot;:null}" fill="#ffffff" stroke="#000000" stroke-width="2" stroke-linecap="butt"/><path d="M267.01671,154.15578c-9.12807,0 -16.52783,-7.64103 -16.52783,-17.06671c0,-9.42569 7.39977,-17.06671 16.52783,-17.06671c9.12807,0 16.52783,7.64103 16.52783,17.06671c0,9.42569 -7.39977,17.06671 -16.52783,17.06671z" data-paper-data="{&quot;index&quot;:null}" fill="#000000" stroke="none" stroke-width="0" stroke-linecap="butt"/><path d="M202.02786,107.62596c0,0 6.70895,-5.33775 11.79721,-6.57102c5.08827,-1.23327 12.33413,0.72217 12.33413,0.72217c0,0 -8.03812,-0.06224 -11.96762,0.89018c-4.10648,0.99532 -12.16372,4.95868 -12.16372,4.95868z" fill="#000000" stroke="none" stroke-width="0" stroke-linecap="butt"/><path d="M265.96236,102.66729c-3.9295,-0.95242 -11.96762,-0.89017 -11.96762,-0.89017c0,0 7.24586,-1.95544 12.33413,-0.72217c5.08826,1.23327 11.79721,6.57102 11.79721,6.57102c0,0 -8.05724,-3.96336 -12.16372,-4.95868z" data-paper-data="{&quot;index&quot;:null}" fill="#000000" stroke="none" stroke-width="0" stroke-linecap="butt"/><path d="M189.24017,137.46913c0,-13.39082 10.51265,-24.2462 23.48066,-24.2462c12.96801,0 23.48065,10.85539 23.48065,24.2462c0,0 -46.9613,0.63672 -46.9613,0z" fill="#ffb5fa" stroke="#000000" stroke-width="2" stroke-linecap="butt"/><path d="M280.72573,78.67984c0,9.60833 -11.03454,17.39742 -24.64634,17.39742c-10.66269,0 -28.5087,-7.65738 -32.38385,-14.34695c-1.0718,-1.85022 6.0804,-0.96874 6.0804,-3.05047c0,-9.60833 12.69165,-17.39742 26.30345,-17.39742c13.6118,0 24.64634,7.7891 24.64634,17.39742z" fill="#ffdeb4" stroke="#000000" stroke-width="2" stroke-linecap="butt"/><path d="M217.53337,82.15707l11.06852,-5.40362h17.94917v2.96855z" fill="#ffdeb4" stroke="none" stroke-width="0" stroke-linecap="butt"/><path d="M255.61816,83.43994c0,0 -8.88285,-9.31913 -7.31525,-12.5781c1.35172,-2.81017 12.97176,0.1914 15.28511,2.15323c4.76675,4.04244 1.95197,14.91164 -3.02606,15.56727c-9.39597,1.23749 -28.077,-9.12707 -28.077,-9.12707" fill="none" stroke="#000000" stroke-width="2" stroke-linecap="round"/><path d="M216.14305,113.87084c0.39637,0.85877 -3.50208,22.74223 -3.85578,23.30101c-0.20269,0.32022 -1.31686,0.1018 -1.63133,0.1018c-1.54546,0 -3.0909,0 -4.63636,0c-0.3261,-0.00924 -0.78324,2.11292 -0.96045,1.51578c-0.19413,-0.65412 3.76165,-24.67773 3.78865,-24.78698c0,0 6.87867,-1.03424 7.29527,-0.13161z" fill="#ffe6fd" stroke="none" stroke-width="0.5" stroke-linecap="butt"/><path d="M222.74019,116.13806c0.1606,0.95203 -3.14359,21.99246 -3.36225,22.47126c-0.1253,0.27438 -0.70157,-0.20074 -0.86773,-0.27306c-0.81657,-0.35536 -1.63314,-0.71073 -2.44971,-1.06609c-0.17177,-0.08424 -0.53399,1.93798 -0.59367,1.29864c-0.06538,-0.70035 3.39079,-23.87301 3.41128,-23.9763c0,0 3.69328,0.54493 3.86208,1.54553z" fill="#ffe6fd" stroke="none" stroke-width="0.5" stroke-linecap="butt"/><path d="M189.24017,137.46913c0,-13.39082 10.51265,-24.2462 23.48066,-24.2462c12.96801,0 23.48065,10.85539 23.48065,24.2462c0,0 -46.9613,0.63672 -46.9613,0z" fill="none" stroke="#000000" stroke-width="2" stroke-linecap="butt"/><path d="M290.7729,137.36199c0,0.63672 -46.9613,0 -46.9613,0c0,-13.39081 10.51264,-24.2462 23.48065,-24.2462c12.96801,0 23.48066,10.85538 23.48066,24.2462z" data-paper-data="{&quot;index&quot;:null}" fill="#ffb5fa" stroke="#000000" stroke-width="2" stroke-linecap="butt"/><path d="M271.1653,113.88742c0.027,0.10753 3.98278,23.75273 3.78865,24.39655c-0.17721,0.58773 -0.63435,-1.501 -0.96045,-1.4919c-1.54546,0 -3.0909,0 -4.63636,0c-0.31447,0 -1.42864,0.21498 -1.63133,-0.1002c-0.3537,-0.54998 -4.25215,-22.08874 -3.85578,-22.93398c0.4166,-0.88841 7.29527,0.12954 7.29527,0.12954z" data-paper-data="{&quot;index&quot;:null}" fill="#ffe6fd" stroke="none" stroke-width="0.5" stroke-linecap="butt"/><path d="M257.27289,115.99243c0.1688,-0.97568 3.86208,-1.50705 3.86208,-1.50705c0.02049,0.10072 3.47666,22.6965 3.41128,23.37941c-0.05968,0.62342 -0.4219,-1.34845 -0.59367,-1.26631c-0.81657,0.34652 -1.63314,0.69303 -2.44971,1.03955c-0.16616,0.07051 -0.74243,0.53381 -0.86773,0.26626c-0.21866,-0.46689 -3.52285,-20.98352 -3.36225,-21.91185z" data-paper-data="{&quot;index&quot;:null}" fill="#ffe6fd" stroke="none" stroke-width="0.5" stroke-linecap="butt"/><path d="M290.7729,137.36198c0,0.63672 -46.9613,0 -46.9613,0c0,-13.39081 10.51264,-24.2462 23.48065,-24.2462c12.96801,0 23.48066,10.85538 23.48066,24.2462z" data-paper-data="{&quot;index&quot;:null}" fill="none" stroke="#000000" stroke-width="2" stroke-linecap="butt"/><path d="M246.29168,182.25004c0,4.73836 -2.81688,8.57954 -6.29167,8.57954c-3.47479,0 -6.29167,-3.84119 -6.29167,-8.57954c0,-4.73836 2.81688,-8.57954 6.29167,-8.57954c3.47479,0 6.29167,3.8412 6.29167,8.57954z" fill="#000000" stroke="none" stroke-width="0" stroke-linecap="butt"/></g></g></svg>