<svg version="1.1" xmlns="http://www.w3.org/2000/svg" xmlns:xlink="http://www.w3.org/1999/xlink" width="131.58446" height="267.22501" viewBox="0,0,131.58446,267.22501"><defs><radialGradient cx="235.09683" cy="102.52044" r="63.7549" gradientUnits="userSpaceOnUse" id="color-1"><stop offset="0" stop-color="#ffffff"/><stop offset="1" stop-color="#c3c3c3"/></radialGradient></defs><g transform="translate(-170.74467,-46.38752)"><g data-paper-data="{&quot;isPaintingLayer&quot;:true}" fill-rule="nonzero" stroke-linejoin="miter" stroke-miterlimit="10" stroke-dasharray="" stroke-dashoffset="0" style="mix-blend-mode: normal"><path d="M179.00982,313.61253v-267.22501h123.18203v267.22501z" fill-opacity="0.01" fill="#000000" stroke="none" stroke-width="0" stroke-linecap="butt"/><path d="M300.79553,124.88506c0.70011,10.63824 -29.05115,5.12143 -64.18601,7.43369c-35.13486,2.31225 -64.16473,9.35912 -64.86484,-1.27912c-0.38251,-5.81222 1.53147,-27.3317 14.01211,-39.16224c6.33875,-6.00855 14.33523,-11.60923 24.8045,-15.13668c6.64652,-2.23944 15.49407,-3.52312 21.68356,-3.93045c12.7872,-0.84154 24.77206,-2.22963 37.20709,3.42332c1.20508,0.54783 14.22015,6.74534 19.7958,15.97637c7.85157,12.99904 11.54779,32.67511 11.54779,32.67511z" fill="url(#color-1)" stroke="#000000" stroke-width="2" stroke-linecap="butt"/><g fill="#9a9a9a" stroke="none" stroke-width="0" stroke-linecap="butt"><path d="M182.52009,125.85195l5.15272,-27.1826l37.33515,7.07723l-5.15272,27.1826z"/><path d="M196.88442,110.24098l2.73777,-14.4428l3.22945,0.61217l-2.73777,14.44281z"/><path d="M199.36045,98.18281l0.44787,-2.36269l14.66636,2.78015l-0.44787,2.3627z"/><path d="M208.57572,112.52988l2.73777,-14.4428l3.22944,0.61217l-2.73777,14.44281z"/></g><g stroke="none" stroke-width="0" stroke-linecap="butt"><path d="M265.10443,96.24319c-2.02394,6.80501 -9.24345,10.66232 -16.12523,8.61554c-6.88177,-2.04677 -10.81983,-9.22256 -8.79589,-16.02757c2.02394,-6.80501 9.24345,-10.66231 16.12522,-8.61553c6.88177,2.04677 10.81983,9.22255 8.79589,16.02756z" fill="#9a9a9a"/><path d="M249.90234,101.08757c-4.2667,-1.269 -7.01521,-5.18322 -6.95067,-9.38321c0.83447,0.56971 1.92981,1.22729 2.93174,1.19965c1.30251,-0.03592 2.26569,-0.6639 3.64677,-0.36662c1.22108,0.26284 1.83665,1.24158 2.9066,1.80949c1.3374,0.64931 2.42737,0.1793 3.77992,0.4375c1.3014,0.24842 1.92114,1.45657 3.36117,1.59935c0.5486,0.0544 1.11297,-0.00275 1.68043,-0.06804c-2.07239,4.02209 -6.81291,6.12306 -11.35597,4.77187z" fill="#cacaca"/><path d="M251.04456,83.08081l1.71047,-5.75103l8.52004,2.53402l-1.71047,5.75103z" fill="#9a9a9a"/><path d="M253.58959,79.20089l1.17199,-3.94052l5.85753,1.74214l-1.17199,3.94052z" fill="#9a9a9a"/></g><g stroke="none" stroke-width="0" stroke-linecap="butt"><path d="M233.69656,106.31759c0,0 -1.32439,-0.45976 -2.24432,-2.01831c-1.0758,-1.82263 -1.87835,-4.90619 -3.60082,-6.85325c-1.03168,-1.1662 -3.60156,-3.70431 -4.22149,-4.60686c-2.17524,-3.16692 -4.24947,-7.36426 -4.24947,-7.36426l8.59614,-5.90438c0,0 2.42647,1.96268 4.58807,5.10974c0.95254,1.38679 3.15699,5.17267 4.20476,7.41983c0.84074,1.80314 4.09679,4.00437 5.13234,5.1632c1.12463,1.25853 0.39092,3.14991 0.39092,3.14991z" fill="#9a9a9a"/><path d="M225.46328,89.78904l-6.79407,-9.89143l4.00368,-2.74999l6.79407,9.89144z" fill="#9a9a9a"/><path d="M228.618,100.48323l-4.38784,-6.38822l9.96013,-6.84126l4.38784,6.38822z" fill="#5f5f5f"/></g><path d="M257.53022,121.68205l-7.04317,-16.78195l13.27802,-5.57262l7.04317,16.78195z" fill="#9a9a9a" stroke="none" stroke-width="0" stroke-linecap="butt"/><path d="M206.47615,306.30001l15.14285,-131.8421l37.78325,-0.15789l13.57389,132z" fill="#5fd6f4" stroke="#000000" stroke-width="2" stroke-linecap="butt"/><path d="M219.42637,202.91269l3.12142,-26.32765l35.83075,-0.14203l2.76735,26.1059c0,0 -7.51543,4.19603 -21.55904,4.50964c-12.48458,0.27879 -20.16049,-4.14586 -20.16049,-4.14586z" fill="#387e8f" stroke="#000000" stroke-width="0" stroke-linecap="butt"/><path d="M218.11292,201.37751c0,0 -0.86037,-1.64644 -1.18821,-3.42169c-0.34066,-1.84471 -0.14619,-3.82852 0.02426,-4.24864c0.80908,-1.99419 2.99728,-3.99633 2.99728,-3.99633l40.16666,0.5c0,0 2.58695,1.45609 3.27161,3.19102c0.40553,1.02761 0.22839,2.86943 0.22839,3.47565c0,0.73804 -0.05964,2.54278 -1.11019,3.48972c-1.03264,0.9308 -3.05648,2.01028 -3.05648,2.01028z" fill="#54bed8" stroke="#000000" stroke-width="2" stroke-linecap="butt"/><path d="M249.6893,238.88699c-2.12043,1.56754 -9.37984,-4.83026 -9.37984,-4.83026c0,0 -7.15111,6.52447 -9.29851,4.99165c-2.14911,-1.53259 1.69445,-10.41655 1.69445,-10.41655c0,0 -8.41373,-4.78548 -7.61958,-7.30111c0.79398,-2.51748 10.4295,-1.60702 10.4295,-1.60702c0,0 1.94919,-9.48018 4.58738,-9.50471c2.64192,-0.02316 4.75443,9.42378 4.75443,9.42378c0,0 9.61861,-1.07594 10.45386,1.42773c0.84036,2.50147 -7.49126,7.43109 -7.49126,7.43109c0,0 3.99534,8.81736 1.86957,10.3854z" fill="#ffff00" stroke="#000000" stroke-width="2" stroke-linecap="butt"/><path d="M227.4849,196.03314l-0.25,4.5" fill="none" stroke="#000000" stroke-width="2" stroke-linecap="round"/><path d="M240.6099,200.28314l-0.125,-3.75" fill="none" stroke="#000000" stroke-width="2" stroke-linecap="round"/><path d="M255.4849,194.78314l-0.125,7.125" fill="none" stroke="#000000" stroke-width="2" stroke-linecap="round"/><path d="M172.51017,142.56301c-0.30073,-4.56971 -2.15773,-16.42316 1.82241,-20.01232c2.5529,-2.30212 45.28452,-5.69109 58.72656,-6.80186c20.23969,-1.6725 63.07972,-1.6451 64.63598,-0.14981c2.83164,2.72072 3.27699,14.95125 3.51017,18.49446c2.18689,33.22997 -24.84967,62.06415 -60.38783,64.40295c-35.53817,2.3388 -66.12038,-22.70345 -68.30727,-55.9334z" fill="#ec3434" stroke="#000000" stroke-width="2" stroke-linecap="butt"/><path d="M173.23801,142.56904c-0.0478,-0.72643 8.88779,55.45544 67.2083,52.63442c55.7228,-2.69537 59.81715,-62.01513 59.88407,-60.99847c2.15425,32.73398 -24.54999,61.14248 -59.64557,63.45215c-35.09557,2.30967 -65.29254,-22.35411 -67.4468,-55.08808z" fill="#a12323" stroke="#000000" stroke-width="0" stroke-linecap="butt"/><path d="M299.39797,115.70647c0.29143,4.42826 -32.92365,7.35632 -64.51963,9.43568c-31.59597,2.07936 -61.6291,2.59792 -61.92053,-1.83034c-0.29143,-4.42826 30.33312,-6.11213 61.9291,-8.19148c31.59597,-2.07936 64.21965,-3.84212 64.51107,0.58614z" fill="#b10000" stroke="#000000" stroke-width="2" stroke-linecap="butt"/><path d="M186.05887,142.10177c-0.8516,-12.94001 8.948,-24.12032 21.88802,-24.97191c12.94001,-0.8516 24.12032,8.948 24.97191,21.88802c0.8516,12.94001 -8.948,24.12032 -21.88802,24.97191c-12.94001,0.8516 -24.12032,-8.948 -24.97191,-21.88802z" fill="#ffffff" stroke="#000000" stroke-width="2" stroke-linecap="butt"/><path d="M193.09089,141.36273c-0.59943,-9.10838 6.29842,-16.97809 15.4068,-17.57753c9.10838,-0.59943 16.9781,6.29843 17.57753,15.40681c0.59943,9.10838 -6.29843,16.9781 -15.40681,17.57753c-9.10838,0.59943 -16.97809,-6.29843 -17.57752,-15.4068z" fill="#000000" stroke="none" stroke-width="0" stroke-linecap="butt"/><path d="M265.42152,160.41025c-12.94001,0.8516 -24.12032,-8.948 -24.97191,-21.88802c-0.8516,-12.94001 8.948,-24.12032 21.88802,-24.97191c12.94001,-0.8516 24.12032,8.948 24.97191,21.88802c0.8516,12.94001 -8.948,24.12032 -21.88802,24.97191z" data-paper-data="{&quot;index&quot;:null}" fill="#ffffff" stroke="#000000" stroke-width="2" stroke-linecap="butt"/><path d="M264.58509,153.22123c-9.10837,0.59943 -16.97809,-6.29843 -17.57752,-15.4068c-0.59943,-9.10838 6.29843,-16.9781 15.4068,-17.57753c9.10837,-0.59943 16.97809,6.29843 17.57752,15.4068c0.59943,9.10838 -6.29843,16.9781 -15.4068,17.57753z" data-paper-data="{&quot;index&quot;:null}" fill="#000000" stroke="none" stroke-width="0" stroke-linecap="butt"/><path d="M185.9757,142.10723c-0.8516,-12.94001 8.948,-24.12032 21.88802,-24.97191c12.94001,-0.8516 24.12032,8.948 24.97191,21.88802c0,0 -46.77907,4.31278 -46.85994,3.0839z" fill="#ec3434" stroke="#000000" stroke-width="2" stroke-linecap="butt"/><path d="M240.20018,138.53868c-0.8516,-12.94001 8.948,-24.12032 21.88802,-24.97191c12.94001,-0.8516 24.12032,8.948 24.97191,21.88802c0.07972,1.21117 -46.85994,3.0839 -46.85994,3.0839z" data-paper-data="{&quot;index&quot;:null}" fill="#ec3434" stroke="#000000" stroke-width="2" stroke-linecap="butt"/><path d="M196.77745,112.52557c0,0 6.35502,-5.59863 11.35387,-7.12452c4.99886,-1.52589 12.35344,-0.1121 12.35344,-0.1121c0,0 -8.02473,0.46771 -11.88518,1.64611c-4.03431,1.23148 -11.82211,5.59052 -11.82211,5.59052z" fill="#000000" stroke="none" stroke-width="0" stroke-linecap="butt"/><path d="M260.25859,103.53533c-3.98159,-0.66231 -11.9984,-0.0743 -11.9984,-0.0743c0,0 7.10587,-2.36543 12.26158,-1.50783c5.15571,0.8576 12.18963,5.57511 12.18963,5.57511c0,0 -8.2919,-3.30083 -12.45281,-3.99297z" data-paper-data="{&quot;index&quot;:null}" fill="#000000" stroke="none" stroke-width="0" stroke-linecap="butt"/><path d="M182.22506,139.44785l3.76297,2.35799" fill="none" stroke="#000000" stroke-width="2" stroke-linecap="round"/><path d="M289.8583,130.98505l-3.96766,3.66847" fill="none" stroke="#000000" stroke-width="2" stroke-linecap="round"/><path d="M206.39461,84.43412c1.06685,1.67775 -1.24184,5.05584 -5.15661,7.54515c-3.91477,2.48933 -7.95316,3.14721 -9.02001,1.46945c-1.06685,-1.67775 1.24184,-5.05584 5.15661,-7.54515c3.91477,-2.48933 7.95316,-3.14721 9.02001,-1.46945z" fill="#ffffff" stroke="none" stroke-width="0" stroke-linecap="butt"/><path d="M213.14072,82.91993c0.07616,1.1573 -0.80027,2.1572 -1.95756,2.23338c-1.1573,0.07616 -2.1572,-0.80027 -2.23338,-1.95756c-0.07616,-1.1573 0.80027,-2.1572 1.95756,-2.23338c1.1573,-0.07616 2.1572,0.80027 2.23338,1.95756z" fill="#ffffff" stroke="none" stroke-width="0" stroke-linecap="butt"/><path d="M252.08707,178.42498c0,0 -3.82516,4.26039 -12.61074,4.98174c-7.24243,0.59466 -12.44466,-3.33282 -12.44466,-3.33282" fill="none" stroke="#000000" stroke-width="2" stroke-linecap="round"/></g></g></svg>