<svg version="1.1" xmlns="http://www.w3.org/2000/svg" xmlns:xlink="http://www.w3.org/1999/xlink" width="159.12977" height="267.22501" viewBox="0,0,159.12977,267.22501"><defs><linearGradient x1="240.00008" y1="175.50001" x2="240.00008" y2="307.50001" gradientUnits="userSpaceOnUse" id="color-1"><stop offset="0" stop-color="#000000"/><stop offset="1" stop-color="#e67c00"/></linearGradient><linearGradient x1="164.98421" y1="104.62841" x2="168.16225" y2="173.35498" gradientUnits="userSpaceOnUse" id="color-2"><stop offset="0" stop-color="#000000"/><stop offset="1" stop-color="#f7dbb5"/></linearGradient><linearGradient x1="254.91103" y1="76.11076" x2="255.96903" y2="98.99063" gradientUnits="userSpaceOnUse" id="color-3"><stop offset="0" stop-color="#000000"/><stop offset="1" stop-color="#f7dbb5"/></linearGradient><linearGradient x1="289.52577" y1="84.14453" x2="290.536" y2="105.99122" gradientUnits="userSpaceOnUse" id="color-4"><stop offset="0" stop-color="#000000"/><stop offset="1" stop-color="#f7dbb5"/></linearGradient><linearGradient x1="274.0732" y1="79.54211" x2="275.08343" y2="101.3888" gradientUnits="userSpaceOnUse" id="color-5"><stop offset="0" stop-color="#000000"/><stop offset="1" stop-color="#f7dbb5"/></linearGradient><linearGradient x1="218.19425" y1="77.80861" x2="219.25226" y2="100.68848" gradientUnits="userSpaceOnUse" id="color-6"><stop offset="0" stop-color="#000000"/><stop offset="1" stop-color="#f7dbb5"/></linearGradient><linearGradient x1="233.1854" y1="77.52133" x2="234.24341" y2="100.4012" gradientUnits="userSpaceOnUse" id="color-7"><stop offset="0" stop-color="#000000"/><stop offset="1" stop-color="#f7dbb5"/></linearGradient><linearGradient x1="185.86804" y1="88.93785" x2="186.87827" y2="110.78454" gradientUnits="userSpaceOnUse" id="color-8"><stop offset="0" stop-color="#000000"/><stop offset="1" stop-color="#f7dbb5"/></linearGradient><linearGradient x1="200.20712" y1="82.95781" x2="201.21735" y2="104.8045" gradientUnits="userSpaceOnUse" id="color-9"><stop offset="0" stop-color="#000000"/><stop offset="1" stop-color="#f7dbb5"/></linearGradient><linearGradient x1="255.93383" y1="98.22987" x2="256.70069" y2="114.81356" gradientUnits="userSpaceOnUse" id="color-10"><stop offset="0" stop-color="#000000"/><stop offset="1" stop-color="#f7dbb5"/></linearGradient><linearGradient x1="289.8164" y1="90.43035" x2="290.54864" y2="106.26521" gradientUnits="userSpaceOnUse" id="color-11"><stop offset="0" stop-color="#000000"/><stop offset="1" stop-color="#f7dbb5"/></linearGradient><linearGradient x1="274.78705" y1="94.97916" x2="275.51928" y2="110.81402" gradientUnits="userSpaceOnUse" id="color-12"><stop offset="0" stop-color="#000000"/><stop offset="1" stop-color="#f7dbb5"/></linearGradient><linearGradient x1="219.15535" y1="98.59314" x2="219.98392" y2="116.51144" gradientUnits="userSpaceOnUse" id="color-13"><stop offset="0" stop-color="#000000"/><stop offset="1" stop-color="#f7dbb5"/></linearGradient><linearGradient x1="234.11311" y1="97.58356" x2="234.94168" y2="115.50184" gradientUnits="userSpaceOnUse" id="color-14"><stop offset="0" stop-color="#000000"/><stop offset="1" stop-color="#f7dbb5"/></linearGradient><linearGradient x1="186.1279" y1="94.55771" x2="186.89849" y2="111.22191" gradientUnits="userSpaceOnUse" id="color-15"><stop offset="0" stop-color="#000000"/><stop offset="1" stop-color="#f7dbb5"/></linearGradient><linearGradient x1="200.89946" y1="97.93032" x2="201.67004" y2="114.5945" gradientUnits="userSpaceOnUse" id="color-16"><stop offset="0" stop-color="#000000"/><stop offset="1" stop-color="#f7dbb5"/></linearGradient><linearGradient x1="237.63371" y1="100.3065" x2="242.11235" y2="197.159" gradientUnits="userSpaceOnUse" id="color-17"><stop offset="0" stop-color="#000000"/><stop offset="1" stop-color="#ffffff"/></linearGradient><radialGradient cx="233.31787" cy="93.662" r="15.35715" gradientUnits="userSpaceOnUse" id="color-18"><stop offset="0" stop-color="#af4300"/><stop offset="1" stop-color="#af4300" stop-opacity="0"/></radialGradient><radialGradient cx="254.71157" cy="93.9598" r="3.14285" gradientUnits="userSpaceOnUse" id="color-19"><stop offset="0" stop-color="#af4300"/><stop offset="1" stop-color="#af4300" stop-opacity="0"/></radialGradient><radialGradient cx="251.13202" cy="95.41242" r="2.64286" gradientUnits="userSpaceOnUse" id="color-20"><stop offset="0" stop-color="#af4300"/><stop offset="1" stop-color="#af4300" stop-opacity="0"/></radialGradient><radialGradient cx="264.2662" cy="93.37497" r="2.71429" gradientUnits="userSpaceOnUse" id="color-21"><stop offset="0" stop-color="#af4300"/><stop offset="1" stop-color="#af4300" stop-opacity="0"/></radialGradient><radialGradient cx="213.86838" cy="95.20492" r="4.57143" gradientUnits="userSpaceOnUse" id="color-22"><stop offset="0" stop-color="#af4300"/><stop offset="1" stop-color="#af4300" stop-opacity="0"/></radialGradient><linearGradient x1="212.16618" y1="115.1052" x2="213.47961" y2="143.50865" gradientUnits="userSpaceOnUse" id="color-23"><stop offset="0" stop-color="#000000"/><stop offset="1" stop-color="#d95300"/></linearGradient><linearGradient x1="217.84135" y1="117.30432" x2="218.95307" y2="141.34571" gradientUnits="userSpaceOnUse" id="color-24"><stop offset="0" stop-color="#000000"/><stop offset="1" stop-color="#fa6000"/></linearGradient><linearGradient x1="201.22654" y1="115.87324" x2="202.3699" y2="140.59884" gradientUnits="userSpaceOnUse" id="color-25"><stop offset="0" stop-color="#000000"/><stop offset="1" stop-color="#fa6000"/></linearGradient><linearGradient x1="265.0313" y1="112.49949" x2="266.34473" y2="140.90295" gradientUnits="userSpaceOnUse" id="color-26"><stop offset="0" stop-color="#000000"/><stop offset="1" stop-color="#d95300"/></linearGradient><linearGradient x1="257.50007" y1="115.50802" x2="258.61178" y2="139.54941" gradientUnits="userSpaceOnUse" id="color-27"><stop offset="0" stop-color="#000000"/><stop offset="1" stop-color="#fa6000"/></linearGradient><linearGradient x1="273.91188" y1="112.54973" x2="275.05524" y2="137.27532" gradientUnits="userSpaceOnUse" id="color-28"><stop offset="0" stop-color="#000000"/><stop offset="1" stop-color="#fa6000"/></linearGradient></defs><g transform="translate(-145.08492,-46.38751)"><g data-paper-data="{&quot;isPaintingLayer&quot;:true}" fill-rule="nonzero" stroke-linejoin="miter" stroke-miterlimit="10" stroke-dasharray="" stroke-dashoffset="0" style="mix-blend-mode: normal"><path d="M179.28377,313.61252v-267.22501h123.18203v267.22501z" fill-opacity="0.01" fill="#000000" stroke="none" stroke-width="0" stroke-linecap="butt"/><path d="M206.75008,307.5c0,0 2.17955,-18.9764 3.7767,-32.88207c2.77074,-24.12361 11.36615,-98.96003 11.36615,-98.96003l37.78325,-0.15789l13.57389,132z" fill="url(#color-1)" stroke="none" stroke-width="0" stroke-linecap="butt"/><path d="M231.85216,214.86615c-2.13398,1.54514 -3.08827,3.39502 -4.25035,5.58208l-0.05911,0.3547c-0.01506,0.10142 -0.1025,0.17923 -0.20811,0.17923c-0.11621,0 -0.21041,-0.0942 -0.21041,-0.21041v-0.24047c0.00236,-0.50599 -0.1423,-0.98298 -0.40109,-1.41397c-0.53521,-1.55178 -1.79894,-2.95848 -3.45683,-3.26683c-0.71072,-0.13218 -1.4219,-0.06065 -2.12365,-0.14803v0.04959h-0.3607c-0.11621,0 -0.21041,-0.0942 -0.21041,-0.21041c0,-0.08399 0.04922,-0.15649 0.12039,-0.19023l0.23067,-0.11534c0.71767,-0.43462 1.57126,-0.74066 2.20946,-1.2903c0.87711,-0.75181 1.97169,-1.94227 2.20524,-3.17148c0.00492,-0.40392 -0.04991,-0.81418 -0.10098,-1.22111c-0.1551,-0.50711 -0.36622,-1.00557 -0.27,-1.45688c0,0 0.02578,-0.1031 0.11395,-0.14444v-0.045c0,-0.11621 0.0942,-0.21041 0.21041,-0.21041c0.10342,0 0.18942,0.07462 0.20709,0.17297l0.05935,0.29676l-0.00815,0.00163l0.01121,0.0189c-0.00023,0.09705 0.00353,0.19172 0.011,0.28435c0.08928,0.22143 0.13168,0.49954 0.15186,0.76584c0.15715,0.4964 0.41389,0.95432 0.70713,1.44277c1.05053,1.56452 2.70229,2.78143 4.6032,3.09094c0.53089,0.08644 1.02528,0.06326 1.53139,0.11996v-0.06223h0.42082c0.11621,0 0.2104,0.0942 0.2104,0.21041c0,0.10013 -0.06994,0.18393 -0.16364,0.2052l-0.22508,0.05627c-0.37025,0.15268 -0.64625,0.30736 -0.95504,0.56597zM222.15348,215.05318c-0.15022,0.07772 -0.30116,0.15415 -0.45062,0.23188c0.01923,-0.00005 0.03853,0.0001 0.05791,0.00044c0.04252,-0.04563 0.0968,-0.06372 0.0968,-0.06372l0.11544,-0.02481c0.06052,-0.04813 0.12067,-0.09603 0.18046,-0.14379z" fill="#000000" stroke="none" stroke-width="0.5" stroke-linecap="butt"/><path d="M230.00616,217.1689l-0.07091,-0.0644c-0.02994,-0.02603 -0.03904,-0.07017 -0.01949,-0.10661c0.02268,-0.04228 0.07534,-0.05817 0.11763,-0.03548l0.15312,0.08213l-0.01215,0.02264c0.19522,0.07816 0.37058,0.18309 0.58062,0.25526c0.75207,0.25841 1.5906,0.13802 2.27822,-0.2262c0.20203,-0.12049 0.38483,-0.23699 0.53889,-0.38694c0.05932,-0.09295 0.12903,-0.18588 0.20473,-0.24902c0.02079,-0.03224 0.04064,-0.06596 0.05949,-0.10131l0.00777,-0.00469l-0.00264,-0.00219l0.07951,-0.0964c0.02562,-0.03233 0.07147,-0.0427 0.1091,-0.02251c0.04228,0.02268 0.05817,0.07534 0.03549,0.11763l-0.00878,0.01638c0.02401,0.03225 0.01327,0.07479 0.01327,0.07479c-0.05308,0.18299 -0.22718,0.32315 -0.3826,0.4774c-0.09801,0.13809 -0.19804,0.27667 -0.27508,0.4246c-0.15494,0.49284 0.01097,1.13965 0.18337,1.5844c0.12493,0.32456 0.37579,0.60252 0.55209,0.90073l0.06142,0.08699c0.01931,0.02616 0.02307,0.06215 0.00667,0.09271c-0.02268,0.04228 -0.07534,0.05817 -0.11762,0.03549l-0.13125,-0.0704l0.00968,-0.01804c-0.27239,-0.10518 -0.5172,-0.27001 -0.8016,-0.36064c-0.66342,-0.2114 -1.3978,0.05378 -1.89542,0.51395c-0.17828,0.1063 -0.32403,0.25163 -0.42193,0.4362l-0.04693,0.0875c-0.02268,0.04228 -0.07534,0.05818 -0.11763,0.03549c-0.03842,-0.02061 -0.05506,-0.066 -0.04074,-0.10584l0.04772,-0.1406c0.00404,-1.02259 0.01788,-1.88196 -0.457,-2.86068c-0.06188,-0.15437 -0.13211,-0.26452 -0.23703,-0.39234zM233.77322,219.60985l0.03716,0.03156c0,0 0.01622,0.01718 0.02278,0.04208c0.00712,0.00366 0.01417,0.00737 0.02116,0.01114c-0.03921,-0.05746 -0.07922,-0.11472 -0.1187,-0.17233c0.01244,0.02905 0.02497,0.05822 0.0376,0.08755z" data-paper-data="{&quot;index&quot;:null}" fill="#000000" stroke="none" stroke-width="0.5" stroke-linecap="butt"/><g fill="#000000" stroke="none" stroke-width="0.5" stroke-linecap="butt"><path d="M252.92446,293.90018l-0.22508,-0.05627c-0.0937,-0.02127 -0.16364,-0.10506 -0.16364,-0.2052c0,-0.1162 0.0942,-0.2104 0.2104,-0.2104h0.42082v0.06223c0.50611,-0.0567 1.00051,-0.03352 1.53139,-0.11996c1.9009,-0.30951 3.55266,-1.52642 4.6032,-3.09094c0.29324,-0.48845 0.54998,-0.94636 0.70713,-1.44276c0.02018,-0.2663 0.06257,-0.54442 0.15186,-0.76584c0.00746,-0.09262 0.01122,-0.1873 0.01099,-0.28434l0.01121,-0.0189l-0.00815,-0.00163l0.05935,-0.29676c0.01767,-0.09834 0.10366,-0.17297 0.20708,-0.17297c0.1162,0 0.21041,0.09421 0.21041,0.21041v0.045c0.08817,0.04134 0.11395,0.14443 0.11395,0.14443c0.09621,0.4513 -0.1149,0.94977 -0.27,1.45688c-0.05106,0.40693 -0.1059,0.81719 -0.10098,1.2211c0.23355,1.22922 1.32813,2.41968 2.20524,3.17149c0.6382,0.54964 1.49179,0.85568 2.20945,1.2903l0.23067,0.11534c0.07117,0.03373 0.12039,0.10623 0.12039,0.19023c0,0.1162 -0.0942,0.21041 -0.21041,0.21041h-0.3607v-0.04959c-0.70175,0.08738 -1.41293,0.01585 -2.12365,0.14803c-1.65789,0.30834 -2.92162,1.71505 -3.45683,3.26683c-0.2588,0.43099 -0.40346,0.90798 -0.40109,1.41397v0.24046c0,0.1162 -0.09421,0.21041 -0.21041,0.21041c-0.10561,0 -0.19305,-0.07781 -0.20811,-0.17923l-0.05912,-0.3547c-1.16208,-2.18705 -2.11637,-4.03694 -4.25035,-5.58208c-0.30879,-0.25861 -0.58479,-0.41329 -0.95504,-0.56597zM263.75864,294.79697l0.11545,0.02481c0,0 0.05428,0.0181 0.09679,0.06372c0.01938,-0.00034 0.03869,-0.00049 0.05792,-0.00044c-0.14945,-0.07773 -0.30041,-0.15416 -0.45062,-0.23188c0.0598,0.04776 0.11995,0.09566 0.18046,0.1438z" data-paper-data="{&quot;index&quot;:null}"/><path d="M261.80616,289.1689l-0.07092,-0.06441c-0.02994,-0.02603 -0.03904,-0.07017 -0.01949,-0.10661c0.02268,-0.04228 0.07535,-0.05816 0.11763,-0.03548l0.15312,0.08213l-0.01215,0.02264c0.19522,0.07815 0.37058,0.18309 0.58062,0.25525c0.75207,0.2584 1.5906,0.13802 2.27821,-0.2262c0.20204,-0.12049 0.38483,-0.23699 0.5389,-0.38694c0.05932,-0.09296 0.12903,-0.18588 0.20473,-0.24902c0.0208,-0.03224 0.04064,-0.06595 0.0595,-0.10131l0.00777,-0.00469l-0.00264,-0.00218l0.07951,-0.09639c0.02562,-0.03233 0.07148,-0.0427 0.1091,-0.02251c0.04228,0.02268 0.05817,0.07534 0.03549,0.11762l-0.00878,0.01638c0.02402,0.03225 0.01327,0.07479 0.01327,0.07479c-0.05307,0.18299 -0.22718,0.32315 -0.3826,0.4774c-0.09801,0.1381 -0.19804,0.27667 -0.27508,0.4246c-0.15494,0.49284 0.01097,1.13964 0.18337,1.58439c0.12493,0.32456 0.37579,0.60252 0.55209,0.90073l0.06142,0.08699c0.01931,0.02616 0.02306,0.06216 0.00667,0.09271c-0.02268,0.04228 -0.07534,0.05817 -0.11762,0.03549l-0.13124,-0.0704l0.00968,-0.01804c-0.2724,-0.10517 -0.5172,-0.27001 -0.8016,-0.36064c-0.66342,-0.2114 -1.39781,0.05378 -1.89542,0.51394c-0.17829,0.10631 -0.32403,0.25163 -0.42192,0.4362l-0.04694,0.08749c-0.02268,0.04228 -0.07534,0.05817 -0.11762,0.03549c-0.03843,-0.02062 -0.05506,-0.06599 -0.04075,-0.10583l0.04773,-0.1406c0.00405,-1.0226 0.01788,-1.88196 -0.457,-2.86068c-0.06188,-0.15437 -0.13211,-0.26452 -0.23703,-0.39234zM265.5732,291.60985l0.03717,0.03156c0,0 0.01621,0.01718 0.02278,0.04208c0.00712,0.00366 0.01417,0.00737 0.02116,0.01114c-0.03921,-0.05746 -0.07921,-0.11473 -0.1187,-0.17233c0.01244,0.02905 0.02497,0.05822 0.0376,0.08755z" data-paper-data="{&quot;index&quot;:null}"/><path d="M255.48847,297.16123c-0.47488,0.97872 -0.46104,1.83808 -0.457,2.86068l0.04772,0.1406c0.01432,0.03984 -0.00232,0.08522 -0.04074,0.10584c-0.04228,0.02268 -0.09494,0.00678 -0.11763,-0.0355l-0.04693,-0.08749c-0.0979,-0.18457 -0.24364,-0.32989 -0.42193,-0.4362c-0.49762,-0.46017 -1.232,-0.72535 -1.89542,-0.51394c-0.2844,0.09062 -0.52921,0.25546 -0.8016,0.36064l0.00968,0.01804l-0.13125,0.0704c-0.04228,0.02268 -0.09494,0.00679 -0.11762,-0.03549c-0.01639,-0.03056 -0.01264,-0.06655 0.00667,-0.09271l0.06142,-0.08699c0.1763,-0.29822 0.42715,-0.57617 0.55209,-0.90073c0.1724,-0.44475 0.33832,-1.09155 0.18337,-1.5844c-0.07704,-0.14793 -0.17708,-0.2865 -0.27508,-0.4246c-0.15542,-0.15425 -0.32952,-0.29441 -0.3826,-0.4774c0,0 -0.01074,-0.04254 0.01327,-0.07479l-0.00878,-0.01638c-0.02268,-0.04228 -0.00679,-0.09495 0.03549,-0.11763c0.03763,-0.02019 0.08348,-0.00982 0.1091,0.02251l0.07951,0.0964l-0.00264,0.00218l0.00777,0.00469c0.01886,0.03535 0.0387,0.06907 0.05949,0.10131c0.0757,0.06314 0.14541,0.15606 0.20473,0.24902c0.15407,0.14995 0.33686,0.26645 0.53889,0.38694c0.68761,0.36422 1.52615,0.4846 2.27822,0.2262c0.21004,-0.07216 0.3854,-0.1771 0.58062,-0.25526l-0.01215,-0.02264l0.15312,-0.08213c0.04228,-0.02268 0.09494,-0.0068 0.11763,0.03548c0.01954,0.03643 0.01045,0.08058 -0.01949,0.10661l-0.07091,0.0644c-0.10492,0.12782 -0.17515,0.23797 -0.23703,0.39234zM251.99603,299.1223c-0.03949,0.0576 -0.07949,0.11487 -0.1187,0.17233c0.00699,-0.00377 0.01404,-0.00748 0.02116,-0.01114c0.00656,-0.0249 0.02278,-0.04208 0.02278,-0.04208l0.03716,-0.03156c0.01263,-0.02932 0.02516,-0.05849 0.0376,-0.08754z" data-paper-data="{&quot;index&quot;:null}"/></g><path d="M213.67722,273.79286c0.5,0 0.5,0.5 0.5,0.5l-0.01496,0.07016c1.38313,-0.18609 2.73529,-0.65051 3.88309,-1.47288c0.41039,-0.29403 1.80043,-1.78884 2.48988,-1.39255c0.60504,0.34777 0.22946,2.49631 0.69378,1.97532c1.15136,-1.29189 2.14684,-2.9411 3.25465,-4.31723c1.59911,-1.2982 3.37531,-2.88054 5.64177,-2.34944c2.45587,0.57549 2.86216,6.4962 2.01014,8.35308c-0.85412,1.86146 -2.72526,3.17735 -4.14629,4.55702c-4.1031,3.96955 -12.73054,6.84882 -12.82543,13.12831c0.61668,1.42864 2.86136,-0.23347 3.60537,1.18534c0.79555,1.51712 -1.10625,2.90196 -1.87264,3.9186c-2.48249,3.29312 -4.28494,6.92674 -8.48609,8.1005c-1.07805,-6.57612 -0.65814,-14.6307 0.44349,-21.1824c0.99271,-3.01276 1.64427,-6.79244 3.54596,-9.48436c-0.11527,-0.0667 -0.22272,-0.19103 -0.22272,-0.42281c0,-0.5 0.5,-0.5 0.5,-0.5c0.1584,0.00028 0.31721,-0.00271 0.47616,-0.00911c0.05585,-0.06009 0.1126,-0.11936 0.17028,-0.17778l-0.14645,0.02022c0,0 0,-0.5 0.5,-0.5z" fill="#000000" stroke="none" stroke-width="0.5" stroke-linecap="butt"/><path d="M182.65356,117.10153c-1.28074,0.46464 -11.3199,4.8538 -14.93404,8.2587c-3.01309,2.86194 -3.64023,9.76782 -3.53402,12.82558c0.12984,3.72906 1.22086,6.65879 3.76186,10.11756c2.45664,3.34369 14.70805,10.48945 16.6725,11.32035l4.86041,12.74548c0,0 -20.40839,-3.55753 -32.97225,-13.38565c-4.24538,-3.32096 -10.40795,-12.34261 -11.31006,-20.98933c-0.85833,-8.22701 3.39339,-16.1307 5.26589,-17.84566c11.36014,-10.40444 31.57646,-16.30884 31.57646,-16.30884z" data-paper-data="{&quot;index&quot;:null}" fill="url(#color-2)" stroke="none" stroke-width="0" stroke-linecap="butt"/><g stroke="none" stroke-width="0" stroke-linecap="butt"><g data-paper-data="{&quot;index&quot;:null}"><g data-paper-data="{&quot;index&quot;:null}" fill="url(#color-3)"><path d="M247.22001,97.32053c-1.49283,-1.15354 -2.57624,-2.82826 -3.02969,-4.93156c-1.25163,-5.80564 2.77037,-12.67821 8.98342,-15.35032c6.21304,-2.67211 12.26438,-0.13187 13.51602,5.67377c1.25163,5.80564 -2.77038,12.6782 -8.98343,15.35031c-3.96216,1.70404 -7.85854,1.28833 -10.48631,-0.7422z"/></g><g data-paper-data="{&quot;index&quot;:null}"><path d="M278.22619,95.61374c-0.27897,-6.0328 4.78002,-11.16774 11.29957,-11.46922c6.51955,-0.30148 12.03083,4.34468 12.3098,10.37748c0.27897,6.0328 -4.78002,11.16774 -11.29957,11.46922c-6.51955,0.30148 -12.03083,-4.34467 -12.3098,-10.37748z" fill="url(#color-4)"/><path d="M262.77362,91.01132c-0.27897,-6.0328 4.78003,-11.16774 11.29957,-11.46922c6.51955,-0.30148 12.03083,4.34467 12.3098,10.37748c0.27897,6.0328 -4.78002,11.16774 -11.29957,11.46922c-6.51955,0.30148 -12.03083,-4.34468 -12.3098,-10.37748z" fill="url(#color-5)"/></g></g><g data-paper-data="{&quot;index&quot;:null}"><path d="M217.5095,99.92151c-6.17417,-2.0993 -10.63591,-8.57956 -9.96557,-14.47408c0.67033,-5.89452 6.21892,-8.97115 12.39309,-6.87185c6.17417,2.0993 10.6359,8.57957 9.96557,14.47409c-0.67033,5.89452 -6.21892,8.97114 -12.39308,6.87184z" fill="url(#color-6)"/><path d="M232.50065,99.63423c-6.17417,-2.0993 -10.63591,-8.57957 -9.96557,-14.47409c0.67033,-5.89452 6.21892,-8.97114 12.39309,-6.87184c6.17417,2.0993 10.6359,8.57956 9.96557,14.47408c-0.67033,5.89452 -6.21892,8.97114 -12.39308,6.87185z" fill="url(#color-7)"/></g><g data-paper-data="{&quot;index&quot;:null}"><path d="M186.87828,110.78454c-6.25254,0.28913 -11.54739,-4.36703 -11.82636,-10.39983c-0.27897,-6.0328 4.56358,-11.15773 10.81613,-11.44686c6.25254,-0.28913 11.54738,4.36704 11.82635,10.39983c0.27897,6.0328 -4.56358,11.15773 -10.81612,11.44686z" fill="url(#color-8)"/><path d="M201.21736,104.8045c-6.25254,0.28913 -11.54739,-4.36704 -11.82636,-10.39983c-0.27897,-6.0328 4.56358,-11.15773 10.81613,-11.44686c6.25254,-0.28913 11.54738,4.36703 11.82635,10.39983c0.27897,6.0328 -4.56358,11.15773 -10.81612,11.44686z" fill="url(#color-9)"/></g></g><path d="M302.04406,98.72438c0.35716,7.72374 -27.67834,15.29486 -62.61903,16.91058c-34.94069,1.61572 -63.55526,-3.3358 -63.91242,-11.05953c-0.35716,-7.72374 27.67834,-15.29486 62.61903,-16.91058c34.94069,-1.61572 63.55526,3.3358 63.91242,11.05953z" fill="#6c2a00" stroke="none" stroke-width="0" stroke-linecap="butt"/><g stroke="none" stroke-width="0" stroke-linecap="butt"><g data-paper-data="{&quot;index&quot;:null}" fill="url(#color-10)"><path d="M257.73858,98.76073c6.40284,1.43247 10.95704,6.06841 10.17208,10.35469c-0.78496,4.28627 -6.61186,6.59974 -13.01471,5.16729c-6.40285,-1.43247 -10.95703,-6.06843 -10.17207,-10.3547c0.28438,-1.55285 1.23052,-2.84678 2.62605,-3.79745c2.45649,-1.67344 6.30545,-2.28333 10.38864,-1.36983z"/></g><g data-paper-data="{&quot;index&quot;:null}"><path d="M289.8164,90.43035c6.51955,-0.30148 11.9686,2.99888 12.1708,7.37156c0.2022,4.37268 -4.91902,8.16182 -11.43857,8.4633c-6.51955,0.30148 -11.9686,-2.99888 -12.1708,-7.37156c-0.2022,-4.37268 4.91902,-8.16182 11.43857,-8.4633z" fill="url(#color-11)"/><path d="M274.78705,94.97916c6.51955,-0.30148 11.9686,2.99888 12.1708,7.37156c0.2022,4.37268 -4.91902,8.16182 -11.43857,8.4633c-6.51955,0.30148 -11.9686,-2.99888 -12.1708,-7.37156c-0.2022,-4.37268 4.91903,-8.16182 11.43857,-8.4633z" fill="url(#color-12)"/></g></g><g stroke="none" stroke-width="0" stroke-linecap="butt"><path d="M230.39368,103.67008c1.15278,4.53868 -2.75878,9.95614 -8.73673,12.10023c-5.97795,2.14408 -11.75856,0.20286 -12.91135,-4.33582c-1.15278,-4.53868 2.75878,-9.95613 8.73673,-12.10022c5.97795,-2.14408 11.75856,-0.20287 12.91134,4.33581z" fill="url(#color-13)"/><path d="M245.35144,102.66049c1.15278,4.53868 -2.75878,9.95613 -8.73673,12.10022c-5.97795,2.14408 -11.75856,0.20287 -12.91135,-4.33581c-1.15278,-4.53868 2.75878,-9.95614 8.73673,-12.10022c5.97795,-2.14408 11.75856,-0.20287 12.91134,4.33581z" fill="url(#color-14)"/></g><g stroke="none" stroke-width="0" stroke-linecap="butt"><path d="M197.83444,102.3663c0.21279,4.60169 -4.6834,8.56648 -10.93594,8.85561c-6.25254,0.28913 -11.49374,-3.20689 -11.70653,-7.80858c-0.21279,-4.60169 4.6834,-8.56648 10.93595,-8.85561c6.25254,-0.28913 11.49373,3.20689 11.70652,7.80858z" fill="url(#color-15)"/><path d="M212.606,105.7389c0.21279,4.60169 -4.6834,8.56647 -10.93594,8.8556c-6.25254,0.28913 -11.49374,-3.20689 -11.70653,-7.80857c-0.21279,-4.60169 4.6834,-8.56648 10.93595,-8.85561c6.25254,-0.28913 11.49373,3.20689 11.70652,7.80858z" fill="url(#color-16)"/></g><path d="M174.4857,139.59389c-0.07265,-1.57103 -1.06915,-30.49095 1.36861,-36.41926c0.13065,-0.31774 29.62856,4.53711 59.4719,3.22779c32.55249,-1.42817 65.6979,-8.99553 66.17652,-8.48202c0.7779,0.83461 2.4527,31.73136 2.65041,36.00696c1.53829,33.2663 -25.94387,61.56246 -61.38312,63.20123c-35.43925,1.63878 -66.74602,-24.26841 -68.28431,-57.5347z" fill="url(#color-17)" stroke="none" stroke-width="0" stroke-linecap="butt"/><path d="M189.37181,139.66499c-0.59902,-12.95416 9.4168,-23.94119 22.37096,-24.54021c12.95416,-0.59902 23.94119,9.4168 24.54021,22.37096c0.59902,12.95416 -9.4168,23.94119 -22.37096,24.54021c-12.95416,0.59902 -23.94119,-9.4168 -24.54021,-22.37096z" fill="#ff0000" stroke="none" stroke-width="2" stroke-linecap="butt"/><path d="M268.11251,159.5296c-12.95416,0.59902 -23.94119,-9.4168 -24.54021,-22.37096c-0.59902,-12.95416 9.4168,-23.94119 22.37096,-24.54021c12.95416,-0.59902 23.94119,9.4168 24.54021,22.37096c0.59902,12.95416 -9.4168,23.94119 -22.37096,24.54021z" data-paper-data="{&quot;index&quot;:null}" fill="#ff0000" stroke="none" stroke-width="2" stroke-linecap="butt"/><path d="M266.23637,108.13686c-3.96791,-0.73985 -11.99467,-0.30834 -11.99467,-0.30834c0,0 7.15065,-2.22638 12.28866,-1.26837c5.138,0.95802 12.07857,5.81182 12.07857,5.81182c0,0 -8.22594,-3.46194 -12.37256,-4.23511z" data-paper-data="{&quot;index&quot;:null}" fill="#000000" stroke="none" stroke-width="0" stroke-linecap="butt"/><path d="M202.88324,164.82953l1.8131,-4.08812" fill="none" stroke="#000000" stroke-width="2" stroke-linecap="round"/><path d="M214.37269,166.50059l0.01502,-4.00497" fill="none" stroke="#000000" stroke-width="2" stroke-linecap="round"/><g fill="none" stroke="#000000" stroke-width="2" stroke-linecap="round"><path d="M277.42783,157.5784l2.18263,3.90335" data-paper-data="{&quot;index&quot;:null}"/><path d="M268.32427,164.20599l-0.38456,-3.98649" data-paper-data="{&quot;index&quot;:null}"/></g><path d="M248.65861,92.95261c0.07471,1.61568 -6.73301,3.24305 -15.20548,3.63483c-8.47247,0.39178 -15.40131,-0.60039 -15.47603,-2.21606c-0.07471,-1.61568 6.73301,-3.24305 15.20547,-3.63483c8.47247,-0.39178 15.40132,0.60039 15.47604,2.21606z" fill="url(#color-18)" stroke="none" stroke-width="0" stroke-linecap="butt"/><path d="M257.8511,93.81462c0.05285,1.1428 -1.30992,2.13422 -3.04381,2.21439c-1.7339,0.08018 -3.18234,-0.78124 -3.23519,-1.92404c-0.05285,-1.1428 1.30992,-2.13422 3.04382,-2.2144c1.7339,-0.08018 3.18233,0.78124 3.23518,1.92404z" fill="url(#color-19)" stroke="none" stroke-width="0" stroke-linecap="butt"/><path d="M253.77205,95.29034c0.03462,0.74873 -1.1193,1.41036 -2.57735,1.47778c-1.45805,0.06742 -2.6681,-0.48488 -2.70272,-1.23362c-0.03462,-0.74873 1.11929,-1.41035 2.57734,-1.47777c1.45805,-0.06742 2.66811,0.48488 2.70273,1.23361z" fill="url(#color-20)" stroke="none" stroke-width="0" stroke-linecap="butt"/><path d="M266.97757,93.24959c0.03098,0.66991 -1.15784,1.26913 -2.6553,1.33837c-1.49746,0.06925 -2.73651,-0.4177 -2.76748,-1.08761c-0.03098,-0.66991 1.15784,-1.26913 2.6553,-1.33837c1.49746,-0.06925 2.73651,0.4177 2.76748,1.08761z" fill="url(#color-21)" stroke="none" stroke-width="0" stroke-linecap="butt"/><path d="M218.43491,94.99376c0.07289,1.57628 -1.91254,2.94863 -4.43457,3.06526c-2.52203,0.11662 -4.62564,-1.06665 -4.69853,-2.64292c-0.07289,-1.57628 1.91253,-2.94864 4.43457,-3.06527c2.52203,-0.11662 4.62564,1.06666 4.69853,2.64293z" fill="url(#color-22)" stroke="none" stroke-width="0" stroke-linecap="butt"/><path d="M290.46571,135.09748c0.02131,0.46092 -5.06363,-1.34773 -13.24331,-2.30015c-3.50213,-0.40778 -8.71372,-0.60579 -12.46034,-0.48819c-2.34972,0.07376 -6.07406,0.41239 -8.27632,0.79647c-7.97512,1.39089 -12.93121,4.16113 -12.93121,4.16113c-0.59902,-12.95416 9.4168,-23.94119 22.37096,-24.54021c12.95416,-0.59902 23.94119,9.4168 24.54021,22.37096z" data-paper-data="{&quot;index&quot;:null}" fill="none" stroke="none" stroke-width="2" stroke-linecap="butt"/><path d="M194.65976,118.25607c0,0 6.46301,-5.47361 11.49067,-6.9017c5.02767,-1.42809 12.35327,0.12888 12.35327,0.12888c0,0 -8.03232,0.31108 -11.91502,1.41396c-4.05757,1.15255 -11.92891,5.35886 -11.92891,5.35886z" data-paper-data="{&quot;index&quot;:null}" fill="#000000" stroke="none" stroke-width="0" stroke-linecap="butt"/><path d="M290.31696,134.47614c0.02131,0.46092 -46.92978,7.12857 -46.92978,7.12857c-0.1601,-3.46233 0.52664,-10.61335 1.73847,-14.15301c3.32221,-9.70386 11.15924,-14.9076 20.65108,-15.34652c12.95416,-0.59902 23.94119,9.4168 24.54021,22.37096z" data-paper-data="{&quot;index&quot;:null}" fill="none" stroke="none" stroke-width="0" stroke-linecap="butt"/><path d="M179.99837,156.83828c0.49947,-0.0231 0.52256,0.47637 0.52256,0.47637l0.0231,0.49947c0.00932,0.81092 0.19568,1.64392 0.47775,2.48335c0.45376,0.65934 1.05861,1.24114 1.60643,1.85203c2.55735,2.85171 5.01458,5.51783 8.38222,7.3962c0.07252,0.0409 1.38554,1.04596 1.41244,1.03611c0.20329,-0.0745 -1.34261,-3.16799 -1.40563,-3.3318c-0.73885,-1.92048 -1.41996,-4.537 -1.33267,-6.60476c0.10152,-2.40499 3.00594,-0.32845 3.87928,0.4674c4.77112,4.34937 9.02932,8.38903 15.22299,10.55429c2.93588,0.4639 8.12224,1.03055 9.94806,-1.90158c1.19962,-1.92649 1.75373,-4.55256 2.69312,-6.62647c1.65515,-1.7019 4.9578,-1.06714 5.94243,1.12416c0.32668,0.72703 0.11233,1.65832 0.3066,2.37039c0.14353,0.52608 1.02375,-0.45876 1.38984,-0.86291c0.88753,-0.97979 1.66684,-2.03539 2.4654,-3.08864c1.98858,-2.6209 3.49416,-5.65445 6.26168,-7.57086c0.5601,-0.38786 1.84085,-1.36966 2.58298,-1.02668c1.39636,0.64534 2.99427,4.0937 3.80167,5.43741c2.29881,2.41403 5.73829,3.57417 9.07786,2.94501c1.28187,-0.2415 2.51284,-1.40059 3.93679,-0.91784c1.55081,0.52577 1.62062,1.76324 2.45093,2.91872c1.53607,5.12522 8.35618,4.20154 12.09216,2.11499c1.02292,-0.69643 1.91742,-1.31687 2.97132,-1.90756l-0.05942,-0.05416l0.1179,-0.12934c-0.85934,-0.60814 -2.18878,-2.0713 -1.92091,-2.84511c0.36893,-1.06573 2.22647,-0.66872 2.89853,-0.43818c2.61861,0.89827 2.8607,2.57395 3.86723,4.91082c2.38664,0.52053 2.98522,-1.02339 3.96167,-2.96615c1.81252,-3.60623 3.44224,-7.4183 5.81469,-10.70237c2.03189,-2.797 4.53194,-5.69405 7.0373,-8.0874c0.36689,-0.35049 1.91819,-1.78619 2.56981,-1.46184c1.26398,0.62918 -0.39166,4.51021 -0.6941,5.3741c-0.51363,0.86075 -0.9303,1.85022 -1.54339,2.6245c-0.20251,0.25577 0.50987,-0.40838 0.74626,-0.63321c0.47116,-0.44813 0.8734,-0.96356 1.31239,-1.44325c1.53456,-1.67688 2.44897,-3.79232 2.86895,-5.97628l0.01978,-0.03226l-0.00886,-0.00309l0.28007,-0.7999c0.0624,-0.19237 0.23872,-0.33531 0.45266,-0.34521c0.19939,-0.00922 0.37689,0.09965 0.46478,0.26489l0.26755,0.47846l-0.17211,0.09624c0.47479,0.99761 0.32562,2.08063 0.3853,3.37122c0.20541,4.44212 -1.41353,8.92107 -3.44557,12.85885c-1.20892,6.05873 -5.61378,12.63987 -9.6991,16.9979c-3.41793,5.30901 -8.75752,10.8604 -14.73802,13.20153c-0.80588,0.30914 -2.23311,0.76069 -2.71491,1.48025c-1.09241,1.63146 1.31718,7.0513 -2.1939,6.51732c-0.46325,-0.07046 -0.77146,-0.53564 -1.18423,-0.75741c-0.40394,-0.21701 -0.88184,-0.33546 -1.20879,-0.65682c0.02443,0.06823 0.28955,2.09672 0.30699,2.52515c0.03097,0.76095 1.45951,3.63372 0.55427,4.33257c-1.83853,1.41936 -2.80265,-5.22818 -2.8936,-6.21504c-0.0119,-0.2565 -0.02281,-3.66078 -0.02281,-3.66078c0,0 -2.03303,0.40141 -2.21881,0.47379c-2.74786,1.07056 -5.63625,1.89191 -8.20281,3.30975c-6.48725,2.1468 -13.19709,1.96005 -19.97748,2.27359c-6.94828,0.3213 -12.15042,-0.644 -18.6974,-2.91799c-6.14417,-2.16534 -12.65739,-3.12862 -17.23405,-8.35083c-1.61626,-1.47321 -3.42062,-3.42348 -5.27685,-4.38245c-1.52406,-0.78736 -2.22919,2.52867 -3.79176,1.3703c-0.93205,-0.69095 -1.13553,-3.40141 -1.39873,-4.4674c-0.09137,-0.23612 -0.18385,-0.47182 -0.27412,-0.70836c-1.54698,-4.05339 -1.46672,1.91168 -3.18708,1.99123c-1.60623,0.07428 -1.74284,-5.12313 -1.79395,-6.37468c-0.63728,-2.55531 -0.54109,-5.28468 -1.33245,-7.82097c-0.60895,-1.95165 -1.73625,-3.94889 -2.48243,-5.97533c-0.51883,-0.73323 -0.89305,-1.53839 -0.94773,-2.55041c0,0 -0.0146,-0.3158 0.23052,-0.4568c-0.00137,-0.01807 -0.00265,-0.03615 -0.00388,-0.05422l-0.0231,-0.49947c0,0 -0.0231,-0.49947 0.47637,-0.52256z" fill="#000000" stroke="none" stroke-width="0.5" stroke-linecap="butt"/><path d="M190.71964,145.6089c0.42122,-0.00687 43.73712,-1.85967 44.86876,-2.00788c-0.91092,9.75364 -10.06049,17.69913 -21.57366,18.23152c-11.99781,0.5548 -22.12869,-5.97505 -23.2951,-16.22362z" data-paper-data="{&quot;index&quot;:null}" fill="#ff4242" stroke="none" stroke-width="2" stroke-linecap="butt"/><path d="M196.41695,139.06327c-0.42165,-9.11834 6.6284,-16.85201 15.74673,-17.27366c9.11834,-0.42165 16.85201,6.62841 17.27366,15.74674c0.42165,9.11834 -6.62841,16.85201 -15.74674,17.27366c-9.11834,0.42165 -16.852,-6.62841 -17.27365,-15.74674z" fill="#000000" stroke="none" stroke-width="0" stroke-linecap="butt"/><path d="M289.65276,140.65272c-0.20776,10.48244 -9.68746,18.03481 -21.68527,18.58961c-11.51317,0.53239 -21.3627,-6.65891 -23.17726,-16.44707c1.14055,0.04472 44.44248,-2.11032 44.86253,-2.14256z" data-paper-data="{&quot;index&quot;:null}" fill="#ff4242" stroke="none" stroke-width="2" stroke-linecap="butt"/><path d="M267.66618,152.31409c-9.11833,0.42165 -16.852,-6.62841 -17.27365,-15.74674c-0.42165,-9.11834 6.62841,-16.85201 15.74673,-17.27366c9.11833,-0.42165 16.852,6.62841 17.27365,15.74674c0.42165,9.11834 -6.62841,16.85201 -15.74673,17.27366z" data-paper-data="{&quot;index&quot;:null}" fill="#000000" stroke="none" stroke-width="0" stroke-linecap="butt"/><path d="M215.08147,139.14565c0.11622,2.51327 -0.80828,4.59779 -2.06492,4.6559c-1.25664,0.05811 -2.36955,-1.9322 -2.48577,-4.44547c-0.11622,-2.51327 0.80827,-4.59779 2.06491,-4.6559c1.25664,-0.05811 2.36956,1.9322 2.48578,4.44547z" fill="#ff0000" stroke="none" stroke-width="0" stroke-linecap="butt"/><path d="M269.33582,136.90379c0.12812,2.77073 -0.78672,5.06397 -2.04336,5.12208c-1.25664,0.05811 -2.37921,-2.14091 -2.50734,-4.91164c-0.12812,-2.77073 0.78671,-5.06397 2.04336,-5.12208c1.25664,-0.05811 2.37921,2.14091 2.50734,4.91164z" fill="#ff0000" stroke="none" stroke-width="0" stroke-linecap="butt"/><path d="M188.97228,139.68346c-0.59902,-12.95416 9.72823,-23.95559 23.06654,-24.57238c9.77332,-0.45194 18.29616,3.99529 22.61133,13.34598c1.57404,3.41084 2.9479,10.46658 3.10801,13.9289c0,0 -48.76457,-2.24159 -48.78588,-2.7025z" fill="url(#color-23)" stroke="none" stroke-width="0" stroke-linecap="butt"/><g stroke="none" stroke-width="0" stroke-linecap="butt"><path d="M211.71575,140.17995c-0.11208,0.00685 2.40606,-7.68483 2.90984,-8.86806c1.34995,-3.17067 2.60213,-6.37198 3.89146,-9.56704c0.66637,-1.65133 1.20991,-3.17866 1.99851,-4.56419c1.64122,0.67654 3.19148,1.53441 4.6246,2.54971c-0.75974,1.65732 -5.95715,18.71262 -6.55691,20.24977c-1.2629,3.23669 -6.8675,0.19981 -6.8675,0.19981z" fill="url(#color-24)"/><path d="M210.49435,115.44468c0.28791,-0.01331 0.57485,-0.02138 0.86072,-0.02429c-1.1614,1.9589 -1.80171,5.07433 -2.20696,6.83041c-0.07838,0.33965 -0.16037,0.6782 -0.24557,1.01578c-0.75706,2.99965 -3.85373,16.00341 -4.24084,17.21729c-1.41875,0.21731 -10.44459,-1.18911 -12.47298,-0.57094c0.30525,-0.62818 5.38352,-9.61201 6.99942,-12.70175c1.61233,-3.08294 3.03698,-6.25977 4.62016,-9.35954c0.20908,-0.44603 0.40535,-0.88522 0.59797,-1.3158c1.92832,-0.61715 3.96889,-0.99315 6.08809,-1.09115z" fill="url(#color-25)"/></g><path d="M290.49436,134.82778c0.02131,0.46092 -48.52807,7.20248 -48.52807,7.20248c-0.1601,-3.46233 0.56105,-10.61494 1.81941,-14.15675c3.44974,-9.70976 11.55996,-14.92613 21.37348,-15.37992c13.3932,-0.61933 24.73615,9.38004 25.33518,22.3342z" data-paper-data="{&quot;index&quot;:null}" fill="url(#color-26)" stroke="none" stroke-width="0" stroke-linecap="butt"/><g data-paper-data="{&quot;index&quot;:null}" stroke="none" stroke-width="0" stroke-linecap="butt"><path d="M258.854,138.15553c-0.73906,-1.47524 -7.48826,-17.9781 -8.3977,-19.55824c1.3333,-1.14323 2.79778,-2.1405 4.36957,-2.96562c0.9131,1.30684 1.59527,2.77749 2.4112,4.36028c1.57869,3.06244 3.12096,6.13452 4.75776,9.16708c0.61083,1.13167 3.82806,8.55815 3.71582,8.56168c0,0 -5.30043,3.54116 -6.85664,0.43483z" fill="url(#color-27)"/><path d="M264.6441,112.97829c2.1192,-0.098 4.18576,0.08808 6.1628,0.52464c0.23153,0.41096 0.4675,0.83016 0.71685,1.255c1.86249,2.94044 3.57424,5.97223 5.4642,8.89322c1.89414,2.92743 7.77983,11.40427 8.14174,12.00159c-2.07678,-0.42834 -10.93431,1.80504 -12.36706,1.71959c-0.49748,-1.17298 -4.78101,-13.83545 -5.81166,-16.75244c-0.11599,-0.32827 -0.22887,-0.65781 -0.33827,-0.98878c-0.56559,-1.71118 -1.49067,-4.75423 -2.8279,-6.59758c0.28492,-0.02348 0.57137,-0.04193 0.85929,-0.05524z" fill="url(#color-28)"/></g></g></g></svg>