<svg version="1.1" xmlns="http://www.w3.org/2000/svg" xmlns:xlink="http://www.w3.org/1999/xlink" width="291.89777" height="426.27073" viewBox="0,0,291.89777,426.27073"><defs><linearGradient x1="242.64317" y1="139.41166" x2="242.64317" y2="244.71335" gradientUnits="userSpaceOnUse" id="color-1"><stop offset="0" stop-color="#000000"/><stop offset="1" stop-color="#616161"/></linearGradient><linearGradient x1="278.56156" y1="165.70166" x2="288.29053" y2="182.65098" gradientUnits="userSpaceOnUse" id="color-2"><stop offset="0" stop-color="#000000"/><stop offset="1" stop-color="#2f2f2f"/></linearGradient><linearGradient x1="277.96672" y1="166.01239" x2="287.62948" y2="182.8464" gradientUnits="userSpaceOnUse" id="color-3"><stop offset="0" stop-color="#000000"/><stop offset="1" stop-color="#131313"/></linearGradient><linearGradient x1="291.20081" y1="166.16846" x2="293.53929" y2="170.24245" gradientUnits="userSpaceOnUse" id="color-4"><stop offset="0" stop-color="#000000"/><stop offset="1" stop-color="#131313"/></linearGradient><linearGradient x1="271.54557" y1="177.27648" x2="274.06052" y2="181.65793" gradientUnits="userSpaceOnUse" id="color-5"><stop offset="0" stop-color="#000000"/><stop offset="1" stop-color="#131313"/></linearGradient><linearGradient x1="192.73857" y1="228.19389" x2="189.07988" y2="247.35874" gradientUnits="userSpaceOnUse" id="color-6"><stop offset="0" stop-color="#000000"/><stop offset="1" stop-color="#2f2f2f"/></linearGradient><linearGradient x1="193.40286" y1="228.29624" x2="189.76905" y2="247.33072" gradientUnits="userSpaceOnUse" id="color-7"><stop offset="0" stop-color="#000000"/><stop offset="1" stop-color="#131313"/></linearGradient><linearGradient x1="180.93614" y1="232.70557" x2="180.05674" y2="237.31209" gradientUnits="userSpaceOnUse" id="color-8"><stop offset="0" stop-color="#000000"/><stop offset="1" stop-color="#131313"/></linearGradient><linearGradient x1="203.16062" y1="236.88287" x2="202.21483" y2="241.83705" gradientUnits="userSpaceOnUse" id="color-9"><stop offset="0" stop-color="#000000"/><stop offset="1" stop-color="#131313"/></linearGradient><linearGradient x1="320.01729" y1="48.75706" x2="320.01729" y2="124.58846" gradientUnits="userSpaceOnUse" id="color-10"><stop offset="0" stop-color="#000000"/><stop offset="1" stop-color="#ffda36"/></linearGradient><linearGradient x1="309.82044" y1="74.87532" x2="309.82044" y2="109.74595" gradientUnits="userSpaceOnUse" id="color-11"><stop offset="0" stop-color="#000000"/><stop offset="1" stop-color="#756419"/></linearGradient><linearGradient x1="309.79471" y1="76.50163" x2="309.79471" y2="108.21433" gradientUnits="userSpaceOnUse" id="color-12"><stop offset="0" stop-color="#000000"/><stop offset="1" stop-color="#000000"/></linearGradient><linearGradient x1="163.34294" y1="48.75704" x2="163.34294" y2="146.54878" gradientUnits="userSpaceOnUse" id="color-13"><stop offset="0" stop-color="#000000"/><stop offset="1" stop-color="#3c53e8"/></linearGradient><linearGradient x1="168.91982" y1="74.87532" x2="168.91982" y2="109.74595" gradientUnits="userSpaceOnUse" id="color-14"><stop offset="0" stop-color="#000000"/><stop offset="1" stop-color="#2c3daa"/></linearGradient><linearGradient x1="168.94556" y1="76.50163" x2="168.94556" y2="108.21433" gradientUnits="userSpaceOnUse" id="color-15"><stop offset="0" stop-color="#000000"/><stop offset="1" stop-color="#000000"/></linearGradient><linearGradient x1="238.80146" y1="73.45222" x2="238.80146" y2="170.74495" gradientUnits="userSpaceOnUse" id="color-16"><stop offset="0" stop-color="#000000"/><stop offset="1" stop-color="#2cf245"/></linearGradient><linearGradient x1="238.259" y1="83.54577" x2="238.259" y2="153.98086" gradientUnits="userSpaceOnUse" id="color-17"><stop offset="0" stop-color="#000000"/><stop offset="1" stop-color="#1c9a2d"/></linearGradient><linearGradient x1="238.20205" y1="86.31474" x2="238.20205" y2="151.21345" gradientUnits="userSpaceOnUse" id="color-18"><stop offset="0" stop-color="#000000"/><stop offset="1" stop-color="#000000"/></linearGradient><linearGradient x1="153.96002" y1="-43.26583" x2="153.96002" y2="55.17602" gradientUnits="userSpaceOnUse" id="color-19"><stop offset="0" stop-color="#000000"/><stop offset="1" stop-color="#9b00e0"/></linearGradient><linearGradient x1="160.29241" y1="-6.51636" x2="160.29241" y2="29.23464" gradientUnits="userSpaceOnUse" id="color-20"><stop offset="0" stop-color="#000000"/><stop offset="1" stop-color="#660092"/></linearGradient><linearGradient x1="160.32186" y1="-4.95452" x2="160.32186" y2="27.57816" gradientUnits="userSpaceOnUse" id="color-21"><stop offset="0" stop-color="#000000"/><stop offset="1" stop-color="#000000"/></linearGradient><linearGradient x1="237.54687" y1="-112.54779" x2="237.54687" y2="30.37525" gradientUnits="userSpaceOnUse" id="color-22"><stop offset="0" stop-color="#000000"/><stop offset="1" stop-color="#f32b2b"/></linearGradient><linearGradient x1="236.259" y1="-50.15341" x2="236.259" y2="20.28169" gradientUnits="userSpaceOnUse" id="color-23"><stop offset="0" stop-color="#000000"/><stop offset="1" stop-color="#731515"/></linearGradient><linearGradient x1="236.20205" y1="17.51273" x2="236.20205" y2="-47.38598" gradientUnits="userSpaceOnUse" id="color-24"><stop offset="0" stop-color="#000000"/><stop offset="1" stop-color="#000000"/></linearGradient><linearGradient x1="323.73707" y1="-17.40808" x2="323.73707" y2="54.67604" gradientUnits="userSpaceOnUse" id="color-25"><stop offset="0" stop-color="#000000"/><stop offset="1" stop-color="#ff7a36"/></linearGradient><linearGradient x1="314.94786" y1="-7.01636" x2="314.94786" y2="28.73464" gradientUnits="userSpaceOnUse" id="color-26"><stop offset="0" stop-color="#000000"/><stop offset="1" stop-color="#5a2b13"/></linearGradient><linearGradient x1="314.91841" y1="-5.45451" x2="314.91841" y2="27.07816" gradientUnits="userSpaceOnUse" id="color-27"><stop offset="0" stop-color="#000000"/><stop offset="1" stop-color="#b55626"/></linearGradient><linearGradient x1="238.18121" y1="-12.4713" x2="238.18121" y2="108.12537" gradientUnits="userSpaceOnUse" id="color-28"><stop offset="0" stop-color="#000000"/><stop offset="1" stop-color="#fbf6f6"/></linearGradient><linearGradient x1="237.92998" y1="75.39187" x2="237.92998" y2="101.03703" gradientUnits="userSpaceOnUse" id="color-29"><stop offset="0" stop-color="#000000"/><stop offset="1" stop-color="#ffffff"/></linearGradient><linearGradient x1="237.92998" y1="75.39187" x2="237.92998" y2="101.03703" gradientUnits="userSpaceOnUse" id="color-30"><stop offset="0" stop-color="#000000"/><stop offset="1" stop-color="#ffffff"/></linearGradient><linearGradient x1="237.92998" y1="75.39187" x2="237.92998" y2="101.03703" gradientUnits="userSpaceOnUse" id="color-31"><stop offset="0" stop-color="#000000"/><stop offset="1" stop-color="#ffffff"/></linearGradient><linearGradient x1="237.92998" y1="75.39187" x2="237.92998" y2="101.03703" gradientUnits="userSpaceOnUse" id="color-32"><stop offset="0" stop-color="#000000"/><stop offset="1" stop-color="#ffffff"/></linearGradient><linearGradient x1="236.1179" y1="75.8878" x2="236.1179" y2="101.53296" gradientUnits="userSpaceOnUse" id="color-33"><stop offset="0" stop-color="#000000"/><stop offset="1" stop-color="#ffffff"/></linearGradient><linearGradient x1="236.87323" y1="50.88364" x2="236.87323" y2="69.71697" gradientUnits="userSpaceOnUse" id="color-34"><stop offset="0" stop-color="#000000" stop-opacity="0"/><stop offset="1" stop-color="#000000"/></linearGradient></defs><g transform="translate(-91.67125,112.54779)"><g data-paper-data="{&quot;isPaintingLayer&quot;:true}" fill-rule="nonzero" stroke="none" stroke-linejoin="miter" stroke-miterlimit="10" stroke-dasharray="" stroke-dashoffset="0" style="mix-blend-mode: normal"><g stroke-width="0" stroke-linecap="butt"><path d="M179.67727,313.72294v-354.31209h116.08143v354.3121z" fill-opacity="0.01" fill="#000000"/><g><path d="M182.92937,301.31421l25.12917,-226.72846l62.70033,-0.27152l22.52551,227z" fill="#000000"/><path d="M201.10825,139.41166c14.13124,13.8313 27.67904,27.95826 42.38826,41.44902c13.7887,12.64649 24.5337,22.83527 41.01202,33.45473l3.0604,30.39794c-11.72278,-6.65661 -23.04018,-13.74883 -33.8937,-21.29596c-9.13846,-6.35455 -16.79509,-14.14175 -24.54133,-21.53093c-5.32462,-5.07921 -10.85497,-10.03635 -15.97915,-15.23441c-5.45243,-5.53105 -10.50135,-11.2771 -15.43734,-17.08584z" fill="url(#color-1)"/><path d="M246.84867,196.07215c0,1.42674 -1.54099,2.58334 -3.44188,2.58334c-1.90089,0 -3.44187,-1.1566 -3.44187,-2.58334c0,-1.42674 1.54098,-2.58333 3.44187,-2.58333c1.90089,0 3.44188,1.15659 3.44188,2.58333z" fill="#000000"/><path d="M263.6278,213.82215c0,1.42674 -1.54098,2.58334 -3.44188,2.58334c-1.90089,0 -3.44187,-1.1566 -3.44187,-2.58334c0,-1.42674 1.54098,-2.58333 3.44187,-2.58333c1.90089,0 3.44188,1.15659 3.44188,2.58333z" fill="#000000"/><path d="M253.62486,205.07215c0,1.42674 -1.54098,2.58334 -3.44188,2.58334c-1.90089,0 -3.44187,-1.1566 -3.44187,-2.58334c0,-1.42674 1.54099,-2.58333 3.44187,-2.58333c1.90089,0 3.44188,1.15659 3.44188,2.58333z" fill="#000000"/><path d="M275.24412,219.82215c0,1.42674 -1.54098,2.58334 -3.44188,2.58334c-1.90089,0 -3.44188,-1.1566 -3.44188,-2.58334c0,-1.42674 1.54099,-2.58333 3.44188,-2.58333c1.90089,0 3.44188,1.15659 3.44188,2.58333z" fill="#000000"/></g><g data-paper-data="{&quot;index&quot;:null}"><path d="M274.27887,190.56956l-9.72895,-16.94932l28.02332,-15.83716l9.72895,16.94932z" fill="url(#color-2)"/><path d="M281.88861,186.09082l-9.66278,-16.83402l11.48178,-6.48883l9.66278,16.83401z" fill="url(#color-3)"/><path d="M291.20081,166.16846c1.39722,-0.78963 3.05337,-0.51775 3.69912,0.60725c0.64575,1.125 0.03657,2.67711 -1.36064,3.46674c-1.39722,0.78963 -3.05337,0.51775 -3.69912,-0.60725c-0.64575,-1.125 -0.03657,-2.67711 1.36064,-3.46673z" fill="url(#color-4)"/><path d="M271.54557,177.27648c1.55843,-0.88073 3.38479,-0.61389 4.07928,0.59601c0.69448,1.2099 -0.00588,2.90471 -1.56431,3.78544c-1.55843,0.88073 -3.38478,0.61389 -4.07927,-0.59601c-0.69448,-1.2099 0.00587,-2.90471 1.5643,-3.78544z" fill="url(#color-5)"/></g></g><g stroke-width="0" stroke-linecap="butt"><path d="M173.23669,244.38087l3.65868,-19.16485l31.68639,5.95574l-3.65868,19.16485z" fill="url(#color-6)"/><path d="M183.27775,246.11062l3.63379,-19.03448l12.98262,2.4402l-3.6338,19.03448z" fill="url(#color-7)"/><path d="M183.35702,235.5465c-0.24284,1.27205 -1.72043,2.06254 -3.30028,1.76559c-1.57985,-0.29695 -2.66371,-1.56888 -2.42087,-2.84093c0.24284,-1.27205 1.72043,-2.06254 3.30028,-1.76559c1.57985,0.29695 2.66371,1.56888 2.42087,2.84093z" fill="url(#color-8)"/><path d="M205.87837,239.95967c-0.26116,1.36806 -1.9014,2.20859 -3.66353,1.87738c-1.76214,-0.33121 -2.97892,-1.70874 -2.71775,-3.0768c0.26116,-1.36806 1.9014,-2.20859 3.66353,-1.87738c1.76214,0.33121 2.97892,1.70874 2.71776,3.0768z" fill="url(#color-9)"/></g><g stroke-width="0"><g data-paper-data="{&quot;index&quot;:null}"><path d="M267.05146,70.03779c5.40317,-9.92849 21.0093,-21.80472 40.99829,-21.26285c9.71676,0.2634 22.97174,15.42863 35.90798,30.99974c17.24829,20.76145 33.15214,43.41112 31.82839,43.69945c-8.1943,1.78481 -32.88087,1.21023 -55.93777,-0.21281c-21.62817,-1.33486 -41.76234,-3.17609 -47.27027,-11.57814c-9.46459,-14.4377 -10.37648,-32.73363 -5.52662,-41.64541z" data-paper-data="{&quot;index&quot;:null}" fill="url(#color-10)" stroke-linecap="butt"/><g><path d="M343.09838,109.56211c-0.75424,1.38592 -16.26472,-5.21428 -34.64361,-14.74202c-18.37888,-9.52773 -32.66651,-18.37498 -31.91227,-19.76092c0.75423,-1.38594 16.26475,5.21431 34.64363,14.74204c18.37888,9.52773 32.66648,18.37498 31.91225,19.7609z" fill="url(#color-11)" stroke-linecap="butt"/><path d="M340.47902,108.21433c0,0 -15.0106,-7.75683 -23.85945,-12.32953c-11.09495,-5.7334 -37.50917,-19.38316 -37.50917,-19.38316" fill="url(#color-12)" stroke-linecap="round"/></g></g><g><path d="M211.68881,70.03776c4.84986,8.91178 3.93797,27.20771 -5.52662,41.64541c-5.50794,8.40205 -25.6421,10.24329 -47.27027,11.57814c-23.0569,1.42303 -47.74347,1.99761 -55.93776,0.21281c-1.32376,-0.28833 14.58009,-22.938 31.82839,-43.69946c12.93624,-15.5711 26.19122,-30.73633 35.90798,-30.99973c19.98899,-0.54187 35.59512,11.33436 40.99829,21.26285z" data-paper-data="{&quot;index&quot;:null}" fill="url(#color-13)" stroke-linecap="butt"/><g><path d="M167.55414,89.80121c18.37888,-9.52773 33.8894,-16.12798 34.64363,-14.74204c0.75424,1.38594 -13.53339,10.23319 -31.91227,19.76092c-18.37889,9.52774 -33.88937,16.12794 -34.64361,14.74202c-0.75423,-1.38592 13.53337,-10.23317 31.91225,-19.7609z" fill="url(#color-14)" stroke-linecap="butt"/><path d="M199.62987,76.50163c0,0 -26.41422,13.64976 -37.50917,19.38316c-8.84885,4.5727 -23.85945,12.32953 -23.85945,12.32953" fill="url(#color-15)" stroke-linecap="round"/></g></g><g data-paper-data="{&quot;index&quot;:null}"><path d="M277.89146,97.20492c6.32165,11.06784 -8.46858,41.21174 -21.56108,71.6525c-9.20456,21.40108 -17.06426,47.50048 -18.34798,47.51783c-0.86874,0.01175 -6.39287,-22.88006 -13.82228,-40.30651c-13.18663,-30.9306 -30.22523,-66.14691 -22.55503,-78.85312c8.70386,-14.41853 25.27554,-23.61583 35.99492,-23.76078c11.94231,-0.16148 30.79963,7.13201 40.29145,23.75009z" data-paper-data="{&quot;index&quot;:null}" fill="url(#color-16)" stroke-linecap="butt"/><g><path d="M238.84501,153.98084c-1.66702,0.02254 -3.28083,-15.7266 -3.60446,-35.17671c-0.32363,-19.45009 0.76539,-35.23579 2.43244,-35.25833c1.66704,-0.02254 3.28082,15.72662 3.60445,35.17672c0.32363,19.4501 -0.76539,35.23578 -2.43243,35.25832z" fill="url(#color-17)" stroke-linecap="butt"/><path d="M238.78945,151.21345l-1.17481,-64.89872" fill="url(#color-18)" stroke-linecap="round"/></g></g></g><g stroke-width="0"><g data-paper-data="{&quot;index&quot;:null}"><path d="M161.73326,55.14122c-6.57545,-0.22256 -13.69438,-9.75836 -23.18227,-18.8059c-21.81543,-20.80294 -47.58145,-51.88481 -46.86513,-53.0354c0.44608,-0.71653 43.82568,0.40925 76.57291,3.51654c15.75866,1.49529 29.82356,-0.39267 34.00257,5.466c10.42424,14.61406 11.21771,33.01529 5.67263,41.92194c-6.1777,9.92277 -23.81133,21.69466 -46.20069,20.93686z" data-paper-data="{&quot;index&quot;:null}" fill="url(#color-19)" stroke-linecap="butt"/><g><path d="M123.22224,-6.33727c0.86234,-1.38511 18.15832,5.41495 38.6316,15.18842c20.47327,9.77346 36.37111,18.81927 35.50875,20.20441c-0.86234,1.38513 -18.15833,-5.41495 -38.63162,-15.18842c-20.47327,-9.77346 -36.37109,-18.81927 -35.50875,-20.20441z" fill="url(#color-20)" stroke-linecap="butt"/><path d="M194.50347,27.57816c0,0 -21.21362,-10.09512 -32.2716,-15.35739c-11.69415,-5.56502 -36.09162,-17.17528 -36.09162,-17.17528" fill="url(#color-21)" stroke-linecap="round"/></g></g><g data-paper-data="{&quot;index&quot;:null}"><path d="M275.89146,6.62254c-9.49182,16.61808 -28.34914,23.91157 -40.29145,23.75009c-10.71938,-0.14495 -27.29106,-9.34225 -35.99492,-23.76078c-7.6702,-12.70621 9.3684,-47.92251 22.55503,-78.85311c7.42941,-17.42645 12.95354,-40.31826 13.82228,-40.30652c1.28372,0.01736 9.14342,26.11676 18.34798,47.51784c13.0925,30.44075 27.88273,60.58466 21.56108,71.65249z" data-paper-data="{&quot;index&quot;:null}" fill="url(#color-22)" stroke-linecap="butt"/><g><path d="M239.27744,-14.89505c-0.32363,19.4501 -1.93741,35.19926 -3.60445,35.17672c-1.66705,-0.02254 -2.75607,-15.80824 -2.43244,-35.25833c0.32363,-19.45011 1.93744,-35.19925 3.60446,-35.17671c1.66704,0.02254 2.75606,15.80822 2.43243,35.25832z" fill="url(#color-23)" stroke-linecap="butt"/><path d="M235.61464,17.51274l1.17481,-64.89872" fill="url(#color-24)" stroke-linecap="round"/></g></g><g data-paper-data="{&quot;index&quot;:null}"><path d="M313.50699,54.64125c-22.38936,0.7578 -40.02299,-11.01409 -46.20069,-20.93686c-5.54508,-8.90665 -4.75161,-27.30788 5.67263,-41.92194c4.179,-5.85867 18.24391,-3.9707 34.00257,-5.466c32.74723,-3.10729 76.12683,-4.23307 76.57291,-3.51654c0.71632,1.15059 -25.0497,32.23246 -46.86513,53.03541c-9.48789,9.04754 -16.60682,18.58334 -23.18227,18.8059z" data-paper-data="{&quot;index&quot;:null}" fill="url(#color-25)" stroke-linecap="butt"/><g><path d="M352.01805,-6.83727c0.86234,1.38514 -15.03548,10.43095 -35.50875,20.20441c-20.47329,9.77347 -37.76928,16.57355 -38.63162,15.18842c-0.86236,-1.38514 15.03548,-10.43095 35.50875,-20.20441c20.47328,-9.77347 37.76926,-16.57353 38.6316,-15.18842z" fill="url(#color-26)" stroke-linecap="butt"/><path d="M349.10002,-5.45451c0,0 -24.39747,11.61026 -36.09162,17.17528c-11.05798,5.26227 -32.2716,15.35739 -32.2716,15.35739" fill="url(#color-27)" stroke-linecap="round"/></g></g></g><path d="M173.94419,47.82704c0,-33.30185 28.7599,-60.29833 64.23702,-60.29833c35.47712,0 64.23702,26.99649 64.23702,60.29833c0,33.30185 -28.7599,60.29833 -64.23702,60.29833c-35.47712,0 -64.23702,-26.99649 -64.23702,-60.29833z" fill="url(#color-28)" stroke-width="0" stroke-linecap="butt"/><path d="M186.82773,48.25651c0,-12.968 10.51265,-23.48065 23.48065,-23.48065c12.968,0 23.48065,10.51265 23.48065,23.48065c0,12.968 -10.51265,23.48065 -23.48065,23.48065c-12.968,0 -23.48065,-10.51265 -23.48065,-23.48065z" fill="#ff0000" stroke-width="0" stroke-linecap="butt"/><path d="M264.56682,71.73715c-12.968,0 -23.48065,-10.51265 -23.48065,-23.48065c0,-12.968 10.51265,-23.48065 23.48065,-23.48065c12.968,0 23.48065,10.51265 23.48065,23.48065c0,12.968 -10.51265,23.48065 -23.48065,23.48065z" data-paper-data="{&quot;index&quot;:null}" fill="#ff0000" stroke-width="2" stroke-linecap="butt"/><path d="M187.22352,53.13326c0.42422,0.01365 44.7679,0.00964 45.91361,-0.09419c-1.37059,10.51641 -10.94797,18.66228 -22.55898,18.66228c-4.55009,0 -11.64737,-2.12574 -15.40492,-5.40243c-6.23468,-5.4368 -7.94971,-13.16566 -7.94971,-13.16566z" data-paper-data="{&quot;index&quot;:null}" fill="#ff4242" stroke-width="2" stroke-linecap="butt"/><path d="M241.55686,53.29993c0.42422,0.01365 44.7679,0.00964 45.91361,-0.09419c-1.37059,10.51642 -10.94797,18.66228 -22.55898,18.66228c-4.55009,0 -11.64736,-2.12575 -15.40492,-5.40243c-6.23468,-5.4368 -7.94971,-13.16566 -7.94971,-13.16566z" data-paper-data="{&quot;index&quot;:null}" fill="#ff4242" stroke-width="2" stroke-linecap="butt"/><path d="M266.84449,48.22544c0,1.10457 -0.87056,2 -1.94445,2c-1.07389,0 -1.94444,-0.89543 -1.94444,-2c0,-1.10457 0.87056,-2 1.94444,-2c1.07389,0 1.94445,0.89543 1.94445,2z" fill="#ff0000" stroke-width="0" stroke-linecap="butt"/><g stroke-width="0" stroke-linecap="butt"><path d="M273.31742,55.60487c-1.88684,3.59314 -5.10943,5.96056 -8.76789,5.96056c-5.81436,0 -10.52784,-5.97977 -10.52784,-13.3562c0,-7.37642 4.71347,-13.3562 10.52784,-13.3562c5.81436,0 10.52783,5.97977 10.52783,13.3562c0,2.73512 -0.64804,5.27821 -1.75995,7.39564z" data-paper-data="{&quot;index&quot;:null}" fill="#000000"/><path d="M264.43709,46.3421c1.07389,0 1.94445,0.89543 1.94445,2c0,1.10457 -0.87057,2 -1.94445,2c-1.07389,0 -1.94445,-0.89543 -1.94445,-2c0,-1.10457 0.87057,-2 1.94445,-2z" data-paper-data="{&quot;index&quot;:null}" fill="#ff0000"/></g><g stroke-width="0" stroke-linecap="butt"><path d="M218.98885,55.60487c-1.88684,3.59314 -5.10943,5.96056 -8.76789,5.96056c-5.81436,0 -10.52784,-5.97977 -10.52784,-13.3562c0,-7.37642 4.71347,-13.3562 10.52784,-13.3562c5.81436,0 10.52783,5.97977 10.52783,13.3562c0,2.73512 -0.64804,5.27821 -1.75995,7.39564z" data-paper-data="{&quot;index&quot;:null}" fill="#000000"/><path d="M210.10853,46.3421c1.07389,0 1.94445,0.89543 1.94445,2c0,1.10457 -0.87057,2 -1.94445,2c-1.07389,0 -1.94445,-0.89543 -1.94445,-2c0,-1.10457 0.87057,-2 1.94445,-2z" data-paper-data="{&quot;index&quot;:null}" fill="#ff0000"/></g><g stroke-width="0" stroke-linecap="butt"><path d="M277.35105,69.92568c0,1.39312 -5.87827,12.03797 -15.10554,19.72441c-8.25708,6.87826 -19.63424,10.94288 -24.76616,11.10616c-0.32164,0.01023 -0.64366,0.01542 -0.96598,0.01542c-18.45009,0 -40.24829,-31.45855 -40.24829,-31.86938c0,-0.39382 15.38122,10.79672 20.38582,10.14566c8.73745,-1.13667 18.66792,-2.6893 19.74776,-2.6893c6.06348,0 15.05756,3.4231 19.87516,3.6493c6.45373,0.303 21.07723,-10.08227 21.07723,-10.08227z" fill="#000000"/><path d="M196.38701,69.16766c0,-0.22745 10.89339,6.51456 16.19246,9.34784c1.5434,0.82522 2.97828,0.86499 3.07754,0.86692c0.07353,2.64228 -0.92143,7.83461 -1.43359,7.55055c-1.30257,-0.72244 -6.39039,-4.97036 -8.12215,-5.82379c-3.32697,-3.60954 -9.71426,-11.80577 -9.71426,-11.94153z" fill="url(#color-29)"/><path d="M227.29427,86.48279c-0.53721,0.83236 -5.58289,-5.67363 -7.12696,-7.56807c3.43403,-0.46627 6.87671,-0.96147 9.7469,-1.37171c-0.4248,1.59105 -1.98723,7.95947 -2.61993,8.93979z" fill="url(#color-30)"/><path d="M236.92059,76.62401c1.80039,0 3.85914,0.30179 5.99021,0.73208c-0.51699,1.15271 -2.97038,7.41007 -3.00128,7.36393c-0.24582,-0.3671 -3.68389,-5.61704 -4.91817,-7.88651c1.00849,-0.13241 1.6886,-0.20951 1.92924,-0.20951z" fill="url(#color-31)"/><path d="M249.92869,84.58466c-0.73134,-2.05121 -1.44206,-4.01342 -1.95767,-6.06206c2.39552,0.5907 4.69787,1.17195 6.64242,1.49722c-0.78919,0.88199 -4.20777,5.24351 -4.68474,4.56485z" fill="url(#color-32)"/><path d="M267.94661,81.60512c-1.73176,0.85344 -6.81958,5.10136 -8.12215,5.82379c-0.51216,0.28406 -1.50712,-4.90827 -1.43359,-7.55055c0.09925,-0.00193 1.53414,-0.04171 3.07754,-0.86692c5.29908,-2.83328 16.19246,-9.57529 16.19246,-9.34784c0,0.13576 -6.38729,8.33199 -9.71426,11.94153z" data-paper-data="{&quot;index&quot;:null}" fill="url(#color-33)"/></g><path d="M220.20656,69.71697c0,0 5.25291,-2.13522 8.6582,-6.54449c3.07816,-3.98568 4.3418,-10.22577 4.3418,-11.28884c0,-0.61104 8.66667,-1 8.66667,-1c0,0 2.63936,8.95253 4.59399,11.99945c1.81239,2.8252 7.07268,6.83388 7.07268,6.83388c0,0 -10.62425,-5.66666 -15.66666,-5.66666c-5.92554,0 -17.66667,5.66666 -17.66667,5.66666z" fill="url(#color-34)" stroke-width="0" stroke-linecap="butt"/></g></g></svg>