<svg version="1.1" xmlns="http://www.w3.org/2000/svg" xmlns:xlink="http://www.w3.org/1999/xlink" width="34.17311" height="34.17311" viewBox="0,0,34.17311,34.17311"><g transform="translate(-222.91348,-162.91348)"><g data-paper-data="{&quot;isPaintingLayer&quot;:true}" stroke-miterlimit="10" stroke-dasharray="" stroke-dashoffset="0" style="mix-blend-mode: normal"><path d="M229.98314,162.91349h20.03379c3.9166,0 7.06966,3.15307 7.06966,7.06966v20.03379c0,3.91659 -3.15306,7.06966 -7.06966,7.06966h-20.03379c-3.91659,0 -7.06966,-3.15307 -7.06966,-7.06966v-20.03379c0,-3.91659 3.15307,-7.06966 7.06966,-7.06966z" fill="#ffc294" fill-rule="evenodd" stroke="none" stroke-width="4.43922" stroke-linecap="round" stroke-linejoin="round"/><g fill-rule="nonzero" stroke="#000000" stroke-width="0.5" stroke-linecap="butt" stroke-linejoin="miter"><path d="M250.40934,179.221c2.74128,3.88239 0.68446,8.43038 -3.4468,11.34738c-4.13126,2.917 -8.77256,3.09841 -11.51384,-0.78398c-2.20852,-3.12787 -4.96644,-8.36552 -3.21845,-12.15244c0.42165,-0.9135 2.50157,-2.57567 3.30445,-3.14257c1.62072,-1.14436 3.90695,-2.76802 6.16778,-2.25173c3.50213,0.79975 7.04099,4.62402 8.70684,6.98334z" fill="#ffc294"/><path d="M244.1281,173.57674c0.56066,0.79404 0.81587,2.20403 0.04485,2.78375c-0.49132,0.36941 -2.00653,-0.28026 -2.15846,0.56727c-0.26495,1.47799 2.24401,5.34591 0.88795,6.3034c-0.67456,0.47629 -3.22885,-1.98781 -3.67565,-1.25253c-1.6969,2.79243 -6.01362,1.91762 -7.24466,0.17413c-1.54095,-2.18241 -0.07117,-5.87142 3.28285,-8.23962c3.35402,-2.36821 7.32219,-2.51882 8.86314,-0.33641z" fill="#ffdbbf"/><path d="M234.15337,181.65637c-0.14289,1.23909 -1.8347,2.06183 -3.77878,1.83767c-1.94408,-0.22416 -5.04982,-2.77603 -4.90694,-4.01512c0.04831,-0.419 4.13767,-0.62038 5.42435,-0.47201c1.94408,0.22416 3.40425,1.41039 3.26137,2.64948z" data-paper-data="{&quot;index&quot;:null}" fill="#da2727"/><path d="M230.121,175.35971c-0.78511,-1.03013 -2.70193,-4.64802 -2.36646,-4.9037c0.99203,-0.75607 4.77268,0.60928 5.95892,2.16575c1.18624,1.55647 1.34368,3.43113 0.35164,4.1872c-0.99203,0.75607 -2.75786,0.10722 -3.9441,-1.44924z" data-paper-data="{&quot;index&quot;:null}" fill="#278bd9"/><path d="M234.02885,172.66695c-0.45872,-1.21125 -1.26416,-5.22555 -0.86973,-5.37494c1.16646,-0.44175 4.40072,1.94508 5.09382,3.77521c0.69309,1.83012 0.30937,3.67184 -0.85709,4.11359c-1.16646,0.44175 -2.67392,-0.68373 -3.36701,-2.51385z" data-paper-data="{&quot;index&quot;:null}" fill="#da2727"/><path d="M237.84751,170.65149c0.03306,-1.29478 0.80446,-5.31578 1.2261,-5.30501c1.2469,0.03184 3.33926,3.46397 3.2893,5.4203c-0.04996,1.95633 -1.10126,3.51645 -2.34815,3.48461c-1.2469,-0.03184 -2.21721,-1.64357 -2.16725,-3.59991z" data-paper-data="{&quot;index&quot;:null}" fill="#278bd9"/></g></g></g></svg>