<svg version="1.1" xmlns="http://www.w3.org/2000/svg" xmlns:xlink="http://www.w3.org/1999/xlink" width="416.31217" height="367.92552" viewBox="0,0,416.31217,367.92552"><g transform="translate(-25.7243,7.02689)"><g data-paper-data="{&quot;isPaintingLayer&quot;:true}" fill-rule="nonzero" stroke-linejoin="miter" stroke-miterlimit="10" stroke-dasharray="" stroke-dashoffset="0" style="mix-blend-mode: normal"><path d="M349.21501,279.46089c9.46238,8.16782 1.29456,17.6302 1.29456,17.6302l-10.34225,11.08817c-0.61072,0.17165 -1.21888,0.35587 -1.82555,0.54753c0.22112,0.93074 0.33817,1.90178 0.33817,2.90016c0,2.18752 -0.56191,4.24379 -1.54927,6.03235l-3.78438,7.19395c-5.89359,11.40567 -8.77625,19.6275 -22.51828,26.63013c-6.16195,3.13999 -13.64458,2.81064 -20.56039,2.78098c-0.27098,-0.00116 -0.5418,-0.00512 -0.81244,-0.01174c-0.83078,0.38353 -1.65683,0.77159 -2.47579,1.16706c-2.22763,1.07571 -4.35909,2.76891 -6.82911,2.90493c-23.59438,1.29926 -28.5586,-1.62457 -50.92983,-9.49711c-0.29486,-0.10376 -0.58428,-0.20777 -0.86854,-0.31221c-0.31251,1.25028 -0.69434,2.51922 -1.15514,3.811c-0.42211,1.18335 -2.49984,4.52677 -5.19773,8.57234c-0.67602,-0.25648 -1.35216,-0.51263 -2.02842,-0.76844c-9.90518,-5.60231 -13.20523,-7.46771 -20.79977,-11.76035c-1.73042,-1.57226 -3.6098,-2.79923 -5.80934,-3.28361c-0.47369,-0.26775 -0.96234,-0.54395 -1.46708,-0.82925l-0.30644,0.04468l0.08066,-0.16123l-2.99274,-1.49713c-1.39005,-0.73219 -2.97353,-1.1466 -4.65379,-1.1466c-2.69027,0 -5.13241,1.06234 -6.9298,2.79041l-0.91748,-0.30598c1.26297,-5.79483 3.03809,-11.10886 3.79953,-14.29426c1.0497,-4.39135 2.48539,-6.51737 4.75175,-8.9595c-0.19721,-0.08736 -0.39502,-0.17607 -0.59342,-0.26616c-0.738,-0.33508 -1.46892,-0.71315 -2.18652,-1.13041c-0.77067,0.33504 -1.57514,0.61494 -2.33706,0.95763c-9.83335,4.42269 -19.50213,9.57327 -29.96247,12.18789c-21.50806,5.37607 -26.00873,8.67917 -44.47857,5.95954c-1.07028,0.12063 -2.18651,0.24782 -3.35329,0.38277c-12.14154,1.40423 -15.39568,2.15109 -29.68631,-3.37118c-14.84772,-5.73755 -27.27793,-15.98775 -38.87376,-26.49148l-2.16297,-1.54576c-3.24417,-2.25806 -5.36745,-6.0144 -5.36745,-10.26666c0,-6.90356 5.59644,-12.5 12.5,-12.5c1.02562,0 2.02237,0.12352 2.97622,0.35649l3.25795,0.72437l-0.08216,0.36953c0.61627,0.00678 1.23531,0.05966 1.85757,0.16614c8.8217,1.50946 15.63257,8.71946 23.42449,13.1225c14.50997,8.19927 14.19324,9.60728 33.47998,13.36165c0.89983,0.17516 1.80455,0.3427 2.71294,0.49857c5.67943,-0.54929 11.36725,-1.0381 16.97017,-2.08774c1.54349,-0.28915 3.08116,-0.60809 4.61359,-0.95199c-4.36578,-0.30205 -8.80768,-0.93643 -13.464,-2.07334c-4.51307,-1.10193 -32.03117,-11.06163 -36.8626,-17.09385c-9.31699,-11.6326 -8.72273,-25.65126 11.34249,-24.67233c8.19938,0.40003 32.94478,14.49717 43.11289,17.17248c2.89273,0.7611 5.83363,1.2909 8.79506,1.7224c10.51559,-0.59942 33.95125,-2.57358 36.4265,-2.87266c4.16628,-0.5034 8.3256,-1.15903 12.48803,-1.77201c1.19582,-1.05092 2.39075,-2.03737 3.60709,-2.9875c0.43018,-0.37257 0.86079,-0.74465 1.29191,-1.11614l15.89078,-14.73559c2.23301,-2.08306 5.22998,-3.35771 8.52465,-3.35771c0.60707,0 1.20403,0.04327 1.78797,0.12691c4.45685,-3.36818 9.02899,-6.47681 14.33811,-7.86566c6.02147,-1.5752 27.95194,-3.81259 34.37017,6.6478c0.35438,-0.18086 0.72818,-0.30731 1.13137,-0.35058c0.24914,-0.02674 0.49841,-0.05046 0.74777,-0.07135c0.0202,-0.01641 0.04046,-0.03276 0.06077,-0.04905l-0.12448,-0.24882l2.12264,-1.06186c1.73757,-0.91524 3.71691,-1.43325 5.81724,-1.43325c6.90356,0 12.5,5.59644 12.5,12.5c0,1.84611 -0.4002,3.59875 -1.11858,5.17589l-2.23862,5.22616l-0.27688,-0.11861l0.01054,0.69896c-1.01761,1.83059 -3.61615,6.95143 -6.54685,12.01926c8.3557,-1.19565 16.82569,-2.09822 24.79974,-3.32101c7.15566,-0.52009 14.05408,1.03432 21.09106,0.59934l4.52499,-6.13547c0,0 8.16782,-9.46238 17.6302,-1.29456zM286.22742,328.69207c2.90713,-1.63743 6.25868,-3.59749 10.51947,-5.80127c0.49153,-0.25423 0.70672,-0.85517 1.10754,-1.23671c3.42257,-3.25787 6.4885,-6.9993 9.84483,-10.3525c-8.05665,1.23793 -16.12409,2.40572 -24.17665,3.67001c-5.06248,0.79483 -10.21827,1.16663 -15.173,2.47474c-4.40531,1.16307 -8.44378,3.59256 -12.77481,4.95038c6.47722,1.82441 13.10993,3.05945 19.71481,4.34825c0.47355,0.0924 5.4804,1.15528 10.93781,1.9471zM204.53259,335.89419c-0.2643,0.26405 -0.52971,0.52695 -0.79636,0.78858c-3.03643,2.97922 -3.13098,7.53336 -3.26542,12.09479c1.29698,-1.5646 2.51642,-3.17031 3.24809,-5.04138c0.95759,-2.44883 0.85595,-5.17609 0.81369,-7.842zM236.29389,277.78172c1.42879,-0.64094 2.87179,-1.2551 4.31872,-1.86185c0.19583,-0.1596 0.39315,-0.31692 0.59208,-0.47172c0.64848,-0.50464 1.83108,-0.28758 2.25759,-0.98991c0.01423,-0.02342 0.02816,-0.04716 0.04181,-0.07119c-0.69443,-0.02274 -1.34838,0.0572 -1.91795,0.32791c-1.84774,0.87819 -3.59706,1.9257 -5.29225,3.06678z" fill="#2b2020" stroke="none" stroke-width="0.5" stroke-linecap="butt"/><g data-paper-data="{&quot;index&quot;:null}" fill="#000000" stroke="#000000" stroke-width="1" stroke-linecap="round"><path d="M228.93504,211.55585c0,0 -19.78525,-9.77328 -33.42701,-9.02663c-4.97748,0.27243 -11.532,2.07647 -17.85008,4.25817c-2.00194,-0.26185 -4.0238,0.09497 -5.79742,0.98654c-0.68714,0.34542 -1.33704,0.7711 -1.93407,1.27217c-0.58921,0.41906 -1.1928,0.87154 -1.7892,1.33398c-6.75739,2.74304 -11.75859,5.14698 -11.75859,5.14698l4.20105,0.71093c-3.16002,1.58821 -7.26277,2.51434 -10.18596,4.5658c-9.60173,6.73836 -20.43064,14.44427 -28.42286,22.95945c-2.23573,2.38202 -4.78728,5.32644 -6.06385,8.47103c-7.24577,0.95625 -12.57695,1.09738 -18.29039,-4.06039c-7.42434,-6.70227 -12.33468,-17.7224 -12.70102,-31.2717c-0.09469,-3.50231 0.1395,-6.19493 0.66097,-8.38459c7.96264,-1.6639 15.87275,-4.39947 22.30115,-6.10224c8.54234,-2.26272 18.02875,-4.2969 26.32588,-7.59809c4.02968,-1.6033 7.85668,-3.78888 12.04126,-4.92826c5.30909,-1.44556 10.80261,-2.11842 16.208,-3.15873l-0.20893,0.26973c0,0 0.26586,-0.13529 0.75888,-0.37694c1.81173,-0.3579 3.6125,-0.76154 5.39201,-1.25398c2.62218,-0.72564 6.63281,-1.62947 8.26429,-4.11678c0.13384,-0.20405 0.23744,-0.41946 0.31815,-0.64358c6.98958,-2.62288 15.28071,-5.11954 22.08997,-5.40777c9.92634,-0.42018 25.0795,3.49821 34.06385,6.15208c-2.39894,5.69303 -4.16241,11.89727 -2.65576,16.56335c0.05539,0.17155 1.17128,4.26249 2.10637,4.72696c0.01885,0.00936 0.03808,0.01892 0.0577,0.02869z"/><path d="M97.52588,213.26981c0,0 -17.37236,-5.83145 -30.76152,8.23989c-13.38916,14.07135 -15.90051,40.79958 -15.90051,40.79958c0,0 0.19595,-32.42562 9.85529,-44.4142c9.65934,-11.98858 36.00392,-12.5034 36.00392,-12.5034z"/><path d="M102.26456,221.12115c0,0 -17.37236,-5.83145 -30.76152,8.23989c-13.38916,14.07135 -15.90052,40.7996 -15.90052,40.7996c0,0 0.19596,-32.42564 9.8553,-44.4142c9.65935,-11.98858 36.00392,-12.5034 36.00392,-12.5034z"/><path d="M107.07793,230.42272c0,0 -17.37236,-5.83145 -30.76152,8.23989c-13.38916,14.07135 -15.90051,40.79959 -15.90051,40.79959c0,0 0.19595,-32.42563 9.85528,-44.4142c9.65933,-11.98858 36.00392,-12.50339 36.00392,-12.50339z"/><path d="M111.81658,238.27407c0,0 -17.37236,-5.83145 -30.76152,8.23989c-13.38916,14.07135 -15.90052,40.7996 -15.90052,40.7996c0,0 0.19596,-32.42564 9.85529,-44.41421c9.65935,-11.98858 36.00392,-12.5034 36.00392,-12.5034z"/><path d="M118.04226,240.74377c0,0 4.62014,21.30129 -3.5866,28.87063c-8.20675,7.56934 -35.37619,7.06595 -35.37619,7.06595c0,0 21.94497,-1.48598 31.18403,-12.03009c9.23905,-10.54411 1.0146,-24.71676 1.0146,-24.71676z" data-paper-data="{&quot;index&quot;:null}"/></g><g fill="#000000" stroke="#000000" stroke-width="1" stroke-linecap="round"><path d="M436.53647,177.05986l-78,-33l-32,125l25,-140l85,33z"/><path d="M441.03647,157.55986l-99.5,-24.5l-37,131l30,-146l106.5,24.5z"/><path d="M441.53647,131.05986l-126,8l-32,125l25,-140l133,-8z"/></g><path d="M164.36588,37.22139c-3.41896,2.07622 -5.49518,-1.34274 -5.49518,-1.34274l-0.63301,-1.04239c-1.91002,-3.1574 -3.31446,-6.73348 -5.89747,-9.3689c-0.14454,-0.14747 -0.37579,0.17174 -0.55886,0.26727c-2.26672,1.18275 -5.2693,1.63456 -6.68242,3.76528c-0.8731,1.31647 -1.29276,2.88384 -2.00027,4.29622c-0.88298,1.76268 -2.24035,3.32676 -2.76962,5.22586c-0.81036,2.90769 2.53318,5.98389 4.04335,7.97122c0,0 2.41701,3.18717 -0.77017,5.60418c-1.48985,1.12984 -2.81141,1.03509 -3.79647,0.61375c-0.03262,0.12629 -0.07349,0.25403 -0.1235,0.38293l-0.48866,3.5558c0.62761,4.9132 -0.64018,9.87355 -1.14236,14.81478c2.2077,17.56632 4.34378,35.14184 6.49448,52.71533c1.67502,4.93726 3.35004,9.87451 5.02506,14.81177c0.85673,2.5253 2.30835,4.92211 2.5702,7.57589l1.60638,4.73493c0.59881,1.76503 -0.10524,3.65766 -1.59634,4.63243c0.0135,0.03978 0.02699,0.07956 0.04049,0.11934c1.12823,3.32554 2.25645,6.65108 3.38468,9.97662c0.97955,0.19588 1.86634,0.75522 2.46211,1.58022l3.59034,4.73438c7.31753,6.49511 14.64032,12.99085 21.91087,19.54076c1.61944,-0.47315 3.31812,0.12838 4.29801,1.4109l1.52867,1.90651c0.11289,-0.05035 0.22911,-0.09593 0.34848,-0.13643c1.56329,-0.53036 3.22667,-0.03869 4.26377,1.11666l2.84584,3.0322c3.75517,4.00109 7.52565,7.98888 11.28028,11.9911c1.68898,-0.02521 3.27486,1.02976 3.84678,2.71554l0.74656,2.20055c0.18361,0.19748 0.36716,0.39502 0.55063,0.59263c2.00659,2.16118 4.93964,3.75637 5.98815,6.51277c0.10136,0.26647 0.18391,0.5364 0.25027,0.8093l0.10764,-0.03652l1.2851,3.78794v0c0.70974,2.09202 -0.41082,4.3633 -2.50284,5.07305c-1.49429,0.50695 -3.08003,0.0801 -4.12285,-0.96759l-2.01596,-1.94409c-2.66945,-2.57429 -5.33949,-5.14795 -8.0093,-7.72186c-0.27351,0.1776 -0.57333,0.32439 -0.8963,0.43397c-1.56042,0.52939 -3.22057,0.04049 -4.25806,-1.11031l-1.41582,-1.50223l1.47443,5.92401c0.52282,2.01024 -0.58911,4.11283 -2.58734,4.79075c-1.77897,0.60354 -3.68756,-0.11644 -4.65536,-1.63182l-3.77442,-5.62783c-4.45599,-6.64408 -8.91849,-13.28387 -13.368,-19.9323c-0.25194,-0.37644 -0.52174,-0.74421 -0.80066,-1.10757c-0.20015,0.10924 -0.41241,0.20281 -0.63574,0.27858c-1.73426,0.58837 -3.59171,-0.08108 -4.58062,-1.51908l-4.6315,-6.41162c-0.09905,-0.08847 -0.22303,-0.22262 -0.3679,-0.3955c-0.46972,0.79302 -1.21433,1.42849 -2.15561,1.74782c-1.969,0.66801 -4.09679,-0.28536 -4.93199,-2.14402l-2.62462,-5.64303c-4.4984,-9.67172 -9.00029,-19.34182 -13.49519,-29.01516c-1.15413,-2.48376 -3.53726,-4.71479 -3.45976,-7.45251c0.00201,-0.07103 0.01084,-0.13731 0.02593,-0.19921c-0.00514,-0.01097 -0.01028,-0.02194 -0.01542,-0.03291l-0.0856,0.02904l-1.2851,-3.78794c-0.58691,-1.72995 0.07777,-3.58249 1.50838,-4.57324c-1.37748,-3.79623 -2.50742,-7.70717 -3.80784,-11.54236c-2.3225,-6.84955 -5.4483,-14.86916 -6.31731,-22.08463c-0.12655,-1.05074 -0.16107,-2.10369 -0.13459,-3.15807l-0.32856,-0.96847c-0.23407,-0.68995 -0.26907,-1.3994 -0.13579,-2.0659c-0.51132,-0.44781 -0.91524,-1.0321 -1.14931,-1.72205c-0.17264,-0.50888 -0.23699,-1.02837 -0.2054,-1.53341l0.16126,-4.1148l0.12797,0.00502l-0.10871,-0.27047c0.0761,-0.44015 0.15143,-0.87979 0.2262,-1.31895c-0.10926,-0.97038 0.03048,-1.96768 0.24192,-2.97273l-0.33846,-2.07192c-0.25726,-1.41689 0.27533,-2.84305 1.3378,-3.75154c0.96921,-9.02427 2.19772,-17.88429 3.71841,-26.81973c0.01459,-0.6707 0.08073,-1.32568 0.24745,-1.95c-4.61368,-1.72905 -9.25855,-3.37863 -13.82254,-5.23426c-2.3898,-0.97164 -5.32319,-1.21807 -7.09387,-3.09421c-2.9753,-3.15252 -3.58685,-12.10458 -4.10623,-15.83905c-0.1592,-1.14473 -2.19507,-15.78246 -2.22096,-16.55416c-0.03787,-1.12848 1.76192,-7.57116 2.06532,-8.08957c0.81806,-1.39781 2.37493,-2.22446 3.3583,-3.51135c0.65914,-0.86258 0.75657,-2.11045 1.52419,-2.8781c4.30204,-4.3022 10.72771,-6.27812 16.20873,-8.15922l2.84096,-0.96383c0,0 3.78794,-1.2851 5.07305,2.50284c1.2851,3.78794 -2.50284,5.07305 -2.50284,5.07305l-2.84096,0.96383c-3.59408,1.20336 -9.81468,2.83123 -12.80971,5.90954c-0.55863,0.57416 -0.48764,1.56199 -0.97865,2.19495c-1.896,2.44409 -4.15829,3.76127 -3.94459,7.27314c0.30973,5.08984 1.4611,10.09341 2.15212,15.14562c0.34424,2.51677 0.59742,5.04736 1.02356,7.55156c0.21979,1.29156 -0.02263,2.90507 0.91207,3.8231c1.03032,1.01196 2.80568,0.70086 4.17155,1.16991c1.98486,0.68162 3.95231,1.41149 5.91263,2.16112c-0.39841,-0.48784 -0.79371,-0.97803 -1.18629,-1.47005c-1.93737,-2.42813 -4.53568,-4.48237 -5.72786,-7.3508c-0.91372,-2.19844 -0.58101,-4.77295 -0.29328,-7.13626c0.44791,-3.67906 2.13736,-7.1109 2.83903,-10.7501c0.32074,-1.66349 0.12964,-3.45694 0.77646,-5.02274c0.93214,-2.25648 2.50605,-4.19337 3.86776,-6.21977c1.17699,-1.75151 1.98548,-3.93754 3.74284,-5.10577c2.57251,-1.71011 5.80519,-2.11398 8.70779,-3.17097l0.94699,-0.32128c0,0 3.78794,-1.2851 5.07305,2.50284c1.2851,3.78794 -2.50284,5.07305 -2.50284,5.07305l-0.94699,0.32128c-2.14799,0.65648 -4.52882,0.79599 -6.44398,1.96943c-1.04547,0.64057 -1.2445,2.11361 -1.90539,3.14635c-0.98521,1.53953 -2.334,2.87958 -3.03189,4.56887c-0.8796,2.12915 -0.62385,4.57771 -1.22456,6.8017c-0.64752,2.39728 -1.47771,4.75131 -1.95856,7.18751c-0.22019,1.11558 -0.64645,2.39419 -0.13289,3.40871c1.00679,1.98883 2.96788,3.32761 4.40539,5.03132c0.64298,0.76204 1.2818,1.5287 1.92265,2.29387c-0.39141,-1.52412 -0.4918,-3.16813 -0.16025,-4.99562c0.48983,-2.69992 2.28417,-4.99067 3.48748,-7.45675c0.96135,-1.97021 1.68556,-4.09946 3.00541,-5.84987c2.98033,-3.95257 11.74428,-8.80193 16.7378,-6.21459c3.60773,1.86931 7.58593,9.50169 9.40811,12.4917l0.63301,1.04239c0,0 2.07622,3.41896 -1.34274,5.49518z" fill="#000000" stroke="none" stroke-width="0.5" stroke-linecap="butt"/><g fill="#000000" stroke="#000000" stroke-width="1" stroke-linecap="round"><path d="M292.80732,178.06367l-172.73047,-45.66817l-17.88226,121.13967l-0.37261,-144.46984l194.56113,58.20602z"/><path d="M295.60392,168.95691l-178.30235,-11.38724l5.89242,122.31056l-28.31606,-141.66818l202.14621,19.46469z"/><path d="M263.01778,177.0651l-162.51347,-74.23451l-38.12043,116.36766l24.07608,-142.45005l181.90804,90.28527z"/></g></g></g></svg>