<svg version="1.1" xmlns="http://www.w3.org/2000/svg" xmlns:xlink="http://www.w3.org/1999/xlink" width="776.66756" height="776.66756" viewBox="0,0,776.66756,776.66756"><defs><radialGradient cx="240" cy="180.00001" r="368.61862" gradientUnits="userSpaceOnUse" id="color-1"><stop offset="0" stop-color="#997070"/><stop offset="1" stop-color="#997070" stop-opacity="0"/></radialGradient></defs><g transform="translate(148.33377,208.33377)"><g data-paper-data="{&quot;isPaintingLayer&quot;:true}" stroke-linejoin="miter" stroke-dasharray="" stroke-dashoffset="0" style="mix-blend-mode: normal"><g fill="#1a1313" fill-rule="nonzero" stroke="#000000" stroke-width="1" stroke-linecap="round" stroke-miterlimit="10"><path d="M105.97266,200.3511c-4.79017,0.11891 -25.80758,1.90627 -40.82929,-3.59797c-15.02171,-5.50424 -30.79905,-16.05717 -48.68188,-29.20064c-17.88283,-13.14346 -22.16031,-14.34077 -29.88719,-28.54578c-7.72687,-14.20502 -6.41387,-27.79593 -10.52154,-45.74127c-4.10768,-17.94535 0.57393,-26.8926 -8.9837,-39.47198c-9.55763,-12.57939 -21.6797,-17.10447 -38.31373,-22.77906c-16.63403,-5.67459 -15.01074,-3.83307 -21.54973,2.35704c-6.53898,6.19011 -8.9591,17.8652 -12.80652,30.1662c-3.84741,12.301 -2.0568,11.20839 -2.43443,18.56233c-0.37763,7.35394 -2.52049,16.09202 0.15637,25.80064c2.67687,9.70861 22.99618,23.4694 13.03811,22.05383c-9.95807,-1.41557 -17.52795,-12.10908 -24.62249,-23.70059c-7.09453,-11.59151 -6.58637,-17.04564 -7.44683,-28.69631c-0.86046,-11.65067 1.09016,-15.9776 3.40821,-25.98725c2.31804,-10.00964 2.85962,-17.58989 8.83621,-26.88587c5.9766,-9.29598 11.19569,-15.094 21.55366,-20.38248c10.35797,-5.28848 18.17434,-6.51489 30.29986,-6.09244c12.12552,0.42245 16.6599,2.91993 26.08413,8.05684c9.42423,5.13691 18.60794,11.73014 28.43047,21.65773c9.82253,9.92759 10.15401,11.81636 13.76746,20.99154c3.61344,9.17518 2.38064,18.38747 6.15043,29.58352c3.76979,11.19605 7.5281,20.37059 14.65614,32.21077c7.12803,11.84018 6.68856,9.63065 12.95895,13.65988c6.27038,4.02923 17.67245,8.99741 29.48541,13.61409c11.81296,4.61668 15.08997,7.66334 25.51708,7.88169c10.42712,0.21835 25.25417,-17.76775 30.38101,-6.71116c5.12684,11.05659 7.62431,28.53816 1.10338,49.93983c-6.52093,21.40167 -14.95938,11.138 -19.74955,11.25691z"/><path d="M125.72221,170.90583c6.52093,21.40167 4.02346,38.88325 -1.10338,49.93983c-5.12685,11.05659 -19.9539,-6.92951 -30.38101,-6.71116c-10.42711,0.21835 -13.70412,3.26502 -25.51708,7.8817c-11.81296,4.61668 -23.21503,9.58485 -29.48541,13.61408c-6.27038,4.02923 -5.83091,1.8197 -12.95894,13.65987c-7.12803,11.84017 -10.88634,21.01471 -14.65613,32.21076c-3.76979,11.19605 -2.53698,20.40834 -6.15043,29.58352c-3.61344,9.17518 -3.94493,11.06394 -13.76747,20.99154c-9.82253,9.92759 -19.00624,16.52082 -28.43046,21.65774c-9.42422,5.13691 -13.9586,7.63439 -26.08412,8.05685c-12.12552,0.42245 -19.9419,-0.80396 -30.29986,-6.09244c-10.35797,-5.28848 -15.57706,-11.0865 -21.55366,-20.38249c-5.9766,-9.29598 -6.51817,-16.87622 -8.83621,-26.88587c-2.31804,-10.00964 -4.26866,-14.33658 -3.40821,-25.98725c0.86046,-11.65067 0.35229,-17.1048 7.44683,-28.69631c7.09453,-11.59151 14.66442,-22.28501 24.62249,-23.70058c9.95807,-1.41557 -10.36125,12.34521 -13.03812,22.05383c-2.67687,9.70861 -0.534,18.4467 -0.15637,25.80063c0.37763,7.35393 -1.41299,6.26132 2.43443,18.56232c3.84741,12.301 6.26753,23.97609 12.80651,30.1662c6.53898,6.19011 4.9157,8.03164 21.54974,2.35705c16.63403,-5.67459 28.75611,-10.19968 38.31374,-22.77907c9.55763,-12.57939 4.87602,-21.52664 8.98369,-39.47198c4.10768,-17.94535 2.79467,-31.53625 10.52155,-45.74127c7.72688,-14.20502 12.00436,-15.40233 29.88719,-28.54579c17.88283,-13.14346 33.66016,-23.69638 48.68188,-29.20063c15.02172,-5.50424 36.03913,-3.71689 40.8293,-3.59798c4.79017,0.11891 13.22862,-10.14476 19.74955,11.25691z" data-paper-data="{&quot;index&quot;:null}"/><path d="M354.2778,189.09419c-6.52092,-21.40167 -4.02347,-38.88325 1.10338,-49.93983c5.12685,-11.05659 19.95389,6.92951 30.38101,6.71116c10.42712,-0.21835 13.70413,-3.26502 25.51709,-7.8817c11.81296,-4.61668 23.21503,-9.58485 29.48541,-13.61408c6.27038,-4.02923 5.83091,-1.81969 12.95895,-13.65987c7.12804,-11.84018 10.88634,-21.01472 14.65613,-32.21077c3.76979,-11.19605 2.53698,-20.40834 6.15043,-29.58352c3.61345,-9.17518 3.94493,-11.06394 13.76746,-20.99153c9.82253,-9.92759 19.00624,-16.52082 28.43047,-21.65774c9.42422,-5.13691 13.9586,-7.63439 26.08412,-8.05684c12.12553,-0.42245 19.9419,0.80396 30.29987,6.09244c10.35797,5.28848 15.57706,11.0865 21.55366,20.38249c5.97659,9.29599 6.51817,16.87623 8.83621,26.88587c2.31804,10.00964 4.26866,14.33658 3.40821,25.98725c-0.86046,11.65067 -0.3523,17.1048 -7.44683,28.69631c-7.09453,11.59151 -14.66441,22.28501 -24.62248,23.70058c-9.95807,1.41557 10.36124,-12.34521 13.03811,-22.05383c2.67687,-9.70861 0.534,-18.44669 0.15637,-25.80063c-0.37763,-7.35394 1.41298,-6.26132 -2.43443,-18.56233c-3.84741,-12.301 -6.26752,-23.97609 -12.80651,-30.1662c-6.53899,-6.19011 -4.9157,-8.03164 -21.54973,-2.35704c-16.63404,5.67459 -28.75611,10.19968 -38.31374,22.77907c-9.55763,12.57938 -4.87601,21.52664 -8.98369,39.47198c-4.10768,17.94535 -2.79467,31.53625 -10.52155,45.74127c-7.72688,14.20502 -12.00435,15.40233 -29.88718,28.54579c-17.88283,13.14346 -33.66016,23.69638 -48.68187,29.20063c-15.02172,5.50424 -36.03913,3.71689 -40.8293,3.59798c-4.79017,-0.11891 -13.22863,10.14476 -19.74955,-11.25691z"/><path d="M374.02735,159.64892c4.79017,-0.11891 25.80758,-1.90627 40.8293,3.59797c15.02172,5.50424 30.79904,16.05717 48.68187,29.20063c17.88283,13.14346 22.16031,14.34077 29.88718,28.54579c7.72688,14.20502 6.41387,27.79593 10.52155,45.74127c4.10768,17.94534 -0.57394,26.89259 8.98369,39.47198c9.55763,12.57939 21.6797,17.10448 38.31374,22.77907c16.63404,5.67459 15.01075,3.83306 21.54973,-2.35705c6.53899,-6.19011 8.9591,-17.8652 12.80651,-30.1662c3.84741,-12.301 2.0568,-11.20839 2.43443,-18.56232c0.37763,-7.35393 2.5205,-16.09202 -0.15637,-25.80063c-2.67687,-9.70862 -22.99618,-23.4694 -13.03811,-22.05383c9.95807,1.41557 17.52795,12.10908 24.62248,23.70059c7.09453,11.59151 6.58637,17.04564 7.44683,28.69631c0.86046,11.65067 -1.09016,15.9776 -3.40821,25.98725c-2.31804,10.00964 -2.85962,17.58989 -8.83621,26.88587c-5.97659,9.29598 -11.19569,15.09401 -21.55366,20.38249c-10.35797,5.28848 -18.17434,6.51489 -30.29987,6.09244c-12.12553,-0.42245 -16.6599,-2.91993 -26.08412,-8.05684c-9.42422,-5.13691 -18.60793,-11.73014 -28.43047,-21.65774c-9.82253,-9.92759 -10.15402,-11.81635 -13.76746,-20.99153c-3.61345,-9.17518 -2.38064,-18.38747 -6.15043,-29.58352c-3.76979,-11.19605 -7.5281,-20.37059 -14.65613,-32.21077c-7.12804,-11.84017 -6.68857,-9.63064 -12.95895,-13.65987c-6.27038,-4.02923 -17.67245,-8.99741 -29.48541,-13.61409c-11.81296,-4.61668 -15.08997,-7.66334 -25.51709,-7.88169c-10.42712,-0.21835 -25.25416,17.76775 -30.38101,6.71116c-5.12685,-11.05659 -7.6243,-28.53817 -1.10338,-49.93984c6.52092,-21.40167 14.95938,-11.13799 19.74955,-11.2569z" data-paper-data="{&quot;index&quot;:null}"/><path d="M260.35109,314.02736c0.11891,4.79017 1.90627,25.80758 -3.59798,40.8293c-5.50424,15.02172 -16.05717,30.79904 -29.20063,48.68187c-13.14346,17.88283 -14.34077,22.16031 -28.54578,29.88719c-14.20502,7.72688 -27.79593,6.41387 -45.74127,10.52155c-17.94535,4.10768 -26.89259,-0.57394 -39.47198,8.9837c-12.57939,9.55763 -17.10448,21.6797 -22.77907,38.31374c-5.67459,16.63403 -3.83307,15.01074 2.35704,21.54973c6.19011,6.53899 17.8652,8.9591 30.1662,12.80651c12.301,3.84741 11.20839,2.0568 18.56233,2.43443c7.35394,0.37763 16.09202,2.52049 25.80064,-0.15638c9.70862,-2.67687 23.4694,-22.99618 22.05383,-13.03811c-1.41557,9.95807 -12.10908,17.52795 -23.70059,24.62248c-11.59151,7.09453 -17.04563,6.58637 -28.69631,7.44683c-11.65068,0.86046 -15.9776,-1.09016 -25.98725,-3.40821c-10.00965,-2.31804 -17.58989,-2.85962 -26.88587,-8.83621c-9.29599,-5.97659 -15.094,-11.19569 -20.38248,-21.55366c-5.28848,-10.35797 -6.51489,-18.17434 -6.09244,-30.29987c0.42245,-12.12552 2.91993,-16.6599 8.05685,-26.08412c5.13692,-9.42422 11.73014,-18.60794 21.65773,-28.43047c9.92759,-9.82253 11.81636,-10.15401 20.99154,-13.76746c9.17518,-3.61345 18.38747,-2.38064 29.58352,-6.15043c11.19605,-3.76979 20.37059,-7.5281 32.21076,-14.65613c11.84017,-7.12804 9.63064,-6.68857 13.65988,-12.95895c4.02923,-6.27038 8.99741,-17.67245 13.61409,-29.48541c4.61668,-11.81296 7.66334,-15.08997 7.88169,-25.51709c0.21835,-10.42712 -17.76775,-25.25416 -6.71116,-30.38101c11.05659,-5.12685 28.53816,-7.6243 49.93983,-1.10338c21.40167,6.52092 11.138,14.95938 11.25691,19.74955z"/><path d="M230.90582,294.27781c21.40167,-6.52092 38.88325,-4.02347 49.93984,1.10338c11.05658,5.12685 -6.92951,19.95389 -6.71116,30.38101c0.21835,10.42712 3.26502,13.70413 7.88169,25.51709c4.61668,11.81296 9.58486,23.21503 13.61408,29.48541c4.02923,6.27038 1.8197,5.83091 13.65987,12.95895c11.84017,7.12804 21.01471,10.88634 32.21076,14.65613c11.19605,3.76979 20.40834,2.53698 29.58352,6.15043c9.17518,3.61345 11.06394,3.94493 20.99154,13.76746c9.92759,9.82253 16.52082,19.00624 21.65774,28.43047c5.13691,9.42422 7.63439,13.9586 8.05685,26.08412c0.42245,12.12552 -0.80396,19.9419 -6.09244,30.29987c-5.28848,10.35797 -11.0865,15.57706 -20.38249,21.55366c-9.29598,5.97659 -16.87622,6.51817 -26.88587,8.83621c-10.00964,2.31804 -14.33658,4.26866 -25.98725,3.40821c-11.65067,-0.86046 -17.1048,-0.3523 -28.69631,-7.44683c-11.59151,-7.09453 -22.28502,-14.66441 -23.70059,-24.62248c-1.41557,-9.95807 12.34521,10.36124 22.05383,13.03811c9.70862,2.67687 18.4467,0.534 25.80063,0.15637c7.35393,-0.37763 6.26132,1.41298 18.56232,-2.43443c12.301,-3.84741 23.97609,-6.26752 30.1662,-12.80651c6.19011,-6.53899 8.03164,-4.9157 2.35705,-21.54973c-5.67459,-16.63403 -10.19968,-28.7561 -22.77907,-38.31374c-12.57939,-9.55763 -21.52664,-4.87601 -39.47198,-8.98369c-17.94534,-4.10768 -31.53625,-2.79467 -45.74127,-10.52155c-14.20502,-7.72688 -15.40233,-12.00435 -28.54579,-29.88718c-13.14346,-17.88283 -23.69638,-33.66016 -29.20063,-48.68187c-5.50424,-15.02172 -3.71689,-36.03913 -3.59798,-40.8293c0.11891,-4.79017 -10.14476,-13.22863 11.25691,-19.74955z" data-paper-data="{&quot;index&quot;:null}"/><path d="M249.09418,65.72222c-21.40167,6.52093 -38.88325,4.02347 -49.93983,-1.10338c-11.05659,-5.12685 6.92951,-19.9539 6.71116,-30.38101c-0.21835,-10.42711 -3.26502,-13.70412 -7.8817,-25.51708c-4.61668,-11.81296 -9.58485,-23.21503 -13.61408,-29.48541c-4.02923,-6.27038 -1.8197,-5.83091 -13.65987,-12.95894c-11.84017,-7.12803 -21.01471,-10.88634 -32.21076,-14.65613c-11.19605,-3.76979 -20.40834,-2.53698 -29.58352,-6.15043c-9.17518,-3.61344 -11.06395,-3.94494 -20.99153,-13.76747c-9.92759,-9.82253 -16.52082,-19.00624 -21.65774,-28.43046c-5.13692,-9.42423 -7.6344,-13.9586 -8.05685,-26.08412c-0.42245,-12.12553 0.80396,-19.9419 6.09244,-30.29987c5.28848,-10.35797 11.0865,-15.57706 20.38249,-21.55366c9.29599,-5.9766 16.87622,-6.51816 26.88587,-8.83621c10.00965,-2.31805 14.33657,-4.26867 25.98725,-3.40821c11.65068,0.86046 17.1048,0.35229 28.69631,7.44683c11.59151,7.09454 22.28501,14.66442 23.70058,24.62249c1.41557,9.95807 -12.34521,-10.36124 -22.05383,-13.03812c-9.70862,-2.67687 -18.44669,-0.534 -25.80063,-0.15637c-7.35394,0.37763 -6.26132,-1.41298 -18.56233,2.43443c-12.301,3.84742 -23.97609,6.26753 -30.1662,12.80651c-6.19011,6.53898 -8.03163,4.9157 -2.35704,21.54974c5.67459,16.63403 10.19969,28.7561 22.77907,38.31373c12.57939,9.55763 21.52664,4.87601 39.47198,8.98369c17.94535,4.10768 31.53625,2.79467 45.74127,10.52155c14.20502,7.72688 15.40233,12.00435 28.54579,29.88718c13.14346,17.88283 23.69638,33.66016 29.20063,48.68188c5.50425,15.02172 3.71689,36.03913 3.59798,40.8293c-0.11891,4.79017 10.14477,13.22863 -11.25691,19.74955z"/><path d="M219.64891,45.97267c-0.11891,-4.79017 -1.90627,-25.80759 3.59797,-40.8293c5.50424,-15.02171 16.05717,-30.79904 29.20063,-48.68187c13.14346,-17.88283 14.34077,-22.16031 28.54579,-29.88718c14.20502,-7.72688 27.79593,-6.41388 45.74127,-10.52155c17.94534,-4.10768 26.89259,0.57394 39.47198,-8.98369c12.57939,-9.55763 17.10448,-21.6797 22.77907,-38.31373c5.67459,-16.63404 3.83306,-15.01075 -2.35705,-21.54973c-6.19011,-6.53898 -17.8652,-8.95909 -30.1662,-12.80651c-12.301,-3.84742 -11.20839,-2.0568 -18.56232,-2.43443c-7.35393,-0.37763 -16.09202,-2.5205 -25.80063,0.15637c-9.70862,2.67687 -23.4694,22.99618 -22.05383,13.03812c1.41557,-9.95807 12.10908,-17.52795 23.70058,-24.62249c11.59151,-7.09454 17.04564,-6.58638 28.69631,-7.44683c11.65067,-0.86046 15.9776,1.09017 25.98725,3.40821c10.00964,2.31805 17.58989,2.85961 26.88587,8.83621c9.29598,5.9766 15.09401,11.19569 20.38249,21.55366c5.28848,10.35797 6.51489,18.17434 6.09244,30.29987c-0.42245,12.12552 -2.91993,16.6599 -8.05684,26.08413c-5.13691,9.42423 -11.73014,18.60793 -21.65774,28.43047c-9.92759,9.82253 -11.81635,10.15402 -20.99153,13.76747c-9.17518,3.61344 -18.38747,2.38064 -29.58352,6.15043c-11.19605,3.76979 -20.37059,7.5281 -32.21076,14.65614c-11.84017,7.12804 -9.63064,6.68857 -13.65987,12.95895c-4.02923,6.27038 -8.99741,17.67245 -13.61408,29.48541c-4.61668,11.81296 -7.66335,15.08997 -7.8817,25.51709c-0.21835,10.42712 17.76775,25.25417 6.71116,30.38101c-11.05658,5.12685 -28.53816,7.62431 -49.93983,1.10338c-21.40167,-6.52092 -11.13799,-14.95938 -11.2569,-19.74955z" data-paper-data="{&quot;index&quot;:null}"/><path d="M159.61875,289.16205c-3.30308,3.47125 -16.90078,19.59665 -31.41483,26.32652c-14.51404,6.72987 -33.13235,10.42408 -55.07125,13.77532c-21.9389,3.35124 -25.81017,5.52926 -41.31836,0.94852c-15.50819,-4.58074 -24.18998,-15.1194 -39.78382,-24.90411c-15.59384,-9.78471 -18.6101,-19.42176 -34.26333,-21.55847c-15.65324,-2.13671 -27.42456,3.23517 -43.19914,10.98467c-15.77458,7.7495 -13.32459,7.9038 -13.57128,16.90463c-0.24669,9.00083 6.29756,18.96765 12.27515,30.3863c5.97759,11.41866 6.47115,9.37991 11.40415,14.84695c4.933,5.46704 9.59651,13.16104 18.35437,18.13323c8.75786,4.97219 32.85613,0.33461 24.81375,6.37507c-8.04238,6.04046 -20.95654,3.83172 -34.16957,0.65188c-13.21303,-3.17984 -16.71035,-7.39581 -25.55706,-15.02565c-8.8467,-7.62984 -10.52701,-12.06874 -15.96579,-20.78573c-5.43878,-8.71699 -10.41587,-14.45998 -12.76304,-25.25932c-2.34717,-10.79935 -2.75653,-18.58962 0.82814,-29.65333c3.58467,-11.06371 8.24448,-17.45792 17.11724,-25.73325c8.87276,-8.27533 13.84503,-9.71563 24.14131,-12.74721c10.29628,-3.03159 21.45226,-4.86334 35.41771,-4.78905c13.96545,0.07429 15.5354,1.17545 24.57833,5.10819c9.04293,3.93274 14.68527,11.31854 25.26771,16.5697c10.58245,5.25116 19.72736,9.08101 33.13991,12.41299c13.41255,3.33198 11.53942,2.08037 18.82234,0.49564c7.28292,-1.58473 18.85844,-6.13419 30.47595,-11.22273c11.61751,-5.08854 16.08902,-5.25142 23.6165,-12.4701c7.52748,-7.21868 5.2937,-30.42109 16.73712,-26.22813c11.44341,4.19296 25.57072,14.78833 36.093,34.53259c10.52228,19.74426 -2.70212,18.45363 -6.0052,21.92488z"/><path d="M152.76284,254.37606c19.74426,10.52228 30.33963,24.64959 34.53259,36.093c4.19296,11.44342 -19.00945,9.20963 -26.22813,16.73711c-7.21868,7.52748 -7.38156,11.99899 -12.4701,23.6165c-5.08854,11.61751 -9.63799,23.19302 -11.22272,30.47595c-1.58473,7.28292 -2.83635,5.40979 0.49563,18.82234c3.33199,13.41255 7.16183,22.55746 12.41299,33.13991c5.25116,10.58245 12.63696,16.22479 16.5697,25.26772c3.93274,9.04293 5.0339,10.61288 5.10819,24.57833c0.07429,13.96544 -1.75746,25.12142 -4.78905,35.41771c-3.03159,10.29628 -4.47188,15.26855 -12.74721,24.14131c-8.27533,8.87276 -14.66953,13.53256 -25.73325,17.11723c-11.06371,3.58467 -18.85399,3.17531 -29.65333,0.82815c-10.79935,-2.34717 -16.54233,-7.32425 -25.25933,-12.76304c-8.71699,-5.43879 -13.15588,-7.11908 -20.78572,-15.96579c-7.62984,-8.8467 -11.84582,-12.34403 -15.02565,-25.55706c-3.17984,-13.21303 -5.38858,-26.12719 0.65189,-34.16957c6.04046,-8.04238 1.40288,16.05589 6.37507,24.81375c4.97219,8.75786 12.66619,13.42138 18.13323,18.35437c5.46704,4.933 3.4283,5.42656 14.84695,11.40414c11.41866,5.97759 21.38546,12.52184 30.38629,12.27515c9.00083,-0.24669 9.15515,2.2033 16.90465,-13.57128c7.7495,-15.77458 13.12137,-27.54591 10.98467,-43.19914c-2.13671,-15.65323 -11.77376,-18.66949 -21.55847,-34.26333c-9.78471,-15.59384 -20.32336,-24.27564 -24.9041,-39.78383c-4.58074,-15.50819 -2.40274,-19.37945 0.9485,-41.31835c3.35124,-21.9389 7.04545,-40.5572 13.77532,-55.07125c6.72987,-14.51405 22.85528,-28.11174 26.32652,-31.41483c3.47125,-3.30308 2.18062,-16.52749 21.92488,-6.00521z" data-paper-data="{&quot;index&quot;:null}"/><path d="M327.23716,105.62397c-19.74426,-10.52228 -30.33963,-24.64959 -34.53259,-36.093c-4.19296,-11.44342 19.00945,-9.20963 26.22813,-16.73711c7.21868,-7.52748 7.38156,-11.999 12.4701,-23.61651c5.08854,-11.61751 9.63799,-23.19302 11.22272,-30.47594c1.58473,-7.28292 2.83635,-5.40979 -0.49563,-18.82234c-3.33198,-13.41255 -7.16183,-22.55746 -12.41299,-33.1399c-5.25116,-10.58244 -12.63696,-16.22479 -16.5697,-25.26772c-3.93274,-9.04292 -5.0339,-10.61288 -5.10819,-24.57832c-0.07429,-13.96545 1.75746,-25.12142 4.78904,-35.4177c3.03159,-10.29628 4.47188,-15.26855 12.74721,-24.14131c8.27533,-8.87276 14.66953,-13.53257 25.73325,-17.11723c11.06371,-3.58467 18.85399,-3.17531 29.65333,-0.82815c10.79935,2.34716 16.54233,7.32425 25.25932,12.76304c8.71699,5.43878 13.15589,7.11908 20.78573,15.96579c7.62984,8.84671 11.84582,12.34403 15.02566,25.55706c3.17984,13.21303 5.38858,26.12719 -0.65188,34.16957c-6.04046,8.04238 -1.40287,-16.05589 -6.37507,-24.81375c-4.97219,-8.75786 -12.66619,-13.42138 -18.13323,-18.35437c-5.46704,-4.933 -3.42829,-5.42656 -14.84695,-11.40414c-11.41865,-5.97759 -21.38547,-12.52184 -30.3863,-12.27515c-9.00083,0.24669 -9.15515,-2.2033 -16.90465,13.57128c-7.7495,15.77458 -13.12137,27.54591 -10.98466,43.19914c2.13671,15.65323 11.77376,18.66949 21.55847,34.26333c9.78471,15.59384 20.32336,24.27563 24.9041,39.78382c4.58074,15.50819 2.40274,19.37945 -0.94851,41.31835c-3.35124,21.9389 -7.04545,40.55721 -13.77532,55.07125c-6.72987,14.51404 -22.85528,28.11175 -26.32652,31.41483c-3.47125,3.30308 -2.18062,16.52748 -21.92487,6.00521z"/><path d="M320.38125,70.83797c3.30308,-3.47124 16.90078,-19.59665 31.41483,-26.32652c14.51405,-6.72987 33.13234,-10.42408 55.07124,-13.77532c21.9389,-3.35124 25.81016,-5.52925 41.31835,-0.94851c15.50819,4.58074 24.18998,15.11939 39.78382,24.9041c15.59384,9.78471 18.6101,19.42177 34.26334,21.55848c15.65323,2.13671 27.42455,-3.23517 43.19913,-10.98467c15.77458,-7.7495 13.32459,-7.90381 13.57128,-16.90464c0.24669,-9.00083 -6.29757,-18.96764 -12.27515,-30.38629c-5.97758,-11.41865 -6.47115,-9.3799 -11.40415,-14.84694c-4.933,-5.46704 -9.59651,-13.16103 -18.35437,-18.13323c-8.75786,-4.97219 -32.85613,-0.33461 -24.81375,-6.37507c8.04238,-6.04046 20.95654,-3.83172 34.16957,-0.65188c13.21303,3.17984 16.71036,7.39581 25.55706,15.02565c8.84671,7.62984 10.527,12.06873 15.96579,20.78573c5.43879,8.717 10.41588,14.45998 12.76304,25.25933c2.34717,10.79935 2.75652,18.58962 -0.82815,29.65333c-3.58467,11.06371 -8.24447,17.45792 -17.11723,25.73324c-8.87276,8.27532 -13.84504,9.71563 -24.14132,12.74721c-10.29628,3.03159 -21.45226,4.86333 -35.4177,4.78904c-13.96544,-0.07429 -15.5354,-1.17544 -24.57833,-5.10818c-9.04293,-3.93274 -14.68527,-11.31854 -25.26772,-16.5697c-10.58245,-5.25116 -19.72735,-9.08102 -33.1399,-12.413c-13.41255,-3.33199 -11.53942,-2.08036 -18.82234,-0.49563c-7.28292,1.58473 -18.85844,6.13419 -30.47595,11.22272c-11.61751,5.08854 -16.08902,5.25142 -23.6165,12.4701c-7.52748,7.21868 -5.2937,30.42109 -16.73711,26.22813c-11.44342,-4.19296 -25.57073,-14.78834 -36.093,-34.53259c-10.52227,-19.74425 2.70213,-18.45363 6.00521,-21.92487z" data-paper-data="{&quot;index&quot;:null}"/><path d="M349.16204,260.38126c3.47125,3.30308 19.59665,16.90078 26.32652,31.41482c6.72987,14.51405 10.42408,33.13235 13.77532,55.07125c3.35124,21.9389 5.52926,25.81016 0.94852,41.31835c-4.58074,15.50819 -15.1194,24.18998 -24.90411,39.78382c-9.78471,15.59384 -19.42176,18.6101 -21.55847,34.26334c-2.13671,15.65323 3.23517,27.42455 10.98467,43.19913c7.7495,15.77458 7.9038,13.32459 16.90463,13.57128c9.00083,0.24669 18.96765,-6.29756 30.3863,-12.27515c11.41866,-5.97758 9.37991,-6.47115 14.84695,-11.40414c5.46704,-4.933 13.16104,-9.59652 18.13323,-18.35438c4.97219,-8.75786 0.33461,-32.85613 6.37507,-24.81375c6.04046,8.04238 3.83172,20.95654 0.65188,34.16957c-3.17984,13.21303 -7.39581,16.71035 -15.02565,25.55706c-7.62984,8.8467 -12.06874,10.527 -20.78573,15.96579c-8.71699,5.43879 -14.45998,10.41588 -25.25932,12.76304c-10.79935,2.34717 -18.58962,2.75652 -29.65333,-0.82815c-11.06371,-3.58467 -17.45792,-8.24447 -25.73325,-17.11723c-8.27533,-8.87276 -9.71563,-13.84504 -12.74721,-24.14132c-3.03159,-10.29628 -4.86334,-21.45226 -4.78905,-35.4177c0.07429,-13.96544 1.17545,-15.5354 5.1082,-24.57833c3.93274,-9.04293 11.31854,-14.68527 16.5697,-25.26771c5.25116,-10.58245 9.08101,-19.72735 12.41299,-33.1399c3.33198,-13.41255 2.08037,-11.53942 0.49564,-18.82234c-1.58473,-7.28292 -6.13419,-18.85844 -11.22273,-30.47595c-5.08854,-11.61751 -5.25142,-16.08902 -12.4701,-23.6165c-7.21868,-7.52748 -30.42109,-5.2937 -26.22813,-16.73712c4.19296,-11.44342 14.78833,-25.57072 34.53259,-36.093c19.74426,-10.52228 18.45363,2.70212 21.92488,6.00521z"/><path d="M314.37604,267.23717c10.52227,-19.74426 24.64959,-30.33963 36.09301,-34.53259c11.44342,-4.19296 9.20963,19.00945 16.73711,26.22813c7.52748,7.21868 11.99899,7.38156 23.6165,12.4701c11.61751,5.08854 23.19302,9.63799 30.47595,11.22272c7.28292,1.58473 5.40979,2.83635 18.82234,-0.49563c13.41255,-3.33198 22.55746,-7.16183 33.13991,-12.41299c10.58245,-5.25116 16.22479,-12.63696 25.26772,-16.5697c9.04293,-3.93274 10.61288,-5.0339 24.57833,-5.10819c13.96545,-0.07429 25.12142,1.75746 35.4177,4.78905c10.29628,3.03159 15.26855,4.47188 24.14131,12.74721c8.87276,8.27533 13.53256,14.66953 17.11723,25.73325c3.58467,11.06371 3.17531,18.85399 0.82815,29.65333c-2.34717,10.79935 -7.32425,16.54233 -12.76304,25.25932c-5.43879,8.71699 -7.11908,13.15589 -15.96579,20.78573c-8.84671,7.62984 -12.34403,11.84582 -25.55706,15.02566c-13.21303,3.17984 -26.12719,5.38858 -34.16957,-0.65188c-8.04238,-6.04046 16.05589,-1.40287 24.81375,-6.37507c8.75786,-4.97219 13.42137,-12.66619 18.35437,-18.13323c4.933,-5.46704 5.42656,-3.42829 11.40415,-14.84695c5.97758,-11.41865 12.52184,-21.38547 12.27515,-30.3863c-0.24669,-9.00083 2.2033,-9.15515 -13.57128,-16.90465c-15.77458,-7.7495 -27.5459,-13.12137 -43.19914,-10.98466c-15.65323,2.13671 -18.66949,11.77376 -34.26333,21.55847c-15.59384,9.78471 -24.27564,20.32336 -39.78383,24.9041c-15.50819,4.58074 -19.37945,2.40274 -41.31835,-0.94851c-21.9389,-3.35124 -40.5572,-7.04545 -55.07125,-13.77532c-14.51405,-6.72987 -28.11174,-22.85528 -31.41483,-26.32652c-3.30308,-3.47125 -16.52749,-2.18062 -6.00521,-21.92487z" data-paper-data="{&quot;index&quot;:null}"/><path d="M165.62396,92.76285c-10.52228,19.74425 -24.64959,30.33963 -36.09301,34.53259c-11.44342,4.19296 -9.20963,-19.00944 -16.73711,-26.22813c-7.52748,-7.21868 -11.999,-7.38157 -23.61651,-12.47011c-11.61751,-5.08854 -23.19302,-9.63799 -30.47594,-11.22272c-7.28292,-1.58473 -5.40979,-2.83636 -18.82234,0.49563c-13.41255,3.33199 -22.55746,7.16184 -33.1399,12.413c-10.58244,5.25116 -16.22479,12.63696 -25.26771,16.5697c-9.04292,3.93274 -10.61288,5.0339 -24.57833,5.10819c-13.96545,0.07429 -25.12143,-1.75746 -35.41771,-4.78905c-10.29628,-3.03159 -15.26855,-4.47189 -24.14131,-12.74721c-8.87276,-8.27532 -13.53257,-14.66953 -17.11724,-25.73324c-3.58467,-11.06371 -3.17531,-18.85399 -0.82814,-29.65333c2.34717,-10.79935 7.32425,-16.54233 12.76304,-25.25933c5.43878,-8.717 7.11908,-13.15588 15.96579,-20.78572c8.84671,-7.62984 12.34403,-11.84582 25.55706,-15.02565c13.21303,-3.17984 26.12719,-5.38857 34.16957,0.65189c8.04238,6.04046 -16.05589,1.40288 -24.81375,6.37507c-8.75786,4.97219 -13.42137,12.66619 -18.35437,18.13323c-4.933,5.46704 -5.42656,3.4283 -11.40414,14.84695c-5.97759,11.41865 -12.52184,21.38547 -12.27515,30.3863c0.24669,9.00083 -2.2033,9.15514 13.57128,16.90464c15.77458,7.7495 27.5459,13.12137 43.19914,10.98467c15.65324,-2.13671 18.66949,-11.77376 34.26333,-21.55847c15.59384,-9.78471 24.27563,-20.32336 39.78383,-24.9041c15.50819,-4.58074 19.37945,-2.40273 41.31835,0.94851c21.9389,3.35124 40.55721,7.04546 55.07125,13.77533c14.51405,6.72987 28.11174,22.85528 31.41482,26.32652c3.30308,3.47124 16.52749,2.18062 6.00521,21.92488z"/><path d="M130.83796,99.61876c-3.47124,-3.30308 -19.59665,-16.90079 -26.32652,-31.41483c-6.72987,-14.51404 -10.42408,-33.13234 -13.77532,-55.07124c-3.35124,-21.9389 -5.52925,-25.81016 -0.94851,-41.31836c4.58074,-15.50819 15.11939,-24.18998 24.9041,-39.78382c9.78471,-15.59384 19.42177,-18.6101 21.55848,-34.26333c2.13671,-15.65323 -3.23517,-27.42456 -10.98467,-43.19914c-7.7495,-15.77458 -7.90381,-13.32459 -16.90465,-13.57128c-9.00083,-0.24669 -18.96764,6.29757 -30.38629,12.27516c-11.41865,5.97759 -9.37991,6.47115 -14.84695,11.40415c-5.46704,4.933 -13.16103,9.59651 -18.13323,18.35437c-4.97219,8.75786 -0.33461,32.85613 -6.37508,24.81375c-6.04046,-8.04238 -3.83172,-20.95654 -0.65188,-34.16957c3.17984,-13.21303 7.39581,-16.71035 15.02565,-25.55706c7.62984,-8.84671 12.06874,-10.52701 20.78573,-15.96579c8.71699,-5.43878 14.45998,-10.41587 25.25933,-12.76304c10.79935,-2.34716 18.58962,-2.75652 29.65333,0.82815c11.06371,3.58467 17.45792,8.24447 25.73325,17.11723c8.27533,8.87276 9.71563,13.84503 12.74721,24.14131c3.03159,10.29628 4.86333,21.45226 4.78904,35.41771c-0.07429,13.96545 -1.17544,15.5354 -5.10818,24.57833c-3.93274,9.04292 -11.31854,14.68527 -16.5697,25.26772c-5.25116,10.58245 -9.08101,19.72735 -12.413,33.1399c-3.33199,13.41255 -2.08036,11.53942 -0.49563,18.82235c1.58473,7.28293 6.13419,18.85844 11.22272,30.47595c5.08854,11.61751 5.25142,16.08903 12.4701,23.6165c7.21868,7.52748 30.42109,5.2937 26.22813,16.73711c-4.19296,11.44342 -14.78833,25.57072 -34.53259,36.093c-19.74426,10.52228 -18.45363,-2.70212 -21.92487,-6.0052z" data-paper-data="{&quot;index&quot;:null}"/><path d="M123.43534,249.2111c-4.39463,1.90974 -23.20108,11.46189 -39.19028,12.0041c-15.9892,0.54221 -34.57534,-3.31059 -56.08594,-8.77318c-21.5106,-5.46259 -25.92457,-4.96526 -38.42193,-15.22699c-12.49736,-10.26173 -16.38629,-23.35039 -26.9347,-38.43812c-10.54841,-15.08773 -9.57098,-25.13837 -23.15428,-33.20578c-13.5833,-8.06741 -26.51741,-7.70708 -44.06483,-6.71703c-17.54742,0.99005 -15.35122,2.08685 -19.08576,10.28008c-3.73454,8.19323 -1.59136,19.9223 -0.53578,32.76765c1.05558,12.84535 2.30457,11.16009 4.71729,18.11722c2.41272,6.95713 3.7095,15.8602 9.83757,23.85204c6.12807,7.99184 30.1286,13.11121 20.36815,15.54033c-9.76045,2.42912 -20.79313,-4.63729 -31.72264,-12.71451c-10.92951,-8.07721 -12.50755,-13.32273 -17.68184,-23.79676c-5.17429,-10.47403 -4.99207,-15.21681 -6.60419,-25.3641c-1.61212,-10.14729 -3.95792,-17.37575 -1.91137,-28.23607c2.04655,-10.86032 4.70519,-18.19432 12.31771,-26.98666c7.61252,-8.79234 14.39562,-12.86533 25.79167,-17.02907c11.39606,-4.16375 16.53653,-3.55266 27.20026,-2.33245c10.66373,1.2202 21.65166,3.88039 34.48425,9.39073c12.83259,5.51033 13.84935,7.13622 20.645,14.28186c6.79565,7.14563 9.11397,16.14627 16.8137,25.10601c7.69973,8.95974 14.6294,16.05035 25.68337,24.34544c11.05397,8.29508 9.81663,6.4125 17.14139,7.79097c7.32476,1.37847 19.75807,1.69926 32.44012,1.53995c12.68205,-0.15931 16.86358,1.43309 26.60895,-2.28176c9.74537,-3.71484 16.72944,-25.95364 25.63443,-17.63296c8.90499,8.32068 17.7869,23.58353 19.78369,45.86731c1.99679,22.28378 -9.67936,15.94202 -14.07399,17.85177z"/><path d="M130.67642,214.50325c14.08335,17.38429 18.33621,34.5236 17.73857,46.69633c-0.59763,12.17273 -21.09555,1.07423 -30.67687,5.19379c-9.58132,4.11956 -11.47373,8.17416 -20.68704,16.8905c-9.21331,8.71634 -17.91378,17.60408 -22.21118,23.6938c-4.2974,6.08972 -4.72019,3.87693 -6.87806,17.52765c-2.15787,13.65073 -2.19424,23.56514 -1.48183,35.35731c0.71241,11.79217 5.31575,19.86654 5.41387,29.72714c0.09812,9.86059 0.50047,11.73555 -4.87303,24.62603c-5.3735,12.89049 -11.40761,22.45086 -18.21171,30.75194c-6.8041,8.30109 -10.06811,12.31908 -21.14675,17.26584c-11.07864,4.94676 -18.78321,6.7466 -30.36922,5.73672c-11.58601,-1.00988 -18.60099,-4.42252 -27.63207,-10.79233c-9.03108,-6.36982 -12.38068,-13.19135 -18.28931,-21.59698c-5.90863,-8.40562 -9.34189,-11.68282 -12.92132,-22.80335c-3.57943,-11.12054 -6.09935,-15.98424 -3.87912,-29.39193c2.22024,-13.40769 5.21835,-26.16172 13.91522,-31.2146c8.69687,-5.05288 -4.96451,15.33341 -3.79802,25.33651c1.16649,10.00311 6.43507,17.29611 9.54773,23.96952c3.11266,6.67341 1.04273,6.33351 9.22951,16.28811c8.18678,9.95459 14.81565,19.86533 23.20113,23.1455c8.38548,3.28017 7.57291,5.59663 20.85674,-5.91129c13.28382,-11.50792 22.81801,-20.25552 26.9498,-35.50405c4.13179,-15.24853 -3.56815,-21.78164 -6.50297,-39.95567c-2.93482,-18.17403 -9.25741,-30.27616 -7.43298,-46.34348c1.82443,-16.06732 5.33879,-18.78386 16.97406,-37.68271c11.63528,-18.89885 22.29248,-34.60593 34.14607,-45.35028c11.85359,-10.74435 32.00298,-16.98362 36.48695,-18.67297c4.48397,-1.68935 8.44852,-14.37134 22.53186,3.01295z" data-paper-data="{&quot;index&quot;:null}"/><path d="M349.32358,145.49678c-14.08335,-17.38429 -18.3362,-34.5236 -17.73857,-46.69633c0.59763,-12.17274 21.09555,-1.07423 30.67686,-5.19379c9.58132,-4.11956 11.47374,-8.17415 20.68705,-16.8905c9.21331,-8.71635 17.91378,-17.60408 22.21119,-23.6938c4.29741,-6.08972 4.72019,-3.87692 6.87806,-17.52765c2.15787,-13.65073 2.19424,-23.56515 1.48182,-35.35732c-0.71242,-11.79217 -5.31575,-19.86653 -5.41386,-29.72713c-0.09812,-9.8606 -0.50047,-11.73555 4.87303,-24.62603c5.3735,-12.89048 11.40761,-22.45086 18.21171,-30.75195c6.8041,-8.30108 10.06811,-12.31908 21.14676,-17.26584c11.07864,-4.94676 18.78321,-6.74659 30.36922,-5.73672c11.58601,1.00988 18.60099,4.42252 27.63207,10.79234c9.03109,6.36982 12.38069,13.19136 18.28932,21.59698c5.90863,8.40563 9.34188,11.68281 12.92131,22.80334c3.57943,11.12054 6.09935,15.98425 3.87912,29.39194c-2.22024,13.40769 -5.21835,26.16173 -13.91522,31.2146c-8.69687,5.05288 4.96452,-15.33341 3.79803,-25.33651c-1.16649,-10.00311 -6.43507,-17.29611 -9.54773,-23.96952c-3.11266,-6.67341 -1.04273,-6.33351 -9.22951,-16.28811c-8.18678,-9.9546 -14.81564,-19.86533 -23.20113,-23.14549c-8.38549,-3.28016 -7.57292,-5.59663 -20.85674,5.91129c-13.28382,11.50792 -22.818,20.25552 -26.94979,35.50404c-4.13179,15.24853 3.56816,21.78164 6.50298,39.95567c2.93482,18.17403 9.2574,30.27616 7.43298,46.34348c-1.82443,16.06732 -5.33879,18.78387 -16.97407,37.68272c-11.63527,18.89885 -22.29247,34.60594 -34.14606,45.35028c-11.85359,10.74435 -32.00298,16.98362 -36.48695,18.67297c-4.48397,1.68935 -8.44852,14.37134 -22.53186,-3.01295z"/><path d="M356.56467,110.78892c4.39463,-1.90975 23.20108,-11.4619 39.19029,-12.00411c15.98921,-0.54221 34.57534,3.31058 56.08594,8.77318c21.51061,5.4626 25.92457,4.96527 38.42193,15.227c12.49736,10.26174 16.3863,23.35039 26.9347,38.43811c10.54841,15.08773 9.57097,25.13837 23.15427,33.20577c13.5833,8.06741 26.51742,7.70709 44.06484,6.71704c17.54742,-0.99005 15.35122,-2.08686 19.08577,-10.28008c3.73455,-8.19323 1.59135,-19.92231 0.53578,-32.76766c-1.05557,-12.84535 -2.30457,-11.16008 -4.71729,-18.11722c-2.41272,-6.95713 -3.70948,-15.86019 -9.83756,-23.85203c-6.12807,-7.99184 -30.12861,-13.11122 -20.36816,-15.54034c9.76045,-2.42911 20.79312,4.6373 31.72263,12.71451c10.92951,8.07721 12.50755,13.32273 17.68184,23.79676c5.17429,10.47403 4.99207,15.21682 6.60419,25.3641c1.61212,10.14729 3.95792,17.37574 1.91137,28.23607c-2.04655,10.86032 -4.70519,18.19433 -12.31771,26.98666c-7.61252,8.79234 -14.39561,12.86532 -25.79167,17.02907c-11.39606,4.16375 -16.53653,3.55266 -27.20026,2.33246c-10.66372,-1.2202 -21.65165,-3.8804 -34.48424,-9.39074c-12.83259,-5.51033 -13.84936,-7.13621 -20.64501,-14.28185c-6.79565,-7.14563 -9.11397,-16.14628 -16.81369,-25.10602c-7.69973,-8.95974 -14.6294,-16.05035 -25.68337,-24.34543c-11.05397,-8.29508 -9.81662,-6.41249 -17.14139,-7.79096c-7.32477,-1.37847 -19.75806,-1.69926 -32.44011,-1.53995c-12.68205,0.15931 -16.86358,-1.43309 -26.60896,2.28175c-9.74538,3.71484 -16.72944,25.95364 -25.63443,17.63296c-8.90499,-8.32068 -17.7869,-23.58353 -19.78369,-45.86731c-1.99679,-22.28378 9.67936,-15.94201 14.07399,-17.85176z" data-paper-data="{&quot;index&quot;:null}"/><path d="M309.21109,296.56468c1.90974,4.39463 11.46189,23.20108 12.0041,39.19028c0.54221,15.98921 -3.31059,34.57534 -8.77319,56.08594c-5.4626,21.51061 -4.96526,25.92457 -15.22699,38.42193c-10.26173,12.49736 -23.35039,16.3863 -38.43812,26.9347c-15.08773,10.54841 -25.13836,9.57098 -33.20577,23.15428c-8.06741,13.5833 -7.70709,26.51742 -6.71704,44.06484c0.99005,17.54742 2.08685,15.35122 10.28008,19.08576c8.19323,3.73455 19.92231,1.59136 32.76766,0.53578c12.84535,-1.05557 11.16008,-2.30457 18.11721,-4.71729c6.95713,-2.41272 15.86019,-3.70949 23.85204,-9.83757c7.99184,-6.12807 13.11122,-30.12861 15.54034,-20.36816c2.42912,9.76045 -4.63729,20.79313 -12.71451,31.72264c-8.07722,10.92951 -13.32273,12.50755 -23.79676,17.68184c-10.47403,5.17429 -15.21682,4.99207 -25.3641,6.60419c-10.14729,1.61212 -17.37575,3.95792 -28.23607,1.91137c-10.86032,-2.04655 -18.19432,-4.70519 -26.98666,-12.31771c-8.79234,-7.61252 -12.86532,-14.39562 -17.02907,-25.79167c-4.16375,-11.39606 -3.55266,-16.53653 -2.33246,-27.20026c1.2202,-10.66372 3.88039,-21.65166 9.39073,-34.48424c5.51033,-12.83259 7.13622,-13.84936 14.28186,-20.64501c7.14563,-6.79565 16.14627,-9.11397 25.10601,-16.81369c8.95974,-7.69973 16.05036,-14.6294 24.34544,-25.68337c8.29508,-11.05397 6.41249,-9.81662 7.79096,-17.14139c1.37847,-7.32477 1.69926,-19.75807 1.53995,-32.44012c-0.15931,-12.68205 1.43309,-16.86357 -2.28175,-26.60895c-3.71485,-9.74538 -25.95364,-16.72944 -17.63296,-25.63443c8.32068,-8.90499 23.58353,-17.7869 45.86731,-19.78369c22.28378,-1.99679 15.94202,9.67936 17.85177,14.07399z"/><path d="M274.50324,289.32359c17.38428,-14.08335 34.5236,-18.3362 46.69633,-17.73857c12.17273,0.59763 1.07423,21.09555 5.19379,30.67686c4.11956,9.58132 8.17416,11.47374 16.8905,20.68705c8.71634,9.21331 17.60408,17.91378 23.6938,22.21119c6.08972,4.29741 3.87692,4.72019 17.52765,6.87806c13.65073,2.15787 23.56515,2.19424 35.35732,1.48182c11.79217,-0.71242 19.86654,-5.31575 29.72713,-5.41386c9.86059,-0.09812 11.73555,-0.50047 24.62603,4.87303c12.89049,5.3735 22.45086,11.40761 30.75194,18.21171c8.30109,6.8041 12.31908,10.06811 17.26584,21.14675c4.94676,11.07864 6.74659,18.78321 5.73672,30.36923c-1.00988,11.58601 -4.42252,18.60099 -10.79233,27.63207c-6.36982,9.03109 -13.19135,12.38069 -21.59698,18.28931c-8.40562,5.90862 -11.68281,9.34188 -22.80335,12.92132c-11.12054,3.57943 -15.98425,6.09935 -29.39194,3.87912c-13.40769,-2.22024 -26.16172,-5.21835 -31.2146,-13.91521c-5.05288,-8.69687 15.33341,4.96452 25.33652,3.79802c10.00311,-1.16649 17.29611,-6.43507 23.96952,-9.54773c6.67341,-3.11266 6.33352,-1.04273 16.28811,-9.22951c9.95459,-8.18678 19.86532,-14.81564 23.14549,-23.20113c3.28017,-8.38549 5.59663,-7.57292 -5.91129,-20.85674c-11.50792,-13.28382 -20.25552,-22.818 -35.50404,-26.94979c-15.24853,-4.13179 -21.78164,3.56815 -39.95567,6.50297c-18.17403,2.93482 -30.27616,9.25741 -46.34347,7.43298c-16.06732,-1.82443 -18.78387,-5.33879 -37.68272,-16.97407c-18.89885,-11.63527 -34.60593,-22.29248 -45.35028,-34.14607c-10.74435,-11.85359 -16.98362,-32.00298 -18.67297,-36.48695c-1.68935,-4.48397 -14.37133,-8.44851 3.01295,-22.53186z" data-paper-data="{&quot;index&quot;:null}"/><path d="M205.49677,70.67643c-17.38429,14.08334 -34.5236,18.33621 -46.69633,17.73858c-12.17273,-0.59763 -1.07423,-21.09555 -5.19379,-30.67687c-4.11956,-9.58132 -8.17416,-11.47373 -16.8905,-20.68704c-8.71635,-9.21331 -17.60407,-17.91378 -23.69379,-22.21118c-6.08972,-4.29741 -3.87693,-4.72019 -17.52765,-6.87805c-13.65072,-2.15786 -23.56514,-2.19424 -35.35732,-1.48183c-11.79217,0.71242 -19.86654,5.31575 -29.72713,5.41387c-9.86059,0.09811 -11.73555,0.50047 -24.62603,-4.87303c-12.89048,-5.3735 -22.45086,-11.40761 -30.75194,-18.21172c-8.30109,-6.8041 -12.31908,-10.06811 -17.26584,-21.14675c-4.94676,-11.07865 -6.74659,-18.7832 -5.73671,-30.36922c1.00988,-11.58602 4.42252,-18.60099 10.79234,-27.63207c6.36981,-9.03109 13.19135,-12.38069 21.59698,-18.28932c8.40563,-5.90863 11.68282,-9.34188 22.80335,-12.92131c11.12054,-3.57944 15.98425,-6.09935 29.39194,-3.87912c13.40769,2.22024 26.16172,5.21835 31.2146,13.91522c5.05288,8.69687 -15.3334,-4.96452 -25.33651,-3.79803c-10.0031,1.16649 -17.29612,6.43507 -23.96952,9.54773c-6.6734,3.11266 -6.33352,1.04274 -16.28811,9.22951c-9.95459,8.18677 -19.86533,14.81564 -23.14549,23.20113c-3.28016,8.38549 -5.59663,7.57291 5.91129,20.85674c11.50792,13.28382 20.25552,22.81801 35.50405,26.9498c15.24853,4.13179 21.78164,-3.56816 39.95566,-6.50298c18.17403,-2.93482 30.27616,-9.2574 46.34348,-7.43297c16.06732,1.82442 18.78387,5.33879 37.68272,16.97407c18.89885,11.63528 34.60593,22.29248 45.35028,34.14607c10.74435,11.85359 16.98362,32.00298 18.67297,36.48695c1.68935,4.48397 14.37134,8.44852 -3.01295,22.53186z"/><path d="M170.78891,63.43535c-1.90974,-4.39462 -11.46189,-23.20108 -12.0041,-39.19029c-0.54221,-15.9892 3.31059,-34.57534 8.77318,-56.08594c5.46259,-21.5106 4.96526,-25.92457 15.22699,-38.42193c10.26173,-12.49736 23.35039,-16.38629 38.43812,-26.9347c15.08773,-10.54841 25.13837,-9.57097 33.20577,-23.15427c8.0674,-13.5833 7.70709,-26.51742 6.71704,-44.06484c-0.99005,-17.54742 -2.08686,-15.35122 -10.28009,-19.08577c-8.19323,-3.73454 -19.92231,-1.59135 -32.76766,-0.53578c-12.84535,1.05558 -11.16009,2.30456 -18.11722,4.71729c-6.95713,2.41272 -15.86019,3.70949 -23.85203,9.83756c-7.99184,6.12807 -13.11122,30.12861 -15.54033,20.36816c-2.42911,-9.76045 4.6373,-20.79313 12.71451,-31.72263c8.07721,-10.92951 13.32273,-12.50755 23.79676,-17.68184c10.47403,-5.17429 15.21681,-4.99207 25.3641,-6.60419c10.14729,-1.61212 17.37574,-3.95792 28.23607,-1.91137c10.86033,2.04655 18.19433,4.70519 26.98666,12.31771c8.79233,7.61252 12.86532,14.39561 17.02907,25.79167c4.16375,11.39605 3.55266,16.53654 2.33246,27.20026c-1.2202,10.66373 -3.8804,21.65165 -9.39074,34.48424c-5.51033,12.83259 -7.13621,13.84936 -14.28185,20.64501c-7.14564,6.79565 -16.14628,9.11396 -25.10602,16.81369c-8.95974,7.69973 -16.05035,14.6294 -24.34543,25.68337c-8.29508,11.05397 -6.41249,9.81663 -7.79096,17.14139c-1.37847,7.32476 -1.69926,19.75806 -1.53995,32.44012c0.15931,12.68205 -1.43309,16.86358 2.28175,26.60896c3.71484,9.74537 25.95364,16.72944 17.63296,25.63443c-8.32068,8.90499 -23.58353,17.7869 -45.86731,19.78369c-22.28378,1.99679 -15.94202,-9.67937 -17.85176,-14.07399z" data-paper-data="{&quot;index&quot;:null}"/><path d="M206.51597,311.36331c-1.75707,4.45787 -8.30086,24.51042 -19.22353,36.1999c-10.92267,11.68948 -26.78939,22.10753 -45.86232,33.45518c-19.07293,11.34765 -21.84241,14.82047 -37.93552,16.4013c-16.09311,1.58083 -28.09808,-4.92436 -46.22556,-8.13415c-18.12748,-3.20979 -24.5432,-11.00781 -39.85257,-7.10748c-15.30936,3.90033 -24.20038,13.30091 -35.9082,26.40888c-11.70782,13.10797 -9.37932,12.33058 -6.22656,20.76479c3.15276,8.43421 12.96194,15.21246 22.79138,23.54909c9.82944,8.33663 9.52094,6.2618 16.14644,9.47519c6.62549,3.21339 13.83785,8.59184 23.82214,9.90972c9.98429,1.31788 30.57518,-12.03312 25.39114,-3.41379c-5.18404,8.61933 -17.98202,11.4239 -31.4218,13.44078c-13.43978,2.01688 -18.26477,-0.57642 -29.3298,-4.32391c-11.06503,-3.74748 -14.28984,-7.22998 -22.605,-13.26526c-8.31516,-6.03528 -15.08517,-9.48783 -21.31746,-18.61437c-6.23228,-9.12654 -9.53826,-16.1924 -10.37252,-27.79238c-0.83426,-11.59998 1.08208,-19.2764 6.1961,-30.27884c5.11402,-11.00244 9.18099,-14.20521 17.5842,-20.88279c8.40321,-6.67758 18.05389,-12.56618 31.02429,-17.74379c12.9704,-5.17762 14.83905,-4.74691 24.69702,-4.49943c9.85798,0.24748 17.86168,4.97259 29.64171,5.86356c11.78002,0.89096 21.69387,1.00477 35.37571,-0.94606c13.68184,-1.95083 11.47571,-2.40709 17.62984,-6.61175c6.15412,-4.20466 15.17263,-12.7695 24.02754,-21.84972c8.85491,-9.08022 12.9377,-10.911 17.20192,-20.42881c4.26423,-9.51781 -6.52248,-30.1815 5.65791,-30.59467c12.18039,-0.41317 29.25331,4.09884 46.42227,18.4439c17.16896,14.34506 4.42836,18.11705 2.67129,22.57492z"/><path d="M187.09403,281.70093c22.25097,2.33411 37.37753,11.44621 45.56236,20.47623c8.18483,9.03001 -14.15721,15.67641 -18.01925,25.36439c-3.86204,9.68798 -2.33316,13.89315 -2.68456,26.57133c-0.35141,12.67818 -0.21899,25.11492 1.04837,32.45972c1.26736,7.34481 -0.59628,6.07907 7.5304,17.25743c8.12668,11.17836 15.11151,18.21465 23.95359,26.04922c8.84208,7.83457 17.80657,10.28896 24.84844,17.19208c7.04187,6.90312 8.65216,7.94439 13.96748,20.85898c5.31531,12.91459 7.80876,23.94155 8.86728,34.62254c1.05852,10.68099 1.59168,15.83013 -2.74421,27.16181c-4.3359,11.33168 -8.51117,18.0523 -17.41781,25.53076c-8.90664,7.47846 -16.28008,10.02569 -27.17016,11.90749c-10.89008,1.8818 -18.08217,-0.57322 -28.20387,-2.33887c-10.1217,-1.76565 -14.86669,-1.65529 -25.26114,-6.98765c-10.39445,-5.33236 -15.61547,-6.98968 -23.52619,-18.04029c-7.91073,-11.05061 -14.80919,-22.18906 -12.23251,-31.9116c2.57668,-9.72253 7.33191,14.35279 15.23001,20.60123c7.8981,6.24843 16.78048,7.67992 23.70027,10.19775c6.91979,2.51783 5.2158,3.74115 18.04369,4.99118c12.82789,1.25004 24.52315,3.57067 32.77201,-0.03934c8.24886,-3.61001 9.31227,-1.39745 10.56802,-18.92786c1.25575,-17.53041 1.81195,-30.45758 -6.04877,-44.16153c-7.86072,-13.70396 -17.92501,-12.87887 -32.85121,-23.65463c-14.92621,-10.77575 -27.95444,-14.86251 -38.02569,-27.51388c-10.07125,-12.65137 -9.50711,-17.05729 -14.64324,-38.64818c-5.13612,-21.59089 -8.70693,-40.23325 -7.92257,-56.21241c0.78436,-15.97915 10.62029,-34.63876 12.59639,-39.00395c1.9761,-4.3652 -4.18806,-16.13607 18.06291,-13.80195z" data-paper-data="{&quot;index&quot;:null}"/><path d="M292.90598,78.2991c-22.25097,-2.33411 -37.37753,-11.44622 -45.56236,-20.47623c-8.18483,-9.03001 14.1572,-15.6764 18.01925,-25.36438c3.86205,-9.68798 2.33316,-13.89316 2.68457,-26.57134c0.35141,-12.67818 0.21899,-25.11491 -1.04837,-32.45972c-1.26736,-7.3448 0.59628,-6.07908 -7.5304,-17.25744c-8.12668,-11.17836 -15.1115,-18.21464 -23.95359,-26.04921c-8.84208,-7.83457 -17.80657,-10.28896 -24.84844,-17.19208c-7.04187,-6.90311 -8.65217,-7.94439 -13.96748,-20.85899c-5.31531,-12.91459 -7.80875,-23.94156 -8.86728,-34.62254c-1.05853,-10.68098 -1.59169,-15.83013 2.74421,-27.1618c4.3359,-11.33167 8.51118,-18.0523 17.41782,-25.53075c8.90664,-7.47845 16.28008,-10.0257 27.17016,-11.9075c10.89008,-1.8818 18.08217,0.57323 28.20387,2.33888c10.12171,1.76565 14.8667,1.65529 25.26115,6.98765c10.39445,5.33236 15.61547,6.98968 23.52619,18.04029c7.91073,11.05061 14.80919,22.18907 12.23251,31.9116c-2.57668,9.72253 -7.33191,-14.35279 -15.23001,-20.60123c-7.8981,-6.24844 -16.78048,-7.67991 -23.70027,-10.19774c-6.91979,-2.51783 -5.2158,-3.74115 -18.04369,-4.99119c-12.82789,-1.25003 -24.52315,-3.57066 -32.77201,0.03934c-8.24886,3.61001 -9.31227,1.39745 -10.56802,18.92785c-1.25575,17.53041 -1.81195,30.45757 6.04877,44.16153c7.86072,13.70396 17.92501,12.87887 32.85121,23.65462c14.9262,10.77575 27.95445,14.86252 38.02569,27.51389c10.07124,12.65137 9.50711,17.05729 14.64323,38.64818c5.13612,21.59089 8.70693,40.23326 7.92257,56.21241c-0.78436,15.97916 -10.62029,34.63875 -12.59638,39.00395c-1.9761,4.3652 4.18806,16.13608 -18.06291,13.80196z"/><path d="M273.48403,48.63671c1.75707,-4.45786 8.30087,-24.51042 19.22354,-36.1999c10.92267,-11.68948 26.78938,-22.10752 45.86232,-33.45517c19.07294,-11.34765 21.84241,-14.82047 37.93552,-16.4013c16.09311,-1.58082 28.09808,4.92435 46.22556,8.13414c18.12748,3.20979 24.54321,11.00782 39.85258,7.10749c15.30937,-3.90033 24.20038,-13.30091 35.90821,-26.40888c11.70783,-13.10797 9.37932,-12.33058 6.22656,-20.76479c-3.15276,-8.43421 -12.96195,-15.21246 -22.79138,-23.54909c-9.82943,-8.33663 -9.52094,-6.26179 -16.14643,-9.47518c-6.62549,-3.21339 -13.83785,-8.59184 -23.82214,-9.90972c-9.98429,-1.31789 -30.57517,12.03311 -25.39113,3.41379c5.18404,-8.61933 17.98203,-11.4239 31.42181,-13.44078c13.43978,-2.01688 18.26476,0.57642 29.3298,4.3239c11.06504,3.74748 14.28984,7.22999 22.605,13.26527c8.31516,6.03527 15.08518,9.48783 21.31746,18.61437c6.23228,9.12654 9.53826,16.19241 10.37252,27.79239c0.83426,11.59998 -1.08208,19.2764 -6.19609,30.27884c-5.11401,11.00244 -9.18099,14.20521 -17.5842,20.88278c-8.40321,6.67758 -18.05389,12.56617 -31.02429,17.74379c-12.97041,5.17762 -14.83904,4.74691 -24.69701,4.49944c-9.85798,-0.24747 -17.86169,-4.97259 -29.64172,-5.86355c-11.78003,-0.89096 -21.69386,-1.00478 -35.3757,0.94605c-13.68185,1.95083 -11.47571,2.4071 -17.62983,6.61176c-6.15412,4.20466 -15.17263,12.7695 -24.02754,21.84972c-8.85491,9.08022 -12.9377,10.911 -17.20193,20.42881c-4.26423,9.51781 6.52249,30.18151 -5.6579,30.59467c-12.18039,0.41317 -29.25331,-4.09884 -46.42226,-18.4439c-17.16895,-14.34506 -4.42836,-18.11705 -2.67129,-22.57492z" data-paper-data="{&quot;index&quot;:null}"/><path d="M371.3633,213.48404c4.45787,1.75707 24.51042,8.30086 36.1999,19.22353c11.68948,10.92267 22.10752,26.78939 33.45517,45.86233c11.34765,19.07294 14.82047,21.84241 16.4013,37.93552c1.58083,16.09311 -4.92436,28.09808 -8.13415,46.22557c-3.20979,18.12748 -11.00781,24.54321 -7.10748,39.85257c3.90033,15.30937 13.30091,24.20038 26.40889,35.90821c13.10797,11.70783 12.33057,9.37932 20.76478,6.22656c8.43421,-3.15276 15.21246,-12.96194 23.54909,-22.79138c8.33663,-9.82943 6.2618,-9.52095 9.47519,-16.14644c3.21339,-6.62549 8.59184,-13.83785 9.90972,-23.82214c1.31789,-9.98429 -12.03311,-30.57517 -3.41379,-25.39113c8.61933,5.18404 11.42389,17.98203 13.44077,31.42181c2.01688,13.43978 -0.57641,18.26477 -4.3239,29.3298c-3.74748,11.06504 -7.22999,14.28984 -13.26526,22.605c-6.03527,8.31516 -9.48783,15.08517 -18.61437,21.31745c-9.12654,6.23228 -16.1924,9.53827 -27.79238,10.37252c-11.59998,0.83426 -19.2764,-1.08208 -30.27884,-6.1961c-11.00244,-5.11401 -14.20521,-9.18099 -20.88279,-17.5842c-6.67758,-8.40321 -12.56618,-18.05388 -17.74379,-31.02429c-5.17762,-12.9704 -4.74691,-14.83904 -4.49943,-24.69702c0.24748,-9.85798 4.9726,-17.86168 5.86356,-29.64171c0.89096,-11.78003 1.00477,-21.69387 -0.94606,-35.37571c-1.95083,-13.68185 -2.40709,-11.47572 -6.61175,-17.62984c-4.20466,-6.15412 -12.7695,-15.17262 -21.84972,-24.02753c-9.08022,-8.85491 -10.911,-12.9377 -20.42881,-17.20192c-9.51781,-4.26423 -30.1815,6.52248 -30.59467,-5.65791c-0.41317,-12.18039 4.09884,-29.25331 18.4439,-46.42227c14.34506,-17.16896 18.11706,-4.42836 22.57493,-2.67129z"/><path d="M341.70092,232.90599c2.33411,-22.25097 11.44621,-37.37753 20.47623,-45.56236c9.03001,-8.18483 15.67641,14.15721 25.36439,18.01925c9.68798,3.86204 13.89316,2.33316 26.57134,2.68456c12.67818,0.35141 25.11491,0.21899 32.45972,-1.04837c7.34481,-1.26736 6.07908,0.59628 17.25744,-7.5304c11.17836,-8.12668 18.21464,-15.11151 26.04921,-23.95359c7.83457,-8.84208 10.28896,-17.80657 17.19208,-24.84843c6.90311,-7.04187 7.94439,-8.65217 20.85898,-13.96748c12.91459,-5.31531 23.94155,-7.80875 34.62254,-8.86728c10.68098,-1.05853 15.83013,-1.59168 27.1618,2.74421c11.33168,4.3359 18.0523,8.51118 25.53076,17.41782c7.47846,8.90664 10.02569,16.28008 11.90749,27.17016c1.8818,10.89008 -0.57322,18.08217 -2.33887,28.20387c-1.76565,10.1217 -1.65529,14.86669 -6.98765,25.26115c-5.33236,10.39445 -6.98968,15.61547 -18.04029,23.5262c-11.05061,7.91072 -22.18907,14.80919 -31.9116,12.23251c-9.72253,-2.57668 14.3528,-7.33191 20.60123,-15.23001c6.24843,-7.8981 7.67991,-16.78048 10.19774,-23.70027c2.51783,-6.91979 3.74115,-5.2158 4.99118,-18.04369c1.25004,-12.82789 3.57066,-24.52315 -0.03934,-32.77201c-3.61001,-8.24886 -1.39745,-9.31227 -18.92786,-10.56802c-17.53041,-1.25575 -30.45758,-1.81195 -44.16153,6.04877c-13.70395,7.86072 -12.87887,17.92501 -23.65462,32.85121c-10.77575,14.92621 -14.86252,27.95444 -27.51389,38.02569c-12.65137,10.07125 -17.05729,9.50711 -38.64818,14.64324c-21.59089,5.13612 -40.23325,8.70693 -56.21241,7.92257c-15.97915,-0.78436 -34.63875,-10.62029 -39.00394,-12.59639c-4.36519,-1.9761 -16.13608,4.18806 -13.80196,-18.0629z" data-paper-data="{&quot;index&quot;:null}"/><path d="M138.29909,127.09404c-2.33411,22.25097 -11.44621,37.37753 -20.47622,45.56236c-9.03002,8.18483 -15.67641,-14.15721 -25.36439,-18.01925c-9.68798,-3.86204 -13.89316,-2.33316 -26.57134,-2.68456c-12.67818,-0.35141 -25.11492,-0.219 -32.45972,1.04836c-7.34481,1.26736 -6.07908,-0.59627 -17.25743,7.53041c-11.17836,8.12668 -18.21464,15.1115 -26.04921,23.95359c-7.83457,8.84208 -10.28896,17.80657 -17.19207,24.84844c-6.90311,7.04187 -7.94439,8.65217 -20.85899,13.96748c-12.91459,5.31531 -23.94155,7.80875 -34.62253,8.86728c-10.68099,1.05853 -15.83013,1.59169 -27.1618,-2.74421c-11.33168,-4.3359 -18.0523,-8.51118 -25.53075,-17.41782c-7.47845,-8.90664 -10.02569,-16.28008 -11.90749,-27.17016c-1.8818,-10.89008 0.57322,-18.08217 2.33887,-28.20387c1.76565,-10.1217 1.65529,-14.8667 6.98765,-25.26115c5.33236,-10.39445 6.98968,-15.61546 18.04029,-23.52619c11.05061,-7.91072 22.18906,-14.80919 31.9116,-12.23251c9.72254,2.57668 -14.35279,7.33191 -20.60123,15.23c-6.24844,7.89809 -7.67991,16.78048 -10.19774,23.70028c-2.51783,6.91979 -3.74115,5.2158 -4.99119,18.04369c-1.25003,12.82789 -3.57066,24.52315 0.03934,32.77201c3.61001,8.24886 1.39744,9.31227 18.92785,10.56802c17.53041,1.25575 30.45757,1.81195 44.16153,-6.04877c13.70396,-7.86072 12.87888,-17.92501 23.65463,-32.85121c10.77575,-14.92621 14.86251,-27.95445 27.51388,-38.0257c12.65137,-10.07125 17.05729,-9.5071 38.64818,-14.64323c21.59089,-5.13613 40.23325,-8.70693 56.21241,-7.92257c15.97916,0.78436 34.63876,10.62028 39.00395,12.59638c4.3652,1.9761 16.13607,-4.18806 13.80195,18.06291z"/><path d="M108.63671,146.51598c-4.45786,-1.75707 -24.51042,-8.30087 -36.1999,-19.22354c-11.68948,-10.92267 -22.10752,-26.78938 -33.45518,-45.86232c-11.34765,-19.07293 -14.82047,-21.84241 -16.40129,-37.93552c-1.58083,-16.09311 4.92435,-28.09807 8.13414,-46.22556c3.20979,-18.12748 11.00782,-24.54321 7.10749,-39.85257c-3.90033,-15.30936 -13.30091,-24.20038 -26.40888,-35.9082c-13.10797,-11.70782 -12.33058,-9.37933 -20.76479,-6.22656c-8.43421,3.15277 -15.21245,12.96195 -23.54908,22.79139c-8.33663,9.82944 -6.26179,9.52094 -9.47518,16.14643c-3.21339,6.62549 -8.59185,13.83785 -9.90973,23.82214c-1.31788,9.98429 12.03312,30.57518 3.41379,25.39114c-8.61933,-5.18404 -11.42389,-17.98203 -13.44077,-31.42181c-2.01688,-13.43978 0.57642,-18.26476 4.3239,-29.3298c3.74748,-11.06504 7.22999,-14.28984 13.26526,-22.60499c6.03527,-8.31516 9.48783,-15.08518 18.61437,-21.31746c9.12654,-6.23228 16.19241,-9.53826 27.79239,-10.37252c11.59998,-0.83426 19.2764,1.08208 30.27884,6.1961c11.00244,5.11401 14.20521,9.18099 20.88278,17.58419c6.67758,8.40321 12.56617,18.05389 17.74379,31.0243c5.17762,12.97041 4.74691,14.83904 4.49944,24.69702c-0.24747,9.85798 -4.97259,17.86169 -5.86356,29.64172c-0.89096,11.78003 -1.00478,21.69386 0.94606,35.3757c1.95083,13.68184 2.40709,11.47571 6.61176,17.62983c4.20466,6.15412 12.76951,15.17263 21.84972,24.02754c9.08021,8.85491 10.911,12.93771 20.42881,17.20193c9.51781,4.26422 30.1815,-6.52249 30.59467,5.6579c0.41317,12.18039 -4.09884,29.25331 -18.4439,46.42227c-14.34507,17.16896 -18.11705,4.42836 -22.57492,2.67129z" data-paper-data="{&quot;index&quot;:null}"/></g><path d="M-128.61862,180.00001c0,-203.58244 165.03618,-368.61862 368.61862,-368.61862c203.58244,0 368.61862,165.03618 368.61862,368.61862c0,203.58244 -165.03618,368.61862 -368.61862,368.61862c-203.58244,0 -368.61862,-165.03618 -368.61862,-368.61862z" fill="url(#color-1)" fill-rule="nonzero" stroke="none" stroke-width="0" stroke-linecap="butt" stroke-miterlimit="10"/><path d="M74.33334,355.72582v-331.33333h331.33333v331.33333z" fill="#664d4d" fill-rule="nonzero" stroke="#810e12" stroke-width="0" stroke-linecap="butt" stroke-miterlimit="10"/><g fill="none" fill-rule="nonzero" stroke="#403030" stroke-width="1" stroke-linecap="round" stroke-miterlimit="10"><path d="M108.16426,25.15805v329.69588" data-paper-data="{&quot;origPos&quot;:null}"/><path d="M142.22642,25.15803v329.69594" data-paper-data="{&quot;origPos&quot;:null}"/><path d="M173.66843,354.85399v-329.69588" data-paper-data="{&quot;origPos&quot;:null}"/><path d="M207.7306,354.85397v-329.69594" data-paper-data="{&quot;origPos&quot;:null}"/><path d="M239.17261,25.1581v329.69588" data-paper-data="{&quot;origPos&quot;:null}"/><path d="M273.2348,354.85403v-329.69594" data-paper-data="{&quot;origPos&quot;:null}"/><path d="M304.6768,25.1581v329.69588" data-paper-data="{&quot;origPos&quot;:null}"/><path d="M338.73898,354.85396v-329.69594" data-paper-data="{&quot;origPos&quot;:null}"/><path d="M371.83583,354.8539v-329.69589" data-paper-data="{&quot;origPos&quot;:null}"/><path d="M75.23615,321.09111h329.86105" data-paper-data="{&quot;origPos&quot;:null,&quot;origRot&quot;:0}"/><path d="M405.09726,287.02888h-329.86111" data-paper-data="{&quot;origPos&quot;:null,&quot;origRot&quot;:0}"/><path d="M405.09726,255.58693h-329.86105" data-paper-data="{&quot;origPos&quot;:null,&quot;origRot&quot;:0}"/><path d="M405.09726,221.52474h-329.86111" data-paper-data="{&quot;origPos&quot;:null,&quot;origRot&quot;:0}"/><path d="M405.09726,190.08268h-329.86105" data-paper-data="{&quot;origPos&quot;:null,&quot;origRot&quot;:0}"/><path d="M75.23621,156.02054h329.86111" data-paper-data="{&quot;origPos&quot;:null,&quot;origRot&quot;:0}"/><path d="M75.23621,124.57849h329.86105" data-paper-data="{&quot;origPos&quot;:null,&quot;origRot&quot;:0}"/><path d="M405.09726,90.51635h-329.86111" data-paper-data="{&quot;origPos&quot;:null,&quot;origRot&quot;:0}"/><path d="M405.09714,57.41952h-329.86105" data-paper-data="{&quot;origPos&quot;:null,&quot;origRot&quot;:0}"/></g><path d="M74.33333,355.72582v-331.33333h331.33333v331.33333z" fill="none" fill-rule="nonzero" stroke="#000000" stroke-width="1.5" stroke-linecap="butt" stroke-miterlimit="10"/><g fill="#cc9999" fill-rule="evenodd" stroke="#000000" stroke-width="0" stroke-linecap="round" stroke-miterlimit="8"><path d="M225.94738,4.2742c2.16195,0 3.91465,1.76496 3.91465,3.94278v5.65679c0,2.1776 -1.75271,3.943 -3.91465,3.943c-2.16195,0 -3.91465,-1.76539 -3.91465,-3.943v-5.65679c0,-2.17782 1.75271,-3.94278 3.91465,-3.94278zM225.94401,6.65687c-0.87963,0 -1.59253,0.71796 -1.59253,1.60373v5.56006c0,0.88578 0.71289,1.60373 1.59253,1.60373c0.87942,0 1.59232,-0.71796 1.59232,-1.60373v-5.56006c0,-0.88578 -0.71289,-1.60373 -1.59232,-1.60373z"/><path d="M215.11501,4.2742c2.16195,0 3.91465,1.76496 3.91465,3.94278v5.65679c0,2.1776 -1.75271,3.943 -3.91465,3.943c-2.16195,0 -3.91465,-1.76539 -3.91465,-3.943v-5.65679c0,-2.17782 1.75271,-3.94278 3.91465,-3.94278zM215.11165,6.65687c-0.87963,0 -1.59253,0.71796 -1.59253,1.60373v5.56006c0,0.88578 0.71289,1.60373 1.59253,1.60373c0.87942,0 1.59232,-0.71796 1.59232,-1.60373v-5.56006c0,-0.88578 -0.71289,-1.60373 -1.59232,-1.60373z"/><path d="M236.81635,4.2742c2.16195,0 3.91465,1.76496 3.91465,3.94278v5.65676c0,2.1776 -1.75271,3.943 -3.91465,3.943c-2.16195,0 -3.91464,-1.76539 -3.91464,-3.943v-5.65676c0,-2.17782 1.75271,-3.94278 3.91464,-3.94278zM236.81297,6.65687c-0.87963,0 -1.59253,0.71796 -1.59253,1.60373v5.56006c0,0.88579 0.71289,1.60373 1.59253,1.60373c0.87942,0 1.59232,-0.71796 1.59232,-1.60373v-5.56006c0,-0.88579 -0.71289,-1.60373 -1.59232,-1.60373z"/><path d="M200.7866,4.2742c2.16195,0 3.91465,1.76496 3.91465,3.94278v5.65679c0,2.1776 -1.75271,3.943 -3.91465,3.943c-2.16195,0 -3.91465,-1.76539 -3.91465,-3.943v-5.65679c0,-2.17782 1.75271,-3.94278 3.91465,-3.94278zM200.78325,6.65687c-0.87963,0 -1.59253,0.71796 -1.59253,1.60373v5.56006c0,0.88578 0.71289,1.60373 1.59253,1.60373c0.87942,0 1.59232,-0.71796 1.59232,-1.60373v-5.56006c0,-0.88578 -0.71289,-1.60373 -1.59232,-1.60373z"/><path d="M168.11937,4.32713c0.64264,0 1.1636,0.53916 1.1636,1.20444v11.13346c0,0.66509 -0.52097,1.20466 -1.1636,1.20466c-0.64285,0 -1.16404,-0.53958 -1.16404,-1.20466v-11.13346c0,-0.66529 0.52118,-1.20444 1.16404,-1.20444z"/><path d="M189.62105,4.2742c2.16195,0 3.91465,1.76496 3.91465,3.94278v5.65679c0,2.1776 -1.75271,3.943 -3.91465,3.943c-2.16195,0 -3.91465,-1.76539 -3.91465,-3.943v-5.65679c0,-2.17782 1.75271,-3.94278 3.91465,-3.94278zM189.61769,6.65687c-0.87963,0 -1.59253,0.71796 -1.59253,1.60373v5.56006c0,0.88578 0.71289,1.60373 1.59253,1.60373c0.87942,0 1.59232,-0.71796 1.59232,-1.60373v-5.56006c0,-0.88578 -0.71289,-1.60373 -1.59232,-1.60373z"/><path d="M178.54597,4.2742c2.16195,0 3.91465,1.76496 3.91465,3.94278v5.65679c0,2.1776 -1.75271,3.943 -3.91465,3.943c-2.16195,0 -3.91465,-1.76539 -3.91465,-3.943v-5.65679c0,-2.17782 1.75271,-3.94278 3.91465,-3.94278zM178.5426,6.65687c-0.87963,0 -1.59253,0.71796 -1.59253,1.60373v5.56006c0,0.88578 0.71289,1.60373 1.59253,1.60373c0.87942,0 1.59232,-0.71796 1.59232,-1.60373v-5.56006c0,-0.88578 -0.71289,-1.60373 -1.59232,-1.60373z"/><g><path d="M260.14738,4.4742c2.16195,0 3.91465,1.76496 3.91465,3.94278v5.65679c0,2.1776 -1.75271,3.943 -3.91465,3.943c-2.16195,0 -3.91465,-1.76539 -3.91465,-3.943v-5.65679c0,-2.17782 1.75271,-3.94278 3.91465,-3.94278zM260.14401,6.85687c-0.87963,0 -1.59253,0.71796 -1.59253,1.60373v5.56006c0,0.88578 0.71289,1.60373 1.59253,1.60373c0.87942,0 1.59232,-0.71796 1.59232,-1.60373v-5.56006c0,-0.88578 -0.71289,-1.60373 -1.59232,-1.60373z"/><path d="M249.31501,4.4742c2.16195,0 3.91465,1.76496 3.91465,3.94278v5.65679c0,2.1776 -1.75271,3.943 -3.91465,3.943c-2.16195,0 -3.91465,-1.76539 -3.91465,-3.943v-5.65679c0,-2.17782 1.75271,-3.94278 3.91465,-3.94278zM249.31165,6.85687c-0.87963,0 -1.59253,0.71796 -1.59253,1.60373v5.56006c0,0.88578 0.71289,1.60373 1.59253,1.60373c0.87942,0 1.59232,-0.71796 1.59232,-1.60373v-5.56006c0,-0.88578 -0.71289,-1.60373 -1.59232,-1.60373z"/><path d="M271.01635,4.4742c2.16195,0 3.91465,1.76496 3.91465,3.94278v5.65676c0,2.1776 -1.75271,3.943 -3.91465,3.943c-2.16195,0 -3.91464,-1.76539 -3.91464,-3.943v-5.65676c0,-2.17782 1.75271,-3.94278 3.91464,-3.94278zM271.01297,6.85687c-0.87963,0 -1.59253,0.71796 -1.59253,1.60373v5.56006c0,0.88579 0.71289,1.60373 1.59253,1.60373c0.87942,0 1.59232,-0.71796 1.59232,-1.60373v-5.56006c0,-0.88579 -0.71289,-1.60373 -1.59232,-1.60373z"/></g><g><path d="M293.14738,4.4742c2.16195,0 3.91465,1.76496 3.91465,3.94278v5.65679c0,2.1776 -1.75271,3.943 -3.91465,3.943c-2.16195,0 -3.91465,-1.76539 -3.91465,-3.943v-5.65679c0,-2.17782 1.75271,-3.94278 3.91465,-3.94278zM293.14401,6.85687c-0.87963,0 -1.59253,0.71796 -1.59253,1.60373v5.56006c0,0.88578 0.71289,1.60373 1.59253,1.60373c0.87942,0 1.59232,-0.71796 1.59232,-1.60373v-5.56006c0,-0.88578 -0.71289,-1.60373 -1.59232,-1.60373z"/><path d="M282.31501,4.4742c2.16195,0 3.91465,1.76496 3.91465,3.94278v5.65679c0,2.1776 -1.75271,3.943 -3.91465,3.943c-2.16195,0 -3.91465,-1.76539 -3.91465,-3.943v-5.65679c0,-2.17782 1.75271,-3.94278 3.91465,-3.94278zM282.31165,6.85687c-0.87963,0 -1.59253,0.71796 -1.59253,1.60373v5.56006c0,0.88578 0.71289,1.60373 1.59253,1.60373c0.87942,0 1.59232,-0.71796 1.59232,-1.60373v-5.56006c0,-0.88578 -0.71289,-1.60373 -1.59232,-1.60373z"/><path d="M304.01635,4.4742c2.16195,0 3.91465,1.76496 3.91465,3.94278v5.65676c0,2.1776 -1.75271,3.943 -3.91465,3.943c-2.16195,0 -3.91464,-1.76539 -3.91464,-3.943v-5.65676c0,-2.17782 1.75271,-3.94278 3.91464,-3.94278zM304.01297,6.85687c-0.87963,0 -1.59253,0.71796 -1.59253,1.60373v5.56006c0,0.88579 0.71289,1.60373 1.59253,1.60373c0.87942,0 1.59232,-0.71796 1.59232,-1.60373v-5.56006c0,-0.88579 -0.71289,-1.60373 -1.59232,-1.60373z"/></g></g><g fill="#000000" fill-rule="nonzero" stroke-linecap="butt" stroke-miterlimit="10"><g stroke="#000000" stroke-width="0"><path d="M179.23075,152.91942c-1.75217,-11.27336 -2.4158,-25.22262 -1.96221,-38.55679c0.5438,-15.98562 2.69326,-31.08718 6.49762,-39.63451c3.87509,-8.70608 16.02621,-8.9587 17.20006,-9.14498c11.13968,-1.76797 29.96635,-3.72559 39.02253,-3.55232c10.06213,0.1925 38.99746,0.15637 53.36577,10.53822c5.22753,3.77721 3.63268,13.19411 5.43,18.46892c1.60006,4.69598 3.7327,30.43762 1.56451,53.07704c-1.26033,13.15997 -2.10303,23.46136 -10.23866,32.70366c-3.8475,4.37074 -25.54838,7.76629 -46.35703,8.36907c-21.99528,0.63715 -43.19135,-1.71912 -48.79898,-4.49066c-15.58944,-7.70518 -15.27042,-24.86188 -15.72357,-27.77758z"/><path d="M191.67769,146.55168c-1.3851,-8.91179 -1.90972,-19.939 -1.55119,-30.47991c0.42989,-12.63688 2.12902,-24.57503 5.13646,-31.33182c3.06339,-6.88238 12.669,-7.08199 13.59691,-7.2292c8.80615,-1.39763 23.68898,-2.94516 30.84798,-2.80822c7.95433,0.15216 30.82823,0.12364 42.1866,8.3306c4.13243,2.98597 2.87165,10.43025 4.29252,14.60008c1.26485,3.71228 2.95077,24.06147 1.23674,41.95839c-0.99633,10.40317 -1.66242,18.54668 -8.09379,25.85285c-3.04142,3.45515 -20.19645,6.13943 -36.6461,6.61588c-17.38762,0.50367 -34.14364,-1.35892 -38.57651,-3.54993c-12.32372,-6.09106 -12.07151,-19.65381 -12.42977,-21.95871z"/></g><path d="M192.06921,145.6863c0.00462,-0.00009 0.00928,-0.00014 0.01399,-0.00014c0.48862,0 0.48862,0.5 0.48862,0.5c0,5.34871 3.03078,11.32442 5.86861,15.692c4.07644,4.68471 10.68797,7.808 16.77088,7.808c6.59809,0 12.92657,1 19.54488,1c6.33067,0 13.68049,0.79892 19.66596,-1.29057c3.4533,-1.15863 7.76137,-0.60965 11.38644,-1.33265c2.52295,-0.50319 4.89882,-2.16591 7.14061,-3.30924c5.23454,-3.55467 11.90141,-4.86941 12.1495,-12.68821c0.547,-1.11446 -0.27043,-5.32172 0.8753,-5.94341c1.33947,-0.72681 1.78402,2.43522 2.00559,3.2056c1.09992,3.82448 0.69801,6.69683 0.38882,10.5287c-1.65338,6.54908 -2.95312,13.20228 -2.95933,20.00895c-0.8161,6.77807 -0.32482,13.82557 -0.32482,20.65416c0,6.97288 -0.29571,13.74561 -1.25084,20.65775c-0.39317,2.82062 -0.18663,5.64694 -0.86652,8.40381c-0.20575,0.8343 0.08105,1.98349 -0.63174,2.62533c-1.35118,1.21669 -2.25919,-0.38236 -2.45655,-1.60974c-0.28904,-1.79747 -0.00632,-3.92216 -0.00632,-5.74382c0,-6.90116 0.32575,-13.75522 0.32575,-20.66667c0,-5.13662 1.67867,-15.32386 -3.09339,-18.75171c-2.20673,-0.06424 -2.83323,1.57628 -4.7855,1.90738c-0.66907,0.11347 -3.44473,-1.10893 -3.65218,-0.9979c-0.03527,0.01888 -0.47298,2.38673 -0.52518,2.58293c-0.6848,2.57378 -1.10564,4.96801 -1.36506,7.62254c-0.67103,6.86653 -1.27144,13.74989 -2.08747,20.59992c-0.56364,4.69863 -1.33743,9.37909 -1.99779,14.0776c-0.25993,1.8494 0.10095,3.4605 -1.76319,4.44587c-2.39877,-0.06228 -2.39728,-2.79865 -2.70938,-4.72415c-0.77987,-4.81132 0.25336,-9.85457 -0.27667,-14.70114c-0.73556,-6.77423 -2.14285,-13.41133 -2.80282,-20.15065c-0.73371,-2.47889 -2.3821,-8.99551 -6.51483,-7.44874c-1.30739,0.48932 -0.97036,4.73159 -0.99398,5.857c-0.01219,3.89366 -0.00738,7.78738 -0.00738,11.68106c0,1.06215 0.39017,3.23693 -0.03719,4.19134c-1.07531,2.40146 -3.76141,0.19088 -4.70094,-0.9932c-2.13055,-2.75755 -3.42313,-8.15252 -2.741,-11.64636c0.59479,-3.04646 1.80107,-4.25284 0.34821,-7.3646c-0.58542,-2.0562 -4.42321,-0.74187 -6.14014,-1.02698c-1.77482,-0.29472 -2.904,-1.65025 -4.59447,-2.00692c-2.01217,-0.42454 -4.55066,0.03194 -6.61618,0c-5.13205,2.76653 -4.65395,12.10607 -5.48932,17.23503c-0.50176,3.08064 0.04574,6.91997 -1.63904,9.70283c-1.66676,2.7531 -4.53405,0.29776 -5.4851,-1.5807c-0.56068,-1.10743 -0.86041,-2.32733 -1.30948,-3.48671c-1.62298,-4.20053 -1.2665,-8.45867 -1.66021,-12.84021c-0.2226,-2.47728 -1.09774,-4.85033 -1.27564,-7.32046c-0.36707,-0.56372 -0.9479,-2.84058 -1.42666,-3.10451c-1.04873,-0.57815 -2.50565,1.6432 -2.93796,2.21174c-1.85204,2.4357 -1.34033,7.3112 -1.49253,10.35847c-0.19708,3.74975 -0.26859,7.16759 -1.35828,10.81103c-1.03811,3.47096 -3.28404,1.81136 -4.09975,-0.61342c-0.30365,-0.90261 -0.75331,-1.73837 -1.05094,-2.65027c-2.12539,-6.53141 -1.99628,-13.36564 -1.99628,-20.20943c0,-3.70392 0.28944,-7.58268 -0.30207,-11.19791c-0.11795,-0.72088 0.26399,-1.94998 0.01352,-2.61073c-0.38057,-1.00397 -1.85703,0.1211 -2.50007,-0.50447c-0.31137,-0.30291 -0.45434,-2.80396 -0.46185,-3.29721c-0.06714,-6.90634 -0.00701,-13.8163 -0.00701,-20.72301c0,-0.94235 -0.41383,-3.48008 0.07298,-4.26287c1.40231,-2.25494 2.78747,1.18003 3.33339,2.42967z" stroke="none" stroke-width="0.5"/></g><path d="M182.81694,223.24431l-8.87369,-27.14301l14.09349,7.30774l14.61547,-24.53311l13.04951,26.09905l30.79688,-20.35727l10.96159,18.79133l19.83529,-8.87369l15.65943,25.05509l15.13745,-5.74178l-4.84276,38.42934l11.68083,2.62734l-19.8876,41.41632l3.13188,30.79688l-10.43961,-7.30775l-19.83529,19.31329l-29.23094,-15.65943l-20.87925,10.43961l-7.30774,-22.05942l-31.97164,8.77235l2.98694,-40.32003l-16.42764,-27.29999l10.98442,-17.88357c0,0 8.15401,-0.68343 9.26769,-2.63802c1.14002,-2.00079 -2.50477,-9.23135 -2.50477,-9.23135z" fill="#000000" fill-rule="nonzero" stroke="#323232" stroke-width="0" stroke-linecap="round" stroke-miterlimit="10"/><g fill="#cc9999" fill-rule="nonzero" stroke="#e6acac" stroke-width="0" stroke-linecap="butt" stroke-miterlimit="10"><path d="M221.21349,222.53999c-0.18281,1.19492 -2.05369,17.40892 -2.22583,16.97094c-0.4129,-1.05067 -2.16749,-12.54291 -2.33506,-12.83261c1.0725,-1.11488 3.3983,-3.18203 4.56088,-4.13831z"/><path d="M225.42473,237.67211c-0.4084,0.35715 -3.43644,-14.63219 -4.0363,-15.38024c2.02796,-1.60786 4.1811,-2.45337 6.43541,-3.5333c-0.7073,2.17938 -2.19413,18.73426 -2.39912,18.91352z"/><path d="M232.39447,236.04796c0,0 -4.175,-16.4993 -4.56875,-17.34416c2.60313,-1.15146 5.33429,-1.9328 8.15781,-2.29684c-0.32108,0.92365 -3.58906,19.641 -3.58906,19.641z"/><path d="M239.63855,216.17259c0.82183,0 2.67113,0.03523 3.47969,0.10461c-0.5154,1.7009 -3.5052,18.46558 -3.5052,18.46558c0,0 -2.8752,-16.45547 -3.43935,-18.43886c1.19279,-0.10651 2.40776,-0.13131 3.46485,-0.13131z"/><path d="M260.52388,239.51095c-0.17213,0.438 -2.04301,-15.776 -2.22583,-16.97092c1.16258,0.95626 3.4884,3.02339 4.56088,4.13831c-0.16757,0.2897 -1.92215,11.78194 -2.33506,12.83261z" data-paper-data="{&quot;index&quot;:null}"/><path d="M251.68758,218.75859c2.25435,1.07993 4.40745,1.9254 6.43541,3.5333c-0.59987,0.74804 -3.62792,15.73738 -4.03632,15.38024c-0.20499,-0.17926 -1.69182,-16.73414 -2.39912,-18.91352z" data-paper-data="{&quot;index&quot;:null}"/><path d="M243.52805,216.40696c2.82351,0.36401 5.55465,1.14538 8.15781,2.29684c-0.39375,0.84488 -4.56875,17.34416 -4.56875,17.34416c0,0 -3.26798,-18.71733 -3.58906,-19.641z" data-paper-data="{&quot;index&quot;:null}"/></g><g fill="#cc9999" fill-rule="nonzero" stroke="#e6acac" stroke-width="0" stroke-linecap="butt" stroke-miterlimit="10"><path d="M236.17364,306.60534c0.56413,-1.98338 3.43935,-18.43886 3.43935,-18.43886c0,0 2.98977,16.76468 3.5052,18.46559c-0.80859,0.06938 -2.65786,0.10461 -3.47969,0.10461c-1.05707,0 -2.27206,-0.0248 -3.46485,-0.13131z" data-paper-data="{&quot;index&quot;:null}"/><path d="M229.28253,306.60534c0.56413,-1.98338 3.43937,-18.43886 3.43937,-18.43886c0,0 2.98977,16.76468 3.50518,18.46559c-0.80859,0.06938 -2.65784,0.10461 -3.47968,0.10461c-1.05707,0 -2.27206,-0.0248 -3.46485,-0.13131z" data-paper-data="{&quot;index&quot;:null}"/><path d="M222.73599,305.91976c0.56413,-1.98338 3.43937,-17.75322 3.43937,-17.75322c0,0 2.98977,16.76468 3.50518,18.46558c-0.80859,0.06938 -2.65784,-0.23822 -3.47968,-0.23822c-1.05707,0 -2.27206,-0.36764 -3.46485,-0.47415z" data-paper-data="{&quot;index&quot;:null}"/><path d="M215.84484,305.23405c0.56413,-1.98338 3.43937,-17.75322 3.43937,-17.75322c0,0 2.98977,16.76468 3.50518,18.46559c-0.80859,0.06938 -2.65784,-0.23822 -3.47968,-0.23822c-1.05707,0 -2.27206,-0.36764 -3.46485,-0.47415z" data-paper-data="{&quot;index&quot;:null}"/><path d="M208.95371,303.86273c0.56413,-1.98338 3.43935,-17.06755 3.43935,-17.06755c0,0 2.98977,16.76468 3.50518,18.46558c-0.80859,0.06938 -2.65784,-0.58104 -3.47968,-0.58104c-1.05707,0 -2.27206,-0.71047 -3.46485,-0.81699z" data-paper-data="{&quot;index&quot;:null}"/><path d="M205.52743,302.9656c-1.05707,0 -1.58295,-1.05329 -2.77574,-1.1598c0.56413,-1.98336 3.0948,-16.72471 3.0948,-16.72471c0,0 2.64521,16.76468 3.16061,18.46559c-0.80859,0.06938 -2.65784,-0.58106 -3.47968,-0.58106z" data-paper-data="{&quot;index&quot;:null}"/><path d="M246.54441,307.07957c-0.82183,0 -2.67111,-0.03525 -3.47968,-0.10463c0.5154,-1.7009 3.50518,-18.46558 3.50518,-18.46558c0,0 2.87522,16.45547 3.43937,18.43888c-1.19279,0.10651 -2.40778,0.13133 -3.46485,0.13133z" data-paper-data="{&quot;index&quot;:null}"/><path d="M253.09104,306.73669c-0.82183,0 -2.67111,0.3076 -3.47968,0.23822c0.5154,-1.7009 3.50518,-18.46558 3.50518,-18.46558c0,0 2.87522,15.76984 3.43935,17.75322c-1.19279,0.10651 -2.40776,0.47415 -3.46485,0.47415z" data-paper-data="{&quot;index&quot;:null}"/><path d="M259.98214,306.05108c-0.82183,0 -2.67111,0.3076 -3.47968,0.23822c0.5154,-1.7009 3.50518,-18.46558 3.50518,-18.46558c0,0 2.87522,15.76984 3.43937,17.75322c-1.19279,0.10651 -2.40776,0.47415 -3.46485,0.47415z" data-paper-data="{&quot;index&quot;:null}"/><path d="M266.87332,305.02253c-0.82183,0 -2.67111,0.65044 -3.47968,0.58106c0.5154,-1.7009 3.50518,-18.46558 3.50518,-18.46558c0,0 2.87522,15.08417 3.43937,17.06755c-1.19279,0.10651 -2.40778,0.81699 -3.46485,0.81699z" data-paper-data="{&quot;index&quot;:null}"/><path d="M276.54011,302.1486c-1.19279,0.10651 -1.71867,1.15978 -2.77574,1.15978c-0.82183,0 -2.67111,0.65044 -3.47968,0.58106c0.51542,-1.7009 3.16061,-18.46558 3.16061,-18.46558c0,0 2.53066,14.74133 3.0948,16.72473z" data-paper-data="{&quot;index&quot;:null}"/></g><path d="M237.02865,141.2234l-0.09786,-22.65695l0.32406,-23.29022l0.85782,-5.37375l1.94618,-2.08747l2.66154,6.19248l0.27081,10.85283l0.07803,31.18938l-0.51063,19.21747l-2.31198,4.91786l-2.43377,-2.6388l-0.78419,-16.3228z" fill="#b8cacc" fill-rule="nonzero" stroke="#cc9999" stroke-width="1.5" stroke-linecap="butt" stroke-miterlimit="10"/></g></g></svg>