<svg version="1.1" xmlns="http://www.w3.org/2000/svg" xmlns:xlink="http://www.w3.org/1999/xlink" width="135.47405" height="309.68721" viewBox="0,0,135.47405,309.68721"><defs><linearGradient x1="240.00003" y1="175.50005" x2="240.00003" y2="307.50005" gradientUnits="userSpaceOnUse" id="color-1"><stop offset="0" stop-color="#000000"/><stop offset="1" stop-color="#e73d3d"/></linearGradient><linearGradient x1="240.12499" y1="256.78441" x2="240.12499" y2="270.68944" gradientUnits="userSpaceOnUse" id="color-2"><stop offset="0" stop-color="#000000"/><stop offset="1" stop-color="#e5e5e5"/></linearGradient><linearGradient x1="238" y1="3.06884" x2="238" y2="162" gradientUnits="userSpaceOnUse" id="color-3"><stop offset="0" stop-color="#000000"/><stop offset="1" stop-color="#f74848"/></linearGradient><linearGradient x1="236.93037" y1="66.35058" x2="236.93037" y2="111.65831" gradientUnits="userSpaceOnUse" id="color-4"><stop offset="0" stop-color="#000000"/><stop offset="1" stop-color="#e86500"/></linearGradient><linearGradient x1="237.46906" y1="2.73546" x2="237.46906" y2="68.15857" gradientUnits="userSpaceOnUse" id="color-5"><stop offset="0" stop-color="#000000"/><stop offset="1" stop-color="#ff8800"/></linearGradient><linearGradient x1="237.9103" y1="84.54786" x2="237.9103" y2="205.14455" gradientUnits="userSpaceOnUse" id="color-6"><stop offset="0" stop-color="#000000"/><stop offset="1" stop-color="#ffffff"/></linearGradient><radialGradient cx="234.62416" cy="173.23851" r="24.46298" gradientUnits="userSpaceOnUse" id="color-7"><stop offset="0" stop-color="#b74a4a"/><stop offset="1" stop-color="#b74a4a" stop-opacity="0"/></radialGradient><linearGradient x1="206.12256" y1="179.51198" x2="206.12256" y2="186.37572" gradientUnits="userSpaceOnUse" id="color-8"><stop offset="0" stop-color="#000000"/><stop offset="1" stop-color="#3f3f3f"/></linearGradient><linearGradient x1="212.66413" y1="180.26168" x2="212.92461" y2="187.12165" gradientUnits="userSpaceOnUse" id="color-9"><stop offset="0" stop-color="#000000"/><stop offset="1" stop-color="#3f3f3f"/></linearGradient><linearGradient x1="218.95463" y1="180.85867" x2="219.54352" y2="187.70313" gradientUnits="userSpaceOnUse" id="color-10"><stop offset="0" stop-color="#000000"/><stop offset="1" stop-color="#3f3f3f"/></linearGradient><linearGradient x1="225.54216" y1="181.1788" x2="226.39048" y2="188.00249" gradientUnits="userSpaceOnUse" id="color-11"><stop offset="0" stop-color="#000000"/><stop offset="1" stop-color="#3f3f3f"/></linearGradient><linearGradient x1="232.45447" y1="181.42804" x2="233.22781" y2="188.25851" gradientUnits="userSpaceOnUse" id="color-12"><stop offset="0" stop-color="#000000"/><stop offset="1" stop-color="#3f3f3f"/></linearGradient><linearGradient x1="239.04881" y1="181.61276" x2="240.08094" y2="188.41713" gradientUnits="userSpaceOnUse" id="color-13"><stop offset="0" stop-color="#000000"/><stop offset="1" stop-color="#3f3f3f"/></linearGradient><linearGradient x1="265.63935" y1="179.88698" x2="265.63935" y2="186.75072" gradientUnits="userSpaceOnUse" id="color-14"><stop offset="0" stop-color="#000000"/><stop offset="1" stop-color="#3f3f3f"/></linearGradient><linearGradient x1="259.09777" y1="180.63668" x2="258.83729" y2="187.49665" gradientUnits="userSpaceOnUse" id="color-15"><stop offset="0" stop-color="#000000"/><stop offset="1" stop-color="#3f3f3f"/></linearGradient><linearGradient x1="252.80727" y1="181.23367" x2="252.21838" y2="188.07813" gradientUnits="userSpaceOnUse" id="color-16"><stop offset="0" stop-color="#000000"/><stop offset="1" stop-color="#3f3f3f"/></linearGradient><linearGradient x1="246.21974" y1="181.5538" x2="245.37142" y2="188.37749" gradientUnits="userSpaceOnUse" id="color-17"><stop offset="0" stop-color="#000000"/><stop offset="1" stop-color="#3f3f3f"/></linearGradient><linearGradient x1="204.76065" y1="200.17855" x2="204.76065" y2="193.31482" gradientUnits="userSpaceOnUse" id="color-18"><stop offset="0" stop-color="#000000"/><stop offset="1" stop-color="#3f3f3f"/></linearGradient><linearGradient x1="211.09389" y1="201.24704" x2="211.35437" y2="194.38707" gradientUnits="userSpaceOnUse" id="color-19"><stop offset="0" stop-color="#000000"/><stop offset="1" stop-color="#3f3f3f"/></linearGradient><linearGradient x1="218.23114" y1="201.90567" x2="217.67467" y2="195.05914" gradientUnits="userSpaceOnUse" id="color-20"><stop offset="0" stop-color="#000000"/><stop offset="1" stop-color="#3f3f3f"/></linearGradient><linearGradient x1="224.63513" y1="202.58041" x2="224.33879" y2="195.72155" gradientUnits="userSpaceOnUse" id="color-21"><stop offset="0" stop-color="#000000"/><stop offset="1" stop-color="#3f3f3f"/></linearGradient><linearGradient x1="232.14967" y1="202.50938" x2="231.06632" y2="195.71107" gradientUnits="userSpaceOnUse" id="color-22"><stop offset="0" stop-color="#000000"/><stop offset="1" stop-color="#3f3f3f"/></linearGradient><linearGradient x1="238.59117" y1="202.80634" x2="237.76642" y2="195.98045" gradientUnits="userSpaceOnUse" id="color-23"><stop offset="0" stop-color="#000000"/><stop offset="1" stop-color="#3f3f3f"/></linearGradient><linearGradient x1="245.76435" y1="202.6007" x2="244.13255" y2="195.88633" gradientUnits="userSpaceOnUse" id="color-24"><stop offset="0" stop-color="#000000"/><stop offset="1" stop-color="#3f3f3f"/></linearGradient><linearGradient x1="252.21379" y1="202.49918" x2="250.8377" y2="195.74132" gradientUnits="userSpaceOnUse" id="color-25"><stop offset="0" stop-color="#000000"/><stop offset="1" stop-color="#3f3f3f"/></linearGradient><linearGradient x1="259.3142" y1="201.7843" x2="257.12953" y2="195.19068" gradientUnits="userSpaceOnUse" id="color-26"><stop offset="0" stop-color="#000000"/><stop offset="1" stop-color="#3f3f3f"/></linearGradient><linearGradient x1="265.73829" y1="201.27544" x2="263.80503" y2="194.62229" gradientUnits="userSpaceOnUse" id="color-27"><stop offset="0" stop-color="#000000"/><stop offset="1" stop-color="#3f3f3f"/></linearGradient></defs><g transform="translate(-170.17327,2.18715)"><g data-paper-data="{&quot;isPaintingLayer&quot;:true}" fill-rule="nonzero" stroke-linejoin="miter" stroke-miterlimit="10" stroke-dasharray="" stroke-dashoffset="0" style="mix-blend-mode: normal"><g stroke="none" stroke-width="0" stroke-linecap="butt"><path d="M206.75003,307.50004l15.14285,-131.8421l37.78325,-0.15789l13.57389,132z" fill="url(#color-1)"/><path d="M210.70833,265.86771l1.6827,-8.3c0,0 6.06283,5.05378 15.65317,6.71685c3.86372,0.67002 24.00266,0.38985 28.19096,-0.45865c8.21866,-1.665 11.67208,-7.04153 11.67208,-7.04153l1.63442,10.16667c0,0 -2.76294,1.50031 -10.03035,2.90649c-5.85614,1.13311 -30.90348,0.95799 -34.53934,0.36572c-9.56101,-1.55745 -14.26364,-4.35554 -14.26364,-4.35554z" fill="url(#color-2)"/></g><g stroke="none"><g stroke-width="0"><g stroke-linecap="butt"><path d="M305.5,135.9792c0,19.27264 -30.22078,26.02087 -67.5,26.02087c-37.27922,0 -67.5,-6.74822 -67.5,-26.02086c0,-12.27296 14.62819,-57.30477 28.9325,-88.18972c5.64377,-12.18565 -2.36959,-44.11378 -1.41186,-43.54739c2.96324,1.75241 18.7372,8.30013 28.13496,15.93973c5.23901,4.25889 10.13824,18.37042 11.20154,18.37042c4.14888,0 3.66062,-10.85757 12.35781,-17.99612c9.15437,-7.51379 23.55299,-17.77559 23.86117,-17.48109c1.26058,1.20463 -4.04796,17.4155 0.00943,33.19949c9.08954,35.36001 31.91444,91.25615 31.91444,99.7047z" fill="url(#color-3)"/><path d="M191.26563,66.35058c1.61243,0.15116 3.22486,0.30233 4.83729,0.4535c7.01199,0.65738 13.95191,0.96127 20.9919,1.13052c6.99798,0.16824 13.99595,0.33649 20.99393,0.50473c7.00571,0.16842 14.00172,0.21688 21.00938,0.21747c7,0.00059 14,0.00118 21,0.00178c1.01284,0.00008 2.01694,-0.0108 3.01457,-0.0324c4.96528,14.86387 10.4114,29.98004 14.65933,42.22639c-5.23374,0.18971 -10.48025,0.24445 -15.70891,0.39748c-6.99581,0.20475 -13.98027,0.40936 -20.9793,0.40825c-7,-0.0011 -14,-0.00221 -21,-0.00332c-6.99947,-0.0011 -13.98032,-0.23435 -20.97561,-0.46782c-6.99476,-0.23345 -13.98996,-0.4501 -20.98253,-0.74232c-6.98661,-0.29197 -13.98975,-0.46912 -20.9677,-0.92235c-0.35766,-0.02323 -0.71404,-0.04736 -1.06927,-0.07198c3.8709,-12.98024 9.30498,-28.52361 15.17692,-43.09993z" fill="url(#color-4)"/><path d="M199.4325,48.15029c5.64377,-12.3748 -2.36959,-44.79853 -1.41186,-44.22335c2.96324,1.77961 18.7372,8.42897 28.13496,16.18715c5.23901,4.32499 10.13824,18.65557 11.20154,18.65557c4.14888,0 3.66062,-11.02611 12.35781,-18.27546c9.15437,-7.63042 23.55299,-18.05152 23.86117,-17.75245c1.26058,1.22334 -4.04796,17.68583 0.00943,33.71482c2.41012,9.52137 5.78593,20.50898 9.44588,31.6758c-0.88841,0.01747 -1.78227,0.02626 -2.68323,0.02618c-7,-0.0006 -14,-0.00121 -21,-0.00181c-6.99967,-0.0006 -13.9877,-0.0497 -20.98543,-0.22055c-6.99798,-0.17086 -13.99595,-0.3417 -20.99393,-0.51256c-7.01708,-0.17132 -13.93346,-0.47853 -20.92258,-1.14393c-1.51319,-0.14406 -3.02638,-0.28813 -4.53957,-0.43219c2.46382,-6.1722 4.99986,-12.15871 7.52581,-17.69723z" fill="url(#color-5)"/></g><path d="M220.75,36.96333l-10.5,-17.75" fill="none" stroke-linecap="round"/><path d="M253.75,45.21333l10.5,-17.75" data-paper-data="{&quot;index&quot;:null}" fill="none" stroke-linecap="round"/></g><path d="M191.40016,1.63406c0.78779,0.32825 1.6602,0.72609 1.76876,0.76495c6.53431,2.35415 12.73875,5.4626 19.23699,7.89944c6.76899,2.53838 12.85792,4.17701 18.13387,9.49101c3.54901,3.57865 6.11101,7.50307 8.11175,11.94783c1.86706,-3.66567 3.92361,-7.33007 6.69813,-10.60851c4.50101,-5.3086 9.89562,-9.80521 14.81141,-14.70666c3.36602,-3.35387 7.16456,-5.75377 11.27773,-7.86073c1.00765,-0.51617 3.8329,-1.35322 4.80017,-0.06934c0.11865,0.15749 0.09438,1.99278 0.09438,2.29236c0,6.88654 -2,13.40833 -2,20.33334c0,6.77778 0,13.55556 0,20.33334c0,2.91344 -0.11019,5.83638 0.35024,8.72034c0.30126,1.88694 1.12618,3.66701 1.31399,5.56372c0.21474,2.1686 0.34489,4.77663 -2.48868,4.39234c-1.49249,-3.65089 -2.04799,-7.68365 -3.68262,-11.23976c-0.71184,-1.54859 -2.4188,-3.286 -3.15104,-4.93131c0.05951,1.93796 0.41374,3.84171 0.65494,5.77186c0.68366,6.76662 1.14465,13.60424 2.17862,20.32506c0.74941,4.91692 3.15919,9.06748 3.15688,14.16764c-0.00083,1.84242 0.45192,5.87869 -2.1859,4.91698c-1.71666,-3.24207 -3.0577,-6.86031 -3.8034,-10.58883c-0.21486,-1.07434 -0.69124,-6.11781 -1.96062,-5.31072c-1.41695,0.87342 -3.1089,3.85146 -4.91786,3.7114c-1.36433,-0.10563 -1.34365,-2.01702 -1.64468,-3.03593c-1.09609,-3.70996 -1.56728,-6.65937 -3.56596,-10.05536c-1.11715,-1.39273 -2.21809,-3.33651 -3.92434,-4.07874c-3.7765,-1.64281 -10.74752,0.7903 -14.04592,2.62273c-5.94961,3.30531 -11.49515,7.18117 -16.72401,11.5386c-5.2253,4.35442 -10.02323,9.18221 -15.05272,13.7554c-3.23296,2.93964 -6.5706,5.68507 -10.13315,8.21961c-2.57743,1.83369 -4.39355,3.24348 -7.60121,2.17599c-0.17437,-1.61479 0.40793,-2.78887 0.5632,-4.35697c0.14141,-1.42815 -0.41137,-3.20789 0.2347,-4.52541c0.14225,-0.29007 -0.34141,0.55332 -0.56068,0.79058c-0.66263,0.71703 -1.29191,1.49854 -1.89631,2.26228c-1.24869,1.57789 -4.52858,3.63318 -4.78015,0.18848c0.01524,-6.57331 3.29413,-13.76098 6.21794,-19.51835c3.37482,-6.0046 6.34611,-11.69253 8.25186,-18.36263c1.83112,-6.40891 1.19688,-13.15086 1.19688,-19.78569c0,-6.7649 -0.64405,-13.6387 -2.02898,-20.27197c-0.33527,-3.3294 -1.07715,-7.12155 -2.48283,-10.18896c-0.18539,-0.40455 -0.99768,-1.2716 -1.45206,-2.04454c-1.01854,-0.5746 -1.75623,-1.29094 -0.799,-1.91985c0.66786,-0.4388 1.32921,0.40964 1.82969,1.27499z" fill="#000000" stroke-width="0.5" stroke-linecap="butt"/></g><path d="M170.17327,144.84617c0,-17.48597 10.94013,-30.23354 24.56777,-41.24733c12.32605,-9.96185 26.48695,-19.051 43.33592,-19.051c21.6572,0 40.05338,8.18461 52.65745,23.69517c8.04293,9.89762 14.91291,23.96395 14.91291,36.9365c0,33.30185 -32.09323,59.96499 -67.57036,59.96499c-10.78843,0 -20.29477,-3.24647 -29.69293,-7.65757c-21.50712,-10.09454 -38.21076,-29.46586 -38.21076,-52.64076z" fill="url(#color-6)" stroke="none" stroke-width="2" stroke-linecap="butt"/><path d="M258.95273,173.23851c0,11.23366 -10.89227,20.34033 -24.32857,20.34033c-13.4363,0 -24.32857,-9.10667 -24.32857,-20.34033c0,-11.23365 10.89228,-20.34034 24.32858,-20.34034c13.4363,0 24.32857,9.10668 24.32857,20.34034z" fill="url(#color-7)" stroke="none" stroke-width="0" stroke-linecap="butt"/><path d="M230.63244,169.66973c0.43959,-2.37107 1.56102,-0.11658 3.7532,-0.78045c3.24798,-0.9836 4.20109,2.15609 6.47652,2.61356c0.37175,0.07474 -1.98645,-2.60093 -1.77145,-2.89755c2.08143,-2.69543 5.48475,-1.99713 7.02505,1.89275c0.81207,2.05081 0.1675,-3.37322 0.84272,-1.13052c0.85128,2.82751 2.32428,5.01475 3.84799,7.15457c5.72492,4.62249 13.32441,1.18811 19.45493,-0.56937c5.99932,-1.71979 13.98805,-4.39785 19.15743,-9.04947c0.92778,-0.81939 4.33661,-4.6594 5.40614,-3.30335c0.95628,1.21246 -0.15332,5.7309 0.53578,6.33335c0.40798,0.35668 0.83437,-0.68084 1.28178,-0.92951c1.61242,-0.89616 6.77071,-5.55068 4.63708,0.51385c-2.21377,9.25441 -8.64314,15.04295 -13.75729,21.18994c-2.02961,2.43745 -3.53237,5.43403 -5.31946,8.18416c-2.83943,4.36958 -6.16691,8.00452 -9.34387,11.85277c-6.27695,3.37975 -11.111,7.40222 -18.02512,7.40222c-6.88387,0 -13.8265,-0.48103 -20.66666,-0.46412c-7.06818,0 -13.35851,-1.50699 -20.22523,-3.4919c-2.06752,-0.6005 -3.60887,-2.04402 -5.52723,-3.07657c-4.35011,-2.34141 -9.50353,-4.65147 -12.89399,-9.35896c-4.81773,-6.7079 -10.11876,-13.02465 -13.9604,-20.96419c-1.78868,-3.70223 -4.77645,-7.70115 -5.949,-11.85814c-0.21062,-0.74671 -0.60683,-3.7568 -0.13103,-4.41928c0.1823,-0.25382 2.00345,-0.2039 2.35356,-0.2039c1.6721,0 3.3442,-0.00024 5.0163,0.00037c2.11417,0.19209 3.89769,1.27012 5.3524,3.47436c0.88248,1.33718 2.12187,3.90504 3.44287,4.44506c0.82036,0.33536 1.59045,-0.26979 2.42978,0.30031c0.64287,0.43665 -1.1141,-1.25129 -1.64328,-1.92135c-1.0263,-1.29952 -2.16429,-2.05969 -2.938,-3.69972c-1.88621,-1.55903 -1.66339,-7.70408 1.19796,-6.25893c1.88933,0.95422 2.55349,5.37948 3.99419,7.262c2.03996,2.66555 4.45368,3.3911 6.82638,5.23257c2.41248,1.88588 5.5792,3.23226 8.32142,3.23226c0.86246,0 2.56014,0.45086 3.33907,-0.29386c0.44118,-0.42181 0.0748,-2.70145 0.23561,-3.08886c0.84966,-2.04702 3.4545,-0.35467 4.50541,0.14293c2.49758,-0.02441 5.95784,1.05233 7.98168,-1.31829c2.24046,-2.62435 0.32257,2.23845 2.79795,0.41824c0,0 1.72733,-2.70179 1.93887,-2.56697z" fill="#000000" stroke="none" stroke-width="0.5" stroke-linecap="butt"/><path d="M187.39015,145.27569c0,-12.968 10.51265,-23.48065 23.48065,-23.48065c12.968,0 23.48065,10.51265 23.48065,23.48065c0,12.968 -10.51265,23.48065 -23.48065,23.48065c-12.968,0 -23.48065,-10.51265 -23.48065,-23.48065z" fill="#ff0000" stroke="none" stroke-width="2" stroke-linecap="butt"/><path d="M255.45441,166.70004c-8.21821,-3.00278 -13.8058,-11.84996 -13.8058,-21.42435c0,-12.968 10.51265,-23.48065 23.48065,-23.48065c12.968,0 23.48065,10.51265 23.48065,23.48065c0,9.54202 -4.12033,17.65999 -12.29396,20.67947c-1.52099,0.56188 -5.53666,2.52732 -10.18066,2.69718c-4.31639,0.15788 -9.27767,-1.43959 -10.68088,-1.9523z" data-paper-data="{&quot;index&quot;:null}" fill="#ff0000" stroke="none" stroke-width="2" stroke-linecap="butt"/><path d="" fill="#000000" stroke="none" stroke-width="0.5" stroke-linecap="butt"/><path d="M187.6287,148.31716c0.43515,0.01507 45.23836,0.1947 46.41361,0.08003c-1.40593,11.61354 -11.23026,20.60922 -23.14065,20.60922c-12.41175,0 -22.55811,-8.36895 -23.27296,-20.68924z" data-paper-data="{&quot;index&quot;:null}" fill="#ff4242" stroke="none" stroke-width="2" stroke-linecap="butt"/><path d="M194.45554,145c0,-9.12808 7.39976,-16.52784 16.52783,-16.52784c9.12808,0 16.52784,7.39977 16.52784,16.52784c0,9.12808 -7.39977,16.52784 -16.52784,16.52784c-9.12808,0 -16.52783,-7.39977 -16.52783,-16.52784z" fill="#000000" stroke="none" stroke-width="0" stroke-linecap="butt"/><path d="M215.24552,145.99092c0,2.37483 -1.88952,4.3 -4.22037,4.3c-2.33085,0 -4.22037,-1.92517 -4.22037,-4.3c0,-2.37483 1.88952,-4.3 4.22037,-4.3c2.33085,0 4.22037,1.92517 4.22037,4.3z" fill="none" stroke="#ff0000" stroke-width="2.5" stroke-linecap="butt"/><path d="M288.29231,148.56716c-0.71485,12.32029 -10.86121,20.68924 -23.27296,20.68924c-11.91039,0 -21.73472,-8.99568 -23.14065,-20.60922c1.17525,0.11467 45.97846,-0.06496 46.41361,-0.08003z" data-paper-data="{&quot;index&quot;:null}" fill="#ff4242" stroke="none" stroke-width="2" stroke-linecap="butt"/><path d="M265.01668,161.52785c-9.12807,0 -16.52783,-7.39977 -16.52783,-16.52784c0,-9.12808 7.39977,-16.52784 16.52783,-16.52784c9.12807,0 16.52783,7.39977 16.52783,16.52784c0,9.12808 -7.39977,16.52784 -16.52783,16.52784z" data-paper-data="{&quot;index&quot;:null}" fill="#000000" stroke="none" stroke-width="0" stroke-linecap="butt"/><path d="M278.56033,145.62423c0,7.12448 -5.66857,12.9 -12.66111,12.9c-6.99254,0 -12.66111,-5.77552 -12.66111,-12.9c0,-7.12448 5.66857,-12.9 12.66111,-12.9c6.99254,0 12.66111,5.77552 12.66111,12.9z" fill="none" stroke="#ff0000" stroke-width="2.5" stroke-linecap="butt"/><path d="M277.5,92.61774c0,1.01252 -0.74619,1.83333 -1.66667,1.83333c-0.92048,0 -1.66667,-0.82081 -1.66667,-1.83333c0,-1.01252 0.74619,-1.83334 1.66667,-1.83334c0.92048,0 1.66667,0.82082 1.66667,1.83334z" fill="#000000" stroke="none" stroke-width="0" stroke-linecap="butt"/><path d="M297.16718,163.31335c0,0.73638 -0.59695,1.33333 -1.33333,1.33333c-0.73638,0 -1.33333,-0.59695 -1.33333,-1.33333c0,-0.73638 0.59695,-1.33334 1.33333,-1.33334c0.73638,0 1.33333,0.59696 1.33333,1.33334z" fill="#000000" stroke="none" stroke-width="0" stroke-linecap="butt"/><g stroke="none" stroke-width="0" stroke-linecap="butt"><g><path d="M209.68463,180.94248c-0.61396,0.63207 -3.60126,5.43323 -3.60126,5.43323c0,0 -3.01454,-5.47789 -3.68657,-6.21489c1.42086,-0.03958 6.32463,0.75587 7.28783,0.78166z" data-paper-data="{&quot;index&quot;:null}" fill="url(#color-8)"/><path d="M216.27854,181.58844c-0.58963,0.64946 -3.39309,5.53434 -3.39309,5.53434c0,0 -3.22078,-5.38775 -3.92041,-6.10493c1.41859,-0.08063 6.34985,0.57265 7.3135,0.57059z" data-paper-data="{&quot;index&quot;:null}" fill="url(#color-9)"/></g><g><path d="M222.62943,182.05239c-0.558,0.67041 -3.125,5.65331 -3.125,5.65331c0,0 -3.47607,-5.26552 -4.20944,-5.95655c1.41348,-0.13232 6.37174,0.34046 7.33444,0.30324z" data-paper-data="{&quot;index&quot;:null}" fill="url(#color-10)"/><path d="M229.26025,182.26565c-0.53225,0.68617 -2.90874,5.74052 -2.90874,5.74052c0,0 -3.674,-5.16217 -4.43319,-5.83161c1.40768,-0.1731 6.38115,0.15611 7.34192,0.09109z" data-paper-data="{&quot;index&quot;:null}" fill="url(#color-11)"/></g><g><path d="M236.16045,182.54594c-0.53976,0.68168 -2.97165,5.71594 -2.97165,5.71594c0,0 -3.61712,-5.19265 -4.36893,-5.86842c1.40952,-0.16132 6.37915,0.20947 7.34059,0.15248z" data-paper-data="{&quot;index&quot;:null}" fill="url(#color-12)"/><path d="M242.79519,182.62293c-0.5136,0.69691 -2.75311,5.79869 -2.75311,5.79869c0,0 -3.8122,-5.08526 -4.58924,-5.73892c1.40262,-0.20197 6.3836,0.02498 7.34234,-0.05976z" data-paper-data="{&quot;index&quot;:null}" fill="url(#color-13)"/></g><g><g data-paper-data="{&quot;index&quot;:null}"><path d="M269.36511,180.53582c-0.67203,0.73701 -3.68658,6.21489 -3.68658,6.21489c0,0 -2.9873,-4.80117 -3.60126,-5.43323c0.9632,-0.02579 5.86697,-0.82124 7.28784,-0.78166z" data-paper-data="{&quot;index&quot;:null}" fill="url(#color-14)"/><path d="M262.79687,181.39285c-0.69962,0.71717 -3.9204,6.10493 -3.9204,6.10493c0,0 -2.80346,-4.88487 -3.39309,-5.53434c0.96365,0.00206 5.89491,-0.65122 7.31349,-0.57059z" data-paper-data="{&quot;index&quot;:null}" fill="url(#color-15)"/></g><g data-paper-data="{&quot;index&quot;:null}"><path d="M256.46691,182.12415c-0.73338,0.69102 -4.20944,5.95655 -4.20944,5.95655c0,0 -2.567,-4.9829 -3.125,-5.65331c0.9627,0.03722 5.92096,-0.43556 7.33444,-0.30324z" data-paper-data="{&quot;index&quot;:null}" fill="url(#color-16)"/><path d="M249.84357,182.54956c-0.75919,0.66944 -4.43318,5.83161 -4.43318,5.83161c0,0 -2.37648,-5.05435 -2.90874,-5.74052c0.96077,0.06502 5.93424,-0.26419 7.34192,-0.09109z" data-paper-data="{&quot;index&quot;:null}" fill="url(#color-17)"/></g></g></g><g stroke="none" stroke-width="0" stroke-linecap="butt"><g><g><path d="M201.03489,199.52971c0.67202,-0.73701 3.68657,-6.2149 3.68657,-6.2149c0,0 2.36229,6.61935 2.97625,7.25142c-0.9632,0.02579 -5.24195,-0.99694 -6.66282,-1.03652z" data-paper-data="{&quot;index&quot;:null}" fill="url(#color-18)"/><path d="M207.39479,200.49087c0.69962,-0.71717 3.9204,-6.10493 3.9204,-6.10493c0,0 2.69929,6.24851 3.28893,6.89798c-0.96365,-0.00206 -5.79074,-0.71241 -7.20933,-0.79305z" data-paper-data="{&quot;index&quot;:null}" fill="url(#color-19)"/></g><g><path d="M214.46211,201.48851c0.61059,-0.77666 3.17347,-6.42695 3.17347,-6.42695c0,0 2.89303,6.4569 3.55669,7.04946c-0.9587,0.08521 -5.30965,-0.67076 -6.73016,-0.62251z" data-paper-data="{&quot;index&quot;:null}" fill="url(#color-20)"/><path d="M220.884,202.05455c0.63972,-0.75858 3.41562,-6.3317 3.41562,-6.3317c0,0 3.19912,6.06617 3.83994,6.6776c-0.96141,0.05745 -5.834,-0.35306 -7.25556,-0.34589z" data-paper-data="{&quot;index&quot;:null}" fill="url(#color-21)"/></g></g><g><path d="M228.35701,202.31461c0.5493,-0.81077 2.67049,-6.59883 2.67049,-6.59883c0,0 3.38456,6.27228 4.09242,6.82451c-0.94995,0.14134 -5.34934,-0.35728 -6.76291,-0.22568z" data-paper-data="{&quot;index&quot;:null}" fill="url(#color-22)"/><path d="M234.80799,202.50206c0.57976,-0.79444 2.91945,-6.51801 2.91945,-6.51801c0,0 3.6598,5.86445 4.34632,6.43685c-0.95479,0.11381 -5.84799,-0.0095 -7.26577,0.08116z" data-paper-data="{&quot;index&quot;:null}" fill="url(#color-23)"/></g><g><path d="M241.9654,202.64061c0.48218,-0.84265 2.1288,-6.74718 2.1288,-6.74718c0,0 3.88459,6.04756 4.63546,6.5547c-0.93611,0.19964 -5.3649,-0.02608 -6.76426,0.19248z" data-paper-data="{&quot;index&quot;:null}" fill="url(#color-24)"/><path d="M248.41542,202.42926c0.51389,-0.82825 2.38369,-6.68195 2.38369,-6.68195c0,0 4.12609,5.62376 4.8573,6.15233c-0.94318,0.17247 -5.83411,0.35163 -7.24099,0.52962z" data-paper-data="{&quot;index&quot;:null}" fill="url(#color-25)"/></g><g><path d="M255.52854,202.06419c0.411,-0.87091 1.56333,-6.86401 1.56333,-6.86401c0,0 4.37622,5.78618 5.16719,6.24454c-0.91708,0.25827 -5.35298,0.31305 -6.73052,0.61947z" data-paper-data="{&quot;index&quot;:null}" fill="url(#color-26)"/><path d="M261.94408,201.44576c0.44381,-0.85855 1.82297,-6.81506 1.82297,-6.81506c0,0 4.58191,5.34824 5.35506,5.82921c-0.92638,0.23163 -5.78962,0.71941 -7.17803,0.98585z" data-paper-data="{&quot;index&quot;:null}" fill="url(#color-27)"/></g></g></g></g></svg>