<svg version="1.1" xmlns="http://www.w3.org/2000/svg" xmlns:xlink="http://www.w3.org/1999/xlink" width="210.85835" height="258.50676" viewBox="0,0,210.85835,258.50676"><defs><radialGradient cx="242.75" cy="92.87162" r="42.87838" gradientUnits="userSpaceOnUse" id="color-1"><stop offset="0" stop-color="#ffffff"/><stop offset="1" stop-color="#ffffff" stop-opacity="0"/></radialGradient></defs><g transform="translate(-133.66839,-49.99324)"><g data-paper-data="{&quot;isPaintingLayer&quot;:true}" fill-rule="nonzero" stroke-linejoin="miter" stroke-miterlimit="10" stroke-dasharray="" stroke-dashoffset="0" style="mix-blend-mode: normal"><path d="M284.5,92.87162c0,23.68108 -18.69211,42.87838 -41.75,42.87838c-23.05789,0 -41.75,-19.1973 -41.75,-42.87838c0,-23.68108 18.69211,-42.87837 41.75,-42.87837c23.05789,0 41.75,19.1973 41.75,42.87837z" fill="url(#color-1)" stroke="none" stroke-width="0" stroke-linecap="butt"/><path d="M206.75009,307.5l15.14285,-131.8421l37.78325,-0.15789l13.57389,132z" fill="#73214c" stroke="#000000" stroke-width="2" stroke-linecap="butt"/><path d="M218.95031,214.36263l3.87142,-36.57765l35.83075,-0.14203l3.76735,36.1059c0,0 -14.31001,4.17734 -21.1187,4.27348c-7.59503,0.10724 -22.35082,-3.6597 -22.35082,-3.6597z" fill="#5e1b3e" stroke="#000000" stroke-width="0" stroke-linecap="butt"/><path d="M257.15593,81.96464c1.02503,5.70768 -20.69405,10.99774 -35.64273,13.68235c-14.94868,2.68461 -36.31835,6.1488 -37.34338,0.44112c-1.02503,-5.70768 18.68272,-18.42584 33.6314,-21.11045c14.94868,-2.68461 38.32968,1.2793 39.35471,6.98698z" fill="#ffffff" stroke="#000000" stroke-width="2" stroke-linecap="butt"/><g stroke-linecap="butt"><g><path d="M141.51411,230.4558c0,0 19.56496,-25.97938 20.66393,-39.47017c1.72268,-21.14752 -7.17156,-83.53149 -6.75866,-100.46063c0.01959,-0.80346 32.21815,-1.45764 64.17096,-7.42117c32.25235,-6.01945 64.80432,-16.69198 64.80432,-16.69198c0,0 16.11456,74.2691 25.74362,97.24809c5.84774,13.95516 33.91671,28.13122 33.38089,28.20988c-2.80653,0.41201 -25.8632,-4.6662 -59.61077,2.11073c-13.81818,2.77487 -28.22394,11.36272 -43.04773,13.85087c-15.62648,2.62288 -37.22025,-0.77941 -50.85858,1.7809c-29.50504,5.53893 -48.488,20.84349 -48.488,20.84349z" fill="#d21869" stroke="#000000" stroke-width="2"/><path d="M155.39889,90.22307c0.01959,-0.80346 32.21815,-1.45763 64.17096,-7.42117c32.25235,-6.01945 64.80432,-16.69199 64.80432,-16.69199c0,0 1.33961,6.17404 3.47715,15.51262c-2.66406,1.40291 -5.17092,3.01259 -7.12918,5.1854c-0.68159,0.75626 -2.03287,1.91258 -2.1904,2.92546c-0.12388,-0.15631 -0.24776,-0.31264 -0.37164,-0.46894c-4.34456,-5.48129 -13.49869,-3.69844 -19.95023,-1.94808c-2.84835,0.77403 -6.0513,1.29823 -8.781,2.37605c-3.67195,1.44986 -7.12269,3.9367 -10.42141,5.97253c-0.79647,0.74466 -3.0548,3.41846 -4.23713,3.50353c-0.50995,0.03669 -0.65455,-0.67327 -0.92867,-1.04493c-0.76207,-1.03331 -1.40565,-1.98141 -2.42221,-2.83653c-1.95775,-1.64685 -5.8605,-2.56021 -8.60976,-2.53315c-6.65324,0.09211 -14.8008,1.37441 -20.69518,4.45419c-4.29913,2.25033 -7.55301,4.99364 -11.1253,8.069c-0.52442,0.45147 -2.79625,2.99779 -3.34209,3.04773c-0.54072,0.04947 -0.75286,-0.6638 -1.15603,-0.96942c-1.99653,-1.87622 -5.93766,-4.0387 -9.04077,-3.88011c-3.64758,0.1864 -7.35404,1.92067 -10.77552,3.02883c-3.59049,1.78316 -7.00196,3.30006 -9.99101,5.39911c-0.83995,-9.3726 -1.39532,-17.1522 -1.28488,-21.68013z" fill="#ffffff" stroke="none" stroke-width="0"/><path d="M141.48799,230.31039c0,0 19.56495,-25.97939 20.66393,-39.47018c1.72268,-21.14752 -7.17156,-83.53148 -6.75866,-100.46062c0.01959,-0.80346 32.21815,-1.45763 64.17096,-7.42117c32.25235,-6.01945 64.80432,-16.69199 64.80432,-16.69199c0,0 16.11456,74.26909 25.74362,97.24809c5.84774,13.95516 33.91671,28.13122 33.38089,28.20988c-2.80653,0.41201 -25.8632,-4.6662 -59.61077,2.11073c-13.81818,2.77487 -28.22394,11.36272 -43.04773,13.85087c-15.62648,2.62288 -37.22025,-0.77941 -50.85858,1.7809c-29.50504,5.53893 -48.488,20.84349 -48.488,20.84349z" fill="none" stroke="#000000" stroke-width="2"/></g><path d="M180.74484,178.53914c2.34294,13.04613 -6.67124,25.58203 -20.13373,27.99974c-1.49815,0.26905 -2.98826,0.40147 -4.45679,0.40633c1.03973,-1.40095 3.95668,-3.53825 4.09378,-5.70163c0.45016,-1.06718 1.69263,-6.36851 2.02459,-11.03559c0.24511,-3.44595 -0.42704,-6.31649 -0.10625,-8.06809c1.09463,-6.06363 -1.24133,-12.26755 -1.1198,-18.3611c-0.19545,-1.4508 -0.34917,-2.99958 -0.50626,-4.59192c10.02895,1.5588 18.36025,9.08309 20.20447,19.35224z" fill="#ffffff" stroke="none" stroke-width="0"/><path d="M300.07367,132.19788c0.40677,1.5475 0.80157,3.05299 1.12315,4.48113c2.23423,5.67048 2.20291,12.29954 5.33902,17.60338c0.91023,1.53053 1.27891,4.45557 2.70773,7.60089c1.93515,4.25993 4.9446,8.79767 5.73796,9.64151c0.88129,1.98048 4.35965,2.96926 5.82187,3.92089c-1.37845,0.50642 -2.82152,0.90078 -4.31968,1.16983c-13.46249,2.41771 -26.27531,-6.19831 -28.61825,-19.24444c-1.84422,-10.26915 3.34833,-20.22218 12.2082,-25.17319z" data-paper-data="{&quot;index&quot;:null}" fill="#ffffff" stroke="none" stroke-width="0"/><g fill="none"><path d="M141.51411,230.4558c0,0 19.56496,-25.97938 20.66393,-39.47017c1.72268,-21.14752 -7.17156,-83.53149 -6.75866,-100.46063c0.01959,-0.80346 32.21815,-1.45764 64.17096,-7.42117c32.25235,-6.01945 64.80432,-16.69198 64.80432,-16.69198c0,0 16.11456,74.2691 25.74362,97.24809c5.84774,13.95516 33.91671,28.13122 33.38089,28.20988c-2.80653,0.41201 -25.8632,-4.6662 -59.61077,2.11073c-13.81818,2.77487 -28.22394,11.36272 -43.04773,13.85087c-15.62648,2.62288 -37.22025,-0.77941 -50.85858,1.7809c-29.50504,5.53893 -48.488,20.84349 -48.488,20.84349z" stroke="#000000" stroke-width="2"/><path d="M155.39889,90.22307c0.01959,-0.80346 32.21815,-1.45763 64.17096,-7.42117c32.25235,-6.01945 64.80432,-16.69199 64.80432,-16.69199c0,0 1.33961,6.17404 3.47715,15.51262c-2.66406,1.40291 -5.17092,3.01259 -7.12918,5.1854c-0.68159,0.75626 -2.03287,1.91258 -2.1904,2.92546c-0.12388,-0.15631 -0.24776,-0.31264 -0.37164,-0.46894c-4.34456,-5.48129 -13.49869,-3.69844 -19.95023,-1.94808c-2.84835,0.77403 -6.0513,1.29823 -8.781,2.37605c-3.67195,1.44986 -7.12269,3.9367 -10.42141,5.97253c-0.79647,0.74466 -3.0548,3.41846 -4.23713,3.50353c-0.50995,0.03669 -0.65455,-0.67327 -0.92867,-1.04493c-0.76207,-1.03331 -1.40565,-1.98141 -2.42221,-2.83653c-1.95775,-1.64685 -5.8605,-2.56021 -8.60976,-2.53315c-6.65324,0.09211 -14.8008,1.37441 -20.69518,4.45419c-4.29913,2.25033 -7.55301,4.99364 -11.1253,8.069c-0.52442,0.45147 -2.79625,2.99779 -3.34209,3.04773c-0.54072,0.04947 -0.75286,-0.6638 -1.15603,-0.96942c-1.99653,-1.87622 -5.93766,-4.0387 -9.04077,-3.88011c-3.64758,0.1864 -7.35404,1.92067 -10.77552,3.02883c-3.59049,1.78316 -7.00196,3.30006 -9.99101,5.39911c-0.83995,-9.3726 -1.39532,-17.1522 -1.28488,-21.68013z" stroke="none" stroke-width="0"/><path d="M141.48799,230.31039c0,0 19.56495,-25.97939 20.66393,-39.47018c1.72268,-21.14752 -7.17156,-83.53148 -6.75866,-100.46062c0.01959,-0.80346 32.21815,-1.45763 64.17096,-7.42117c32.25235,-6.01945 64.80432,-16.69199 64.80432,-16.69199c0,0 16.11456,74.26909 25.74362,97.24809c5.84774,13.95516 33.91671,28.13122 33.38089,28.20988c-2.80653,0.41201 -25.8632,-4.6662 -59.61077,2.11073c-13.81818,2.77487 -28.22394,11.36272 -43.04773,13.85087c-15.62648,2.62288 -37.22025,-0.77941 -50.85858,1.7809c-29.50504,5.53893 -48.488,20.84349 -48.488,20.84349z" stroke="#000000" stroke-width="2"/></g></g><g stroke-linecap="butt"><path d="M176.13618,147.67951c-2.29223,-12.7638 6.19666,-24.96914 18.96046,-27.26138c12.7638,-2.29223 24.96914,6.19666 27.26138,18.96046c2.29223,12.7638 -6.19666,24.96914 -18.96046,27.26138c-12.7638,2.29223 -24.96914,-6.19666 -27.26138,-18.96046z" fill="#ffffff" stroke="#000000" stroke-width="2"/><path d="M183.04159,146.15929c-1.61349,-8.98435 4.36177,-17.57558 13.34611,-19.18906c8.98435,-1.61349 17.57558,4.36178 19.18906,13.34612c1.61349,8.98435 -4.36178,17.57558 -13.34612,19.18906c-8.98435,1.61349 -17.57557,-4.36178 -19.18905,-13.34612z" fill="#000000" stroke="none" stroke-width="0"/><path d="M183.48264,117.09081c0,0 5.68959,-6.2737 10.48662,-8.34863c4.79704,-2.07493 12.26354,-1.49183 12.26354,-1.49183c0,0 -7.92221,1.36149 -11.6268,2.9639c-3.87144,1.67458 -11.12336,6.87656 -11.12336,6.87656z" fill="#000000" stroke="none" stroke-width="0"/></g><g stroke-linecap="butt"><path d="M263.52736,155.84129c-12.7638,2.29223 -24.96914,-6.19666 -27.26138,-18.96046c-2.29223,-12.7638 6.19666,-24.96914 18.96046,-27.26138c12.7638,-2.29223 24.96914,6.19666 27.26138,18.96046c2.29223,12.7638 -6.19666,24.96914 -18.96046,27.26138z" data-paper-data="{&quot;index&quot;:null}" fill="#ffffff" stroke="#000000" stroke-width="2"/><path d="M262.13885,148.74659c-8.98434,1.61349 -17.57557,-4.36178 -19.18905,-13.34612c-1.61349,-8.98435 4.36178,-17.57558 13.34611,-19.18906c8.98434,-1.61349 17.57557,4.36178 19.18905,13.34612c1.61349,8.98435 -4.36178,17.57558 -13.34611,19.18906z" data-paper-data="{&quot;index&quot;:null}" fill="#000000" stroke="none" stroke-width="0"/><path d="M252.28734,99.85534c-4.03066,-0.21324 -11.93156,1.26691 -11.93156,1.26691c0,0 6.79703,-3.14467 12.01629,-2.86855c5.21925,0.27612 12.73628,4.17806 12.73628,4.17806c0,0 -8.60882,-2.35358 -12.82101,-2.57643z" data-paper-data="{&quot;index&quot;:null}" fill="#000000" stroke="none" stroke-width="0"/></g><path d="M176.30289,147.39556c-2.29223,-12.7638 6.15259,-24.96123 18.86204,-27.2437c12.70944,-2.28247 24.87072,6.21433 27.16295,18.97814c0,0 -7.32504,-3.20788 -16.05927,-3.47502c-2.34688,-0.07177 -5.8347,0.25539 -8.0651,0.69068c-2.59805,0.50705 -6.44641,1.71515 -8.73295,2.68065c-8.52434,3.59945 -13.07526,8.88385 -13.16768,8.36924z" fill="#d21869" stroke="#000000" stroke-width="2" stroke-linecap="butt"/><path d="M282.78461,128.40811c0.09242,0.5146 -6.03564,-2.85198 -15.31775,-3.25358c-2.48981,-0.10773 -6.53489,0.10173 -9.15817,0.53238c-2.25205,0.36971 -5.65046,1.27922 -7.83537,2.16487c-8.13148,3.29603 -13.91056,8.85726 -13.91056,8.85726c-2.29223,-12.7638 6.19666,-24.96914 18.96046,-27.26138c12.7638,-2.29223 24.96914,6.19666 27.26138,18.96046z" data-paper-data="{&quot;index&quot;:null}" fill="#d21869" stroke="#000000" stroke-width="2" stroke-linecap="butt"/><path d="M177.92892,131.12593l-6.98166,-2.81017" fill="none" stroke="#000000" stroke-width="2" stroke-linecap="round"/><path d="M184.24189,124.31954l-2.69898,-6.54262" fill="none" stroke="#000000" stroke-width="2" stroke-linecap="round"/><g fill="none" stroke="#000000" stroke-width="2" stroke-linecap="round"><path d="M276.98853,114.85995l5.56757,-5.06387" data-paper-data="{&quot;index&quot;:null}"/><path d="M268.70176,110.67552l0.25378,-7.0729" data-paper-data="{&quot;index&quot;:null}"/></g><path d="M247.86285,177.52117c0,0 -3.32513,4.66115 -11.97507,6.35971c-7.13062,1.40023 -12.73914,-1.92132 -12.73914,-1.92132" fill="none" stroke="#000000" stroke-width="2" stroke-linecap="round"/></g></g></svg>