<svg version="1.1" xmlns="http://www.w3.org/2000/svg" xmlns:xlink="http://www.w3.org/1999/xlink" width="34.17311" height="34.17311" viewBox="0,0,34.17311,34.17311"><g transform="translate(-222.91348,-162.9135)"><g data-paper-data="{&quot;isPaintingLayer&quot;:true}" stroke-miterlimit="10" stroke-dasharray="" stroke-dashoffset="0" style="mix-blend-mode: normal"><path d="M229.98315,162.9135h20.03379c3.9166,0 7.06966,3.15307 7.06966,7.06966v20.03379c0,3.91659 -3.15306,7.06966 -7.06966,7.06966h-20.03379c-3.91659,0 -7.06966,-3.15307 -7.06966,-7.06966v-20.03379c0,-3.91659 3.15307,-7.06966 7.06966,-7.06966z" fill="#434343" fill-rule="evenodd" stroke="none" stroke-width="4.43922" stroke-linecap="round" stroke-linejoin="round"/><g fill-rule="nonzero" stroke-width="0.5" stroke-linejoin="miter"><path d="M251.56325,174.54621c1.17941,3.46968 -4.19401,4.7341 -10.78176,6.97339c-6.33799,2.15439 -11.05402,4.83756 -12.55534,1.68084c-0.05917,-0.1244 -1.46362,-3.77711 -1.50834,-3.90866c-1.17941,-3.46968 3.20493,-8.09772 9.79268,-10.33701c6.00187,-2.04014 12.05331,-0.8408 14.06831,2.41076c0.1967,0.31741 0.87956,2.87209 0.98445,3.18067z" fill="#484848" stroke="#000000" stroke-linecap="butt"/><path d="M229.93918,193.749c0,0 0.44131,-4.63056 -0.13483,-5.89206c-0.53747,-1.17682 -0.85137,-2.28536 -1.0119,-2.72682c-0.52312,-1.43861 -1.5815,-2.5952 -1.5815,-2.5952c0,0 3.68492,-1.91714 7.56261,-2.79962c1.8606,-0.42343 4.11547,0.30108 5.36933,-0.12513c1.34391,-0.45682 3.10115,-2.10262 4.93968,-3.10608c3.44329,-1.87933 6.94371,-3.32929 6.94371,-3.32929c0,0 -0.2685,2.43422 0.20079,3.71635c0.31178,0.85181 0.568,1.87965 0.72156,2.57282c0.24098,1.08776 2.94953,6.60747 2.94953,6.60747c0,0 -8.95944,1.95624 -12.45565,3.17727c-3.46418,1.20984 -10.65718,3.65412 -10.65718,3.65412z" fill="#292929" stroke="#000000" stroke-linecap="butt"/><path d="M243.49604,167.50293c0.06897,0.00158 0.13758,0.0038 0.20583,0.0067c1.75132,0.07435 5.48314,1.2161 3.70566,3.24472c-0.66342,0.17741 -0.50331,1.08454 -1.2091,1.34562c-0.61069,0.2259 -2.09814,-0.21466 -2.56074,0.18391c-0.55152,0.47518 -1.94909,-0.42235 -2.18724,0.22109c-0.24901,0.6728 0.65931,2.88613 -0.0481,3.34651c-0.80772,0.52565 -0.99275,2.3338 -1.48985,2.02971c-0.51477,-0.31491 -1.33788,-2.75018 -1.97245,-2.63367c-1.51931,0.27894 -1.06773,2.79071 -2.43586,3.43438c-0.139,0.06539 -1.24825,-0.68138 -1.83844,-1.00022c-0.17702,-0.09563 -0.30735,-0.15277 -0.35079,-0.13795c-0.19914,0.014 -0.39272,-2.57259 -0.57885,-2.64421c-0.65655,-0.25263 -1.22042,1.66092 -1.60903,1.7321c-0.32903,0.06027 -0.07924,1.67272 -0.49356,1.97027c-1.04783,0.75251 -2.9094,0.4531 -3.82949,-0.43256c-1.25995,-1.21281 0.12869,-3.11301 1.35093,-4.43703c0.02961,-0.06649 0.07176,-0.12727 0.12461,-0.17855l0.62656,-0.63402l0.01875,0.01852c0.13868,-0.1381 0.26204,-0.25975 0.36268,-0.36163c0,0 0.04503,-0.04556 0.12019,-0.09114c2.8178,-3.51748 8.2785,-5.72929 12.50597,-5.34512c0.6433,0.08853 1.14929,0.16057 1.58231,0.36254z" fill="#ffffff" stroke="#000000" stroke-linecap="butt"/><path d="M234.45269,174.20788l1.5678,-1.45788" fill="none" stroke="#707070" stroke-linecap="round"/><path d="M228.79914,176.41422l0.91209,-0.66579" fill="none" stroke="#b7b7b7" stroke-linecap="round"/><path d="M231.76759,174.05333l-1.53829,-0.75781" fill="none" stroke="#a1a1a1" stroke-linecap="round"/><path d="M233.81011,170.01498l0.77167,0.80496" fill="none" stroke="#707070" stroke-linecap="round"/><path d="M233.54464,171.95513l1.3394,-0.45528" fill="none" stroke="#b7b7b7" stroke-linecap="round"/><path d="M239.42534,168.53317l1.97064,1.8204" fill="none" stroke="#a1a1a1" stroke-linecap="round"/><path d="M238.44795,172.56522l1.50906,-0.5841" fill="none" stroke="#707070" stroke-linecap="round"/><path d="M237.52955,172.1659l-0.48578,-2.89434" fill="none" stroke="#707070" stroke-linecap="round"/><path d="M236.86098,174.38536l1.31771,-0.51907" fill="none" stroke="#b7b7b7" stroke-linecap="round"/><path d="M242.84505,170.43022l-0.51907,-1.31772" fill="none" stroke="#707070" stroke-linecap="round"/></g><path d="M232.84282,178.5038c0,0.22593 -0.24421,0.4091 -0.54545,0.4091c-0.30124,0 -0.54546,-0.18316 -0.54546,-0.4091c0,-0.22593 0.24421,-0.40909 0.54546,-0.40909c0.30124,0 0.54545,0.18315 0.54545,0.40909z" fill="#ffffff" fill-rule="nonzero" stroke="#000000" stroke-width="0.5" stroke-linecap="butt" stroke-linejoin="miter"/></g></g></svg>