<svg version="1.1" xmlns="http://www.w3.org/2000/svg" xmlns:xlink="http://www.w3.org/1999/xlink" width="138.4111" height="256.54698" viewBox="0,0,138.4111,256.54698"><g transform="translate(-163.97769,-57.06555)"><g data-paper-data="{&quot;isPaintingLayer&quot;:true}" fill-rule="nonzero" stroke-linejoin="miter" stroke-miterlimit="10" stroke-dasharray="" stroke-dashoffset="0" style="mix-blend-mode: normal"><path d="M179.20676,313.61253v-187.22501h123.18203v187.22501z" fill-opacity="0.01" fill="#000000" stroke="none" stroke-width="0" stroke-linecap="butt"/><path d="M206.67314,308.48922l15.14285,-92.37211l37.78325,-0.11061l13.57389,92.48274z" fill="#ffffff" stroke="#000000" stroke-width="2" stroke-linecap="butt"/><path d="M219.62336,236.05325l3.12142,-18.44586l35.83075,-0.09951l2.76735,18.29049c0,0 -7.51543,2.93985 -21.55904,3.15958c-12.48458,0.19533 -20.16049,-2.90471 -20.16049,-2.90471z" fill="#b5b5b5" stroke="#000000" stroke-width="0" stroke-linecap="butt"/><g stroke="#000000" stroke-width="2"><path d="M228.67868,254.64215l-0.4697,-23.89138" fill="none" stroke-linecap="round"/><path d="M228.67868,255.03706c1.90232,0 3.44445,0.8349 3.44445,1.8648c0,1.0299 -1.54214,1.8648 -3.44445,1.8648c-1.90232,0 -3.44445,-0.8349 -3.44445,-1.8648c0,-1.0299 1.54214,-1.8648 3.44445,-1.8648z" fill="#000000" stroke-linecap="butt"/></g><g data-paper-data="{&quot;index&quot;:null}" stroke="#000000" stroke-width="2"><path d="M251.67867,254.99247l0.4697,-23.89137" fill="none" stroke-linecap="round"/><path d="M255.12311,257.25217c0,1.0299 -1.54213,1.86479 -3.44445,1.86479c-1.90231,0 -3.44445,-0.8349 -3.44445,-1.86479c0,-1.0299 1.54213,-1.8648 3.44445,-1.8648c1.90231,0 3.44445,0.83491 3.44445,1.8648z" fill="#000000" stroke-linecap="butt"/></g><path d="M172.59637,165.8128c0,-33.30185 28.7599,-60.29833 64.23702,-60.29833c35.47712,0 64.23702,26.99649 64.23702,60.29833c0,33.30185 -28.7599,60.29833 -64.23702,60.29833c-35.47712,0 -64.23702,-26.99649 -64.23702,-60.29833z" fill="#414141" stroke="#000000" stroke-width="2" stroke-linecap="butt"/><path d="M173.31943,165.86671c0,-0.72799 5.20666,55.91939 63.36046,56.93429c55.56352,0.9697 63.51358,-57.95314 63.51358,-56.93429c0,32.80479 -28.40173,59.39833 -63.43702,59.39833c-35.03529,0 -63.43702,-26.59354 -63.43702,-59.39833z" fill="#252525" stroke="#000000" stroke-width="0" stroke-linecap="butt"/><path d="M186.1466,166.24233c0,-12.968 10.51265,-23.48065 23.48065,-23.48065c12.968,0 23.48065,10.51265 23.48065,23.48065c0,12.968 -10.51265,23.48065 -23.48065,23.48065c-12.968,0 -23.48065,-10.51265 -23.48065,-23.48065z" fill="#ffffff" stroke="#000000" stroke-width="2" stroke-linecap="butt"/><path d="M190.49528,170.50001c0,-9.12808 7.39976,-16.52784 16.52783,-16.52784c9.12808,0 16.52784,7.39977 16.52784,16.52784c0,9.12808 -7.39977,16.52784 -16.52784,16.52784c-9.12808,0 -16.52783,-7.39977 -16.52783,-16.52784z" fill="#000000" stroke="none" stroke-width="0" stroke-linecap="butt"/><path d="M263.88563,189.72299c-12.968,0 -23.48065,-10.51265 -23.48065,-23.48065c0,-12.968 10.51265,-23.48065 23.48065,-23.48065c12.968,0 23.48065,10.51265 23.48065,23.48065c0,12.968 -10.51265,23.48065 -23.48065,23.48065z" data-paper-data="{&quot;index&quot;:null}" fill="#ffffff" stroke="#000000" stroke-width="2" stroke-linecap="butt"/><path d="M267.6731,178.46122c-9.12807,0 -16.52783,-7.39977 -16.52783,-16.52784c0,-9.12808 7.39977,-16.52784 16.52783,-16.52784c9.12807,0 16.52783,7.39977 16.52783,16.52784c0,9.12808 -7.39977,16.52784 -16.52783,16.52784z" data-paper-data="{&quot;index&quot;:null}" fill="#000000" stroke="none" stroke-width="0" stroke-linecap="butt"/><path d="M198.78426,137.43387c0,0 6.70895,-5.16922 11.79721,-6.36355c5.08827,-1.19433 12.33413,0.69937 12.33413,0.69937c0,0 -8.03812,-0.06028 -11.96762,0.86207c-4.10648,0.96389 -12.16372,4.80211 -12.16372,4.80211z" fill="#000000" stroke="none" stroke-width="0" stroke-linecap="butt"/><path d="M262.71871,132.63178c-3.9295,-0.92235 -11.96762,-0.86207 -11.96762,-0.86207c0,0 7.24586,-1.8937 12.33413,-0.69937c5.08826,1.19433 11.79721,6.36355 11.79721,6.36355c0,0 -8.05724,-3.83822 -12.16372,-4.80211z" data-paper-data="{&quot;index&quot;:null}" fill="#000000" stroke="none" stroke-width="0" stroke-linecap="butt"/><path d="M188.54533,144.9334l4.66666,3.33333" fill="none" stroke="#000000" stroke-width="2" stroke-linecap="round"/><path d="M202.63225,143.86671l-1.50717,-5.53329" fill="none" stroke="#000000" stroke-width="2" stroke-linecap="round"/><g data-paper-data="{&quot;index&quot;:null}" fill="none" stroke="#000000" stroke-width="2" stroke-linecap="round"><path d="M280.92985,148.4095l4.66666,-3.33333"/><path d="M273.01671,138.47623l-1.50716,5.53329"/></g><path d="M262.61875,117.56673c0,6.87595 -11.78514,12.45 -26.32286,12.45c-14.53771,0 -26.32286,-5.57406 -26.32286,-12.45c0,-6.87595 11.78514,-12.45 26.32286,-12.45c14.53771,0 26.32286,5.57405 26.32286,12.45z" fill="#ffffff" stroke="#000000" stroke-width="2" stroke-linecap="butt"/><path d="M245.65293,206.06667c0,4.90489 -3.72473,8.88106 -8.31944,8.88106c-4.59469,0 -8.31944,-3.97619 -8.31944,-8.88106c0,-4.90489 3.72473,-8.88106 8.31944,-8.88106c4.59469,0 8.31944,3.97619 8.31944,8.88106z" fill="#000000" stroke="none" stroke-width="0" stroke-linecap="butt"/><path d="M228.87061,109.37511c-1.00102,7.31204 -5.51609,24.07687 -10.59879,23.19198c-5.08272,-0.8849 -8.80837,-19.08443 -7.80732,-26.39648c0.12494,-0.91262 0.31112,-1.7925 0.55117,-2.63187c1.68331,-5.88581 18.85599,-1.47568 17.85495,5.83636z" fill="#838383" stroke="#000000" stroke-width="2" stroke-linecap="butt"/><path d="M260.03265,80.74082c6.97217,-4.2806 16.84275,-1.10529 22.04656,7.09225c5.2038,8.19754 15.80611,32.28298 8.83393,36.56359c-6.97217,4.2806 -28.87859,-12.8646 -34.0824,-21.06213c-5.2038,-8.19754 -3.77026,-18.31308 3.20191,-22.59369z" data-paper-data="{&quot;index&quot;:null}" fill="#5b5b5b" stroke="#000000" stroke-width="2" stroke-linecap="butt"/><path d="M170.50452,88.49447l-5.33092,-30.39879l35.72146,0.89063l16.47628,43.25974z" fill="#5b5b5b" stroke="#000000" stroke-width="2" stroke-linecap="butt"/><path d="M215.59009,106.38544c-4.34665,8.68251 -24.4036,27.95857 -31.77353,24.40625c-7.36992,-3.55232 0.73802,-28.58786 5.08468,-37.27036c4.34665,-8.68251 13.8448,-12.84135 21.21472,-9.28903c7.36992,3.55232 9.82078,13.47062 5.47413,22.15314z" fill="#5b5b5b" stroke="#000000" stroke-width="2" stroke-linecap="butt"/><path d="M212.82225,110.18012c-0.90707,7.21661 -4.80373,23.50916 -8.95329,22.04167c-4.14957,-1.46749 -6.98067,-20.13931 -6.07359,-27.35591c0.11322,-0.90069 0.27614,-1.76159 0.4827,-2.5757c1.4484,-5.70881 15.45127,0.67336 14.5442,7.88996z" fill="#838383" stroke="#000000" stroke-width="2" stroke-linecap="butt"/><path d="M268.84592,94.1847c0.51086,0.6667 1.00007,1.39356 1.45932,2.17663c3.67942,6.27406 8.44101,24.54917 5.20643,27.53412c-3.23458,2.98495 -13.24044,-10.45061 -16.91988,-16.72468c-3.67944,-6.27407 6.67184,-17.66105 10.25414,-12.98607z" data-paper-data="{&quot;index&quot;:null}" fill="#838383" stroke="#000000" stroke-width="2" stroke-linecap="butt"/><path d="M258.63811,99.49733c0.32385,0.81074 0.59818,1.66722 0.81492,2.56249c1.73657,7.17303 -0.12634,25.65635 -5.09326,27.05157c-4.96694,1.39521 -11.15699,-14.82603 -12.89357,-21.99905c-1.73657,-7.17303 14.90104,-13.30001 17.1719,-7.615z" data-paper-data="{&quot;index&quot;:null}" fill="#838383" stroke="#000000" stroke-width="2" stroke-linecap="butt"/><path d="M196.93426,109.90859l1.99755,-28.49292c0,0 34.99454,-15.38452 35.17202,-15.34994c4.05683,0.78979 37.87892,11.41085 37.87892,11.41085l5.35486,28.5788z" fill="#5b5b5b" stroke="#000000" stroke-width="2" stroke-linecap="butt"/><path d="M228.38518,74.14422c2.61905,4.75113 -1.52775,12.05899 -9.26215,16.32258c-7.73439,4.26358 -16.12752,3.86834 -18.7466,-0.88278c-2.61905,-4.75113 1.52775,-12.05899 9.26215,-16.32257c7.73439,-4.26358 16.12753,-3.86834 18.74659,0.88278z" fill="#ffffff" stroke="#000000" stroke-width="2" stroke-linecap="butt"/><path d="M259.45372,70.73185c8.12651,3.45817 12.99224,10.30839 10.86793,15.30039c-2.1243,4.992 -10.43423,6.23541 -18.56074,2.77723c-8.1265,-3.45817 -12.99225,-10.30839 -10.86795,-15.30039c2.1243,-4.992 10.43422,-6.2354 18.56074,-2.77722z" data-paper-data="{&quot;index&quot;:null}" fill="#ffffff" stroke="#000000" stroke-width="2" stroke-linecap="butt"/><path d="M223.53677,82.63301c1.1359,1.67824 -1.04685,5.13932 -4.8753,7.7306c-3.82845,2.59127 -7.85285,3.33144 -8.98874,1.65322c-1.1359,-1.67824 1.04684,-5.13933 4.8753,-7.7306c3.82845,-2.59127 7.85285,-3.33144 8.98875,-1.65321z" fill="#000000" stroke="#000000" stroke-width="2" stroke-linecap="butt"/><path d="M254.91783,82.12527c4.07124,2.19013 6.59336,5.41233 5.6333,7.19698c-0.96006,1.78467 -5.03874,1.45595 -9.10998,-0.73417c-4.07124,-2.19013 -6.59336,-5.41233 -5.63332,-7.19697c0.96006,-1.78467 5.03873,-1.45594 9.10998,0.73417z" data-paper-data="{&quot;index&quot;:null}" fill="#000000" stroke="#000000" stroke-width="2" stroke-linecap="butt"/><path d="M238.46301,93.373c0.07065,1.39141 -6.34235,1.71707 -6.413,0.32565c-0.07065,-1.39141 1.30767,-2.5923 3.07856,-2.68222c1.77091,-0.08992 3.26378,0.96514 3.33443,2.35657z" fill="#000000" stroke="#000000" stroke-width="2" stroke-linecap="butt"/><path d="M235.4235,99.45754l-0.28921,-5.8312" fill="none" stroke="#000000" stroke-width="1" stroke-linecap="round"/><path d="M235.33659,98.85863c0,0 -0.03086,0.8824 -0.49397,1.73036c-0.40838,0.74776 -1.22432,1.44887 -1.63942,1.77572c-0.26633,0.20973 -1.70533,0.73814 -2.50563,0.48577c-1.27226,-0.40121 -2.00763,-1.75299 -2.00763,-1.75299" data-paper-data="{&quot;index&quot;:null}" fill="none" stroke="#000000" stroke-width="1" stroke-linecap="round"/><path d="M204.29105,100.02116c0.06109,0.03414 0.13038,0.10435 0.13781,0.24797c0.00579,0.11228 -0.03122,0.17316 -0.07539,0.20606c-0.02033,0.03812 -0.05492,0.07121 -0.11184,0.0896c-0.08667,0.02804 -0.15136,-0.00182 -0.19708,-0.04538c-1.09991,0.14477 -3.99675,2.06245 -2.24573,2.97245c0.58542,0.3182 1.43075,0.17356 1.91889,-0.20145c0.1192,-0.09158 0.47454,-0.49639 0.65351,-0.45635c0.48626,0.10876 0.62767,1.13823 0.77568,1.54787c0.29613,0.81964 0.92713,1.4089 1.58749,1.77568c1.72114,0.5387 2.17215,-0.85286 1.9595,-2.71656c-0.04005,-0.35107 -0.50436,-1.31007 -0.39675,-1.58254c0.10179,-0.25772 0.52305,-0.35529 0.74362,-0.42675c0.78017,-0.44517 2.02247,-1.22018 2.40138,-2.20682c0.67538,-1.75862 -0.94514,-1.9362 -1.8918,-1.62945c-0.43527,0.14078 -1.59064,1.1222 -1.98882,1.05704c-0.46227,-0.07564 -0.46807,-0.58884 -0.61844,-0.9322c-0.48794,-1.11426 -1.94729,-2.73095 -2.80945,-1.47582c-0.71173,0.92579 -0.22067,2.60011 0.15744,3.77664zM203.84055,100.01676c-0.43025,-1.37278 -0.8353,-3.06615 -0.05188,-4.14809c0.88258,-1.12873 2.31208,-0.36956 3.06344,0.85633c0.07388,0.12057 0.42698,0.69173 0.47315,0.79718c0.08658,0.19772 0.05649,0.64624 0.22617,0.60829c0.55762,-0.12475 1.21617,-0.84322 1.83454,-1.0432c1.32909,-0.4291 3.27593,0.24152 2.46063,2.40378c-0.41528,1.10138 -1.7385,1.9417 -2.60841,2.4363c-0.79611,0.25705 -0.09965,1.33214 -0.07372,2.3894c0.04869,1.98494 -0.89872,2.85214 -2.53051,2.33221c-0.66523,-0.36755 -1.318,-0.92103 -1.71268,-1.69372c-0.05725,-0.11208 -0.54596,-1.60418 -0.55885,-1.60202c-0.98925,0.16573 -1.41817,1.29058 -2.69635,0.61449c-2.39451,-1.26158 0.64075,-3.6569 2.17447,-3.95094z" fill="#c5c5c5" stroke="none" stroke-width="0.5" stroke-linecap="butt"/><path d="M267.01362,92.5004c-0.98487,-1.16133 -2.27293,0.59486 -2.64549,1.75282c-0.1148,0.35684 -0.06858,0.86798 -0.52082,0.99005c-0.38954,0.10516 -1.63838,-0.75419 -2.08567,-0.85016c-0.97285,-0.20927 -2.56704,0.13155 -1.71701,1.81271c0.47688,0.94318 1.79132,1.58835 2.61257,1.95222c0.22667,0.04876 0.65562,0.10315 0.783,0.34923c0.13466,0.26018 -0.2301,1.26126 -0.23439,1.61459c-0.02279,1.87564 0.56689,3.21437 2.2246,2.50409c0.61981,-0.43178 1.18787,-1.08192 1.39945,-1.92734c0.10576,-0.42253 0.14215,-1.46103 0.61488,-1.61849c0.17401,-0.05795 0.56852,0.30877 0.69639,0.3878c0.52364,0.32362 1.37926,0.3819 1.92944,0.00603c1.64983,-1.08271 -1.42638,-2.69706 -2.5353,-2.72968c-0.04106,0.04797 -0.10239,0.08423 -0.19146,0.06511c-0.05849,-0.01255 -0.09625,-0.04195 -0.12034,-0.07782c-0.04728,-0.02827 -0.09025,-0.08507 -0.09586,-0.19737c-0.00716,-0.14364 0.05465,-0.22052 0.11197,-0.26067c0.25698,-1.20878 0.5759,-2.92423 -0.22593,-3.77317zM270.25082,99.93391c-1.20314,0.8021 -1.74377,-0.27351 -2.74473,-0.33819c-0.01303,-0.00084 -0.3481,1.53308 -0.3937,1.65039c-0.31435,0.80868 -0.90772,1.42544 -1.53229,1.8585c-1.57072,0.68255 -2.60111,-0.0842 -2.75374,-2.06388c-0.0813,-1.05445 0.50267,-2.19456 -0.31538,-2.36964c-0.91553,-0.40392 -2.31706,-1.10589 -2.84177,-2.15954c-1.03013,-2.06855 0.83875,-2.93294 2.20448,-2.64068c0.63544,0.13633 1.36336,0.7844 1.93077,0.85201c0.17264,0.02057 0.0973,-0.42261 0.16338,-0.62807c0.03526,-0.10958 0.32869,-0.71361 0.38998,-0.84102c0.62331,-1.2957 1.96855,-2.19576 2.96094,-1.16224c0.88898,0.99702 0.65756,2.72271 0.36858,4.13202c1.55563,0.13716 4.81791,2.21268 2.56349,3.71035z" data-paper-data="{&quot;index&quot;:null}" fill="#c5c5c5" stroke="none" stroke-width="0.5" stroke-linecap="butt"/><path d="M242.28846,100.55002c0,0 -0.59465,1.41932 -1.81972,1.94734c-0.77062,0.33214 -2.25573,-0.0478 -2.54194,-0.22946c-0.44607,-0.28312 -1.32886,-0.89796 -1.81087,-1.60052c-0.5466,-0.79669 -0.66671,-1.67143 -0.66671,-1.67143" data-paper-data="{&quot;index&quot;:null}" fill="none" stroke="#000000" stroke-width="1" stroke-linecap="round"/><text transform="translate(229.50457,126.78339) scale(0.5,0.63543)" font-size="40" xml:space="preserve" fill="#adadad" fill-rule="nonzero" stroke="none" stroke-width="1" stroke-linecap="butt" stroke-linejoin="miter" stroke-miterlimit="10" stroke-dasharray="" stroke-dashoffset="0" font-family="Handwriting" font-weight="normal" text-anchor="start" style="mix-blend-mode: normal"><tspan x="0" dy="0">8</tspan></text></g></g></svg>