<svg version="1.1" xmlns="http://www.w3.org/2000/svg" xmlns:xlink="http://www.w3.org/1999/xlink" width="152.86545" height="254.26276" viewBox="0,0,152.86545,254.26276"><g transform="translate(-149.52332,-59.34977)"><g data-paper-data="{&quot;isPaintingLayer&quot;:true}" fill-rule="nonzero" stroke-linejoin="miter" stroke-miterlimit="10" stroke-dasharray="" stroke-dashoffset="0" style="mix-blend-mode: normal"><path d="M179.20674,313.61253v-187.22501h123.18203v187.22501z" fill-opacity="0.01" fill="#000000" stroke="none" stroke-width="0" stroke-linecap="butt"/><path d="M206.67313,308.48921l15.14285,-92.37211l37.78325,-0.11061l13.57389,92.48274z" fill="#ffffff" stroke="#000000" stroke-width="2" stroke-linecap="butt"/><path d="M219.62335,236.05324l3.12142,-18.44586l35.83075,-0.09951l2.76735,18.29049c0,0 -7.51543,2.93985 -21.55904,3.15958c-12.48458,0.19533 -20.16049,-2.90471 -20.16049,-2.90471z" fill="#b5b5b5" stroke="#000000" stroke-width="0" stroke-linecap="butt"/><g stroke="#000000" stroke-width="2"><path d="M228.67867,254.64215l-0.4697,-23.89138" fill="none" stroke-linecap="round"/><path d="M228.67867,255.03705c1.90232,0 3.44445,0.8349 3.44445,1.8648c0,1.0299 -1.54214,1.8648 -3.44445,1.8648c-1.90232,0 -3.44445,-0.8349 -3.44445,-1.8648c0,-1.0299 1.54214,-1.8648 3.44445,-1.8648z" fill="#000000" stroke-linecap="butt"/></g><g data-paper-data="{&quot;index&quot;:null}" stroke="#000000" stroke-width="2"><path d="M252.14836,231.10109l-0.4697,23.89137" fill="none" stroke-linecap="round"/><path d="M255.1231,257.25216c0,1.0299 -1.54213,1.86479 -3.44445,1.86479c-1.90231,0 -3.44445,-0.8349 -3.44445,-1.86479c0,-1.0299 1.54213,-1.8648 3.44445,-1.8648c1.90231,0 3.44445,0.83491 3.44445,1.8648z" fill="#000000" stroke-linecap="butt"/></g><path d="M170.9297,167.47946c0,-33.30185 28.7599,-60.29833 64.23702,-60.29833c35.47712,0 64.23702,26.99649 64.23702,60.29833c0,33.30185 -28.7599,60.29833 -64.23702,60.29833c-35.47712,0 -64.23702,-26.99649 -64.23702,-60.29833z" fill="#414141" stroke="#000000" stroke-width="2" stroke-linecap="butt"/><path d="M171.65275,167.53337c0,-0.72799 5.20666,55.91939 63.36046,56.93429c55.56352,0.9697 63.51358,-57.95314 63.51358,-56.93429c0,32.80479 -28.40173,59.39833 -63.43702,59.39833c-35.03529,0 -63.43702,-26.59354 -63.43702,-59.39833z" fill="#252525" stroke="#000000" stroke-width="0" stroke-linecap="butt"/><path d="M184.47993,167.90899c0,-12.968 10.51265,-23.48065 23.48065,-23.48065c12.968,0 23.48065,10.51265 23.48065,23.48065c0,12.968 -10.51265,23.48065 -23.48065,23.48065c-12.968,0 -23.48065,-10.51265 -23.48065,-23.48065z" fill="#ffffff" stroke="#000000" stroke-width="2" stroke-linecap="butt"/><path d="M186.82861,173.16667c0,-9.12808 7.39976,-16.52784 16.52783,-16.52784c9.12808,0 16.52784,7.39977 16.52784,16.52784c0,9.12808 -7.39977,16.52784 -16.52784,16.52784c-9.12808,0 -16.52783,-7.39977 -16.52783,-16.52784z" fill="#000000" stroke="none" stroke-width="0" stroke-linecap="butt"/><path d="M262.21898,191.38965c-12.968,0 -23.48065,-10.51265 -23.48065,-23.48065c0,-12.968 10.51265,-23.48065 23.48065,-23.48065c12.968,0 23.48065,10.51265 23.48065,23.48065c0,12.968 -10.51265,23.48065 -23.48065,23.48065z" data-paper-data="{&quot;index&quot;:null}" fill="#ffffff" stroke="#000000" stroke-width="2" stroke-linecap="butt"/><path d="M267.33975,179.46121c-9.12807,0 -16.52783,-7.39977 -16.52783,-16.52784c0,-9.12808 7.39977,-16.52784 16.52783,-16.52784c9.12807,0 16.52783,7.39977 16.52783,16.52784c0,9.12808 -7.39977,16.52784 -16.52783,16.52784z" data-paper-data="{&quot;index&quot;:null}" fill="#000000" stroke="none" stroke-width="0" stroke-linecap="butt"/><path d="M197.11759,139.10053c0,0 6.70895,-5.16922 11.79721,-6.36355c5.08827,-1.19433 12.33413,0.69937 12.33413,0.69937c0,0 -8.03812,-0.06028 -11.96762,0.86207c-4.10648,0.96389 -12.16372,4.80211 -12.16372,4.80211z" fill="#000000" stroke="none" stroke-width="0" stroke-linecap="butt"/><path d="M261.05201,134.29845c-3.9295,-0.92235 -11.96762,-0.86207 -11.96762,-0.86207c0,0 7.24586,-1.8937 12.33413,-0.69937c5.08826,1.19433 11.79721,6.36355 11.79721,6.36355c0,0 -8.05724,-3.83822 -12.16372,-4.80211z" data-paper-data="{&quot;index&quot;:null}" fill="#000000" stroke="none" stroke-width="0" stroke-linecap="butt"/><path d="M186.87866,146.60006l4.66666,3.33333" fill="none" stroke="#000000" stroke-width="2" stroke-linecap="round"/><path d="M199.45841,140.00008l1.50717,5.53329" fill="none" stroke="#000000" stroke-width="2" stroke-linecap="round"/><g data-paper-data="{&quot;index&quot;:null}" fill="none" stroke="#000000" stroke-width="2" stroke-linecap="round"><path d="M283.92985,146.74284l-4.66666,3.33333"/><path d="M269.8429,145.67619l1.50716,-5.53329"/></g><path d="M260.95205,119.23339c0,6.87595 -11.78514,12.45 -26.32286,12.45c-14.53771,0 -26.32286,-5.57406 -26.32286,-12.45c0,-6.87595 11.78514,-12.45 26.32286,-12.45c14.53771,0 26.32286,5.57405 26.32286,12.45z" fill="#ffffff" stroke="#000000" stroke-width="2" stroke-linecap="butt"/><path d="M243.98626,209.56666c0,5.91741 -3.72473,10.71439 -8.31944,10.71439c-4.59469,0 -8.31944,-4.797 -8.31944,-10.71439c0,-5.91741 3.72473,-10.71439 8.31944,-10.71439c4.59469,0 8.31944,4.797 8.31944,10.71439z" fill="#000000" stroke="none" stroke-width="0" stroke-linecap="butt"/><text transform="translate(227.83791,127.78339) scale(0.5,0.63543)" font-size="40" xml:space="preserve" fill="#adadad" fill-rule="nonzero" stroke="none" stroke-width="1" stroke-linecap="butt" stroke-linejoin="miter" stroke-miterlimit="10" stroke-dasharray="" stroke-dashoffset="0" font-family="Handwriting" font-weight="normal" text-anchor="start" style="mix-blend-mode: normal"><tspan x="0" dy="0">8</tspan></text><path d="M226.13733,110.24623c-0.80481,7.33623 -4.86923,24.21599 -9.9738,23.46755c-5.1046,-0.74843 -9.31637,-18.84165 -8.51154,-26.17788c0.10045,-0.91564 0.263,-1.80019 0.48048,-2.64569c1.52506,-5.92879 18.8097,-1.9802 18.00487,5.35602z" fill="#838383" stroke="#000000" stroke-width="2" stroke-linecap="butt"/><path d="M256.52124,80.78755c6.85501,-4.46581 16.8071,-1.55602 22.2286,6.49919c5.4215,8.05522 16.66513,31.84803 9.81011,36.31386c-6.85501,4.46582 -29.2128,-12.08648 -34.63431,-20.14168c-5.4215,-8.05522 -4.25942,-18.20552 2.5956,-22.67135z" data-paper-data="{&quot;index&quot;:null}" fill="#5b5b5b" stroke="#000000" stroke-width="2" stroke-linecap="butt"/><path d="M170.84403,101.27642l-19.77053,-23.69877l31.41385,-17.02898l35.84242,29.29494z" fill="#5b5b5b" stroke="#000000" stroke-width="2" stroke-linecap="butt"/><path d="M212.7815,107.61335c-4.11253,8.79582 -23.64598,28.60218 -31.10841,25.24854c-7.46242,-3.35364 -0.02796,-28.59737 4.08458,-37.39318c4.11253,-8.79582 13.49588,-13.20757 20.9583,-9.85393c7.46242,3.35364 10.17806,13.20274 6.06553,21.99857z" fill="#5b5b5b" stroke="#000000" stroke-width="2" stroke-linecap="butt"/><path d="M210.11629,111.4808c-0.71345,7.23832 -4.17232,23.62938 -8.3597,22.27357c-4.18739,-1.35582 -7.51759,-19.94511 -6.80414,-27.18342c0.08905,-0.9034 0.22887,-1.76835 0.41355,-2.58771c1.29497,-5.74556 15.46376,0.25926 14.75031,7.49757z" fill="#838383" stroke="#000000" stroke-width="2" stroke-linecap="butt"/><path d="M265.69144,93.99054c0.52853,0.65278 1.03704,1.36627 1.5171,2.13676c3.84615,6.17326 9.09553,24.31427 5.94206,27.38479c-3.15347,3.07052 -13.51561,-10.09222 -17.36178,-16.26547c-3.84617,-6.17326 6.1964,-17.83342 9.90263,-13.25607z" data-paper-data="{&quot;index&quot;:null}" fill="#838383" stroke="#000000" stroke-width="2" stroke-linecap="butt"/><path d="M255.62957,99.57469c0.34545,0.80177 0.64262,1.6506 0.88326,2.53974c1.92807,7.12394 0.56091,25.65053 -4.36686,27.17829c-4.92779,1.52775 -11.5501,-14.52187 -13.47818,-21.64581c-1.92807,-7.12394 14.53946,-13.69436 16.96177,-8.07221z" data-paper-data="{&quot;index&quot;:null}" fill="#838383" stroke="#000000" stroke-width="2" stroke-linecap="butt"/><path d="M194.22673,111.63493l1.23366,-28.5362c0,0 34.56991,-16.31632 34.74826,-16.28651c4.07653,0.68085 38.17097,10.39218 38.17097,10.39218l6.11842,28.42512z" fill="#5b5b5b" stroke="#000000" stroke-width="2" stroke-linecap="butt"/><path d="M224.70842,75.04098c2.74537,4.67927 -1.2042,12.09558 -8.82163,16.56481c-7.61742,4.46921 -16.01812,4.29892 -18.76352,-0.38034c-2.74537,-4.67927 1.2042,-12.09558 8.82163,-16.5648c7.61742,-4.46921 16.01813,-4.29892 18.76351,0.38034z" fill="#ffffff" stroke="#000000" stroke-width="2" stroke-linecap="butt"/><path d="M255.67443,70.79767c8.21622,3.23926 13.26369,9.9567 11.27385,15.00381c-1.98983,5.04711 -10.26347,6.51265 -18.47969,3.27338c-8.21621,-3.23926 -13.2637,-9.9567 -11.27387,-15.0038c1.98983,-5.04711 10.26346,-6.51264 18.47969,-3.27337z" data-paper-data="{&quot;index&quot;:null}" fill="#ffffff" stroke="#000000" stroke-width="2" stroke-linecap="butt"/><path d="M220.08912,83.65659c1.18044,1.64721 -0.90882,5.16552 -4.66649,7.85841c-3.75767,2.69288 -7.7608,3.54058 -8.94123,1.89339c-1.18044,-1.64721 0.90881,-5.16553 4.66649,-7.85841c3.75767,-2.69288 7.7608,-3.54058 8.94124,-1.89338z" fill="#000000" stroke="#000000" stroke-width="2" stroke-linecap="butt"/><path d="M251.44532,82.30851c4.12844,2.0803 6.73596,5.23379 5.82405,7.04351c-0.91191,1.80974 -4.99793,1.59039 -9.12638,-0.4899c-4.12844,-2.0803 -6.73596,-5.23379 -5.82407,-7.0435c0.91191,-1.80974 4.99793,-1.59038 9.12638,0.4899z" data-paper-data="{&quot;index&quot;:null}" fill="#000000" stroke="#000000" stroke-width="2" stroke-linecap="butt"/><path d="M235.29767,93.99293c0.10789,1.38902 -6.29408,1.88633 -6.40198,0.4973c-0.10789,-1.38902 1.23777,-2.6264 3.00561,-2.76372c1.76787,-0.13732 3.28846,0.87737 3.39635,2.26641z" fill="#000000" stroke="#000000" stroke-width="2" stroke-linecap="butt"/><path d="M232.42222,100.15671l-0.44529,-5.82136" fill="none" stroke="#000000" stroke-width="1" stroke-linecap="round"/><path d="M232.31931,99.56035c0,0 -0.00721,0.88291 -0.44745,1.74297c-0.3882,0.75843 -1.18507,1.48114 -1.59127,1.81899c-0.26062,0.21679 -1.68495,0.78355 -2.49172,0.55271c-1.28255,-0.36699 -2.05386,-1.69859 -2.05386,-1.69859" data-paper-data="{&quot;index&quot;:null}" fill="none" stroke="#000000" stroke-width="1" stroke-linecap="round"/><path d="M201.31604,101.55401c0.06198,0.03249 0.13313,0.10082 0.1444,0.24419c0.0088,0.11208 -0.02657,0.17393 -0.06984,0.20801c-0.0193,0.03865 -0.05299,0.07266 -0.1094,0.09256c-0.08589,0.03035 -0.15135,0.00223 -0.19822,-0.04008c-1.09564,0.17418 -3.94007,2.16876 -2.16531,3.03153c0.59373,0.30241 1.43489,0.13518 1.91281,-0.25277c0.1167,-0.09474 0.46107,-0.50892 0.64105,-0.47369c0.489,0.0957 0.65793,1.12101 0.81686,1.52654c0.31798,0.81141 0.96453,1.38356 1.63448,1.73252c1.73495,0.49241 2.14853,-0.91073 1.88603,-2.76807c-0.04944,-0.34987 -0.53927,-1.29609 -0.439,-1.57135c0.09485,-0.26035 0.51335,-0.36917 0.73192,-0.44651c0.76797,-0.46591 1.98906,-1.27391 2.34141,-2.27035c0.62803,-1.77608 -0.99666,-1.91019 -1.93477,-1.57819c-0.43134,0.15239 -1.56001,1.1644 -1.95979,1.10993c-0.46413,-0.06323 -0.48367,-0.57609 -0.64319,-0.9153c-0.51761,-1.10079 -2.01974,-2.67781 -2.84797,-1.40004c-0.68668,0.94452 -0.15095,2.60509 0.25854,3.77107zM200.86559,101.56167c-0.46687,-1.36076 -0.91713,-3.04268 -0.16297,-4.14521c0.85203,-1.15196 2.30135,-0.43136 3.08528,0.77397c0.07708,0.11855 0.44535,0.68005 0.49433,0.78422c0.09184,0.19533 0.07378,0.6445 0.24238,0.60201c0.55408,-0.13964 1.19315,-0.87549 1.80594,-1.09196c1.31712,-0.46455 3.28122,0.15369 2.52413,2.33701c-0.38563,1.11211 -1.68587,1.98757 -2.54222,2.50529c-0.78894,0.27828 -0.06393,1.33433 -0.00969,2.39052c0.10184,1.98292 -0.822,2.87519 -2.46713,2.39915c-0.67484,-0.3496 -1.3422,-0.8854 -1.75743,-1.64724c-0.06023,-0.11051 -0.58873,-1.58898 -0.60156,-1.58648c-0.98446,0.19217 -1.38309,1.3281 -2.67892,0.68649c-2.42744,-1.19699 0.54257,-3.67275 2.06786,-4.00777z" fill="#c5c5c5" stroke="none" stroke-width="0.5" stroke-linecap="butt"/><path d="M263.81467,92.35592c-1.01562,-1.13453 -2.25618,0.65553 -2.59759,1.82305c-0.1052,0.35979 -0.04531,0.86951 -0.49411,1.00364c-0.38658,0.11556 -1.65799,-0.71004 -2.10769,-0.79399c-0.97811,-0.18314 -2.5626,0.20026 -1.66784,1.85805c0.50197,0.93007 1.83322,1.5398 2.66392,1.88154c0.22789,0.04267 0.65815,0.08555 0.79207,0.32813c0.14158,0.25648 -0.19623,1.26697 -0.19106,1.62029c0.02746,1.87558 0.65278,3.19803 2.29087,2.44361c0.60802,-0.44823 1.15846,-1.11335 1.34732,-1.96413c0.0944,-0.42521 0.10297,-1.46431 0.57131,-1.63438c0.1724,-0.06259 0.57659,0.29343 0.70653,0.36901c0.53212,0.30948 1.38899,0.34482 1.92891,-0.04565c1.62024,-1.12651 -1.49811,-2.65789 -2.6075,-2.66079c-0.03976,0.04905 -0.1001,0.08694 -0.18965,0.07021c-0.05881,-0.01098 -0.09734,-0.03936 -0.12238,-0.07457c-0.04802,-0.02699 -0.0925,-0.08262 -0.10111,-0.19473c-0.011,-0.1434 0.04872,-0.2219 0.10495,-0.26358c0.22451,-1.21523 0.49737,-2.93861 -0.32691,-3.76576zM267.24982,99.70007c-1.18122,0.83404 -1.75047,-0.22671 -2.7528,-0.26455c-0.01305,-0.00049 -0.30691,1.54185 -0.34935,1.66034c-0.29258,0.81681 -0.86921,1.44924 -1.48196,1.89888c-1.55187,0.72438 -2.60243,-0.0145 -2.80803,-1.98938c-0.10951,-1.05189 0.44371,-2.20724 -0.37874,-2.36034c-0.92602,-0.37925 -2.34585,-1.04343 -2.89859,-2.08265c-1.08517,-2.04022 0.75989,-2.95435 2.13296,-2.69878c0.63886,0.11926 1.38388,0.7476 1.9529,0.79999c0.17313,0.01594 0.08595,-0.42506 0.1465,-0.63222c0.03231,-0.11049 0.30946,-0.72216 0.36731,-0.85116c0.58838,-1.31193 1.90903,-2.2477 2.92875,-1.24113c0.91537,0.97285 0.73025,2.70412 0.47912,4.12067c1.55875,0.09544 4.87545,2.08284 2.66195,3.64036z" data-paper-data="{&quot;index&quot;:null}" fill="#c5c5c5" stroke="none" stroke-width="0.5" stroke-linecap="butt"/><path d="M239.31399,101.06491c0,0 -0.55642,1.43474 -1.76691,1.99538c-0.76145,0.35266 -2.2562,0.01264 -2.54717,-0.16129c-0.45349,-0.27107 -1.35243,-0.86204 -1.85309,-1.55144c-0.56774,-0.78176 -0.71124,-1.65297 -0.71124,-1.65297" data-paper-data="{&quot;index&quot;:null}" fill="none" stroke="#000000" stroke-width="1" stroke-linecap="round"/></g></g></svg>