<svg version="1.1" xmlns="http://www.w3.org/2000/svg" xmlns:xlink="http://www.w3.org/1999/xlink" width="130.47405" height="267.22501" viewBox="0,0,130.47405,267.22501"><defs><radialGradient cx="238.39503" cy="120.1" r="74.23329" gradientUnits="userSpaceOnUse" id="color-1"><stop offset="0" stop-color="#d0ffff"/><stop offset="1" stop-color="#aad0d0"/></radialGradient></defs><g transform="translate(-174.76299,-46.3875)"><g data-paper-data="{&quot;isPaintingLayer&quot;:true}" fill-rule="nonzero" stroke-linejoin="miter" stroke-miterlimit="10" stroke-dasharray="" stroke-dashoffset="0" style="mix-blend-mode: normal"><path d="M179.28371,313.61251v-267.22501h123.18203v267.22501z" fill-opacity="0.01" fill="#000000" stroke="none" stroke-width="0" stroke-linecap="butt"/><path d="M206.75001,306.29999l12.47618,-117.17543c0,0 2.19545,-1.00499 3.52201,-1.01054c4.96025,-0.02073 38.26124,-0.48068 38.26124,-0.48068l12.24055,118.66667z" fill="#ff5600" stroke="#000000" stroke-width="2" stroke-linecap="butt"/><path d="M219.70024,202.91263l3.78808,-14.32765c0,0 12.65518,5.61254 18.92289,5.5877c5.60065,-0.0222 15.90786,-3.39639 15.90786,-3.39639l3.10068,11.77256c0,0 -7.51543,4.19603 -21.55904,4.50964c-12.48458,0.27879 -20.16049,-4.14586 -20.16049,-4.14586z" fill="#bd3f00" stroke="#000000" stroke-width="0" stroke-linecap="butt"/><path d="M216.01428,224.73245l0.68571,-5.49348l47.2,-0.13897l1.08571,5.77142z" fill="#000000" stroke="#000000" stroke-width="2" stroke-linecap="butt"/><path d="M257.94441,222.38564c0,6.17735 -3.90507,5.99994 -8.72222,5.99994c-4.81715,0 -8.72222,0.1774 -8.72222,-5.99994c0,-6.17735 3.79396,-6.88882 8.61111,-6.88882c4.81715,0 8.83333,0.71147 8.83333,6.88882z" fill="#000000" stroke="#000000" stroke-width="2" stroke-linecap="butt"/><g data-paper-data="{&quot;index&quot;:null}" fill="#000000" stroke="#000000" stroke-width="2" stroke-linecap="butt"><path d="M210.41428,276.47139l1.31628,-5.77142l57.2238,0.13897l0.83134,5.49348z"/><path d="M229.66015,267.09682c5.84016,0 10.43984,0.71148 10.43984,6.88882c0,6.17735 -4.73439,5.99994 -10.57454,5.99994c-5.84016,0 -10.57455,0.17741 -10.57455,-5.99994c0,-6.17735 4.86909,-6.88882 10.70925,-6.88882z"/></g><path d="M188.42966,173.67003c0,-3.05232 -2.53644,-2.61126 34.47605,-3.88971c3.61945,-0.12502 66.74105,4.11047 66.97777,5.56206c0.57411,3.52052 -5.78947,6.55406 -10.71639,9.75109c-10.90599,7.07682 -22.12939,15.00483 -37.30519,15.00483c-40.9979,0 -53.43222,-26.42829 -53.43222,-26.42829z" fill="url(#color-1)" stroke="#000000" stroke-width="2" stroke-linecap="butt"/><path d="M175.76299,141.1333c0,-21.76079 2.20981,-37.62967 20.39782,-45.4953c4.41957,-1.91129 26.81189,-3.81646 44.96533,-3.59793c21.46848,0.25844 45.7007,1.78773 52.15296,8.43631c7.96655,8.20893 10.95794,27.30828 10.95794,40.65693c0,33.30185 -28.75989,60.29834 -64.23702,60.29834c-35.47712,0 -64.23702,-26.99649 -64.23702,-60.29834z" fill="none" stroke="#000000" stroke-width="2" stroke-linecap="butt"/><path d="M189.39013,141.40896c0,-12.96801 10.51265,-23.48065 23.48066,-23.48065c12.96801,0 23.48065,10.51264 23.48065,23.48065c0,12.96801 -10.51264,23.48066 -23.48065,23.48066c-12.96801,0 -23.48066,-10.51265 -23.48066,-23.48066z" fill="#ffffff" stroke="#000000" stroke-width="2" stroke-linecap="butt"/><path d="M196.00553,145.71663c0,-9.12807 7.39976,-16.52784 16.52783,-16.52784c9.12807,0 16.52784,7.39977 16.52784,16.52785c0,9.12807 -7.39977,16.52785 -16.52784,16.52785c-9.12807,0 -16.52783,-7.39977 -16.52783,-16.52785z" fill="#1a1a1a" stroke="none" stroke-width="0" stroke-linecap="butt"/><path d="M267.12921,164.88962c-12.96801,0 -23.48065,-10.51265 -23.48065,-23.48066c0,-12.96801 10.51264,-23.48065 23.48065,-23.48065c12.96801,0 23.48066,10.51264 23.48066,23.48065c0,12.96801 -10.51265,23.48066 -23.48066,23.48066z" data-paper-data="{&quot;index&quot;:null}" fill="#ffffff" stroke="#000000" stroke-width="2" stroke-linecap="butt"/><path d="M283.74444,145.7333c0,9.12808 -7.39976,16.52785 -16.52783,16.52785c-9.12807,0 -16.52784,-7.39978 -16.52784,-16.52785c0,-9.12808 7.39977,-16.52785 16.52784,-16.52785c9.12807,0 16.52783,7.39977 16.52783,16.52784z" data-paper-data="{&quot;index&quot;:null}" fill="#1a1a1a" stroke="none" stroke-width="0" stroke-linecap="butt"/><path d="M176.56302,141.03333c0,-0.72799 5.20666,55.91939 63.36046,56.93429c55.56352,0.9697 63.51358,-57.95314 63.51358,-56.93429c0,32.80479 -28.40173,59.39833 -63.43702,59.39833c-35.03529,0 -63.43702,-26.59354 -63.43702,-59.39833z" fill="#4fb7b7" stroke="#000000" stroke-width="0" stroke-linecap="butt"/><path d="M294.93749,101.77333c0,3.5563 -24.63748,10.33275 -54.11899,10.33275c-29.48151,0 -53.381,-7.67494 -53.381,-11.23124c0,-3.5563 24.14549,4.94174 53.627,4.94174c29.48151,0 53.873,-7.59955 53.873,-4.04325z" fill="#73bdbd" stroke="#000000" stroke-width="2" stroke-linecap="butt"/><path d="M225.82584,112.17511c0,0 -6.70895,5.16922 -11.79721,6.36355c-5.08827,1.19433 -12.33413,-0.69937 -12.33413,-0.69937c0,0 8.03812,0.06028 11.96762,-0.86207c4.10648,-0.96389 12.16372,-4.80211 12.16372,-4.80211z" data-paper-data="{&quot;index&quot;:null}" fill="#000000" stroke="none" stroke-width="0" stroke-linecap="butt"/><path d="M265.96231,107.7984c-3.9295,-0.92235 -11.96762,-0.86207 -11.96762,-0.86207c0,0 7.24586,-1.8937 12.33413,-0.69937c5.08826,1.19433 11.79721,6.36355 11.79721,6.36355c0,0 -8.05724,-3.83822 -12.16372,-4.80211z" data-paper-data="{&quot;index&quot;:null}" fill="#000000" stroke="none" stroke-width="0" stroke-linecap="butt"/><path d="M195.90851,112.15901c0.81046,1.317 -1.35415,4.12103 -4.8348,6.26296c-3.48065,2.14194 -6.95928,2.81068 -7.76974,1.49368c-0.81046,-1.317 1.35416,-4.12102 4.8348,-6.26296c3.48065,-2.14194 6.95928,-2.81068 7.76974,-1.49368z" fill="#e2ffff" stroke="none" stroke-width="0" stroke-linecap="butt"/><path d="M200.20623,110.63733c0,0.88366 -0.85066,1.6 -1.9,1.6c-1.04934,0 -1.9,-0.71634 -1.9,-1.6c0,-0.88366 0.85066,-1.6 1.9,-1.6c1.04934,0 1.9,0.71634 1.9,1.6z" fill="#e2ffff" stroke="none" stroke-width="0" stroke-linecap="butt"/><path d="M235.15668,187.34197l12.8,-0.2" fill="none" stroke="#000000" stroke-width="2" stroke-linecap="round"/></g></g></svg>