<svg version="1.1" xmlns="http://www.w3.org/2000/svg" xmlns:xlink="http://www.w3.org/1999/xlink" width="170.31276" height="303.44585" viewBox="0,0,170.31276,303.44585"><defs><linearGradient x1="218.36654" y1="192.1607" x2="218.36654" y2="194.87269" gradientUnits="userSpaceOnUse" id="color-1"><stop offset="0" stop-color="#000000"/><stop offset="1" stop-color="#000000"/></linearGradient><linearGradient x1="220.93059" y1="191.72927" x2="220.93059" y2="194.50284" gradientUnits="userSpaceOnUse" id="color-2"><stop offset="0" stop-color="#000000"/><stop offset="1" stop-color="#000000"/></linearGradient><linearGradient x1="261.8667" y1="193.66058" x2="261.8667" y2="196.37254" gradientUnits="userSpaceOnUse" id="color-3"><stop offset="0" stop-color="#000000"/><stop offset="1" stop-color="#000000"/></linearGradient><linearGradient x1="259.30265" y1="193.22911" x2="259.30265" y2="196.00272" gradientUnits="userSpaceOnUse" id="color-4"><stop offset="0" stop-color="#000000"/><stop offset="1" stop-color="#000000"/></linearGradient><linearGradient x1="254.98094" y1="191.72927" x2="254.98094" y2="194.50284" gradientUnits="userSpaceOnUse" id="color-5"><stop offset="0" stop-color="#000000"/><stop offset="1" stop-color="#000000"/></linearGradient></defs><g transform="translate(-149.84362,-10.27708)"><g data-paper-data="{&quot;isPaintingLayer&quot;:true}" stroke-miterlimit="10" stroke-dasharray="" stroke-dashoffset="0" style="mix-blend-mode: normal"><path d="M179.62736,313.72293v-267.22501h123.18203v267.22501z" fill-opacity="0.01" fill="#000000" fill-rule="nonzero" stroke="none" stroke-width="0" stroke-linecap="butt" stroke-linejoin="miter"/><g fill-rule="nonzero" stroke-linecap="butt" stroke-linejoin="miter"><path d="M207.09368,307.61045l15.14285,-131.8421l37.78325,-0.15789l13.57389,132z" fill="#2bde61" stroke="#000000" stroke-width="2"/><path d="M216.84366,232.21048l0.2,-25.2h47.2l0.6,25.8c0,0 -2.25023,-4.38503 -7.66992,-3.5707c-2.59457,0.38985 -5.78877,4.91898 -8.4055,5.72627c-1.89299,0.584 -6.17749,0.84443 -7.63888,0.84443c-1.67037,0 -5.47933,-0.31839 -7.69651,-0.93987c-2.39945,-0.67257 -5.63177,-4.89444 -8.04018,-5.28208c-6.29201,-1.01271 -8.54903,2.62195 -8.54903,2.62195z" fill="#1fa447" stroke="none" stroke-width="0"/></g><g fill-rule="nonzero" stroke-linejoin="miter"><g><g><path d="M241.85207,195.17055c0,0.2092 -0.5473,7.80847 -9.1639,16.88587c-5.36913,5.65627 -11.08026,12.77334 -17.54483,17.14847c-5.8579,3.96454 -12.69218,5.49877 -13.83342,4.96339c-8.48422,-3.9802 -13.10397,-30.69941 -12.01732,-35.98408c3.40249,-16.54726 13.69508,-28.57187 22.59805,-28.57187c7.72132,0 14.56696,7.60208 20.52036,14.36318c4.69331,5.33005 9.44105,9.95081 9.44105,11.19504z" fill="#00be39" stroke="#000000" stroke-width="2" stroke-linecap="butt"/><path d="M220.25514,191.55941c0,0.22281 1.30169,2.4206 -0.13711,2.4206c-1.4388,0 -4.85388,-1.7047 -4.85388,-1.92751c0,-0.22281 1.16639,-0.40344 2.6052,-0.40344c1.4388,0 2.38579,-0.31246 2.38579,-0.08965z" data-paper-data="{&quot;index&quot;:null}" fill="#00ad34" stroke="none" stroke-width="0" stroke-linecap="butt"/><path d="M214.85981,192.16072l7.01345,2.71196" fill="url(#color-1)" stroke="#000000" stroke-width="2" stroke-linecap="round"/><path d="M220.21417,191.72927l1.43285,2.7736" fill="url(#color-2)" stroke="#000000" stroke-width="2" stroke-linecap="round"/><path d="M221.24786,208.01105c-1.43881,0 -2.60519,-0.18062 -2.60519,-0.40343c0,-0.22281 3.41507,-1.92751 4.85387,-1.92751c1.43881,0 0.13711,2.19779 0.13711,2.4206c0,0.22281 -0.94699,-0.08965 -2.38579,-0.08965z" data-paper-data="{&quot;index&quot;:null}" fill="#00ad34" stroke="none" stroke-width="0" stroke-linecap="butt"/><path d="M217.42388,208.43251l7.01344,-2.71196l-1.9563,4.01039" data-paper-data="{&quot;index&quot;:null}" fill="none" stroke="#000000" stroke-width="2" stroke-linecap="round"/></g><g data-paper-data="{&quot;index&quot;:null}"><path d="M238.38116,196.67042c0,-1.24423 4.74774,-5.86499 9.44105,-11.19504c5.9534,-6.7611 12.79904,-14.36318 20.52036,-14.36318c8.90297,0 19.19557,12.02462 22.59805,28.57187c1.08665,5.28468 -3.5331,32.00388 -12.01732,35.98408c-1.14122,0.53538 -7.97552,-0.99884 -13.83341,-4.96339c-6.46456,-4.37513 -12.1757,-11.49219 -17.54483,-17.14846c-8.6166,-9.07741 -9.1639,-16.67669 -9.1639,-16.88589z" fill="#00be39" stroke="#000000" stroke-width="2" stroke-linecap="butt"/><path d="M262.3639,193.14893c1.43881,0 2.60519,0.18062 2.60519,0.40343c0,0.22281 -3.41507,1.92751 -4.85387,1.92751c-1.43881,0 -0.13712,-2.19779 -0.13712,-2.4206c0,-0.22281 0.947,0.08965 2.3858,0.08965z" data-paper-data="{&quot;index&quot;:null}" fill="#00ad34" stroke="none" stroke-width="0" stroke-linecap="butt"/><path d="M265.37342,193.66058l-7.01345,2.71196" fill="url(#color-3)" stroke="#000000" stroke-width="2" stroke-linecap="round"/><path d="M260.01907,193.22912l-1.43285,2.7736" fill="url(#color-4)" stroke="#000000" stroke-width="2" stroke-linecap="round"/><path d="M256.59959,209.60056c0,-0.22281 -1.30169,-2.4206 0.13711,-2.4206c1.43881,0 4.85388,1.7047 4.85388,1.92751c0,0.22281 -1.16639,0.40344 -2.60519,0.40344c-1.4388,0 -2.3858,0.31246 -2.3858,0.08965z" data-paper-data="{&quot;index&quot;:null}" fill="#00ad34" stroke="none" stroke-width="0" stroke-linecap="butt"/><path d="M257.75221,211.23079l-1.95629,-4.01039l7.01344,2.71196" data-paper-data="{&quot;index&quot;:null}" fill="none" stroke="#000000" stroke-width="2" stroke-linecap="round"/></g></g><path d="M255.69736,191.72927l-1.43286,2.7736" fill="url(#color-5)" stroke="none" stroke-width="2" stroke-linecap="round"/><path d="M255.97116,198.55673c0,8.0693 -5.85991,10.95172 -15.38958,10.95172c-9.52966,0 -15.57612,-2.80619 -15.57612,-10.87549c0,-8.0693 5.95319,-10.95172 15.48286,-10.95172c9.52966,0 15.48285,2.80619 15.48285,10.87549z" fill="#00be39" stroke="#000000" stroke-width="2" stroke-linecap="butt"/></g><g data-paper-data="{&quot;index&quot;:null}" fill-rule="nonzero" stroke="#000000" stroke-width="4" stroke-linejoin="miter"><path d="M263.34362,104.00342l29.96636,-81.49388" fill="none" stroke-linecap="round"/><path d="M303.17695,21.41317c0,5.04572 -4.41759,9.13609 -9.86697,9.13609c-5.44938,0 -9.86697,-4.09036 -9.86697,-9.13609c0,-5.04572 4.41759,-9.13609 9.86697,-9.13609c5.44938,0 9.86697,4.09036 9.86697,9.13609z" fill="#000000" stroke-linecap="butt"/></g><g fill-rule="nonzero" stroke="#000000" stroke-linejoin="miter"><path d="M158.44885,35.71873l7.89554,34.17309l38.64657,-32.87538l19.11551,64.88562" fill="none" stroke-width="4" stroke-linecap="round"/><path d="M168.18358,34.61043c0,4.80948 -3.88168,8.70833 -8.66998,8.70833c-4.7883,0 -8.66998,-3.89885 -8.66998,-8.70833c0,-4.80948 3.88168,-8.70833 8.66998,-8.70833c4.7883,0 8.66998,3.89885 8.66998,8.70833z" fill="#000000" stroke-width="2" stroke-linecap="butt"/></g><g fill-rule="evenodd" stroke="#000000" stroke-width="2" stroke-linecap="round" stroke-linejoin="round"><path d="M191.18871,76.67279h98.30993c16.43041,0 29.65774,11.15289 29.65774,25.00645v70.8625c0,13.85356 -13.22731,25.00645 -29.65774,25.00645h-98.30993c-16.43037,0 -29.65774,-11.15289 -29.65774,-25.00645v-70.8625c0,-13.85356 13.22736,-25.00645 29.65774,-25.00645z" fill="#00de43"/><path d="M200.37392,87.9663h79.93968c13.36022,0 24.11588,9.06885 24.11588,20.33374v57.6211c0,11.26487 -10.75566,20.33374 -24.11588,20.33374h-79.93968c-13.36018,0 -24.11588,-9.06885 -24.11588,-20.33374v-57.6211c0,-11.26488 10.75568,-20.33374 24.11588,-20.33374z" fill="#000000"/></g><path d="M316.17699,181.05491c0,0.1853 -3.49809,5.51189 -6.65034,8.47475c-3.08645,2.901 -11.14713,6.10619 -12.49212,6.2846c-15.70596,2.08339 -39.72548,1.40731 -56.69087,1.40731c-12.65271,0 -41.57654,1.22089 -54.05669,-0.96204c-2.4901,-0.43555 -4.31687,-1.28842 -6.19067,-1.86252c-11.89568,-3.64464 -12.58596,-9.15539 -12.58596,-9.67544c0,-0.60337 20.83033,7.05085 56.56893,9.15763c24.23407,1.42859 65.76679,-2.03441 72.02903,-3.32446c14.3018,-2.94622 20.0687,-9.98578 20.0687,-9.49983z" fill="#009e2f" fill-rule="nonzero" stroke="none" stroke-width="0" stroke-linecap="butt" stroke-linejoin="miter"/><text transform="translate(195.16667,117.01354) scale(0.79898,0.79253)" font-size="40" xml:space="preserve" fill="#2fff00" fill-rule="nonzero" stroke="none" stroke-width="1" stroke-linecap="butt" stroke-linejoin="miter" stroke-miterlimit="10" stroke-dasharray="" stroke-dashoffset="0" font-family="Pixel" font-weight="normal" text-anchor="start" style="mix-blend-mode: normal"><tspan x="0" dy="0">Would</tspan></text><text transform="translate(195.5,147.34687) scale(0.79898,0.79253)" font-size="40" xml:space="preserve" fill="#2fff00" fill-rule="nonzero" stroke="none" stroke-width="1" stroke-linecap="butt" stroke-linejoin="miter" stroke-miterlimit="10" stroke-dasharray="" stroke-dashoffset="0" font-family="Pixel" font-weight="normal" text-anchor="start" style="mix-blend-mode: normal"><tspan x="0" dy="0">You</tspan></text></g></g></svg>