<svg version="1.1" xmlns="http://www.w3.org/2000/svg" xmlns:xlink="http://www.w3.org/1999/xlink" width="151.9813" height="319.06619" viewBox="0,0,151.9813,319.06619"><defs><linearGradient x1="239.12765" y1="76.44562" x2="239.12765" y2="286.00011" gradientUnits="userSpaceOnUse" id="color-1"><stop offset="0" stop-color="#2a241d"/><stop offset="1" stop-color="#efdbc0"/></linearGradient><linearGradient x1="239.12765" y1="76.29936" x2="239.12765" y2="285.60321" gradientUnits="userSpaceOnUse" id="color-2"><stop offset="0" stop-color="#000000"/><stop offset="1" stop-color="#846f51"/></linearGradient><linearGradient x1="297.96565" y1="2.01279" x2="302.56057" y2="79.78863" gradientUnits="userSpaceOnUse" id="color-3"><stop offset="0" stop-color="#000000"/><stop offset="1" stop-color="#ffd498"/></linearGradient><linearGradient x1="237.72698" y1="-12.15615" x2="243.83672" y2="91.26021" gradientUnits="userSpaceOnUse" id="color-4"><stop offset="0" stop-color="#000000"/><stop offset="1" stop-color="#efd0a4"/></linearGradient><linearGradient x1="241.16178" y1="47.31049" x2="241.89582" y2="59.73524" gradientUnits="userSpaceOnUse" id="color-5"><stop offset="0" stop-color="#6a5d49" stop-opacity="0"/><stop offset="1" stop-color="#6a5d49"/></linearGradient><linearGradient x1="241.43383" y1="64.43565" x2="242.10643" y2="76.17539" gradientUnits="userSpaceOnUse" id="color-6"><stop offset="0" stop-color="#000000"/><stop offset="1" stop-color="#ffffff"/></linearGradient></defs><g transform="translate(-170.55594,12.46295)"><g data-paper-data="{&quot;isPaintingLayer&quot;:true}" fill-rule="nonzero" stroke-linejoin="miter" stroke-miterlimit="10" stroke-dasharray="" stroke-dashoffset="0" style="mix-blend-mode: normal"><g data-paper-data="{&quot;index&quot;:null}" fill="#000000" stroke-linecap="butt"><path d="M236.18297,259.1667v-92.62046h6.67534v92.62046z" stroke="none" stroke-width="0"/><g data-paper-data="{&quot;index&quot;:null}" stroke="#000000" stroke-width="0.5"><path d="M237.94994,187.58738l17.76273,-14.86198l3.50394,3.81471z"/><path d="M254.79946,177.8876l0.85499,-5.10868l22.99477,2.76293z" data-paper-data="{&quot;index&quot;:null}"/></g><g data-paper-data="{&quot;index&quot;:null}" stroke="#000000" stroke-width="0.5"><path d="M239.34064,203.7195l17.76273,-14.86199l3.50394,3.81471z"/><path d="M256.19015,194.01968l0.85499,-5.10868l22.99477,2.76293z" data-paper-data="{&quot;index&quot;:null}"/></g><g stroke="#000000" stroke-width="0.5"><g data-paper-data="{&quot;index&quot;:null}"><path d="M217.78939,176.03947l3.50394,-3.81472l17.76273,14.86199z"/><path d="M198.35678,175.04117l22.99477,-2.76293l0.85499,5.10868z" data-paper-data="{&quot;index&quot;:null}"/></g><g data-paper-data="{&quot;index&quot;:null}"><path d="M219.18008,192.17155l3.50394,-3.81471l17.76273,14.86199z"/><path d="M199.74748,191.1733l22.99477,-2.76293l0.85499,5.10868z" data-paper-data="{&quot;index&quot;:null}"/></g></g><g data-paper-data="{&quot;index&quot;:null}" stroke="#000000" stroke-width="0.5"><path d="M238.57576,219.08671l17.76273,-14.86198l3.50394,3.81471z"/><path d="M255.42527,209.38689l0.85499,-5.10868l22.99477,2.76293z" data-paper-data="{&quot;index&quot;:null}"/></g><g data-paper-data="{&quot;index&quot;:null}" stroke="#000000" stroke-width="0.5"><path d="M239.96645,235.2188l17.76273,-14.86199l3.50394,3.81471z"/><path d="M256.81597,225.51897l0.85499,-5.10868l22.99477,2.76293z" data-paper-data="{&quot;index&quot;:null}"/></g><g stroke="#000000" stroke-width="0.5"><g data-paper-data="{&quot;index&quot;:null}"><path d="M218.4152,208.09506l3.50394,-3.81471l17.76273,14.86198z"/><path d="M198.9826,207.09677l22.99477,-2.76293l0.85499,5.10868z" data-paper-data="{&quot;index&quot;:null}"/></g><g data-paper-data="{&quot;index&quot;:null}"><path d="M219.8059,224.22715l3.50394,-3.81471l17.76273,14.86198z"/><path d="M200.37329,223.22885l22.99477,-2.76293l0.85499,5.10868z" data-paper-data="{&quot;index&quot;:null}"/></g></g><g stroke="#000000" stroke-width="0.5"><path d="M219.52776,241.41617l3.50394,-3.81471l17.76273,14.86199z" data-paper-data="{&quot;index&quot;:null}"/><path d="M200.09515,240.41787l22.99477,-2.76293l0.85499,5.10868z" data-paper-data="{&quot;index&quot;:null}"/><g data-paper-data="{&quot;index&quot;:null}"><path d="M239.68831,252.51905l17.76273,-14.86199l3.50394,3.81471z"/><path d="M256.53783,242.81926l0.85499,-5.10868l22.99477,2.76293z" data-paper-data="{&quot;index&quot;:null}"/></g></g></g><g stroke="none" stroke-linecap="butt"><path d="M217.26495,76.69625l45.61978,-0.25065l7.16304,91.58746c-1.88894,-0.84003 -5.29413,2.3217 -7.06429,2.26905c-0.72163,-0.02146 -1.1511,-0.88931 -1.80211,-1.2014c-0.17131,-0.08212 -0.56286,0.12268 -0.73633,0.16363c-4.06877,0.96051 -4.42571,0.87938 -7.82269,0.87938c-1.18417,0 -3.03621,-1.09807 -3.94099,-1.04301c-1.89487,0.11532 -3.80325,2.15845 -5.52868,1.3668c-1.16858,-0.53616 -3.93407,-2.48773 -5.47132,-2.3668c-1.71267,0.13473 -3.37821,0.64985 -5.03115,1.11803c-0.54487,0.15434 -1.14158,1.10574 -1.54448,0.70777c-4.10153,-4.05132 -7.51194,-4.34409 -13.48338,-2.5135c-1.10621,0.33911 -1.44858,1.8569 -2.41477,2.49344c-1.68666,1.1112 -3.85652,1.11572 -6.16475,0.91356z" fill="url(#color-1)" stroke-width="0"/><path d="M216.93618,76.29936c0,0 7.9212,0.31065 8.04648,0.67867c0.41816,1.2284 -4.5507,46.42081 -2.80232,57.66298c0.66646,4.2854 31.92999,5.41824 32.94162,-0.04545c1.69148,-9.13544 -0.42984,-53.10035 0.66743,-56.42444c0.94563,-2.86473 7.22702,-1.51931 7.22702,-1.51931c0,0 4.88277,58.59783 9.0272,76.98666c2.18147,9.67921 13.99459,25.16099 13.99459,25.16099c-2.69441,1.28011 -20.23812,-6.07022 -22.2088,-4.96562c-2.38252,1.33544 -6.08759,-1.66731 -8.63821,-1.06069c-0.39361,0.09361 0.2006,3.47156 -0.22055,3.45475c-2.43318,-0.09715 -3.09764,17.63219 -5.49816,18.23232c-1.50835,0.37709 -1.53578,-8.24603 -2.89389,-7.99699c-0.55815,0.10235 -5.62516,-11.68119 -5.75206,-11.70589c-1.91216,-0.37221 -5.42352,0.27635 -7.71741,-0.29712c-0.7253,-0.18132 -2.94815,-0.70536 -4.69525,0.25996c-0.24899,0.13757 -0.84196,3.21739 -1.11233,3.21965c-2.0053,0.01678 -3.36332,-3.66728 -4.38298,-2.67703c-2.20963,2.14589 -0.06605,7.23288 -1.59994,7.72143c-0.09377,0.02987 -5.84866,-6.17765 -5.87617,-6.19067c-2.10082,-0.99513 -23.16539,5.06757 -24.76362,5.05605c-0.04656,-0.00034 13.27551,-8.21025 13.14582,-8.30852c0,0 5.58307,-15.52733 6.31975,-21.96266c1.75167,-15.30178 6.79179,-75.27906 6.79179,-75.27906z" fill="url(#color-2)" stroke-width="0"/><path d="M206.625,172.75006c0,0.29424 -0.17315,0.41533 -0.31566,0.46516c2.0659,0.81874 4.91119,2.21513 6.58661,1.56483c2.21013,-0.85783 3.08491,-5.62038 3.71965,-7.56041c0.23892,-0.34448 0.36145,-0.77467 0.65584,-1.07314c2.50144,-2.53606 3.35978,0.70512 3.84018,2.73868c0.09118,0.38599 -0.3373,1.03099 0.02624,1.18955c1.51323,0.66002 2.43784,-1.53899 2.71235,-2.55047c1.21982,-5.88619 -0.74535,-11.61807 -1.4723,-17.47737c-0.00387,-1.76546 -0.60676,-5.02172 0.32176,-6.5597c0.91821,-1.5209 3.22526,-1.72002 3.90387,0.11798c0.6917,1.87344 0.52146,4.149 0.52146,6.14489c0,3.9052 -0.56234,8.3051 -0.00645,12.16991c0.22927,1.59399 1.06089,3.30163 0.96839,4.88875c2.29058,1.98074 3.21221,-1.32043 4.11274,-2.82153c1.4524,-2.42103 3.80751,-2.43148 5.56199,-0.80413c1.34398,2.00945 -0.03291,3.92054 0.78865,5.80413c0.20986,0.48113 1.04977,0.01287 1.57468,0.01287c1.87835,0 3.65012,-0.25 5.5,-0.25c3.08844,0.10727 -0.05043,-6.40668 1.64645,-8.10355c0.83737,-0.83737 3.01222,-0.58803 3.56549,0.41222c0.34074,0.61601 0.03806,2.23955 0.03806,2.94134c-0.28463,0.28463 0.64475,0.13605 0.73713,0.07468c0.7038,-0.46749 0.51156,-2.86202 0.51287,-3.57573c0.00646,-3.51778 -0.01595,-7.03578 0.00298,-10.55351c0.58264,-2.65735 0.91648,-6.16909 2.71329,-8.31599c0.57069,-0.68187 2.25266,-2.05196 3.29659,-1.30477c0.94088,0.67344 1.31232,4.41532 1.72212,5.55369c0.85633,5.88663 -0.07814,12.85626 2.3306,18.34695c0.28627,0.96482 0.72498,1.81431 1.11115,2.74319c0.03449,0.08297 0.31841,0.51166 0.5314,0.87842c0.08434,-0.28579 0.274,-0.59495 0.30524,-0.7118c0.26944,-1.00787 1.00811,-6.07299 2.94857,-2.82646c0.24654,0.41248 0.47451,1.19832 0.73528,1.71774c0.69259,1.38519 1.22548,2.67871 2.18945,3.90661c0.09663,0.12309 1.1215,0.95669 1.32098,0.66137c1.35048,-1.99939 0.64601,-4.34438 4.04235,-4.34438c3.36953,0.05211 5.88457,3.87844 7.19916,6.53033c0.81261,1.63924 1.18445,4.21013 -0.86907,4.96322c-4.4117,0 -8.91326,0.9616 -13.18474,-0.647c-0.99644,-0.37525 -3.00237,-0.58033 -3.40821,-1.67122c-0.73623,0.06292 -0.82891,-0.57714 -1.56723,-0.68178c-2.03348,-0.28818 -4.36672,0.67135 -6.28478,0.24308c-0.20369,-0.04548 -1.91484,-1.30649 -2.12226,-1.0613c-0.29176,0.34489 -0.26687,1.15928 -0.26286,1.57468c0,5.89791 -2.75,11.6756 -2.75,17.75c0,1.34804 -0.03675,5.2851 -2.54235,3.40562c-0.60671,-0.45509 -0.72865,-2.275 -0.92316,-2.95744c-0.70044,-2.4575 -1.63307,-3.83171 -2.7317,-5.97458c-0.56067,-1.3271 -1.72033,-0.70091 -2.53871,-1.28277c-0.86479,-0.61485 -1.25591,-2.3416 -1.49732,-3.3125c-0.34276,-1.37849 -0.06993,-6.55479 -1.38163,-7.14171c-3.91613,0.05918 -7.84347,0.06287 -11.76046,0.00726c0.32015,0.70624 0.32379,2.13737 0.05066,2.51898c-0.74084,1.03504 -2.61557,0.47958 -3.27888,-0.15931c-0.15691,-0.15114 -0.40588,-0.43449 -0.60707,-0.70505c0.05822,0.8838 -0.03938,2.36378 -0.03938,2.6015c-0.01361,1.74928 -1.94344,7.95939 -4.64736,4.80349c-2.13145,-2.48775 -1.47164,-5.31987 -4.71752,-7.06687c-0.1813,0.00629 -1.03157,-0.13307 -1.03157,-0.13307c0,0 0.14644,1.65773 0.14644,1.89645v0.75c0,0.27614 -0.22386,0.5 -0.5,0.5c-0.1996,0 -0.37189,-0.11695 -0.45206,-0.28608l-0.24516,-0.49032l0.18946,-0.09472c-0.0841,-0.15703 -0.15788,-0.31922 -0.22079,-0.48399c-0.14635,-0.38336 -0.58373,-1.3408 -0.75859,-0.96957c-0.8392,1.78174 0.27536,5.21752 -0.01661,7.13577c-0.40027,2.6298 -2.13265,1.69262 -2.82575,-0.03923c-0.79658,-1.68222 -1.43331,-3.6874 -1.84714,-5.47924c-0.10607,-0.45927 -0.10702,-1.3612 -0.57336,-1.29262c-0.71419,0.10502 -1.97467,1.1279 -2.80866,1.46194c-1.97494,0.79101 -4.06016,1.23092 -6.04919,2.01743c-1.97556,0.39346 -4.94841,1.7108 -7.00702,1.00726c-0.71406,-0.24403 -1.432,-1.34135 -0.73868,-2.09018c0.38503,-0.41584 2.61847,-0.86522 3.21551,-1.15264c1.781,-0.85738 3.21434,-2.20163 4.72066,-3.46072c2.65054,-2.19547 3.47074,-4.53308 7.16739,-4.53308h0.25c0,0 0.5,0 0.5,0.5z" fill="#000000" stroke-width="0.5"/><path d="M225.875,138.625c0,1.03554 -1.11929,1.875 -2.5,1.875c-1.38071,0 -2.5,-0.83946 -2.5,-1.875c0,-1.03554 1.11929,-1.875 2.5,-1.875c1.38071,0 2.5,0.83946 2.5,1.875z" fill="#000000" stroke-width="0"/></g><path d="M199.37765,306.60321l7.09432,-61.01433c0.91843,0.08647 4.62757,6.50971 4.95788,6.81313c1.11192,1.0214 4.78332,0.96323 6.96785,1.19027c5.68485,0.59081 8.27417,3.29001 11.87187,3.56484c3.15789,0.24124 4.59942,-4.56263 7.71146,-4.01492c1.52246,0.26794 4.42635,0.84755 5.7643,1.19662c2.26136,0.58997 3.56502,3.4071 6.08793,2.45984c0.72949,-0.2739 2.41367,0.14258 3.07883,-0.34136c1.01919,-0.74151 3.99375,-3.87533 5.01828,-4.19001c1.72242,-0.52905 4.70025,-0.45416 6.61042,-0.87999c2.68579,-0.59875 4.11453,3.49315 5.92962,-0.0564c0.77024,-1.50626 1.86004,-5.91229 2.89499,-6.33734l7.51225,61.60968z" fill="#000000" stroke="none" stroke-width="0" stroke-linecap="butt"/><g stroke="none" stroke-width="0" stroke-linecap="butt"><g fill="url(#color-3)"><path d="M322.51325,16.78086c0.92225,15.61039 -24.98835,63.30525 -34.34499,63.85803c-9.35664,0.55278 -17.75329,-76.99841 -8.39664,-77.55119c9.35664,-0.55278 41.81939,-1.91724 42.74164,13.69316z"/></g><path d="M307.84055,49.36837c-7.4301,14.69 -16.57021,22.70368 -20.41499,17.89906c-3.84478,-4.80462 -0.93828,-20.60812 6.49182,-35.29811c1.46634,-2.89908 2.99926,-5.53811 4.54495,-7.86993c6.28652,-9.48382 12.78402,-13.88555 15.87003,-10.02912c3.84478,4.80461 0.93828,20.60812 -6.49182,35.29811z" fill="#000000"/></g><path d="M170.69279,45.25391c-2.44854,-41.44517 28.27432,-55.12016 67.03419,-57.41006c38.75988,-2.2899 70.87921,7.67245 73.32775,49.11761c2.44854,41.44517 -27.36561,51.94428 -66.12548,54.23418c-38.75988,2.2899 -71.78793,-4.49658 -74.23647,-45.94173z" fill="url(#color-4)" stroke="none" stroke-width="0" stroke-linecap="butt"/><path d="M218.81999,61.09854l-0.73404,-12.42477l46.15167,-2.7266l0.73404,12.42477c0,0 -16.38576,-2.25525 -24.0143,-1.80456c-7.75332,0.45806 -22.13737,4.53116 -22.13737,4.53116z" fill="url(#color-5)" stroke="none" stroke-width="0" stroke-linecap="butt"/><path d="M194.02178,11.63215c0,0 6.39241,-5.55589 11.40138,-7.04823c5.00898,-1.49234 12.35391,-0.02927 12.35391,-0.02927c0,0 -8.02768,0.41388 -11.89595,1.56637c-4.04249,1.2044 -11.85934,5.51112 -11.85934,5.51112z" fill="#000000" stroke="none" stroke-width="0" stroke-linecap="butt"/><path d="M268.79636,-0.35072c-3.97706,-0.689 -11.99763,-0.15476 -11.99763,-0.15476c0,0 7.12156,-2.31774 12.27141,-1.42557c5.14984,0.89216 12.15197,5.65672 12.15197,5.65672c0,0 -8.26958,-3.35635 -12.42576,-4.07638z" data-paper-data="{&quot;index&quot;:null}" fill="#000000" stroke="none" stroke-width="0" stroke-linecap="butt"/><path d="M204.94027,62.04514l-1.57458,4.43391" fill="none" stroke="#000000" stroke-width="2" stroke-linecap="round"/><path d="M219.05423,66.38697l-0.46125,-4.98147" fill="none" stroke="#000000" stroke-width="2" stroke-linecap="round"/><g fill="none" stroke="#000000" stroke-width="2" stroke-linecap="round"><path d="M280.98491,60.55775l-2.0857,-4.21766" data-paper-data="{&quot;index&quot;:null}"/><path d="M265.63968,63.63474l-0.1285,-5.00113" data-paper-data="{&quot;index&quot;:null}"/></g><path d="M243.77412,-1.85753c0,0 -25.85161,0.34374 -27.50893,-1.40423c-0.97742,-1.03088 12.99026,-4.23646 26.18531,-4.81725c2.03679,-0.08965 8.72836,-0.06826 14.52208,0.66762c1.60698,0.20411 6.00876,2.7343 4.03051,4.82985c-1.30629,1.38376 -8.68965,2.58436 -9.74146,2.77791c-16.8348,3.09779 -47.27231,2.59399 -47.27231,2.59399" fill="none" stroke="#000000" stroke-width="1" stroke-linecap="round"/><path d="M187.63623,40.11677c-0.7648,-12.94543 9.10955,-24.05978 22.05498,-24.82458c12.94543,-0.7648 24.05978,9.10955 24.82458,22.05498c0.7648,12.94543 -9.10955,24.05978 -22.05498,24.82458c-12.94543,0.7648 -24.05978,-9.10955 -24.82458,-22.05498z" fill="#ff5b5b" stroke="none" stroke-width="0" stroke-linecap="butt"/><path d="M269.95232,58.77523c-12.94543,0.7648 -24.05978,-9.10955 -24.82458,-22.05498c-0.7648,-12.94543 9.10955,-24.05978 22.05498,-24.82458c12.94543,-0.7648 24.05978,9.10955 24.82458,22.05498c0.7648,12.94543 -9.10955,24.05978 -22.05498,24.82458z" data-paper-data="{&quot;index&quot;:null}" fill="#ff5b5b" stroke="none" stroke-width="0" stroke-linecap="butt"/><path d="M187.44037,39.62749c-0.7648,-12.94543 9.10955,-24.05978 22.05498,-24.82458c12.94543,-0.7648 24.05978,9.10955 24.82458,22.05498c0.02114,0.35776 -46.85135,3.24708 -46.87956,2.7696z" fill="#ff0000" stroke="none" stroke-width="0" stroke-linecap="butt"/><path d="M245.13114,36.92039c-0.7648,-12.94543 9.10955,-24.05978 22.05498,-24.82458c12.94543,-0.7648 24.05978,9.10955 24.82458,22.05498c0.02821,0.47748 -46.85842,3.12736 -46.87956,2.7696z" data-paper-data="{&quot;index&quot;:null}" fill="#ff0000" stroke="none" stroke-width="0" stroke-linecap="butt"/><g stroke="none" stroke-width="0" stroke-linecap="butt"><path d="M206.44936,39.52322c-0.28296,-4.78948 3.07558,-8.88408 7.50152,-9.14556c4.42593,-0.26148 8.24325,3.40919 8.52621,8.19866c0.28296,4.78948 -3.07559,8.88407 -7.50153,9.14555c-4.42593,0.26148 -8.24324,-3.40918 -8.5262,-8.19865z" fill="#000000"/><path d="M216.15476,38.95302c0.05089,0.86144 -0.66205,1.60434 -1.59241,1.6593c-0.93036,0.05496 -1.72582,-0.59882 -1.77671,-1.46026c-0.05089,-0.86144 0.66205,-1.60434 1.59241,-1.6593c0.93036,-0.05496 1.72582,0.59882 1.77671,1.46026z" fill="#ff5b5b"/></g><g stroke="none" stroke-width="0" stroke-linecap="butt"><path d="M256.67148,36.15548c-0.28296,-4.78948 3.07559,-8.88407 7.50153,-9.14555c4.42593,-0.26148 8.24324,3.40918 8.5262,8.19865c0.28296,4.78948 -3.07558,8.88407 -7.50152,9.14555c-4.42593,0.26148 -8.24325,-3.40918 -8.52621,-8.19865z" fill="#000000"/><path d="M266.37689,35.58525c0.05089,0.86144 -0.66205,1.60434 -1.59241,1.6593c-0.93036,0.05496 -1.72582,-0.59882 -1.77671,-1.46026c-0.05089,-0.86144 0.66205,-1.60434 1.59241,-1.6593c0.93036,-0.05496 1.72582,0.59882 1.77671,1.46026z" fill="#ff5b5b"/></g><path d="M212.15264,73.73737c0.06933,1.08861 0.50358,3.34598 -0.95833,3.81067c-1.6522,0.52517 -1.51703,-4.5714 -3.17159,-2.71096c-2.14892,2.41629 -0.5591,6.57375 -1.3334,9.36447c-3.29218,3.54981 -2.12379,-3.08194 -3.73203,-4.02444c-2.37443,-1.39152 -5.09788,-0.17675 -7.43556,-2.23714c-1.18672,-1.06917 -3.56475,-4.5686 -1.69557,-6.07283c0.80258,-0.64588 2.10969,-0.30008 3.03403,-0.47235c1.82791,-0.34065 4.46462,-1.26422 4.78769,-0.8826c0.12228,0.14444 9.38324,-0.30443 10.50477,3.22519z" fill="#000000" stroke="none" stroke-width="0.5" stroke-linecap="butt"/><path d="M211.81502,79.82877c0.01303,0.22054 -0.42334,0.42571 -0.97467,0.45828c-0.55133,0.03257 -1.00882,-0.1198 -1.02185,-0.34033c-0.01303,-0.22054 0.42334,-0.42571 0.97467,-0.45828c0.55133,-0.03257 1.00882,0.11979 1.02185,0.34033z" fill="#000000" stroke="none" stroke-width="0" stroke-linecap="butt"/><path d="M282.59217,66.9043c-0.00164,-0.2348 0.00297,-0.46519 0.01593,-0.69834l-0.08007,0.00473l-0.04718,-0.79861c-0.01629,-0.27566 0.19398,-0.51233 0.46964,-0.52862c0.13783,-0.00814 0.26592,0.04036 0.36158,0.12533l0.42289,0.37571c2.11967,1.98163 5.5844,-0.49636 7.59163,-1.15446c2.70037,-1.9855 6.03196,0.12609 4.65828,3.40917c-0.67916,1.62319 -2.70434,1.67029 -4.14739,2.29786c-1.23378,0.53657 -2.03648,1.77821 -2.6525,2.90956c-0.82235,1.5022 -1.6048,6.2577 -3.60754,6.30637c-2.52906,0.06145 -0.14923,-3.51444 -1.49359,-4.19351c-1.10991,-0.56066 -3.75806,0.49793 -5.12919,0.13935c-1.59785,-0.68374 -4.52525,-2.77968 -1.89154,-4.40722c1.22655,-0.75797 3.06513,-0.06489 4.11559,-0.82032c0.91857,-0.66057 0.79015,-1.64603 1.03709,-2.59848c0,0 0.08563,-0.3184 0.37638,-0.36855z" fill="#000000" stroke="none" stroke-width="0.5" stroke-linecap="butt"/><path d="M284.67069,63.4796c0.02606,0.44106 -0.35506,0.82237 -0.85125,0.85169c-0.49618,0.02931 -0.91956,-0.30447 -0.94561,-0.74553c-0.02606,-0.44106 0.35507,-0.82237 0.85125,-0.85169c0.49618,-0.02931 0.91956,0.30447 0.94561,0.74553z" fill="#000000" stroke="none" stroke-width="0" stroke-linecap="butt"/><g><path d="M243.89131,95.64819c-9.4092,0.69585 -19.12909,-11.62582 -24.50672,-20.66285c0.33859,-0.28432 0.87482,-0.59775 1.08815,-0.77373c0.15502,-0.12788 -0.46689,-1.39998 -0.31215,-1.52771c1.57933,-1.30366 3.92326,-1.45323 5.52812,-2.69135c0.13851,-0.11427 1.93907,-1.87955 2.01586,-1.83657c2.0874,1.16815 4.63134,3.55465 5.94851,5.59203c0.22841,0.23552 -0.08151,1.50993 1.68378,0.54946c1.54403,-0.84009 4.61624,-4.21718 5.03677,-4.75947c0.57781,-0.99071 1.0501,-1.81225 2.41367,-1.35126c2.19094,0.7407 5.55671,3.46525 6.90091,4.15192c0.57209,0.23504 1.3662,0.77925 1.98562,0.65525c0.37853,-0.07578 0.85408,-1.96681 1.33447,-2.17579c0.16923,-0.07362 3.54972,-2.99726 4.09728,-4.6073c0.00347,-0.01897 3.38325,1.92397 3.85742,2.20652c1.45245,0.86548 2.4448,1.12027 3.88527,2.01953c-4.29274,9.55472 -12.67894,24.59911 -20.95697,25.21132z" fill="#000000" stroke="none" stroke-width="0" stroke-linecap="butt"/><path d="M267.71144,62.83544c0.04991,0.87133 -0.72979,3.39932 -2.61214,7.66695c-1.77788,-1.0944 -3.4976,-1.79617 -5.29755,-2.84189c-0.87212,-0.50667 -2.08525,-1.93408 -2.83753,-0.99195c-0.14133,0.46609 -0.90779,0.8249 -1.35722,1.28532c-0.95554,0.97889 -1.91038,2.04781 -2.44441,2.98821c-0.07994,0.14078 -1.52018,2.05404 -1.5489,2.05489c-0.5511,0.01621 -1.11534,-0.4761 -1.67629,-0.70835c-1.42026,-0.72843 -4.24386,-2.87935 -6.33095,-3.80003c-1.62843,-0.71835 -2.50781,-0.24998 -3.32554,1.10745c-0.93362,1.20282 -4.20267,4.56671 -5.34924,5.0792c-0.10219,0.04568 -0.88136,-0.24811 -1.93275,-1.33409c-1.8237,-1.8837 -4.0596,-4.78268 -5.40914,-5.16586c-0.34844,-0.09893 -2.1625,1.74637 -4.26283,3.32334c-1.83477,1.37759 -3.88263,2.58078 -4.2046,2.97372c-2.37183,-4.06833 -3.91095,-7.473 -3.96608,-8.43517c-0.00255,-0.0445 13.12363,2.17894 26.3085,1.37391c13.09217,-0.79938 26.24367,-4.62762 26.24665,-4.57566z" fill="url(#color-6)" stroke="none" stroke-width="0" stroke-linecap="butt"/><path d="M219.6105,74.53029l8.2829,-6.56354l6.96364,7.09011l7.25521,-7.30292l9.5307,5.62688l5.30872,-7.18432l7.49306,4.40225" fill="none" stroke="#000000" stroke-width="0.5" stroke-linecap="round"/></g></g></g></svg>