<svg version="1.1" xmlns="http://www.w3.org/2000/svg" xmlns:xlink="http://www.w3.org/1999/xlink" width="227.47621" height="224.98193" viewBox="0,0,227.47621,224.98193"><defs><linearGradient x1="337.29225" y1="70.95376" x2="261.4917" y2="147.58449" gradientUnits="userSpaceOnUse" id="color-1"><stop offset="0" stop-color="#000000"/><stop offset="1" stop-color="#e90e4b"/></linearGradient><linearGradient x1="339.20496" y1="77.3106" x2="268.76833" y2="148.51864" gradientUnits="userSpaceOnUse" id="color-2"><stop offset="0" stop-color="#000000"/><stop offset="1" stop-color="#7d0829"/></linearGradient><linearGradient x1="350.02128" y1="86.32718" x2="339.00203" y2="97.46711" gradientUnits="userSpaceOnUse" id="color-3"><stop offset="0" stop-color="#000000"/><stop offset="1" stop-color="#770727"/></linearGradient><linearGradient x1="340.50887" y1="83.97802" x2="332.39571" y2="92.18003" gradientUnits="userSpaceOnUse" id="color-4"><stop offset="0" stop-color="#000000"/><stop offset="1" stop-color="#770727"/></linearGradient><linearGradient x1="331.02684" y1="93.98981" x2="315.90073" y2="109.28158" gradientUnits="userSpaceOnUse" id="color-5"><stop offset="0" stop-color="#000000"/><stop offset="1" stop-color="#620620"/></linearGradient><linearGradient x1="140.34883" y1="70.45376" x2="216.14938" y2="147.08449" gradientUnits="userSpaceOnUse" id="color-6"><stop offset="0" stop-color="#000000"/><stop offset="1" stop-color="#e90e4b"/></linearGradient><linearGradient x1="138.43612" y1="76.8106" x2="208.87275" y2="148.01864" gradientUnits="userSpaceOnUse" id="color-7"><stop offset="0" stop-color="#000000"/><stop offset="1" stop-color="#7d0829"/></linearGradient><linearGradient x1="127.6198" y1="85.82718" x2="138.63905" y2="96.96711" gradientUnits="userSpaceOnUse" id="color-8"><stop offset="0" stop-color="#000000"/><stop offset="1" stop-color="#770727"/></linearGradient><linearGradient x1="137.13221" y1="83.47802" x2="145.24537" y2="91.68003" gradientUnits="userSpaceOnUse" id="color-9"><stop offset="0" stop-color="#000000"/><stop offset="1" stop-color="#770727"/></linearGradient><linearGradient x1="146.61424" y1="93.48981" x2="161.74035" y2="108.78158" gradientUnits="userSpaceOnUse" id="color-10"><stop offset="0" stop-color="#000000"/><stop offset="1" stop-color="#620620"/></linearGradient><linearGradient x1="213.93054" y1="210.39935" x2="213.93054" y2="282.64432" gradientUnits="userSpaceOnUse" id="color-11"><stop offset="0" stop-color="#000000"/><stop offset="1" stop-color="#e8aa00"/></linearGradient><linearGradient x1="240.6503" y1="173.91904" x2="240.6503" y2="306.70921" gradientUnits="userSpaceOnUse" id="color-12"><stop offset="0" stop-color="#000000"/><stop offset="1" stop-color="#d7d8d8"/></linearGradient><linearGradient x1="239.78678" y1="83.57785" x2="239.78678" y2="194.01394" gradientUnits="userSpaceOnUse" id="color-13"><stop offset="0" stop-color="#000000"/><stop offset="1" stop-color="#e4c54f"/></linearGradient><linearGradient x1="244.35259" y1="170.04829" x2="245.82103" y2="184.53964" gradientUnits="userSpaceOnUse" id="color-14"><stop offset="0" stop-color="#000000"/><stop offset="1" stop-color="#ffffff"/></linearGradient><linearGradient x1="179.51727" y1="182.28746" x2="172.33325" y2="231.65095" gradientUnits="userSpaceOnUse" id="color-15"><stop offset="0" stop-color="#000000"/><stop offset="1" stop-color="#c50c40"/></linearGradient><linearGradient x1="165.50741" y1="180.2226" x2="163.75908" y2="192.23587" gradientUnits="userSpaceOnUse" id="color-16"><stop offset="0" stop-color="#000000"/><stop offset="1" stop-color="#8f092f"/></linearGradient><linearGradient x1="167.60628" y1="180.65667" x2="165.50877" y2="195.06928" gradientUnits="userSpaceOnUse" id="color-17"><stop offset="0" stop-color="#000000"/><stop offset="1" stop-color="#b64d6b"/></linearGradient><linearGradient x1="175.13931" y1="182.5585" x2="178.84619" y2="232.30408" gradientUnits="userSpaceOnUse" id="color-18"><stop offset="0" stop-color="#000000"/><stop offset="1" stop-color="#c50c40"/></linearGradient><linearGradient x1="153.5608" y1="201.57126" x2="154.85593" y2="218.95167" gradientUnits="userSpaceOnUse" id="color-19"><stop offset="0" stop-color="#000000"/><stop offset="1" stop-color="#8f092f"/></linearGradient><linearGradient x1="155.6894" y1="205.22046" x2="156.70225" y2="218.81268" gradientUnits="userSpaceOnUse" id="color-20"><stop offset="0" stop-color="#000000"/><stop offset="1" stop-color="#b64d6b"/></linearGradient><linearGradient x1="240.82232" y1="128.40134" x2="240.82232" y2="156.97277" gradientUnits="userSpaceOnUse" id="color-21"><stop offset="0" stop-color="#380056" stop-opacity="0"/><stop offset="1" stop-color="#380056"/></linearGradient></defs><g transform="translate(-125.08243,-81.69899)"><g data-paper-data="{&quot;isPaintingLayer&quot;:true}" fill-rule="nonzero" stroke-linejoin="miter" stroke-miterlimit="10" stroke-dasharray="" stroke-dashoffset="0" style="mix-blend-mode: normal"><g data-paper-data="{&quot;index&quot;:null}" stroke="none"><g stroke-width="0"><g><path d="M351.60982,85.11891c0.3465,1.13061 -55.0743,65.97776 -71.19901,74.39696c-17.9467,9.37052 -19.62464,-53.46467 -1.67794,-62.83519c5.86277,-3.06112 72.64845,-12.30733 72.87695,-11.56177z" fill="url(#color-1)" stroke-linecap="butt"/><path d="M266.91645,133.29151l80.83765,-47.52439l-80.7633,60.99324" fill="url(#color-2)" stroke-linecap="round"/></g><path d="M339.69092,98.14804c-0.14124,-0.01561 9.0828,-13.0549 9.77886,-12.36639c0.17779,0.17587 0.13583,0.79107 -0.66458,1.94995c-2.33314,3.37811 -8.97213,10.43216 -9.11426,10.41645z" fill="url(#color-3)" stroke-linecap="butt"/><path d="M343.43021,86.98364c0.04929,1.08429 -14.12024,2.36067 -14.04725,2.21396c0.07346,-0.14762 8.71304,-2.44327 12.35056,-2.71892c1.24789,-0.09456 1.68411,0.228 1.6967,0.50496z" data-paper-data="{&quot;index&quot;:null}" fill="url(#color-4)" stroke-linecap="butt"/><path d="M321.28326,102.42791c3.13397,-1.8752 11.47487,-6.87564 11.57623,-6.624c0.0086,0.02133 -0.27529,0.24223 -0.77686,0.60815c-3.36378,2.45404 -16.40643,13.21315 -16.79214,12.25555c-0.23904,-0.59346 -0.48795,-1.98767 0.49178,-2.93955c1.10832,-1.07681 3.42441,-2.05763 5.50102,-3.30016z" fill="url(#color-5)" stroke-linecap="butt"/></g><path d="M351.36232,85.10482c0.11834,-0.1213 0.23727,-0.24238 0.35681,-0.36323c0,0 0.35162,-0.35547 0.69147,-0.0193c0.33984,0.33616 -0.01178,0.69163 -0.01178,0.69163c-0.54598,0.55197 -1.07897,1.10863 -1.60141,1.66957c-0.06754,0.20586 -0.12681,0.38293 -0.17053,0.51971c-2.10881,4.15349 -5.68413,7.29873 -8.78597,10.74921c-1.56392,1.73971 -2.85369,3.7101 -4.47953,5.39528c-2.42015,2.50572 -4.02179,5.67472 -6.35949,8.28094c-2.22214,2.4774 -4.7126,4.76553 -7.05365,7.13221c-2.87801,2.90954 -5.75602,5.81907 -8.63404,8.72861c-0.20519,0.26013 -0.40915,0.52077 -0.61184,0.7819c-2.92379,3.75942 -5.9629,8.18935 -9.81079,11.10926c-1.72976,1.3126 -4.58333,1.20834 -3.30702,-1.51596c0.01003,-0.24241 0.86638,-2.94364 0.19567,-2.65278c-2.51201,1.08937 -3.84575,4.45934 -6.17618,5.84121c-2.66203,1.5785 -2.0398,-1.77601 -1.30885,-3.08437c0.487,-0.87174 0.9898,-1.73475 1.48933,-2.59971c3.52522,-6.10414 7.66743,-11.45293 12.1679,-16.86953c4.26553,-5.1338 9.27536,-9.63848 12.69914,-15.38475c0.23649,-0.91101 0.46297,-1.78815 0.61429,-2.71395c0.28088,-1.71846 -0.89083,-3.94164 -2.91314,-3.25302c-2.74794,0.93572 -5.89703,3.87305 -7.96353,5.86534c-1.56126,1.57847 -3.1226,3.15686 -4.68392,4.73527c-0.21056,0.21287 -1.48495,1.53423 -1.67623,1.56629c-0.58,0.09722 -1.86088,-0.85202 -2.07825,-1.34249c-0.37583,-0.84802 0.17077,-2.28303 0.31633,-3.16247c0.344,-2.07843 0.84653,-3.95549 0.93496,-6.06424c-0.24712,-0.35464 -0.72658,-1.54819 -1.39894,-1.15186c-2.06493,1.21719 -4.86398,4.29847 -7.317,4.6114c-2.83338,0.36146 -1.11019,-2.2406 -0.13872,-3.28347c0.00612,-0.00657 1.36742,-1.46397 1.37024,-1.46692c0.69427,-0.72247 1.40991,-1.42619 2.11438,-2.13876c3.78822,-3.82989 7.77283,-5.39101 12.79278,-6.95576c1.84828,-0.57612 3.56057,-1.63502 5.47156,-1.87088c3.5261,-0.4168 6.87041,-1.25938 10.31917,-1.96465c3.2286,-0.66026 6.39671,-0.71369 9.64379,-1.60301c3.62918,-0.99306 6.90438,-1.09507 10.60341,-1.12238c1.35062,-0.00997 2.48781,0.41577 3.65837,0.59933c0.28215,0.04424 0.6172,-0.37018 0.84682,-0.207c0.51358,0.36501 0.43445,1.43083 0.19436,2.51334z" fill="#000000" stroke-width="0.5" stroke-linecap="butt"/><path d="M303.69169,111.5485c0.97098,-0.98161 2.20375,-1.33657 2.75345,-0.79282c0.5497,0.54375 0.20819,1.7803 -0.76279,2.76191c-0.97098,0.98162 -2.20373,1.33658 -2.75343,0.79283c-0.54971,-0.54375 -0.2082,-1.78031 0.76278,-2.76192z" fill="#000000" stroke-width="0" stroke-linecap="butt"/></g><g stroke="none"><g stroke-width="0"><g><path d="M198.90821,96.18068c17.9467,9.37052 16.26876,72.20571 -1.67794,62.83519c-16.12471,-8.4192 -71.54551,-73.26635 -71.19901,-74.39696c0.2285,-0.74556 67.01418,8.50065 72.87695,11.56177z" fill="url(#color-6)" stroke-linecap="butt"/><path d="M210.65028,146.26036l-80.7633,-60.99324l80.83765,47.52439" fill="url(#color-7)" stroke-linecap="round"/></g><path d="M137.95014,97.64805c-0.14213,0.01571 -6.78112,-7.03834 -9.11426,-10.41645c-0.80041,-1.15888 -0.84237,-1.77408 -0.66458,-1.94995c0.69606,-0.68851 9.9201,12.35078 9.77886,12.36639z" fill="url(#color-8)" stroke-linecap="butt"/><path d="M134.21086,86.48364c0.01259,-0.27696 0.44881,-0.59952 1.6967,-0.50496c3.63752,0.27565 12.2771,2.5713 12.35056,2.71892c0.07299,0.14671 -14.09654,-1.12967 -14.04725,-2.21396z" data-paper-data="{&quot;index&quot;:null}" fill="url(#color-9)" stroke-linecap="butt"/><path d="M156.35779,101.9279c2.07661,1.24253 4.3927,2.22335 5.50102,3.30016c0.97973,0.95188 0.73082,2.34609 0.49178,2.93955c-0.38571,0.9576 -13.42836,-9.80151 -16.79214,-12.25555c-0.50157,-0.36592 -0.78546,-0.58682 -0.77686,-0.60815c0.10136,-0.25164 8.44226,4.7488 11.57623,6.624z" fill="url(#color-10)" stroke-linecap="butt"/></g><path d="M126.27879,84.60483c-0.24009,-1.08251 -0.31922,-2.14833 0.19436,-2.51334c0.22962,-0.16318 0.56467,0.25124 0.84682,0.207c1.17056,-0.18356 2.30775,-0.6093 3.65837,-0.59933c3.69903,0.02731 6.97423,0.12932 10.60341,1.12238c3.24708,0.88932 6.41519,0.94275 9.64379,1.60301c3.44876,0.70527 6.79307,1.54785 10.31917,1.96465c1.91099,0.23586 3.62328,1.29476 5.47156,1.87088c5.01995,1.56475 9.00456,3.12587 12.79278,6.95576c0.70447,0.71257 1.42011,1.41629 2.11438,2.13876c0.00282,0.00295 1.36412,1.46035 1.37024,1.46692c0.97147,1.04287 2.69466,3.64493 -0.13872,3.28347c-2.45302,-0.31293 -5.25207,-3.39421 -7.317,-4.6114c-0.67236,-0.39633 -1.15182,0.79722 -1.39894,1.15186c0.08843,2.10875 0.59096,3.98581 0.93496,6.06424c0.14556,0.87944 0.69216,2.31445 0.31633,3.16247c-0.21737,0.49047 -1.49825,1.43971 -2.07825,1.34249c-0.19128,-0.03206 -1.46567,-1.35342 -1.67623,-1.56629c-1.56132,-1.57841 -3.12266,-3.1568 -4.68392,-4.73527c-2.0665,-1.99229 -5.21559,-4.92962 -7.96353,-5.86534c-2.02231,-0.68862 -3.19402,1.53456 -2.91314,3.25302c0.15132,0.9258 0.3778,1.80294 0.61429,2.71395c3.42378,5.74627 8.43361,10.25095 12.69914,15.38475c4.50047,5.4166 8.64268,10.76539 12.1679,16.86953c0.49953,0.86496 1.00233,1.72797 1.48933,2.59971c0.73095,1.30836 1.35318,4.66287 -1.30885,3.08437c-2.33043,-1.38187 -3.66417,-4.75184 -6.17618,-5.84121c-0.67071,-0.29086 0.18564,2.41037 0.19567,2.65278c1.27631,2.7243 -1.57726,2.82856 -3.30702,1.51596c-3.84789,-2.91991 -6.887,-7.34984 -9.81079,-11.10926c-0.20269,-0.26113 -0.40665,-0.52177 -0.61184,-0.7819c-2.87802,-2.90954 -5.75603,-5.81907 -8.63404,-8.72861c-2.34105,-2.36668 -4.83151,-4.65481 -7.05365,-7.13221c-2.3377,-2.60622 -3.93934,-5.77522 -6.35949,-8.28094c-1.62584,-1.68518 -2.91561,-3.65557 -4.47953,-5.39528c-3.10184,-3.45048 -6.67716,-6.59572 -8.78597,-10.74921c-0.04372,-0.13678 -0.10299,-0.31385 -0.17053,-0.51971c-0.52244,-0.56094 -1.05543,-1.1176 -1.60141,-1.66957c0,0 -0.35162,-0.35547 -0.01178,-0.69163c0.33985,-0.33617 0.69147,0.0193 0.69147,0.0193c0.11954,0.12085 0.23847,0.24193 0.35681,0.36323z" fill="#000000" stroke-width="0.5" stroke-linecap="butt"/><path d="M173.94938,111.0485c0.97098,0.98161 1.31249,2.21817 0.76278,2.76192c-0.5497,0.54375 -1.78245,0.18879 -2.75343,-0.79283c-0.97098,-0.98161 -1.31249,-2.21816 -0.76279,-2.76191c0.5497,-0.54375 1.78247,-0.18879 2.75345,0.79282z" fill="#000000" stroke-width="0" stroke-linecap="butt"/></g><path d="M208.3409,240.58045c-5.10998,-9.17174 -19.98959,-26.99553 -19.98959,-26.99553l5.71768,-3.18557c0,0 15.08517,18.19276 20.22339,27.41518c1.55984,2.79973 1.00017,11.53208 4.64959,18.55151c3.16664,6.09087 15.05648,14.54414 18.70736,19.33547c4.20338,5.51644 -0.02998,6.94282 -0.02998,6.94282c0,0 -14.76591,-9.83548 -23.27272,-22.0087c-4.7324,-6.77205 -4.38989,-17.15497 -6.00572,-20.05518z" fill="url(#color-11)" stroke="none" stroke-width="0" stroke-linecap="butt"/><path d="M204.0253,306.41902l18.64285,-132.3421l37.78325,-0.15789l16.82389,131.25c0,0 -9.36709,-2.05253 -10.18011,-1.99017c-0.70898,0.05439 -11.65167,3.60778 -13.98201,3.47494c-2.40795,-0.13727 -13.54274,-3.68405 -13.66415,-3.68926c-1.08639,-0.04658 -8.93746,3.46643 -11.31307,3.68497c-4.62067,0.42507 -14.85218,-3.60483 -15.75761,-3.59837c-0.81038,0.00579 -8.35303,3.36788 -8.35303,3.36788z" fill="url(#color-12)" stroke="none" stroke-width="0" stroke-linecap="butt"/><path d="M173.64303,139.51612c0.92481,-0.98563 26.43521,-54.50329 26.86465,-54.72962c0.72159,-0.3803 72.28359,-2.2452 76.23108,-0.42149c0.21874,0.10106 28.56569,52.39963 29.1843,52.98632c0.57062,0.54119 -23.06407,56.31439 -23.08932,56.31684c-3.5528,0.34488 -83.32747,0.89041 -84.83858,-1.01716c-0.37687,-0.47574 -24.64877,-52.81875 -24.35213,-53.13489z" data-paper-data="{&quot;index&quot;:null}" fill="url(#color-13)" stroke="none" stroke-width="0" stroke-linecap="butt"/><path d="M189.16542,136.69465c0,-12.968 10.51265,-23.48065 23.48065,-23.48065c12.968,0 23.48065,10.51265 23.48065,23.48065c0,12.968 -10.51265,23.48065 -23.48065,23.48065c-12.968,0 -23.48065,-10.51265 -23.48065,-23.48065z" fill="#ff0000" stroke="none" stroke-width="2" stroke-linecap="butt"/><path d="M266.90448,160.1753c-12.968,0 -23.48065,-10.51265 -23.48065,-23.48065c0,-12.968 10.51265,-23.48065 23.48065,-23.48065c12.968,0 23.48065,10.51265 23.48065,23.48065c0,12.968 -10.51265,23.48065 -23.48065,23.48065z" data-paper-data="{&quot;index&quot;:null}" fill="#ff0000" stroke="none" stroke-width="2" stroke-linecap="butt"/><path d="M201.80313,104.88619c0,0 6.70895,-5.16922 11.79721,-6.36355c5.08827,-1.19433 12.33413,0.69937 12.33413,0.69937c0,0 -8.03812,-0.06028 -11.96762,0.86207c-4.10648,0.96389 -12.16372,4.80211 -12.16372,4.80211z" fill="#000000" stroke="none" stroke-width="0" stroke-linecap="butt"/><path d="M265.73756,100.08408c-3.9295,-0.92235 -11.96762,-0.86207 -11.96762,-0.86207c0,0 7.24586,-1.8937 12.33413,-0.69937c5.08826,1.19433 11.79721,6.36355 11.79721,6.36355c0,0 -8.05724,-3.83822 -12.16372,-4.80211z" data-paper-data="{&quot;index&quot;:null}" fill="#000000" stroke="none" stroke-width="0" stroke-linecap="butt"/><path d="M195.49529,119.88902l-3.33333,-5.66666" fill="none" stroke="#000000" stroke-width="2" stroke-linecap="round"/><path d="M184.60094,123.52417l6.12204,2.3964" fill="none" stroke="#000000" stroke-width="2" stroke-linecap="round"/><g data-paper-data="{&quot;index&quot;:null}" fill="none" stroke="#000000" stroke-width="2" stroke-linecap="round"><path d="M284.93426,120.88902l3.33333,-5.66666"/><path d="M289.70655,126.92057l6.12205,-2.3964"/></g><path d="M220.78474,114.51254c0.12538,-0.73865 5.43642,-8.99866 6.17634,-8.68974c0.70609,0.2948 -1.37604,10.1846 -1.8145,10.85429c-0.24491,0.37407 -0.98086,-0.62217 -1.97594,-1.1233c-1.09939,-0.55365 -2.45135,-0.65566 -2.3859,-1.04125z" fill="#c30c40" stroke="none" stroke-width="0" stroke-linecap="butt"/><path d="M205.60362,159.39438c-0.12538,0.73864 -5.43642,8.99866 -6.17634,8.68974c-0.70609,-0.2948 1.37603,-10.1846 1.8145,-10.85429c0.24491,-0.37407 0.98086,0.62217 1.97594,1.1233c1.09939,0.55365 2.45135,0.65565 2.3859,1.04125z" data-paper-data="{&quot;index&quot;:null}" fill="#c30c40" stroke="none" stroke-width="0" stroke-linecap="butt"/><g fill="#c30c40" stroke="none" stroke-width="0" stroke-linecap="butt"><path d="M259.50362,114.21254c0.06545,0.38559 -1.28652,0.48759 -2.3859,1.04125c-0.99509,0.50113 -1.73102,1.49737 -1.97594,1.1233c-0.43847,-0.66969 -2.52059,-10.55949 -1.8145,-10.85429c0.73992,-0.30892 6.05096,7.95109 6.17634,8.68974z" data-paper-data="{&quot;index&quot;:null}"/><path d="M274.68474,159.09437c-0.06545,-0.38559 1.28652,-0.48759 2.3859,-1.04125c0.99509,-0.50113 1.73102,-1.49737 1.97594,-1.1233c0.43847,0.66969 2.52059,10.55949 1.8145,10.85429c-0.73992,0.30892 -6.05096,-7.9511 -6.17634,-8.68974z" data-paper-data="{&quot;index&quot;:null}"/></g><path d="M189.44354,140.0727c1.25206,0.04455 45.95431,0.59617 46.2126,0.62024c-0.51423,3.48577 -1.14834,6.30024 -3.04203,9.21768c-4.24825,6.54493 -11.74714,10.2393 -19.77722,10.2393c-11.87745,0 -22.06545,-8.38944 -23.39336,-20.07721z" data-paper-data="{&quot;index&quot;:null}" fill="#ff5d5d" stroke="none" stroke-width="2" stroke-linecap="butt"/><path d="M196.48079,132.56902c0,-9.12808 7.39976,-16.52784 16.52783,-16.52784c9.12808,0 16.52784,7.39977 16.52784,16.52784c0,9.12808 -7.39977,16.52784 -16.52784,16.52784c-9.12808,0 -16.52783,-7.39977 -16.52783,-16.52784z" fill="#000000" stroke="none" stroke-width="0" stroke-linecap="butt"/><path d="M290.15614,140.07271c-1.32791,11.68777 -11.51591,20.07721 -23.39336,20.07721c-8.03008,0 -15.52897,-3.69437 -19.77722,-10.2393c-1.89369,-2.91744 -2.5278,-5.73191 -3.04203,-9.21768c0.25829,-0.02407 44.96054,-0.57569 46.2126,-0.62024z" data-paper-data="{&quot;index&quot;:null}" fill="#ff5d5d" stroke="none" stroke-width="2" stroke-linecap="butt"/><path d="M266.59193,147.99685c-9.12807,0 -16.52783,-7.39977 -16.52783,-16.52784c0,-9.12808 7.39977,-16.52784 16.52783,-16.52784c9.12807,0 16.52783,7.39977 16.52783,16.52784c0,9.12808 -7.39977,16.52784 -16.52783,16.52784z" data-paper-data="{&quot;index&quot;:null}" fill="#000000" stroke="none" stroke-width="0" stroke-linecap="butt"/><g><path d="M270.2538,167.61699c0.2813,2.77597 -17.93663,16.29668 -24.70897,16.94927c-6.19938,0.59738 -26.77778,-8.97159 -27.08048,-11.95881c-0.05091,-0.50243 12.89492,0.89984 25.83351,-0.34693c13.35287,-1.28669 25.92051,-4.9932 25.95594,-4.64352z" fill="url(#color-14)" stroke="none" stroke-width="0" stroke-linecap="butt"/><path d="M229.79158,179.60257l5.56755,-4.03661l5.18343,3.96875l4.89932,-4.73311l6.13383,3.51777l4.60338,-4.7046l5.36455,1.82404" fill="none" stroke="#000000" stroke-width="1" stroke-linecap="round"/></g><path d="M213.52617,133c0,6.94958 -0.32646,12.58333 -0.72916,12.58333c-0.40271,0 -0.72916,-5.63375 -0.72916,-12.58333c0,-6.94958 0.32646,-12.58333 0.72916,-12.58333c0.40271,0 0.72916,5.63375 0.72916,12.58333z" fill="#ff0000" stroke="#ff0000" stroke-width="2" stroke-linecap="butt"/><path d="M267.92618,132.15001c0,6.94958 -0.32646,12.58333 -0.72917,12.58333c-0.40272,0 -0.72916,-5.63375 -0.72916,-12.58333c0,-6.94958 0.32646,-12.58333 0.72916,-12.58333c0.40272,0 0.72917,5.63375 0.72917,12.58333z" fill="#ff0000" stroke="#ff0000" stroke-width="2" stroke-linecap="butt"/><g stroke="none" stroke-linecap="butt"><g stroke-width="0"><path d="M181.99285,209.70974c-0.43862,-0.69322 -1.06563,-2.2808 -1.934,-2.51736c-0.69457,-0.18921 -1.44721,0.50089 -1.92927,0.85574c-0.19555,0.11443 -2.55538,1.55253 -2.56502,1.5424c-1.65603,-1.74148 -2.81382,-5.3344 -3.48419,-7.60805c-0.184,-0.62407 -0.5566,-3.04851 -1.35738,-3.19878c-0.3186,-0.05979 -1.73531,1.7728 -2.1229,2.12828c-1.48939,-0.21676 -2.1991,-3.57942 -2.59538,-4.77406c-0.76211,-2.29747 -2.09565,-4.49497 -3.52635,-6.61616l5.86585,-8.86034l35.21957,28.16655l-11.10464,17.0706c-0.00612,-0.00858 -0.01224,-0.01717 -0.01836,-0.02576c-1.87978,-3.63174 -3.64821,-7.523 -6.62121,-10.29972c-1.21725,-1.98462 -2.58017,-3.89322 -3.82672,-5.86332z" fill="url(#color-15)"/><path d="M168.50245,180.70883c1.07341,0.71063 -0.75482,5.46812 -4.26859,11.59614c-0.98654,-1.71677 -2.15802,-3.38047 -3.28638,-5.00246c3.62872,-4.52512 6.60564,-7.22216 7.55497,-6.59368z" fill="url(#color-16)"/><path d="M168.45419,180.78492c0.8927,0.591 1.17889,4.80103 -0.93082,10.41252c-0.3865,1.02803 -1.12047,2.46575 -1.90926,3.88717c-0.46565,-1.13927 -1.05717,-2.25421 -1.71436,-3.34784c0.31841,-0.55682 0.55608,-1.00254 0.6868,-1.29758c2.37654,-5.36389 3.52583,-9.88059 3.86765,-9.65429z" fill="url(#color-17)"/></g><path d="M168.77203,181.65545c0.44991,0.10849 0.90396,0.24978 1.3687,0.41176c-0.44589,-0.30581 -0.78441,-0.45655 -1.33133,-0.48224zM167.74604,181.46969c0.02296,-0.05155 0.04485,-0.083 0.04485,-0.083l0.53227,-0.67557c1.14674,-0.10601 1.59589,-0.0047 2.52884,0.6484c1.10407,1.48016 1.03158,3.80303 2.30332,5.1108c2.4716,2.54163 6.74507,3.76915 7.19557,7.46715l0.20031,-0.01489l0.07329,0.9865c0.00372,0.03908 0.00286,0.07923 -0.00304,0.1198c-0.03977,0.27326 -0.29353,0.46255 -0.5668,0.42278c-0.11319,-0.01647 -0.21197,-0.06966 -0.28603,-0.14574l-0.41022,-0.41238c-1.80542,-0.14413 -0.76171,2.33291 0.21833,3.49634c2.43354,2.88895 6.1502,4.15942 8.48271,7.19836c0.58188,0.80267 1.48667,2.53983 -0.18731,2.94471c-3.02466,0.73157 -3.66377,-2.86538 -6.03195,-2.72961c-2.52111,0.14454 -3.36279,2.87542 -6.07253,2.43657c-1.19492,-0.89298 -0.43523,-1.42883 -1.03936,-2.45117c-0.33297,-0.56348 -2.02319,-0.00775 -2.62892,-0.99357c-0.68236,-1.11054 -0.17801,-3.05513 -1.25351,-3.93715c-0.36553,-0.29977 -1.23046,0.80241 -1.46812,0.97606c-1.0343,0.75577 -1.41662,0.66044 -2.68661,0.46969c-1.44126,-0.96955 -0.86788,-5.69426 -1.80244,-7.69463c-0.90353,-1.93395 -3.10844,-2.48481 -4.12495,-4.34384c-1.27453,-2.69257 1.05845,-7.09922 3.65351,-8.27c1.17439,-0.52982 2.2539,-0.64908 3.3288,-0.52564z" fill="#000000" stroke-width="0.5"/><path d="M193.29355,208.63861c-0.06249,0.42942 -0.5562,0.71305 -1.10273,0.63351c-0.54653,-0.07954 -0.93891,-0.49213 -0.87642,-0.92155c0.06249,-0.42942 0.5562,-0.71304 1.10273,-0.6335c0.54653,0.07954 0.93891,0.49212 0.87642,0.92154z" fill="#000000" stroke-width="0"/></g><g stroke="none" stroke-linecap="butt"><g stroke-width="0"><path d="M193.92897,231.18016l-43.75598,-12.00816l6.05627,-15.8068c1.99456,1.49857 3.98308,3.00682 5.88236,4.64988c1.40215,1.20025 2.2329,2.56756 3.2285,4.06273c0.11283,0.16946 0.62741,1.52988 0.99347,1.55889c1.17756,0.09334 2.52148,-1.97293 3.13561,-2.78061c0.33315,-0.43814 0.16228,-1.46689 0.71223,-1.48974c0.54467,-0.02265 0.53518,0.96317 0.91058,1.35847c0.91182,0.96017 1.87888,1.85199 2.71375,2.88061c0.96253,1.18414 3.36222,5.71402 4.9482,5.75075c0.66456,0.01539 0.99856,-1.30155 1.16074,-1.63286c0.67959,-1.38827 1.55787,-2.74355 2.45501,-3.99953c0.3223,-0.45123 0.56518,-1.69406 0.98959,-1.33718c0.56013,0.47102 1.03667,1.08419 1.66882,1.55425c1.16059,1.00026 2.3925,1.82467 3.67178,2.58816c0.78141,1.09079 1.69451,2.12503 2.42267,3.02561c1.65604,2.04819 3.16829,4.18014 4.83783,6.19299z" fill="url(#color-18)"/><path d="M150.31631,219.23999c-1.50851,-0.57798 0.05938,-8.36885 3.50638,-17.68824c1.67796,1.27674 3.37554,2.5244 5.04253,3.8185c-3.47589,8.39703 -7.13075,14.41309 -8.54891,13.86973z" fill="url(#color-19)"/><path d="M158.85744,211.86001c-3.04864,5.12718 -6.30095,7.65957 -7.29405,7.27907c-0.5773,-0.22118 1.67378,-2.93314 4.30471,-8.00437c0.46794,-0.90197 1.46486,-3.33209 2.54095,-6.11691c0.89907,0.6916 1.79063,1.39463 2.66685,2.12084c-0.72569,1.75094 -1.54372,3.58656 -2.21849,4.72137z" fill="url(#color-20)"/></g><path d="M153.32963,202.52043c0.18804,-0.17183 0.46219,-0.10259 0.46219,-0.10259l0.71973,0.19515c0.16651,0.13685 0.33301,0.27371 0.49951,0.41057c1.72625,0.93154 4.68575,2.34402 5.11549,4.53201c0.4082,2.07836 -1.13499,1.06231 -1.50576,2.03354c-0.92183,2.41471 1.95928,4.91437 4.01152,4.7926c1.21019,-0.74966 2.489,-2.18983 4.11076,-1.23881c0.91084,0.53413 1.59741,3.11569 2.61808,3.13363c1.42083,0.02499 0.86602,-2.10058 1.62738,-2.82173c1.53256,-1.45162 3.20072,-0.28261 3.32214,1.34687c0.2746,3.6851 1.98599,5.67355 6.01533,5.87314c0.88345,0.04376 3.78321,-0.51966 4.50433,0.00785c1.17307,0.85813 -0.43801,3.77483 -0.83269,4.64615c-1.9854,3.32495 -7.03851,0.82284 -10.02398,-0.21632c-1.93991,-0.67523 -4.03654,-0.12152 -6.01719,-0.55083c-2.20979,0.0138 -4.35816,-0.69705 -6.37887,-1.53678c-2.13005,-0.88517 -4.63176,-0.92811 -6.82692,-1.64154c-1.77674,-0.57745 -3.39454,-1.57218 -5.10782,-2.29567c-0.66007,-4.77303 0.55381,-8.03056 1.86011,-12.49585c0.45816,-1.56616 -0.05901,-4.2168 1.69049,-4.12935c0,0 0.06205,0.01567 0.13615,0.058z" fill="#000000" stroke-width="0.5"/></g><path d="M226.32232,156.40134c0,0 3.45119,-2.53916 5.95979,-6.11341c0.11022,-0.15704 0.36014,-0.46116 0.46406,-0.62589c1.35912,-2.15442 2.03703,-4.75821 2.33551,-6.39534c0.70765,-3.88136 0.52636,-12.15107 0.52636,-12.15107c0,0 8.28571,-0.05739 8.28571,0.42857c0,1.32855 -0.98639,7.25745 0.65957,13.05608c1.77755,6.26221 10.34043,12.08677 10.34043,12.08677c0,0 -10.82096,-2.64821 -15.14308,-2.69143c-5.07901,-0.05079 -13.42835,2.40571 -13.42835,2.40571z" fill="url(#color-21)" stroke="none" stroke-width="0" stroke-linecap="butt"/></g></g></svg>