<svg version="1.1" xmlns="http://www.w3.org/2000/svg" xmlns:xlink="http://www.w3.org/1999/xlink" width="131.77276" height="267.22501" viewBox="0,0,131.77276,267.22501"><defs><radialGradient cx="248.0715" cy="104.8111" r="63.7549" gradientUnits="userSpaceOnUse" id="color-1"><stop offset="0" stop-color="#ffffff"/><stop offset="1" stop-color="#c3c3c3"/></radialGradient></defs><g transform="translate(-179.41488,-46.88752)"><g data-paper-data="{&quot;isPaintingLayer&quot;:true}" fill-rule="nonzero" stroke-linejoin="miter" stroke-miterlimit="10" stroke-dasharray="" stroke-dashoffset="0" style="mix-blend-mode: normal"><path d="M310.06301,136.01285c-0.77204,10.63326 -29.47969,1.07066 -64.59811,-1.47913c-35.11842,-2.5498 -64.84227,0.43088 -64.07024,-10.20239c0.4218,-5.8095 5.28194,-26.86016 19.27332,-36.85864c7.10602,-5.07808 15.79779,-9.5238 26.65317,-11.57543c6.89165,-1.3025 15.83168,-1.35514 22.01828,-0.90596c12.78122,0.92799 24.84303,1.20411 36.38079,8.51616c1.11813,0.70861 13.15537,8.63993 17.40624,18.55104c5.98604,13.95671 6.93653,33.95436 6.93653,33.95436z" fill="url(#color-1)" stroke="#000000" stroke-width="2" stroke-linecap="butt"/><path d="M180.50981,314.11253v-267.22501h123.18203v267.22501z" fill-opacity="0.01" fill="#000000" stroke="none" stroke-width="0" stroke-linecap="butt"/><g fill="#9a9a9a" stroke="none" stroke-width="0" stroke-linecap="butt"><path d="M197.5888,134.69401l-7.20254,-26.71269l36.68973,-9.89263l7.20253,26.71269z"/><path d="M203.7186,114.38485l-3.82689,-14.19313l3.17362,-0.85571l3.82689,14.19313z"/><path d="M200.69485,102.45224l-0.62604,-2.32184l14.41282,-3.88613l0.62604,2.32185z"/><path d="M215.23946,111.35246l-3.82689,-14.19313l3.17362,-0.8557l3.82689,14.19313z"/></g><g stroke="none" stroke-width="0" stroke-linecap="butt"><path d="M279.04003,86.74951c4.00568,5.86166 2.4475,13.89734 -3.48028,17.94821c-5.92778,4.05086 -13.98044,2.58293 -17.98612,-3.27873c-4.00568,-5.86166 -2.4475,-13.89734 3.48028,-17.9482c5.92778,-4.05086 13.98044,-2.58293 17.98612,3.27872z" fill="#9a9a9a"/><path d="M273.21476,101.60339c-3.67523,2.51154 -8.44633,2.17682 -11.66553,-0.52149c0.96834,-0.28847 2.16939,-0.72402 2.77968,-1.51911c0.79339,-1.03362 0.91328,-2.17716 2.01483,-3.06167c0.97393,-0.78204 2.12173,-0.6427 3.23716,-1.11507c1.34723,-0.62864 1.6697,-1.77099 2.72291,-2.658c1.01339,-0.85347 2.34187,-0.57272 3.36067,-1.60039c0.38812,-0.3915 0.69962,-0.86558 1.00674,-1.34719c1.81511,4.14456 0.45679,9.14872 -3.45647,11.82293z" fill="#cacaca"/><path d="M259.9587,89.36309l-3.38526,-4.95378l7.33894,-5.01521l3.38526,4.95378z" fill="#9a9a9a"/><path d="M258.55194,84.94133l-2.31953,-3.39426l5.04552,-3.44795l2.31953,3.39426z" fill="#9a9a9a"/></g><g stroke="none" stroke-width="0" stroke-linecap="butt"><path d="M248.01247,118.27681c0,0 0.54029,-1.29362 2.15245,-2.11601c1.88531,-0.96173 5.01237,-1.57322 7.06162,-3.17274c1.22741,-0.95804 3.9187,-3.36705 4.85765,-3.93033c3.29464,-1.97646 7.61154,-3.78875 7.61154,-3.78875l5.36481,8.94282c0,0 -2.10812,2.30124 -5.3821,4.2653c-1.44272,0.86549 -5.35695,2.83306 -7.66426,3.74072c-1.85141,0.72832 -4.24862,3.8429 -5.46891,4.80525c-1.32527,1.04514 -3.16799,0.19656 -3.16799,0.19656z" fill="#9a9a9a"/><path d="M265.01585,111.0751l10.29036,-6.17321l2.49868,4.16515l-10.29036,6.17321z" fill="#9a9a9a"/><path d="M254.14797,113.56649l6.64586,-3.98686l6.21608,10.36182l-6.64586,3.98686z" fill="#5f5f5f"/></g><path d="M235.94764,101.77143v-18.2h14.4v18.2z" fill="#9a9a9a" stroke="none" stroke-width="0" stroke-linecap="butt"/><path d="M206.47614,306.30001l15.14285,-131.8421l37.78325,-0.15789l13.57389,132z" fill="#5fd6f4" stroke="#000000" stroke-width="2" stroke-linecap="butt"/><path d="M219.42636,202.91267l3.12142,-26.32765l35.83075,-0.14203l2.76735,26.1059c0,0 -7.51543,4.19603 -21.55904,4.50964c-12.48458,0.27879 -20.16049,-4.14586 -20.16049,-4.14586z" fill="#387e8f" stroke="#000000" stroke-width="0" stroke-linecap="butt"/><path d="M218.1129,201.37751c0,0 -0.86037,-1.64644 -1.18821,-3.42169c-0.34066,-1.84471 -0.14619,-3.82852 0.02426,-4.24864c0.80908,-1.99419 2.99728,-3.99633 2.99728,-3.99633l40.16666,0.5c0,0 2.58695,1.45609 3.27161,3.19102c0.40553,1.02761 0.22839,2.86943 0.22839,3.47565c0,0.73804 -0.05964,2.54278 -1.11019,3.48972c-1.03264,0.9308 -3.05648,2.01028 -3.05648,2.01028z" fill="#54bed8" stroke="#000000" stroke-width="2" stroke-linecap="butt"/><path d="M249.68928,238.88697c-2.12043,1.56754 -9.37984,-4.83026 -9.37984,-4.83026c0,0 -7.15111,6.52447 -9.29851,4.99165c-2.14911,-1.53259 1.69445,-10.41655 1.69445,-10.41655c0,0 -8.41373,-4.78548 -7.61958,-7.30111c0.79398,-2.51748 10.4295,-1.60702 10.4295,-1.60702c0,0 1.94919,-9.48018 4.58738,-9.50471c2.64192,-0.02316 4.75443,9.42378 4.75443,9.42378c0,0 9.61861,-1.07594 10.45386,1.42773c0.84036,2.50147 -7.49126,7.43109 -7.49126,7.43109c0,0 3.99534,8.81736 1.86957,10.3854z" fill="#ffff00" stroke="#000000" stroke-width="2" stroke-linecap="butt"/><path d="M227.48488,196.03314l-0.25,4.5" fill="none" stroke="#000000" stroke-width="2" stroke-linecap="round"/><path d="M240.60988,200.28314l-0.125,-3.75" fill="none" stroke="#000000" stroke-width="2" stroke-linecap="round"/><path d="M255.35988,201.90814l0.125,-7.125" fill="none" stroke="#000000" stroke-width="2" stroke-linecap="round"/><path d="M180.56544,135.85029c0.33164,-4.56757 0.12521,-16.56383 4.56184,-19.57049c2.84569,-1.92849 45.63676,0.60134 59.10367,1.35286c20.27713,1.13157 62.70496,7.06013 64.0404,8.75556c2.42985,3.08485 1.18613,15.26013 0.929,18.80168c-2.41155,33.21442 -33.16242,58.04928 -68.68395,55.47021c-35.52154,-2.57906 -62.3625,-31.59543 -59.95094,-64.80982z" fill="#ec3434" stroke="#000000" stroke-width="2" stroke-linecap="butt"/><path d="M181.28552,135.95653c0.05272,-0.72608 1.16378,56.15109 59.3169,61.3909c55.56286,5.00643 67.78978,-53.18378 67.716,-52.1676c-2.37556,32.71866 -32.73862,57.17768 -67.81779,54.63073c-35.07915,-2.54695 -61.59067,-31.13537 -59.21512,-63.85403z" fill="#a12323" stroke="#000000" stroke-width="0" stroke-linecap="butt"/><path d="M309.94315,126.72923c-0.32137,4.42619 -33.62314,2.75079 -65.20434,0.45781c-31.58119,-2.29297 -61.39942,-5.91657 -61.07806,-10.34276c0.32137,-4.42619 30.8859,-1.87531 62.4671,0.41766c31.58119,2.29297 64.13667,5.0411 63.8153,9.46729z" fill="#b10000" stroke="#000000" stroke-width="2" stroke-linecap="butt"/><path d="M194.04852,137.25984c0.93907,-12.93395 12.1854,-22.65773 25.11936,-21.71865c12.93395,0.93907 22.65773,12.1854 21.71865,25.11936c-0.93907,12.93395 -12.1854,22.65773 -25.11936,21.71865c-12.93395,-0.93907 -22.65773,-12.1854 -21.71865,-25.11936z" fill="#ffffff" stroke="#000000" stroke-width="2" stroke-linecap="butt"/><path d="M206.6153,137.74656c0.66101,-9.10412 8.5772,-15.94859 17.6813,-15.28759c9.10412,0.66101 15.9486,8.57721 15.28759,17.68131c-0.66101,9.10412 -8.57721,15.9486 -17.68131,15.28759c-9.10412,-0.66101 -15.94859,-8.57721 -15.28758,-17.68131z" fill="#000000" stroke="none" stroke-width="0" stroke-linecap="butt"/><path d="M270.13248,166.32642c-12.93395,-0.93907 -22.65773,-12.1854 -21.71865,-25.11936c0.93907,-12.93395 12.1854,-22.65773 25.11936,-21.71865c12.93395,0.93907 22.65773,12.1854 21.71865,25.11936c-0.93907,12.93395 -12.1854,22.65773 -25.11936,21.71865z" data-paper-data="{&quot;index&quot;:null}" fill="#ffffff" stroke="#000000" stroke-width="2" stroke-linecap="butt"/><path d="M275.29433,160.3407c-9.10411,-0.66101 -15.94859,-8.57721 -15.28758,-17.68131c0.66101,-9.10412 8.57721,-15.9486 17.6813,-15.28759c9.10411,0.66101 15.94859,8.57721 15.28758,17.68131c-0.66101,9.10412 -8.57721,15.9486 -17.6813,15.28759z" data-paper-data="{&quot;index&quot;:null}" fill="#000000" stroke="none" stroke-width="0" stroke-linecap="butt"/><path d="M193.9654,137.25381c0.93907,-12.93395 12.1854,-22.65773 25.11936,-21.71865c12.93395,0.93907 22.65773,12.1854 21.71865,25.11936c0,0 -46.9272,-2.17239 -46.83802,-3.4007z" fill="#ec3434" stroke="#000000" stroke-width="2" stroke-linecap="butt"/><path d="M248.1645,141.18898c0.93907,-12.93395 12.1854,-22.65773 25.11936,-21.71865c12.93395,0.93907 22.65773,12.1854 21.71865,25.11936c-0.08789,1.21061 -46.83802,-3.4007 -46.83802,-3.4007z" data-paper-data="{&quot;index&quot;:null}" fill="#ec3434" stroke="#000000" stroke-width="2" stroke-linecap="butt"/><path d="M208.73918,109.44216c0,0 7.06567,-4.66982 12.22706,-5.49255c5.1614,-0.82273 12.2511,1.59071 12.2511,1.59071c0,0 -8.01265,-0.6422 -11.99863,-0.00683c-4.1655,0.66399 -12.47953,3.90866 -12.47953,3.90866z" fill="#000000" stroke="none" stroke-width="0" stroke-linecap="butt"/><path d="M272.85356,109.28248c-3.8524,-1.20448 -11.87377,-1.72644 -11.87377,-1.72644c0,0 7.36397,-1.36402 12.35239,0.19564c4.98842,1.55966 11.30542,7.20114 11.30542,7.20114c0,0 -7.75814,-4.41161 -11.78404,-5.67034z" data-paper-data="{&quot;index&quot;:null}" fill="#000000" stroke="none" stroke-width="0" stroke-linecap="butt"/><path d="M193.68578,135.95698l-3.40227,-2.85387" fill="none" stroke="#000000" stroke-width="2" stroke-linecap="round"/><path d="M294.56895,144.05693l4.43519,-3.08693" fill="none" stroke="#000000" stroke-width="2" stroke-linecap="round"/><path d="M222.13439,82.94334c0.82556,1.80872 -1.92647,4.83656 -6.14683,6.76287c-4.22037,1.92631 -8.31089,2.02162 -9.13644,0.21289c-0.82556,-1.80872 1.92647,-4.83656 6.14683,-6.76287c4.22037,-1.92631 8.31089,-2.02162 9.13644,-0.21289z" fill="#ffffff" stroke="none" stroke-width="0" stroke-linecap="butt"/><path d="M229.02478,82.37291c-0.08399,1.15675 -1.08981,2.0264 -2.24656,1.94242c-1.15675,-0.08399 -2.0264,-1.08981 -1.94242,-2.24656c0.08399,-1.15675 1.08981,-2.0264 2.24656,-1.94242c1.15675,0.08399 2.0264,1.08981 1.94242,2.24656z" fill="#ffffff" stroke="none" stroke-width="0" stroke-linecap="butt"/><path d="M255.53087,178.66055c0,0 -8.14225,8.59042 -17.44785,7.65487c-9.30559,-0.93554 -14.40466,-10.55653 -14.40466,-10.55653z" data-paper-data="{&quot;index&quot;:null}" fill="#000000" stroke="#000000" stroke-width="2" stroke-linecap="round"/></g></g></svg>