<svg version="1.1" xmlns="http://www.w3.org/2000/svg" xmlns:xlink="http://www.w3.org/1999/xlink" width="157.43798" height="246.44923" viewBox="0,0,157.43798,246.44923"><defs><linearGradient x1="240.00008" y1="175.50003" x2="240.00008" y2="307.50003" gradientUnits="userSpaceOnUse" id="color-1"><stop offset="0" stop-color="#000000"/><stop offset="1" stop-color="#e67c00"/></linearGradient><linearGradient x1="166.42567" y1="93.75368" x2="168.57113" y2="162.52022" gradientUnits="userSpaceOnUse" id="color-2"><stop offset="0" stop-color="#000000"/><stop offset="1" stop-color="#efd4af"/></linearGradient><linearGradient x1="255.09988" y1="61.13932" x2="255.81413" y2="84.0325" gradientUnits="userSpaceOnUse" id="color-3"><stop offset="0" stop-color="#000000"/><stop offset="1" stop-color="#f7dbb5"/></linearGradient><linearGradient x1="289.59005" y1="69.69206" x2="290.27205" y2="91.55147" gradientUnits="userSpaceOnUse" id="color-4"><stop offset="0" stop-color="#000000"/><stop offset="1" stop-color="#f7dbb5"/></linearGradient><linearGradient x1="274.20836" y1="64.85807" x2="274.89035" y2="86.71749" gradientUnits="userSpaceOnUse" id="color-5"><stop offset="0" stop-color="#000000"/><stop offset="1" stop-color="#f7dbb5"/></linearGradient><linearGradient x1="218.36174" y1="62.28553" x2="219.07599" y2="85.17871" gradientUnits="userSpaceOnUse" id="color-6"><stop offset="0" stop-color="#000000"/><stop offset="1" stop-color="#f7dbb5"/></linearGradient><linearGradient x1="233.35552" y1="62.22342" x2="234.06977" y2="85.11661" gradientUnits="userSpaceOnUse" id="color-7"><stop offset="0" stop-color="#000000"/><stop offset="1" stop-color="#f7dbb5"/></linearGradient><linearGradient x1="185.87203" y1="72.92799" x2="186.55402" y2="94.7874" gradientUnits="userSpaceOnUse" id="color-8"><stop offset="0" stop-color="#000000"/><stop offset="1" stop-color="#f7dbb5"/></linearGradient><linearGradient x1="200.2993" y1="67.16399" x2="200.9813" y2="89.02339" gradientUnits="userSpaceOnUse" id="color-9"><stop offset="0" stop-color="#000000"/><stop offset="1" stop-color="#f7dbb5"/></linearGradient><linearGradient x1="255.79036" y1="83.2713" x2="256.30806" y2="99.86464" gradientUnits="userSpaceOnUse" id="color-10"><stop offset="0" stop-color="#000000"/><stop offset="1" stop-color="#f7dbb5"/></linearGradient><linearGradient x1="289.78625" y1="75.98155" x2="290.28057" y2="91.82562" gradientUnits="userSpaceOnUse" id="color-11"><stop offset="0" stop-color="#000000"/><stop offset="1" stop-color="#f7dbb5"/></linearGradient><linearGradient x1="274.69027" y1="80.30412" x2="275.18459" y2="96.14819" gradientUnits="userSpaceOnUse" id="color-12"><stop offset="0" stop-color="#000000"/><stop offset="1" stop-color="#f7dbb5"/></linearGradient><linearGradient x1="219.01056" y1="83.08215" x2="219.56992" y2="101.01086" gradientUnits="userSpaceOnUse" id="color-13"><stop offset="0" stop-color="#000000"/><stop offset="1" stop-color="#f7dbb5"/></linearGradient><linearGradient x1="233.9818" y1="82.29733" x2="234.54116" y2="100.22604" gradientUnits="userSpaceOnUse" id="color-14"><stop offset="0" stop-color="#000000"/><stop offset="1" stop-color="#f7dbb5"/></linearGradient><linearGradient x1="186.04746" y1="78.55112" x2="186.56767" y2="95.22501" gradientUnits="userSpaceOnUse" id="color-15"><stop offset="0" stop-color="#000000"/><stop offset="1" stop-color="#f7dbb5"/></linearGradient><linearGradient x1="200.76669" y1="82.14521" x2="201.2869" y2="98.81909" gradientUnits="userSpaceOnUse" id="color-16"><stop offset="0" stop-color="#000000"/><stop offset="1" stop-color="#f7dbb5"/></linearGradient><linearGradient x1="237.46111" y1="85.07284" x2="240.48459" y2="181.98168" gradientUnits="userSpaceOnUse" id="color-17"><stop offset="0" stop-color="#000000"/><stop offset="1" stop-color="#f3e5e5"/></linearGradient><radialGradient cx="233.24555" cy="78.36427" r="15.35715" gradientUnits="userSpaceOnUse" id="color-18"><stop offset="0" stop-color="#af4300"/><stop offset="1" stop-color="#af4300" stop-opacity="0"/></radialGradient><radialGradient cx="254.63237" cy="78.98335" r="3.14285" gradientUnits="userSpaceOnUse" id="color-19"><stop offset="0" stop-color="#af4300"/><stop offset="1" stop-color="#af4300" stop-opacity="0"/></radialGradient><radialGradient cx="251.03141" cy="80.38204" r="2.64286" gradientUnits="userSpaceOnUse" id="color-20"><stop offset="0" stop-color="#af4300"/><stop offset="1" stop-color="#af4300" stop-opacity="0"/></radialGradient><radialGradient cx="264.1947" cy="78.54209" r="2.71429" gradientUnits="userSpaceOnUse" id="color-21"><stop offset="0" stop-color="#af4300"/><stop offset="1" stop-color="#af4300" stop-opacity="0"/></radialGradient><radialGradient cx="213.77508" cy="79.6149" r="4.57143" gradientUnits="userSpaceOnUse" id="color-22"><stop offset="0" stop-color="#af4300"/><stop offset="1" stop-color="#af4300" stop-opacity="0"/></radialGradient><linearGradient x1="211.07673" y1="97.17466" x2="211.96341" y2="125.59464" gradientUnits="userSpaceOnUse" id="color-23"><stop offset="0" stop-color="#000000"/><stop offset="1" stop-color="#d95300"/></linearGradient><linearGradient x1="265.34935" y1="95.32037" x2="266.23603" y2="123.74034" gradientUnits="userSpaceOnUse" id="color-24"><stop offset="0" stop-color="#000000"/><stop offset="1" stop-color="#d95300"/></linearGradient><linearGradient x1="219.34819" y1="99.57682" x2="220.0987" y2="123.6322" gradientUnits="userSpaceOnUse" id="color-25"><stop offset="0" stop-color="#000000"/><stop offset="1" stop-color="#fa6000"/></linearGradient><linearGradient x1="202.75674" y1="97.89636" x2="203.52861" y2="122.63634" gradientUnits="userSpaceOnUse" id="color-26"><stop offset="0" stop-color="#000000"/><stop offset="1" stop-color="#fa6000"/></linearGradient><linearGradient x1="256.73052" y1="98.44809" x2="257.48103" y2="122.50346" gradientUnits="userSpaceOnUse" id="color-27"><stop offset="0" stop-color="#000000"/><stop offset="1" stop-color="#fa6000"/></linearGradient><linearGradient x1="273.18493" y1="95.73662" x2="273.9568" y2="120.47659" gradientUnits="userSpaceOnUse" id="color-28"><stop offset="0" stop-color="#000000"/><stop offset="1" stop-color="#fa6000"/></linearGradient><linearGradient x1="236.06171" y1="129.03912" x2="236.4181" y2="140.46231" gradientUnits="userSpaceOnUse" id="color-29"><stop offset="0" stop-color="#7d3030" stop-opacity="0"/><stop offset="1" stop-color="#7d3030"/></linearGradient><linearGradient x1="280.70422" y1="153.21527" x2="280.9038" y2="159.61215" gradientUnits="userSpaceOnUse" id="color-30"><stop offset="0" stop-color="#000000"/><stop offset="1" stop-color="#ffffff"/></linearGradient><linearGradient x1="280.70422" y1="153.21527" x2="280.9038" y2="159.61215" gradientUnits="userSpaceOnUse" id="color-31"><stop offset="0" stop-color="#000000"/><stop offset="1" stop-color="#e2e2e2"/></linearGradient><linearGradient x1="285.75185" y1="151.45701" x2="285.914" y2="156.65447" gradientUnits="userSpaceOnUse" id="color-32"><stop offset="0" stop-color="#000000"/><stop offset="1" stop-color="#ffffff"/></linearGradient><linearGradient x1="285.75185" y1="151.45701" x2="285.914" y2="156.65447" gradientUnits="userSpaceOnUse" id="color-33"><stop offset="0" stop-color="#000000"/><stop offset="1" stop-color="#e2e2e2"/></linearGradient><linearGradient x1="193.33434" y1="153.94017" x2="193.53391" y2="160.33705" gradientUnits="userSpaceOnUse" id="color-34"><stop offset="0" stop-color="#000000"/><stop offset="1" stop-color="#e2e2e2"/></linearGradient><linearGradient x1="198.51917" y1="156.57977" x2="198.68133" y2="161.77723" gradientUnits="userSpaceOnUse" id="color-35"><stop offset="0" stop-color="#000000"/><stop offset="1" stop-color="#e2e2e2"/></linearGradient><linearGradient x1="209.27656" y1="153.22447" x2="209.4906" y2="160.08486" gradientUnits="userSpaceOnUse" id="color-36"><stop offset="0" stop-color="#000000"/><stop offset="1" stop-color="#3f3f3f"/></linearGradient><linearGradient x1="215.83833" y1="153.7698" x2="216.3126" y2="160.6183" gradientUnits="userSpaceOnUse" id="color-37"><stop offset="0" stop-color="#000000"/><stop offset="1" stop-color="#3f3f3f"/></linearGradient><linearGradient x1="222.14438" y1="154.17032" x2="222.94642" y2="160.99311" gradientUnits="userSpaceOnUse" id="color-38"><stop offset="0" stop-color="#000000"/><stop offset="1" stop-color="#3f3f3f"/></linearGradient><linearGradient x1="228.73869" y1="154.28488" x2="229.79938" y2="161.0788" gradientUnits="userSpaceOnUse" id="color-39"><stop offset="0" stop-color="#000000"/><stop offset="1" stop-color="#3f3f3f"/></linearGradient><linearGradient x1="235.6554" y1="154.31846" x2="236.64137" y2="161.12149" gradientUnits="userSpaceOnUse" id="color-40"><stop offset="0" stop-color="#000000"/><stop offset="1" stop-color="#3f3f3f"/></linearGradient><linearGradient x1="242.25231" y1="154.29744" x2="243.49612" y2="161.06631" gradientUnits="userSpaceOnUse" id="color-41"><stop offset="0" stop-color="#000000"/><stop offset="1" stop-color="#3f3f3f"/></linearGradient><linearGradient x1="268.77609" y1="151.7433" x2="268.99013" y2="158.6037" gradientUnits="userSpaceOnUse" id="color-42"><stop offset="0" stop-color="#000000"/><stop offset="1" stop-color="#3f3f3f"/></linearGradient><linearGradient x1="262.26106" y1="152.69663" x2="262.21464" y2="159.56138" gradientUnits="userSpaceOnUse" id="color-43"><stop offset="0" stop-color="#000000"/><stop offset="1" stop-color="#3f3f3f"/></linearGradient><linearGradient x1="255.99225" y1="153.48948" x2="255.61709" y2="160.34899" gradientUnits="userSpaceOnUse" id="color-44"><stop offset="0" stop-color="#000000"/><stop offset="1" stop-color="#3f3f3f"/></linearGradient><linearGradient x1="249.4179" y1="154.01488" x2="248.78279" y2="160.86172" gradientUnits="userSpaceOnUse" id="color-45"><stop offset="0" stop-color="#000000"/><stop offset="1" stop-color="#3f3f3f"/></linearGradient><linearGradient x1="212.10733" y1="196.63426" x2="211.92369" y2="189.77386" gradientUnits="userSpaceOnUse" id="color-46"><stop offset="0" stop-color="#000000"/><stop offset="1" stop-color="#3f3f3f"/></linearGradient><linearGradient x1="217.56729" y1="197.50473" x2="217.60714" y2="190.63997" gradientUnits="userSpaceOnUse" id="color-47"><stop offset="0" stop-color="#000000"/><stop offset="1" stop-color="#3f3f3f"/></linearGradient><linearGradient x1="223.70583" y1="197.94047" x2="223.0454" y2="191.11462" gradientUnits="userSpaceOnUse" id="color-48"><stop offset="0" stop-color="#000000"/><stop offset="1" stop-color="#3f3f3f"/></linearGradient><linearGradient x1="229.21594" y1="198.41519" x2="228.77827" y2="191.56889" gradientUnits="userSpaceOnUse" id="color-49"><stop offset="0" stop-color="#000000"/><stop offset="1" stop-color="#3f3f3f"/></linearGradient><linearGradient x1="235.6585" y1="198.10985" x2="234.54752" y2="191.34865" gradientUnits="userSpaceOnUse" id="color-50"><stop offset="0" stop-color="#000000"/><stop offset="1" stop-color="#3f3f3f"/></linearGradient><linearGradient x1="241.19068" y1="198.2058" x2="240.30073" y2="191.40895" gradientUnits="userSpaceOnUse" id="color-51"><stop offset="0" stop-color="#000000"/><stop offset="1" stop-color="#3f3f3f"/></linearGradient><linearGradient x1="247.33689" y1="197.77657" x2="245.7578" y2="191.11636" gradientUnits="userSpaceOnUse" id="color-52"><stop offset="0" stop-color="#000000"/><stop offset="1" stop-color="#3f3f3f"/></linearGradient><linearGradient x1="252.8652" y1="197.47397" x2="251.50424" y2="190.76231" gradientUnits="userSpaceOnUse" id="color-53"><stop offset="0" stop-color="#000000"/><stop offset="1" stop-color="#3f3f3f"/></linearGradient><linearGradient x1="258.93538" y1="196.53803" x2="256.88538" y2="190.01574" gradientUnits="userSpaceOnUse" id="color-54"><stop offset="0" stop-color="#000000"/><stop offset="1" stop-color="#3f3f3f"/></linearGradient><linearGradient x1="264.43105" y1="195.82908" x2="262.59509" y2="189.23945" gradientUnits="userSpaceOnUse" id="color-55"><stop offset="0" stop-color="#000000"/><stop offset="1" stop-color="#3f3f3f"/></linearGradient></defs><g transform="translate(-146.05817,-61.0508)"><g data-paper-data="{&quot;isPaintingLayer&quot;:true}" fill-rule="nonzero" stroke-linejoin="miter" stroke-miterlimit="10" stroke-dasharray="" stroke-dashoffset="0" style="mix-blend-mode: normal"><path d="M206.75008,307.50002c0,0 2.17955,-18.9764 3.7767,-32.88207c2.77074,-24.12361 11.36615,-98.96003 11.36615,-98.96003l37.78325,-0.15789l13.57389,132c0,0 -9.36671,-0.5571 -16.98313,-3.00491c-9.3232,-2.99635 -17.68511,-7.99509 -23.58972,-7.99509c-11.39783,0 -25.92714,10.99999 -25.92714,10.99999z" fill="url(#color-1)" stroke="none" stroke-width="0" stroke-linecap="butt"/><path d="M230.00616,217.16892l-0.07091,-0.0644c-0.02994,-0.02603 -0.03904,-0.07017 -0.01949,-0.10661c0.02268,-0.04228 0.07534,-0.05817 0.11763,-0.03548l0.15312,0.08213l-0.01215,0.02264c0.19522,0.07816 0.37058,0.18309 0.58062,0.25526c0.75207,0.25841 1.5906,0.13802 2.27822,-0.2262c0.20203,-0.12049 0.38483,-0.23699 0.53889,-0.38694c0.05932,-0.09295 0.12903,-0.18588 0.20473,-0.24902c0.02079,-0.03224 0.04064,-0.06596 0.05949,-0.10131l0.00777,-0.00469l-0.00264,-0.00219l0.07951,-0.0964c0.02562,-0.03233 0.07147,-0.0427 0.1091,-0.02251c0.04228,0.02268 0.05817,0.07534 0.03549,0.11763l-0.00878,0.01638c0.02401,0.03225 0.01327,0.07479 0.01327,0.07479c-0.05308,0.18299 -0.22718,0.32315 -0.3826,0.4774c-0.09801,0.13809 -0.19804,0.27667 -0.27508,0.4246c-0.15494,0.49284 0.01097,1.13965 0.18337,1.5844c0.12493,0.32456 0.37579,0.60252 0.55209,0.90073l0.06142,0.08699c0.01931,0.02616 0.02307,0.06215 0.00667,0.09271c-0.02268,0.04228 -0.07534,0.05817 -0.11762,0.03549l-0.13125,-0.0704l0.00968,-0.01804c-0.27239,-0.10518 -0.5172,-0.27001 -0.8016,-0.36064c-0.66342,-0.2114 -1.3978,0.05378 -1.89542,0.51395c-0.17828,0.1063 -0.32403,0.25163 -0.42193,0.4362l-0.04693,0.0875c-0.02268,0.04228 -0.07534,0.05818 -0.11763,0.03549c-0.03842,-0.02061 -0.05506,-0.066 -0.04074,-0.10584l0.04772,-0.1406c0.00404,-1.02259 0.01788,-1.88196 -0.457,-2.86068c-0.06188,-0.15437 -0.13211,-0.26452 -0.23703,-0.39234zM233.77322,219.60987l0.03716,0.03156c0,0 0.01622,0.01718 0.02278,0.04208c0.00712,0.00366 0.01417,0.00737 0.02116,0.01114c-0.03921,-0.05746 -0.07922,-0.11472 -0.1187,-0.17233c0.01244,0.02905 0.02497,0.05822 0.0376,0.08755z" data-paper-data="{&quot;index&quot;:null}" fill="#000000" stroke="none" stroke-width="0.5" stroke-linecap="butt"/><path d="M248.37938,244.93134c0,0.72487 -0.50368,1.3125 -1.125,1.3125c-0.62132,0 -1.125,-0.58763 -1.125,-1.3125c0,-0.72487 0.50368,-1.3125 1.125,-1.3125c0.62132,0 1.125,0.58763 1.125,1.3125z" fill="#000000" stroke="none" stroke-width="0" stroke-linecap="butt"/><path d="M183.9057,106.49076c-1.28758,0.44535 -11.39153,4.68323 -15.0564,8.03347c-3.05573,2.81636 -3.78652,9.71204 -3.72625,12.77105c0.07382,3.73059 1.12071,6.67638 3.60948,10.17292c2.40614,3.38021 14.54885,10.70917 16.5006,11.56948l4.66844,12.81704c0,0 -20.35265,-3.86365 -32.76749,-13.87936c-4.19502,-3.38435 -10.22139,-12.49753 -10.99354,-21.15683c-0.73467,-8.23898 3.63527,-16.07791 5.53332,-17.76456c11.51512,-10.23264 31.81784,-15.83275 31.81784,-15.83275z" data-paper-data="{&quot;index&quot;:null}" fill="url(#color-2)" stroke="none" stroke-width="0" stroke-linecap="butt"/><g stroke="none" stroke-width="0" stroke-linecap="butt"><g data-paper-data="{&quot;index&quot;:null}"><g data-paper-data="{&quot;index&quot;:null}" fill="url(#color-3)"><path d="M247.09117,82.23119c-1.47533,-1.17583 -2.53348,-2.86663 -2.95528,-4.9765c-1.1643,-5.82378 2.96047,-12.63517 9.21296,-15.21367c6.25247,-2.57849 12.26498,0.05234 13.42928,5.87613c1.1643,5.82378 -2.96048,12.63516 -9.21297,15.21366c-3.9873,1.64434 -7.877,1.17016 -10.47398,-0.89962z"/></g><g data-paper-data="{&quot;index&quot;:null}"><path d="M278.1195,80.99028c-0.18833,-6.03631 4.94721,-11.09469 11.47055,-11.29821c6.52335,-0.20352 11.96422,4.52489 12.15255,10.56119c0.18833,6.03631 -4.94721,11.09469 -11.47055,11.29821c-6.52335,0.20352 -11.96422,-4.52488 -12.15255,-10.56119z" fill="url(#color-4)"/><path d="M262.73779,76.1563c-0.18833,-6.03631 4.94722,-11.09469 11.47055,-11.29821c6.52335,-0.20352 11.96422,4.52488 12.15255,10.56119c0.18833,6.03631 -4.94721,11.09469 -11.47055,11.29821c-6.52335,0.20352 -11.96422,-4.52489 -12.15255,-10.56119z" fill="url(#color-5)"/></g></g><g data-paper-data="{&quot;index&quot;:null}"><path d="M217.34495,84.38564c-6.14195,-2.1918 -10.50586,-8.73833 -9.74706,-14.62212c0.75879,-5.88378 6.35296,-8.87674 12.4949,-6.68494c6.14195,2.1918 10.50585,8.73834 9.74706,14.62213c-0.75879,5.88378 -6.35296,8.87673 -12.49489,6.68493z" fill="url(#color-6)"/><path d="M232.33873,84.32355c-6.14195,-2.1918 -10.50586,-8.73834 -9.74706,-14.62213c0.75879,-5.88378 6.35296,-8.87673 12.4949,-6.68493c6.14195,2.1918 10.50585,8.73833 9.74706,14.62212c-0.75879,5.88378 -6.35296,8.87673 -12.49489,6.68494z" fill="url(#color-7)"/></g><g data-paper-data="{&quot;index&quot;:null}"><path d="M186.55403,94.7874c-6.25618,0.19519 -11.4805,-4.53997 -11.66883,-10.57628c-0.18833,-6.03631 4.73064,-11.08793 10.98683,-11.28312c6.25618,-0.19519 11.48049,4.53998 11.66882,10.57628c0.18833,6.03631 -4.73064,11.08793 -10.98682,11.28312z" fill="url(#color-8)"/><path d="M200.98131,89.02339c-6.25618,0.19519 -11.4805,-4.53998 -11.66883,-10.57628c-0.18833,-6.03631 4.73064,-11.08793 10.98683,-11.28312c6.25618,-0.19519 11.48049,4.53997 11.66882,10.57628c0.18833,6.03631 -4.73064,11.08793 -10.98682,11.28312z" fill="url(#color-9)"/></g></g><path d="M301.88795,84.45829c0.24111,7.72823 -27.90493,14.87742 -62.86595,15.96818c-34.96102,1.09076 -63.49799,-4.28997 -63.73911,-12.0182c-0.24111,-7.72823 27.90493,-14.87742 62.86595,-15.96818c34.96102,-1.09076 63.49799,4.28997 63.73911,12.0182z" fill="#6c2a00" stroke="none" stroke-width="0" stroke-linecap="butt"/><g stroke="none" stroke-width="0" stroke-linecap="butt"><g data-paper-data="{&quot;index&quot;:null}" fill="url(#color-10)"><path d="M257.58693,83.8292c6.38061,1.52847 10.86466,6.2323 10.01541,10.5063c-0.84925,4.274 -6.71024,6.49969 -13.09085,4.97123c-6.38062,-1.52847 -10.86465,-6.23231 -10.0154,-10.50631c0.30767,-1.54841 1.27314,-2.82798 2.68279,-3.75758c2.48135,-1.63635 6.33903,-2.18837 10.40805,-1.21365z"/></g><g data-paper-data="{&quot;index&quot;:null}"><path d="M289.78625,75.98155c6.52335,-0.20352 11.92221,3.1783 12.05871,7.55352c0.1365,4.37522 -5.04105,8.08702 -11.56439,8.29055c-6.52335,0.20352 -11.92221,-3.1783 -12.05871,-7.55352c-0.1365,-4.37522 5.04105,-8.08702 11.56439,-8.29055z" fill="url(#color-11)"/><path d="M274.69027,80.30412c6.52335,-0.20352 11.92221,3.1783 12.05871,7.55352c0.1365,4.37522 -5.04105,8.08702 -11.56439,8.29055c-6.52335,0.20352 -11.92221,-3.1783 -12.05871,-7.55352c-0.1365,-4.37522 5.04106,-8.08702 11.56439,-8.29055z" fill="url(#color-12)"/></g></g><g stroke="none" stroke-width="0" stroke-linecap="butt"><path d="M230.17138,88.3273c1.08449,4.55549 -2.908,9.91358 -8.91748,11.96764c-6.00948,2.05406 -11.76028,0.02624 -12.84478,-4.52925c-1.08449,-4.55549 2.908,-9.91357 8.91748,-11.96763c6.00948,-2.05406 11.76028,-0.02625 12.84477,4.52924z" fill="url(#color-13)"/><path d="M245.14261,87.54248c1.08449,4.55549 -2.908,9.91357 -8.91748,11.96763c-6.00948,2.05406 -11.76028,0.02625 -12.84478,-4.52924c-1.08449,-4.55549 2.908,-9.91358 8.91748,-11.96763c6.00948,-2.05406 11.76028,-0.02625 12.84477,4.52924z" fill="url(#color-14)"/></g><g stroke="none" stroke-width="0" stroke-linecap="butt"><path d="M197.63539,86.53465c0.14365,4.60437 -4.81154,8.49517 -11.06771,8.69036c-6.25618,0.19519 -11.44428,-3.37915 -11.58793,-7.98352c-0.14365,-4.60437 4.81154,-8.49517 11.06772,-8.69036c6.25618,-0.19519 11.44427,3.37915 11.58792,7.98352z" fill="url(#color-15)"/><path d="M212.35463,90.12873c0.14365,4.60437 -4.81154,8.49516 -11.06771,8.69035c-6.25618,0.19519 -11.44428,-3.37915 -11.58793,-7.98351c-0.14365,-4.60437 4.81154,-8.49517 11.06772,-8.69036c6.25618,-0.19519 11.44427,3.37915 11.58792,7.98352z" fill="url(#color-16)"/></g><path d="M173.73015,123.40737c-0.04904,-1.57195 -0.61108,-30.50357 1.91544,-36.3946c0.13541,-0.31575 29.55707,4.98159 59.41672,4.12065c32.57027,-0.9391 65.8256,-8.00778 66.29645,-7.48714c0.76528,0.8462 1.97584,31.76461 2.10931,36.0427c1.03849,33.28565 -26.86557,61.16585 -62.32543,62.27218c-35.45987,1.10632 -66.37399,-25.26815 -67.41248,-58.55379z" fill="url(#color-17)" stroke="none" stroke-width="0" stroke-linecap="butt"/><path d="M188.54076,121.36984c-0.40439,-12.96169 9.77532,-23.79706 22.73701,-24.20145c12.96169,-0.40439 23.79706,9.77532 24.20145,22.73701c0.40439,12.96169 -9.77532,23.79706 -22.73701,24.20145c-12.96169,0.40439 -23.79706,-9.77532 -24.20145,-22.73701z" fill="#ff0000" stroke="none" stroke-width="2" stroke-linecap="butt"/><path d="M266.97422,142.41482c-12.96169,0.40439 -23.79706,-9.77532 -24.20145,-22.73701c-0.40439,-12.96169 9.77532,-23.79706 22.73701,-24.20145c12.96169,-0.40439 23.79706,9.77532 24.20145,22.73701c0.40439,12.96169 -9.77532,23.79706 -22.73701,24.20145z" data-paper-data="{&quot;index&quot;:null}" fill="#ff0000" stroke="none" stroke-width="2" stroke-linecap="butt"/><path d="M265.87017,90.99971c-3.95635,-0.79936 -11.98868,-0.48845 -11.98868,-0.48845c0,0 7.18328,-2.11873 12.30632,-1.08366c5.12303,1.03508 11.98991,5.99257 11.98991,5.99257c0,0 -8.17301,-3.5851 -12.30755,-4.42046z" data-paper-data="{&quot;index&quot;:null}" fill="#000000" stroke="none" stroke-width="0" stroke-linecap="butt"/><path d="M203.547,142.67406l-1.87429,4.06042" fill="none" stroke="#000000" stroke-width="2" stroke-linecap="round"/><path d="M213.13577,148.57791l0.07517,-4.00429" fill="none" stroke="#000000" stroke-width="2" stroke-linecap="round"/><g fill="none" stroke="#000000" stroke-width="2" stroke-linecap="round"><path d="M278.44156,144.53945l-2.12376,-3.93569" data-paper-data="{&quot;index&quot;:null}"/><path d="M266.79108,143.10206l0.32464,3.99182" data-paper-data="{&quot;index&quot;:null}"/></g><path d="M248.59521,77.88537c0.05044,1.61662 -6.78096,3.14156 -15.25836,3.40604c-8.4774,0.26449 -15.39056,-0.83163 -15.441,-2.44825c-0.05044,-1.61662 6.78096,-3.14156 15.25835,-3.40604c8.4774,-0.26449 15.39057,0.83163 15.44101,2.44825z" fill="url(#color-18)" stroke="none" stroke-width="0" stroke-linecap="butt"/><path d="M257.77372,78.88533c0.03568,1.14346 -1.34183,2.1143 -3.07673,2.16843c-1.73491,0.05413 -3.17025,-0.82895 -3.20593,-1.97242c-0.03568,-1.14346 1.34183,-2.1143 3.07674,-2.16843c1.73491,-0.05413 3.17024,0.82895 3.20592,1.97242z" fill="url(#color-19)" stroke="none" stroke-width="0" stroke-linecap="butt"/><path d="M253.67297,80.29963c0.02337,0.74917 -1.14035,1.39339 -2.59925,1.43891c-1.4589,0.04552 -2.66051,-0.5249 -2.68389,-1.27408c-0.02337,-0.74917 1.14034,-1.39338 2.59924,-1.43889c1.4589,-0.04552 2.66052,0.5249 2.6839,1.27406z" fill="url(#color-20)" stroke="none" stroke-width="0" stroke-linecap="butt"/><path d="M266.90765,78.45745c0.02091,0.6703 -1.17677,1.2516 -2.6751,1.29834c-1.49833,0.04675 -2.72992,-0.45875 -2.75084,-1.12906c-0.02091,-0.6703 1.17677,-1.2516 2.6751,-1.29834c1.49833,-0.04675 2.72992,0.45875 2.75084,1.12906z" fill="url(#color-21)" stroke="none" stroke-width="0" stroke-linecap="butt"/><path d="M218.34427,79.47235c0.04921,1.57719 -1.95661,2.91957 -4.48011,2.99831c-2.5235,0.07873 -4.6091,-1.136 -4.6583,-2.71319c-0.04921,-1.57719 1.9566,-2.91958 4.48011,-2.99832c2.5235,-0.07873 4.6091,1.13601 4.6583,2.7132z" fill="url(#color-22)" stroke="none" stroke-width="0" stroke-linecap="butt"/><path d="M289.69185,118.3212c0.01439,0.46119 -5.04282,-1.42363 -13.20727,-2.4988c-3.49562,-0.46034 -8.70364,-0.73659 -12.4516,-0.67528c-2.35056,0.03846 -6.07957,0.32111 -8.28735,0.67208c-7.99512,1.27095 -12.99225,3.96644 -12.99225,3.96644c-0.40439,-12.96169 9.77532,-23.79706 22.73701,-24.20145c12.96169,-0.40439 23.79706,9.77532 24.20145,22.73701z" data-paper-data="{&quot;index&quot;:null}" fill="none" stroke="none" stroke-width="2" stroke-linecap="butt"/><path d="M289.55245,117.69769c0.01439,0.46119 -47.03155,6.42292 -47.03155,6.42292c-0.10808,-3.46434 0.68598,-10.60424 1.95084,-14.1253c3.46758,-9.65287 11.38189,-14.73831 20.87924,-15.03462c12.96169,-0.40439 23.79706,9.77532 24.20145,22.73701z" data-paper-data="{&quot;index&quot;:null}" fill="none" stroke="none" stroke-width="0" stroke-linecap="butt"/><path d="M253.06892,212.10595c0,0 0.69259,5.20554 0.59833,5.35113c-0.02622,0.04048 -1.6209,9.24595 -1.6209,9.24595l-0.00034,0.00006c0.00716,0.21603 0.0142,0.43208 0.02113,0.64815c0,0 0.22248,1.61411 -0.32074,2.56528c-0.38883,0.68086 -1.54314,0.79604 -1.73359,0.77719c-0.10355,-0.01026 -1.59719,-0.02765 -2.16412,-0.65584c-0.82147,-0.91024 -0.77912,-2.53495 -0.77912,-2.53495c-0.46513,-14.50258 -8.77923,5.44392 -9.36625,-9.02605c-7.53608,0.26866 -11.64942,-2.41228 -11.83079,-2.07988c-3.24929,5.95241 -11.02672,0.15215 -11.0006,-0.82066c-6.06492,-2.15767 -14.49015,-36.2904 -18.94926,-41.3926c-1.59395,-1.45656 -8.81068,-0.94 -10.35567,-2.08954c-0.92157,-0.68567 -1.75099,-2.35226 -1.99815,-3.39296c-0.08782,-0.231 0.82326,-1.11013 0.73655,-1.34153c-1.48592,-3.96522 -3.49527,-3.67441 -5.21663,-3.62217c-1.60717,0.04877 3.66763,-6.62988 3.63533,-7.84796c-0.59883,-2.49477 -0.46166,-5.14815 -1.21484,-7.62668c-0.57957,-1.90721 -1.67675,-3.86634 -2.3924,-5.84829c-0.50776,-0.72077 -0.86984,-1.5094 -0.90932,-2.49455c0,0 -0.00986,-0.30739 0.23735,-0.44094c-0.00109,-0.01759 -0.00211,-0.03519 -0.00306,-0.05279l-0.01559,-0.48616c0,0 -0.01559,-0.48616 0.48416,-0.50132h0.00003c0.49976,-0.01517 0.51535,0.47098 0.51535,0.47098l0.01559,0.48616c-0.00286,0.78888 0.17096,1.60184 0.4404,2.42247c0.44381,0.64795 1.03985,1.22269 1.57844,1.82488c2.51423,2.81114 4.93114,5.4403 8.27019,7.31653c0.07189,0.04084 1.36968,1.03763 1.39672,1.02843c0.20438,-0.0695 -1.29488,-3.10103 -1.35543,-3.26127c-0.70992,-1.87879 -1.35166,-4.43374 -1.23332,-6.44371c0.13763,-2.33778 3.01053,-0.27556 3.87182,0.51131c4.70526,4.30021 8.31939,5.71401 14.47984,7.91059c2.92858,0.49412 8.6108,1.26794 10.48045,-1.55736c1.22842,-1.85631 1.89987,-1.97175 2.8703,-3.97525c1.68053,-1.6312 4.97327,-0.96554 5.92488,1.18026c0.31573,0.71193 0.08741,1.61463 0.27097,2.31008c0.13562,0.51381 1.03053,-0.43126 1.40265,-0.81902c0.90214,-0.94005 1.69722,-1.9554 2.51151,-2.9682c2.02772,-2.52022 3.57869,-5.44885 6.37468,-7.27245c0.56586,-0.36906 1.86121,-1.30532 2.59811,-0.96088c1.38651,0.64811 2.93245,4.02557 3.71957,5.34434c2.2623,2.38164 5.68397,3.56032 9.0326,2.99716c1.28536,-0.21616 2.53359,-1.3256 3.95013,-0.83524c1.54274,0.53405 1.59395,1.73872 2.40682,2.87475c1.45892,5.00759 8.29213,4.20879 12.05903,2.23387c1.03327,-0.66245 1.93698,-1.25286 2.99963,-1.81202l-0.0586,-0.05355l0.11983,-0.12409c-0.85011,-0.60407 -2.15743,-2.04667 -1.87796,-2.79541c0.38489,-1.03121 2.23626,-0.61791 2.90479,-0.38385c2.60482,0.91198 2.82172,2.5454 3.79304,4.83309c2.37856,0.54118 3.00026,-0.9518 4.00577,-2.8272c1.86648,-3.48118 3.55327,-7.16527 5.97477,-10.32491c2.07367,-2.69087 4.61694,-5.47221 7.15798,-7.76355c0.37211,-0.33555 1.9448,-1.70935 2.59147,-1.38434c1.25439,0.63045 -0.45936,4.38121 -0.77473,5.21708c-0.5265,0.82973 -0.95798,1.78606 -1.58263,2.53022c-0.20633,0.24583 0.51595,-0.38976 0.75568,-0.605c0.47784,-0.42901 0.88778,-0.92447 1.33392,-1.38463c1.55957,-1.60863 2.50565,-3.65289 2.95839,-5.77103l0.02026,-0.03109l-0.00881,-0.00313l0.29205,-0.77394c0.06528,-0.1862 0.24373,-0.32267 0.45779,-0.32917c0.1995,-0.00605 0.37535,0.10243 0.46075,0.26444l0.26033,0.4693l-0.17353,0.0911c0.45975,0.97728 0.29433,2.02853 0.33462,3.28471c0.13867,4.32373 -1.54736,8.6566 -3.63831,12.45706c-1.29978,5.87548 0.53035,13.50943 -3.61997,17.68867c-3.49728,5.11397 -3.58632,10.75989 -9.60131,12.94964c-0.81043,0.28892 -19.31853,43.30073 -19.19793,47.06117l-2.64588,-12.64644c0,0 -2.92204,1.78225 -5.42082,1.85807z" fill="#000000" stroke="none" stroke-width="0.5" stroke-linecap="butt"/><path d="M189.79916,127.33333c0.42128,-0.00055 43.76012,-1.20256 44.89385,-1.33376c-1.05731,9.73886 -10.32519,17.54603 -21.84505,17.90545c-12.00479,0.37454 -22.03646,-6.30673 -23.0488,-16.57166z" data-paper-data="{&quot;index&quot;:null}" fill="#ff4242" stroke="none" stroke-width="2" stroke-linecap="butt"/><path d="M195.59414,120.87401c-0.28465,-9.12364 6.88076,-16.75056 16.00439,-17.03521c9.12364,-0.28465 16.75056,6.88077 17.03521,16.0044c0.28465,9.12364 -6.88077,16.75056 -16.0044,17.03521c-9.12364,0.28465 -16.75055,-6.88077 -17.0352,-16.0044z" fill="#000000" stroke="none" stroke-width="0" stroke-linecap="butt"/><path d="M288.79556,123.8636c-0.36518,10.47813 -9.95723,17.88728 -21.96202,18.26182c-11.51986,0.35941 -21.26027,-6.97901 -22.92762,-16.79332c1.13975,0.06185 44.46916,-1.44259 44.88965,-1.46852z" data-paper-data="{&quot;index&quot;:null}" fill="#ff4242" stroke="none" stroke-width="2" stroke-linecap="butt"/><path d="M266.63632,135.19342c-9.12363,0.28465 -16.75055,-6.88077 -17.0352,-16.0044c-0.28465,-9.12364 6.88077,-16.75056 16.00439,-17.03521c9.12363,-0.28465 16.75055,6.88077 17.0352,16.0044c0.28465,9.12364 -6.88077,16.75056 -16.00439,17.03521z" data-paper-data="{&quot;index&quot;:null}" fill="#000000" stroke="none" stroke-width="0" stroke-linecap="butt"/><path d="M216.46793,121.53862c0.08365,2.68122 -1.86227,4.9176 -4.34635,4.99511c-2.48407,0.0775 -4.56562,-2.03323 -4.64928,-4.71445c-0.08365,-2.68122 1.86227,-4.91761 4.34635,-4.99512c2.48407,-0.0775 4.56562,2.03323 4.64928,4.71446z" fill="none" stroke="#ff0000" stroke-width="2.5" stroke-linecap="butt"/><path d="M271.14225,119.40403c0.08365,2.68122 -1.86227,4.91761 -4.34635,4.99512c-2.48407,0.0775 -4.56562,-2.03323 -4.64928,-4.71446c-0.08365,-2.68122 1.86227,-4.91761 4.34635,-4.99512c2.48407,-0.0775 4.56562,2.03323 4.64928,4.71446z" fill="none" stroke="#ff0000" stroke-width="2.5" stroke-linecap="butt"/><path d="M188.14099,121.38231c-0.40439,-12.96169 9.80871,-23.7981 22.81158,-24.20378c9.52753,-0.29725 18.51091,4.01088 22.58546,13.42843c0.16287,0.37643 1.04792,0.27674 1.18787,0.73693c1.13711,3.73929 0.80925,10.42763 0.90549,13.51232c0,0 -47.47601,-3.01272 -47.4904,-3.47391z" fill="url(#color-23)" stroke="none" stroke-width="0" stroke-linecap="butt"/><path d="M289.72455,118.05195c0.01439,0.46119 -47.1315,6.42604 -47.1315,6.42604c-0.10808,-3.46434 -0.06929,-10.8308 1.19848,-14.35195c3.47556,-9.65312 12.16437,-14.5126 21.68184,-14.80954c12.98915,-0.40525 23.84677,9.77376 24.25117,22.73546z" data-paper-data="{&quot;index&quot;:null}" fill="url(#color-24)" stroke="none" stroke-width="0" stroke-linecap="butt"/><g stroke="none" stroke-width="0" stroke-linecap="butt"><path d="M212.87971,122.35786c-0.11217,0.00517 2.52121,-7.64783 3.0427,-8.82335c1.39742,-3.15004 2.69754,-6.33218 4.03471,-9.50751c0.6911,-1.64114 1.25752,-3.16013 2.06684,-4.53366c1.63088,0.70111 3.16808,1.58217 4.58579,2.61888c-0.78454,1.64573 -6.23752,18.62104 -6.86031,20.149c-1.31137,3.21736 -6.86973,0.09664 -6.86973,0.09664z" fill="url(#color-25)"/><path d="M212.02994,97.60704c0.28808,-0.00899 0.5751,-0.01274 0.86098,-0.01136c-1.19069,1.94123 -1.87772,5.0467 -2.3093,6.79649c-0.08348,0.33844 -0.17054,0.67572 -0.2608,1.01197c-0.80202,2.98794 -4.09365,15.94372 -4.49895,17.15166c-1.42185,0.19597 -10.42555,-1.34584 -12.463,-0.75821c0.31465,-0.62353 5.52728,-9.53007 7.1894,-12.59519c1.65845,-3.05837 3.13065,-6.21345 4.76021,-9.28909c0.21576,-0.44284 0.4186,-0.87903 0.61766,-1.30667c1.93737,-0.58812 3.98336,-0.93343 6.10379,-0.99959z" fill="url(#color-26)"/></g><g data-paper-data="{&quot;index&quot;:null}" stroke="none" stroke-width="0" stroke-linecap="butt"><path d="M257.74416,121.11337c-0.71682,-1.48617 -7.21739,-18.08854 -8.103,-19.68216c1.35032,-1.12307 2.82961,-2.09824 4.41361,-2.89965c0.89337,1.3204 1.55338,2.80113 2.34544,4.396c1.53251,3.0858 3.02847,6.18071 4.61954,9.23751c0.59376,1.14072 3.69909,8.61468 3.58681,8.61652c0,0 -5.35302,3.46115 -6.8624,0.3318z" fill="url(#color-27)"/><path d="M263.91175,96.02594c2.12043,-0.06616 4.18396,0.15094 6.15423,0.61715c0.22533,0.41439 0.45498,0.83709 0.69792,1.26562c1.81812,2.96808 3.48414,6.02524 5.33002,8.97428c1.84996,2.95555 7.60767,11.51983 7.96057,12.12252c-2.07012,-0.45948 -10.96019,1.64061 -12.39149,1.53365c-0.47981,-1.18032 -4.57267,-13.9057 -5.5594,-16.83783c-0.11104,-0.32998 -0.21896,-0.66117 -0.32338,-0.99375c-0.53982,-1.71948 -1.4191,-4.77608 -2.72849,-6.63931c0.28524,-0.01919 0.57194,-0.03334 0.86002,-0.04233z" fill="url(#color-28)"/></g><path d="M223.77145,141.30153c0,0 5.78831,-3.95467 7.51218,-6.11409c1.43069,-1.79218 2.64048,-6.96415 2.64048,-6.96415c0,0 3.15673,-1.11047 5.40594,-1.06962c2.15915,0.03922 5.15099,0.94897 5.15099,0.94897c0,0 1.61754,3.51412 3.0832,5.69434c0.70378,1.04689 1.79446,1.602 1.85801,1.66046c1.87196,1.72206 5.09306,4.27689 5.09306,4.27689c0,0 -11.84976,-4.71903 -15.04026,-4.61949c-4.75611,0.14839 -15.7036,6.18669 -15.7036,6.18669z" fill="url(#color-29)" stroke="none" stroke-width="0" stroke-linecap="butt"/><g stroke-width="1" stroke-linecap="round"><path d="M279.3049,153.25892l2.99822,6.30957" fill="url(#color-30)" stroke="url(#color-31)"/><path d="M286.81356,156.62641l-1.96128,-5.14134" fill="url(#color-32)" stroke="url(#color-33)"/></g><g data-paper-data="{&quot;index&quot;:null}" fill="none" stroke-width="1" stroke-linecap="round"><path d="M192.13459,160.38071l2.59906,-6.4842" stroke="url(#color-34)"/><path d="M199.41873,156.5517l-1.63697,5.2536" stroke="url(#color-35)"/></g><g stroke="none" stroke-width="0" stroke-linecap="butt"><g><path d="M212.8815,154.54317c-0.59395,0.65091 -3.43008,5.54289 -3.43008,5.54289c0,0 -3.1839,-5.38122 -3.87858,-6.09692c1.41893,-0.08387 6.34513,0.55827 7.30866,0.55402z" data-paper-data="{&quot;index&quot;:null}" fill="url(#color-36)"/><path d="M219.49234,154.98318c-0.56909,0.66753 -3.21887,5.63746 -3.21887,5.63746c0,0 -3.38723,-5.28469 -4.10887,-5.97971c1.41539,-0.12483 6.36462,0.37436 7.32774,0.34225z" data-paper-data="{&quot;index&quot;:null}" fill="url(#color-37)"/></g><g><path d="M225.85462,155.24888c-0.53682,0.68748 -2.94719,5.748 -2.94719,5.748c0,0 -3.63858,-5.15456 -4.39314,-5.82239c1.40867,-0.17633 6.37926,0.1416 7.34033,0.07437z" data-paper-data="{&quot;index&quot;:null}" fill="url(#color-38)"/><path d="M232.48886,155.25526c-0.51059,0.70243 -2.72831,5.82843 -2.72831,5.82843c0,0 -3.83318,-5.04508 -4.61288,-5.69053c1.4016,-0.21691 6.38291,-0.04296 7.34119,-0.13792z" data-paper-data="{&quot;index&quot;:null}" fill="url(#color-39)"/></g><g><path d="M239.39445,155.32024c-0.51824,0.69818 -2.79196,5.80583 -2.79196,5.80583c0,0 -3.77729,-5.07734 -4.54981,-5.72932c1.4038,-0.2052 6.38258,0.01044 7.34178,-0.07649z" data-paper-data="{&quot;index&quot;:null}" fill="url(#color-40)"/><path d="M246.02836,155.19029c-0.49162,0.71259 -2.57094,5.88172 -2.57094,5.88172c0,0 -3.96893,-4.96391 -4.76597,-5.59302c1.39564,-0.24561 6.38127,-0.1741 7.33691,-0.28869z" data-paper-data="{&quot;index&quot;:null}" fill="url(#color-41)"/></g><g><g data-paper-data="{&quot;index&quot;:null}"><path d="M272.52027,152.27565c-0.64872,0.75761 -3.49098,6.32684 -3.49098,6.32684c0,0 -3.13558,-4.70568 -3.76894,-5.31829c0.96193,-0.05581 5.83851,-1.00381 7.25992,-1.00854z" data-paper-data="{&quot;index&quot;:null}" fill="url(#color-42)"/><path d="M265.98195,153.33708c-0.67693,0.73864 -3.72813,6.22422 -3.72813,6.22422c0,0 -2.95442,-4.79508 -3.56402,-5.42584c0.96325,-0.02799 5.87174,-0.83473 7.29214,-0.79838z" data-paper-data="{&quot;index&quot;:null}" fill="url(#color-43)"/></g><g data-paper-data="{&quot;index&quot;:null}"><path d="M259.67787,154.26541c-0.71147,0.71355 -4.02164,6.08492 -4.02164,6.08492c0,0 -2.72114,-4.90042 -3.29977,-5.5531c0.9634,0.00718 5.9045,-0.61999 7.32142,-0.53181z" data-paper-data="{&quot;index&quot;:null}" fill="url(#color-44)"/><path d="M253.07103,154.89717c-0.73794,0.69279 -4.24917,5.96702 -4.24917,5.96702c0,0 -2.53294,-4.97778 -3.08633,-5.64702c0.96233,0.03503 5.92312,-0.44911 7.33551,-0.31999z" data-paper-data="{&quot;index&quot;:null}" fill="url(#color-45)"/></g></g></g><g stroke="none" stroke-width="0" stroke-linecap="butt"><g><g><path d="M208.89475,196.10192c0.5566,-0.75761 2.99531,-6.32683 2.99531,-6.32683c0,0 2.20302,6.54246 2.74645,7.15507c-0.82535,0.05581 -4.52218,-0.83299 -5.74176,-0.82824z" data-paper-data="{&quot;index&quot;:null}" fill="url(#color-46)"/><path d="M214.37472,196.86428c0.58081,-0.73864 3.19879,-6.22421 3.19879,-6.22421c0,0 2.4821,6.1613 3.00515,6.79205c-0.82648,0.02799 -4.9852,-0.53148 -6.20393,-0.56784z" data-paper-data="{&quot;index&quot;:null}" fill="url(#color-47)"/></g><g><path d="M220.46234,197.64106c0.50286,-0.79532 2.5496,-6.52279 2.5496,-6.52279c0,0 2.65383,6.36354 3.23883,6.93512c-0.8199,0.11506 -4.57149,-0.50486 -5.78844,-0.41233z" data-paper-data="{&quot;index&quot;:null}" fill="url(#color-48)"/><path d="M225.98489,198.00655c0.52832,-0.77816 2.75983,-6.43513 2.75983,-6.43513c0,0 2.90587,5.96346 3.47179,6.55461c-0.82297,0.0874 -5.01268,-0.17096 -6.23162,-0.11947z" data-paper-data="{&quot;index&quot;:null}" fill="url(#color-49)"/></g></g><g><path d="M232.4007,198.03344c0.44939,-0.82751 2.11365,-6.6789 2.11365,-6.6789c0,0 3.07041,6.16369 3.69226,6.69357c-0.81089,0.17089 -4.59715,-0.19029 -5.80591,-0.01468z" data-paper-data="{&quot;index&quot;:null}" fill="url(#color-50)"/><path d="M237.93808,198.01963c0.47594,-0.81213 2.32932,-6.60589 2.32932,-6.60589c0,0 3.29556,5.74748 3.89963,6.29818c-0.81579,0.14353 -5.01548,0.17287 -6.22895,0.3077z" data-paper-data="{&quot;index&quot;:null}" fill="url(#color-51)"/></g><g><path d="M244.07998,197.93493c0.39098,-0.85728 1.64513,-6.81028 1.64513,-6.81028c0,0 3.49323,5.92349 4.15075,6.40697c-0.79747,0.22873 -4.60164,0.14123 -5.79588,0.40332z" data-paper-data="{&quot;index&quot;:null}" fill="url(#color-52)"/><path d="M249.60585,197.52254c0.41855,-0.84387 1.86547,-6.75303 1.86547,-6.75303c0,0 3.689,5.49236 4.33023,5.99787c-0.80424,0.2018 -4.99392,0.53339 -6.1957,0.75517z" data-paper-data="{&quot;index&quot;:null}" fill="url(#color-53)"/></g><g><path d="M255.69629,196.93584c0.32917,-0.8833 1.15706,-6.90941 1.15706,-6.90941c0,0 3.90785,5.6469 4.59846,6.08037c-0.77958,0.28674 -4.58233,0.47982 -5.75552,0.82904z" data-paper-data="{&quot;index&quot;:null}" fill="url(#color-54)"/><path d="M261.1817,196.11764c0.35764,-0.87197 1.38103,-6.86859 1.38103,-6.86859c0,0 4.07254,5.20276 4.74846,5.65938c-0.78827,0.26041 -4.94592,0.8996 -6.1295,1.2092z" data-paper-data="{&quot;index&quot;:null}" fill="url(#color-55)"/></g></g></g></g></svg>