<svg version="1.1" xmlns="http://www.w3.org/2000/svg" xmlns:xlink="http://www.w3.org/1999/xlink" width="322.47037" height="293.45372" viewBox="0,0,322.47037,293.45372"><defs><linearGradient x1="240.0002" y1="175.50002" x2="240.0002" y2="307.50002" gradientUnits="userSpaceOnUse" id="color-1"><stop offset="0" stop-color="#000000"/><stop offset="1" stop-color="#944ca6"/></linearGradient><linearGradient x1="248.17001" y1="222.42846" x2="248.17001" y2="251.30318" gradientUnits="userSpaceOnUse" id="color-2"><stop offset="0" stop-color="#000000"/><stop offset="1" stop-color="#44b1ea"/></linearGradient><linearGradient x1="248.27711" y1="231.82771" x2="248.27711" y2="240.12458" gradientUnits="userSpaceOnUse" id="color-3"><stop offset="0" stop-color="#000000"/><stop offset="1" stop-color="#000000"/></linearGradient><linearGradient x1="241.1529" y1="224.23932" x2="241.1529" y2="254.1966" gradientUnits="userSpaceOnUse" id="color-4"><stop offset="0" stop-color="#000000"/><stop offset="1" stop-color="#5db2df"/></linearGradient><linearGradient x1="241.19248" y1="233.82859" x2="241.19248" y2="242.64269" gradientUnits="userSpaceOnUse" id="color-5"><stop offset="0" stop-color="#000000"/><stop offset="1" stop-color="#000000"/></linearGradient><linearGradient x1="245.41599" y1="215.56383" x2="245.41599" y2="235.08335" gradientUnits="userSpaceOnUse" id="color-6"><stop offset="0" stop-color="#000000"/><stop offset="1" stop-color="#5db2df"/></linearGradient><linearGradient x1="240.89945" y1="194.69356" x2="240.89945" y2="236.75297" gradientUnits="userSpaceOnUse" id="color-7"><stop offset="0" stop-color="#000000"/><stop offset="1" stop-color="#62bbeb"/></linearGradient><linearGradient x1="239.75003" y1="14.41667" x2="239.75003" y2="75.91667" gradientUnits="userSpaceOnUse" id="color-8"><stop offset="0" stop-color="#000000"/><stop offset="1" stop-color="#824591"/></linearGradient><linearGradient x1="240.20209" y1="14.0463" x2="240.20209" y2="29.49694" gradientUnits="userSpaceOnUse" id="color-9"><stop offset="0" stop-color="#000000"/><stop offset="1" stop-color="#ababab"/></linearGradient><linearGradient x1="248.72741" y1="14.06617" x2="248.72741" y2="29.51681" gradientUnits="userSpaceOnUse" id="color-10"><stop offset="0" stop-color="#000000"/><stop offset="1" stop-color="#c6c6c6"/></linearGradient><linearGradient x1="234.7887" y1="14.06617" x2="234.7887" y2="29.51681" gradientUnits="userSpaceOnUse" id="color-11"><stop offset="0" stop-color="#000000"/><stop offset="1" stop-color="#c6c6c6"/></linearGradient><linearGradient x1="225.88621" y1="29.64175" x2="225.88621" y2="43.44799" gradientUnits="userSpaceOnUse" id="color-12"><stop offset="0" stop-color="#000000"/><stop offset="1" stop-color="#ababab"/></linearGradient><linearGradient x1="254.53286" y1="29.64175" x2="254.53286" y2="43.44799" gradientUnits="userSpaceOnUse" id="color-13"><stop offset="0" stop-color="#000000"/><stop offset="1" stop-color="#ababab"/></linearGradient><linearGradient x1="240.16986" y1="38.25855" x2="240.16986" y2="43.42348" gradientUnits="userSpaceOnUse" id="color-14"><stop offset="0" stop-color="#000000"/><stop offset="1" stop-color="#ababab"/></linearGradient><linearGradient x1="239.78036" y1="74.2106" x2="239.78036" y2="195.7106" gradientUnits="userSpaceOnUse" id="color-15"><stop offset="0" stop-color="#000000"/><stop offset="1" stop-color="#9c57ad"/></linearGradient><linearGradient x1="239.53654" y1="84.21059" x2="239.53654" y2="184.53035" gradientUnits="userSpaceOnUse" id="color-16"><stop offset="0" stop-color="#45254d"/><stop offset="1" stop-color="#9244a6"/></linearGradient><linearGradient x1="239.53654" y1="84.21059" x2="239.53654" y2="184.53035" gradientUnits="userSpaceOnUse" id="color-17"><stop offset="0" stop-color="#000000"/><stop offset="1" stop-color="#69257a"/></linearGradient><linearGradient x1="194.19109" y1="174.74925" x2="194.19109" y2="182.08259" gradientUnits="userSpaceOnUse" id="color-18"><stop offset="0" stop-color="#000000"/><stop offset="1" stop-color="#9032a7"/></linearGradient><linearGradient x1="287.19097" y1="175.74924" x2="287.19097" y2="183.08258" gradientUnits="userSpaceOnUse" id="color-19"><stop offset="0" stop-color="#000000"/><stop offset="1" stop-color="#9032a7"/></linearGradient><linearGradient x1="192.69108" y1="84.91591" x2="192.69108" y2="92.24925" gradientUnits="userSpaceOnUse" id="color-20"><stop offset="0" stop-color="#000000"/><stop offset="1" stop-color="#9032a7"/></linearGradient><linearGradient x1="287.02432" y1="84.24925" x2="287.02432" y2="91.58259" gradientUnits="userSpaceOnUse" id="color-21"><stop offset="0" stop-color="#000000"/><stop offset="1" stop-color="#9032a7"/></linearGradient><linearGradient x1="238.03468" y1="167.36737" x2="238.26354" y2="178.12371" gradientUnits="userSpaceOnUse" id="color-22"><stop offset="0" stop-color="#000000"/><stop offset="1" stop-color="#ffffff"/></linearGradient><linearGradient x1="240.44519" y1="130.53587" x2="240.44519" y2="150.78587" gradientUnits="userSpaceOnUse" id="color-23"><stop offset="0" stop-color="#000000" stop-opacity="0"/><stop offset="1" stop-color="#000000"/></linearGradient></defs><g transform="translate(-90.85994,-14.0463)"><g data-paper-data="{&quot;isPaintingLayer&quot;:true}" fill-rule="nonzero" stroke-linejoin="miter" stroke-miterlimit="10" stroke-dasharray="" stroke-dashoffset="0" style="mix-blend-mode: normal"><path d="M206.75021,307.50001l15.14285,-131.8421l37.78325,-0.15789l13.57389,132z" fill="url(#color-1)" stroke="none" stroke-width="0" stroke-linecap="butt"/><g stroke="none" stroke-width="0"><g><path d="M254.6149,235.0049c2.02366,6.34669 -0.78435,16.08162 -1.45194,16.29448c-0.55373,0.17656 -8.50598,-5.82868 -10.61611,-12.44654c-2.53062,-7.93661 -1.88056,-15.23189 1.45194,-16.29447c3.3325,-1.06258 8.0855,4.50992 10.61611,12.44653z" fill="url(#color-2)" stroke-linecap="butt"/><path d="M246.74876,231.82771l3.05667,8.29687" fill="url(#color-3)" stroke-linecap="round"/></g><g><path d="M247.35389,240.01011c-0.82264,6.61051 -7.45218,14.27229 -8.14753,14.18576c-0.57674,-0.07178 -5.27998,-8.85702 -4.42219,-15.74999c1.02873,-8.26653 4.67649,-14.61772 8.14753,-14.18577c3.47103,0.43195 5.45091,7.48347 4.42219,15.75z" fill="url(#color-4)" stroke-linecap="butt"/><path d="M241.54353,233.82859l-0.70209,8.8141" fill="url(#color-5)" stroke-linecap="round"/></g><path d="M255.17575,225.32359c0,5.39016 -4.3696,9.75976 -9.75976,9.75976c-5.39016,0 -9.75976,-4.3696 -9.75976,-9.75976c0,-5.39016 4.3696,-9.75976 9.75976,-9.75976c5.39016,0 9.75976,4.3696 9.75976,9.75976z" fill="url(#color-6)" stroke-linecap="butt"/></g><path d="M216.96161,194.69356l46.78867,1.9676c0,0 -1.49345,22.64716 -6.99073,31.65896c-0.65889,1.08012 -13.40692,-5.88778 -13.85878,-5.75392c-0.35969,0.10655 -12.11594,14.18807 -12.14081,14.18676c-0.10439,-0.0055 -12.12561,-26.82656 -12.97637,-30.78935c-1.53592,-7.15421 -0.82199,-11.27005 -0.82199,-11.27005z" fill="url(#color-7)" stroke="none" stroke-width="0" stroke-linecap="butt"/><g data-paper-data="{&quot;index&quot;:null}" fill="#000000" stroke="none" stroke-width="0" stroke-linecap="butt"><path d="M383.68757,70.14794c0,0 -13.82118,7.65312 -28.82047,15.04327c-14.1782,6.98561 -29.43615,13.67589 -34.15718,15.47606c-9.83288,3.74937 -19.05644,6.40815 -25.2015,6.90131c-4.37137,0.35082 -7.28594,-1.02163 -7.29852,-1.04965c-1.84761,-4.11778 0.23617,-32.45105 0.23617,-32.45105c0,0 20.53147,-2.17582 31.97594,-7.31085c2.09258,-0.93893 16.34957,-6.2199 28.66456,-12.43116c11.47467,-5.78744 21.13329,-12.56498 21.13329,-12.56498l13.46772,28.38703z"/><path d="M396.29073,29.63798c8.84199,2.08787 12.91536,8.22206 13.0307,8.47909c4.67251,10.41366 -5.81325,26.90411 -14.79923,30.93604c-8.98598,4.03193 -35.89417,4.68518 -40.5667,-5.72849c-4.67252,-10.41366 14.66002,-27.95079 23.64601,-31.98272c3.23152,-1.44996 13.39782,-2.95339 18.68922,-1.70392z"/><path d="M396.13998,65.62393c3.41373,0.40696 16.76876,-0.61336 17.19,2.15033c0.03259,0.21384 -2.32884,4.87261 -6.17821,7.21235c-4.3438,2.64026 -10.34411,2.96972 -12.45203,2.71842c-3.9759,-0.47399 -20.07657,-3.66824 -19.67885,-7.00436c0.39771,-3.33611 17.1432,-5.55075 21.1191,-5.07676z"/></g><path d="M175.50003,75.91667v-61.5h128.5v61.5z" fill="url(#color-8)" stroke="none" stroke-width="0" stroke-linecap="butt"/><g stroke="none" stroke-linecap="butt"><g><path d="M222.36698,29.49694v-15.45064h35.67021v15.45064z" fill="url(#color-9)" stroke-width="2"/><g stroke-width="0"><path d="M257.974,14.06617v1.59134c-0.55761,0.7044 -1.11141,1.41036 -1.67799,2.10559c-1.84967,2.26962 -7.62269,10.15394 -8.79728,11.75371h-8.01798c0.43756,-0.51406 15.07093,-15.15693 15.35919,-15.45064z" fill="url(#color-10)"/><path d="M222.30386,29.5168v-6.42332c2.07615,-1.99802 8.41154,-7.94528 9.57654,-9.02731h15.39317c-0.164,0.14757 -0.32894,0.29569 -0.49542,0.4441c-2.20178,1.96293 -14.0614,14.18009 -14.74885,15.00654z" fill="url(#color-11)"/></g><path d="M222.36698,29.49694v-15.45064h35.67021v15.45064z" fill="none" stroke-width="2"/></g><path d="M222.39416,43.44799v-13.80624h6.9841v13.80624z" fill="url(#color-12)" stroke-width="2"/><path d="M251.04081,43.44799v-13.80624h6.9841v13.80624z" fill="url(#color-13)" stroke-width="2"/><path d="M222.33476,43.42348v-5.16493h35.6702v5.16493z" fill="url(#color-14)" stroke-width="2"/></g><g data-paper-data="{&quot;index&quot;:null}" fill="#000000" stroke="none" stroke-width="0" stroke-linecap="butt"><path d="M120.44365,72.43264l14.08683,-28.08494c0,0 9.50771,6.98767 20.85274,13.02528c12.17584,6.47976 26.31364,12.07203 28.38513,13.05661c11.32914,5.38471 31.80797,8.01012 31.80797,8.01012c0,0 1.46212,28.37214 -0.47533,32.44841c-0.01318,0.02773 -2.95716,1.33597 -7.31979,0.88938c-6.13277,-0.62778 -15.29582,-3.48812 -25.04414,-7.45217c-4.68042,-1.90325 -19.78803,-8.92642 -33.80967,-16.22119c-14.83366,-7.71721 -28.48374,-15.6715 -28.48374,-15.6715z"/><path d="M127.37903,33.76937c8.89544,4.22797 27.83884,22.18473 22.93915,32.49345c-4.89971,10.30872 -31.78711,9.0657 -40.68253,4.83774c-8.89542,-4.22796 -19.01712,-20.94434 -14.11742,-31.25306c0.12095,-0.25445 4.32783,-6.29785 13.21345,-8.19137c5.31753,-1.13316 15.44842,0.5928 18.64738,2.11325z"/><path d="M108.09342,67.6367c3.98535,-0.38671 20.67825,2.19452 21.00273,5.53856c0.32447,3.34404 -15.84235,6.18453 -19.82769,6.57124c-2.11293,0.20502 -8.10457,-0.25591 -12.38944,-2.99077c-3.79716,-2.42357 -6.05588,-7.13299 -6.01862,-7.34606c0.48173,-2.75379 13.81118,-1.44093 17.23301,-1.77296z"/></g><path d="M175.28036,195.7106v-121.5h129v121.5z" fill="url(#color-15)" stroke="none" stroke-width="0" stroke-linecap="butt"/><path d="M187.78036,184.53035v-100.31976h103.51235v100.31976z" fill="url(#color-16)" stroke="url(#color-17)" stroke-width="2" stroke-linecap="butt"/><path d="M198.19109,174.74925l-8,7.33334" fill="none" stroke="url(#color-18)" stroke-width="2" stroke-linecap="round"/><path d="M283.19097,175.74924l8,7.33334" data-paper-data="{&quot;index&quot;:null}" fill="none" stroke="url(#color-19)" stroke-width="2" stroke-linecap="round"/><g fill="none" stroke-width="2" stroke-linecap="round"><path d="M196.69108,92.24925l-8,-7.33334" data-paper-data="{&quot;index&quot;:null}" stroke="url(#color-20)"/><path d="M283.02432,91.58259l8,-7.33334" data-paper-data="{&quot;index&quot;:null}" stroke="url(#color-21)"/></g><path d="M189.39029,130.52563c0,-12.968 10.44341,-23.48065 23.326,-23.48065c12.88259,0 23.326,10.51265 23.326,23.48065c0,12.968 -10.44341,23.48065 -23.326,23.48065c-12.88259,0 -23.326,-10.51265 -23.326,-23.48065z" fill="#ff0000" stroke="none" stroke-width="2" stroke-linecap="butt"/><path d="M266.61735,154.00627c-12.88259,0 -23.326,-10.51265 -23.326,-23.48065c0,-12.968 10.44341,-23.48065 23.326,-23.48065c12.88259,0 23.326,10.51265 23.326,23.48065c0,12.968 -10.44341,23.48065 -23.326,23.48065z" data-paper-data="{&quot;index&quot;:null}" fill="#ff0000" stroke="none" stroke-width="2" stroke-linecap="butt"/><path d="M189.64358,133.28937c1.25206,0.04632 45.95431,0.61992 46.2126,0.64495c-0.51423,3.62466 -1.14834,6.55128 -3.04203,9.58497c-4.24825,6.80572 -11.74714,10.6473 -19.77722,10.6473c-11.87745,0 -22.06545,-8.72373 -23.39336,-20.87721z" data-paper-data="{&quot;index&quot;:null}" fill="#ff5d5d" stroke="none" stroke-width="2" stroke-linecap="butt"/><path d="M196.82581,125.75c0,-9.12808 7.35102,-16.52784 16.41897,-16.52784c9.06796,0 16.41898,7.39977 16.41898,16.52784c0,9.12808 -7.35103,16.52784 -16.41898,16.52784c-9.06796,0 -16.41897,-7.39977 -16.41897,-16.52784z" fill="#000000" stroke="none" stroke-width="0" stroke-linecap="butt"/><path d="M289.90618,132.93938c-1.32791,12.15348 -11.51591,20.87721 -23.39336,20.87721c-8.03008,0 -15.52897,-3.84158 -19.77722,-10.6473c-1.89369,-3.03369 -2.5278,-5.96031 -3.04203,-9.58497c0.25829,-0.02503 44.96054,-0.59863 46.2126,-0.64496z" data-paper-data="{&quot;index&quot;:null}" fill="#ff5d5d" stroke="none" stroke-width="2" stroke-linecap="butt"/><path d="M266.50552,142.19451c-9.06795,0 -16.41897,-7.39977 -16.41897,-16.52784c0,-9.12808 7.35103,-16.52784 16.41897,-16.52784c9.06795,0 16.41897,7.39977 16.41897,16.52784c0,9.12808 -7.35103,16.52784 -16.41897,16.52784z" data-paper-data="{&quot;index&quot;:null}" fill="#000000" stroke="none" stroke-width="0" stroke-linecap="butt"/><path d="M214.92917,124.75001c0,1.04934 -0.98497,1.9 -2.2,1.9c-1.21502,0 -2.2,-0.85066 -2.2,-1.9c0,-1.04934 0.98497,-1.9 2.2,-1.9c1.21502,0 2.2,0.85066 2.2,1.9z" fill="#ff0000" stroke="none" stroke-width="0" stroke-linecap="butt"/><path d="M267.99581,123.08334c0,1.04934 -0.98498,1.9 -2.2,1.9c-1.21503,0 -2.2,-0.85066 -2.2,-1.9c0,-1.04934 0.98497,-1.9 2.2,-1.9c1.21502,0 2.2,0.85066 2.2,1.9z" fill="#ff0000" stroke="none" stroke-width="0" stroke-linecap="butt"/><path d="M197.75003,56.86016c0,0.92047 -0.82081,1.66667 -1.83333,1.66667c-1.01252,0 -1.83333,-0.74619 -1.83333,-1.66667c0,-0.92047 0.82081,-1.66667 1.83333,-1.66667c1.01252,0 1.83333,0.74619 1.83333,1.66667z" fill="#000000" stroke="none" stroke-width="0" stroke-linecap="butt"/><g><g fill="url(#color-22)" stroke="none" stroke-width="0" stroke-linecap="butt"><path d="M271.17428,160.50773c0.02526,1.18753 -6.7714,9.85892 -14.59909,13.26449c-5.75419,2.50346 -15.39381,4.33397 -18.62245,4.35336c-2.03243,0.0122 -8.77149,-1.53286 -12.44395,-2.58738c-8.93263,-2.56492 -17.34968,-12.82586 -17.38312,-14.39715c-0.0068,-0.31989 6.41745,4.66479 18.95092,5.74957c1.14794,0.09936 17.14933,1.14142 28.85725,-0.63134c9.4877,-1.43658 15.24044,-5.75155 15.24044,-5.75155z"/></g><path d="M218.22501,171.81357l3.25,-2.75l2.5,3.125l2.75,-2.625l3.5,3.5l2.375,-3.25l3.375,3.375l3.125,-3.25l2.875,2.875l3.75,-3.375l3.125,3.875l4.125,-3.75l3,2.625l3.25,-3.25l2.125,2.125" fill="none" stroke="#000000" stroke-width="0.5" stroke-linecap="round"/></g><path d="M185.10049,92.85807c-0.15529,-1.65636 -0.35152,-3.31082 -0.53535,-4.97669c-0.36274,-3.28702 -1.36888,-6.97905 -2.59978,-10.05353c-0.80841,-2.01921 -1.68913,-3.88399 -2.99862,-5.4841c-0.31868,0.03449 -0.5807,0.10367 -0.7559,0.21921c-0.74247,0.48963 -0.31411,3.43763 -0.31478,4.21038c-0.00046,3.39436 2.59392,6.41913 4.2965,9.233c1.10083,1.82997 2.27809,4.4338 2.90792,6.85173zM179.19948,71.84284c1.58956,-0.07792 3.92999,0.41271 4.86992,0.59579c3.5036,-0.0082 7.001,-0.09208 10.48874,0.2523c3.49972,0.34556 6.97618,0.24975 10.47248,0.48275c3.49159,0.2327 6.98349,0.46151 10.47681,0.66701c3.49337,0.20551 6.98549,0.44371 10.47972,0.63299c3.50038,0.18963 6.97284,0.29712 10.47842,0.29707c3.49974,-0.00005 6.99938,-0.0028 10.4991,-0.01512c3.48585,-0.01226 6.97946,-0.35458 10.43817,-0.75755c3.47917,-0.40536 6.99082,-0.50681 10.48717,-0.71309c3.48196,-0.20543 6.99441,-0.30249 10.45734,-0.72222c3.48764,-0.42272 6.96523,-0.6877 10.47139,-0.90804c3.49968,-0.21994 6.99252,-0.20356 10.48149,-0.54994c0.5694,0.00021 2.79158,-0.31846 3.18968,0.0824c0.2765,0.27841 0.07261,1.78045 0.07261,2.17617c0,1.83329 -0.0007,3.66658 0.00027,5.49987c0.00185,3.48689 0.0731,6.98311 0.48941,10.44139c0.41969,3.48627 0.51032,6.97986 0.51031,10.49459c0,3.3161 0.69244,7.45413 -0.94177,10.45512c-0.4577,0.83545 -2.25319,3.18209 -3.48651,1.93037c-0.20639,-0.20948 -0.07172,-1.37246 -0.07175,-1.67524c-0.00016,-1.66165 0.02754,-3.32511 -0.06567,-4.9844c-0.03078,-0.57849 -1.0216,-5.01874 -2.15628,-3.53544c-0.46772,0.61142 0.05556,3.97634 0.05634,4.84294c0.00326,3.61674 0.33922,6.78683 1.46222,10.23965c1.05207,3.23474 3.44946,6.59391 2.26662,10.11671c-0.8601,2.52613 -2.19597,3.75006 -4.81759,3.74847c-0.3231,-0.00019 -1.45326,0.07474 -1.68039,-0.17448c-0.3336,-0.36605 -0.06522,-2.16745 -0.06524,-2.66839c-0.00009,-3.3946 0.39139,-7.0945 -0.27659,-10.43019c-0.71844,-3.5877 -3.20097,-5.94499 -4.11895,-9.45669c-1.09762,-3.28974 -1.76364,-6.70667 -4.50873,-8.9487c-3.60209,0.12514 -6.16368,1.90799 -9.26448,3.77581c-1.74001,1.03084 -5.11212,0.76554 -7.06838,0.44971c-0.46625,-0.07528 -1.77828,-0.33661 -2.05504,-0.7573c-0.18423,-0.28002 -0.04115,-1.29175 -0.04115,-1.63741c-0.00001,-3.44714 0.28098,-7.03344 -0.28792,-10.43789c-0.42592,-2.54882 -1.20376,-8.10883 -4.73162,-8.03964c-3.12568,0.03856 -6.73221,2.72198 -8.61687,5.08418c-2.12504,2.65984 -4.13362,5.66966 -4.6445,9.10706c-0.51128,3.41916 -0.18824,6.99509 -0.27524,10.45219c-0.09697,3.66373 -1.46837,7.06925 -4.26773,9.43664c-1.0545,0.89117 -5.05453,2.37375 -5.82959,0.30588c-0.43784,-1.16817 -0.01358,-3.32107 -0.01497,-4.57917c-0.02084,-3.14862 -0.11854,-7.34465 -1.57076,-10.14977c-1.39149,-2.77706 -3.66223,-6.41765 -6.79366,-7.38182c-2.95432,-0.90963 -7.29751,-0.46765 -10.25663,0.28861c-3.19034,0.81007 -6.65061,2.65571 -9.2927,4.57751c-2.82961,2.05819 -5.22684,4.59293 -8.166,6.5755c-0.55266,0.37279 -0.78797,0.59844 -1.47413,0.59105c-2.45179,-0.02639 -2.52026,-1.07246 -3.01716,-3.25332c-0.05771,-0.25328 -0.07718,-1.63715 -0.32543,-1.75018c-0.36803,-0.16756 -1.27882,0.61573 -1.56538,0.7694c-2.9207,1.95629 -4.77567,5.71475 -8.68368,5.48752c-0.59022,-0.15373 -0.99358,-0.60089 -1.26393,-1.231c-0.09894,-0.00138 -0.17463,-0.07098 -0.17463,-0.07098l-0.41412,-0.49052c0,-3.49949 0.00309,-6.999 -0.0015,-10.49849c-0.03094,-2.88165 -1.7455,-7.07088 -3.29624,-9.61734c-1.75857,-2.9064 -4.36919,-5.98252 -4.36871,-9.49209c0.00089,-1.02097 -0.47177,-3.96064 0.53952,-4.62754c0.16739,-0.11039 0.39254,-0.18694 0.65871,-0.23647c-0.43141,-0.48074 -0.90718,-0.93507 -1.43795,-1.35969c0,0 -0.19522,-0.15618 -0.03905,-0.35139c0.15617,-0.19522 0.35139,-0.03904 0.35139,-0.03904c0.65032,0.52026 1.22125,1.08338 1.73078,1.68389z" fill="#000000" stroke="none" stroke-width="0.5" stroke-linecap="butt"/><path d="M299.31253,136.18751c0,1.01252 -1.04467,1.83333 -2.33333,1.83333c-1.28866,0 -2.33334,-0.82081 -2.33334,-1.83333c0,-1.01252 1.04467,-1.83334 2.33334,-1.83334c1.28866,0 2.33333,0.82082 2.33333,1.83334z" fill="#000000" stroke="none" stroke-width="0" stroke-linecap="butt"/><path d="M266.5,102.91667c0,2.76143 -1.79086,5 -4,5c-2.20914,0 -4,-2.23857 -4,-5c0,-2.76143 1.79086,-5 4,-5c2.20914,0 4,2.23857 4,5z" fill="#000000" stroke="none" stroke-width="0" stroke-linecap="butt"/><path d="M225.82019,150.78587c0,0 5.78765,-5.08781 7.44362,-8.52714c1.59146,-3.30534 3.05638,-11.72286 3.05638,-11.72286l6.625,-0.125c0,0 0.58338,4.22338 1.88863,8.16191c0.79952,2.41252 2.2604,4.71815 2.87716,5.88079c1.34217,2.53007 7.35921,6.3323 7.35921,6.3323c0,0 -9.48358,-2.625 -14.25,-2.625c-4.97466,0 -15,2.625 -15,2.625z" fill="url(#color-23)" stroke="none" stroke-width="0" stroke-linecap="butt"/></g></g></svg>