<svg version="1.1" xmlns="http://www.w3.org/2000/svg" xmlns:xlink="http://www.w3.org/1999/xlink" width="137.47405" height="329.93069" viewBox="0,0,137.47405,329.93069"><g transform="translate(-171.17327,21.43067)"><g data-paper-data="{&quot;isPaintingLayer&quot;:true}" fill-rule="nonzero" stroke-linejoin="miter" stroke-miterlimit="10" stroke-dasharray="" stroke-dashoffset="0" style="mix-blend-mode: normal"><path d="M206.75003,307.50001l15.14285,-131.8421l37.78325,-0.15789l13.57389,132z" fill="#e73d3d" stroke="#000000" stroke-width="2" stroke-linecap="butt"/><path d="M219.70026,204.11264l3.12142,-26.32765l35.83075,-0.14203l2.76735,26.1059c0,0 -7.51543,4.19603 -21.55904,4.50964c-12.48458,0.27879 -20.16049,-4.14586 -20.16049,-4.14586z" fill="#ae1a1a" stroke="#000000" stroke-width="0" stroke-linecap="butt"/><path d="M210.70833,265.86771l1.6684,-8.3c0,0 6.01131,5.05378 15.52014,6.71685c3.83089,0.67002 23.79867,0.38985 27.95137,-0.45865c8.14881,-1.665 11.57289,-7.04153 11.57289,-7.04153l1.62053,10.16667c0,0 -2.73946,1.50031 -9.94511,2.90649c-5.80637,1.13311 -30.64085,0.95799 -34.24581,0.36572c-9.47976,-1.55745 -14.14242,-4.35554 -14.14242,-4.35554z" fill="#e5e5e5" stroke="none" stroke-width="0" stroke-linecap="butt"/><path d="M206.75003,307.50001l15.14285,-131.8421l37.78325,-0.15789l13.57389,132z" fill="none" stroke="#000000" stroke-width="2" stroke-linecap="butt"/><g><g><g stroke-linecap="butt"><path d="M305.50493,119.47914c0,19.27264 -29.77416,26.02087 -66.50246,26.02087c-36.7283,0 -66.00246,-4.24822 -66.00246,-23.52086c0,-12.27296 13.91201,-59.80477 28.00492,-90.68972c5.56036,-12.18565 -11.20156,-51.86378 -10.25799,-51.29739c2.91945,1.75241 23.97754,21.05013 33.23641,28.68973c5.16159,4.25889 13.33817,13.37042 14.38575,13.37042c4.08757,0 9.7149,-7.25757 18.28356,-14.39612c9.01909,-7.51379 20.79112,-23.12559 21.09475,-22.83109c1.24195,1.20463 -7.68272,19.1655 -3.68529,34.94949c6.44919,25.4649 19.9167,61.58049 26.94914,82.95496c2.73266,8.30566 4.49365,14.38551 4.49365,16.74975z" fill="#f74848" stroke="#000000" stroke-width="2"/><path d="M192.95875,49.85053c1.5886,0.15116 3.1772,0.30233 4.7658,0.4535c6.90837,0.65738 13.74573,0.96127 20.68168,1.13052c6.89456,0.16824 13.78911,0.33649 20.68367,0.50473c6.90218,0.16842 13.7948,0.21688 20.6989,0.21747c6.89655,0.00059 13.79311,0.00118 20.68966,0.00178c0.99787,0.00008 1.98713,-0.0108 2.97002,-0.0324c4.8919,14.86387 10.25754,29.98004 14.44269,42.22639c-5.15639,0.18971 -10.32537,0.24445 -15.47676,0.39748c-6.89243,0.20475 -13.77366,0.40936 -20.66926,0.40825c-6.89655,-0.0011 -13.7931,-0.00221 -20.68965,-0.00332c-6.89603,-0.0011 -13.77372,-0.23435 -20.66563,-0.46782c-6.89139,-0.23345 -13.78321,-0.4501 -20.67244,-0.74232c-6.88336,-0.29197 -13.78301,-0.46912 -20.65784,-0.92235c-0.35237,-0.02323 -0.70349,-0.04736 -1.05346,-0.07198c3.81369,-12.98024 9.16746,-28.52361 14.95263,-43.09993z" fill="#e86500" stroke="none" stroke-width="0"/><path d="M201.00493,31.65025c1.96775,-4.37929 1.35585,-12.02083 -0.21449,-20.04176c-2.86706,-14.64429 -8.92901,-30.55321 -8.31936,-30.18158c2.91945,1.77961 22.64749,19.42897 31.90636,27.18715c5.16159,4.32499 11.95886,5.65557 13.00644,5.65557c0.54456,0 3.36159,0.7156 6.82974,-0.1461c3.81513,-0.94791 8.41818,-3.59441 11.65087,-6.32936c9.01909,-7.63042 23.30343,-25.35152 23.60706,-25.05245c1.24195,1.22334 -9.40686,21.18583 -5.40942,37.21482c2.3745,9.52137 5.70042,20.50898 9.30629,31.6758c-0.87528,0.01747 -1.75593,0.02626 -2.64357,0.02618c-6.89655,-0.0006 -13.79311,-0.00121 -20.68966,-0.00181c-6.89622,-0.0006 -13.78098,-0.0497 -20.6753,-0.22055c-6.89456,-0.17086 -13.78911,-0.3417 -20.68367,-0.51256c-6.91338,-0.17132 -13.72754,-0.47853 -20.61338,-1.14393c-1.49083,-0.14406 -2.98165,-0.28813 -4.47248,-0.43219c2.42741,-6.1722 4.92597,-12.15871 7.41459,-17.69723z" fill="#ff8800" stroke="none" stroke-width="0"/><path d="M305.83333,118.81247c0,19.27264 -29.77417,26.02087 -66.50246,26.02087c-36.7283,0 -67.00246,3.25178 -67.00246,-16.02086c0,-3.56792 1.26029,-10.74958 3.39434,-19.90115c5.20669,-22.32807 15.61467,-56.3823 25.61058,-78.28857c5.56036,-12.18565 -11.69418,-51.61378 -10.7506,-51.04739c2.25982,1.35646 25.65752,22.56232 39.22582,31.95408c3.96056,2.74143 9.24667,4.47626 10.24147,4.41696c0.9698,-0.0578 7.71648,-2.24188 11.68967,-5.49026c12.0581,-9.85839 29.30973,-29.51935 29.53811,-29.29784c1.24195,1.20463 -10.8847,22.1655 -6.88727,37.94949c8.95521,35.36001 31.44279,91.25615 31.44279,99.7047z" fill="none" stroke="#000000" stroke-width="2"/></g><path d="M211.66256,2.71328l10.34483,17.75" fill="none" stroke="#ffc482" stroke-width="1.5" stroke-linecap="round"/><path d="M265.84976,3.46328l-10.34483,17.75" data-paper-data="{&quot;index&quot;:null}" fill="none" stroke="#ffc482" stroke-width="1.5" stroke-linecap="round"/></g><path d="M301.39983,114.98606c0,13.94519 -59.69216,23.25 -83.49753,23.25c-23.80538,0 -43.10345,-11.30481 -43.10345,-25.25c0,-13.94519 40.97295,-57.25 64.77832,-57.25c3.36433,0 18.6942,-0.10709 32.55522,9.2509c13.38617,9.0374 20.37679,26.44123 24.34145,32.42187c3.69882,5.57962 4.92599,14.41199 4.92599,17.57723z" fill="#b34d00" stroke="none" stroke-width="NaN" stroke-linecap="butt"/></g><path d="M172.17327,132.3534c0,-17.33292 10.94013,-29.96891 24.56777,-40.8863c12.32605,-9.87466 26.48695,-14.91926 43.33592,-14.91926c21.6572,0 40.05338,4.14799 52.65745,19.52279c8.04293,9.81099 14.91291,23.7542 14.91291,36.6132c0,33.01037 -32.09323,56.96202 -67.57036,56.96202c-10.78843,0 -20.29477,-0.73994 -29.69293,-5.11243c-21.50712,-10.00618 -38.21076,-29.20795 -38.21076,-52.18001z" fill="#ffffff" stroke="#000000" stroke-width="2" stroke-linecap="butt"/><path d="M172.89634,132.07636c0,-0.72162 8.87332,53.03444 67.02712,54.04045c0.40941,0.00708 29.87263,-0.42348 46.52041,-14.66679c16.22981,-13.8857 19.65983,-39.86495 19.65983,-39.37366c0,7.21994 -0.86494,14.48307 -3.63151,20.90016c-4.57368,10.6087 -9.37099,15.96794 -19.51156,22.64867c-11.35189,7.47878 -29.06435,14.17314 -43.46061,14.17314c-10.41249,0 -19.31292,-1.61414 -28.43734,-5.78157c-21.57687,-9.85487 -38.16634,-29.087 -38.16634,-51.9404z" fill="#e6e6e6" stroke="#000000" stroke-width="0" stroke-linecap="butt"/><path d="M189.39015,130.77563c0,-12.968 10.51265,-23.48065 23.48065,-23.48065c12.968,0 23.48065,10.51265 23.48065,23.48065c0,12.968 -10.51265,23.48065 -23.48065,23.48065c-12.968,0 -23.48065,-10.51265 -23.48065,-23.48065z" fill="#ffffff" stroke="#000000" stroke-width="2" stroke-linecap="butt"/><path d="M196.45554,130.5c0,-9.12808 7.39976,-16.52784 16.52783,-16.52784c9.12808,0 16.52784,7.39977 16.52784,16.52784c0,9.12808 -7.39977,16.52784 -16.52784,16.52784c-9.12808,0 -16.52783,-7.39977 -16.52783,-16.52784z" fill="#000000" stroke="none" stroke-width="0" stroke-linecap="butt"/><path d="M257.45441,152.19998c-8.21821,-3.00278 -13.8058,-11.84996 -13.8058,-21.42435c0,-12.968 10.51265,-23.48065 23.48065,-23.48065c12.968,0 23.48065,10.51265 23.48065,23.48065c0,9.54202 -4.12033,17.65999 -12.29396,20.67947c-2.93467,1.08412 -17.94862,1.80921 -20.86154,0.74488z" data-paper-data="{&quot;index&quot;:null}" fill="#ffffff" stroke="#000000" stroke-width="2" stroke-linecap="butt"/><path d="M267.01668,147.02784c-9.12807,0 -16.52783,-7.39977 -16.52783,-16.52784c0,-9.12808 7.39977,-16.52784 16.52783,-16.52784c9.12807,0 16.52783,7.39977 16.52783,16.52784c0,9.12808 -7.39977,16.52784 -16.52783,16.52784z" data-paper-data="{&quot;index&quot;:null}" fill="#000000" stroke="none" stroke-width="0" stroke-linecap="butt"/><path d="M212.8708,107.29498c12.968,0 23.48065,10.51265 23.48065,23.48065c0,0 -2.83956,-3.31176 -7.82551,-6.67369c-3.37294,-2.27431 -8.63209,-4.93315 -11.19757,-5.22067c-2.95086,-0.33072 -8.88959,-0.8683 -11.68249,-0.46567c-10.07711,1.45274 -15.25573,7.13336 -15.25573,6.96003c0,0 1.03245,-4.3766 1.91544,-6.08552c1.08149,-2.09307 3.73884,-4.48466 4.87041,-5.65607c3.57598,-3.7019 11.18705,-6.33907 15.69481,-6.33907z" data-paper-data="{&quot;index&quot;:null}" fill="#ffffff" stroke="#000000" stroke-width="2" stroke-linecap="butt"/><path d="M214.19155,100.01055c3.9295,0.92235 11.96762,0.86207 11.96762,0.86207c0,0 -7.24586,1.8937 -12.33413,0.69937c-5.08826,-1.19433 -11.79721,-6.36355 -11.79721,-6.36355c0,0 8.05724,3.83822 12.16372,4.80211z" data-paper-data="{&quot;index&quot;:null}" fill="#000000" stroke="none" stroke-width="0" stroke-linecap="butt"/><path d="M278.12609,95.20845c0,0 -6.70895,5.16922 -11.79721,6.36355c-5.08827,1.19433 -12.33413,-0.69937 -12.33413,-0.69937c0,0 8.03812,0.06028 11.96762,-0.86207c4.10648,-0.96389 12.16372,-4.80211 12.16372,-4.80211z" data-paper-data="{&quot;index&quot;:null}" fill="#000000" stroke="none" stroke-width="0" stroke-linecap="butt"/><path d="M267.03812,156.17389l2,-0.14286" fill="none" stroke="#000000" stroke-width="2" stroke-linecap="round"/><path d="M269.01667,180.49093c0,0.52348 -19.00387,-4.67317 -28.74129,-4.59952c-9.41136,0.07118 -26.64442,4.14755 -26.64442,3.39c0,-7.04722 1.993,-13.67257 13.45742,-13.84512c2.42647,-0.03651 11.74537,2.25942 14.38296,2.25942c4.43029,0 12.03815,-2.76395 15.70699,-2.57001c8.83544,0.46712 11.83834,15.36523 11.83834,15.36523z" fill="#ffffff" stroke="#000000" stroke-width="2" stroke-linecap="butt"/><path d="M251.20932,148.43658c-1.13157,-1.17141 -3.78892,-3.563 -4.87041,-5.65607c-0.88299,-1.70892 -2.24877,-7.75219 -2.24877,-7.75219c0,-0.06566 0.91031,6.40162 8.55823,9.69057c3.44483,1.48143 11.85935,1.78662 15.72602,1.48327c2.87834,-0.22581 11.39148,-1.19093 14.12979,-2.83793c7.28458,-4.38142 7.8806,-12.06924 7.8806,-12.06924c0,12.968 -9.01265,21.48065 -21.98065,21.48065c-4.50775,0 -13.61883,-0.63717 -17.19481,-4.33907z" data-paper-data="{&quot;index&quot;:null}" fill="#ffffff" stroke="#000000" stroke-width="2" stroke-linecap="butt"/><path d="M290.18478,125.24231c0,0.01192 -2.76493,-3.20678 -6.03647,-5.78113c-3.12777,-2.46122 -6.69711,-4.26902 -9.67147,-4.84798c-3.781,-0.73597 -10.29192,-0.31142 -13.67494,0.27943c-6.50901,1.13682 -8.86899,3.56476 -10.03114,4.26375c-7.28458,4.38143 -6.88061,9.81924 -6.88061,9.81924c0,-12.968 9.01265,-21.48065 21.98065,-21.48065c3.50905,0 6.5206,-0.9615 11.62702,2.14766c0.56623,0.34476 3.96809,1.82207 6.70199,5.25244c3.30744,4.15002 5.98497,10.34723 5.98497,10.34723z" data-paper-data="{&quot;index&quot;:null}" fill="#ffffff" stroke="#000000" stroke-width="2" stroke-linecap="butt"/><path d="M268.7472,150.45176l4,-0.33333" fill="none" stroke="#000000" stroke-width="2" stroke-linecap="round"/><path d="M215.10624,173.60628l1,-3.14286l47.14286,0.28571l2.42857,2.85714c0,0 -14.73115,-0.28571 -21.42857,-0.28571c-9.29379,0 -29.14286,0.28571 -29.14286,0.28571z" fill="#000000" stroke="#000000" stroke-width="2" stroke-linecap="butt"/></g></g></svg>