<svg version="1.1" xmlns="http://www.w3.org/2000/svg" xmlns:xlink="http://www.w3.org/1999/xlink" width="204.58173" height="267.22501" viewBox="0,0,204.58173,267.22501"><defs><radialGradient cx="242.75" cy="92.87162" r="42.87838" gradientUnits="userSpaceOnUse" id="color-1"><stop offset="0" stop-color="#ffffff"/><stop offset="1" stop-color="#ffffff" stop-opacity="0"/></radialGradient></defs><g transform="translate(-134.57552,-46.38751)"><g data-paper-data="{&quot;isPaintingLayer&quot;:true}" fill-rule="nonzero" stroke-linejoin="miter" stroke-miterlimit="10" stroke-dasharray="" stroke-dashoffset="0" style="mix-blend-mode: normal"><path d="M284.5,92.87162c0,23.68108 -18.69211,42.87838 -41.75,42.87838c-23.05789,0 -41.75,-19.1973 -41.75,-42.87838c0,-23.68108 18.69211,-42.87837 41.75,-42.87837c23.05789,0 41.75,19.1973 41.75,42.87837z" fill="url(#color-1)" stroke="none" stroke-width="0" stroke-linecap="butt"/><path d="M179.28376,313.61252v-267.22501h123.18203v267.22501z" fill-opacity="0.01" fill="#000000" stroke="none" stroke-width="0" stroke-linecap="butt"/><path d="M206.75008,307.5l15.14285,-131.8421l37.78325,-0.15789l13.57389,132z" fill="#73214c" stroke="#000000" stroke-width="2" stroke-linecap="butt"/><path d="M218.9503,214.36263l3.87142,-36.57765l35.83075,-0.14203l3.76735,36.1059c0,0 -14.31001,4.17734 -21.1187,4.27348c-7.59503,0.10724 -22.35082,-3.6597 -22.35082,-3.6597z" fill="#5e1b3e" stroke="#000000" stroke-width="0" stroke-linecap="butt"/><path d="M299.54553,97.09596c-1.20178,5.6731 -23.31299,2.38714 -38.1711,-0.76036c-14.85811,-3.1475 -35.95751,-7.99299 -34.75573,-13.66609c1.20178,-5.6731 24.24963,-10.02552 39.10774,-6.87802c14.85811,3.1475 35.02087,15.63136 33.81909,21.30446z" fill="#ffffff" stroke="#000000" stroke-width="2" stroke-linecap="butt"/><g stroke-linecap="butt"><g><path d="M136.46566,191.05133c0,0 27.91372,-16.68951 34.01631,-28.77121c9.56611,-18.93871 24.84022,-80.07437 31.60324,-95.59944c0.32097,-0.73683 30.39159,10.79283 62.23567,17.31206c32.14261,6.58033 66.31648,8.96364 66.31648,8.96364c0,0 -13.06574,74.86565 -12.80753,99.77921c0.15682,15.13004 20.81288,38.83984 20.28693,38.71074c-2.75484,-0.67615 -22.19722,-14.0699 -56.01027,-20.51215c-13.845,-2.63782 -30.42514,-0.11279 -45.09352,-3.39521c-15.46266,-3.46015 -34.18166,-14.75019 -47.77921,-17.51897c-29.41679,-5.98996 -52.76812,1.03131 -52.76812,1.03131z" fill="#d21869" stroke="#000000" stroke-width="2"/><path d="M202.18003,66.39328c0.32097,-0.73683 30.39158,10.79284 62.23567,17.31206c32.14261,6.58033 66.31648,8.96364 66.31648,8.96364c0,0 -1.08617,6.22363 -2.62596,15.67917c-2.99635,0.29537 -5.92503,0.84151 -8.55781,2.11602c-0.91636,0.4436 -2.6038,1.00535 -3.13147,1.88416c-0.05584,-0.19147 -0.11165,-0.38296 -0.16749,-0.57443c-1.95828,-6.71453 -11.10928,-8.51334 -17.74476,-9.32363c-2.93003,-0.35659 -6.09434,-1.07824 -9.02897,-1.10872c-3.94761,-0.04101 -8.08116,0.96185 -11.90392,1.60427c-1.01839,0.38956 -4.11794,2.01501 -5.24513,1.64819c-0.48617,-0.15821 -0.35252,-0.87032 -0.46635,-1.31788c-0.31642,-1.24433 -0.5552,-2.36508 -1.1745,-3.54027c-1.19268,-2.26328 -4.46338,-4.58022 -7.02009,-5.59135c-6.19731,-2.42228 -14.22732,-4.30535 -20.84778,-3.67428c-4.83023,0.46405 -8.8781,1.77866 -13.34605,3.28083c-0.65591,0.22053 -3.71991,1.72281 -4.24431,1.56335c-0.51949,-0.15798 -0.44715,-0.8986 -0.70541,-1.33364c-1.14215,-2.49035 -3.9776,-5.97876 -6.91165,-7.00142c-3.44885,-1.20211 -7.53561,-0.9927 -11.12243,-1.25582c-3.99778,0.29841 -7.72939,0.41766 -11.28913,1.23535c2.75452,-8.99799 5.17222,-16.41319 6.98108,-20.56559z" fill="#ffffff" stroke="none" stroke-width="0"/><path d="M136.49627,190.90679c0,0 27.91372,-16.68953 34.01631,-28.77122c9.56611,-18.93871 24.84022,-80.07436 31.60324,-95.59943c0.32097,-0.73683 30.39158,10.79284 62.23567,17.31206c32.14261,6.58033 66.31648,8.96364 66.31648,8.96364c0,0 -13.06574,74.86564 -12.80753,99.77921c0.15682,15.13004 20.81288,38.83984 20.28693,38.71074c-2.75484,-0.67615 -22.19722,-14.0699 -56.01027,-20.51215c-13.845,-2.63782 -30.42514,-0.11279 -45.09352,-3.39521c-15.46266,-3.46015 -34.18166,-14.75019 -47.77921,-17.51897c-29.41679,-5.98996 -52.76812,1.03131 -52.76812,1.03131z" fill="none" stroke="#000000" stroke-width="2"/></g><path d="M192.37062,157.74929c-2.74691,12.96708 -15.8211,21.18109 -29.20203,18.34651c-1.48907,-0.31544 -2.91921,-0.75441 -4.28127,-1.30339c1.49107,-0.90576 4.99845,-1.78605 5.94081,-3.73822c0.81918,-0.81881 3.96809,-5.26091 6.03458,-9.4587c1.52581,-3.09945 1.98512,-6.01163 2.94244,-7.51315c3.29928,-5.2039 3.47384,-11.83073 5.88306,-17.42911c0.36577,-1.41748 0.80712,-2.90997 1.26176,-4.4441c8.70185,5.22375 13.58285,15.33321 11.42064,25.54014z" fill="#ffffff" stroke="none" stroke-width="0"/><path d="M320.36546,159.80038c-0.20648,1.58669 -0.40821,3.12996 -0.64861,4.57398c-0.06773,6.09439 -2.59523,12.22278 -1.6894,18.31747c0.26625,1.76073 -0.4947,4.60901 -0.35671,8.06089c0.18688,4.67513 1.26412,10.01249 1.68094,11.09312c0.06986,2.16659 2.91904,4.39344 3.91476,5.826c-1.46766,-0.05047 -2.95294,-0.22907 -4.44203,-0.54452c-13.38092,-2.83458 -22.00149,-15.64434 -19.25458,-28.61143c2.16221,-10.20693 10.72312,-17.4689 20.79564,-18.71553z" data-paper-data="{&quot;index&quot;:null}" fill="#ffffff" stroke="none" stroke-width="0"/><g fill="none"><path d="M136.46566,191.05133c0,0 27.91372,-16.68951 34.01631,-28.77121c9.56611,-18.93871 24.84022,-80.07437 31.60324,-95.59944c0.32097,-0.73683 30.39159,10.79283 62.23567,17.31206c32.14261,6.58033 66.31648,8.96364 66.31648,8.96364c0,0 -13.06574,74.86565 -12.80753,99.77921c0.15682,15.13004 20.81288,38.83984 20.28693,38.71074c-2.75484,-0.67615 -22.19722,-14.0699 -56.01027,-20.51215c-13.845,-2.63782 -30.42514,-0.11279 -45.09352,-3.39521c-15.46266,-3.46015 -34.18166,-14.75019 -47.77921,-17.51897c-29.41679,-5.98996 -52.76812,1.03131 -52.76812,1.03131z" stroke="#000000" stroke-width="2"/><path d="M202.18003,66.39328c0.32097,-0.73683 30.39158,10.79284 62.23567,17.31206c32.14261,6.58033 66.31648,8.96364 66.31648,8.96364c0,0 -1.08617,6.22363 -2.62596,15.67917c-2.99635,0.29537 -5.92503,0.84151 -8.55781,2.11602c-0.91636,0.4436 -2.6038,1.00535 -3.13147,1.88416c-0.05584,-0.19147 -0.11165,-0.38296 -0.16749,-0.57443c-1.95828,-6.71453 -11.10928,-8.51334 -17.74476,-9.32363c-2.93003,-0.35659 -6.09434,-1.07824 -9.02897,-1.10872c-3.94761,-0.04101 -8.08116,0.96185 -11.90392,1.60427c-1.01839,0.38956 -4.11794,2.01501 -5.24513,1.64819c-0.48617,-0.15821 -0.35252,-0.87032 -0.46635,-1.31788c-0.31642,-1.24433 -0.5552,-2.36508 -1.1745,-3.54027c-1.19268,-2.26328 -4.46338,-4.58022 -7.02009,-5.59135c-6.19731,-2.42228 -14.22732,-4.30535 -20.84778,-3.67428c-4.83023,0.46405 -8.8781,1.77866 -13.34605,3.28083c-0.65591,0.22053 -3.71991,1.72281 -4.24431,1.56335c-0.51949,-0.15798 -0.44715,-0.8986 -0.70541,-1.33364c-1.14215,-2.49035 -3.9776,-5.97876 -6.91165,-7.00142c-3.44885,-1.20211 -7.53561,-0.9927 -11.12243,-1.25582c-3.99778,0.29841 -7.72939,0.41766 -11.28913,1.23535c2.75452,-8.99799 5.17222,-16.41319 6.98108,-20.56559z" stroke="none" stroke-width="0"/><path d="M136.49627,190.90679c0,0 27.91372,-16.68953 34.01631,-28.77122c9.56611,-18.93871 24.84022,-80.07436 31.60324,-95.59943c0.32097,-0.73683 30.39158,10.79284 62.23567,17.31206c32.14261,6.58033 66.31648,8.96364 66.31648,8.96364c0,0 -13.06574,74.86564 -12.80753,99.77921c0.15682,15.13004 20.81288,38.83984 20.28693,38.71074c-2.75484,-0.67615 -22.19722,-14.0699 -56.01027,-20.51215c-13.845,-2.63782 -30.42514,-0.11279 -45.09352,-3.39521c-15.46266,-3.46015 -34.18166,-14.75019 -47.77921,-17.51897c-29.41679,-5.98996 -52.76812,1.03131 -52.76812,1.03131z" stroke="#000000" stroke-width="2"/></g></g><g stroke-linecap="butt"><path d="M199.73278,127.42843c2.68747,-12.68646 15.15052,-20.79226 27.83699,-18.1048c12.68646,2.68747 20.79226,15.15052 18.1048,27.83699c-2.68747,12.68646 -15.15052,20.79226 -27.83699,18.1048c-12.68646,-2.68747 -20.79226,-15.15052 -18.1048,-27.83699z" fill="#ffffff" stroke="#000000" stroke-width="2"/><path d="M206.70191,128.62297c1.89169,-8.92992 10.66433,-14.63552 19.59423,-12.74382c8.92992,1.89169 14.63551,10.66433 12.74382,19.59424c-1.89169,8.92992 -10.66433,14.63551 -19.59424,12.74382c-8.92992,-1.89169 -14.6355,-10.66433 -12.74381,-19.59424z" fill="#000000" stroke="none" stroke-width="0"/><path d="M218.06631,101.86437c0,0 7.63456,-3.66664 12.85987,-3.78057c5.22532,-0.11391 11.92142,3.24029 11.92142,3.24029c0,0 -7.85112,-1.72478 -11.88646,-1.6368c-4.21708,0.09195 -12.89483,2.17707 -12.89483,2.17707z" fill="#000000" stroke="none" stroke-width="0"/></g><g stroke-linecap="butt"><path d="M277.60308,167.92593c-12.68646,-2.68747 -20.79226,-15.15052 -18.1048,-27.83699c2.68747,-12.68646 15.15052,-20.79226 27.83699,-18.1048c12.68646,2.68747 20.79226,15.15052 18.1048,27.83699c-2.68747,12.68646 -15.15052,20.79226 -27.83699,18.1048z" data-paper-data="{&quot;index&quot;:null}" fill="#ffffff" stroke="#000000" stroke-width="2"/><path d="M278.99096,160.83111c-8.92991,-1.89169 -14.6355,-10.66433 -12.74381,-19.59424c1.89169,-8.92992 10.66433,-14.63551 19.59423,-12.74382c8.92991,1.89169 14.6355,10.66433 12.74381,19.59424c-1.89169,8.92992 -10.66433,14.63551 -19.59423,12.74382z" data-paper-data="{&quot;index&quot;:null}" fill="#000000" stroke="none" stroke-width="0"/><path d="M288.293,111.83234c-3.65305,-1.71666 -11.52916,-3.32351 -11.52916,-3.32351c0,0 7.481,-0.35097 12.2113,1.87192c4.73029,2.22288 10.22233,8.67024 10.22233,8.67024c0,0 -7.0869,-5.42467 -10.90446,-7.21865z" data-paper-data="{&quot;index&quot;:null}" fill="#000000" stroke="none" stroke-width="0"/></g><path d="M199.99421,127.22825c2.68747,-12.68646 15.10672,-20.80154 27.73916,-18.12553c12.63244,2.67602 20.69444,15.1298 18.00697,27.81627c0,0 -5.5758,-5.73211 -13.56524,-9.27147c-2.14676,-0.95101 -5.50067,-1.96253 -7.73065,-2.39998c-2.59756,-0.50954 -6.61746,-0.84098 -9.09927,-0.80848c-9.25234,0.12119 -15.45933,3.30066 -15.35098,2.78916z" fill="#d21869" stroke="#000000" stroke-width="2" stroke-linecap="butt"/><path d="M305.77975,149.77386c-0.10835,0.51149 -4.51563,-4.91648 -12.96186,-8.78688c-2.26559,-1.03819 -6.09131,-2.36877 -8.68344,-2.95858c-2.22532,-0.50635 -5.7159,-0.94477 -8.07348,-0.94792c-8.77409,-0.01179 -16.22301,2.9612 -16.22301,2.9612c2.68747,-12.68646 15.15052,-20.79226 27.83699,-18.1048c12.68646,2.68747 20.79226,15.15052 18.1048,27.83699z" data-paper-data="{&quot;index&quot;:null}" fill="#d21869" stroke="#000000" stroke-width="2" stroke-linecap="butt"/><path d="M207.63233,112.77127l-5.40765,-5.23431" fill="none" stroke="#000000" stroke-width="2" stroke-linecap="round"/><path d="M216.04507,108.84617l-0.03404,-7.07737" fill="none" stroke="#000000" stroke-width="2" stroke-linecap="round"/><g fill="none" stroke="#000000" stroke-width="2" stroke-linecap="round"><path d="M305.51737,135.04028l7.06555,-2.59202" data-paper-data="{&quot;index&quot;:null}"/><path d="M299.41881,128.04116l2.90083,-6.45565" data-paper-data="{&quot;index&quot;:null}"/></g><path d="M255.63638,181.59138c0,0 -4.8367,3.06417 -13.48893,1.37732c-7.13251,-1.39055 -11.07554,-6.581 -11.07554,-6.581" fill="none" stroke="#000000" stroke-width="2" stroke-linecap="round"/></g></g></svg>