<svg version="1.1" xmlns="http://www.w3.org/2000/svg" xmlns:xlink="http://www.w3.org/1999/xlink" width="143.27657" height="284.26711" viewBox="0,0,143.27657,284.26711"><defs><linearGradient x1="239.99979" y1="175.91989" x2="239.99979" y2="307.91989" gradientUnits="userSpaceOnUse" id="color-1"><stop offset="0" stop-color="#000000"/><stop offset="1" stop-color="#ff80c9"/></linearGradient><linearGradient x1="248.097" y1="29.89186" x2="241.50907" y2="128.67933" gradientUnits="userSpaceOnUse" id="color-2"><stop offset="0" stop-color="#000000"/><stop offset="1" stop-color="#8cefef"/></linearGradient><linearGradient x1="247.45293" y1="79.62589" x2="239.42841" y2="199.95528" gradientUnits="userSpaceOnUse" id="color-3"><stop offset="0" stop-color="#000000"/><stop offset="1" stop-color="#8cefef"/></linearGradient><linearGradient x1="265.34614" y1="79.55442" x2="265.10004" y2="83.24472" gradientUnits="userSpaceOnUse" id="color-4"><stop offset="0" stop-color="#000000"/><stop offset="1" stop-color="#000000"/></linearGradient><linearGradient x1="214.69675" y1="46.61922" x2="206.03807" y2="176.45788" gradientUnits="userSpaceOnUse" id="color-5"><stop offset="0" stop-color="#000000"/><stop offset="1" stop-color="#ff80c9"/></linearGradient><linearGradient x1="216.20445" y1="75.94316" x2="215.98256" y2="79.27041" gradientUnits="userSpaceOnUse" id="color-6"><stop offset="0" stop-color="#000000"/><stop offset="1" stop-color="#ce52af"/></linearGradient><linearGradient x1="216.59227" y1="76.87974" x2="216.35164" y2="80.48801" gradientUnits="userSpaceOnUse" id="color-7"><stop offset="0" stop-color="#000000"/><stop offset="1" stop-color="#000000"/></linearGradient><linearGradient x1="220.04203" y1="76.53318" x2="219.79594" y2="80.22348" gradientUnits="userSpaceOnUse" id="color-8"><stop offset="0" stop-color="#000000"/><stop offset="1" stop-color="#000000"/></linearGradient><linearGradient x1="219.43955" y1="95.13721" x2="219.21767" y2="98.46445" gradientUnits="userSpaceOnUse" id="color-9"><stop offset="0" stop-color="#000000"/><stop offset="1" stop-color="#ce52af"/></linearGradient><linearGradient x1="218.80061" y1="95.14863" x2="218.44477" y2="100.48447" gradientUnits="userSpaceOnUse" id="color-10"><stop offset="0" stop-color="#000000"/><stop offset="1" stop-color="#000000"/></linearGradient><linearGradient x1="281.81431" y1="52.09738" x2="273.02255" y2="183.93161" gradientUnits="userSpaceOnUse" id="color-11"><stop offset="0" stop-color="#000000"/><stop offset="1" stop-color="#ff80c9"/></linearGradient><linearGradient x1="276.39634" y1="81.40861" x2="276.17104" y2="84.787" gradientUnits="userSpaceOnUse" id="color-12"><stop offset="0" stop-color="#000000"/><stop offset="1" stop-color="#ce52af"/></linearGradient><linearGradient x1="275.88667" y1="82.29934" x2="275.64234" y2="85.96307" gradientUnits="userSpaceOnUse" id="color-13"><stop offset="0" stop-color="#000000"/><stop offset="1" stop-color="#000000"/></linearGradient><linearGradient x1="272.51405" y1="81.48894" x2="272.26417" y2="85.23596" gradientUnits="userSpaceOnUse" id="color-14"><stop offset="0" stop-color="#000000"/><stop offset="1" stop-color="#000000"/></linearGradient><linearGradient x1="270.62183" y1="100.29351" x2="270.39653" y2="103.6719" gradientUnits="userSpaceOnUse" id="color-15"><stop offset="0" stop-color="#000000"/><stop offset="1" stop-color="#ce52af"/></linearGradient><linearGradient x1="271.25354" y1="100.39051" x2="270.89224" y2="105.80836" gradientUnits="userSpaceOnUse" id="color-16"><stop offset="0" stop-color="#000000"/><stop offset="1" stop-color="#000000"/></linearGradient><linearGradient x1="246.42282" y1="72.88262" x2="244.48612" y2="101.9238" gradientUnits="userSpaceOnUse" id="color-17"><stop offset="0" stop-color="#000000"/><stop offset="1" stop-color="#e3e854"/></linearGradient><linearGradient x1="244.04391" y1="141.50678" x2="241.68008" y2="160.35917" gradientUnits="userSpaceOnUse" id="color-18"><stop offset="0" stop-color="#000000" stop-opacity="0"/><stop offset="1" stop-color="#000000"/></linearGradient></defs><g transform="translate(-171.00178,-29.76525)"><g data-paper-data="{&quot;isPaintingLayer&quot;:true}" fill-rule="nonzero" stroke-linejoin="miter" stroke-miterlimit="10" stroke-dasharray="" stroke-dashoffset="0" style="mix-blend-mode: normal"><path d="M179.28348,314.03237v-267.22501h123.18203v267.22501z" fill-opacity="0.01" fill="#000000" stroke="none" stroke-width="0" stroke-linecap="butt"/><path d="M206.7498,307.91988l15.14285,-131.8421l37.78325,-0.15789l13.57389,132z" fill="url(#color-1)" stroke="none" stroke-width="0" stroke-linecap="butt"/><path d="M241.50907,128.67933c-29.06129,-1.93804 -51.14538,-25.62345 -49.32617,-52.90287c1.81921,-27.2794 26.85282,-47.82265 55.91411,-45.88461c29.0613,1.93804 51.14538,25.62346 49.32617,52.90287c-1.81921,27.27941 -26.85281,47.82265 -55.91411,45.88461z" fill="url(#color-2)" stroke="none" stroke-width="0" stroke-linecap="butt"/><g stroke="none" stroke-width="0" stroke-linecap="butt"><path d="M179.34602,135.51624c2.21591,-33.22804 32.70842,-58.251 68.10692,-55.89035c35.39849,2.36065 62.2983,31.211 60.08239,64.43904c-2.21591,33.22804 -32.70842,58.251 -68.10692,55.89035c-35.39849,-2.36065 -62.2983,-31.211 -60.08239,-64.43904z" fill="url(#color-3)"/><path d="M226.91253,88.86796c0.80149,1.65732 -2.84806,5.07998 -8.1515,7.64473c-5.30343,2.56475 -10.25245,3.30036 -11.05394,1.64304c-0.80149,-1.65732 2.84808,-5.07999 8.1515,-7.64474c5.30343,-2.56475 10.25245,-3.30035 11.05393,-1.64303z" fill="#d4f0f0"/><path d="M237.73127,87.85816c-0.098,1.4695 -1.3687,2.58131 -2.8382,2.48331c-1.4695,-0.098 -2.58131,-1.3687 -2.48331,-2.83819c0.098,-1.4695 1.3687,-2.58132 2.83819,-2.48332c1.4695,0.098 2.58132,1.3687 2.48332,2.8382z" fill="#d4f0f0"/></g><path d="M192.83761,136.84642c0.86289,-12.93926 12.05176,-22.7291 24.99102,-21.8662c12.93926,0.86289 22.7291,12.05176 21.8662,24.99102c-0.86289,12.93926 -12.05176,22.7291 -24.99102,21.8662c-12.93926,-0.86289 -22.7291,-12.05176 -21.8662,-24.99102z" fill="#ff0000" stroke="none" stroke-width="0" stroke-linecap="butt"/><path d="M268.84199,165.44776c-12.93926,-0.86289 -22.7291,-12.05176 -21.8662,-24.99102c0.86289,-12.93926 12.05176,-22.7291 24.99102,-21.8662c12.93926,0.86289 22.7291,12.05176 21.8662,24.99102c-0.86289,12.93926 -12.05176,22.7291 -24.99102,21.8662z" data-paper-data="{&quot;index&quot;:null}" fill="#ff0000" stroke="none" stroke-width="0" stroke-linecap="butt"/><path d="M271.80862,103.42561c-3.85942,-1.18178 -11.88373,-1.65649 -11.88373,-1.65649c0,0 7.35581,-1.40736 12.35333,0.1229c4.99751,1.53026 11.34763,7.13444 11.34763,7.13444c0,0 -7.78399,-4.36584 -11.81723,-5.60084z" data-paper-data="{&quot;index&quot;:null}" fill="#000000" stroke="none" stroke-width="0" stroke-linecap="butt"/><path d="M192.80642,136.54373l-3.41902,-2.83378" fill="none" stroke="#000000" stroke-width="2" stroke-linecap="round"/><path d="M296.31326,138.4384l-4.41693,3.113" fill="none" stroke="#000000" stroke-width="2" stroke-linecap="round"/><path d="M223.26539,91.65823c1.57765,2.78781 -1.78025,7.67179 -7.50005,10.90868c-5.71981,3.2369 -11.63556,3.60095 -13.2132,0.81314c-1.57765,-2.78781 1.78025,-7.67179 7.50006,-10.90868c5.71981,-3.23689 11.63556,-3.60095 13.2132,-0.81314z" fill="#ecfefe" stroke="none" stroke-width="0" stroke-linecap="butt"/><path d="M231.57417,89.64368c-0.09187,1.37765 -1.19382,2.42594 -2.46125,2.34142c-1.26743,-0.08452 -2.22042,-1.26985 -2.12855,-2.6475c0.09187,-1.37765 1.19381,-2.42594 2.46125,-2.34142c1.26743,0.08452 2.22042,1.26985 2.12855,2.6475z" fill="#ecfefe" stroke="none" stroke-width="0" stroke-linecap="butt"/><path d="M207.6963,103.96286c0,0 7.03804,-4.71135 12.1945,-5.56446c5.15646,-0.85311 12.26026,1.51854 12.26026,1.51854c0,0 -8.01629,-0.595 -11.99846,0.06383c-4.16152,0.68851 -12.4563,3.98209 -12.4563,3.98209z" fill="#000000" stroke="none" stroke-width="0" stroke-linecap="butt"/><path d="M266.29934,79.61799l-2.15251,3.56315" fill="url(#color-4)" stroke="none" stroke-width="2" stroke-linecap="round"/><path d="M205.55566,164.24109l0.87589,-3.11528" fill="none" stroke="#000000" stroke-width="2" stroke-linecap="round"/><path d="M224.50245,165.67164l0.31052,-4.65632" fill="none" stroke="#000000" stroke-width="2" stroke-linecap="round"/><path d="M256.4648,167.30204l0.64311,-4.63414" fill="none" stroke="#000000" stroke-width="2" stroke-linecap="round"/><path d="M277.26439,170.14236l-0.39902,-4.75136" fill="none" stroke="#000000" stroke-width="2" stroke-linecap="round"/><path d="M192.90524,142.00551c0.42237,0.04185 44.66804,2.98848 45.81812,2.96112c-2.06732,10.4019 -12.1655,17.89244 -23.75078,17.11984c-4.54001,-0.30276 -11.48011,-2.89605 -15.0113,-6.4155c-5.8591,-5.83961 -7.05605,-13.66546 -7.05605,-13.66546z" data-paper-data="{&quot;index&quot;:null}" fill="#ff4242" stroke="none" stroke-width="2" stroke-linecap="butt"/><path d="M199.90568,137.0415c0.60738,-9.10785 8.48313,-15.99883 17.59097,-15.39145c9.10785,0.60738 15.99883,8.48314 15.39144,17.59098c-0.60738,9.10785 -8.48314,15.99883 -17.59098,15.39144c-9.10785,-0.60738 -15.99882,-8.48314 -15.39143,-17.59097z" fill="#000000" stroke="none" stroke-width="0" stroke-linecap="butt"/><path d="M284.40125,161.10165c-3.96725,3.0194 -11.19025,4.66817 -15.73026,4.36541c-11.58528,-0.7726 -20.5994,-9.5377 -21.26719,-20.122c1.13626,0.17984 45.3814,3.13447 45.80559,3.14908c0,0 -2.22551,7.59761 -8.80814,12.60751z" data-paper-data="{&quot;index&quot;:null}" fill="#ff4242" stroke="none" stroke-width="2" stroke-linecap="butt"/><path d="M269.21067,158.22787c-9.10784,-0.60738 -15.99882,-8.48314 -15.39143,-17.59097c0.60738,-9.10785 8.48314,-15.99883 17.59097,-15.39145c9.10784,0.60738 15.99882,8.48314 15.39143,17.59097c-0.60738,9.10785 -8.48314,15.99883 -17.59097,15.39145z" data-paper-data="{&quot;index&quot;:null}" fill="#000000" stroke="none" stroke-width="0" stroke-linecap="butt"/><g stroke="none" stroke-width="0"><path d="M247.57279,82.96818c-0.01183,0.17747 -25.26706,40.0862 -26.87486,40.59906c-0.11112,0.03544 -29.15551,47.09496 -40.21603,51.11383c-3.50764,1.27452 -6.34557,-21.4044 -6.57363,-24.1633c-1.98368,-23.99842 4.73626,-62.50442 5.79461,-68.44084c1.59611,-8.95278 5.30224,-17.56694 6.95799,-20.31709c6.39979,-10.62982 15.52264,-15.97509 23.3159,-15.45537c10.27325,0.6851 18.70688,11.4071 26.02799,20.93101c5.77153,7.50808 11.67843,14.07727 11.56803,15.73273z" fill="url(#color-5)" stroke-linecap="butt"/><path d="M219.15841,76.24726c-0.01977,0.29645 1.51713,3.33611 -0.39721,3.20845c-1.91433,-0.12766 -6.30684,-2.69879 -6.28707,-2.99524c0.01977,-0.29645 1.58768,-0.43328 3.50202,-0.30561c1.91433,0.12766 3.20203,-0.20405 3.18226,0.0924z" data-paper-data="{&quot;index&quot;:null}" fill="url(#color-6)" stroke-linecap="butt"/><path d="M211.92657,76.56859l9.09078,4.23057" fill="url(#color-7)" stroke-linecap="round"/><path d="M220.74915,80.28704l-1.66032,-3.81742" fill="url(#color-8)" stroke-linecap="round"/><path d="M219.0195,98.22432c-1.91434,-0.12766 -3.45019,-0.47147 -3.43042,-0.76792c0.01977,-0.29645 4.71478,-2.26155 6.62912,-2.13389c1.91434,0.12766 -0.01257,2.93633 -0.03234,3.23278c-0.01977,0.29645 -1.25203,-0.20331 -3.16635,-0.33097z" data-paper-data="{&quot;index&quot;:null}" fill="url(#color-9)" stroke-linecap="butt"/><path d="M213.89428,98.44576l9.57203,-2.98598l-2.95869,5.16226" data-paper-data="{&quot;index&quot;:null}" fill="url(#color-10)" stroke-linecap="round"/></g><path d="M219.225,139.0727c-0.07612,1.14148 -1.0951,2.003 -2.27594,1.92425c-1.18085,-0.07875 -2.0764,-1.06794 -2.00028,-2.20943c0.07612,-1.14148 1.0951,-2.003 2.27594,-1.92425c1.18085,0.07875 2.0764,1.06794 2.00028,2.20943z" fill="#ff0000" stroke="none" stroke-width="0" stroke-linecap="butt"/><path d="M272.73979,142.56513c-0.07612,1.14148 -1.0951,2.003 -2.27594,1.92425c-1.18085,-0.07875 -2.07639,-1.06793 -2.00027,-2.20942c0.07612,-1.14148 1.0951,-2.003 2.27593,-1.92425c1.18085,0.07875 2.0764,1.06794 2.00028,2.20943z" fill="#ff0000" stroke="none" stroke-width="0" stroke-linecap="butt"/><g data-paper-data="{&quot;index&quot;:null}" stroke="none" stroke-width="0"><path d="M244.36792,84.28165c0.1121,-1.6809 6.84528,-7.50206 13.56994,-14.28628c8.53014,-8.6057 18.32318,-18.26834 28.59643,-17.58324c7.79326,0.51972 16.11947,7.12012 21.03982,18.6748c1.27299,2.98943 3.79343,12.15502 4.17736,21.37908c0.25457,6.11629 1.76221,45.76969 -3.41489,69.65739c-0.59517,2.74617 -6.44235,25.19156 -9.74815,23.43948c-10.42409,-5.52473 -32.91246,-56.77393 -33.01785,-56.82446c-1.52483,-0.7313 -21.21467,-44.2766 -21.20266,-44.45679z" fill="url(#color-11)" stroke-linecap="butt"/><path d="M276.59429,81.65223c1.91434,0.12766 3.44995,0.47517 3.42987,0.77617c-0.02007,0.30101 -4.71742,2.30096 -6.63175,2.1733c-1.91434,-0.12766 0.01557,-2.98127 0.03564,-3.28228c0.02007,-0.30101 1.2519,0.20514 3.16623,0.3328z" data-paper-data="{&quot;index&quot;:null}" fill="url(#color-12)" stroke-linecap="butt"/><path d="M280.55238,82.61048l-9.57574,3.04144" fill="url(#color-13)" stroke-linecap="round"/><path d="M271.31096,85.17237l2.1563,-3.61986" fill="url(#color-14)" stroke-linecap="round"/><path d="M267.44267,103.36616c0.02007,-0.30101 -1.51383,-3.38561 0.40051,-3.25795c1.91434,0.12766 6.30452,2.73364 6.28444,3.03465c-0.02007,0.30101 -1.58823,0.44153 -3.50257,0.31386c-1.91433,-0.12766 -3.20246,0.21044 -3.18239,-0.09057z" data-paper-data="{&quot;index&quot;:null}" fill="url(#color-15)" stroke-linecap="butt"/><path d="M268.82939,105.67079l-2.24155,-5.59143l9.08708,4.28603" data-paper-data="{&quot;index&quot;:null}" fill="url(#color-16)" stroke-linecap="round"/></g><path d="M251.29727,188.64443c-0.23356,3.50224 -22.1848,2.03836 -21.95124,-1.46388c0.23356,-3.50224 5.33685,-6.01368 11.39852,-5.60944c6.06167,0.40424 10.78628,3.57109 10.55273,7.07333z" fill="#000000" stroke="none" stroke-width="0" stroke-linecap="butt"/><path d="M209.6911,162.86295l2.95533,0.76978" fill="none" stroke="#000000" stroke-width="0.5" stroke-linecap="round"/><path d="M211.29702,164.54495l-1.40639,-0.38013" fill="none" stroke="#000000" stroke-width="0.5" stroke-linecap="round"/><path d="M272.33528,167.25532l2.21732,-0.68731" fill="none" stroke="#000000" stroke-width="0.5" stroke-linecap="round"/><path d="M273.38847,168.99592l1.38582,-0.74276" fill="none" stroke="#000000" stroke-width="0.5" stroke-linecap="round"/><path d="M171.2207,130.33491c-0.16476,-1.13006 -0.67232,-4.5788 0.80122,-5.24638c0.17918,-0.08118 0.35877,-0.06047 0.53708,0.01688l0.01918,-0.28756c0.02756,-0.41329 0.38495,-0.72599 0.79824,-0.69843c0.41329,0.02756 0.72599,0.38495 0.69843,0.79824l-0.05595,0.83899c0.0394,-0.00229 0.0811,-0.00213 0.12522,0.00081c0.29098,0.01941 0.46127,0.14441 0.56074,0.28996c0.0327,0.00693 0.06653,0.01593 0.10152,0.02721c0.3288,0.10589 0.45739,0.31445 0.50045,0.50865c2.30697,0.72094 3.77259,-3.68409 5.88416,-1.42482c1.20137,1.2854 0.49129,3.25881 0.18913,4.69519c-0.58093,2.76153 -2.03832,5.27605 -3.29546,7.81338c-0.91417,1.97157 -0.75427,4.1737 -0.89763,6.33236c-0.04813,0.72466 -0.51846,1.54117 -0.16016,2.1729c0.27975,0.49323 1.11642,-0.32254 1.56253,-0.67257c3.75091,-2.94306 5.16562,-9.51396 6.44874,-13.87728c0.90447,-5.09371 2.06545,-12.24175 5.48504,-16.25039c2.9684,-3.47972 7.98378,-5.31826 8.88872,0.67032c0.68828,3.22519 0.73157,6.82945 1.00689,10.11029c0.05932,0.70689 -0.33436,1.27406 0.1404,1.91419c0.18157,0.24482 0.52021,-0.32398 0.74628,-0.52843c0.5476,-0.49523 0.8313,-1.22138 1.28101,-1.80693c1.59171,-2.0725 3.48537,-4.40939 6.12232,-4.92943c5.40575,0.3605 -0.02398,8.93172 1.0836,12.41361c0.11727,0.36866 0.56272,-0.5717 0.92934,-0.6952c0.49225,-0.16582 2.14723,-0.48021 2.58431,0.07769c0.31416,0.40101 0.22758,1.03868 0.0798,1.52619c-0.40286,1.32912 -1.5929,3.60751 -2.33788,4.87829c-1.36844,4.17851 -4.97169,7.2874 -7.29079,10.89625c-2.47415,3.85015 -4.68212,7.92691 -8.01992,11.15907c-3.04183,4.30648 -5.68586,8.63176 -9.69227,12.12685c-0.83577,0.7291 -1.58556,1.99079 -2.59612,2.46364c-2.28033,1.06699 -5.97455,-0.21314 -6.64039,-2.57179c-2.92628,-7.02292 -3.34746,-14.43218 -4.33841,-21.96761c-0.40087,-2.53689 -0.34406,-5.17691 -0.14995,-7.81885c-0.34827,-4.3194 -0.47564,-8.67691 -1.09943,-12.95527zM172.35897,128.33456c0.00294,-0.05472 0.00591,-0.10944 0.00889,-0.16415c-0.03081,-0.46289 -0.03073,-0.88496 0.07498,-1.28526c0.00564,-0.09133 0.01135,-0.18265 0.01711,-0.27395c-0.16912,0.44919 -0.17217,1.06322 -0.10099,1.72336z" fill="#000000" stroke="none" stroke-width="0.5" stroke-linecap="butt"/><path d="M310.84848,156.28669c-0.15842,2.64432 -0.45266,5.26851 -1.18686,7.72969c-1.98277,7.33713 -3.38407,14.62486 -7.21698,21.19702c-0.97314,2.24935 -4.80463,3.02761 -6.92308,1.66727c-0.93883,-0.60285 -1.51444,-1.95293 -2.24599,-2.78655c-3.50684,-3.99614 -5.55313,-8.6342 -7.99618,-13.30646c-2.87906,-3.64674 -4.52615,-7.98059 -6.46714,-12.12518c-1.81935,-3.88484 -4.97788,-7.44466 -5.77936,-11.76788c-0.56963,-1.35844 -1.4466,-3.77468 -1.66941,-5.14553c-0.08172,-0.50282 -0.08289,-1.14633 0.28175,-1.50208c0.50728,-0.49492 2.10585,0.03643 2.57173,0.26615c0.34698,0.1711 0.66362,1.16228 0.82881,0.81245c1.56012,-3.30399 -2.68341,-12.5203 2.72235,-12.1598c2.54454,0.86559 4.11113,3.43323 5.41355,5.69874c0.36798,0.64008 0.55275,1.39748 1.02974,1.96102c0.19693,0.23266 0.45703,0.84139 0.6695,0.62284c0.55555,-0.57142 0.24067,-1.18584 0.39333,-1.8786c0.70853,-3.21522 1.23003,-6.78181 2.34048,-9.88706c1.69212,-5.81539 6.41896,-3.32717 8.89902,0.5159c2.85702,4.42721 3.05855,11.66612 3.27864,16.83482c0.69237,4.49506 1.22203,11.19563 4.54893,14.61069c0.39568,0.40617 1.11661,1.32582 1.45938,0.87409c0.43901,-0.57855 0.08126,-1.45028 0.12979,-2.17492c0.14456,-2.15857 0.59546,-4.31997 -0.04883,-6.39547c-0.90909,-2.68178 -2.01969,-5.36757 -2.22877,-8.18178c-0.10876,-1.46377 -0.55051,-3.514 0.81091,-4.6285c2.39287,-1.95886 3.26058,2.60178 5.64286,2.19355c0.06846,-0.18676 0.22361,-0.3764 0.56356,-0.43769c0.03617,-0.00653 0.07092,-0.01096 0.10424,-0.01348c0.11791,-0.13105 0.30329,-0.23233 0.59428,-0.21293c0.04412,0.00294 0.08548,0.00832 0.12422,0.01582l0.05595,-0.83899c0.02756,-0.41329 0.38494,-0.72599 0.79824,-0.69843c0.4133,0.02756 0.72599,0.38495 0.69843,0.79824l-0.01918,0.28756c0.187,-0.05298 0.36776,-0.04967 0.53456,0.05458c1.37185,0.85733 0.41085,4.20814 0.09748,5.30632c-1.18638,4.15764 -1.89123,8.45967 -2.80998,12.69457zM312.92461,139.73683c-0.00641,0.09127 -0.01288,0.18253 -0.01941,0.2738c0.05163,0.4108 -0.00434,0.82914 -0.09635,1.28383c-0.00429,0.05463 -0.00864,0.10925 -0.01299,0.16388c0.15821,-0.64484 0.23673,-1.25384 0.12874,-1.72151z" data-paper-data="{&quot;index&quot;:null}" fill="#000000" stroke="none" stroke-width="0.5" stroke-linecap="butt"/><path d="M266.05782,88.72627c-0.71598,10.73623 -8.76837,14.05135 -21.44763,13.2058c-12.67925,-0.84555 -20.47509,-5.11568 -19.75911,-15.85192c0.71598,-10.73623 8.89247,-14.04309 21.57172,-13.19753c12.67925,0.84555 20.351,5.10742 19.63503,15.84365z" fill="url(#color-17)" stroke="none" stroke-width="0" stroke-linecap="butt"/><path d="M240.34194,189.5965c0.57173,-1.67759 5.09887,-1.92212 7.12519,-1.97706l0.23126,-0.09698c0.03588,-0.01594 0.07605,-0.02363 0.11795,-0.02084c0.13776,0.00919 0.242,0.12832 0.23281,0.26608c-0.00398,0.05967 -0.02859,0.11305 -0.0664,0.15365l-0.25074,0.27387c-0.84773,1.74884 -1.08187,3.27133 -1.06307,5.21298c0.31696,3.17374 1.28443,4.49837 3.29367,6.42146l0.007,-0.01459l0.29824,0.143c0.09238,0.04169 0.15375,0.13751 0.14661,0.24458c-0.00919,0.13776 -0.12832,0.242 -0.26608,0.23281l-0.23398,-0.0156c-0.47988,0.04716 -0.96146,0.05515 -1.44453,0.09095c-2.32107,-0.15851 -5.65592,0.69048 -7.90176,-0.12739l-0.00263,0.03936l-0.24945,-0.01664c-0.13776,-0.00919 -0.242,-0.12832 -0.23281,-0.26608c0.00792,-0.11872 0.09747,-0.21253 0.21023,-0.23032l0.24846,-0.0448l0.00047,0.00258l0.0054,-0.00357c2.16085,-0.25627 1.93799,-3.6282 1.53522,-5.16371c-0.22387,-1.70168 -1.79443,-5.87027 -3.99927,-5.90587c0,0 -0.24945,-0.01664 -0.23281,-0.26608c0.01664,-0.24945 0.26608,-0.23281 0.26608,-0.23281c0.84202,0.08215 1.59113,0.58727 2.22493,1.30101z" fill="#000000" stroke="none" stroke-width="0.5" stroke-linecap="butt"/><path d="M248.74886,194.96131c-0.0284,0.42582 -0.37631,0.74935 -0.77708,0.72262c-0.40077,-0.02673 -0.70264,-0.39359 -0.67424,-0.81941c0.0284,-0.42582 0.37631,-0.74935 0.77708,-0.72262c0.40077,0.02673 0.70264,0.39359 0.67424,0.81941z" fill="#000000" stroke="none" stroke-width="0" stroke-linecap="butt"/><path d="M226.4239,160.12597c0,0 7.97891,-5.7478 10.41151,-9.27126c1.85729,-2.69017 2.92958,-10.05242 2.92958,-10.05242c0,0 7.63838,0.07624 6.92647,0.21466c-0.89011,0.17307 -0.21965,6.56864 2.09276,12.31505c2.09476,5.20554 7.17953,9.65799 7.17953,9.65799c0,0 -9.02695,-5.39922 -13.86167,-5.86797c-5.00593,-0.48535 -15.67818,3.00395 -15.67818,3.00395z" fill="url(#color-18)" stroke="none" stroke-width="0" stroke-linecap="butt"/></g></g></svg>