<svg version="1.1" xmlns="http://www.w3.org/2000/svg" xmlns:xlink="http://www.w3.org/1999/xlink" width="202.45153" height="277.72356" viewBox="0,0,202.45153,277.72356"><g transform="translate(-138.86686,-38.62064)"><g data-paper-data="{&quot;isPaintingLayer&quot;:true}" fill-rule="nonzero" stroke-linejoin="miter" stroke-miterlimit="10" stroke-dasharray="" stroke-dashoffset="0" style="mix-blend-mode: normal"><path d="M180.28206,316.3442v-267.22501h123.18203v267.22501z" fill-opacity="0.01" fill="#000000" stroke="none" stroke-width="0" stroke-linecap="butt"/><path d="M207.74841,309.03171l15.14285,-131.8421l37.78325,-0.15789l13.57389,132z" fill="#ffc98c" stroke="#000000" stroke-width="2" stroke-linecap="butt"/><path d="M217.1273,234.55256l1.81955,-14.45576h45.32077l1.25968,14.00472c0,0 -4.68002,-3.84225 -12.19042,-3.27595c-1.24659,0.094 -1.77005,3.30928 -3.61006,5.05858c-2.85775,2.71686 -7.12602,4.36879 -8.58021,4.38234c-0.59366,0.00553 -5.24197,-1.01361 -7.39759,-2.86222c-3.31818,-2.84561 -4.49605,-6.9719 -5.21348,-7.0195c-6.54919,-0.43454 -11.40823,4.1678 -11.40823,4.1678z" fill="#c59b6c" stroke="none" stroke-width="NaN" stroke-linecap="butt"/><path d="M220.69863,205.64434l3.12142,-26.32765l35.83075,-0.14203l2.76735,26.1059c0,0 -7.51543,4.19603 -21.55904,4.50964c-12.48458,0.27879 -20.16049,-4.14586 -20.16049,-4.14586z" fill="#cca170" stroke="#000000" stroke-width="0" stroke-linecap="butt"/><g stroke-linecap="butt"><path d="M270.90666,198.69837c0,2.30815 -3.18821,22.08962 -5.54022,24.62356c-2.35122,2.53308 -6.36561,-3.93153 -10.01931,-0.61498c-4.82557,4.38029 -9.76615,12.36642 -16.19046,12.36642c-4.20178,0 -6.94663,-9.88432 -10.55794,-12.06768c-4.81002,-2.90809 -7.96365,4.12979 -11.28693,1.75156c-3.77432,-2.70101 -7.15514,-21.29382 -7.15514,-24.30887c0,-7.66295 12.84567,-7.375 29,-7.375c16.15433,0 31.75,-2.03795 31.75,5.625z" fill="#deaf7a" stroke="#000000" stroke-width="2"/><path d="M211.91499,199.36502l-0.43055,-1.34722c0,0 2.30061,-2.10321 5.7274,-3.10961c3.43428,-1.00861 7.99803,-0.92054 11.00417,-1.02956c4.09936,-0.14865 8.9871,0.36715 12.33397,0.28032c0.22267,-0.00577 8.60029,-0.76212 14.35212,-0.53942c3.36286,0.1302 9.74383,0.44438 13.0537,1.68131c1.40779,0.5261 1.98697,2.6753 1.98697,2.6753c0,0 0.58775,2.10701 -0.45337,2.96919c-0.09479,0.0785 -5.70116,1.34507 -13.70615,2.40924c-6.2198,0.82684 -15.1558,1.53149 -15.94565,1.46168c-0.93945,-0.08303 -8.25238,-0.68599 -11.16764,-1.23828c-8.38563,-1.58865 -16.75496,-4.21295 -16.75496,-4.21295z" fill="#cca170" stroke="none" stroke-width="0"/></g><path d="M177.00496,142.18735c0,-24.86961 0.53942,-44.72272 23.43776,-53.94172c7.76386,-3.12578 78.06474,-7.32917 89.64055,3.26571c11.96565,10.95168 15.39573,33.74936 15.39573,50.67601c0,22.27378 -4.86585,44.06016 -24.00215,54.50148c-9.47466,5.16965 -28.48645,5.79685 -40.23487,5.79685c-8.03759,0 -28.39706,-1.05234 -35.48875,-3.58308c-24.21035,-8.6397 -28.74827,-30.95817 -28.74827,-56.71525z" fill="#ffc98c" stroke="#000000" stroke-width="2" stroke-linecap="butt"/><path d="M177.72802,142.24122c0,-0.50023 -2.54161,28.09005 17.86421,45.10631c9.29088,7.74759 27.30231,11.51046 45.49625,11.82798c18.67549,0.32593 34.97207,-4.44756 44.39578,-13.10363c18.61382,-17.09756 19.1178,-44.50707 19.1178,-43.83066c0,19.32927 -3.52722,40.16877 -18.79528,51.01565c-10.64422,7.56197 -30.24998,8.88268 -44.64174,8.88268c-14.94606,0 -35.01822,-1.67303 -45.85983,-9.77002c-14.57239,-10.8833 -17.57719,-31.31805 -17.57719,-50.12831z" fill="#cca170" stroke="#000000" stroke-width="0" stroke-linecap="butt"/><path d="M190.55518,142.61685c0,-12.968 10.51265,-23.48065 23.48065,-23.48065c12.968,0 23.48065,10.51265 23.48065,23.48065c0,12.968 -10.51265,23.48065 -23.48065,23.48065c-12.968,0 -23.48065,-10.51265 -23.48065,-23.48065z" fill="#ffffff" stroke="#000000" stroke-width="2" stroke-linecap="butt"/><path d="M197.62056,142.34119c0,-9.12808 7.39976,-16.52784 16.52783,-16.52784c9.12808,0 16.52784,7.39977 16.52784,16.52784c0,9.12808 -7.39977,16.52784 -16.52784,16.52784c-9.12808,0 -16.52783,-7.39977 -16.52783,-16.52784z" fill="#000000" stroke="none" stroke-width="0" stroke-linecap="butt"/><path d="M268.29421,166.09748c-12.968,0 -23.48065,-10.51265 -23.48065,-23.48065c0,-12.968 10.51265,-23.48065 23.48065,-23.48065c12.968,0 23.48065,10.51265 23.48065,23.48065c0,12.968 -10.51265,23.48065 -23.48065,23.48065z" data-paper-data="{&quot;index&quot;:null}" fill="#ffffff" stroke="#000000" stroke-width="2" stroke-linecap="butt"/><path d="M268.18166,158.86903c-9.12807,0 -16.52783,-7.39977 -16.52783,-16.52784c0,-9.12808 7.39977,-16.52784 16.52783,-16.52784c9.12807,0 16.52783,7.39977 16.52783,16.52784c0,9.12808 -7.39977,16.52784 -16.52783,16.52784z" data-paper-data="{&quot;index&quot;:null}" fill="#000000" stroke="none" stroke-width="0" stroke-linecap="butt"/><path d="M202.69285,116.30838c0,0 6.70895,-5.16922 11.79721,-6.36355c5.08827,-1.19433 12.33413,0.69937 12.33413,0.69937c0,0 -8.03812,-0.06028 -11.96762,0.86207c-4.10648,0.96389 -12.16372,4.80211 -12.16372,4.80211z" fill="#000000" stroke="none" stroke-width="0" stroke-linecap="butt"/><g><path d="M196.24682,187.76348c0,0 -19.46984,5.78288 -28.63247,6.28934c-8.61687,0.47629 -24.8066,-3.33544 -24.8066,-3.33544c0,0 13.3176,-7.25568 19.44098,-11.42185c5.71427,-3.88785 16.15689,-12.79799 16.15689,-12.79799c0,0 -13.74624,-2.10436 -20.03293,-4.10465c-6.09005,-1.9377 -17.11604,-7.71529 -17.11604,-7.71529c0,0 9.99169,-3.98597 15.76287,-7.27716c6.93034,-3.95223 22.98179,-14.81808 22.98179,-14.81808" data-paper-data="{&quot;index&quot;:null}" fill="#ffc98c" stroke="#000000" stroke-width="2" stroke-linecap="round"/><path d="M146.32148,190.14331c0,0 -0.5695,0.50982 2.97457,-2.21015c2.20405,-1.69156 22.74284,-11.91225 27.26148,-20.41847c0.49045,-0.92328 -5.01286,-2.26883 -9.1709,-3.58849c-8.93893,-2.83702 -24.75638,-7.31954 -24.25306,-9.37514c0.27082,-1.10603 12.85317,-6.05369 17.40757,-8.40927c0.9281,-0.48002 12.39698,-6.95566 15.57175,-9.25131c2.48687,-1.79824 4.02422,-2.85569 4.02422,-2.85569c0,0 -0.13624,4.17986 -5.57686,7.82591c-6.62946,4.44274 -23.58358,8.75699 -23.28675,12.75872c0.45493,6.13342 30.97041,5.9301 30.06291,10.61869c-0.50873,2.62834 -3.87805,5.35029 -4.58144,5.97964c-8.2871,7.41474 -24.1334,19.62565 -18.20562,19.39191c7.89545,-0.31132 38.06765,-4.10935 38.06765,-4.10935l0.06535,1.65727c0,0 -19.88694,4.5781 -27.62905,4.88337c-8.50647,0.33541 -22.73182,-2.89764 -22.73182,-2.89764z" fill="#cca170" stroke="none" stroke-width="0" stroke-linecap="butt"/><path d="M196.24682,187.76348c0,0 -19.46984,5.78288 -28.63247,6.28934c-8.61687,0.47629 -24.8066,-3.33544 -24.8066,-3.33544c0,0 13.3176,-7.25568 19.44098,-11.42185c5.71427,-3.88785 16.15689,-12.79799 16.15689,-12.79799c0,0 -13.74624,-2.10436 -20.03293,-4.10465c-6.09005,-1.9377 -17.11604,-7.71529 -17.11604,-7.71529c0,0 9.99169,-3.98597 15.76287,-7.27716c6.93034,-3.95223 22.98179,-14.81808 22.98179,-14.81808" data-paper-data="{&quot;index&quot;:null}" fill="none" stroke="#000000" stroke-width="2" stroke-linecap="round"/></g><g data-paper-data="{&quot;index&quot;:null}"><path d="M299.11335,128.56904c0,0 16.46709,10.3928 23.54777,14.12923c5.89638,3.11148 16.03735,6.7596 16.03735,6.7596c0,0 -10.7898,6.30938 -16.79878,8.52123c-6.20299,2.28329 -19.85565,4.971 -19.85565,4.971c0,0 10.78555,8.63114 16.64857,12.35088c6.28276,3.98603 19.87589,10.82174 19.87589,10.82174c0,0 -16.02699,4.51962 -24.65593,4.38095c-9.17547,-0.14746 -28.85803,-5.24097 -28.85803,-5.24097" data-paper-data="{&quot;index&quot;:null}" fill="#ffc98c" stroke="#000000" stroke-width="2" stroke-linecap="round"/><path d="M312.43488,189.53359c-7.74811,0 -27.8,-3.85322 -27.8,-3.85322v-1.68578c0,0 30.29842,2.64908 38.2,2.64908c5.93239,0 -10.38271,-11.76704 -18.95551,-18.96577c-0.72764,-0.61101 -4.20158,-3.24054 -4.81347,-5.88959c-1.09152,-4.72549 29.40826,-5.74101 29.6212,-11.98846c0.13893,-4.07613 -16.97199,-7.77883 -23.77134,-12.02549c-5.58006,-3.48513 -5.88087,-7.72482 -5.88087,-7.72482c0,0 1.57781,1.01241 4.13361,2.73914c3.26275,2.20436 14.97785,8.32188 15.92415,8.77223c4.64367,2.20999 17.41118,6.73105 17.72537,7.84353c0.58392,2.06755 -15.04465,7.25353 -23.86486,10.49282c-4.10281,1.50679 -9.54884,3.09375 -9.02239,4.0118c4.85028,8.45815 25.7758,18.01602 28.04478,19.64572c3.64848,2.62053 3.05934,2.12555 3.05934,2.12555c0,0 -14.08691,3.85322 -22.6,3.85322z" fill="#cca170" stroke="none" stroke-width="0" stroke-linecap="butt"/><path d="M299.11335,128.56904c0,0 16.46709,10.3928 23.54777,14.12923c5.89638,3.11148 16.03735,6.7596 16.03735,6.7596c0,0 -10.7898,6.30938 -16.79878,8.52123c-6.20299,2.28329 -19.85565,4.971 -19.85565,4.971c0,0 10.78555,8.63114 16.64857,12.35088c6.28276,3.98603 19.87589,10.82174 19.87589,10.82174c0,0 -16.02699,4.51962 -24.65593,4.38095c-9.17547,-0.14746 -28.85803,-5.24097 -28.85803,-5.24097" data-paper-data="{&quot;index&quot;:null}" fill="none" stroke="#000000" stroke-width="2" stroke-linecap="round"/></g><g data-paper-data="{&quot;index&quot;:null}"><path d="M232.15138,86.52074c0,0 13.05164,-18.38743 17.97644,-26.42658c4.10109,-6.69452 9.55608,-18.51691 9.55608,-18.51691c0,0 3.75939,14.42576 4.63129,22.2237c0.90006,8.04971 0.68731,25.34326 0.68731,25.34326c0,0 10.26029,-11.71274 14.92551,-18.25597c4.99919,-7.01167 14.13705,-22.50593 14.13705,-22.50593c0,0 1.03071,20.54838 -0.82803,31.14548c-1.97647,11.26829 -10.69927,34.57441 -10.69927,34.57441" data-paper-data="{&quot;index&quot;:null}" fill="#ffc98c" stroke="#000000" stroke-width="2" stroke-linecap="round"/><path d="M292.03065,81.17097c-1.55214,9.53794 -9.18502,33.52349 -9.18502,33.52349l-1.58197,-0.30553c0,0 8.55552,-36.81727 10.13842,-46.54414c1.18842,-7.30278 -13.12241,10.64848 -21.59522,19.89694c-0.71915,0.78499 -3.8827,4.58485 -6.49119,4.85797c-4.65317,0.48722 0.50373,-37.2421 -5.31637,-38.6365c-3.79732,-0.90978 -10.69976,19.48272 -16.04703,27.08308c-4.38836,6.23741 -8.42724,5.83933 -8.42724,5.83933c0,0 1.26614,-1.7588 3.39854,-4.59204c2.72224,-3.61695 10.8099,-16.92952 11.42209,-18.01279c3.00415,-5.31583 9.80449,-20.21327 10.91141,-20.39841c2.05722,-0.34408 3.79306,19.83459 5.06599,31.27937c0.59212,5.32366 0.99037,12.31534 1.95736,11.83367c8.90897,-4.43777 22.07022,-28.46486 24.05413,-30.96261c3.19007,-4.01635 2.60755,-3.38082 2.60755,-3.38082c0,0 0.79399,18.03936 -0.91141,28.51898z" fill="#cca170" stroke="none" stroke-width="0" stroke-linecap="butt"/><path d="M232.15138,86.52074c0,0 13.05164,-18.38743 17.97644,-26.42658c4.10109,-6.69452 9.55608,-18.51691 9.55608,-18.51691c0,0 3.75939,14.42576 4.63129,22.2237c0.90006,8.04971 0.68731,25.34326 0.68731,25.34326c0,0 10.26029,-11.71274 14.92551,-18.25597c4.99919,-7.01167 14.13705,-22.50593 14.13705,-22.50593c0,0 1.03071,20.54838 -0.82803,31.14548c-1.97647,11.26829 -10.69927,34.57441 -10.69927,34.57441" data-paper-data="{&quot;index&quot;:null}" fill="none" stroke="#000000" stroke-width="2" stroke-linecap="round"/></g><g stroke="none" stroke-width="0" stroke-linecap="butt"><path d="M205.57559,177.10164c0,4.86067 -4.2906,8.80102 -9.58333,8.80102c-5.29273,0 -9.58333,-3.94035 -9.58333,-8.80102c0,-4.86067 4.2906,-8.80102 9.58333,-8.80102c5.29273,0 9.58333,3.94035 9.58333,8.80102z" fill="#bd9568"/><path d="M192.89067,173.56542c0,0.86412 -0.71643,1.56463 -1.60019,1.56463c-0.88376,0 -1.60019,-0.70051 -1.60019,-1.56463c0,-0.86412 0.71643,-1.56463 1.60019,-1.56463c0.88376,0 1.60019,0.70051 1.60019,1.56463z" fill="#860000"/><path d="M202.84738,174.84557c0,0.86412 -0.71643,1.56463 -1.60019,1.56463c-0.88376,0 -1.60019,-0.70051 -1.60019,-1.56463c0,-0.86412 0.71643,-1.56463 1.60019,-1.56463c0.88376,0 1.60019,0.70051 1.60019,1.56463z" fill="#860000"/><path d="M197.37119,182.09975c0,0.86412 -0.71643,1.56463 -1.60019,1.56463c-0.88376,0 -1.60019,-0.70051 -1.60019,-1.56463c0,-0.86412 0.71643,-1.56463 1.60019,-1.56463c0.88376,0 1.60019,0.70051 1.60019,1.56463z" fill="#860000"/></g><g data-paper-data="{&quot;index&quot;:null}" stroke="none" stroke-width="0" stroke-linecap="butt"><path d="M287.74981,168.31575c4.74045,0 8.58333,3.52918 8.58333,7.88265c0,4.35347 -3.84289,7.88265 -8.58333,7.88265c-4.74045,0 -8.58333,-3.52918 -8.58333,-7.88265c0,-4.35347 3.84289,-7.88265 8.58333,-7.88265z" fill="#bd9568"/><path d="M291.961,171.62985c0.79154,0 1.43321,0.62741 1.43321,1.40136c0,0.77395 -0.64167,1.40136 -1.43321,1.40136c-0.79154,0 -1.43321,-0.62741 -1.43321,-1.40136c0,-0.77395 0.64167,-1.40136 1.43321,-1.40136z" fill="#005387"/><path d="M283.04324,172.77641c0.79154,0 1.43321,0.62741 1.43321,1.40136c0,0.77395 -0.64167,1.40136 -1.43321,1.40136c-0.79154,0 -1.43321,-0.62741 -1.43321,-1.40136c0,-0.77395 0.64167,-1.40136 1.43321,-1.40136z" fill="#005387"/><path d="M287.94798,179.27363c0.79154,0 1.43321,0.62741 1.43321,1.40136c0,0.77395 -0.64167,1.40136 -1.43321,1.40136c-0.79154,0 -1.43321,-0.62741 -1.43321,-1.40136c0,-0.77395 0.64167,-1.40136 1.43321,-1.40136z" fill="#005387"/></g><path d="M190.4885,142.48352c0,-12.968 10.51265,-23.48065 23.48065,-23.48065c12.968,0 23.48065,10.51265 23.48065,23.48065c0,0 -11.47668,1.32743 -22.21258,1.48899c-12.59558,0.18954 -24.74873,-0.82413 -24.74873,-1.48899z" fill="#ffc98c" stroke="#000000" stroke-width="2" stroke-linecap="butt"/><path d="M292.04977,142.28352c0,0.66485 -11.48649,1.67854 -24.08207,1.48899c-10.7359,-0.16156 -22.87924,-1.48899 -22.87924,-1.48899c0,-12.968 10.51265,-23.48065 23.48065,-23.48065c12.968,0 23.48065,10.51265 23.48065,23.48065z" data-paper-data="{&quot;index&quot;:null}" fill="#ffc98c" stroke="#000000" stroke-width="2" stroke-linecap="butt"/><path d="M250.78208,186.73727c0,2.53131 -4.66556,4.58333 -10.42083,4.58333c-5.75527,0 -10.42083,-2.05202 -10.42083,-4.58333c0,-2.53131 4.66556,-4.58333 10.42083,-4.58333c5.75527,0 10.42083,2.05202 10.42083,4.58333z" fill="#000000" stroke="none" stroke-width="0" stroke-linecap="butt"/><path d="M268.37731,110.75628c-3.9295,-0.92235 -11.96762,-0.86207 -11.96762,-0.86207c0,0 7.24586,-1.8937 12.33413,-0.69937c5.08826,1.19433 11.79721,6.36355 11.79721,6.36355c0,0 -8.05724,-3.83822 -12.16372,-4.80211z" data-paper-data="{&quot;index&quot;:null}" fill="#000000" stroke="none" stroke-width="0" stroke-linecap="butt"/></g></g></svg>