<svg version="1.1" xmlns="http://www.w3.org/2000/svg" xmlns:xlink="http://www.w3.org/1999/xlink" width="291.89777" height="425.10406" viewBox="0,0,291.89777,425.10406"><defs><linearGradient x1="242.64317" y1="139.41166" x2="242.64317" y2="244.71335" gradientUnits="userSpaceOnUse" id="color-1"><stop offset="0" stop-color="#000000"/><stop offset="1" stop-color="#616161"/></linearGradient><linearGradient x1="278.56156" y1="165.70166" x2="288.29053" y2="182.65098" gradientUnits="userSpaceOnUse" id="color-2"><stop offset="0" stop-color="#000000"/><stop offset="1" stop-color="#2f2f2f"/></linearGradient><linearGradient x1="277.96672" y1="166.01239" x2="287.62948" y2="182.8464" gradientUnits="userSpaceOnUse" id="color-3"><stop offset="0" stop-color="#000000"/><stop offset="1" stop-color="#131313"/></linearGradient><linearGradient x1="291.20081" y1="166.16846" x2="293.53929" y2="170.24245" gradientUnits="userSpaceOnUse" id="color-4"><stop offset="0" stop-color="#000000"/><stop offset="1" stop-color="#131313"/></linearGradient><linearGradient x1="271.54557" y1="177.27648" x2="274.06052" y2="181.65793" gradientUnits="userSpaceOnUse" id="color-5"><stop offset="0" stop-color="#000000"/><stop offset="1" stop-color="#131313"/></linearGradient><linearGradient x1="192.73857" y1="228.19389" x2="189.07988" y2="247.35874" gradientUnits="userSpaceOnUse" id="color-6"><stop offset="0" stop-color="#000000"/><stop offset="1" stop-color="#2f2f2f"/></linearGradient><linearGradient x1="193.40286" y1="228.29624" x2="189.76905" y2="247.33072" gradientUnits="userSpaceOnUse" id="color-7"><stop offset="0" stop-color="#000000"/><stop offset="1" stop-color="#131313"/></linearGradient><linearGradient x1="180.93614" y1="232.70557" x2="180.05674" y2="237.31209" gradientUnits="userSpaceOnUse" id="color-8"><stop offset="0" stop-color="#000000"/><stop offset="1" stop-color="#131313"/></linearGradient><linearGradient x1="203.16062" y1="236.88287" x2="202.21483" y2="241.83705" gradientUnits="userSpaceOnUse" id="color-9"><stop offset="0" stop-color="#000000"/><stop offset="1" stop-color="#131313"/></linearGradient><linearGradient x1="327.35062" y1="49.92373" x2="327.35062" y2="125.75513" gradientUnits="userSpaceOnUse" id="color-10"><stop offset="0" stop-color="#000000"/><stop offset="1" stop-color="#ffda36"/></linearGradient><linearGradient x1="317.15378" y1="76.042" x2="317.15378" y2="110.91262" gradientUnits="userSpaceOnUse" id="color-11"><stop offset="0" stop-color="#000000"/><stop offset="1" stop-color="#756419"/></linearGradient><linearGradient x1="317.12805" y1="77.66831" x2="317.12805" y2="109.381" gradientUnits="userSpaceOnUse" id="color-12"><stop offset="0" stop-color="#000000"/><stop offset="1" stop-color="#000000"/></linearGradient><linearGradient x1="170.67628" y1="49.92371" x2="170.67628" y2="147.71544" gradientUnits="userSpaceOnUse" id="color-13"><stop offset="0" stop-color="#000000"/><stop offset="1" stop-color="#3c53e8"/></linearGradient><linearGradient x1="176.25316" y1="76.042" x2="176.25316" y2="110.91262" gradientUnits="userSpaceOnUse" id="color-14"><stop offset="0" stop-color="#000000"/><stop offset="1" stop-color="#2c3daa"/></linearGradient><linearGradient x1="176.2789" y1="77.66831" x2="176.2789" y2="109.381" gradientUnits="userSpaceOnUse" id="color-15"><stop offset="0" stop-color="#000000"/><stop offset="1" stop-color="#000000"/></linearGradient><linearGradient x1="246.1348" y1="74.61889" x2="246.1348" y2="171.91162" gradientUnits="userSpaceOnUse" id="color-16"><stop offset="0" stop-color="#000000"/><stop offset="1" stop-color="#2cf245"/></linearGradient><linearGradient x1="245.59234" y1="84.71244" x2="245.59234" y2="155.14753" gradientUnits="userSpaceOnUse" id="color-17"><stop offset="0" stop-color="#000000"/><stop offset="1" stop-color="#1c9a2d"/></linearGradient><linearGradient x1="245.53539" y1="87.48141" x2="245.53539" y2="152.38011" gradientUnits="userSpaceOnUse" id="color-18"><stop offset="0" stop-color="#000000"/><stop offset="1" stop-color="#000000"/></linearGradient><linearGradient x1="161.29336" y1="-42.09916" x2="161.29336" y2="56.34269" gradientUnits="userSpaceOnUse" id="color-19"><stop offset="0" stop-color="#000000"/><stop offset="1" stop-color="#9b00e0"/></linearGradient><linearGradient x1="167.62575" y1="-5.34969" x2="167.62575" y2="30.40131" gradientUnits="userSpaceOnUse" id="color-20"><stop offset="0" stop-color="#000000"/><stop offset="1" stop-color="#660092"/></linearGradient><linearGradient x1="167.6552" y1="-3.78785" x2="167.6552" y2="28.74483" gradientUnits="userSpaceOnUse" id="color-21"><stop offset="0" stop-color="#000000"/><stop offset="1" stop-color="#000000"/></linearGradient><linearGradient x1="244.88021" y1="-111.38112" x2="244.88021" y2="31.54192" gradientUnits="userSpaceOnUse" id="color-22"><stop offset="0" stop-color="#000000"/><stop offset="1" stop-color="#f32b2b"/></linearGradient><linearGradient x1="243.59234" y1="-48.98674" x2="243.59234" y2="21.44836" gradientUnits="userSpaceOnUse" id="color-23"><stop offset="0" stop-color="#000000"/><stop offset="1" stop-color="#731515"/></linearGradient><linearGradient x1="243.53539" y1="18.6794" x2="243.53539" y2="-46.21931" gradientUnits="userSpaceOnUse" id="color-24"><stop offset="0" stop-color="#000000"/><stop offset="1" stop-color="#000000"/></linearGradient><linearGradient x1="331.07041" y1="-16.24141" x2="331.07041" y2="55.84271" gradientUnits="userSpaceOnUse" id="color-25"><stop offset="0" stop-color="#000000"/><stop offset="1" stop-color="#ff7a36"/></linearGradient><linearGradient x1="322.2812" y1="-5.84969" x2="322.2812" y2="29.90131" gradientUnits="userSpaceOnUse" id="color-26"><stop offset="0" stop-color="#000000"/><stop offset="1" stop-color="#5a2b13"/></linearGradient><linearGradient x1="322.25175" y1="-4.28784" x2="322.25175" y2="28.24483" gradientUnits="userSpaceOnUse" id="color-27"><stop offset="0" stop-color="#000000"/><stop offset="1" stop-color="#b55626"/></linearGradient><linearGradient x1="245.51455" y1="-11.30463" x2="245.51455" y2="109.29204" gradientUnits="userSpaceOnUse" id="color-28"><stop offset="0" stop-color="#000000"/><stop offset="1" stop-color="#fbf6f6"/></linearGradient><linearGradient x1="249.31772" y1="78.11462" x2="250.88023" y2="101.29386" gradientUnits="userSpaceOnUse" id="color-29"><stop offset="0" stop-color="#000000"/><stop offset="1" stop-color="#ffffff"/></linearGradient><linearGradient x1="249.31772" y1="78.11462" x2="250.88023" y2="101.29386" gradientUnits="userSpaceOnUse" id="color-30"><stop offset="0" stop-color="#000000"/><stop offset="1" stop-color="#ffffff"/></linearGradient><linearGradient x1="249.31772" y1="78.11462" x2="250.88023" y2="101.29386" gradientUnits="userSpaceOnUse" id="color-31"><stop offset="0" stop-color="#000000"/><stop offset="1" stop-color="#ffffff"/></linearGradient><linearGradient x1="249.31772" y1="78.11462" x2="250.88023" y2="101.29386" gradientUnits="userSpaceOnUse" id="color-32"><stop offset="0" stop-color="#000000"/><stop offset="1" stop-color="#ffffff"/></linearGradient><linearGradient x1="251.15591" y1="78.44099" x2="252.71843" y2="101.62022" gradientUnits="userSpaceOnUse" id="color-33"><stop offset="0" stop-color="#000000"/><stop offset="1" stop-color="#ffffff"/></linearGradient><linearGradient x1="243.87323" y1="52.13364" x2="243.87323" y2="70.96697" gradientUnits="userSpaceOnUse" id="color-34"><stop offset="0" stop-color="#000000" stop-opacity="0"/><stop offset="1" stop-color="#000000"/></linearGradient></defs><g transform="translate(-99.00459,111.38112)"><g data-paper-data="{&quot;isPaintingLayer&quot;:true}" fill-rule="nonzero" stroke="none" stroke-linejoin="miter" stroke-miterlimit="10" stroke-dasharray="" stroke-dashoffset="0" style="mix-blend-mode: normal"><g stroke-width="0" stroke-linecap="butt"><path d="M179.67727,313.72294v-354.31209h116.08143v354.3121z" fill-opacity="0.01" fill="#000000"/><g><path d="M182.92937,301.31421l25.12917,-226.72846l62.70033,-0.27152l22.52551,227z" fill="#000000"/><path d="M201.10825,139.41166c14.13124,13.8313 27.67904,27.95826 42.38826,41.44902c13.7887,12.64649 24.5337,22.83527 41.01202,33.45473l3.0604,30.39794c-11.72278,-6.65661 -23.04018,-13.74883 -33.8937,-21.29596c-9.13846,-6.35455 -16.79509,-14.14175 -24.54133,-21.53093c-5.32462,-5.07921 -10.85497,-10.03635 -15.97915,-15.23441c-5.45243,-5.53105 -10.50135,-11.2771 -15.43734,-17.08584z" fill="url(#color-1)"/><path d="M246.84867,196.07215c0,1.42674 -1.54099,2.58334 -3.44188,2.58334c-1.90089,0 -3.44187,-1.1566 -3.44187,-2.58334c0,-1.42674 1.54098,-2.58333 3.44187,-2.58333c1.90089,0 3.44188,1.15659 3.44188,2.58333z" fill="#000000"/><path d="M263.6278,213.82215c0,1.42674 -1.54098,2.58334 -3.44188,2.58334c-1.90089,0 -3.44187,-1.1566 -3.44187,-2.58334c0,-1.42674 1.54098,-2.58333 3.44187,-2.58333c1.90089,0 3.44188,1.15659 3.44188,2.58333z" fill="#000000"/><path d="M253.62486,205.07215c0,1.42674 -1.54098,2.58334 -3.44188,2.58334c-1.90089,0 -3.44187,-1.1566 -3.44187,-2.58334c0,-1.42674 1.54099,-2.58333 3.44187,-2.58333c1.90089,0 3.44188,1.15659 3.44188,2.58333z" fill="#000000"/><path d="M275.24412,219.82215c0,1.42674 -1.54098,2.58334 -3.44188,2.58334c-1.90089,0 -3.44188,-1.1566 -3.44188,-2.58334c0,-1.42674 1.54099,-2.58333 3.44188,-2.58333c1.90089,0 3.44188,1.15659 3.44188,2.58333z" fill="#000000"/></g><g data-paper-data="{&quot;index&quot;:null}"><path d="M274.27887,190.56956l-9.72895,-16.94932l28.02332,-15.83716l9.72895,16.94932z" fill="url(#color-2)"/><path d="M281.88861,186.09082l-9.66278,-16.83402l11.48178,-6.48883l9.66278,16.83401z" fill="url(#color-3)"/><path d="M291.20081,166.16846c1.39722,-0.78963 3.05337,-0.51775 3.69912,0.60725c0.64575,1.125 0.03657,2.67711 -1.36064,3.46674c-1.39722,0.78963 -3.05337,0.51775 -3.69912,-0.60725c-0.64575,-1.125 -0.03657,-2.67711 1.36064,-3.46673z" fill="url(#color-4)"/><path d="M271.54557,177.27648c1.55843,-0.88073 3.38479,-0.61389 4.07928,0.59601c0.69448,1.2099 -0.00588,2.90471 -1.56431,3.78544c-1.55843,0.88073 -3.38478,0.61389 -4.07927,-0.59601c-0.69448,-1.2099 0.00587,-2.90471 1.5643,-3.78544z" fill="url(#color-5)"/></g></g><g stroke-width="0" stroke-linecap="butt"><path d="M173.23669,244.38087l3.65868,-19.16485l31.68639,5.95574l-3.65868,19.16485z" fill="url(#color-6)"/><path d="M183.27775,246.11062l3.63379,-19.03448l12.98262,2.4402l-3.6338,19.03448z" fill="url(#color-7)"/><path d="M183.35702,235.5465c-0.24284,1.27205 -1.72043,2.06254 -3.30028,1.76559c-1.57985,-0.29695 -2.66371,-1.56888 -2.42087,-2.84093c0.24284,-1.27205 1.72043,-2.06254 3.30028,-1.76559c1.57985,0.29695 2.66371,1.56888 2.42087,2.84093z" fill="url(#color-8)"/><path d="M205.87837,239.95967c-0.26116,1.36806 -1.9014,2.20859 -3.66353,1.87738c-1.76214,-0.33121 -2.97892,-1.70874 -2.71775,-3.0768c0.26116,-1.36806 1.9014,-2.20859 3.66353,-1.87738c1.76214,0.33121 2.97892,1.70874 2.71776,3.0768z" fill="url(#color-9)"/></g><g stroke-width="0"><g data-paper-data="{&quot;index&quot;:null}"><path d="M274.3848,71.20446c5.40317,-9.92849 21.0093,-21.80472 40.99829,-21.26285c9.71676,0.2634 22.97174,15.42863 35.90798,30.99974c17.24829,20.76145 33.15214,43.41112 31.82839,43.69945c-8.1943,1.78481 -32.88087,1.21023 -55.93777,-0.21281c-21.62817,-1.33486 -41.76234,-3.17609 -47.27027,-11.57814c-9.46459,-14.4377 -10.37648,-32.73363 -5.52662,-41.64541z" data-paper-data="{&quot;index&quot;:null}" fill="url(#color-10)" stroke-linecap="butt"/><g><path d="M350.43172,110.72878c-0.75424,1.38592 -16.26472,-5.21428 -34.64361,-14.74202c-18.37888,-9.52773 -32.66651,-18.37498 -31.91227,-19.76092c0.75423,-1.38594 16.26475,5.21431 34.64363,14.74204c18.37888,9.52773 32.66648,18.37498 31.91225,19.7609z" fill="url(#color-11)" stroke-linecap="butt"/><path d="M347.81236,109.381c0,0 -15.0106,-7.75683 -23.85945,-12.32953c-11.09495,-5.7334 -37.50917,-19.38316 -37.50917,-19.38316" fill="url(#color-12)" stroke-linecap="round"/></g></g><g><path d="M219.02215,71.20444c4.84986,8.91178 3.93797,27.20771 -5.52662,41.64541c-5.50794,8.40205 -25.6421,10.24329 -47.27027,11.57814c-23.0569,1.42303 -47.74347,1.99761 -55.93776,0.21281c-1.32376,-0.28833 14.58009,-22.938 31.82839,-43.69946c12.93624,-15.5711 26.19122,-30.73633 35.90798,-30.99973c19.98899,-0.54187 35.59512,11.33436 40.99829,21.26285z" data-paper-data="{&quot;index&quot;:null}" fill="url(#color-13)" stroke-linecap="butt"/><g><path d="M174.88748,90.96788c18.37888,-9.52773 33.8894,-16.12798 34.64363,-14.74204c0.75424,1.38594 -13.53339,10.23319 -31.91227,19.76092c-18.37889,9.52774 -33.88937,16.12794 -34.64361,14.74202c-0.75423,-1.38592 13.53337,-10.23317 31.91225,-19.7609z" fill="url(#color-14)" stroke-linecap="butt"/><path d="M206.96321,77.66831c0,0 -26.41422,13.64976 -37.50917,19.38316c-8.84885,4.5727 -23.85945,12.32953 -23.85945,12.32953" fill="url(#color-15)" stroke-linecap="round"/></g></g><g data-paper-data="{&quot;index&quot;:null}"><path d="M285.22479,98.37159c6.32165,11.06784 -8.46858,41.21174 -21.56108,71.6525c-9.20456,21.40108 -17.06426,47.50048 -18.34798,47.51783c-0.86874,0.01175 -6.39287,-22.88006 -13.82228,-40.30651c-13.18663,-30.9306 -30.22523,-66.14691 -22.55503,-78.85312c8.70386,-14.41853 25.27554,-23.61583 35.99492,-23.76078c11.94231,-0.16148 30.79963,7.13201 40.29145,23.75009z" data-paper-data="{&quot;index&quot;:null}" fill="url(#color-16)" stroke-linecap="butt"/><g><path d="M246.17835,155.14751c-1.66702,0.02254 -3.28083,-15.7266 -3.60446,-35.17671c-0.32363,-19.45009 0.76539,-35.23579 2.43244,-35.25833c1.66704,-0.02254 3.28082,15.72662 3.60445,35.17672c0.32363,19.4501 -0.76539,35.23578 -2.43243,35.25832z" fill="url(#color-17)" stroke-linecap="butt"/><path d="M246.12279,152.38011l-1.17481,-64.89872" fill="url(#color-18)" stroke-linecap="round"/></g></g></g><g stroke-width="0"><g data-paper-data="{&quot;index&quot;:null}"><path d="M169.0666,56.30789c-6.57545,-0.22256 -13.69438,-9.75836 -23.18227,-18.8059c-21.81543,-20.80294 -47.58145,-51.88481 -46.86513,-53.0354c0.44608,-0.71653 43.82568,0.40925 76.57291,3.51654c15.75866,1.49529 29.82356,-0.39267 34.00257,5.466c10.42424,14.61406 11.21771,33.01529 5.67263,41.92194c-6.1777,9.92277 -23.81133,21.69466 -46.20069,20.93686z" data-paper-data="{&quot;index&quot;:null}" fill="url(#color-19)" stroke-linecap="butt"/><g><path d="M130.55558,-5.1706c0.86234,-1.38511 18.15832,5.41495 38.6316,15.18842c20.47327,9.77346 36.37111,18.81927 35.50875,20.20441c-0.86234,1.38513 -18.15833,-5.41495 -38.63162,-15.18842c-20.47327,-9.77346 -36.37109,-18.81927 -35.50875,-20.20441z" fill="url(#color-20)" stroke-linecap="butt"/><path d="M201.83681,28.74483c0,0 -21.21362,-10.09512 -32.2716,-15.35739c-11.69415,-5.56502 -36.09162,-17.17528 -36.09162,-17.17528" fill="url(#color-21)" stroke-linecap="round"/></g></g><g data-paper-data="{&quot;index&quot;:null}"><path d="M283.22479,7.78921c-9.49182,16.61808 -28.34914,23.91157 -40.29145,23.75009c-10.71938,-0.14495 -27.29106,-9.34225 -35.99492,-23.76078c-7.6702,-12.70621 9.3684,-47.92251 22.55503,-78.85311c7.42941,-17.42645 12.95354,-40.31826 13.82228,-40.30652c1.28372,0.01736 9.14342,26.11676 18.34798,47.51784c13.0925,30.44075 27.88273,60.58466 21.56108,71.65249z" data-paper-data="{&quot;index&quot;:null}" fill="url(#color-22)" stroke-linecap="butt"/><g><path d="M246.61078,-13.72838c-0.32363,19.4501 -1.93741,35.19926 -3.60445,35.17672c-1.66705,-0.02254 -2.75607,-15.80824 -2.43244,-35.25833c0.32363,-19.45011 1.93744,-35.19925 3.60446,-35.17671c1.66704,0.02254 2.75606,15.80822 2.43243,35.25832z" fill="url(#color-23)" stroke-linecap="butt"/><path d="M244.12279,-46.21931l-1.17481,64.89872" fill="url(#color-24)" stroke-linecap="round"/></g></g><g data-paper-data="{&quot;index&quot;:null}"><path d="M320.84033,55.80792c-22.38936,0.7578 -40.02299,-11.01409 -46.20069,-20.93686c-5.54508,-8.90665 -4.75161,-27.30788 5.67263,-41.92194c4.179,-5.85867 18.24391,-3.9707 34.00257,-5.466c32.74723,-3.10729 76.12683,-4.23307 76.57291,-3.51654c0.71632,1.15059 -25.0497,32.23246 -46.86513,53.03541c-9.48789,9.04754 -16.60682,18.58334 -23.18227,18.8059z" data-paper-data="{&quot;index&quot;:null}" fill="url(#color-25)" stroke-linecap="butt"/><g><path d="M359.35139,-5.6706c0.86234,1.38514 -15.03548,10.43095 -35.50875,20.20441c-20.47329,9.77347 -37.76928,16.57355 -38.63162,15.18842c-0.86236,-1.38514 15.03548,-10.43095 35.50875,-20.20441c20.47328,-9.77347 37.76926,-16.57353 38.6316,-15.18842z" fill="url(#color-26)" stroke-linecap="butt"/><path d="M356.43336,-4.28784c0,0 -24.39747,11.61026 -36.09162,17.17528c-11.05798,5.26227 -32.2716,15.35739 -32.2716,15.35739" fill="url(#color-27)" stroke-linecap="round"/></g></g></g><path d="M181.27753,48.99371c0,-33.30185 28.7599,-60.29833 64.23702,-60.29833c35.47712,0 64.23702,26.99649 64.23702,60.29833c0,33.30185 -28.7599,60.29833 -64.23702,60.29833c-35.47712,0 -64.23702,-26.99649 -64.23702,-60.29833z" fill="url(#color-28)" stroke-width="0" stroke-linecap="butt"/><path d="M194.16107,49.42318c0,-12.968 10.51265,-23.48065 23.48065,-23.48065c12.968,0 23.48065,10.51265 23.48065,23.48065c0,12.968 -10.51265,23.48065 -23.48065,23.48065c-12.968,0 -23.48065,-10.51265 -23.48065,-23.48065z" fill="#ff0000" stroke-width="0" stroke-linecap="butt"/><path d="M271.90016,72.90381c-12.968,0 -23.48065,-10.51265 -23.48065,-23.48065c0,-12.968 10.51265,-23.48065 23.48065,-23.48065c12.968,0 23.48065,10.51265 23.48065,23.48065c0,12.968 -10.51265,23.48065 -23.48065,23.48065z" data-paper-data="{&quot;index&quot;:null}" fill="#ff0000" stroke-width="2" stroke-linecap="butt"/><path d="M194.55686,54.29993c0.42422,0.01365 44.7679,0.00964 45.91361,-0.09419c-1.37059,10.51641 -10.94797,18.66228 -22.55898,18.66228c-4.55009,0 -11.64737,-2.12574 -15.40492,-5.40243c-6.23468,-5.4368 -7.94971,-13.16566 -7.94971,-13.16566z" data-paper-data="{&quot;index&quot;:null}" fill="#ff4242" stroke-width="2" stroke-linecap="butt"/><path d="M248.8902,54.4666c0.42422,0.01365 44.7679,0.00964 45.91361,-0.09419c-1.37059,10.51642 -10.94797,18.66228 -22.55898,18.66228c-4.55009,0 -11.64736,-2.12575 -15.40492,-5.40243c-6.23468,-5.4368 -7.94971,-13.16566 -7.94971,-13.16566z" data-paper-data="{&quot;index&quot;:null}" fill="#ff4242" stroke-width="2" stroke-linecap="butt"/><path d="M274.17783,49.39211c0,1.10457 -0.87056,2 -1.94445,2c-1.07389,0 -1.94444,-0.89543 -1.94444,-2c0,-1.10457 0.87056,-2 1.94444,-2c1.07389,0 1.94445,0.89543 1.94445,2z" fill="#ff0000" stroke-width="0" stroke-linecap="butt"/><g stroke-width="0" stroke-linecap="butt"><path d="M280.65076,56.77154c-1.88684,3.59314 -5.10943,5.96056 -8.76789,5.96056c-5.81436,0 -10.52784,-5.97977 -10.52784,-13.3562c0,-7.37642 4.71347,-13.3562 10.52784,-13.3562c5.81436,0 10.52783,5.97977 10.52783,13.3562c0,2.73512 -0.64804,5.27821 -1.75995,7.39564z" data-paper-data="{&quot;index&quot;:null}" fill="#000000"/><path d="M271.77043,47.50877c1.07389,0 1.94445,0.89543 1.94445,2c0,1.10457 -0.87057,2 -1.94445,2c-1.07389,0 -1.94445,-0.89543 -1.94445,-2c0,-1.10457 0.87057,-2 1.94445,-2z" data-paper-data="{&quot;index&quot;:null}" fill="#ff0000"/></g><g stroke-width="0" stroke-linecap="butt"><path d="M226.32219,56.77154c-1.88684,3.59314 -5.10943,5.96056 -8.76789,5.96056c-5.81436,0 -10.52784,-5.97977 -10.52784,-13.3562c0,-7.37642 4.71347,-13.3562 10.52784,-13.3562c5.81436,0 10.52783,5.97977 10.52783,13.3562c0,2.73512 -0.64804,5.27821 -1.75995,7.39564z" data-paper-data="{&quot;index&quot;:null}" fill="#000000"/><path d="M217.44187,47.50877c1.07389,0 1.94445,0.89543 1.94445,2c0,1.10457 -0.87057,2 -1.94445,2c-1.07389,0 -1.94445,-0.89543 -1.94445,-2c0,-1.10457 0.87057,-2 1.94445,-2z" data-paper-data="{&quot;index&quot;:null}" fill="#ff0000"/></g><g data-paper-data="{&quot;index&quot;:null}" stroke-width="0" stroke-linecap="butt"><path d="M209.65287,75.82537c0,0 15.22314,8.40314 21.6438,7.69521c4.79291,-0.52847 13.55806,-4.22734 19.60781,-4.63515c1.0774,-0.07263 11.07998,0.66282 19.8669,1.10253c5.03293,0.25186 19.69751,-10.89714 19.7215,-10.54119c0.02503,0.37133 -19.8071,30.27106 -38.21541,31.51196c-0.32159,0.02168 -0.64319,0.03865 -0.96473,0.05103c-5.13025,0.19759 -16.7293,-2.711 -25.38676,-8.37253c-9.6747,-6.32674 -16.18823,-15.55268 -16.27311,-16.81184z" fill="#000000"/><path d="M290.3874,69.69482c0.00827,0.1227 -5.86518,7.96041 -8.96469,11.44664c-1.67584,0.88785 -6.49333,5.06949 -7.74893,5.81008c-0.49369,0.2912 -1.80275,-4.33494 -1.89038,-6.7281c0.09892,-0.00842 1.52812,-0.14088 3.01775,-0.99055c5.11445,-2.91725 15.57239,-9.74364 15.58625,-9.53806z" fill="url(#color-29)"/><path d="M260.60508,87.42375c-0.69099,-0.8435 -2.6379,-6.49447 -3.15868,-7.90397c2.88869,0.17776 6.35375,0.3938 9.80841,0.58427c-1.42515,1.81613 -6.063,8.03589 -6.64971,7.3197z" fill="url(#color-30)"/><path d="M250.39989,79.16039c0.2401,-0.01619 0.92337,0.00775 1.93764,0.0596c-1.09321,2.13427 -4.20362,7.11064 -4.42652,7.45897c-0.02801,0.04378 -2.8571,-5.44689 -3.44315,-6.45399c2.10003,-0.53224 4.13573,-0.94348 5.93204,-1.06457z" fill="url(#color-31)"/><path d="M237.90627,87.2305c-0.43454,0.64548 -4.11112,-3.06673 -4.95226,-3.81083c1.92033,-0.42479 4.18205,-1.105 6.53616,-1.80001c-0.38963,1.88632 -0.97918,3.70766 -1.58389,5.61082z" fill="url(#color-32)"/><path d="M219.74762,85.74928c-3.53936,-3.0387 -10.41157,-10.01723 -10.41984,-10.13993c-0.01386,-0.20558 11.26563,5.15548 16.72534,7.35993c1.59018,0.64206 3.02425,0.5815 3.12339,0.57657c0.23436,2.38326 -0.44199,7.14324 -0.9703,6.92094c-1.34364,-0.56536 -6.67875,-4.06262 -8.45859,-4.71753z" data-paper-data="{&quot;index&quot;:null}" fill="url(#color-33)"/></g><path d="M227.20656,70.96697c0,0 5.25291,-2.13522 8.6582,-6.54449c3.07816,-3.98568 4.3418,-10.22577 4.3418,-11.28884c0,-0.61104 8.66667,-1 8.66667,-1c0,0 2.63936,8.95253 4.59399,11.99945c1.81239,2.8252 7.07268,6.83388 7.07268,6.83388c0,0 -10.62425,-5.66666 -15.66666,-5.66666c-5.92554,0 -17.66667,5.66666 -17.66667,5.66666z" fill="url(#color-34)" stroke-width="0" stroke-linecap="butt"/></g></g></svg>