<svg version="1.1" xmlns="http://www.w3.org/2000/svg" xmlns:xlink="http://www.w3.org/1999/xlink" width="157.50779" height="250.53277" viewBox="0,0,157.50779,250.53277"><defs><linearGradient x1="240.00008" y1="175.50002" x2="240.00008" y2="307.50002" gradientUnits="userSpaceOnUse" id="color-1"><stop offset="0" stop-color="#000000"/><stop offset="1" stop-color="#e67c00"/></linearGradient><linearGradient x1="168.14706" y1="86.80052" x2="168.14706" y2="155.60052" gradientUnits="userSpaceOnUse" id="color-2"><stop offset="0" stop-color="#000000"/><stop offset="1" stop-color="#efd4af"/></linearGradient><linearGradient x1="257.79519" y1="56.96725" x2="257.79519" y2="79.87157" gradientUnits="userSpaceOnUse" id="color-3"><stop offset="0" stop-color="#000000"/><stop offset="1" stop-color="#f7dbb5"/></linearGradient><linearGradient x1="292.00188" y1="66.59138" x2="292.00188" y2="88.46142" gradientUnits="userSpaceOnUse" id="color-4"><stop offset="0" stop-color="#000000"/><stop offset="1" stop-color="#f7dbb5"/></linearGradient><linearGradient x1="276.77841" y1="61.28008" x2="276.77841" y2="83.15012" gradientUnits="userSpaceOnUse" id="color-5"><stop offset="0" stop-color="#000000"/><stop offset="1" stop-color="#f7dbb5"/></linearGradient><linearGradient x1="221.03918" y1="56.96725" x2="221.03918" y2="79.87157" gradientUnits="userSpaceOnUse" id="color-6"><stop offset="0" stop-color="#000000"/><stop offset="1" stop-color="#f7dbb5"/></linearGradient><linearGradient x1="236.0276" y1="57.37274" x2="236.0276" y2="80.27707" gradientUnits="userSpaceOnUse" id="color-7"><stop offset="0" stop-color="#000000"/><stop offset="1" stop-color="#f7dbb5"/></linearGradient><linearGradient x1="188.23339" y1="66.59138" x2="188.23339" y2="88.46142" gradientUnits="userSpaceOnUse" id="color-8"><stop offset="0" stop-color="#000000"/><stop offset="1" stop-color="#f7dbb5"/></linearGradient><linearGradient x1="202.83339" y1="61.28008" x2="202.83339" y2="83.15012" gradientUnits="userSpaceOnUse" id="color-9"><stop offset="0" stop-color="#000000"/><stop offset="1" stop-color="#f7dbb5"/></linearGradient><linearGradient x1="257.79517" y1="79.10999" x2="257.79517" y2="95.71141" gradientUnits="userSpaceOnUse" id="color-10"><stop offset="0" stop-color="#000000"/><stop offset="1" stop-color="#f7dbb5"/></linearGradient><linearGradient x1="292.00185" y1="72.88392" x2="292.00185" y2="88.7357" gradientUnits="userSpaceOnUse" id="color-11"><stop offset="0" stop-color="#000000"/><stop offset="1" stop-color="#f7dbb5"/></linearGradient><linearGradient x1="276.77842" y1="76.73363" x2="276.77842" y2="92.58541" gradientUnits="userSpaceOnUse" id="color-12"><stop offset="0" stop-color="#000000"/><stop offset="1" stop-color="#f7dbb5"/></linearGradient><linearGradient x1="221.03916" y1="77.77399" x2="221.03916" y2="95.71143" gradientUnits="userSpaceOnUse" id="color-13"><stop offset="0" stop-color="#000000"/><stop offset="1" stop-color="#f7dbb5"/></linearGradient><linearGradient x1="236.02759" y1="77.45642" x2="236.02759" y2="95.39385" gradientUnits="userSpaceOnUse" id="color-14"><stop offset="0" stop-color="#000000"/><stop offset="1" stop-color="#f7dbb5"/></linearGradient><linearGradient x1="188.23338" y1="72.21725" x2="188.23338" y2="88.89925" gradientUnits="userSpaceOnUse" id="color-15"><stop offset="0" stop-color="#000000"/><stop offset="1" stop-color="#f7dbb5"/></linearGradient><linearGradient x1="202.83338" y1="76.26859" x2="202.83338" y2="92.95058" gradientUnits="userSpaceOnUse" id="color-16"><stop offset="0" stop-color="#000000"/><stop offset="1" stop-color="#f7dbb5"/></linearGradient><linearGradient x1="239.41866" y1="80.33907" x2="239.41866" y2="177.29506" gradientUnits="userSpaceOnUse" id="color-17"><stop offset="0" stop-color="#000000"/><stop offset="1" stop-color="#f3e5e5"/></linearGradient><radialGradient cx="235.41435" cy="73.50231" r="15.35715" gradientUnits="userSpaceOnUse" id="color-18"><stop offset="0" stop-color="#af4300"/><stop offset="1" stop-color="#af4300" stop-opacity="0"/></radialGradient><radialGradient cx="256.77146" cy="74.78802" r="3.14285" gradientUnits="userSpaceOnUse" id="color-19"><stop offset="0" stop-color="#af4300"/><stop offset="1" stop-color="#af4300" stop-opacity="0"/></radialGradient><radialGradient cx="253.12863" cy="76.07374" r="2.64286" gradientUnits="userSpaceOnUse" id="color-20"><stop offset="0" stop-color="#af4300"/><stop offset="1" stop-color="#af4300" stop-opacity="0"/></radialGradient><radialGradient cx="266.3429" cy="74.64517" r="2.71429" gradientUnits="userSpaceOnUse" id="color-21"><stop offset="0" stop-color="#af4300"/><stop offset="1" stop-color="#af4300" stop-opacity="0"/></radialGradient><radialGradient cx="215.91435" cy="74.14517" r="4.57143" gradientUnits="userSpaceOnUse" id="color-22"><stop offset="0" stop-color="#af4300"/><stop offset="1" stop-color="#af4300" stop-opacity="0"/></radialGradient><linearGradient x1="212.66972" y1="91.61224" x2="212.66972" y2="120.04605" gradientUnits="userSpaceOnUse" id="color-23"><stop offset="0" stop-color="#000000"/><stop offset="1" stop-color="#d95300"/></linearGradient><linearGradient x1="266.97377" y1="91.45129" x2="266.97377" y2="119.8851" gradientUnits="userSpaceOnUse" id="color-24"><stop offset="0" stop-color="#000000"/><stop offset="1" stop-color="#d95300"/></linearGradient><linearGradient x1="220.86225" y1="94.27117" x2="220.86225" y2="118.33825" gradientUnits="userSpaceOnUse" id="color-25"><stop offset="0" stop-color="#000000"/><stop offset="1" stop-color="#fa6000"/></linearGradient><linearGradient x1="204.33128" y1="92.07414" x2="204.33128" y2="116.82616" gradientUnits="userSpaceOnUse" id="color-26"><stop offset="0" stop-color="#000000"/><stop offset="1" stop-color="#fa6000"/></linearGradient><linearGradient x1="258.2616" y1="94.30872" x2="258.2616" y2="118.3758" gradientUnits="userSpaceOnUse" id="color-27"><stop offset="0" stop-color="#000000"/><stop offset="1" stop-color="#fa6000"/></linearGradient><linearGradient x1="274.79256" y1="92.11169" x2="274.79256" y2="116.86369" gradientUnits="userSpaceOnUse" id="color-28"><stop offset="0" stop-color="#000000"/><stop offset="1" stop-color="#fa6000"/></linearGradient><linearGradient x1="236.64889" y1="124.24034" x2="236.64889" y2="135.66908" gradientUnits="userSpaceOnUse" id="color-29"><stop offset="0" stop-color="#7d3030" stop-opacity="0"/><stop offset="1" stop-color="#7d3030"/></linearGradient><linearGradient x1="280.51578" y1="149.79686" x2="280.51578" y2="156.19686" gradientUnits="userSpaceOnUse" id="color-30"><stop offset="0" stop-color="#000000"/><stop offset="1" stop-color="#ffffff"/></linearGradient><linearGradient x1="280.51578" y1="149.79686" x2="280.51578" y2="156.19686" gradientUnits="userSpaceOnUse" id="color-31"><stop offset="0" stop-color="#000000"/><stop offset="1" stop-color="#e2e2e2"/></linearGradient><linearGradient x1="285.61578" y1="148.19686" x2="285.61578" y2="153.39685" gradientUnits="userSpaceOnUse" id="color-32"><stop offset="0" stop-color="#000000"/><stop offset="1" stop-color="#ffffff"/></linearGradient><linearGradient x1="285.61578" y1="148.19686" x2="285.61578" y2="153.39685" gradientUnits="userSpaceOnUse" id="color-33"><stop offset="0" stop-color="#000000"/><stop offset="1" stop-color="#e2e2e2"/></linearGradient><linearGradient x1="193.16578" y1="147.79686" x2="193.16578" y2="154.19686" gradientUnits="userSpaceOnUse" id="color-34"><stop offset="0" stop-color="#000000"/><stop offset="1" stop-color="#e2e2e2"/></linearGradient><linearGradient x1="198.26578" y1="150.59686" x2="198.26578" y2="155.79686" gradientUnits="userSpaceOnUse" id="color-35"><stop offset="0" stop-color="#000000"/><stop offset="1" stop-color="#e2e2e2"/></linearGradient><linearGradient x1="209.12257" y1="147.57865" x2="209.12257" y2="154.44238" gradientUnits="userSpaceOnUse" id="color-36"><stop offset="0" stop-color="#000000"/><stop offset="1" stop-color="#3f3f3f"/></linearGradient><linearGradient x1="215.66414" y1="148.32834" x2="215.92462" y2="155.18831" gradientUnits="userSpaceOnUse" id="color-37"><stop offset="0" stop-color="#000000"/><stop offset="1" stop-color="#3f3f3f"/></linearGradient><linearGradient x1="221.95464" y1="148.92532" x2="222.54352" y2="155.76979" gradientUnits="userSpaceOnUse" id="color-38"><stop offset="0" stop-color="#000000"/><stop offset="1" stop-color="#3f3f3f"/></linearGradient><linearGradient x1="228.54217" y1="149.24546" x2="229.39048" y2="156.06915" gradientUnits="userSpaceOnUse" id="color-39"><stop offset="0" stop-color="#000000"/><stop offset="1" stop-color="#3f3f3f"/></linearGradient><linearGradient x1="235.45447" y1="149.49471" x2="236.22781" y2="156.32518" gradientUnits="userSpaceOnUse" id="color-40"><stop offset="0" stop-color="#000000"/><stop offset="1" stop-color="#3f3f3f"/></linearGradient><linearGradient x1="242.04882" y1="149.67942" x2="243.08095" y2="156.48379" gradientUnits="userSpaceOnUse" id="color-41"><stop offset="0" stop-color="#000000"/><stop offset="1" stop-color="#3f3f3f"/></linearGradient><linearGradient x1="268.63935" y1="147.95365" x2="268.63935" y2="154.81738" gradientUnits="userSpaceOnUse" id="color-42"><stop offset="0" stop-color="#000000"/><stop offset="1" stop-color="#3f3f3f"/></linearGradient><linearGradient x1="262.09776" y1="148.70334" x2="261.83729" y2="155.56331" gradientUnits="userSpaceOnUse" id="color-43"><stop offset="0" stop-color="#000000"/><stop offset="1" stop-color="#3f3f3f"/></linearGradient><linearGradient x1="255.80728" y1="149.30032" x2="255.21839" y2="156.14479" gradientUnits="userSpaceOnUse" id="color-44"><stop offset="0" stop-color="#000000"/><stop offset="1" stop-color="#3f3f3f"/></linearGradient><linearGradient x1="249.21974" y1="149.62046" x2="248.37143" y2="156.44415" gradientUnits="userSpaceOnUse" id="color-45"><stop offset="0" stop-color="#000000"/><stop offset="1" stop-color="#3f3f3f"/></linearGradient><linearGradient x1="208.81066" y1="161.04522" x2="208.81066" y2="154.18148" gradientUnits="userSpaceOnUse" id="color-46"><stop offset="0" stop-color="#000000"/><stop offset="1" stop-color="#3f3f3f"/></linearGradient><linearGradient x1="215.14389" y1="162.1137" x2="215.40437" y2="155.25373" gradientUnits="userSpaceOnUse" id="color-47"><stop offset="0" stop-color="#000000"/><stop offset="1" stop-color="#3f3f3f"/></linearGradient><linearGradient x1="222.28115" y1="162.77233" x2="221.72467" y2="155.9258" gradientUnits="userSpaceOnUse" id="color-48"><stop offset="0" stop-color="#000000"/><stop offset="1" stop-color="#3f3f3f"/></linearGradient><linearGradient x1="228.68514" y1="163.44708" x2="228.38879" y2="156.5882" gradientUnits="userSpaceOnUse" id="color-49"><stop offset="0" stop-color="#000000"/><stop offset="1" stop-color="#3f3f3f"/></linearGradient><linearGradient x1="236.19967" y1="163.37604" x2="235.11632" y2="156.57773" gradientUnits="userSpaceOnUse" id="color-50"><stop offset="0" stop-color="#000000"/><stop offset="1" stop-color="#3f3f3f"/></linearGradient><linearGradient x1="242.64118" y1="163.67301" x2="241.81642" y2="156.84712" gradientUnits="userSpaceOnUse" id="color-51"><stop offset="0" stop-color="#000000"/><stop offset="1" stop-color="#3f3f3f"/></linearGradient><linearGradient x1="249.81436" y1="163.46737" x2="248.18255" y2="156.753" gradientUnits="userSpaceOnUse" id="color-52"><stop offset="0" stop-color="#000000"/><stop offset="1" stop-color="#3f3f3f"/></linearGradient><linearGradient x1="256.2638" y1="163.36584" x2="254.8877" y2="156.60798" gradientUnits="userSpaceOnUse" id="color-53"><stop offset="0" stop-color="#000000"/><stop offset="1" stop-color="#3f3f3f"/></linearGradient><linearGradient x1="263.3642" y1="162.65097" x2="261.17953" y2="156.05735" gradientUnits="userSpaceOnUse" id="color-54"><stop offset="0" stop-color="#000000"/><stop offset="1" stop-color="#3f3f3f"/></linearGradient><linearGradient x1="269.78828" y1="162.1421" x2="267.85504" y2="155.48895" gradientUnits="userSpaceOnUse" id="color-55"><stop offset="0" stop-color="#000000"/><stop offset="1" stop-color="#3f3f3f"/></linearGradient></defs><g transform="translate(-146.80626,-56.96725)"><g data-paper-data="{&quot;isPaintingLayer&quot;:true}" fill-rule="nonzero" stroke-linejoin="miter" stroke-miterlimit="10" stroke-dasharray="" stroke-dashoffset="0" style="mix-blend-mode: normal"><path d="M206.75008,307.50001c0,0 2.17955,-18.9764 3.7767,-32.88207c2.77074,-24.12361 11.36615,-98.96003 11.36615,-98.96003l37.78325,-0.15789l13.57389,132c0,0 -9.36671,-0.5571 -16.98313,-3.00491c-9.3232,-2.99635 -17.68511,-7.99509 -23.58972,-7.99509c-11.39783,0 -25.92714,10.99999 -25.92714,10.99999z" fill="url(#color-1)" stroke="none" stroke-width="0" stroke-linecap="butt"/><path d="M230.00616,217.16891l-0.07091,-0.0644c-0.02994,-0.02603 -0.03904,-0.07017 -0.01949,-0.10661c0.02268,-0.04228 0.07534,-0.05817 0.11763,-0.03548l0.15312,0.08213l-0.01215,0.02264c0.19522,0.07816 0.37058,0.18309 0.58062,0.25526c0.75207,0.25841 1.5906,0.13802 2.27822,-0.2262c0.20203,-0.12049 0.38483,-0.23699 0.53889,-0.38694c0.05932,-0.09295 0.12903,-0.18588 0.20473,-0.24902c0.02079,-0.03224 0.04064,-0.06596 0.05949,-0.10131l0.00777,-0.00469l-0.00264,-0.00219l0.07951,-0.0964c0.02562,-0.03233 0.07147,-0.0427 0.1091,-0.02251c0.04228,0.02268 0.05817,0.07534 0.03549,0.11763l-0.00878,0.01638c0.02401,0.03225 0.01327,0.07479 0.01327,0.07479c-0.05308,0.18299 -0.22718,0.32315 -0.3826,0.4774c-0.09801,0.13809 -0.19804,0.27667 -0.27508,0.4246c-0.15494,0.49284 0.01097,1.13965 0.18337,1.5844c0.12493,0.32456 0.37579,0.60252 0.55209,0.90073l0.06142,0.08699c0.01931,0.02616 0.02307,0.06215 0.00667,0.09271c-0.02268,0.04228 -0.07534,0.05817 -0.11762,0.03549l-0.13125,-0.0704l0.00968,-0.01804c-0.27239,-0.10518 -0.5172,-0.27001 -0.8016,-0.36064c-0.66342,-0.2114 -1.3978,0.05378 -1.89542,0.51395c-0.17828,0.1063 -0.32403,0.25163 -0.42193,0.4362l-0.04693,0.0875c-0.02268,0.04228 -0.07534,0.05818 -0.11763,0.03549c-0.03842,-0.02061 -0.05506,-0.066 -0.04074,-0.10584l0.04772,-0.1406c0.00404,-1.02259 0.01788,-1.88196 -0.457,-2.86068c-0.06188,-0.15437 -0.13211,-0.26452 -0.23703,-0.39234zM233.77322,219.60986l0.03716,0.03156c0,0 0.01622,0.01718 0.02278,0.04208c0.00712,0.00366 0.01417,0.00737 0.02116,0.01114c-0.03921,-0.05746 -0.07922,-0.11472 -0.1187,-0.17233c0.01244,0.02905 0.02497,0.05822 0.0376,0.08755z" data-paper-data="{&quot;index&quot;:null}" fill="#000000" stroke="none" stroke-width="0.5" stroke-linecap="butt"/><path d="M185.22139,100.07651c-1.30084,0.40498 -11.53203,4.32572 -15.29959,7.56004c-3.14207,2.7197 -4.08754,9.58924 -4.12269,12.64864c-0.04255,3.73108 0.91197,6.70808 3.29049,10.28053c2.29956,3.4536 14.20782,11.15765 16.13179,12.07841l4.26648,12.95639c0,0 -20.22227,-4.49645 -32.31874,-14.89443c-4.08744,-3.51352 -9.8267,-12.8102 -10.32844,-21.48936c-0.47739,-8.25788 4.13488,-15.95673 6.0846,-17.58337c11.82862,-9.86858 32.2961,-14.83284 32.2961,-14.83284z" data-paper-data="{&quot;index&quot;:null}" fill="url(#color-2)" stroke="none" stroke-width="0" stroke-linecap="butt"/><g stroke="none" stroke-width="0" stroke-linecap="butt"><g data-paper-data="{&quot;index&quot;:null}"><g data-paper-data="{&quot;index&quot;:null}" fill="url(#color-3)"><path d="M249.13265,77.79911c-1.43795,-1.22127 -2.44285,-2.94424 -2.79866,-5.06624c-0.98212,-5.85726 3.35305,-12.53671 9.6829,-14.91897c6.32984,-2.38226 12.25738,0.43479 13.23951,6.29205c0.98212,5.85726 -3.35306,12.5367 -9.68291,14.91896c-4.03664,1.5192 -7.90966,0.92395 -10.44083,-1.2258z"/></g><g data-paper-data="{&quot;index&quot;:null}"><path d="M280.18458,77.5264c0,-6.03925 5.29078,-10.93502 11.8173,-10.93502c6.52652,0 11.8173,4.89578 11.8173,10.93502c0,6.03925 -5.29078,10.93502 -11.8173,10.93502c-6.52652,0 -11.8173,-4.89577 -11.8173,-10.93502z" fill="url(#color-4)"/><path d="M264.9611,72.2151c0,-6.03925 5.29079,-10.93502 11.8173,-10.93502c6.52652,0 11.8173,4.89577 11.8173,10.93502c0,6.03925 -5.29078,10.93502 -11.8173,10.93502c-6.52652,0 -11.8173,-4.89578 -11.8173,-10.93502z" fill="url(#color-5)"/></g></g><g data-paper-data="{&quot;index&quot;:null}"><path d="M219.33371,79.02491c-6.07061,-2.38226 -10.22825,-9.0617 -9.28634,-14.91896c0.9419,-5.85726 6.62668,-8.67431 12.69729,-6.29205c6.07061,2.38226 10.22824,9.06171 9.28634,14.91897c-0.9419,5.85726 -6.62668,8.6743 -12.69728,6.29204z" fill="url(#color-6)"/><path d="M234.32213,79.43042c-6.07061,-2.38226 -10.22825,-9.06171 -9.28634,-14.91897c0.9419,-5.85726 6.62668,-8.6743 12.69729,-6.29204c6.07061,2.38226 10.22824,9.0617 9.28634,14.91896c-0.9419,5.85726 -6.62668,8.6743 -12.69728,6.29205z" fill="url(#color-7)"/></g><g data-paper-data="{&quot;index&quot;:null}"><path d="M188.2334,88.46142c-6.25922,0 -11.33334,-4.89577 -11.33334,-10.93502c0,-6.03925 5.07411,-10.93502 11.33334,-10.93502c6.25922,0 11.33333,4.89578 11.33333,10.93502c0,6.03925 -5.07411,10.93502 -11.33333,10.93502z" fill="url(#color-8)"/><path d="M202.8334,83.15012c-6.25922,0 -11.33334,-4.89578 -11.33334,-10.93502c0,-6.03925 5.07411,-10.93502 11.33334,-10.93502c6.25922,0 11.33333,4.89577 11.33333,10.93502c0,6.03925 -5.07411,10.93502 -11.33333,10.93502z" fill="url(#color-9)"/></g></g><path d="M303.83333,81.73392c0,7.73199 -28.3553,14 -63.33333,14c-34.97803,0 -63.33333,-6.26801 -63.33333,-14c0,-7.73199 28.3553,-14 63.33333,-14c34.97803,0 63.33333,6.26801 63.33333,14z" fill="#6c2a00" stroke="none" stroke-width="0" stroke-linecap="butt"/><g stroke="none" stroke-width="0" stroke-linecap="butt"><g data-paper-data="{&quot;index&quot;:null}" fill="url(#color-10)"><path d="M259.57347,79.72365c6.32984,1.7267 10.66503,6.56807 9.68291,10.81351c-0.98212,4.24544 -6.90966,6.28728 -13.23951,4.56059c-6.32985,-1.7267 -10.66502,-6.56808 -9.6829,-10.81352c0.35581,-1.53806 1.36071,-2.7869 2.79866,-3.67209c2.53117,-1.55818 6.40419,-1.98963 10.44083,-0.88849z"/></g><g data-paper-data="{&quot;index&quot;:null}"><path d="M292.00185,72.88392c6.52652,0 11.8173,3.54854 11.8173,7.92589c0,4.37735 -5.29078,7.92589 -11.8173,7.92589c-6.52652,0 -11.8173,-3.54854 -11.8173,-7.92589c0,-4.37735 5.29078,-7.92589 11.8173,-7.92589z" fill="url(#color-11)"/><path d="M276.77842,76.73363c6.52652,0 11.8173,3.54854 11.8173,7.92589c0,4.37735 -5.29078,7.92589 -11.8173,7.92589c-6.52652,0 -11.8173,-3.54854 -11.8173,-7.92589c0,-4.37735 5.29079,-7.92589 11.8173,-7.92589z" fill="url(#color-12)"/></g></g><g stroke="none" stroke-width="0" stroke-linecap="butt"><path d="M232.03098,83.36463c0.9419,4.58709 -3.21573,9.81808 -9.28634,11.68374c-6.07061,1.86566 -11.75538,-0.34051 -12.69729,-4.9276c-0.9419,-4.58709 3.21573,-9.81807 9.28634,-11.68373c6.07061,-1.86566 11.75538,0.3405 12.69728,4.92759z" fill="url(#color-13)"/><path d="M247.01941,83.04706c0.9419,4.58709 -3.21573,9.81807 -9.28634,11.68373c-6.07061,1.86566 -11.75538,-0.3405 -12.69729,-4.92759c-0.9419,-4.58709 3.21573,-9.81808 9.28634,-11.68373c6.07061,-1.86566 11.75538,0.3405 12.69728,4.92759z" fill="url(#color-14)"/></g><g stroke="none" stroke-width="0" stroke-linecap="butt"><path d="M199.56672,80.55825c0,4.60661 -5.07411,8.341 -11.33333,8.341c-6.25922,0 -11.33334,-3.73439 -11.33334,-8.341c0,-4.60661 5.07411,-8.341 11.33334,-8.341c6.25922,0 11.33333,3.73439 11.33333,8.341z" fill="url(#color-15)"/><path d="M214.16672,84.60959c0,4.60661 -5.07411,8.34099 -11.33333,8.34099c-6.25922,0 -11.33334,-3.73439 -11.33334,-8.34099c0,-4.60661 5.07411,-8.341 11.33334,-8.341c6.25922,0 11.33333,3.73439 11.33333,8.341z" fill="url(#color-16)"/></g><path d="M174.52327,116.66756c0,-1.57271 0.34044,-30.50779 3.04944,-36.31717c0.14519,-0.31137 29.38735,5.90088 59.25932,5.9715c32.58371,0.07703 66.0433,-5.95118 66.49769,-5.41611c0.73852,0.86965 0.98433,31.81078 0.98433,36.09095c0,33.30185 -28.7599,60.29833 -64.23702,60.29833c-35.47712,0 -65.55375,-27.32567 -65.55375,-60.62751z" fill="url(#color-17)" stroke="none" stroke-width="0" stroke-linecap="butt"/><path d="M189.39021,115.09289c0,-12.968 10.51265,-23.48065 23.48065,-23.48065c12.968,0 23.48065,10.51265 23.48065,23.48065c0,12.968 -10.51265,23.48065 -23.48065,23.48065c-12.968,0 -23.48065,-10.51265 -23.48065,-23.48065z" fill="#ff0000" stroke="none" stroke-width="2" stroke-linecap="butt"/><path d="M267.12926,138.57351c-12.968,0 -23.48065,-10.51265 -23.48065,-23.48065c0,-12.968 10.51265,-23.48065 23.48065,-23.48065c12.968,0 23.48065,10.51265 23.48065,23.48065c0,12.968 -10.51265,23.48065 -23.48065,23.48065z" data-paper-data="{&quot;index&quot;:null}" fill="#ff0000" stroke="none" stroke-width="2" stroke-linecap="butt"/><path d="M267.62908,87.14898c-3.9295,-0.92235 -11.96762,-0.86207 -11.96762,-0.86207c0,0 7.24586,-1.8937 12.33413,-0.69937c5.08826,1.19433 11.79721,6.36355 11.79721,6.36355c0,0 -8.05724,-3.83822 -12.16372,-4.80211z" data-paper-data="{&quot;index&quot;:null}" fill="#000000" stroke="none" stroke-width="0" stroke-linecap="butt"/><path d="M201.7248,140.8547l2,-4" fill="none" stroke="#000000" stroke-width="2" stroke-linecap="round"/><path d="M213.1248,143.0547l0.2,-4" fill="none" stroke="#000000" stroke-width="2" stroke-linecap="round"/><g fill="none" stroke="#000000" stroke-width="2" stroke-linecap="round"><path d="M276.52477,137.0547l2,4" data-paper-data="{&quot;index&quot;:null}"/><path d="M266.92478,139.2547l0.2,4" data-paper-data="{&quot;index&quot;:null}"/></g><path d="M250.77148,73.50231c0,1.61741 -6.87563,2.92857 -15.35715,2.92857c-8.48152,0 -15.35714,-1.31117 -15.35714,-2.92857c0,-1.61741 6.87563,-2.92857 15.35714,-2.92857c8.48152,0 15.35715,1.31117 15.35715,2.92857z" fill="url(#color-18)" stroke="none" stroke-width="0" stroke-linecap="butt"/><path d="M259.91434,74.78802c0,1.14402 -1.40711,2.07143 -3.14285,2.07143c-1.73575,0 -3.14286,-0.92741 -3.14286,-2.07143c0,-1.14402 1.40711,-2.07143 3.14286,-2.07143c1.73575,0 3.14285,0.92741 3.14285,2.07143z" fill="url(#color-19)" stroke="none" stroke-width="0" stroke-linecap="butt"/><path d="M255.77148,76.07374c0,0.74953 -1.18325,1.35715 -2.64286,1.35715c-1.45961,0 -2.64285,-0.60761 -2.64285,-1.35715c0,-0.74953 1.18324,-1.35714 2.64285,-1.35714c1.45961,0 2.64286,0.60761 2.64286,1.35714z" fill="url(#color-20)" stroke="none" stroke-width="0" stroke-linecap="butt"/><path d="M269.05717,74.64517c0,0.67063 -1.21523,1.21429 -2.71429,1.21429c-1.49906,0 -2.71429,-0.54366 -2.71429,-1.21429c0,-0.67063 1.21523,-1.21429 2.71429,-1.21429c1.49906,0 2.71429,0.54366 2.71429,1.21429z" fill="url(#color-21)" stroke="none" stroke-width="0" stroke-linecap="butt"/><path d="M220.48576,74.14517c0,1.57796 -2.0467,2.85714 -4.57143,2.85714c-2.52473,0 -4.57143,-1.27918 -4.57143,-2.85714c0,-1.57796 2.04669,-2.85715 4.57143,-2.85715c2.52473,0 4.57143,1.27919 4.57143,2.85715z" fill="url(#color-22)" stroke="none" stroke-width="0" stroke-linecap="butt"/><path d="M290.58718,115.20003c0,0.46141 -4.99597,-1.58019 -13.12292,-2.90944c-3.47956,-0.56912 -8.67644,-1.00765 -12.42449,-1.06324c-2.35062,-0.03486 -6.08663,0.13137 -8.30428,0.41332c-8.03086,1.02101 -13.10962,3.55936 -13.10962,3.55936c0,-12.968 10.51265,-23.48065 23.48065,-23.48065c12.968,0 23.48065,10.51265 23.48065,23.48065z" data-paper-data="{&quot;index&quot;:null}" fill="none" stroke="none" stroke-width="2" stroke-linecap="butt"/><path d="M290.46729,114.57248c0,0.46141 -47.20897,4.95316 -47.20897,4.95316c0,-3.46603 1.01633,-10.57769 2.39038,-14.0576c3.76691,-9.54004 11.83595,-14.37621 21.33793,-14.37621c12.968,0 23.48065,10.51265 23.48065,23.48065z" data-paper-data="{&quot;index&quot;:null}" fill="none" stroke="none" stroke-width="0" stroke-linecap="butt"/><path d="M252.67105,195.95217c-2.5,0 -2.5,-2.5 -2.5,-2.5v-0.66666c0,-4.12667 -0.05139,-8.22837 0.15353,-12.33822c-0.41443,-0.03306 -0.7223,-0.00129 -0.82118,0.14535c-0.02749,0.04077 -0.25279,0.07396 -0.64061,0.10093c0.11944,14.69232 0.62577,29.35227 0.64124,44.07196c0.00036,0.01307 0.00036,0.01998 0.00036,0.01998l-0.00034,0.00005c0.00023,0.22219 0.00034,0.4444 0.00034,0.66662c0,0 0.17064,1.66541 -0.40282,2.62578c-0.41047,0.68742 -1.56791,0.76979 -1.75767,0.7445c-0.10317,-0.01376 -1.59553,-0.07822 -2.14204,-0.74135c-0.79189,-0.96087 -0.69748,-2.62892 -0.69748,-2.62892c0,-14.91565 -0.51787,-29.7677 -0.64075,-44.65365c-7.54102,0.04104 -19.98925,-0.10318 -20.18118,0.2327c-3.43852,6.01468 -9.45448,-7.80889 -9.39718,-8.80763c-5.9928,-2.40609 -12.38098,-3.6938 -16.67437,-9.07526c-1.54648,-1.5463 -3.25883,-3.57783 -5.06878,-4.62152c-1.48606,-0.85692 -2.34362,2.423 -3.85101,1.19369c-0.89914,-0.73327 -0.9772,-3.45023 -1.19088,-4.52724c-0.08037,-0.24009 -0.16186,-0.47981 -0.24111,-0.72027c-1.35809,-4.12052 -1.55346,1.84189 -3.27566,1.84189c-1.60795,0 -1.50433,-5.19817 -1.49757,-6.45074c-0.51856,-2.58202 -0.2964,-5.30403 -0.96976,-7.87417c-0.51815,-1.9777 -1.55199,-4.02488 -2.20376,-6.08362c-0.48441,-0.75641 -0.82103,-1.578 -0.82891,-2.59147c0,0 0,-0.31614 0.25137,-0.44566c-0.00053,-0.01811 -0.00098,-0.03623 -0.00137,-0.05434v-0.5c0,0 0,-0.5 0.5,-0.5h0.00003c0.5,0 0.5,0.5 0.5,0.5v0.5c-0.02815,0.81048 0.11953,1.6512 0.36253,2.50277c0.42282,0.6796 1.00015,1.28872 1.51917,1.92426c2.42289,2.9668 4.75434,5.74358 8.03162,7.7755c0.07055,0.04421 1.33575,1.10885 1.36307,1.10025c0.20651,-0.06503 -1.19484,-3.22663 -1.25023,-3.39317c-0.64935,-1.95256 -1.20887,-4.59775 -1.02616,-6.65927c0.2125,-2.39773 3.0179,-0.18925 3.85355,0.64609c4.56512,4.56512 8.13217,6.13049 14.21921,8.57954c2.91132,0.59902 8.56597,1.57131 10.52528,-1.27335c1.28733,-1.86902 1.96215,-1.96669 2.99634,-3.99499c1.732,-1.62363 5.0018,-0.83699 5.88416,1.39746c0.29275,0.74134 0.03561,1.66174 0.19678,2.38202c0.11908,0.53215 1.04385,-0.41098 1.42822,-0.79779c0.93184,-0.93775 1.75908,-1.95622 2.60544,-2.97146c2.10752,-2.52625 3.75162,-5.48701 6.60471,-7.27354c0.57742,-0.36157 1.90215,-1.28316 2.62765,-0.90627c1.36506,0.70915 2.80198,4.22764 3.54644,5.60721c2.18485,2.51764 5.56707,3.83542 8.93213,3.36119c1.29166,-0.18203 2.57485,-1.28302 3.97498,-0.73501c1.52487,0.59684 1.53744,1.83622 2.31349,3.02882c1.29768,5.1907 8.15318,4.58305 11.98156,2.6713c1.054,-0.64844 1.9762,-1.22689 3.05626,-1.76827l-0.05685,-0.05685l0.12375,-0.12376c-0.83033,-0.64719 -2.09077,-2.17019 -1.78744,-2.9308c0.41776,-1.04755 2.25498,-0.56516 2.91568,-0.30382c2.57432,1.01827 2.73875,2.70335 3.63626,5.08421c2.36005,0.63022 3.02931,-0.8844 4.09445,-2.77998c1.97717,-3.51866 3.78124,-7.25138 6.30285,-10.42235c2.15892,-2.70016 4.79012,-5.47863 7.40337,-7.7537c0.38269,-0.33317 1.99865,-1.69568 2.63459,-1.34157c1.23357,0.68689 -0.59958,4.4873 -0.9416,5.3363c-0.55284,0.83611 -1.01477,1.80527 -1.66297,2.55041c-0.21411,0.24614 0.52819,-0.38439 0.77471,-0.59806c0.49136,-0.42589 0.91698,-0.92219 1.37766,-1.38109c1.61038,-1.6042 2.62153,-3.67515 3.14195,-5.83738l0.02125,-0.03131l-0.00871,-0.0035l0.31672,-0.78611c0.07122,-0.18928 0.25395,-0.32393 0.46812,-0.32393c0.1996,0 0.37188,0.11695 0.45205,0.28608l0.24516,0.49031l-0.17637,0.08819c0.4282,1.01848 0.22916,2.09345 0.22916,3.38542c0,4.44687 -1.82411,8.84625 -4.03587,12.68596c-1.4875,5.99642 -6.19165,12.36706 -10.47392,16.53173c-3.65952,5.14546 -9.24984,10.44428 -15.3321,12.50665c-0.8193,0.27158 -2.26586,0.65673 -2.78039,1.35326c-1.16661,1.57926 0.99006,7.10462 -2.49261,6.40902c-0.4595,-0.09178 -0.74589,-0.5707 -1.14798,-0.8113c-0.39348,-0.23544 -0.8654,-0.37584 -1.17716,-0.71196c0.02125,0.06929 0.19239,2.10786 0.19002,2.53664c-0.00421,0.76157 1.2901,3.69726 0.35355,4.35355c-1.90213,1.33292 -2.55816,-5.35206 -2.60342,-6.34207c-0.00004,-0.25678 0.14631,-3.65793 0.14631,-3.65793c0,0 -1.50478,0.22547 -2.05436,0.33009c0.08483,0.42164 0.17263,0.82552 0.26743,1.20452c1.14715,4.58862 0.71995,5.27621 -0.53109,2.93529c-0.06219,-0.11637 0.0155,3.61203 -0.80313,4.2313c-1.38968,1.05125 -3.76202,1.14429 -5.21819,1.09984c-0.17398,3.85171 -0.11952,7.69848 -0.11952,11.56604v0.66666c0,0 0,2.5 -2.5,2.5z" fill="#000000" stroke="none" stroke-width="0.5" stroke-linecap="butt"/><path d="M190.46203,121.09272c0.42109,0.01259 43.77634,0.16264 44.91361,0.06686c-1.36049,9.70115 -10.86732,17.21552 -22.39279,17.21552c-12.01063,0 -21.82907,-6.99085 -22.52082,-17.28236z" data-paper-data="{&quot;index&quot;:null}" fill="#ff4242" stroke="none" stroke-width="2" stroke-linecap="butt"/><path d="M196.45562,114.81725c0,-9.12808 7.39976,-16.52784 16.52783,-16.52784c9.12808,0 16.52784,7.39977 16.52784,16.52784c0,9.12808 -7.39977,16.52784 -16.52784,16.52784c-9.12808,0 -16.52783,-7.39977 -16.52783,-16.52784z" fill="#000000" stroke="none" stroke-width="0" stroke-linecap="butt"/><path d="M289.51849,120.71179c-0.69175,10.46165 -10.51019,17.56807 -22.52082,17.56807c-11.52547,0 -21.0323,-7.6386 -22.39279,-17.50013c1.13727,0.09736 44.49252,-0.05516 44.91361,-0.06796z" data-paper-data="{&quot;index&quot;:null}" fill="#ff4242" stroke="none" stroke-width="2" stroke-linecap="butt"/><path d="M267.01671,131.34509c-9.12807,0 -16.52783,-7.39977 -16.52783,-16.52784c0,-9.12808 7.39977,-16.52784 16.52783,-16.52784c9.12807,0 16.52783,7.39977 16.52783,16.52784c0,9.12808 -7.39977,16.52784 -16.52783,16.52784z" data-paper-data="{&quot;index&quot;:null}" fill="#000000" stroke="none" stroke-width="0" stroke-linecap="butt"/><path d="M217.29854,116.13247c0,2.68252 -2.01472,4.85714 -4.5,4.85714c-2.48528,0 -4.5,-2.17462 -4.5,-4.85714c0,-2.68252 2.01472,-4.85715 4.5,-4.85715c2.48528,0 4.5,2.17462 4.5,4.85715z" fill="none" stroke="#ff0000" stroke-width="2.5" stroke-linecap="butt"/><path d="M272.01283,115.7039c0,2.68252 -2.01472,4.85715 -4.5,4.85715c-2.48528,0 -4.5,-2.17462 -4.5,-4.85715c0,-2.68252 2.01472,-4.85715 4.5,-4.85715c2.48528,0 4.5,2.17462 4.5,4.85715z" fill="none" stroke="#ff0000" stroke-width="2.5" stroke-linecap="butt"/><path d="M188.99025,115.09289c0,-12.968 10.54606,-23.48065 23.55526,-23.48065c9.53217,0 18.37683,4.58617 22.15572,14.12621c0.15105,0.38133 1.03878,0.30928 1.16431,0.77361c1.01995,3.77293 0.48368,10.44779 0.48368,13.53399c0,0 -47.35897,-4.49175 -47.35897,-4.95316z" fill="url(#color-23)" stroke="none" stroke-width="0" stroke-linecap="butt"/><path d="M290.62826,114.93194c0,0.46141 -47.30897,4.95316 -47.30897,4.95316c0,-3.46603 0.26849,-10.82769 1.64545,-14.3076c3.77489,-9.54004 12.61102,-14.12621 22.13312,-14.12621c12.99547,0 23.53039,10.51265 23.53039,23.48065z" data-paper-data="{&quot;index&quot;:null}" fill="url(#color-24)" stroke="none" stroke-width="0" stroke-linecap="butt"/><g stroke="none" stroke-width="0" stroke-linecap="butt"><path d="M213.68651,116.83942c-0.11228,0.00167 2.75847,-7.56549 3.31637,-8.72418c1.49497,-3.10493 2.89369,-6.24498 4.32923,-9.37707c0.74194,-1.61879 1.35545,-3.11938 2.20721,-4.467c1.60822,0.75163 3.1172,1.68019 4.50189,2.76061c-0.83548,1.62046 -6.81517,18.41747 -7.4853,19.92527c-1.41106,3.1749 -6.8694,-0.11763 -6.8694,-0.11763z" fill="url(#color-25)"/><path d="M213.60899,92.07414c0.28822,0 0.57522,0.0052 0.86092,0.01549c-1.25065,1.90316 -2.03418,4.98569 -2.52012,6.72117c-0.09399,0.33567 -0.19153,0.67007 -0.29223,1.00335c-0.89481,2.96148 -4.58885,15.80831 -5.03162,17.00302c-1.42727,0.15154 -10.37851,-1.6703 -12.43329,-1.14649c0.33394,-0.61341 5.82178,-9.35307 7.57867,-12.36487c1.75302,-3.00517 3.32289,-6.1128 5.04757,-9.13613c0.22946,-0.4359 0.44581,-0.86555 0.65811,-1.28677c1.95477,-0.52742 4.01053,-0.80876 6.13199,-0.80876z" fill="url(#color-26)"/></g><g data-paper-data="{&quot;index&quot;:null}" stroke="none" stroke-width="0" stroke-linecap="butt"><path d="M258.56795,116.99459c-0.67013,-1.5078 -6.64981,-18.30481 -7.48529,-19.92527c1.38469,-1.08042 2.89367,-2.00898 4.50189,-2.76061c0.85176,1.34762 1.46527,2.84821 2.20721,4.467c1.43554,3.13209 2.83426,6.27214 4.32923,9.37707c0.5579,1.15868 3.42865,8.72584 3.31637,8.72418c0,0 -5.45835,3.29254 -6.86941,0.11764z" fill="url(#color-27)"/><path d="M265.51487,92.11169c2.12146,0 4.17722,0.28134 6.13199,0.80876c0.2123,0.42122 0.42865,0.85087 0.65811,1.28677c1.72468,3.02333 3.29455,6.13096 5.04757,9.13613c1.75689,3.0118 7.24473,11.75147 7.57867,12.36487c-2.05478,-0.52381 -11.00602,1.29803 -12.43329,1.14649c-0.44277,-1.19471 -4.13681,-14.04153 -5.03162,-17.00301c-0.1007,-0.33328 -0.19824,-0.66768 -0.29223,-1.00335c-0.48594,-1.73548 -1.26947,-4.81801 -2.52012,-6.72117c0.2857,-0.01029 0.5727,-0.01549 0.86092,-0.01549z" fill="url(#color-28)"/></g><path d="M223.98222,136.11352c0,0 5.90882,-3.77224 7.69919,-5.87686c1.48588,-1.74669 2.85637,-6.87842 2.85637,-6.87842c0,0 3.18982,-1.01149 5.43667,-0.90052c2.15688,0.10653 5.11889,1.10914 5.11889,1.10914c0,0 1.50717,3.56285 2.90413,5.78772c0.67079,1.06833 1.74363,1.65718 1.80533,1.71759c1.81735,1.7796 4.95721,4.43363 4.95721,4.43363c0,0 -11.69684,-5.08626 -14.88889,-5.08626c-4.75842,0 -15.88889,5.69398 -15.88889,5.69398z" fill="url(#color-29)" stroke="none" stroke-width="0" stroke-linecap="butt"/><g stroke-width="1" stroke-linecap="round"><path d="M279.11578,149.79686l2.8,6.4" fill="url(#color-30)" stroke="url(#color-31)"/><path d="M284.71578,148.19686l1.8,5.2" fill="url(#color-32)" stroke="url(#color-33)"/></g><g data-paper-data="{&quot;index&quot;:null}" fill="none" stroke-width="1" stroke-linecap="round"><path d="M191.76578,154.19686l2.8,-6.4" stroke="url(#color-34)"/><path d="M199.16578,150.59686l-1.8,5.2" stroke="url(#color-35)"/></g><g stroke="none" stroke-width="0" stroke-linecap="butt"><g><g><path d="M212.68463,149.00914c-0.61396,0.63207 -3.60126,5.43323 -3.60126,5.43323c0,0 -3.01454,-5.47789 -3.68657,-6.2149c1.42086,-0.03958 6.32463,0.75587 7.28783,0.78166z" data-paper-data="{&quot;index&quot;:null}" fill="url(#color-36)"/><path d="M219.27854,149.65509c-0.58963,0.64946 -3.3931,5.53434 -3.3931,5.53434c0,0 -3.22078,-5.38775 -3.9204,-6.10493c1.41859,-0.08063 6.34985,0.57265 7.3135,0.57059z" data-paper-data="{&quot;index&quot;:null}" fill="url(#color-37)"/></g><g><path d="M225.62944,150.11905c-0.558,0.67041 -3.125,5.6533 -3.125,5.6533c0,0 -3.47607,-5.26552 -4.20944,-5.95655c1.41348,-0.13232 6.37174,0.34046 7.33444,0.30324z" data-paper-data="{&quot;index&quot;:null}" fill="url(#color-38)"/><path d="M232.26025,150.33231c-0.53225,0.68617 -2.90874,5.74052 -2.90874,5.74052c0,0 -3.67399,-5.16216 -4.43318,-5.83161c1.40768,-0.1731 6.38115,0.15611 7.34192,0.09108z" data-paper-data="{&quot;index&quot;:null}" fill="url(#color-39)"/></g><g><path d="M239.16046,150.6126c-0.53976,0.68168 -2.97165,5.71594 -2.97165,5.71594c0,0 -3.61712,-5.19266 -4.36893,-5.86842c1.40952,-0.16132 6.37915,0.20947 7.34059,0.15249z" data-paper-data="{&quot;index&quot;:null}" fill="url(#color-40)"/><path d="M245.79519,150.68959c-0.5136,0.69691 -2.75311,5.79869 -2.75311,5.79869c0,0 -3.8122,-5.08526 -4.58924,-5.73892c1.40262,-0.20197 6.3836,0.02498 7.34234,-0.05976z" data-paper-data="{&quot;index&quot;:null}" fill="url(#color-41)"/></g><g><g data-paper-data="{&quot;index&quot;:null}"><path d="M272.36511,148.60249c-0.67203,0.73701 -3.68658,6.2149 -3.68658,6.2149c0,0 -2.98731,-4.80117 -3.60126,-5.43323c0.9632,-0.02579 5.86697,-0.82125 7.28784,-0.78166z" data-paper-data="{&quot;index&quot;:null}" fill="url(#color-42)"/><path d="M265.79687,149.45951c-0.69963,0.71717 -3.92041,6.10493 -3.92041,6.10493c0,0 -2.80345,-4.88488 -3.39309,-5.53434c0.96365,0.00206 5.89491,-0.65122 7.31349,-0.57059z" data-paper-data="{&quot;index&quot;:null}" fill="url(#color-43)"/></g><g data-paper-data="{&quot;index&quot;:null}"><path d="M259.46691,150.19081c-0.73338,0.69102 -4.20944,5.95655 -4.20944,5.95655c0,0 -2.567,-4.98289 -3.125,-5.6533c0.96271,0.03722 5.92096,-0.43556 7.33444,-0.30324z" data-paper-data="{&quot;index&quot;:null}" fill="url(#color-44)"/><path d="M252.84358,150.61622c-0.75919,0.66944 -4.43318,5.83161 -4.43318,5.83161c0,0 -2.37648,-5.05435 -2.90873,-5.74052c0.96077,0.06502 5.93424,-0.26418 7.34192,-0.09108z" data-paper-data="{&quot;index&quot;:null}" fill="url(#color-45)"/></g></g></g><g><g><g><path d="M205.08489,160.39638c0.67202,-0.73701 3.68657,-6.21489 3.68657,-6.21489c0,0 2.3623,6.61935 2.97625,7.25141c-0.9632,0.02579 -5.24196,-0.99694 -6.66282,-1.03652z" data-paper-data="{&quot;index&quot;:null}" fill="url(#color-46)"/><path d="M211.4448,161.35753c0.69962,-0.71717 3.9204,-6.10493 3.9204,-6.10493c0,0 2.69929,6.24851 3.28893,6.89797c-0.96365,-0.00206 -5.79074,-0.71241 -7.20933,-0.79304z" data-paper-data="{&quot;index&quot;:null}" fill="url(#color-47)"/></g><g><path d="M218.51211,162.35518c0.61059,-0.77666 3.17346,-6.42695 3.17346,-6.42695c0,0 2.89303,6.4569 3.55669,7.04946c-0.9587,0.08521 -5.30964,-0.67076 -6.73016,-0.62251z" data-paper-data="{&quot;index&quot;:null}" fill="url(#color-48)"/><path d="M224.934,162.92121c0.63972,-0.75858 3.41563,-6.3317 3.41563,-6.3317c0,0 3.19912,6.06617 3.83993,6.6776c-0.96141,0.05745 -5.834,-0.35306 -7.25556,-0.3459z" data-paper-data="{&quot;index&quot;:null}" fill="url(#color-49)"/></g></g><g><path d="M232.40701,163.18127c0.5493,-0.81077 2.67049,-6.59883 2.67049,-6.59883c0,0 3.38455,6.27228 4.09242,6.82451c-0.94995,0.14134 -5.34934,-0.35728 -6.76291,-0.22568z" data-paper-data="{&quot;index&quot;:null}" fill="url(#color-50)"/><path d="M238.858,163.36872c0.57976,-0.79444 2.91945,-6.51802 2.91945,-6.51802c0,0 3.65981,5.86446 4.34632,6.43685c-0.95479,0.11381 -5.84799,-0.0095 -7.26577,0.08116z" data-paper-data="{&quot;index&quot;:null}" fill="url(#color-51)"/></g><g><path d="M246.01541,163.50728c0.48219,-0.84265 2.1288,-6.74718 2.1288,-6.74718c0,0 3.88459,6.04757 4.63546,6.55471c-0.93611,0.19964 -5.36491,-0.02608 -6.76426,0.19248z" data-paper-data="{&quot;index&quot;:null}" fill="url(#color-52)"/><path d="M252.46542,163.29592c0.51389,-0.82825 2.38369,-6.68195 2.38369,-6.68195c0,0 4.12609,5.62376 4.8573,6.15233c-0.94317,0.17247 -5.83411,0.35163 -7.24099,0.52962z" data-paper-data="{&quot;index&quot;:null}" fill="url(#color-53)"/></g><g><path d="M259.57854,162.93086c0.411,-0.87091 1.56334,-6.864 1.56334,-6.864c0,0 4.37621,5.78618 5.16719,6.24454c-0.91708,0.25827 -5.35298,0.31304 -6.73052,0.61946z" data-paper-data="{&quot;index&quot;:null}" fill="url(#color-54)"/><path d="M265.99408,162.31242c0.44381,-0.85855 1.82297,-6.81506 1.82297,-6.81506c0,0 4.58191,5.34824 5.35506,5.82921c-0.92638,0.23163 -5.78961,0.71941 -7.17803,0.98584z" data-paper-data="{&quot;index&quot;:null}" fill="url(#color-55)"/></g></g></g><path d="M248.37938,244.93133c0,0.72487 -0.50368,1.3125 -1.125,1.3125c-0.62132,0 -1.125,-0.58763 -1.125,-1.3125c0,-0.72487 0.50368,-1.3125 1.125,-1.3125c0.62132,0 1.125,0.58763 1.125,1.3125z" fill="#000000" stroke="none" stroke-width="0" stroke-linecap="butt"/></g></g></svg>