<svg version="1.1" xmlns="http://www.w3.org/2000/svg" xmlns:xlink="http://www.w3.org/1999/xlink" width="34.17311" height="34.17311" viewBox="0,0,34.17311,34.17311"><g transform="translate(-222.91348,-162.91347)"><g data-paper-data="{&quot;isPaintingLayer&quot;:true}" stroke-miterlimit="10" stroke-dasharray="" stroke-dashoffset="0" style="mix-blend-mode: normal"><path d="M229.98314,162.91348h20.03379c3.9166,0 7.06966,3.15307 7.06966,7.06966v20.03379c0,3.91659 -3.15306,7.06966 -7.06966,7.06966h-20.03379c-3.91659,0 -7.06966,-3.15307 -7.06966,-7.06966v-20.03379c0,-3.91659 3.15307,-7.06966 7.06966,-7.06966z" fill="#434343" fill-rule="evenodd" stroke="none" stroke-width="4.43922" stroke-linecap="round" stroke-linejoin="round"/><g fill-rule="nonzero" stroke="#000000" stroke-width="0.5" stroke-linecap="butt" stroke-linejoin="miter"><path d="M238.73383,194.12668c0,0 -0.67655,-5.99032 -1.84468,-9.23316c-0.36927,-1.02513 -1.14934,-3.20751 -1.80335,-4.66875c-2.09691,-4.68513 -4.84981,-9.68886 -4.84981,-9.68886c0,0 5.97194,2.41751 10.95032,5.23929c0.84287,0.47774 3.67563,2.40412 6.13671,4.618c2.52148,2.2682 5.39938,5.61975 5.39938,5.61975z" fill="#828282"/><path d="M253.74656,185.89653c0.37616,0.64851 -2.85864,2.68152 -7.14442,5.16738c-4.28579,2.48585 -7.99962,4.48323 -8.37577,3.83472c-0.37616,-0.64851 2.91168,-2.9852 7.19745,-5.47106c4.28579,-2.48585 7.94657,-4.17955 8.32273,-3.53104z" fill="#4f4f4f"/><path d="M233.25016,167.96886c0.94855,1.63537 0.2775,3.79632 -1.49884,4.82665c-1.77635,1.03033 -3.98531,0.53985 -4.93386,-1.09551c-0.94855,-1.63537 -0.2775,-3.79632 1.49884,-4.82665c1.77635,-1.03033 3.98531,-0.53985 4.93386,1.09551z" fill="#4f4f4f"/></g></g></g></svg>