<svg version="1.1" xmlns="http://www.w3.org/2000/svg" xmlns:xlink="http://www.w3.org/1999/xlink" width="131.46793" height="267.22501" viewBox="0,0,131.46793,267.22501"><defs><radialGradient cx="242.83646" cy="102.55002" r="63.7549" gradientUnits="userSpaceOnUse" id="color-1"><stop offset="0" stop-color="#ffffff"/><stop offset="1" stop-color="#c3c3c3"/></radialGradient></defs><g transform="translate(-175.39755,-46.38752)"><g data-paper-data="{&quot;isPaintingLayer&quot;:true}" fill-rule="nonzero" stroke-linejoin="miter" stroke-miterlimit="10" stroke-dasharray="" stroke-dashoffset="0" style="mix-blend-mode: normal"><path d="M179.00981,313.61253v-267.22501h123.18203v267.22501z" fill-opacity="0.01" fill="#000000" stroke="none" stroke-width="0" stroke-linecap="butt"/><path d="M305.86548,131.59891c-0.40548,10.65354 -29.42535,2.085 -64.61074,0.74585c-35.18539,-1.33917 -64.78899,2.66312 -64.38351,-7.99041c0.22153,-5.82058 4.35403,-27.02609 17.99286,-37.50036c6.92698,-5.31972 15.46052,-10.06207 26.23884,-12.48623c6.84272,-1.539 15.77564,-1.89942 21.97403,-1.6635c12.80559,0.48738 24.86976,0.34805 36.65243,7.25852c1.14186,0.6697 13.44505,8.18187 18.03463,17.94074c6.46301,13.74233 8.10146,33.69541 8.10146,33.69541z" fill="url(#color-1)" stroke="#000000" stroke-width="2" stroke-linecap="butt"/><g fill="#9a9a9a" stroke="none" stroke-width="0" stroke-linecap="butt"><path d="M215.12087,139.07959l-20.21475,-18.88937l25.94446,-27.76483l20.21474,18.88938z"/><path d="M209.61014,118.59378l-10.74061,-10.0364l2.24416,-2.40163l10.74061,10.0364z"/><path d="M200.74465,110.05368l-1.75705,-1.64184l10.19175,-10.90686l1.75705,1.64185z"/><path d="M217.79593,109.93825l-10.74061,-10.0364l2.24417,-2.40162l10.74061,10.0364z"/></g><g stroke="none" stroke-width="0" stroke-linecap="butt"><path d="M276.59134,110.9599c0,7.09961 -5.8203,12.85498 -13,12.85498c-7.1797,0 -13,-5.75537 -13,-12.85498c0,-7.09961 5.8203,-12.85497 13,-12.85497c7.1797,0 13,5.75536 13,12.85497z" fill="#9a9a9a"/><path d="M263.40111,119.93705c-4.45141,0 -8.20173,-2.96826 -9.33719,-7.01238c0.96225,0.30818 2.19961,0.62622 3.15208,0.3141c1.23822,-0.40575 1.98241,-1.28225 3.39094,-1.39102c1.24534,-0.09617 2.11438,0.66647 3.30183,0.9058c1.46701,0.2411 2.37777,-0.52013 3.74779,-0.65823c1.31822,-0.13289 2.25666,0.84845 3.67764,0.5748c0.54134,-0.10425 1.066,-0.31992 1.5913,-0.54427c-0.83979,4.44598 -4.78467,7.8112 -9.52439,7.8112z" fill="#cacaca"/><path d="M259.36261,102.35186v-6h8.88889v6z" fill="#9a9a9a"/><path d="M260.69594,97.90742v-4.11111h6.11111v4.11111z" fill="#9a9a9a"/></g><g stroke="none" stroke-width="0" stroke-linecap="butt"><path d="M199.91441,91.34651c0,0 0.70495,-1.21178 2.41087,-1.81611c1.99496,-0.70672 5.17515,-0.90369 7.41612,-2.22125c1.34223,-0.78915 4.32565,-2.82522 5.33025,-3.26077c3.52497,-1.52827 8.04193,-2.76 8.04193,-2.76l4.14827,9.56802c0,0 -2.39116,2.00554 -5.89402,3.52423c-1.54358,0.66923 -5.68165,2.10759 -8.0879,2.70547c-1.93081,0.47974 -4.71502,3.25381 -6.05076,4.04817c-1.45066,0.8627 -3.16646,-0.21974 -3.16646,-0.21974z" fill="#9a9a9a"/><path d="M217.71407,86.43207l11.00977,-4.77335l1.93207,4.45634l-11.00977,4.77335z" fill="#9a9a9a"/><path d="M206.6136,87.47968l7.11048,-3.08279l4.8065,11.08624l-7.11048,3.08279z" fill="#5f5f5f"/></g><path d="M273.44765,117.27144v-18.2h14.4v18.2z" fill="#9a9a9a" stroke="none" stroke-width="0" stroke-linecap="butt"/><path d="M206.47614,306.30001l15.14285,-131.8421l37.78325,-0.15789l13.57389,132z" fill="#5fd6f4" stroke="#000000" stroke-width="2" stroke-linecap="butt"/><path d="M219.42636,202.91267l3.12142,-26.32765l35.83075,-0.14203l2.76735,26.1059c0,0 -7.51543,4.19603 -21.55904,4.50964c-12.48458,0.27879 -20.16049,-4.14586 -20.16049,-4.14586z" fill="#387e8f" stroke="#000000" stroke-width="0" stroke-linecap="butt"/><path d="M218.1129,201.37751c0,0 -0.86037,-1.64644 -1.18821,-3.42169c-0.34066,-1.84471 -0.14619,-3.82852 0.02426,-4.24864c0.80908,-1.99419 2.99728,-3.99633 2.99728,-3.99633l40.16666,0.5c0,0 2.58695,1.45609 3.27161,3.19102c0.40553,1.02761 0.22839,2.86943 0.22839,3.47565c0,0.73804 -0.05964,2.54278 -1.11019,3.48972c-1.03264,0.9308 -3.05648,2.01028 -3.05648,2.01028z" fill="#54bed8" stroke="#000000" stroke-width="2" stroke-linecap="butt"/><path d="M249.68928,238.88697c-2.12043,1.56754 -9.37984,-4.83026 -9.37984,-4.83026c0,0 -7.15111,6.52447 -9.29851,4.99165c-2.14911,-1.53259 1.69445,-10.41655 1.69445,-10.41655c0,0 -8.41373,-4.78548 -7.61958,-7.30111c0.79398,-2.51748 10.4295,-1.60702 10.4295,-1.60702c0,0 1.94919,-9.48018 4.58738,-9.50471c2.64192,-0.02316 4.75443,9.42378 4.75443,9.42378c0,0 9.61861,-1.07594 10.45386,1.42773c0.84036,2.50147 -7.49126,7.43109 -7.49126,7.43109c0,0 3.99534,8.81736 1.86957,10.3854z" fill="#ffff00" stroke="#000000" stroke-width="2" stroke-linecap="butt"/><path d="M227.48488,196.03314l-0.25,4.5" fill="none" stroke="#000000" stroke-width="2" stroke-linecap="round"/><path d="M240.60988,200.28314l-0.125,-3.75" fill="none" stroke="#000000" stroke-width="2" stroke-linecap="round"/><path d="M255.48488,194.78314l-0.125,7.125" fill="none" stroke="#000000" stroke-width="2" stroke-linecap="round"/><path d="M176.43911,135.89503c0.17418,-4.57628 -0.44515,-16.55832 3.88532,-19.71594c2.77761,-2.02533 45.63042,-0.97028 59.11521,-0.68286c20.30406,0.43276 62.91086,4.89703 64.30388,6.54547c2.53462,2.99937 1.71084,15.21025 1.57579,18.75855c-1.26656,33.27776 -31.14413,59.15664 -66.7334,57.80211c-35.58928,-1.35453 -63.41334,-29.42956 -62.14678,-62.7073z" fill="#ec3434" stroke="#000000" stroke-width="2" stroke-linecap="butt"/><path d="M177.16241,135.97642c0.02769,-0.72747 3.09637,56.07772 61.39541,59.31224c55.70229,3.09044 65.91848,-55.48624 65.87974,-54.46811c-1.24766,32.78106 -30.7506,58.27097 -65.89665,56.9333c-35.14604,-1.33767 -62.62614,-28.99636 -61.37849,-61.77741z" fill="#a12323" stroke="#000000" stroke-width="0" stroke-linecap="butt"/><path d="M305.42608,122.32494c-0.16878,4.43463 -33.50849,3.90679 -65.14991,2.70252c-31.64141,-1.20428 -61.56673,-3.79909 -61.39795,-8.23372c0.16878,-4.43463 30.80303,-2.9376 62.44445,-1.73331c31.64141,1.20428 64.27221,2.82989 64.10342,7.26452z" fill="#b10000" stroke="#000000" stroke-width="2" stroke-linecap="butt"/><path d="M189.96271,136.83953c0.4932,-12.95862 11.39806,-23.06384 24.35669,-22.57063c12.95862,0.4932 23.06384,11.39806 22.57063,24.35669c-0.4932,12.95862 -11.39806,23.06384 -24.35669,22.57063c-12.95862,-0.4932 -23.06384,-11.39806 -22.57063,-24.35669z" fill="#ffffff" stroke="#000000" stroke-width="2" stroke-linecap="butt"/><path d="M201.03346,137.33279c0.34717,-9.12148 8.023,-16.23444 17.14448,-15.88729c9.12148,0.34717 16.23445,8.02301 15.88729,17.14449c-0.34717,9.12148 -8.02301,16.23445 -17.14449,15.88729c-9.12148,-0.34717 -16.23444,-8.02301 -15.88728,-17.14448z" fill="#000000" stroke="none" stroke-width="0" stroke-linecap="butt"/><path d="M267.00233,163.2693c-12.95862,-0.4932 -23.06384,-11.39806 -22.57063,-24.35669c0.4932,-12.95862 11.39806,-23.06384 24.35669,-22.57063c12.95862,0.4932 23.06384,11.39806 22.57063,24.35669c-0.4932,12.95862 -11.39806,23.06384 -24.35669,22.57063z" data-paper-data="{&quot;index&quot;:null}" fill="#ffffff" stroke="#000000" stroke-width="2" stroke-linecap="butt"/><path d="M271.66495,156.28231c-9.12147,-0.34716 -16.23444,-8.02301 -15.88728,-17.14448c0.34717,-9.12148 8.02301,-16.23445 17.14448,-15.88729c9.12147,0.34716 16.23444,8.02301 15.88728,17.14448c-0.34717,9.12148 -8.02301,16.23445 -17.14448,15.88729z" data-paper-data="{&quot;index&quot;:null}" fill="#000000" stroke="none" stroke-width="0" stroke-linecap="butt"/><path d="M189.87944,136.83637c0.4932,-12.95862 11.39806,-23.06384 24.35669,-22.57063c12.95862,0.4932 23.06384,11.39806 22.57063,24.35669c0,0 -46.97417,-0.55541 -46.92733,-1.78606z" fill="#ec3434" stroke="#000000" stroke-width="2" stroke-linecap="butt"/><path d="M244.1819,138.90315c0.4932,-12.95862 11.39806,-23.06384 24.35669,-22.57063c12.95862,0.4932 23.06384,11.39806 22.57063,24.35669c-0.04615,1.21291 -46.92733,-1.78606 -46.92733,-1.78606z" data-paper-data="{&quot;index&quot;:null}" fill="#ec3434" stroke="#000000" stroke-width="2" stroke-linecap="butt"/><path d="M203.68691,108.53254c0,0 6.9007,-4.91032 12.03071,-5.91026c5.13002,-0.99994 12.29861,1.16797 12.29861,1.16797c0,0 -8.03001,-0.36594 -11.99175,0.40629c-4.14016,0.80702 -12.33755,4.33602 -12.33755,4.33602z" fill="#000000" stroke="none" stroke-width="0" stroke-linecap="butt"/><path d="M267.75777,106.16551c-3.89158,-1.07113 -11.92618,-1.3166 -11.92618,-1.3166c0,0 7.31265,-1.61674 12.35181,-0.22977c5.03916,1.38697 11.54665,6.80763 11.54665,6.80763c0,0 -7.90543,-4.14189 -11.97228,-5.26126z" data-paper-data="{&quot;index&quot;:null}" fill="#000000" stroke="none" stroke-width="0" stroke-linecap="butt"/><path d="M186.4244,133.8028l3.49851,2.73505" fill="none" stroke="#000000" stroke-width="2" stroke-linecap="round"/><path d="M290.02902,139.77111l4.32627,-3.2378" fill="none" stroke="#000000" stroke-width="2" stroke-linecap="round"/><path d="M216.16184,81.58823c0.88734,1.77922 -1.7588,4.90003 -5.91034,6.97049c-4.15154,2.07048 -8.23635,2.30656 -9.12369,0.52733c-0.88734,-1.77922 1.7588,-4.90003 5.91034,-6.97049c4.15154,-2.07048 8.23635,-2.30656 9.12369,-0.52733z" fill="#ffffff" stroke="none" stroke-width="0" stroke-linecap="butt"/><path d="M222.69516,80.11424c-0.04411,1.15896 -1.01939,2.06271 -2.17835,2.01862c-1.15896,-0.04411 -2.06271,-1.01939 -2.01862,-2.17835c0.04411,-1.15896 1.01939,-2.06271 2.17835,-2.01862c1.15896,0.04411 2.06271,1.01939 2.01862,2.17835z" fill="#ffffff" stroke="none" stroke-width="0" stroke-linecap="butt"/><path d="M255.92626,178.32545c0,0 -8.78131,5.96344 -18.81728,5.31399c-10.03596,-0.64945 -15.53523,-7.32831 -15.53523,-7.32831z" data-paper-data="{&quot;index&quot;:null}" fill="#000000" stroke="#000000" stroke-width="2" stroke-linecap="round"/></g></g></svg>