<svg version="1.1" xmlns="http://www.w3.org/2000/svg" xmlns:xlink="http://www.w3.org/1999/xlink" width="34.17311" height="34.17311" viewBox="0,0,34.17311,34.17311"><defs><linearGradient x1="240.88674" y1="163.65094" x2="240.88674" y2="195.3496" gradientUnits="userSpaceOnUse" id="color-1"><stop offset="0" stop-color="#000000"/><stop offset="1" stop-color="#717171"/></linearGradient></defs><g transform="translate(-222.9135,-162.9135)"><g data-paper-data="{&quot;isPaintingLayer&quot;:true}" stroke-miterlimit="10" stroke-dasharray="" stroke-dashoffset="0" style="mix-blend-mode: normal"><path d="M229.98316,162.9135h20.03379c3.9166,0 7.06966,3.15307 7.06966,7.06966v20.03379c0,3.91659 -3.15306,7.06966 -7.06966,7.06966h-20.03379c-3.91659,0 -7.06966,-3.15307 -7.06966,-7.06966v-20.03379c0,-3.91659 3.15307,-7.06966 7.06966,-7.06966z" fill="#000000" fill-rule="evenodd" stroke="none" stroke-width="0" stroke-linecap="round" stroke-linejoin="round"/><path d="M238.03795,163.76383c0.32696,-0.198 4.89452,-0.35641 8.71404,1.55081c2.5006,1.24863 4.57668,3.95401 5.29406,6.12344c1.67333,5.53923 0.05571,14.7948 -4.15959,18.86751c-1.80234,1.73568 -4.94469,4.46564 -8.22366,4.92073c-4.64954,0.64532 -9.39003,-1.44578 -9.39003,-1.58992c0,-0.27567 6.80951,-1.36185 6.82062,-4.04164c-0.2841,-1.40031 -0.57594,-3.02846 -1.4504,-4.20719c-1.23231,-1.66109 -3.56451,-2.36073 -4.90649,-3.99651c-1.91495,-2.33418 -1.65264,-5.47477 -1.64054,-8.27085c0.99455,-5.51748 3.99394,-8.33069 8.94199,-9.35639z" fill="url(#color-1)" fill-rule="nonzero" stroke="#000000" stroke-width="0.5" stroke-linecap="butt" stroke-linejoin="miter"/></g></g></svg>