<svg version="1.1" xmlns="http://www.w3.org/2000/svg" xmlns:xlink="http://www.w3.org/1999/xlink" width="165.11757" height="269.00392" viewBox="0,0,165.11757,269.00392"><defs><linearGradient x1="297.07363" y1="37.93769" x2="275.05147" y2="143.45081" gradientUnits="userSpaceOnUse" id="color-1"><stop offset="0" stop-color="#000000"/><stop offset="1" stop-color="#e90e4b"/></linearGradient><linearGradient x1="302.13235" y1="42.23621" x2="281.66854" y2="140.28281" gradientUnits="userSpaceOnUse" id="color-2"><stop offset="0" stop-color="#000000"/><stop offset="1" stop-color="#7d0829"/></linearGradient><linearGradient x1="316.11149" y1="43.93187" x2="312.91009" y2="59.27047" gradientUnits="userSpaceOnUse" id="color-3"><stop offset="0" stop-color="#000000"/><stop offset="1" stop-color="#770727"/></linearGradient><linearGradient x1="306.84861" y1="47.12616" x2="304.4915" y2="58.41954" gradientUnits="userSpaceOnUse" id="color-4"><stop offset="0" stop-color="#000000"/><stop offset="1" stop-color="#770727"/></linearGradient><linearGradient x1="304.32514" y1="60.6826" x2="299.93059" y2="81.73788" gradientUnits="userSpaceOnUse" id="color-5"><stop offset="0" stop-color="#000000"/><stop offset="1" stop-color="#620620"/></linearGradient><linearGradient x1="186.29634" y1="36.29349" x2="203.31086" y2="142.7289" gradientUnits="userSpaceOnUse" id="color-6"><stop offset="0" stop-color="#000000"/><stop offset="1" stop-color="#e90e4b"/></linearGradient><linearGradient x1="181.04026" y1="40.34829" x2="196.85078" y2="139.25194" gradientUnits="userSpaceOnUse" id="color-7"><stop offset="0" stop-color="#000000"/><stop offset="1" stop-color="#7d0829"/></linearGradient><linearGradient x1="166.99664" y1="41.38187" x2="169.47007" y2="56.85456" gradientUnits="userSpaceOnUse" id="color-8"><stop offset="0" stop-color="#000000"/><stop offset="1" stop-color="#770727"/></linearGradient><linearGradient x1="176.09833" y1="45.01005" x2="177.91945" y2="56.40215" gradientUnits="userSpaceOnUse" id="color-9"><stop offset="0" stop-color="#000000"/><stop offset="1" stop-color="#770727"/></linearGradient><linearGradient x1="177.97874" y1="58.67053" x2="181.37402" y2="79.90987" gradientUnits="userSpaceOnUse" id="color-10"><stop offset="0" stop-color="#000000"/><stop offset="1" stop-color="#620620"/></linearGradient><linearGradient x1="213.93055" y1="210.39935" x2="213.93055" y2="282.64432" gradientUnits="userSpaceOnUse" id="color-11"><stop offset="0" stop-color="#000000"/><stop offset="1" stop-color="#e8aa00"/></linearGradient><linearGradient x1="240.65031" y1="173.91904" x2="240.65031" y2="306.70921" gradientUnits="userSpaceOnUse" id="color-12"><stop offset="0" stop-color="#000000"/><stop offset="1" stop-color="#d7d8d8"/></linearGradient><linearGradient x1="239.78679" y1="79.57785" x2="239.78679" y2="190.01394" gradientUnits="userSpaceOnUse" id="color-13"><stop offset="0" stop-color="#000000"/><stop offset="1" stop-color="#e4c54f"/></linearGradient><linearGradient x1="244.3526" y1="166.04829" x2="245.82104" y2="180.53964" gradientUnits="userSpaceOnUse" id="color-14"><stop offset="0" stop-color="#000000"/><stop offset="1" stop-color="#ffffff"/></linearGradient><linearGradient x1="171.95302" y1="188.38029" x2="177.22517" y2="237.9844" gradientUnits="userSpaceOnUse" id="color-15"><stop offset="0" stop-color="#000000"/><stop offset="1" stop-color="#c50c40"/></linearGradient><linearGradient x1="157.86842" y1="189.85143" x2="159.15147" y2="201.92326" gradientUnits="userSpaceOnUse" id="color-16"><stop offset="0" stop-color="#000000"/><stop offset="1" stop-color="#8f092f"/></linearGradient><linearGradient x1="160.0094" y1="189.75186" x2="161.5487" y2="204.23473" gradientUnits="userSpaceOnUse" id="color-17"><stop offset="0" stop-color="#000000"/><stop offset="1" stop-color="#b64d6b"/></linearGradient><linearGradient x1="182.97606" y1="176.11096" x2="179.50919" y2="225.87384" gradientUnits="userSpaceOnUse" id="color-18"><stop offset="0" stop-color="#000000"/><stop offset="1" stop-color="#c50c40"/></linearGradient><linearGradient x1="158.89352" y1="191.83193" x2="157.68225" y2="209.21839" gradientUnits="userSpaceOnUse" id="color-19"><stop offset="0" stop-color="#000000"/><stop offset="1" stop-color="#8f092f"/></linearGradient><linearGradient x1="160.47668" y1="195.74872" x2="159.52941" y2="209.34566" gradientUnits="userSpaceOnUse" id="color-20"><stop offset="0" stop-color="#000000"/><stop offset="1" stop-color="#b64d6b"/></linearGradient><linearGradient x1="240.67946" y1="124.25848" x2="240.67946" y2="152.82991" gradientUnits="userSpaceOnUse" id="color-21"><stop offset="0" stop-color="#380056" stop-opacity="0"/><stop offset="1" stop-color="#380056"/></linearGradient></defs><g transform="translate(-152.50358,-37.67699)"><g data-paper-data="{&quot;isPaintingLayer&quot;:true}" fill-rule="nonzero" stroke-linejoin="miter" stroke-miterlimit="10" stroke-dasharray="" stroke-dashoffset="0" style="mix-blend-mode: normal"><g data-paper-data="{&quot;index&quot;:null}" stroke="none"><g stroke-width="0"><g><path d="M316.789,42.05454c0.90503,0.76109 -10.40595,85.31096 -19.37184,101.13821c-9.97897,17.61564 -45.51711,-34.23142 -35.53813,-51.84706c3.25991,-5.75461 54.31317,-49.79304 54.90998,-49.29115z" fill="url(#color-1)" stroke-linecap="butt"/><path d="M271.84295,128.50348l42.06074,-83.81043l-34.68264,95.07892" fill="url(#color-2)" stroke-linecap="round"/></g><path d="M313.85835,59.46803c-0.12707,0.06361 0.53537,-15.89469 1.49377,-15.69466c0.24481,0.0511 0.54373,0.59043 0.50112,1.99821c-0.12414,4.10362 -1.86701,13.63244 -1.99487,13.69645z" fill="url(#color-3)" stroke-linecap="butt"/><path d="M310.93397,48.06302c0.63032,0.88363 -10.57359,9.65158 -10.592,9.48875c-0.0185,-0.16384 5.98868,-6.78399 8.89313,-8.99117c0.99641,-0.75719 1.53787,-0.7233 1.69888,-0.49759z" data-paper-data="{&quot;index&quot;:null}" fill="url(#color-4)" stroke-linecap="butt"/><path d="M300.72731,73.05977c1.61285,-3.27671 5.90013,-12.00565 6.12191,-11.84942c0.0188,0.01324 -0.09957,0.35291 -0.32196,0.93258c-1.49141,3.88754 -6.59856,20.00543 -7.44254,19.4109c-0.52304,-0.36845 -1.48932,-1.40388 -1.18372,-2.73525c0.34571,-1.50612 1.75763,-3.58764 2.82633,-5.75883z" fill="url(#color-5)" stroke-linecap="butt"/></g><path d="M316.57354,42.17714c0.03348,-0.16613 0.06757,-0.33239 0.1023,-0.49879c0,0 0.10215,-0.48945 0.5701,-0.39178c0.46793,0.09767 0.36577,0.58711 0.36577,0.58711c-0.15861,0.76001 -0.30378,1.51689 -0.43776,2.27164c0.0551,0.20953 0.10152,0.3904 0.1391,0.52899c0.48537,4.63282 -0.80823,9.21561 -1.53849,13.79753c-0.36819,2.31017 -0.38089,4.66511 -0.83068,6.96314c-0.67104,3.4184 -0.29456,6.94913 -0.84179,10.40713c-0.52017,3.28707 -1.36842,6.56097 -2.04857,9.81966c-0.83613,4.00615 -1.67228,8.01229 -2.50842,12.01845c-0.031,0.32986 -0.06067,0.65949 -0.08903,0.98883c-0.41296,4.7446 -0.55855,10.11482 -2.20339,14.65648c-0.73941,2.04163 -3.192,3.50403 -3.60008,0.52338c-0.12325,-0.20899 -0.87141,-2.94215 -1.27658,-2.33364c-1.51747,2.27909 -0.8069,5.83305 -2.01303,8.25909c-1.37775,2.77126 -2.67733,-0.38327 -2.77425,-1.87883c-0.06459,-0.99645 -0.11117,-1.99417 -0.16156,-2.99173c-0.35561,-7.03997 0.2171,-13.78086 1.05378,-20.77326c0.79302,-6.62735 2.5527,-13.13074 2.30629,-19.81514c-0.29626,-0.89336 -0.58251,-1.75285 -0.95832,-2.61238c-0.69756,-1.59544 -2.88889,-2.82567 -4.21286,-1.14905c-1.79901,2.27822 -2.84767,6.45494 -3.50065,9.25016c-0.45353,2.17334 -0.90717,4.34666 -1.36078,6.51998c-0.06117,0.2931 -0.41348,2.09475 -0.55668,2.22556c-0.43418,0.39666 -2.02524,0.29536 -2.47415,0.00162c-0.77617,-0.50789 -1.09666,-2.00966 -1.45211,-2.82713c-0.84008,-1.93196 -1.43768,-3.78095 -2.5088,-5.59956c-0.40012,-0.16354 -1.45097,-0.90526 -1.80024,-0.20729c-1.07266,2.14357 -1.74922,6.25103 -3.63888,7.84615c-2.18267,1.84246 -2.14914,-1.27828 -1.89991,-2.68156c0.00157,-0.00884 0.35296,-1.97191 0.35373,-1.97592c0.19052,-0.98371 0.40916,-1.96327 0.61362,-2.94421c1.10048,-5.27329 3.59816,-8.74832 6.96317,-12.78875c1.23896,-1.48763 2.1015,-3.30676 3.57792,-4.54276c2.73424,-2.26518 5.08458,-4.78912 7.5972,-7.2545c2.35221,-2.30801 4.98324,-4.07365 7.22655,-6.58402c2.50779,-2.80501 5.20235,-4.66961 8.29334,-6.70168c1.12861,-0.74197 2.31467,-1.00218 3.39721,-1.48385c0.26093,-0.1161 0.31716,-0.64605 0.59858,-0.63376c0.62948,0.02752 1.14194,0.96539 1.52832,2.00471z" fill="#000000" stroke-width="0.5" stroke-linecap="butt"/><path d="M290.91078,90.27267c0.2821,-1.35159 1.12437,-2.3192 1.88126,-2.16123c0.75689,0.15797 1.14178,1.38172 0.85969,2.7333c-0.28209,1.3516 -1.12435,2.31921 -1.88124,2.16122c-0.7569,-0.15797 -1.14179,-1.38172 -0.8597,-2.7333z" fill="#000000" stroke-width="0" stroke-linecap="butt"/></g><g stroke="none"><g stroke-width="0"><g><path d="M218.92939,91.30404c9.13591,18.06726 -28.81116,68.17811 -37.94707,50.11085c-8.20841,-16.23303 -15.51374,-101.22274 -14.57377,-101.94024c0.61985,-0.47314 49.53634,45.92724 52.52084,51.82939z" fill="url(#color-6)" stroke-linecap="butt"/><path d="M199.31966,138.85726l-30.15364,-96.61079l38.05569,85.70331" fill="url(#color-7)" stroke-linecap="round"/></g><path d="M168.51352,57.00711c-0.1247,-0.06997 -1.4156,-9.67046 -1.3458,-13.77538c0.02394,-1.40822 0.34799,-1.93284 0.59494,-1.97231c0.96678,-0.15454 0.87481,15.81723 0.7509,15.7477z" fill="url(#color-8)" stroke-linecap="butt"/><path d="M171.97327,45.75293c0.17148,-0.21785 0.71394,-0.22614 1.67348,0.57727c2.79698,2.34189 8.4848,9.23835 8.45858,9.40113c-0.02607,0.16178 -10.80341,-9.12551 -10.13206,-9.97839z" data-paper-data="{&quot;index&quot;:null}" fill="url(#color-9)" stroke-linecap="butt"/><path d="M180.988,71.20379c0.96497,2.21924 2.27702,4.36513 2.5512,5.88589c0.24238,1.34432 -0.77171,2.33296 -1.31158,2.6763c-0.87112,0.55401 -5.21138,-15.78708 -6.51752,-19.74073c-0.19476,-0.58953 -0.29697,-0.9344 -0.27755,-0.94674c0.22891,-0.14558 4.09916,8.77609 5.55547,12.12532z" fill="url(#color-10)" stroke-linecap="butt"/></g><path d="M166.618,39.6073c0.43503,-1.01991 0.99122,-1.93253 1.6213,-1.9303c0.2817,0.00102 0.31283,0.53303 0.56798,0.66132c1.05858,0.53226 2.23104,0.8482 3.32335,1.64263c2.99157,2.17578 5.59506,4.16555 7.96758,7.08588c2.12225,2.61352 4.66695,4.50144 6.90755,6.91796c2.39338,2.5813 4.6219,5.21342 7.24611,7.60519c1.4164,1.30435 2.19207,3.16218 3.35938,4.70667c3.17044,4.19484 5.5012,7.78395 6.35142,13.10333c0.1579,0.98949 0.33005,1.9783 0.47389,2.9699c0.00058,0.00404 0.25887,1.98152 0.26002,1.99043c0.18268,1.41349 0.06879,4.53232 -2.02443,2.58884c-1.81223,-1.68258 -2.29404,-5.81741 -3.26427,-8.00925c-0.31591,-0.71369 -1.40062,-0.02242 -1.80802,0.12204c-1.15583,1.76599 -1.84007,3.5847 -2.77046,5.47483c-0.39366,0.79977 -0.78473,2.28472 -1.58401,2.7554c-0.46229,0.27222 -2.05635,0.29827 -2.47131,-0.11846c-0.13685,-0.13743 -0.40369,-1.95371 -0.45095,-2.24937c-0.35046,-2.19232 -0.70096,-4.38464 -1.05134,-6.57697c-0.52024,-2.82294 -1.37046,-7.04453 -3.05988,-9.40517c-1.24331,-1.73727 -3.4903,-0.6119 -4.26243,0.9488c-0.41598,0.84082 -0.74251,1.68583 -1.08063,2.5642c-0.56181,6.6653 0.88875,13.24454 1.36791,19.90195c0.50552,7.02412 0.75924,13.78453 0.07154,20.79985c-0.09744,0.99408 -0.19109,1.98848 -0.30267,2.98077c-0.16744,1.48931 -1.61454,4.57894 -2.85988,1.74571c-1.09022,-2.48031 -0.2126,-5.99674 -1.62074,-8.34495c-0.37598,-0.62697 -1.25239,2.06782 -1.38537,2.27074c-0.5484,2.95804 -2.92918,1.38146 -3.57135,-0.69281c-1.42852,-4.61426 -1.32033,-9.98537 -1.50875,-14.74418c-0.01276,-0.33032 -0.02685,-0.66098 -0.04223,-0.99194c-0.64602,-4.04117 -1.29203,-8.08233 -1.93803,-12.1235c-0.52548,-3.28718 -1.21819,-6.59748 -1.58253,-9.90546c-0.3833,-3.47998 0.1595,-6.989 -0.34936,-10.43528c-0.34076,-2.3167 -0.24223,-4.66961 -0.5009,-6.99459c-0.51305,-4.61129 -1.58877,-9.25007 -0.88516,-13.85479c0.04409,-0.13666 0.09899,-0.31514 0.16393,-0.52184c-0.09818,-0.76024 -0.20744,-1.52313 -0.32999,-2.28978c0,0 -0.07892,-0.49372 0.39309,-0.56918c0.47203,-0.07546 0.55095,0.41827 0.55095,0.41827c0.02683,0.16785 0.05303,0.33554 0.07862,0.50306z" fill="#000000" stroke-width="0.5" stroke-linecap="butt"/><path d="M189.98068,88.86111c0.21796,1.3634 -0.22432,2.5676 -0.98782,2.68965c-0.76351,0.12206 -1.55912,-0.88425 -1.77707,-2.24766c-0.21796,-1.3634 0.2243,-2.5676 0.98781,-2.68965c0.76351,-0.12206 1.55914,0.88427 1.7771,2.24766z" fill="#000000" stroke-width="0" stroke-linecap="butt"/></g><path d="M208.34091,240.58045c-5.10998,-9.17174 -19.98959,-26.99553 -19.98959,-26.99553l5.71768,-3.18557c0,0 15.08517,18.19276 20.22339,27.41518c1.55984,2.79973 1.00017,11.53208 4.64959,18.55151c3.16664,6.09087 15.05648,14.54414 18.70736,19.33547c4.20338,5.51644 -0.02998,6.94282 -0.02998,6.94282c0,0 -14.76591,-9.83548 -23.27272,-22.0087c-4.7324,-6.77205 -4.38989,-17.15497 -6.00572,-20.05518z" fill="url(#color-11)" stroke="none" stroke-width="0" stroke-linecap="butt"/><path d="M204.02531,306.41902l18.64285,-132.3421l37.78325,-0.15789l16.82389,131.25c0,0 -9.36709,-2.05253 -10.18011,-1.99017c-0.70898,0.05439 -11.65167,3.60778 -13.98201,3.47494c-2.40795,-0.13727 -13.54274,-3.68405 -13.66415,-3.68926c-1.08639,-0.04658 -8.93746,3.46643 -11.31307,3.68497c-4.62067,0.42507 -14.85218,-3.60483 -15.75761,-3.59837c-0.81038,0.00579 -8.35303,3.36788 -8.35303,3.36788z" fill="url(#color-12)" stroke="none" stroke-width="0" stroke-linecap="butt"/><path d="M173.64304,135.51612c0.92481,-0.98563 26.43521,-54.50329 26.86465,-54.72962c0.72159,-0.3803 72.28359,-2.2452 76.23108,-0.42149c0.21874,0.10106 28.56569,52.39963 29.1843,52.98632c0.57062,0.54119 -23.06407,56.31439 -23.08932,56.31684c-3.5528,0.34488 -83.32747,0.89041 -84.83858,-1.01716c-0.37687,-0.47574 -24.64877,-52.81875 -24.35213,-53.13489z" data-paper-data="{&quot;index&quot;:null}" fill="url(#color-13)" stroke="none" stroke-width="0" stroke-linecap="butt"/><path d="M189.16543,132.69465c0,-12.968 10.51265,-23.48065 23.48065,-23.48065c12.968,0 23.48065,10.51265 23.48065,23.48065c0,12.968 -10.51265,23.48065 -23.48065,23.48065c-12.968,0 -23.48065,-10.51265 -23.48065,-23.48065z" fill="#ff0000" stroke="none" stroke-width="2" stroke-linecap="butt"/><path d="M266.90449,156.1753c-12.968,0 -23.48065,-10.51265 -23.48065,-23.48065c0,-12.968 10.51265,-23.48065 23.48065,-23.48065c12.968,0 23.48065,10.51265 23.48065,23.48065c0,12.968 -10.51265,23.48065 -23.48065,23.48065z" data-paper-data="{&quot;index&quot;:null}" fill="#ff0000" stroke="none" stroke-width="2" stroke-linecap="butt"/><path d="M201.80314,100.88619c0,0 6.70895,-5.16922 11.79721,-6.36355c5.08827,-1.19433 12.33413,0.69937 12.33413,0.69937c0,0 -8.03812,-0.06028 -11.96762,0.86207c-4.10648,0.96389 -12.16372,4.80211 -12.16372,4.80211z" fill="#000000" stroke="none" stroke-width="0" stroke-linecap="butt"/><path d="M265.73757,96.08408c-3.9295,-0.92235 -11.96762,-0.86207 -11.96762,-0.86207c0,0 7.24586,-1.8937 12.33413,-0.69937c5.08826,1.19433 11.79721,6.36355 11.79721,6.36355c0,0 -8.05724,-3.83822 -12.16372,-4.80211z" data-paper-data="{&quot;index&quot;:null}" fill="#000000" stroke="none" stroke-width="0" stroke-linecap="butt"/><path d="M195.4953,115.88902l-3.33333,-5.66666" fill="none" stroke="#000000" stroke-width="2" stroke-linecap="round"/><path d="M190.72299,121.92057l-6.12204,-2.3964" fill="none" stroke="#000000" stroke-width="2" stroke-linecap="round"/><g data-paper-data="{&quot;index&quot;:null}" fill="none" stroke="#000000" stroke-width="2" stroke-linecap="round"><path d="M284.93426,116.88902l3.33333,-5.66666"/><path d="M295.8286,120.52417l-6.12205,2.3964"/></g><path d="M220.78475,110.51254c0.12538,-0.73865 5.43642,-8.99866 6.17634,-8.68974c0.70609,0.2948 -1.37604,10.1846 -1.8145,10.85429c-0.24491,0.37407 -0.98086,-0.62217 -1.97594,-1.1233c-1.09939,-0.55365 -2.45135,-0.65566 -2.3859,-1.04125z" fill="#c30c40" stroke="none" stroke-width="0" stroke-linecap="butt"/><path d="M205.60363,155.39438c-0.12538,0.73864 -5.43642,8.99866 -6.17634,8.68974c-0.70609,-0.2948 1.37603,-10.1846 1.8145,-10.85429c0.24491,-0.37407 0.98086,0.62217 1.97594,1.1233c1.09939,0.55365 2.45135,0.65565 2.3859,1.04125z" data-paper-data="{&quot;index&quot;:null}" fill="#c30c40" stroke="none" stroke-width="0" stroke-linecap="butt"/><g fill="#c30c40" stroke="none" stroke-width="0" stroke-linecap="butt"><path d="M259.50363,110.21254c0.06545,0.38559 -1.28652,0.48759 -2.3859,1.04125c-0.99509,0.50113 -1.73102,1.49737 -1.97594,1.1233c-0.43847,-0.66969 -2.52059,-10.55949 -1.8145,-10.85429c0.73992,-0.30892 6.05096,7.95109 6.17634,8.68974z" data-paper-data="{&quot;index&quot;:null}"/><path d="M274.68475,155.09437c-0.06545,-0.38559 1.28652,-0.48759 2.3859,-1.04125c0.99509,-0.50113 1.73102,-1.49737 1.97594,-1.1233c0.43847,0.66969 2.52059,10.55949 1.8145,10.85429c-0.73992,0.30892 -6.05096,-7.9511 -6.17634,-8.68974z" data-paper-data="{&quot;index&quot;:null}"/></g><path d="M189.44355,136.0727c1.25206,0.04455 45.95431,0.59617 46.2126,0.62024c-0.51423,3.48577 -1.14834,6.30024 -3.04203,9.21768c-4.24825,6.54493 -11.74714,10.2393 -19.77722,10.2393c-11.87745,0 -22.06545,-8.38944 -23.39336,-20.07721z" data-paper-data="{&quot;index&quot;:null}" fill="#ff5d5d" stroke="none" stroke-width="2" stroke-linecap="butt"/><path d="M196.4808,128.56902c0,-9.12808 7.39976,-16.52784 16.52783,-16.52784c9.12808,0 16.52784,7.39977 16.52784,16.52784c0,9.12808 -7.39977,16.52784 -16.52784,16.52784c-9.12808,0 -16.52783,-7.39977 -16.52783,-16.52784z" fill="#000000" stroke="none" stroke-width="0" stroke-linecap="butt"/><path d="M290.15614,136.07271c-1.32791,11.68777 -11.51591,20.07721 -23.39336,20.07721c-8.03008,0 -15.52897,-3.69437 -19.77722,-10.2393c-1.89369,-2.91744 -2.5278,-5.73191 -3.04203,-9.21768c0.25829,-0.02407 44.96054,-0.57569 46.2126,-0.62024z" data-paper-data="{&quot;index&quot;:null}" fill="#ff5d5d" stroke="none" stroke-width="2" stroke-linecap="butt"/><path d="M266.59193,143.99685c-9.12807,0 -16.52783,-7.39977 -16.52783,-16.52784c0,-9.12808 7.39977,-16.52784 16.52783,-16.52784c9.12807,0 16.52783,7.39977 16.52783,16.52784c0,9.12808 -7.39977,16.52784 -16.52783,16.52784z" data-paper-data="{&quot;index&quot;:null}" fill="#000000" stroke="none" stroke-width="0" stroke-linecap="butt"/><g><path d="M270.25381,163.61699c0.2813,2.77597 -17.93663,16.29668 -24.70897,16.94927c-6.19938,0.59738 -26.77778,-8.97159 -27.08048,-11.95881c-0.05091,-0.50243 12.89492,0.89984 25.83351,-0.34693c13.35287,-1.28669 25.92051,-4.9932 25.95594,-4.64352z" fill="url(#color-14)" stroke="none" stroke-width="0" stroke-linecap="butt"/><path d="M229.79159,175.60257l5.56755,-4.03661l5.18343,3.96875l4.89932,-4.73311l6.13383,3.51777l4.60338,-4.7046l5.36455,1.82404" fill="none" stroke="#000000" stroke-width="1" stroke-linecap="round"/></g><path d="M213.52618,129c0,6.94958 -0.32646,12.58333 -0.72916,12.58333c-0.40271,0 -0.72916,-5.63375 -0.72916,-12.58333c0,-6.94958 0.32646,-12.58333 0.72916,-12.58333c0.40271,0 0.72916,5.63375 0.72916,12.58333z" fill="#ff0000" stroke="#ff0000" stroke-width="2" stroke-linecap="butt"/><path d="M267.92618,128.15001c0,6.94958 -0.32646,12.58333 -0.72917,12.58333c-0.40272,0 -0.72916,-5.63375 -0.72916,-12.58333c0,-6.94958 0.32646,-12.58333 0.72916,-12.58333c0.40272,0 0.72917,5.63375 0.72917,12.58333z" fill="#ff0000" stroke="#ff0000" stroke-width="2" stroke-linecap="butt"/><g stroke="none" stroke-linecap="butt"><g stroke-width="0"><path d="M181.14655,214.33388c-0.59672,-0.56292 -1.59757,-1.94561 -2.49748,-1.95961c-0.71979,-0.0112 -1.27796,0.84388 -1.65705,1.30712c-0.16109,0.15932 -2.09097,2.13732 -2.10282,2.12989c-2.03592,-1.27681 -4.04791,-4.47078 -5.26078,-6.5074c-0.33291,-0.55901 -1.29465,-2.81551 -2.1077,-2.76266c-0.32348,0.02103 -1.2419,2.14751 -1.52931,2.58795c-1.49665,0.15907 -3.01748,-2.92285 -3.69744,-3.98204c-1.30765,-2.03696 -3.14413,-3.83548 -5.05583,-5.536l3.48734,-10.03754l41.10072,18.56079l-6.52827,19.2899c-0.00805,-0.0068 -0.01612,-0.0136 -0.02417,-0.02041c-2.72108,-3.05267 -5.3986,-6.38435 -8.96695,-8.33778c-1.67107,-1.6211 -3.46443,-3.13244 -5.16028,-4.73221z" fill="url(#color-15)"/><path d="M160.89053,189.58033c1.21602,0.42248 0.62371,5.48462 -1.26197,12.29222c-1.38118,-1.41877 -2.92839,-2.74029 -4.42347,-4.03209c2.39424,-5.28317 4.60999,-8.63377 5.68546,-8.26013z" fill="url(#color-16)"/><path d="M160.86264,189.666c1.01131,0.35136 2.33181,4.35917 1.6784,10.31843c-0.1197,1.09175 -0.47452,2.6665 -0.88648,4.23904c-0.73344,-0.98835 -1.58278,-1.92194 -2.49048,-2.81861c0.1705,-0.61835 0.29031,-1.10906 0.34385,-1.42729c0.97327,-5.7855 0.96749,-10.44612 1.35472,-10.31158z" fill="url(#color-17)"/></g><path d="M161.38629,190.43062c0.46276,-0.00637 0.93766,0.01799 1.42804,0.05976c-0.50776,-0.18579 -0.87307,-0.24793 -1.4093,-0.1373zM160.34627,190.5049c0.00947,-0.05563 0.02289,-0.09152 0.02289,-0.09152l0.34827,-0.78639c1.08471,-0.38686 1.54496,-0.40002 2.61064,0.00154c1.43642,1.16042 1.94178,3.4288 3.49793,4.38065c3.02432,1.8499 7.46869,1.98019 8.82149,5.45122l0.19038,-0.06406l0.31546,0.93757c0.01329,0.03694 0.0224,0.07605 0.02674,0.11682c0.02919,0.27459 -0.16976,0.52086 -0.44436,0.55004c-0.11374,0.01209 -0.22262,-0.01497 -0.31323,-0.07032l-0.49961,-0.29786c-1.78483,0.30774 -0.15986,2.4489 1.0779,3.3332c3.07352,2.19582 6.98908,2.50569 10.00188,4.87187c0.76263,0.63345 2.06967,2.09223 0.54822,2.89929c-2.74905,1.45825 -4.25954,-1.86815 -6.52022,-1.14978c-2.40666,0.76475 -2.54539,3.61903 -5.27936,3.86533c-1.37893,-0.56903 -0.77572,-1.27641 -1.61433,-2.11717c-0.46221,-0.46339 -1.96202,0.49383 -2.79314,-0.31115c-0.93626,-0.90682 -0.92951,-2.91574 -2.19003,-3.50374c-0.42841,-0.19984 -0.99325,1.08229 -1.18047,1.30942c-0.81476,0.9885 -1.20879,0.99088 -2.48643,1.12078c-1.63657,-0.58217 -2.25183,-5.30161 -3.65293,-7.00802c-1.35458,-1.64975 -3.62722,-1.63705 -5.07269,-3.18622c-1.90199,-2.29277 -0.73373,-7.14009 1.49028,-8.9174c1.00647,-0.80431 2.02277,-1.18734 3.09473,-1.33411z" fill="#000000" stroke-width="0.5"/><path d="M191.82937,210.49588c0.04586,0.43151 -0.36216,0.82864 -0.91136,0.88701c-0.5492,0.05837 -1.03158,-0.24412 -1.07744,-0.67563c-0.04586,-0.43151 0.36216,-0.82863 0.91136,-0.887c0.5492,-0.05837 1.03158,0.24411 1.07744,0.67562z" fill="#000000" stroke-width="0"/></g><g stroke="none" stroke-linecap="butt"><g stroke-width="0"><path d="M194.59722,226.92499l-41.58109,-18.16026l8.26094,-14.77465c1.75899,1.76917 3.5106,3.54705 5.15456,5.44556c1.21549,1.38896 1.84152,2.86129 2.61236,4.48381c0.08736,0.1839 0.40148,1.60405 0.75959,1.68528c1.152,0.26128 2.7784,-1.59085 3.50203,-2.30209c0.39255,-0.38582 0.37101,-1.42844 0.91855,-1.37218c0.54229,0.05571 0.39149,1.02998 0.7063,1.47503c0.76467,1.08103 1.5938,2.10234 2.2725,3.24008c0.78272,1.30996 2.50784,6.1372 4.07216,6.40104c0.65548,0.11055 1.17493,-1.14486 1.38295,-1.44948c0.87169,-1.27643 1.93529,-2.49172 3.00331,-3.60603c0.38369,-0.40033 0.80232,-1.59548 1.17116,-1.18141c0.48678,0.54649 0.87044,1.22168 1.42863,1.77755c1.00511,1.15639 2.10603,2.14897 3.26257,3.08807c0.61687,1.19159 1.37217,2.34611 1.96363,3.34182c1.34513,2.26455 2.53593,4.59137 3.89949,6.82288z" fill="url(#color-18)"/><path d="M153.14822,208.85257c-1.41001,-0.78838 1.25918,-8.27379 6.00729,-17.00238c1.47748,1.50422 2.97854,2.98248 4.44266,4.50231c-4.6444,7.81163 -9.1244,13.24123 -10.44995,12.50007z" fill="url(#color-19)"/><path d="M162.6596,202.77403c-3.75254,4.63687 -7.33447,6.67656 -8.26272,6.15756c-0.53961,-0.3017 2.0772,-2.66272 5.40833,-7.30414c0.59248,-0.82552 1.92766,-3.08751 3.39208,-5.68919c0.79057,0.81341 1.57207,1.63706 2.33507,2.48144c-0.96934,1.62874 -2.0422,3.32805 -2.87277,4.35433z" fill="url(#color-20)"/></g><path d="M158.5286,192.73813c0.21074,-0.14308 0.47213,-0.03523 0.47213,-0.03523l0.6843,0.29636c0.14516,0.15932 0.29031,0.31865 0.43545,0.47797c1.57478,1.16951 4.30108,2.9919 4.41253,5.2189c0.10587,2.11542 -1.27563,0.88852 -1.78188,1.79652c-1.25866,2.25751 1.23411,5.14459 3.2826,5.31845c1.3052,-0.56832 2.77737,-1.81017 4.24594,-0.63636c0.82481,0.65926 1.13398,3.3126 2.14153,3.47676c1.40255,0.22853 1.15837,-1.95464 2.0153,-2.55913c1.72493,-1.21678 3.20816,0.17942 3.0946,1.80947c-0.25682,3.68638 1.15165,5.89974 5.11069,6.67523c0.86804,0.17003 3.81863,0.02837 4.45662,0.65386c1.03785,1.01752 -0.97494,3.67296 -1.49052,4.47867c-2.44179,3.00578 -7.08376,-0.19526 -9.8893,-1.6519c-1.823,-0.94651 -3.97737,-0.69926 -5.87596,-1.40823c-2.18892,-0.30331 -4.21311,-1.31497 -6.09247,-2.43586c-1.98105,-1.18155 -4.45074,-1.58288 -6.52087,-2.6038c-1.67554,-0.82633 -3.13393,-2.04283 -4.72571,-3.00459c0.03139,-4.81835 1.69997,-7.86808 3.63326,-12.09983c0.67807,-1.48424 0.54645,-4.18166 2.26531,-3.84417c0,0 0.05916,0.02441 0.12642,0.07693z" fill="#000000" stroke-width="0.5"/></g><path d="M226.17946,152.25848c0,0 3.45119,-2.53916 5.95979,-6.11341c0.11022,-0.15704 0.36014,-0.46116 0.46406,-0.62589c1.35912,-2.15442 2.03703,-4.75821 2.33551,-6.39534c0.70765,-3.88136 0.52636,-12.15107 0.52636,-12.15107c0,0 8.28571,-0.05739 8.28571,0.42857c0,1.32855 -0.98639,7.25745 0.65957,13.05608c1.77755,6.26221 10.34043,12.08677 10.34043,12.08677c0,0 -10.82096,-2.64821 -15.14308,-2.69143c-5.07901,-0.05079 -13.42835,2.40571 -13.42835,2.40571z" fill="url(#color-21)" stroke="none" stroke-width="0" stroke-linecap="butt"/></g></g></svg>