<svg version="1.1" xmlns="http://www.w3.org/2000/svg" xmlns:xlink="http://www.w3.org/1999/xlink" width="205.65338" height="284.36667" viewBox="0,0,205.65338,284.36667"><defs><radialGradient cx="240.82622" cy="108.95131" r="87.77953" gradientUnits="userSpaceOnUse" id="color-1"><stop offset="0" stop-color="#ff0000"/><stop offset="1" stop-color="#ff0000" stop-opacity="0"/></radialGradient><linearGradient x1="240.00007" y1="175.50001" x2="240.00007" y2="307.50001" gradientUnits="userSpaceOnUse" id="color-2"><stop offset="0" stop-color="#000000"/><stop offset="1" stop-color="#731746"/></linearGradient><linearGradient x1="241.33335" y1="71.33334" x2="241.33335" y2="92.33334" gradientUnits="userSpaceOnUse" id="color-3"><stop offset="0" stop-color="#ff0000"/><stop offset="1" stop-color="#000000"/></linearGradient><linearGradient x1="241.54524" y1="74.37271" x2="241.54524" y2="98.8261" gradientUnits="userSpaceOnUse" id="color-4"><stop offset="0" stop-color="#000000"/><stop offset="1" stop-color="#ffffff"/></linearGradient><linearGradient x1="241.25837" y1="74.52577" x2="241.25837" y2="210.73099" gradientUnits="userSpaceOnUse" id="color-5"><stop offset="0" stop-color="#000000"/><stop offset="1" stop-color="#c13773"/></linearGradient><linearGradient x1="171.60932" y1="144.09512" x2="171.60932" y2="190.714" gradientUnits="userSpaceOnUse" id="color-6"><stop offset="0" stop-color="#000000"/><stop offset="1" stop-color="#ffffff"/></linearGradient><linearGradient x1="310.60931" y1="143.84512" x2="310.60931" y2="190.464" gradientUnits="userSpaceOnUse" id="color-7"><stop offset="0" stop-color="#000000"/><stop offset="1" stop-color="#ffffff"/></linearGradient><linearGradient x1="233.55167" y1="139.20121" x2="233.55167" y2="161.20121" gradientUnits="userSpaceOnUse" id="color-8"><stop offset="0" stop-color="#000000" stop-opacity="0"/><stop offset="1" stop-color="#000000"/></linearGradient><radialGradient cx="266.78503" cy="134.47501" r="19" gradientUnits="userSpaceOnUse" id="color-9"><stop offset="0" stop-color="#ff0000"/><stop offset="1" stop-color="#ff0000" stop-opacity="0"/></radialGradient></defs><g transform="translate(-138.43167,-23.13334)"><g data-paper-data="{&quot;isPaintingLayer&quot;:true}" fill-rule="nonzero" stroke-linejoin="miter" stroke-miterlimit="10" stroke-dasharray="" stroke-dashoffset="0" style="mix-blend-mode: normal"><path d="M328.60575,108.95131c0,47.39596 -39.30024,85.81797 -87.77953,85.81797c-48.4793,0 -87.77952,-38.42201 -87.77952,-85.81797c0,-47.39596 39.30022,-85.81797 87.77952,-85.81797c48.47929,0 87.77953,38.42202 87.77953,85.81797z" fill="url(#color-1)" stroke="none" stroke-width="0" stroke-linecap="butt"/><path d="M206.75008,307.5l15.14285,-131.8421l37.78325,-0.15789l13.57389,132z" fill="url(#color-2)" stroke="none" stroke-width="2" stroke-linecap="butt"/><path d="M246.25004,204.50001c0,-0.27614 0.22386,-0.5 0.5,-0.5c0.27614,0 0.5,0.22386 0.5,0.5c0,0.27614 -0.22386,0.5 -0.5,0.5c-0.27614,0 -0.5,-0.22386 -0.5,-0.5z" fill="#000000" stroke="none" stroke-width="0.5" stroke-linecap="butt"/><path d="M278.50002,85.16667c0,5.79899 -22.31217,7.16667 -37.5,7.16667c-15.18783,0 -36.83334,-0.36768 -36.83334,-6.16667c0,-5.79899 21.64551,-14.83333 36.83334,-14.83333c15.18783,0 37.5,8.03434 37.5,13.83333z" fill="url(#color-3)" stroke="none" stroke-width="0" stroke-linecap="butt"/><g stroke="none" stroke-width="0" stroke-linecap="butt"><path d="M138.43168,210.87872c0,0 23.84902,-22.11199 27.31533,-35.19609c5.43361,-20.51002 7.70646,-83.48384 11.10527,-100.07343c0.1613,-0.78735 31.96849,4.26022 64.47229,4.0386c32.8085,-0.22371 66.73439,-4.97428 66.73439,-4.97428c0,0 2.73295,75.94807 8.1486,100.26727c3.28894,14.76907 28.41015,33.68341 27.86887,33.66612c-2.83517,-0.09056 -24.63115,-9.16433 -59.04522,-8.45935c-14.09108,0.28866 -29.788,6.19491 -44.81818,6.02362c-15.84405,-0.18057 -36.4964,-7.34622 -50.37255,-7.23695c-30.01952,0.23638 -51.40881,11.94451 -51.40881,11.94451z" fill="#d21869"/><path d="M176.88549,75.3084c0.1613,-0.78735 31.96849,4.26023 64.47229,4.0386c32.8085,-0.22371 66.73439,-4.97429 66.73439,-4.97429c0,0 0.22719,6.31361 0.68037,15.88298c-2.87009,0.90992 -5.62201,2.05114 -7.9335,3.84359c-0.80453,0.62387 -2.33893,1.52313 -2.67302,2.49222c-0.0943,-0.17575 -0.1886,-0.35151 -0.2829,-0.52725c-3.30727,-6.16293 -12.6324,-6.02624 -19.29175,-5.44383c-2.94032,0.25836 -6.18549,0.20816 -9.06273,0.7865c-3.87041,0.77797 -7.70639,2.6157 -11.31302,4.03639c-0.91556,0.59215 -3.61095,2.82466 -4.7897,2.6994c-0.50841,-0.05403 -0.52524,-0.77837 -0.72934,-1.19263c-0.56742,-1.15174 -1.03328,-2.19867 -1.88268,-3.22002c-1.63582,-1.96697 -5.31568,-3.5558 -8.02643,-4.01513c-6.56476,-1.08537 -14.81069,-1.26343 -21.15664,0.72596c-4.62921,1.45498 -8.31676,3.57993 -12.3764,5.97543c-0.59596,0.35166 -3.28211,2.45632 -3.82818,2.40899c-0.54095,-0.04689 -0.62367,-0.78642 -0.96647,-1.1585c-1.63345,-2.19958 -5.13028,-5.02465 -8.21256,-5.41707c-3.62309,-0.46128 -7.57774,0.59052 -11.14123,1.07645c-3.84915,1.12042 -7.47503,2.01042 -10.78804,3.54808c0.82998,-9.37349 1.65849,-17.12876 2.56755,-21.56587z" fill="url(#color-4)"/><path d="M138.43168,210.73098c0,0 23.84902,-22.112 27.31533,-35.1961c5.43361,-20.51002 7.70646,-83.48383 11.10527,-100.07342c0.1613,-0.78735 31.96849,4.26023 64.47229,4.0386c32.8085,-0.22371 66.73439,-4.97429 66.73439,-4.97429c0,0 2.73295,75.94806 8.1486,100.26727c3.28894,14.76907 28.41015,33.68341 27.86887,33.66612c-2.83517,-0.09056 -24.63115,-9.16433 -59.04522,-8.45935c-14.09108,0.28866 -29.788,6.19491 -44.81818,6.02362c-15.84405,-0.18057 -36.4964,-7.34622 -50.37255,-7.23695c-30.01952,0.23638 -51.40881,11.94451 -51.40881,11.94451z" fill="url(#color-5)"/></g><path d="M186.22152,166.714c0,2.4265 0.45335,11.23792 -0.42309,12.30663c-1.08818,1.3269 -3.68475,-5.13009 -5.37466,-1.72996c-2.0255,4.07536 -3.62583,16.14447 -6.67151,17.77586c-3.54635,1.89958 -7.95789,-4.35253 -12.2967,-4.35253c-1.52212,0 -3.01217,-0.13306 -4.45844,-0.38785c0.43622,-0.41018 0.5449,-0.88346 0.95827,-1.41333c0.79105,-1.01398 1.81051,-2.23516 2.1503,-3.61776c0.63171,-0.9708 4.72025,-5.82619 5.87194,-10.3611c0.85036,-3.34836 0.69619,-6.29251 1.32155,-7.95983c0.53124,-1.42737 0.52436,-3.0669 0.73288,-4.5658c0.63509,-4.56513 0.50956,-9.20517 1.41048,-13.70413c0.06407,-1.4625 0.18654,-3.01407 0.31338,-4.6091c9.5955,3.30698 16.46561,12.18544 16.46561,22.61888z" fill="url(#color-6)" stroke="none" stroke-width="0" stroke-linecap="butt"/><path d="M176.88549,75.3084c0.1613,-0.78735 31.96849,4.26023 64.47229,4.0386c32.8085,-0.22371 66.73439,-4.97429 66.73439,-4.97429c0,0 0.22719,6.31361 0.68037,15.88298c-2.87009,0.90992 -5.62201,2.05114 -7.9335,3.84359c-0.80453,0.62387 -2.33893,1.52313 -2.67302,2.49222c-0.0943,-0.17575 -0.1886,-0.35151 -0.2829,-0.52725c-3.30727,-6.16293 -12.6324,-6.02624 -19.29175,-5.44383c-2.94032,0.25836 -6.18549,0.20816 -9.06273,0.7865c-3.87041,0.77797 -7.70639,2.6157 -11.31302,4.03639c-0.91556,0.59215 -3.61095,2.82466 -4.7897,2.6994c-0.50841,-0.05403 -0.52524,-0.77837 -0.72934,-1.19263c-0.56742,-1.15174 -1.03328,-2.19867 -1.88268,-3.22002c-1.63582,-1.96697 -5.31568,-3.5558 -8.02643,-4.01513c-6.56476,-1.08537 -14.81069,-1.26343 -21.15664,0.72596c-4.62921,1.45498 -8.31676,3.57993 -12.3764,5.97543c-0.59596,0.35166 -3.28211,2.45632 -3.82818,2.40899c-0.54095,-0.04689 -0.62367,-0.78642 -0.96647,-1.1585c-1.63345,-2.19958 -5.13028,-5.02465 -8.21256,-5.41707c-3.62309,-0.46128 -7.57774,0.59052 -11.14123,1.07645c-3.84915,1.12042 -7.47503,2.01042 -10.78804,3.54808c0.82998,-9.37349 1.65849,-17.12876 2.56755,-21.56587z" fill="none" stroke="none" stroke-width="0" stroke-linecap="butt"/><path d="M271.71262,159.00626c-12.968,0 -23.48065,-10.51265 -23.48065,-23.48065c0,-12.968 10.51265,-23.48065 23.48065,-23.48065c12.968,0 23.48065,10.51265 23.48065,23.48065c0,12.968 -10.51265,23.48065 -23.48065,23.48065z" data-paper-data="{&quot;index&quot;:null}" fill="#ff0000" stroke="none" stroke-width="2" stroke-linecap="butt"/><path d="M270.54571,101.91508c-3.9295,-0.92235 -11.96762,-0.86207 -11.96762,-0.86207c0,0 7.24586,-1.8937 12.33413,-0.69937c5.08826,1.19433 11.79721,6.36355 11.79721,6.36355c0,0 -8.05724,-3.83822 -12.16372,-4.80211z" data-paper-data="{&quot;index&quot;:null}" fill="#000000" stroke="none" stroke-width="0" stroke-linecap="butt"/><g data-paper-data="{&quot;index&quot;:null}" fill="none" stroke="#000000" stroke-width="2" stroke-linecap="round"><path d="M270.11737,163.7588l-0.77403,-10.64546" data-paper-data="{&quot;index&quot;:null}"/><path d="M284.21894,147.20733l9.39098,6.28666" data-paper-data="{&quot;index&quot;:null}"/></g><path d="M223.80235,181.00716c0,0 2.82058,-1.96755 9.1903,-2.0142c1.66998,-0.01223 4.96969,0.98974 6.91685,1.01421c3.41355,0.04288 6.44637,-0.62852 8.76147,-0.5895c5.39712,0.09096 7.52669,1.5895 7.52669,1.5895" data-paper-data="{&quot;index&quot;:null}" fill="none" stroke="#000000" stroke-width="2" stroke-linecap="round"/><path d="M295.99712,166.464c0,-10.43344 6.87011,-19.3119 16.46561,-22.61888c0.12684,1.59503 0.24931,3.1466 0.31338,4.6091c0.90091,4.49895 0.7754,9.13899 1.41048,13.70413c0.20852,1.4989 0.20164,3.13843 0.73288,4.5658c0.62536,1.66732 0.47119,4.61147 1.32155,7.95983c1.15169,4.53491 5.24023,9.3903 5.87194,10.3611c0.33979,1.3826 1.35925,2.60378 2.1503,3.61776c0.41337,0.52987 0.52205,1.00315 0.95827,1.41333c-1.44627,0.25479 -2.93632,0.38785 -4.45844,0.38785c-1.90774,0 -4.58358,8.30918 -6.15914,5.82986c-2.12257,-3.34011 -3.06312,-17.83964 -5.14344,-18.99575c-3.30443,-1.83639 -4.66055,5.91252 -7.001,5.05161c-2.93401,-1.07924 -6.46238,-10.92631 -6.46238,-15.88572z" data-paper-data="{&quot;index&quot;:null}" fill="url(#color-7)" stroke="none" stroke-width="0" stroke-linecap="butt"/><path d="M248.58703,138.2338c0.43515,0.01507 45.23836,0.1947 46.41361,0.08003c-1.40593,11.61354 -11.23026,20.60922 -23.14065,20.60922c-12.41175,0 -22.55811,-8.36895 -23.27296,-20.68924z" data-paper-data="{&quot;index&quot;:null}" fill="#ff4242" stroke="none" stroke-width="2" stroke-linecap="butt"/><path d="M271.60005,151.77785c-9.12807,0 -16.52783,-7.39977 -16.52783,-16.52784c0,-9.12808 7.39977,-16.52784 16.52783,-16.52784c9.12807,0 16.52783,7.39977 16.52783,16.52784c0,9.12808 -7.39977,16.52784 -16.52783,16.52784z" data-paper-data="{&quot;index&quot;:null}" fill="#000000" stroke="none" stroke-width="0" stroke-linecap="butt"/><path d="M274.73341,135.27564c0,5.83844 -3.48578,10.57143 -7.78571,10.57143c-4.29993,0 -7.78571,-4.73299 -7.78571,-10.57143c0,-5.83844 3.48578,-10.57143 7.78571,-10.57143c4.29993,0 7.78571,4.73299 7.78571,10.57143z" fill="#ff0000" stroke="none" stroke-width="0" stroke-linecap="butt"/><path d="M241.14376,130.07452c0,1.38071 -0.89543,2.5 -2,2.5c-1.10457,0 -2,-1.11929 -2,-2.5c0,-1.38071 0.89543,-2.5 2,-2.5c1.10457,0 2,1.11929 2,2.5z" fill="#000000" stroke="#000000" stroke-width="0.5" stroke-linecap="butt"/><path d="M174.05414,74.70495c0.97341,-1.12975 1.45482,-2.71268 2.92024,-3.38926c1.49511,-0.69029 3.41565,-0.21633 5.12347,-0.3245h4.23753c0,0 1.17455,0 2.06031,0.60433c2.15936,0.46232 4.2721,1.17457 5.87357,1.45761c7.97308,1.40912 15.97309,2.28271 23.91471,3.9568c6.13028,-0.02969 13.12624,0.79275 19.18727,0.00543c6.53198,-0.84849 12.27093,-3.18913 17.8946,1.89086c2.70995,2.44797 3.09518,7.99238 3.10749,11.08497c0.02222,5.57904 0.49082,11.26563 -0.61543,16.77642c-0.59482,2.96307 -1.21714,7.93292 -3.43,10.48461c-1.66014,1.91433 -3.51165,4.47091 -6.34425,4.73765c-4.26945,0.40204 -4.64989,-2.92135 -4.68978,-5.24159c-1.13122,1.16981 -2.6048,2.13188 -3.74464,3.30466c-1.91702,1.9724 -4.82199,4.96054 -5.47131,7.51264c-0.61632,2.4224 0.08097,4.95031 0.08097,7.42562c0,2.78155 -0.20317,5.56788 -0.00585,8.34466c0.3076,4.32865 1.74603,8.41411 1.20977,12.80538c-0.26846,2.19833 -0.11989,4.58165 -1.3831,6.52928c-0.54346,0.8379 -2.41868,0.16586 -3.33343,0.74267c-0.52397,0.3304 -0.14059,1.09654 -0.38518,1.60215c-0.53557,1.10711 -1.22047,2.16394 -1.93729,3.19875c-2.71837,3.92432 -6.19671,7.08473 -9.6138,10.57227c-3.81421,2.28954 -10.10086,4.74927 -14.24783,0.66661c-1.1179,-1.10057 -0.34944,-2.8589 -0.56372,-4.28455c-0.66079,-4.39637 -0.75385,-10.06838 -3.87318,-13.83752c-0.19946,-0.24101 -0.63192,-0.40162 -0.97733,-0.33971c-2.51842,0.45146 -5.23939,1.58744 -7.66086,0.85907c-1.73152,-0.52084 -3.15792,-1.64727 -4.37876,-2.78738c-1.17141,-1.09395 -1.10549,-3.41995 -2.84084,-3.69999c-3.60814,-0.58224 -7.82741,1.33421 -11.23184,-0.9242c-3.57532,-2.37177 -2.34199,-7.51447 -2.32494,-10.69386c3.42326,-14.13728 1.26022,-28.63223 2.41433,-42.93088c0.20253,-2.50926 1.04135,-4.9671 1.20896,-7.47812c0.348,-5.21367 -0.19652,-10.36558 0.28457,-15.54449c-1.76902,-1.29054 -0.46444,-3.0864 -0.46444,-3.0864zM186.33538,76.49119l-0.48429,-0.5h-0.30097c0.23757,0.15895 0.62124,0.36452 0.78526,0.5z" fill="#000000" stroke="none" stroke-width="0.5" stroke-linecap="butt"/><path d="M196.47709,165.40786c0,1.933 -1.04467,3.5 -2.33333,3.5c-1.28866,0 -2.33333,-1.567 -2.33333,-3.5c0,-1.933 1.04467,-3.5 2.33333,-3.5c1.28866,0 2.33333,1.567 2.33333,3.5z" fill="#000000" stroke="none" stroke-width="0" stroke-linecap="butt"/><path d="M196.14376,163.40786c0,0.82843 -0.44772,1.5 -1,1.5c-0.55228,0 -1,-0.67157 -1,-1.5c0,-0.82843 0.44772,-1.5 1,-1.5c0.55228,0 1,0.67157 1,1.5z" fill="#000000" stroke="none" stroke-width="0" stroke-linecap="butt"/><path d="M234.47709,127.57452c0,2.20914 -1.71624,4 -3.83333,4c-2.11709,0 -3.83333,-1.79086 -3.83333,-4c0,-2.20914 1.71624,-4 3.83333,-4c2.11709,0 3.83333,1.79086 3.83333,4z" fill="#000000" stroke="none" stroke-width="0" stroke-linecap="butt"/><path d="M216.15167,161.20121v-22c0,0 19.88721,1.77385 25.63048,1.59659c2.841,-0.08768 6.76952,-2.59659 6.76952,-2.59659c0,0 1.26517,8.78105 4.1447,12.362c1.04509,1.29966 4.80053,4.13903 8.21903,5.92453c2.91309,1.52153 5.63627,2.11347 5.63627,2.11347c0,0 -20.09261,-3 -23.2,-3c-6.19255,0 -27.2,5.6 -27.2,5.6z" fill="url(#color-8)" stroke="none" stroke-width="0" stroke-linecap="butt"/><path d="M285.78503,134.47501c0,9.73402 -8.50659,17.625 -19,17.625c-10.49341,0 -19,-7.89098 -19,-17.625c0,-9.73402 8.50659,-17.625 19,-17.625c10.49341,0 19,7.89098 19,17.625z" fill="url(#color-9)" stroke="none" stroke-width="0" stroke-linecap="butt"/></g></g></svg>