<svg version="1.1" xmlns="http://www.w3.org/2000/svg" xmlns:xlink="http://www.w3.org/1999/xlink" width="210.88246" height="267.22501" viewBox="0,0,210.88246,267.22501"><defs><radialGradient cx="242.75" cy="92.87162" r="42.87838" gradientUnits="userSpaceOnUse" id="color-1"><stop offset="0" stop-color="#ffffff"/><stop offset="1" stop-color="#ffffff" stop-opacity="0"/></radialGradient></defs><g transform="translate(-132.97266,-46.38751)"><g data-paper-data="{&quot;isPaintingLayer&quot;:true}" fill-rule="nonzero" stroke-linejoin="miter" stroke-miterlimit="10" stroke-dasharray="" stroke-dashoffset="0" style="mix-blend-mode: normal"><path d="M284.5,92.87162c0,23.68108 -18.69211,42.87838 -41.75,42.87838c-23.05789,0 -41.75,-19.1973 -41.75,-42.87838c0,-23.68108 18.69211,-42.87837 41.75,-42.87837c23.05789,0 41.75,19.1973 41.75,42.87837z" fill="url(#color-1)" stroke="none" stroke-width="0" stroke-linecap="butt"/><path d="M179.28376,313.61252v-267.22501h123.18203v267.22501z" fill-opacity="0.01" fill="#000000" stroke="none" stroke-width="0" stroke-linecap="butt"/><path d="M206.75008,307.5l15.14285,-131.8421l37.78325,-0.15789l13.57389,132z" fill="#73214c" stroke="#000000" stroke-width="2" stroke-linecap="butt"/><path d="M218.9503,214.36263l3.87142,-36.57765l35.83075,-0.14203l3.76735,36.1059c0,0 -14.31001,4.17734 -21.1187,4.27348c-7.59503,0.10724 -22.35082,-3.6597 -22.35082,-3.6597z" fill="#5e1b3e" stroke="#000000" stroke-width="0" stroke-linecap="butt"/><path d="M286.69869,87.99151c-0.43481,5.78267 -22.78671,5.47354 -37.93179,4.33475c-15.14507,-1.13878 -36.70209,-3.12841 -36.26728,-8.91107c0.43481,-5.78267 22.69677,-13.1686 37.84185,-12.02982c15.14507,1.13878 36.79203,10.82347 36.35722,16.60614z" fill="#ffffff" stroke="#000000" stroke-width="2" stroke-linecap="butt"/><g stroke-linecap="butt"><g><path d="M137.59878,202.84739c0,0 25.43984,-20.26154 29.87744,-33.04892c6.95615,-20.04488 13.94437,-82.67101 18.57749,-98.95906c0.21988,-0.77304 31.55907,6.64522 63.98798,8.86134c32.73292,2.23689 66.9195,0.04346 66.9195,0.04346c0,0 -2.96932,75.93919 0.60764,100.596c2.17229,14.9741 25.80461,35.71878 25.26614,35.66095c-2.8204,-0.30288 -23.87468,-10.98537 -58.24473,-12.86274c-14.07307,-0.7687 -30.16865,3.94398 -45.14368,2.64621c-15.78591,-1.36805 -35.84285,-10.06203 -49.68813,-10.9935c-29.95273,-2.01514 -52.1597,8.05626 -52.1597,8.05626z" fill="#d21869" stroke="#000000" stroke-width="2"/><path d="M186.10939,70.54196c0.21988,-0.77304 31.55907,6.64523 63.98798,8.86134c32.73292,2.23689 66.91951,0.04345 66.91951,0.04345c0,0 -0.24685,6.31287 -0.51245,15.88929c-2.93024,0.69216 -5.75998,1.62383 -8.19936,3.23792c-0.84905,0.5618 -2.44655,1.34348 -2.85236,2.28478c-0.08086,-0.18232 -0.1617,-0.36466 -0.24257,-0.54698c-2.83587,-6.39356 -12.14499,-6.95646 -18.82927,-6.87499c-2.95141,0.03717 -6.18369,-0.25621 -9.09619,0.10476c-3.91785,0.48558 -7.88082,2.03052 -11.58382,3.17678c-0.95738,0.52183 -3.81258,2.54596 -4.97862,2.33267c-0.50293,-0.092 -0.46539,-0.81556 -0.63786,-1.24395c-0.47947,-1.19104 -0.86552,-2.26996 -1.63594,-3.35212c-1.48373,-2.08408 -5.03409,-3.94437 -7.70278,-4.60565c-6.4649,-1.57455 -14.67426,-2.37038 -21.15152,-0.86241c-4.72526,1.10379 -8.56177,2.94626 -12.7896,5.03062c-0.62066,0.30599 -3.45705,2.20331 -3.99803,2.11517c-0.53591,-0.08732 -0.56295,-0.83097 -0.87689,-1.2277c-1.46393,-2.31587 -4.73909,-5.39518 -7.78327,-6.0176c-3.5783,-0.73165 -7.60069,0.02068 -11.19058,0.23805c-3.92232,0.82866 -7.60473,1.44429 -11.02371,2.7292c1.53047,-9.28487 2.93813,-16.95619 4.17733,-21.31265z" fill="#ffffff" stroke="none" stroke-width="0"/><path d="M137.60986,202.70007c0,0 25.43984,-20.26155 29.87744,-33.04893c6.95615,-20.04488 13.94437,-82.671 18.57749,-98.95905c0.21988,-0.77304 31.55907,6.64523 63.98798,8.86134c32.73292,2.23689 66.91951,0.04345 66.91951,0.04345c0,0 -2.96932,75.93918 0.60764,100.596c2.17229,14.9741 25.80461,35.71878 25.26614,35.66095c-2.8204,-0.30288 -23.87468,-10.98537 -58.24473,-12.86274c-14.07307,-0.7687 -30.16865,3.94398 -45.14368,2.64621c-15.78591,-1.36805 -35.84285,-10.06203 -49.68813,-10.9935c-29.95273,-2.01514 -52.1597,8.05626 -52.1597,8.05626z" fill="none" stroke="#000000" stroke-width="2"/></g><path d="M188.56555,162.39027c-0.99384,13.21753 -12.8564,23.10105 -26.49576,22.07549c-1.51784,-0.11413 -2.99372,-0.35854 -4.41681,-0.72105c1.35702,-1.09644 4.71576,-2.43643 5.38948,-4.49678c0.70272,-0.9207 3.23138,-5.74292 4.71985,-10.17872c1.09903,-3.27518 1.16605,-6.2226 1.91465,-7.83834c2.57614,-5.59726 1.86576,-12.18821 3.50719,-18.05778c0.17354,-1.45358 0.41201,-2.9916 0.65809,-4.57263c9.32053,4.01714 15.5056,13.38573 14.7233,23.78979z" fill="#ffffff" stroke="none" stroke-width="0"/><path d="M315.6915,147.36095c0.00688,1.60005 0.01267,3.15644 -0.0331,4.61962c0.74528,6.04902 -0.94273,12.45965 0.76746,18.3792c0.49859,1.70952 0.1241,4.63383 0.72101,8.0365c0.80842,4.6085 2.58754,9.75462 3.14468,10.77005c0.35804,2.13794 3.47864,3.96511 4.65644,5.25216c-1.4613,0.14563 -2.95713,0.16661 -4.47497,0.05247c-13.63936,-1.02556 -23.89057,-12.57186 -22.89673,-25.78939c0.78231,-10.40407 8.29876,-18.74243 18.11521,-21.32061z" data-paper-data="{&quot;index&quot;:null}" fill="#ffffff" stroke="none" stroke-width="0"/><g fill="none"><path d="M137.59878,202.84739c0,0 25.43984,-20.26154 29.87744,-33.04892c6.95615,-20.04488 13.94437,-82.67101 18.57749,-98.95906c0.21988,-0.77304 31.55907,6.64522 63.98798,8.86134c32.73292,2.23689 66.9195,0.04346 66.9195,0.04346c0,0 -2.96932,75.93919 0.60764,100.596c2.17229,14.9741 25.80461,35.71878 25.26614,35.66095c-2.8204,-0.30288 -23.87468,-10.98537 -58.24473,-12.86274c-14.07307,-0.7687 -30.16865,3.94398 -45.14368,2.64621c-15.78591,-1.36805 -35.84285,-10.06203 -49.68813,-10.9935c-29.95273,-2.01514 -52.1597,8.05626 -52.1597,8.05626z" stroke="#000000" stroke-width="2"/><path d="M186.10939,70.54196c0.21988,-0.77304 31.55907,6.64523 63.98798,8.86134c32.73292,2.23689 66.91951,0.04345 66.91951,0.04345c0,0 -0.24685,6.31287 -0.51245,15.88929c-2.93024,0.69216 -5.75998,1.62383 -8.19936,3.23792c-0.84905,0.5618 -2.44655,1.34348 -2.85236,2.28478c-0.08086,-0.18232 -0.1617,-0.36466 -0.24257,-0.54698c-2.83587,-6.39356 -12.14499,-6.95646 -18.82927,-6.87499c-2.95141,0.03717 -6.18369,-0.25621 -9.09619,0.10476c-3.91785,0.48558 -7.88082,2.03052 -11.58382,3.17678c-0.95738,0.52183 -3.81258,2.54596 -4.97862,2.33267c-0.50293,-0.092 -0.46539,-0.81556 -0.63786,-1.24395c-0.47947,-1.19104 -0.86552,-2.26996 -1.63594,-3.35212c-1.48373,-2.08408 -5.03409,-3.94437 -7.70278,-4.60565c-6.4649,-1.57455 -14.67426,-2.37038 -21.15152,-0.86241c-4.72526,1.10379 -8.56177,2.94626 -12.7896,5.03062c-0.62066,0.30599 -3.45705,2.20331 -3.99803,2.11517c-0.53591,-0.08732 -0.56295,-0.83097 -0.87689,-1.2277c-1.46393,-2.31587 -4.73909,-5.39518 -7.78327,-6.0176c-3.5783,-0.73165 -7.60069,0.02068 -11.19058,0.23805c-3.92232,0.82866 -7.60473,1.44429 -11.02371,2.7292c1.53047,-9.28487 2.93813,-16.95619 4.17733,-21.31265z" stroke="none" stroke-width="0"/><path d="M137.60986,202.70007c0,0 25.43984,-20.26155 29.87744,-33.04893c6.95615,-20.04488 13.94437,-82.671 18.57749,-98.95905c0.21988,-0.77304 31.55907,6.64523 63.98798,8.86134c32.73292,2.23689 66.91951,0.04345 66.91951,0.04345c0,0 -2.96932,75.93918 0.60764,100.596c2.17229,14.9741 25.80461,35.71878 25.26614,35.66095c-2.8204,-0.30288 -23.87468,-10.98537 -58.24473,-12.86274c-14.07307,-0.7687 -30.16865,3.94398 -45.14368,2.64621c-15.78591,-1.36805 -35.84285,-10.06203 -49.68813,-10.9935c-29.95273,-2.01514 -52.1597,8.05626 -52.1597,8.05626z" stroke="#000000" stroke-width="2"/></g></g><g stroke-linecap="butt"><path d="M191.82015,131.35861c0.97234,-12.93149 12.24363,-22.62631 25.17512,-21.65398c12.93149,0.97234 22.62631,12.24363 21.65398,25.17512c-0.97234,12.93149 -12.24363,22.62631 -25.17512,21.65398c-12.93149,-0.97234 -22.62631,-12.24363 -21.65398,-25.17512z" fill="#ffffff" stroke="#000000" stroke-width="2"/><path d="M198.88632,131.61347c0.68442,-9.10239 8.61819,-15.92648 17.72057,-15.24206c9.10239,0.68442 15.92648,8.6182 15.24206,17.72058c-0.68442,9.10239 -8.6182,15.92648 -17.72058,15.24206c-9.10239,-0.68442 -15.92647,-8.6182 -15.24205,-17.72057z" fill="#000000" stroke="none" stroke-width="0"/><path d="M206.58229,103.57879c0,0 7.07765,-4.65162 12.24114,-5.46108c5.1635,-0.80945 12.24697,1.62222 12.24697,1.62222c0,0 -8.01098,-0.66281 -11.99858,-0.03769c-4.1672,0.65328 -12.48953,3.87655 -12.48953,3.87655z" fill="#000000" stroke="none" stroke-width="0"/></g><g stroke-linecap="butt"><path d="M274.39393,161.11434c-12.93149,-0.97234 -22.62631,-12.24363 -21.65398,-25.17512c0.97234,-12.93149 12.24363,-22.62631 25.17512,-21.65398c12.93149,0.97234 22.62631,12.24363 21.65398,25.17512c-0.97234,12.93149 -12.24363,22.62631 -25.17512,21.65398z" data-paper-data="{&quot;index&quot;:null}" fill="#ffffff" stroke="#000000" stroke-width="2"/><path d="M274.82366,153.89783c-9.10238,-0.68442 -15.92647,-8.6182 -15.24205,-17.72057c0.68442,-9.10239 8.6182,-15.92648 17.72057,-15.24206c9.10238,0.68442 15.92647,8.6182 15.24205,17.72057c-0.68442,9.10239 -8.6182,15.92648 -17.72057,15.24206z" data-paper-data="{&quot;index&quot;:null}" fill="#000000" stroke="none" stroke-width="0"/><path d="M277.51099,104.09637c-3.84929,-1.21438 -11.8693,-1.75697 -11.8693,-1.75697c0,0 7.36745,-1.34509 12.35184,0.2274c4.98438,1.57249 11.28687,7.23019 11.28687,7.23019c0,0 -7.74677,-4.43155 -11.76941,-5.70063z" data-paper-data="{&quot;index&quot;:null}" fill="#000000" stroke="none" stroke-width="0"/></g><path d="M192.05257,131.12536c0.97234,-12.93149 12.19898,-22.62967 25.07541,-21.66147c12.87642,0.9682 22.5266,12.23614 21.55426,25.16764c0,0 -6.29015,-4.93768 -14.68009,-7.38043c-2.25438,-0.65636 -5.71319,-1.21176 -7.98158,-1.34805c-2.64231,-0.15874 -6.6705,0.04865 -9.12583,0.4117c-9.15361,1.35348 -14.88138,5.33198 -14.84218,4.8106z" fill="#d21869" stroke="#000000" stroke-width="2" stroke-linecap="butt"/><path d="M299.8994,139.36823c-0.0392,0.52136 -5.13071,-4.27066 -14.0175,-6.9806c-2.38377,-0.72692 -6.35271,-1.53563 -9.00034,-1.77464c-2.27295,-0.20518 -5.79083,-0.17439 -8.12779,0.13676c-8.69735,1.15794 -15.68349,5.09736 -15.68349,5.09736c0.97234,-12.93149 12.24363,-22.62631 25.17512,-21.65398c12.93149,0.97234 22.62631,12.24363 21.65398,25.17512z" data-paper-data="{&quot;index&quot;:null}" fill="#d21869" stroke="#000000" stroke-width="2" stroke-linecap="butt"/><path d="M191.63822,111.3125l6.05713,4.46674" fill="none" stroke="#000000" stroke-width="2" stroke-linecap="round"/><path d="M205.50979,110.76773l-0.97717,-7.00967" fill="none" stroke="#000000" stroke-width="2" stroke-linecap="round"/><g fill="none" stroke="#000000" stroke-width="2" stroke-linecap="round"><path d="M304.33229,121.29037l-6.65697,3.51075" data-paper-data="{&quot;index&quot;:null}"/><path d="M292.71258,111.89269l-2.01439,6.78473" data-paper-data="{&quot;index&quot;:null}"/></g><path d="M254.44492,177.58607c0,0 -4.38507,3.68158 -13.18494,3.16315c-7.25422,-0.42735 -11.85396,-5.04585 -11.85396,-5.04585" fill="none" stroke="#000000" stroke-width="2" stroke-linecap="round"/></g></g></svg>