<svg version="1.1" xmlns="http://www.w3.org/2000/svg" xmlns:xlink="http://www.w3.org/1999/xlink" width="131.8781" height="234.42265" viewBox="0,0,131.8781,234.42265"><defs><radialGradient cx="228.28256" cy="105.33378" r="63.7549" gradientUnits="userSpaceOnUse" id="color-1"><stop offset="0" stop-color="#ffffff"/><stop offset="1" stop-color="#c3c3c3"/></radialGradient></defs><g transform="translate(-165.99271,-72.87738)"><g data-paper-data="{&quot;isPaintingLayer&quot;:true}" fill-rule="nonzero" stroke-linejoin="miter" stroke-miterlimit="10" stroke-dasharray="" stroke-dashoffset="0" style="mix-blend-mode: normal"><path d="M295.33708,123.22753c1.41426,10.56703 -28.64076,7.06438 -63.54044,11.73527c-34.89968,4.67088 -63.38966,13.65491 -64.80393,3.08787c-0.77269,-5.77331 -0.31088,-27.37281 11.34553,-40.01624c5.92013,-6.42141 13.52168,-12.5474 23.7299,-16.77123c6.48079,-2.68154 15.22193,-4.55757 21.36999,-5.38041c12.70161,-1.69995 24.56592,-3.89123 37.35311,0.91228c1.23921,0.46551 14.64175,5.77333 20.82583,14.60832c8.70836,12.44134 13.72,31.82414 13.72,31.82414z" fill="url(#color-1)" stroke="#000000" stroke-width="2" stroke-linecap="butt"/><g stroke="none" stroke-width="0" stroke-linecap="butt"><g fill="#9a9a9a"><path d="M190.12591,128.84211l-7.20253,-26.7127l36.68973,-9.89263l7.20253,26.7127z"/><path d="M196.25571,108.53295l-3.82689,-14.19313l3.17362,-0.8557l3.82689,14.19313z"/><path d="M193.23197,96.60035l-0.62604,-2.32185l14.41282,-3.88612l0.62604,2.32185z"/><path d="M207.77658,105.50057l-3.82689,-14.19313l3.17362,-0.8557l3.82689,14.19313z"/></g><g><path d="M263.9618,105.608c0,7.09961 -5.8203,12.85498 -13,12.85498c-7.1797,0 -13,-5.75537 -13,-12.85498c0,-7.09961 5.8203,-12.85498 13,-12.85498c7.1797,0 13,5.75537 13,12.85498z" fill="#9a9a9a"/><path d="M250.77155,114.58515c-4.45141,0 -8.20174,-2.96826 -9.33719,-7.01238c0.96225,0.30817 2.19961,0.62622 3.15209,0.31411c1.23822,-0.40575 1.98241,-1.28225 3.39094,-1.39102c1.24534,-0.09617 2.11438,0.66647 3.30183,0.9058c1.467,0.24109 2.37776,-0.52013 3.74779,-0.65823c1.31822,-0.13288 2.25665,0.84845 3.67763,0.5748c0.54134,-0.10425 1.066,-0.31992 1.5913,-0.54427c-0.83979,4.44598 -4.78466,7.8112 -9.52439,7.8112z" fill="#cacaca"/><path d="M246.73306,96.99996v-6h8.88889v6z" fill="#9a9a9a"/><path d="M248.06639,92.55552v-4.11111h6.11111v4.11111z" fill="#9a9a9a"/></g><g><path d="M221.85818,108.83858c0,0 -0.83137,-1.1288 -0.70725,-2.93434c0.14515,-2.11146 1.22945,-5.10757 0.91202,-7.68772c-0.19012,-1.54539 -0.87143,-5.09252 -0.87143,-6.18747c0,-3.84201 0.66667,-8.47619 0.66667,-8.47619h10.42857c0,0 0.88889,2.99161 0.88889,6.80952c0,1.68241 -0.32636,6.05116 -0.73498,8.49668c-0.32788,1.96231 1.10977,5.62024 1.30725,7.16174c0.21447,1.67412 -1.46117,2.81777 -1.46117,2.81777z" fill="#9a9a9a"/><path d="M224.42961,90.55286v-12h4.85714v12z" fill="#9a9a9a"/><path d="M220.97524,101.15405v-7.75h12.08333v7.75z" fill="#5f5f5f"/></g><path d="M260.81809,111.91953v-18.2h14.4v18.2z" fill="#9a9a9a"/></g><path d="M206.47614,306.30001l15.14285,-131.8421l37.78325,-0.15789l13.57389,132z" fill="#5fd6f4" stroke="#000000" stroke-width="2" stroke-linecap="butt"/><path d="M219.42636,202.91269l3.12142,-26.32765l35.83075,-0.14203l2.76735,26.1059c0,0 -7.51543,4.19603 -21.55904,4.50964c-12.48458,0.27879 -20.16049,-4.14586 -20.16049,-4.14586z" fill="#387e8f" stroke="#000000" stroke-width="0" stroke-linecap="butt"/><path d="M218.1129,201.37751c0,0 -0.86037,-1.64644 -1.18821,-3.42169c-0.34066,-1.84471 -0.14619,-3.82852 0.02426,-4.24864c0.80908,-1.99419 2.99728,-3.99633 2.99728,-3.99633l40.16666,0.5c0,0 2.58695,1.45609 3.27161,3.19102c0.40553,1.02761 0.22839,2.86943 0.22839,3.47565c0,0.73804 -0.05964,2.54278 -1.11019,3.48972c-1.03264,0.9308 -3.05648,2.01028 -3.05648,2.01028z" fill="#54bed8" stroke="#000000" stroke-width="2" stroke-linecap="butt"/><path d="M249.68928,238.88699c-2.12043,1.56754 -9.37984,-4.83026 -9.37984,-4.83026c0,0 -7.15111,6.52447 -9.29851,4.99165c-2.14911,-1.53259 1.69445,-10.41655 1.69445,-10.41655c0,0 -8.41373,-4.78548 -7.61958,-7.30111c0.79398,-2.51748 10.4295,-1.60702 10.4295,-1.60702c0,0 1.94919,-9.48018 4.58738,-9.50471c2.64192,-0.02316 4.75443,9.42378 4.75443,9.42378c0,0 9.61861,-1.07594 10.45386,1.42773c0.84036,2.50147 -7.49126,7.43109 -7.49126,7.43109c0,0 3.99534,8.81736 1.86957,10.3854z" fill="#ffff00" stroke="#000000" stroke-width="2" stroke-linecap="butt"/><path d="M227.48488,196.03314l-0.25,4.5" fill="none" stroke="#000000" stroke-width="2" stroke-linecap="round"/><path d="M240.60988,200.28314l-0.125,-3.75" fill="none" stroke="#000000" stroke-width="2" stroke-linecap="round"/><path d="M255.48488,194.78314l-0.125,7.125" fill="none" stroke="#000000" stroke-width="2" stroke-linecap="round"/><path d="M168.53176,149.49645c-0.6075,-4.53912 -3.25779,-16.24078 0.47186,-20.08959c2.39223,-2.46866 44.79901,-8.72493 58.13586,-10.73757c20.08131,-3.03043 62.82611,-5.88537 64.47945,-4.49817c3.00827,2.52404 4.27548,14.6969 4.74652,18.21639c4.41765,33.00754 -20.6177,63.5954 -55.91798,68.3199c-35.30029,4.7245 -67.49805,-18.20344 -71.91569,-51.21096z" fill="#ec3434" stroke="#000000" stroke-width="2" stroke-linecap="butt"/><path d="M169.25836,149.4535c-0.09657,-0.72156 12.59868,54.73182 70.59725,47.99339c55.4152,-6.43828 55.50925,-65.8991 55.64441,-64.88925c4.35171,32.51487 -20.3807,62.65566 -55.24137,67.32132c-34.86066,4.66566 -66.64858,-17.91058 -71.00029,-50.42545z" fill="#a12323" stroke="#000000" stroke-width="0" stroke-linecap="butt"/><path d="M293.32514,114.16377c0.5887,4.39862 -32.35412,9.55475 -63.73861,13.75517c-31.38448,4.20042 -61.31467,6.73843 -61.90337,2.33981c-0.5887,-4.39862 29.85316,-8.13908 61.23765,-12.3395c31.38448,-4.20042 63.81564,-8.1541 64.40434,-3.75548z" fill="#b10000" stroke="#000000" stroke-width="2" stroke-linecap="butt"/><path d="M182.01873,148.12469c-1.72027,-12.85339 7.30492,-24.66769 20.15832,-26.38795c12.85339,-1.72027 24.66769,7.30492 26.38795,20.15832c1.72027,12.85339 -7.30492,24.66769 -20.15832,26.38795c-12.85339,1.72027 -24.66769,-7.30492 -26.38795,-20.15832z" fill="#ffffff" stroke="#000000" stroke-width="2" stroke-linecap="butt"/><path d="M188.9851,146.91422c-1.21088,-9.04741 5.14187,-17.36338 14.18927,-18.57427c9.04741,-1.21088 17.36339,5.14188 18.57427,14.18928c1.21088,9.04741 -5.14188,17.36339 -14.18928,18.57427c-9.04741,1.21088 -17.36338,-5.14188 -18.57426,-14.18928z" fill="#000000" stroke="none" stroke-width="0" stroke-linecap="butt"/><path d="M262.43337,161.05218c-12.85339,1.72027 -24.66769,-7.30492 -26.38795,-20.15832c-1.72027,-12.85339 7.30492,-24.66769 20.15832,-26.38795c12.85339,-1.72027 24.66769,7.30492 26.38795,20.15832c1.72027,12.85339 -7.30492,24.66769 -20.15832,26.38795z" data-paper-data="{&quot;index&quot;:null}" fill="#ffffff" stroke="#000000" stroke-width="2" stroke-linecap="butt"/><path d="M261.11514,153.93574c-9.0474,1.21088 -17.36338,-5.14188 -18.57426,-14.18928c-1.21088,-9.04741 5.14188,-17.36339 14.18927,-18.57427c9.0474,-1.21088 17.36338,5.14188 18.57426,14.18928c1.21088,9.04741 -5.14188,17.36339 -14.18927,18.57427z" data-paper-data="{&quot;index&quot;:null}" fill="#000000" stroke="none" stroke-width="0" stroke-linecap="butt"/><path d="M181.93613,148.13573c-1.72027,-12.85339 7.30492,-24.66769 20.15832,-26.38795c12.85339,-1.72027 24.66769,7.30492 26.38795,20.15832c0,0 -46.38291,7.4503 -46.54628,6.22964z" fill="#ec3434" stroke="#000000" stroke-width="2" stroke-linecap="butt"/><path d="M235.79765,140.92706c-1.72027,-12.85339 7.30492,-24.66769 20.15832,-26.38795c12.85339,-1.72027 24.66769,7.30492 26.38795,20.15832c0.16102,1.20307 -46.54628,6.22964 -46.54628,6.22964z" data-paper-data="{&quot;index&quot;:null}" fill="#ec3434" stroke="#000000" stroke-width="2" stroke-linecap="butt"/><path d="M190.72314,117.89437c0,0 5.96394,-6.01351 10.8488,-7.87227c4.88487,-1.85876 12.3179,-0.94299 12.3179,-0.94299c0,0 -7.97508,1.00655 -11.7475,2.44201c-3.94232,1.50012 -11.4192,6.37324 -11.4192,6.37324z" fill="#000000" stroke="none" stroke-width="0" stroke-linecap="butt"/><path d="M253.45558,104.6535c-4.01713,-0.39293 -11.97621,0.73311 -11.97621,0.73311c0,0 6.93062,-2.83816 12.13235,-2.32937c5.20173,0.50879 12.5371,4.74236 12.5371,4.74236c0,0 -8.49519,-2.73547 -12.69324,-3.1461z" data-paper-data="{&quot;index&quot;:null}" fill="#000000" stroke="none" stroke-width="0" stroke-linecap="butt"/><path d="M181.92814,147.8342l-3.91309,-2.09947" fill="none" stroke="#000000" stroke-width="2" stroke-linecap="round"/><path d="M282.14409,132.93103l3.71186,-3.9271" fill="none" stroke="#000000" stroke-width="2" stroke-linecap="round"/><path d="M198.42852,89.21953c1.17731,1.60217 -0.89887,5.12793 -4.63729,7.87499c-3.73842,2.74707 -7.7234,3.67517 -8.90071,2.07299c-1.17731,-1.60217 0.89887,-5.12793 4.63729,-7.87499c3.73842,-2.74707 7.7234,-3.67517 8.90071,-2.07299z" fill="#ffffff" stroke="none" stroke-width="0" stroke-linecap="butt"/><path d="M205.39081,85.92157c0.15385,1.14955 -0.65332,2.20616 -1.80287,2.36002c-1.14955,0.15385 -2.20616,-0.65332 -2.36002,-1.80287c-0.15385,-1.14955 0.65332,-2.20616 1.80287,-2.36002c1.14955,-0.15385 2.20616,0.65332 2.36002,1.80287z" fill="#ffffff" stroke="none" stroke-width="0" stroke-linecap="butt"/><path d="M250.65811,179.27098c0,0 -3.52986,4.50809 -12.24699,5.8189c-7.18601,1.08058 -12.64069,-2.48799 -12.64069,-2.48799" fill="none" stroke="#000000" stroke-width="2" stroke-linecap="round"/></g></g></svg>