<svg version="1.1" xmlns="http://www.w3.org/2000/svg" xmlns:xlink="http://www.w3.org/1999/xlink" width="128.47405" height="190.33054" viewBox="0,0,128.47405,190.33054"><defs><linearGradient x1="240.00001" y1="168.55606" x2="240.00001" y2="283.67275" gradientUnits="userSpaceOnUse" id="color-1"><stop offset="0" stop-color="#000000"/><stop offset="1" stop-color="#ff5600"/></linearGradient><linearGradient x1="240.00001" y1="174.3001" x2="240.00001" y2="306.30003" gradientUnits="userSpaceOnUse" id="color-2"><stop offset="0" stop-color="#000000"/><stop offset="1" stop-color="#ff5600"/></linearGradient><linearGradient x1="240.00002" y1="88.78282" x2="240.00002" y2="196.09838" gradientUnits="userSpaceOnUse" id="color-3"><stop offset="0" stop-color="#000000"/><stop offset="1" stop-color="#4d4d4d"/></linearGradient><linearGradient x1="240.00001" y1="174.3001" x2="240.00001" y2="306.30003" gradientUnits="userSpaceOnUse" id="color-4"><stop offset="0" stop-color="#000000"/><stop offset="1" stop-color="#ff5600"/></linearGradient><linearGradient x1="240.28219" y1="153.41918" x2="240.28219" y2="182.41715" gradientUnits="userSpaceOnUse" id="color-5"><stop offset="0" stop-color="#000000"/><stop offset="1" stop-color="#c3c3c3"/></linearGradient><linearGradient x1="235.95066" y1="142.41839" x2="235.95066" y2="157.98982" gradientUnits="userSpaceOnUse" id="color-6"><stop offset="0" stop-color="#000000" stop-opacity="0"/><stop offset="1" stop-color="#000000"/></linearGradient></defs><g transform="translate(-175.76299,-88.78283)"><g data-paper-data="{&quot;isPaintingLayer&quot;:true}" fill-rule="nonzero" stroke-linejoin="miter" stroke-miterlimit="10" stroke-dasharray="" stroke-dashoffset="0" style="mix-blend-mode: normal"><path d="M210.15879,263.85926c-0.51191,0 -0.5119,-0.43336 -0.5119,-0.43336l0.14993,-0.65311c0.24348,-0.19817 0.49067,-0.33598 0.74548,-0.4581c0.05835,-0.07986 0.16014,-0.15081 0.33514,-0.18044c0.02895,-0.0049 0.05657,-0.00811 0.08291,-0.00979c0.20345,-0.09101 0.41267,-0.18696 0.62944,-0.30826c6.94947,-1.52033 12.86393,-2.2905 20.06892,-2.2905c7.09307,0 13.98944,-0.26773 21.04961,-0.86542c4.20629,-0.35609 8.4081,-0.38204 12.63242,-0.33979c1.33189,0.01332 3.32727,0.09701 4.04586,1.2775c0.53969,0.88657 0.25529,2.51587 0.25529,3.48123c0,1.7569 0.93741,6.23113 -1.10201,7.32129c-2.50804,1.34066 -2.17945,-2.24569 -2.17416,-3.16108c0.00166,-0.28728 0.32599,-0.76191 0.00783,-0.86184c-0.76119,-0.23908 -2.55962,0.37848 -3.31952,0.51999c-6.54481,1.39407 -7.01353,7.17174 -9.88894,11.16284l0.09022,0.03819l-0.4529,0.76681c-0.08208,0.14658 -0.25847,0.24795 -0.46282,0.24795c-0.23028,0 -0.42504,-0.12871 -0.48937,-0.30579l-0.18465,-0.46895c-1.45084,-1.79956 -4.13212,1.69418 -5.35983,-0.97593c-0.01655,-1.47584 0.19056,-3.04313 0,-4.5069c-0.45837,-3.52084 -6.72798,-2.92956 -9.528,-2.92956c-6.56006,0 -12.84453,0.28893 -19.13846,1.99671c-1.06703,0.25376 -3.73269,0.66572 -4.80972,0.22375c-1.12293,-0.4608 -0.72553,-1.80416 -0.72553,-2.65382c0,-2.25512 -0.8762,-4.08246 -1.46291,-6.20596c-0.04102,0.03075 -0.08118,0.06353 -0.12035,0.09872l0.14993,0.04026c0,0 0.00001,0.43336 -0.5119,0.43336z" fill="#000000" stroke="none" stroke-width="0.5" stroke-linecap="butt"/><path d="M221.89286,168.69375l37.78325,-0.1377l11.543,95.78942c-1.11311,-0.373 -2.32207,-0.57742 -3.58578,-0.57742c-0.98412,0 -2.53503,-0.67602 -3.43333,-0.445c-0.26972,-0.06937 -3.1442,1.67092 -3.42288,1.62131c-1.80465,-1.54735 -0.87973,0.2981 -3.61045,0.2981c-2.80139,0 -2.93374,-2.39541 -4.74921,-0.77679c-1.67529,-2.76995 -4.41021,-1.8581 -8.2508,-1.8581c-3.70258,0 -7.33518,0.55489 -9.06382,3.16296c-0.50529,0.25472 -5.18265,-0.45312 -5.6271,-0.12787c-0.08057,-0.00166 1.43862,2.79749 1.35759,2.79749c-2.36647,0 -4.74095,-2.48313 -6.45348,-1.28482c-1.41219,-0.66539 -2.62878,-1.24309 -4.34652,-1.24309c-1.67669,0 -3.65701,-0.44013 -5.04493,0.19589c-0.54887,-0.08139 -1.11296,0.47621 -1.68841,0.47621c-1.87804,0 -3.43517,4.05149 -4.93644,4.83681z" fill="url(#color-1)" stroke="none" stroke-width="0" stroke-linecap="butt"/><path d="M216.01428,216.7238l0.68571,-5.24679l47.2,-0.13273l1.08571,5.51225z" fill="#000000" stroke="#000000" stroke-width="2" stroke-linecap="butt"/><path d="M257.94441,214.48238c0,5.89995 -3.90507,5.73051 -8.72222,5.73051c-4.81715,0 -8.72222,0.16943 -8.72222,-5.73051c0,-5.89995 3.79396,-6.57947 8.61111,-6.57947c4.81715,0 8.83333,0.67952 8.83333,6.57947z" fill="#000000" stroke="#000000" stroke-width="2" stroke-linecap="butt"/><g data-paper-data="{&quot;index&quot;:null}" fill="#000000" stroke="#000000" stroke-width="2" stroke-linecap="butt"><path d="M210.66428,259.69245l1.31628,-5.51225l57.2238,0.13273l0.83134,5.24679z"/><path d="M229.91015,250.73886c5.84016,0 10.43984,0.67953 10.43984,6.57947c0,5.89995 -4.73439,5.73051 -10.57454,5.73051c-5.84016,0 -10.57455,0.16944 -10.57455,-5.73051c0,-5.89995 4.86909,-6.57947 10.70925,-6.57947z"/></g><path d="M216.01428,216.7238l0.68571,-5.24679l47.2,-0.13273l1.08571,5.51225z" fill="#000000" stroke="#000000" stroke-width="2" stroke-linecap="butt"/><path d="M257.94441,214.48238c0,5.89995 -3.90507,5.73051 -8.72222,5.73051c-4.81715,0 -8.72222,0.16943 -8.72222,-5.73051c0,-5.89995 3.79396,-6.57947 8.61111,-6.57947c4.81715,0 8.83333,0.67952 8.83333,6.57947z" fill="#000000" stroke="#000000" stroke-width="2" stroke-linecap="butt"/><path d="" fill="url(#color-2)" stroke="none" stroke-width="0" stroke-linecap="butt"/><path d="M175.76299,135.80002c0,-21.76079 2.20981,-37.62967 20.39782,-45.4953c4.41957,-1.91129 27.31189,-1.56646 45.46533,-1.34793c21.46848,0.25844 45.2007,-0.46227 51.65296,6.18631c7.96655,8.20893 10.95794,27.30828 10.95794,40.65693c0,33.30185 -28.75989,60.29834 -64.23702,60.29834c-35.47712,0 -64.23702,-26.99649 -64.23702,-60.29834z" fill="url(#color-3)" stroke="none" stroke-width="0" stroke-linecap="butt"/><path d="M189.39013,136.07573c0,-12.96801 10.51265,-23.48065 23.48066,-23.48065c12.96801,0 23.48065,10.51264 23.48065,23.48065c0,12.96801 -10.51264,23.48066 -23.48065,23.48066c-12.96801,0 -23.48066,-10.51265 -23.48066,-23.48066z" fill="#ff0000" stroke="none" stroke-width="2" stroke-linecap="butt"/><path d="M267.12921,159.55639c-12.96801,0 -23.48065,-10.51265 -23.48065,-23.48066c0,-12.96801 10.51264,-23.48065 23.48065,-23.48065c12.96801,0 23.48066,10.51264 23.48066,23.48065c0,12.96801 -10.51265,23.48066 -23.48066,23.48066z" data-paper-data="{&quot;index&quot;:null}" fill="#ff0000" stroke="none" stroke-width="2" stroke-linecap="butt"/><path d="M202.02783,107.26727c0,0 6.70895,-5.16922 11.79721,-6.36355c5.08827,-1.19433 12.33413,0.69937 12.33413,0.69937c0,0 -8.03812,-0.06028 -11.96762,0.86207c-4.10648,0.96389 -12.16372,4.80211 -12.16372,4.80211z" fill="#000000" stroke="none" stroke-width="0" stroke-linecap="butt"/><path d="M265.96231,102.46517c-3.9295,-0.92235 -11.96762,-0.86207 -11.96762,-0.86207c0,0 7.24586,-1.8937 12.33413,-0.69937c5.08826,1.19433 11.79721,6.36355 11.79721,6.36355c0,0 -8.05724,-3.83822 -12.16372,-4.80211z" data-paper-data="{&quot;index&quot;:null}" fill="#000000" stroke="none" stroke-width="0" stroke-linecap="butt"/><path d="M189.64354,139.47277c1.25206,0.04455 45.95431,0.59617 46.2126,0.62024c-0.51423,3.48577 -1.14834,6.30024 -3.04203,9.21768c-4.24825,6.54493 -11.74714,10.2393 -19.77722,10.2393c-11.87745,0 -22.06545,-8.38944 -23.39336,-20.07721z" data-paper-data="{&quot;index&quot;:null}" fill="#ff5d5d" stroke="none" stroke-width="2" stroke-linecap="butt"/><path d="M290.25614,139.47278c-1.32791,11.68777 -11.51591,20.07721 -23.39336,20.07721c-8.03008,0 -15.52897,-3.69437 -19.77722,-10.2393c-1.89369,-2.91744 -2.5278,-5.73191 -3.04203,-9.21768c0.25829,-0.02407 44.96054,-0.57569 46.2126,-0.62024z" data-paper-data="{&quot;index&quot;:null}" fill="#ff5d5d" stroke="none" stroke-width="2" stroke-linecap="butt"/><path d="" fill="url(#color-4)" stroke="none" stroke-width="0" stroke-linecap="butt"/><g stroke-linecap="butt"><path d="M189.25553,136.39997c0,-9.12807 7.39976,-16.52784 16.52783,-16.52784c9.12807,0 16.52784,7.39977 16.52784,16.52785c0,9.12807 -7.39977,16.52785 -16.52784,16.52785c-9.12807,0 -16.52783,-7.39977 -16.52783,-16.52785z" fill="#1a1a1a" stroke="none" stroke-width="0"/><path d="M206.34701,137.41671c0,6.94958 -0.26117,12.58333 -0.58333,12.58333c-0.32217,0 -0.58333,-5.63375 -0.58333,-12.58333c0,-6.94958 0.26117,-12.58333 0.58333,-12.58333c0.32217,0 0.58333,5.63375 0.58333,12.58333z" fill="#ff0000" stroke="#ff0000" stroke-width="2"/></g><g stroke-linecap="butt"><path d="M277.14444,135.79997c0,9.12808 -7.39976,16.52785 -16.52783,16.52785c-9.12807,0 -16.52784,-7.39978 -16.52784,-16.52785c0,-9.12808 7.39977,-16.52785 16.52784,-16.52785c9.12807,0 16.52783,7.39977 16.52783,16.52784z" data-paper-data="{&quot;index&quot;:null}" fill="#1a1a1a" stroke="none" stroke-width="0"/><path d="M261.74701,136.01672c0,6.94958 -0.26117,12.58333 -0.58333,12.58333c-0.32217,0 -0.58333,-5.63375 -0.58333,-12.58333c0,-6.94958 0.26117,-12.58333 0.58333,-12.58333c0.32217,0 0.58333,5.63375 0.58333,12.58333z" fill="#ff0000" stroke="#ff0000" stroke-width="2"/></g><g><path d="M272.60295,164.86575c0,4.42752 -25.18626,23.65624 -32.80678,23.65624c-2.99139,0 -31.10569,-17.054 -31.10569,-23.65624c0,-0.56422 15.74774,4.7694 31.59172,4.7694c15.29484,0 32.32076,-5.5916 32.32076,-4.7694z" fill="url(#color-5)" stroke="none" stroke-width="0" stroke-linecap="butt"/><path d="M220.78038,177.52614l3.15917,-8.26696l10.93559,15.91391l5.36654,-15.07131l6.68286,15.03952l9.29525,-16.42264l4.30538,8.09527" fill="none" stroke="#000000" stroke-width="0.25" stroke-linecap="round"/><path d="M246.89602,184.79587l-6.49508,-14.9846c0,0 4.61461,-0.65216 7.24442,-0.89302c2.67164,-0.24469 8.6619,-0.56381 8.6619,-0.56381l-2.12084,3.64209z" fill="#000000" stroke="#000000" stroke-width="0.25" stroke-linecap="butt"/></g><path d="M222.23638,157.98982c0,0 6.91658,-4.23703 9.39991,-7.12704c1.93279,-2.24931 4.26675,-8.77772 4.26675,-8.77772l7.98412,0.33333c0,0 1.21888,3.17523 2.53626,5.93386c0.30002,0.62824 1.13189,1.34023 1.35814,1.86869c0.70265,1.6412 8.55005,7.76887 8.55005,7.76887c0,0 -10.11568,-2.44444 -15.38095,-2.44444c-6.00284,0 -18.71428,2.44444 -18.71428,2.44444z" fill="url(#color-6)" stroke="none" stroke-width="0" stroke-linecap="butt"/></g></g></svg>