<svg version="1.1" xmlns="http://www.w3.org/2000/svg" xmlns:xlink="http://www.w3.org/1999/xlink" width="191.25753" height="367.91524" viewBox="0,0,191.25753,367.91524"><defs><linearGradient x1="239.72616" y1="174.30006" x2="239.72616" y2="306.30003" gradientUnits="userSpaceOnUse" id="color-1"><stop offset="0" stop-color="#000000"/><stop offset="1" stop-color="#79c5d8"/></linearGradient><linearGradient x1="240.19421" y1="189.71087" x2="240.19421" y2="202.37754" gradientUnits="userSpaceOnUse" id="color-2"><stop offset="0" stop-color="#000000"/><stop offset="1" stop-color="#5e97a5"/></linearGradient><linearGradient x1="240.19876" y1="210.219" x2="240.19876" y2="239.08438" gradientUnits="userSpaceOnUse" id="color-3"><stop offset="0" stop-color="#000000"/><stop offset="1" stop-color="#ffff00"/></linearGradient><linearGradient x1="236.15106" y1="72.24644" x2="240.71168" y2="134.29715" gradientUnits="userSpaceOnUse" id="color-4"><stop offset="0" stop-color="#000000"/><stop offset="1" stop-color="#f6f5f6"/></linearGradient><linearGradient x1="236.05549" y1="120.24486" x2="237.16552" y2="203.34384" gradientUnits="userSpaceOnUse" id="color-5"><stop offset="0" stop-color="#000000"/><stop offset="1" stop-color="#d75454"/></linearGradient><linearGradient x1="208.56823" y1="120.3689" x2="208.88917" y2="144.39474" gradientUnits="userSpaceOnUse" id="color-6"><stop offset="0" stop-color="#000000"/><stop offset="1" stop-color="#ec3434"/></linearGradient><linearGradient x1="263.29665" y1="118.38772" x2="263.61759" y2="142.41357" gradientUnits="userSpaceOnUse" id="color-7"><stop offset="0" stop-color="#000000"/><stop offset="1" stop-color="#ec3434"/></linearGradient><linearGradient x1="234.62928" y1="178.55622" x2="234.14449" y2="190.56008" gradientUnits="userSpaceOnUse" id="color-8"><stop offset="0" stop-color="#000000"/><stop offset="1" stop-color="#ffffff"/></linearGradient></defs><g transform="translate(-160.02338,61.61521)"><g data-paper-data="{&quot;isPaintingLayer&quot;:true}" fill-rule="nonzero" stroke-linejoin="miter" stroke-miterlimit="10" stroke-dasharray="" stroke-dashoffset="0" style="mix-blend-mode: normal"><path d="M206.47617,306.30001l15.14285,-131.8421l37.78325,-0.15789l13.57389,132z" fill="url(#color-1)" stroke="none" stroke-width="2" stroke-linecap="butt"/><path d="M218.11293,201.37753c0,0 -0.86037,-1.64644 -1.18821,-3.42169c-0.34066,-1.84471 -0.14619,-3.82852 0.02426,-4.24864c0.80908,-1.99419 2.99728,-3.99633 2.99728,-3.99633l40.16666,0.5c0,0 2.58695,1.45609 3.27161,3.19102c0.40553,1.02761 0.22839,2.86943 0.22839,3.47565c0,0.73804 -0.05964,2.54278 -1.11019,3.48972c-1.03264,0.9308 -3.05648,2.01028 -3.05648,2.01028z" fill="url(#color-2)" stroke="none" stroke-width="2" stroke-linecap="butt"/><path d="M249.68931,238.88701c-0.62016,0.45845 -9.37984,-4.83026 -9.37984,-4.83026c0,0 -8.55454,5.5227 -9.29851,4.99165c-0.70482,-0.50263 1.69445,-10.41655 1.69445,-10.41655c0,0 -7.79039,-6.76005 -7.61958,-7.30111c0.17273,-0.54769 10.4295,-1.60702 10.4295,-1.60702c0,0 3.98902,-9.49914 4.58738,-9.50471c0.64722,-0.00567 4.75443,9.42378 4.75443,9.42378c0,0 10.32385,1.038 10.45386,1.42773c0.18992,0.56532 -7.49126,7.43109 -7.49126,7.43109c0,0 2.20947,10.13468 1.86957,10.3854z" fill="url(#color-3)" stroke="none" stroke-width="0" stroke-linecap="butt"/><path d="M304.70545,123.83881c0.06693,0.91058 -6.77836,6.20674 -7.14406,6.89873c-3.90446,7.38798 -24.87447,-1.33417 -56.98321,1.02578c-35.11614,2.58099 -64.09124,9.84973 -64.87272,-0.78284c-0.39772,-5.41137 -16.49805,-42.30985 -15.64971,-43.12642c0.04321,-0.04162 26.22664,22.30397 26.25583,22.27683c0.10275,-0.09551 21.16277,-35.58983 21.5981,-35.49054c0.80257,0.18305 20.25612,24.70894 20.59917,24.04668c0.98847,-1.90819 26.36455,-45.8258 26.8354,-45.3081c4.58263,5.03864 19.91004,41.85865 21.45928,41.23618c0.09938,-0.03992 -0.54586,5.51773 0.90908,4.58561c7.53387,-4.82659 31.2454,-25.41772 31.25441,-25.41372c0.05569,0.02479 -4.26158,50.05179 -4.26158,50.05179z" fill="url(#color-4)" stroke="none" stroke-width="2" stroke-linecap="butt"/><g data-paper-data="{&quot;index&quot;:null}" fill="#000000" stroke="none" stroke-width="0" stroke-linecap="butt"><path d="M223.05416,152.12857c0,0 -9.16114,-32.63256 -4.41703,-51.47056c2.15088,-8.54073 8.47977,-37.32118 12.46055,-51.36443c2.61943,-9.24074 6.16971,-17.53413 9.94797,-24.70929c10.07066,-19.12483 21.76098,-30.3052 21.76098,-30.3052l49.86565,12.55805c0,0 -34.95305,57.14523 -40.09097,74.19094c-5.12724,17.01035 -6.62722,35.61399 -7.5561,41.4277c-3.4407,21.53459 7.89461,42.23081 7.89461,42.23081z"/><path d="M292.33371,-25.53499c17.7084,4.45966 28.94352,20.46539 25.09431,35.74982c-2.55534,10.1468 -26.22654,36.14628 -36.8741,38.58786c-5.39117,1.23625 3.79302,-17.48883 -2.15939,-18.98788c-10.19339,-2.56708 -21.67603,7.97868 -25.93727,0.0999c-3.14159,-5.80858 -0.79054,-29.36337 0.84296,-35.84971c3.8492,-15.28441 21.32508,-24.05964 39.03349,-19.6z"/><path d="M350.399,-11.5096c2.33893,-0.48487 -0.19832,7.13077 -4.97319,12.76657c-3.86466,4.56147 -9.51972,7.00051 -12.68628,9.2966c-6.93027,5.02515 -22.69726,10.57041 -22.69726,10.57041l-8.7381,-22.22238c0,0 15.88916,0.50207 24.12868,-0.37571c5.35572,-0.57056 18.7127,-8.73917 24.96616,-10.03551z" data-paper-data="{&quot;index&quot;:null}"/><path d="M318.77015,-52.87624c1.42834,-1.67277 4.7582,6.03713 5.03982,13.31535c0.22792,5.89079 -2.35364,10.98858 -3.15889,14.61671c-1.76238,7.9404 -9.82383,21.10998 -9.82383,21.10998l-21.87668,-13.7356c0,0 12.31539,-8.2073 17.9184,-13.4097c3.64197,-3.38157 8.08243,-17.42436 11.9012,-21.89675z" data-paper-data="{&quot;index&quot;:null}"/><path d="M258.81754,-61.02646c-0.25386,-2.16572 7.8838,1.9373 13.55436,7.50779c4.58959,4.50859 6.60821,10.05821 8.77026,13.39585c4.7318,7.30468 8.96804,22.46717 8.96804,22.46717l-25.7045,2.14595c0,0 2.48492,-13.77348 2.51137,-21.19741c0.01718,-4.82557 -7.42076,-18.52905 -8.09951,-24.31937z" data-paper-data="{&quot;index&quot;:null}"/><path d="M210.64243,-16.59855c-2.01923,-1.32966 6.36736,-4.01931 14.54998,-4.01262c6.62278,0.00543 12.61196,2.48199 16.77867,3.32652c9.11921,1.84833 24.72076,9.48476 24.72076,9.48476l-13.46119,18.975c0,0 -10.3997,-11.24518 -16.78727,-16.41318c-4.15193,-3.35923 -20.40231,-7.80546 -25.80094,-11.36049z" data-paper-data="{&quot;index&quot;:null}"/></g><path d="M171.93238,143.91152c-0.06117,-4.57918 -1.29527,-16.51358 2.86727,-19.88952c2.66989,-2.16536 45.5203,-3.31331 59.00205,-3.71908c20.29949,-0.61096 63.07937,1.65843 64.55524,3.23312c2.68537,2.86518 2.49002,15.10227 2.53745,18.65282c0.4448,33.29888 -28.06374,60.67859 -63.67561,61.15429c-35.61186,0.4757 -64.84158,-26.13275 -65.28638,-59.43161z" fill="url(#color-5)" stroke="none" stroke-width="2" stroke-linecap="butt"/><path d="M300.05181,123.73246c0.05927,4.43744 -33.26353,5.62318 -64.92504,6.04611c-31.66149,0.42293 -61.6806,-0.631 -61.73988,-5.06845c-0.05927,-4.43744 30.61141,-4.51626 62.27293,-4.9392c31.66149,-0.42293 64.33273,-0.4759 64.392,3.96154z" fill="#000000" stroke="none" stroke-width="2" stroke-linecap="butt"/><path d="M179.27005,133.41598c-0.17239,-0.25906 -0.34835,-0.51885 -0.52749,-0.77993c-0.49645,-0.72355 -1.07374,-1.52084 -1.50354,-2.35371c0.00596,0.76919 0.21259,1.5243 0.72661,2.24448c0.38655,0.27753 0.83253,0.57544 1.30442,0.88917zM177.31758,126.53796c0.49346,-1.11948 -4.42147,-1.40668 -4.02356,-2.51697c0.97764,-2.72795 8.62144,-7.16161 8.89355,-6.96579c0.21212,0.15264 4.53695,-0.84487 4.89457,-0.96702c6.73185,-0.13017 13.34474,0.48202 20.08711,0.39195c6.8814,-0.09193 13.54843,0.1379 20.40436,0.73076c2.39819,0.16759 4.79958,0.29543 7.20245,0.40979c2.20858,-2.89978 4.00104,-6.65514 8.00379,-6.0233c0.01986,0.10239 0.59413,2.12238 1.15255,1.41296c0.84424,-1.07253 1.01766,-2.78673 1.49324,-4.02624c1.07414,-2.79954 2.36782,-6.01445 4.46055,-8.18971c3.72004,-3.76301 4.17499,4.35743 3.98165,6.52633c-0.11551,1.29578 -0.89678,2.72457 -1.46554,3.88775c-0.21101,0.43153 -0.94025,1.0395 -0.557,1.32911c0.2245,0.16966 1.41036,0.02352 1.59481,0.02107c2.87218,0.33761 0.42397,3.91728 -0.52128,5.04027c-0.20387,0.2422 -0.4093,0.47673 -0.61649,0.7038c5.43027,0.11093 10.85698,0.42964 16.28544,0.3574c7.00147,-0.09318 14.00035,0.47492 20.98438,0.38811c2.09371,-0.02513 6.69461,-0.13547 8.10466,1.82082c0.29442,0.40849 0.42482,2.04057 0.51395,2.52994c0.55297,3.03625 1.32789,6.59078 1.37516,9.68184c0.09421,7.05247 -0.26532,13.76709 -2.41724,20.52193c-0.62517,2.07174 -2.61897,10.96559 -6.39903,7.28519c-1.90116,-1.85105 1.02699,-7.46494 1.77194,-9.42728c1.29644,-3.40847 1.29831,-6.70431 1.12832,-10.31427c-0.04731,-1.00485 0.06904,-3.37458 -0.45643,-4.21764c-0.2168,-0.34782 -0.49989,0.64962 -0.74929,0.97485c-0.64163,0.83671 -1.2625,1.32579 -1.72296,2.29183c-0.64346,1.32631 -3.2478,6.28672 -5.25109,3.70032c-0.3844,-0.4963 -0.12965,-2.63988 -0.13834,-3.29081c-0.04769,-3.57037 -0.09408,-7.14075 -0.1439,-10.71108c-0.05901,-2.55881 -2.21074,-3.10675 -4.39757,-3.41805c-4.46158,-0.63514 -8.90716,-1.44541 -13.30313,-2.48221c-6.71041,-1.57882 -13.62586,-2.86258 -19.13214,2.27824c-3.14107,2.9326 -6.75197,6.77477 -7.78896,11.08402c-0.51805,2.15278 -0.22961,4.66839 -0.1813,6.86044c0.15189,6.89317 1.88714,13.45369 2.59498,20.26716c0.04582,3.24835 0.51153,7.74412 -1.71416,10.40084c-1.57236,1.87686 -4.8557,1.39106 -5.88242,-0.84514c-0.59774,-1.30186 -0.27205,-2.96452 0.10979,-4.26405c0.75734,-3.19778 1.81261,-5.85416 1.76801,-9.19295c-0.01336,-0.9998 -0.03381,-1.99986 -0.04007,-2.99973c-0.00246,-0.3921 0.304,-1.48947 0.07091,-1.17417c-1.82538,2.469 -2.92611,-0.26939 -3.64636,-2.06072c-0.71932,-1.39584 -1.72189,-3.08062 -2.17416,-4.54413c-0.73705,-2.385 0.29671,-5.19143 0.54704,-7.53548c0.25369,-2.37546 -0.52872,-4.73242 -0.9624,-7.03865c-0.17396,-0.92754 -0.34979,-1.93633 -0.69255,-2.82019c-0.8204,-2.11552 -2.43226,-2.35335 -4.38696,-1.26208c-3.24939,1.81405 -3.33935,6.12888 -7.87493,6.18885c-3.51858,-0.11254 -2.61421,-4.50205 -2.96522,-6.97664c-0.71245,-5.02279 -3.56712,-6.75061 -8.40063,-5.58891c-7.10729,1.63706 -9.48206,9.25665 -10.28073,15.43583c-0.84234,6.45073 -0.05621,13.75913 0.61713,20.20908c0.717,6.86828 1.12868,13.62759 1.09714,20.53782c-0.00964,1.2149 -0.15943,3.24963 -1.06849,4.1929c-0.83527,0.86672 -5.41454,0.8019 -6.33437,0.0729c-0.82708,-0.65548 -0.5465,-2.44898 -0.5584,-3.33965c-0.03383,-2.53219 -0.06244,-5.06452 -0.10452,-7.5966c-0.04048,-2.43586 0.45382,-7.51243 -1.17343,-9.50985c-1.13672,-1.39529 -3.21765,1.39115 -4.3139,1.66638c-1.79494,0.45062 -2.48748,-2.12883 -2.98424,-3.35252c-0.04672,-2.16306 -0.48556,-4.91924 0.14013,-7.02062c0.44199,-1.48446 1.41621,-3.01453 1.7069,-4.53349c0.46977,-2.45473 0.07823,-6.03611 -0.23345,-8.52079c-0.355,-2.84791 -1.33881,-5.22473 -2.68537,-7.53842c-1.14939,-0.82173 -2.42941,-1.59675 -3.31175,-2.24974c-1.10519,-1.65158 -1.08269,-3.25378 -0.62825,-4.82967c-0.0527,-0.52175 0.00974,-1.04618 0.23751,-1.56488c0,0 0.15047,-0.31128 0.46001,-0.29102zM182.61702,137.26167c0.24735,0.54098 0.473,1.0911 0.67422,1.65451c-0.07657,-0.55409 -0.23408,-1.07244 -0.54543,-1.49034c-0.04075,-0.05468 -0.08372,-0.10941 -0.12878,-0.16417zM238.85052,114.02767c-0.26252,0.26121 -0.51331,0.53957 -0.75608,0.82974c0.18464,-0.1987 0.37833,-0.39003 0.59189,-0.56389z" fill="#000000" stroke="none" stroke-width="0.5" stroke-linecap="butt"/><path d="M185.48665,144.15993c-0.17321,-12.96685 10.19808,-23.61897 23.16493,-23.79218c12.96685,-0.17321 23.61897,10.19808 23.79218,23.16493c0.17321,12.96685 -10.19808,23.61897 -23.16493,23.79218c-12.96685,0.17321 -23.61897,-10.19808 -23.79218,-23.16493z" fill="#ff0000" stroke="none" stroke-width="2" stroke-linecap="butt"/><path d="M263.78238,166.59682c-12.96685,0.17321 -23.61897,-10.19808 -23.79218,-23.16493c-0.17321,-12.96685 10.19808,-23.61897 23.16493,-23.79218c12.96685,-0.17321 23.61897,10.19808 23.79218,23.16493c0.17321,12.96685 -10.19808,23.61897 -23.16493,23.79218z" data-paper-data="{&quot;index&quot;:null}" fill="#ff0000" stroke="none" stroke-width="2" stroke-linecap="butt"/><path d="M185.85392,147.15235c1.25255,0.02782 45.95817,-0.01768 46.21677,0.00294c-0.46763,3.49233 -1.0641,6.31501 -2.91864,9.25749c-4.16045,6.60109 -11.60933,10.39529 -19.63869,10.50254c-11.87639,0.15864 -22.17554,-8.09397 -23.65945,-19.76297z" data-paper-data="{&quot;index&quot;:null}" fill="#ff5d5d" stroke="none" stroke-width="2" stroke-linecap="butt"/><path d="M192.54771,143.78997c-0.12192,-9.12726 7.17834,-16.6252 16.3056,-16.74713c9.12726,-0.12192 16.62521,7.17835 16.74713,16.30561c0.12192,9.12726 -7.17835,16.6252 -16.30561,16.74713c-9.12726,0.12192 -16.62519,-7.17835 -16.74712,-16.30561z" fill="#000000" stroke="none" stroke-width="0" stroke-linecap="butt"/><path d="M286.55752,145.80716c-1.17167,11.70446 -11.24671,20.22923 -23.12311,20.38788c-8.02937,0.10726 -15.57692,-3.48662 -19.91222,-9.97422c-1.93249,-2.89189 -2.60413,-5.69763 -3.16488,-9.17622c0.25794,-0.02751 44.94884,-1.17617 46.20019,-1.23744z" data-paper-data="{&quot;index&quot;:null}" fill="#ff5d5d" stroke="none" stroke-width="2" stroke-linecap="butt"/><path d="M263.32331,159.37388c-9.12725,0.12192 -16.6252,-7.17835 -16.74712,-16.30561c-0.12192,-9.12726 7.17835,-16.62521 16.3056,-16.74713c9.12725,-0.12192 16.62519,7.17835 16.74712,16.30561c0.12192,9.12726 -7.17835,16.62521 -16.3056,16.74713z" data-paper-data="{&quot;index&quot;:null}" fill="#000000" stroke="none" stroke-width="0" stroke-linecap="butt"/><g fill="none" stroke="#ff0000" stroke-width="1" stroke-linecap="butt"><path d="M214.92715,152.12863c-0.3784,0.28762 -5.81998,-2.89938 -5.81998,-2.89938c0,0 -5.22617,3.47371 -5.68901,3.15259c-0.43848,-0.30394 0.95844,-6.43302 0.95844,-6.43302c0,0 -4.85637,-4.10167 -4.75557,-4.4365c0.10193,-0.33893 6.41383,-1.07617 6.41383,-1.07617c0,0 2.38,-5.88656 2.74868,-5.89493c0.3988,-0.00882 3.00744,5.76816 3.00744,5.76816c0,0 6.3705,0.55467 6.45382,0.79376c0.12169,0.34681 -4.55523,4.64099 -4.55523,4.64099c0,0 1.44499,6.22719 1.23759,6.38449z"/><path d="M212.17131,148.61175c-0.20317,0.15443 -3.12478,-1.5567 -3.12478,-1.5567c0,0 -2.80596,1.86506 -3.05446,1.69265c-0.23542,-0.16319 0.5146,-3.45392 0.5146,-3.45392c0,0 -2.60742,-2.20221 -2.55329,-2.38198c0.05472,-0.18197 3.44362,-0.5778 3.44362,-0.5778c0,0 1.27783,-3.16053 1.47577,-3.16501c0.21411,-0.00474 1.61471,3.09696 1.61471,3.09696c0,0 3.42035,0.2978 3.46509,0.42617c0.06533,0.1862 -2.44572,2.49177 -2.44572,2.49177c0,0 0.77582,3.3434 0.66447,3.42788z"/></g><g data-paper-data="{&quot;index&quot;:null}" fill="none" stroke="#ff0000" stroke-width="1" stroke-linecap="butt"><path d="M258.78267,144.44174c0,0 -4.78996,-4.16771 -4.67757,-4.51765c0.07691,-0.24125 6.43032,-0.96587 6.43032,-0.96587c0,0 2.45339,-5.8446 2.85228,-5.84643c0.36878,-0.00149 2.90516,5.81941 2.90516,5.81941c0,0 6.32934,0.56837 6.44028,0.90445c0.10972,0.33201 -4.63537,4.56195 -4.63537,4.56195c0,0 1.56013,6.08959 1.12994,6.40513c-0.4541,0.33337 -5.77119,-2.99951 -5.77119,-2.99951c0,0 -5.35451,3.33122 -5.74046,3.05381c-0.21153,-0.15171 1.0666,-6.41527 1.0666,-6.41527z"/><path d="M260.94964,143.82336c0,0 -2.57175,-2.23767 -2.51141,-2.42555c0.0413,-0.12952 3.45247,-0.51858 3.45247,-0.51858c0,0 1.31725,-3.13799 1.53141,-3.13898c0.19799,-0.00079 1.5598,3.12448 1.5598,3.12448c0,0 3.39825,0.30516 3.45782,0.48561c0.05891,0.17826 -2.48876,2.44934 -2.48876,2.44934c0,0 0.83764,3.26953 0.60667,3.43894c-0.2438,0.17899 -3.09859,-1.61046 -3.09859,-1.61046c0,0 -2.87487,1.78854 -3.08208,1.6396c-0.11357,-0.08145 0.57267,-3.44439 0.57267,-3.44439z"/></g><path d="M183.24507,137.55765l2.30233,1.50272" fill="none" stroke="#000000" stroke-width="1" stroke-linecap="round"/><path d="M285.91564,134.66938l2.26136,-1.56367" data-paper-data="{&quot;index&quot;:null}" fill="none" stroke="#000000" stroke-width="1" stroke-linecap="round"/><path d="M185.40331,144.16105c-0.17321,-12.96685 10.19808,-23.61897 23.16493,-23.79218c12.96685,-0.17321 23.61897,10.19808 23.79218,23.16493c0,0 -21.22752,-1.49603 -31.59512,-1.19535c-12.83971,0.37237 -15.3529,2.50391 -15.362,1.8226z" fill="url(#color-6)" stroke="none" stroke-width="0" stroke-linecap="butt"/><path d="M287.08884,141.55262c0.00911,0.68131 -4.3358,-3.29208 -17.18086,-3.32134c-10.37193,-0.02363 -29.77625,3.9486 -29.77625,3.9486c-0.17321,-12.96685 10.19808,-23.61897 23.16493,-23.79218c12.96685,-0.17321 23.61897,10.19808 23.79218,23.16493z" data-paper-data="{&quot;index&quot;:null}" fill="url(#color-7)" stroke="none" stroke-width="0" stroke-linecap="butt"/><path d="M298.42422,146.30691c0.00676,0.50622 -0.36083,0.92158 -0.82101,0.92772c-0.4602,0.00615 -0.83874,-0.39925 -0.8455,-0.90546c-0.00676,-0.50622 0.36083,-0.92158 0.82101,-0.92772c0.4602,-0.00615 0.83873,0.39925 0.84549,0.90546z" fill="#000000" stroke="none" stroke-width="0" stroke-linecap="butt"/><path d="M242.63092,108.2026c0.00369,0.27611 -0.49695,0.50669 -1.11822,0.51498c-0.62126,0.0083 -1.12789,-0.20881 -1.13158,-0.48493c-0.00369,-0.27611 0.49696,-0.50669 1.11822,-0.51498c0.62126,-0.0083 1.12788,0.20881 1.13157,0.48493z" fill="#000000" stroke="none" stroke-width="0" stroke-linecap="butt"/><g><g fill="url(#color-8)" stroke="none" stroke-width="0" stroke-linecap="butt"><path d="M255.30816,179.43795c-0.0398,0.98584 0.6383,3.44388 -2.55368,5.7269c-0.75296,0.53854 -8.87886,5.31353 -15.25759,5.6365c-8.06833,0.40854 -14.70955,-3.73219 -15.2595,-4.0626c-5.33516,-3.20537 -8.35558,-7.36621 -8.29127,-8.95835c0.01682,-0.41618 10.05595,2.16334 20.38946,2.57742c10.66437,0.42736 20.9843,-1.20954 20.97259,-0.91988z"/></g><path d="M219.87678,185.02988l4.8605,-1.45012l3.9938,1.91556l4.27624,-1.65867l4.18961,2.38356l5.05218,-2.54545l4.28716,2.47962l4.08211,-1.48295l1.75231,0.44172" fill="none" stroke="#000000" stroke-width="0.5" stroke-linecap="round"/></g><path d="M198.34662,164.47107l0.96938,-2.29888" fill="none" stroke="#000000" stroke-width="0.5" stroke-linecap="round"/><path d="M204.95564,167.24018l-0.18864,-3.42636" fill="none" stroke="#000000" stroke-width="0.5" stroke-linecap="round"/><path d="M276.09164,164.9148l-0.68672,-4.61624" fill="none" stroke="#000000" stroke-width="0.5" stroke-linecap="round"/><path d="M280.47603,159.23046l2.17156,3.4713" fill="none" stroke="#000000" stroke-width="0.5" stroke-linecap="round"/></g></g></svg>