<svg version="1.1" xmlns="http://www.w3.org/2000/svg" xmlns:xlink="http://www.w3.org/1999/xlink" width="34.17311" height="34.17311" viewBox="0,0,34.17311,34.17311"><defs><radialGradient cx="238.59113" cy="174.00147" r="13.02865" gradientUnits="userSpaceOnUse" id="color-1"><stop offset="0" stop-color="#ffffff"/><stop offset="1" stop-color="#b1dfea"/></radialGradient></defs><g transform="translate(-222.91348,-162.9135)"><g data-paper-data="{&quot;isPaintingLayer&quot;:true}" stroke-miterlimit="10" stroke-dasharray="" stroke-dashoffset="0" style="mix-blend-mode: normal"><path d="M229.98315,162.9135h20.03379c3.9166,0 7.06966,3.15307 7.06966,7.06966v20.03379c0,3.91659 -3.15306,7.06966 -7.06966,7.06966h-20.03379c-3.91659,0 -7.06966,-3.15307 -7.06966,-7.06966v-20.03379c0,-3.91659 3.15307,-7.06966 7.06966,-7.06966z" fill="#5acfff" fill-rule="evenodd" stroke="none" stroke-width="4.43922" stroke-linecap="round" stroke-linejoin="round"/><g fill-rule="nonzero" stroke="#000000" stroke-width="0.5" stroke-linecap="butt" stroke-linejoin="miter"><path d="M253.08819,177.97799c1.69704,7.13193 -3.50229,11.99717 -10.63421,13.69421c-7.13193,1.69704 -13.49573,-0.41677 -15.19277,-7.5487c-1.69704,-7.13193 2.70881,-14.28921 9.84073,-15.98625c7.13193,-1.69704 14.28921,2.70881 15.98625,9.84074z" fill="#d23d3d"/><path d="M237.10194,168.13725c6.46066,-1.53731 12.94213,1.93351 15.36653,7.9022c-4.69063,1.44708 -9.24853,3.23894 -14.02639,4.18342c-1.17317,0.23212 -9.0349,2.31347 -10.81093,2.28139c-1.20269,-0.02173 -1.0798,-5.82762 1.29519,-9.4862c1.90468,-2.93408 5.69425,-4.29037 8.17562,-4.88081z" fill="url(#color-1)"/><path d="M252.89962,176.14289c0.34516,1.45057 -5.57154,3.20571 -12.83313,4.9336c-7.2616,1.72789 -13.11827,2.77421 -13.46344,1.32364c-0.34516,-1.45057 5.58428,-2.67161 12.84588,-4.3995c7.2616,-1.72789 13.10553,-3.30831 13.45069,-1.85775z" fill="#b83535"/><path d="M233.86938,172.45736c0.45694,0.76593 -0.05965,1.91602 -1.15385,2.56879c-1.09419,0.65277 -2.35163,0.56104 -2.80857,-0.2049c-0.45694,-0.76593 0.05965,-1.91602 1.15384,-2.56879c1.09419,-0.65277 2.35163,-0.56104 2.80857,0.2049z" fill="#ffffff"/></g></g></g></svg>