<svg version="1.1" xmlns="http://www.w3.org/2000/svg" xmlns:xlink="http://www.w3.org/1999/xlink" width="594" height="346.17185" viewBox="0,0,594,346.17185"><defs><radialGradient cx="241.50151" cy="146.91461" r="252" gradientUnits="userSpaceOnUse" id="color-1"><stop offset="0" stop-color="#480f0f"/><stop offset="1" stop-color="#000000"/></radialGradient></defs><g transform="translate(33.5,9.17185)"><g data-paper-data="{&quot;isPaintingLayer&quot;:true}" fill-rule="nonzero" stroke="none" stroke-linecap="butt" stroke-linejoin="miter" stroke-miterlimit="10" stroke-dasharray="" stroke-dashoffset="0" style="mix-blend-mode: normal"><path d="M493.50151,53.79882v186.23157h-504v-186.23157z" data-paper-data="{&quot;index&quot;:null}" fill="url(#color-1)" stroke-width="NaN"/><g fill="#000000" stroke-width="0"><path d="M249.29801,88.43602c0,28.50223 -52.11055,51.60786 -116.39217,51.60786c-64.28162,0 -116.3922,-23.10564 -116.3922,-51.60786c0,-28.50223 52.11058,-51.60786 116.3922,-51.60786c64.28162,0 116.39217,23.10564 116.39217,51.60786z"/><path d="M106.55283,112.04385c0,13.03825 -27.28429,23.60783 -60.94119,23.60783c-33.6569,0 -60.94119,-10.56957 -60.94119,-23.60783c0,-13.03825 27.28429,-23.60786 60.94119,-23.60786c33.6569,0 60.94119,10.56961 60.94119,23.60786z"/><path d="M235.57251,101.61249c30.01831,0 54.35295,8.84896 54.35295,19.76471c0,10.91575 -24.33464,19.76471 -54.35295,19.76471c-30.01831,0 -54.35295,-8.84896 -54.35295,-19.76471c0,-10.91575 24.33464,-19.76471 54.35295,-19.76471z"/><path d="M132.90577,148.82815c-89.75171,0 -162.50986,-5.40766 -162.50986,-12.07841c0,-6.67075 72.75815,-12.07844 162.50986,-12.07844c89.75171,0 162.50983,5.40769 162.50983,12.07844c0,6.67072 -72.75811,12.07841 -162.50983,12.07841z"/></g><path d="M-33.5,337v-153h594v153z" fill="#000000" stroke-width="0"/><g data-paper-data="{&quot;index&quot;:null}" fill="#000000" stroke-width="0"><path d="M357.90567,-9.17185c64.28163,0 116.3922,23.10564 116.3922,51.60787c0,28.50223 -52.11058,51.60787 -116.3922,51.60787c-64.28163,0 -116.39217,-23.10564 -116.39217,-51.60787c0,-28.50222 52.11054,-51.60786 116.39217,-51.60786z"/><path d="M445.19988,42.43598c33.65689,0 60.94119,10.56961 60.94119,23.60786c0,13.03825 -27.28429,23.60782 -60.94119,23.60782c-33.6569,0 -60.94119,-10.56957 -60.94119,-23.60782c0,-13.03825 27.28429,-23.60786 60.94119,-23.60786z"/><path d="M309.59196,75.37721c0,10.91575 -24.33464,19.76471 -54.35295,19.76471c-30.01831,0 -54.35296,-8.84896 -54.35296,-19.76471c0,-10.91576 24.33464,-19.76471 54.35296,-19.76471c30.01831,0 54.35295,8.84895 54.35295,19.76471z"/><path d="M195.39591,90.74973c0,-6.67075 72.75811,-12.07844 162.50982,-12.07844c89.75171,0 162.50986,5.40769 162.50986,12.07844c0,6.67075 -72.75815,12.07841 -162.50986,12.07841c-89.75171,0 -162.50982,-5.40769 -162.50982,-12.07841z"/></g></g></g></svg>