<svg version="1.1" xmlns="http://www.w3.org/2000/svg" xmlns:xlink="http://www.w3.org/1999/xlink" width="130.47404" height="266.34009" viewBox="0,0,130.47404,266.34009"><g transform="translate(-172.26299,-47.27245)"><g data-paper-data="{&quot;isPaintingLayer&quot;:true}" fill-rule="nonzero" stroke-linejoin="miter" stroke-miterlimit="10" stroke-dasharray="" stroke-dashoffset="0" style="mix-blend-mode: normal"><path d="M179.20671,313.61253v-187.22501h123.18203v187.22501z" fill-opacity="0.01" fill="#000000" stroke="none" stroke-width="0" stroke-linecap="butt"/><path d="M206.67309,308.48922l15.14285,-92.37211l37.78325,-0.11061l13.57389,92.48274z" fill="#ffffff" stroke="#000000" stroke-width="2" stroke-linecap="butt"/><path d="M219.62331,236.05325l3.12142,-18.44586l35.83075,-0.09951l2.76735,18.29049c0,0 -7.51543,2.93985 -21.55904,3.15958c-12.48458,0.19533 -20.16049,-2.90471 -20.16049,-2.90471z" fill="#b5b5b5" stroke="#000000" stroke-width="0" stroke-linecap="butt"/><g stroke="#000000" stroke-width="2"><path d="M228.20893,230.75078l0.4697,23.89138" fill="none" stroke-linecap="round"/><path d="M228.67863,255.03706c1.90232,0 3.44445,0.8349 3.44445,1.8648c0,1.0299 -1.54214,1.8648 -3.44445,1.8648c-1.90232,0 -3.44445,-0.8349 -3.44445,-1.8648c0,-1.0299 1.54214,-1.8648 3.44445,-1.8648z" fill="#000000" stroke-linecap="butt"/></g><g data-paper-data="{&quot;index&quot;:null}" stroke="#000000" stroke-width="2"><path d="M252.14832,231.1011l-0.4697,23.89137" fill="none" stroke-linecap="round"/><path d="M255.12306,257.25217c0,1.0299 -1.54213,1.86479 -3.44445,1.86479c-1.90231,0 -3.44445,-0.8349 -3.44445,-1.86479c0,-1.0299 1.54213,-1.8648 3.44445,-1.8648c1.90231,0 3.44445,0.83491 3.44445,1.8648z" fill="#000000" stroke-linecap="butt"/></g><path d="M173.26299,165.47947c0,-33.30185 28.7599,-60.29833 64.23702,-60.29833c35.47712,0 64.23702,26.99649 64.23702,60.29833c0,33.30185 -28.7599,60.29833 -64.23702,60.29833c-35.47712,0 -64.23702,-26.99649 -64.23702,-60.29833z" fill="#414141" stroke="#000000" stroke-width="2" stroke-linecap="butt"/><path d="M173.98605,165.53338c0,-0.72799 5.20666,55.91939 63.36046,56.93429c55.56352,0.9697 63.51358,-57.95314 63.51358,-56.93429c0,32.80479 -28.40173,59.39833 -63.43702,59.39833c-35.03529,0 -63.43702,-26.59354 -63.43702,-59.39833z" fill="#252525" stroke="#000000" stroke-width="0" stroke-linecap="butt"/><path d="M186.81322,165.909c0,-12.968 10.51265,-23.48065 23.48065,-23.48065c12.968,0 23.48065,10.51265 23.48065,23.48065c0,12.968 -10.51265,23.48065 -23.48065,23.48065c-12.968,0 -23.48065,-10.51265 -23.48065,-23.48065z" fill="#ffffff" stroke="#000000" stroke-width="2" stroke-linecap="butt"/><path d="M192.1619,168.83334c0,-9.12808 7.39976,-16.52784 16.52783,-16.52784c9.12808,0 16.52784,7.39977 16.52784,16.52784c0,9.12808 -7.39977,16.52784 -16.52784,16.52784c-9.12808,0 -16.52783,-7.39977 -16.52783,-16.52784z" fill="#000000" stroke="none" stroke-width="0" stroke-linecap="butt"/><path d="M264.55228,189.38966c-12.968,0 -23.48065,-10.51265 -23.48065,-23.48065c0,-12.968 10.51265,-23.48065 23.48065,-23.48065c12.968,0 23.48065,10.51265 23.48065,23.48065c0,12.968 -10.51265,23.48065 -23.48065,23.48065z" data-paper-data="{&quot;index&quot;:null}" fill="#ffffff" stroke="#000000" stroke-width="2" stroke-linecap="butt"/><path d="M267.67307,178.46122c-9.12807,0 -16.52783,-7.39977 -16.52783,-16.52784c0,-9.12808 7.39977,-16.52784 16.52783,-16.52784c9.12807,0 16.52783,7.39977 16.52783,16.52784c0,9.12808 -7.39977,16.52784 -16.52783,16.52784z" data-paper-data="{&quot;index&quot;:null}" fill="#000000" stroke="none" stroke-width="0" stroke-linecap="butt"/><path d="M199.45088,137.10054c0,0 6.70895,-5.16922 11.79721,-6.36355c5.08827,-1.19433 12.33413,0.69937 12.33413,0.69937c0,0 -8.03812,-0.06028 -11.96762,0.86207c-4.10648,0.96389 -12.16372,4.80211 -12.16372,4.80211z" fill="#000000" stroke="none" stroke-width="0" stroke-linecap="butt"/><path d="M263.38533,132.29845c-3.9295,-0.92235 -11.96762,-0.86207 -11.96762,-0.86207c0,0 7.24586,-1.8937 12.33413,-0.69937c5.08826,1.19433 11.79721,6.36355 11.79721,6.36355c0,0 -8.05724,-3.83822 -12.16372,-4.80211z" data-paper-data="{&quot;index&quot;:null}" fill="#000000" stroke="none" stroke-width="0" stroke-linecap="butt"/><path d="M189.21195,144.60007l4.66666,3.33333" fill="none" stroke="#000000" stroke-width="2" stroke-linecap="round"/><path d="M201.7917,138.00009l1.50717,5.53329" fill="none" stroke="#000000" stroke-width="2" stroke-linecap="round"/><g data-paper-data="{&quot;index&quot;:null}" fill="none" stroke="#000000" stroke-width="2" stroke-linecap="round"><path d="M281.59649,148.07618l4.66666,-3.33333"/><path d="M272.17622,143.6762l1.50716,-5.53329"/></g><path d="M263.28539,117.2334c0,6.87595 -11.78514,12.45 -26.32286,12.45c-14.53771,0 -26.32286,-5.57406 -26.32286,-12.45c0,-6.87595 11.78514,-12.45 26.32286,-12.45c14.53771,0 26.32286,5.57405 26.32286,12.45z" fill="#ffffff" stroke="#000000" stroke-width="2" stroke-linecap="butt"/><text transform="translate(230.1712,125.7834) scale(0.5,0.63543)" font-size="40" xml:space="preserve" fill="#adadad" fill-rule="nonzero" stroke="none" stroke-width="1" stroke-linecap="butt" stroke-linejoin="miter" stroke-miterlimit="10" stroke-dasharray="" stroke-dashoffset="0" font-family="Handwriting" font-weight="normal" text-anchor="start" style="mix-blend-mode: normal"><tspan x="0" dy="0">8</tspan></text><path d="M246.31955,204.56668c0,4.26056 -3.72473,7.71439 -8.31944,7.71439c-4.59469,0 -8.31944,-3.45386 -8.31944,-7.71439c0,-4.26056 3.72473,-7.71439 8.31944,-7.71439c4.59469,0 8.31944,3.45386 8.31944,7.71439z" fill="#000000" stroke="none" stroke-width="0" stroke-linecap="butt"/><path d="M229.85311,108.58051c-1.11627,7.29533 -5.89531,23.98683 -10.96342,23.02185c-5.06812,-0.96499 -8.50614,-19.22104 -7.38984,-26.51639c0.13932,-0.91053 0.33937,-1.78737 0.59263,-2.62285c1.77597,-5.85852 18.87693,-1.17797 17.76064,6.11737z" fill="#838383" stroke="#000000" stroke-width="2" stroke-linecap="butt"/><path d="M261.4631,80.44149c7.03885,-4.17005 16.85809,-0.83939 21.93191,7.43924c5.0738,8.27863 15.29475,32.52837 8.25589,36.69843c-7.03885,4.17005 -28.672,-13.31867 -33.74582,-21.59729c-5.0738,-8.27863 -3.48083,-18.37029 3.55802,-22.54035z" data-paper-data="{&quot;index&quot;:null}" fill="#5b5b5b" stroke="#000000" stroke-width="2" stroke-linecap="butt"/><path d="M180.82231,79.32321l-0.73877,-30.85384l35.18936,6.20685l9.84194,45.23283z" fill="#5b5b5b" stroke="#000000" stroke-width="2" stroke-linecap="butt"/><path d="M216.62141,105.38166c-4.48311,8.61284 -24.84172,27.57003 -32.15468,23.90186c-7.31295,-3.66817 1.18902,-28.57266 5.67213,-37.18549c4.48311,-8.61284 14.0457,-12.62129 21.35865,-8.95313c7.31295,3.66817 9.607,13.6239 5.12389,22.23676z" fill="#5b5b5b" stroke="#000000" stroke-width="2" stroke-linecap="butt"/><path d="M213.79404,109.1322c-1.02083,7.2014 -5.17408,23.43044 -9.29997,21.89765c-4.1259,-1.53278 -6.66202,-20.24695 -5.64119,-27.44834c0.12742,-0.89879 0.3039,-1.75701 0.52328,-2.56776c1.5383,-5.68525 15.43872,0.91708 14.41789,8.11847z" fill="#838383" stroke="#000000" stroke-width="2" stroke-linecap="butt"/><path d="M270.06314,94.02276c0.50028,0.67468 0.97796,1.40917 1.42479,2.19939c3.57996,6.33134 8.0526,24.6793 4.77132,27.61284c-3.28128,2.93354 -13.07389,-10.65823 -16.65388,-16.98958c-3.57998,-6.33135 6.94968,-17.55358 10.45777,-12.82265z" data-paper-data="{&quot;index&quot;:null}" fill="#838383" stroke="#000000" stroke-width="2" stroke-linecap="butt"/><path d="M259.77276,99.17366c0.31102,0.81575 0.5718,1.67645 0.77439,2.57503c1.62317,7.19954 -0.53116,25.65116 -5.51947,26.96784c-4.98834,1.31666 -10.92166,-15.00023 -12.54484,-22.19976c-1.62317,-7.19954 15.10905,-13.06323 17.28992,-7.3431z" data-paper-data="{&quot;index&quot;:null}" fill="#838383" stroke="#000000" stroke-width="2" stroke-linecap="butt"/><path d="M197.91232,108.61l2.44689,-28.45785c0,0 35.23294,-14.83043 35.40985,-14.79305c4.04386,0.8537 37.69415,12.00712 37.69415,12.00712l4.90325,28.65974z" fill="#5b5b5b" stroke="#000000" stroke-width="2" stroke-linecap="butt"/><path d="M229.92364,73.34635c2.54376,4.79186 -1.71784,12.03338 -9.51855,16.1744c-7.8007,4.14101 -16.18655,3.61338 -18.73034,-1.17847c-2.54376,-4.79186 1.71784,-12.03338 9.51855,-16.17439c7.8007,-4.14101 16.18656,-3.61338 18.73033,1.17847z" fill="#ffffff" stroke="#000000" stroke-width="2" stroke-linecap="butt"/><path d="M261.04217,70.42463c8.07093,3.58597 12.82797,10.51211 10.62515,15.46997c-2.2028,4.95786 -10.53132,6.06999 -18.60225,2.48401c-8.07092,-3.58597 -12.82798,-10.51211 -10.62517,-15.46997c2.2028,-4.95786 10.53131,-6.06998 18.60225,-2.484z" data-paper-data="{&quot;index&quot;:null}" fill="#ffffff" stroke="#000000" stroke-width="2" stroke-linecap="butt"/><path d="M224.94189,81.75758c1.10928,1.69595 -1.12781,5.12216 -4.99667,7.65271c-3.86886,2.53054 -7.90444,3.20712 -9.01371,1.51118c-1.10928,-1.69595 1.1278,-5.12217 4.99667,-7.65271c3.86886,-2.53054 7.90444,-3.20712 9.01372,-1.51117z" fill="#000000" stroke="#000000" stroke-width="2" stroke-linecap="butt"/><path d="M256.32706,81.74505c4.03618,2.2541 6.50714,5.51569 5.51904,7.28497c-0.9881,1.7693 -5.06109,1.37626 -9.09726,-0.87782c-4.03618,-2.2541 -6.50714,-5.51569 -5.51906,-7.28496c0.9881,-1.7693 5.06108,-1.37625 9.09726,0.87782z" data-paper-data="{&quot;index&quot;:null}" fill="#000000" stroke="#000000" stroke-width="2" stroke-linecap="butt"/><path d="M239.69681,92.73175c0.04869,1.39235 -6.36865,1.61678 -6.41734,0.22442c-0.04869,-1.39235 1.34841,-2.57134 3.1205,-2.63331c1.77211,-0.06197 3.24814,1.01652 3.29683,2.40889z" fill="#000000" stroke="#000000" stroke-width="2" stroke-linecap="butt"/><path d="M236.36451,92.93254l0.19716,5.83504" fill="none" stroke="#000000" stroke-width="1" stroke-linecap="round"/><path d="M236.48422,98.16737c0,0 -0.04478,0.8818 -0.52121,1.72235c-0.42013,0.74122 -1.24703,1.42937 -1.66723,1.74963c-0.26961,0.2055 -1.71676,0.71114 -2.51298,0.44617c-1.26577,-0.42124 -1.97972,-1.78445 -1.97972,-1.78445" data-paper-data="{&quot;index&quot;:null}" fill="none" stroke="#000000" stroke-width="1" stroke-linecap="round"/><path d="M205.4242,98.83989c0.06054,0.0351 0.12872,0.10639 0.13388,0.25011c0.00402,0.11236 -0.03395,0.17265 -0.07863,0.20484c-0.02093,0.03779 -0.05604,0.07033 -0.11324,0.08782c-0.0871,0.02667 -0.15131,-0.00421 -0.19634,-0.04848c-1.10206,0.1274 -4.0288,1.99913 -2.29235,2.93664c0.58033,0.3274 1.42783,0.19611 1.92183,-0.17115c0.12063,-0.08969 0.48231,-0.48884 0.66063,-0.44598c0.48448,0.11642 0.60963,1.14799 0.75116,1.55992c0.28316,0.82421 0.90478,1.42335 1.55927,1.80051c1.71243,0.56579 2.18534,-0.81848 2.00212,-2.6853c-0.03451,-0.35166 -0.48363,-1.31787 -0.37173,-1.5886c0.10584,-0.25608 0.52859,-0.34699 0.75026,-0.41496c0.7871,-0.4328 2.04147,-1.18812 2.4359,-2.16865c0.70305,-1.74774 -0.91447,-1.95087 -1.86585,-1.6591c-0.43744,0.13389 -1.60815,1.09696 -2.00525,1.02553c-0.46102,-0.08292 -0.45872,-0.59615 -0.60365,-0.94184c-0.4703,-1.12182 -1.90396,-2.76134 -2.78581,-1.51997c-0.72625,0.91444 -0.26167,2.5963 0.09783,3.77865zM204.97383,98.82838c-0.40854,-1.3794 -0.78682,-3.07895 0.01358,-4.14839c0.90028,-1.11466 2.31762,-0.33303 3.04955,0.90456c0.07197,0.12172 0.41601,0.69838 0.46051,0.80455c0.08345,0.19906 0.04629,0.64705 0.21654,0.61178c0.55952,-0.11594 1.22932,-0.82393 1.85077,-1.01412c1.3357,-0.40807 3.27171,0.29318 2.42239,2.44231c-0.43261,1.09469 -1.76892,1.91403 -2.64653,2.39484c-0.80007,0.24446 -0.12066,1.3304 -0.11141,2.38794c0.01736,1.98546 -0.94361,2.8376 -2.56699,2.29199c-0.65935,-0.378 -1.3033,-0.94171 -1.68574,-1.72053c-0.05547,-0.11297 -0.52058,-1.61259 -0.5335,-1.61064c-0.99174,0.1501 -1.43836,1.26804 -2.70571,0.57187c-2.37431,-1.29921 0.69837,-3.64633 2.23654,-3.91614z" fill="#c5c5c5" stroke="none" stroke-width="0.5" stroke-linecap="butt"/><path d="M268.25763,92.30976c-0.96642,-1.17673 -2.28203,0.55892 -2.67282,1.71086c-0.12042,0.35498 -0.08227,0.86679 -0.53638,0.98171c-0.39115,0.099 -1.62628,-0.77995 -2.072,-0.88296c-0.96943,-0.22459 -2.5688,0.09103 -1.7454,1.78539c0.46194,0.95059 1.76603,1.61642 2.58144,1.9932c0.22587,0.05233 0.65391,0.11348 0.77739,0.36154c0.13054,0.26227 -0.24997,1.25747 -0.25984,1.61069c-0.05238,1.87505 0.5161,3.22291 2.18481,2.53888c0.62655,-0.42195 1.20479,-1.06304 1.42969,-1.90502c0.11241,-0.42081 0.16519,-1.45861 0.64034,-1.60859c0.1749,-0.0552 0.56358,0.3177 0.69018,0.39874c0.51847,0.33184 1.37306,0.40362 1.9291,0.03647c1.66671,-1.05654 -1.38365,-2.71923 -2.49191,-2.76934c-0.04181,0.04732 -0.10371,0.0826 -0.19246,0.06208c-0.05828,-0.01347 -0.09558,-0.04346 -0.1191,-0.07971c-0.04683,-0.02901 -0.0889,-0.08648 -0.09273,-0.19886c-0.00489,-0.14374 0.05812,-0.21963 0.11607,-0.25887c0.27602,-1.20457 0.62197,-2.91478 -0.16637,-3.77627zM271.37715,99.79343c-1.21565,0.78302 -1.73924,-0.30099 -2.73905,-0.38146c-0.01302,-0.00105 -0.37225,1.5274 -0.41969,1.64397c-0.32707,0.80362 -0.9301,1.41094 -1.56142,1.83409c-1.58129,0.65768 -2.59946,-0.12523 -2.72083,-2.10707c-0.06465,-1.0556 0.53724,-2.18636 -0.27795,-2.37432c-0.90904,-0.41832 -2.29932,-1.14231 -2.80734,-2.20411c-0.99736,-2.08455 0.88492,-2.91934 2.24587,-2.60557c0.63321,0.14634 1.35081,0.80581 1.91709,0.88237c0.17229,0.02329 0.10396,-0.42102 0.17327,-0.62541c0.03698,-0.10901 0.33991,-0.70833 0.4032,-0.83476c0.64368,-1.2857 2.00295,-2.16442 2.97891,-1.11537c0.87314,1.01092 0.61452,2.73275 0.30334,4.13732c1.55327,0.16169 4.7824,2.28843 2.50463,3.75034z" data-paper-data="{&quot;index&quot;:null}" fill="#c5c5c5" stroke="none" stroke-width="0.5" stroke-linecap="butt"/><path d="M243.40854,99.96824c0,0 -0.61697,1.40976 -1.85022,1.91838c-0.77576,0.31994 -2.25469,-0.08339 -2.538,-0.26954c-0.44155,-0.29012 -1.31453,-0.91882 -1.78539,-1.62889c-0.53396,-0.80522 -0.64025,-1.68174 -0.64025,-1.68174" data-paper-data="{&quot;index&quot;:null}" fill="none" stroke="#000000" stroke-width="1" stroke-linecap="round"/></g></g></svg>