<svg version="1.1" xmlns="http://www.w3.org/2000/svg" xmlns:xlink="http://www.w3.org/1999/xlink" width="214.64959" height="267.22501" viewBox="0,0,214.64959,267.22501"><defs><radialGradient cx="242.75" cy="92.87162" r="42.87838" gradientUnits="userSpaceOnUse" id="color-1"><stop offset="0" stop-color="#ffffff"/><stop offset="1" stop-color="#ffffff" stop-opacity="0"/></radialGradient></defs><g transform="translate(-128.70125,-46.38751)"><g data-paper-data="{&quot;isPaintingLayer&quot;:true}" fill-rule="nonzero" stroke-linejoin="miter" stroke-miterlimit="10" stroke-dasharray="" stroke-dashoffset="0" style="mix-blend-mode: normal"><path d="M284.5,92.87162c0,23.68108 -18.69211,42.87838 -41.75,42.87838c-23.05789,0 -41.75,-19.1973 -41.75,-42.87838c0,-23.68108 18.69211,-42.87837 41.75,-42.87837c23.05789,0 41.75,19.1973 41.75,42.87837z" fill="url(#color-1)" stroke="none" stroke-width="0" stroke-linecap="butt"/><path d="M179.28376,313.61252v-267.22501h123.18203v267.22501z" fill-opacity="0.01" fill="#000000" stroke="none" stroke-width="0" stroke-linecap="butt"/><path d="M206.75008,307.5l15.14285,-131.8421l37.78325,-0.15789l13.57389,132z" fill="#73214c" stroke="#000000" stroke-width="2" stroke-linecap="butt"/><path d="M218.9503,214.36263l3.87142,-36.57765l35.83075,-0.14203l3.76735,36.1059c0,0 -14.31001,4.17734 -21.1187,4.27348c-7.59503,0.10724 -22.35082,-3.6597 -22.35082,-3.6597z" fill="#5e1b3e" stroke="#000000" stroke-width="0" stroke-linecap="butt"/><path d="M271.74276,84.17828c0.23859,5.79408 -21.9984,8.07861 -37.17338,8.7035c-15.17496,0.62488 -36.81728,1.1481 -37.05588,-4.64598c-0.23859,-5.79408 21.01687,-15.71135 36.19184,-16.33624c15.17496,-0.62488 37.79881,6.48464 38.03741,12.27872z" fill="#ffffff" stroke="#000000" stroke-width="2" stroke-linecap="butt"/><g stroke-linecap="butt"><g><path d="M136.96533,215.54685c0,0 22.91905,-23.07451 25.8441,-36.29015c4.58514,-20.71622 4.26507,-83.73022 6.97844,-100.4456c0.12877,-0.79332 32.1167,2.9413 64.58385,1.38252c32.77152,-1.5734 66.47322,-7.71578 66.47322,-7.71578c0,0 5.85544,75.77131 12.2671,99.8471c3.8938,14.62125 29.77197,32.48598 29.23042,32.49097c-2.83649,0.02617 -24.98736,-8.14314 -59.34327,-6.02284c-14.06728,0.86818 -29.5079,7.41527 -44.5324,7.86252c-15.83807,0.47146 -36.76775,-5.83838 -50.62765,-5.15829c-29.98437,1.4713 -50.87384,14.04956 -50.87384,14.04956z" fill="#d21869" stroke="#000000" stroke-width="2"/><path d="M169.80868,78.50918c0.12877,-0.79332 32.1167,2.94131 64.58385,1.38252c32.77152,-1.5734 66.47322,-7.71579 66.47322,-7.71579c0,0 0.48676,6.29892 1.33328,15.84154c-2.83022,1.02723 -5.53286,2.28071 -7.76864,4.16675c-0.77819,0.65646 -2.27428,1.61808 -2.56821,2.60008c-0.10146,-0.17171 -0.20289,-0.34346 -0.30435,-0.51516c-3.55805,-6.02163 -12.86965,-5.5014 -19.4994,-4.64548c-2.9272,0.37912 -6.17169,0.46248 -9.02269,1.15871c-3.83513,0.93656 -7.59225,2.93056 -11.13737,4.49844c-0.89042,0.62932 -3.49168,2.97084 -4.67458,2.89418c-0.5102,-0.03306 -0.55681,-0.7561 -0.77779,-1.16161c-0.61433,-1.12742 -1.12286,-2.1543 -2.01356,-3.13984c-1.71536,-1.898 -5.45747,-3.33409 -8.18483,-3.6815c-6.60386,-0.81436 -14.85012,-0.653 -21.10885,1.59581c-4.56542,1.64421 -8.16243,3.91908 -12.12007,6.47958c-0.58099,0.37589 -3.17827,2.58928 -3.72582,2.56446c-0.54242,-0.02459 -0.6555,-0.7601 -1.01331,-1.11775c-1.72257,-2.13051 -5.33267,-4.80931 -8.42849,-5.07458c-3.639,-0.31183 -7.54703,0.90179 -11.0875,1.53393c-3.79979,1.27784 -7.38598,2.31628 -10.63293,3.98893c0.44361,-9.3997 0.95234,-17.18249 1.67808,-21.65325z" fill="#ffffff" stroke="none" stroke-width="0"/><path d="M136.95925,215.39923c0,0 22.91905,-23.07452 25.8441,-36.29016c4.58514,-20.71622 4.26507,-83.73021 6.97844,-100.44559c0.12877,-0.79332 32.1167,2.94131 64.58385,1.38252c32.77152,-1.5734 66.47322,-7.71579 66.47322,-7.71579c0,0 5.85544,75.7713 12.2671,99.8471c3.8938,14.62125 29.77197,32.48598 29.23042,32.49097c-2.83649,0.02617 -24.98736,-8.14314 -59.34327,-6.02284c-14.06728,0.86818 -29.5079,7.41527 -44.5324,7.86252c-15.83807,0.47146 -36.76775,-5.83838 -50.62765,-5.15829c-29.98437,1.4713 -50.87384,14.04956 -50.87384,14.04956z" fill="none" stroke="#000000" stroke-width="2"/></g><path d="M182.89758,169.45326c0.54536,13.24362 -10.09125,24.43588 -23.75753,24.99864c-1.52083,0.06263 -3.0151,-0.00902 -4.47062,-0.20408c1.22075,-1.24639 4.40146,-2.96676 4.83175,-5.09133c0.59123,-0.99597 2.54373,-6.07884 3.50785,-10.65731c0.71188,-3.38052 0.43671,-6.31582 0.99292,-8.00746c1.90979,-5.8582 0.44003,-12.32233 1.38984,-18.34264c0.00384,-1.4639 0.06237,-3.01919 0.12348,-4.61809c9.72344,2.90938 16.95303,11.49767 17.38229,21.92226z" fill="#ffffff" stroke="none" stroke-width="0"/><path d="M307.42358,139.78575c0.19235,1.58846 0.37856,3.13368 0.50275,4.5923c1.4416,5.92182 0.50825,12.48492 2.89324,18.16626c0.69343,1.64019 0.66053,4.58819 1.64794,7.89871c1.3373,4.48369 3.70109,9.38882 4.3722,10.33281c0.60352,2.082 3.91492,3.53503 5.23399,4.67685c-1.43456,0.31408 -2.91787,0.50835 -4.43871,0.57096c-13.66628,0.56276 -25.18708,-9.71709 -25.73244,-22.9607c-0.42926,-10.4246 6.06971,-19.57822 15.52103,-23.27718z" data-paper-data="{&quot;index&quot;:null}" fill="#ffffff" stroke="none" stroke-width="0"/><g fill="none"><path d="M136.96533,215.54685c0,0 22.91905,-23.07451 25.8441,-36.29015c4.58514,-20.71622 4.26507,-83.73022 6.97844,-100.4456c0.12877,-0.79332 32.1167,2.9413 64.58385,1.38252c32.77152,-1.5734 66.47322,-7.71578 66.47322,-7.71578c0,0 5.85544,75.77131 12.2671,99.8471c3.8938,14.62125 29.77197,32.48598 29.23042,32.49097c-2.83649,0.02617 -24.98736,-8.14314 -59.34327,-6.02284c-14.06728,0.86818 -29.5079,7.41527 -44.5324,7.86252c-15.83807,0.47146 -36.76775,-5.83838 -50.62765,-5.15829c-29.98437,1.4713 -50.87384,14.04956 -50.87384,14.04956z" stroke="#000000" stroke-width="2"/><path d="M169.80868,78.50918c0.12877,-0.79332 32.1167,2.94131 64.58385,1.38252c32.77152,-1.5734 66.47322,-7.71579 66.47322,-7.71579c0,0 0.48676,6.29892 1.33328,15.84154c-2.83022,1.02723 -5.53286,2.28071 -7.76864,4.16675c-0.77819,0.65646 -2.27428,1.61808 -2.56821,2.60008c-0.10146,-0.17171 -0.20289,-0.34346 -0.30435,-0.51516c-3.55805,-6.02163 -12.86965,-5.5014 -19.4994,-4.64548c-2.9272,0.37912 -6.17169,0.46248 -9.02269,1.15871c-3.83513,0.93656 -7.59225,2.93056 -11.13737,4.49844c-0.89042,0.62932 -3.49168,2.97084 -4.67458,2.89418c-0.5102,-0.03306 -0.55681,-0.7561 -0.77779,-1.16161c-0.61433,-1.12742 -1.12286,-2.1543 -2.01356,-3.13984c-1.71536,-1.898 -5.45747,-3.33409 -8.18483,-3.6815c-6.60386,-0.81436 -14.85012,-0.653 -21.10885,1.59581c-4.56542,1.64421 -8.16243,3.91908 -12.12007,6.47958c-0.58099,0.37589 -3.17827,2.58928 -3.72582,2.56446c-0.54242,-0.02459 -0.6555,-0.7601 -1.01331,-1.11775c-1.72257,-2.13051 -5.33267,-4.80931 -8.42849,-5.07458c-3.639,-0.31183 -7.54703,0.90179 -11.0875,1.53393c-3.79979,1.27784 -7.38598,2.31628 -10.63293,3.98893c0.44361,-9.3997 0.95234,-17.18249 1.67808,-21.65325z" stroke="none" stroke-width="0"/><path d="M136.95925,215.39923c0,0 22.91905,-23.07452 25.8441,-36.29016c4.58514,-20.71622 4.26507,-83.73021 6.97844,-100.44559c0.12877,-0.79332 32.1167,2.94131 64.58385,1.38252c32.77152,-1.5734 66.47322,-7.71579 66.47322,-7.71579c0,0 5.85544,75.7713 12.2671,99.8471c3.8938,14.62125 29.77197,32.48598 29.23042,32.49097c-2.83649,0.02617 -24.98736,-8.14314 -59.34327,-6.02284c-14.06728,0.86818 -29.5079,7.41527 -44.5324,7.86252c-15.83807,0.47146 -36.76775,-5.83838 -50.62765,-5.15829c-29.98437,1.4713 -50.87384,14.04956 -50.87384,14.04956z" stroke="#000000" stroke-width="2"/></g></g><g stroke-linecap="butt"><path d="M182.53228,138.25353c-0.53356,-12.95701 9.53766,-23.89329 22.49467,-24.42685c12.95701,-0.53356 23.89329,9.53766 24.42685,22.49467c0.53356,12.95701 -9.53766,23.89329 -22.49467,24.42685c-12.95701,0.53356 -23.89329,-9.53766 -24.42685,-22.49467z" fill="#ffffff" stroke="#000000" stroke-width="2"/><path d="M189.58035,137.6874c-0.37557,-9.12036 6.71347,-16.8183 15.83382,-17.19386c9.12036,-0.37557 16.8183,6.71348 17.19386,15.83383c0.37557,9.12036 -6.71348,16.8183 -15.83383,17.19386c-9.12036,0.37557 -16.81829,-6.71348 -17.19385,-15.83382z" fill="#000000" stroke="none" stroke-width="0"/><path d="M193.97394,108.94948c0,0 6.49058,-5.44087 11.5254,-6.84354c5.03483,-1.40267 12.35245,0.19131 12.35245,0.19131c0,0 -8.0338,0.27048 -11.92202,1.35373c-4.06335,1.13204 -11.95584,5.2985 -11.95584,5.2985z" fill="#000000" stroke="none" stroke-width="0"/></g><g stroke-linecap="butt"><path d="M267.99917,158.23461c-12.95701,0.53356 -23.89329,-9.53766 -24.42685,-22.49467c-0.53356,-12.95701 9.53766,-23.89329 22.49467,-24.42685c12.95701,-0.53356 23.89329,9.53766 24.42685,22.49467c0.53356,12.95701 -9.53766,23.89329 -22.49467,24.42685z" data-paper-data="{&quot;index&quot;:null}" fill="#ffffff" stroke="#000000" stroke-width="2"/><path d="M267.58929,151.01694c-9.12035,0.37557 -16.81829,-6.71348 -17.19385,-15.83382c-0.37557,-9.12036 6.71348,-16.8183 15.83382,-17.19386c9.12035,-0.37557 16.81829,6.71348 17.19385,15.83382c0.37557,9.12036 -6.71348,16.8183 -15.83382,17.19386z" data-paper-data="{&quot;index&quot;:null}" fill="#000000" stroke="none" stroke-width="0"/><path d="M264.48429,101.23979c-3.96413,-0.75989 -11.99297,-0.36895 -11.99297,-0.36895c0,0 7.16181,-2.19023 12.29491,-1.20626c5.13309,0.98397 12.04904,5.87278 12.04904,5.87278c0,0 -8.20834,-3.50347 -12.35099,-4.29759z" data-paper-data="{&quot;index&quot;:null}" fill="#000000" stroke="none" stroke-width="0"/></g><path d="M182.73609,137.99491c-0.53356,-12.95701 9.49292,-23.89145 22.39476,-24.42274c12.90184,-0.53129 23.79339,9.54178 24.32694,22.4988c0,0 -6.82022,-4.17507 -15.43681,-5.62859c-2.31527,-0.39055 -5.81515,-0.54118 -8.08405,-0.41354c-2.64289,0.14869 -6.61987,0.82173 -9.01654,1.46701c-8.93495,2.40566 -14.1628,7.02143 -14.18432,6.49903z" fill="#d21869" stroke="#000000" stroke-width="2" stroke-linecap="butt"/><path d="M290.81128,133.67795c0.02152,0.52239 -5.59127,-3.64698 -14.73233,-5.30827c-2.45198,-0.44563 -6.48791,-0.78872 -9.1454,-0.71913c-2.28141,0.05974 -5.77199,0.4982 -8.05712,1.07821c-8.50443,2.15854 -14.98671,6.8814 -14.98671,6.8814c-0.53356,-12.95701 9.53766,-23.89329 22.49467,-24.42685c12.95701,-0.53356 23.89329,9.53766 24.42685,22.49467z" data-paper-data="{&quot;index&quot;:null}" fill="#d21869" stroke="#000000" stroke-width="2" stroke-linecap="butt"/><path d="M180.02734,118.36372l6.53418,3.73432" fill="none" stroke="#000000" stroke-width="2" stroke-linecap="round"/><path d="M193.7422,116.21429l-1.78332,-6.8491" fill="none" stroke="#000000" stroke-width="2" stroke-linecap="round"/><g fill="none" stroke="#000000" stroke-width="2" stroke-linecap="round"><path d="M293.11824,115.20804l-6.20501,4.25891" data-paper-data="{&quot;index&quot;:null}"/><path d="M280.4873,107.22098l-1.21415,6.97253" data-paper-data="{&quot;index&quot;:null}"/></g><path d="M250.09451,176.90822c0,0 -3.92863,4.16518 -12.72927,4.67053c-7.25484,0.41661 -12.35905,-3.63742 -12.35905,-3.63742" fill="none" stroke="#000000" stroke-width="2" stroke-linecap="round"/></g></g></svg>