<svg version="1.1" xmlns="http://www.w3.org/2000/svg" xmlns:xlink="http://www.w3.org/1999/xlink" width="192.60031" height="370.72034" viewBox="0,0,192.60031,370.72034"><defs><linearGradient x1="239.72616" y1="174.30005" x2="239.72616" y2="306.30003" gradientUnits="userSpaceOnUse" id="color-1"><stop offset="0" stop-color="#000000"/><stop offset="1" stop-color="#79c5d8"/></linearGradient><linearGradient x1="240.19421" y1="189.71086" x2="240.19421" y2="202.37753" gradientUnits="userSpaceOnUse" id="color-2"><stop offset="0" stop-color="#000000"/><stop offset="1" stop-color="#5e97a5"/></linearGradient><linearGradient x1="240.19876" y1="210.21899" x2="240.19876" y2="239.08437" gradientUnits="userSpaceOnUse" id="color-3"><stop offset="0" stop-color="#000000"/><stop offset="1" stop-color="#ffff00"/></linearGradient><linearGradient x1="241.89768" y1="63.39675" x2="244.77058" y2="125.54846" gradientUnits="userSpaceOnUse" id="color-4"><stop offset="0" stop-color="#000000"/><stop offset="1" stop-color="#f6f5f6"/></linearGradient><linearGradient x1="243.86717" y1="115.63406" x2="252.39484" y2="198.30179" gradientUnits="userSpaceOnUse" id="color-5"><stop offset="0" stop-color="#000000"/><stop offset="1" stop-color="#d75454"/></linearGradient><linearGradient x1="216.50086" y1="118.21266" x2="218.96641" y2="142.11382" gradientUnits="userSpaceOnUse" id="color-6"><stop offset="0" stop-color="#000000"/><stop offset="1" stop-color="#ec3434"/></linearGradient><linearGradient x1="270.8336" y1="111.35128" x2="273.29913" y2="135.25244" gradientUnits="userSpaceOnUse" id="color-7"><stop offset="0" stop-color="#000000"/><stop offset="1" stop-color="#ec3434"/></linearGradient><linearGradient x1="247.65481" y1="173.83975" x2="248.2441" y2="185.83893" gradientUnits="userSpaceOnUse" id="color-8"><stop offset="0" stop-color="#000000"/><stop offset="1" stop-color="#ffffff"/></linearGradient></defs><g transform="translate(-122.04503,64.42032)"><g data-paper-data="{&quot;isPaintingLayer&quot;:true}" fill-rule="nonzero" stroke-linejoin="miter" stroke-miterlimit="10" stroke-dasharray="" stroke-dashoffset="0" style="mix-blend-mode: normal"><path d="M206.47617,306.30001l15.14285,-131.8421l37.78325,-0.15789l13.57389,132z" fill="url(#color-1)" stroke="none" stroke-width="2" stroke-linecap="butt"/><path d="M218.11293,201.37752c0,0 -0.86037,-1.64644 -1.18821,-3.42169c-0.34066,-1.84471 -0.14619,-3.82852 0.02426,-4.24864c0.80908,-1.99419 2.99728,-3.99633 2.99728,-3.99633l40.16666,0.5c0,0 2.58695,1.45609 3.27161,3.19102c0.40553,1.02761 0.22839,2.86943 0.22839,3.47565c0,0.73804 -0.05964,2.54278 -1.11019,3.48972c-1.03264,0.9308 -3.05648,2.01028 -3.05648,2.01028z" fill="url(#color-2)" stroke="none" stroke-width="2" stroke-linecap="butt"/><path d="M249.68931,238.887c-0.62016,0.45845 -9.37984,-4.83026 -9.37984,-4.83026c0,0 -8.55454,5.5227 -9.29851,4.99165c-0.70482,-0.50263 1.69445,-10.41655 1.69445,-10.41655c0,0 -7.79039,-6.76005 -7.61958,-7.30111c0.17273,-0.54769 10.4295,-1.60702 10.4295,-1.60702c0,0 3.98902,-9.49914 4.58738,-9.50471c0.64722,-0.00567 4.75443,9.42378 4.75443,9.42378c0,0 10.32385,1.038 10.45386,1.42773c0.18992,0.56532 -7.49126,7.43109 -7.49126,7.43109c0,0 2.20947,10.13468 1.86957,10.3854z" fill="url(#color-3)" stroke="none" stroke-width="0" stroke-linecap="butt"/><path d="M309.02491,116.83282c0.04216,0.91208 -6.9445,6.02027 -7.32888,6.70206c-4.10376,7.27916 -24.82904,-2.00955 -56.99003,-0.52294c-35.1733,1.62585 -64.33522,8.10461 -64.8275,-2.54529c-0.25054,-5.42017 -15.3423,-42.74252 -14.47209,-43.53575c0.04434,-0.04042 25.61092,23.00836 25.64082,22.98204c0.1053,-0.09269 22.12201,-35.00165 22.55448,-34.89057c0.79731,0.20479 19.57725,25.25021 19.93817,24.59753c1.03995,-1.88062 27.60001,-45.0925 28.05663,-44.56218c4.44404,5.1613 18.7653,42.3842 20.33088,41.80405c0.10042,-0.03721 -0.69558,5.50086 0.78415,4.60863c7.66224,-4.6201 31.92451,-24.55934 31.93341,-24.55509c0.055,0.0263 -5.62002,49.91751 -5.62002,49.91751z" fill="url(#color-4)" stroke="none" stroke-width="2" stroke-linecap="butt"/><g fill="#000000" stroke="none" stroke-width="0" stroke-linecap="butt"><path d="M220.93443,161.8654c0,0 8.76203,-21.91002 2.75455,-42.87399c-1.62183,-5.65965 -5.34993,-23.94753 -12.48718,-40.21715c-7.1521,-16.30344 -48.72877,-68.82652 -48.72877,-68.82652l47.99175,-18.46832c0,0 12.95096,9.69212 25.25016,27.46587c4.61435,6.66828 9.13698,14.47409 12.84953,23.33239c5.64201,13.46207 15.38876,41.2716 18.55192,49.49137c6.97687,18.1301 1.8098,51.62803 1.8098,51.62803z"/><path d="M219.87633,-9.87727c2.40228,6.24259 7.57116,29.34321 5.15151,35.48766c-3.28202,8.33438 -15.95042,-0.75275 -25.76076,3.0225c-5.72873,2.20455 5.64235,19.68816 0.14158,19.10974c-10.86402,-1.14236 -37.4923,-24.10391 -41.25029,-33.8694c-5.66077,-14.71006 3.56631,-31.95165 20.60925,-38.51016c17.04294,-6.55852 35.44795,0.04962 41.10871,14.75968z"/><path d="M122.81241,-3.72508c6.36401,0.53428 20.60704,7.03594 25.99249,6.95777c8.28527,-0.12028 23.99851,-2.53102 23.99851,-2.53102l-6.00002,23.11251c0,0 -16.31978,-3.60732 -23.80448,-7.76186c-3.41989,-1.89827 -9.32739,-3.63898 -13.71295,-7.70217c-5.41846,-5.02015 -8.85384,-12.27507 -6.47355,-12.07523z" data-paper-data="{&quot;index&quot;:null}"/><path d="M149.23269,-48.59769c4.32928,3.98027 10.42757,17.38656 14.45006,20.30523c6.18841,4.49022 19.40208,11.15566 19.40208,11.15566l-20.06451,16.2687c0,0 -9.58786,-12.10361 -12.2931,-19.77419c-1.23607,-3.50485 -4.4124,-8.25486 -4.89511,-14.13027c-0.5964,-7.25921 1.78135,-15.31384 3.40061,-13.82512z" data-paper-data="{&quot;index&quot;:null}"/><path d="M207.76858,-63.90424c0.02308,5.82992 -5.71154,20.32898 -5.11369,25.1174c0.91976,7.36678 5.04433,20.74106 5.04433,20.74106l-25.77594,0.9633c0,0 2.38058,-15.56213 6.19882,-23.3832c1.74463,-3.57359 3.08066,-9.32581 7.09426,-14.35401c4.9589,-6.21248 12.5436,-11.26508 12.55224,-9.08454z" data-paper-data="{&quot;index&quot;:null}"/><path d="M260.94061,-25.59738c-4.93152,4.17894 -20.52865,10.54866 -24.2461,14.38318c-5.71915,5.89922 -14.68984,18.3143 -14.68984,18.3143l-15.64707,-17.21695c0,0 14.56908,-9.45864 23.39952,-12.39107c4.03478,-1.33987 9.68235,-4.51926 16.25635,-5.32173c8.12233,-0.99145 16.77168,0.66928 14.92715,2.2323z" data-paper-data="{&quot;index&quot;:null}"/></g><path d="M182.11416,144.93336c-0.46992,-4.55542 -2.76501,-16.3319 1.07935,-20.06612c2.46581,-2.39517 45.04243,-7.36577 58.43406,-8.97406c20.16379,-2.42159 62.97539,-3.9822 64.586,-2.54562c2.93054,2.61388 3.82894,14.81951 4.1933,18.35164c3.41716,33.12607 -22.53202,62.94261 -57.95906,66.59713c-35.42705,3.65452 -66.91651,-20.23691 -70.33366,-53.36297z" fill="url(#color-5)" stroke="none" stroke-width="2" stroke-linecap="butt"/><path d="M307.91924,113.39183c0.45537,4.41441 -32.62835,8.57167 -64.12553,11.82079c-31.49718,3.24912 -61.49045,4.88059 -61.94582,0.46617c-0.45537,-4.41441 30.0857,-7.2323 61.58289,-10.48142c31.49718,-3.24912 64.0331,-6.21995 64.48847,-1.80553z" fill="#000000" stroke="none" stroke-width="2" stroke-linecap="butt"/><path d="M188.48508,133.82438c-0.19485,-0.24263 -0.3933,-0.48566 -0.59504,-0.7297c-0.55909,-0.67631 -1.20528,-1.41886 -1.70774,-2.21002c0.07464,0.76558 0.34788,1.49922 0.92418,2.17061c0.4098,0.2419 0.8806,0.49878 1.37862,0.7691zM185.92611,127.14825c0.39151,-1.15907 -4.52944,-1.00614 -4.2323,-2.14754c0.73009,-2.80437 7.94734,-7.90303 8.23585,-7.7323c0.2249,0.13309 4.44335,-1.24671 4.78864,-1.40031c6.69332,-0.73091 13.33445,-0.71182 20.04185,-1.40372c6.84568,-0.70617 13.50659,-1.07274 20.38808,-1.0946c2.40358,-0.04727 4.80679,-0.13443 7.21027,-0.23515c1.94076,-3.08545 3.39064,-6.9859 7.43383,-6.7141c0.02892,0.1002 0.78132,2.06082 1.27415,1.30437c0.74507,-1.14364 0.76469,-2.86649 1.12766,-4.14353c0.81979,-2.88428 1.82117,-6.20189 3.71125,-8.55537c3.36907,-4.08023 4.5475,3.96712 4.54864,6.14462c0.00068,1.30092 -0.64984,2.79378 -1.11244,4.00311c-0.17163,0.44866 -0.84365,1.11932 -0.43607,1.37355c0.23876,0.14893 1.40683,-0.10254 1.59031,-0.12146c2.89085,0.07972 0.77215,3.86377 -0.06902,5.06669c-0.18142,0.25944 -0.36508,0.51138 -0.55116,0.75604c5.41848,-0.37452 10.85197,-0.54178 16.25227,-1.09858c6.96516,-0.71815 13.98682,-0.77743 20.93517,-1.48768c2.0831,-0.21204 6.65577,-0.73286 8.23489,1.08967c0.32973,0.38056 0.60538,1.99446 0.73786,2.47391c0.82194,2.97473 1.91125,6.44584 2.23441,9.52033c0.72373,7.01588 0.96536,13.73576 -0.57463,20.65582c-0.43763,2.1193 -1.6291,11.15568 -5.72276,7.82761c-2.0589,-1.67384 0.35615,-7.52684 0.92285,-9.54786c0.98682,-3.51064 0.69433,-6.79349 0.20257,-10.37382c-0.13688,-0.99661 -0.23263,-3.36727 -0.8313,-4.16001c-0.247,-0.32706 -0.43987,0.69168 -0.65923,1.03788c-0.56432,0.89068 -1.13904,1.43326 -1.51137,2.43655c-0.52244,1.37849 -2.67332,6.55167 -4.89961,4.15452c-0.4272,-0.45998 -0.36492,-2.61776 -0.43172,-3.2653c-0.3664,-3.55183 -0.73149,-7.10381 -1.10001,-10.65542c-0.28732,-2.54332 -2.47939,-2.89688 -4.68528,-3.01162c-4.50047,-0.23412 -9.00065,-0.64408 -13.47167,-1.28411c-6.8246,-0.97317 -13.82709,-1.63413 -18.85219,3.97794c-2.86658,3.20142 -6.11989,7.35075 -6.76784,11.7354c-0.32371,2.19044 0.18828,4.67025 0.43217,6.84922c0.76695,6.85207 3.08123,13.23136 4.39478,19.95438c0.33576,3.23129 1.20116,7.66748 -0.77834,10.51237c-1.39844,2.0098 -4.71205,1.81919 -5.93438,-0.31637c-0.71162,-1.24327 -0.53574,-2.92837 -0.2715,-4.25682c0.4687,-3.25264 1.2825,-5.99265 0.93986,-9.31411c-0.1026,-0.99462 -0.21229,-1.98885 -0.30783,-2.98417c-0.03746,-0.39032 0.16975,-1.51067 -0.03426,-1.17581c-1.59757,2.62217 -2.93848,-0.00696 -3.81584,-1.72679c-0.84111,-1.32601 -1.99016,-2.91452 -2.57133,-4.33178c-0.94713,-2.30963 -0.16815,-5.19718 -0.12819,-7.55423c0.04051,-2.38863 -0.94928,-4.66628 -1.58722,-6.92456c-0.2561,-0.90829 -0.52134,-1.89735 -0.94168,-2.74706c-1.00607,-2.0338 -2.63273,-2.1267 -4.48215,-0.86522c-3.07437,2.09702 -2.7786,6.40265 -7.2907,6.86747c-3.51457,0.20217 -3.00587,-4.25056 -3.5765,-6.68391c-1.15822,-4.93908 -4.1558,-6.40504 -8.86622,-4.81627c-6.93267,2.26531 -8.61739,10.06656 -8.86096,16.29238c-0.26282,6.50018 1.17293,13.70916 2.41967,20.07319c1.32759,6.77679 2.34133,13.47232 2.92711,20.35775c0.0989,1.2109 0.13145,3.25088 -0.68973,4.27158c-0.75452,0.93785 -5.32127,1.2823 -6.30254,0.63838c-0.88232,-0.57899 -0.76305,-2.39038 -0.85445,-3.27643c-0.25986,-2.51906 -0.51454,-5.0387 -0.7826,-7.5569c-0.25788,-2.4225 -0.21898,-7.52294 -2.01813,-9.36704c-1.2568,-1.28819 -3.08054,1.67298 -4.14782,2.04501c-1.74752,0.60914 -2.66768,-1.89815 -3.27174,-3.07257c-0.23974,-2.15024 -0.92298,-4.8562 -0.48748,-7.00508c0.30764,-1.51801 1.1413,-3.12898 1.29516,-4.66783c0.24865,-2.48689 -0.46121,-6.01897 -0.99356,-8.46589c-0.60796,-2.80483 -1.8001,-5.08427 -3.34794,-7.26845c-1.21819,-0.71579 -2.56232,-1.37338 -3.49946,-1.94495c-1.24828,-1.54628 -1.36899,-3.14407 -1.05711,-4.75425c-0.0991,-0.51496 -0.08373,-1.04287 0.0968,-1.57984c0,0 0.12208,-0.32348 0.43218,-0.33094zM192.16216,137.35578c0.29467,0.51672 0.56856,1.0445 0.8193,1.58767c-0.12575,-0.54505 -0.32893,-1.04724 -0.67637,-1.43566c-0.04547,-0.05082 -0.09316,-0.1015 -0.14293,-0.15201zM246.09575,109.19208c-0.23813,0.28361 -0.46306,0.58327 -0.67895,0.89396c0.16616,-0.2144 0.34198,-0.42226 0.53916,-0.61451z" fill="#000000" stroke="none" stroke-width="0.5" stroke-linecap="butt"/><path d="M195.63646,143.97016c-1.33066,-12.89954 8.04778,-24.43543 20.94732,-25.76609c12.89954,-1.33066 24.43543,8.04778 25.76609,20.94732c1.33066,12.89954 -8.04778,24.43543 -20.94732,25.76609c-12.89954,1.33066 -24.43543,-8.04778 -25.76609,-20.94732z" fill="#ff0000" stroke="none" stroke-width="2" stroke-linecap="butt"/><path d="M275.62324,159.32431c-12.89954,1.33066 -24.43543,-8.04778 -25.76609,-20.94732c-1.33066,-12.89954 8.04778,-24.43543 20.94732,-25.76609c12.89954,-1.33066 24.43543,8.04778 25.76609,20.94732c1.33066,12.89954 -8.04778,24.43543 -20.94732,25.76609z" data-paper-data="{&quot;index&quot;:null}" fill="#ff0000" stroke="none" stroke-width="2" stroke-linecap="butt"/><path d="M196.26952,146.91782c1.25002,-0.08416 45.77292,-4.12241 46.03231,-4.12497c-0.15384,3.52014 -0.49581,6.38482 -2.08013,9.48117c-3.55424,6.9463 -10.63447,11.39065 -18.62216,12.21462c-11.81475,1.21876 -22.80983,-6.08098 -25.33003,-17.57081z" data-paper-data="{&quot;index&quot;:null}" fill="#ff5d5d" stroke="none" stroke-width="2" stroke-linecap="butt"/><path d="M202.63625,142.97102c-0.93665,-9.0799 5.66476,-17.1999 14.74464,-18.13654c9.0799,-0.93665 17.1999,5.66477 18.13654,14.74465c0.93665,9.0799 -5.66477,17.1999 -14.74465,18.13654c-9.0799,0.93665 -17.19989,-5.66477 -18.13653,-14.74465z" fill="#000000" stroke="none" stroke-width="0" stroke-linecap="butt"/><path d="M296.4505,136.58355c-0.1216,11.76233 -9.39497,21.15289 -21.20972,22.37166c-7.98769,0.82397 -15.82608,-2.08142 -20.7235,-8.15589c-2.18306,-2.70773 -3.10262,-5.44227 -3.97181,-8.85688c0.25446,-0.05044 44.66414,-5.18612 45.90502,-5.3589z" data-paper-data="{&quot;index&quot;:null}" fill="#ff5d5d" stroke="none" stroke-width="2" stroke-linecap="butt"/><path d="M274.52088,152.17124c-9.07989,0.93665 -17.19989,-5.66477 -18.13653,-14.74465c-0.93665,-9.0799 5.66477,-17.1999 14.74464,-18.13654c9.07989,-0.93665 17.19989,5.66477 18.13653,14.74465c0.93665,9.0799 -5.66477,17.1999 -14.74464,18.13654z" data-paper-data="{&quot;index&quot;:null}" fill="#000000" stroke="none" stroke-width="0" stroke-linecap="butt"/><g fill="none" stroke="#ff0000" stroke-width="1" stroke-linecap="butt"><path d="M225.67102,149.2775c-0.35119,0.32027 -6.05568,-2.36798 -6.05568,-2.36798c0,0 -4.89503,3.92662 -5.38469,3.6481c-0.46387,-0.26357 0.38004,-6.49291 0.38004,-6.49291c0,0 -5.20331,-3.65153 -5.13281,-3.99402c0.07125,-0.34668 6.29208,-1.64472 6.29208,-1.64472c0,0 1.84472,-6.07561 2.21118,-6.11687c0.39642,-0.0444 3.5106,5.47649 3.5106,5.47649c0,0 6.39458,-0.01653 6.49892,0.21417c0.15218,0.33455 -4.1225,5.0293 -4.1225,5.0293c0,0 1.99539,6.07324 1.80288,6.24844z"/><path d="M222.61208,146.02082c-0.18857,0.17195 -3.25133,-1.27138 -3.25133,-1.27138c0,0 -2.62816,2.10822 -2.89106,1.95869c-0.24906,-0.14151 0.20404,-3.48608 0.20404,-3.48608c0,0 -2.79369,-1.96052 -2.75584,-2.1444c0.03825,-0.18614 3.37825,-0.88306 3.37825,-0.88306c0,0 0.99044,-3.26202 1.18719,-3.28418c0.21284,-0.02385 1.88486,2.94036 1.88486,2.94036c0,0 3.43328,-0.00888 3.4893,0.11498c0.08171,0.17962 -2.2134,2.70025 -2.2134,2.70025c0,0 1.07134,3.26075 0.96797,3.35482z"/></g><g data-paper-data="{&quot;index&quot;:null}" fill="none" stroke="#ff0000" stroke-width="1" stroke-linecap="butt"><path d="M268.6647,137.70434c0,0 -5.14305,-3.72324 -5.06237,-4.08182c0.05506,-0.24714 6.31835,-1.53634 6.31835,-1.53634c0,0 1.92159,-6.04037 2.31871,-6.07782c0.36718,-0.03441 3.41332,5.53667 3.41332,5.53667c0,0 6.3548,0.00079 6.49533,0.32562c0.13893,0.32089 -4.20939,4.95773 -4.20939,4.95773c0,0 2.09779,5.92591 1.6975,6.2786c-0.4225,0.3726 -6.01602,-2.47206 -6.01602,-2.47206c0,0 -5.03559,3.79615 -5.44476,3.55432c-0.22423,-0.13221 0.48936,-6.4849 0.48936,-6.4849z"/><path d="M270.76779,136.89488c0,0 -2.76134,-1.99903 -2.71801,-2.19154c0.02956,-0.1327 3.39235,-0.82487 3.39235,-0.82487c0,0 1.03171,-3.24311 1.24493,-3.26321c0.19714,-0.01847 1.83264,2.97267 1.83264,2.97267c0,0 3.41192,0.00042 3.48738,0.17483c0.07459,0.17229 -2.26005,2.66182 -2.26005,2.66182c0,0 1.12632,3.18165 0.9114,3.37101c-0.22684,0.20006 -3.23004,-1.32727 -3.23004,-1.32727c0,0 -2.70363,2.03817 -2.92331,1.90833c-0.12039,-0.07098 0.26274,-3.48178 0.26274,-3.48178z"/></g><path d="M192.81414,137.59447l2.42734,1.29107" fill="none" stroke="#000000" stroke-width="1" stroke-linecap="round"/><path d="M294.81642,125.54763l2.11267,-1.7594" data-paper-data="{&quot;index&quot;:null}" fill="none" stroke="#000000" stroke-width="1" stroke-linecap="round"/><path d="M195.55355,143.97872c-1.33066,-12.89954 8.04778,-24.43543 20.94732,-25.76609c12.89954,-1.33066 24.43543,8.04778 25.76609,20.94732c0,0 -21.2763,0.40591 -31.57561,1.63137c-12.75513,1.51767 -15.0679,3.86517 -15.13781,3.18739z" fill="url(#color-6)" stroke="none" stroke-width="0" stroke-linecap="butt"/><path d="M296.5997,132.29857c0.06992,0.67778 -4.61251,-2.89166 -17.40885,-1.77354c-10.33259,0.90284 -29.30457,6.5923 -29.30457,6.5923c-1.33066,-12.89954 8.04778,-24.43543 20.94732,-25.76609c12.89954,-1.33066 24.43543,8.04778 25.76609,20.94732z" data-paper-data="{&quot;index&quot;:null}" fill="url(#color-7)" stroke="none" stroke-width="0" stroke-linecap="butt"/><path d="M308.31441,136.02143c0.05195,0.50359 -0.27707,0.95012 -0.73487,0.99734c-0.45781,0.04722 -0.87105,-0.32273 -0.92299,-0.82633c-0.05195,-0.50359 0.27707,-0.95012 0.73487,-0.99734c0.45781,-0.04722 0.87105,0.32273 0.92299,0.82633z" fill="#000000" stroke="none" stroke-width="0" stroke-linecap="butt"/><path d="M249.34078,103.05265c0.02833,0.27468 -0.44972,0.54904 -1.06775,0.6128c-0.61804,0.06376 -1.14203,-0.10725 -1.17037,-0.38193c-0.02833,-0.27468 0.44972,-0.54904 1.06775,-0.6128c0.61804,-0.06376 1.14203,0.10725 1.17037,0.38193z" fill="#000000" stroke="none" stroke-width="0" stroke-linecap="butt"/><g><g fill="url(#color-8)" stroke="none" stroke-width="0" stroke-linecap="butt"><path d="M268.3298,172.87099c0.04841,0.98545 0.94334,3.37311 -2.03197,5.9321c-0.70184,0.60363 -8.36879,6.0853 -14.69319,6.97672c-7.9996,1.12754 -14.98411,-2.40347 -15.56138,-2.68344c-5.60013,-2.71605 -8.9801,-6.59048 -9.05826,-8.18201c-0.02041,-0.41602 10.20898,1.25652 20.53818,0.74602c10.65992,-0.52685 20.7924,-3.07894 20.80661,-2.78939z"/></g><path d="M233.53947,181.60518l4.71156,-1.87843l4.14893,1.55119l4.111,-2.03397l4.38576,1.99984l4.80464,-2.98652l4.4915,2.0868l3.93334,-1.84161l1.78476,0.28344" fill="none" stroke="#000000" stroke-width="0.5" stroke-linecap="round"/></g><path d="M210.52708,166.03953l0.76018,-2.37627" fill="none" stroke="#000000" stroke-width="0.5" stroke-linecap="round"/><path d="M217.35702,168.20729l-0.49392,-3.39581" fill="none" stroke="#000000" stroke-width="0.5" stroke-linecap="round"/><path d="M288.00102,159.53761l-1.09628,-4.53645" fill="none" stroke="#000000" stroke-width="0.5" stroke-linecap="round"/><path d="M294.06514,153.75986l-2.47293,-3.26348" fill="none" stroke="#000000" stroke-width="0.5" stroke-linecap="round"/></g></g></svg>