<svg version="1.1" xmlns="http://www.w3.org/2000/svg" xmlns:xlink="http://www.w3.org/1999/xlink" width="128.47404" height="243.32475" viewBox="0,0,128.47404,243.32475"><defs><linearGradient x1="240.00007" y1="175.50002" x2="240.00007" y2="307.50002" gradientUnits="userSpaceOnUse" id="color-1"><stop offset="0" stop-color="#000000"/><stop offset="1" stop-color="#ffdeb4"/></linearGradient><linearGradient x1="240.00007" y1="175.50002" x2="240.00007" y2="307.50002" gradientUnits="userSpaceOnUse" id="color-2"><stop offset="0" stop-color="#000000"/><stop offset="1" stop-color="#ffdeb4"/></linearGradient><linearGradient x1="240.077" y1="77.5588" x2="240.077" y2="202.08737" gradientUnits="userSpaceOnUse" id="color-3"><stop offset="0" stop-color="#000000"/><stop offset="1" stop-color="#ffdeb4"/></linearGradient><linearGradient x1="240.29883" y1="82.5588" x2="240.29883" y2="197.82451" gradientUnits="userSpaceOnUse" id="color-4"><stop offset="0" stop-color="#000000"/><stop offset="1" stop-color="#f5f5f5"/></linearGradient><linearGradient x1="244.57439" y1="136.29923" x2="244.57439" y2="160.72725" gradientUnits="userSpaceOnUse" id="color-5"><stop offset="0" stop-color="#d16f6f" stop-opacity="0"/><stop offset="1" stop-color="#d16f6f"/></linearGradient><linearGradient x1="252.15591" y1="64.17528" x2="252.15591" y2="98.97012" gradientUnits="userSpaceOnUse" id="color-6"><stop offset="0" stop-color="#a79276"/><stop offset="1" stop-color="#000000"/></linearGradient></defs><g transform="translate(-175.83998,-64.17528)"><g data-paper-data="{&quot;isPaintingLayer&quot;:true}" fill-rule="nonzero" stroke-linejoin="miter" stroke-miterlimit="10" stroke-dasharray="" stroke-dashoffset="0" style="mix-blend-mode: normal"><g stroke="none" stroke-linecap="butt"><path d="M228.94143,266.12698c2.34249,-2.99237 3.65562,1.14346 3.65562,3.04235c0,0.33346 0,0.66691 0,1.00036c0.28554,-0.77878 0.64838,-1.56629 0.76337,-2.11524c0.45391,-2.16684 0.3861,-4.76114 1.26742,-6.80788c0.50219,-1.16627 1.05881,-1.96598 1.39888,-2.92046c-0.35287,0.17604 -0.72588,0.22512 -1.12101,0.05516c-1.62489,-0.69894 -0.80978,-6.08265 -0.80696,-7.6707c-0.46273,-2.71678 -1.31139,-5.57711 -2.10905,-8.21848c-0.07081,-0.23447 -0.52086,-1.02507 -0.6422,-1.58971c-0.16634,0.52498 -0.42694,1.26304 -0.51532,1.63796c-0.34103,1.44672 -0.81968,2.83832 -1.12241,4.29943c-1.3175,6.35894 -0.88176,12.95387 -0.86332,19.42324c0.02902,-0.04669 0.06058,-0.0921 0.09497,-0.13603zM241.36327,281.91346c-0.04341,3.2513 -0.26622,6.49121 -0.26622,9.75588v0.5c0,0.27614 -0.22386,0.5 -0.5,0.5c-0.27614,0 -0.5,-0.22386 -0.5,-0.5v-0.35706c-1.02894,0.0768 -2.73592,-0.6906 -3.59888,-0.93689c-1.56617,-0.44699 -2.89085,-0.99406 -4.02122,-1.68842c0.32975,1.03741 0.55193,2.06327 0.26762,2.53567c-0.41962,0.69723 -3.45416,0.44671 -4.14751,0.44671c-3.63988,0 -7.45877,0.31816 -11.06974,-0.12982c-1.07689,-0.1357 -2.26737,0.21715 -2.8922,-0.92883c-0.60281,-1.10559 0.44775,-3.21369 0.74961,-4.24876c1.11693,-3.8298 2.46233,-7.65041 2.46233,-11.69259c0,-6.54485 0.00007,-13.08972 -0.00004,-19.63457c-0.00008,-4.29245 0.1074,-8.63809 -0.57341,-12.89409c-0.25842,-1.61552 -1.43087,-3.50602 -0.2801,-4.82489c0,0 0.27696,-0.27696 0.58575,-0.09549c0.04925,-0.42449 0.16072,-0.81914 0.3895,-1.12789c1.67453,-2.25988 6.1086,-2.70411 8.49815,-3.65583c6.47439,-0.9782 12.78802,-2.76724 19.38015,-2.76724c5.02749,0 15.33713,-0.97256 17.92787,4.52297c2.71078,5.84199 2.07213,13.41184 2.07213,19.72703c0,1.63527 0.16706,5.42964 -1.20764,6.65562c-0.75622,0.67441 -2.94911,-0.14244 -3.2543,-0.96428c-0.93354,-2.51394 0.61589,-5.84082 -0.21339,-8.42848c-1.1574,-1.30928 -3.22009,1.4165 -3.60349,2.40442c-1.21589,3.13309 -0.40232,8.99644 -0.07317,12.28793c0.40704,4.09737 2.06318,8.90113 4.16524,12.45421c1.26313,2.13505 2.9388,3.23131 2.93543,5.87689c-0.65372,4.51355 -3.28863,10.06803 -7.5149,12.40567c-1.59653,0.88307 -3.77414,0.55888 -5.51922,0.55676c-8.26308,-1.16724 -9.22456,-7.38554 -9.21285,-14.53999c0.43198,-2.64125 0.44808,-5.18704 1.69426,-7.65213c1.82283,-3.60579 3.92975,-6.69335 4.86856,-10.70902c0.98073,-4.17572 0.84654,-10.09225 -0.08569,-14.26295c-0.27028,-1.20922 -0.32438,-3.73023 -1.59372,-4.34803c-2.79501,0.05886 -2.88512,2.03871 -2.88512,4.51337c0,4.10027 0.00122,8.22602 -0.33622,12.30862c-0.32908,3.9615 0.34275,8.58495 -0.81366,12.40718c-0.46527,1.53785 -1.11703,2.05032 -1.76835,1.94877c-0.024,1.52738 -0.04684,3.05399 -0.06555,4.57955zM217.55042,238.70984c-0.1533,0.31451 -0.09137,0.84697 0.04663,1.42661v-0.21712c0,-0.35448 -0.03342,-0.77583 -0.04663,-1.2095z" fill="#000000" stroke-width="0.5"/><path d="M221.89292,175.65791l37.78325,-0.15789l6.81487,66.27162c-1.28397,-0.55861 -2.55089,-1.16511 -3.80248,-1.85759c-0.61626,-0.37436 -1.41604,-1.06546 -2.13631,-1.19725c-1.95929,-0.35851 -2.36175,3.7509 -2.95882,4.67237c-0.30602,0.47229 -1.01319,-0.49788 -1.54694,-0.67628c-2.99008,-0.99745 -5.91339,-2.1424 -8.6616,-3.66988c-0.29056,-0.1615 -0.57917,-0.32727 -0.86569,-0.49759c-1.61221,0.64726 -3.07435,1.27072 -4.56073,2.1981c-0.50572,0.31553 -1.43244,1.22025 -2.01252,1.29433c-0.60165,0.07683 -2.00715,-0.71924 -2.6664,-0.86954c-2.84506,-1.20382 -6.76525,-0.14406 -9.29638,1.87701c-0.67072,-0.39602 -1.80356,-0.34681 -2.59339,-0.64246c-1.9434,-0.72744 -4.7529,-3.34338 -6.81612,-2.59848c-1.48227,0.66521 -2.88218,1.41506 -4.29376,2.13675z" fill="url(#color-1)" stroke-width="0"/><path d="M206.75007,307.50001l2.95471,-25.72531c1.91035,-0.10019 3.87204,-0.15904 5.83481,-0.2227c0.88151,0.32213 1.757,0.66375 2.62988,1.0129c1.1121,0.44481 3.79588,2.59927 4.80717,2.60125c1.44544,0.00283 0.89047,-2.99428 2.81281,-1.71211c3.06293,1.59141 6.4733,2.01952 9.81222,2.65438c0.62849,0.11941 2.26286,0.81175 2.82133,0.58654c1.11046,-0.44781 1.9667,-1.63891 3.25664,-1.81721c0.34196,-0.04726 2.32888,1.29251 2.86941,1.4735c3.21997,1.07629 6.46449,1.88531 9.75426,2.6916c0.75361,-0.09945 0.7785,-1.09391 1.23948,-1.77751c1.36193,-2.01964 3.05172,-4.47301 5.51046,-3.7677c3.23099,0.92586 6.65839,0.78311 9.88626,1.53315l2.31057,22.46924z" fill="url(#color-2)" stroke-width="0"/><path d="M263.61448,241.3009c0,2.09079 -10.45735,3.78571 -23.35714,3.78571c-12.8998,0 -23.35715,-1.69492 -23.35715,-3.78571c0,-0.565 1.15239,-3.26282 3.45394,-3.99129c0.89996,-0.28485 2.33867,2.51474 3.40754,1.67971c1.532,-1.19683 2.53995,-4.27558 4.35702,-4.99818c1.60067,-0.63655 3.69681,1.94446 5.38715,2.03618c3.0428,0.16511 5.69649,-4.79785 6.03721,-4.79785c1.39112,0 2.54368,2.88451 3.78743,2.90763c1.6847,0.03132 3.41746,-2.68303 5.02199,-1.51152c0.68481,0.5 1.50653,5.18871 2.18373,5.41693c1.6452,0.55444 3.13721,1.90537 4.63999,1.05894c1.39569,-0.78611 2.8203,-3.76211 3.89057,-3.60738c1.55771,0.22521 2.01538,3.43542 2.77917,4.7925c0.69716,1.23871 1.76855,0.62361 1.76855,1.01433z" fill="#000000" stroke-width="0"/><path d="M228.75734,232.8009c0,0.63118 -0.4797,1.14285 -1.07143,1.14285c-0.59173,0 -1.07143,-0.51167 -1.07143,-1.14285c0,-0.63118 0.47969,-1.14286 1.07143,-1.14286c0.59173,0 1.07143,0.51168 1.07143,1.14286z" fill="#000000" stroke-width="0"/><path d="M255.70005,290.02081c0,1.89227 -2.70358,6.08162 -5.58862,-1.26143c-0.67228,-1.71109 -2.96099,12.02489 -5.71636,12.88928c-1.20358,0.37757 -1.7069,-7.58402 -3.06781,-9.44772c-1.06461,-1.45791 -2.53414,2.57671 -3.83214,2.60679c-1.52049,0.03523 -2.88005,-3.78692 -4.19506,-3.78692c-0.71759,0 -2.60594,-3.04194 -4.44567,1.20704c-1.29444,2.9896 -2.66581,13.72915 -3.15001,13.70531c-0.67575,-0.03326 -1.72783,-12.32915 -2.35667,-12.48086c-2.28724,-0.55181 -4.24559,4.60734 -5.90506,3.90399c-1.11381,-0.47208 0.10703,-8.80742 -0.74656,-9.70334c-3.38602,-3.55395 -6.99603,-2.03469 -6.99603,-4.23214c0,-2.6788 2.48149,-2.45876 8.80736,-1.44595c1.21895,0.19516 3.35095,2.3455 4.7943,2.40732c1.40513,0.06018 0.22515,-1.19799 1.76241,-1.88743c1.52908,-0.68577 5.77415,-0.80248 7.63594,-0.87393c9.83944,-0.37762 31.93892,-0.18612 35.31175,2.91365c0.45026,0.4138 5.43501,1.64488 2.91133,2.55066c-1.52837,0.54856 -4.50806,8.45223 -7.42906,8.89639c-1.38257,0.21023 -2.35199,-6.29915 -3.54814,-7.29537c-0.70887,-0.5904 -1.19762,2.30885 -1.80691,2.45272c-1.30043,0.30707 -2.43897,-1.27152 -2.43897,-1.11804z" fill="#000000" stroke-width="0"/><path d="M222.37477,299.0777c0,0.34518 -0.22386,0.625 -0.5,0.625c-0.27614,0 -0.5,-0.27982 -0.5,-0.625c0,-0.34518 0.22386,-0.625 0.5,-0.625c0.27614,0 0.5,0.27982 0.5,0.625z" fill="#000000" stroke-width="0"/><path d="M253.87477,293.5777c0,0.75939 -0.50368,1.375 -1.125,1.375c-0.62132,0 -1.125,-0.61561 -1.125,-1.375c0,-0.75939 0.50368,-1.375 1.125,-1.375c0.62132,0 1.125,0.61561 1.125,1.375z" fill="#000000" stroke-width="0"/></g><path d="M175.83998,139.82308c0,-34.38761 28.7599,-62.26428 64.23702,-62.26428c35.47712,0 64.23702,27.87667 64.23702,62.26428c0,34.38762 -28.7599,62.26429 -64.23702,62.26429c-35.47712,0 -64.23702,-27.87668 -64.23702,-62.26428z" fill="url(#color-3)" stroke="none" stroke-width="2" stroke-linecap="butt"/><path d="M180.83998,140.19165c0,-31.82975 26.62064,-57.63285 59.45885,-57.63285c32.83821,0 59.45885,25.80311 59.45885,57.63285c0,31.82975 -26.62064,57.63286 -59.45885,57.63286c-32.83821,0 -59.45885,-25.80312 -59.45885,-57.63286z" fill="url(#color-4)" stroke="none" stroke-width="2" stroke-linecap="butt"/><path d="M189.39019,140.26655c0,-13.3908 10.51265,-24.24621 23.48065,-24.24621c12.968,0 23.48065,10.85541 23.48065,24.24621c0,12.79275 -9.59458,23.27151 -21.75853,24.18199c-0.56867,0.04256 -1.14295,0.06422 -1.72212,0.06422c-12.968,0 -23.48065,-10.8554 -23.48065,-24.24621z" fill="#ff7d7d" stroke="none" stroke-width="2" stroke-linecap="butt"/><path d="M189.34019,140.36655c0,-13.3908 10.51265,-24.24621 23.48065,-24.24621c12.968,0 23.48065,10.85541 23.48065,24.24621c0,0.39259 -46.9613,0.34441 -46.9613,0z" fill="#ff0000" stroke="none" stroke-width="2" stroke-linecap="butt"/><path d="M207.97344,140.12479c0,-2.83771 2.22778,-5.13814 4.97591,-5.13814c2.74812,0 4.97591,2.30042 4.97591,5.13814c0,2.83771 -2.22779,5.13814 -4.97591,5.13814c-2.74812,0 -4.97591,-2.30042 -4.97591,-5.13814z" fill="#000000" stroke="none" stroke-width="0" stroke-linecap="butt"/><path d="M226.1592,103.53975c0,0 -6.70895,5.33775 -11.79721,6.57102c-5.08827,1.23327 -12.33413,-0.72217 -12.33413,-0.72217c0,0 8.03812,0.06224 11.96762,-0.89018c4.10648,-0.99532 12.16372,-4.95868 12.16372,-4.95868z" data-paper-data="{&quot;index&quot;:null}" fill="#000000" stroke="none" stroke-width="0" stroke-linecap="butt"/><path d="M214.31819,140.17521c0,0.94678 -0.63959,1.71428 -1.42857,1.71428c-0.78898,0 -1.42857,-0.76751 -1.42857,-1.71428c0,-0.94678 0.63959,-1.71429 1.42857,-1.71429c0.78898,0 1.42857,0.76752 1.42857,1.71429z" fill="#ff7d7d" stroke="none" stroke-width="0" stroke-linecap="butt"/><path d="M218.56117,162.35715c0,2.30119 -4.47716,4.16666 -10,4.16666c-5.52284,0 -12.83333,-5.86548 -12.83333,-8.16666c0,-2.30119 7.64382,1.16666 13.16666,1.16666c5.52284,0 9.66666,0.53215 9.66666,2.83334z" fill="#000000" stroke="none" stroke-width="0" stroke-linecap="butt"/><path d="M224.3945,161.85715c0,1.933 -2.23857,3.5 -5,3.5c-2.76143,0 -5,-1.567 -5,-3.5c0,-1.933 2.23857,-3.5 5,-3.5c2.76143,0 5,1.567 5,3.5z" fill="#000000" stroke="none" stroke-width="0" stroke-linecap="butt"/><path d="M203.94991,163.61061c0.07881,-0.38779 0.20851,-0.71755 0.40033,-0.95982c0.59869,-0.75619 2.16353,-0.47221 2.96093,-0.47221c1.82055,0 3.85318,0.09019 5.64098,-0.24162c2.65016,-0.48051 6.84941,-1.5116 9.22281,0.19314c0.85579,0.61469 0.63621,1.34569 0.63621,2.26277c0,2.53851 0.10619,5.11291 -0.59376,7.57634c-1.51467,4.07275 -3.3518,-1.11163 -3.68148,-2.76024c-0.00647,-0.03238 -0.28001,-1.32301 -0.33218,-1.31736c-0.64216,0.06963 -0.54285,1.17788 -0.72009,1.79901c-0.5438,1.90576 -0.34982,4.1813 -0.53016,6.15348c0.00285,3.83427 0.33041,8.60855 -0.56893,12.33046c-0.50641,2.09575 -1.25279,3.58539 -3.56307,3.57171c-3.4829,-0.87942 -2.06888,-7.67938 -3.12269,-10.60999c-0.78123,-2.17256 -3.42857,1.7248 -4.17093,-1.837c-0.00481,-2.07477 0.18432,-4.34335 0.16973,-6.5695c-0.53182,-1.13153 -0.95897,-2.47089 -0.99955,-3.64299c-0.38915,-1.02389 -0.73168,-2.44873 -0.82234,-3.73632c-0.38037,-0.56296 -0.76027,-1.12277 -1.0288,-1.77191c0,0 -0.1857,-0.46424 0.27854,-0.64993c0.46424,-0.1857 0.64993,0.27855 0.64993,0.27855c0.05265,0.1377 0.11121,0.27191 0.1745,0.40344z" fill="#000000" stroke="none" stroke-width="0.5" stroke-linecap="butt"/><path d="M226.49765,160.72725c0,0 5.5173,-6.00002 7.16724,-9.99285c1.60595,-3.8864 2.60397,-13.65347 2.60397,-13.65347c0,0 6.46581,2.58064 10.02767,2.4751c4.83631,-0.1433 16.3546,-3.2568 16.3546,-3.2568v24.42802c0,0 -12.58936,-4.69018 -18.5653,-4.69018c-6.07364,0 -17.58818,4.69018 -17.58818,4.69018z" fill="url(#color-5)" stroke="none" stroke-width="0" stroke-linecap="butt"/><path d="M240.63216,82.89214c21.16393,0 44.86202,9.93079 51.35114,26.86201c0.03361,0.0877 -5.78446,28.29572 -5.71467,29.23427c0.01706,0.22939 3.15572,13.57119 3.15572,13.8699c0,0.23866 -5.22455,15.11797 -5.17377,15.26237c0.13862,0.3942 1.0798,10.12474 0.96773,10.24361c-10.04188,10.65091 -26.5797,19.79355 -44.58614,19.79355c-5.36871,0 -14.12156,-0.65735 -18.45489,-3.05727c0.50474,-0.39388 13.3797,-25.15971 13.40511,-25.20054c0.07381,0.28794 0.35774,-16.00161 0.4569,-16.03738c0.19639,-0.07084 8.13532,-14.32116 8.08661,-14.42666c-1.33909,-3.24552 -14.85244,-26.66298 -14.85244,-26.66298c0.89681,0.90011 6.82675,-10.07228 7.03396,-10.22121c0.61531,-0.44223 -3.49253,-17.37256 -3.74629,-19.13319c2.63925,-0.34717 5.33353,-0.52649 8.07102,-0.52649z" fill="#000000" stroke="none" stroke-width="2" stroke-linecap="butt"/><path d="M280.72573,81.5727c0,9.60833 -11.03454,17.39742 -24.64634,17.39742c-10.66269,0 -28.5087,-7.65738 -32.38385,-14.34695c-1.0718,-1.85022 6.0804,-0.96874 6.0804,-3.05047c0,-9.60833 12.69165,-17.39742 26.30345,-17.39742c13.6118,0 24.64634,7.7891 24.64634,17.39742z" data-paper-data="{&quot;index&quot;:null}" fill="url(#color-6)" stroke="none" stroke-width="2" stroke-linecap="butt"/><path d="M255.61816,86.3328c0,0 -8.88285,-9.31913 -7.31525,-12.5781c1.35172,-2.81017 12.97176,0.1914 15.28511,2.15323c4.76675,4.04244 1.95197,14.91164 -3.02606,15.56727c-9.39597,1.23749 -28.077,-9.12707 -28.077,-9.12707" data-paper-data="{&quot;index&quot;:null}" fill="none" stroke="#000000" stroke-width="1" stroke-linecap="round"/></g></g></svg>