<svg version="1.1" xmlns="http://www.w3.org/2000/svg" xmlns:xlink="http://www.w3.org/1999/xlink" width="135.85922" height="285.5956" viewBox="0,0,135.85922,285.5956"><defs><linearGradient x1="257.92553" y1="77.84147" x2="257.92553" y2="81.53998" gradientUnits="userSpaceOnUse" id="color-1"><stop offset="0" stop-color="#000000"/><stop offset="1" stop-color="#000000"/></linearGradient><linearGradient x1="209.10174" y1="78.41682" x2="209.10174" y2="82.03309" gradientUnits="userSpaceOnUse" id="color-2"><stop offset="0" stop-color="#000000"/><stop offset="1" stop-color="#000000"/></linearGradient><linearGradient x1="212.5208" y1="77.84147" x2="212.5208" y2="81.53998" gradientUnits="userSpaceOnUse" id="color-3"><stop offset="0" stop-color="#000000"/><stop offset="1" stop-color="#000000"/></linearGradient><linearGradient x1="269.66024" y1="78.66682" x2="269.66024" y2="82.28309" gradientUnits="userSpaceOnUse" id="color-4"><stop offset="0" stop-color="#000000"/><stop offset="1" stop-color="#000000"/></linearGradient><linearGradient x1="266.24118" y1="78.09147" x2="266.24118" y2="81.78998" gradientUnits="userSpaceOnUse" id="color-5"><stop offset="0" stop-color="#000000"/><stop offset="1" stop-color="#000000"/></linearGradient></defs><g transform="translate(-171.26284,-28.43677)"><g data-paper-data="{&quot;isPaintingLayer&quot;:true}" fill-rule="nonzero" stroke-linejoin="miter" stroke-miterlimit="10" stroke-dasharray="" stroke-dashoffset="0" style="mix-blend-mode: normal"><path d="M179.28346,314.03238v-267.22501h123.18203v267.22501z" fill-opacity="0.01" fill="#000000" stroke="none" stroke-width="0" stroke-linecap="butt"/><g stroke="#000000" stroke-linecap="butt"><path d="M206.74978,307.91988l15.14285,-131.8421l37.78325,-0.15789l13.57389,132z" fill="#ff80c9" stroke-width="2"/><path d="M219.70002,204.53251l3.12142,-26.32765l35.83075,-0.14203l2.76735,26.1059c0,0 -7.51543,4.19603 -21.55904,4.50964c-12.48458,0.27879 -20.16049,-4.14586 -20.16049,-4.14586z" fill="#c7649c" stroke-width="0"/></g><g data-paper-data="{&quot;index&quot;:null}" stroke-linecap="butt"><path d="M237.41007,128.44367c-29.12584,0 -52.73702,-22.16344 -52.73702,-49.50345c0,-27.33999 23.61118,-49.50345 52.73702,-49.50345c29.12585,0 52.73702,22.16345 52.73702,49.50345c0,27.34 -23.61117,49.50345 -52.73702,49.50345z" fill="#8cefef" stroke="#000000" stroke-width="2"/><path d="M237.53513,41.08988c21.46151,0 38.85951,17.0917 38.85951,38.17537c0,21.08367 -17.39799,38.17536 -38.85951,38.17536c-21.46151,0 -38.85951,-17.09169 -38.85951,-38.17536c0,-21.08367 17.39799,-38.17537 38.85951,-38.17537z" fill="#c2f0f0" stroke="none" stroke-width="0"/><path d="M237.94562,59.69866c10.65518,0 19.29292,9.12782 19.29292,20.38756c0,11.25974 -8.63774,20.38756 -19.29292,20.38756c-10.65518,0 -19.29293,-9.12782 -19.29293,-20.38756c0,-11.25974 8.63774,-20.38756 19.29293,-20.38756z" fill="#d4f0f0" stroke="none" stroke-width="0"/><path d="M262.69612,40.07928c4.20423,2.39064 7.00682,5.39371 6.25974,6.70753c-0.74707,1.31383 -4.76091,0.44089 -8.96514,-1.94976c-4.20423,-2.39064 -7.0068,-5.3937 -6.25973,-6.70752c0.74707,-1.31383 4.7609,-0.4409 8.96513,1.94975z" fill="#d4f0f0" stroke="none" stroke-width="0"/><path d="M247.11318,34.52208c1.2091,0 2.18927,0.98016 2.18927,2.18926c0,1.2091 -0.98017,2.18926 -2.18927,2.18926c-1.2091,0 -2.18927,-0.98016 -2.18927,-2.18926c0,-1.2091 0.98017,-2.18926 2.18927,-2.18926z" fill="#d4f0f0" stroke="none" stroke-width="0"/></g><path d="M175.83972,139.40176c0,-33.30185 28.7599,-60.29833 64.23702,-60.29833c35.47712,0 64.23702,26.99649 64.23702,60.29833c0,33.30185 -28.7599,60.29833 -64.23702,60.29833c-35.47712,0 -64.23702,-26.99649 -64.23702,-60.29833z" fill="#8cefef" stroke="#000000" stroke-width="2" stroke-linecap="butt"/><path d="M287.25773,139.79769c0,25.68124 -21.19185,46.5 -47.33333,46.5c-26.14148,0 -47.33334,-20.81876 -47.33334,-46.5c0,-25.68124 21.19186,-46.5 47.33334,-46.5c26.14148,0 47.33333,20.81876 47.33333,46.5z" fill="#c2f0f0" stroke="none" stroke-width="0" stroke-linecap="butt"/><path d="M262.92438,140.79769c0,13.71507 -10.52131,24.83333 -23.5,24.83333c-12.97869,0 -23.5,-11.11826 -23.5,-24.83333c0,-13.71507 10.52131,-24.83333 23.5,-24.83333c12.97869,0 23.5,11.11826 23.5,24.83333z" fill="#d4f0f0" stroke="none" stroke-width="0" stroke-linecap="butt"/><path d="M220.19683,89.69179c0.90999,1.60032 -2.50373,5.25823 -7.62475,8.17019c-5.12102,2.91196 -10.01012,3.97525 -10.92011,2.37493c-0.90999,-1.60032 2.50374,-5.25824 7.62475,-8.1702c5.12102,-2.91196 10.01012,-3.97524 10.9201,-2.37492z" fill="#d4f0f0" stroke="none" stroke-width="0" stroke-linecap="butt"/><path d="M230.9244,87.96435c0,1.47276 -1.19391,2.66666 -2.66667,2.66666c-1.47276,0 -2.66666,-1.19391 -2.66666,-2.66666c0,-1.47276 1.19391,-2.66667 2.66666,-2.66667c1.47276,0 2.66667,1.19391 2.66667,2.66667z" fill="#d4f0f0" stroke="none" stroke-width="0" stroke-linecap="butt"/><path d="M191.51019,130.0898v-28.18144h101.35431v28.18144c0,0 -37.52224,-17.30439 -54.87965,-17.30439c-16.36943,0 -46.47466,17.30439 -46.47466,17.30439z" fill="#62a6a6" stroke="none" stroke-width="NaN" stroke-linecap="butt"/><path d="M189.38992,139.83126c0,-12.968 10.51265,-23.48065 23.48065,-23.48065c12.968,0 23.48065,10.51265 23.48065,23.48065c0,12.968 -10.51265,23.48065 -23.48065,23.48065c-12.968,0 -23.48065,-10.51265 -23.48065,-23.48065z" fill="#8cefef" stroke="#000000" stroke-width="2" stroke-linecap="butt"/><path d="M267.12899,163.31186c-12.968,0 -23.48065,-10.51265 -23.48065,-23.48065c0,-12.968 10.51265,-23.48065 23.48065,-23.48065c12.968,0 23.48065,10.51265 23.48065,23.48065c0,12.968 -10.51265,23.48065 -23.48065,23.48065z" data-paper-data="{&quot;index&quot;:null}" fill="#8cefef" stroke="#000000" stroke-width="2" stroke-linecap="butt"/><path d="M265.96209,101.22977c-3.9295,-0.92235 -11.96762,-0.86207 -11.96762,-0.86207c0,0 7.24586,-1.8937 12.33413,-0.69937c5.08826,1.19433 11.79721,6.36355 11.79721,6.36355c0,0 -8.05724,-3.83822 -12.16372,-4.80211z" data-paper-data="{&quot;index&quot;:null}" fill="#000000" stroke="none" stroke-width="0" stroke-linecap="butt"/><path d="M189.33866,139.53131l-3.6,-2.6" fill="none" stroke="#000000" stroke-width="2" stroke-linecap="round"/><path d="M294.33866,135.93129l-4.2,3.4" fill="none" stroke="#000000" stroke-width="2" stroke-linecap="round"/><path d="M216.74344,92.71855c1.75965,2.67665 -1.26582,7.77325 -6.75756,11.38356c-5.49175,3.61032 -11.37016,4.3672 -13.12981,1.69055c-1.75965,-2.67665 1.26582,-7.77325 6.75757,-11.38356c5.49175,-3.61031 11.37016,-4.3672 13.12981,-1.69055z" fill="#ecfefe" stroke="none" stroke-width="0" stroke-linecap="butt"/><path d="M224.89975,90.15561c0,1.38071 -1.02975,2.5 -2.3,2.5c-1.27025,0 -2.3,-1.11929 -2.3,-2.5c0,-1.38071 1.02974,-2.5 2.3,-2.5c1.27025,0 2.3,1.11929 2.3,2.5z" fill="#ecfefe" stroke="none" stroke-width="0" stroke-linecap="butt"/><path d="M202.0276,106.03188c0,0 6.70895,-5.16922 11.79721,-6.36355c5.08827,-1.19433 12.33413,0.69937 12.33413,0.69937c0,0 -8.03812,-0.06028 -11.96762,0.86207c-4.10648,0.96389 -12.16372,4.80211 -12.16372,4.80211z" fill="#000000" stroke="none" stroke-width="0" stroke-linecap="butt"/><path d="M256.9702,81.53998l1.91065,-3.69848" fill="url(#color-1)" stroke="none" stroke-width="2" stroke-linecap="round"/><path d="M259.55481,176.31398c0,0 -6.35362,9.54393 -20.02338,9.64308c-11.26874,0.08175 -18.91955,-9.64308 -18.91955,-9.64308z" fill="#000000" stroke="#000000" stroke-width="2" stroke-linecap="round"/><path d="M189.63992,139.20626c0,-12.62282 10.51265,-22.85565 23.48065,-22.85565c12.968,0 23.48065,10.23283 23.48065,22.85565c0,12.62282 -10.51265,22.85565 -23.48065,22.85565c-12.968,0 -23.48065,-10.23283 -23.48065,-22.85565z" fill="#8cefef" stroke="#000000" stroke-width="2" stroke-linecap="butt"/><path d="M243.63992,139.20626c0,-12.62282 10.51265,-22.85565 23.48065,-22.85565c12.968,0 23.48065,10.23283 23.48065,22.85565c0,12.62282 -10.51265,22.85565 -23.48065,22.85565c-12.968,0 -23.48065,-10.23283 -23.48065,-22.85565z" fill="#8cefef" stroke="#000000" stroke-width="2" stroke-linecap="butt"/><g><path d="M240.41873,82.43034c0,0.17786 1.20839,13.62976 -5.74324,25.9735c-3.95131,7.01619 -16.80048,15.70513 -18.37059,16.32384c-1.91545,0.7548 -7.62391,3.88226 -13.32214,4.08362c-8.14942,0.28797 -16.9748,-2.96984 -20.58436,-6.95584c-3.06997,-3.39013 -6.28972,-7.99302 -7.86481,-12.40126c-1.76335,-4.93513 -2.9002,-14.27002 -1.89366,-23.39707c0.99685,-9.03914 4.12158,-17.88082 5.59067,-20.73505c5.6783,-11.03211 14.42525,-16.97256 22.23582,-16.97256c10.29607,0 19.42445,10.13706 27.36306,19.15271c6.25833,7.1074 12.58925,13.26899 12.58925,14.92812z" fill="#ff80c9" stroke="#000000" stroke-width="2" stroke-linecap="butt"/><path d="M211.62011,77.61502c0,0.29711 1.73575,3.22777 -0.18284,3.22777c-1.91858,0 -6.47244,-2.27315 -6.47244,-2.57026c0,-0.29711 1.55533,-0.53796 3.47392,-0.53796c1.91858,0 3.18136,-0.41666 3.18136,-0.11955z" data-paper-data="{&quot;index&quot;:null}" fill="#ce52af" stroke="none" stroke-width="0" stroke-linecap="butt"/><path d="M204.42567,78.4168l9.35214,3.61629" fill="url(#color-2)" stroke="#000000" stroke-width="2" stroke-linecap="round"/><path d="M213.47613,81.53998l-1.91065,-3.69848" fill="url(#color-3)" stroke="#000000" stroke-width="2" stroke-linecap="round"/><path d="M212.94386,99.55261c-1.91859,0 -3.47392,-0.24085 -3.47392,-0.53796c0,-0.29711 4.55385,-2.57026 6.47244,-2.57026c1.91859,0 0.18284,2.93066 0.18284,3.22777c0,0.29711 -1.26278,-0.11955 -3.18136,-0.11955z" data-paper-data="{&quot;index&quot;:null}" fill="#ce52af" stroke="none" stroke-width="0" stroke-linecap="butt"/><path d="M207.84474,100.1146l9.35213,-3.61629l-2.60864,5.34769" data-paper-data="{&quot;index&quot;:null}" fill="none" stroke="#000000" stroke-width="2" stroke-linecap="round"/></g><g data-paper-data="{&quot;index&quot;:null}"><path d="M238.34325,82.68033c0,-1.65913 6.33092,-7.82072 12.58925,-14.92812c7.93861,-9.01565 17.06699,-19.15271 27.36306,-19.15271c7.81057,0 16.55752,5.94046 22.23582,16.97256c1.46909,2.85424 4.59382,11.69591 5.59067,20.73505c1.00654,9.12705 -0.13032,18.46194 -1.89366,23.39707c-1.57509,4.40824 -4.79484,9.01113 -7.86481,12.40126c-3.60956,3.986 -12.43494,7.24381 -20.58436,6.95584c-5.69823,-0.20136 -11.4067,-3.32882 -13.32214,-4.08362c-1.57011,-0.61871 -14.41927,-9.30765 -18.37059,-16.32384c-6.95163,-12.34374 -5.74323,-25.79564 -5.74323,-25.9735z" fill="#ff80c9" stroke="#000000" stroke-width="2" stroke-linecap="butt"/><path d="M270.32322,77.98456c1.91859,0 3.47392,0.24085 3.47392,0.53796c0,0.29711 -4.55386,2.57026 -6.47244,2.57026c-1.91859,0 -0.18284,-2.93066 -0.18284,-3.22777c0,-0.29711 1.26278,0.11955 3.18136,0.11955z" data-paper-data="{&quot;index&quot;:null}" fill="#ce52af" stroke="none" stroke-width="0" stroke-linecap="butt"/><path d="M264.98418,82.28311l9.35214,-3.61629" fill="url(#color-4)" stroke="#000000" stroke-width="2" stroke-linecap="round"/><path d="M265.28586,81.78994l1.91065,-3.69848" fill="url(#color-5)" stroke="#000000" stroke-width="2" stroke-linecap="round"/><path d="M262.63677,99.92215c0,-0.29711 -1.73575,-3.22777 0.18284,-3.22777c1.91859,0 6.47244,2.27315 6.47244,2.57026c0,0.29711 -1.55533,0.53796 -3.47392,0.53796c-1.91858,0 -3.18136,0.41666 -3.18136,0.11955z" data-paper-data="{&quot;index&quot;:null}" fill="#ce52af" stroke="none" stroke-width="0" stroke-linecap="butt"/><path d="M264.17376,102.09599l-2.60864,-5.34769l9.35213,3.61629" data-paper-data="{&quot;index&quot;:null}" fill="none" stroke="#000000" stroke-width="2" stroke-linecap="round"/></g><path d="M259.24593,86.94568c0,10.76008 -7.81396,14.60366 -20.52138,14.60366c-12.70741,0 -20.77011,-3.74193 -20.77011,-14.50201c0,-10.76008 7.93833,-14.60367 20.64575,-14.60367c12.70741,0 20.64575,3.74194 20.64575,14.50202z" fill="#e3e854" stroke="#000000" stroke-width="2" stroke-linecap="butt"/></g></g></svg>