<svg version="1.1" xmlns="http://www.w3.org/2000/svg" xmlns:xlink="http://www.w3.org/1999/xlink" width="203.44679" height="274.39022" viewBox="0,0,203.44679,274.39022"><g transform="translate(-138.43267,-41.95397)"><g data-paper-data="{&quot;isPaintingLayer&quot;:true}" fill-rule="nonzero" stroke-linejoin="miter" stroke-miterlimit="10" stroke-dasharray="" stroke-dashoffset="0" style="mix-blend-mode: normal"><path d="M180.28206,316.3442v-267.22501h123.18203v267.22501z" fill-opacity="0.01" fill="#000000" stroke="none" stroke-width="0" stroke-linecap="butt"/><path d="M207.74841,309.03171l15.14285,-131.8421l37.78325,-0.15789l13.57389,132z" fill="#ffc98c" stroke="#000000" stroke-width="2" stroke-linecap="butt"/><path d="M217.1273,234.55256l1.81955,-14.45576h45.32077l1.25968,14.00472c0,0 -4.68002,-3.84225 -12.19042,-3.27595c-1.24659,0.094 -1.77005,3.30928 -3.61006,5.05858c-2.85775,2.71686 -7.12602,4.36879 -8.58021,4.38234c-0.59366,0.00553 -5.24197,-1.01361 -7.39759,-2.86222c-3.31818,-2.84561 -4.49605,-6.9719 -5.21348,-7.0195c-6.54919,-0.43454 -11.40823,4.1678 -11.40823,4.1678z" fill="#c59b6c" stroke="none" stroke-width="NaN" stroke-linecap="butt"/><path d="M220.69863,205.64434l3.12142,-26.32765l35.83075,-0.14203l2.76735,26.1059c0,0 -7.51543,4.19603 -21.55904,4.50964c-12.48458,0.27879 -20.16049,-4.14586 -20.16049,-4.14586z" fill="#cca170" stroke="#000000" stroke-width="0" stroke-linecap="butt"/><g stroke-linecap="butt"><path d="M270.90666,198.69837c0,2.30815 -3.18821,22.08962 -5.54022,24.62356c-2.35122,2.53308 -6.36561,-3.93153 -10.01931,-0.61498c-4.82557,4.38029 -9.76615,12.36642 -16.19046,12.36642c-4.20178,0 -6.94663,-9.88432 -10.55794,-12.06768c-4.81002,-2.90809 -7.96365,4.12979 -11.28693,1.75156c-3.77432,-2.70101 -7.15514,-21.29382 -7.15514,-24.30887c0,-7.66295 12.84567,-7.375 29,-7.375c16.15433,0 31.75,-2.03795 31.75,5.625z" fill="#deaf7a" stroke="#000000" stroke-width="2"/><path d="M211.91499,199.36502l-0.43055,-1.34722c0,0 2.30061,-2.10321 5.7274,-3.10961c3.43428,-1.00861 7.99803,-0.92054 11.00417,-1.02956c4.09936,-0.14865 8.9871,0.36715 12.33397,0.28032c0.22267,-0.00577 8.60029,-0.76212 14.35212,-0.53942c3.36286,0.1302 9.74383,0.44438 13.0537,1.68131c1.40779,0.5261 1.98697,2.6753 1.98697,2.6753c0,0 0.58775,2.10701 -0.45337,2.96919c-0.09479,0.0785 -5.70116,1.34507 -13.70615,2.40924c-6.2198,0.82684 -15.1558,1.53149 -15.94565,1.46168c-0.93945,-0.08303 -8.25238,-0.68599 -11.16764,-1.23828c-8.38563,-1.58865 -16.75496,-4.21295 -16.75496,-4.21295z" fill="#cca170" stroke="none" stroke-width="0"/></g><path d="M177.00496,145.52069c0,-24.86961 0.53942,-44.72272 23.43776,-53.94172c7.76386,-3.12578 78.06474,-7.32917 89.64055,3.26571c11.96565,10.95168 15.39573,33.74936 15.39573,50.67601c0,22.27378 -4.86585,44.06016 -24.00215,54.50148c-9.47466,5.16965 -28.48645,5.79685 -40.23487,5.79685c-8.03759,0 -28.39706,-1.05234 -35.48875,-3.58308c-24.21035,-8.6397 -28.74827,-30.95817 -28.74827,-56.71525z" fill="#ffc98c" stroke="#000000" stroke-width="2" stroke-linecap="butt"/><path d="M177.72802,145.57456c0,-0.50023 -2.54161,28.09005 17.86421,45.10631c9.29088,7.74759 27.30231,11.51046 45.49625,11.82798c18.67549,0.32593 34.97207,-4.44756 44.39578,-13.10363c18.61382,-17.09756 19.1178,-44.50707 19.1178,-43.83066c0,19.32927 -3.52722,40.16877 -18.79528,51.01565c-10.64422,7.56197 -30.24998,8.88268 -44.64174,8.88268c-14.94606,0 -35.01822,-1.67303 -45.85983,-9.77002c-14.57239,-10.8833 -17.57719,-31.31805 -17.57719,-50.12831z" fill="#cca170" stroke="#000000" stroke-width="0" stroke-linecap="butt"/><path d="M190.55518,145.95019c0,-12.968 10.51265,-23.48065 23.48065,-23.48065c12.968,0 23.48065,10.51265 23.48065,23.48065c0,12.968 -10.51265,23.48065 -23.48065,23.48065c-12.968,0 -23.48065,-10.51265 -23.48065,-23.48065z" fill="#ffffff" stroke="#000000" stroke-width="2" stroke-linecap="butt"/><path d="M197.62056,145.67453c0,-9.12808 7.39976,-16.52784 16.52783,-16.52784c9.12808,0 16.52784,7.39977 16.52784,16.52784c0,9.12808 -7.39977,16.52784 -16.52784,16.52784c-9.12808,0 -16.52783,-7.39977 -16.52783,-16.52784z" fill="#000000" stroke="none" stroke-width="0" stroke-linecap="butt"/><path d="M268.29421,169.43082c-12.968,0 -23.48065,-10.51265 -23.48065,-23.48065c0,-12.968 10.51265,-23.48065 23.48065,-23.48065c12.968,0 23.48065,10.51265 23.48065,23.48065c0,12.968 -10.51265,23.48065 -23.48065,23.48065z" data-paper-data="{&quot;index&quot;:null}" fill="#ffffff" stroke="#000000" stroke-width="2" stroke-linecap="butt"/><path d="M268.18166,162.20237c-9.12807,0 -16.52783,-7.39977 -16.52783,-16.52784c0,-9.12808 7.39977,-16.52784 16.52783,-16.52784c9.12807,0 16.52783,7.39977 16.52783,16.52784c0,9.12808 -7.39977,16.52784 -16.52783,16.52784z" data-paper-data="{&quot;index&quot;:null}" fill="#000000" stroke="none" stroke-width="0" stroke-linecap="butt"/><path d="M202.69285,122.39172c0,0 6.70895,-5.16922 11.79721,-6.36355c5.08827,-1.19433 12.33413,0.69937 12.33413,0.69937c0,0 -8.03812,-0.06028 -11.96762,0.86207c-4.10648,0.96389 -12.16372,4.80211 -12.16372,4.80211z" fill="#000000" stroke="none" stroke-width="0" stroke-linecap="butt"/><g><path d="M197.57322,189.55574c0,0 -19.11753,6.85831 -28.23772,7.87432c-8.57696,0.95549 -24.95387,-1.94862 -24.95387,-1.94862c0,0 12.89281,-7.98617 18.77463,-12.48692c5.48886,-4.20008 15.419,-13.678 15.419,-13.678c0,0 -13.84211,-1.33547 -20.23044,-2.98251c-6.18853,-1.5955 -17.5192,-6.75 -17.5192,-6.75c0,0 9.75417,-4.53629 15.33309,-8.1438c6.69946,-4.33209 22.1208,-16.07509 22.1208,-16.07509" data-paper-data="{&quot;index&quot;:null}" fill="#ffc98c" stroke="#000000" stroke-width="2" stroke-linecap="round"/><path d="M147.85791,194.71255c0,0 -0.54022,0.54075 2.84686,-2.3724c2.10641,-1.81169 22.04405,-13.16046 26.08193,-21.90515c0.43826,-0.94917 -5.13145,-1.9861 -9.35653,-3.07213c-9.08307,-2.33474 -25.12563,-5.92932 -24.73758,-8.00977c0.2088,-1.11941 12.49604,-6.76016 16.91218,-9.36576c0.89992,-0.53097 11.99033,-7.63534 15.0323,-10.10424c2.38286,-1.93395 3.85891,-3.07539 3.85891,-3.07539c0,0 0.09677,4.18096 -5.13233,8.12438c-6.37173,4.80509 -23.05922,10.05692 -22.53998,14.03591c0.79584,6.09856 31.25262,4.19594 30.60767,8.9278c-0.36155,2.6526 -3.57404,5.55797 -4.24128,6.22553c-7.86126,7.8648 -23.00285,20.93934 -17.09729,20.37581c7.86585,-0.75058 37.77968,-6.22321 37.77968,-6.22321l0.15755,1.65106c0,0 -19.60109,5.67863 -27.31418,6.41464c-8.47459,0.80867 -22.85792,-1.62706 -22.85792,-1.62706z" fill="#cca170" stroke="none" stroke-width="0" stroke-linecap="butt"/><path d="M197.57322,189.55574c0,0 -19.11753,6.85831 -28.23772,7.87432c-8.57696,0.95549 -24.95387,-1.94862 -24.95387,-1.94862c0,0 12.89281,-7.98617 18.77463,-12.48692c5.48886,-4.20008 15.419,-13.678 15.419,-13.678c0,0 -13.84211,-1.33547 -20.23044,-2.98251c-6.18853,-1.5955 -17.5192,-6.75 -17.5192,-6.75c0,0 9.75417,-4.53629 15.33309,-8.1438c6.69946,-4.33209 22.1208,-16.07509 22.1208,-16.07509" data-paper-data="{&quot;index&quot;:null}" fill="none" stroke="#000000" stroke-width="2" stroke-linecap="round"/></g><g data-paper-data="{&quot;index&quot;:null}"><path d="M302.0765,130.87451c0,0 15.41484,11.89782 22.11204,16.28466c5.57705,3.6531 15.32926,8.24029 15.32926,8.24029c0,0 -11.33618,5.26489 -17.5268,6.90085c-6.39049,1.6888 -20.23564,3.07845 -20.23564,3.07845c0,0 9.92451,9.60878 15.41105,13.86429c5.87932,4.56015 18.76807,12.64597 18.76807,12.64597c0,0 -16.38148,2.98974 -24.95898,2.03882c-9.12077,-1.01115 -28.23599,-7.93616 -28.23599,-7.93616" data-paper-data="{&quot;index&quot;:null}" fill="#ffc98c" stroke="#000000" stroke-width="2" stroke-linecap="round"/><path d="M309.59578,192.82287c-7.71366,-0.72989 -27.3134,-6.45491 -27.3134,-6.45491l0.15881,-1.67828c0,0 29.91414,5.49149 37.78058,6.23583c5.90601,0.55885 -9.22806,-12.69279 -17.08459,-20.66708c-0.66685,-0.67683 -3.87763,-3.62192 -4.23725,-6.31684c-0.64151,-4.8073 29.8183,-2.94515 30.61882,-9.14476c0.52229,-4.04492 -16.16373,-9.34304 -22.5328,-14.21133c-5.22694,-3.99528 -5.12702,-8.24446 -5.12702,-8.24446c0,0 1.47542,1.15654 3.85719,3.11635c3.04058,2.50192 14.1273,9.69582 15.02697,10.23331c4.41483,2.63761 16.69967,8.3413 16.90767,9.47842c0.38656,2.11336 -15.66104,5.80403 -24.74719,8.19803c-4.22651,1.11359 -9.79781,2.18046 -9.36019,3.14403c4.03194,8.87745 23.96402,20.36404 26.06939,22.20024c3.3854,2.95258 2.8455,2.4043 2.8455,2.4043c0,0 -14.38725,2.50907 -22.86248,1.70711z" fill="#cca170" stroke="none" stroke-width="0" stroke-linecap="butt"/><path d="M302.0765,130.87451c0,0 15.41484,11.89782 22.11204,16.28466c5.57705,3.6531 15.32926,8.24029 15.32926,8.24029c0,0 -11.33618,5.26489 -17.5268,6.90085c-6.39049,1.6888 -20.23564,3.07845 -20.23564,3.07845c0,0 9.92451,9.60878 15.41105,13.86429c5.87932,4.56015 18.76807,12.64597 18.76807,12.64597c0,0 -16.38148,2.98974 -24.95898,2.03882c-9.12077,-1.01115 -28.23599,-7.93616 -28.23599,-7.93616" data-paper-data="{&quot;index&quot;:null}" fill="none" stroke="#000000" stroke-width="2" stroke-linecap="round"/></g><g data-paper-data="{&quot;index&quot;:null}"><path d="M232.15138,89.85408c0,0 13.05164,-18.38743 17.97644,-26.42658c4.10109,-6.69452 9.55608,-18.51691 9.55608,-18.51691c0,0 3.75939,14.42576 4.63129,22.2237c0.90006,8.04971 0.68731,25.34326 0.68731,25.34326c0,0 10.26029,-11.71274 14.92551,-18.25597c4.99919,-7.01167 14.13705,-22.50593 14.13705,-22.50593c0,0 1.03071,20.54838 -0.82803,31.14548c-1.97647,11.26829 -10.69927,34.57441 -10.69927,34.57441" data-paper-data="{&quot;index&quot;:null}" fill="#ffc98c" stroke="#000000" stroke-width="2" stroke-linecap="round"/><path d="M292.03065,84.50431c-1.55214,9.53794 -9.18502,33.52349 -9.18502,33.52349l-1.58197,-0.30553c0,0 8.55552,-36.81727 10.13842,-46.54414c1.18842,-7.30278 -13.12241,10.64848 -21.59522,19.89694c-0.71915,0.78499 -3.8827,4.58485 -6.49119,4.85797c-4.65317,0.48722 0.50373,-37.2421 -5.31637,-38.6365c-3.79732,-0.90978 -10.69976,19.48272 -16.04703,27.08308c-4.38836,6.23741 -8.42724,5.83933 -8.42724,5.83933c0,0 1.26614,-1.7588 3.39854,-4.59204c2.72224,-3.61695 10.8099,-16.92952 11.42209,-18.01279c3.00415,-5.31583 9.80449,-20.21327 10.91141,-20.39841c2.05722,-0.34408 3.79306,19.83459 5.06599,31.27937c0.59212,5.32366 0.99037,12.31534 1.95736,11.83367c8.90897,-4.43777 22.07022,-28.46486 24.05413,-30.96261c3.19007,-4.01635 2.60755,-3.38082 2.60755,-3.38082c0,0 0.79399,18.03936 -0.91141,28.51898z" fill="#cca170" stroke="none" stroke-width="0" stroke-linecap="butt"/><path d="M232.15138,89.85408c0,0 13.05164,-18.38743 17.97644,-26.42658c4.10109,-6.69452 9.55608,-18.51691 9.55608,-18.51691c0,0 3.75939,14.42576 4.63129,22.2237c0.90006,8.04971 0.68731,25.34326 0.68731,25.34326c0,0 10.26029,-11.71274 14.92551,-18.25597c4.99919,-7.01167 14.13705,-22.50593 14.13705,-22.50593c0,0 1.03071,20.54838 -0.82803,31.14548c-1.97647,11.26829 -10.69927,34.57441 -10.69927,34.57441" data-paper-data="{&quot;index&quot;:null}" fill="none" stroke="#000000" stroke-width="2" stroke-linecap="round"/></g><g stroke="none" stroke-width="0" stroke-linecap="butt"><path d="M205.57559,180.43498c0,4.86067 -4.2906,8.80102 -9.58333,8.80102c-5.29273,0 -9.58333,-3.94035 -9.58333,-8.80102c0,-4.86067 4.2906,-8.80102 9.58333,-8.80102c5.29273,0 9.58333,3.94035 9.58333,8.80102z" fill="#bd9568"/><path d="M192.89067,176.89876c0,0.86412 -0.71643,1.56463 -1.60019,1.56463c-0.88376,0 -1.60019,-0.70051 -1.60019,-1.56463c0,-0.86412 0.71643,-1.56463 1.60019,-1.56463c0.88376,0 1.60019,0.70051 1.60019,1.56463z" fill="#860000"/><path d="M202.84738,178.17891c0,0.86412 -0.71643,1.56463 -1.60019,1.56463c-0.88376,0 -1.60019,-0.70051 -1.60019,-1.56463c0,-0.86412 0.71643,-1.56463 1.60019,-1.56463c0.88376,0 1.60019,0.70051 1.60019,1.56463z" fill="#860000"/><path d="M197.37119,185.43309c0,0.86412 -0.71643,1.56463 -1.60019,1.56463c-0.88376,0 -1.60019,-0.70051 -1.60019,-1.56463c0,-0.86412 0.71643,-1.56463 1.60019,-1.56463c0.88376,0 1.60019,0.70051 1.60019,1.56463z" fill="#860000"/></g><g data-paper-data="{&quot;index&quot;:null}" stroke="none" stroke-width="0" stroke-linecap="butt"><path d="M287.74981,171.64909c4.74045,0 8.58333,3.52918 8.58333,7.88265c0,4.35347 -3.84289,7.88265 -8.58333,7.88265c-4.74045,0 -8.58333,-3.52918 -8.58333,-7.88265c0,-4.35347 3.84289,-7.88265 8.58333,-7.88265z" fill="#bd9568"/><path d="M291.961,174.96319c0.79154,0 1.43321,0.62741 1.43321,1.40136c0,0.77395 -0.64167,1.40136 -1.43321,1.40136c-0.79154,0 -1.43321,-0.62741 -1.43321,-1.40136c0,-0.77395 0.64167,-1.40136 1.43321,-1.40136z" fill="#005387"/><path d="M283.04324,176.10975c0.79154,0 1.43321,0.62741 1.43321,1.40136c0,0.77395 -0.64167,1.40136 -1.43321,1.40136c-0.79154,0 -1.43321,-0.62741 -1.43321,-1.40136c0,-0.77395 0.64167,-1.40136 1.43321,-1.40136z" fill="#005387"/><path d="M287.94798,182.60697c0.79154,0 1.43321,0.62741 1.43321,1.40136c0,0.77395 -0.64167,1.40136 -1.43321,1.40136c-0.79154,0 -1.43321,-0.62741 -1.43321,-1.40136c0,-0.77395 0.64167,-1.40136 1.43321,-1.40136z" fill="#005387"/></g><path d="M190.4885,145.81686c0,-12.968 10.51265,-23.48065 23.48065,-23.48065c12.968,0 23.48065,10.51265 23.48065,23.48065c0,0 -11.47668,1.32743 -22.21258,1.48899c-12.59558,0.18954 -24.74873,-0.82413 -24.74873,-1.48899z" fill="#ffc98c" stroke="#000000" stroke-width="2" stroke-linecap="butt"/><path d="M292.04977,145.61686c0,0.66485 -11.48649,1.67854 -24.08207,1.48899c-10.7359,-0.16156 -22.87924,-1.48899 -22.87924,-1.48899c0,-12.968 10.51265,-23.48065 23.48065,-23.48065c12.968,0 23.48065,10.51265 23.48065,23.48065z" data-paper-data="{&quot;index&quot;:null}" fill="#ffc98c" stroke="#000000" stroke-width="2" stroke-linecap="butt"/><path d="M248.53208,192.68727c0,4.00407 -3.36719,9.25 -7.52083,9.25c-4.15364,0 -7.52083,-5.24593 -7.52083,-9.25c0,-4.00407 3.11719,-8.25 7.27083,-8.25c4.15364,0 7.77083,4.24593 7.77083,8.25z" fill="#000000" stroke="none" stroke-width="0" stroke-linecap="butt"/><path d="M268.37731,116.08962c-3.9295,-0.92235 -11.96762,-0.86207 -11.96762,-0.86207c0,0 7.24586,-1.8937 12.33413,-0.69937c5.08826,1.19433 11.79721,6.36355 11.79721,6.36355c0,0 -8.05724,-3.83822 -12.16372,-4.80211z" data-paper-data="{&quot;index&quot;:null}" fill="#000000" stroke="none" stroke-width="0" stroke-linecap="butt"/></g></g></svg>