<svg version="1.1" xmlns="http://www.w3.org/2000/svg" xmlns:xlink="http://www.w3.org/1999/xlink" width="130.47404" height="276.87772" viewBox="0,0,130.47404,276.87772"><g transform="translate(-176.263,-36.73482)"><g data-paper-data="{&quot;isPaintingLayer&quot;:true}" fill-rule="nonzero" stroke-linejoin="miter" stroke-miterlimit="10" stroke-dasharray="" stroke-dashoffset="0" style="mix-blend-mode: normal"><path d="M179.20671,313.61253v-187.22501h123.18203v187.22501z" fill-opacity="0.01" fill="#000000" stroke="none" stroke-width="0" stroke-linecap="butt"/><path d="M206.67309,308.48923l15.14285,-92.37211l37.78325,-0.11061l13.57389,92.48274z" fill="#ffffff" stroke="#000000" stroke-width="2" stroke-linecap="butt"/><path d="M219.62331,236.05326l3.12142,-18.44586l35.83075,-0.09951l2.76735,18.29049c0,0 -7.51543,2.93985 -21.55904,3.15958c-12.48458,0.19533 -20.16049,-2.90471 -20.16049,-2.90471z" fill="#b5b5b5" stroke="#000000" stroke-width="0" stroke-linecap="butt"/><g stroke="#000000" stroke-width="2"><path d="M228.67863,254.64217l-0.4697,-23.89138" fill="none" stroke-linecap="round"/><path d="M228.67863,255.03707c1.90232,0 3.44445,0.8349 3.44445,1.8648c0,1.0299 -1.54214,1.8648 -3.44445,1.8648c-1.90232,0 -3.44445,-0.8349 -3.44445,-1.8648c0,-1.0299 1.54214,-1.8648 3.44445,-1.8648z" fill="#000000" stroke-linecap="butt"/></g><g data-paper-data="{&quot;index&quot;:null}" stroke="#000000" stroke-width="2"><path d="M251.67862,254.99248l0.4697,-23.89137" fill="none" stroke-linecap="round"/><path d="M255.12306,257.25217c0,1.0299 -1.54213,1.86479 -3.44445,1.86479c-1.90231,0 -3.44445,-0.8349 -3.44445,-1.86479c0,-1.0299 1.54213,-1.8648 3.44445,-1.8648c1.90231,0 3.44445,0.83491 3.44445,1.8648z" fill="#000000" stroke-linecap="butt"/></g><path d="M177.263,165.81281c0,-33.30185 28.7599,-60.29833 64.23702,-60.29833c35.47712,0 64.23702,26.99649 64.23702,60.29833c0,33.30185 -28.7599,60.29833 -64.23702,60.29833c-35.47712,0 -64.23702,-26.99649 -64.23702,-60.29833z" fill="#414141" stroke="#000000" stroke-width="2" stroke-linecap="butt"/><path d="M177.98606,165.86672c0,-0.72799 5.20666,55.91939 63.36046,56.93429c55.56352,0.9697 63.51358,-57.95314 63.51358,-56.93429c0,32.80479 -28.40173,59.39833 -63.43702,59.39833c-35.03529,0 -63.43702,-26.59354 -63.43702,-59.39833z" fill="#252525" stroke="#000000" stroke-width="0" stroke-linecap="butt"/><path d="M190.81323,166.24234c0,-12.968 10.51265,-23.48065 23.48065,-23.48065c12.968,0 23.48065,10.51265 23.48065,23.48065c0,12.968 -10.51265,23.48065 -23.48065,23.48065c-12.968,0 -23.48065,-10.51265 -23.48065,-23.48065z" fill="#ffffff" stroke="#000000" stroke-width="2" stroke-linecap="butt"/><path d="M194.82858,163.83335c0,-9.12808 7.39976,-16.52784 16.52783,-16.52784c9.12808,0 16.52784,7.39977 16.52784,16.52784c0,9.12808 -7.39977,16.52784 -16.52784,16.52784c-9.12808,0 -16.52783,-7.39977 -16.52783,-16.52784z" fill="#000000" stroke="none" stroke-width="0" stroke-linecap="butt"/><path d="M268.55228,189.723c-12.968,0 -23.48065,-10.51265 -23.48065,-23.48065c0,-12.968 10.51265,-23.48065 23.48065,-23.48065c12.968,0 23.48065,10.51265 23.48065,23.48065c0,12.968 -10.51265,23.48065 -23.48065,23.48065z" data-paper-data="{&quot;index&quot;:null}" fill="#ffffff" stroke="#000000" stroke-width="2" stroke-linecap="butt"/><path d="M270.67308,185.79456c-9.12807,0 -16.52783,-7.39977 -16.52783,-16.52784c0,-9.12808 7.39977,-16.52784 16.52783,-16.52784c9.12807,0 16.52783,7.39977 16.52783,16.52784c0,9.12808 -7.39977,16.52784 -16.52783,16.52784z" data-paper-data="{&quot;index&quot;:null}" fill="#000000" stroke="none" stroke-width="0" stroke-linecap="butt"/><path d="M203.45089,137.43388c0,0 6.70895,-5.16922 11.79721,-6.36355c5.08827,-1.19433 12.33413,0.69937 12.33413,0.69937c0,0 -8.03812,-0.06028 -11.96762,0.86207c-4.10648,0.96389 -12.16372,4.80211 -12.16372,4.80211z" fill="#000000" stroke="none" stroke-width="0" stroke-linecap="butt"/><path d="M267.38534,132.6318c-3.9295,-0.92235 -11.96762,-0.86207 -11.96762,-0.86207c0,0 7.24586,-1.8937 12.33413,-0.69937c5.08826,1.19433 11.79721,6.36355 11.79721,6.36355c0,0 -8.05724,-3.83822 -12.16372,-4.80211z" data-paper-data="{&quot;index&quot;:null}" fill="#000000" stroke="none" stroke-width="0" stroke-linecap="butt"/><path d="M197.87862,148.26674l-4.66666,-3.33333" fill="none" stroke="#000000" stroke-width="2" stroke-linecap="round"/><path d="M207.29888,143.86671l-1.50717,-5.53329" fill="none" stroke="#000000" stroke-width="2" stroke-linecap="round"/><g data-paper-data="{&quot;index&quot;:null}" fill="none" stroke="#000000" stroke-width="2" stroke-linecap="round"><path d="M285.5965,148.40952l4.66666,-3.33333"/><path d="M277.68338,138.47625l-1.50716,5.53329"/></g><path d="M267.2854,117.56674c0,6.87595 -11.78514,12.45 -26.32286,12.45c-14.53771,0 -26.32286,-5.57406 -26.32286,-12.45c0,-6.87595 11.78514,-12.45 26.32286,-12.45c14.53771,0 26.32286,5.57405 26.32286,12.45z" fill="#ffffff" stroke="#000000" stroke-width="2" stroke-linecap="butt"/><path d="M250.31956,206.06669c0,4.90489 -3.72473,8.88106 -8.31944,8.88106c-4.59469,0 -8.31944,-3.97619 -8.31944,-8.88106c0,-4.90489 3.72473,-8.88106 8.31944,-8.88106c4.59469,0 8.31944,3.97619 8.31944,8.88106z" fill="#000000" stroke="none" stroke-width="0" stroke-linecap="butt"/><text transform="translate(234.83787,126.28339) scale(0.5,0.63543)" font-size="40" xml:space="preserve" fill="#adadad" fill-rule="nonzero" stroke="none" stroke-width="1" stroke-linecap="butt" stroke-linejoin="miter" stroke-miterlimit="10" stroke-dasharray="" stroke-dashoffset="0" font-family="Handwriting" font-weight="normal" text-anchor="start" style="mix-blend-mode: normal"><tspan x="0" dy="0">8</tspan></text><path d="M237.89562,108.55886c0.7194,7.3451 0.2092,24.69978 -4.94026,25.01592c-5.14948,0.31613 -12.98824,-16.526 -13.70761,-23.87111c-0.08978,-0.91675 -0.11242,-1.81583 -0.07326,-2.68797c0.27461,-6.11563 18.00176,-5.80195 18.72114,1.54315z" fill="#838383" stroke="#000000" stroke-width="2" stroke-linecap="butt"/><path d="M268.43264,84.14506c7.27008,-3.75242 16.87835,0.14527 21.46068,8.70574c4.58232,8.56046 13.37152,33.36505 6.10143,37.11748c-7.27008,3.75242 -27.8464,-14.96827 -32.42873,-23.52873c-4.58232,-8.56046 -2.40347,-18.54203 4.86661,-22.29446z" data-paper-data="{&quot;index&quot;:null}" fill="#5b5b5b" stroke="#000000" stroke-width="2" stroke-linecap="butt"/><path d="M256.99688,98.45465l-0.68516,-46.2861l32.86108,-14.03445l6.28584,30.21578z" data-paper-data="{&quot;index&quot;:null}" fill="#5b5b5b" stroke="#000000" stroke-width="2" stroke-linecap="butt"/><path d="M222.21267,106.42741c-4.97782,8.33671 -26.40743,26.07422 -33.494,21.98577c-7.08656,-4.08845 2.85347,-28.45467 7.83129,-36.79136c4.97782,-8.33671 14.75792,-11.78061 21.84448,-7.69216c7.08656,4.08845 8.79604,14.16103 3.81823,22.49775z" fill="#5b5b5b" stroke="#000000" stroke-width="2" stroke-linecap="butt"/><path d="M219.17137,110.00666c-1.43911,7.1296 -6.53184,23.08877 -10.5613,21.31796c-4.02948,-1.77082 -5.46979,-20.60104 -4.03068,-27.73063c0.17962,-0.88983 0.40586,-1.7363 0.67215,-2.53287c1.86727,-5.58585 15.35895,1.81597 13.91985,8.94557z" fill="#838383" stroke="#000000" stroke-width="2" stroke-linecap="butt"/><path d="M274.19395,97.93458c0.55162,0.63339 1.0854,1.32818 1.5928,2.08094c4.0652,6.03126 9.96217,23.97222 6.92092,27.15392c-3.04125,3.1817 -13.86906,-9.60071 -17.93427,-15.63198c-4.06522,-6.03127 5.55246,-18.04429 9.42056,-13.60288z" data-paper-data="{&quot;index&quot;:null}" fill="#838383" stroke="#000000" stroke-width="2" stroke-linecap="butt"/><path d="M266.03406,101.72843c0.39941,0.77631 0.75385,1.60285 1.05466,2.47349c2.41014,6.97562 2.31152,25.55232 -2.5004,27.41307c-4.81194,1.86074 -12.51497,-13.69909 -14.92511,-20.6747c-2.41014,-6.97562 13.57019,-14.65542 16.37084,-9.21185z" data-paper-data="{&quot;index&quot;:null}" fill="#838383" stroke="#000000" stroke-width="2" stroke-linecap="butt"/><path d="M203.34713,108.55906l4.10251,-28.26669c0,0 36.03793,-12.75024 36.21236,-12.70261c3.98719,1.08811 36.92968,14.18516 36.92968,14.18516l3.22334,28.89693z" fill="#5b5b5b" stroke="#000000" stroke-width="2" stroke-linecap="butt"/><path d="M237.36069,75.22248c2.25994,4.93207 -2.41675,11.91271 -10.44571,15.5917c-8.02895,3.67899 -16.36974,2.66316 -18.62972,-2.2689c-2.25994,-4.93207 2.41675,-11.91271 10.44571,-15.59169c8.02895,-3.67899 16.36975,-2.66316 18.62971,2.2689z" fill="#ffffff" stroke="#000000" stroke-width="2" stroke-linecap="butt"/><path d="M268.59665,74.1207c7.84804,4.05059 12.19302,11.2424 9.70479,16.06334c-2.48822,4.82094 -10.86742,5.44543 -18.71546,1.39483c-7.84803,-4.05059 -12.19303,-11.2424 -9.70481,-16.06334c2.48822,-4.82094 10.86741,-5.44542 18.71546,-1.39481z" data-paper-data="{&quot;index&quot;:null}" fill="#ffffff" stroke="#000000" stroke-width="2" stroke-linecap="butt"/><path d="M231.89684,83.32883c1.00847,1.75776 -1.42464,5.04766 -5.4345,7.34825c-4.00987,2.30058 -8.07804,2.74064 -9.0865,0.98289c-1.00847,-1.75776 1.42463,-5.04767 5.4345,-7.34825c4.00987,-2.30058 8.07804,-2.74064 9.08651,-0.98288z" fill="#000000" stroke="#000000" stroke-width="2" stroke-linecap="butt"/><path d="M263.22931,85.14685c3.89784,2.48567 6.17436,5.88582 5.08475,7.59446c-1.08961,1.70865 -5.13274,1.07873 -9.03058,-1.40692c-3.89784,-2.48567 -6.17437,-5.88583 -5.08478,-7.59446c1.08961,-1.70865 5.13273,-1.07873 9.03058,1.40692z" data-paper-data="{&quot;index&quot;:null}" fill="#000000" stroke="#000000" stroke-width="2" stroke-linecap="butt"/><path d="M245.98658,95.14489c-0.0326,1.39282 -6.45211,1.24258 -6.4195,-0.15025c0.0326,-1.39282 1.49609,-2.48832 3.26877,-2.44683c1.7727,0.0415 3.18333,1.20423 3.15072,2.59707z" fill="#000000" stroke="#000000" stroke-width="2" stroke-linecap="butt"/><path d="M242.50474,100.98759l0.1435,-5.8366" fill="none" stroke="#000000" stroke-width="1" stroke-linecap="round"/><path d="M242.46243,100.38388c0,0 -0.09613,0.87769 -0.62078,1.68902c-0.46264,0.71546 -1.32827,1.3542 -1.76644,1.64941c-0.28113,0.18943 -1.75532,0.6098 -2.53473,0.29885c-1.23905,-0.49434 -1.87227,-1.89688 -1.87227,-1.89688" data-paper-data="{&quot;index&quot;:null}" fill="none" stroke="#000000" stroke-width="1" stroke-linecap="round"/><path d="M211.41607,99.2437c0.05839,0.03857 0.12229,0.11372 0.11906,0.2575c-0.00254,0.1124 -0.04396,0.17037 -0.09045,0.19991c-0.0231,0.03651 -0.06004,0.06695 -0.11817,0.08107c-0.08851,0.02155 -0.15081,-0.01302 -0.19318,-0.05985c-1.10761,0.0629 -4.13854,1.76074 -2.45973,2.79794c0.56024,0.36069 1.41396,0.27906 1.92854,-0.05876c0.12566,-0.0825 0.51,-0.45988 0.68552,-0.4067c0.47687,0.14448 0.54164,1.1816 0.6589,1.60107c0.23461,0.83932 0.82022,1.4737 1.4516,1.88839c1.67651,0.66471 2.22936,-0.68963 2.15533,-2.56396c-0.01394,-0.35307 -0.40594,-1.34383 -0.27844,-1.60758c0.1206,-0.24947 0.54793,-0.31557 0.77319,-0.3705c0.811,-0.38616 2.10729,-1.06703 2.55824,-2.02289c0.80379,-1.70376 -0.79913,-2.00088 -1.76591,-1.7651c-0.4445,0.10815 -1.66939,1.0013 -2.06165,0.90682c-0.4554,-0.10967 -0.42317,-0.62189 -0.54769,-0.97545c-0.40407,-1.14734 -1.73967,-2.86768 -2.69242,-1.67986c-0.77835,0.87053 -0.41265,2.57663 -0.12272,3.77793zM210.96713,99.20595c-0.32739,-1.40088 -0.6059,-3.11959 0.25551,-4.14053c0.96376,-1.06026 2.3331,-0.19729 2.9916,1.08089c0.06475,0.12571 0.37457,0.72145 0.4128,0.83003c0.0717,0.20359 0.00847,0.64865 0.1805,0.62337c0.56533,-0.08311 1.27529,-0.75082 1.90677,-0.90445c1.35722,-0.32948 3.24904,0.4835 2.27583,2.57943c-0.49572,1.0676 -1.87755,1.8076 -2.7817,2.23641c-0.81296,0.19737 -0.19804,1.3211 -0.2505,2.37737c-0.09847,1.98309 -1.10751,2.77774 -2.69631,2.13837c-0.63618,-0.41581 -1.24616,-1.01613 -1.58252,-1.81592c-0.04879,-0.11601 -0.42564,-1.64021 -0.43866,-1.63901c-0.99881,0.092 -1.50987,1.18199 -2.73446,0.41309c-2.29449,-1.43548 0.90986,-3.5994 2.46114,-3.77903z" fill="#c5c5c5" stroke="none" stroke-width="0.5" stroke-linecap="butt"/><path d="M274.5234,96.38941c-0.89614,-1.23109 -2.31075,0.42487 -2.76805,1.55205c-0.14092,0.34736 -0.13268,0.86052 -0.59272,0.94876c-0.39626,0.07602 -1.57802,-0.87348 -2.01697,-1.00231c-0.95468,-0.28076 -2.56974,-0.05895 -1.84656,1.68055c0.40571,0.97591 1.66876,1.71667 2.4608,2.14037c0.22244,0.06542 0.64618,0.15143 0.75498,0.40627c0.11502,0.26944 -0.3229,1.24075 -0.35334,1.59279c-0.16165,1.8688 0.32725,3.24753 2.03302,2.66199c0.65009,-0.38468 1.26474,-0.99097 1.53836,-1.81839c0.13677,-0.41353 0.24997,-1.44649 0.73307,-1.5685c0.17782,-0.0449 0.54409,0.35003 0.66576,0.43832c0.49823,0.36151 1.34719,0.48301 1.92369,0.14893c1.72549,-0.95753 -1.22269,-2.79531 -2.32615,-2.90997c-0.0445,0.0448 -0.10835,0.07642 -0.19576,0.05075c-0.0574,-0.01685 -0.09288,-0.04896 -0.11424,-0.08652c-0.04506,-0.03169 -0.0837,-0.09152 -0.08098,-0.20393c0.0035,-0.14378 0.07083,-0.21587 0.13097,-0.25166c0.34581,-1.18643 0.79091,-2.87354 0.05417,-3.77954zM277.20112,104.04227c-1.25925,0.71078 -1.71872,-0.40191 -2.71214,-0.54056c-0.01293,-0.0018 -0.4607,1.50309 -0.51486,1.6167c-0.37338,0.78317 -1.0108,1.35429 -1.66574,1.7399c-1.61696,0.56433 -2.58773,-0.27663 -2.59331,-2.26218c-0.00297,-1.05757 0.66384,-2.1513 -0.139,-2.38649c-0.8831,-0.47062 -2.22878,-1.27448 -2.67401,-2.3641c-0.87408,-2.13917 1.05368,-2.86276 2.39401,-2.47014c0.6236,0.18302 1.30152,0.88323 1.86236,0.99268c0.17064,0.0333 0.12833,-0.41424 0.20945,-0.61424c0.04328,-0.10667 0.38065,-0.68731 0.4512,-0.80983c0.71757,-1.24598 2.12578,-2.04392 3.03889,-0.93973c0.81269,1.06013 0.45409,2.76393 0.06151,4.14797c1.5412,0.25201 4.64079,2.56346 2.28163,3.89004z" data-paper-data="{&quot;index&quot;:null}" fill="#c5c5c5" stroke="none" stroke-width="0.5" stroke-linecap="butt"/><path d="M249.26993,102.58555c0,0 -0.69815,1.37138 -1.95896,1.8072c-0.7931,0.27415 -2.24599,-0.21474 -2.51796,-0.4171c-0.42388,-0.31538 -1.2587,-0.99393 -1.68735,-1.73026c-0.48609,-0.83499 -0.54108,-1.71622 -0.54108,-1.71622" data-paper-data="{&quot;index&quot;:null}" fill="none" stroke="#000000" stroke-width="1" stroke-linecap="round"/></g></g></svg>