<svg version="1.1" xmlns="http://www.w3.org/2000/svg" xmlns:xlink="http://www.w3.org/1999/xlink" width="34.17311" height="34.17311" viewBox="0,0,34.17311,34.17311"><g transform="translate(-222.91347,-162.91347)"><g data-paper-data="{&quot;isPaintingLayer&quot;:true}" stroke-miterlimit="10" stroke-dasharray="" stroke-dashoffset="0" style="mix-blend-mode: normal"><path d="M229.98314,162.91348h20.03379c3.9166,0 7.06966,3.15307 7.06966,7.06966v20.03379c0,3.91659 -3.15306,7.06966 -7.06966,7.06966h-20.03379c-3.91659,0 -7.06966,-3.15307 -7.06966,-7.06966v-20.03379c0,-3.91659 3.15307,-7.06966 7.06966,-7.06966z" fill="#434343" fill-rule="evenodd" stroke="none" stroke-width="4.43922" stroke-linecap="round" stroke-linejoin="round"/><g fill-rule="nonzero" stroke="#000000" stroke-width="0.5" stroke-linecap="butt" stroke-linejoin="miter"><path d="M229.67634,180.00319c-0.21735,0.16665 -1.87808,1.61912 -2.37089,2.49915c-0.40951,0.73823 -0.13145,2.12684 0.06484,2.71898c0.23944,0.72213 0.61606,1.231 1.29949,1.75769c0.66073,0.50916 3.4072,1.18337 3.82945,1.22985l1.66017,2.20706c0,0 -4.09457,0.51025 -7.05502,-0.67045c-1.00035,-0.39896 -2.69431,-1.80026 -3.36406,-3.43916c-0.63725,-1.55935 -0.28193,-3.35751 -0.02377,-3.80384c1.56618,-2.70781 5.07939,-5.05847 5.07939,-5.05847z" data-paper-data="{&quot;index&quot;:null}" fill="#cacaca"/><g fill="#cacaca"><g data-paper-data="{&quot;index&quot;:null}"><g data-paper-data="{&quot;index&quot;:null}"><path d="M240.84358,172.31492c-0.35094,-0.13751 -0.65385,-0.40121 -0.86137,-0.78604c-0.5728,-1.06222 -0.2019,-2.645 0.82844,-3.53525c1.03034,-0.89025 2.32994,-0.75084 2.90275,0.31137c0.5728,1.06222 0.2019,2.645 -0.82844,3.53525c-0.65706,0.56772 -1.42363,0.71671 -2.04138,0.47466z"/></g><g data-paper-data="{&quot;index&quot;:null}"><path d="M246.65496,170.1479c-0.4005,-1.16417 0.26809,-2.46819 1.49333,-2.91261c1.22524,-0.44442 2.54316,0.13906 2.94365,1.30323c0.4005,1.16417 -0.26809,2.46819 -1.49333,2.91261c-1.22524,0.44442 -2.54316,-0.13906 -2.94365,-1.30323z"/><path d="M243.44479,170.16068c-0.4005,-1.16417 0.26809,-2.46819 1.49333,-2.91261c1.22524,-0.44442 2.54316,0.13906 2.94365,1.30323c0.4005,1.16417 -0.26809,2.46819 -1.49333,2.91261c-1.22524,0.44442 -2.54316,-0.13906 -2.94365,-1.30323z"/></g></g><g data-paper-data="{&quot;index&quot;:null}"><path d="M235.33063,174.58035c-1.29763,-0.04585 -2.52111,-1.05032 -2.73271,-2.24355c-0.2116,-1.19323 0.6688,-2.12337 1.96644,-2.07752c1.29763,0.04585 2.52111,1.05032 2.73271,2.24356c0.2116,1.19323 -0.6688,2.12337 -1.96644,2.07751z"/><path d="M238.17134,173.6379c-1.29763,-0.04585 -2.52111,-1.05032 -2.73271,-2.24356c-0.2116,-1.19323 0.6688,-2.12337 1.96644,-2.07752c1.29763,0.04585 2.52111,1.05032 2.73271,2.24355c0.2116,1.19323 -0.6688,2.12337 -1.96644,2.07752z"/></g><g data-paper-data="{&quot;index&quot;:null}"><path d="M230.11787,178.51716c-1.17506,0.42622 -2.4523,-0.17201 -2.8528,-1.33619c-0.4005,-1.16417 0.22742,-2.45344 1.40248,-2.87966c1.17506,-0.42622 2.4523,0.17202 2.8528,1.33619c0.4005,1.16417 -0.22742,2.45344 -1.40248,2.87966z"/><path d="M232.50655,176.49913c-1.17506,0.42622 -2.4523,-0.17202 -2.8528,-1.33619c-0.4005,-1.16417 0.22742,-2.45344 1.40248,-2.87966c1.17506,-0.42622 2.4523,0.17201 2.8528,1.33619c0.4005,1.16417 -0.22742,2.45344 -1.40248,2.87966z"/></g></g><path d="M251.37363,169.34863c0.51275,1.49048 -4.3948,4.62958 -10.96132,7.01138c-6.56652,2.3818 -12.30541,3.10436 -12.81816,1.61388c-0.51275,-1.49048 4.3948,-4.62958 10.96132,-7.01138c6.56652,-2.3818 12.30541,-3.10436 12.81816,-1.61388z" fill="#1c1c1c"/><g fill="#cacaca"><g data-paper-data="{&quot;index&quot;:null}"><path d="M242.93129,171.97495c1.30283,-0.09817 2.43774,0.53989 2.5349,1.42515c0.09716,0.88526 -0.88023,1.68249 -2.18305,1.78067c-1.30283,0.09817 -2.43774,-0.53989 -2.5349,-1.42515c-0.0352,-0.32072 0.07064,-0.62988 0.28188,-0.89843c0.37185,-0.47273 1.07033,-0.81962 1.90117,-0.88223z"/></g><g data-paper-data="{&quot;index&quot;:null}"><path d="M248.56558,168.44829c1.22524,-0.44442 2.45382,-0.12064 2.7441,0.72317c0.29029,0.84381 -0.46764,1.88813 -1.69289,2.33255c-1.22524,0.44442 -2.45382,0.12064 -2.7441,-0.72317c-0.29029,-0.84381 0.46764,-1.88813 1.69289,-2.33255z"/><path d="M245.96294,170.22702c1.22524,-0.44442 2.45382,-0.12064 2.7441,0.72317c0.29029,0.84381 -0.46764,1.88813 -1.69289,2.33255c-1.22524,0.44442 -2.45382,0.12064 -2.7441,-0.72317c-0.29029,-0.84381 0.46765,-1.88813 1.69289,-2.33255z"/></g></g><g fill="#cacaca"><path d="M238.00211,174.5523c0.48102,0.82011 0.04739,2.11158 -0.96854,2.8846c-1.01593,0.77301 -2.22945,0.73483 -2.71047,-0.08527c-0.48102,-0.82011 -0.04739,-2.11158 0.96854,-2.88459c1.01593,-0.77301 2.22945,-0.73483 2.71047,0.08527z"/><path d="M240.79487,173.47046c0.48102,0.82011 0.04739,2.11158 -0.96854,2.88459c-1.01593,0.77301 -2.22945,0.73483 -2.71047,-0.08527c-0.48102,-0.82011 -0.04739,-2.11158 0.96854,-2.88459c1.01593,-0.77301 2.22945,-0.73483 2.71047,0.08527z"/></g><g><path d="M231.7214,176.22194c0.30549,0.88801 -0.39944,1.9534 -1.5745,2.37961c-1.17506,0.42622 -2.37529,0.05186 -2.68078,-0.83614c-0.30549,-0.88801 0.39944,-1.9534 1.5745,-2.37961c1.17506,-0.42622 2.37528,-0.05186 2.68077,0.83614z" fill="#cacaca"/><path d="M234.73097,176.00874c0.30549,0.88801 -0.39944,1.95339 -1.5745,2.37961c-1.17506,0.42622 -2.37529,0.05186 -2.68078,-0.83614c-0.30549,-0.88801 0.39944,-1.9534 1.5745,-2.37961c1.17506,-0.42622 2.37528,-0.05186 2.68077,0.83614z" fill="#cacaca"/></g><path d="M229.41453,184.88798c-0.10429,-0.30317 -1.95923,-5.90411 -1.83591,-7.20844c0.00661,-0.06991 5.90829,-0.86361 11.52092,-2.8841c6.12214,-2.20391 12.00383,-5.64436 12.12462,-5.57216c0.19632,0.11735 2.29434,6.06507 2.57818,6.89015c2.20843,6.41953 -1.40046,13.58197 -8.06068,15.99775c-6.66022,2.41578 -14.1187,-0.80369 -16.32713,-7.22322z" fill="#f8f7f9"/></g></g></g></svg>