<svg version="1.1" xmlns="http://www.w3.org/2000/svg" xmlns:xlink="http://www.w3.org/1999/xlink" width="216.21566" height="326.19861" viewBox="0,0,216.21566,326.19861"><g transform="translate(-144.40753,12.58608)"><g data-paper-data="{&quot;isPaintingLayer&quot;:true}" fill-rule="nonzero" stroke-linejoin="miter" stroke-miterlimit="10" stroke-dasharray="" stroke-dashoffset="0" style="mix-blend-mode: normal"><path d="M179.28374,313.61253v-267.22501h123.18203v267.22501z" fill-opacity="0.01" fill="#000000" stroke="none" stroke-width="0" stroke-linecap="butt"/><path d="M223.44727,224.50574c0,0 -3.67995,-3.98402 -6.53186,-8.88447c-1.29989,-2.23361 -2.16368,-5.71395 -2.89428,-7.23135c-0.8107,-1.68377 -1.72928,-6.02095 -2.13481,-9.31268c-0.55374,-4.49479 -0.43906,-7.90484 -0.43906,-7.90484l11.66666,6.33333v12.66667z" fill="#7d2222" stroke="#000000" stroke-width="2" stroke-linecap="butt"/><path d="M206.75006,307.50002l15.14285,-131.8421l37.78325,-0.15789l13.57389,132z" fill="#3e3e3e" stroke="#000000" stroke-width="2" stroke-linecap="butt"/><path d="M219.70029,204.11265l3.12142,-26.32765l35.83075,-0.14203l2.76735,26.1059c0,0 -7.51543,5.86269 -21.55904,6.1763c-12.48458,0.27879 -20.16049,-5.81252 -20.16049,-5.81252z" fill="#292929" stroke="#000000" stroke-width="0" stroke-linecap="butt"/><path d="M256.19726,197.83908c0,0 0.8418,-8.91928 6.15803,-18.03282c1.14007,-1.95441 2.7433,0.32912 7.52045,-2.29229c5.44123,-2.98582 14.20722,-11.04656 17.08931,-16.21927c1.90102,-3.4119 2.68569,-7.30664 2.86599,-11.0495c0.39682,-8.23754 -2.13379,-15.73946 -2.13379,-15.73946c0,0 26.48753,-11.18453 22.72938,-4.44579c-1.06843,1.91581 -2.4403,13.60767 -8.63544,25.78616c-6.58791,12.95061 -18.10679,26.49512 -22.37167,30.93121c-3.14736,3.27371 -23.22227,11.06175 -23.22227,11.06175z" fill="#7d2222" stroke="#000000" stroke-width="2" stroke-linecap="butt"/><path d="M270.66669,172.51346c0,3.82102 -2.75972,13.4329 -9.17136,21.5486c-4.92771,6.23738 -12.49006,11.591 -19.6995,12.75278c-0.81004,0.13054 -34.12914,-10.8804 -34.12914,-17.96805c0,-7.08766 14.47613,-12.83333 32.33334,-12.83333c17.8572,0 30.66666,-10.58766 30.66666,-3.5z" fill="#7d2222" stroke="#000000" stroke-width="2" stroke-linecap="butt"/><g stroke-linecap="butt"><path d="M234.12757,-11.52548c0.48194,-2.19766 20.40145,56.0643 51.18031,62.81971c31.94306,7.01093 74.7712,-37.39529 74.31165,-35.29974c-5.06664,23.10407 -8.44572,72.25859 -30.75668,99.01309c-19.84028,23.79173 -58.88875,26.7274 -62.65605,25.90125c-2.50149,-0.54856 -36.994,-24.48115 -44.27597,-48.66965c-10.53914,-35.00784 6.33593,-77.03913 12.19674,-103.76464z" fill="#5c5c5c" stroke="#000000" stroke-width="2"/><path d="M240.57457,119.30114l2.71283,-21.8993c0,0 2.36158,1.30827 5.38061,2.07854c1.33399,0.34036 3.37579,0.48696 4.41409,0.52003c1.49297,0.04754 4.24998,-0.25564 6.29003,-0.65516c0.7272,-0.14242 -4.05388,33.78342 -4.05388,33.78342c0,0 -10.62633,-8.27055 -11.88207,-9.70913c-1.86569,-2.13736 -2.86161,-4.1184 -2.86161,-4.1184z" fill="#ffffff" stroke="none" stroke-width="0"/><path d="M301.35919,134.32758c-1.73632,0.79472 -14.82403,3.96217 -14.82403,3.96217c0,0 9.01425,-31.08076 9.6185,-30.65183c0.70403,0.49977 3.5527,1.94057 6.68744,2.48112c4.413,0.76095 9.35575,0.55503 9.35575,0.55503l-6.5353,21.07674c0,0 -1.72264,1.39603 -4.30236,2.57677z" data-paper-data="{&quot;index&quot;:null}" fill="#ffffff" stroke="none" stroke-width="0"/><path d="M234.12757,-11.52548c0.48194,-2.19766 20.40145,56.0643 51.18031,62.81971c31.94306,7.01093 74.7712,-37.39529 74.31165,-35.29974c-5.06664,23.10407 -8.44572,72.25859 -30.75668,99.01309c-19.84028,23.79173 -58.88875,26.7274 -62.65605,25.90125c-2.50149,-0.54856 -36.994,-24.48115 -44.27597,-48.66965c-10.53914,-35.00784 6.33593,-77.03913 12.19674,-103.76464z" fill="none" stroke="#000000" stroke-width="2"/></g><path d="M231.25322,71.86297c2.55893,-12.71303 14.93932,-20.94453 27.65234,-18.38559c12.71301,2.55895 20.94453,14.93932 18.38559,27.65234c-2.55894,12.71303 -14.93932,20.94453 -27.65233,18.38559c-12.71302,-2.55894 -20.94452,-14.93932 -18.38559,-27.65234z" fill="#ffffff" stroke="#000000" stroke-width="2" stroke-linecap="butt"/><path d="M232.0383,74.90769c1.80122,-8.94859 10.51566,-14.74269 19.46425,-12.94147c8.9486,1.80121 14.74268,10.51568 12.94147,19.46426c-1.80122,8.94861 -10.51566,14.74269 -19.46425,12.94147c-8.9486,-1.80123 -14.74268,-10.51567 -12.94146,-19.46426z" fill="#000000" stroke="none" stroke-width="0" stroke-linecap="butt"/><path d="M302.83044,110.22196c-12.71301,-2.55894 -20.94453,-14.93932 -18.38559,-27.65234c2.55894,-12.71303 14.93932,-20.94452 27.65233,-18.38559c12.71301,2.55895 20.94453,14.93932 18.38559,27.65234c-2.55894,12.71303 -14.93932,20.94453 -27.65233,18.38559z" data-paper-data="{&quot;index&quot;:null}" fill="#ffffff" stroke="#000000" stroke-width="2" stroke-linecap="butt"/><path d="M297.22895,102.95167c-8.94858,-1.80121 -14.74268,-10.51568 -12.94146,-19.46426c1.80122,-8.94861 10.51567,-14.74268 19.46425,-12.94146c8.94858,1.80121 14.74268,10.51566 12.94146,19.46425c-1.80122,8.94859 -10.51567,14.74269 -19.46425,12.94148z" data-paper-data="{&quot;index&quot;:null}" fill="#000000" stroke="none" stroke-width="0" stroke-linecap="butt"/><path d="M270.04626,49.00119c0,0 -7.59707,3.74373 -12.82095,3.91051c-5.22389,0.16678 -11.95361,-3.11948 -11.95361,-3.11948c0,0 7.86818,1.64524 11.90242,1.51642c4.21594,-0.13461 12.87214,-2.30745 12.87214,-2.30745z" data-paper-data="{&quot;index&quot;:null}" fill="#000000" stroke="none" stroke-width="0" stroke-linecap="butt"/><path d="M312.58289,56.8513c3.67023,1.67962 11.56219,3.20666 11.56219,3.20666c0,0 -7.47706,0.42667 -12.22962,-1.74824c-4.75254,-2.17491 -10.30955,-8.56634 -10.30955,-8.56634c0,0 7.14143,5.35267 10.97696,7.10793z" data-paper-data="{&quot;index&quot;:null}" fill="#000000" stroke="none" stroke-width="0" stroke-linecap="butt"/><path d="M231.52792,71.76525c2.55893,-12.71303 14.73934,-20.98478 27.20568,-18.4755c3.05278,0.61449 10.03692,3.61527 14.56257,9.07096c1.98792,2.39645 4.16943,9.10558 4.20743,9.81323c-2.1881,0.12929 -45.04565,0.24743 -46.17461,0.7148c0.0572,-0.37401 0.12344,-0.74859 0.19891,-1.1235z" fill="#5c5c5c" stroke="#000000" stroke-width="2" stroke-linecap="butt"/><path d="M330.19503,92.789c-0.86021,-0.86775 -40.33448,-17.55805 -42.30215,-18.52384c0.30883,-0.63783 4.91617,-5.98049 7.67647,-7.42119c6.28399,-3.27987 13.88521,-3.34486 16.93801,-2.73037c12.46634,2.50929 20.49787,14.84942 17.93893,27.56245c-0.07547,0.3749 -0.15929,0.74594 -0.25124,1.11295z" data-paper-data="{&quot;index&quot;:null}" fill="#5c5c5c" stroke="#000000" stroke-width="2" stroke-linecap="butt"/><path d="M258.31048,121.3476c0,0 2.33387,-1.46449 4.37403,-1.18317c0.83862,0.11564 2.08625,1.90135 3.6393,2.20064c1.16838,0.22517 2.97906,-1.40259 4.38,-1.17664c1.35125,0.21793 2.59684,2.59467 4.00341,2.89522c1.63975,0.35038 3.45794,-1.60427 5.00621,-1.41013c1.6975,0.21286 3.1263,2.29346 4.42628,2.74289c2.31628,0.80076 3.94168,0.03651 3.94168,0.03651" fill="none" stroke="#000000" stroke-width="2" stroke-linecap="round"/><path d="M339.33011,34.61c0,0 7.83322,-6.20482 11.10731,-8.95214c2.62315,-2.20112 7.02083,-6.25939 7.02083,-6.25939l-5.32516,28.28931c0,0 1.71533,-19.42767 0.51306,-20.85189c-1.53606,-1.81962 -13.31603,7.77412 -13.31603,7.77412z" fill="#2f2f2f" stroke="none" stroke-width="0" stroke-linecap="butt"/><path d="M145.40887,58.19331c-0.25809,-2.30523 36.9548,56.1723 69.93586,52.48557c34.22859,-3.82619 64.18685,-65.84689 64.43295,-63.64878c2.7133,24.23483 13.71193,77.71519 0.44713,111.27023c-8.17079,20.66906 -27.03302,32.28564 -40.69735,37.79178c-6.06237,2.44288 -13.06301,3.9026 -14.30353,4.04149c-0.84869,0.09502 -8.35703,-0.27664 -14.8969,-1.92808c-14.1143,-3.56411 -33.92645,-11.94616 -44.4494,-26.4125c-22.28652,-30.6382 -20.46876,-113.5997 -20.46876,-113.5997z" fill="#ffffff" stroke="#000000" stroke-width="2" stroke-linecap="butt"/><path d="M169.85691,145.75406c-1.44287,-12.88748 7.83484,-24.50453 20.72232,-25.9474c12.88748,-1.44287 24.50453,7.83484 25.9474,20.72232c1.44287,12.88748 -7.83484,24.50453 -20.72232,25.9474c-12.88748,1.44287 -24.50453,-7.83484 -25.9474,-20.72232z" fill="#ffffff" stroke="#000000" stroke-width="2" stroke-linecap="butt"/><path d="M176.32189,145.55322c-1.01562,-9.0714 5.51487,-17.24854 14.58626,-18.26416c9.0714,-1.01562 17.24854,5.51488 18.26416,14.58627c1.01562,9.0714 -5.51488,17.24854 -14.58627,18.26416c-9.0714,1.01562 -17.24853,-5.51488 -18.26415,-14.58627z" fill="#000000" stroke="none" stroke-width="0" stroke-linecap="butt"/><path d="M249.72587,160.43936c-12.88748,1.44287 -24.50453,-7.83484 -25.9474,-20.72232c-1.44287,-12.88748 7.83484,-24.50453 20.72232,-25.9474c12.88748,-1.44287 24.50453,7.83484 25.9474,20.72232c1.44287,12.88748 -7.83484,24.50453 -20.72232,25.9474z" data-paper-data="{&quot;index&quot;:null}" fill="#ffffff" stroke="#000000" stroke-width="2" stroke-linecap="butt"/><path d="M249.53466,153.79426c-9.07139,1.01562 -17.24853,-5.51488 -18.26415,-14.58627c-1.01562,-9.0714 5.51488,-17.24854 14.58626,-18.26416c9.07139,-1.01562 17.24853,5.51488 18.26415,14.58627c1.01562,9.0714 -5.51488,17.24854 -14.58626,18.26416z" data-paper-data="{&quot;index&quot;:null}" fill="#000000" stroke="none" stroke-width="0" stroke-linecap="butt"/><path d="M179.2108,115.71836c0,0 6.09215,-5.88359 11.01593,-7.63664c4.92379,-1.75305 12.33536,-0.67731 12.33536,-0.67731c0,0 -7.99492,0.83444 -11.7974,2.18828c-3.97374,1.41481 -11.55389,6.12567 -11.55389,6.12567z" fill="#000000" stroke="none" stroke-width="0" stroke-linecap="butt"/><path d="M242.21404,103.8325c-4.00773,-0.47941 -11.98923,0.47484 -11.98923,0.47484c0,0 6.99017,-2.68814 12.17973,-2.06737c5.18955,0.62078 12.43199,5.01144 12.43199,5.01144c0,0 -8.43427,-2.91791 -12.62249,-3.41891z" data-paper-data="{&quot;index&quot;:null}" fill="#000000" stroke="none" stroke-width="0" stroke-linecap="butt"/><path d="M169.93111,145.71173c-1.44287,-12.88749 7.83484,-24.50453 20.72233,-25.9474c12.88749,-1.44287 24.50453,7.83483 25.9474,20.72232c0,0 -3.7721,-2.9929 -10.88265,-4.44489c-3.5946,-0.73403 -9.33706,-0.92931 -13.24372,-0.43984c-2.58791,0.32424 -7.83875,1.58671 -10.23441,2.48564c-8.40366,3.15332 -12.25555,8.10102 -12.30893,7.62418z" fill="#ffffff" stroke="#000000" stroke-width="2" stroke-linecap="butt"/><path d="M223.84427,139.67566c-1.44287,-12.88749 7.83484,-24.50453 20.72233,-25.9474c12.88749,-1.44287 24.50453,7.83483 25.9474,20.72232c0,0 -3.77209,-2.9929 -10.88265,-4.44489c-3.5946,-0.73403 -9.33706,-0.92931 -13.24372,-0.43984c-2.58792,0.32424 -7.83876,1.58671 -10.23441,2.48564c-8.40366,3.15332 -12.25555,8.10102 -12.30893,7.62418z" fill="#ffffff" stroke="#000000" stroke-width="2" stroke-linecap="butt"/><path d="M256.19117,186.71457c0.05663,0.50582 -1.65385,0.72015 -3.48146,1.95118c-5.11319,3.44415 -17.31087,9.93605 -27.36055,11.0612c-1.70344,0.19071 -7.8645,-0.55301 -8.78329,-0.6188c-0.33847,-0.02424 -17.00132,-5.02175 -17.08364,-5.75702c-0.03864,-0.34509 15.60857,1.9181 26.79964,0.66517c13.64175,-1.52731 29.69423,-9.22272 29.9093,-7.30173z" fill="#d2d2d2" stroke="none" stroke-width="0" stroke-linecap="butt"/><path d="M266.59053,69.79391c0,0 5.48311,-8.47173 7.72154,-12.15766c1.79339,-2.95311 4.67233,-8.2508 4.67233,-8.2508c0,0 0.73439,7.63904 1.13492,11.80536c0.45054,4.68644 1.43597,14.93697 1.43597,14.93697c0,0 -3.01601,-17.18332 -4.68183,-18.12209c-2.12829,-1.1994 -10.28294,11.78824 -10.28294,11.78824z" fill="#d2d2d2" stroke="none" stroke-width="0" stroke-linecap="butt"/><path d="M196.64424,191.83935c0.23693,2.11624 -5.09522,-0.47663 -10.64585,-4.0918c-1.54761,-1.00798 -4.57613,-2.49924 -5.95637,-3.61804c-4.2518,-3.44642 -7.00472,-5.31766 -6.72022,-5.34951c0.34677,-0.03882 22.25923,3.56287 23.32244,13.05935z" fill="#797979" stroke="none" stroke-width="0" stroke-linecap="butt"/><path d="M274.30142,168.14527c0.28449,-0.03185 -1.98644,2.40186 -5.37082,6.70322c-1.09865,1.39633 -3.7224,3.52041 -5.00878,4.84568c-4.61372,4.75316 -9.24045,8.46102 -9.47738,6.34477c-1.06321,-9.49648 19.51021,-17.85485 19.85698,-17.89367z" data-paper-data="{&quot;index&quot;:null}" fill="#797979" stroke="none" stroke-width="0" stroke-linecap="butt"/><path d="M251.18669,202.52621c0,0.21478 -2.9212,3.5 -7.55426,3.5c-4.63306,0 -9.77907,-2.84078 -9.77907,-3.05555c0,-0.21478 4.57151,0.72222 9.20456,0.72222c4.63306,0 8.12877,-1.38144 8.12877,-1.16666z" fill="#581818" stroke="none" stroke-width="0" stroke-linecap="butt"/><path d="M236.84043,172.69571c0,0 -0.82894,17.39884 -10.8304,19.1215c-8.24475,1.42009 -17.77574,-14.70757 -17.77574,-14.70757z" fill="#000000" stroke="#000000" stroke-width="2" stroke-linecap="round"/></g></g></svg>