<svg version="1.1" xmlns="http://www.w3.org/2000/svg" xmlns:xlink="http://www.w3.org/1999/xlink" width="157.31512" height="288.6246" viewBox="0,0,157.31512,288.6246"><defs><linearGradient x1="239.12765" y1="76.44562" x2="239.12765" y2="286.00011" gradientUnits="userSpaceOnUse" id="color-1"><stop offset="0" stop-color="#2a241d"/><stop offset="1" stop-color="#efdbc0"/></linearGradient><linearGradient x1="239.12765" y1="76.29936" x2="239.12765" y2="285.60321" gradientUnits="userSpaceOnUse" id="color-2"><stop offset="0" stop-color="#000000"/><stop offset="1" stop-color="#846f51"/></linearGradient><linearGradient x1="322.58811" y1="30.46962" x2="330.42575" y2="107.98585" gradientUnits="userSpaceOnUse" id="color-3"><stop offset="0" stop-color="#000000"/><stop offset="1" stop-color="#ffd498"/></linearGradient><linearGradient x1="261.81048" y1="18.82768" x2="272.23196" y2="121.89884" gradientUnits="userSpaceOnUse" id="color-4"><stop offset="0" stop-color="#000000"/><stop offset="1" stop-color="#efd0a4"/></linearGradient><linearGradient x1="267.72469" y1="78.09908" x2="268.97675" y2="90.48237" gradientUnits="userSpaceOnUse" id="color-5"><stop offset="0" stop-color="#6a5d49" stop-opacity="0"/><stop offset="1" stop-color="#6a5d49"/></linearGradient><linearGradient x1="269.64563" y1="100.78484" x2="270.58552" y2="110.08054" gradientUnits="userSpaceOnUse" id="color-6"><stop offset="0" stop-color="#000000"/><stop offset="1" stop-color="#ffffff"/></linearGradient><linearGradient x1="270.9977" y1="97.18132" x2="272.46589" y2="108.8483" gradientUnits="userSpaceOnUse" id="color-7"><stop offset="0" stop-color="#000000"/><stop offset="1" stop-color="#ffffff"/></linearGradient></defs><g transform="translate(-190.48978,-17.97864)"><g data-paper-data="{&quot;isPaintingLayer&quot;:true}" fill-rule="nonzero" stroke-linejoin="miter" stroke-miterlimit="10" stroke-dasharray="" stroke-dashoffset="0" style="mix-blend-mode: normal"><g data-paper-data="{&quot;index&quot;:null}" fill="#000000" stroke-linecap="butt"><path d="M236.18297,259.1667v-92.62046h6.67534v92.62046z" stroke="none" stroke-width="0"/><g data-paper-data="{&quot;index&quot;:null}" stroke="#000000" stroke-width="0.5"><path d="M237.94994,187.58738l17.76273,-14.86198l3.50394,3.81471z"/><path d="M254.79946,177.8876l0.85499,-5.10868l22.99477,2.76293z" data-paper-data="{&quot;index&quot;:null}"/></g><g data-paper-data="{&quot;index&quot;:null}" stroke="#000000" stroke-width="0.5"><path d="M239.34064,203.7195l17.76273,-14.86199l3.50394,3.81471z"/><path d="M256.19015,194.01968l0.85499,-5.10868l22.99477,2.76293z" data-paper-data="{&quot;index&quot;:null}"/></g><g stroke="#000000" stroke-width="0.5"><g data-paper-data="{&quot;index&quot;:null}"><path d="M217.78939,176.03947l3.50394,-3.81472l17.76273,14.86199z"/><path d="M198.35678,175.04117l22.99477,-2.76293l0.85499,5.10868z" data-paper-data="{&quot;index&quot;:null}"/></g><g data-paper-data="{&quot;index&quot;:null}"><path d="M219.18008,192.17155l3.50394,-3.81471l17.76273,14.86199z"/><path d="M199.74748,191.1733l22.99477,-2.76293l0.85499,5.10868z" data-paper-data="{&quot;index&quot;:null}"/></g></g><g data-paper-data="{&quot;index&quot;:null}" stroke="#000000" stroke-width="0.5"><path d="M238.57576,219.08671l17.76273,-14.86198l3.50394,3.81471z"/><path d="M255.42527,209.38689l0.85499,-5.10868l22.99477,2.76293z" data-paper-data="{&quot;index&quot;:null}"/></g><g data-paper-data="{&quot;index&quot;:null}" stroke="#000000" stroke-width="0.5"><path d="M239.96645,235.2188l17.76273,-14.86199l3.50394,3.81471z"/><path d="M256.81597,225.51897l0.85499,-5.10868l22.99477,2.76293z" data-paper-data="{&quot;index&quot;:null}"/></g><g stroke="#000000" stroke-width="0.5"><g data-paper-data="{&quot;index&quot;:null}"><path d="M218.4152,208.09506l3.50394,-3.81471l17.76273,14.86198z"/><path d="M198.9826,207.09677l22.99477,-2.76293l0.85499,5.10868z" data-paper-data="{&quot;index&quot;:null}"/></g><g data-paper-data="{&quot;index&quot;:null}"><path d="M219.8059,224.22715l3.50394,-3.81471l17.76273,14.86198z"/><path d="M200.37329,223.22885l22.99477,-2.76293l0.85499,5.10868z" data-paper-data="{&quot;index&quot;:null}"/></g></g><g stroke="#000000" stroke-width="0.5"><path d="M219.52776,241.41617l3.50394,-3.81471l17.76273,14.86199z" data-paper-data="{&quot;index&quot;:null}"/><path d="M200.09515,240.41787l22.99477,-2.76293l0.85499,5.10868z" data-paper-data="{&quot;index&quot;:null}"/><g data-paper-data="{&quot;index&quot;:null}"><path d="M239.68831,252.51905l17.76273,-14.86199l3.50394,3.81471z"/><path d="M256.53783,242.81926l0.85499,-5.10868l22.99477,2.76293z" data-paper-data="{&quot;index&quot;:null}"/></g></g></g><g stroke="none" stroke-linecap="butt"><path d="M217.26495,76.69625l45.61978,-0.25065l7.16304,91.58746c-1.88894,-0.84003 -5.29413,2.3217 -7.06429,2.26905c-0.72163,-0.02146 -1.1511,-0.88931 -1.80211,-1.2014c-0.17131,-0.08212 -0.56286,0.12268 -0.73633,0.16363c-4.06877,0.96051 -4.42571,0.87938 -7.82269,0.87938c-1.18417,0 -3.03621,-1.09807 -3.94099,-1.04301c-1.89487,0.11532 -3.80325,2.15845 -5.52868,1.3668c-1.16858,-0.53616 -3.93407,-2.48773 -5.47132,-2.3668c-1.71267,0.13473 -3.37821,0.64985 -5.03115,1.11803c-0.54487,0.15434 -1.14158,1.10574 -1.54448,0.70777c-4.10153,-4.05132 -7.51194,-4.34409 -13.48338,-2.5135c-1.10621,0.33911 -1.44858,1.8569 -2.41477,2.49344c-1.68666,1.1112 -3.85652,1.11572 -6.16475,0.91356z" fill="url(#color-1)" stroke-width="0"/><path d="M216.93618,76.29936c0,0 7.9212,0.31065 8.04648,0.67867c0.41816,1.2284 -4.5507,46.42081 -2.80232,57.66298c0.66646,4.2854 31.92999,5.41824 32.94162,-0.04545c1.69148,-9.13544 -0.42984,-53.10035 0.66743,-56.42444c0.94563,-2.86473 7.22702,-1.51931 7.22702,-1.51931c0,0 4.88277,58.59783 9.0272,76.98666c2.18147,9.67921 13.99459,25.16099 13.99459,25.16099c-2.69441,1.28011 -20.23812,-6.07022 -22.2088,-4.96562c-2.38252,1.33544 -6.08759,-1.66731 -8.63821,-1.06069c-0.39361,0.09361 0.2006,3.47156 -0.22055,3.45475c-2.43318,-0.09715 -3.09764,17.63219 -5.49816,18.23232c-1.50835,0.37709 -1.53578,-8.24603 -2.89389,-7.99699c-0.55815,0.10235 -5.62516,-11.68119 -5.75206,-11.70589c-1.91216,-0.37221 -5.42352,0.27635 -7.71741,-0.29712c-0.7253,-0.18132 -2.94815,-0.70536 -4.69525,0.25996c-0.24899,0.13757 -0.84196,3.21739 -1.11233,3.21965c-2.0053,0.01678 -3.36332,-3.66728 -4.38298,-2.67703c-2.20963,2.14589 -0.06605,7.23288 -1.59994,7.72143c-0.09377,0.02987 -5.84866,-6.17765 -5.87617,-6.19067c-2.10082,-0.99513 -23.16539,5.06757 -24.76362,5.05605c-0.04656,-0.00034 13.27551,-8.21025 13.14582,-8.30852c0,0 5.58307,-15.52733 6.31975,-21.96266c1.75167,-15.30178 6.79179,-75.27906 6.79179,-75.27906z" fill="url(#color-2)" stroke-width="0"/><path d="M206.625,172.75006c0,0.29424 -0.17315,0.41533 -0.31566,0.46516c2.0659,0.81874 4.91119,2.21513 6.58661,1.56483c2.21013,-0.85783 3.08491,-5.62038 3.71965,-7.56041c0.23892,-0.34448 0.36145,-0.77467 0.65584,-1.07314c2.50144,-2.53606 3.35978,0.70512 3.84018,2.73868c0.09118,0.38599 -0.3373,1.03099 0.02624,1.18955c1.51323,0.66002 2.43784,-1.53899 2.71235,-2.55047c1.21982,-5.88619 -0.74535,-11.61807 -1.4723,-17.47737c-0.00387,-1.76546 -0.60676,-5.02172 0.32176,-6.5597c0.91821,-1.5209 3.22526,-1.72002 3.90387,0.11798c0.6917,1.87344 0.52146,4.149 0.52146,6.14489c0,3.9052 -0.56234,8.3051 -0.00645,12.16991c0.22927,1.59399 1.06089,3.30163 0.96839,4.88875c2.29058,1.98074 3.21221,-1.32043 4.11274,-2.82153c1.4524,-2.42103 3.80751,-2.43148 5.56199,-0.80413c1.34398,2.00945 -0.03291,3.92054 0.78865,5.80413c0.20986,0.48113 1.04977,0.01287 1.57468,0.01287c1.87835,0 3.65012,-0.25 5.5,-0.25c3.08844,0.10727 -0.05043,-6.40668 1.64645,-8.10355c0.83737,-0.83737 3.01222,-0.58803 3.56549,0.41222c0.34074,0.61601 0.03806,2.23955 0.03806,2.94134c-0.28463,0.28463 0.64475,0.13605 0.73713,0.07468c0.7038,-0.46749 0.51156,-2.86202 0.51287,-3.57573c0.00646,-3.51778 -0.01595,-7.03578 0.00298,-10.55351c0.58264,-2.65735 0.91648,-6.16909 2.71329,-8.31599c0.57069,-0.68187 2.25266,-2.05196 3.29659,-1.30477c0.94088,0.67344 1.31232,4.41532 1.72212,5.55369c0.85633,5.88663 -0.07814,12.85626 2.3306,18.34695c0.28627,0.96482 0.72498,1.81431 1.11115,2.74319c0.03449,0.08297 0.31841,0.51166 0.5314,0.87842c0.08434,-0.28579 0.274,-0.59495 0.30524,-0.7118c0.26944,-1.00787 1.00811,-6.07299 2.94857,-2.82646c0.24654,0.41248 0.47451,1.19832 0.73528,1.71774c0.69259,1.38519 1.22548,2.67871 2.18945,3.90661c0.09663,0.12309 1.1215,0.95669 1.32098,0.66137c1.35048,-1.99939 0.64601,-4.34438 4.04235,-4.34438c3.36953,0.05211 5.88457,3.87844 7.19916,6.53033c0.81261,1.63924 1.18445,4.21013 -0.86907,4.96322c-4.4117,0 -8.91326,0.9616 -13.18474,-0.647c-0.99644,-0.37525 -3.00237,-0.58033 -3.40821,-1.67122c-0.73623,0.06292 -0.82891,-0.57714 -1.56723,-0.68178c-2.03348,-0.28818 -4.36672,0.67135 -6.28478,0.24308c-0.20369,-0.04548 -1.91484,-1.30649 -2.12226,-1.0613c-0.29176,0.34489 -0.26687,1.15928 -0.26286,1.57468c0,5.89791 -2.75,11.6756 -2.75,17.75c0,1.34804 -0.03675,5.2851 -2.54235,3.40562c-0.60671,-0.45509 -0.72865,-2.275 -0.92316,-2.95744c-0.70044,-2.4575 -1.63307,-3.83171 -2.7317,-5.97458c-0.56067,-1.3271 -1.72033,-0.70091 -2.53871,-1.28277c-0.86479,-0.61485 -1.25591,-2.3416 -1.49732,-3.3125c-0.34276,-1.37849 -0.06993,-6.55479 -1.38163,-7.14171c-3.91613,0.05918 -7.84347,0.06287 -11.76046,0.00726c0.32015,0.70624 0.32379,2.13737 0.05066,2.51898c-0.74084,1.03504 -2.61557,0.47958 -3.27888,-0.15931c-0.15691,-0.15114 -0.40588,-0.43449 -0.60707,-0.70505c0.05822,0.8838 -0.03938,2.36378 -0.03938,2.6015c-0.01361,1.74928 -1.94344,7.95939 -4.64736,4.80349c-2.13145,-2.48775 -1.47164,-5.31987 -4.71752,-7.06687c-0.1813,0.00629 -1.03157,-0.13307 -1.03157,-0.13307c0,0 0.14644,1.65773 0.14644,1.89645v0.75c0,0.27614 -0.22386,0.5 -0.5,0.5c-0.1996,0 -0.37189,-0.11695 -0.45206,-0.28608l-0.24516,-0.49032l0.18946,-0.09472c-0.0841,-0.15703 -0.15788,-0.31922 -0.22079,-0.48399c-0.14635,-0.38336 -0.58373,-1.3408 -0.75859,-0.96957c-0.8392,1.78174 0.27536,5.21752 -0.01661,7.13577c-0.40027,2.6298 -2.13265,1.69262 -2.82575,-0.03923c-0.79658,-1.68222 -1.43331,-3.6874 -1.84714,-5.47924c-0.10607,-0.45927 -0.10702,-1.3612 -0.57336,-1.29262c-0.71419,0.10502 -1.97467,1.1279 -2.80866,1.46194c-1.97494,0.79101 -4.06016,1.23092 -6.04919,2.01743c-1.97556,0.39346 -4.94841,1.7108 -7.00702,1.00726c-0.71406,-0.24403 -1.432,-1.34135 -0.73868,-2.09018c0.38503,-0.41584 2.61847,-0.86522 3.21551,-1.15264c1.781,-0.85738 3.21434,-2.20163 4.72066,-3.46072c2.65054,-2.19547 3.47074,-4.53308 7.16739,-4.53308h0.25c0,0 0.5,0 0.5,0.5z" fill="#000000" stroke-width="0.5"/><path d="M225.875,138.625c0,1.03554 -1.11929,1.875 -2.5,1.875c-1.38071,0 -2.5,-0.83946 -2.5,-1.875c0,-1.03554 1.11929,-1.875 2.5,-1.875c1.38071,0 2.5,0.83946 2.5,1.875z" fill="#000000" stroke-width="0"/></g><path d="M199.37765,306.60321l7.09432,-61.01433c0.91843,0.08647 4.62757,6.50971 4.95788,6.81313c1.11192,1.0214 4.78332,0.96323 6.96785,1.19027c5.68485,0.59081 8.27417,3.29001 11.87187,3.56484c3.15789,0.24124 4.59942,-4.56263 7.71146,-4.01492c1.52246,0.26794 4.42635,0.84755 5.7643,1.19662c2.26136,0.58997 3.56502,3.4071 6.08793,2.45984c0.72949,-0.2739 2.41367,0.14258 3.07883,-0.34136c1.01919,-0.74151 3.99375,-3.87533 5.01828,-4.19001c1.72242,-0.52905 4.70025,-0.45416 6.61042,-0.87999c2.68579,-0.59875 4.11453,3.49315 5.92962,-0.0564c0.77024,-1.50626 1.86004,-5.91229 2.89499,-6.33734l7.51225,61.60968z" fill="#000000" stroke="none" stroke-width="0" stroke-linecap="butt"/><g stroke="none" stroke-width="0" stroke-linecap="butt"><g fill="url(#color-3)"><path d="M347.7308,44.2001c1.57308,15.55829 -22.32391,64.2932 -31.64932,65.23608c-9.32541,0.94289 -20.95208,-76.19019 -11.62667,-77.13309c9.32541,-0.94289 41.7029,-3.66131 43.276,11.897z"/></g><path d="M334.43124,77.3717c-6.8104,14.98736 -15.60801,23.37559 -19.65,18.73567c-4.04199,-4.63993 -1.79775,-20.55098 5.01266,-35.53833c1.34403,-2.95777 2.76546,-5.6585 4.21246,-8.05281c5.88515,-9.73799 12.19323,-14.40712 15.43754,-10.68286c4.04199,4.63992 1.79774,20.55099 -5.01266,35.53834z" fill="#000000"/></g><path d="M197.23127,78.986c-4.17652,-41.30684 25.9487,-56.25242 64.57919,-60.15833c38.63049,-3.90592 71.1377,4.70693 75.31423,46.01375c4.17652,41.30684 -25.17336,53.04138 -63.80385,56.94729c-38.63049,3.90592 -71.91305,-1.4959 -76.08957,-42.80272z" fill="url(#color-4)" stroke="none" stroke-width="0" stroke-linecap="butt"/><path d="M245.97795,92.80776l-1.25207,-12.38329l45.99762,-4.6508l1.25207,12.38329c0,0 -16.46562,-1.56926 -24.0687,-0.80052c-7.72744,0.78131 -21.92893,5.45132 -21.92893,5.45132z" fill="url(#color-5)" stroke="none" stroke-width="0" stroke-linecap="butt"/><path d="M219.1364,44.41969c0,0 6.15492,-5.8179 11.09721,-7.51803c4.94231,-1.70013 12.34192,-0.54496 12.34192,-0.54496c0,0 -8.0034,0.74863 -11.82019,2.06159c-3.98869,1.37209 -11.61894,6.00138 -11.61894,6.00138z" fill="#000000" stroke="none" stroke-width="0" stroke-linecap="butt"/><path d="M293.34559,29.32583c-4.00235,-0.52238 -11.99364,0.3462 -11.99364,0.3462c0,0 7.0186,-2.613 12.2012,-1.9366c5.1826,0.67641 12.37752,5.14451 12.37752,5.14451c0,0 -8.40248,-3.00821 -12.5851,-3.55412z" data-paper-data="{&quot;index&quot;:null}" fill="#000000" stroke="none" stroke-width="0" stroke-linecap="butt"/><path d="M232.14986,94.33295l-1.3881,4.49578" fill="none" stroke="#000000" stroke-width="2" stroke-linecap="round"/><path d="M245.76396,93.12395l0.66879,4.95787" fill="none" stroke="#000000" stroke-width="2" stroke-linecap="round"/><g fill="none" stroke="#000000" stroke-width="2" stroke-linecap="round"><path d="M305.80616,85.54549l2.25994,4.12692" data-paper-data="{&quot;index&quot;:null}"/><path d="M292.8627,93.38729l-0.33716,-4.9914" data-paper-data="{&quot;index&quot;:null}"/></g><path d="M268.28226,28.86488c0,0 -25.81471,1.42259 -27.54356,-0.25466c-1.0196,-0.98918 12.8021,-4.77503 25.96139,-5.90614c2.03127,-0.1746 8.7179,-0.43256 14.53729,0.06083c1.61411,0.13685 6.11766,2.48108 4.22862,4.65739c-1.24739,1.43708 -8.57419,2.94485 -9.617,3.18214c-16.6908,3.79785 -47.12283,4.56509 -47.12283,4.56509" fill="none" stroke="#000000" stroke-width="1" stroke-linecap="round"/><path d="M213.9455,73.14605c-1.30454,-12.90222 8.09724,-24.41908 20.99946,-25.72361c12.90222,-1.30454 24.41908,8.09724 25.72361,20.99946c1.30454,12.90222 -8.09724,24.41908 -20.99946,25.72361c-12.90222,1.30454 -24.41908,-8.09724 -25.72361,-20.99946z" fill="#ff5b5b" stroke="none" stroke-width="0" stroke-linecap="butt"/><path d="M296.96873,88.35199c-12.90222,1.30454 -24.41907,-8.09724 -25.72361,-20.99946c-1.30454,-12.90222 8.09724,-24.41908 20.99946,-25.72361c12.90222,-1.30454 24.41907,8.09724 25.72361,20.99946c1.30454,12.90222 -8.09724,24.41908 -20.99946,25.72361z" data-paper-data="{&quot;index&quot;:null}" fill="#ff5b5b" stroke="none" stroke-width="0" stroke-linecap="butt"/><path d="M213.72939,72.66536c-1.30454,-12.90222 8.09724,-24.41908 20.99946,-25.72361c12.90222,-1.30454 24.41908,8.09724 25.72361,20.99946c0.03604,0.35656 -46.67496,5.20003 -46.72308,4.72415z" fill="#ff0000" stroke="none" stroke-width="0" stroke-linecap="butt"/><path d="M271.25687,67.55236c-1.30454,-12.90222 8.09724,-24.41908 20.99946,-25.72361c12.90222,-1.30454 24.41908,8.09724 25.72361,20.99946c0.04812,0.47588 -46.68703,5.08072 -46.72308,4.72415z" data-paper-data="{&quot;index&quot;:null}" fill="#ff0000" stroke="none" stroke-width="0" stroke-linecap="butt"/><g stroke="none" stroke-width="0" stroke-linecap="butt"><path d="M232.71746,71.76767c-0.48265,-4.77349 2.70204,-9.00473 7.1132,-9.45074c4.41116,-0.44601 8.37838,3.06211 8.86102,7.83559c0.48265,4.77349 -2.70205,9.00472 -7.11321,9.45073c-4.41116,0.44601 -8.37837,-3.0621 -8.86101,-7.83558z" fill="#000000"/><path d="M242.39059,70.79282c0.0868,0.85856 -0.59451,1.63058 -1.52176,1.72434c-0.92725,0.09376 -1.74931,-0.52625 -1.83612,-1.38481c-0.0868,-0.85856 0.5945,-1.63058 1.52176,-1.72434c0.92725,-0.09376 1.74932,0.52625 1.83612,1.38481z" fill="#ff5b5b"/></g><g stroke="none" stroke-width="0" stroke-linecap="butt"><path d="M282.75521,66.30635c-0.48265,-4.77349 2.70205,-9.00472 7.11321,-9.45073c4.41116,-0.44601 8.37837,3.0621 8.86101,7.83558c0.48265,4.77349 -2.70204,9.00472 -7.1132,9.45072c-4.41116,0.44601 -8.37838,-3.0621 -8.86102,-7.83559z" fill="#000000"/><path d="M292.42835,65.33149c0.0868,0.85856 -0.5945,1.63058 -1.52176,1.72434c-0.92725,0.09376 -1.74932,-0.52625 -1.83612,-1.38481c-0.0868,-0.85856 0.59451,-1.63058 1.52176,-1.72434c0.92725,-0.09376 1.74931,0.52625 1.83612,1.38481z" fill="#ff5b5b"/></g><path d="M239.84402,105.71391c0.11471,1.08477 0.64281,3.32204 -0.79842,3.84734c-1.62884,0.59368 -1.70653,-4.50408 -3.28199,-2.5762c-2.04617,2.50389 -0.2842,6.59136 -0.94132,9.41197c-3.14112,3.68414 -2.2506,-2.9906 -3.89678,-3.86514c-2.43045,-1.29118 -5.10081,0.03621 -7.52246,-1.9248c-1.23032,-1.01871 -3.75236,-4.41581 -1.94761,-5.99676c0.77491,-0.67881 2.09533,-0.38789 3.01167,-0.59859c1.81209,-0.41665 4.40795,-1.44949 4.74668,-1.08169c0.12821,0.1392 9.36235,-0.69587 10.63026,2.78387z" fill="#000000" stroke="none" stroke-width="0.5" stroke-linecap="butt"/><path d="M239.76097,111.8141c0.02223,0.2198 -0.40519,0.44301 -0.95468,0.49856c-0.54949,0.05555 -1.01294,-0.07759 -1.03516,-0.29738c-0.02223,-0.2198 0.40519,-0.44301 0.95468,-0.49856c0.54949,-0.05555 1.01294,0.07758 1.03516,0.29738z" fill="#000000" stroke="none" stroke-width="0" stroke-linecap="butt"/><path d="M309.93691,95.94634c-0.01144,-0.23452 -0.01645,-0.46492 -0.01323,-0.69839l-0.0798,0.00807l-0.08048,-0.79594c-0.02778,-0.27474 0.17243,-0.51999 0.44717,-0.54776c0.13737,-0.01389 0.26738,0.02922 0.3665,0.11013l0.43821,0.35773c2.20054,1.89141 5.55881,-0.72904 7.53681,-1.47037c2.61513,-2.09651 6.03196,-0.12582 4.79653,3.21174c-0.61082,1.65013 -2.63226,1.78172 -4.04785,2.46899c-1.21031,0.58761 -1.96047,1.86167 -2.52873,3.01776c-0.75892,1.53522 -1.34218,6.31923 -3.34115,6.45146c-2.52429,0.16697 -0.29581,-3.50514 -1.66734,-4.12751c-1.13234,-0.51384 -3.73399,0.65439 -5.11889,0.35335c-1.62499,-0.61645 -4.63735,-2.58834 -2.07388,-4.32441c1.19384,-0.80851 3.05975,-0.19279 4.07777,-0.99141c0.8902,-0.69834 0.72074,-1.67757 0.92771,-2.63951c0,0 0.07226,-0.3217 0.36067,-0.38394z" fill="#000000" stroke="none" stroke-width="0.5" stroke-linecap="butt"/><path d="M311.87064,92.43785c0.04445,0.43959 -0.32042,0.83647 -0.81496,0.88648c-0.49453,0.05 -0.93146,-0.26582 -0.97592,-0.7054c-0.04445,-0.43959 0.32044,-0.83648 0.81496,-0.88648c0.49453,-0.05 0.93146,0.26582 0.9759,0.70541z" fill="#000000" stroke="none" stroke-width="0" stroke-linecap="butt"/><g><path d="M291.1016,98.61596c0.22627,2.23783 -10.09509,10.28191 -20.05546,11.4158c-11.37415,1.29483 -22.60739,-4.61449 -22.85638,-7.07701c-0.00356,-0.03523 10.81436,1.28078 21.57988,0.19086c10.68984,-1.08225 21.32777,-4.57079 21.33195,-4.52965z" fill="url(#color-6)" stroke="none" stroke-width="0" stroke-linecap="butt"/><path d="M286.36067,103.33543l-3.95479,-1.68357l-4.10708,5.88429l-7.98779,-4.14053l-5.69641,6.04499l-5.9351,-5.3898l-4.24552,3.38081" fill="none" stroke="#000000" stroke-width="0.5" stroke-linecap="round"/></g><g data-paper-data="{&quot;index&quot;:null}"><path d="M274.24307,128.3218c-8.25174,0.89961 -19.22791,-12.37389 -25.18269,-20.99136c1.25344,-1.14565 2.18311,-1.57623 3.45446,-2.69083c0.41505,-0.36388 3.3863,-2.88769 3.39315,-2.86966c0.83054,1.484 4.6853,3.7459 4.86508,3.7876c0.51033,0.11837 1.32103,1.89176 1.70703,1.89761c0.63164,0.00958 1.31385,-0.66966 1.83381,-1.00458c1.19733,-0.91912 4.01302,-4.20903 6.03324,-5.33488c1.25732,-0.7007 1.87081,0.02154 2.61875,0.89099c0.51193,0.45701 4.14578,3.22076 5.81659,3.76682c1.91023,0.6243 1.37427,-0.57274 1.55617,-0.84579c0.92573,-2.24252 2.99454,-5.0509 4.8354,-6.57833c0.06772,-0.0562 2.15863,1.35317 2.31557,1.44041c1.80283,0.92645 4.13501,0.64834 5.92462,1.64388c0.17534,0.09754 -0.20548,1.46135 -0.02984,1.55899c0.24171,0.13436 0.8259,0.34532 1.21045,0.5635c-3.64906,9.86262 -10.97249,23.74308 -20.35181,24.76563z" fill="#000000" stroke="none" stroke-width="0" stroke-linecap="butt"/><path d="M244.8658,100.3745c-0.0065,-0.05164 13.62126,1.32736 26.64123,-0.26149c13.11215,-1.60011 25.61721,-6.1678 25.62278,-6.12357c0.12033,0.95621 -0.77564,4.58359 -2.37011,9.01468c-0.38791,-0.32801 -2.62006,-1.13975 -4.67428,-2.16165c-2.35155,-1.1698 -4.47026,-2.65541 -4.79497,-2.49491c-1.25764,0.62163 -2.93056,3.87812 -4.38229,6.06139c-0.83695,1.25869 -1.54989,1.68895 -1.65867,1.66256c-1.22051,-0.296 -5.04555,-3.01106 -6.18187,-4.02456c-1.05041,-1.18657 -2.00016,-1.48765 -3.47126,-0.48581c-1.88545,1.28401 -4.27202,3.91145 -5.53657,4.88544c-0.50951,0.33016 -0.97508,0.91665 -1.51998,1.00068c-0.0284,0.00437 -1.79181,-1.61588 -1.89597,-1.73982c-0.69576,-0.82792 -1.82867,-1.7059 -2.94593,-2.49521c-0.5255,-0.37125 -1.34433,-0.58507 -1.56786,-1.01779c-0.9107,-0.79003 -1.84477,0.83376 -2.61051,1.49023c-1.58039,1.35489 -3.14427,2.35698 -4.69413,3.75573c-2.62528,-3.85536 -3.85063,-6.19997 -3.95961,-7.06589z" fill="url(#color-7)" stroke="none" stroke-width="0" stroke-linecap="butt"/><path d="M249.48659,107.41643l6.57016,-5.68848l6.5239,6.1021l8.35184,-7.26243l8.45961,5.86563l5.56193,-8.23571l9.33613,4.95209" fill="none" stroke="#000000" stroke-width="0.5" stroke-linecap="round"/></g></g></g></svg>