<svg version="1.1" xmlns="http://www.w3.org/2000/svg" xmlns:xlink="http://www.w3.org/1999/xlink" width="34.17311" height="34.17311" viewBox="0,0,34.17311,34.17311"><g transform="translate(-222.91348,-162.91347)"><g data-paper-data="{&quot;isPaintingLayer&quot;:true}" stroke-miterlimit="10" stroke-dasharray="" stroke-dashoffset="0" style="mix-blend-mode: normal"><path d="M229.98314,162.91348h20.03379c3.9166,0 7.06966,3.15307 7.06966,7.06966v20.03379c0,3.91659 -3.15306,7.06966 -7.06966,7.06966h-20.03379c-3.91659,0 -7.06966,-3.15307 -7.06966,-7.06966v-20.03379c0,-3.91659 3.15307,-7.06966 7.06966,-7.06966z" fill="#434343" fill-rule="evenodd" stroke="none" stroke-width="4.43922" stroke-linecap="round" stroke-linejoin="round"/><g fill-rule="nonzero" stroke="#000000" stroke-width="0.5" stroke-linejoin="miter"><path d="M246.92366,194.40238l-11.68878,-13.48955l7.2904,-5.58378l9.59763,14.89345z" fill="#616161" stroke-linecap="butt"/><g stroke-linecap="butt"><path d="M243.29795,181.76894c0.98841,1.2905 1.32936,2.68922 0.76153,3.12412c-0.56782,0.4349 -1.8294,-0.25871 -2.8178,-1.54922c-0.98841,-1.2905 -1.32937,-2.68922 -0.76154,-3.12412c0.56782,-0.4349 1.8294,0.25871 2.81781,1.54922z" fill="#969696"/><path d="M240.50878,180.25711c0.53394,-0.40895 1.68132,0.17996 2.63816,1.3247c-0.637,0.58277 -1.25437,1.18529 -1.94304,1.71124c-0.93702,-1.26543 -1.25002,-2.61093 -0.69512,-3.03594z" fill="#bfbfbf"/></g><path d="M241.66412,168.75426c2.56986,3.35531 1.84944,8.22272 -1.60912,10.87166c-3.45856,2.64893 -8.34555,2.0763 -10.91541,-1.27901c-2.56986,-3.35531 -1.84944,-8.22272 1.60912,-10.87166c3.45856,-2.64893 8.34555,-2.0763 10.91541,1.27901z" fill="#424242" stroke-linecap="butt"/><path d="M237.2923,170.94595l-3.24295,-2.14301" fill="none" stroke-linecap="round"/><path d="M235.71825,167.10949l3.03614,2.18279" fill="none" stroke-linecap="round"/><path d="M238.50228,167.64651l-3.11983,3.51655" fill="none" stroke-linecap="round"/><path d="M234.25693,169.771l3.37754,-3.18007" fill="none" stroke-linecap="round"/></g></g></g></svg>