<svg version="1.1" xmlns="http://www.w3.org/2000/svg" xmlns:xlink="http://www.w3.org/1999/xlink" width="278.31602" height="418.2411" viewBox="0,0,278.31602,418.2411"><defs><linearGradient x1="239.60219" y1="73.91357" x2="239.60219" y2="96.50935" gradientUnits="userSpaceOnUse" id="color-1"><stop offset="0" stop-color="#000000"/><stop offset="1" stop-color="#616c64"/></linearGradient><linearGradient x1="239.60219" y1="95.56786" x2="239.60219" y2="118.1636" gradientUnits="userSpaceOnUse" id="color-2"><stop offset="0" stop-color="#000000"/><stop offset="1" stop-color="#616c64"/></linearGradient><linearGradient x1="240.82785" y1="95.74328" x2="240.82785" y2="239.48688" gradientUnits="userSpaceOnUse" id="color-3"><stop offset="0" stop-color="#000000"/><stop offset="1" stop-color="#357848"/></linearGradient><linearGradient x1="239.94579" y1="271.92143" x2="239.94579" y2="307.80153" gradientUnits="userSpaceOnUse" id="color-4"><stop offset="0" stop-color="#000000"/><stop offset="1" stop-color="#357848"/></linearGradient><linearGradient x1="213.00417" y1="79.46836" x2="213.00417" y2="163.00752" gradientUnits="userSpaceOnUse" id="color-5"><stop offset="0" stop-color="#000000"/><stop offset="1" stop-color="#197734"/></linearGradient><linearGradient x1="215.81342" y1="103.69437" x2="215.81342" y2="106.46491" gradientUnits="userSpaceOnUse" id="color-6"><stop offset="0" stop-color="#000000"/><stop offset="1" stop-color="#00ad34"/></linearGradient><linearGradient x1="216.18666" y1="104.44935" x2="216.18666" y2="107.45389" gradientUnits="userSpaceOnUse" id="color-7"><stop offset="0" stop-color="#000000"/><stop offset="1" stop-color="#197734"/></linearGradient><linearGradient x1="219.02735" y1="103.97135" x2="219.02735" y2="107.04418" gradientUnits="userSpaceOnUse" id="color-8"><stop offset="0" stop-color="#000000"/><stop offset="1" stop-color="#197734"/></linearGradient><linearGradient x1="219.55643" y1="119.42726" x2="219.55643" y2="122.1978" gradientUnits="userSpaceOnUse" id="color-9"><stop offset="0" stop-color="#000000"/><stop offset="1" stop-color="#00ad34"/></linearGradient><linearGradient x1="219.02736" y1="119.47206" x2="219.02736" y2="123.91511" gradientUnits="userSpaceOnUse" id="color-10"><stop offset="0" stop-color="#000000"/><stop offset="1" stop-color="#000000"/></linearGradient><linearGradient x1="267.59083" y1="81.13004" x2="267.59083" y2="163.67062" gradientUnits="userSpaceOnUse" id="color-11"><stop offset="0" stop-color="#000000"/><stop offset="1" stop-color="#197734"/></linearGradient><linearGradient x1="264.75302" y1="105.35605" x2="264.75302" y2="108.12658" gradientUnits="userSpaceOnUse" id="color-12"><stop offset="0" stop-color="#000000"/><stop offset="1" stop-color="#197734"/></linearGradient><linearGradient x1="264.3798" y1="106.11102" x2="264.3798" y2="109.11555" gradientUnits="userSpaceOnUse" id="color-13"><stop offset="0" stop-color="#000000"/><stop offset="1" stop-color="#000000"/></linearGradient><linearGradient x1="261.53909" y1="105.633" x2="261.53909" y2="108.70584" gradientUnits="userSpaceOnUse" id="color-14"><stop offset="0" stop-color="#000000"/><stop offset="1" stop-color="#000000"/></linearGradient><linearGradient x1="261.01" y1="121.08892" x2="261.01" y2="123.85945" gradientUnits="userSpaceOnUse" id="color-15"><stop offset="0" stop-color="#000000"/><stop offset="1" stop-color="#00ad34"/></linearGradient><linearGradient x1="261.53909" y1="121.13372" x2="261.53909" y2="125.57677" gradientUnits="userSpaceOnUse" id="color-16"><stop offset="0" stop-color="#000000"/><stop offset="1" stop-color="#000000"/></linearGradient><linearGradient x1="256.75113" y1="103.97135" x2="256.75113" y2="107.04414" gradientUnits="userSpaceOnUse" id="color-17"><stop offset="0" stop-color="#000000"/><stop offset="1" stop-color="#000000"/></linearGradient><linearGradient x1="240.69503" y1="99.48661" x2="240.69503" y2="123.66861" gradientUnits="userSpaceOnUse" id="color-18"><stop offset="0" stop-color="#000000"/><stop offset="1" stop-color="#197734"/></linearGradient><linearGradient x1="239.17698" y1="-39.47118" x2="239.17698" y2="81.40421" gradientUnits="userSpaceOnUse" id="color-19"><stop offset="0" stop-color="#000000"/><stop offset="1" stop-color="#52a169"/></linearGradient><radialGradient cx="239.55878" cy="18.43139" r="13.0152" gradientUnits="userSpaceOnUse" id="color-20"><stop offset="0" stop-color="#42ff00"/><stop offset="1" stop-color="#42ff00" stop-opacity="0"/></radialGradient><radialGradient cx="238.85879" cy="0.47248" r="6.55626" gradientUnits="userSpaceOnUse" id="color-21"><stop offset="0" stop-color="#42ff00"/><stop offset="1" stop-color="#42ff00" stop-opacity="0"/></radialGradient></defs><g transform="translate(-100.34356,110.43957)"><g data-paper-data="{&quot;isPaintingLayer&quot;:true}" stroke-miterlimit="10" stroke-dasharray="" stroke-dashoffset="0" style="mix-blend-mode: normal"><g fill-rule="nonzero" stroke="none" stroke-width="0" stroke-linecap="butt" stroke-linejoin="miter"><path d="M228.93197,96.50935c0,0 -1.41223,-6.88704 -1.41223,-10.5133c0,-3.88747 1.41223,-12.08245 1.41223,-12.08245h21.34043c0,0 1.25532,8.17295 1.25532,12.08245c0,3.59622 -1.25532,10.5133 -1.25532,10.5133z" fill="url(#color-1)"/><path d="M228.93197,118.1636c0,0 -1.41223,-6.88704 -1.41223,-10.5133c0,-3.88747 1.41223,-12.08245 1.41223,-12.08245h21.34043c0,0 1.25532,8.17295 1.25532,12.08245c0,3.59622 -1.25532,10.5133 -1.25532,10.5133z" data-paper-data="{&quot;index&quot;:null}" fill="url(#color-2)"/></g><g fill="#000000" fill-rule="nonzero" stroke="none" stroke-width="0.5" stroke-linecap="butt" stroke-linejoin="miter"><path d="M228.24254,292.53587c-0.37293,0 -0.63154,-0.21363 -0.81088,-0.50992c-0.04501,0.00943 -0.09075,0.01428 -0.13711,0.01428c-0.65664,0 -1.19177,-0.97215 -1.21572,-2.18827l-0.1033,-4.53094c-0.62037,-5.02328 -0.12296,-11.39005 -0.06857,-16.4718c0.0055,-0.51393 0.01143,-1.02795 0.01782,-1.54204c-0.13969,7.16485 -0.36629,14.32247 -0.89169,21.38349l-0.20615,2.76265c-0.07419,1.12273 -0.58644,1.9919 -1.20732,1.9919c-0.67189,0 -1.21655,-1.01782 -1.21655,-2.27337v-3.63739h0.00364c-0.00117,-0.01147 -0.00234,-0.02294 -0.00349,-0.03443c-0.00013,-0.0013 0.09875,-6.09874 0.13483,-8.32362c-0.08814,2.77277 -0.13718,5.57935 -0.77237,8.17696l-0.61258,4.34997c-0.12807,0.99916 -0.60918,1.74187 -1.18313,1.74187c-0.67189,0 -1.21655,-1.01782 -1.21655,-2.27337v-3.63739c0,-6.79944 -0.09221,-13.59183 -0.19635,-20.38393c-0.15131,3.66172 -0.32402,7.32025 -0.52626,10.97402l-0.24903,4.49685c-0.02764,0.56863 -0.16733,1.07679 -0.37748,1.44674c-0.0739,2.10802 -0.18732,4.19156 -0.38028,6.20916c-0.24999,2.61381 -0.80574,4.94937 -1.49813,7.15551l0.09676,0.06618l-0.82658,4.2199c-0.16299,0.89661 -0.61727,1.54174 -1.15218,1.54174c-0.67189,0 -1.21655,-1.01783 -1.21655,-2.27337c0,-0.00002 0,-0.00002 0,-0.00004l0.00004,-4.54673c0.00009,-10.58112 0.03861,-21.1194 0.1912,-31.64924c-0.91668,-12.67004 -2.05478,-25.2951 -2.80947,-37.98758c-0.41293,-6.94475 -1.00281,-14.17155 -0.27788,-21.10157c0,0 0.23859,-2.22922 1.43152,-1.78338c1.19293,0.44584 0.95434,2.67506 0.95434,2.67506c-0.70472,6.40834 -0.07179,13.28244 0.31026,19.70779c0.28231,4.74795 0.61992,9.48483 0.97932,14.21783c0.0925,-2.61601 0.19561,-5.23311 0.3105,-7.85186c0.20062,-4.57307 0.50186,-9.09896 0.80758,-13.65116c0.09763,-1.45382 -0.05829,-3.05248 0.29239,-4.36216c0,-1.34226 0,-3.50487 0,-3.50487c0,-1.25555 0.54467,-2.27337 1.21655,-2.27337c0.67189,0 1.21655,1.01782 1.21655,2.27337v4.54673c0,1.65758 -0.00373,3.31679 -0.00976,4.97724l0.01881,-0.25449c0.05327,-0.81441 0.33701,-1.49578 0.72562,-1.80938l0.01447,-0.1352c0.10213,-1.06254 0.59935,-1.86882 1.19735,-1.86882c0.57896,0 1.06346,0.75575 1.1864,1.76813l0.48045,3.59125l-0.01947,0.0091c0.01638,0.0875 0.03196,0.17566 0.04668,0.26451c0.25448,1.53626 0.00755,3.21633 0.00911,4.8245c0.00442,4.54669 0,9.0935 0,13.6402c0,6.06709 0.07334,12.12739 0.16308,18.18573c0.44325,-11.93952 0.89131,-23.85605 1.55976,-35.77924l0.08169,-0.23417l-0.04134,-0.02738l0.80336,-4.23567c0.15951,-0.90805 0.61684,-1.56376 1.15612,-1.56376c0.61369,0 1.12124,0.84911 1.20457,1.95293l0.01384,0.163c0.22246,-0.455 0.54259,-0.74043 0.89838,-0.74043c0.46062,0 0.86146,0.47838 1.06798,1.18377l0.96153,3.1444l-0.02186,0.02334c0.02822,0.08993 0.05524,0.18136 0.08097,0.27439c0.1654,-1.55931 0.13823,-3.2695 0.58249,-4.61456c0.56169,-1.70063 1.27879,-4.06544 2.34819,-4.08533c0.87671,-0.01631 1.21826,2.47403 1.51844,4.0134c0.01585,0.08129 0.18923,4.24486 0.30297,7.00804c0.08013,-0.96095 0.1352,-1.61945 0.13597,-1.62319c0.00662,-0.03238 0.01331,-0.06469 0.02006,-0.09695l-0.00789,-0.00369l0.58394,-4.36485c0.12294,-1.01238 0.60745,-1.76812 1.18641,-1.76812c0.26987,0 0.51922,0.16421 0.72099,0.44207c0.23399,-1.25583 0.49844,-2.50148 0.80415,-3.73658l0.76699,-3.07559c0.1883,-0.80041 0.61633,-1.35935 1.11423,-1.35935c0.63295,0 1.15301,0.90328 1.21116,2.05765l0.25769,4.49439c0.41097,2.96866 0.47448,6.44841 0.48031,9.71625c0.14006,-0.10512 0.293,-0.16297 0.45317,-0.16297c0.59726,0 1.094,0.80428 1.19697,1.86488l0.26961,2.49476l-0.02617,0.00987c0.0188,0.11667 0.03535,0.23495 0.0494,0.35501c0.18721,1.59989 -0.20425,3.25308 -0.31033,4.87873c-0.19902,3.05006 -0.45415,6.08827 -0.74953,9.11094c-0.81314,8.32121 -1.46171,16.70511 -2.23023,25.042c-0.31026,5.87131 -0.71677,11.72499 -1.47179,17.3939l-0.37696,2.81766c-0.12294,1.01238 -0.60745,1.76812 -1.18641,1.76812c-0.67189,0 -1.21655,-1.01782 -1.21655,-2.27337c0,-0.04184 0.00061,-0.08342 0.0018,-0.1247l0.11531,-4.52502c-0.03719,-0.53384 -0.06166,-1.07823 -0.07514,-1.63115l-0.08727,0.39144c-0.17684,0.84729 -0.61782,1.44762 -1.13382,1.44762c-0.09662,0 -0.19062,-0.02105 -0.28074,-0.06083v2.22927c0,1.25554 -0.54467,2.27337 -1.21655,2.27337c-0.57566,0 -1.05794,-0.74716 -1.18427,-1.75084c-0.1714,-0.39177 -0.27422,-0.8924 -0.27422,-1.43791c0,-0.00498 0.00002,-0.00996 0.00003,-0.01494l0.01366,-4.54449c0.00735,-2.43 0.03,-4.85585 0.0654,-7.27895c-0.6498,4.91342 -1.19547,9.86329 -1.55091,14.87135l0.01056,1.06513c0,0 0,2.27337 -1.21655,2.27337zM237.97266,234.65114c0.19493,1.51962 0.00195,3.12533 0.00235,4.688c0.00048,1.90756 0.00051,3.79949 -0.01321,5.68779c0.06485,-0.69704 0.13024,-1.39391 0.19612,-2.09062c0.03859,-1.501 0.06065,-3.0031 0.0604,-4.50652c-0.00072,-4.4835 0.11634,-9.0411 0.00173,-13.51893c-0.00913,-0.3567 -0.11068,-2.01364 -0.21668,-3.73658c-0.17493,1.066 -0.32959,2.14122 -0.47177,3.22402c0.27077,0.41696 0.44341,1.04846 0.44341,1.75531v2.72804h-0.03133c0.008,0.11072 0.01409,0.22223 0.01808,0.3346c0.02579,0.72689 -0.07103,1.42813 -0.20842,2.12079l0.21228,3.17338l-0.01128,0.00263c0.00629,0.04591 0.01241,0.09194 0.01833,0.13808zM226.03468,260.73238c0.1053,-4.91529 0.26738,-9.83015 0.51854,-14.72859c-0.00865,-1.46698 -0.01387,-2.93102 -0.01384,-4.39129c0.00004,-2.04287 -0.02087,-4.07967 -0.04956,-6.11579c-0.0685,1.36618 -0.12954,2.73556 -0.1908,4.10883c-0.00493,3.42379 -0.02563,6.84683 -0.09218,10.27069c-0.07009,3.60581 -0.11829,7.2284 -0.17216,10.85616zM214.85581,286.13361c0.12941,-2.88523 0.12875,-5.87418 0.19915,-8.73233c-0.10117,-0.29208 -0.16745,-0.63029 -0.18784,-0.99403c-0.01027,3.24217 -0.01212,6.48457 -0.01131,9.72636zM228.98701,246.2008c0.0452,7.71473 0.17842,15.50412 0.14443,23.25639c0.62682,-4.46859 1.32207,-8.91393 2.03086,-13.34552c0,-2.40813 0,-4.81627 0,-7.2244c0,-6.89951 0.17569,-13.88766 -0.10982,-20.7674c-0.04566,-1.10907 -0.09261,-2.21795 -0.138,-3.32706c-0.33288,2.75932 -0.7407,5.49022 -0.99699,8.27761c-0.40046,4.35535 -0.70238,8.73604 -0.93048,13.13037z"/><path d="M252.17451,291.17188l0.01056,-1.06513c-0.35543,-5.00805 -0.9011,-9.95792 -1.55091,-14.87134c0.0354,2.4231 0.05805,4.84896 0.0654,7.27895l0.01367,4.5445c0.00001,0.00498 0.00002,0.00995 0.00002,0.01493c0,0.54551 -0.10282,1.04613 -0.27421,1.43791c-0.12633,1.00368 -0.60861,1.75084 -1.18427,1.75084c-0.67189,0 -1.21655,-1.01782 -1.21655,-2.27337v-2.22927c-0.09013,0.03978 -0.18411,0.06083 -0.28074,0.06083c-0.51601,0 -0.95698,-0.60032 -1.13382,-1.44762l-0.08728,-0.39144c-0.01347,0.55292 -0.03794,1.0973 -0.07513,1.63115l0.11531,4.52502c0.00119,0.04129 0.0018,0.08286 0.0018,0.1247c0,1.25554 -0.54467,2.27337 -1.21655,2.27337c-0.57896,0 -1.06346,-0.75576 -1.18641,-1.76813l-0.37695,-2.81766c-0.75502,-5.66891 -1.16154,-11.52258 -1.4718,-17.39389c-0.76853,-8.33689 -1.41709,-16.72079 -2.23023,-25.042c-0.29537,-3.02267 -0.5505,-6.06088 -0.74952,-9.11094c-0.10608,-1.62565 -0.49754,-3.27884 -0.31034,-4.87873c0.01405,-0.12007 0.0306,-0.23834 0.0494,-0.35501l-0.02617,-0.00987l0.2696,-2.49476c0.10297,-1.0606 0.59971,-1.86488 1.19697,-1.86488c0.16018,0 0.31312,0.05784 0.45318,0.16296c0.00583,-3.26784 0.06935,-6.74759 0.48031,-9.71624l0.25769,-4.49439c0.05814,-1.15437 0.5782,-2.05764 1.21115,-2.05764c0.4979,0 0.92593,0.55893 1.11423,1.35935l0.76699,3.07559c0.3057,1.2351 0.57015,2.48075 0.80415,3.73658c0.20177,-0.27786 0.45112,-0.44207 0.72099,-0.44207c0.57896,0 1.06346,0.75575 1.18641,1.76813l0.58394,4.36485l-0.00789,0.00368c0.00676,0.03226 0.01344,0.06458 0.02006,0.09695c0.00077,0.00374 0.05585,0.66224 0.13597,1.62319c0.11373,-2.76317 0.28712,-6.92676 0.30297,-7.00805c0.30018,-1.53937 0.64173,-4.02971 1.51844,-4.0134c1.06939,0.01989 1.78649,2.3847 2.34818,4.08533c0.44426,1.34507 0.41708,3.05525 0.58249,4.61456c0.02572,-0.09303 0.05275,-0.18445 0.08097,-0.27439l-0.02186,-0.02334l0.96153,-3.1444c0.20653,-0.7054 0.60736,-1.18378 1.06798,-1.18378c0.3558,0 0.67593,0.28543 0.89839,0.74043l0.01383,-0.163c0.08333,-1.10382 0.59089,-1.95293 1.20457,-1.95293c0.53929,0 0.99661,0.65571 1.15612,1.56376l0.80336,4.23567l-0.04134,0.02738l0.0817,0.23417c0.66845,11.92319 1.11652,23.83973 1.55977,35.77925c0.08974,-6.05834 0.16307,-12.11864 0.16307,-18.18573c0,-4.5467 -0.00443,-9.0935 0,-13.6402c0.00157,-1.60817 -0.24536,-3.28824 0.00912,-4.8245c0.01472,-0.08885 0.03029,-0.17701 0.04667,-0.26451l-0.01947,-0.0091l0.48046,-3.59125c0.12295,-1.01237 0.60744,-1.76813 1.1864,-1.76813c0.598,0 1.09523,0.80628 1.19736,1.86883l0.01447,0.13519c0.38862,0.3136 0.67235,0.99497 0.72562,1.80938l0.0188,0.25449c-0.00603,-1.66045 -0.00975,-3.31966 -0.00975,-4.97724v-4.54673c0,-1.25555 0.54466,-2.27337 1.21655,-2.27337c0.67189,0 1.21656,1.01782 1.21656,2.27337c0,0 0,2.16261 0,3.50487c0.35069,1.30967 0.19475,2.90834 0.29239,4.36216c0.30572,4.5522 0.60696,9.07808 0.80758,13.65116c0.11489,2.61874 0.218,5.23585 0.31049,7.85186c0.3594,-4.733 0.69702,-9.46987 0.97933,-14.21783c0.38205,-6.42534 1.01497,-13.29944 0.31025,-19.70779c0,0 -0.23859,-2.22922 0.95434,-2.67506c1.19293,-0.44584 1.43153,1.78338 1.43153,1.78338c0.72492,6.93003 0.13504,14.15682 -0.2779,21.10157c-0.75468,12.69248 -1.89278,25.31753 -2.80946,37.98757c0.1526,10.52984 0.19111,21.06813 0.1912,31.64925l0.00004,4.54672c0,0.00002 0,0.00003 0,0.00005c0,1.25554 -0.54467,2.27337 -1.21656,2.27337c-0.53491,0 -0.98919,-0.64513 -1.15218,-1.54174l-0.82658,-4.2199l0.09676,-0.06618c-0.69239,-2.20614 -1.24813,-4.5417 -1.49813,-7.15551c-0.19297,-2.0176 -0.30638,-4.10115 -0.38028,-6.20917c-0.21015,-0.36995 -0.34984,-0.87811 -0.37748,-1.44674l-0.24904,-4.49685c-0.20224,-3.65377 -0.37495,-7.3123 -0.52626,-10.97402c-0.10414,6.7921 -0.19635,13.5845 -0.19635,20.38393v3.63738c0,1.25554 -0.54466,2.27337 -1.21655,2.27337c-0.57394,0 -1.05507,-0.74271 -1.18313,-1.74187l-0.61259,-4.34997c-0.63519,-2.59761 -0.68422,-5.40419 -0.77237,-8.17695c0.03609,2.22487 0.13496,8.32231 0.13483,8.32361c-0.00115,0.01148 -0.00232,0.02297 -0.0035,0.03444h0.00363v3.63738c0,1.25554 -0.54466,2.27337 -1.21655,2.27337c-0.62088,0 -1.13314,-0.86917 -1.20733,-1.9919l-0.20615,-2.76264c-0.5254,-7.06102 -0.75201,-14.21865 -0.8917,-21.3835c0.00639,0.51409 0.01232,1.02812 0.01782,1.54205c0.05439,5.08175 0.5518,11.44851 -0.06856,16.4718l-0.1033,4.53095c-0.02395,1.21612 -0.55908,2.18827 -1.21572,2.18827c-0.04636,0 -0.0921,-0.00484 -0.13711,-0.01427c-0.17934,0.29629 -0.43795,0.50991 -0.81088,0.50991c-1.21655,0 -1.21655,-2.27337 -1.21655,-2.27337zM243.67929,235.4224l-0.01128,-0.00263l0.21227,-3.17339c-0.13738,-0.69267 -0.23421,-1.3939 -0.20842,-2.12078c0.00399,-0.11237 0.01008,-0.22389 0.01808,-0.33461h-0.03133v-2.72804c0,-0.70685 0.17264,-1.33835 0.44341,-1.75531c-0.14218,-1.08281 -0.29684,-2.15802 -0.47177,-3.22402c-0.106,1.72294 -0.20755,3.37987 -0.21668,3.73657c-0.11461,4.47784 0.00245,9.03544 0.00173,13.51894c-0.00024,1.50342 0.02182,3.00552 0.0604,4.50652c0.06588,0.69671 0.13127,1.39358 0.19611,2.09062c-0.01371,-1.8883 -0.01369,-3.78023 -0.0132,-5.68779c0.0004,-1.56267 -0.19258,-3.16837 0.00235,-4.688c0.00592,-0.04614 0.01203,-0.09216 0.01833,-0.13808zM255.42678,250.78557c-0.06655,-3.42386 -0.08725,-6.84689 -0.09218,-10.27068c-0.06126,-1.37328 -0.12229,-2.74264 -0.1908,-4.10882c-0.02868,2.03612 -0.0496,4.07291 -0.04956,6.11578c0.00003,1.46027 -0.00519,2.92432 -0.01384,4.39129c0.25116,4.89845 0.41324,9.81331 0.51854,14.7286c-0.05388,-3.62775 -0.10209,-7.25035 -0.17217,-10.85616zM266.76644,277.31658c-0.02038,0.36374 -0.08668,0.70195 -0.18784,0.99403c0.0704,2.85815 0.06975,5.8471 0.19916,8.73233c0.00081,-3.2418 -0.00104,-6.48419 -0.01131,-9.72636zM251.71613,233.97978c-0.25629,-2.7874 -0.66411,-5.51829 -0.99699,-8.27761c-0.0454,1.1091 -0.09235,2.21799 -0.138,3.32705c-0.28552,6.87974 -0.10981,13.86789 -0.10981,20.7674c0,2.40813 0,4.81627 0,7.2244c0.70879,4.43158 1.40403,8.87693 2.03086,13.34552c-0.03399,-7.75227 0.09923,-15.54167 0.14442,-23.2564c-0.22809,-4.39433 -0.53001,-8.77502 -0.93048,-13.13037z" data-paper-data="{&quot;index&quot;:null}"/></g><g fill-rule="nonzero" stroke="none" stroke-width="0" stroke-linejoin="miter"><path d="M217.11703,95.99693l47.63555,-0.25365l11.18015,138.53714c-2.3541,0.87721 -4.57053,2.01741 -6.10845,2.94657c-0.3968,0.23973 -0.43802,0.93381 -0.87857,1.07818c-0.37464,0.12277 -0.72064,-0.52844 -1.10216,-0.42908c-0.25182,0.06558 0.06252,0.87149 -0.17316,0.7612c-1.30469,-0.6105 -2.08912,-2.5219 -3.52931,-2.4937c-3.90051,0.07638 -7.79503,1.21778 -11.36746,2.78543c-0.28456,0.12487 -0.61376,0.32029 -0.93713,0.55786c-0.41528,-0.08667 -0.83104,-0.17056 -1.24609,-0.25402c-0.82393,-2.22046 -1.89434,-4.37532 -3.93475,-5.12284c-3.4915,-1.27913 -7.39632,-0.14346 -11.11528,0.79452c-1.42486,-2.36357 -3.03253,-4.53674 -5.39928,-5.76095c-0.59005,-0.30521 -1.22363,-0.42103 -1.87754,-0.3982c-2.92231,-3.03119 -6.2918,-6.38099 -10.41999,-6.86931c-2.90562,-0.3437 -8.45791,3.70245 -11.9616,7.7297c-0.00072,-0.00362 -0.00129,-0.00762 -0.0017,-0.01201c-0.20813,-2.22806 -0.05755,-4.47515 -0.08633,-6.71273c0,0 -0.01748,-0.17483 -0.07098,-0.47582z" fill="url(#color-3)" stroke-linecap="butt"/><path d="M198.02557,307.80152l3.23413,-35.88008c1.61392,1.51081 4.22059,1.6896 6.34909,2.417c7.75671,2.6508 15.10863,3.50717 23.23478,3.53764h3c1.09641,0 2.15161,-0.17645 3.13874,-0.5025c3.18222,0.59603 6.60934,0.67113 9.47635,0.96341c1.40816,3.81719 5.07867,6.53909 9.38491,6.53909c1.47754,0 2.88024,-0.32045 4.14238,-0.89563l6.79681,-2.91292l-0.25126,-0.58628c0.41782,0.02956 0.83564,0.0591 1.25346,0.08866l7.81221,-5.63096c1.19801,-0.03637 2.40694,-0.10405 3.59904,-0.21991l2.6698,33.08249z" fill="url(#color-4)" stroke-linecap="butt"/><g><g><g><path d="M242.20592,107.78389c0,0.23177 -0.60635,8.65087 -10.15253,18.70758c-5.94837,6.26649 -12.27564,14.15137 -19.43763,18.99851c-6.48987,4.39225 -14.06146,18.092 -15.32582,17.49886c-9.39953,-4.4096 -14.51767,-46.01137 -13.31379,-51.86617c3.76957,-18.33244 15.17256,-31.65431 25.03601,-31.65431c8.55433,0 16.1385,8.42223 22.73417,15.91274c5.19964,5.90507 10.45959,11.02434 10.45959,12.4028z" fill="url(#color-5)" stroke-linecap="butt"/><path d="M218.27903,103.78317c0,0.24685 1.44212,2.68174 -0.1519,2.68174c-1.59402,0 -5.37753,-1.8886 -5.37753,-2.13545c0,-0.24685 1.29223,-0.44697 2.88626,-0.44697c1.59402,0 2.64318,-0.34617 2.64318,-0.09932z" data-paper-data="{&quot;index&quot;:null}" fill="url(#color-6)" stroke-linecap="butt"/><path d="M220.0717,107.45389l-7.77009,-3.00454" fill="url(#color-7)" stroke-linecap="round"/><path d="M219.82107,107.04418l-1.58743,-3.07283" fill="url(#color-8)" stroke-linecap="round"/><path d="M219.37885,122.00967c-1.59403,0 -2.88625,-0.2001 -2.88625,-0.44695c0,-0.24685 3.78349,-2.13546 5.37752,-2.13546c1.59403,0 0.15191,2.4349 0.15191,2.68175c0,0.24685 -1.04916,-0.09932 -2.64318,-0.09932z" data-paper-data="{&quot;index&quot;:null}" fill="url(#color-9)" stroke-linecap="butt"/><path d="M215.14232,122.4766l7.77007,-3.00453l-2.16735,4.44304" data-paper-data="{&quot;index&quot;:null}" fill="url(#color-10)" stroke-linecap="round"/></g><g data-paper-data="{&quot;index&quot;:null}"><path d="M238.36055,109.44557c0,-1.37846 5.25995,-6.49773 10.45959,-12.4028c6.59567,-7.49051 14.17985,-15.91273 22.73417,-15.91273c9.86345,0 21.26647,13.32187 25.03602,31.6543c1.20388,5.85481 -2.2476,46.45657 -11.64713,50.86618c-1.26434,0.59314 -10.50261,-12.10659 -16.99248,-16.49885c-7.16198,-4.84714 -13.48926,-12.73201 -19.43763,-18.9985c-9.54619,-10.05671 -10.15253,-18.47583 -10.15253,-18.7076z" fill="url(#color-11)" stroke-linecap="butt"/><path d="M264.93057,105.54417c1.59404,0 2.88625,0.20011 2.88625,0.44696c0,0.24685 -3.7835,2.13545 -5.37752,2.13545c-1.59404,0 -0.15192,-2.43489 -0.15192,-2.68174c0,-0.24685 1.04917,0.09932 2.64319,0.09932z" data-paper-data="{&quot;index&quot;:null}" fill="url(#color-12)" stroke-linecap="butt"/><path d="M260.49476,109.11556l7.77008,-3.00454" fill="url(#color-13)" stroke-linecap="round"/><path d="M262.33282,105.63301l-1.58743,3.07282" fill="url(#color-14)" stroke-linecap="round"/><path d="M258.54442,123.77066c0,-0.24685 -1.44212,-2.68175 0.1519,-2.68175c1.59404,0 5.37754,1.88861 5.37754,2.13546c0,0.24685 -1.29223,0.44696 -2.88625,0.44696c-1.59402,0 -2.64319,0.34617 -2.64319,0.09932z" data-paper-data="{&quot;index&quot;:null}" fill="url(#color-15)" stroke-linecap="butt"/><path d="M259.82142,125.57677l-2.16734,-4.44304l7.77007,3.00453" data-paper-data="{&quot;index&quot;:null}" fill="url(#color-16)" stroke-linecap="round"/></g></g><path d="M255.95743,107.04418l1.58744,-3.07283" fill="url(#color-17)" stroke-linecap="round"/><path d="M257.84823,111.53538c0,8.93985 -6.4921,12.13323 -17.04987,12.13323c-10.55775,0 -17.25653,-3.10893 -17.25653,-12.04877c0,-8.93985 6.59545,-12.13323 17.15321,-12.13323c10.55775,0 17.15319,3.10893 17.15319,12.04878z" fill="url(#color-18)" stroke-linecap="butt"/></g></g><g fill-rule="nonzero" stroke="#000000" stroke-width="4" stroke-linejoin="miter"><g><path d="M116.34356,12.29546l-5,-74l20,-7l14,-38l87,93" fill="none" stroke-linecap="round"/><path d="M128.34356,13.00658c0,7.02016 -5.8203,12.71111 -13,12.71111c-7.1797,0 -13,-5.69095 -13,-12.71111c0,-7.02015 5.8203,-12.71111 13,-12.71111c7.1797,0 13,5.69096 13,12.71111z" fill="#000000" stroke-linecap="butt"/></g><path d="M239.04284,-27.82129l115.36314,-53.93835l11.62626,179.24419" fill="none" stroke-linecap="round"/></g><g fill-rule="evenodd" stroke-linecap="round" stroke-linejoin="round"><path d="M190.02202,-39.47118h98.30993c16.43041,0 29.65774,11.15289 29.65774,25.00645v70.8625c0,13.85356 -13.22731,25.00645 -29.65774,25.00645h-98.30993c-16.43037,0 -29.65774,-11.15289 -29.65774,-25.00645v-70.8625c0,-13.85356 13.22736,-25.00645 29.65774,-25.00645z" fill="url(#color-19)" stroke="none" stroke-width="0"/><path d="M199.2072,-28.17768h79.93968c13.36022,0 24.11588,9.06885 24.11588,20.33374c0,0 0,30.50864 0,41.13941c0,6.72879 0,16.48169 0,16.48169c0,11.26487 -10.75566,20.33374 -24.11588,20.33374c0,0 -51.90987,0 -65.80332,0c-6.43955,0 -14.13636,0 -14.13636,0c-13.36018,0 -24.11588,-9.06885 -24.11588,-20.33374v-57.6211c0,-11.26488 10.75568,-20.33374 24.11588,-20.33374z" fill="#000000" stroke="#000000" stroke-width="2"/></g><path d="M189.06709,14.74209c0,-12.968 10.51265,-23.48065 23.48065,-23.48065c12.968,0 23.48065,10.51265 23.48065,23.48065c0,12.968 -9.92932,21.98065 -22.89732,21.98065c-12.968,0 -24.06398,-9.01265 -24.06398,-21.98065z" fill="#000000" fill-rule="nonzero" stroke="#42ff00" stroke-width="2" stroke-linecap="butt" stroke-linejoin="miter"/><path d="M196.54915,13.84144c0,-12.64889 7.13859,-22.90284 15.94449,-22.90284c8.80592,0 15.94451,10.25395 15.94451,22.90284c0,12.64891 -7.1386,22.90283 -15.94451,22.90283c-8.80592,0 -15.94449,-10.25394 -15.94449,-22.90283z" fill="#42ff00" fill-rule="nonzero" stroke="none" stroke-width="0" stroke-linecap="butt" stroke-linejoin="miter"/><path d="M266.80611,38.22272c-12.968,0 -23.48065,-10.51265 -23.48065,-23.48065c0,-12.968 10.51265,-23.48065 23.48065,-23.48065c12.968,0 23.48065,10.51265 23.48065,23.48065c0,12.968 -10.51265,23.48065 -23.48065,23.48065z" data-paper-data="{&quot;index&quot;:null}" fill="#000000" fill-rule="nonzero" stroke="#42ff00" stroke-width="2" stroke-linecap="butt" stroke-linejoin="miter"/><path d="M209.72582,-11.22101c-6.83649,-1.60469 -20.82108,-1.49982 -20.82108,-1.49982c0,0 12.60623,-3.29462 21.45873,-1.21675c8.85247,2.07788 20.52461,11.07121 20.52461,11.07121c0,0 -14.01787,-6.67768 -21.16226,-8.35463z" data-paper-data="{&quot;index&quot;:null}" fill="#42ff00" fill-rule="nonzero" stroke="none" stroke-width="0" stroke-linecap="butt" stroke-linejoin="miter"/><path d="M246.50477,-1.26639c0,0 11.67213,-8.99333 20.52461,-11.0712c8.85249,-2.07788 21.45873,1.21675 21.45873,1.21675c0,0 -13.9846,-0.10487 -20.82108,1.49982c-7.14439,1.67696 -21.16225,8.35464 -21.16225,8.35464z" data-paper-data="{&quot;index&quot;:null}" fill="#42ff00" fill-rule="nonzero" stroke="none" stroke-width="0" stroke-linecap="butt" stroke-linejoin="miter"/><path d="M251.44767,18.43139c0,7.18809 -5.32284,13.01521 -11.88889,13.01521c-6.56605,0 -11.88889,-5.82711 -11.88889,-13.01521c0,-7.18809 5.32284,-13.0152 11.88889,-13.0152c6.56605,0 11.88889,5.82711 11.88889,13.0152z" fill="url(#color-20)" fill-rule="nonzero" stroke="none" stroke-width="0" stroke-linecap="butt" stroke-linejoin="miter"/><path d="M237.27541,20.72179l1,-3.38462" fill="none" fill-rule="nonzero" stroke="#42ff00" stroke-width="0.5" stroke-linecap="round" stroke-linejoin="miter"/><path d="M239.58312,17.26022l-1,5.15385" fill="none" fill-rule="nonzero" stroke="#42ff00" stroke-width="0.5" stroke-linecap="round" stroke-linejoin="miter"/><path d="M240.66004,20.64488l0.53847,-2.76923" fill="none" fill-rule="nonzero" stroke="#42ff00" stroke-width="0.5" stroke-linecap="round" stroke-linejoin="miter"/><path d="M233.96773,19.56795l0.46154,-2.3077" fill="none" fill-rule="nonzero" stroke="#42ff00" stroke-width="0.5" stroke-linecap="round" stroke-linejoin="miter"/><path d="M233.12159,17.7218l-0.30769,1.6923" fill="none" fill-rule="nonzero" stroke="#42ff00" stroke-width="0.5" stroke-linecap="round" stroke-linejoin="miter"/><path d="M231.89081,17.4141l-0.15384,1.46154" fill="none" fill-rule="nonzero" stroke="#42ff00" stroke-width="0.5" stroke-linecap="round" stroke-linejoin="miter"/><path d="M246.12157,19.33717l-0.61539,-2.15384" fill="none" fill-rule="nonzero" stroke="#42ff00" stroke-width="0.5" stroke-linecap="round" stroke-linejoin="miter"/><path d="M247.27541,18.87564l-0.46154,-1.53846" fill="none" fill-rule="nonzero" stroke="#42ff00" stroke-width="0.5" stroke-linecap="round" stroke-linejoin="miter"/><path d="M248.27541,17.26022l0.15385,0.84616" fill="none" fill-rule="nonzero" stroke="#42ff00" stroke-width="0.5" stroke-linecap="round" stroke-linejoin="miter"/><path d="M188.30474,-11.56133c0,0 1.32071,-0.26181 2.96495,0.53341c0.69978,0.33845 3.23072,1.53027 4.66821,3.23609c1.17837,1.39832 1.36684,3.7305 1.36684,3.7305" fill="none" fill-rule="nonzero" stroke="#42ff00" stroke-width="2" stroke-linecap="round" stroke-linejoin="miter"/><path d="M181.90291,-1.8453c0,0 0.98337,-0.91968 2.7996,-1.11251c0.77299,-0.08207 3.55165,-0.40626 5.67311,0.28339c1.73904,0.56534 3.13049,2.44641 3.13049,2.44641" fill="none" fill-rule="nonzero" stroke="#42ff00" stroke-width="2" stroke-linecap="round" stroke-linejoin="miter"/><path d="M210.4978,41.0476l3.75,-0.25" fill="none" fill-rule="nonzero" stroke="#42ff00" stroke-width="2" stroke-linecap="round" stroke-linejoin="miter"/><path d="M198.1683,15.43322l7.5,0.33333" fill="none" fill-rule="nonzero" stroke="#ff0000" stroke-width="3.5" stroke-linecap="round" stroke-linejoin="miter"/><path d="M235.74915,-0.9073l1.1,3.7" fill="none" fill-rule="nonzero" stroke="#42ff00" stroke-width="0.5" stroke-linecap="round" stroke-linejoin="miter"/><path d="M238.84915,-1.6073l-0.1,7.1" fill="none" fill-rule="nonzero" stroke="#42ff00" stroke-width="0.5" stroke-linecap="round" stroke-linejoin="miter"/><path d="M241.34915,1.1927l1.2,-3.8" fill="none" fill-rule="nonzero" stroke="#42ff00" stroke-width="0.5" stroke-linecap="round" stroke-linejoin="miter"/><path d="M234.24915,-0.7073l-1,-1.7" fill="none" fill-rule="nonzero" stroke="#42ff00" stroke-width="0.5" stroke-linecap="round" stroke-linejoin="miter"/><path d="M244.64915,-0.9073l0.3,-2.2" fill="none" fill-rule="nonzero" stroke="#42ff00" stroke-width="0.5" stroke-linecap="round" stroke-linejoin="miter"/><path d="M244.84766,0.47248c0,3.62092 -2.68132,6.55626 -5.98889,6.55626c-3.30757,0 -5.98889,-2.93534 -5.98889,-6.55626c0,-3.62092 2.68132,-6.55626 5.98889,-6.55626c3.30757,0 5.98889,2.93534 5.98889,6.55626z" fill="url(#color-21)" fill-rule="nonzero" stroke="none" stroke-width="0" stroke-linecap="butt" stroke-linejoin="miter"/><path d="M368.42667,101.21884c6.6639,2.6722 9.94795,10.12054 7.33513,16.63635c-2.61282,6.51581 -10.13306,9.63167 -16.79696,6.95947c-6.6639,-2.6722 -9.94795,-10.12054 -7.33514,-16.63635c2.61282,-6.51581 10.13307,-9.63167 16.79697,-6.95947z" fill="#000000" fill-rule="nonzero" stroke="#000000" stroke-width="4" stroke-linecap="butt" stroke-linejoin="miter"/><g fill-rule="nonzero" stroke="#42ff00" stroke-width="2" stroke-linejoin="miter"><path d="M257.29361,60.8882c0,0.46382 -1.87621,-0.68583 -5.37889,-1.46836c-3.63951,-0.8131 -8.99521,-1.26966 -13.66511,-1.26966c-0.62685,0 -4.04001,-0.04587 -6.56816,0.34277c-5.29425,0.81386 -11.22118,2.40474 -11.22118,2.39525c0,-9.5525 8.24542,-17.29634 18.41667,-17.29634c10.17125,0 18.41667,7.74384 18.41667,17.29634z" fill="#000000" stroke-linecap="butt"/><path d="M229.51474,46.81238l0.32263,11.12876" fill="none" stroke-linecap="round"/><path d="M238.97849,44.27423l0.10754,13.47166" fill="none" stroke-linecap="round"/><path d="M248.54979,47.3981l-0.10754,10.54304" fill="none" stroke-linecap="round"/></g><path d="M272.26698,217.86809c0,0.75939 -0.55964,1.375 -1.25,1.375c-0.69036,0 -1.25,-0.61561 -1.25,-1.375c0,-0.75939 0.55964,-1.375 1.25,-1.375c0.69036,0 1.25,0.61561 1.25,1.375z" fill="#000000" fill-rule="nonzero" stroke="none" stroke-width="0" stroke-linecap="butt" stroke-linejoin="miter"/><path d="M216.51699,211.11809c0,0.48325 -0.55964,0.875 -1.25,0.875c-0.69036,0 -1.25,-0.39175 -1.25,-0.875c0,-0.48325 0.55964,-0.875 1.25,-0.875c0.69036,0 1.25,0.39175 1.25,0.875z" fill="#000000" fill-rule="nonzero" stroke="none" stroke-width="0" stroke-linecap="butt" stroke-linejoin="miter"/><path d="M252.04915,14.42476c0,-13.0631 6.9707,-23.65284 15.56949,-23.65284c8.59881,0 15.56951,10.58974 15.56951,23.65284c0,13.06312 -6.97072,23.65283 -15.56951,23.65283c-8.59881,0 -15.56949,-10.58973 -15.56949,-23.65283z" fill="#42ff00" fill-rule="nonzero" stroke="none" stroke-width="0" stroke-linecap="butt" stroke-linejoin="miter"/><path d="M251.50158,16.26656l7.5,0.33333" fill="none" fill-rule="nonzero" stroke="#ff0000" stroke-width="3.5" stroke-linecap="round" stroke-linejoin="miter"/><path d="M213.08196,44.0487l-2.8,0.4" fill="none" fill-rule="nonzero" stroke="#42ff00" stroke-width="2" stroke-linecap="round" stroke-linejoin="miter"/><path d="M267.10697,42.4737l3.5,-0.5" fill="none" fill-rule="nonzero" stroke="#42ff00" stroke-width="2" stroke-linecap="round" stroke-linejoin="miter"/><path d="M268.35697,46.7237l2,-0.75" fill="none" fill-rule="nonzero" stroke="#42ff00" stroke-width="2" stroke-linecap="round" stroke-linejoin="miter"/><path d="M205.75416,229.13164c-1.68168,-1.84985 5.59666,-13.90403 6.3733,-20.02332c0.33331,-2.62623 0.13108,-5.66001 1.13529,-8.20167c0.77353,-1.95781 -0.61472,-14.67334 1.92646,-14.65048c0.87516,0.00787 7.50475,11.80952 7.64739,12.07827c0.51022,-1.64293 1.10957,-3.19276 1.33665,-4.13542c1.61261,-6.69455 9.59743,4.20925 9.59743,5.25093c0,0.52635 7.66726,-10.63205 7.66451,-10.56277c-0.17655,4.44003 1.34141,11.5578 1.00032,15.99204c0.00229,4.8569 2.00456,2.38049 2.00184,7.23739c-0.00003,0.05275 0.036,0.39889 0.07334,0.89143c0.91664,-0.87824 2.21055,-1.31876 3.43946,-1.63775c0.4997,-0.12971 1.30915,0.83643 1.5065,0.35938c0.40673,-0.98317 -0.36966,-2.10991 -0.3423,-3.17355c0.04282,-1.66423 0.40404,-3.30555 0.55165,-4.96377c0.57395,-6.44764 1.10917,-13.15143 0.76981,-19.62599c-0.30602,-5.83856 -1.02392,-11.46666 -0.95094,-17.33493c0.8547,-1.96043 1.08077,-4.34066 2.5641,-5.8813c1.82937,-1.90006 4.9615,13.78922 7.68283,19.17723c0.77416,1.53278 4.27229,-2.82301 4.31681,-2.45621c0.05196,-0.13524 0.105,-0.26871 0.15904,-0.40026c1.71434,-4.17318 5.29836,-1.54349 5.66281,-0.19535c0.1685,0.62329 8.01884,54.15489 5.10532,58.18837c-2.04422,2.83002 -1.38049,2.16937 -4.43686,2.53824c-6.10521,0.73684 -14.00017,3.80966 -19.8641,1.66093c-3.46537,-1.26982 -9.68644,-3.73471 -13.27862,-4.65484c-4.1068,-1.05196 -4.35344,-3.08779 -8.36658,-4.05853c-3.18863,-0.7713 -4.25733,-0.43107 -6.46691,-2.60751c-1.11682,-0.98123 -3.03356,-2.88029 -4.54802,-3.5021c-3.32772,-1.3663 -6.39183,0.77011 -9.08569,2.46315l0.38004,0.67057c0,0 -3.27599,1.86457 -3.55489,1.55778z" fill="#000000" fill-rule="nonzero" stroke="none" stroke-width="0.5" stroke-linecap="butt" stroke-linejoin="miter"/><path d="M242.18204,186.13666c0,0.59831 -0.29848,1.08333 -0.66667,1.08333c-0.36819,0 -0.66667,-0.48502 -0.66667,-1.08333c0,-0.59831 0.29848,-1.08333 0.66667,-1.08333c0.36819,0 0.66667,0.48502 0.66667,1.08333z" fill="#000000" fill-rule="nonzero" stroke="none" stroke-width="0" stroke-linecap="butt" stroke-linejoin="miter"/><path d="M217.51537,195.30333c0,0.50626 -0.3731,0.91667 -0.83333,0.91667c-0.46024,0 -0.83333,-0.41041 -0.83333,-0.91667c0,-0.50626 0.3731,-0.91667 0.83333,-0.91667c0.46024,0 0.83333,0.41041 0.83333,0.91667z" fill="#000000" fill-rule="nonzero" stroke="none" stroke-width="0" stroke-linecap="butt" stroke-linejoin="miter"/><path d="M216.51537,182.47c0,0.7824 -0.70888,1.41667 -1.58333,1.41667c-0.87445,0 -1.58333,-0.63426 -1.58333,-1.41667c0,-0.7824 0.70888,-1.41667 1.58333,-1.41667c0.87445,0 1.58333,0.63426 1.58333,1.41667z" fill="#000000" fill-rule="nonzero" stroke="none" stroke-width="0" stroke-linecap="butt" stroke-linejoin="miter"/><path d="M202.60821,270.99985c0.3684,-0.41769 0.94565,-0.74493 1.85014,-0.74493c1.56325,0 2.149,0.97751 2.36848,1.71005c4.57868,1.71119 9.36675,3.60476 14.2448,3.79252c5.27412,0.20301 10.60918,-0.00381 15.88671,-0.00257c1.69306,0.0004 5.59639,-0.09421 7.16733,0.34071c2.73846,0.75816 4.13927,2.23233 5.9713,4.27128c0.64029,0.71261 1.59788,2.63818 2.75415,2.97205c1.63332,0.47162 5.47029,-1.71531 6.87589,-2.22468c5.32357,-1.33089 9.60007,-4.22984 14.68369,-6.12926c1.6618,-0.6209 3.45003,-2.32124 5.07372,-1.60659c6.82134,3.00231 1.9221,6.27544 -0.17141,8.29353c-3.81414,3.67675 -8.4134,5.77992 -13.53697,7.01765c-2.96716,0.71679 -8.23242,0.41263 -10.75829,2.26935c-2.62578,1.93016 -2.06448,7.63392 -4.22928,9.93271c-0.11267,0.11964 -0.23001,0.23337 -0.35148,0.34189l0.03912,0.03912l-2.25,2.25c-0.45241,0.45241 -1.07741,0.73223 -1.76777,0.73223c-1.38071,0 -2.5,-1.11929 -2.5,-2.5c0,-0.09542 0.00535,-0.18959 0.01575,-0.28222l0.24665,-2.46654c0.14823,-1.46311 0.82219,-2.94799 0.50152,-4.38321c-0.19561,-0.87551 -1.72228,-0.53965 -2.61345,-0.64259c-4.2968,-0.49633 -8.58424,-0.47034 -12.90048,-0.47545c-11.21253,-0.01325 -30.03092,-6.02828 -28.98759,-20.24876c0,0 0.22504,-2.2504 2.38745,-2.25631z" fill="#000000" fill-rule="nonzero" stroke="none" stroke-width="0.5" stroke-linecap="butt" stroke-linejoin="miter"/><path d="M244.70834,306.00491c0,0.55228 -0.39175,1 -0.875,1c-0.48325,0 -0.875,-0.44772 -0.875,-1c0,-0.55228 0.39175,-1 0.875,-1c0.48325,0 0.875,0.44772 0.875,1z" fill="#000000" fill-rule="nonzero" stroke="none" stroke-width="0" stroke-linecap="butt" stroke-linejoin="miter"/></g></g></svg>