<svg version="1.1" xmlns="http://www.w3.org/2000/svg" xmlns:xlink="http://www.w3.org/1999/xlink" width="145.11473" height="276.84473" viewBox="0,0,145.11473,276.84473"><defs><linearGradient x1="239.99979" y1="175.91989" x2="239.99979" y2="307.91989" gradientUnits="userSpaceOnUse" id="color-1"><stop offset="0" stop-color="#000000"/><stop offset="1" stop-color="#ff80c9"/></linearGradient><linearGradient x1="265.0508" y1="38.08297" x2="247.52582" y2="135.52651" gradientUnits="userSpaceOnUse" id="color-2"><stop offset="0" stop-color="#000000"/><stop offset="1" stop-color="#8cefef"/></linearGradient><linearGradient x1="258.88398" y1="87.43741" x2="237.53746" y2="206.12978" gradientUnits="userSpaceOnUse" id="color-3"><stop offset="0" stop-color="#000000"/><stop offset="1" stop-color="#8cefef"/></linearGradient><linearGradient x1="276.6743" y1="89.35477" x2="276.01963" y2="92.99486" gradientUnits="userSpaceOnUse" id="color-4"><stop offset="0" stop-color="#000000"/><stop offset="1" stop-color="#000000"/></linearGradient><linearGradient x1="229.99857" y1="50.99511" x2="206.96509" y2="179.06739" gradientUnits="userSpaceOnUse" id="color-5"><stop offset="0" stop-color="#000000"/><stop offset="1" stop-color="#ff80c9"/></linearGradient><linearGradient x1="228.23828" y1="80.30497" x2="227.64803" y2="83.58696" gradientUnits="userSpaceOnUse" id="color-6"><stop offset="0" stop-color="#000000"/><stop offset="1" stop-color="#ce52af"/></linearGradient><linearGradient x1="228.51962" y1="81.27885" x2="227.87951" y2="84.83803" gradientUnits="userSpaceOnUse" id="color-7"><stop offset="0" stop-color="#000000"/><stop offset="1" stop-color="#000000"/></linearGradient><linearGradient x1="231.98653" y1="81.31779" x2="231.33187" y2="84.95789" gradientUnits="userSpaceOnUse" id="color-8"><stop offset="0" stop-color="#000000"/><stop offset="1" stop-color="#000000"/></linearGradient><linearGradient x1="229.3204" y1="99.73964" x2="228.73014" y2="103.02163" gradientUnits="userSpaceOnUse" id="color-9"><stop offset="0" stop-color="#000000"/><stop offset="1" stop-color="#ce52af"/></linearGradient><linearGradient x1="228.68414" y1="99.67999" x2="227.73756" y2="104.94324" gradientUnits="userSpaceOnUse" id="color-10"><stop offset="0" stop-color="#000000"/><stop offset="1" stop-color="#000000"/></linearGradient><linearGradient x1="296.09167" y1="63.89783" x2="272.70416" y2="193.93854" gradientUnits="userSpaceOnUse" id="color-11"><stop offset="0" stop-color="#000000"/><stop offset="1" stop-color="#ff80c9"/></linearGradient><linearGradient x1="287.45001" y1="92.42545" x2="286.85069" y2="95.75787" gradientUnits="userSpaceOnUse" id="color-12"><stop offset="0" stop-color="#000000"/><stop offset="1" stop-color="#ce52af"/></linearGradient><linearGradient x1="286.84452" y1="93.25402" x2="286.19457" y2="96.8679" gradientUnits="userSpaceOnUse" id="color-13"><stop offset="0" stop-color="#000000"/><stop offset="1" stop-color="#000000"/></linearGradient><linearGradient x1="283.58284" y1="92.07386" x2="282.91812" y2="95.7699" gradientUnits="userSpaceOnUse" id="color-14"><stop offset="0" stop-color="#000000"/><stop offset="1" stop-color="#000000"/></linearGradient><linearGradient x1="279.61267" y1="110.55168" x2="279.01334" y2="113.88411" gradientUnits="userSpaceOnUse" id="color-15"><stop offset="0" stop-color="#000000"/><stop offset="1" stop-color="#ce52af"/></linearGradient><linearGradient x1="280.22969" y1="110.71828" x2="279.26856" y2="116.06242" gradientUnits="userSpaceOnUse" id="color-16"><stop offset="0" stop-color="#000000"/><stop offset="1" stop-color="#000000"/></linearGradient><linearGradient x1="258.6096" y1="80.62144" x2="253.45767" y2="109.26752" gradientUnits="userSpaceOnUse" id="color-17"><stop offset="0" stop-color="#000000"/><stop offset="1" stop-color="#e3e854"/></linearGradient><linearGradient x1="248.79172" y1="147.94781" x2="245.31489" y2="166.62698" gradientUnits="userSpaceOnUse" id="color-18"><stop offset="0" stop-color="#000000" stop-opacity="0"/><stop offset="1" stop-color="#000000"/></linearGradient></defs><g transform="translate(-176.39939,-37.18764)"><g data-paper-data="{&quot;isPaintingLayer&quot;:true}" fill-rule="nonzero" stroke-linejoin="miter" stroke-miterlimit="10" stroke-dasharray="" stroke-dashoffset="0" style="mix-blend-mode: normal"><path d="M179.28348,314.03237v-267.22501h123.18203v267.22501z" fill-opacity="0.01" fill="#000000" stroke="none" stroke-width="0" stroke-linecap="butt"/><path d="M206.7498,307.91988l15.14285,-131.8421l37.78325,-0.15789l13.57389,132z" fill="url(#color-1)" stroke="none" stroke-width="0" stroke-linecap="butt"/><path d="M247.52582,135.52651c-28.66592,-5.1555 -47.98117,-31.14832 -43.14179,-58.05662c4.83939,-26.90828 32.00084,-44.54242 60.66676,-39.38692c28.66593,5.1555 47.98117,31.14833 43.14179,58.05662c-4.83939,26.90829 -32.00083,44.54241 -60.66676,39.38691z" fill="url(#color-2)" stroke="none" stroke-width="0" stroke-linecap="butt"/><g stroke="none" stroke-width="0" stroke-linecap="butt"><path d="M184.98804,135.41316c5.89468,-32.776 38.97902,-54.25547 73.89594,-47.97575c34.91692,6.27972 58.4441,37.94064 52.54942,70.71662c-5.89468,32.776 -38.97902,54.25547 -73.89594,47.97575c-34.91692,-6.27972 -58.4441,-37.94064 -52.54942,-70.71662z" fill="url(#color-3)"/><path d="M237.44376,94.33967c0.61235,1.73612 -3.39494,4.73202 -8.95053,6.69154c-5.5556,1.95952 -10.5557,2.14061 -11.16805,0.40448c-0.61235,-1.73612 3.39495,-4.73202 8.95053,-6.69155c5.5556,-1.95952 10.5557,-2.1406 11.16804,-0.40447z" fill="#d4f0f0"/><path d="M248.30771,94.53836c-0.26069,1.4495 -1.64707,2.41322 -3.09658,2.15253c-1.4495,-0.26069 -2.41322,-1.64707 -2.15253,-3.09657c0.26069,-1.4495 1.64708,-2.41323 3.09658,-2.15254c1.4495,0.26069 2.41323,1.64707 2.15254,3.09658z" fill="#d4f0f0"/></g><path d="M198.24825,138.23435c2.29544,-12.76323 14.5029,-21.24906 27.26613,-18.95363c12.76323,2.29544 21.24906,14.50291 18.95362,27.26614c-2.29544,12.76323 -14.5029,21.24906 -27.26613,18.95363c-12.76323,-2.29544 -21.24906,-14.50291 -18.95362,-27.26614z" fill="#ff0000" stroke="none" stroke-width="0" stroke-linecap="butt"/><path d="M270.60352,175.1046c-12.76323,-2.29544 -21.24906,-14.50291 -18.95362,-27.26614c2.29544,-12.76323 14.50291,-21.24906 27.26614,-18.95362c12.76323,2.29544 21.24906,14.50291 18.95362,27.26614c-2.29544,12.76323 -14.50291,21.24906 -27.26614,18.95362z" data-paper-data="{&quot;index&quot;:null}" fill="#ff0000" stroke="none" stroke-width="0" stroke-linecap="butt"/><path d="M280.44406,113.79627c-3.70419,-1.60334 -11.62605,-2.96682 -11.62605,-2.96682c0,0 7.46664,-0.58122 12.26316,1.4949c4.79651,2.07613 10.48454,8.35126 10.48454,8.35126c0,0 -7.25062,-5.2038 -11.12164,-6.87936z" data-paper-data="{&quot;index&quot;:null}" fill="#000000" stroke="none" stroke-width="0" stroke-linecap="butt"/><path d="M198.2509,137.93007l-3.08294,-3.19617" fill="none" stroke="#000000" stroke-width="2" stroke-linecap="round"/><path d="M297.4946,155.57558l4.73551,-2.60288" fill="none" stroke="#000000" stroke-width="2" stroke-linecap="round"/><path d="M233.50915,96.70735c1.25808,2.94585 -2.62175,7.42645 -8.66584,10.00768c-6.04408,2.58122 -11.96365,2.28564 -13.22172,-0.66023c-1.25808,-2.94585 2.62175,-7.42645 8.66585,-10.00766c6.04408,-2.58121 11.96365,-2.28564 13.22172,0.66023z" fill="#ecfefe" stroke="none" stroke-width="0" stroke-linecap="butt"/><path d="M241.99032,95.62861c-0.2444,1.35891 -1.456,2.27825 -2.70619,2.05341c-1.25019,-0.22485 -2.06556,-1.50873 -1.82116,-2.86764c0.2444,-1.35891 1.456,-2.27825 2.7062,-2.05341c1.25019,0.22485 2.06556,1.50873 1.82116,2.86764z" fill="#ecfefe" stroke="none" stroke-width="0" stroke-linecap="butt"/><path d="M216.66911,107.20564c0,0 7.518,-3.90006 12.73733,-4.17487c5.21933,-0.27481 12.01557,2.87156 12.01557,2.87156c0,0 -7.90052,-1.48214 -11.93124,-1.2699c-4.21225,0.22179 -12.82166,2.57321 -12.82166,2.57321z" fill="#000000" stroke="none" stroke-width="0" stroke-linecap="butt"/><path d="M277.61454,89.52388l-2.53514,3.30187" fill="url(#color-4)" stroke="none" stroke-width="2" stroke-linecap="round"/><path d="M207.84327,166.87266l1.21666,-2.99865" fill="none" stroke="#000000" stroke-width="2" stroke-linecap="round"/><path d="M226.51374,170.39983l0.82604,-4.59297" fill="none" stroke="#000000" stroke-width="2" stroke-linecap="round"/><path d="M258.09696,175.57197l1.15409,-4.53397" fill="none" stroke="#000000" stroke-width="2" stroke-linecap="round"/><path d="M278.58353,175.93979l-0.13146,4.76628" fill="none" stroke="#000000" stroke-width="2" stroke-linecap="round"/><path d="M197.74215,143.36901c0.41511,0.08853 44.05929,7.93375 45.20528,8.03435c-3.21043,10.10775 -14.07847,16.42972 -25.50613,14.37448c-4.47824,-0.8054 -11.08718,-4.15385 -14.20539,-8.04391c-5.17388,-6.45454 -5.49376,-14.36492 -5.49376,-14.36492z" data-paper-data="{&quot;index&quot;:null}" fill="#ff4242" stroke="none" stroke-width="2" stroke-linecap="butt"/><path d="M205.25087,139.21368c1.61574,-8.98394 10.20846,-14.95705 19.1924,-13.3413c8.98394,1.61574 14.95705,10.20847 13.3413,19.19241c-1.61574,8.98394 -10.20848,14.95704 -19.19241,13.3413c-8.98394,-1.61574 -14.95703,-10.20847 -13.34129,-19.19241z" fill="#000000" stroke="none" stroke-width="0" stroke-linecap="butt"/><path d="M286.54939,172.51445c-4.27821,2.55983 -11.6397,3.39574 -16.11794,2.59034c-11.42766,-2.05523 -19.41193,-11.76775 -18.8994,-22.3607c1.10924,0.30499 44.752,8.1581 45.17194,8.21976c0,0 -3.05601,7.30325 -10.1546,11.55061z" data-paper-data="{&quot;index&quot;:null}" fill="#ff4242" stroke="none" stroke-width="2" stroke-linecap="butt"/><path d="M271.77224,167.97039c-8.98393,-1.61574 -14.95704,-10.20847 -13.34129,-19.19241c1.61574,-8.98394 10.20847,-14.95705 19.1924,-13.3413c8.98393,1.61574 14.95704,10.20847 13.34129,19.19241c-1.61574,8.98394 -10.20847,14.95705 -19.1924,13.3413z" data-paper-data="{&quot;index&quot;:null}" fill="#000000" stroke="none" stroke-width="0" stroke-linecap="butt"/><g stroke="none" stroke-width="0"><path d="M258.63169,90.77231c-0.03148,0.17505 -29.56517,37.03009 -31.22001,37.36111c-0.11438,0.02288 -34.2084,43.56334 -45.64701,46.32821c-3.62755,0.87683 -3.92768,-21.97698 -3.84774,-24.74414c0.69546,-24.07022 11.65278,-61.59098 13.36426,-67.37301c2.5811,-8.71995 7.22154,-16.86892 9.17265,-19.41804c7.5414,-9.8528 17.20174,-14.15118 24.88898,-12.76865c10.13348,1.82248 17.3234,13.41526 23.54081,23.69375c4.90144,8.10294 10.04174,15.28786 9.74806,16.92079z" fill="url(#color-5)" stroke-linecap="butt"/><path d="M231.14016,80.93546c-0.05259,0.29241 1.137,3.48405 -0.75129,3.14444c-1.88829,-0.3396 -5.96787,-3.38294 -5.91528,-3.67535c0.05259,-0.29241 1.62599,-0.25416 3.51428,0.08544c1.88829,0.3396 3.20487,0.15305 3.15229,0.44546z" data-paper-data="{&quot;index&quot;:null}" fill="url(#color-6)" stroke-linecap="butt"/><path d="M223.91739,80.45114l8.56436,5.21458" fill="url(#color-7)" stroke-linecap="round"/><path d="M231.04629,81.1487l1.22582,3.97828" fill="url(#color-8)" stroke-linecap="round"/><path d="M228.55988,102.76095c-1.8883,-0.3396 -3.37643,-0.85195 -3.32384,-1.14438c0.05259,-0.29241 4.9369,-1.72361 6.82519,-1.38401c1.8883,0.3396 -0.3388,2.91675 -0.39138,3.20917c-0.05259,0.29241 -1.22167,-0.34118 -3.10997,-0.68078z" data-paper-data="{&quot;index&quot;:null}" fill="url(#color-9)" stroke-linecap="butt"/><path d="M223.4418,102.41148l9.84457,-1.90379l-3.51403,4.8015" data-paper-data="{&quot;index&quot;:null}" fill="url(#color-10)" stroke-linecap="round"/></g><path d="M224.22481,143.37917c-0.2025,1.12596 -1.3109,1.86891 -2.47568,1.65942c-1.16478,-0.20948 -1.94487,-1.29207 -1.74236,-2.41803c0.2025,-1.12596 1.3109,-1.86891 2.47569,-1.65942c1.16478,0.20948 1.94487,1.29207 1.74236,2.41803z" fill="#ff0000" stroke="none" stroke-width="0" stroke-linecap="butt"/><path d="M277.02004,152.79685c-0.2025,1.12596 -1.3109,1.86891 -2.47569,1.65942c-1.16478,-0.20948 -1.94486,-1.29206 -1.74235,-2.41803c0.2025,-1.12596 1.3109,-1.86891 2.47568,-1.65942c1.16478,0.20948 1.94487,1.29207 1.74236,2.41803z" fill="#ff0000" stroke="none" stroke-width="0" stroke-linecap="butt"/><g data-paper-data="{&quot;index&quot;:null}" stroke="none" stroke-width="0"><path d="M255.3007,91.72151c0.29819,-1.65803 7.63656,-6.69491 15.07347,-12.68982c9.43363,-7.60448 20.23977,-16.11902 30.37326,-14.29653c7.68724,1.38252 15.2284,8.86732 18.83426,20.8972c0.9329,3.11237 2.41919,12.50129 1.77572,21.71088c-0.42668,6.1067 -3.3349,45.68204 -11.13448,68.84648c-0.89665,2.66303 -9.20187,24.31961 -12.2925,22.21103c-9.74558,-6.6489 -26.39956,-60.07971 -26.49868,-60.14165c-1.43412,-0.89622 -16.163,-46.35986 -16.13105,-46.5376z" fill="url(#color-11)" stroke-linecap="butt"/><path d="M287.61966,92.68955c1.8883,0.3396 3.37578,0.85561 3.32238,1.15252c-0.0534,0.29691 -4.9439,1.76249 -6.83218,1.42288c-1.8883,-0.3396 0.34677,-2.96108 0.40017,-3.258c0.0534,-0.29691 1.22135,0.34299 3.10963,0.68259z" data-paper-data="{&quot;index&quot;:null}" fill="url(#color-12)" stroke-linecap="butt"/><path d="M281.59234,96.0402l9.85441,-1.95849" fill="url(#color-13)" stroke-linecap="round"/><path d="M281.97788,95.60078l2.5452,-3.35782" fill="url(#color-14)" stroke-linecap="round"/><path d="M276.11175,113.25201c0.0534,-0.29691 -1.12823,-3.53287 0.76007,-3.19326c1.8883,0.3396 5.9617,3.4173 5.90829,3.71422c-0.0534,0.29691 -1.62746,0.2623 -3.51576,-0.07731c-1.88829,-0.3396 -3.20601,-0.14673 -3.15261,-0.44365z" data-paper-data="{&quot;index&quot;:null}" fill="url(#color-15)" stroke-linecap="butt"/><path d="M277.23377,115.69647l-1.60632,-5.80589l8.5545,5.26929" data-paper-data="{&quot;index&quot;:null}" fill="url(#color-16)" stroke-linecap="round"/></g><path d="M250.58973,196.20792c-0.6213,3.45459 -22.27391,-0.43957 -21.65261,-3.89417c0.6213,-3.45459 5.97207,-5.38337 11.95127,-4.30803c5.9792,1.07534 10.32263,4.7476 9.70133,8.20219z" fill="#000000" stroke="none" stroke-width="0" stroke-linecap="butt"/><path d="M214.95773,167.05604l-2.85149,-1.09343" fill="none" stroke="#000000" stroke-width="0.5" stroke-linecap="round"/><path d="M213.51531,167.81266l-1.35545,-0.53407" fill="none" stroke="#000000" stroke-width="0.5" stroke-linecap="round"/><path d="M273.87433,177.28916l2.27996,-0.43665" fill="none" stroke="#000000" stroke-width="0.5" stroke-linecap="round"/><path d="M274.72755,179.13602l1.45979,-0.58416" fill="none" stroke="#000000" stroke-width="0.5" stroke-linecap="round"/><path d="M177.48881,129.36098c-0.03816,-1.14137 -0.15932,-4.62516 1.37927,-5.12486c0.18709,-0.06076 0.36327,-0.02023 0.53188,0.07646l0.05101,-0.28365c0.07332,-0.40766 0.46325,-0.67872 0.87091,-0.6054c0.40766,0.07332 0.67872,0.46324 0.6054,0.8709l-0.14884,0.82758c0.03941,0.00209 0.08084,0.0069 0.12436,0.01473c0.28703,0.05162 0.44237,0.19478 0.52504,0.35049c0.03173,0.01052 0.06435,0.02323 0.09787,0.03832c0.315,0.14178 0.41961,0.36333 0.44082,0.56111c2.21257,0.97284 4.15862,-3.24203 6.00605,-0.76212c1.05109,1.41094 0.1261,3.29322 -0.3338,4.68712c-0.88421,2.67987 -2.612,5.01686 -4.14332,7.39877c-1.12761,1.85777 -1.2134,4.06403 -1.59575,6.19338c-0.12836,0.71483 -0.68651,1.47401 -0.40063,2.14164c0.22321,0.52126 1.14534,-0.19648 1.62759,-0.49476c4.05473,-2.508 6.19087,-8.88101 7.95093,-13.0747c1.46491,-4.96165 3.41303,-11.9364 7.25691,-15.54022c3.33671,-3.12831 8.52532,-4.39812 8.75917,1.65394c0.32561,3.2817 -0.0319,6.86846 -0.12286,10.15956c-0.0196,0.70911 -0.47387,1.22901 -0.07318,1.91794c0.15324,0.26348 0.55299,-0.26417 0.80037,-0.44223c0.59924,-0.43131 0.96189,-1.12144 1.47388,-1.65338c1.81216,-1.88278 3.95377,-3.99476 6.63219,-4.21856c5.33222,0.95898 -1.01638,8.87373 -0.30259,12.45714c0.07558,0.37941 0.62276,-0.50563 1.00084,-0.58763c0.50763,-0.1101 2.18729,-0.23862 2.55966,0.36439c0.26766,0.43345 0.11075,1.05753 -0.09028,1.52561c-0.54807,1.27612 -1.98393,3.40816 -2.86551,4.58827c-1.8243,4.00057 -5.75072,6.68978 -8.45649,10.01857c-2.88668,3.55136 -5.53401,7.35751 -9.21031,10.19874c-3.50154,3.94179 -6.60985,7.94645 -10.97985,10.97468c-0.91161,0.63172 -1.79697,1.80225 -2.85381,2.15989c-2.38477,0.80698 -5.91386,-0.87574 -6.31347,-3.29378c-2.12773,-7.3046 -1.72294,-14.71478 -1.87037,-22.31366c-0.11648,-2.56572 0.23336,-5.18308 0.71985,-7.78708c0.13389,-4.33134 0.49154,-8.67603 0.34704,-12.9972zM178.84233,127.49951c0.00899,-0.05405 0.01804,-0.10811 0.02708,-0.16215c0.02082,-0.46344 0.0678,-0.88289 0.21734,-1.26897c0.01575,-0.09013 0.03157,-0.18025 0.04744,-0.27035c-0.21799,0.42761 -0.28925,1.03751 -0.29187,1.70146z" fill="#000000" stroke="none" stroke-width="0.5" stroke-linecap="butt"/><path d="M313.36788,170.66829c-0.4513,2.61034 -1.03533,5.18557 -2.03848,7.54992c-2.78584,7.07135 -4.9883,14.15822 -9.52782,20.26375c-1.21708,2.12728 -5.11131,2.47494 -7.06548,0.88762c-0.86602,-0.70344 -1.28804,-2.10913 -1.92242,-3.01888c-3.04105,-4.36109 -4.55925,-9.19783 -6.46797,-14.11262c-2.45598,-3.94409 -3.61127,-8.43413 -5.07966,-12.76874c-1.37638,-4.06295 -4.11976,-7.95172 -4.43584,-12.33723c-0.41515,-1.41333 -1.01817,-3.91206 -1.08726,-5.29918c-0.02535,-0.50879 0.04501,-1.14843 0.44693,-1.46147c0.55913,-0.43548 2.08877,0.27022 2.52622,0.55029c0.32582,0.2086 0.53035,1.22883 0.73338,0.89952c1.91761,-3.11015 -1.27546,-12.74095 4.05675,-11.78197c2.43259,1.143 3.70415,3.86883 4.74675,6.26503c0.29458,0.67701 0.39402,1.45024 0.80544,2.06331c0.16985,0.2531 0.3607,0.88696 0.59614,0.69338c0.61561,-0.50614 0.37095,-1.15176 0.59966,-1.82326c1.06144,-3.11657 1.97604,-6.60312 3.42469,-9.56573c2.32788,-5.59134 6.74893,-2.59325 8.78658,1.50161c2.34735,4.71727 1.7432,11.93375 1.38755,17.0949c0.18856,4.54417 -0.02966,11.26208 2.89713,15.0257c0.34809,0.44762 0.96237,1.44169 1.35321,1.03086c0.50058,-0.52618 0.24193,-1.43227 0.37068,-2.14703c0.38354,-2.12914 1.07183,-4.22704 0.66217,-6.36129c-0.60544,-2.7662 -1.4107,-5.55876 -1.30576,-8.37877c0.05458,-1.46679 -0.1566,-3.55341 1.32023,-4.50972c2.59573,-1.68082 2.95127,2.948 5.36415,2.80703c0.08879,-0.17799 0.26405,-0.34921 0.60871,-0.37235c0.03668,-0.00247 0.0717,-0.00301 0.10509,-0.00182c0.13175,-0.11714 0.32723,-0.19718 0.61426,-0.14556c0.04352,0.00782 0.08403,0.01776 0.12169,0.02952l0.14884,-0.82758c0.07332,-0.40766 0.46323,-0.67872 0.8709,-0.6054c0.40767,0.07332 0.67872,0.46325 0.60541,0.87092l-0.05101,0.28365c0.19173,-0.03187 0.37099,-0.00849 0.52518,0.11364c1.26808,1.00447 -0.05933,4.22773 -0.49278,5.28428c-1.64105,4.00006 -2.81961,8.19711 -4.20327,12.30368zM317.27027,154.45163c-0.01651,0.08999 -0.03309,0.17997 -0.04972,0.26994c0.00566,0.41398 -0.09645,0.82352 -0.23842,1.26518c-0.01034,0.05381 -0.02072,0.10761 -0.03112,0.16142c0.22889,-0.62327 0.3746,-1.21977 0.31925,-1.69654z" data-paper-data="{&quot;index&quot;:null}" fill="#000000" stroke="none" stroke-width="0.5" stroke-linecap="butt"/><path d="M276.36234,98.54891c-1.90462,10.59018 -10.27553,12.98993 -22.7823,10.74062c-12.50675,-2.24931 -19.77979,-7.35931 -17.87517,-17.94948c1.90462,-10.59018 10.39794,-12.96792 22.9047,-10.71861c12.50675,2.24931 19.65739,7.3373 17.75277,17.92748z" fill="url(#color-17)" stroke="none" stroke-width="0" stroke-linecap="butt"/><path d="M239.59645,195.93668c0.75461,-1.60367 5.28089,-1.3436 7.30076,-1.17302l0.2406,-0.07068c0.03743,-0.01185 0.07821,-0.01503 0.11953,-0.0076c0.1359,0.02444 0.22624,0.15442 0.2018,0.2903c-0.01059,0.05886 -0.04097,0.10917 -0.08306,0.14532l-0.27962,0.24431c-1.03682,1.64381 -1.4387,3.13084 -1.63578,5.06256c-0.03768,3.18931 0.77659,4.61324 2.55968,6.74771l0.00857,-0.01372l0.28049,0.17526c0.08718,0.05169 0.13752,0.15374 0.11853,0.25935c-0.02444,0.1359 -0.15442,0.22625 -0.29031,0.2018l-0.2308,-0.04151c-0.48215,-0.00646 -0.96163,-0.05204 -1.44569,-0.07014c-2.28907,-0.41546 -5.69763,0.05769 -7.83867,-1.00469l-0.00699,0.03883l-0.24605,-0.04425c-0.1359,-0.02444 -0.22624,-0.15442 -0.2018,-0.2903c0.02106,-0.1171 0.12048,-0.20037 0.23452,-0.20553l0.2519,-0.01691l0.00018,0.00261l0.00576,-0.00295c2.17595,-0.01456 2.32918,-3.39036 2.09953,-4.96113c-0.03338,-1.71602 -1.13097,-6.03332 -3.3182,-6.31372c0,0 -0.24606,-0.04425 -0.20181,-0.2903c0.04425,-0.24605 0.29031,-0.2018 0.29031,-0.2018c0.82767,0.17522 1.51602,0.76045 2.06657,1.5402z" fill="#000000" stroke="none" stroke-width="0.5" stroke-linecap="butt"/><path d="M247.35513,202.20248c-0.07554,0.42003 -0.45725,0.70289 -0.85257,0.6318c-0.39532,-0.0711 -0.65454,-0.46923 -0.57901,-0.88926c0.07554,-0.42003 0.45725,-0.70289 0.85257,-0.6318c0.39532,0.0711 0.65454,0.46923 0.57901,0.88926z" fill="#000000" stroke="none" stroke-width="0" stroke-linecap="butt"/><path d="M230.09933,165.49014c0,0 8.30549,-5.26488 10.94261,-8.63799c2.01345,-2.57538 3.52012,-9.86116 3.52012,-9.86116c0,0 7.62044,0.52875 6.90158,0.62474c-0.8988,0.12002 -0.60852,6.54408 1.35932,12.41743c1.78261,5.32052 6.5946,10.06646 6.5946,10.06646c0,0 -8.69113,-5.92465 -13.48958,-6.67908c-4.96838,-0.78114 -15.82864,2.0696 -15.82864,2.0696z" fill="url(#color-18)" stroke="none" stroke-width="0" stroke-linecap="butt"/></g></g></svg>