<svg version="1.1" xmlns="http://www.w3.org/2000/svg" xmlns:xlink="http://www.w3.org/1999/xlink" width="163.06365" height="392.70945" viewBox="0,0,163.06365,392.70945"><defs><linearGradient x1="239.72615" y1="174.30005" x2="239.72615" y2="306.30003" gradientUnits="userSpaceOnUse" id="color-1"><stop offset="0" stop-color="#000000"/><stop offset="1" stop-color="#79c5d8"/></linearGradient><linearGradient x1="240.1942" y1="189.71086" x2="240.1942" y2="202.37753" gradientUnits="userSpaceOnUse" id="color-2"><stop offset="0" stop-color="#000000"/><stop offset="1" stop-color="#5e97a5"/></linearGradient><linearGradient x1="240.19875" y1="210.21899" x2="240.19875" y2="239.08437" gradientUnits="userSpaceOnUse" id="color-3"><stop offset="0" stop-color="#000000"/><stop offset="1" stop-color="#ffff00"/></linearGradient><linearGradient x1="245.92747" y1="63.53199" x2="242.9476" y2="125.67866" gradientUnits="userSpaceOnUse" id="color-4"><stop offset="0" stop-color="#000000"/><stop offset="1" stop-color="#f6f5f6"/></linearGradient><linearGradient x1="244.06623" y1="111.13536" x2="248.5383" y2="194.12135" gradientUnits="userSpaceOnUse" id="color-5"><stop offset="0" stop-color="#000000"/><stop offset="1" stop-color="#d75454"/></linearGradient><linearGradient x1="216.60652" y1="112.37169" x2="217.89949" y2="136.36487" gradientUnits="userSpaceOnUse" id="color-6"><stop offset="0" stop-color="#000000"/><stop offset="1" stop-color="#ec3434"/></linearGradient><linearGradient x1="271.20993" y1="108.17733" x2="272.50291" y2="132.1705" gradientUnits="userSpaceOnUse" id="color-7"><stop offset="0" stop-color="#000000"/><stop offset="1" stop-color="#ec3434"/></linearGradient><linearGradient x1="245.001" y1="169.45667" x2="245.00239" y2="181.47031" gradientUnits="userSpaceOnUse" id="color-8"><stop offset="0" stop-color="#000000"/><stop offset="1" stop-color="#ffffff"/></linearGradient></defs><g transform="translate(-154.95881,86.40943)"><g data-paper-data="{&quot;isPaintingLayer&quot;:true}" fill-rule="nonzero" stroke-linejoin="miter" stroke-miterlimit="10" stroke-dasharray="" stroke-dashoffset="0" style="mix-blend-mode: normal"><path d="M206.47616,306.30001l15.14285,-131.8421l37.78325,-0.15789l13.57389,132z" fill="url(#color-1)" stroke="none" stroke-width="2" stroke-linecap="butt"/><path d="M218.11292,201.37752c0,0 -0.86037,-1.64644 -1.18821,-3.42169c-0.34066,-1.84471 -0.14619,-3.82852 0.02426,-4.24864c0.80908,-1.99419 2.99728,-3.99633 2.99728,-3.99633l40.16666,0.5c0,0 2.58695,1.45609 3.27161,3.19102c0.40553,1.02761 0.22839,2.86943 0.22839,3.47565c0,0.73804 -0.05964,2.54278 -1.11019,3.48972c-1.03264,0.9308 -3.05648,2.01028 -3.05648,2.01028z" fill="url(#color-2)" stroke="none" stroke-width="2" stroke-linecap="butt"/><path d="M249.6893,238.887c-0.62016,0.45845 -9.37984,-4.83026 -9.37984,-4.83026c0,0 -8.55454,5.5227 -9.29851,4.99165c-0.70482,-0.50263 1.69445,-10.41655 1.69445,-10.41655c0,0 -7.79039,-6.76005 -7.61958,-7.30111c0.17273,-0.54769 10.4295,-1.60702 10.4295,-1.60702c0,0 3.98902,-9.49914 4.58738,-9.50471c0.64722,-0.00567 4.75443,9.42378 4.75443,9.42378c0,0 10.32385,1.038 10.45386,1.42773c0.18992,0.56532 -7.49126,7.43109 -7.49126,7.43109c0,0 2.20947,10.13468 1.86957,10.3854z" fill="url(#color-3)" stroke="none" stroke-width="0" stroke-linecap="butt"/><path d="M307.7366,123.03922c-0.04372,0.912 -7.47947,5.34111 -7.92621,5.98375c-4.76959,6.86134 -24.53035,-4.33371 -56.68875,-5.87568c-35.17046,-1.68639 -64.81213,2.0235 -64.3015,-8.62551c0.25988,-5.41974 -11.25813,-43.99505 -10.31723,-44.70299c0.04794,-0.03608 23.33562,25.31308 23.36788,25.28969c0.11355,-0.08239 25.31304,-32.7681 25.73317,-32.61688c0.77454,0.2788 17.118,26.97806 17.53866,26.36218c1.21206,-1.77458 31.715,-42.29956 32.11977,-41.72869c3.93939,5.55605 14.69966,43.95994 16.31282,43.52947c0.10347,-0.02762 -1.2094,5.41116 0.34763,4.66192c8.06246,-3.87967 34.09098,-21.4509 34.09943,-21.44583c0.05228,0.03135 -10.28564,49.16856 -10.28564,49.16856z" fill="url(#color-4)" stroke="none" stroke-width="2" stroke-linecap="butt"/><g fill="#000000" stroke="none" stroke-width="0" stroke-linecap="butt"><path d="M215.6736,137.47087c0,0 13.32235,-19.47658 12.02355,-41.24561c-0.35063,-5.87699 -0.0074,-24.53785 -3.43099,-41.97115c-3.43071,-17.46954 -32.57386,-77.78513 -32.57386,-77.78513l50.86152,-7.57584c0,0 10.52994,12.27944 18.66413,32.30473c3.05174,7.51299 5.76628,16.11625 7.46101,25.57037c2.57551,14.36754 6.03335,43.63207 7.33091,52.34336c2.86196,19.21422 -9.47476,50.78344 -9.47476,50.78344z"/><path d="M252.03499,-30.38179c0.98543,6.61588 1.00053,30.28771 -2.69894,35.7579c-5.01795,7.41981 -15.40384,-4.20762 -25.80081,-2.65899c-6.07129,0.90432 1.22021,20.44434 -4.02265,18.68209c-10.35464,-3.48041 -31.34457,-31.68894 -32.88613,-42.03838c-2.32209,-15.58968 10.43768,-30.40857 28.49975,-33.09892c18.06206,-2.69035 34.58669,7.76663 36.90877,23.3563z"/><path d="M155.96026,-45.51124c6.095,1.90712 18.58068,11.35398 23.85395,12.45027c8.11268,1.68659 23.97383,2.75498 23.97383,2.75498l-10.88843,21.2516c0,0 -15.14281,-7.07414 -21.54336,-12.75867c-2.92452,-2.59736 -8.31128,-5.58256 -11.70694,-10.50315c-4.1954,-6.07949 -5.96873,-13.90834 -3.68906,-13.19503z" data-paper-data="{&quot;index&quot;:null}"/><path d="M191.51693,-83.55471c3.35877,4.82741 6.39176,19.23986 9.68226,22.96433c5.06227,5.72992 16.50763,15.11249 16.50763,15.11249l-23.12537,11.50968c0,0 -6.72247,-13.90083 -7.69267,-21.97639c-0.4433,-3.68989 -2.50918,-9.01754 -1.70104,-14.85709c0.99848,-7.2149 5.07294,-14.55858 6.32922,-12.75301z" data-paper-data="{&quot;index&quot;:null}"/><path d="M251.98119,-85.74883c-1.24684,5.69508 -10.0008,18.59765 -10.4599,23.40137c-0.70631,7.3903 0.40729,21.34177 0.40729,21.34177l-25.36727,-4.67209c0,0 5.71185,-14.67044 11.1414,-21.47251c2.48086,-3.10799 5.03729,-8.43131 10.0494,-12.46498c6.19259,-4.98371 14.69544,-8.26365 14.2291,-6.13355z" data-paper-data="{&quot;index&quot;:null}"/><path d="M295.53686,-36.78368c-5.72311,3.00493 -22.33293,5.82581 -26.7961,8.75891c-6.8664,4.51243 -18.32505,14.67644 -18.32505,14.67644l-11.52297,-20.21077c0,0 16.279,-6.05954 25.53608,-6.99894c4.22971,-0.42922 10.43404,-2.30267 17.02505,-1.6545c8.14334,0.80083 16.22357,4.30497 14.08298,5.42888z" data-paper-data="{&quot;index&quot;:null}"/></g><path d="M180.95342,137.37764c-0.24644,-4.57296 -1.96249,-16.44764 2.06,-19.98926c2.58007,-2.27163 45.34892,-5.15278 58.8032,-6.10381c20.25813,-1.43196 63.09481,-0.8957 64.6332,0.61797c2.79912,2.75415 3.09915,14.98912 3.29023,18.53485c1.79202,33.2536 -25.58515,61.76459 -61.14858,63.68109c-35.56344,1.9165 -65.84603,-23.48725 -67.63806,-56.74084z" fill="url(#color-5)" stroke="none" stroke-width="2" stroke-linecap="butt"/><path d="M308.15128,112.03023c0.2388,4.43141 -33.00871,6.96471 -64.62716,8.66861c-31.61844,1.7039 -61.65561,1.86568 -61.89441,-2.56574c-0.2388,-4.43141 30.40357,-5.75138 62.02202,-7.45528c31.61844,-1.7039 64.26076,-3.07901 64.49957,1.3524z" fill="#000000" stroke="none" stroke-width="2" stroke-linecap="butt"/><path d="M187.86033,126.59374c-0.18274,-0.25187 -0.36906,-0.50432 -0.55862,-0.75794c-0.52533,-0.70286 -1.13441,-1.47614 -1.59755,-2.29095c0.03708,0.76832 0.2741,1.51445 0.81685,2.21323c0.39747,0.26166 0.85514,0.54128 1.33933,0.83565zM185.63112,119.80038c0.44776,-1.13852 -4.47478,-1.22659 -4.12213,-2.35208c0.86644,-2.76528 8.32455,-7.50465 8.60436,-7.32001c0.21812,0.14393 4.49904,-1.02778 4.85143,-1.1643c6.72107,-0.4025 13.35331,-0.05843 20.08653,-0.42128c6.87204,-0.37033 13.54291,-0.41051 20.41722,-0.09559c2.40301,0.07041 4.80761,0.10095 7.21314,0.11797c2.08942,-2.98678 3.72844,-6.81161 7.75348,-6.34228c0.02398,0.1015 0.67954,2.09659 1.20879,1.36516c0.80015,-1.10581 0.90405,-2.82563 1.32908,-4.08338c0.95995,-2.84071 2.12248,-6.10534 4.12546,-8.36351c3.5647,-3.91048 4.34792,4.1849 4.2425,6.35985c-0.06298,1.29939 -0.78578,2.75863 -1.307,3.94387c-0.19338,0.43973 -0.89741,1.07669 -0.50277,1.35057c0.23119,0.16044 1.41016,-0.03357 1.59435,-0.0435c2.88349,0.22109 0.58215,3.89692 -0.31688,5.05724c-0.1939,0.25026 -0.38967,0.49291 -0.58749,0.72817c5.43031,-0.10892 10.86548,-0.01009 16.28656,-0.30195c6.99196,-0.37644 14.0081,-0.09205 20.98289,-0.46143c2.09098,-0.10985 6.68366,-0.40628 8.1717,1.49134c0.31071,0.39624 0.50705,2.0217 0.61591,2.50706c0.67538,3.01138 1.59353,6.53165 1.76585,9.61827c0.37954,7.04289 0.29203,13.76654 -1.58475,20.60295c-0.54081,2.09534 -2.17306,11.06259 -6.09895,7.53819c-1.97452,-1.77258 0.72405,-7.50039 1.38897,-9.49126c1.15743,-3.45814 1.02594,-6.75137 0.70998,-10.35148c-0.08794,-1.00211 -0.06758,-3.37462 -0.62673,-4.19571c-0.2307,-0.33876 -0.47319,0.66932 -0.70923,1.00438c-0.60723,0.862 -1.20782,1.3758 -1.62879,2.35967c-0.58927,1.35127 -2.99072,6.41301 -5.09705,3.90978c-0.40418,-0.48033 -0.23638,-2.63248 -0.27141,-3.28251c-0.19215,-3.5655 -0.38298,-7.13109 -0.57726,-10.69649c-0.16252,-2.55433 -2.33466,-3.01474 -4.53229,-3.23729c-4.48363,-0.45407 -8.95835,-1.08376 -13.39269,-1.94181c-6.76881,-1.30597 -13.73055,-2.3088 -19.02426,3.05064c-3.01981,3.05731 -6.47227,7.04247 -7.33401,11.39015c-0.43051,2.17198 -0.04049,4.67386 0.09649,6.86216c0.43072,6.88139 2.43006,13.36629 3.41304,20.14554c0.17723,3.24385 0.82451,7.71707 -1.29184,10.46169c-1.49511,1.93895 -4.79542,1.58642 -5.91179,-0.60639c-0.64992,-1.27661 -0.3918,-2.95108 -0.06287,-4.26501c0.62731,-3.22581 1.57421,-5.92271 1.39453,-9.25696c-0.05381,-0.99844 -0.11471,-1.99686 -0.16143,-2.99565c-0.01832,-0.39168 0.24347,-1.50056 0.02332,-1.17608c-1.72397,2.54085 -2.93462,-0.15075 -3.72677,-1.91145c-0.77521,-1.36558 -1.84515,-3.00842 -2.35627,-4.45242c-0.83297,-2.35321 0.08637,-5.19918 0.24163,-7.55145c0.15735,-2.38379 -0.7198,-4.70714 -1.24646,-6.99394c-0.21135,-0.91973 -0.42787,-1.92059 -0.80613,-2.78985c-0.90534,-2.08059 -2.5255,-2.25299 -4.43444,-1.08352c-3.17331,1.94406 -3.08859,6.259 -7.61802,6.50247c-3.52025,0.02994 -2.79427,-4.39256 -3.24513,-6.85092c-0.91513,-4.98984 -3.83739,-6.60073 -8.61991,-5.24437c-7.03522,1.92334 -9.09968,9.6328 -9.64762,15.83925c-0.58059,6.47953 0.50066,13.75014 1.43448,20.16755c0.99437,6.83364 1.67925,13.57075 1.92739,20.47659c0.03953,1.21429 -0.02779,3.25342 -0.89793,4.23271c-0.79951,0.89981 -5.37765,1.02037 -6.32623,0.32919c-0.85293,-0.62147 -0.64516,-2.42486 -0.69309,-3.31432c-0.13627,-2.52875 -0.26735,-5.05784 -0.41186,-7.58614c-0.13902,-2.43222 0.14943,-7.52465 -1.55733,-9.45457c-1.19225,-1.34814 -3.15871,1.52023 -4.24292,1.83959c-1.77524,0.5229 -2.5716,-2.02642 -3.11746,-3.22899c-0.13423,-2.1594 -0.68424,-4.89555 -0.1441,-7.02054c0.38156,-1.50113 1.29305,-3.06938 1.52203,-4.59886c0.37005,-2.47174 -0.16611,-6.03433 -0.57809,-8.50436c-0.46997,-2.83122 -1.54915,-5.16627 -2.98825,-7.42358c-1.1817,-0.77454 -2.49204,-1.49712 -3.40009,-2.11387c-1.17112,-1.60551 -1.21349,-3.2073 -0.8232,-4.80029c-0.07378,-0.51919 -0.0326,-1.04571 0.17399,-1.57321c0,0 0.13776,-0.31712 0.44786,-0.3094zM191.3602,130.30084c0.26903,0.53052 0.51676,1.07107 0.74062,1.62586c-0.09893,-0.55055 -0.27729,-1.06208 -0.6053,-1.46704c-0.04293,-0.05299 -0.08808,-0.10593 -0.13532,-0.15882zM246.60737,104.81015c-0.25172,0.27162 -0.49105,0.55991 -0.72188,0.85966c0.17645,-0.20601 0.36223,-0.40501 0.56859,-0.58739z" fill="#000000" stroke="none" stroke-width="0.5" stroke-linecap="butt"/><path d="M194.50665,137.07732c-0.69782,-12.94921 9.2339,-24.01233 22.1831,-24.71015c12.94921,-0.69782 24.01233,9.2339 24.71015,22.1831c0.69782,12.94921 -9.2339,24.01233 -22.1831,24.71015c-12.94921,0.69782 -24.01233,-9.2339 -24.71015,-22.1831z" fill="#ff0000" stroke="none" stroke-width="2" stroke-linecap="butt"/><path d="M273.64624,156.32726c-12.94921,0.69782 -24.01233,-9.2339 -24.71015,-22.1831c-0.69782,-12.94921 9.2339,-24.01233 22.1831,-24.71015c12.94921,-0.69782 24.01233,9.2339 24.71015,22.1831c0.69782,12.94921 -9.2339,24.01233 -22.1831,24.71015z" data-paper-data="{&quot;index&quot;:null}" fill="#ff0000" stroke="none" stroke-width="2" stroke-linecap="butt"/><path d="M194.99471,140.05243c1.25264,-0.02289 45.91981,-1.87755 46.17902,-1.86742c-0.32591,3.50839 -0.80766,6.35291 -2.54161,9.36802c-3.8899,6.76405 -11.17913,10.8566 -19.19758,11.2887c-11.86024,0.63914 -22.48493,-7.18991 -24.43984,-18.7893z" data-paper-data="{&quot;index&quot;:null}" fill="#ff5d5d" stroke="none" stroke-width="2" stroke-linecap="butt"/><path d="M201.54695,136.42191c-0.4912,-9.11485 6.49966,-16.90208 15.6145,-17.39328c9.11485,-0.4912 16.90208,6.49967 17.39328,15.61451c0.4912,9.11485 -6.49967,16.90208 -15.61451,17.39328c-9.11485,0.4912 -16.90207,-6.49967 -17.39327,-15.61451z" fill="#000000" stroke="none" stroke-width="0" stroke-linecap="butt"/><path d="M295.56138,134.63294c-0.69705,11.74229 -10.41884,20.6678 -22.27908,21.30695c-8.01844,0.43211 -15.70527,-2.85338 -20.29956,-9.16023c-2.04794,-2.81131 -2.83258,-5.58758 -3.53364,-9.04063c0.25662,-0.03793 44.86441,-2.99425 46.11227,-3.1061z" data-paper-data="{&quot;index&quot;:null}" fill="#ff5d5d" stroke="none" stroke-width="2" stroke-linecap="butt"/><path d="M272.89525,149.12882c-9.11484,0.4912 -16.90207,-6.49967 -17.39327,-15.61451c-0.4912,-9.11485 6.49967,-16.90208 15.6145,-17.39328c9.11484,-0.4912 16.90207,6.49967 17.39327,15.61451c0.4912,9.11485 -6.49967,16.90208 -15.6145,17.39328z" data-paper-data="{&quot;index&quot;:null}" fill="#000000" stroke="none" stroke-width="0" stroke-linecap="butt"/><g fill="none" stroke="#ff0000" stroke-width="1" stroke-linecap="butt"><path d="M224.24551,143.84806c-0.36644,0.3027 -5.93254,-2.66148 -5.93254,-2.66148c0,0 -5.08131,3.68237 -5.55676,3.38023c-0.45042,-0.28595 0.69732,-6.46654 0.69732,-6.46654c0,0 -5.01839,-3.90178 -4.93122,-4.24041c0.08813,-0.34278 6.36502,-1.33484 6.36502,-1.33484c0,0 2.13982,-5.97806 2.50786,-6.00133c0.39811,-0.02495 3.2384,5.64172 3.2384,5.64172c0,0 6.38773,0.29641 6.48065,0.53194c0.13563,0.3416 -4.36368,4.82154 -4.36368,4.82154c0,0 1.69581,6.16361 1.49495,6.32917z"/><path d="M221.34961,140.44559c-0.19675,0.16252 -3.18522,-1.42896 -3.18522,-1.42896c0,0 -2.72818,1.97708 -2.98345,1.81487c-0.24183,-0.15353 0.37439,-3.47192 0.37439,-3.47192c0,0 -2.6944,-2.09488 -2.6476,-2.27669c0.04731,-0.18404 3.41742,-0.71668 3.41742,-0.71668c0,0 1.14888,-3.20965 1.34648,-3.22215c0.21375,-0.0134 1.73872,3.02907 1.73872,3.02907c0,0 3.4296,0.15914 3.4795,0.2856c0.07282,0.18341 -2.34288,2.5887 -2.34288,2.5887c0,0 0.91049,3.30927 0.80264,3.39817z"/></g><g data-paper-data="{&quot;index&quot;:null}" fill="none" stroke="#ff0000" stroke-width="1" stroke-linecap="butt"><path d="M267.75402,134.39267c0,0 -4.95469,-3.97045 -4.85656,-4.32466c0.06709,-0.24415 6.38596,-1.22531 6.38596,-1.22531c0,0 2.21487,-5.9391 2.61335,-5.95707c0.36842,-0.01641 3.13829,5.69707 3.13829,5.69707c0,0 6.34715,0.31177 6.47161,0.64309c0.12306,0.3273 -4.44695,4.74581 -4.44695,4.74581c0,0 1.80529,6.02146 1.38822,6.35415c-0.44023,0.35147 -5.88784,-2.76349 -5.88784,-2.76349c0,0 -5.21532,3.54518 -5.61217,3.28362c-0.21749,-0.14302 0.80611,-6.45318 0.80611,-6.45318z"/><path d="M269.89421,133.6871c0,0 -2.66021,-2.13176 -2.60751,-2.32193c0.03602,-0.13109 3.42865,-0.65788 3.42865,-0.65788c0,0 1.18918,-3.18874 1.40313,-3.19838c0.1978,-0.0088 1.68497,3.05879 1.68497,3.05879c0,0 3.40781,0.16738 3.47464,0.34528c0.06607,0.17573 -2.3876,2.54804 -2.3876,2.54804c0,0 0.96928,3.23295 0.74534,3.41157c-0.23636,0.18872 -3.16122,-1.48374 -3.16122,-1.48374c0,0 -2.80013,1.90342 -3.01319,1.76299c-0.11677,-0.07678 0.43281,-3.46475 0.43281,-3.46475z"/></g><path d="M194.36096,131.97946l-2.36126,-1.40831" fill="none" stroke="#000000" stroke-width="1" stroke-linecap="round"/><path d="M296.66554,121.87637l-2.19623,1.65391" data-paper-data="{&quot;index&quot;:null}" fill="none" stroke="#000000" stroke-width="1" stroke-linecap="round"/><path d="M194.42342,137.08181c-0.69782,-12.94921 9.2339,-24.01233 22.1831,-24.71015c12.94921,-0.69782 24.01233,9.2339 24.71015,22.1831c0,0 -21.27068,-0.63575 -31.61761,0.08425c-12.81412,0.89167 -15.239,3.12318 -15.27565,2.4428z" fill="url(#color-6)" stroke="none" stroke-width="0" stroke-linecap="butt"/><path d="M295.92009,130.36039c0.03667,0.68039 -4.46548,-3.11392 -17.30121,-2.62333c-10.36439,0.39613 -29.59206,5.15037 -29.59206,5.15037c-0.69782,-12.94921 9.2339,-24.01233 22.1831,-24.71015c12.94921,-0.69782 24.01233,9.2339 24.71015,22.1831z" data-paper-data="{&quot;index&quot;:null}" fill="url(#color-7)" stroke="none" stroke-width="0" stroke-linecap="butt"/><path d="M307.43859,134.65206c0.02724,0.50552 -0.32323,0.93542 -0.78279,0.96018c-0.45957,0.02477 -0.85421,-0.36497 -0.88145,-0.8705c-0.02724,-0.50552 0.32323,-0.93542 0.78279,-0.96018c0.45957,-0.02477 0.85421,0.36497 0.88145,0.8705z" fill="#000000" stroke="none" stroke-width="0" stroke-linecap="butt"/><path d="M250.14895,98.83688c0.01486,0.27574 -0.47604,0.52638 -1.09646,0.55981c-0.62042,0.03344 -1.13541,-0.163 -1.15028,-0.43874c-0.01486,-0.27574 0.47604,-0.52638 1.09646,-0.55981c0.62042,-0.03344 1.13541,0.163 1.15028,0.43874z" fill="#000000" stroke="none" stroke-width="0" stroke-linecap="butt"/><g><g fill="url(#color-8)" stroke="none" stroke-width="0" stroke-linecap="butt"><path d="M265.69863,169.50081c0.00012,0.98664 0.77714,3.41523 -2.31983,5.82556c-0.73054,0.56857 -8.65655,5.66848 -15.017,6.24934c-8.04519,0.73473 -14.84854,-3.13385 -15.41142,-3.44173c-5.46051,-2.98684 -8.64683,-7.02203 -8.64702,-8.61548c-0.00003,-0.41652 10.13526,1.7546 20.47706,1.75017c10.67293,-0.00457 20.91816,-2.05776 20.91818,-1.76786z"/></g><path d="M230.52257,176.52205l4.79784,-1.64562l4.06805,1.75236l4.20561,-1.83036l4.28264,2.21206l4.94503,-2.74782l4.384,2.3041l4.01875,-1.64693l1.76875,0.37044" fill="none" stroke="#000000" stroke-width="0.5" stroke-linecap="round"/></g><path d="M209.17502,157.51271l-0.87556,2.33622" fill="none" stroke="#000000" stroke-width="0.5" stroke-linecap="round"/><path d="M215.01514,162.34831l-0.32715,-3.41591" fill="none" stroke="#000000" stroke-width="0.5" stroke-linecap="round"/><path d="M285.12578,152.56136l0.87297,4.58466" fill="none" stroke="#000000" stroke-width="0.5" stroke-linecap="round"/><path d="M292.33836,151.67195l-2.31026,-3.38058" fill="none" stroke="#000000" stroke-width="0.5" stroke-linecap="round"/></g></g></svg>