<svg version="1.1" xmlns="http://www.w3.org/2000/svg" xmlns:xlink="http://www.w3.org/1999/xlink" width="34.17311" height="34.17311" viewBox="0,0,34.17311,34.17311"><g transform="translate(-222.91346,-162.9135)"><g data-paper-data="{&quot;isPaintingLayer&quot;:true}" stroke-miterlimit="10" stroke-dasharray="" stroke-dashoffset="0" style="mix-blend-mode: normal"><path d="M229.98313,162.9135h20.03379c3.9166,0 7.06966,3.15307 7.06966,7.06966v20.03379c0,3.91659 -3.15306,7.06966 -7.06966,7.06966h-20.03379c-3.91659,0 -7.06966,-3.15307 -7.06966,-7.06966v-20.03379c0,-3.91659 3.15307,-7.06966 7.06966,-7.06966z" fill="#772c6d" fill-rule="evenodd" stroke="none" stroke-width="4.43922" stroke-linecap="round" stroke-linejoin="round"/><g fill-rule="nonzero" stroke="#000000" stroke-width="0.5" stroke-linejoin="miter"><g><g><path d="M252.07666,185.19177c1.12697,3.53443 -0.4368,8.95575 -0.80857,9.07429c-0.30837,0.09832 -4.73692,-3.24595 -5.91204,-6.93139c-1.40928,-4.41985 -1.04727,-8.48252 0.80857,-9.07427c1.85584,-0.59175 4.50276,2.51153 5.91204,6.93138z" fill="#44b1ea" stroke-linecap="butt"/><path d="M247.69605,183.42242l1.70223,4.62047" fill="none" stroke-linecap="round"/></g><g><path d="M248.03303,187.97914c-0.45812,3.68134 -4.15006,7.94813 -4.5373,7.89995c-0.32119,-0.03997 -2.94038,-4.93241 -2.46269,-8.77106c0.57289,-4.60357 2.6043,-8.14051 4.5373,-7.89996c1.93299,0.24055 3.03557,4.1675 2.46268,8.77106z" fill="#44b1ea" stroke-linecap="butt"/><path d="M244.79728,184.5367l-0.39099,4.90851" fill="none" stroke-linecap="round"/></g><path d="M252.38901,179.80032c0,3.00174 -2.4334,5.43514 -5.43515,5.43514c-3.00174,0 -5.43514,-2.4334 -5.43514,-5.43514c0,-3.00174 2.43339,-5.43514 5.43514,-5.43514c3.00174,0 5.43515,2.4334 5.43515,5.43514z" fill="#44b1ea" stroke-linecap="butt"/></g><path d="M227.20955,168.72928l26.05628,1.09574c0,0 2.09199,1.61341 -0.9694,6.63201c-3.69153,6.05161 -12.66522,15.70237 -12.80831,15.69482c-0.05813,-0.00306 -11.34703,-14.93952 -11.82081,-17.14637c-0.85534,-3.98413 -0.45776,-6.27621 -0.45776,-6.27621z" fill="#44b1ea" stroke-linecap="butt"/></g></g></g></svg>