<svg version="1.1" xmlns="http://www.w3.org/2000/svg" xmlns:xlink="http://www.w3.org/1999/xlink" width="130.65994" height="245.67905" viewBox="0,0,130.65994,245.67905"><g transform="translate(-174.89727,-62.82097)"><g data-paper-data="{&quot;isPaintingLayer&quot;:true}" fill-rule="nonzero" stroke-linejoin="miter" stroke-miterlimit="10" stroke-dasharray="" stroke-dashoffset="0" style="mix-blend-mode: normal"><g><path d="M176.50446,145.78027l126.45246,-0.24948c0,0 -7.55287,27.3874 -19.61897,48.08118c-15.70099,26.92775 -92.89533,63.57642 -96.40123,67.5571c-0.50239,0.57043 28.63235,-37.77478 11.64333,-64.07617c-15.7723,-24.41773 -22.07559,-51.31262 -22.07559,-51.31262z" fill="#2b2861" stroke="#000000" stroke-width="2" stroke-linecap="butt"/><path d="M205.47389,255.9341c0,7.78679 -6.26801,14.09923 -14,14.09923c-7.73199,0 -14,-6.31244 -14,-14.09923c0,-7.7868 6.26801,-14.09924 14,-14.09924c7.73199,0 14,6.31244 14,14.09924z" fill="#56539b" stroke="#000000" stroke-width="2" stroke-linecap="butt"/><path d="M206.75021,307.50001l15.14285,-131.8421l37.78325,-0.15789l13.57389,132z" fill="#56539b" stroke="#000000" stroke-width="2" stroke-linecap="butt"/><path d="M208.90008,289.80001l0.92996,-9h60.54845l0.92159,9.6z" fill="#221f4d" stroke="none" stroke-width="0" stroke-linecap="butt"/><path d="M246.74726,251.96085c-0.47099,0 -0.3432,-4.24874 -1.53935,-8.05083c-0.13832,-0.43965 -8.26688,-23.64441 -7.17494,-23.64441c0.10016,0 7.43967,11.4632 9.4613,16.85749c0.8076,2.15491 1.18088,1.66041 1.32431,5.07868c0.19146,4.56301 -1.6527,9.75907 -2.07132,9.75907z" fill="#393672" stroke="none" stroke-width="0" stroke-linecap="butt"/><path d="M206.75021,307.50001l15.14285,-131.8421l37.78325,-0.15789l13.57389,132z" fill="none" stroke="#000000" stroke-width="2" stroke-linecap="butt"/><path d="M219.98589,203.32859l0.71429,-8.02857c0,0 13.54914,2.71429 20.14285,2.71429c6.73656,0 19.85715,-2.71429 19.85715,-2.71429l0.85714,8.02857c0,0 -11.25867,2.85714 -17.57143,2.85714c-7.3777,0 -24,-2.85714 -24,-2.85714z" fill="#393672" stroke="none" stroke-width="0" stroke-linecap="butt"/><path d="M240.11034,197.96063c0,0 -8.65444,7.26832 -7.4062,12.79928c0.10706,0.47437 0.40818,1.14219 0.85785,1.955c1.26736,2.29081 5.41924,10.18832 9.34906,15.45092c1.10159,1.47519 3.84165,5.82592 5.06212,10.13034c0.93931,3.31279 0.24392,10.72126 -1.7072,15.4424c-5.65261,13.67772 -16.73912,22.77993 -17.04663,23.58752" fill="none" stroke="#000000" stroke-width="2" stroke-linecap="round"/></g><path d="M304.5572,127.34977c0,28.82347 -51.5949,29.90024 -77,29.90024c-25.4051,0 -50,-2.70769 -50,-31.53116c0,-19.3737 6.05849,-37.46509 24.16957,-50.42c4.59758,-3.28866 23.12804,-12.46486 41.70735,-11.39103c17.11954,0.98945 34.28055,11.8379 40.62121,17.86553c14.04883,13.35526 20.50188,30.72772 20.50188,45.57642z" fill="#221f4d" stroke="#000000" stroke-width="2" stroke-linecap="butt"/><path d="M175.89727,138.09617c0,-33.30185 28.7599,-60.29833 64.23702,-60.29833c35.47712,0 64.23702,26.99649 64.23702,60.29833c0,33.30185 -28.7599,60.29833 -64.23702,60.29833c-35.47712,0 -64.23702,-26.99649 -64.23702,-60.29833z" fill="#9af1fa" stroke="#000000" stroke-width="2" stroke-linecap="butt"/><path d="M176.62033,138.15001c0,-0.72799 5.20666,55.91939 63.36046,56.93429c55.56352,0.9697 63.51358,-57.95314 63.51358,-56.93429c0,32.80479 -28.40173,59.39833 -63.43702,59.39833c-35.03529,0 -63.43702,-26.59354 -63.43702,-59.39833z" fill="#5a8c91" stroke="#000000" stroke-width="0" stroke-linecap="butt"/><path d="M189.44748,138.52564c0,-12.968 10.51265,-23.48065 23.48065,-23.48065c12.968,0 23.48065,10.51265 23.48065,23.48065c0,12.968 -10.51265,23.48065 -23.48065,23.48065c-12.968,0 -23.48065,-10.51265 -23.48065,-23.48065z" fill="#ffffff" stroke="#000000" stroke-width="2" stroke-linecap="butt"/><path d="M196.51287,138.25c0,-9.12808 7.39976,-16.52784 16.52783,-16.52784c9.12808,0 16.52784,7.39977 16.52784,16.52784c0,9.12808 -7.39977,16.52784 -16.52784,16.52784c-9.12808,0 -16.52783,-7.39977 -16.52783,-16.52784z" fill="#000000" stroke="none" stroke-width="0" stroke-linecap="butt"/><path d="M213.82669,106.74187c-4.01484,0.41555 -11.58985,3.10522 -11.58985,3.10522c0,0 6.22594,-4.16248 11.42473,-4.70058c5.19878,-0.53809 13.23074,2.14861 13.23074,2.14861c0,0 -8.86995,-0.98752 -13.06562,-0.55325z" data-paper-data="{&quot;index&quot;:null}" fill="#000000" stroke="none" stroke-width="0" stroke-linecap="butt"/><path d="M189.19254,138.49182c0,-12.96801 10.51265,-23.48065 23.48066,-23.48065c12.96801,0 23.48065,10.51264 23.48065,23.48065c0,0 -46.9613,0.61661 -46.9613,0z" fill="#9af1fa" stroke="#000000" stroke-width="2" stroke-linecap="butt"/><path d="M303.48583,136.79089c0,22.91982 -15.45108,51.16667 -35.33333,51.16667c-19.88225,0 -29.66667,-28.91352 -29.66667,-51.83333c0,-22.91982 8.78442,-48.5 28.66667,-48.5c19.88225,0 36.33333,26.24685 36.33333,49.16667z" fill="#000000" stroke="#000000" stroke-width="2" stroke-linecap="butt"/><g fill="none" stroke="#ffffff" stroke-width="5" stroke-linecap="round"><path d="M271.62238,106.04129v65.25"/><path d="M251.16764,136.52425l41.41611,0.29326"/></g><path d="M298.51467,111.41536c-3.02723,1.03236 -13.10356,-10.82988 -26.01513,-18.2358c-10.92123,-6.26429 -24.6555,-10.07203 -34.44236,-10.07203c-6.12468,0 -15.46663,1.15829 -21.57816,3.70909c-19.65232,8.2024 -33.92184,25.79971 -33.92184,23.88132c0,-1.53136 5.75431,-16.14317 20.19071,-26.29072c9.27267,-6.5179 25.2113,-10.40721 35.30929,-10.40721c6.93821,0 23.90442,1.11122 37.3906,10.12456c13.05021,8.72195 23.24635,27.2296 23.06689,27.2908z" fill="#56539b" stroke="#000000" stroke-width="2" stroke-linecap="butt"/><path d="M247.31954,181c0,5.5124 -3.27702,9.98106 -7.31944,9.98106c-4.04241,0 -7.31944,-4.46868 -7.31944,-9.98106c0,-5.5124 3.27702,-9.98106 7.31944,-9.98106c4.04241,0 7.31944,4.46868 7.31944,9.98106z" fill="#000000" stroke="none" stroke-width="0" stroke-linecap="butt"/></g></g></svg>