<svg version="1.1" xmlns="http://www.w3.org/2000/svg" xmlns:xlink="http://www.w3.org/1999/xlink" width="261.26122" height="434.42737" viewBox="0,0,261.26122,434.42737"><defs><linearGradient x1="192.09995" y1="113.87743" x2="211.66541" y2="138.7329" gradientUnits="userSpaceOnUse" id="color-1"><stop offset="0" stop-color="#000000"/><stop offset="1" stop-color="#7ebb78"/></linearGradient><linearGradient x1="197.39639" y1="128.35709" x2="218.4397" y2="146.27695" gradientUnits="userSpaceOnUse" id="color-2"><stop offset="0" stop-color="#000000"/><stop offset="1" stop-color="#7ebb78"/></linearGradient><linearGradient x1="202.86497" y1="134.13807" x2="227.71448" y2="145.38351" gradientUnits="userSpaceOnUse" id="color-3"><stop offset="0" stop-color="#000000"/><stop offset="1" stop-color="#7ebb78"/></linearGradient><linearGradient x1="264.22604" y1="70.35835" x2="278.57093" y2="208.48102" gradientUnits="userSpaceOnUse" id="color-4"><stop offset="0" stop-color="#000000"/><stop offset="1" stop-color="#f5d7d7"/></linearGradient><linearGradient x1="263.86935" y1="70.09082" x2="278.21424" y2="208.2135" gradientUnits="userSpaceOnUse" id="color-5"><stop offset="0" stop-color="#000000"/><stop offset="1" stop-color="#c88989"/></linearGradient><linearGradient x1="243.1496" y1="94.50785" x2="243.1496" y2="316.59794" gradientUnits="userSpaceOnUse" id="color-6"><stop offset="0" stop-color="#000000"/><stop offset="1" stop-color="#d93838"/></linearGradient><linearGradient x1="235.83005" y1="95.66409" x2="235.83005" y2="142.90102" gradientUnits="userSpaceOnUse" id="color-7"><stop offset="0" stop-color="#000000"/><stop offset="1" stop-color="#f5d7d7"/></linearGradient><linearGradient x1="248.60249" y1="95.66411" x2="248.60249" y2="142.49396" gradientUnits="userSpaceOnUse" id="color-8"><stop offset="0" stop-color="#000000"/><stop offset="1" stop-color="#f5b4b4"/></linearGradient><linearGradient x1="218.69271" y1="95.66411" x2="218.69271" y2="141.11135" gradientUnits="userSpaceOnUse" id="color-9"><stop offset="0" stop-color="#000000"/><stop offset="1" stop-color="#f5b4b4"/></linearGradient><linearGradient x1="239.79206" y1="-63.0395" x2="222.69041" y2="6.69141" gradientUnits="userSpaceOnUse" id="color-10"><stop offset="0" stop-color="#000000"/><stop offset="1" stop-color="#7ebb78"/></linearGradient><linearGradient x1="225.5219" y1="-60.68553" x2="246.05387" y2="8.11348" gradientUnits="userSpaceOnUse" id="color-11"><stop offset="0" stop-color="#000000"/><stop offset="1" stop-color="#7ebb78"/></linearGradient><linearGradient x1="236.11671" y1="-3.9653" x2="239.27462" y2="123.56317" gradientUnits="userSpaceOnUse" id="color-12"><stop offset="0" stop-color="#000000"/><stop offset="1" stop-color="#fa4242"/></linearGradient><linearGradient x1="260.28751" y1="-32.87814" x2="316.90937" y2="140.38138" gradientUnits="userSpaceOnUse" id="color-13"><stop offset="0" stop-color="#000000"/><stop offset="1" stop-color="#7ebb78"/></linearGradient><linearGradient x1="253.4188" y1="9.40744" x2="253.64328" y2="148.04951" gradientUnits="userSpaceOnUse" id="color-14"><stop offset="0" stop-color="#000000"/><stop offset="1" stop-color="#7ebb78"/></linearGradient><linearGradient x1="196.39857" y1="-13.9457" x2="167.45064" y2="73.11752" gradientUnits="userSpaceOnUse" id="color-15"><stop offset="0" stop-color="#000000"/><stop offset="1" stop-color="#7ebb78"/></linearGradient><linearGradient x1="185.36187" y1="-0.34945" x2="182.37916" y2="114.41639" gradientUnits="userSpaceOnUse" id="color-16"><stop offset="0" stop-color="#000000"/><stop offset="1" stop-color="#7ebb78"/></linearGradient><linearGradient x1="235.36509" y1="66.42709" x2="235.69516" y2="79.75634" gradientUnits="userSpaceOnUse" id="color-17"><stop offset="0" stop-color="#5c1818" stop-opacity="0"/><stop offset="1" stop-color="#5c1818"/></linearGradient><radialGradient cx="210.50209" cy="59.96086" r="4.27895" gradientUnits="userSpaceOnUse" id="color-18"><stop offset="0" stop-color="#ff0000"/><stop offset="1" stop-color="#ff0000" stop-opacity="0"/></radialGradient></defs><g transform="translate(-117.51619,117.75736)"><g data-paper-data="{&quot;isPaintingLayer&quot;:true}" fill-rule="nonzero" stroke-linejoin="miter" stroke-miterlimit="10" stroke-dasharray="" stroke-dashoffset="0" style="mix-blend-mode: normal"><g stroke="none" stroke-width="0" stroke-linecap="butt"><path d="M211.66541,138.7329c-7.45135,7.58785 -28.87785,9.81171 -29.96856,8.4261c-0.64262,-0.81637 2.17745,-24.90523 10.4031,-33.28157c9.3361,-9.50712 21.28438,-11.65007 26.68723,-4.78643c5.40285,6.86365 2.21433,20.13478 -7.12177,29.6419z" fill="url(#color-1)"/><path d="M218.4397,146.27695c-5.3388,9.19354 -23.76466,17.22462 -24.93776,16.22564c-0.69116,-0.58857 -1.99912,-23.99661 3.89445,-34.14549c6.6892,-11.51896 16.82257,-16.84542 22.63352,-11.89699c5.81095,4.94843 5.09898,18.29788 -1.59021,29.81684z" fill="url(#color-2)"/><path d="M227.71448,145.38351c-3.37314,10.10888 -20.07086,22.64094 -21.45614,22.01405c-0.81617,-0.36936 -7.11703,-22.10018 -3.39337,-33.2595c4.22635,-12.66581 13.21523,-20.4161 20.07723,-17.31075c6.862,3.10535 8.99863,15.89039 4.77228,28.55621z" fill="url(#color-3)"/></g><g stroke="none" stroke-linecap="butt"><g data-paper-data="{&quot;index&quot;:null}" stroke-width="0"><path d="M295.80447,115.31117c1.10895,10.67772 11.30464,68.70208 26.61125,108.16651c14.50819,37.40586 54.48862,75.62699 53.8389,75.70124c-24.67511,2.81966 -145.57315,-116.51227 -149.53438,-154.65379c-3.96123,-38.14152 12.83068,-71.34712 37.50579,-74.16678c24.67511,-2.81966 27.6172,6.8113 31.57843,44.95282z" fill="url(#color-4)"/><g fill="url(#color-5)"><path d="M322.05904,223.21017c0.4109,1.05942 0.84224,2.11949 1.29251,3.17933c-2.21765,2.63072 -4.4417,5.25611 -6.67328,7.87582c-3.96462,4.65418 -7.88209,9.34594 -11.95799,13.89998c-11.96011,-11.51813 -23.967,-24.01732 -34.86598,-36.39607c4.44027,-4.31357 9.08368,-8.44707 13.58894,-12.67983c5.41229,-5.08493 11.63865,-9.45134 17.45919,-14.06459c2.48937,-1.97302 4.98072,-3.94353 7.47304,-5.91282c3.86625,15.11803 8.47952,30.68079 13.68357,44.09819z"/><path d="M375.89794,298.9114c-8.04321,0.91911 -26.31039,-11.14074 -47.41881,-29.13687c3.59367,-3.61433 7.19275,-7.22316 10.79643,-10.82769c0.58115,-0.58128 1.16186,-1.16269 1.74201,-1.74442c16.50266,23.51196 35.32785,41.65784 34.88037,41.70898z"/><path d="M295.44779,115.04366c0.19663,1.8933 0.67895,5.27517 1.42479,9.77821c-5.24469,2.21501 -10.45962,4.5056 -15.69129,6.7476c-6.86144,2.94042 -13.29196,7.05812 -19.80283,10.70796c-6.54043,3.66641 -13.01159,7.43207 -19.46772,11.2448c-3.42163,2.02067 -6.84108,4.02473 -10.28509,5.98637c-2.97825,-5.88464 -4.82665,-11.05833 -5.26208,-15.25098c-1.50404,-14.48196 -0.01621,-28.25233 3.75901,-39.91804c3.94104,-0.84427 7.86317,-1.7739 11.80712,-2.70826c7.28469,-1.72581 14.44433,-4.05349 21.62875,-6.15736c7.24246,-1.90626 14.50546,-3.74917 21.72328,-5.74661c2.08797,-0.57782 4.17389,-1.16594 6.26069,-1.75154c1.61985,6.74475 2.71673,15.62273 3.90538,27.06785z"/></g></g><path d="M351.83358,263.9653c1.62637,2.16514 3.42196,3.94786 5.22165,6.10611c4.10612,4.92419 7.7848,10.11869 11.97574,14.97145c2.36649,2.74019 7.28611,6.65552 8.36539,10.22742c0.69232,2.29124 2.13984,5.08443 0.88936,7.12536c-0.91431,1.49227 -3.52462,0.28369 -5.25027,-0.00777c-3.68818,-0.62293 -6.76706,-3.59429 -9.69261,-5.68396c-5.40614,-3.93412 -10.95847,-7.79077 -16.33333,-11.66667c-2.59206,-1.86917 -4.61046,-4.72162 -7.11248,-6.75267c-4.71479,-3.82731 -10.54237,-6.21153 -14.86019,-10.50766c-2.35024,-2.33844 -4.44724,-4.94194 -6.50766,-7.52685c-0.85883,-1.07745 -2.31385,-1.83559 -2.65099,-3.17157c-0.57524,-2.27948 -1.65229,-5.45321 0.07087,-7.05248c0.67692,-0.62826 6.57287,1.46729 8.88378,2.28797c-0.8133,-1.03081 -1.5066,-2.16566 -2.01289,-3.36842c-1.81296,-4.30687 -1.67701,-14.75799 4.94626,-15.40862c6.47181,-0.63575 7.15309,5.88994 7.84422,10.43558c0.99405,6.53795 2.53474,12.97734 8.55529,16.75766c0.52162,0.32753 1.11222,0.41033 1.73375,0.37532c0.22697,-0.4188 0.62838,-0.81155 1.31,-1.0842c1.30895,-0.52358 2.17502,-0.01376 2.68146,0.53044c0.75426,0.11544 1.91866,0.56547 2.07008,2.23108c0.04276,0.47038 -0.01142,0.85996 -0.12745,1.1825z" fill="#000000" stroke-width="0.5"/></g><g stroke="none" stroke-width="0" stroke-linecap="butt"><path d="M197.89961,316.59792l20.60794,-221.82442l51.41931,-0.26565l18.47274,222.09009z" fill="url(#color-6)"/><path d="M269.84736,94.57992l18.8075,222.09009l-36.00904,-0.00001c0.2516,-0.51191 0.45843,-0.9315 0.52253,-1.10891c0.73517,-2.03948 3.58291,-5.91647 1.42471,-8.02902c-0.43195,-0.42281 -1.82757,0.31333 -1.80626,-0.28528c0.00339,-0.0952 1.38508,-1.88452 1.52842,-2.27686c0.96722,-2.64755 1.00442,-5.28826 1.00408,-8.05478c-0.01105,-1.27685 0.58006,-4.58576 -0.85882,-5.30613c-1.05355,-0.52745 -2.39916,0.61016 -3.20536,0.90728c-0.82425,0.30377 -2.0675,0.08619 -2.97952,0.33412c-0.83655,0.22742 -2.5576,0.90364 -3.21398,-0.13808c-0.5765,-0.91495 0.06419,-4.57446 0.05892,-5.74234c-0.0061,-0.33854 -0.00239,-2.19281 -0.19387,-2.35609c-1.16161,-0.99054 -2.35724,0.6596 -3.26914,0.95292c-1.57825,0.50767 -3.27645,0.52882 -4.91036,1.07732c-0.38037,0.12769 -4.20301,1.0477 -4.27375,0.50333c-0.06813,-0.52424 2.83552,-3.83775 3.33746,-4.50786c4.20645,-5.61581 7.30115,-12.67376 7.27853,-19.66176c-0.00513,-1.58073 0.84848,-6.24762 -1.80493,-5.38063c-1.59793,0.52212 -4.18823,4.06547 -4.90827,5.47125c-0.10839,0.21162 -1.41836,2.81749 -1.55212,2.47825c-0.28901,-0.733 0.13328,-2.80176 0.13328,-3.6627c0,-3.66389 -0.03453,-7.32976 0.01455,-10.99334c0.0143,-1.06712 -0.31795,-2.84778 0.02663,-3.84563c0.56368,-1.63234 2.60981,-3.25264 3.5109,-4.78529c0.70198,-1.19633 1.51738,-2.26852 2.40781,-3.26784c0.67775,-0.59501 1.31007,-1.25027 1.90498,-1.95034c1.68002,-1.59285 3.50555,-3.0726 5.2799,-4.70191c2.09038,-1.91951 4.16416,-2.44197 4.16152,-5.4407c-0.04986,-1.53876 -0.87514,-2.20098 -2.04852,-2.45749c0.05976,-2.41725 0.60368,-5.90067 -0.33714,-8.11616c-0.97443,-2.29464 -3.71198,-2.86653 -5.51027,-4.46273c-1.50979,-1.34012 -1.28752,-3.44927 -1.19577,-5.22903c0.05678,-1.21832 0.31252,-2.48264 0.64956,-3.75988c0.05679,-0.02976 0.11268,-0.06052 0.16763,-0.09231c1.85611,-1.07406 0.23286,-3.33214 2.20798,-3.66734c5.21167,-4.94795 12.49543,-9.73022 10.66769,-17.59104c-1.79411,-0.70208 -2.21176,-2.12426 -4.27497,-2.7401c-3.18827,-0.95165 -6.60859,-0.89498 -9.89518,-1.96861c-0.28195,-0.09211 -2.63011,-0.44362 -2.71105,-0.5506c-0.25048,-0.33107 0.51778,-2.04924 0.68221,-2.35765c1.55065,-2.98627 3.0503,-5.90658 4.54356,-8.92318c1.6843,-3.40252 4.24572,-6.3492 3.86741,-10.37692c-0.11803,-1.18109 0.11749,-2.49283 -1.25291,-3.09587c-0.39642,-0.17444 -2.48423,0.29121 -2.78014,-0.15578c-0.80143,-1.2106 0.69933,-4.21177 1.11335,-5.33113c1.08906,-2.94441 1.1022,-5.9856 0.97638,-9.0707c-0.0141,-0.34495 -0.05355,-2.16492 -0.23758,-2.3388c-0.92059,-0.86984 -3.95119,0.6019 -4.79508,-0.81677c-0.41052,-0.69013 0.89615,-2.81713 1.05046,-3.49256c0.75291,-3.29544 0.98079,-6.58303 0.92835,-9.97875c-0.03956,-2.51076 -0.56171,-4.69023 -1.74818,-6.92709c-0.41747,-0.78705 -1.97536,-2.31277 -1.92853,-3.21776c0.03212,-0.6207 0.58854,-1.10719 0.78219,-1.69887c0.83693,-2.55708 1.18103,-5.12231 2.18646,-7.65046c0.7888,-1.98344 1.18309,-4.03964 1.42616,-6.1244z" fill="#000000"/></g><g stroke="none" stroke-width="0" stroke-linecap="butt"><path d="M278.85008,108.45435c0,16.7447 -38.58415,36.10426 -38.87849,36.10426c-2.40888,0 -7.33187,-2.70742 -9.87832,-3.13086c-16.56616,-2.75472 -35.67652,-14.9043 -35.67652,-29.65824c0,-17.02181 22.92467,-16.00606 41.00482,-16.00606c18.08015,0 43.42852,-4.33093 43.42852,12.69089z" fill="url(#color-7)"/><g><path d="M240.95023,142.49396c-0.00055,-0.01953 -0.0011,-0.0391 -0.00167,-0.05863c-0.20513,-7.22939 -0.36693,-14.44813 -0.497,-21.69166c-0.12957,-7.21579 -0.03692,-14.50101 -0.03692,-21.72656c0,-1.09719 -0.00275,-2.19473 -0.00537,-3.29208c6.15369,-0.08163 11.79902,-0.20587 16.40736,0.57222c-0.01576,3.74812 0.00581,7.50339 0.00581,11.24952c0,7.25192 0,14.50386 0,21.7558c0,1.96413 0,3.92823 0,5.89237c-4.46651,3.71912 -9.91398,6.33659 -15.87222,7.29904z" fill="url(#color-8)"/><path d="M212.00027,132.22923c0,-4.50943 0,-9.01889 0,-13.52833c0,-7.24388 0,-14.48774 0,-21.73162c3.55799,-1.10312 8.04011,-1.31171 13.11787,-1.30504c-0.03296,3.29078 -0.07712,6.58145 -0.12734,9.87989c-0.11025,7.24212 -0.08218,14.54222 -0.0137,21.78782c0.04415,4.6708 0.22117,9.2147 0.40804,13.77937c-5.17876,-1.81982 -9.75932,-4.93065 -13.38487,-8.8821z" fill="url(#color-9)"/></g><path d="M268.56705,110.52633c0,17.02181 -14.85347,32.37469 -32.93362,32.37469c-18.08014,0 -32.54038,-15.35288 -32.54038,-32.37469c0,-17.02181 14.24836,-14.76286 32.32851,-14.76286c18.08015,0 33.14549,-2.25895 33.14549,14.76286z" fill="none"/></g><g stroke="none" stroke-width="0" stroke-linecap="butt"><path d="M217.39904,-79.24818c12.61794,7.04885 53.26615,18.96701 62.63882,39.79769c16.26294,36.14423 -12.40738,75.72997 -32.31022,72.56807c-0.02388,-0.00379 12.53115,-18.20444 2.15827,-33.96881c-7.88411,-11.98204 -37.63459,-19.32985 -46.08639,-34.97592c-17.36462,-32.14557 -5.06335,-78.74093 -4.40385,-81.43002c1.25548,-5.11921 4.68789,30.57049 18.00334,38.00899z" data-paper-data="{&quot;index&quot;:null}" fill="url(#color-10)"/><path d="M263.1853,-116.83612c0.79179,2.65315 15.38421,48.58256 -0.36813,81.54818c-7.66704,16.0452 -37.01739,24.8565 -44.2988,37.21406c-9.5799,16.25844 3.86055,33.81538 3.83689,33.82037c-19.72194,4.1431 -50.31639,-33.9751 -35.86231,-70.87996c8.33019,-21.26905 48.33872,-35.18446 60.59232,-42.84917c12.93097,-8.08841 14.59271,-43.90427 16.10004,-38.85346z" fill="url(#color-11)"/></g><g stroke="none" stroke-width="0" stroke-linecap="butt"><path d="M301.80122,43.07176c0.57502,23.22135 -19.52741,65.7833 -47.99576,77.45759c-4.46039,1.82912 -9.12616,2.89999 -13.94995,3.01945c-35.61144,0.88183 -66.34966,-50.42401 -67.01475,-77.28367c-0.66511,-26.85968 27.66451,-49.3486 63.27595,-50.23041c35.61145,-0.88183 65.01941,20.17739 65.68453,47.03706z" fill="url(#color-12)"/><path d="M301.7971,42.90514c0.57502,23.22135 -19.52741,65.78331 -47.99576,77.45759c-4.46039,1.82912 -9.12615,2.89999 -13.94994,3.01945c-4.94164,0.12237 -15.02029,-0.5266 -21.75425,-4.61709c-0.93635,-0.56877 -5.68446,-2.1946 -9.24662,-5.4211c-5.41424,-4.90405 -10.34846,-12.13935 -12.81579,-14.20411c1.1909,0.04005 5.63458,-0.68263 6.15997,-1.23067c0.30969,-0.32307 11.30942,3.52089 11.86016,3.50726c3.34533,-0.08284 1.18671,-0.26555 4.531,-0.38438c1.86498,-0.38053 6.91539,4.62977 7.7334,3.08391c1.70651,-3.22491 4.27137,-7.45704 6.7248,-10.24991c1.34696,-1.53332 3.27373,-2.46009 4.28044,-4.21978c2.63566,-3.78242 4.38391,-6.90743 2.18078,-11.41053c-0.50738,-1.03703 -2.7714,-2.9451 -2.92258,-3.854c-0.11729,-0.70522 1.35077,-2.45855 1.32477,-3.60201c-0.05119,-1.66075 0.05234,-3.60966 -0.73143,-5.13789c-0.27839,-0.54282 -0.82559,-0.97426 -0.93229,-1.57491c-0.45714,-2.57308 1.95835,-6.96455 0.08121,-9.08256c-0.76073,-0.85834 -3.18232,-1.74238 -4.25891,-2.24599c1.12333,-2.08044 2.99977,-3.92846 1.74676,-6.45733c-0.64958,-1.31102 -2.54627,-1.34595 -3.09359,-2.42857c-0.47315,-0.9359 1.60734,-3.31545 1.92738,-4.14549c0.62969,-1.63315 0.41344,-3.46257 0.34381,-5.16333c-0.12982,-1.62433 -1.62003,-2.91138 -1.42242,-4.58795c0.16981,-1.44057 2.17311,-2.44482 3.01998,-3.50505c2.70662,-3.38854 2.9532,-7.15123 -0.22148,-10.27663c-0.90891,-1.36922 -1.37739,-0.7629 -2.64256,-1.41736c-1.23279,-0.6377 -2.85156,-1.93738 -3.87679,-2.90468c-1.49247,-1.40814 -1.17182,-5.32988 0.03089,-6.87294c0.89221,-1.14468 3.15915,-0.76288 4.38699,-0.79328c2.27069,-0.30272 1.43613,-2.59809 1.38814,-4.53575c-0.03039,-1.22715 -0.06077,-2.4543 -0.09116,-3.68145c0.84584,-0.04581 1.69615,-0.07941 2.55067,-0.10057c35.61145,-0.88183 65.01941,20.17739 65.68452,47.03706z" fill="#000000"/></g><path d="M187.10868,59.53657c-0.32102,-12.96403 9.92817,-23.73369 22.8922,-24.05471c12.96403,-0.32102 23.73369,9.92816 24.05471,22.89219c0.32102,12.96403 -9.92816,23.73369 -22.89219,24.05471c-12.96403,0.32102 -23.73369,-9.92817 -24.05471,-22.8922z" fill="#ff0000" stroke="none" stroke-width="2" stroke-linecap="butt"/><path d="M187.4311,62.97875c1.25278,0.01354 45.95498,-0.5416 46.2138,-0.52393c-0.42779,3.49743 -0.99203,6.32674 -2.81292,9.29017c-4.08493,6.64809 -11.49007,10.52695 -19.51769,10.72573c-11.87381,0.29402 -22.26637,-7.84064 -23.8832,-19.49196z" data-paper-data="{&quot;index&quot;:null}" fill="#ff5d5d" stroke="none" stroke-width="2" stroke-linecap="butt"/><path d="M199.52154,59.95372c-0.14849,-5.99663 4.59235,-10.97823 10.58898,-11.12672c5.99663,-0.14849 10.97822,4.59236 11.12671,10.58899c0.14849,5.99663 -4.59236,10.97821 -10.58899,11.12671c-5.99663,0.14849 -10.97821,-4.59235 -11.12669,-10.58898z" fill="#000000" stroke="none" stroke-width="0" stroke-linecap="butt"/><path d="M212.5442,59.79529c0.02443,0.98592 -0.81898,1.80654 -1.88377,1.83291c-1.0648,0.02637 -1.94778,-0.7515 -1.97218,-1.73742c-0.02443,-0.98592 0.81898,-1.80654 1.88377,-1.83291c1.0648,-0.02637 1.94778,0.7515 1.97218,1.73742z" fill="#ff0000" stroke="none" stroke-width="0" stroke-linecap="butt"/><g><g><path d="M307.21106,-4.38659c0.65152,1.99367 24.50812,72.21294 36.1144,86.64707c14.30531,17.79078 32.96805,34.38956 32.88736,34.42182c-0.43381,0.17336 -23.11162,4.22878 -40.0013,-0.34157c-17.91026,-4.84651 -30.22315,-18.52638 -35.60916,-25.44351c-22.27893,-28.61235 -35.48949,-58.77053 -52.93235,-69.50879c-2.79644,-1.72156 -10.22806,-5.00918 -14.57261,-0.72849c-7.99296,7.87551 -25.53507,9.19889 -25.69906,8.6971c-7.72588,-23.64072 16.29409,-47.61093 44.30681,-58.80548c28.01273,-11.19456 47.78006,1.42115 55.50593,25.06186z" fill="url(#color-13)" stroke="none" stroke-width="0" stroke-linecap="butt"/><path d="M229.83242,-1.08656c0,0 29.6524,-16.18726 46.35364,-0.96586c8.6366,7.87132 32.89702,62.36738 51.02402,92.59534c8.09026,13.49105 22.43291,17.77711 22.43291,17.77711" fill="none" stroke="#000000" stroke-width="0.5" stroke-linecap="round"/></g><g><path d="M293.02899,42.78058c0.00258,1.59534 1.0496,58.04017 8.3166,71.52715c8.95693,16.62333 22.9068,33.62744 22.81083,33.62759c-0.5158,0.00084 -25.76504,-3.5022 -41.9697,-11.4878c-17.18384,-8.46811 -25.45267,-21.61951 -28.75003,-28.03326c-13.63938,-26.5302 -17.69084,-62.4918 -32.36473,-75.00178c-2.35253,-2.0056 -9.15516,-4.49688 -15.19251,-2.68616c-11.10738,3.33129 -22.91822,13.44956 -22.91886,13.04805c-0.03064,-18.91727 26.94582,-34.29645 60.25358,-34.35038c33.30775,-0.05393 49.78419,14.43936 49.81481,33.35664z" fill="url(#color-14)" stroke="none" stroke-width="0" stroke-linecap="butt"/><path d="M210.48591,23.36408c0,0 36.74317,-3.12941 49.10109,12.34758c6.39057,8.00352 13.24837,53.42477 21.96594,79.93207c3.89073,11.83047 17.51294,18.89864 17.51294,18.89864" fill="none" stroke="#000000" stroke-width="0.5" stroke-linecap="round"/></g></g><g><g data-paper-data="{&quot;index&quot;:null}"><path d="M202.01606,-11.56436c18.33543,7.77265 29.99727,23.70389 26.04742,35.58338c-0.08385,0.25215 -4.48587,-8.84979 -9.91147,-13.5237c-2.94904,-2.54047 -7.21406,-2.55562 -8.92684,-1.84199c-10.68358,4.45126 -26.37424,20.50157 -39.40286,34.00276c-3.14971,3.26396 -7.55236,14.41007 -18.77815,15.73846c-10.58614,1.2527 -30.75084,-11.40511 -31.03479,-11.5255c-0.04146,-0.01758 14.00261,6.03773 23.31664,2.61613c0.94766,-0.34813 12.70709,-6.49333 16.8117,-15.29728c6.95428,-14.91623 11.85788,-32.26807 12.06733,-32.89805c3.94986,-11.8795 11.47559,-20.62685 29.81103,-12.8542z" fill="url(#color-15)" stroke="none" stroke-width="0" stroke-linecap="butt"/><path d="M145.23905,54.07679c0,0 8.97291,-1.27626 13.57561,-7.80592c10.3128,-14.63033 23.53352,-41.57731 28.71756,-45.1215c10.02475,-6.85367 29.61309,3.64964 29.61309,3.64964" fill="none" stroke="#000000" stroke-width="0.5" stroke-linecap="round"/></g><g data-paper-data="{&quot;index&quot;:null}"><path d="M192.78426,-0.15655c24.22654,0.62964 43.5361,13.83453 43.1291,29.49399c-0.00864,0.33238 -8.39391,-8.2511 -16.40552,-11.20388c-4.35467,-1.60495 -9.35349,0.33787 -11.10547,1.95681c-10.928,10.09821 -23.60034,36.01502 -34.06099,57.73751c-2.52891,5.25147 -3.72637,20.2644 -16.39788,26.97263c-11.94946,6.32598 -40.05203,0.84423 -40.4272,0.83449c-0.05477,-0.00143 18.53773,0.59951 28.22779,-7.66926c0.98591,-0.8413 12.57213,-13.40808 14.25219,-25.55457c2.84645,-20.57937 2.42724,-43.0544 2.44883,-43.88484c0.40698,-15.65944 6.11258,-29.31256 30.33912,-28.68293z" fill="url(#color-16)" stroke="none" stroke-width="0" stroke-linecap="butt"/><path d="M149.61402,102.43724c0,0 10.05235,-5.61187 13.123,-15.33697c6.88012,-21.79 12.79208,-59.26989 17.60326,-65.78305c9.30374,-12.59501 35.96658,-9.35912 35.96658,-9.35912" fill="none" stroke="#000000" stroke-width="0.5" stroke-linecap="round"/></g></g><path d="M221.69945,80.1029c0,0 5.60675,-3.73382 7.74501,-6.28344c2.27904,-2.71751 4.03425,-9.51299 4.03425,-9.51299c0,0 4.51749,0.65093 4.53575,1.38814c0.05127,2.07063 4.52021,14.2258 4.52021,14.2258c0,0 -2.6156,-2.29955 -4.22632,-2.28543c-3.5834,0.03139 -16.60889,2.46794 -16.60889,2.46794z" fill="url(#color-17)" stroke="none" stroke-width="0" stroke-linecap="butt"/><path d="M241.80217,77.27106c0.09798,3.95683 -1.7621,7.21249 -4.15459,7.27174c-2.3925,0.05925 -4.41144,-3.10036 -4.50943,-7.05719c-0.09798,-3.95683 1.76211,-7.21249 4.1546,-7.27174c2.3925,-0.05925 4.41143,3.10036 4.50941,7.05719z" fill="#000000" stroke="none" stroke-width="0" stroke-linecap="butt"/><path d="M239.34166,72.16374c0.03874,1.56433 -0.60122,2.84908 -1.42941,2.8696c-0.82819,0.0205 -1.53094,-1.231 -1.56968,-2.79532c-0.03874,-1.56433 0.60122,-2.84909 1.42941,-2.86961c0.82819,-0.0205 1.53094,1.23101 1.56968,2.79533z" fill="#000000" stroke="none" stroke-width="0" stroke-linecap="butt"/><path d="M242.05311,89.59978c0.02384,0.20559 -0.04729,0.33592 -0.13884,0.4181c0.14381,0.04995 0.36056,0.1816 0.32693,0.51814c-0.04972,0.49753 -0.54724,0.4478 -0.54724,0.4478c-0.45097,-0.04522 -1.0816,0.00138 -1.72249,0.03324c-0.01071,0.01654 -0.02148,0.0331 -0.03235,0.04965c0.15886,1.93312 -0.30835,4.30498 -1.20397,6.23167c0.00705,0.03147 0.01115,0.06409 0.01198,0.09755c0.00147,0.05936 -0.00748,0.11658 -0.02515,0.16987l-0.15084,0.49282l-0.19237,-0.05888c-0.13174,0.23731 -0.27048,0.46497 -0.41576,0.68098c-0.12173,0.21514 -0.25279,0.42463 -0.38026,0.62778l0.11339,0.08075l-0.47997,0.67409c-0.08789,0.1263 -0.23269,0.21049 -0.3983,0.21459c-0.06877,0.0017 -0.13466,-0.01057 -0.19492,-0.03421c-1.69514,2.55198 -3.34535,5.57632 -5.63672,7.56755c-2.19534,1.90777 -4.22353,1.38659 -5.28805,-0.72735c-0.75459,0.56031 -1.52865,0.91453 -2.12109,0.60368c0.05961,0.75716 0.14609,1.5061 0.27081,2.24167l0.02962,0.17604c0,0 0.08295,0.49307 -0.41014,0.57602c-0.49308,0.08295 -0.57601,-0.41013 -0.57601,-0.41013l-0.02961,-0.17604c-0.27881,-1.6699 -0.36923,-3.4026 -0.39558,-5.14416c-0.21464,-0.05181 -0.37648,-0.24247 -0.3822,-0.47372c-0.00343,-0.13803 0.04943,-0.26438 0.13766,-0.35707l0.23533,-0.24728c-0.00332,-1.10913 0.00889,-2.21733 0.00463,-3.31075c-0.05728,-0.8642 -0.06026,-1.70476 -0.10105,-2.15004c-0.42275,-4.61562 -0.49644,-9.22533 -0.61117,-13.85793c-0.00834,-0.33692 -0.01669,-0.67382 -0.02503,-1.01073c-0.01739,-0.15079 -0.03328,-0.30211 -0.04644,-0.45269c-0.14419,0.09932 -0.29,0.19603 -0.43731,0.28993l0.06314,0.06864l-0.58392,0.53703c-0.25257,0.37296 -0.42535,0.76274 -0.46084,1.17562c0,0 -0.02819,0.2396 -0.21185,0.36634c-0.24476,1.32234 -0.55324,3.62629 -1.29709,4.05524c-2.35392,1.3574 -1.29892,-6.56034 -3.81591,-2.99589c-0.17567,0.24877 -0.35585,0.49803 -0.48772,0.77252c-0.26345,0.54837 -0.28998,0.83423 -0.3944,1.37128c-0.12316,0.63354 -0.20919,1.27554 -0.25487,1.91932c-0.47133,6.55304 0.68137,13.52799 -0.8452,19.93684c-0.66038,0.37906 -1.92437,1.14072 -2.50263,-0.00983c-0.3516,-0.69957 -0.11952,-2.4371 -0.13925,-3.23348c-0.05883,-2.37604 -0.63345,-4.86205 -0.55548,-7.20153c0.01167,-0.34994 -0.01832,0.7078 -0.11623,1.04397c-0.27952,0.95985 -0.52985,1.92487 -0.7825,2.8921c-0.59,1.78054 -2.82205,2.53514 -2.96034,0.04042c-0.26106,-4.7098 1.26501,-9.83319 0.0901,-14.41824c-0.47533,-1.30568 -1.13319,-3.81197 -2.35459,-4.62592c-1.1416,-0.76076 -2.85131,-0.59447 -4.1368,-1.19382c-1.8667,-0.87038 -3.849,-2.59128 -5.18519,-4.34159l-0.04461,0.04688l-0.51222,-0.48747c-0.09269,-0.08821 -0.15173,-0.2118 -0.15514,-0.34984c-0.00684,-0.27606 0.21142,-0.50538 0.48747,-0.51222l0.49986,-0.01237c1.6826,-0.02682 3.3625,0.82483 4.95113,1.33425c6.5285,2.0975 11.74844,1.5159 18.05805,-0.53506c1.77972,-0.9508 3.72906,-1.77255 5.71891,-2.171c1.21511,-0.24331 2.93137,-0.25227 2.41378,1.45486c-0.17481,0.5766 -0.49028,1.01911 -0.88389,1.38226c0.17186,0.07562 0.29374,0.24536 0.2987,0.4455c0.00092,0.03714 -0.00223,0.07344 -0.00906,0.10844l-0.1442,0.82703l-0.10026,-0.01748c-0.01728,1.7078 -0.36133,3.5611 -0.71931,5.34976c-0.0424,2.55698 -0.03279,5.10855 0.0049,7.66115c0.08952,1.37841 0.25969,2.89787 0.08492,4.26689c0.00399,0.16603 0.00806,0.33209 0.01216,0.49817l0.0165,0.66647c0.00684,0.27606 -0.21142,0.50538 -0.48747,0.51222c0.01935,0.78152 0.03871,1.56302 0.05805,2.34454c0.25972,-0.29395 0.52361,-0.59741 0.79172,-0.90706c0.10215,-0.29645 0.28613,-0.57971 0.60973,-0.86916c0.00152,-0.00735 0.00307,-0.01471 0.00466,-0.02213c0.61882,-1.32548 1.67313,-2.67627 2.78435,-3.78701c-0.1001,-0.73463 -0.07751,-1.45014 0.51669,-2.03422c0.28688,-0.28199 1.03476,-0.21193 1.69514,-0.15373c0.2903,-0.2229 0.58941,-0.42689 0.8971,-0.60769c0.2608,-0.33351 0.5185,-0.65553 0.76974,-0.96398c0.01382,-0.1462 0.02696,-0.27985 0.04591,-0.3886c0.18216,-0.81261 0.21475,-1.65043 1.20773,-1.91637c0.06942,-0.01859 0.28434,0.04054 0.52507,0.10236c0.48561,-0.59366 1.00178,-1.16375 1.57572,-1.58458c0.01474,-0.01081 0.02973,-0.02155 0.04498,-0.0322c0.07614,-0.11587 0.17176,-0.22395 0.29627,-0.31946c0.27294,-0.2094 0.5429,-0.2465 0.80459,-0.1838c0.88307,-0.25527 1.92211,-0.27314 2.60898,0.16035c0.44425,-0.29221 0.93827,-0.33319 1.44521,0.26441c0.03985,0.04701 0.06963,0.09998 0.09021,0.15825c0.03086,-0.0035 0.06169,-0.00703 0.0925,-0.01061l0.83531,-0.09684c0,0 0.49668,-0.05758 0.55425,0.43909zM238.32441,91.14385c-0.13445,0.3836 -0.41867,0.84656 -0.7279,1.28895c0.29957,-0.37806 0.71321,-0.91648 1.07937,-1.40649c-0.08013,-0.00561 -0.15815,-0.01298 -0.23361,-0.02237c-0.00517,0.00614 -0.01037,0.0123 -0.01559,0.01849zM227.48669,104.04928c-0.0483,0.05064 -0.09675,0.10112 -0.14535,0.15144c0.01924,-0.01675 0.03849,-0.03348 0.05772,-0.05023c0.02922,-0.03373 0.05844,-0.06746 0.08763,-0.10122zM224.64249,106.521c-0.08796,0.02723 -0.17582,0.04433 -0.26275,0.04878c-0.19977,0.27695 -0.36278,0.4907 -0.20058,0.35054c0.15414,-0.1332 0.30861,-0.2663 0.46333,-0.39933zM235.0415,93.17078c-0.05626,0.00648 -0.11415,0.01721 -0.17348,0.03191c-0.20536,0.17495 -0.40913,0.35101 -0.61143,0.52841c0.04079,0.07025 0.06501,0.15144 0.06715,0.23837c0.00232,0.0934 -0.02115,0.18146 -0.06388,0.25735l-0.09106,0.16895c0.11972,-0.16469 0.23878,-0.33015 0.35716,-0.49643c0.17398,-0.24435 0.34622,-0.48624 0.51556,-0.7286zM229.49329,100.05103c0.16568,-0.24141 0.32629,-0.48396 0.48141,-0.72673c0.04574,-0.07145 0.09144,-0.14293 0.1371,-0.21442c-0.09407,0.009 -0.18624,0.01287 -0.27518,0.01047c-0.44712,0.47284 -0.91868,0.92545 -1.40918,1.3594c-0.17945,0.38991 -0.34884,0.78214 -0.50719,1.17606c0.43766,-0.40978 0.84458,-0.83954 1.17651,-1.18688c0.13303,-0.1388 0.2652,-0.2781 0.39656,-0.4179zM223.76377,105.57035c0.1056,-0.49466 0.37938,-1.08334 0.62099,-1.53871c-0.07641,-0.04246 -0.15078,-0.09239 -0.22286,-0.15028c-0.03287,-0.0264 -0.0578,-0.06019 -0.07554,-0.10052c-0.06474,0.0451 -0.13,0.08954 -0.19577,0.13327c-0.0248,0.20248 -0.17108,0.36869 -0.36523,0.42124l-0.07221,0.05968c0.00483,0.64212 0.01706,1.28366 0.04326,1.92166c0.07451,-0.23979 0.16717,-0.49381 0.26735,-0.74634zM235.0821,96.46032c-0.26459,0.22202 -0.5342,0.43674 -0.80764,0.64188c-1.79583,2.49102 -3.69409,4.88308 -5.71006,7.22609c0.43959,-0.25282 0.85052,-0.58333 1.27489,-0.95564c2.16748,-1.89836 4.32656,-4.0843 5.24281,-6.91234zM238.78945,92.58469c-0.27778,0.33296 -0.50738,0.5937 -0.61327,0.7236c-0.52366,0.6408 -1.11803,1.29998 -1.76158,1.93572c-0.0794,0.41553 -0.16426,0.76599 -0.21165,0.945c-0.86855,3.28242 -3.24864,5.78388 -5.70474,7.93586c-0.7172,0.62739 -2.1676,1.47755 -3.25735,1.58159c-0.24665,0.24565 -0.51964,0.51174 -0.8063,0.76928c0.15333,0.45663 0.34317,0.89008 0.60532,1.2156c0.8121,1.00838 2.62498,-0.05586 3.2934,-0.6375c2.3949,-2.08394 4.07259,-5.36752 5.85761,-7.95515c0.3969,-0.50214 0.794,-1.00413 1.19131,-1.50591l0.021,-0.01158l-0.00562,-0.00534l0.11611,-0.122c0.03669,-0.07469 0.07199,-0.15173 0.10461,-0.23178c0.59581,-1.46182 1.02932,-3.04209 1.17111,-4.63735zM229.10795,95.59961c0.02515,-0.02528 0.05039,-0.05044 0.0757,-0.07548c-0.01833,0.00623 -0.03129,0.01382 -0.03825,0.02296c-0.01308,0.01721 -0.02555,0.0347 -0.03745,0.05252zM230.25108,100.70601c-0.09208,0.13114 -0.18545,0.26142 -0.28005,0.39088c0.18223,-0.22344 0.36356,-0.44749 0.54389,-0.67221c-0.08775,0.09406 -0.1757,0.18784 -0.26384,0.28133zM225.86954,104.11386c-0.03081,0.00924 -0.06156,0.01796 -0.09224,0.02615c0.01021,0.04181 0.0206,0.08357 0.03117,0.12527c0.01795,-0.01457 0.03567,-0.02894 0.05314,-0.04307c0.00205,-0.03538 0.00468,-0.07148 0.00791,-0.10833zM237.83554,89.43962c0.1744,0.00054 0.34632,0.01577 0.52005,0.04264c-0.14577,-0.05363 -0.32361,-0.06412 -0.52005,-0.04264z" fill="#000000" stroke="none" stroke-width="0.5" stroke-linecap="butt"/><path d="M219.08609,91.45558c0.01367,0.55211 -0.38552,1.00986 -0.89163,1.02238c-0.50611,0.01253 -0.92746,-0.42489 -0.94115,-0.977c-0.01367,-0.55211 0.38553,-1.00986 0.89164,-1.02239c0.50611,-0.01253 0.92745,0.42489 0.94114,0.977z" fill="#000000" stroke="none" stroke-width="0" stroke-linecap="butt"/><path d="M240.84458,87.84109c0.01367,0.55211 -0.60931,1.01539 -1.39148,1.03477c-0.78217,0.01937 -1.42732,-0.41251 -1.44099,-0.96462c-0.01367,-0.55211 0.60931,-1.01539 1.39148,-1.03477c0.78217,-0.01937 1.42732,0.41252 1.44099,0.96463z" fill="#000000" stroke="none" stroke-width="0" stroke-linecap="butt"/><path d="M242.97139,86.20461c0.0581,2.3465 -1.31211,4.28379 -3.06048,4.32709c-1.74837,0.04329 -3.2128,-1.82382 -3.27091,-4.17031c-0.0581,-2.3465 1.31211,-4.28378 3.06048,-4.32708c1.74837,-0.04329 3.2128,1.82381 3.27091,4.17031z" fill="#000000" stroke="none" stroke-width="0" stroke-linecap="butt"/><path d="M239.09179,84.38342c0.0319,1.28827 -0.9493,2.35755 -2.19155,2.38832c-1.24225,0.03077 -2.27517,-0.98866 -2.30706,-2.27693c-0.0319,-1.28827 0.94929,-2.35755 2.19155,-2.38831c1.24225,-0.03077 2.27518,0.98865 2.30707,2.27691z" fill="#000000" stroke="none" stroke-width="0" stroke-linecap="butt"/><path d="M231.52697,95.32403c0.03531,1.42631 -0.9431,2.60748 -2.18536,2.63823c-1.24225,0.03077 -2.27794,-1.10054 -2.31326,-2.52684c-0.03531,-1.42631 0.9431,-2.60748 2.18536,-2.63824c1.24225,-0.03077 2.27794,1.10055 2.31326,2.52684z" fill="#000000" stroke="none" stroke-width="0" stroke-linecap="butt"/><path d="M240.22969,89.94027c0.04671,1.8864 -1.44464,3.45349 -3.33104,3.5002c-1.8864,0.04671 -3.45349,-1.44464 -3.5002,-3.33104c-0.04671,-1.8864 1.44464,-3.45349 3.33104,-3.5002c1.8864,-0.04671 3.45349,1.44464 3.5002,3.33104z" fill="#000000" stroke="none" stroke-width="0" stroke-linecap="butt"/><path d="M233.45003,92.19214c0.0205,0.82819 -0.55964,1.51432 -1.29579,1.53254c-0.73616,0.01823 -1.34956,-0.63837 -1.37005,-1.46653c-0.0205,-0.82819 0.55964,-1.51432 1.29579,-1.53254c0.73616,-0.01823 1.34956,0.63837 1.37005,1.46653z" fill="#000000" stroke="none" stroke-width="0" stroke-linecap="butt"/><path d="M231.52029,88.32205c0.01709,0.69015 -0.26744,1.257 -0.63553,1.26613c-0.36808,0.00912 -0.68033,-0.54297 -0.69741,-1.23311c-0.01709,-0.69015 0.26744,-1.257 0.63553,-1.26613c0.36808,-0.00912 0.68033,0.54297 0.69741,1.2331z" fill="#000000" stroke="none" stroke-width="0" stroke-linecap="butt"/><path d="M221.0348,102.50264c0.03874,1.56433 -1.01151,2.85925 -2.3458,2.89227c-1.33427,0.03305 -2.44733,-1.20831 -2.48606,-2.77265c-0.03874,-1.56433 1.0115,-2.85925 2.34579,-2.89228c1.33427,-0.03305 2.44733,1.20831 2.48607,2.77265z" fill="#000000" stroke="none" stroke-width="0" stroke-linecap="butt"/><path d="M207.43372,98.58812c0.0262,1.05822 -0.81042,1.93733 -1.86864,1.96353c-1.05822,0.0262 -1.93733,-0.81042 -1.96353,-1.86864c-0.0262,-1.05822 0.81042,-1.93733 1.86864,-1.96353c1.05822,-0.0262 1.93733,0.81042 1.96353,1.86864z" fill="#000000" stroke="none" stroke-width="0" stroke-linecap="butt"/><path d="M202.00688,101.61064c-0.00644,-0.25983 0.21215,-0.47598 0.4882,-0.48282c0.27606,-0.00684 0.50506,0.19824 0.51149,0.45806c0.00644,0.25983 -0.21215,0.47599 -0.4882,0.48282c-0.27606,0.00684 -0.50506,-0.19824 -0.51149,-0.45807z" fill="#000000" stroke="none" stroke-width="0" stroke-linecap="butt"/><path d="M206.64396,100.35822c0.02508,1.0122 -0.51409,1.84663 -1.20424,1.8637c-0.69015,0.01709 -1.26994,-0.78961 -1.295,-1.80182c-0.02508,-1.0122 0.51409,-1.84663 1.20424,-1.86371c0.69015,-0.01709 1.26994,0.78962 1.295,1.80183z" fill="#000000" stroke="none" stroke-width="0" stroke-linecap="butt"/><path d="M203.95749,99.59114c0.01823,0.73616 -0.63837,1.34956 -1.46653,1.37005c-0.82819,0.0205 -1.51432,-0.55964 -1.53254,-1.29579c-0.01823,-0.73616 0.63837,-1.34956 1.46653,-1.37005c0.82819,-0.0205 1.51432,0.55964 1.53254,1.29579z" fill="#000000" stroke="none" stroke-width="0" stroke-linecap="butt"/><path d="M219.21439,103.04787c0.02508,1.0122 -0.92436,1.85678 -2.12062,1.8864c-1.19625,0.02962 -2.18634,-0.76692 -2.21138,-1.77913c-0.02508,-1.0122 0.92436,-1.85679 2.12062,-1.88641c1.19625,-0.02962 2.18633,0.76693 2.21138,1.77914z" fill="#000000" stroke="none" stroke-width="0" stroke-linecap="butt"/><path d="M214.65809,59.96086c0,2.3632 -1.8607,4.27896 -4.15599,4.27896c-2.29529,0 -4.15599,-1.91576 -4.15599,-4.27896c0,-2.3632 1.8607,-4.27895 4.15599,-4.27895c2.29529,0 4.15599,1.91575 4.15599,4.27895z" fill="url(#color-18)" stroke="none" stroke-width="0" stroke-linecap="butt"/></g></g></svg>