<svg version="1.1" xmlns="http://www.w3.org/2000/svg" xmlns:xlink="http://www.w3.org/1999/xlink" width="34.17311" height="34.17311" viewBox="0,0,34.17311,34.17311"><g transform="translate(-222.91344,-162.91346)"><g data-paper-data="{&quot;isPaintingLayer&quot;:true}" stroke-miterlimit="10" stroke-dasharray="" stroke-dashoffset="0" style="mix-blend-mode: normal"><path d="M229.98311,162.91347h20.03379c3.9166,0 7.06966,3.15307 7.06966,7.06966v20.03379c0,3.91659 -3.15306,7.06966 -7.06966,7.06966h-20.03379c-3.91659,0 -7.06966,-3.15307 -7.06966,-7.06966v-20.03379c0,-3.91659 3.15307,-7.06966 7.06966,-7.06966z" fill="#ffbb00" fill-rule="evenodd" stroke="none" stroke-width="4.43922" stroke-linecap="round" stroke-linejoin="round"/><g data-paper-data="{&quot;index&quot;:null}" fill-rule="nonzero" stroke="#000000" stroke-width="0.5" stroke-linejoin="miter"><path d="M252.57675,191.59687c-0.77889,0.68208 -1.52943,1.39918 -2.30744,2.08265c-4.38652,-2.72423 -9.59097,-6.55651 -9.59097,-6.55651l1.31139,-2.70972c0,0 6.07166,4.50208 10.58703,7.18358z" fill="#e8aa00" stroke-linecap="butt"/><g stroke-linecap="butt"><path d="M238.93678,192.11513l-11.49935,-17.2624l15.48141,-8.41437l8.12293,19.22326z" fill="#c50c40"/><path d="M234.53305,169.47583c4.28177,-2.3272 8.05398,-3.65971 8.42546,-2.97623c0.37148,0.68348 -2.79844,3.12412 -7.08022,5.45132c-4.28177,2.3272 -8.05398,3.65971 -8.42546,2.97623c-0.37148,-0.68348 2.79844,-3.12412 7.08022,-5.45132z" fill="#8f092f"/><path d="M227.48963,174.90809c-0.09004,-0.16566 2.0254,-0.51188 4.57804,-1.3866c1.08411,-0.37149 6.53915,-3.30587 7.53133,-4.00011c2.15294,-1.50643 3.2532,-2.6969 3.38898,-2.44708c0.23358,0.42976 -0.72421,2.06586 -2.87738,3.76613c-0.92637,0.73151 -3.02728,1.87006 -3.77711,2.27761c-0.73816,0.4012 -2.91849,1.46695 -4.03568,1.77937c-2.65543,0.74257 -4.57303,0.44331 -4.80817,0.01067z" fill="#b64d6b"/></g><path d="M244.99247,183.76798l-3.93862,1.91437" fill="none" stroke-linecap="round"/><path d="M239.72673,174.63486l-2.67385,1.60415" fill="none" stroke-linecap="round"/></g></g></g></svg>