<svg version="1.1" xmlns="http://www.w3.org/2000/svg" xmlns:xlink="http://www.w3.org/1999/xlink" width="186.75796" height="463.46992" viewBox="0,0,186.75796,463.46992"><defs><linearGradient x1="260.55408" y1="-101.04341" x2="307.92793" y2="-51.25223" gradientUnits="userSpaceOnUse" id="color-1"><stop offset="0" stop-color="#000000"/><stop offset="1" stop-color="#909090"/></linearGradient><linearGradient x1="242.37942" y1="58.23358" x2="242.37942" y2="90.62415" gradientUnits="userSpaceOnUse" id="color-2"><stop offset="0" stop-color="#000000"/><stop offset="1" stop-color="#909090"/></linearGradient><linearGradient x1="316.55257" y1="-0.3236" x2="316.55257" y2="74.20371" gradientUnits="userSpaceOnUse" id="color-3"><stop offset="0" stop-color="#000000"/><stop offset="1" stop-color="#909090"/></linearGradient><linearGradient x1="171.21925" y1="2.6764" x2="171.21925" y2="77.20371" gradientUnits="userSpaceOnUse" id="color-4"><stop offset="0" stop-color="#000000"/><stop offset="1" stop-color="#909090"/></linearGradient><linearGradient x1="242.45012" y1="-21.35541" x2="242.45012" y2="48.95743" gradientUnits="userSpaceOnUse" id="color-5"><stop offset="0" stop-color="#000000"/><stop offset="1" stop-color="#909090"/></linearGradient><linearGradient x1="209.66184" y1="-38.52959" x2="209.66184" y2="6.78527" gradientUnits="userSpaceOnUse" id="color-6"><stop offset="0" stop-color="#000000"/><stop offset="1" stop-color="#b2b2b2"/></linearGradient><linearGradient x1="272.98122" y1="-38.58566" x2="272.98122" y2="6.62442" gradientUnits="userSpaceOnUse" id="color-7"><stop offset="0" stop-color="#000000"/><stop offset="1" stop-color="#b2b2b2"/></linearGradient><linearGradient x1="200.42917" y1="29.3081" x2="200.42917" y2="41.0581" gradientUnits="userSpaceOnUse" id="color-8"><stop offset="0" stop-color="#000000"/><stop offset="1" stop-color="#cecece"/></linearGradient><linearGradient x1="288.01335" y1="29.3081" x2="288.01335" y2="41.0581" gradientUnits="userSpaceOnUse" id="color-9"><stop offset="0" stop-color="#000000"/><stop offset="1" stop-color="#cecece"/></linearGradient><linearGradient x1="240.9548" y1="119.28916" x2="240.9548" y2="204.90059" gradientUnits="userSpaceOnUse" id="color-10"><stop offset="0" stop-color="#909090"/><stop offset="1" stop-color="#000000"/></linearGradient></defs><g transform="translate(-150.50693,108.7364)"><g data-paper-data="{&quot;isPaintingLayer&quot;:true}" fill-rule="nonzero" stroke-linejoin="miter" stroke-miterlimit="10" stroke-dasharray="" stroke-dashoffset="0" style="mix-blend-mode: normal"><g><path d="M202.90515,354.73353c0,0 2.42585,-50.69804 2.42585,-77.06044c0,-28.47465 -2.42585,-87.93956 -2.42585,-87.93956h20.21538c0,0 -0.80862,59.33958 -0.80862,87.93956c0,26.18708 0.80862,77.06044 0.80862,77.06044z" fill="#000000" stroke="none" stroke-width="0" stroke-linecap="butt"/><g><g stroke="none" stroke-width="0" stroke-linecap="butt"><path d="M240.74772,161.40823c0,0 48.94505,-56.72278 55.82174,-91.27486c7.42768,-37.32051 -12.78111,-124.98367 -12.78111,-124.98367l16.673,3.31833c0,0 20.33101,89.86586 12.87064,127.35065c-6.83095,34.32229 -55.91126,88.90789 -55.91126,88.90789z" fill="#000000"/><path d="M318.64103,-108.73639l10.36026,37.43036c0,0 -31.1424,29.73138 -32.6818,30.31904c-0.71542,0.27312 -44.40682,-0.39491 -44.40682,-0.39491l-16.77832,-35.47591z" data-paper-data="{&quot;index&quot;:null}" fill="url(#color-1)"/></g><path d="M230.40515,155.73352c0,0 2.16,-24.88813 2.16,-37.82967c0,-13.97846 -2.16,-43.17033 -2.16,-43.17033h18c0,0 -0.72,29.13034 -0.72,43.17033c0,12.85547 0.72,37.82967 0.72,37.82967z" fill="#000000" stroke="none" stroke-width="0" stroke-linecap="butt"/><g stroke-width="2" stroke-linecap="butt"><path d="M185.13339,59.77602v-17.8737h114.33334v17.8737c0,0 -37.97231,11.17107 -57,11.17107c-19.08325,0 -57.33334,-11.17107 -57.33334,-11.17107z" fill="#000000" stroke="none"/><g data-paper-data="{&quot;index&quot;:null}" fill="#dddddd" stroke="#000000"><path d="M210.75527,63.59815l-16.52213,-0.20539l10.43951,-18.20018z"/><path d="M227.60755,65.18039l-17.51092,-1.90794l10.43952,-18.20019z"/><path d="M243.08129,66.76366l-17.51092,-1.90795l10.43951,-18.20019z"/></g><g data-paper-data="{&quot;index&quot;:null}" fill="#dddddd" stroke="#000000"><path d="M282.48898,45.1926l10.43952,18.20018l-16.52213,0.20538z"/><path d="M266.62547,45.0723l10.43951,18.2002l-17.51092,1.90794z"/><path d="M251.15175,46.65559l10.43951,18.20019l-17.51092,1.90795z"/></g><path d="M185.45258,58.23367c0.20838,-0.02056 34.70225,5.75873 57.24341,5.60336c17.83572,-0.12294 44.05563,-1.76503 54.9836,-4.39826c4.16454,-1.00351 -0.98179,18.69311 -0.98179,18.69311c0,0 -53.00359,12.49224 -54.00382,12.49224c-2.15222,0 -54.00382,-12.84915 -54.00382,-12.84915z" data-paper-data="{&quot;index&quot;:null}" fill="url(#color-2)" stroke="none"/></g><path d="M298.25986,0.06868c8.29408,-3.3325 23.88295,15.12543 33.41924,34.1994c2.98197,5.96439 7.53533,18.91533 4.6827,27.89681c-2.71283,8.54134 -12.5462,13.31709 -20.77549,11.74005c-10.7906,-2.06787 -25.62054,-70.50375 -17.32645,-73.83624z" data-paper-data="{&quot;index&quot;:null}" fill="url(#color-3)" stroke="none" stroke-width="2" stroke-linecap="butt"/><path d="M189.51196,3.06869c8.29408,3.3325 -6.53585,71.76837 -17.32645,73.83624c-8.22929,1.57704 -18.06266,-3.19871 -20.77549,-11.74005c-2.85262,-8.98148 1.70073,-21.93242 4.6827,-27.89681c9.53628,-19.07398 25.12515,-37.5319 33.41924,-34.1994z" data-paper-data="{&quot;index&quot;:null}" fill="url(#color-4)" stroke="none" stroke-width="2" stroke-linecap="butt"/><path d="M243.96067,62.87729l-10.21416,-16.80819l17.57743,-0.37122z" fill="#dddddd" stroke="#000000" stroke-width="2" stroke-linecap="butt"/><g fill="#dddddd" stroke="#000000" stroke-width="2" stroke-linecap="butt"><path d="M196.33356,59.798l-8.66557,-17.42374l16.41899,2.12957z"/><path d="M212.06842,62.12116l-8.66558,-17.42375l17.55919,0.77439z"/><path d="M227.57524,62.89556l-8.66558,-17.42375l17.55919,0.77439z"/></g><g data-paper-data="{&quot;index&quot;:null}" fill="#dddddd" stroke="#000000" stroke-width="2" stroke-linecap="butt"><path d="M282.71564,44.03922l16.41898,-2.12957l-8.66557,17.42375z"/><path d="M265.8406,45.00721l17.55919,-0.77439l-8.66559,17.42375z"/><path d="M250.33378,45.78159l17.55918,-0.77438l-8.66558,17.42374z"/></g><path d="M188.69016,2.59355c0,0 51.8516,-23.949 54.00382,-23.949c1.00023,0 54.00382,23.28376 54.00382,23.28376l3.08319,43.89938c-2.00027,0.11648 -4.00806,0.18221 -5.99494,0.409c-3.46026,0.39768 -48.82969,2.72078 -52.32969,2.72078c-3.5,0 -48.7584,-3.59855 -52.10567,-4.08424c-0.98568,-0.14302 -2.6064,-0.60477 -4.23145,-0.90374z" fill="url(#color-5)" stroke="none" stroke-width="2" stroke-linecap="butt"/><path d="M252.09207,28.40248c0,1.73991 -4.27293,3.15039 -9.54383,3.15039c-5.27092,0 -9.54382,-1.41047 -9.54382,-3.15039c0,-1.73991 4.11647,-7.04205 9.38738,-7.04205c5.27092,0 9.70028,5.30214 9.70028,7.04205z" fill="#000000" stroke="none" stroke-width="NaN" stroke-linecap="butt"/><path d="M241.9286,27.9704l0.33333,19" fill="none" stroke="#000000" stroke-width="2" stroke-linecap="round"/><path d="M218.34135,-38.48586c5.82549,1.19298 7.98332,28.59319 2.31338,40.73301c-1.90602,4.08097 -10.20354,4.84456 -12.16187,4.44353c-1.77258,-0.36301 -12.94608,-4.57418 -13.12249,-8.39037c-0.59828,-12.94183 16.95968,-38.01721 22.97096,-36.78618z" data-paper-data="{&quot;index&quot;:null}" fill="url(#color-6)" stroke="none" stroke-width="2" stroke-linecap="butt"/><path d="M263.94351,-38.53608c5.99527,-1.30674 23.86809,23.54521 23.43307,36.49356c-0.12827,3.81811 -11.24779,8.16986 -13.01563,8.55519c-1.9531,0.42571 -10.2596,-0.2332 -12.21695,-4.28981c-5.82257,-12.06737 -4.01049,-39.49257 1.79951,-40.75894z" data-paper-data="{&quot;index&quot;:null}" fill="url(#color-7)" stroke="none" stroke-width="2" stroke-linecap="butt"/><path d="M211.47689,18.98905c-12.25653,3.06267 -23.72357,-0.58208 -25.61233,-8.14075c-1.88876,-7.55867 6.51599,-16.16897 18.77251,-19.23163c12.25653,-3.06266 23.72357,0.58207 25.61233,8.14074c1.88876,7.55866 -6.51598,16.16897 -18.77251,19.23164z" data-paper-data="{&quot;index&quot;:null}" fill="#ff0000" stroke="none" stroke-width="2" stroke-linecap="butt"/><path d="M255.35847,-0.0572c1.88876,-7.55867 13.35579,-11.2034 25.61231,-8.14076c12.25654,3.06266 20.66127,11.67296 18.77251,19.23164c-1.88876,7.55868 -13.35579,11.20343 -25.61231,8.14075c-12.25653,-3.06267 -20.66127,-11.67296 -18.77251,-19.23162z" data-paper-data="{&quot;index&quot;:null}" fill="#ff0000" stroke="none" stroke-width="2" stroke-linecap="butt"/><path d="M207.92917,35.1831c0,0.35992 0.43305,5.3711 0.31323,5.57529c-0.49273,0.83967 -2.37967,-4.03401 -3.68333,-2.21563c-1.23729,1.7258 -2.08667,6.76534 -3.8799,6.76534c-1.72297,0 -2.35351,-4.94047 -3.67039,-6.56455c-1.00299,-1.23697 -1.86829,1.62799 -2.67891,1.23212c-0.68373,-0.33391 -1.4007,-3.92552 -1.4007,-4.79256c0,-3.24468 3.35787,-5.875 7.5,-5.875c4.14213,0 7.5,2.63032 7.5,5.875z" fill="url(#color-8)" stroke="none" stroke-width="0" stroke-linecap="butt"/><path d="M288.01335,29.3081c4.14213,0 7.5,2.63032 7.5,5.875c0,0.92027 -0.77888,5.76518 -2.08093,5.73488c-0.86951,-0.02023 -2.24936,-5.12334 -2.76558,-4.303c-1.43627,2.28244 -0.7207,8.69312 -2.9035,8.69312c-1.79323,0 -2.64262,-5.03954 -3.8799,-6.76534c-1.30365,-1.81838 -3.1906,3.05531 -3.68333,2.21563c-0.11982,-0.20419 0.31323,-5.21537 0.31323,-5.57529c0,-3.24468 3.35787,-5.875 7.5,-5.875z" data-paper-data="{&quot;index&quot;:null}" fill="url(#color-9)" stroke="none" stroke-width="0" stroke-linecap="butt"/><path d="M211.34304,18.96888c-10.15932,2.53862 -19.77623,0.46884 -23.8455,-4.61845c1.43967,-0.81572 9.25486,-7.23202 19.1289,-11.1133c10.02656,-3.94123 22.10758,-5.34323 22.71619,-5.51346c0.33645,0.63552 0.59648,1.30746 0.77292,2.01357c1.88876,7.55866 -6.51598,16.16897 -18.77251,19.23164z" data-paper-data="{&quot;index&quot;:null}" fill="#ff8787" stroke="none" stroke-width="2" stroke-linecap="butt"/><path d="M207.07701,13.32938c-8.62727,2.15579 -16.69882,-0.40973 -18.0283,-5.73022c-1.32948,-5.32048 4.58655,-11.3812 13.21381,-13.53699c8.62727,-2.15579 16.69882,0.40973 18.0283,5.73022c1.32948,5.32048 -4.58655,11.3812 -13.21381,13.53699z" data-paper-data="{&quot;index&quot;:null}" fill="#000000" stroke="none" stroke-width="0" stroke-linecap="butt"/><path d="M255.16267,0.1373c0.17644,-0.70611 0.43646,-1.37805 0.77291,-2.01357c0.60861,0.17022 12.68963,1.57222 22.71619,5.51346c9.87404,3.88127 17.68923,10.29757 19.1289,11.1133c-4.06928,5.08729 -13.68617,7.15707 -23.8455,4.61845c-12.25653,-3.06267 -20.66127,-11.67297 -18.77251,-19.23164z" data-paper-data="{&quot;index&quot;:null}" fill="#ff8787" stroke="none" stroke-width="2" stroke-linecap="butt"/><path d="M265.317,-0.02228c1.32948,-5.32049 9.40103,-7.886 18.0283,-5.73022c8.62727,2.15577 14.5433,8.2165 13.2138,13.53701c-1.32948,5.32048 -9.40103,7.886 -18.0283,5.73021c-8.62727,-2.15577 -14.5433,-8.2165 -13.21382,-13.53699z" data-paper-data="{&quot;index&quot;:null}" fill="#000000" stroke="none" stroke-width="0" stroke-linecap="butt"/><path d="M205.62199,2.75385c0,1.10457 -0.76112,2 -1.7,2c-0.93888,0 -1.7,-0.89543 -1.7,-2c0,-1.10457 0.76112,-2 1.7,-2c0.93888,0 1.7,0.89543 1.7,2z" fill="#ff0000" stroke="none" stroke-width="0" stroke-linecap="butt"/><path d="M282.95532,3.08718c0,1.10457 -0.76112,2 -1.7,2c-0.93888,0 -1.7,-0.89543 -1.7,-2c0,-1.10457 0.76112,-2 1.7,-2c0.93889,0 1.7,0.89543 1.7,2z" fill="#ff0000" stroke="none" stroke-width="0" stroke-linecap="butt"/><g stroke="none" stroke-width="0" stroke-linecap="butt"><path d="M255.68977,350.73353c0,0 2.42584,-50.69805 2.42584,-77.06044c0,-28.47465 -2.42584,-87.93956 -2.42584,-87.93956h20.21539c0,0 -0.80862,59.33958 -0.80862,87.93956c0,26.18708 0.80862,77.06044 0.80862,77.06044z" fill="#000000"/><path d="M194.11322,204.90059c0,0 -17.25743,-42.01185 -17.25743,-43.60163c0,-0.68872 17.25743,-42.00981 17.25743,-42.00981c0,0 43.50168,-16.49804 46.0198,-16.49804c4.00035,0 47.66337,16.49804 47.66337,16.49804c0,0 13.55941,40.79269 13.55941,42.24569c0,1.64774 -13.55941,43.36575 -13.55941,43.36575c0,0 -46.92213,18.28161 -48.48515,18.28161c-0.40499,0 -45.19802,-18.28161 -45.19802,-18.28161z" fill="url(#color-10)"/></g></g></g></g></g></svg>