<svg version="1.1" xmlns="http://www.w3.org/2000/svg" xmlns:xlink="http://www.w3.org/1999/xlink" width="164.18813" height="454.4699" viewBox="0,0,164.18813,454.4699"><defs><linearGradient x1="240.95481" y1="119.28919" x2="240.95481" y2="204.90062" gradientUnits="userSpaceOnUse" id="color-1"><stop offset="0" stop-color="#909090"/><stop offset="1" stop-color="#000000"/></linearGradient><linearGradient x1="255.88741" y1="-92.04337" x2="303.26126" y2="-42.25219" gradientUnits="userSpaceOnUse" id="color-2"><stop offset="0" stop-color="#000000"/><stop offset="1" stop-color="#909090"/></linearGradient><linearGradient x1="237.37943" y1="95.7336" x2="237.37943" y2="128.12417" gradientUnits="userSpaceOnUse" id="color-3"><stop offset="0" stop-color="#000000"/><stop offset="1" stop-color="#909090"/></linearGradient><linearGradient x1="313.08281" y1="18.69531" x2="300.689" y2="92.18484" gradientUnits="userSpaceOnUse" id="color-4"><stop offset="0" stop-color="#000000"/><stop offset="1" stop-color="#909090"/></linearGradient><linearGradient x1="165.97522" y1="22.70916" x2="187.13001" y2="94.17102" gradientUnits="userSpaceOnUse" id="color-5"><stop offset="0" stop-color="#000000"/><stop offset="1" stop-color="#909090"/></linearGradient><linearGradient x1="237.78347" y1="-12.3554" x2="237.78347" y2="57.95746" gradientUnits="userSpaceOnUse" id="color-6"><stop offset="0" stop-color="#000000"/><stop offset="1" stop-color="#909090"/></linearGradient><linearGradient x1="204.99519" y1="-29.52956" x2="204.99519" y2="15.7853" gradientUnits="userSpaceOnUse" id="color-7"><stop offset="0" stop-color="#000000"/><stop offset="1" stop-color="#b2b2b2"/></linearGradient><linearGradient x1="268.31457" y1="-29.58562" x2="268.31457" y2="15.62445" gradientUnits="userSpaceOnUse" id="color-8"><stop offset="0" stop-color="#000000"/><stop offset="1" stop-color="#b2b2b2"/></linearGradient><linearGradient x1="195.76252" y1="38.30813" x2="195.76252" y2="50.05811" gradientUnits="userSpaceOnUse" id="color-9"><stop offset="0" stop-color="#000000"/><stop offset="1" stop-color="#cecece"/></linearGradient><linearGradient x1="283.34668" y1="38.30813" x2="283.34668" y2="50.05811" gradientUnits="userSpaceOnUse" id="color-10"><stop offset="0" stop-color="#000000"/><stop offset="1" stop-color="#cecece"/></linearGradient><linearGradient x1="239.92311" y1="216.00667" x2="239.92311" y2="308.48924" gradientUnits="userSpaceOnUse" id="color-11"><stop offset="0" stop-color="#000000"/><stop offset="1" stop-color="#ffffff"/></linearGradient><linearGradient x1="235.00009" y1="118.18563" x2="235.00009" y2="232.11127" gradientUnits="userSpaceOnUse" id="color-12"><stop offset="0" stop-color="#414141"/><stop offset="1" stop-color="#000000"/></linearGradient><linearGradient x1="234.99041" y1="177.55831" x2="234.99041" y2="192.94326" gradientUnits="userSpaceOnUse" id="color-13"><stop offset="0" stop-color="#000000" stop-opacity="0"/><stop offset="1" stop-color="#000000"/></linearGradient><linearGradient x1="236.38151" y1="129.65508" x2="236.38151" y2="147.85508" gradientUnits="userSpaceOnUse" id="color-14"><stop offset="0" stop-color="#000000"/><stop offset="1" stop-color="#afa0a0"/></linearGradient><linearGradient x1="242.80198" y1="134.47367" x2="238.76835" y2="151.95965" gradientTransform="translate(-521.62373,-240.49691) rotate(-17.14579) scale(2.03946,2.62305) skewX(-9.43171)" gradientUnits="userSpaceOnUse" id="color-15"><stop offset="0" stop-color="#000000"/><stop offset="1" stop-color="#adadad"/></linearGradient><linearGradient x1="235.27944" y1="197.75247" x2="235.27944" y2="229.30897" gradientUnits="userSpaceOnUse" id="color-16"><stop offset="0" stop-color="#000000"/><stop offset="1" stop-color="#ffffff"/></linearGradient><linearGradient x1="232.27601" y1="197.75247" x2="232.27601" y2="229.30897" gradientUnits="userSpaceOnUse" id="color-17"><stop offset="0" stop-color="#000000"/><stop offset="1" stop-color="#ffffff"/></linearGradient></defs><g transform="translate(-160.46827,99.73635)"><g data-paper-data="{&quot;isPaintingLayer&quot;:true}" fill-rule="nonzero" stroke-linejoin="miter" stroke-miterlimit="10" stroke-dasharray="" stroke-dashoffset="0" style="mix-blend-mode: normal"><g stroke="none" stroke-width="0" stroke-linecap="butt"><path d="M202.90516,354.73356c0,0 2.42585,-50.69804 2.42585,-77.06044c0,-28.47465 -2.42585,-87.93956 -2.42585,-87.93956h20.21538c0,0 -0.80862,59.33958 -0.80862,87.93956c0,26.18708 0.80862,77.06044 0.80862,77.06044z" fill="#000000"/><g><path d="M255.68978,350.73356c0,0 2.42584,-50.69805 2.42584,-77.06044c0,-28.47465 -2.42584,-87.93956 -2.42584,-87.93956h20.21539c0,0 -0.80862,59.33958 -0.80862,87.93956c0,26.18708 0.80862,77.06044 0.80862,77.06044z" fill="#000000"/><path d="M194.11323,204.90062c0,0 -17.25743,-42.01185 -17.25743,-43.60163c0,-0.68872 17.25743,-42.00981 17.25743,-42.00981c0,0 43.50168,-16.49804 46.0198,-16.49804c4.00035,0 47.66337,16.49804 47.66337,16.49804c0,0 13.55941,40.79269 13.55941,42.24569c0,1.64774 -13.55941,43.36575 -13.55941,43.36575c0,0 -46.92213,18.28161 -48.48515,18.28161c-0.40499,0 -45.19802,-18.28161 -45.19802,-18.28161z" fill="url(#color-1)"/></g></g><g stroke="none" stroke-width="0" stroke-linecap="butt"><path d="M236.08107,170.40826c0,0 48.94505,-56.72278 55.82174,-91.27486c7.42768,-37.32051 -12.78111,-124.98367 -12.78111,-124.98367l16.673,3.31833c0,0 20.33101,89.86586 12.87064,127.35065c-6.83095,34.32229 -55.91126,88.90789 -55.91126,88.90789z" fill="#000000"/><path d="M313.97436,-99.73634l10.36026,37.43036c0,0 -31.1424,29.73138 -32.6818,30.31904c-0.71542,0.27312 -44.40682,-0.39491 -44.40682,-0.39491l-16.77832,-35.47591z" data-paper-data="{&quot;index&quot;:null}" fill="url(#color-2)"/></g><path d="M225.40516,168.73355c0,0 2.16,-24.88813 2.16,-37.82967c0,-13.97846 -2.16,-43.17033 -2.16,-43.17033h18c0,0 -0.72,29.13034 -0.72,43.17033c0,12.85547 0.72,37.82967 0.72,37.82967z" fill="#000000" stroke="none" stroke-width="0" stroke-linecap="butt"/><g stroke-width="2" stroke-linecap="butt"><path d="M180.1334,97.27604l3.16666,-50.70704l105.00001,3.66667c0,0 2.58049,1.02323 2.66166,2.55934c0.24767,4.6869 3.505,44.48103 3.505,44.48103c0,0 -37.97231,11.17107 -57,11.17107c-19.08325,0 -57.33334,-11.17107 -57.33334,-11.17107z" fill="#000000" stroke="none"/><g data-paper-data="{&quot;index&quot;:null}" fill="#dddddd" stroke="#000000"><path d="M205.75528,101.09819l-16.52213,-0.20539l10.43951,-18.20018z"/><path d="M222.60756,102.68041l-17.51092,-1.90794l10.43952,-18.20019z"/><path d="M238.0813,104.26369l-17.51092,-1.90795l10.43951,-18.20019z"/></g><g data-paper-data="{&quot;index&quot;:null}" fill="#dddddd" stroke="#000000"><path d="M277.48899,82.69263l10.43952,18.20018l-16.52213,0.20538z"/><path d="M261.62548,82.57233l10.43951,18.2002l-17.51092,1.90794z"/><path d="M246.15176,84.15562l10.43951,18.20019l-17.51092,1.90795z"/></g><path d="M180.45259,95.73369c0.20838,-0.02056 34.70225,5.75873 57.24341,5.60336c17.83572,-0.12294 44.05563,-1.76503 54.9836,-4.39826c4.16454,-1.00351 -0.98179,18.69311 -0.98179,18.69311c0,0 -53.00359,12.49224 -54.00382,12.49224c-2.15222,0 -54.00382,-12.84915 -54.00382,-12.84915z" data-paper-data="{&quot;index&quot;:null}" fill="url(#color-3)" stroke="none"/></g><path d="M294.97958,16.04007c8.73278,-1.9068 21.03505,18.88652 27.26656,39.28077c1.94858,6.37724 4.2848,19.90506 -0.02172,28.28709c-4.09547,7.97126 -14.58612,11.04523 -22.43856,8.12163c-10.29646,-3.83354 -13.53908,-73.78268 -4.80629,-75.68947z" data-paper-data="{&quot;index&quot;:null}" fill="url(#color-4)" stroke="none" stroke-width="2" stroke-linecap="butt"/><path d="M183.62686,17.89287c8.89887,0.84113 14.10463,70.6716 4.34485,75.71736c-7.44315,3.84808 -18.22767,2.06 -23.2534,-5.35998c-5.2847,-7.80233 -4.5948,-21.51305 -3.4285,-28.07855c3.72983,-20.99633 13.43817,-43.11998 22.33704,-42.27885z" data-paper-data="{&quot;index&quot;:null}" fill="url(#color-5)" stroke="none" stroke-width="2" stroke-linecap="butt"/><path d="M239.29402,71.87732l-10.21416,-16.80819l17.57743,-0.37122z" fill="#dddddd" stroke="#000000" stroke-width="2" stroke-linecap="butt"/><g fill="#dddddd" stroke="#000000" stroke-width="2" stroke-linecap="butt"><path d="M191.66691,68.79805l-8.66557,-17.42374l16.41899,2.12957z"/><path d="M207.40177,71.12121l-8.66558,-17.42375l17.55919,0.77439z"/><path d="M222.90859,71.89558l-8.66558,-17.42375l17.55919,0.77439z"/></g><g data-paper-data="{&quot;index&quot;:null}" fill="#dddddd" stroke="#000000" stroke-width="2" stroke-linecap="butt"><path d="M278.04899,53.03924l16.41898,-2.12957l-8.66557,17.42375z"/><path d="M261.17393,54.00725l17.55919,-0.77439l-8.66559,17.42375z"/><path d="M245.66713,54.78161l17.55918,-0.77438l-8.66558,17.42374z"/></g><path d="M184.02351,11.59359c0,0 51.8516,-23.949 54.00382,-23.949c1.00023,0 54.00382,23.28376 54.00382,23.28376l3.08319,43.89938c-2.00027,0.11648 -4.00806,0.18221 -5.99494,0.409c-3.46026,0.39768 -48.82969,2.72078 -52.32969,2.72078c-3.5,0 -48.7584,-3.59855 -52.10567,-4.08424c-0.98568,-0.14302 -2.6064,-0.60477 -4.23145,-0.90374z" fill="url(#color-6)" stroke="none" stroke-width="2" stroke-linecap="butt"/><path d="M247.42542,37.40251c0,1.73991 -4.27293,3.15039 -9.54383,3.15039c-5.27092,0 -9.54382,-1.41047 -9.54382,-3.15039c0,-1.73991 4.11647,-7.04205 9.38738,-7.04205c5.27092,0 9.70028,5.30214 9.70028,7.04205z" fill="#000000" stroke="none" stroke-width="NaN" stroke-linecap="butt"/><path d="M237.26195,36.97044l0.33333,19" fill="none" stroke="#000000" stroke-width="2" stroke-linecap="round"/><path d="M213.6747,-29.48583c5.82549,1.19298 7.98332,28.59319 2.31338,40.73301c-1.90602,4.08097 -10.20354,4.84456 -12.16187,4.44353c-1.77258,-0.36301 -12.94608,-4.57418 -13.12249,-8.39037c-0.59828,-12.94183 16.95968,-38.01721 22.97096,-36.78618z" data-paper-data="{&quot;index&quot;:null}" fill="url(#color-7)" stroke="none" stroke-width="2" stroke-linecap="butt"/><path d="M259.27684,-29.53606c5.99527,-1.30674 23.86809,23.54521 23.43307,36.49356c-0.12827,3.81811 -11.24779,8.16986 -13.01563,8.55519c-1.9531,0.42571 -10.2596,-0.2332 -12.21695,-4.28981c-5.82257,-12.06737 -4.01049,-39.49257 1.79951,-40.75894z" data-paper-data="{&quot;index&quot;:null}" fill="url(#color-8)" stroke="none" stroke-width="2" stroke-linecap="butt"/><path d="M206.81024,27.98909c-12.25653,3.06267 -23.72357,-0.58208 -25.61233,-8.14075c-1.88876,-7.55867 6.51599,-16.16897 18.77251,-19.23163c12.25653,-3.06266 23.72357,0.58207 25.61233,8.14074c1.88876,7.55866 -6.51598,16.16897 -18.77251,19.23164z" data-paper-data="{&quot;index&quot;:null}" fill="#ff0000" stroke="none" stroke-width="2" stroke-linecap="butt"/><path d="M250.69182,8.94282c1.88876,-7.55867 13.35579,-11.2034 25.61231,-8.14076c12.25654,3.06266 20.66127,11.67296 18.77251,19.23164c-1.88876,7.55868 -13.35579,11.20343 -25.61231,8.14075c-12.25653,-3.06267 -20.66127,-11.67296 -18.77251,-19.23162z" data-paper-data="{&quot;index&quot;:null}" fill="#ff0000" stroke="none" stroke-width="2" stroke-linecap="butt"/><path d="M203.26252,44.18313c0,0.35992 0.43305,5.3711 0.31323,5.57529c-0.49273,0.83967 -2.37967,-4.03401 -3.68333,-2.21563c-1.23729,1.7258 -2.08667,6.76534 -3.8799,6.76534c-1.72297,0 -2.35351,-4.94047 -3.67039,-6.56455c-1.00299,-1.23697 -1.86829,1.62799 -2.67891,1.23212c-0.68373,-0.33391 -1.4007,-3.92552 -1.4007,-4.79256c0,-3.24468 3.35787,-5.875 7.5,-5.875c4.14213,0 7.5,2.63032 7.5,5.875z" fill="url(#color-9)" stroke="none" stroke-width="0" stroke-linecap="butt"/><path d="M283.34668,38.30813c4.14213,0 7.5,2.63032 7.5,5.875c0,0.92027 -0.77888,5.76518 -2.08093,5.73488c-0.86951,-0.02023 -2.24936,-5.12334 -2.76558,-4.303c-1.43627,2.28244 -0.7207,8.69312 -2.9035,8.69312c-1.79323,0 -2.64262,-5.03954 -3.8799,-6.76534c-1.30365,-1.81838 -3.1906,3.05531 -3.68333,2.21563c-0.11982,-0.20419 0.31323,-5.21537 0.31323,-5.57529c0,-3.24468 3.35787,-5.875 7.5,-5.875z" data-paper-data="{&quot;index&quot;:null}" fill="url(#color-10)" stroke="none" stroke-width="0" stroke-linecap="butt"/><path d="M206.67639,27.96892c-10.15932,2.53862 -19.77623,0.46884 -23.8455,-4.61845c1.43967,-0.81572 9.25486,-7.23202 19.1289,-11.1133c10.02656,-3.94123 22.10758,-5.34323 22.71619,-5.51346c0.33645,0.63552 0.59648,1.30746 0.77292,2.01357c1.88876,7.55866 -6.51598,16.16897 -18.77251,19.23164z" data-paper-data="{&quot;index&quot;:null}" fill="#ff8787" stroke="none" stroke-width="2" stroke-linecap="butt"/><path d="M204.73333,27.0045c-6.64888,1.66142 -12.86946,-0.31577 -13.89407,-4.41617c-1.02461,-4.10039 3.53477,-8.77128 10.18363,-10.4327c6.64888,-1.66142 12.86947,0.31577 13.89407,4.41617c1.02461,4.1004 -3.53477,8.77127 -10.18364,10.4327z" data-paper-data="{&quot;index&quot;:null}" fill="#000000" stroke="none" stroke-width="0" stroke-linecap="butt"/><path d="M250.49602,9.13734c0.17644,-0.70611 0.43646,-1.37805 0.77291,-2.01357c0.60861,0.17022 12.68963,1.57222 22.71619,5.51346c9.87404,3.88127 17.68923,10.29757 19.1289,11.1133c-4.06928,5.08729 -13.68617,7.15707 -23.8455,4.61845c-12.25653,-3.06267 -20.66127,-11.67297 -18.77251,-19.23164z" data-paper-data="{&quot;index&quot;:null}" fill="#ff8787" stroke="none" stroke-width="2" stroke-linecap="butt"/><path d="M258.27766,16.32659c1.04913,-4.19857 7.41865,-6.22309 14.22671,-4.5219c6.80806,1.70119 11.47658,6.48391 10.42743,10.68249c-1.04913,4.19856 -7.41865,6.2231 -14.22671,4.5219c-6.80806,-1.70119 -11.47658,-6.4839 -10.42745,-10.68247z" data-paper-data="{&quot;index&quot;:null}" fill="#000000" stroke="none" stroke-width="0" stroke-linecap="butt"/><path d="M204.75534,19.75387c0,1.10457 -0.76112,2 -1.7,2c-0.93888,0 -1.7,-0.89543 -1.7,-2c0,-1.10457 0.76112,-2 1.7,-2c0.93888,0 1.7,0.89543 1.7,2z" fill="#ff0000" stroke="none" stroke-width="0" stroke-linecap="butt"/><path d="M272.28866,19.0872c0,1.10457 -0.76112,2 -1.7,2c-0.93888,0 -1.7,-0.89543 -1.7,-2c0,-1.10457 0.76112,-2 1.7,-2c0.93889,0 1.7,0.89543 1.7,2z" fill="#ff0000" stroke="none" stroke-width="0" stroke-linecap="butt"/><path d="M266.10005,106.96432c0,7.45584 -7.72309,13.5 -17.25,13.5c-9.52691,0 -17.25,-6.04416 -17.25,-13.5c0,-7.45584 7.72309,-13.5 17.25,-13.5c9.52691,0 17.25,6.04416 17.25,13.5z" fill="#a8a8a8" stroke="none" stroke-width="0" stroke-linecap="butt"/><path d="M271.60005,94.58932c0,3.24467 -2.91015,5.875 -6.5,5.875c-3.58985,0 -6.5,-2.63033 -6.5,-5.875c0,-3.24467 2.91015,-5.875 6.5,-5.875c3.58985,0 6.5,2.63033 6.5,5.875z" fill="#a8a8a8" stroke="none" stroke-width="0" stroke-linecap="butt"/><path d="M269.85005,104.46432c0,2.20914 -2.07068,4 -4.625,4c-2.55432,0 -4.625,-1.79086 -4.625,-4c0,-2.20914 2.07068,-4 4.625,-4c2.55432,0 4.625,1.79086 4.625,4z" fill="#a8a8a8" stroke="none" stroke-width="0" stroke-linecap="butt"/><path d="M276.60005,101.46432c0,0.69036 -0.95139,1.25 -2.125,1.25c-1.17361,0 -2.125,-0.55964 -2.125,-1.25c0,-0.69036 0.95139,-1.25 2.125,-1.25c1.17361,0 2.125,0.55964 2.125,1.25z" fill="#a8a8a8" stroke="none" stroke-width="0" stroke-linecap="butt"/><path d="M206.10005,55.96433c0,2.48528 -2.85418,4.5 -6.375,4.5c-3.52082,0 -6.375,-2.01472 -6.375,-4.5c0,-2.48528 2.85418,-4.5 6.375,-4.5c3.52082,0 6.375,2.01472 6.375,4.5z" fill="#a8a8a8" stroke="none" stroke-width="0" stroke-linecap="butt"/><path d="M196.60005,54.96433c0,1.10457 -1.11929,2 -2.5,2c-1.38071,0 -2.5,-0.89543 -2.5,-2c0,-1.10457 1.11929,-2 2.5,-2c1.38071,0 2.5,0.89543 2.5,2z" fill="#a8a8a8" stroke="none" stroke-width="0" stroke-linecap="butt"/><path d="M196.35005,51.21433c0,0.9665 -1.45507,1.75 -3.25,1.75c-1.79493,0 -3.25,-0.7835 -3.25,-1.75c0,-0.9665 1.45507,-1.75 3.25,-1.75c1.79493,0 3.25,0.7835 3.25,1.75z" fill="#a8a8a8" stroke="none" stroke-width="0" stroke-linecap="butt"/><path d="M206.35005,50.08933c0,2.41625 -1.567,4.375 -3.5,4.375c-1.933,0 -3.5,-1.95875 -3.5,-4.375c0,-2.41625 1.567,-4.375 3.5,-4.375c1.933,0 3.5,1.95875 3.5,4.375z" fill="#a8a8a8" stroke="none" stroke-width="0" stroke-linecap="butt"/><path d="M207.85005,49.96433c0,2.62335 -2.35051,4.75 -5.25,4.75c-2.89949,0 -5.25,-2.12665 -5.25,-4.75c0,-2.62335 2.35051,-4.75 5.25,-4.75c2.89949,0 5.25,2.12665 5.25,4.75z" fill="#a8a8a8" stroke="none" stroke-width="0" stroke-linecap="butt"/><path d="M206.67311,308.48924l15.14285,-92.37211l37.78325,-0.11061l13.57389,92.48274z" fill="url(#color-11)" stroke="none" stroke-width="2" stroke-linecap="butt"/><g stroke="#000000" stroke-width="2"><path d="M228.67865,252.77761l-0.4697,-34.69326" fill="none" stroke-linecap="round"/><path d="M228.67865,253.35104c1.90232,0 3.44445,1.21238 3.44445,2.70792c0,1.49554 -1.54214,2.70792 -3.44445,2.70792c-1.90232,0 -3.44445,-1.21238 -3.44445,-2.70792c0,-1.49554 1.54214,-2.70792 3.44445,-2.70792z" fill="#000000" stroke-linecap="butt"/></g><g data-paper-data="{&quot;index&quot;:null}" stroke="#000000" stroke-width="2"><path d="M251.67864,253.71681l0.4697,-31.28216" fill="none" stroke-linecap="round"/><path d="M255.12308,256.67539c0,1.3485 -1.54213,2.44166 -3.44445,2.44166c-1.90231,0 -3.44445,-1.09318 -3.44445,-2.44166c0,-1.3485 1.54213,-2.44168 3.44445,-2.44168c1.90231,0 3.44445,1.09319 3.44445,2.44168z" fill="#000000" stroke-linecap="butt"/></g><path d="M208.70009,133.95752l-2.4,-12.8c0,0 4.8021,-2.44509 13.39741,-2.2716c10.93744,0.22076 26.44517,-0.26174 32.86926,-0.26174c0.75641,0 19.73333,5.13334 19.73333,5.13334v10.2c0,0 -33.40202,19.5 -43.24174,19.5c-11.18693,0 -20.35826,-19.5 -20.35826,-19.5z" fill="#000000" stroke="none" stroke-width="0" stroke-linecap="butt"/><path d="M170.76307,171.81286c0,-23.35737 14.14812,-43.61289 34.8388,-53.62733c0.88189,0.63823 16.68245,26.24696 19.78755,27.60578c2.98074,-1.75928 11.96491,-12.02377 14.96517,-13.54678c0.07163,-0.16169 8.23761,2.46048 8.50615,2.13824c0.48193,-0.57832 3.75251,3.01737 4.73278,2.62968c0.36388,-0.14391 10.55111,-6.94976 11.0661,-7.27461c0.39067,-0.24643 2.04213,-9.8178 2.2646,-10.26159c19.30762,10.39965 32.31288,29.94248 32.31288,52.3366c0,33.30185 -28.7599,60.29833 -64.23702,60.29833c-35.47712,0 -64.23702,-26.99649 -64.23702,-60.29833z" fill="url(#color-12)" stroke="none" stroke-width="2" stroke-linecap="butt"/><path d="M184.3133,172.2424c0,-12.968 10.51265,-23.48065 23.48065,-23.48065c12.968,0 23.48065,10.51265 23.48065,23.48065c0,12.968 -10.51265,23.48065 -23.48065,23.48065c-12.968,0 -23.48065,-10.51265 -23.48065,-23.48065z" fill="#ff0000" stroke="none" stroke-width="2" stroke-linecap="butt"/><path d="M262.0523,195.72319c-12.968,0 -23.48065,-10.51265 -23.48065,-23.48065c0,-12.968 10.51265,-23.48065 23.48065,-23.48065c12.968,0 23.48065,10.51265 23.48065,23.48065c0,12.968 -10.51265,23.48065 -23.48065,23.48065z" data-paper-data="{&quot;index&quot;:null}" fill="#ff0000" stroke="none" stroke-width="2" stroke-linecap="butt"/><path d="M196.95096,143.43388c0,0 6.70895,-5.16922 11.79721,-6.36355c5.08827,-1.19433 12.33413,0.69937 12.33413,0.69937c0,0 -8.03812,-0.06028 -11.96762,0.86207c-4.10648,0.96389 -12.16372,4.80211 -12.16372,4.80211z" fill="#000000" stroke="none" stroke-width="0" stroke-linecap="butt"/><path d="M260.88538,138.63185c-3.9295,-0.92235 -11.96762,-0.86207 -11.96762,-0.86207c0,0 7.24586,-1.8937 12.33413,-0.69937c5.08826,1.19433 11.79721,6.36355 11.79721,6.36355c0,0 -8.05724,-3.83822 -12.16372,-4.80211z" data-paper-data="{&quot;index&quot;:null}" fill="#000000" stroke="none" stroke-width="0" stroke-linecap="butt"/><path d="M191.1787,154.16695l-4.66666,-3.33333" fill="none" stroke="#000000" stroke-width="2" stroke-linecap="round"/><path d="M199.43463,143.00498l1.50717,5.53329" fill="none" stroke="#000000" stroke-width="2" stroke-linecap="round"/><g data-paper-data="{&quot;index&quot;:null}" fill="none" stroke="#000000" stroke-width="2" stroke-linecap="round"><path d="M279.49653,153.00964l4.66666,-3.33333"/><path d="M271.58344,143.07637l-1.50716,5.53329"/></g><path d="M207.72777,195.92323c-11.91039,0 -21.73472,-8.99568 -23.14064,-20.60921c1.17525,0.11467 45.97846,-0.06495 46.41361,-0.08003c-0.71485,12.32029 -10.86122,20.68924 -23.27297,20.68924z" fill="#ff4242" stroke="none" stroke-width="2" stroke-linecap="butt"/><path d="M191.32865,172.16674c0,-9.12808 7.39976,-16.52784 16.52783,-16.52784c9.12808,0 16.52784,7.39977 16.52784,16.52784c0,9.12808 -7.39977,16.52784 -16.52784,16.52784c-9.12808,0 -16.52783,-7.39977 -16.52783,-16.52784z" fill="#000000" stroke="none" stroke-width="0" stroke-linecap="butt"/><path d="M238.75377,174.73393c0.43515,0.01507 45.23836,0.1947 46.41361,0.08003c-1.40593,11.61354 -11.23026,20.60922 -23.14065,20.60922c-12.41175,0 -22.55811,-8.36895 -23.27296,-20.68924z" data-paper-data="{&quot;index&quot;:null}" fill="#ff4242" stroke="none" stroke-width="2" stroke-linecap="butt"/><path d="M261.83981,188.79474c-9.12807,0 -16.52783,-7.39977 -16.52783,-16.52784c0,-9.12808 7.39977,-16.52784 16.52783,-16.52784c9.12807,0 16.52783,7.39977 16.52783,16.52784c0,9.12808 -7.39977,16.52784 -16.52783,16.52784z" data-paper-data="{&quot;index&quot;:null}" fill="#000000" stroke="none" stroke-width="0" stroke-linecap="butt"/><path d="M207.79709,185.00007c-0.32217,0 -0.32216,-25.16666 0,-25.16666c0.32217,0 0.32216,25.16666 0,25.16666z" fill="#ff0000" stroke="#ff0000" stroke-width="2" stroke-linecap="butt"/><path d="M261.96373,184.66679c-0.32217,0 -0.32216,-25.16666 0,-25.16666c0.32217,0 0.32216,25.16666 0,25.16666z" fill="#ff0000" stroke="#ff0000" stroke-width="2" stroke-linecap="butt"/><path d="M219.96159,192.94326c0,0 5.36055,-3.3035 6.90354,-5.55544c1.89715,-2.76881 3.63799,-9.8295 3.63799,-9.8295h8.97455c0,0 2.65543,8.58011 4.2887,11.35407c0.90879,1.5435 4.68585,3.88841 4.68585,3.88841c0,0 -8.59094,-2.0974 -12.96151,-2.07555c-5.03262,0.02516 -15.52913,2.218 -15.52913,2.218z" fill="url(#color-13)" stroke="none" stroke-width="NaN" stroke-linecap="butt"/><path d="M256.38146,138.75509c0,5.02579 -8.95431,10.67143 -20,10.67143c-2.14223,0 -7.10831,-0.21282 -9.57955,-1.29577c-0.8648,-0.37897 -3.5766,-1.29684 -4.63601,-2.55067c-4.7847,-5.66282 -9.11743,-18.17871 -9.90086,-18.85336c-0.73438,-0.63242 10.55646,17.53276 13.31229,18.61587c0.70511,0.27713 2.35906,-1.97321 2.51841,-1.97321c0.40849,0 12.06562,-11.55549 12.46993,-11.68586c0.03379,-0.0109 4.51863,1.97973 7.11568,2.76936c0.7593,0.23087 2.14111,-0.03287 2.22987,0.00732c1.13127,0.51228 6.47023,4.29141 6.47023,4.2949z" fill="url(#color-14)" stroke="none" stroke-width="0" stroke-linecap="butt"/><text transform="translate(233.9275,146.23665) rotate(12.98994) scale(0.5,0.37386) skewX(0.00019)" font-size="40" xml:space="preserve" fill="url(#color-15)" fill-rule="nonzero" stroke="none" stroke-width="1" stroke-linecap="butt" stroke-linejoin="miter" stroke-miterlimit="10" stroke-dasharray="" stroke-dashoffset="0" font-family="Handwriting" font-weight="normal" text-anchor="start" style="mix-blend-mode: normal"><tspan x="0" dy="0">8</tspan></text><path d="M236.49982,126.76171c0,0.5 -0.5,0.5 -0.5,0.5l-0.9199,-0.00646c-0.9272,0.13671 -0.10554,2.41166 0.0428,2.95051c0.12993,0.472 0.25831,0.92521 0.38959,1.36594c0.62985,-3.42136 4.68194,-5.24873 7.80652,-5.96022c1.70362,-0.24186 4.60184,-0.62176 6.01613,0.57917c0.9658,0.8201 1.0274,2.35755 1.3074,3.47964c0.77499,3.10575 1.45265,6.8972 1.45746,10.09141c0,0.88598 0.35757,2.77516 -0.03806,3.59134c-0.66397,1.36975 -2.68918,0.66968 -3.29717,-0.34524c-0.80332,-1.34097 -0.30125,-3.13976 -0.46133,-4.58765c-0.222,-2.00795 -1.05117,-4.30514 -0.97777,-6.30034c-1.6123,-2.17083 -4.91021,0.18711 -5.65303,2.00504c-0.98121,2.40138 -0.18825,6.90148 0.22137,9.35962c0.98542,6.74716 0.09211,12.2805 -2.46925,18.53758c-1.81605,2.25335 -3.39501,1.1958 -3.11832,-1.33022c0.49304,-4.50119 2.19356,-8.76342 2.19356,-13.33014c0,-2.19815 0.30159,-5.02298 -0.3026,-7.34275c-0.08946,-0.0397 -0.16512,-0.10489 -0.21773,-0.18635l-0.3957,-0.59355l0.10479,-0.06986c-0.51951,-0.6224 -0.95976,-1.3383 -1.34053,-2.10597c-1.19725,-1.09027 -2.8101,-2.15366 -2.85795,-1.00346c0,0 -0.09806,0.4903 -0.58835,0.39223c-0.49029,-0.09806 -0.39223,-0.58835 -0.39223,-0.58835c0.4552,-1.58407 1.73875,-1.47731 3.01729,-0.75268c-0.56913,-1.57891 -0.97894,-3.22334 -1.36829,-4.64c-0.43024,-1.56541 -1.08146,-3.46759 0.7612,-4.20281l1.08009,-0.00646c0,0 0.5,0 0.5,0.5z" fill="#000000" stroke="none" stroke-width="0.5" stroke-linecap="butt"/><path d="M251.99981,146.46172c0,0.49705 -0.6268,0.9 -1.4,0.9c-0.7732,0 -1.4,-0.40295 -1.4,-0.9c0,-0.49705 0.6268,-0.9 1.4,-0.9c0.7732,0 1.4,0.40295 1.4,0.9z" fill="#000000" stroke="none" stroke-width="0" stroke-linecap="butt"/><path d="M206.73483,123.12138c-0.07492,-0.85255 -0.01364,-1.62875 0.37265,-1.96527c0.13564,-0.11817 1.66875,0.26991 1.86297,0.33563c1.47993,0.50077 3.46778,1.41453 4.58294,2.51644c1.04084,1.0472 2.55086,1.87143 3.43864,3.04341c1.46724,1.93694 1.10781,4.63531 1.10781,6.91014c0,0.75686 0.28905,3.39356 -0.3691,3.97484c-1.32193,1.16754 -2.08315,-1.64458 -2.21872,-2.26514c-0.34575,-1.40411 -0.84138,-2.76492 -1.19725,-4.18843c-0.00761,-0.03042 -0.32415,-1.29546 -0.39341,-1.57646c0.03077,3.13439 -0.23887,6.31292 0.52409,9.3839c0.36153,1.48566 0.53209,3.61449 0.24797,5.14093c-0.1635,0.87844 -0.33494,2.24495 -1.66045,1.07009c-1.38976,-1.23181 0.30121,-5.09959 -0.65847,-6.67685c-0.50171,-0.82459 -1.95817,-0.2082 -2.78029,-0.97052c-1.63792,-3.23412 -2.89214,-8.4591 -2.89438,-12.09235c-0.00057,-0.93318 -0.16906,-1.85327 0.035,-2.64035zM207.81432,121.85528c-0.08189,-0.03428 -0.13341,-0.03343 -0.1382,0.02238c0.04102,-0.01198 0.08802,-0.0211 0.1382,-0.02238z" fill="#000000" stroke="none" stroke-width="0.5" stroke-linecap="butt"/><path d="M214.19983,146.86171c0,0.49705 -0.35817,0.9 -0.8,0.9c-0.44183,0 -0.8,-0.40295 -0.8,-0.9c0,-0.49705 0.35817,-0.9 0.8,-0.9c0.44183,0 0.8,0.40295 0.8,0.9z" fill="#000000" stroke="none" stroke-width="0" stroke-linecap="butt"/><path d="M262.29978,128.99504c0,-0.07778 0,-0.15556 0,-0.23334c0.00964,-1.61352 1.09296,-5.05203 2.35699,-6.16379c0.91197,-0.80212 1.4534,-0.21599 1.82157,0.61889c0.28469,0.64557 0.02145,2.05064 0.02145,2.74489c0,2.57789 -0.14256,5.06085 -0.40062,7.62491c0.00203,3.1917 0.00062,6.3834 0.00062,9.57509c0,0.74466 0.29505,2.48349 -0.29129,3.08802c-2.28431,2.35522 -1.47347,-4.48362 -1.54584,-4.06269c-0.59641,0.18985 -1.31545,0.62118 -1.86849,-0.13298c-0.62329,-0.84995 -0.02538,-3.8341 0.10937,-4.75344c0.08988,-0.61322 0.12618,-1.23712 0.1175,-1.86453c-0.32124,-0.10209 -0.32125,-0.47438 -0.32125,-0.47438c0,-0.52873 0,-1.85746 0,-2.38619c-0.2695,-1.33394 -0.68596,-2.63366 -1.16424,-3.82811c0,0 -0.1857,-0.46424 0.27854,-0.64993c0.46424,-0.18569 0.64994,0.27854 0.64994,0.27854c0.08288,0.20741 0.1614,0.41367 0.23576,0.61904z" fill="#000000" stroke="none" stroke-width="0.5" stroke-linecap="butt"/><path d="M231.66123,183.5558l0.4,-8" fill="none" stroke="#000000" stroke-width="0.5" stroke-linecap="round"/><path d="M234.76122,186.75583l-0.5,-10.2" fill="none" stroke="#000000" stroke-width="0.5" stroke-linecap="round"/><path d="M237.16123,175.65583l0.6,2.7" fill="none" stroke="#000000" stroke-width="0.5" stroke-linecap="round"/><path d="M232.86121,172.75582l-0.1,1.4" fill="none" stroke="#000000" stroke-width="0.5" stroke-linecap="round"/><path d="M236.06123,171.15578v2.2" fill="none" stroke="#000000" stroke-width="0.5" stroke-linecap="round"/><g stroke="none" stroke-width="0" stroke-linecap="butt"><path d="M246.64109,215.90648c0,9.34489 -5.60952,16.92044 -12.52918,16.92044c-6.91966,0 -12.52918,-7.57553 -12.52918,-16.92042c0,-9.34489 5.60949,-16.92042 12.52918,-16.92042c6.91966,0 12.52918,7.57553 12.52918,16.92044z" fill="#000000"/><path d="M233.89522,199.26865c2.0098,0 3.84132,0.41978 6.02938,1.48061c0.49992,0.24237 1.01846,2.09562 1.56198,2.19409c-0.70896,1.41842 -3.4501,6.34427 -3.49247,6.28749c-0.33709,-0.45172 -4.42889,-9.96216 -4.09887,-9.96216z" fill="url(#color-16)"/><path d="M229.56136,209.2308c-0.04238,0.05675 -2.78349,-4.86913 -3.49246,-6.28754c0.35773,-0.06482 2.2052,-2.14459 4.31202,-3.21127c1.09429,-0.55401 2.59229,-0.4634 3.27933,-0.4634c0.33001,0 -3.76177,9.51046 -4.09887,9.96218z" data-paper-data="{&quot;index&quot;:null}" fill="url(#color-17)"/></g></g></g></svg>