<svg version="1.1" xmlns="http://www.w3.org/2000/svg" xmlns:xlink="http://www.w3.org/1999/xlink" width="259.51795" height="432.62547" viewBox="0,0,259.51795,432.62547"><defs><linearGradient x1="192.09995" y1="113.87743" x2="211.66541" y2="138.7329" gradientUnits="userSpaceOnUse" id="color-1"><stop offset="0" stop-color="#000000"/><stop offset="1" stop-color="#7ebb78"/></linearGradient><linearGradient x1="197.39639" y1="128.35709" x2="218.4397" y2="146.27695" gradientUnits="userSpaceOnUse" id="color-2"><stop offset="0" stop-color="#000000"/><stop offset="1" stop-color="#7ebb78"/></linearGradient><linearGradient x1="202.86497" y1="134.13807" x2="227.71448" y2="145.38351" gradientUnits="userSpaceOnUse" id="color-3"><stop offset="0" stop-color="#000000"/><stop offset="1" stop-color="#7ebb78"/></linearGradient><linearGradient x1="264.22604" y1="70.35835" x2="278.57093" y2="208.48102" gradientUnits="userSpaceOnUse" id="color-4"><stop offset="0" stop-color="#000000"/><stop offset="1" stop-color="#f5d7d7"/></linearGradient><linearGradient x1="263.86935" y1="70.09082" x2="278.21424" y2="208.2135" gradientUnits="userSpaceOnUse" id="color-5"><stop offset="0" stop-color="#000000"/><stop offset="1" stop-color="#c88989"/></linearGradient><linearGradient x1="243.1496" y1="94.50785" x2="243.1496" y2="316.59794" gradientUnits="userSpaceOnUse" id="color-6"><stop offset="0" stop-color="#000000"/><stop offset="1" stop-color="#d93838"/></linearGradient><linearGradient x1="235.83005" y1="95.66409" x2="235.83005" y2="142.90102" gradientUnits="userSpaceOnUse" id="color-7"><stop offset="0" stop-color="#000000"/><stop offset="1" stop-color="#f5d7d7"/></linearGradient><linearGradient x1="248.60249" y1="95.66411" x2="248.60249" y2="142.49396" gradientUnits="userSpaceOnUse" id="color-8"><stop offset="0" stop-color="#000000"/><stop offset="1" stop-color="#f5b4b4"/></linearGradient><linearGradient x1="218.69271" y1="95.66411" x2="218.69271" y2="141.11135" gradientUnits="userSpaceOnUse" id="color-9"><stop offset="0" stop-color="#000000"/><stop offset="1" stop-color="#f5b4b4"/></linearGradient><linearGradient x1="238.37011" y1="-61.45908" x2="221.65228" y2="8.36485" gradientUnits="userSpaceOnUse" id="color-10"><stop offset="0" stop-color="#000000"/><stop offset="1" stop-color="#7ebb78"/></linearGradient><linearGradient x1="224.11312" y1="-59.02665" x2="245.0232" y2="9.65839" gradientUnits="userSpaceOnUse" id="color-11"><stop offset="0" stop-color="#000000"/><stop offset="1" stop-color="#7ebb78"/></linearGradient><linearGradient x1="235.01976" y1="-2.36556" x2="238.87908" y2="125.14362" gradientUnits="userSpaceOnUse" id="color-12"><stop offset="0" stop-color="#000000"/><stop offset="1" stop-color="#fa4242"/></linearGradient><linearGradient x1="260.96964" y1="-29.43746" x2="313.81725" y2="145.01032" gradientUnits="userSpaceOnUse" id="color-13"><stop offset="0" stop-color="#000000"/><stop offset="1" stop-color="#7ebb78"/></linearGradient><linearGradient x1="253.18467" y1="12.68906" x2="250.39961" y2="151.30333" gradientUnits="userSpaceOnUse" id="color-14"><stop offset="0" stop-color="#000000"/><stop offset="1" stop-color="#7ebb78"/></linearGradient><linearGradient x1="192.10945" y1="-12.99012" x2="168.10128" y2="75.56266" gradientUnits="userSpaceOnUse" id="color-15"><stop offset="0" stop-color="#000000"/><stop offset="1" stop-color="#7ebb78"/></linearGradient><linearGradient x1="181.85447" y1="1.20502" x2="185.32769" y2="115.95706" gradientUnits="userSpaceOnUse" id="color-16"><stop offset="0" stop-color="#000000"/><stop offset="1" stop-color="#7ebb78"/></linearGradient><linearGradient x1="234.65534" y1="68.02992" x2="235.05872" y2="81.35714" gradientUnits="userSpaceOnUse" id="color-17"><stop offset="0" stop-color="#5c1818" stop-opacity="0"/><stop offset="1" stop-color="#5c1818"/></linearGradient><radialGradient cx="209.59159" cy="61.38943" r="6.13609" gradientUnits="userSpaceOnUse" id="color-18"><stop offset="0" stop-color="#ff0000"/><stop offset="1" stop-color="#ff0000" stop-opacity="0"/></radialGradient></defs><g transform="translate(-119.25946,115.95547)"><g data-paper-data="{&quot;isPaintingLayer&quot;:true}" fill-rule="nonzero" stroke-linejoin="miter" stroke-miterlimit="10" stroke-dasharray="" stroke-dashoffset="0" style="mix-blend-mode: normal"><g stroke="none" stroke-width="0" stroke-linecap="butt"><path d="M211.66541,138.7329c-7.45135,7.58785 -28.87785,9.81171 -29.96856,8.4261c-0.64262,-0.81637 2.17745,-24.90523 10.4031,-33.28157c9.3361,-9.50712 21.28438,-11.65007 26.68723,-4.78643c5.40285,6.86365 2.21433,20.13478 -7.12177,29.6419z" fill="url(#color-1)"/><path d="M218.4397,146.27695c-5.3388,9.19354 -23.76466,17.22462 -24.93776,16.22564c-0.69116,-0.58857 -1.99912,-23.99661 3.89445,-34.14549c6.6892,-11.51896 16.82257,-16.84542 22.63352,-11.89699c5.81095,4.94843 5.09898,18.29788 -1.59021,29.81684z" fill="url(#color-2)"/><path d="M227.71448,145.38351c-3.37314,10.10888 -20.07086,22.64094 -21.45614,22.01405c-0.81617,-0.36936 -7.11703,-22.10018 -3.39337,-33.2595c4.22635,-12.66581 13.21523,-20.4161 20.07723,-17.31075c6.862,3.10535 8.99863,15.89039 4.77228,28.55621z" fill="url(#color-3)"/></g><g stroke="none" stroke-linecap="butt"><g data-paper-data="{&quot;index&quot;:null}" stroke-width="0"><path d="M295.80447,115.31117c1.10895,10.67772 11.30464,68.70208 26.61125,108.16651c14.50819,37.40586 54.48862,75.62699 53.8389,75.70124c-24.67511,2.81966 -145.57315,-116.51227 -149.53438,-154.65379c-3.96123,-38.14152 12.83068,-71.34712 37.50579,-74.16678c24.67511,-2.81966 27.6172,6.8113 31.57843,44.95282z" fill="url(#color-4)"/><g fill="url(#color-5)"><path d="M322.05904,223.21017c0.4109,1.05942 0.84224,2.11949 1.29251,3.17933c-2.21765,2.63072 -4.4417,5.25611 -6.67328,7.87582c-3.96462,4.65418 -7.88209,9.34594 -11.95799,13.89998c-11.96011,-11.51813 -23.967,-24.01732 -34.86598,-36.39607c4.44027,-4.31357 9.08368,-8.44707 13.58894,-12.67983c5.41229,-5.08493 11.63865,-9.45134 17.45919,-14.06459c2.48937,-1.97302 4.98072,-3.94353 7.47304,-5.91282c3.86625,15.11803 8.47952,30.68079 13.68357,44.09819z"/><path d="M375.89794,298.9114c-8.04321,0.91911 -26.31039,-11.14074 -47.41881,-29.13687c3.59367,-3.61433 7.19275,-7.22316 10.79643,-10.82769c0.58115,-0.58128 1.16186,-1.16269 1.74201,-1.74442c16.50266,23.51196 35.32785,41.65784 34.88037,41.70898z"/><path d="M295.44779,115.04366c0.19663,1.8933 0.67895,5.27517 1.42479,9.77821c-5.24469,2.21501 -10.45962,4.5056 -15.69129,6.7476c-6.86144,2.94042 -13.29196,7.05812 -19.80283,10.70796c-6.54043,3.66641 -13.01159,7.43207 -19.46772,11.2448c-3.42163,2.02067 -6.84108,4.02473 -10.28509,5.98637c-2.97825,-5.88464 -4.82665,-11.05833 -5.26208,-15.25098c-1.50404,-14.48196 -0.01621,-28.25233 3.75901,-39.91804c3.94104,-0.84427 7.86317,-1.7739 11.80712,-2.70826c7.28469,-1.72581 14.44433,-4.05349 21.62875,-6.15736c7.24246,-1.90626 14.50546,-3.74917 21.72328,-5.74661c2.08797,-0.57782 4.17389,-1.16594 6.26069,-1.75154c1.61985,6.74475 2.71673,15.62273 3.90538,27.06785z"/></g></g><path d="M351.83358,263.9653c1.62637,2.16514 3.42196,3.94786 5.22165,6.10611c4.10612,4.92419 7.7848,10.11869 11.97574,14.97145c2.36649,2.74019 7.28611,6.65552 8.36539,10.22742c0.69232,2.29124 2.13984,5.08443 0.88936,7.12536c-0.91431,1.49227 -3.52462,0.28369 -5.25027,-0.00777c-3.68818,-0.62293 -6.76706,-3.59429 -9.69261,-5.68396c-5.40614,-3.93412 -10.95847,-7.79077 -16.33333,-11.66667c-2.59206,-1.86917 -4.61046,-4.72162 -7.11248,-6.75267c-4.71479,-3.82731 -10.54237,-6.21153 -14.86019,-10.50766c-2.35024,-2.33844 -4.44724,-4.94194 -6.50766,-7.52685c-0.85883,-1.07745 -2.31385,-1.83559 -2.65099,-3.17157c-0.57524,-2.27948 -1.65229,-5.45321 0.07087,-7.05248c0.67692,-0.62826 6.57287,1.46729 8.88378,2.28797c-0.8133,-1.03081 -1.5066,-2.16566 -2.01289,-3.36842c-1.81296,-4.30687 -1.67701,-14.75799 4.94626,-15.40862c6.47181,-0.63575 7.15309,5.88994 7.84422,10.43558c0.99405,6.53795 2.53474,12.97734 8.55529,16.75766c0.52162,0.32753 1.11222,0.41033 1.73375,0.37532c0.22697,-0.4188 0.62838,-0.81155 1.31,-1.0842c1.30895,-0.52358 2.17502,-0.01376 2.68146,0.53044c0.75426,0.11544 1.91866,0.56547 2.07008,2.23108c0.04276,0.47038 -0.01142,0.85996 -0.12745,1.1825z" fill="#000000" stroke-width="0.5"/></g><g stroke="none" stroke-width="0" stroke-linecap="butt"><path d="M197.89961,316.59792l20.60794,-221.82442l51.41931,-0.26565l18.47274,222.09009z" fill="url(#color-6)"/><path d="M269.84736,94.57992l18.8075,222.09009l-36.00904,-0.00001c0.2516,-0.51191 0.45843,-0.9315 0.52253,-1.10891c0.73517,-2.03948 3.58291,-5.91647 1.42471,-8.02902c-0.43195,-0.42281 -1.82757,0.31333 -1.80626,-0.28528c0.00339,-0.0952 1.38508,-1.88452 1.52842,-2.27686c0.96722,-2.64755 1.00442,-5.28826 1.00408,-8.05478c-0.01105,-1.27685 0.58006,-4.58576 -0.85882,-5.30613c-1.05355,-0.52745 -2.39916,0.61016 -3.20536,0.90728c-0.82425,0.30377 -2.0675,0.08619 -2.97952,0.33412c-0.83655,0.22742 -2.5576,0.90364 -3.21398,-0.13808c-0.5765,-0.91495 0.06419,-4.57446 0.05892,-5.74234c-0.0061,-0.33854 -0.00239,-2.19281 -0.19387,-2.35609c-1.16161,-0.99054 -2.35724,0.6596 -3.26914,0.95292c-1.57825,0.50767 -3.27645,0.52882 -4.91036,1.07732c-0.38037,0.12769 -4.20301,1.0477 -4.27375,0.50333c-0.06813,-0.52424 2.83552,-3.83775 3.33746,-4.50786c4.20645,-5.61581 7.30115,-12.67376 7.27853,-19.66176c-0.00513,-1.58073 0.84848,-6.24762 -1.80493,-5.38063c-1.59793,0.52212 -4.18823,4.06547 -4.90827,5.47125c-0.10839,0.21162 -1.41836,2.81749 -1.55212,2.47825c-0.28901,-0.733 0.13328,-2.80176 0.13328,-3.6627c0,-3.66389 -0.03453,-7.32976 0.01455,-10.99334c0.0143,-1.06712 -0.31795,-2.84778 0.02663,-3.84563c0.56368,-1.63234 2.60981,-3.25264 3.5109,-4.78529c0.70198,-1.19633 1.51738,-2.26852 2.40781,-3.26784c0.67775,-0.59501 1.31007,-1.25027 1.90498,-1.95034c1.68002,-1.59285 3.50555,-3.0726 5.2799,-4.70191c2.09038,-1.91951 4.16416,-2.44197 4.16152,-5.4407c-0.04986,-1.53876 -0.87514,-2.20098 -2.04852,-2.45749c0.05976,-2.41725 0.60368,-5.90067 -0.33714,-8.11616c-0.97443,-2.29464 -3.71198,-2.86653 -5.51027,-4.46273c-1.50979,-1.34012 -1.28752,-3.44927 -1.19577,-5.22903c0.05678,-1.21832 0.31252,-2.48264 0.64956,-3.75988c0.05679,-0.02976 0.11268,-0.06052 0.16763,-0.09231c1.85611,-1.07406 0.23286,-3.33214 2.20798,-3.66734c5.21167,-4.94795 12.49543,-9.73022 10.66769,-17.59104c-1.79411,-0.70208 -2.21176,-2.12426 -4.27497,-2.7401c-3.18827,-0.95165 -6.60859,-0.89498 -9.89518,-1.96861c-0.28195,-0.09211 -2.63011,-0.44362 -2.71105,-0.5506c-0.25048,-0.33107 0.51778,-2.04924 0.68221,-2.35765c1.55065,-2.98627 3.0503,-5.90658 4.54356,-8.92318c1.6843,-3.40252 4.24572,-6.3492 3.86741,-10.37692c-0.11803,-1.18109 0.11749,-2.49283 -1.25291,-3.09587c-0.39642,-0.17444 -2.48423,0.29121 -2.78014,-0.15578c-0.80143,-1.2106 0.69933,-4.21177 1.11335,-5.33113c1.08906,-2.94441 1.1022,-5.9856 0.97638,-9.0707c-0.0141,-0.34495 -0.05355,-2.16492 -0.23758,-2.3388c-0.92059,-0.86984 -3.95119,0.6019 -4.79508,-0.81677c-0.41052,-0.69013 0.89615,-2.81713 1.05046,-3.49256c0.75291,-3.29544 0.98079,-6.58303 0.92835,-9.97875c-0.03956,-2.51076 -0.56171,-4.69023 -1.74818,-6.92709c-0.41747,-0.78705 -1.97536,-2.31277 -1.92853,-3.21776c0.03212,-0.6207 0.58854,-1.10719 0.78219,-1.69887c0.83693,-2.55708 1.18103,-5.12231 2.18646,-7.65046c0.7888,-1.98344 1.18309,-4.03964 1.42616,-6.1244z" fill="#000000"/></g><g stroke="none" stroke-width="0" stroke-linecap="butt"><path d="M278.85008,108.45435c0,16.7447 -38.58415,36.10426 -38.87849,36.10426c-2.40888,0 -7.33187,-2.70742 -9.87832,-3.13086c-16.56616,-2.75472 -35.67652,-14.9043 -35.67652,-29.65824c0,-17.02181 22.92467,-16.00606 41.00482,-16.00606c18.08015,0 43.42852,-4.33093 43.42852,12.69089z" fill="url(#color-7)"/><g><path d="M240.95023,142.49396c-0.00055,-0.01953 -0.0011,-0.0391 -0.00167,-0.05863c-0.20513,-7.22939 -0.36693,-14.44813 -0.497,-21.69166c-0.12957,-7.21579 -0.03692,-14.50101 -0.03692,-21.72656c0,-1.09719 -0.00275,-2.19473 -0.00537,-3.29208c6.15369,-0.08163 11.79902,-0.20587 16.40736,0.57222c-0.01576,3.74812 0.00581,7.50339 0.00581,11.24952c0,7.25192 0,14.50386 0,21.7558c0,1.96413 0,3.92823 0,5.89237c-4.46651,3.71912 -9.91398,6.33659 -15.87222,7.29904z" fill="url(#color-8)"/><path d="M212.00027,132.22923c0,-4.50943 0,-9.01889 0,-13.52833c0,-7.24388 0,-14.48774 0,-21.73162c3.55799,-1.10312 8.04011,-1.31171 13.11787,-1.30504c-0.03296,3.29078 -0.07712,6.58145 -0.12734,9.87989c-0.11025,7.24212 -0.08218,14.54222 -0.0137,21.78782c0.04415,4.6708 0.22117,9.2147 0.40804,13.77937c-5.17876,-1.81982 -9.75932,-4.93065 -13.38487,-8.8821z" fill="url(#color-9)"/></g><path d="M268.56705,110.52633c0,17.02181 -14.85347,32.37469 -32.93362,32.37469c-18.08014,0 -32.54038,-15.35288 -32.54038,-32.37469c0,-17.02181 14.24836,-14.76286 32.32851,-14.76286c18.08015,0 33.14549,-2.25895 33.14549,14.76286z" fill="none"/></g><g stroke="none" stroke-width="0" stroke-linecap="butt"><path d="M215.88827,-77.54434c12.65652,6.97934 53.36968,18.67373 62.85678,39.45254c16.46151,36.05423 -11.99064,75.79707 -31.91057,72.74469c-0.0239,-0.00366 12.43083,-18.27309 1.97139,-33.98017c-7.94989,-11.93849 -37.74034,-19.12255 -46.27808,-34.72189c-17.54118,-32.04957 -5.49638,-78.71189 -4.85169,-81.40456c1.22731,-5.12604 4.85598,30.54425 18.21214,37.90939z" data-paper-data="{&quot;index&quot;:null}" fill="url(#color-10)"/><path d="M261.46709,-115.38355c0.80637,2.64876 15.6512,48.49721 0.08043,81.54898c-7.57867,16.08713 -36.88011,25.05973 -44.09344,37.45716c-9.49033,16.3109 4.0465,33.79363 4.02286,33.79875c-19.69885,4.25152 -50.50251,-33.69782 -36.25164,-70.68163c8.21307,-21.31455 48.14446,-35.44981 60.35571,-43.18181c12.88628,-8.15941 14.35099,-43.98387 15.88608,-38.94143z" fill="url(#color-11)"/></g><g stroke="none" stroke-width="0" stroke-linecap="butt"><path d="M300.962,44.3095c0.70274,23.21784 -19.16527,65.88972 -47.56898,77.72041c-4.45027,1.85363 -9.11007,2.95015 -13.93313,3.09613c-35.60606,1.07769 -66.62601,-50.05829 -67.43883,-76.91389c-0.81285,-26.85561 27.39265,-49.50001 62.9987,-50.5777c35.60607,-1.0777 65.12941,19.81945 65.94226,46.67505z" fill="url(#color-12)"/><path d="M300.95697,44.1429c0.70274,23.21784 -19.16527,65.88973 -47.56898,77.72041c-4.45027,1.85363 -9.11006,2.95015 -13.93312,3.09613c-4.94089,0.14955 -15.02296,-0.44398 -21.77932,-4.49736c-0.93946,-0.56362 -5.69644,-2.1633 -9.2763,-5.37016c-5.44113,-4.87419 -10.41508,-12.08225 -12.89372,-14.13341c1.1911,0.03351 5.63074,-0.71362 6.15311,-1.26454c0.30792,-0.32476 11.32862,3.45863 11.87926,3.44197c3.34482,-0.10124 1.18523,-0.27208 4.52881,-0.4093c1.86285,-0.39078 6.94076,4.59166 7.75025,3.04132c1.68874,-3.23425 4.23029,-7.48043 6.66832,-10.28674c1.33851,-1.54071 3.26015,-2.47806 4.25716,-4.24327c2.61481,-3.79686 4.34585,-6.93144 2.11798,-11.42234c-0.51308,-1.03423 -2.78757,-2.92981 -2.94374,-3.83786c-0.12118,-0.70456 1.33722,-2.46594 1.30494,-3.60925c-0.06032,-1.66044 0.03249,-3.60989 -0.75969,-5.13379c-0.28138,-0.54128 -0.83094,-0.96971 -0.94095,-1.56976c-0.47128,-2.57052 1.92001,-6.97521 0.03125,-9.08287c-0.76544,-0.85414 -3.19186,-1.72485 -4.27119,-2.22252c1.11186,-2.08659 2.97811,-3.9449 1.71121,-6.46683c-0.65679,-1.30742 -2.55364,-1.33192 -3.1069,-2.41153c-0.47829,-0.93329 1.58908,-3.32424 1.90455,-4.15602c0.6207,-1.63659 0.3944,-3.46479 0.3154,-5.16515c-0.13875,-1.62359 -1.63602,-2.90242 -1.44763,-4.58005c0.16188,-1.44148 2.15963,-2.45673 3.00065,-3.5216c2.68794,-3.40338 2.91383,-7.16736 -0.278,-10.27525c-0.91644,-1.36421 -1.38156,-0.75532 -2.65032,-1.4028c-1.23628,-0.63091 -2.86217,-1.92166 -3.89271,-2.88331c-1.5002,-1.39991 -1.20112,-5.32335 -0.00692,-6.87301c0.8859,-1.14957 3.15491,-0.78024 4.38256,-0.8174c2.26899,-0.3152 1.42181,-2.60595 1.36317,-4.54332c-0.03714,-1.22696 -0.07427,-2.45394 -0.11141,-3.68089c0.84557,-0.05046 1.69568,-0.08873 2.55007,-0.11459c35.60607,-1.0777 65.12941,19.81945 65.94225,46.67505z" fill="#000000"/></g><path d="M186.36175,61.40493c-0.39232,-12.96207 9.79748,-23.78794 22.75954,-24.18027c12.96207,-0.39232 23.78794,9.79747 24.18027,22.75953c0.39232,12.96207 -9.79747,23.78794 -22.75953,24.18027c-12.96207,0.39232 -23.78794,-9.79748 -24.18027,-22.75954z" fill="#ff0000" stroke="none" stroke-width="2" stroke-linecap="butt"/><path d="M186.70311,64.84529c1.25284,0.00665 45.95131,-0.79437 46.21022,-0.77812c-0.40854,3.49973 -0.95721,6.3321 -2.76177,9.3055c-4.0483,6.67045 -11.43199,10.58999 -19.45839,10.83293c-11.87202,0.35933 -22.30916,-7.71805 -23.99005,-19.36029z" data-paper-data="{&quot;index&quot;:null}" fill="#ff5d5d" stroke="none" stroke-width="2" stroke-linecap="butt"/><path d="M198.77672,61.7538c-0.18147,-5.99572 4.53189,-11.00332 10.52761,-11.1848c5.99572,-0.18147 11.00332,4.5319 11.18479,10.52762c0.18147,5.99572 -4.5319,11.00331 -10.52762,11.18479c-5.99572,0.18147 -11.0033,-4.53189 -11.18477,-10.52762z" fill="#000000" stroke="none" stroke-width="0" stroke-linecap="butt"/><path d="M211.79832,61.52374c0.02985,0.98577 -0.80903,1.81102 -1.87366,1.84324c-1.06464,0.03223 -1.95188,-0.74077 -1.98171,-1.72654c-0.02985,-0.98577 0.80903,-1.81102 1.87366,-1.84324c1.06464,-0.03223 1.95188,0.74077 1.98171,1.72654z" fill="#ff0000" stroke="none" stroke-width="0" stroke-linecap="butt"/><g><g><path d="M307.26368,0.06594c0.6081,2.00734 22.93483,72.72792 34.22507,87.41058c13.91576,18.09712 32.2138,35.09708 32.13242,35.1276c-0.43746,0.1639 -23.19797,3.7261 -39.98447,-1.20978c-17.80083,-5.23414 -29.81387,-19.17806 -35.04847,-26.21048c-21.6526,-29.08921 -34.2054,-59.52705 -51.41107,-70.64141c-2.75841,-1.78185 -10.11692,-5.23001 -14.55336,-1.04464c-8.16203,7.70016 -25.72874,8.64244 -25.88179,8.13721c-7.2109,-23.80285 17.32374,-47.24602 45.57285,-57.82986c28.24912,-10.58385 47.73795,2.45796 54.94884,26.26081z" fill="url(#color-13)" stroke="none" stroke-width="0" stroke-linecap="butt"/><path d="M229.83164,1.68555c0,0 29.9968,-15.53978 46.36369,0.04055c8.4637,8.05693 31.53547,63.06678 49.00205,93.68109c7.79551,13.66348 22.04175,18.25986 22.04175,18.25986" fill="none" stroke="#000000" stroke-width="0.5" stroke-linecap="round"/></g><g><path d="M292.0611,46.91416c-0.03205,1.59502 -0.21052,58.04928 6.76201,71.69082c8.59399,16.81385 22.17146,34.11674 22.07552,34.11482c-0.51569,-0.01037 -25.68294,-4.06065 -41.71045,-12.39612c-16.99597,-8.83913 -24.97739,-22.16691 -28.13476,-28.65072c-13.06029,-26.82002 -16.33017,-62.86109 -30.72905,-75.68665c-2.30844,-2.05619 -9.05539,-4.69454 -15.13062,-3.01531c-11.17708,3.0894 -23.20476,12.94891 -23.19669,12.54747c0.38,-18.91348 27.68394,-33.70347 60.98502,-33.03437c33.30109,0.66909 49.45902,15.51661 49.079,34.4301z" fill="url(#color-14)" stroke="none" stroke-width="0" stroke-linecap="butt"/><path d="M209.95894,25.71047c0,0 36.80244,-2.3311 48.82149,13.4105c6.21533,8.14035 12.08558,53.69976 20.22569,80.39004c3.63301,11.91215 17.09858,19.27434 17.09858,19.27434" fill="none" stroke="#000000" stroke-width="0.5" stroke-linecap="round"/></g></g><g><g data-paper-data="{&quot;index&quot;:null}"><path d="M197.85191,-10.92833c18.74337,6.7297 31.28229,21.9802 28.00645,34.06294c-0.06953,0.25646 -4.97624,-8.58364 -10.65599,-12.94517c-3.08719,-2.37068 -7.3463,-2.14606 -9.01627,-1.33729c-10.41647,5.04477 -25.18011,21.9517 -37.4292,36.1639c-2.96126,3.43586 -6.7304,14.81182 -17.86377,16.76914c-10.49898,1.84578 -31.34332,-9.65852 -31.63358,-9.76274c-0.04238,-0.01521 14.31987,5.24107 23.42683,1.30131c0.92659,-0.40085 12.32199,-7.19735 15.92521,-16.21811c6.10482,-15.28356 10.02527,-32.8836 10.19899,-33.52437c3.27584,-12.08274 10.29797,-21.23931 29.04134,-14.50961z" fill="url(#color-15)" stroke="none" stroke-width="0" stroke-linecap="butt"/><path d="M144.85449,57.80059c0,0 8.88698,-1.77862 13.11536,-8.55669c9.4741,-15.1869 21.15917,-42.83443 26.13578,-46.66442c9.62363,-7.40634 29.77142,1.97927 29.77142,1.97927" fill="none" stroke="#000000" stroke-width="0.5" stroke-linecap="round"/></g><g data-paper-data="{&quot;index&quot;:null}"><path d="M189.27596,0.98039c24.22362,-0.73318 44.24493,11.36541 44.71883,27.02298c0.01006,0.33234 -8.84446,-7.76622 -17.00937,-10.26397c-4.438,-1.35763 -9.3197,0.86312 -10.97791,2.57798c-10.34308,10.69653 -21.53855,37.28469 -30.76159,59.56085c-2.2297,5.38532 -2.58138,20.44183 -14.85577,27.85174c-11.57497,6.98768 -39.94125,3.0943 -40.31637,3.10566c-0.05476,0.00165 18.54212,-0.44348 27.75206,-9.24386c0.93706,-0.89539 11.79856,-14.09358 12.79319,-26.3153c1.68515,-20.70683 0.00323,-43.12276 -0.02189,-43.95311c-0.47391,-15.65756 4.4552,-29.60982 28.67882,-30.343z" fill="url(#color-16)" stroke="none" stroke-width="0" stroke-linecap="butt"/><path d="M151.94098,105.83864c0,0 9.721,-6.16805 12.24014,-16.05039c5.64438,-22.14229 9.44018,-59.89523 13.87763,-66.66855c8.58104,-13.09807 35.38362,-11.36608 35.38362,-11.36608" fill="none" stroke="#000000" stroke-width="0.5" stroke-linecap="round"/></g></g><path d="M221.06513,81.78069c0,0 5.58612,-3.76461 7.71032,-6.32594c2.26406,-2.73001 3.98186,-9.53504 3.98186,-9.53504c0,0 4.521,0.62607 4.54332,1.36317c0.06265,2.07032 4.59839,14.20072 4.59839,14.20072c0,0 -2.62821,-2.28513 -4.23882,-2.26215c-3.58317,0.0511 -16.59506,2.55925 -16.59506,2.55925z" fill="url(#color-17)" stroke="none" stroke-width="0" stroke-linecap="butt"/><path d="M241.15197,78.83832c0.11974,3.95623 -1.7224,7.22208 -4.11453,7.29448c-2.39214,0.07241 -4.42842,-3.07605 -4.54817,-7.03228c-0.11974,-3.95623 1.72241,-7.22208 4.11454,-7.29448c2.39214,-0.07241 4.42841,3.07605 4.54815,7.03228z" fill="#000000" stroke="none" stroke-width="0" stroke-linecap="butt"/><path d="M238.66341,73.7446c0.04734,1.5641 -0.58554,2.85235 -1.4136,2.87741c-0.82806,0.02505 -1.53769,-1.22255 -1.58503,-2.78665c-0.04734,-1.5641 0.58554,-2.85236 1.4136,-2.87742c0.82806,-0.02505 1.53769,1.22256 1.58503,2.78666z" fill="#000000" stroke="none" stroke-width="0" stroke-linecap="butt"/><path d="M241.47071,91.16546c0.02497,0.20545 -0.04544,0.33618 -0.13654,0.41886c0.14408,0.04916 0.36156,0.17962 0.32978,0.51633c-0.04698,0.4978 -0.54477,0.45081 -0.54477,0.45081c-0.45121,-0.04274 -1.08157,0.00733 -1.72228,0.04271c-0.01062,0.01661 -0.0213,0.03321 -0.03208,0.04982c0.16949,1.93222 -0.28466,4.30661 -1.16968,6.2382c0.00722,0.03143 0.0115,0.06402 0.01252,0.09748c0.0018,0.05935 -0.00683,0.11662 -0.02422,0.17l-0.14812,0.49364l-0.19269,-0.05782c-0.13043,0.23803 -0.26792,0.46646 -0.41201,0.68325c-0.12054,0.21581 -0.25045,0.42601 -0.3768,0.62986l0.11384,0.08012l-0.47625,0.67673c-0.08719,0.12679 -0.23152,0.21176 -0.39711,0.21677c-0.06876,0.00208 -0.13472,-0.00983 -0.19511,-0.03314c-1.68108,2.56126 -3.31463,5.59464 -5.59501,7.59844c-2.18482,1.91982 -4.21584,1.40981 -5.29197,-0.69825c-0.7515,0.56446 -1.5236,0.92293 -2.11774,0.61534c0.06377,0.75682 0.15437,1.50527 0.28314,2.24015l0.03058,0.17588c0,0 0.08566,0.49261 -0.40696,0.57827c-0.49262,0.08566 -0.57826,-0.40695 -0.57826,-0.40695l-0.03057,-0.17588c-0.28799,-1.66834 -0.38794,-3.40051 -0.42387,-5.14191c-0.21492,-0.05063 -0.37781,-0.2404 -0.3848,-0.47161c-0.00418,-0.13801 0.04798,-0.26464 0.13569,-0.35782l0.23397,-0.24857c-0.00943,-1.1091 -0.0033,-2.21735 -0.01358,-3.31072c-0.06204,-0.86387 -0.06963,-1.7044 -0.11287,-2.14946c-0.44814,-4.61323 -0.54718,-9.22246 -0.68738,-13.85436c-0.01019,-0.33687 -0.0204,-0.67372 -0.03059,-1.01058c-0.01821,-0.15069 -0.03494,-0.30192 -0.04893,-0.45243c-0.14364,0.10011 -0.28892,0.19762 -0.43571,0.29233l0.06351,0.06829l-0.58096,0.54023c-0.25051,0.37434 -0.42115,0.76507 -0.45437,1.17814c0,0 -0.02687,0.23975 -0.20983,0.3675c-0.23748,1.32367 -0.53328,3.62928 -1.27477,4.06232c-2.34642,1.37033 -1.33499,-6.55309 -3.83233,-2.97485c-0.1743,0.24973 -0.35311,0.49998 -0.48347,0.77519c-0.26043,0.54981 -0.28539,0.83582 -0.38685,1.37343c-0.11968,0.63421 -0.20217,1.27668 -0.24431,1.92069c-0.43528,6.55553 0.75577,13.52404 -0.73552,19.94118c-0.65828,0.38269 -1.91807,1.15129 -2.50264,0.00393c-0.35544,-0.69763 -0.13292,-2.43641 -0.15703,-3.23267c-0.0719,-2.37568 -0.66019,-4.85849 -0.59508,-7.19837c0.00974,-0.35 -0.01443,0.70789 -0.11048,1.0446c-0.27423,0.96138 -0.51925,1.92775 -0.76658,2.89636c-0.58019,1.78375 -2.80806,2.55063 -2.96007,0.0567c-0.28696,-4.70829 1.21091,-9.84 0.0108,-14.41852c-0.48251,-1.30304 -1.15414,-3.80568 -2.38,-4.61289c-1.14576,-0.75447 -2.85453,-0.57877 -4.14331,-1.17105c-1.87146,-0.86009 -3.8632,-2.57007 -5.20899,-4.31301l-0.04436,0.04713l-0.5149,-0.48464c-0.09318,-0.08771 -0.15289,-0.21097 -0.15707,-0.34898c-0.00836,-0.27602 0.20863,-0.50654 0.48464,-0.5149l0.49978,-0.01512c1.68243,-0.03607 3.36699,0.80632 4.95839,1.307c6.53993,2.06156 11.7566,1.45126 18.05484,-0.63437c1.77446,-0.96057 3.71925,-1.79304 5.70688,-2.20242c1.21376,-0.25 2.92994,-0.26839 2.42175,1.44156c-0.17164,0.57754 -0.48467,1.02179 -0.87628,1.3871c0.17227,0.07468 0.29509,0.24375 0.30114,0.44386c0.00113,0.03713 -0.00183,0.07345 -0.00846,0.10849l-0.13965,0.82781l-0.10035,-0.01693c-0.00788,1.70787 -0.34173,3.56303 -0.68987,5.35363c-0.02834,2.55718 -0.00468,5.10865 0.04703,7.661c0.0971,1.3779 0.27563,2.8964 0.10839,4.26636c0.00491,0.16601 0.00988,0.33204 0.01491,0.4981l0.02016,0.66637c0.00836,0.27602 -0.20863,0.50654 -0.48464,0.5149c0.02365,0.7814 0.04731,1.56279 0.07095,2.34418c0.2581,-0.29538 0.52032,-0.60029 0.78671,-0.9114c0.10051,-0.297 0.28294,-0.58128 0.60494,-0.8725c0.00148,-0.00735 0.00299,-0.01473 0.00454,-0.02216c0.61152,-1.32886 1.65839,-2.68544 2.76349,-3.80227c-0.10414,-0.73407 -0.08548,-1.44969 0.50549,-2.03703c0.28533,-0.28357 1.03357,-0.21762 1.69427,-0.16305c0.28908,-0.22449 0.58705,-0.43012 0.89374,-0.61262c0.25896,-0.33494 0.51489,-0.65837 0.76442,-0.9682c0.01302,-0.14627 0.02542,-0.27999 0.04377,-0.38885c0.17769,-0.8136 0.20567,-1.65159 1.19717,-1.92298c0.06931,-0.01897 0.28456,0.03898 0.52562,0.09947c0.48234,-0.59633 0.99537,-1.16924 1.56698,-1.59321c0.01468,-0.0109 0.02962,-0.02172 0.0448,-0.03244c0.0755,-0.11629 0.17053,-0.22489 0.29451,-0.32109c0.27179,-0.2109 0.54154,-0.24948 0.80357,-0.18823c0.88165,-0.26012 1.92058,-0.28371 2.60982,0.146c0.44264,-0.29465 0.93642,-0.33834 1.44665,0.25645c0.04012,0.04678 0.07018,0.0996 0.09108,0.15775c0.03084,-0.00367 0.06165,-0.00736 0.09244,-0.01111l0.83476,-0.10143c0,0 0.49635,-0.06031 0.55666,0.43603zM237.75056,92.73003c-0.13234,0.38434 -0.41401,0.84885 -0.7208,1.29294c0.29749,-0.3797 0.70815,-0.9204 1.07162,-1.41241c-0.08015,-0.00517 -0.15822,-0.0121 -0.23373,-0.02108c-0.00514,0.00617 -0.01029,0.01235 -0.01549,0.01858zM226.98399,105.69487c-0.04802,0.0509 -0.09619,0.10165 -0.14451,0.15224c0.01915,-0.01685 0.03831,-0.03369 0.05744,-0.05054c0.02903,-0.03389 0.05806,-0.06778 0.08708,-0.1017zM224.15344,108.18219c-0.08781,0.02772 -0.17557,0.0453 -0.26248,0.05023c-0.19824,0.27805 -0.36007,0.49269 -0.19865,0.35164c0.1534,-0.13405 0.30714,-0.26799 0.46113,-0.40187zM234.47886,94.77497c-0.05622,0.00679 -0.11405,0.01784 -0.1733,0.03286c-0.20439,0.17608 -0.40719,0.35326 -0.60851,0.53177c0.04117,0.07002 0.06584,0.15108 0.06846,0.238c0.00282,0.09339 -0.02015,0.18157 -0.06247,0.25769l-0.09014,0.16946c0.11881,-0.16534 0.23696,-0.33145 0.35442,-0.4984c0.17263,-0.24531 0.34355,-0.48814 0.51154,-0.73142zM228.96857,101.68564c0.16435,-0.24231 0.32362,-0.48574 0.47741,-0.72936c0.04534,-0.0717 0.09065,-0.14343 0.13591,-0.21517c-0.09402,0.00952 -0.18617,0.01389 -0.27512,0.01199c-0.44451,0.47529 -0.91357,0.93049 -1.40168,1.36714c-0.17731,0.39089 -0.34453,0.78404 -0.50072,1.17884c0.4354,-0.41218 0.83994,-0.84417 1.16996,-1.19334c0.13226,-0.13953 0.26367,-0.27955 0.39425,-0.42007zM223.2695,107.23639c0.10288,-0.49523 0.37341,-1.08541 0.61252,-1.5421c-0.07664,-0.04203 -0.15128,-0.09156 -0.22368,-0.14905c-0.03302,-0.02621 -0.05813,-0.05987 -0.0761,-0.1001c-0.0645,0.04546 -0.12951,0.09025 -0.19503,0.13434c-0.02368,0.20261 -0.16906,0.36962 -0.3629,0.42324l-0.07188,0.06008c0.00836,0.64209 0.02412,1.28355 0.05382,1.92139c0.07319,-0.2402 0.16445,-0.49473 0.26324,-0.7478zM234.53755,98.06425c-0.26337,0.22347 -0.53179,0.43967 -0.8041,0.64632c-1.7821,2.50085 -3.66718,4.90333 -5.67023,7.25738c0.4382,-0.25524 0.8473,-0.588 1.26961,-0.96264c2.157,-1.91026 4.30403,-4.10804 5.20471,-6.94107zM238.22353,94.16827c-0.27595,0.33449 -0.50411,0.59648 -0.60928,0.72697c-0.52013,0.64368 -1.11086,1.3061 -1.75091,1.94538c-0.07711,0.41595 -0.16005,0.76688 -0.20645,0.94615c-0.85048,3.28715 -3.21677,5.80166 -5.661,7.96711c-0.71374,0.63132 -2.15944,1.48945 -3.2486,1.59948c-0.2453,0.247 -0.51682,0.5146 -0.80206,0.7737c0.15583,0.45578 0.34805,0.88818 0.61201,1.21225c0.81763,1.0039 2.62463,-0.0703 3.28985,-0.6556c2.3834,-2.09708 4.04301,-5.38984 5.81377,-7.98725c0.39414,-0.50431 0.78846,-1.00848 1.18301,-1.51245l0.02093,-0.0117l-0.00565,-0.00531l0.11544,-0.12264c0.03628,-0.0749 0.07115,-0.15212 0.10333,-0.23236c0.58775,-1.46507 1.01257,-3.04771 1.14558,-4.64372zM228.55876,97.23641c0.02501,-0.02542 0.05011,-0.05072 0.07528,-0.07589c-0.0183,0.00633 -0.03122,0.01399 -0.03813,0.02318c-0.01298,0.01728 -0.02536,0.03484 -0.03716,0.05273zM229.72996,102.33644c-0.09136,0.13164 -0.18402,0.26245 -0.27791,0.39242c0.18101,-0.22444 0.36109,-0.44948 0.54019,-0.67519c-0.08724,0.09454 -0.17467,0.1888 -0.26228,0.28277zM225.36723,105.76833c-0.03076,0.00941 -0.06146,0.01829 -0.09209,0.02665c0.01044,0.04175 0.02106,0.08345 0.03186,0.1251c0.01787,-0.01467 0.03551,-0.02913 0.0529,-0.04336c0.00185,-0.0354 0.00428,-0.07151 0.00732,-0.10838zM237.25234,91.0285c0.1744,-0.00042 0.3464,0.01386 0.52028,0.03977c-0.14606,-0.05283 -0.32396,-0.06234 -0.52028,-0.03977z" fill="#000000" stroke="none" stroke-width="0.5" stroke-linecap="butt"/><path d="M218.51425,93.14756c0.01671,0.55203 -0.37996,1.01196 -0.88599,1.02727c-0.50603,0.01532 -0.92979,-0.41978 -0.9465,-0.97181c-0.01671,-0.55203 0.37997,-1.01196 0.886,-1.02728c0.50603,-0.01532 0.92978,0.41978 0.94649,0.97181z" fill="#000000" stroke="none" stroke-width="0" stroke-linecap="butt"/><path d="M240.25253,89.41344c0.01671,0.55203 -0.60372,1.01873 -1.38577,1.0424c-0.78205,0.02367 -1.42957,-0.40465 -1.44628,-0.95667c-0.01671,-0.55203 0.60372,-1.01873 1.38577,-1.0424c0.78205,-0.02367 1.42957,0.40466 1.44628,0.95668z" fill="#000000" stroke="none" stroke-width="0" stroke-linecap="butt"/><path d="M242.37031,87.76529c0.071,2.34614 -1.28853,4.29095 -3.03664,4.34386c-1.7481,0.05291 -3.22278,-1.80612 -3.2938,-4.15226c-0.071,-2.34614 1.28853,-4.29094 3.03664,-4.34385c1.7481,-0.05291 3.22278,1.80611 3.2938,4.15226z" fill="#000000" stroke="none" stroke-width="0" stroke-linecap="butt"/><path d="M238.48075,85.96547c0.03898,1.28807 -0.93632,2.36274 -2.17838,2.40033c-1.24206,0.0376 -2.28057,-0.97612 -2.31956,-2.2642c-0.03898,-1.28807 0.93631,-2.36274 2.17838,-2.40032c1.24206,-0.0376 2.28058,0.97611 2.31957,2.26419z" fill="#000000" stroke="none" stroke-width="0" stroke-linecap="butt"/><path d="M230.97622,96.94753c0.04316,1.42609 -0.92875,2.61262 -2.17081,2.65021c-1.24206,0.0376 -2.28396,-1.088 -2.32713,-2.51408c-0.04316,-1.42609 0.92875,-2.61262 2.17081,-2.65022c1.24206,-0.0376 2.28396,1.08801 2.32713,2.51408z" fill="#000000" stroke="none" stroke-width="0" stroke-linecap="butt"/><path d="M239.6492,91.51599c0.05708,1.88611 -1.42562,3.46138 -3.31174,3.51847c-1.88611,0.05708 -3.46138,-1.42562 -3.51847,-3.31174c-0.05708,-1.88611 1.42562,-3.46138 3.31174,-3.51847c1.88611,-0.05708 3.46138,1.42562 3.51847,3.31174z" fill="#000000" stroke="none" stroke-width="0" stroke-linecap="butt"/><path d="M232.88202,93.8051c0.02505,0.82806 -0.5513,1.51737 -1.28733,1.53965c-0.73605,0.02228 -1.35304,-0.63093 -1.3781,-1.45898c-0.02505,-0.82806 0.5513,-1.51737 1.28733,-1.53965c0.73605,-0.02228 1.35304,0.63093 1.3781,1.45898z" fill="#000000" stroke="none" stroke-width="0" stroke-linecap="butt"/><path d="M230.93103,89.94569c0.02088,0.69005 -0.26052,1.25846 -0.62855,1.2696c-0.36802,0.01114 -0.6833,-0.53922 -0.70418,-1.22926c-0.02088,-0.69005 0.26052,-1.25846 0.62855,-1.2696c0.36802,-0.01114 0.6833,0.53922 0.70418,1.22925z" fill="#000000" stroke="none" stroke-width="0" stroke-linecap="butt"/><path d="M220.52369,104.18374c0.04734,1.5641 -0.99577,2.86477 -2.32985,2.90513c-1.33408,0.04038 -2.45394,-1.19483 -2.50127,-2.75893c-0.04734,-1.5641 0.99576,-2.86477 2.32984,-2.90514c1.33408,-0.04038 2.45394,1.19483 2.50128,2.75893z" fill="#000000" stroke="none" stroke-width="0" stroke-linecap="butt"/><path d="M206.90129,100.34409c0.03202,1.05806 -0.79975,1.94176 -1.8578,1.97378c-1.05806,0.03202 -1.94176,-0.79975 -1.97378,-1.8578c-0.03202,-1.05806 0.79975,-1.94176 1.8578,-1.97378c1.05806,-0.03202 1.94176,0.79975 1.97378,1.8578z" fill="#000000" stroke="none" stroke-width="0" stroke-linecap="butt"/><path d="M201.49115,103.39642c-0.00787,-0.25979 0.20952,-0.47714 0.48553,-0.4855c0.27602,-0.00836 0.50615,0.19547 0.51401,0.45525c0.00787,0.25979 -0.20952,0.47715 -0.48553,0.4855c-0.27602,0.00836 -0.50615,-0.19547 -0.51401,-0.45526z" fill="#000000" stroke="none" stroke-width="0" stroke-linecap="butt"/><path d="M206.12127,102.11851c0.03064,1.01205 -0.50392,1.84943 -1.19396,1.8703c-0.69005,0.02088 -1.27426,-0.78261 -1.3049,-1.79467c-0.03064,-1.01205 0.50392,-1.84943 1.19396,-1.87031c0.69005,-0.02088 1.27426,0.78262 1.3049,1.79468z" fill="#000000" stroke="none" stroke-width="0" stroke-linecap="butt"/><path d="M203.43063,101.36622c0.02228,0.73605 -0.63093,1.35304 -1.45898,1.3781c-0.82806,0.02505 -1.51737,-0.5513 -1.53965,-1.28733c-0.02228,-0.73605 0.63093,-1.35304 1.45898,-1.3781c0.82806,-0.02505 1.51737,0.5513 1.53965,1.28733z" fill="#000000" stroke="none" stroke-width="0" stroke-linecap="butt"/><path d="M218.70631,104.73897c0.03064,1.01205 -0.91414,1.86183 -2.11022,1.89804c-1.19607,0.0362 -2.19052,-0.75489 -2.22114,-1.76694c-0.03064,-1.01205 0.91414,-1.86184 2.11022,-1.89805c1.19607,-0.0362 2.19051,0.7549 2.22114,1.76695z" fill="#000000" stroke="none" stroke-width="0" stroke-linecap="butt"/><path d="M215.55136,61.38943c0,3.38887 -2.66828,6.1361 -5.95977,6.1361c-3.29149,0 -5.95977,-2.74722 -5.95977,-6.1361c0,-3.38887 2.66828,-6.13609 5.95977,-6.13609c3.29149,0 5.95977,2.74722 5.95977,6.13609z" fill="url(#color-18)" stroke="none" stroke-width="0" stroke-linecap="butt"/></g></g></svg>