<svg version="1.1" xmlns="http://www.w3.org/2000/svg" xmlns:xlink="http://www.w3.org/1999/xlink" width="130.47404" height="286.97499" viewBox="0,0,130.47404,286.97499"><g transform="translate(-174.59632,-26.63755)"><g data-paper-data="{&quot;isPaintingLayer&quot;:true}" fill-rule="nonzero" stroke-linejoin="miter" stroke-miterlimit="10" stroke-dasharray="" stroke-dashoffset="0" style="mix-blend-mode: normal"><path d="M179.20671,313.61253v-187.22501h123.18203v187.22501z" fill-opacity="0.01" fill="#000000" stroke="none" stroke-width="0" stroke-linecap="butt"/><path d="M206.67309,308.48921l15.14285,-92.37211l37.78325,-0.11061l13.57389,92.48274z" fill="#ffffff" stroke="#000000" stroke-width="2" stroke-linecap="butt"/><path d="M219.62331,236.05324l3.12142,-18.44586l35.83075,-0.09951l2.76735,18.29049c0,0 -7.51543,2.93985 -21.55904,3.15958c-12.48458,0.19533 -20.16049,-2.90471 -20.16049,-2.90471z" fill="#b5b5b5" stroke="#000000" stroke-width="0" stroke-linecap="butt"/><g stroke="#000000" stroke-width="2"><path d="M228.20893,230.75077l0.4697,23.89138" fill="none" stroke-linecap="round"/><path d="M228.67863,255.03705c1.90232,0 3.44445,0.8349 3.44445,1.8648c0,1.0299 -1.54214,1.8648 -3.44445,1.8648c-1.90232,0 -3.44445,-0.8349 -3.44445,-1.8648c0,-1.0299 1.54214,-1.8648 3.44445,-1.8648z" fill="#000000" stroke-linecap="butt"/></g><g data-paper-data="{&quot;index&quot;:null}" stroke="#000000" stroke-width="2"><path d="M251.67862,254.99246l0.4697,-23.89137" fill="none" stroke-linecap="round"/><path d="M255.12306,257.25216c0,1.0299 -1.54213,1.86479 -3.44445,1.86479c-1.90231,0 -3.44445,-0.8349 -3.44445,-1.86479c0,-1.0299 1.54213,-1.8648 3.44445,-1.8648c1.90231,0 3.44445,0.83491 3.44445,1.8648z" fill="#000000" stroke-linecap="butt"/></g><path d="M175.59632,165.47947c0,-33.30185 28.7599,-60.29833 64.23702,-60.29833c35.47712,0 64.23702,26.99649 64.23702,60.29833c0,33.30185 -28.7599,60.29833 -64.23702,60.29833c-35.47712,0 -64.23702,-26.99649 -64.23702,-60.29833z" fill="#414141" stroke="#000000" stroke-width="2" stroke-linecap="butt"/><path d="M176.31938,165.53337c0,-0.72799 5.20666,55.91939 63.36046,56.93429c55.56352,0.9697 63.51358,-57.95314 63.51358,-56.93429c0,32.80479 -28.40173,59.39833 -63.43702,59.39833c-35.03529,0 -63.43702,-26.59354 -63.43702,-59.39833z" fill="#252525" stroke="#000000" stroke-width="0" stroke-linecap="butt"/><path d="M189.14655,165.909c0,-12.968 10.51265,-23.48065 23.48065,-23.48065c12.968,0 23.48065,10.51265 23.48065,23.48065c0,12.968 -10.51265,23.48065 -23.48065,23.48065c-12.968,0 -23.48065,-10.51265 -23.48065,-23.48065z" fill="#ffffff" stroke="#000000" stroke-width="2" stroke-linecap="butt"/><path d="M195.82857,163.50002c0,-9.12808 7.39976,-16.52784 16.52783,-16.52784c9.12808,0 16.52784,7.39977 16.52784,16.52784c0,9.12808 -7.39977,16.52784 -16.52784,16.52784c-9.12808,0 -16.52783,-7.39977 -16.52783,-16.52784z" fill="#000000" stroke="none" stroke-width="0" stroke-linecap="butt"/><path d="M266.88561,189.38966c-12.968,0 -23.48065,-10.51265 -23.48065,-23.48065c0,-12.968 10.51265,-23.48065 23.48065,-23.48065c12.968,0 23.48065,10.51265 23.48065,23.48065c0,12.968 -10.51265,23.48065 -23.48065,23.48065z" data-paper-data="{&quot;index&quot;:null}" fill="#ffffff" stroke="#000000" stroke-width="2" stroke-linecap="butt"/><path d="M269.0064,184.46124c-9.12807,0 -16.52783,-7.39977 -16.52783,-16.52784c0,-9.12808 7.39977,-16.52784 16.52783,-16.52784c9.12807,0 16.52783,7.39977 16.52783,16.52784c0,9.12808 -7.39977,16.52784 -16.52783,16.52784z" data-paper-data="{&quot;index&quot;:null}" fill="#000000" stroke="none" stroke-width="0" stroke-linecap="butt"/><path d="M201.78421,137.10053c0,0 6.70895,-5.16922 11.79721,-6.36355c5.08827,-1.19433 12.33413,0.69937 12.33413,0.69937c0,0 -8.03812,-0.06028 -11.96762,0.86207c-4.10648,0.96389 -12.16372,4.80211 -12.16372,4.80211z" fill="#000000" stroke="none" stroke-width="0" stroke-linecap="butt"/><path d="M265.71866,132.29845c-3.9295,-0.92235 -11.96762,-0.86207 -11.96762,-0.86207c0,0 7.24586,-1.8937 12.33413,-0.69937c5.08826,1.19433 11.79721,6.36355 11.79721,6.36355c0,0 -8.05724,-3.83822 -12.16372,-4.80211z" data-paper-data="{&quot;index&quot;:null}" fill="#000000" stroke="none" stroke-width="0" stroke-linecap="butt"/><path d="M191.54528,144.60009l4.66666,3.33333" fill="none" stroke="#000000" stroke-width="2" stroke-linecap="round"/><path d="M205.6322,143.53338l-1.50717,-5.53329" fill="none" stroke="#000000" stroke-width="2" stroke-linecap="round"/><g data-paper-data="{&quot;index&quot;:null}" fill="none" stroke="#000000" stroke-width="2" stroke-linecap="round"><path d="M283.92982,148.07617l4.66666,-3.33333"/><path d="M276.01671,138.14291l-1.50716,5.53329"/></g><path d="M265.61872,117.23342c0,6.87595 -11.78514,12.45 -26.32286,12.45c-14.53771,0 -26.32286,-5.57406 -26.32286,-12.45c0,-6.87595 11.78514,-12.45 26.32286,-12.45c14.53771,0 26.32286,5.57405 26.32286,12.45z" fill="#ffffff" stroke="#000000" stroke-width="2" stroke-linecap="butt"/><path d="M248.65288,204.56667c0,4.26056 -3.72473,7.71439 -8.31944,7.71439c-4.59469,0 -8.31944,-3.45386 -8.31944,-7.71439c0,-4.26056 3.72473,-7.71439 8.31944,-7.71439c4.59469,0 8.31944,3.45386 8.31944,7.71439z" fill="#000000" stroke="none" stroke-width="0" stroke-linecap="butt"/><text transform="translate(233.33788,126.11672) scale(0.5,0.63543)" font-size="40" xml:space="preserve" fill="#adadad" fill-rule="nonzero" stroke="none" stroke-width="1" stroke-linecap="butt" stroke-linejoin="miter" stroke-miterlimit="10" stroke-dasharray="" stroke-dashoffset="0" font-family="Handwriting" font-weight="normal" text-anchor="start" style="mix-blend-mode: normal"><tspan x="0" dy="0">8</tspan></text><path d="M235.57571,107.06101c0.72373,7.34467 0.22377,24.69965 -4.9255,25.01883c-5.1493,0.31917 -12.99798,-16.51833 -13.72169,-23.86302c-0.09033,-0.91669 -0.11349,-1.81576 -0.07485,-2.68792c0.271,-6.11579 17.99833,-5.81257 18.72205,1.5321z" fill="#838383" stroke="#000000" stroke-width="2" stroke-linecap="butt"/><path d="M266.09832,82.6292c7.26786,-3.75671 16.87843,0.13531 21.46581,8.69307c4.58737,8.55776 13.3912,33.35715 6.12333,37.11387c-7.26786,3.75671 -27.85522,-14.95184 -32.4426,-23.50959c-4.58737,-8.55776 -2.41441,-18.54061 4.85346,-22.29733z" data-paper-data="{&quot;index&quot;:null}" fill="#5b5b5b" stroke="#000000" stroke-width="2" stroke-linecap="butt"/><path d="M244.5408,91.43696l-5.48126,-45.96552l31.22857,-17.36643l9.38529,29.40106z" data-paper-data="{&quot;index&quot;:null}" fill="#5b5b5b" stroke="#000000" stroke-width="2" stroke-linecap="butt"/><path d="M219.8915,104.93882c-4.9729,8.33964 -26.39204,26.08979 -33.48102,22.00553c-7.08897,-4.08427 2.83668,-28.45635 7.80959,-36.79598c4.9729,-8.33964 14.75097,-11.78931 21.83993,-7.70505c7.08897,4.08427 8.8044,14.15584 3.8315,22.4955z" fill="#5b5b5b" stroke="#000000" stroke-width="2" stroke-linecap="butt"/><path d="M216.85231,108.51985c-1.4349,7.13045 -6.51822,23.09262 -10.54873,21.32419c-4.03052,-1.76844 -5.48194,-20.59781 -4.04704,-27.72825c0.1791,-0.88994 0.40484,-1.73654 0.67066,-2.53327c1.86397,-5.58695 15.36002,1.80691 13.92513,8.93735z" fill="#838383" stroke="#000000" stroke-width="2" stroke-linecap="butt"/><path d="M271.86776,96.41532c0.55199,0.63307 1.08618,1.32754 1.59403,2.08c4.06875,6.02886 9.97631,23.96634 6.93694,27.14983c-3.03937,3.18349 -13.87472,-9.59253 -17.94349,-15.6214c-4.06877,-6.02887 5.54182,-18.04756 9.41254,-13.60844z" data-paper-data="{&quot;index&quot;:null}" fill="#838383" stroke="#000000" stroke-width="2" stroke-linecap="butt"/><path d="M263.71011,100.21398c0.39986,0.77607 0.7548,1.60241 1.05612,2.47286c2.41425,6.9742 2.32659,25.55095 -2.48423,27.41454c-4.81084,1.86358 -12.52305,-13.69171 -14.9373,-20.66589c-2.41425,-6.9742 13.56154,-14.66342 16.3654,-9.2215z" data-paper-data="{&quot;index&quot;:null}" fill="#838383" stroke="#000000" stroke-width="2" stroke-linecap="butt"/><path d="M201.02722,107.08159l4.08583,-28.26911c0,0 36.0304,-12.7715 36.20486,-12.72397c3.98783,1.08576 36.93804,14.16338 36.93804,14.16338l3.24039,28.89502z" fill="#5b5b5b" stroke="#000000" stroke-width="2" stroke-linecap="butt"/><path d="M235.02112,73.72495c2.26285,4.93073 -2.40972,11.91413 -10.43651,15.59786c-8.02677,3.68372 -16.36817,2.67282 -18.63105,-2.25791c-2.26285,-4.93073 2.40972,-11.91413 10.43651,-15.59785c8.02677,-3.68372 16.36818,-2.67282 18.63104,2.25791z" fill="#ffffff" stroke="#000000" stroke-width="2" stroke-linecap="butt"/><path d="M266.25642,72.60475c7.85043,4.04596 12.19965,11.2352 9.71427,16.05761c-2.48537,4.82241 -10.8642,5.45184 -18.71464,1.40587c-7.85042,-4.04596 -12.19966,-11.23521 -9.71429,-16.05761c2.48537,-4.82241 10.8642,-5.45183 18.71464,-1.40585z" data-paper-data="{&quot;index&quot;:null}" fill="#ffffff" stroke="#000000" stroke-width="2" stroke-linecap="butt"/><path d="M229.56205,81.83453c1.00951,1.75717 -1.42166,5.0485 -5.43017,7.35146c-4.00851,2.30295 -8.07642,2.7454 -9.08592,0.98825c-1.00951,-1.75717 1.42165,-5.04851 5.43017,-7.35146c4.00851,-2.30295 8.07642,-2.7454 9.08593,-0.98824z" fill="#000000" stroke="#000000" stroke-width="2" stroke-linecap="butt"/><path d="M260.89559,83.63407c3.8993,2.48337 6.17783,5.88218 5.08923,7.59146c-1.0886,1.7093 -5.1321,1.08176 -9.0314,-1.40159c-3.8993,-2.48337 -6.17784,-5.88218 -5.08925,-7.59145c1.0886,-1.7093 5.13209,-1.08176 9.0314,1.40159z" data-paper-data="{&quot;index&quot;:null}" fill="#000000" stroke="#000000" stroke-width="2" stroke-linecap="butt"/><path d="M243.65875,93.64227c-0.03178,1.39284 -6.45138,1.24639 -6.41959,-0.14646c0.03178,-1.39284 1.49462,-2.4892 3.26733,-2.44875c1.77273,0.04045 3.18404,1.20235 3.15225,2.59522z" fill="#000000" stroke="#000000" stroke-width="2" stroke-linecap="butt"/><path d="M240.18037,99.48702l0.14005,-5.83669" fill="none" stroke="#000000" stroke-width="1" stroke-linecap="round"/><path d="M240.1377,98.88334c0,0 -0.09562,0.87775 -0.61978,1.68939c-0.46222,0.71573 -1.32747,1.35499 -1.76547,1.65045c-0.28102,0.18959 -1.75496,0.61084 -2.53455,0.30034c-1.23934,-0.49361 -1.87339,-1.89578 -1.87339,-1.89578" data-paper-data="{&quot;index&quot;:null}" fill="none" stroke="#000000" stroke-width="1" stroke-linecap="round"/><path d="M209.09067,97.76148c0.05842,0.03854 0.12236,0.11365 0.11922,0.25743c-0.00248,0.1124 -0.04386,0.1704 -0.09033,0.19996c-0.02308,0.03652 -0.06,0.06698 -0.11812,0.08114c-0.08849,0.0216 -0.15082,-0.01293 -0.19322,-0.05974c-1.10757,0.06356 -4.1375,1.76319 -2.45807,2.79939c0.56045,0.36036 1.41413,0.27823 1.9285,-0.0599c0.12561,-0.08258 0.50973,-0.46018 0.68528,-0.4071c0.47695,0.1442 0.54234,1.18128 0.65984,1.60069c0.2351,0.83918 0.82109,1.47322 1.45272,1.88753c1.6769,0.66372 2.22895,-0.69094 2.15382,-2.56523c-0.01414,-0.35306 -0.40673,-1.34359 -0.27939,-1.60741c0.12045,-0.24954 0.54775,-0.3159 0.77297,-0.37096c0.81077,-0.38664 2.10666,-1.06827 2.55704,-2.0244c0.80278,-1.70424 -0.80031,-2.00041 -1.76695,-1.76405c-0.44444,0.10841 -1.6688,1.00228 -2.06111,0.90804c-0.45546,-0.1094 -0.42354,-0.62164 -0.54827,-0.97512c-0.40474,-1.1471 -1.74136,-2.86666 -2.69341,-1.67827c-0.77784,0.87099 -0.41113,2.57687 -0.12049,3.778zM208.6417,97.72399c-0.32821,-1.40069 -0.60774,-3.11924 0.25306,-4.14069c0.96313,-1.06083 2.33298,-0.19867 2.99224,1.07912c0.06482,0.12567 0.375,0.72123 0.41329,0.82979c0.07182,0.20355 0.00885,0.64864 0.18086,0.62327c0.56528,-0.08344 1.27484,-0.75158 1.90623,-0.90558c1.35703,-0.33028 3.24933,0.48159 2.27735,2.57809c-0.49509,1.06789 -1.87648,1.80871 -2.78038,2.23805c-0.81284,0.19785 -0.19726,1.32121 -0.24909,2.37752c-0.0973,1.98315 -1.10587,2.77839 -2.69504,2.13996c-0.63642,-0.41544 -1.24676,-1.01539 -1.58359,-1.81499c-0.04886,-0.11599 -0.42661,-1.63996 -0.43962,-1.63875c-0.99875,0.09259 -1.50917,1.18288 -2.73422,0.4147c-2.29533,-1.43412 0.90773,-3.59993 2.45891,-3.78048z" fill="#c5c5c5" stroke="none" stroke-width="0.5" stroke-linecap="butt"/><path d="M272.1963,94.86996c-0.89687,-1.23056 -2.3105,0.42623 -2.76713,1.55369c-0.14071,0.34744 -0.13217,0.8606 -0.59216,0.94911c-0.39621,0.07625 -1.57853,-0.87254 -2.01756,-1.00112c-0.95484,-0.28019 -2.56977,-0.05743 -1.84557,1.68164c0.40628,0.97567 1.66977,1.71568 2.46206,2.13891c0.22247,0.06528 0.64627,0.15105 0.75522,0.40583c0.11518,0.26937 -0.32216,1.24094 -0.3524,1.593c-0.16055,1.8689 0.32916,3.24734 2.03459,2.66079c0.64986,-0.38507 1.26416,-0.99171 1.53729,-1.8193c0.13652,-0.41362 0.24912,-1.44663 0.73215,-1.56893c0.1778,-0.04501 0.5443,0.34971 0.66601,0.43793c0.49844,0.36122 1.34747,0.48222 1.92378,0.14779c1.72493,-0.95855 -1.22434,-2.79458 -2.32787,-2.9086c-0.04447,0.04482 -0.10831,0.07648 -0.19573,0.05087c-0.05741,-0.01681 -0.09291,-0.04891 -0.1143,-0.08645c-0.04508,-0.03167 -0.08375,-0.09147 -0.0811,-0.20388c0.00341,-0.14378 0.07071,-0.21591 0.13082,-0.25174c0.34511,-1.18663 0.78922,-2.87401 0.05194,-3.77957zM274.87854,102.52124c-1.25883,0.71152 -1.71896,-0.4009 -2.71246,-0.53896c-0.01293,-0.0018 -0.45981,1.50336 -0.51391,1.617c-0.37292,0.78339 -1.01,1.35489 -1.66471,1.74088c-1.61663,0.56529 -2.58789,-0.2751 -2.59464,-2.26065c-0.0036,-1.05757 0.66257,-2.15169 -0.1404,-2.38641c-0.88338,-0.4701 -2.22953,-1.27316 -2.6754,-2.36252c-0.87535,-2.13865 1.05199,-2.86338 2.39256,-2.47155c0.6237,0.18266 1.30204,0.88246 1.86294,0.99158c0.17066,0.0332 0.12809,-0.41432 0.20909,-0.61437c0.04321,-0.10669 0.38024,-0.68753 0.45073,-0.81009c0.71683,-1.2464 2.12457,-2.04517 3.03834,-0.94152c0.81331,1.05965 0.45572,2.76367 0.06396,4.14793c1.54134,0.2511 4.6423,2.56073 2.28392,3.88869z" data-paper-data="{&quot;index&quot;:null}" fill="#c5c5c5" stroke="none" stroke-width="0.5" stroke-linecap="butt"/><path d="M246.94649,101.08099c0,0 -0.69734,1.37179 -1.95789,1.80836c-0.79294,0.27461 -2.24612,-0.21342 -2.51821,-0.41562c-0.42406,-0.31513 -1.25929,-0.99318 -1.68837,-1.72926c-0.48658,-0.8347 -0.54209,-1.7159 -0.54209,-1.7159" data-paper-data="{&quot;index&quot;:null}" fill="none" stroke="#000000" stroke-width="1" stroke-linecap="round"/></g></g></svg>