<svg version="1.1" xmlns="http://www.w3.org/2000/svg" xmlns:xlink="http://www.w3.org/1999/xlink" width="131.77276" height="233.29749" viewBox="0,0,131.77276,233.29749"><defs><radialGradient cx="248.04366" cy="104.81972" r="63.7549" gradientUnits="userSpaceOnUse" id="color-1"><stop offset="0" stop-color="#ffffff"/><stop offset="1" stop-color="#c3c3c3"/></radialGradient></defs><g transform="translate(-179.38704,-74.00253)"><g data-paper-data="{&quot;isPaintingLayer&quot;:true}" fill-rule="nonzero" stroke-linejoin="miter" stroke-miterlimit="10" stroke-dasharray="" stroke-dashoffset="0" style="mix-blend-mode: normal"><path d="M310.03517,136.02146c-0.77204,10.63326 -29.47969,1.07066 -64.59811,-1.47913c-35.11842,-2.5498 -64.84227,0.43088 -64.07024,-10.20239c0.4218,-5.8095 5.28194,-26.86016 19.27332,-36.85864c7.10602,-5.07808 15.79779,-9.5238 26.65317,-11.57543c6.89165,-1.3025 15.83168,-1.35514 22.01828,-0.90596c12.78122,0.92799 24.84303,1.20411 36.38079,8.51616c1.11813,0.70861 13.15537,8.63993 17.40624,18.55104c5.98604,13.95671 6.93653,33.95436 6.93653,33.95436z" fill="url(#color-1)" stroke="#000000" stroke-width="2" stroke-linecap="butt"/><g fill="#9a9a9a" stroke="none" stroke-width="0" stroke-linecap="butt"><path d="M209.22509,109.11772l6.2786,-26.94483l37.00856,8.62362l-6.2786,26.94483z"/><path d="M224.22615,94.11756l3.33597,-14.31647l3.2012,0.74593l-3.33597,14.31647z"/><path d="M227.20145,82.17278l0.54573,-2.34202l14.53806,3.38761l-0.54573,2.34203z"/><path d="M235.81216,96.89064l3.33598,-14.31646l3.2012,0.74593l-3.33599,14.31647z"/></g><g stroke="none" stroke-width="0" stroke-linecap="butt"><path d="M258.5259,102.74342c-6.83201,1.93082 -13.95335,-2.10486 -15.90596,-9.01394c-1.95261,-6.90908 2.00293,-14.07525 8.83494,-16.00607c6.83201,-1.93082 13.95335,2.10486 15.90595,9.01394c1.95261,6.90908 -2.00293,14.07524 -8.83494,16.00607z" fill="#9a9a9a"/><path d="M246.29988,92.49179c-1.21062,-4.28363 0.62582,-8.69985 4.2087,-10.89235c-0.03486,1.00979 -0.00441,2.28701 0.55498,3.1187c0.72721,1.0812 1.77305,1.55897 2.2608,2.88482c0.43123,1.17225 -0.06632,2.21594 0.02632,3.42373c0.16696,1.47728 1.14718,2.14669 1.65268,3.42751c0.48638,1.2324 -0.20275,2.40234 0.44705,3.69534c0.24754,0.49258 0.59777,0.93881 0.95653,1.3833c-4.50679,0.401 -8.81802,-2.47997 -10.10705,-7.04105z" fill="#cacaca"/><path d="M262.12393,83.82301l5.77385,-1.63177l2.41744,8.55385l-5.77385,1.63177z" fill="#9a9a9a"/><path d="M266.76347,83.89737l3.95615,-1.11807l1.66199,5.88077l-3.95615,1.11807z" fill="#9a9a9a"/></g><g stroke="none" stroke-width="0" stroke-linecap="butt"><path d="M220.29585,115.19582c0,0 -1.3079,0.50475 -3.01701,-0.0905c-1.99869,-0.6961 -4.60348,-2.53117 -7.17614,-2.90445c-1.5409,-0.22358 -5.14225,-0.50049 -6.19854,-0.78885c-3.70638,-1.01183 -8.00139,-2.87541 -8.00139,-2.87541l2.74646,-10.06043c0,0 3.1201,-0.06964 6.80323,0.93584c1.62302,0.44308 5.7516,1.90847 8.00317,2.94671c1.80669,0.83309 5.7141,0.40955 7.25319,0.625c1.6715,0.23399 2.33348,2.15167 2.33348,2.15167z" fill="#9a9a9a"/><path d="M203.33287,107.89947l-11.57638,-3.16031l1.27917,-4.68568l11.57638,3.16031z" fill="#9a9a9a"/><path d="M212.65008,114.0238l-7.47641,-2.04103l3.18225,-11.65677l7.47641,2.04103z" fill="#5f5f5f"/></g><path d="M268.98248,116.01784l-7.99492,-16.34996l12.93623,-6.32565l7.99492,16.34996z" fill="#9a9a9a" stroke="none" stroke-width="0" stroke-linecap="butt"/><path d="M206.47614,306.30001l15.14285,-131.8421l37.78325,-0.15789l13.57389,132z" fill="#5fd6f4" stroke="#000000" stroke-width="2" stroke-linecap="butt"/><path d="M219.42636,202.91269l3.12142,-26.32765l35.83075,-0.14203l2.76735,26.1059c0,0 -7.51543,4.19603 -21.55904,4.50964c-12.48458,0.27879 -20.16049,-4.14586 -20.16049,-4.14586z" fill="#387e8f" stroke="#000000" stroke-width="0" stroke-linecap="butt"/><path d="M218.1129,201.37751c0,0 -0.86037,-1.64644 -1.18821,-3.42169c-0.34066,-1.84471 -0.14619,-3.82852 0.02426,-4.24864c0.80908,-1.99419 2.99728,-3.99633 2.99728,-3.99633l40.16666,0.5c0,0 2.58695,1.45609 3.27161,3.19102c0.40553,1.02761 0.22839,2.86943 0.22839,3.47565c0,0.73804 -0.05964,2.54278 -1.11019,3.48972c-1.03264,0.9308 -3.05648,2.01028 -3.05648,2.01028z" fill="#54bed8" stroke="#000000" stroke-width="2" stroke-linecap="butt"/><path d="M249.68928,238.88699c-2.12043,1.56754 -9.37984,-4.83026 -9.37984,-4.83026c0,0 -7.15111,6.52447 -9.29851,4.99165c-2.14911,-1.53259 1.69445,-10.41655 1.69445,-10.41655c0,0 -8.41373,-4.78548 -7.61958,-7.30111c0.79398,-2.51748 10.4295,-1.60702 10.4295,-1.60702c0,0 1.94919,-9.48018 4.58738,-9.50471c2.64192,-0.02316 4.75443,9.42378 4.75443,9.42378c0,0 9.61861,-1.07594 10.45386,1.42773c0.84036,2.50147 -7.49126,7.43109 -7.49126,7.43109c0,0 3.99534,8.81736 1.86957,10.3854z" fill="#ffff00" stroke="#000000" stroke-width="2" stroke-linecap="butt"/><path d="M227.48488,196.03314l-0.25,4.5" fill="none" stroke="#000000" stroke-width="2" stroke-linecap="round"/><path d="M240.60988,200.28314l-0.125,-3.75" fill="none" stroke="#000000" stroke-width="2" stroke-linecap="round"/><path d="M255.48488,194.78314l-0.125,7.125" fill="none" stroke="#000000" stroke-width="2" stroke-linecap="round"/><path d="M180.5376,135.8589c0.33164,-4.56757 0.12521,-16.56383 4.56184,-19.57049c2.84569,-1.92849 45.63676,0.60134 59.10367,1.35286c20.27713,1.13157 62.70496,7.06013 64.0404,8.75556c2.42985,3.08485 1.18613,15.26013 0.929,18.80168c-2.41155,33.21442 -33.16242,58.04928 -68.68395,55.47021c-35.52154,-2.57906 -62.3625,-31.59543 -59.95094,-64.80982z" fill="#ec3434" stroke="#000000" stroke-width="2" stroke-linecap="butt"/><path d="M181.25768,135.96515c0.05272,-0.72608 1.16378,56.15109 59.3169,61.3909c55.56286,5.00643 67.78978,-53.18378 67.716,-52.1676c-2.37556,32.71866 -32.73862,57.17768 -67.81779,54.63073c-35.07915,-2.54695 -61.59067,-31.13537 -59.21512,-63.85403z" fill="#a12323" stroke="#000000" stroke-width="0" stroke-linecap="butt"/><path d="M309.91531,126.73785c-0.32137,4.42619 -33.62314,2.75079 -65.20434,0.45781c-31.58119,-2.29297 -61.39942,-5.91657 -61.07806,-10.34276c0.32137,-4.42619 30.8859,-1.87531 62.4671,0.41766c31.58119,2.29297 64.13667,5.0411 63.8153,9.46729z" fill="#b10000" stroke="#000000" stroke-width="2" stroke-linecap="butt"/><path d="M194.02068,137.26846c0.93907,-12.93395 12.1854,-22.65773 25.11936,-21.71865c12.93395,0.93907 22.65773,12.1854 21.71865,25.11936c-0.93907,12.93395 -12.1854,22.65773 -25.11936,21.71865c-12.93395,-0.93907 -22.65773,-12.1854 -21.71865,-25.11936z" fill="#ffffff" stroke="#000000" stroke-width="2" stroke-linecap="butt"/><path d="M201.08746,137.50517c0.66101,-9.10412 8.5772,-15.94859 17.6813,-15.28759c9.10412,0.66101 15.9486,8.57721 15.28759,17.68131c-0.66101,9.10412 -8.57721,15.9486 -17.68131,15.28759c-9.10412,-0.66101 -15.94859,-8.57721 -15.28758,-17.68131z" fill="#000000" stroke="none" stroke-width="0" stroke-linecap="butt"/><path d="M270.10464,166.33502c-12.93395,-0.93907 -22.65773,-12.1854 -21.71865,-25.11936c0.93907,-12.93395 12.1854,-22.65773 25.11936,-21.71865c12.93395,0.93907 22.65773,12.1854 21.71865,25.11936c-0.93907,12.93395 -12.1854,22.65773 -25.11936,21.71865z" data-paper-data="{&quot;index&quot;:null}" fill="#ffffff" stroke="#000000" stroke-width="2" stroke-linecap="butt"/><path d="M270.26649,159.09932c-9.10411,-0.66101 -15.94859,-8.57721 -15.28758,-17.68131c0.66101,-9.10412 8.57721,-15.9486 17.6813,-15.28759c9.10411,0.66101 15.94859,8.57721 15.28758,17.68131c-0.66101,9.10412 -8.57721,15.9486 -17.6813,15.28759z" data-paper-data="{&quot;index&quot;:null}" fill="#000000" stroke="none" stroke-width="0" stroke-linecap="butt"/><path d="M193.93756,137.26242c0.93907,-12.93395 12.1854,-22.65773 25.11936,-21.71865c12.93395,0.93907 22.65773,12.1854 21.71865,25.11936c0,0 -46.9272,-2.17239 -46.83802,-3.4007z" fill="#ec3434" stroke="#000000" stroke-width="2" stroke-linecap="butt"/><path d="M248.13666,141.19759c0.93907,-12.93395 12.1854,-22.65773 25.11936,-21.71865c12.93395,0.93907 22.65773,12.1854 21.71865,25.11936c-0.08789,1.21061 -46.83802,-3.4007 -46.83802,-3.4007z" data-paper-data="{&quot;index&quot;:null}" fill="#ec3434" stroke="#000000" stroke-width="2" stroke-linecap="butt"/><path d="M208.71134,109.45078c0,0 7.06567,-4.66982 12.22706,-5.49255c5.1614,-0.82273 12.2511,1.59071 12.2511,1.59071c0,0 -8.01265,-0.6422 -11.99863,-0.00683c-4.1655,0.66399 -12.47953,3.90866 -12.47953,3.90866z" fill="#000000" stroke="none" stroke-width="0" stroke-linecap="butt"/><path d="M272.82572,109.2911c-3.8524,-1.20448 -11.87377,-1.72644 -11.87377,-1.72644c0,0 7.36397,-1.36402 12.35239,0.19564c4.98842,1.55966 11.30542,7.20114 11.30542,7.20114c0,0 -7.75814,-4.41161 -11.78404,-5.67034z" data-paper-data="{&quot;index&quot;:null}" fill="#000000" stroke="none" stroke-width="0" stroke-linecap="butt"/><path d="M190.25567,133.11173l3.40227,2.85387" fill="none" stroke="#000000" stroke-width="2" stroke-linecap="round"/><path d="M298.9763,140.97861l-4.43519,3.08693" fill="none" stroke="#000000" stroke-width="2" stroke-linecap="round"/><path d="M220.63439,81.47979c0.82556,1.80872 -1.92647,4.83656 -6.14683,6.76287c-4.22037,1.92631 -8.31089,2.02162 -9.13644,0.21289c-0.82556,-1.80872 1.92647,-4.83656 6.14683,-6.76287c4.22037,-1.92631 8.31089,-2.02162 9.13644,-0.21289z" fill="#ffffff" stroke="none" stroke-width="0" stroke-linecap="butt"/><path d="M227.52478,80.90937c-0.08399,1.15675 -1.08981,2.0264 -2.24656,1.94242c-1.15675,-0.08399 -2.0264,-1.08981 -1.94242,-2.24656c0.08399,-1.15675 1.08981,-2.0264 2.24656,-1.94242c1.15675,0.08399 2.0264,1.08981 1.94242,2.24656z" fill="#ffffff" stroke="none" stroke-width="0" stroke-linecap="butt"/><path d="M254.41568,183.30465c0,0 -4.37559,3.69283 -13.17677,3.19705c-7.2553,-0.40869 -11.8669,-5.01536 -11.8669,-5.01536" fill="none" stroke="#000000" stroke-width="2" stroke-linecap="round"/></g></g></svg>