<svg version="1.1" xmlns="http://www.w3.org/2000/svg" xmlns:xlink="http://www.w3.org/1999/xlink" width="201.26396" height="269.18371" viewBox="0,0,201.26396,269.18371"><defs><linearGradient x1="240.9984" y1="177.03175" x2="240.9984" y2="309.03174" gradientUnits="userSpaceOnUse" id="color-1"><stop offset="0" stop-color="#000000"/><stop offset="1" stop-color="#d4b490"/></linearGradient><linearGradient x1="240.53166" y1="192.82771" x2="240.53166" y2="235.07339" gradientUnits="userSpaceOnUse" id="color-2"><stop offset="0" stop-color="#000000"/><stop offset="1" stop-color="#deb88e"/></linearGradient><linearGradient x1="241.07531" y1="80.91783" x2="241.07531" y2="198.67619" gradientUnits="userSpaceOnUse" id="color-3"><stop offset="0" stop-color="#000000"/><stop offset="1" stop-color="#e8c49a"/></linearGradient><linearGradient x1="140.84819" y1="160.30087" x2="195.11215" y2="160.30087" gradientUnits="userSpaceOnUse" id="color-4"><stop offset="0" stop-color="#000000"/><stop offset="1" stop-color="#967e63"/></linearGradient><linearGradient x1="287.84819" y1="157.80087" x2="342.11215" y2="157.80087" gradientUnits="userSpaceOnUse" id="color-5"><stop offset="0" stop-color="#957e64"/><stop offset="1" stop-color="#000000"/></linearGradient><linearGradient x1="256.34782" y1="46.9735" x2="260.14736" y2="103.16815" gradientUnits="userSpaceOnUse" id="color-6"><stop offset="0" stop-color="#a1886b"/><stop offset="1" stop-color="#000000"/></linearGradient><linearGradient x1="241.37567" y1="171.51235" x2="241.65516" y2="188.20448" gradientUnits="userSpaceOnUse" id="color-7"><stop offset="0" stop-color="#000000"/><stop offset="1" stop-color="#ffffff"/></linearGradient><linearGradient x1="242.70867" y1="145.80589" x2="242.70867" y2="161.66304" gradientUnits="userSpaceOnUse" id="color-8"><stop offset="0" stop-color="#412d4c" stop-opacity="0"/><stop offset="1" stop-color="#412d4c"/></linearGradient><radialGradient cx="213.88538" cy="139.12535" r="8.6" gradientUnits="userSpaceOnUse" id="color-9"><stop offset="0" stop-color="#ff0000"/><stop offset="1" stop-color="#ff0000" stop-opacity="0"/></radialGradient><radialGradient cx="267.28538" cy="138.32535" r="8.6" gradientUnits="userSpaceOnUse" id="color-10"><stop offset="0" stop-color="#ff0000"/><stop offset="1" stop-color="#ff0000" stop-opacity="0"/></radialGradient></defs><g transform="translate(-140.84819,-47.1605)"><g data-paper-data="{&quot;isPaintingLayer&quot;:true}" fill-rule="nonzero" stroke-linejoin="miter" stroke-miterlimit="10" stroke-dasharray="" stroke-dashoffset="0" style="mix-blend-mode: normal"><path d="M180.28205,316.34421v-267.22501h123.18203v267.22501z" fill-opacity="0.01" fill="#000000" stroke="none" stroke-width="0" stroke-linecap="butt"/><path d="M207.7484,309.03174l15.14285,-131.8421l37.78325,-0.15789l13.57389,132z" fill="url(#color-1)" stroke="none" stroke-width="0" stroke-linecap="butt"/><path d="M220.69862,205.64437l3.12142,-26.32765l35.83075,-0.14203l2.76735,26.1059c0,0 -7.51543,4.19603 -21.55904,4.50964c-12.48458,0.27879 -20.16049,-4.14586 -20.16049,-4.14586z" fill="#cca170" stroke="none" stroke-width="0" stroke-linecap="butt"/><path d="M270.90666,198.69839c0,2.30815 -3.18821,22.08962 -5.54022,24.62356c-1.44432,1.55604 -8.61003,-1.89423 -10.01931,-0.61498c-1.83404,1.66481 -12.20782,12.36642 -16.19046,12.36642c-0.98854,0 -7.79625,-10.39799 -10.55794,-12.06768c-3.0515,-1.84491 -10.07195,2.62103 -11.28693,1.75156c-3.77432,-2.70101 -7.15514,-21.29382 -7.15514,-24.30887c0,-7.66295 12.84567,-7.375 29,-7.375c16.15433,0 31.75,-2.03795 31.75,5.625z" fill="url(#color-2)" stroke="none" stroke-width="0" stroke-linecap="butt"/><path d="M176.83829,138.37787c0,-24.86961 0.53942,-44.72272 23.43776,-53.94172c7.76386,-3.12578 78.06474,-7.32917 89.64055,3.26571c11.96565,10.95168 15.39573,33.74936 15.39573,50.67601c0,22.27378 -4.86585,44.06016 -24.00215,54.50148c-9.47466,5.16965 -28.48645,5.79685 -40.23487,5.79685c-8.03759,0 -28.39706,-1.05234 -35.48875,-3.58308c-24.21035,-8.6397 -28.74827,-30.95817 -28.74827,-56.71525z" fill="url(#color-3)" stroke="none" stroke-width="2" stroke-linecap="butt"/><path d="M190.38851,138.80738c0,-12.968 10.51265,-23.48065 23.48065,-23.48065c12.968,0 23.48065,10.51265 23.48065,23.48065c0,12.968 -10.51265,17.88065 -23.48065,17.88065c-12.968,0 -23.48065,-4.91265 -23.48065,-17.88065z" fill="#ff0000" stroke="none" stroke-width="2" stroke-linecap="butt"/><path d="M267.72755,157.48801c-12.968,0 -23.08065,-5.71265 -23.08065,-18.68065c0,-12.968 10.51265,-23.48065 23.48065,-23.48065c12.968,0 23.48065,10.51265 23.48065,23.48065c0,12.968 -10.91265,18.68065 -23.88065,18.68065z" data-paper-data="{&quot;index&quot;:null}" fill="#ff0000" stroke="none" stroke-width="2" stroke-linecap="butt"/><path d="M227.15752,103.24018c0,0 -6.70895,5.16922 -11.79721,6.36355c-5.08827,1.19433 -12.33413,-0.69937 -12.33413,-0.69937c0,0 8.03812,0.06028 11.96762,-0.86207c4.10648,-0.96389 12.16372,-4.80211 12.16372,-4.80211z" data-paper-data="{&quot;index&quot;:null}" fill="#000000" stroke="none" stroke-width="0" stroke-linecap="butt"/><path d="M267.15675,108.0423c3.9295,0.92235 11.96762,0.86207 11.96762,0.86207c0,0 -7.24586,1.8937 -12.33413,0.69937c-5.08826,-1.19433 -11.79721,-6.36355 -11.79721,-6.36355c0,0 8.05724,3.83822 12.16372,4.80211z" data-paper-data="{&quot;index&quot;:null}" fill="#000000" stroke="none" stroke-width="0" stroke-linecap="butt"/><path d="M195.11215,185.03786c0,0 -4.38211,2.47136 -10.69921,4.31684c-2.67435,0.78129 -11.34831,3.07595 -19.0647,1.37309c-9.22984,-2.03686 -17.52039,-8.28555 -18.38811,-9.19771c-5.08285,-5.34311 -6.11194,-10.64608 -6.11194,-10.64608c0,0 8.80498,0.90039 16.25964,0.70304c3.48555,-0.09227 6.28521,-0.81523 8.46312,-1.27089c1.86996,-0.39123 4.83933,-1.24504 6.888,-2.47599c3.44872,-2.07218 5.6637,-4.75466 5.6637,-4.75466c0,0 -2.83488,-0.06444 -6.96433,-0.71668c-1.73677,-0.27432 -6.5199,-0.5903 -10.52798,-2.24389c-5.55953,-2.29367 -10.55185,-6.23692 -12.11608,-7.95087c-4.89988,-5.36889 -6.29605,-11.61295 -6.29605,-11.61295c0,0 17.39097,1.91079 23.28735,-1.15046c7.08068,-3.67611 15.54777,-10.15111 15.54777,-10.15111" data-paper-data="{&quot;index&quot;:null}" fill="url(#color-4)" stroke="none" stroke-width="2" stroke-linecap="round"/><g stroke="none" stroke-width="0" stroke-linecap="butt"><path d="M205.40892,173.29216c0,4.86067 -4.2906,8.80102 -9.58333,8.80102c-5.29273,0 -9.58333,-3.94035 -9.58333,-8.80102c0,-4.86067 4.2906,-8.80102 9.58333,-8.80102c5.29273,0 9.58333,3.94035 9.58333,8.80102z" fill="#bd9568"/><path d="M192.724,169.75595c0,0.86412 -0.71643,1.56463 -1.60019,1.56463c-0.88376,0 -1.60019,-0.70051 -1.60019,-1.56463c0,-0.86412 0.71643,-1.56463 1.60019,-1.56463c0.88376,0 1.60019,0.70051 1.60019,1.56463z" fill="#860000"/><path d="M202.68071,171.0361c0,0.86412 -0.71643,1.56463 -1.60019,1.56463c-0.88376,0 -1.60019,-0.70051 -1.60019,-1.56463c0,-0.86412 0.71643,-1.56463 1.60019,-1.56463c0.88376,0 1.60019,0.70051 1.60019,1.56463z" fill="#860000"/><path d="M197.20452,178.29027c0,0.86412 -0.71643,1.56463 -1.60019,1.56463c-0.88376,0 -1.60019,-0.70051 -1.60019,-1.56463c0,-0.86412 0.71643,-1.56463 1.60019,-1.56463c0.88376,0 1.60019,0.70051 1.60019,1.56463z" fill="#860000"/></g><path d="M301.90701,126.75956c0,0 8.46709,6.475 15.54777,10.15111c5.89638,3.06125 23.28735,1.15046 23.28735,1.15046c0,0 -1.39617,6.24406 -6.29605,11.61295c-1.56423,1.71395 -6.55655,5.6572 -12.11608,7.95087c-4.00808,1.65359 -8.79121,1.96957 -10.52798,2.24389c-4.12945,0.65224 -6.96433,0.71668 -6.96433,0.71668c0,0 2.21498,2.68248 5.6637,4.75466c2.04867,1.23095 5.01804,2.08476 6.888,2.47599c2.17791,0.45566 4.97757,1.17862 8.46312,1.27089c7.45466,0.19735 16.25964,-0.70304 16.25964,-0.70304c0,0 -1.02909,5.30297 -6.11194,10.64608c-0.86772,0.91216 -9.15827,7.16085 -18.38811,9.19771c-7.71639,1.70286 -16.39035,-0.5918 -19.0647,-1.37309c-6.3171,-1.84548 -10.69921,-4.31684 -10.69921,-4.31684" data-paper-data="{&quot;index&quot;:null}" fill="url(#color-5)" stroke="none" stroke-width="2" stroke-linecap="round"/><g data-paper-data="{&quot;index&quot;:null}" stroke="none" stroke-width="0" stroke-linecap="butt"><path d="M287.58315,164.50627c4.74045,0 8.58333,3.52918 8.58333,7.88265c0,4.35347 -3.84289,7.88265 -8.58333,7.88265c-4.74045,0 -8.58333,-3.52918 -8.58333,-7.88265c0,-4.35347 3.84289,-7.88265 8.58333,-7.88265z" fill="#bd9568"/><path d="M291.79433,167.82037c0.79154,0 1.43321,0.62741 1.43321,1.40136c0,0.77395 -0.64167,1.40136 -1.43321,1.40136c-0.79154,0 -1.43321,-0.62741 -1.43321,-1.40136c0,-0.77395 0.64167,-1.40136 1.43321,-1.40136z" fill="#005387"/><path d="M282.87657,168.96694c0.79154,0 1.43321,0.62741 1.43321,1.40136c0,0.77395 -0.64167,1.40136 -1.43321,1.40136c-0.79154,0 -1.43321,-0.62741 -1.43321,-1.40136c0,-0.77395 0.64167,-1.40136 1.43321,-1.40136z" fill="#005387"/><path d="M287.78132,175.46415c0.79154,0 1.43321,0.62741 1.43321,1.40136c0,0.77395 -0.64167,1.40136 -1.43321,1.40136c-0.79154,0 -1.43321,-0.62741 -1.43321,-1.40136c0,-0.77395 0.64167,-1.40136 1.43321,-1.40136z" fill="#005387"/></g><path d="M227.58514,86.79653c0,0 6.58941,-8.37836 10.36135,-15.40845c3.14106,-5.85425 1.46665,-23.26958 1.46665,-23.26958c0,0 6.22452,1.48085 11.52636,6.45321c1.69254,1.58737 5.56763,6.63279 7.78557,12.22296c1.599,4.03017 1.84999,8.81715 2.10068,10.55749c0.59609,4.13793 0.62201,6.97342 0.62201,6.97342c0,0 2.71232,-2.17833 4.83116,-5.59859c1.25867,-2.03176 2.15272,-4.98926 2.56931,-6.85373c0.4852,-2.17152 1.24612,-4.9611 1.38573,-8.44508c0.29859,-7.45129 -0.48213,-16.26768 -0.48213,-16.26768c0,0 5.2885,1.10103 10.56208,6.25598c0.90029,0.88003 7.0358,9.25469 8.9471,18.51134c1.5979,7.73881 -0.81437,16.3808 -1.63192,19.04429c-1.93111,6.29144 -4.46177,10.63959 -4.46177,10.63959" data-paper-data="{&quot;index&quot;:null}" fill="url(#color-6)" stroke="none" stroke-width="2" stroke-linecap="round"/><path d="M215.26753,158.42135c-8.03007,0 -17.12896,-0.18008 -21.37722,-6.72501c-1.89369,-2.91744 -2.52779,-5.73191 -3.04203,-9.21768c0.25829,-0.02407 44.96055,-0.57569 46.21261,-0.62024c-1.32791,11.68777 -9.91591,16.56293 -21.79336,16.56293z" fill="#ff5d5d" stroke="none" stroke-width="2" stroke-linecap="butt"/><path d="M197.45389,138.53171c0,-9.12808 7.39976,-16.52784 16.52783,-16.52784c9.12808,0 16.52784,7.39977 16.52784,16.52784c0,9.12808 -7.39977,16.52784 -16.52784,16.52784c-9.12808,0 -16.52783,-7.39977 -16.52783,-16.52784z" fill="#000000" stroke="none" stroke-width="0" stroke-linecap="butt"/><path d="M244.84829,141.35844c1.25206,0.04455 45.95431,0.59617 46.2126,0.62024c-0.51423,3.48577 -1.14834,6.30024 -3.04203,9.21768c-4.24825,6.54493 -11.74714,6.52501 -19.77722,6.52501c-11.87745,0 -22.06545,-4.67515 -23.39336,-16.36292z" data-paper-data="{&quot;index&quot;:null}" fill="#ff5d5d" stroke="none" stroke-width="2" stroke-linecap="butt"/><path d="M268.015,155.05956c-9.12807,0 -16.52783,-7.39977 -16.52783,-16.52784c0,-9.12808 7.39977,-16.52784 16.52783,-16.52784c9.12807,0 16.52783,7.39977 16.52783,16.52784c0,9.12808 -7.39977,16.52784 -16.52783,16.52784z" data-paper-data="{&quot;index&quot;:null}" fill="#000000" stroke="none" stroke-width="0" stroke-linecap="butt"/><path d="M216.04651,139.09025c0,1.07005 -0.89543,1.9375 -2,1.9375c-1.10457,0 -2,-0.86745 -2,-1.9375c0,-1.07005 0.89543,-1.9375 2,-1.9375c1.10457,0 2,0.86745 2,1.9375z" fill="#ff0000" stroke="none" stroke-width="0" stroke-linecap="butt"/><path d="M269.79651,138.59025c0,1.07005 -0.89543,1.9375 -2,1.9375c-1.10457,0 -2,-0.86745 -2,-1.9375c0,-1.07005 0.89543,-1.9375 2,-1.9375c1.10457,0 2,0.86745 2,1.9375z" fill="#ff0000" stroke="none" stroke-width="0" stroke-linecap="butt"/><path d="M218.26872,158.07537c0,1.28867 -4.14137,2.33333 -9.25,2.33333c-5.10863,0 -9.25,-1.04467 -9.25,-2.33333c0,-1.28867 4.14137,-2.33334 9.25,-2.33334c5.10863,0 9.25,1.04467 9.25,2.33334z" fill="#000000" stroke="none" stroke-width="0" stroke-linecap="butt"/><path d="M221.60205,158.40869c0,1.28867 -1.45507,2.33333 -3.25,2.33333c-1.79493,0 -3.25,-1.04467 -3.25,-2.33333c0,-1.28867 1.45507,-2.33333 3.25,-2.33333c1.79493,0 3.25,1.04467 3.25,2.33333z" fill="#000000" stroke="none" stroke-width="0" stroke-linecap="butt"/><path d="M211.85205,171.09622c0,0.27614 -0.16789,0.5 -0.375,0.5c-0.20711,0 -0.375,-0.22386 -0.375,-0.5c0,-0.27614 0.16789,-0.5 0.375,-0.5c0.20711,0 0.375,0.22386 0.375,0.5z" fill="#000000" stroke="none" stroke-width="0" stroke-linecap="butt"/><g><path d="M264.91791,184.11892c0.07238,0.77617 -11.70708,-1.07156 -23.39586,-1.16226c-11.61528,-0.09012 -24.28276,1.76484 -24.35653,0.97383c-0.29233,-3.1345 0.61557,-10.15934 13.48644,-10.05674c1.75871,0.01402 8.48247,1.81425 10.5803,1.60158c0.56196,-0.05697 10.7487,-2.5566 13.61068,-1.33373c7.57378,3.2361 9.89956,8.09658 10.07497,9.97733z" fill="url(#color-7)" stroke="none" stroke-width="0" stroke-linecap="butt"/><path d="M218.56012,181.05781c0.72776,-0.55951 5.01187,-2.75071 5.01187,-2.75071l6.07846,2.28291l5.14194,-2.97179l5.78348,3.04407l7.08118,-3.42902l6.82222,3.0194l5.62519,-1.95394" fill="none" stroke="#000000" stroke-width="1" stroke-linecap="round"/></g><path d="M221.13724,158.37731c0,0 4.88424,-1.48782 8.63465,-3.70607c1.6296,-0.96386 2.81335,-2.64506 3.67587,-3.4357c0.88784,-0.81386 2.23182,-4.33647 2.96007,-8.20063c0.84904,-4.50513 0.30085,-8.9433 0.30085,-8.9433l8.14285,-0.28572c0,0 0.33259,8.63836 2.45766,14.36477c0.8315,2.24064 2.69684,4.32117 3.4952,4.97823c2.49871,2.05645 11.04714,4.22843 11.04714,4.22843c0,0 -12.83349,-3.71429 -20.14286,-3.71429c-7.26175,0 -20.57143,4.71429 -20.57143,4.71429z" fill="url(#color-8)" stroke="none" stroke-width="0" stroke-linecap="butt"/><path d="M222.48538,139.12535c0,4.14214 -3.85035,7.5 -8.6,7.5c-4.74965,0 -8.6,-3.35786 -8.6,-7.5c0,-4.14214 3.85035,-7.5 8.6,-7.5c4.74965,0 8.6,3.35786 8.6,7.5z" fill="url(#color-9)" stroke="none" stroke-width="0" stroke-linecap="butt"/><path d="M275.88538,138.32535c0,4.14213 -3.85035,7.5 -8.6,7.5c-4.74965,0 -8.6,-3.35787 -8.6,-7.5c0,-4.14213 3.85035,-7.5 8.6,-7.5c4.74965,0 8.6,3.35787 8.6,7.5z" fill="url(#color-10)" stroke="none" stroke-width="0" stroke-linecap="butt"/><path d="M227.05531,154.05886c0.02862,-0.14542 0.12994,-0.4029 0.48874,-0.4029c0.5,0 0.5,0.5 0.5,0.5l-0.02566,0.55187c-0.7594,2.26377 -1.85472,4.31051 -2.27177,6.67076c-0.52516,1.83044 -0.23703,3.94799 -0.87536,5.7235c-0.27471,0.76412 -0.65651,1.60473 -1.69758,1.07926c-2.36936,-1.19589 1.032,-9.94616 -2.31615,-6.13972c-3.27644,5.03961 -2.05674,13.10409 -1.4498,18.78674c0.26615,3.15048 0.36745,6.3438 0.36745,9.50624c0,0.65246 0.27505,2.87289 -0.14644,3.35356c-0.70675,0.80596 -1.25887,-0.05116 -1.65494,-0.36064c-1.56104,-1.21972 -2.04235,-3.10853 -2.39589,-5.0096c-0.61704,-4.30499 0.24411,-8.76132 0.24411,-13.09606c0,-0.70513 -0.16625,-1.83945 -0.167,-2.85962c-0.90989,0.38573 -2.58928,-1.66549 -2.58928,-3.24359c0,-1.63455 0.20043,-3.41582 0.00645,-5.03872c-0.03573,-0.29889 -0.42847,-1.89786 -0.75114,-1.76389c-2.13898,0.88814 -1.40536,7.19109 -1.40536,8.93704c0,6.78766 -0.26779,13.6404 0.13644,20.41605c0.05119,0.8612 0.49165,3.70856 -0.08601,4.38155c-0.56932,0.66329 -3.23766,0.10104 -3.70407,-0.44381c-1.49352,-1.74471 -0.49647,-7.43526 -0.49634,-9.5489c-0.1984,-6.30278 -0.94501,-12.56661 -1.57109,-18.84163c-0.50818,-2.5329 -0.94221,-5.57967 -2.08509,-7.86023c-0.26809,-0.53496 -2.66031,-1.12474 -3.17644,-1.41736c-1.04486,-0.59239 -2.27382,-1.67365 -3.15592,-2.74445l-0.10271,0.10271l-0.59063,-0.59063c-0.09048,-0.09048 -0.14645,-0.21549 -0.14645,-0.35356c0,-0.27614 0.22386,-0.5 0.5,-0.5c0.04961,0 0.09754,0.00723 0.14279,0.02068l0.82183,0.22446c4.53477,0.63974 8.5443,1.32988 13.21058,1.32988c5.51819,0 11.03131,-0.28676 16.43967,-1.36843c0,0 0.00105,-0.00021 0.00307,-0.00057z" fill="#000000" stroke="none" stroke-width="0.5" stroke-linecap="butt"/><path d="M253.92919,154.05941c5.40835,1.08167 10.92147,1.36843 16.43966,1.36843c4.66627,0 8.6758,-0.69015 13.21058,-1.32988l0.82184,-0.22446c0.04525,-0.01345 0.09317,-0.02068 0.14279,-0.02068c0.27614,0 0.5,0.22386 0.5,0.5c0,0.13807 -0.05597,0.26307 -0.14645,0.35356l-0.59063,0.59063l-0.10271,-0.10271c-0.88211,1.0708 -2.11106,2.15206 -3.15592,2.74445c-0.51612,0.29262 -2.90834,0.8824 -3.17644,1.41736c-1.14289,2.28056 -1.57691,5.32733 -2.08509,7.86023c-0.62608,6.27502 -1.37269,12.53885 -1.57109,18.84163c0.00013,2.11363 0.99718,7.80419 -0.49634,9.5489c-0.46641,0.54485 -3.13475,1.1071 -3.70407,0.44381c-0.57765,-0.67299 -0.1372,-3.52035 -0.08601,-4.38155c0.40422,-6.77565 0.13644,-13.62839 0.13644,-20.41605c0,-1.74595 0.73361,-8.04891 -1.40537,-8.93704c-0.32266,-0.13397 -0.71541,1.465 -0.75113,1.76389c-0.19398,1.62291 0.00645,3.40418 0.00645,5.03872c0,1.5781 -1.67939,3.62932 -2.58928,3.24359c-0.00075,1.02017 -0.167,2.15449 -0.167,2.85962c0,4.33473 0.86115,8.79107 0.24411,13.09606c-0.35354,1.90107 -0.83485,3.78988 -2.39589,5.0096c-0.39607,0.30947 -0.94819,1.1666 -1.65494,0.36064c-0.42149,-0.48066 -0.14645,-2.7011 -0.14645,-3.35355c0,-3.16244 0.10129,-6.35577 0.36745,-9.50624c0.60694,-5.68265 1.82665,-13.74712 -1.4498,-18.78674c-3.34815,-3.80643 0.0532,4.94384 -2.31615,6.13972c-1.04107,0.52546 -1.42286,-0.31515 -1.69758,-1.07926c-0.63833,-1.77551 -0.3502,-3.89306 -0.87535,-5.7235c-0.41706,-2.36025 -1.51238,-4.40699 -2.27178,-6.67076l-0.02566,-0.55187c0,0 0,-0.5 0.5,-0.5c0.3588,0 0.46013,0.25748 0.48874,0.4029c0.00202,0.00036 0.00307,0.00057 0.00307,0.00057z" data-paper-data="{&quot;index&quot;:null}" fill="#000000" stroke="none" stroke-width="0.5" stroke-linecap="butt"/></g></g></svg>