<svg version="1.1" xmlns="http://www.w3.org/2000/svg" xmlns:xlink="http://www.w3.org/1999/xlink" width="203.79109" height="332.08266" viewBox="0,0,203.79109,332.08266"><defs><linearGradient x1="240.0002" y1="175.50002" x2="240.0002" y2="307.50002" gradientUnits="userSpaceOnUse" id="color-1"><stop offset="0" stop-color="#000000"/><stop offset="1" stop-color="#944ca6"/></linearGradient><linearGradient x1="248.17001" y1="222.42846" x2="248.17001" y2="251.30318" gradientUnits="userSpaceOnUse" id="color-2"><stop offset="0" stop-color="#000000"/><stop offset="1" stop-color="#44b1ea"/></linearGradient><linearGradient x1="248.27711" y1="231.82771" x2="248.27711" y2="240.12458" gradientUnits="userSpaceOnUse" id="color-3"><stop offset="0" stop-color="#000000"/><stop offset="1" stop-color="#000000"/></linearGradient><linearGradient x1="241.1529" y1="224.23932" x2="241.1529" y2="254.1966" gradientUnits="userSpaceOnUse" id="color-4"><stop offset="0" stop-color="#000000"/><stop offset="1" stop-color="#5db2df"/></linearGradient><linearGradient x1="241.19248" y1="233.82859" x2="241.19248" y2="242.64269" gradientUnits="userSpaceOnUse" id="color-5"><stop offset="0" stop-color="#000000"/><stop offset="1" stop-color="#000000"/></linearGradient><linearGradient x1="245.41599" y1="215.56383" x2="245.41599" y2="235.08335" gradientUnits="userSpaceOnUse" id="color-6"><stop offset="0" stop-color="#000000"/><stop offset="1" stop-color="#5db2df"/></linearGradient><linearGradient x1="240.89945" y1="194.69356" x2="240.89945" y2="236.75297" gradientUnits="userSpaceOnUse" id="color-7"><stop offset="0" stop-color="#000000"/><stop offset="1" stop-color="#62bbeb"/></linearGradient><linearGradient x1="244.08338" y1="23.00002" x2="244.08338" y2="84.50002" gradientUnits="userSpaceOnUse" id="color-8"><stop offset="0" stop-color="#000000"/><stop offset="1" stop-color="#824591"/></linearGradient><linearGradient x1="244.53544" y1="22.62965" x2="244.53544" y2="38.08029" gradientUnits="userSpaceOnUse" id="color-9"><stop offset="0" stop-color="#000000"/><stop offset="1" stop-color="#ababab"/></linearGradient><linearGradient x1="253.06076" y1="22.64952" x2="253.06076" y2="38.10016" gradientUnits="userSpaceOnUse" id="color-10"><stop offset="0" stop-color="#000000"/><stop offset="1" stop-color="#c6c6c6"/></linearGradient><linearGradient x1="239.12205" y1="22.64952" x2="239.12205" y2="38.10016" gradientUnits="userSpaceOnUse" id="color-11"><stop offset="0" stop-color="#000000"/><stop offset="1" stop-color="#c6c6c6"/></linearGradient><linearGradient x1="230.21956" y1="38.2251" x2="230.21956" y2="52.03134" gradientUnits="userSpaceOnUse" id="color-12"><stop offset="0" stop-color="#000000"/><stop offset="1" stop-color="#ababab"/></linearGradient><linearGradient x1="258.86621" y1="38.2251" x2="258.86621" y2="52.03134" gradientUnits="userSpaceOnUse" id="color-13"><stop offset="0" stop-color="#000000"/><stop offset="1" stop-color="#ababab"/></linearGradient><linearGradient x1="244.50321" y1="46.8419" x2="244.50321" y2="52.00683" gradientUnits="userSpaceOnUse" id="color-14"><stop offset="0" stop-color="#000000"/><stop offset="1" stop-color="#ababab"/></linearGradient><linearGradient x1="244.11371" y1="82.79395" x2="244.11371" y2="204.29395" gradientUnits="userSpaceOnUse" id="color-15"><stop offset="0" stop-color="#000000"/><stop offset="1" stop-color="#9c57ad"/></linearGradient><linearGradient x1="243.86989" y1="92.79394" x2="243.86989" y2="193.1137" gradientUnits="userSpaceOnUse" id="color-16"><stop offset="0" stop-color="#45254d"/><stop offset="1" stop-color="#9244a6"/></linearGradient><linearGradient x1="243.86989" y1="92.79394" x2="243.86989" y2="193.1137" gradientUnits="userSpaceOnUse" id="color-17"><stop offset="0" stop-color="#000000"/><stop offset="1" stop-color="#69257a"/></linearGradient><linearGradient x1="198.52444" y1="183.3326" x2="198.52444" y2="190.66594" gradientUnits="userSpaceOnUse" id="color-18"><stop offset="0" stop-color="#000000"/><stop offset="1" stop-color="#9032a7"/></linearGradient><linearGradient x1="291.5243" y1="184.33259" x2="291.5243" y2="191.66593" gradientUnits="userSpaceOnUse" id="color-19"><stop offset="0" stop-color="#000000"/><stop offset="1" stop-color="#9032a7"/></linearGradient><linearGradient x1="197.02443" y1="93.49926" x2="197.02443" y2="100.8326" gradientUnits="userSpaceOnUse" id="color-20"><stop offset="0" stop-color="#000000"/><stop offset="1" stop-color="#9032a7"/></linearGradient><linearGradient x1="291.35765" y1="92.8326" x2="291.35765" y2="100.16594" gradientUnits="userSpaceOnUse" id="color-21"><stop offset="0" stop-color="#000000"/><stop offset="1" stop-color="#9032a7"/></linearGradient><linearGradient x1="242.36803" y1="175.95072" x2="242.59689" y2="186.70706" gradientUnits="userSpaceOnUse" id="color-22"><stop offset="0" stop-color="#000000"/><stop offset="1" stop-color="#ffffff"/></linearGradient><linearGradient x1="244.82019" y1="139.28587" x2="244.82019" y2="159.53587" gradientUnits="userSpaceOnUse" id="color-23"><stop offset="0" stop-color="#000000" stop-opacity="0"/><stop offset="1" stop-color="#000000"/></linearGradient></defs><g transform="translate(-141.13551,24.58264)"><g data-paper-data="{&quot;isPaintingLayer&quot;:true}" fill-rule="nonzero" stroke-linejoin="miter" stroke-miterlimit="10" stroke-dasharray="" stroke-dashoffset="0" style="mix-blend-mode: normal"><path d="M206.75021,307.50001l15.14285,-131.8421l37.78325,-0.15789l13.57389,132z" fill="url(#color-1)" stroke="none" stroke-width="0" stroke-linecap="butt"/><g stroke="none" stroke-width="0"><g><path d="M254.6149,235.0049c2.02366,6.34669 -0.78435,16.08162 -1.45194,16.29448c-0.55373,0.17656 -8.50598,-5.82868 -10.61611,-12.44654c-2.53062,-7.93661 -1.88056,-15.23189 1.45194,-16.29447c3.3325,-1.06258 8.0855,4.50992 10.61611,12.44653z" fill="url(#color-2)" stroke-linecap="butt"/><path d="M246.74876,231.82771l3.05667,8.29687" fill="url(#color-3)" stroke-linecap="round"/></g><g><path d="M247.35389,240.01011c-0.82264,6.61051 -7.45218,14.27229 -8.14753,14.18576c-0.57674,-0.07178 -5.27998,-8.85702 -4.42219,-15.74999c1.02873,-8.26653 4.67649,-14.61772 8.14753,-14.18577c3.47103,0.43195 5.45091,7.48347 4.42219,15.75z" fill="url(#color-4)" stroke-linecap="butt"/><path d="M241.54353,233.82859l-0.70209,8.8141" fill="url(#color-5)" stroke-linecap="round"/></g><path d="M255.17575,225.32359c0,5.39016 -4.3696,9.75976 -9.75976,9.75976c-5.39016,0 -9.75976,-4.3696 -9.75976,-9.75976c0,-5.39016 4.3696,-9.75976 9.75976,-9.75976c5.39016,0 9.75976,4.3696 9.75976,9.75976z" fill="url(#color-6)" stroke-linecap="butt"/></g><path d="M216.96161,194.69356l46.78867,1.9676c0,0 -1.49345,22.64716 -6.99073,31.65896c-0.65889,1.08012 -13.40692,-5.88778 -13.85878,-5.75392c-0.35969,0.10655 -12.11594,14.18807 -12.14081,14.18676c-0.10439,-0.0055 -12.12561,-26.82656 -12.97637,-30.78935c-1.53592,-7.15421 -0.82199,-11.27005 -0.82199,-11.27005z" fill="url(#color-7)" stroke="none" stroke-width="0" stroke-linecap="butt"/><path d="M179.83338,84.50002v-61.5h128.5v61.5z" fill="url(#color-8)" stroke="none" stroke-width="0" stroke-linecap="butt"/><g stroke="none" stroke-linecap="butt"><g><path d="M226.70033,38.08029v-15.45064h35.67021v15.45064z" fill="url(#color-9)" stroke-width="2"/><g stroke-width="0"><path d="M262.30734,22.64952v1.59134c-0.55761,0.7044 -1.11141,1.41036 -1.67799,2.10559c-1.84967,2.26962 -7.62269,10.15394 -8.79728,11.75371h-8.01798c0.43756,-0.51406 15.07093,-15.15693 15.35919,-15.45064z" fill="url(#color-10)"/><path d="M226.63721,38.10015v-6.42332c2.07615,-1.99802 8.41154,-7.94528 9.57654,-9.02731h15.39317c-0.164,0.14757 -0.32894,0.29569 -0.49542,0.4441c-2.20178,1.96293 -14.0614,14.18009 -14.74885,15.00654z" fill="url(#color-11)"/></g><path d="M226.70033,38.08029v-15.45064h35.67021v15.45064z" fill="none" stroke-width="2"/></g><path d="M226.72751,52.03134v-13.80624h6.9841v13.80624z" fill="url(#color-12)" stroke-width="2"/><path d="M255.37416,52.03134v-13.80624h6.9841v13.80624z" fill="url(#color-13)" stroke-width="2"/><path d="M226.66811,52.00683v-5.16493h35.6702v5.16493z" fill="url(#color-14)" stroke-width="2"/></g><g data-paper-data="{&quot;index&quot;:null}" fill="#000000" stroke="none" stroke-width="0" stroke-linecap="butt"><path d="M322.50887,17.28459c0,0 -6.23545,14.51601 -13.56316,29.5459c-6.92656,14.20713 -14.88745,28.84232 -17.51601,33.15735c-5.47472,8.98726 -11.13597,16.73924 -15.69074,20.89363c-3.24008,2.95529 -6.38451,3.65606 -6.41161,3.64163c-3.98296,-2.12271 -22.69358,-17.79319 -22.69358,-17.79319c0,0 17.89462,-22.29776 23.79421,-33.36751c1.07873,-2.02406 9.11186,-14.93218 15.04016,-27.38585c5.52377,-11.60388 9.00565,-22.87778 9.00565,-22.87778l28.0351,14.18578z"/><path d="M293.92517,-9.65829c1.66583,-3.12572 8.77997,-10.54211 13.72762,-12.7962c8.26755,-3.76659 15.24498,-1.41374 15.49361,-1.28124c10.07269,5.36822 11.88744,24.82567 7.2552,33.51743c-4.63225,8.69174 -25.49964,25.69263 -35.57234,20.32442c-10.07268,-5.36821 -5.53637,-31.07269 -0.90411,-39.76445z"/><path d="M329.57949,6.08026c2.94744,-1.76966 12.87786,-10.7577 14.9039,-8.83141c0.15674,0.14904 1.1444,5.27787 -0.46468,9.48537c-1.81575,4.74789 -6.35642,8.68422 -8.17641,9.77697c-3.43283,2.06111 -18.11528,9.40008 -19.84472,6.51965c-1.72944,-2.88044 10.14905,-14.8895 13.58188,-16.95061z"/></g><g data-paper-data="{&quot;index&quot;:null}" fill="#000000" stroke="none" stroke-width="0" stroke-linecap="butt"><path d="M162.05257,18.5472l29.22895,-11.52698c0,0 2.42223,11.54804 6.84702,23.61383c4.74882,12.94942 11.55131,26.54636 12.43784,28.66166c4.84848,11.56878 18.35416,27.18519 18.35416,27.18519c0,0 -17.83636,22.11288 -21.99888,23.85739c-0.02832,0.01185 -3.09428,-0.97727 -6.04659,-4.22007c-4.15023,-4.55856 -9.06881,-12.80178 -13.6872,-22.25767c-2.2174,-4.54003 -8.78794,-19.84992 -14.36824,-34.63776c-5.90349,-15.64423 -10.76704,-30.67557 -10.76704,-30.67557z"/><path d="M193.0099,-5.63117c3.80694,9.0836 5.94192,35.09783 -4.58485,39.5096c-10.52679,4.41176 -29.72906,-14.44958 -33.53601,-23.53316c-3.80693,-9.08359 -0.19704,-28.28917 10.32975,-32.70095c0.25984,-0.10889 7.42527,-1.80508 15.30823,2.71138c4.7175,2.70284 11.11383,10.74654 12.48286,14.01316z"/><path d="M156.05064,6.73592c3.22708,2.37034 13.94168,15.42839 11.95278,18.13619c-1.98891,2.70779 -15.92815,-5.96009 -19.15522,-8.33044c-1.71091,-1.25669 -5.86731,-5.59683 -7.2353,-10.49254c-1.21229,-4.3385 0.24637,-9.35374 0.41625,-9.48762c2.19582,-1.73027 11.25067,8.13927 14.02145,10.17443z"/></g><path d="M179.61371,204.29395v-121.5h129v121.5z" fill="url(#color-15)" stroke="none" stroke-width="0" stroke-linecap="butt"/><path d="M192.11371,193.1137v-100.31976h103.51235v100.31976z" fill="url(#color-16)" stroke="url(#color-17)" stroke-width="2" stroke-linecap="butt"/><path d="M194.52444,190.66594l8,-7.33334" fill="none" stroke="url(#color-18)" stroke-width="2" stroke-linecap="round"/><path d="M287.5243,184.33259l8,7.33334" data-paper-data="{&quot;index&quot;:null}" fill="none" stroke="url(#color-19)" stroke-width="2" stroke-linecap="round"/><g fill="none" stroke-width="2" stroke-linecap="round"><path d="M193.02443,93.49926l8,7.33334" data-paper-data="{&quot;index&quot;:null}" stroke="url(#color-20)"/><path d="M295.35765,92.8326l-8,7.33334" data-paper-data="{&quot;index&quot;:null}" stroke="url(#color-21)"/></g><path d="M193.72364,139.10898c0,-12.968 10.44341,-23.48065 23.326,-23.48065c12.88259,0 23.326,10.51265 23.326,23.48065c0,12.968 -10.44341,23.48065 -23.326,23.48065c-12.88259,0 -23.326,-10.51265 -23.326,-23.48065z" fill="#ff0000" stroke="none" stroke-width="2" stroke-linecap="butt"/><path d="M270.95068,162.58962c-12.88259,0 -23.326,-10.51265 -23.326,-23.48065c0,-12.968 10.44341,-23.48065 23.326,-23.48065c12.88259,0 23.326,10.51265 23.326,23.48065c0,12.968 -10.44341,23.48065 -23.326,23.48065z" data-paper-data="{&quot;index&quot;:null}" fill="#ff0000" stroke="none" stroke-width="2" stroke-linecap="butt"/><path d="M193.97693,141.87272c1.25206,0.04632 45.95431,0.61992 46.2126,0.64495c-0.51423,3.62466 -1.14834,6.55128 -3.04203,9.58497c-4.24825,6.80572 -11.74714,10.6473 -19.77722,10.6473c-11.87745,0 -22.06545,-8.72373 -23.39336,-20.87721z" data-paper-data="{&quot;index&quot;:null}" fill="#ff5d5d" stroke="none" stroke-width="2" stroke-linecap="butt"/><path d="M207.24249,140.08335c0,-9.12808 7.35102,-16.52784 16.41897,-16.52784c9.06796,0 16.41898,7.39977 16.41898,16.52784c0,9.12808 -7.35103,16.52784 -16.41898,16.52784c-9.06796,0 -16.41897,-7.39977 -16.41897,-16.52784z" fill="#000000" stroke="none" stroke-width="0" stroke-linecap="butt"/><path d="M294.23953,141.52273c-1.32791,12.15348 -11.51591,20.87721 -23.39336,20.87721c-8.03008,0 -15.52897,-3.84158 -19.77722,-10.6473c-1.89369,-3.03369 -2.5278,-5.96031 -3.04203,-9.58497c0.25829,-0.02503 44.96054,-0.59863 46.2126,-0.64496z" data-paper-data="{&quot;index&quot;:null}" fill="#ff5d5d" stroke="none" stroke-width="2" stroke-linecap="butt"/><path d="M276.08885,156.36119c-9.06795,0 -16.41897,-7.39977 -16.41897,-16.52784c0,-9.12808 7.35103,-16.52784 16.41897,-16.52784c9.06795,0 16.41897,7.39977 16.41897,16.52784c0,9.12808 -7.35103,16.52784 -16.41897,16.52784z" data-paper-data="{&quot;index&quot;:null}" fill="#000000" stroke="none" stroke-width="0" stroke-linecap="butt"/><path d="M227.84585,140.66669c0,1.04934 -0.98497,1.9 -2.2,1.9c-1.21502,0 -2.2,-0.85066 -2.2,-1.9c0,-1.04934 0.98497,-1.9 2.2,-1.9c1.21502,0 2.2,0.85066 2.2,1.9z" fill="#ff0000" stroke="none" stroke-width="0" stroke-linecap="butt"/><path d="M280.9958,140.41669c0,1.04934 -0.98498,1.9 -2.2,1.9c-1.21503,0 -2.2,-0.85066 -2.2,-1.9c0,-1.04934 0.98497,-1.9 2.2,-1.9c1.21502,0 2.2,0.85066 2.2,1.9z" fill="#ff0000" stroke="none" stroke-width="0" stroke-linecap="butt"/><path d="M202.08338,65.44351c0,0.92047 -0.82081,1.66667 -1.83333,1.66667c-1.01252,0 -1.83333,-0.74619 -1.83333,-1.66667c0,-0.92047 0.82081,-1.66667 1.83333,-1.66667c1.01252,0 1.83333,0.74619 1.83333,1.66667z" fill="#000000" stroke="none" stroke-width="0" stroke-linecap="butt"/><g><g fill="url(#color-22)" stroke="none" stroke-width="0" stroke-linecap="butt"><path d="M275.50762,169.09108c0.02526,1.18753 -6.7714,9.85892 -14.59909,13.26449c-5.75419,2.50346 -15.39381,4.33397 -18.62245,4.35336c-2.03243,0.0122 -8.77149,-1.53286 -12.44395,-2.58738c-8.93263,-2.56492 -17.34968,-12.82586 -17.38312,-14.39715c-0.0068,-0.31989 6.41745,4.66479 18.95092,5.74957c1.14794,0.09936 17.14933,1.14142 28.85725,-0.63134c9.4877,-1.43658 15.24044,-5.75155 15.24044,-5.75155z"/></g><path d="M222.55836,180.39692l3.25,-2.75l2.5,3.125l2.75,-2.625l3.5,3.5l2.375,-3.25l3.375,3.375l3.125,-3.25l2.875,2.875l3.75,-3.375l3.125,3.875l4.125,-3.75l3,2.625l3.25,-3.25l2.125,2.125" fill="none" stroke="#000000" stroke-width="0.5" stroke-linecap="round"/></g><path d="M189.43384,101.44142c-0.15529,-1.65636 -0.35152,-3.31082 -0.53535,-4.97669c-0.36274,-3.28702 -1.36888,-6.97905 -2.59978,-10.05353c-0.80841,-2.01921 -1.68913,-3.88399 -2.99862,-5.4841c-0.31868,0.03449 -0.5807,0.10367 -0.7559,0.21921c-0.74247,0.48963 -0.31411,3.43763 -0.31478,4.21038c-0.00046,3.39436 2.59392,6.41913 4.2965,9.233c1.10083,1.82997 2.27809,4.4338 2.90792,6.85173zM183.53283,80.42619c1.58956,-0.07792 3.92999,0.41271 4.86992,0.59579c3.5036,-0.0082 7.001,-0.09208 10.48874,0.2523c3.49972,0.34556 6.97618,0.24975 10.47248,0.48275c3.49159,0.2327 6.98349,0.46151 10.47681,0.66701c3.49337,0.20551 6.98549,0.44371 10.47972,0.63299c3.50038,0.18963 6.97284,0.29712 10.47842,0.29707c3.49974,-0.00005 6.99938,-0.0028 10.4991,-0.01512c3.48585,-0.01226 6.97946,-0.35458 10.43817,-0.75755c3.47917,-0.40536 6.99082,-0.50681 10.48717,-0.71309c3.48196,-0.20543 6.99441,-0.30249 10.45734,-0.72222c3.48764,-0.42272 6.96523,-0.6877 10.47139,-0.90804c3.49968,-0.21994 6.99252,-0.20356 10.48149,-0.54994c0.5694,0.00021 2.79158,-0.31846 3.18968,0.0824c0.2765,0.27841 0.07261,1.78045 0.07261,2.17617c0,1.83329 -0.0007,3.66658 0.00027,5.49987c0.00185,3.48689 0.0731,6.98311 0.48941,10.44139c0.41969,3.48627 0.51032,6.97986 0.51031,10.49459c0,3.3161 0.69244,7.45413 -0.94177,10.45512c-0.4577,0.83545 -2.25319,3.18209 -3.48651,1.93037c-0.20639,-0.20948 -0.07172,-1.37246 -0.07175,-1.67524c-0.00016,-1.66165 0.02754,-3.32511 -0.06567,-4.9844c-0.03078,-0.57849 -1.0216,-5.01874 -2.15628,-3.53544c-0.46772,0.61142 0.05556,3.97634 0.05634,4.84294c0.00326,3.61674 0.33922,6.78683 1.46222,10.23965c1.05207,3.23474 3.44946,6.59391 2.26662,10.11671c-0.8601,2.52613 -2.19597,3.75006 -4.81759,3.74847c-0.3231,-0.00019 -1.45326,0.07474 -1.68039,-0.17448c-0.3336,-0.36605 -0.06522,-2.16745 -0.06524,-2.66839c-0.00009,-3.3946 0.39139,-7.0945 -0.27659,-10.43019c-0.71844,-3.5877 -3.20097,-5.94499 -4.11895,-9.45669c-1.09762,-3.28974 -1.76364,-6.70667 -4.50873,-8.9487c-3.60209,0.12514 -6.16368,1.90799 -9.26448,3.77581c-1.74001,1.03084 -5.11212,0.76554 -7.06838,0.44971c-0.46625,-0.07528 -1.77828,-0.33661 -2.05504,-0.7573c-0.18423,-0.28002 -0.04115,-1.29175 -0.04115,-1.63741c-0.00001,-3.44714 0.28098,-7.03344 -0.28792,-10.43789c-0.42592,-2.54882 -1.20376,-8.10883 -4.73162,-8.03964c-3.12568,0.03856 -6.73221,2.72198 -8.61687,5.08418c-2.12504,2.65984 -4.13362,5.66966 -4.6445,9.10706c-0.51128,3.41916 -0.18824,6.99509 -0.27524,10.45219c-0.09697,3.66373 -1.46837,7.06925 -4.26773,9.43664c-1.0545,0.89117 -5.05453,2.37375 -5.82959,0.30588c-0.43784,-1.16817 -0.01358,-3.32107 -0.01497,-4.57917c-0.02084,-3.14862 -0.11854,-7.34465 -1.57076,-10.14977c-1.39149,-2.77706 -3.66223,-6.41765 -6.79366,-7.38182c-2.95432,-0.90963 -7.29751,-0.46765 -10.25663,0.28861c-3.19034,0.81007 -6.65061,2.65571 -9.2927,4.57751c-2.82961,2.05819 -5.22684,4.59293 -8.166,6.5755c-0.55266,0.37279 -0.78797,0.59844 -1.47413,0.59105c-2.45179,-0.02639 -2.52026,-1.07246 -3.01716,-3.25332c-0.05771,-0.25328 -0.07718,-1.63715 -0.32543,-1.75018c-0.36803,-0.16756 -1.27882,0.61573 -1.56538,0.7694c-2.9207,1.95629 -4.77567,5.71475 -8.68368,5.48752c-0.59022,-0.15373 -0.99358,-0.60089 -1.26393,-1.231c-0.09894,-0.00138 -0.17463,-0.07098 -0.17463,-0.07098l-0.41412,-0.49052c0,-3.49949 0.00309,-6.999 -0.0015,-10.49849c-0.03094,-2.88165 -1.7455,-7.07088 -3.29624,-9.61734c-1.75857,-2.9064 -4.36919,-5.98252 -4.36871,-9.49209c0.00089,-1.02097 -0.47177,-3.96064 0.53952,-4.62754c0.16739,-0.11039 0.39254,-0.18694 0.65871,-0.23647c-0.43141,-0.48074 -0.90718,-0.93507 -1.43795,-1.35969c0,0 -0.19522,-0.15618 -0.03905,-0.35139c0.15617,-0.19522 0.35139,-0.03904 0.35139,-0.03904c0.65032,0.52026 1.22125,1.08338 1.73078,1.68389z" fill="#000000" stroke="none" stroke-width="0.5" stroke-linecap="butt"/><path d="M303.64588,144.77086c0,1.01252 -1.04467,1.83333 -2.33333,1.83333c-1.28866,0 -2.33334,-0.82081 -2.33334,-1.83333c0,-1.01252 1.04467,-1.83334 2.33334,-1.83334c1.28866,0 2.33333,0.82082 2.33333,1.83334z" fill="#000000" stroke="none" stroke-width="0" stroke-linecap="butt"/><path d="M270.83335,111.50002c0,2.76143 -1.79086,5 -4,5c-2.20914,0 -4,-2.23857 -4,-5c0,-2.76143 1.79086,-5 4,-5c2.20914,0 4,2.23857 4,5z" fill="#000000" stroke="none" stroke-width="0" stroke-linecap="butt"/><path d="M230.19519,159.53587c0,0 5.78765,-5.08781 7.44362,-8.52714c1.59146,-3.30534 3.05638,-11.72286 3.05638,-11.72286l6.625,-0.125c0,0 0.58338,4.22338 1.88863,8.16191c0.79952,2.41252 2.2604,4.71815 2.87716,5.88079c1.34217,2.53007 7.35921,6.3323 7.35921,6.3323c0,0 -9.48358,-2.625 -14.25,-2.625c-4.97466,0 -15,2.625 -15,2.625z" fill="url(#color-23)" stroke="none" stroke-width="0" stroke-linecap="butt"/></g></g></svg>