<svg version="1.1" xmlns="http://www.w3.org/2000/svg" xmlns:xlink="http://www.w3.org/1999/xlink" width="145.01741" height="277.02129" viewBox="0,0,145.01741,277.02129"><g transform="translate(-164.74131,-39.32291)"><g data-paper-data="{&quot;isPaintingLayer&quot;:true}" fill-rule="nonzero" stroke-linecap="butt" stroke-linejoin="miter" stroke-miterlimit="10" stroke-dasharray="" stroke-dashoffset="0" style="mix-blend-mode: normal"><path d="M180.28207,316.34421v-267.22501h123.18203v267.22501z" fill-opacity="0.01" fill="#000000" stroke="none" stroke-width="0"/><path d="M206.89962,311.59792l15.14285,-131.8421l37.78325,-0.15789l13.57389,132z" fill="#f62828" stroke="#000000" stroke-width="2"/><g><g stroke-width="2"><path d="M260.26617,233.19805c1.39193,15.85488 -0.2953,22.79864 -6.58424,24.89583c-6.28893,2.09719 -8.69509,-4.7497 -10.08701,-20.60458c-1.39193,-15.85488 -0.79605,-27.761 5.49289,-29.85819c6.28893,-2.09719 9.78644,9.71205 11.17836,25.56694z" fill="#f5d7d7" stroke="#000000"/><path d="M253.68196,258.06527c-4.91037,1.63748 -7.45364,-2.17773 -8.99525,-11.47606c0.67972,-0.00556 1.35937,-0.01827 2.0393,-0.04714c2.10486,-0.08937 4.19766,-0.4177 6.27312,-1.04213c2.05999,-0.62023 4.11308,-1.26528 6.16285,-1.97243c0.51904,-0.17907 1.03729,-0.36389 1.55501,-0.55255c-0.11399,9.06202 -2.23307,13.48898 -7.03502,15.09031z" fill="#f5b4b4" stroke="none"/><path d="M243.20932,218.66724c0.39548,-0.08596 0.78461,-0.19007 1.16051,-0.33226c2.05782,-0.77865 4.15118,-1.40771 6.19204,-2.29531c1.93623,-0.8425 3.87237,-1.68561 5.80843,-2.52923c1.33219,3.33622 2.3455,7.84632 3.0721,13.06788c-0.413,0.1406 -0.82611,0.28056 -1.23933,0.42021c-2.02842,0.68602 -14.09977,4.66224 -15.11097,4.80049c-0.28508,-4.98118 -0.29315,-9.43299 0.11722,-13.13178z" fill="#f5b4b4" stroke="none"/><path d="M260.26617,233.39801c1.39193,15.85488 -0.2953,22.79864 -6.58424,24.89583c-6.28893,2.09719 -8.69509,-4.7497 -10.08701,-20.60458c-1.39193,-15.85488 -0.79605,-27.761 5.49289,-29.85819c6.28893,-2.09719 9.78644,9.71205 11.17836,25.56694z" fill="none" stroke="#000000"/></g><path d="M267.52456,205.97294c0,8.21524 -12.3639,15.625 -27.41366,15.625c-15.04976,0 -27.08634,-7.40976 -27.08634,-15.625c0,-8.21524 11.86022,-7.125 26.90998,-7.125c15.04976,0 27.59002,-1.09024 27.59002,7.125z" fill="#f5d7d7" stroke="#000000" stroke-width="2"/><g fill="#f5b4b4" stroke="none" stroke-width="0"><path d="M244.53655,221.40148c-0.00046,-0.00943 -0.00092,-0.01887 -0.00139,-0.0283c-0.17075,-3.48912 -0.30543,-6.9731 -0.4137,-10.46905c-0.10785,-3.48256 -0.03073,-6.99862 -0.03073,-10.48589c0,-0.52954 -0.00229,-1.05925 -0.00447,-1.58886c5.12228,-0.0394 9.82141,-0.09936 13.65735,0.27617c-0.01312,1.80895 0.00483,3.62136 0.00483,5.42936c0,3.5 0,7 0,10.5c0,0.94795 0,1.89588 0,2.84383c-3.71789,1.79496 -8.25231,3.05823 -13.2119,3.52274z"/><path d="M220.43885,216.44742c0,-2.17639 0,-4.35279 0,-6.52918c0,-3.49611 0,-6.99222 0,-10.48833c2.96164,-0.5324 6.69252,-0.63307 10.91921,-0.62985c-0.02744,1.58823 -0.0642,3.17641 -0.106,4.76833c-0.09177,3.49526 -0.0684,7.01851 -0.0114,10.51546c0.03675,2.25427 0.1841,4.44729 0.33965,6.65034c-4.31076,-0.8783 -8.12358,-2.37968 -11.14146,-4.28677z"/></g><path d="M267.52456,205.97294c0,8.21524 -12.3639,15.625 -27.41366,15.625c-15.04976,0 -27.08634,-7.40976 -27.08634,-15.625c0,-8.21524 11.86022,-7.125 26.90998,-7.125c15.04976,0 27.59002,-1.09024 27.59002,7.125z" fill="none" stroke="#000000" stroke-width="2"/></g><g><path d="M201.24422,47.36438c1.41679,-0.58905 7.86531,-3.08376 12.78859,1.88881c3.15467,3.18625 5.08318,14.4262 6.63165,14.80882c4.52512,1.11812 2.02427,-5.97673 3.66619,-13.06735c0.53098,-2.29305 0.63846,-4.62826 2.30767,-6.49831c2.19257,-2.45637 6.12081,-4.1403 7.64789,-4.17343c1.6676,-0.03617 6.88111,0.30606 9.56678,3.96647c5.66857,7.72594 8.66972,22.03199 9.44819,24.36972c4.3299,13.00261 -24.1489,42.51462 -41.4406,49.47702c-17.2917,6.96239 -34.81946,2.06582 -39.14937,-10.93679c-1.53119,-4.59812 -6.00023,-15.8237 -6.9699,-26.70921c-0.78239,-8.78309 1.29467,-17.53094 4.53127,-20.95627c2.30869,-2.44331 6.16934,-6.4008 12.04446,-2.22422c4.5467,3.23223 11.13998,14.8365 13.86359,13.73986c0,0 -3.16771,-7.52379 -3.30827,-10.55935c-0.07989,-1.72535 0.25692,-5.47032 2.26632,-8.41807c1.64186,-2.40856 4.85358,-4.18718 6.10555,-4.70771z" fill="#54c041" stroke="#000000" stroke-width="2"/><path d="M195.75836,70.29555c0,5.04946 -11.57309,-9.42857 -17.21428,-9.42857c-5.6412,0 -12.92857,22.19231 -12.92857,17.14285c0,-2.45725 0.34608,-9.95843 2.52493,-14.51903c2.29852,-4.8111 6.79337,-7.48096 9.68936,-7.48096c4.31428,0 10.65871,6.97363 14.27833,11.77372c1.11327,1.47633 3.65024,1.32427 3.65024,2.512z" fill="#367b2a" stroke="none" stroke-width="0"/><path d="M219.36385,63.25982c0,0.76452 -1.53814,-6.52379 -4.60769,-9.60629c-1.09895,-1.10359 -5.49897,-2.31268 -7.99215,-2.30951c-4.98773,0.00634 -9.14872,3.94827 -9.32845,4.30847c-2.50143,5.01301 0.26504,15.26384 -1.13863,13.98301c-2.97128,-2.71125 -3.21878,-9.49225 -3.21878,-13.23282c0,-0.14084 1.35666,-3.70803 3.7361,-6.05344c2.2927,-2.25991 5.55539,-3.3037 8.40676,-3.3037c3.03897,0 6.07583,0.85981 8.06665,2.9426c1.98898,2.08086 6.0762,10.09752 6.0762,13.27169z" fill="#367b2a" stroke="none" stroke-width="0"/><path d="M250.97099,61.11976c0,0.42979 -8.72452,-14.82283 -12.76952,-15.99879c-3.48337,-1.01268 -6.90776,0.60563 -7.58837,1.10605c-1.10656,0.81361 -2.13636,0.16141 -3.34695,3.36534c-1.89338,5.01103 -3.49516,13.4486 -3.49516,12.5274c0,-1.08476 -0.27526,-8.82965 1.74556,-13.40649c0.51567,-1.1679 0.62359,-2.23869 1.27871,-3.19536c2.15062,-3.14059 5.30966,-5.05137 6.88165,-5.13071c0.12203,-0.00616 4.83196,0.57032 7.61218,2.22054c1.55979,0.92583 5.00977,6.03655 7.35009,11.1593c1.30355,2.85336 2.33181,6.95202 2.33181,7.35273z" fill="#367b2a" stroke="none" stroke-width="0"/><path d="M201.24422,47.36438c1.41679,-0.58905 7.86531,-3.08376 12.78859,1.88881c3.15467,3.18625 5.08318,14.4262 6.63165,14.80882c4.52512,1.11812 2.02427,-5.97673 3.66619,-13.06735c0.53098,-2.29305 0.63846,-4.62826 2.30767,-6.49831c2.19257,-2.45637 6.12081,-4.1403 7.64789,-4.17343c1.6676,-0.03617 6.88111,0.30606 9.56678,3.96647c5.66857,7.72594 8.66972,22.03199 9.44819,24.36972c4.3299,13.00261 -24.1489,42.51462 -41.4406,49.47702c-17.2917,6.96239 -34.81946,2.06582 -39.14937,-10.93679c-1.53119,-4.59812 -6.00023,-15.8237 -6.9699,-26.70921c-0.78239,-8.78309 1.29467,-17.53094 4.53127,-20.95627c2.30869,-2.44331 6.16934,-6.4008 12.04446,-2.22422c4.5467,3.23223 11.13998,14.8365 13.86359,13.73986c0,0 -3.16771,-7.52379 -3.30827,-10.55935c-0.07989,-1.72535 0.25692,-5.47032 2.26632,-8.41807c1.64186,-2.40856 4.85358,-4.18718 6.10555,-4.70771z" fill="none" stroke="#000000" stroke-width="2"/></g><path d="M304.60472,136.4863c0,23.22848 -21.14987,65.27975 -49.89849,76.24573c-4.50431,1.71814 -9.19515,2.67319 -14.02042,2.67319c-35.62236,0 -65.08108,-52.05102 -65.08108,-78.91892c0,-26.8679 28.87764,-48.64864 64.5,-48.64864c35.62237,0 64.5,21.78074 64.5,48.64865z" fill="#f62828" stroke="#000000" stroke-width="2"/><path d="M189.53974,150.10691c0,-12.968 10.51265,-23.48065 23.48065,-23.48065c12.968,0 23.48065,10.51265 23.48065,23.48065c0,12.968 -10.51265,23.48065 -23.48065,23.48065c-12.968,0 -23.48065,-10.51265 -23.48065,-23.48065z" fill="#ffffff" stroke="#000000" stroke-width="2"/><path d="M196.60512,150.33121c0,-9.12808 7.39976,-16.52784 16.52783,-16.52784c9.12808,0 16.52784,7.39977 16.52784,16.52784c0,9.12808 -7.39977,16.52784 -16.52784,16.52784c-9.12808,0 -16.52783,-7.39977 -16.52783,-16.52784z" fill="#000000" stroke="none" stroke-width="0"/><path d="M267.61215,173.5875c-12.968,0 -23.48065,-10.51265 -23.48065,-23.48065c0,-12.968 10.51265,-23.48065 23.48065,-23.48065c12.968,0 23.48065,10.51265 23.48065,23.48065c0,12.968 -10.51265,23.48065 -23.48065,23.48065z" data-paper-data="{&quot;index&quot;:null}" fill="#ffffff" stroke="#000000" stroke-width="2"/><path d="M267.66623,166.60906c-9.12807,0 -16.52783,-7.39977 -16.52783,-16.52784c0,-9.12808 7.39977,-16.52784 16.52783,-16.52784c9.12807,0 16.52783,7.39977 16.52783,16.52784c0,9.12808 -7.39977,16.52784 -16.52783,16.52784z" data-paper-data="{&quot;index&quot;:null}" fill="#000000" stroke="none" stroke-width="0"/><path d="M189.53974,150.10691c0,-12.968 10.51265,-23.48065 23.48065,-23.48065c12.968,0 23.48065,10.51265 23.48065,23.48065c0,0 -10.80239,2.62459 -22.31758,2.6904c-11.95714,0.06834 -24.64373,-2.4267 -24.64373,-2.6904z" fill="#f62828" stroke="#000000" stroke-width="2"/><path d="M243.79818,149.77355c0,-12.968 10.51265,-23.48065 23.48065,-23.48065c12.968,0 23.48065,10.51265 23.48065,23.48065c0,0.3474 -3.68793,-6.7532 -9.98724,-11.34379c-3.70122,-2.69724 -9.12243,-3.87319 -13.03814,-3.91363c-4.37376,-0.04517 -8.58947,1.49893 -12.56547,3.8713c-7.57363,4.51897 -11.37046,11.38612 -11.37046,11.38612z" data-paper-data="{&quot;index&quot;:null}" fill="#f62828" stroke="#000000" stroke-width="2"/><path d="M230.82059,113.10663c0,0 -12.6091,0.57227 -18.37512,2.10225c-5.51752,1.46404 -15.50833,6.8886 -15.50833,6.8886c0,0 7.782,-7.18527 14.92657,-9.08106c7.14456,-1.89579 18.95687,0.09021 18.95687,0.09021z" data-paper-data="{&quot;index&quot;:null}" fill="#000000" stroke="none" stroke-width="0"/><path d="M267.94602,115.18793c-5.79532,-1.41495 -18.41331,-1.7362 -18.41331,-1.7362c0,0 11.77047,-2.22065 18.95133,-0.4674c7.18088,1.75325 15.10432,8.78225 15.10432,8.78225c0,0 -10.09679,-5.22467 -15.64234,-6.57864z" data-paper-data="{&quot;index&quot;:null}" fill="#000000" stroke="none" stroke-width="0"/><g stroke="none" stroke-width="0"><path d="M220.48564,187.83131c0,5.18534 -4.43049,9.38889 -9.89579,9.38889c-5.46529,0 -9.89579,-4.20355 -9.89579,-9.38889c0,-5.18534 4.4305,-9.38889 9.89579,-9.38889c5.46529,0 9.89579,4.20355 9.89579,9.38889z" fill="#af1c1c"/><g fill="#7a1414"><path d="M207.81016,184.33131c0,0.79774 -0.71685,1.44445 -1.60112,1.44445c-0.88428,0 -1.60112,-0.6467 -1.60112,-1.44445c0,-0.79774 0.71685,-1.44445 1.60112,-1.44445c0.88428,0 1.60112,0.6467 1.60112,1.44445z"/><path d="M217.29831,185.77574c0,0.79774 -0.71685,1.44445 -1.60112,1.44445c-0.88428,0 -1.60112,-0.6467 -1.60112,-1.44445c0,-0.79774 0.71685,-1.44444 1.60112,-1.44444c0.88428,0 1.60112,0.64669 1.60112,1.44444z"/><path d="M211.48682,192.55355c0,0.79774 -0.71685,1.44445 -1.60112,1.44445c-0.88428,0 -1.60112,-0.6467 -1.60112,-1.44445c0,-0.79774 0.71685,-1.44444 1.60112,-1.44444c0.88428,0 1.60112,0.64669 1.60112,1.44444z"/></g></g><g stroke="none" stroke-width="0"><path d="M279.23564,188.58131c0,5.18534 -4.4305,9.38889 -9.89579,9.38889c-5.4653,0 -9.89579,-4.20355 -9.89579,-9.38889c0,-5.18534 4.43049,-9.38889 9.89579,-9.38889c5.4653,0 9.89579,4.20355 9.89579,9.38889z" fill="#af1c1c"/><g fill="#7a1414"><path d="M266.56014,185.08131c0,0.79774 -0.71685,1.44445 -1.60113,1.44445c-0.88428,0 -1.60112,-0.6467 -1.60112,-1.44445c0,-0.79774 0.71685,-1.44445 1.60112,-1.44445c0.88428,0 1.60113,0.6467 1.60113,1.44445z"/><path d="M276.0483,186.52574c0,0.79774 -0.71685,1.44445 -1.60112,1.44445c-0.88428,0 -1.60113,-0.6467 -1.60113,-1.44445c0,-0.79774 0.71685,-1.44444 1.60113,-1.44444c0.88428,0 1.60112,0.64669 1.60112,1.44444z"/><path d="M270.23679,193.30355c0,0.79774 -0.71684,1.44445 -1.60112,1.44445c-0.88428,0 -1.60113,-0.6467 -1.60113,-1.44445c0,-0.79774 0.71685,-1.44444 1.60113,-1.44444c0.88428,0 1.60112,0.64669 1.60112,1.44444z"/></g></g><path d="M291.33495,175.18707c0,1.22755 -5.7382,10.93022 -13.8796,19.88681c-6.70365,7.37489 -15.51967,14.16344 -19.91147,15.99699c-5.27246,2.20122 -14.85717,3.6162 -16.45893,3.6162c-0.73153,0 -4.90304,0.17199 -7.87077,-0.5585c-6.11636,-1.50551 -13.61465,-5.22056 -20.85915,-10.79701c-11.13458,-8.57084 -21.60341,-23.0557 -21.60341,-24.81115c0,-0.76563 9.01803,14.03113 22.41225,23.61289c4.61902,3.30428 16.88877,10.34196 30.48457,8.25582c3.21402,-0.49316 9.73917,-0.14209 14.98251,-2.80496c7.71952,-3.92042 14.70388,-10.6051 20.96538,-16.32493c8.98951,-8.21185 11.73863,-16.89973 11.73863,-16.07216z" fill="#a61b1b" stroke="none" stroke-width="0"/><path d="M244.28974,150.10691c0,-12.968 10.51265,-23.48065 23.48065,-23.48065c12.968,0 23.48065,10.51265 23.48065,23.48065c0,0 -11.30332,2.3746 -22.81901,2.44041c-11.95668,0.06833 -24.1423,-2.17671 -24.1423,-2.44041z" fill="#f62828" stroke="#000000" stroke-width="2"/><g><path d="M298.20013,96.02293c2.57676,15.1719 13.41669,41.65123 9.84287,51.32063c-0.55547,1.50288 -1.01945,4.41786 -3.5926,6.79934c-1.76436,1.63294 -5.48507,3.12416 -7.05609,3.30183c-0.61827,0.06992 -5.84216,-0.32099 -8.28425,-1.29973c-3.44486,-1.38064 -4.35816,-3.59127 -5.10903,-4.37526c-4.49216,-4.69031 -6.33079,-14.71459 -15.24713,-18.68352c-6.82748,-3.03911 -5.65231,4.86234 -7.65533,13.32358c-0.31845,1.34524 -0.71725,2.70462 -1.24131,4.03644c-1.12524,2.85961 -9.6939,6.50234 -11.7744,6.35428c-1.51571,-0.10787 -9.40391,-0.36392 -11.4559,-2.2977c-10.13415,-9.55034 -18.89897,-38.17391 -19.75676,-43.22452c-0.40913,-2.40897 1.9624,15.18831 -1.99204,19.4127c-1.47117,1.5716 -3.18271,4.14777 -6.27455,5.09297c-2.82179,0.86264 -7.01603,0.19973 -8.75548,-0.47186c-1.69539,-0.65458 -6.09566,-9.15875 -4.34302,-17.59838c1.79496,-8.6434 9.81545,-17.28427 14.21732,-22.9525c9.95952,-12.82476 27.98952,-21.17456 34.94398,-21.96108c18.6033,-2.10394 50.28183,4.07584 53.53371,23.22279z" fill="#54c041" stroke="#000000" stroke-width="2"/><path d="M243.8818,152.98754c9.77016,3.86364 20.68862,-20.35682 18.75265,-20.35682c-0.25561,0 0.77629,9.70616 -2.1955,15.18697c-1.3506,2.49088 -2.87278,4.52496 -4.86785,5.84471c-2.99871,1.98368 -7.16207,2.60541 -8.79654,2.74905c-2.30671,0.20273 -5.69825,-0.1213 -7.62468,-1.00312c-2.93249,-1.34235 -4.05066,-3.71379 -5.22556,-5.41289c-0.65538,-0.9478 -2.46335,-3.57871 -4.28363,-7.36191c-0.44924,-0.93368 -2.22914,-2.85774 -3.18769,-5.06293c-2.01864,-4.644 -3.82957,-11.22182 -6.013,-17.24525c-0.56549,-1.56003 -3.30123,-8.8818 -3.78689,-10.31945c-0.50036,-1.48118 0.47661,10.62839 -0.70203,14.44136c-0.42745,1.38282 -0.4238,3.12214 -0.95415,4.58303c-0.47495,1.30831 -1.47716,2.37352 -1.98155,3.08326c-2.06654,2.90785 -8.2681,4.89945 -10.37776,2.75343c-0.01755,-0.01786 -1.6039,0.45401 -2.50774,0.01673c-1.27301,-0.61589 -2.03533,-2.33263 -2.50081,-3.63873c-1.62142,-4.54956 -1.48929,-12.1692 -1.70797,-13.38091c-0.34553,-1.91462 1.5121,-6.59221 4.02607,-10.60131c1.30943,-2.08817 2.3805,-4.30728 4.29903,-5.19419c0.90745,-0.4195 -1.60699,3.56631 -3.25431,8.56827c-1.22865,3.7307 -1.5946,8.02668 -1.74389,11.48177c-0.18572,4.29825 1.77563,10.6583 2.7682,10.75883c0.97669,0.09893 6.29334,1.11592 8.16523,-1.48799c5.63528,-7.83898 3.14188,-24.18018 3.94587,-24.18018c3.65889,0 23.83628,43.43787 29.7545,45.77825z" fill="#367b2a" stroke="none" stroke-width="0"/><path d="M301.73445,155.78071c-1.41294,0 -8.89653,3.12827 -14.17343,-0.72973c-2.39048,-1.7477 -5.33017,-5.45732 -6.98886,-9.00282c-0.47988,-1.02575 -1.02456,-3.75137 -2.54417,-5.6299c-2.95717,-3.65564 -7.51611,-6.89031 -7.82963,-7.67315c-0.06229,-0.15552 5.89686,2.54116 9.96771,7.51191c1.43405,1.75106 2.58185,7.87296 6.37424,11.34914c2.0442,1.87375 6.71408,3.82968 10.66773,3.14664c2.8698,-0.49579 5.42138,-3.20995 6.03101,-4.34461c2.95333,-5.49677 3.47601,-13.26737 3.50376,-13.27158c1.97239,-0.29913 2.65456,5.37925 1.20053,10.45396c-1.24639,4.35001 -4.36079,8.19015 -6.20888,8.19015z" fill="#367b2a" stroke="none" stroke-width="0"/><path d="M298.20013,96.02293c2.57676,15.1719 13.41669,41.65123 9.84287,51.32063c-0.55547,1.50288 -1.01945,4.41786 -3.5926,6.79934c-1.76436,1.63294 -5.48507,3.12416 -7.05609,3.30183c-0.61827,0.06992 -5.84216,-0.32099 -8.28425,-1.29973c-3.44486,-1.38064 -4.35816,-3.59127 -5.10903,-4.37526c-4.49216,-4.69031 -6.33079,-14.71459 -15.24713,-18.68352c-6.82748,-3.03911 -5.65231,4.86234 -7.65533,13.32358c-0.31845,1.34524 -0.71725,2.70462 -1.24131,4.03644c-1.12524,2.85961 -9.6939,6.50234 -11.7744,6.35428c-1.51571,-0.10787 -9.40391,-0.36392 -11.4559,-2.2977c-10.13415,-9.55034 -18.89897,-38.17391 -19.75676,-43.22452c-0.40913,-2.40897 1.9624,15.18831 -1.99204,19.4127c-1.47117,1.5716 -3.18271,4.14777 -6.27455,5.09297c-2.82179,0.86264 -7.01603,0.19973 -8.75548,-0.47186c-1.69539,-0.65458 -6.09566,-9.15875 -4.34302,-17.59838c1.79496,-8.6434 9.81545,-17.28427 14.21732,-22.9525c9.95952,-12.82476 27.98952,-21.17456 34.94398,-21.96108c18.6033,-2.10394 50.28183,4.07584 53.53371,23.22279z" fill="none" stroke="#000000" stroke-width="2"/></g><path d="M249.72496,198.62878c0,1.90231 -4.45228,3.44444 -9.94445,3.44444c-5.49216,0 -11.72222,-5.54212 -11.72222,-7.44444c0,-0.84301 4.47711,1.13975 9.2158,1.91873c5.95458,0.97886 12.45087,1.02196 12.45087,2.08127z" fill="#ffffff" stroke="#000000" stroke-width="2"/></g></g></svg>