<svg version="1.1" xmlns="http://www.w3.org/2000/svg" xmlns:xlink="http://www.w3.org/1999/xlink" width="157.54191" height="241.03" viewBox="0,0,157.54191,241.03"><defs><linearGradient x1="240.00008" y1="175.50003" x2="240.00008" y2="307.50003" gradientUnits="userSpaceOnUse" id="color-1"><stop offset="0" stop-color="#000000"/><stop offset="1" stop-color="#e67c00"/></linearGradient><linearGradient x1="169.39359" y1="95.75141" x2="168.6408" y2="164.5473" gradientUnits="userSpaceOnUse" id="color-2"><stop offset="0" stop-color="#000000"/><stop offset="1" stop-color="#efd4af"/></linearGradient><linearGradient x1="259.36279" y1="66.90083" x2="259.11217" y2="89.80377" gradientUnits="userSpaceOnUse" id="color-3"><stop offset="0" stop-color="#000000"/><stop offset="1" stop-color="#f7dbb5"/></linearGradient><linearGradient x1="293.46211" y1="76.89866" x2="293.22283" y2="98.76739" gradientUnits="userSpaceOnUse" id="color-4"><stop offset="0" stop-color="#000000"/><stop offset="1" stop-color="#f7dbb5"/></linearGradient><linearGradient x1="278.29768" y1="71.4211" x2="278.05837" y2="93.28985" gradientUnits="userSpaceOnUse" id="color-5"><stop offset="0" stop-color="#000000"/><stop offset="1" stop-color="#f7dbb5"/></linearGradient><linearGradient x1="222.60897" y1="66.49867" x2="222.35836" y2="89.40161" gradientUnits="userSpaceOnUse" id="color-6"><stop offset="0" stop-color="#000000"/><stop offset="1" stop-color="#f7dbb5"/></linearGradient><linearGradient x1="237.59206" y1="67.06812" x2="237.34145" y2="89.97109" gradientUnits="userSpaceOnUse" id="color-7"><stop offset="0" stop-color="#000000"/><stop offset="1" stop-color="#f7dbb5"/></linearGradient><linearGradient x1="189.69984" y1="75.76326" x2="189.46055" y2="97.632" gradientUnits="userSpaceOnUse" id="color-8"><stop offset="0" stop-color="#000000"/><stop offset="1" stop-color="#f7dbb5"/></linearGradient><linearGradient x1="204.35708" y1="70.61203" x2="204.1178" y2="92.48075" gradientUnits="userSpaceOnUse" id="color-9"><stop offset="0" stop-color="#000000"/><stop offset="1" stop-color="#f7dbb5"/></linearGradient><linearGradient x1="259.12049" y1="89.04225" x2="258.93884" y2="105.64266" gradientUnits="userSpaceOnUse" id="color-10"><stop offset="0" stop-color="#000000"/><stop offset="1" stop-color="#f7dbb5"/></linearGradient><linearGradient x1="293.39324" y1="83.19082" x2="293.21979" y2="99.04166" gradientUnits="userSpaceOnUse" id="color-11"><stop offset="0" stop-color="#000000"/><stop offset="1" stop-color="#f7dbb5"/></linearGradient><linearGradient x1="278.1286" y1="86.87374" x2="277.95515" y2="102.72456" gradientUnits="userSpaceOnUse" id="color-12"><stop offset="0" stop-color="#000000"/><stop offset="1" stop-color="#f7dbb5"/></linearGradient><linearGradient x1="222.38128" y1="87.30416" x2="222.18501" y2="105.24052" gradientUnits="userSpaceOnUse" id="color-13"><stop offset="0" stop-color="#000000"/><stop offset="1" stop-color="#f7dbb5"/></linearGradient><linearGradient x1="237.3723" y1="87.15059" x2="237.17604" y2="105.08696" gradientUnits="userSpaceOnUse" id="color-14"><stop offset="0" stop-color="#000000"/><stop offset="1" stop-color="#f7dbb5"/></linearGradient><linearGradient x1="189.63828" y1="81.38879" x2="189.45575" y2="98.06979" gradientUnits="userSpaceOnUse" id="color-15"><stop offset="0" stop-color="#000000"/><stop offset="1" stop-color="#f7dbb5"/></linearGradient><linearGradient x1="204.19306" y1="85.59963" x2="204.01054" y2="102.28063" gradientUnits="userSpaceOnUse" id="color-16"><stop offset="0" stop-color="#000000"/><stop offset="1" stop-color="#f7dbb5"/></linearGradient><linearGradient x1="240.73162" y1="90.07019" x2="239.67076" y2="187.02038" gradientUnits="userSpaceOnUse" id="color-17"><stop offset="0" stop-color="#000000"/><stop offset="1" stop-color="#f3e5e5"/></linearGradient><radialGradient cx="236.80236" cy="83.19001" r="15.35715" gradientUnits="userSpaceOnUse" id="color-18"><stop offset="0" stop-color="#af4300"/><stop offset="1" stop-color="#af4300" stop-opacity="0"/></radialGradient><radialGradient cx="258.14412" cy="84.70932" r="3.14285" gradientUnits="userSpaceOnUse" id="color-19"><stop offset="0" stop-color="#af4300"/><stop offset="1" stop-color="#af4300" stop-opacity="0"/></radialGradient><radialGradient cx="254.48745" cy="85.95512" r="2.64286" gradientUnits="userSpaceOnUse" id="color-20"><stop offset="0" stop-color="#af4300"/><stop offset="1" stop-color="#af4300" stop-opacity="0"/></radialGradient><radialGradient cx="267.71655" cy="84.67121" r="2.71429" gradientUnits="userSpaceOnUse" id="color-21"><stop offset="0" stop-color="#af4300"/><stop offset="1" stop-color="#af4300" stop-opacity="0"/></radialGradient><radialGradient cx="217.29649" cy="83.61948" r="4.57143" gradientUnits="userSpaceOnUse" id="color-22"><stop offset="0" stop-color="#af4300"/><stop offset="1" stop-color="#af4300" stop-opacity="0"/></radialGradient><linearGradient x1="213.86094" y1="101.05" x2="213.54983" y2="129.48211" gradientUnits="userSpaceOnUse" id="color-23"><stop offset="0" stop-color="#000000"/><stop offset="1" stop-color="#d95300"/></linearGradient><linearGradient x1="268.16351" y1="101.48324" x2="267.85238" y2="129.91534" gradientUnits="userSpaceOnUse" id="color-24"><stop offset="0" stop-color="#000000"/><stop offset="1" stop-color="#d95300"/></linearGradient><linearGradient x1="222.02388" y1="103.79841" x2="221.76056" y2="127.86404" gradientUnits="userSpaceOnUse" id="color-25"><stop offset="0" stop-color="#000000"/><stop offset="1" stop-color="#fa6000"/></linearGradient><linearGradient x1="205.51794" y1="101.42062" x2="205.24712" y2="126.17116" gradientUnits="userSpaceOnUse" id="color-26"><stop offset="0" stop-color="#000000"/><stop offset="1" stop-color="#fa6000"/></linearGradient><linearGradient x1="259.42059" y1="104.24516" x2="259.15726" y2="128.3108" gradientUnits="userSpaceOnUse" id="color-27"><stop offset="0" stop-color="#000000"/><stop offset="1" stop-color="#fa6000"/></linearGradient><linearGradient x1="275.9746" y1="102.22914" x2="275.70377" y2="126.97968" gradientUnits="userSpaceOnUse" id="color-28"><stop offset="0" stop-color="#000000"/><stop offset="1" stop-color="#fa6000"/></linearGradient><linearGradient x1="237.48167" y1="133.93852" x2="237.35662" y2="145.36657" gradientUnits="userSpaceOnUse" id="color-29"><stop offset="0" stop-color="#7d3030" stop-opacity="0"/><stop offset="1" stop-color="#7d3030"/></linearGradient><linearGradient x1="281.0663" y1="159.97348" x2="280.99627" y2="166.37309" gradientUnits="userSpaceOnUse" id="color-30"><stop offset="0" stop-color="#000000"/><stop offset="1" stop-color="#ffffff"/></linearGradient><linearGradient x1="281.0663" y1="159.97348" x2="280.99627" y2="166.37309" gradientUnits="userSpaceOnUse" id="color-31"><stop offset="0" stop-color="#000000"/><stop offset="1" stop-color="#e2e2e2"/></linearGradient><linearGradient x1="286.1835" y1="158.42938" x2="286.1266" y2="163.62906" gradientUnits="userSpaceOnUse" id="color-32"><stop offset="0" stop-color="#000000"/><stop offset="1" stop-color="#ffffff"/></linearGradient><linearGradient x1="286.1835" y1="158.42938" x2="286.1266" y2="163.62906" gradientUnits="userSpaceOnUse" id="color-33"><stop offset="0" stop-color="#000000"/><stop offset="1" stop-color="#e2e2e2"/></linearGradient><linearGradient x1="193.74343" y1="157.01786" x2="193.67338" y2="163.41745" gradientUnits="userSpaceOnUse" id="color-34"><stop offset="0" stop-color="#000000"/><stop offset="1" stop-color="#e2e2e2"/></linearGradient><linearGradient x1="198.81249" y1="159.87348" x2="198.75558" y2="165.07317" gradientUnits="userSpaceOnUse" id="color-35"><stop offset="0" stop-color="#000000"/><stop offset="1" stop-color="#e2e2e2"/></linearGradient><linearGradient x1="210.01955" y1="159.83538" x2="209.94445" y2="166.69869" gradientUnits="userSpaceOnUse" id="color-36"><stop offset="0" stop-color="#000000"/><stop offset="1" stop-color="#3f3f3f"/></linearGradient><linearGradient x1="216.55252" y1="160.6566" x2="216.73792" y2="167.519" gradientUnits="userSpaceOnUse" id="color-37"><stop offset="0" stop-color="#000000"/><stop offset="1" stop-color="#3f3f3f"/></linearGradient><linearGradient x1="222.8361" y1="161.32237" x2="223.35007" y2="168.17289" gradientUnits="userSpaceOnUse" id="color-38"><stop offset="0" stop-color="#000000"/><stop offset="1" stop-color="#3f3f3f"/></linearGradient><linearGradient x1="229.41974" y1="161.71457" x2="230.19334" y2="168.54714" gradientUnits="userSpaceOnUse" id="color-39"><stop offset="0" stop-color="#000000"/><stop offset="1" stop-color="#3f3f3f"/></linearGradient><linearGradient x1="236.32889" y1="162.03945" x2="237.02745" y2="168.87796" gradientUnits="userSpaceOnUse" id="color-40"><stop offset="0" stop-color="#000000"/><stop offset="1" stop-color="#3f3f3f"/></linearGradient><linearGradient x1="242.92082" y1="162.29629" x2="243.87844" y2="169.11155" gradientUnits="userSpaceOnUse" id="color-41"><stop offset="0" stop-color="#000000"/><stop offset="1" stop-color="#3f3f3f"/></linearGradient><linearGradient x1="269.52865" y1="160.86156" x2="269.45355" y2="167.72489" gradientUnits="userSpaceOnUse" id="color-42"><stop offset="0" stop-color="#000000"/><stop offset="1" stop-color="#3f3f3f"/></linearGradient><linearGradient x1="262.97925" y1="161.53964" x2="262.64374" y2="168.39634" gradientUnits="userSpaceOnUse" id="color-43"><stop offset="0" stop-color="#000000"/><stop offset="1" stop-color="#3f3f3f"/></linearGradient><linearGradient x1="256.68261" y1="162.06775" x2="256.01887" y2="168.90539" gradientUnits="userSpaceOnUse" id="color-44"><stop offset="0" stop-color="#000000"/><stop offset="1" stop-color="#3f3f3f"/></linearGradient><linearGradient x1="250.09196" y1="162.31579" x2="249.16904" y2="169.12981" gradientUnits="userSpaceOnUse" id="color-45"><stop offset="0" stop-color="#000000"/><stop offset="1" stop-color="#3f3f3f"/></linearGradient><linearGradient x1="212.44029" y1="227.90663" x2="212.47243" y2="221.04385" gradientUnits="userSpaceOnUse" id="color-46"><stop offset="0" stop-color="#000000"/><stop offset="1" stop-color="#3f3f3f"/></linearGradient><linearGradient x1="217.87018" y1="228.94833" x2="218.12584" y2="222.08822" gradientUnits="userSpaceOnUse" id="color-47"><stop offset="0" stop-color="#000000"/><stop offset="1" stop-color="#3f3f3f"/></linearGradient><linearGradient x1="223.99199" y1="229.57685" x2="223.54649" y2="222.73361" gradientUnits="userSpaceOnUse" id="color-48"><stop offset="0" stop-color="#000000"/><stop offset="1" stop-color="#3f3f3f"/></linearGradient><linearGradient x1="229.48445" y1="230.22457" x2="229.26224" y2="223.36789" gradientUnits="userSpaceOnUse" id="color-49"><stop offset="0" stop-color="#000000"/><stop offset="1" stop-color="#3f3f3f"/></linearGradient><linearGradient x1="235.93342" y1="230.12193" x2="235.03556" y2="223.32915" gradientUnits="userSpaceOnUse" id="color-50"><stop offset="0" stop-color="#000000"/><stop offset="1" stop-color="#3f3f3f"/></linearGradient><linearGradient x1="241.45985" y1="230.39176" x2="240.78403" y2="223.57029" gradientUnits="userSpaceOnUse" id="color-51"><stop offset="0" stop-color="#000000"/><stop offset="1" stop-color="#3f3f3f"/></linearGradient><linearGradient x1="247.61652" y1="230.15598" x2="246.2476" y2="223.44942" gradientUnits="userSpaceOnUse" id="color-52"><stop offset="0" stop-color="#000000"/><stop offset="1" stop-color="#3f3f3f"/></linearGradient><linearGradient x1="253.15161" y1="230.02734" x2="252.00233" y2="223.27621" gradientUnits="userSpaceOnUse" id="color-53"><stop offset="0" stop-color="#000000"/><stop offset="1" stop-color="#3f3f3f"/></linearGradient><linearGradient x1="259.24821" y1="229.28271" x2="257.40429" y2="222.69919" gradientUnits="userSpaceOnUse" id="color-54"><stop offset="0" stop-color="#000000"/><stop offset="1" stop-color="#3f3f3f"/></linearGradient><linearGradient x1="264.76346" y1="228.74689" x2="263.13558" y2="222.10279" gradientUnits="userSpaceOnUse" id="color-55"><stop offset="0" stop-color="#000000"/><stop offset="1" stop-color="#3f3f3f"/></linearGradient></defs><g transform="translate(-147.71129,-66.47002)"><g data-paper-data="{&quot;isPaintingLayer&quot;:true}" fill-rule="nonzero" stroke-linejoin="miter" stroke-miterlimit="10" stroke-dasharray="" stroke-dashoffset="0" style="mix-blend-mode: normal"><path d="M206.75008,307.50002c0,0 2.17955,-18.9764 3.7767,-32.88207c2.77074,-24.12361 11.36615,-98.96003 11.36615,-98.96003l37.78325,-0.15789l13.57389,132c0,0 -9.36671,-0.5571 -16.98313,-3.00491c-9.3232,-2.99635 -17.68511,-7.99509 -23.58972,-7.99509c-11.39783,0 -25.92714,10.99999 -25.92714,10.99999z" fill="url(#color-1)" stroke="none" stroke-width="0" stroke-linecap="butt"/><path d="M230.00616,217.16892l-0.07091,-0.0644c-0.02994,-0.02603 -0.03904,-0.07017 -0.01949,-0.10661c0.02268,-0.04228 0.07534,-0.05817 0.11763,-0.03548l0.15312,0.08213l-0.01215,0.02264c0.19522,0.07816 0.37058,0.18309 0.58062,0.25526c0.75207,0.25841 1.5906,0.13802 2.27822,-0.2262c0.20203,-0.12049 0.38483,-0.23699 0.53889,-0.38694c0.05932,-0.09295 0.12903,-0.18588 0.20473,-0.24902c0.02079,-0.03224 0.04064,-0.06596 0.05949,-0.10131l0.00777,-0.00469l-0.00264,-0.00219l0.07951,-0.0964c0.02562,-0.03233 0.07147,-0.0427 0.1091,-0.02251c0.04228,0.02268 0.05817,0.07534 0.03549,0.11763l-0.00878,0.01638c0.02401,0.03225 0.01327,0.07479 0.01327,0.07479c-0.05308,0.18299 -0.22718,0.32315 -0.3826,0.4774c-0.09801,0.13809 -0.19804,0.27667 -0.27508,0.4246c-0.15494,0.49284 0.01097,1.13965 0.18337,1.5844c0.12493,0.32456 0.37579,0.60252 0.55209,0.90073l0.06142,0.08699c0.01931,0.02616 0.02307,0.06215 0.00667,0.09271c-0.02268,0.04228 -0.07534,0.05817 -0.11762,0.03549l-0.13125,-0.0704l0.00968,-0.01804c-0.27239,-0.10518 -0.5172,-0.27001 -0.8016,-0.36064c-0.66342,-0.2114 -1.3978,0.05378 -1.89542,0.51395c-0.17828,0.1063 -0.32403,0.25163 -0.42193,0.4362l-0.04693,0.0875c-0.02268,0.04228 -0.07534,0.05818 -0.11763,0.03549c-0.03842,-0.02061 -0.05506,-0.066 -0.04074,-0.10584l0.04772,-0.1406c0.00404,-1.02259 0.01788,-1.88196 -0.457,-2.86068c-0.06188,-0.15437 -0.13211,-0.26452 -0.23703,-0.39234zM233.77322,219.60987l0.03716,0.03156c0,0 0.01622,0.01718 0.02278,0.04208c0.00712,0.00366 0.01417,0.00737 0.02116,0.01114c-0.03921,-0.05746 -0.07922,-0.11472 -0.1187,-0.17233c0.01244,0.02905 0.02497,0.05822 0.0376,0.08755z" data-paper-data="{&quot;index&quot;:null}" fill="#000000" stroke="none" stroke-width="0.5" stroke-linecap="butt"/><path d="M248.37938,244.93134c0,0.72487 -0.50368,1.3125 -1.125,1.3125c-0.62132,0 -1.125,-0.58763 -1.125,-1.3125c0,-0.72487 0.50368,-1.3125 1.125,-1.3125c0.62132,0 1.125,0.58763 1.125,1.3125z" fill="#000000" stroke="none" stroke-width="0" stroke-linecap="butt"/><path d="M186.32165,109.21342c-1.3052,0.39072 -11.57867,4.19929 -15.38139,7.3922c-3.17163,2.68516 -4.19222,9.54395 -4.26084,12.60278c-0.08337,3.73039 0.83851,6.71766 3.17781,10.31592c2.26164,3.47856 14.08488,11.31245 15.99868,12.25419l4.12447,13.0023c0,0 -20.17186,-4.71744 -32.15384,-15.24716c-4.04876,-3.55803 -9.68593,-12.91696 -10.09269,-21.60109c-0.387,-8.26261 4.30922,-15.91053 6.27662,-17.51574c11.93589,-9.73856 32.45646,-14.47858 32.45646,-14.47858z" data-paper-data="{&quot;index&quot;:null}" fill="url(#color-2)" stroke="none" stroke-width="0" stroke-linecap="butt"/><g stroke="none" stroke-width="0" stroke-linecap="butt"><g data-paper-data="{&quot;index&quot;:null}"><g data-paper-data="{&quot;index&quot;:null}" fill="url(#color-3)"><path d="M250.47282,87.63666c-1.4245,-1.23692 -2.4105,-2.9708 -2.74305,-5.09657c-0.91798,-5.86765 3.49002,-12.49927 9.84556,-14.81213c6.35552,-2.31285 12.25188,0.56887 13.16987,6.43653c0.91798,5.86765 -3.49002,12.49926 -9.84558,14.81212c-4.05302,1.47494 -7.91929,0.83736 -10.42679,-1.33997z"/></g><g data-paper-data="{&quot;index&quot;:null}"><path d="M281.52588,87.70372c0.06607,-6.03889 5.41011,-10.87647 11.93624,-10.80507c6.52614,0.07141 11.76302,5.02479 11.69695,11.06367c-0.06607,6.03889 -5.41011,10.87647 -11.93624,10.80507c-6.52614,-0.07141 -11.76302,-5.02478 -11.69695,-11.06367z" fill="url(#color-4)"/><path d="M266.36141,82.22618c0.06607,-6.03889 5.41012,-10.87647 11.93624,-10.80507c6.52614,0.07141 11.76302,5.02478 11.69695,11.06367c-0.06607,6.03889 -5.41011,10.87647 -11.93624,10.80507c-6.52614,-0.07141 -11.76302,-5.02479 -11.69695,-11.06367z" fill="url(#color-5)"/></g></g><g data-paper-data="{&quot;index&quot;:null}"><path d="M220.66225,88.53632c-6.04417,-2.44855 -10.12849,-9.17307 -9.12256,-15.01969c1.00593,-5.8466 6.7212,-8.6013 12.76537,-6.15275c6.04417,2.44855 10.12848,9.17308 9.12256,15.0197c-1.00593,5.8466 -6.7212,8.60129 -12.76536,6.15274z" fill="url(#color-6)"/><path d="M235.64534,89.10583c-6.04417,-2.44855 -10.12849,-9.17308 -9.12256,-15.0197c1.00593,-5.8466 6.7212,-8.60129 12.76537,-6.15274c6.04417,2.44855 10.12848,9.17307 9.12256,15.01969c-1.00593,5.8466 -6.7212,8.60129 -12.76536,6.15275z" fill="url(#color-7)"/></g><g data-paper-data="{&quot;index&quot;:null}"><path d="M189.46056,97.632c-6.25885,-0.06849 -11.2791,-5.01948 -11.21302,-11.05837c0.06607,-6.03889 5.19345,-10.87884 11.45231,-10.81036c6.25885,0.06849 11.27908,5.01949 11.21301,11.05837c-0.06607,6.03889 -5.19345,10.87884 -11.4523,10.81036z" fill="url(#color-8)"/><path d="M204.11781,92.48075c-6.25885,-0.06849 -11.27909,-5.01949 -11.21302,-11.05837c0.06607,-6.03889 5.19345,-10.87884 11.45231,-10.81036c6.25885,0.06849 11.27909,5.01948 11.21301,11.05837c-0.06607,6.03889 -5.19345,10.87884 -11.4523,10.81036z" fill="url(#color-9)"/></g></g><path d="M305.12717,92.16975c-0.0846,7.73152 -28.50679,13.6889 -63.48272,13.30618c-34.97594,-0.38272 -63.26095,-6.9606 -63.17636,-14.69212c0.0846,-7.73152 28.50679,-13.6889 63.48272,-13.30618c34.97594,0.38272 63.26095,6.9606 63.17636,14.69212z" fill="#6c2a00" stroke="none" stroke-width="0" stroke-linecap="butt"/><g stroke="none" stroke-width="0" stroke-linecap="butt"><g data-paper-data="{&quot;index&quot;:null}" fill="url(#color-10)"><path d="M260.89197,89.67532c6.31057,1.79586 10.59252,6.68438 9.56401,10.91882c-1.02851,4.23444 -6.97804,6.21129 -13.28862,4.41546c-6.31058,-1.79586 -10.59251,-6.68439 -9.564,-10.91883c0.37261,-1.53408 1.39113,-2.77185 2.83868,-3.64125c2.54807,-1.53039 6.42557,-1.91944 10.44993,-0.7742z"/></g><g data-paper-data="{&quot;index&quot;:null}"><path d="M293.39324,83.19082c6.52614,0.07141 11.77777,3.67762 11.72986,8.05471c-0.0479,4.3771 -5.37719,7.86752 -11.90331,7.79612c-6.52614,-0.07141 -11.77777,-3.67762 -11.72986,-8.05471c0.0479,-4.3771 5.37719,-7.86752 11.90331,-7.79612z" fill="url(#color-11)"/><path d="M278.1286,86.87374c6.52614,0.07141 11.77777,3.67762 11.72986,8.05471c-0.0479,4.3771 -5.37719,7.86752 -11.90331,7.79612c-6.52614,-0.07141 -11.77777,-3.67762 -11.72986,-8.05471c0.0479,-4.3771 5.3772,-7.86752 11.90331,-7.79612z" fill="url(#color-12)"/></g></g><g stroke="none" stroke-width="0" stroke-linecap="butt"><path d="M233.31129,93.01473c0.89166,4.59712 -3.32297,9.7823 -9.41363,11.58143c-6.09067,1.79912 -11.75095,-0.46911 -12.64261,-5.06623c-0.89166,-4.59712 3.32297,-9.78229 9.41363,-11.58142c6.09067,-1.79912 11.75095,0.4691 12.6426,5.06622z" fill="url(#color-13)"/><path d="M248.30229,92.86117c0.89166,4.59712 -3.32297,9.78229 -9.41363,11.58142c-6.09067,1.79912 -11.75095,-0.4691 -12.64261,-5.06622c-0.89166,-4.59712 3.32297,-9.7823 9.41363,-11.58142c6.09067,-1.79912 11.75095,0.4691 12.6426,5.06622z" fill="url(#color-14)"/></g><g stroke="none" stroke-width="0" stroke-linecap="butt"><path d="M200.87967,89.8533c-0.0504,4.60634 -5.16507,8.28498 -11.42392,8.21649c-6.25885,-0.06849 -11.2918,-3.85817 -11.24139,-8.46451c0.0504,-4.60634 5.16507,-8.28498 11.42393,-8.21649c6.25885,0.06849 11.29179,3.85817 11.24138,8.46451z" fill="url(#color-15)"/><path d="M215.43447,94.06415c-0.0504,4.60634 -5.16507,8.28497 -11.42392,8.21648c-6.25885,-0.06849 -11.2918,-3.85817 -11.24139,-8.4645c0.0504,-4.60634 5.16507,-8.28498 11.42393,-8.21649c6.25885,0.06849 11.29179,3.85817 11.24138,8.46451z" fill="url(#color-16)"/></g><path d="M175.44262,125.68644c0.01721,-1.57261 0.67422,-30.50225 3.44662,-36.28163c0.14858,-0.30977 29.32103,6.22206 59.19044,6.61954c32.58093,0.43355 66.10446,-5.2282 66.55297,-4.68819c0.72896,0.87769 0.63621,31.81964 0.58938,36.09956c-0.36437,33.29985 -29.41794,59.98004 -64.89294,59.59187c-35.475,-0.38817 -65.25084,-28.0413 -64.88646,-61.34113z" fill="url(#color-17)" stroke="none" stroke-width="0" stroke-linecap="butt"/><path d="M190.3259,124.27453c0.1419,-12.96722 10.76894,-23.36423 23.73617,-23.22233c12.96722,0.1419 23.36423,10.76894 23.22233,23.73617c-0.1419,12.96722 -10.76894,23.36423 -23.73617,23.22233c-12.96722,-0.1419 -23.36423,-10.76894 -23.22233,-23.73617z" fill="#ff0000" stroke="none" stroke-width="2" stroke-linecap="butt"/><path d="M267.80338,148.60433c-12.96722,-0.1419 -23.36423,-10.76894 -23.22233,-23.73617c0.1419,-12.96722 10.76894,-23.36423 23.73617,-23.22233c12.96722,0.1419 23.36423,10.76894 23.22233,23.73617c-0.1419,12.96722 -10.76894,23.36423 -23.73617,23.22233z" data-paper-data="{&quot;index&quot;:null}" fill="#ff0000" stroke="none" stroke-width="2" stroke-linecap="butt"/><path d="M268.86584,97.18834c-3.91917,-0.96529 -11.95747,-0.99297 -11.95747,-0.99297c0,0 7.26615,-1.8143 12.34103,-0.56439c5.07489,1.24993 11.72687,6.49225 11.72687,6.49225c0,0 -8.01475,-3.92616 -12.11044,-4.93491z" data-paper-data="{&quot;index&quot;:null}" fill="#000000" stroke="none" stroke-width="0" stroke-linecap="butt"/><path d="M202.37787,150.16975l2.04364,-3.97787" fill="none" stroke="#000000" stroke-width="2" stroke-linecap="round"/><path d="M213.99688,148.49678l-0.24376,3.99757" fill="none" stroke="#000000" stroke-width="2" stroke-linecap="round"/><g fill="none" stroke="#000000" stroke-width="2" stroke-linecap="round"><path d="M277.21495,147.18842l1.95611,4.02165" data-paper-data="{&quot;index&quot;:null}"/><path d="M267.59145,149.28326l0.15622,4.00194" data-paper-data="{&quot;index&quot;:null}"/></g><path d="M252.15858,83.35805c-0.01769,1.61732 -6.90727,2.85318 -15.38827,2.76035c-8.48102,-0.0928 -15.34187,-1.47912 -15.32417,-3.09643c0.01769,-1.61732 6.90727,-2.85318 15.38826,-2.76035c8.48102,0.0928 15.34188,1.47912 15.32418,3.09643z" fill="url(#color-18)" stroke="none" stroke-width="0" stroke-linecap="butt"/><path d="M261.28681,84.74371c-0.01251,1.14394 -1.42969,2.05591 -3.16533,2.03692c-1.73565,-0.019 -3.13252,-0.96174 -3.12001,-2.1057c0.01251,-1.14394 1.42969,-2.05591 3.16534,-2.03692c1.73565,0.019 3.13251,0.96174 3.12,2.1057z" fill="url(#color-19)" stroke="none" stroke-width="0" stroke-linecap="butt"/><path d="M257.13014,85.98404c-0.00821,0.74948 -1.19802,1.34412 -2.65754,1.32817c-1.45953,-0.01596 -2.63605,-0.6365 -2.62784,-1.38599c0.00821,-0.74948 1.19801,-1.34411 2.65753,-1.32815c1.45953,0.01596 2.63606,0.6365 2.62785,1.38597z" fill="url(#color-20)" stroke="none" stroke-width="0" stroke-linecap="butt"/><path d="M270.43066,84.70092c-0.00734,0.67058 -1.22844,1.20093 -2.72741,1.18451c-1.49897,-0.0164 -2.70818,-0.57332 -2.70084,-1.24392c0.00734,-0.67058 1.22844,-1.20093 2.72741,-1.18451c1.49897,0.0164 2.70818,0.57332 2.70084,1.24392z" fill="url(#color-21)" stroke="none" stroke-width="0" stroke-linecap="butt"/><path d="M221.86763,83.66949c-0.01726,1.57787 -2.07784,2.83456 -4.60242,2.80695c-2.52458,-0.02763 -4.55716,-1.32911 -4.53989,-2.90699c0.01726,-1.57787 2.07783,-2.83457 4.60242,-2.80696c2.52458,0.02763 4.55716,1.32912 4.5399,2.907z" fill="url(#color-22)" stroke="none" stroke-width="0" stroke-linecap="butt"/><path d="M291.51564,125.48893c-0.00504,0.46139 -4.97838,-1.63477 -13.09031,-3.05285c-3.47312,-0.60716 -8.66489,-1.10252 -12.4121,-1.19912c-2.35009,-0.06056 -6.0877,0.06476 -8.30831,0.32244c-8.04155,0.93308 -13.14778,3.4157 -13.14778,3.4157c0.1419,-12.96722 10.76894,-23.36423 23.73617,-23.22233c12.96722,0.1419 23.36423,10.76894 23.22233,23.73617z" data-paper-data="{&quot;index&quot;:null}" fill="none" stroke="none" stroke-width="2" stroke-linecap="butt"/><path d="M291.40263,124.8601c-0.00504,0.46139 -47.26034,4.43632 -47.26034,4.43632c0.03792,-3.46582 1.13201,-10.56595 2.54405,-14.0306c3.87106,-9.49826 11.99254,-14.24584 21.49395,-14.14188c12.96722,0.1419 23.36423,10.76894 23.22233,23.73617z" data-paper-data="{&quot;index&quot;:null}" fill="none" stroke="none" stroke-width="0" stroke-linecap="butt"/><path d="M249.86084,245.01534c0,0 0.38325,7.08869 0.28044,7.28233c-0.02861,0.05384 -2.16783,12.475 -2.16783,12.475l-0.00034,0.00007c-0.00565,0.2933 -0.01144,0.58663 -0.01733,0.87999c0,0 0.12655,2.19834 -0.4726,3.4664c-0.42885,0.90769 -1.58898,1.01705 -1.77814,0.98375c-0.10285,-0.01811 -1.59414,-0.10237 -2.1233,-0.97742c-0.76676,-1.26796 -0.62809,-3.46994 -0.62809,-3.46994c0.39539,-19.68957 -9.09431,7.02742 -8.82263,-12.62286c-7.54533,0.05838 -11.49601,-3.74494 -11.69693,-3.30146c-3.59942,7.94165 -11.02596,-0.24138 -10.94217,-1.55981c-5.93158,-3.17283 -12.32499,-49.81115 -16.47754,-56.9126c-1.50615,-2.04034 -8.74711,-1.63274 -10.22255,-3.25467c-0.88008,-0.96745 -1.60993,-3.26159 -1.79515,-4.6832c-0.07404,-0.31689 0.88837,-1.47232 0.81546,-1.78968c-1.24943,-5.43858 -3.27425,-5.12574 -4.99718,-5.12479c-1.60864,0.00089 4.05757,-8.84356 4.09755,-10.49702c-0.45034,-3.40813 -0.15592,-7.00148 -0.76145,-10.39384c-0.46594,-2.61039 -1.44596,-5.31222 -2.04344,-8.02951c-0.46456,-0.99823 -0.77955,-2.0826 -0.76057,-3.42044c0,0 0.00838,-0.41733 0.26329,-0.58844c-0.00005,-0.0239 -0.00002,-0.04783 0.00007,-0.07173l0.01326,-0.66004c0,0 0.01326,-0.66004 0.51346,-0.66032l0.00003,0c0.50022,-0.00028 0.48696,0.65974 0.48696,0.65974l-0.01326,0.66005c-0.04964,1.06989 0.07581,2.17961 0.29634,3.3036c0.40499,0.89687 0.9664,1.70063 1.46881,2.53929c2.34528,3.915 4.60411,7.57922 7.82892,10.25964c0.06941,0.05831 1.30692,1.46301 1.33449,1.45164c0.20832,-0.08597 -1.1098,-4.25867 -1.16081,-4.47848c-0.59786,-2.57714 -1.0875,-6.06863 -0.85006,-8.79006c0.27616,-3.16527 3.0242,-0.25151 3.83806,0.85072c4.44604,6.02368 7.97312,8.08806 13.99783,11.31756c2.89668,0.78911 8.52796,2.06943 10.56351,-1.68678c1.33742,-2.46795 2.01512,-2.59724 3.10352,-5.2753c1.77579,-2.14426 5.02612,-1.10767 5.84962,1.84144c0.27322,0.97846 -0.00842,2.19357 0.13373,3.14431c0.10502,0.7024 1.0552,-0.5431 1.44997,-1.05393c0.9571,-1.23839 1.81169,-2.58331 2.68532,-3.92396c2.17539,-3.33598 3.89868,-7.24527 6.80033,-9.60519c0.58725,-0.47761 1.93696,-1.69491 2.6528,-1.1978c1.34685,0.93536 2.69111,5.57918 3.3993,7.39987c2.11904,3.32221 5.46777,5.05987 8.84683,4.43199c1.29704,-0.24102 2.60997,-1.69511 3.99615,-0.97249c1.5097,0.78702 1.48942,2.42305 2.23419,3.99692c1.16063,6.85131 8.03515,6.04534 11.91584,3.51958c1.07164,-0.85656 2.00957,-1.62068 3.10445,-2.33595l-0.05537,-0.07502l0.12708,-0.16344c-0.81353,-0.85386 -2.03414,-2.86362 -1.7105,-3.86784c0.44571,-1.38306 2.27093,-0.7473 2.92498,-0.40268c2.54842,1.34274 2.66825,3.56706 3.50304,6.70942c2.34435,0.83062 3.05404,-1.16916 4.16989,-3.67203c2.07128,-4.64594 3.97507,-9.57438 6.58183,-13.76166c2.23142,-3.56559 4.93739,-7.2348 7.61207,-10.2395c0.39168,-0.44001 2.04445,-2.23951 2.67128,-1.77242c1.21588,0.90605 -0.71879,5.92383 -1.08345,7.04476c-0.57523,1.10402 -1.06306,2.38363 -1.73129,3.36762c-0.22072,0.32504 0.53862,-0.50771 0.7909,-0.78991c0.50286,-0.56248 0.94182,-1.21786 1.41486,-1.8239c1.65359,-2.11855 2.72008,-4.85288 3.29804,-7.70745l0.02208,-0.04135l-0.00862,-0.00462l0.3377,-1.03787c0.07627,-0.2499 0.26264,-0.42775 0.47691,-0.42788c0.19968,-0.00011 0.36894,0.15417 0.44465,0.37739l0.23227,0.6471l-0.17878,0.11652c0.40137,1.34421 0.17376,2.76337 0.13952,4.46884c-0.11787,5.87014 -2.0594,11.67859 -4.37388,16.74849c-1.64708,7.91648 -0.27134,18.34515 -4.66583,23.84515c-3.79747,6.79437 -4.2213,14.44862 -10.3608,17.17448c-0.82684,0.35897 -21.86946,57.9468 -21.97199,63.0522l-1.8935,-17.26053c0,0 -3.02515,2.29871 -5.52621,2.3001z" fill="#000000" stroke="none" stroke-width="0.5" stroke-linecap="butt"/><path d="M191.33201,130.28572c0.42094,0.0172 43.77195,0.64162 44.91018,0.55828c-1.46656,9.68568 -11.05505,17.09557 -22.57982,16.96948c-12.00991,-0.13141 -21.75128,-7.22928 -22.33037,-17.52773z" data-paper-data="{&quot;index&quot;:null}" fill="#ff4242" stroke="none" stroke-width="2" stroke-linecap="butt"/><path d="M197.39391,124.07622c0.09988,-9.12753 7.58016,-16.44589 16.70769,-16.34601c9.12753,0.09988 16.44589,7.58017 16.34601,16.7077c-0.09988,9.12753 -7.58017,16.44589 -16.7077,16.34601c-9.12753,-0.09988 -16.44588,-7.58016 -16.346,-16.7077z" fill="#000000" stroke="none" stroke-width="0" stroke-linecap="butt"/><path d="M290.38671,130.98865c-0.80619,10.45344 -10.70178,17.45202 -22.71169,17.32061c-11.52477,-0.12611 -20.94745,-7.86827 -22.19996,-17.74409c1.13613,0.1098 44.49045,0.43167 44.91166,0.42347z" data-paper-data="{&quot;index&quot;:null}" fill="#ff4242" stroke="none" stroke-width="2" stroke-linecap="butt"/><path d="M267.76994,141.3751c-9.12752,-0.09988 -16.44588,-7.58016 -16.346,-16.7077c0.09988,-9.12753 7.58017,-16.44589 16.70769,-16.34601c9.12752,0.09988 16.44588,7.58016 16.346,16.7077c-0.09988,9.12753 -7.58017,16.44589 -16.70769,16.34601z" data-paper-data="{&quot;index&quot;:null}" fill="#000000" stroke="none" stroke-width="0" stroke-linecap="butt"/><path d="M218.22119,125.61941c-0.02935,2.68236 -2.06774,4.8348 -4.55288,4.80761c-2.48513,-0.02719 -4.47593,-2.22372 -4.44659,-4.90608c0.02935,-2.68236 2.06774,-4.83481 4.55288,-4.80762c2.48513,0.02719 4.47593,2.22372 4.44659,4.90609z" fill="none" stroke="#ff0000" stroke-width="2.5" stroke-linecap="butt"/><path d="M272.9369,125.78952c-0.02935,2.68236 -2.06774,4.83481 -4.55288,4.80762c-2.48513,-0.02719 -4.47593,-2.22372 -4.44659,-4.90609c0.02935,-2.68236 2.06774,-4.83481 4.55288,-4.80762c2.48513,0.02719 4.47593,2.22372 4.44659,4.90609z" fill="none" stroke="#ff0000" stroke-width="2.5" stroke-linecap="butt"/><path d="M189.92596,124.27015c0.1419,-12.96722 10.80234,-23.36385 23.81076,-23.22151c9.5316,0.1043 18.32554,4.78696 21.99982,14.36778c0.14687,0.38296 1.03534,0.32063 1.15577,0.78631c0.97861,3.78386 0.36934,10.45247 0.33557,13.53847c0,0 -47.307,-5.00967 -47.30194,-5.47105z" fill="url(#color-23)" stroke="none" stroke-width="0" stroke-linecap="butt"/><path d="M291.55965,125.22128c-0.00504,0.46139 -47.36033,4.43522 -47.36033,4.43522c0.03792,-3.46582 0.38695,-10.82411 1.8019,-14.28873c3.87905,-9.49817 12.76482,-13.98738 22.28636,-13.88319c12.99469,0.14219 23.41395,10.76947 23.27206,23.73671z" data-paper-data="{&quot;index&quot;:null}" fill="url(#color-24)" stroke="none" stroke-width="0" stroke-linecap="butt"/><g stroke="none" stroke-width="0" stroke-linecap="butt"><path d="M214.60164,126.28679c-0.11229,0.00044 2.84109,-7.53485 3.41163,-8.68737c1.52885,-3.0884 2.96184,-6.21295 4.43157,-9.32914c0.7596,-1.61057 1.3895,-3.10436 2.25596,-4.44258c1.5999,0.76917 3.09863,1.7142 4.47141,2.8097c-0.85316,1.61123 -7.01627,18.3418 -7.70287,19.84217c-1.44572,3.15927 -6.86771,-0.19279 -6.86771,-0.19279z" fill="url(#color-25)"/><path d="M214.79511,101.52214c0.2882,0.00315 0.57512,0.0115 0.8607,0.0249c-1.27139,1.88936 -2.08861,4.96313 -2.59351,6.6932c-0.09767,0.33462 -0.19886,0.66794 -0.30319,1.00008c-0.92715,2.9515 -4.76154,15.75715 -5.21736,16.94696c-1.42885,0.13591 -10.35962,-1.78375 -12.42,-1.28246c0.34063,-0.60972 5.92376,-9.28881 7.71352,-12.28121c1.78579,-2.9858 3.38957,-6.07607 5.14723,-9.08035c0.23422,-0.43336 0.45525,-0.86061 0.67215,-1.2795c1.96042,-0.506 4.01913,-0.76483 6.14047,-0.74162z" fill="url(#color-26)"/></g><g data-paper-data="{&quot;index&quot;:null}" stroke="none" stroke-width="0" stroke-linecap="butt"><path d="M259.4787,126.93303c-0.6536,-1.51505 -6.44912,-18.37647 -7.26683,-20.00598c1.39642,-1.0652 2.91548,-1.9772 4.53183,-2.71118c0.83697,1.35685 1.43402,2.86407 2.15821,4.49089c1.40118,3.1476 2.76547,6.30278 4.22638,9.42388c0.54518,1.16472 3.33297,8.76284 3.2207,8.75994c0,0 -5.49405,3.23262 -6.87028,0.04247z" fill="url(#color-27)"/><path d="M266.69746,102.12763c2.12133,0.02321 4.17389,0.32703 6.12277,0.87582c0.20767,0.42351 0.41932,0.8555 0.64399,1.29389c1.69149,3.04203 3.22727,6.16664 4.9473,9.19081c1.72384,3.03085 7.11572,11.83003 7.44292,12.44705c-2.04892,-0.54626 -11.01956,1.17753 -12.44509,1.01038c-0.42968,-1.19948 -3.98292,-14.08596 -4.84528,-17.05704c-0.09704,-0.33437 -0.19092,-0.6698 -0.28124,-1.00648c-0.46693,-1.74068 -1.21668,-4.83161 -2.44643,-6.74834c0.28579,-0.00715 0.57284,-0.00922 0.86104,-0.00607z" fill="url(#color-28)"/></g><path d="M224.68584,145.6724c0,0 5.94974,-3.70736 7.76302,-5.79225c1.5049,-1.73033 2.93145,-6.84675 2.93145,-6.84675c0,0 3.2007,-0.97653 5.44619,-0.84099c2.15558,0.13013 5.10644,1.16508 5.10644,1.16508c0,0 1.4681,3.57913 2.84063,5.81914c0.65906,1.07561 1.72539,1.67617 1.78643,1.73725c1.79776,1.79938 4.90841,4.4876 4.90841,4.4876c0,0 -11.64048,-5.21393 -14.83236,-5.24886c-4.75814,-0.05207 -15.95024,5.51979 -15.95024,5.51979z" fill="url(#color-29)" stroke="none" stroke-width="0" stroke-linecap="butt"/><g stroke-width="1" stroke-linecap="round"><path d="M282.3962,166.38841l-2.72981,-6.43025" fill="url(#color-30)" stroke="url(#color-31)"/><path d="M287.02654,163.63892l-1.743,-5.21938" fill="url(#color-32)" stroke="url(#color-33)"/></g><g data-paper-data="{&quot;index&quot;:null}" fill="none" stroke-width="1" stroke-linecap="round"><path d="M192.27347,163.40214l2.86987,-6.36898" stroke="url(#color-34)"/><path d="M199.71241,159.88333l-1.85678,5.17999" stroke="url(#color-35)"/></g><g stroke="none" stroke-width="0" stroke-linecap="butt"><g><path d="M213.56574,161.30474c-0.62084,0.62532 -3.6605,5.3935 -3.6605,5.3935c0,0 -2.95443,-5.51055 -3.61835,-6.25487c1.42119,-0.02403 6.31598,0.82502 7.27884,0.86136z" data-paper-data="{&quot;index&quot;:null}" fill="url(#color-36)"/><path d="M220.15218,162.02281c-0.59669,0.64296 -3.45346,5.49689 -3.45346,5.49689c0,0 -3.16164,-5.42267 -3.85336,-6.14746c1.4194,-0.06511 6.34321,0.6421 7.30683,0.65058z" data-paper-data="{&quot;index&quot;:null}" fill="url(#color-37)"/></g><g><path d="M226.49762,162.55624c-0.5653,0.66427 -3.18667,5.61877 -3.18667,5.61877c0,0 -3.41825,-5.30324 -4.144,-6.00226c1.41484,-0.11685 6.36764,0.41016 7.33068,0.38347z" data-paper-data="{&quot;index&quot;:null}" fill="url(#color-38)"/><path d="M233.12571,162.84204c-0.53971,0.6803 -2.97137,5.70835 -2.97137,5.70835c0,0 -3.61729,-5.20205 -4.36911,-5.87978c1.4095,-0.15768 6.37905,0.22591 7.34048,0.17141z" data-paper-data="{&quot;index&quot;:null}" fill="url(#color-39)"/></g><g><path d="M240.02243,163.19781c-0.54719,0.67574 -3.03401,5.68309 -3.03401,5.68309c0,0 -3.56008,-5.23192 -4.30446,-5.91586c1.41121,-0.14589 6.37648,0.27925 7.33849,0.23282z" data-paper-data="{&quot;index&quot;:null}" fill="url(#color-40)"/><path d="M246.65593,163.34739c-0.52119,0.69125 -2.81638,5.76822 -2.81638,5.76822c0,0 -3.75632,-5.12667 -4.52617,-5.7888c1.40474,-0.1866 6.38294,0.09483 7.34256,0.02058z" data-paper-data="{&quot;index&quot;:null}" fill="url(#color-41)"/></g><g><g data-paper-data="{&quot;index&quot;:null}"><path d="M273.2471,161.55113c-0.68005,0.72961 -3.75436,6.17419 -3.75436,6.17419c0,0 -2.9346,-4.83358 -3.54159,-5.47232c0.96342,-0.01525 5.87561,-0.75701 7.29595,-0.70187z" data-paper-data="{&quot;index&quot;:null}" fill="url(#color-42)"/><path d="M266.66986,162.33625c-0.70743,0.70947 -3.98698,6.06168 -3.98698,6.06168c0,0 -2.74984,-4.91525 -3.33233,-5.57113c0.96357,0.01261 5.90168,-0.58668 7.3193,-0.49053z" data-paper-data="{&quot;index&quot;:null}" fill="url(#color-43)"/></g><g data-paper-data="{&quot;index&quot;:null}"><path d="M260.33229,162.99822c-0.7409,0.68296 -4.27435,5.91014 -4.27435,5.91014c0,0 -2.51233,-5.01069 -3.06296,-5.68716c0.96224,0.04775 5.92538,-0.37075 7.33733,-0.22296z" data-paper-data="{&quot;index&quot;:null}" fill="url(#color-44)"/><path d="M253.7047,163.35116c-0.76646,0.66109 -4.49672,5.78275 -4.49672,5.78275c0,0 -2.32104,-5.08004 -2.84575,-5.772c0.96,0.07554 5.93678,-0.19924 7.34248,-0.01074z" data-paper-data="{&quot;index&quot;:null}" fill="url(#color-45)"/></g></g></g><g stroke="none" stroke-width="0" stroke-linecap="butt"><g><g><path d="M209.24603,227.27355c0.58014,-0.73974 3.19274,-6.22953 3.19274,-6.22953c0,0 1.99624,6.60849 2.52014,7.23788c-0.8267,0.02983 -4.49376,-0.97475 -5.71288,-1.00835z" data-paper-data="{&quot;index&quot;:null}" fill="url(#color-46)"/><path d="M214.69932,228.20783c0.60375,-0.72001 3.3929,-6.12056 3.3929,-6.12056c0,0 2.28716,6.23629 2.79013,6.88317c-0.82695,0.00199 -4.96603,-0.68795 -6.18301,-0.76261z" data-paper-data="{&quot;index&quot;:null}" fill="url(#color-47)"/></g><g><path d="M220.75951,229.17561c0.52762,-0.77912 2.75341,-6.43941 2.75341,-6.43941c0,0 2.45245,6.44383 3.01919,7.03352c-0.82311,0.08923 -4.55336,-0.64834 -5.77262,-0.59411z" data-paper-data="{&quot;index&quot;:null}" fill="url(#color-48)"/><path d="M226.26784,229.71455c0.55252,-0.76117 2.96078,-6.34518 2.96078,-6.34518c0,0 2.71694,6.05187 3.264,6.66052c-0.82531,0.06148 -5.00483,-0.32847 -6.22478,-0.31533z" data-paper-data="{&quot;index&quot;:null}" fill="url(#color-49)"/></g></g><g><path d="M232.67964,229.94314c0.47518,-0.81297 2.32259,-6.60915 2.32259,-6.60915c0,0 2.87511,6.25718 3.47999,6.80634c-0.81586,0.14531 -4.58889,-0.33473 -5.80258,-0.19721z" data-paper-data="{&quot;index&quot;:null}" fill="url(#color-50)"/><path d="M238.21471,230.10343c0.50124,-0.79677 2.53585,-6.52939 2.53585,-6.52939c0,0 3.11323,5.84825 3.69969,6.41767c-0.8199,0.11781 -5.01844,0.0151 -6.23554,0.11171z" data-paper-data="{&quot;index&quot;:null}" fill="url(#color-51)"/></g><g><path d="M244.35624,230.21187c0.41774,-0.84456 1.85843,-6.75519 1.85843,-6.75519c0,0 3.30527,6.03039 3.94727,6.5343c-0.80427,0.20354 -4.60381,-0.00351 -5.8057,0.2209z" data-paper-data="{&quot;index&quot;:null}" fill="url(#color-52)"/><path d="M249.89234,229.97341c0.44487,-0.83029 2.07686,-6.69104 2.07686,-6.69104c0,0 3.5145,5.60563 4.13952,6.13105c-0.81019,0.17642 -5.00822,0.37612 -6.21638,0.56001z" data-paper-data="{&quot;index&quot;:null}" fill="url(#color-53)"/></g><g><path d="M255.99822,229.57848c0.35678,-0.87251 1.37372,-6.86962 1.37372,-6.86962c0,0 3.72838,5.76697 4.40502,6.22194c-0.78821,0.26209 -4.59515,0.33552 -5.77874,0.64768z" data-paper-data="{&quot;index&quot;:null}" fill="url(#color-54)"/><path d="M261.50664,228.93315c0.38488,-0.86029 1.59629,-6.82178 1.59629,-6.82178c0,0 3.90695,5.32823 4.56818,5.80587c-0.79607,0.2355 -4.97176,0.74366 -6.16449,1.01589z" data-paper-data="{&quot;index&quot;:null}" fill="url(#color-55)"/></g></g></g></g></svg>