<svg version="1.1" xmlns="http://www.w3.org/2000/svg" xmlns:xlink="http://www.w3.org/1999/xlink" width="200.48643" height="267.88368" viewBox="0,0,200.48643,267.88368"><defs><linearGradient x1="240.9984" y1="177.03175" x2="240.9984" y2="309.03174" gradientUnits="userSpaceOnUse" id="color-1"><stop offset="0" stop-color="#000000"/><stop offset="1" stop-color="#d4b490"/></linearGradient><linearGradient x1="240.53166" y1="192.82771" x2="240.53166" y2="235.07339" gradientUnits="userSpaceOnUse" id="color-2"><stop offset="0" stop-color="#000000"/><stop offset="1" stop-color="#deb88e"/></linearGradient><linearGradient x1="241.07531" y1="81.91783" x2="241.07531" y2="199.67619" gradientUnits="userSpaceOnUse" id="color-3"><stop offset="0" stop-color="#000000"/><stop offset="1" stop-color="#e8c49a"/></linearGradient><linearGradient x1="140.8601" y1="162.60461" x2="195.10024" y2="160.99708" gradientUnits="userSpaceOnUse" id="color-4"><stop offset="0" stop-color="#000000"/><stop offset="1" stop-color="#967e63"/></linearGradient><linearGradient x1="287.87057" y1="158.69914" x2="342.08977" y2="160.90255" gradientUnits="userSpaceOnUse" id="color-5"><stop offset="0" stop-color="#957e64"/><stop offset="1" stop-color="#000000"/></linearGradient><linearGradient x1="259.44026" y1="48.57667" x2="259.05491" y2="104.89832" gradientUnits="userSpaceOnUse" id="color-6"><stop offset="0" stop-color="#a1886b"/><stop offset="1" stop-color="#000000"/></linearGradient><linearGradient x1="242.70867" y1="146.80587" x2="242.70867" y2="162.66304" gradientUnits="userSpaceOnUse" id="color-7"><stop offset="0" stop-color="#412d4c" stop-opacity="0"/><stop offset="1" stop-color="#412d4c"/></linearGradient><linearGradient x1="239.94734" y1="173.94018" x2="239.94734" y2="183.42512" gradientUnits="userSpaceOnUse" id="color-8"><stop offset="0" stop-color="#000000"/><stop offset="1" stop-color="#ffffff"/></linearGradient></defs><g transform="translate(-141.17362,-48.46054)"><g data-paper-data="{&quot;isPaintingLayer&quot;:true}" fill-rule="nonzero" stroke-linejoin="miter" stroke-miterlimit="10" stroke-dasharray="" stroke-dashoffset="0" style="mix-blend-mode: normal"><path d="M180.28205,316.34422v-267.22501h123.18203v267.22501z" fill-opacity="0.01" fill="#000000" stroke="none" stroke-width="0" stroke-linecap="butt"/><path d="M207.7484,309.03174l15.14285,-131.8421l37.78325,-0.15789l13.57389,132z" fill="url(#color-1)" stroke="none" stroke-width="0" stroke-linecap="butt"/><path d="M270.90666,198.69839c0,2.30815 -3.18821,22.08962 -5.54022,24.62356c-1.44432,1.55604 -8.61003,-1.89423 -10.01931,-0.61498c-1.83404,1.66481 -12.20782,12.36642 -16.19046,12.36642c-0.98854,0 -7.79625,-10.39799 -10.55794,-12.06768c-3.0515,-1.84491 -10.07195,2.62103 -11.28693,1.75156c-3.77432,-2.70101 -7.15514,-21.29382 -7.15514,-24.30887c0,-7.66295 12.84567,-7.375 29,-7.375c16.15433,0 31.75,-2.03795 31.75,5.625z" fill="url(#color-2)" stroke="none" stroke-width="0" stroke-linecap="butt"/><path d="M176.83829,139.37785c0,-24.86961 0.53942,-44.72272 23.43776,-53.94172c7.76386,-3.12578 78.06474,-7.32917 89.64055,3.26571c11.96565,10.95168 15.39573,33.74936 15.39573,50.67601c0,22.27378 -4.86585,44.06016 -24.00215,54.50148c-9.47466,5.16965 -28.48645,5.79685 -40.23487,5.79685c-8.03759,0 -28.39706,-1.05234 -35.48875,-3.58308c-24.21035,-8.6397 -28.74827,-30.95817 -28.74827,-56.71525z" fill="url(#color-3)" stroke="none" stroke-width="2" stroke-linecap="butt"/><path d="M190.38851,139.80738c0,-12.968 10.51265,-23.48065 23.48065,-23.48065c12.968,0 23.48065,10.51265 23.48065,23.48065c0,12.968 -10.51265,17.88065 -23.48065,17.88065c-12.968,0 -23.48065,-4.91265 -23.48065,-17.88065z" fill="#ff0000" stroke="none" stroke-width="2" stroke-linecap="butt"/><path d="M267.72755,158.48799c-12.968,0 -23.08065,-5.71265 -23.08065,-18.68065c0,-12.968 10.51265,-23.48065 23.48065,-23.48065c12.968,0 23.48065,10.51265 23.48065,23.48065c0,12.968 -10.91265,18.68065 -23.88065,18.68065z" data-paper-data="{&quot;index&quot;:null}" fill="#ff0000" stroke="none" stroke-width="2" stroke-linecap="butt"/><path d="M227.15752,104.24018c0,0 -6.70895,5.16922 -11.79721,6.36355c-5.08827,1.19433 -12.33413,-0.69937 -12.33413,-0.69937c0,0 8.03812,0.06028 11.96762,-0.86207c4.10648,-0.96389 12.16372,-4.80211 12.16372,-4.80211z" data-paper-data="{&quot;index&quot;:null}" fill="#000000" stroke="none" stroke-width="0" stroke-linecap="butt"/><path d="M267.15675,109.0423c3.9295,0.92235 11.96762,0.86207 11.96762,0.86207c0,0 -7.24586,1.8937 -12.33413,0.69937c-5.08826,-1.19433 -11.79721,-6.36355 -11.79721,-6.36355c0,0 8.05724,3.83822 12.16372,4.80211z" data-paper-data="{&quot;index&quot;:null}" fill="#000000" stroke="none" stroke-width="0" stroke-linecap="butt"/><path d="M195.83306,185.72323c0,0 -4.30697,2.60009 -10.56663,4.6319c-2.65003,0.86017 -11.25221,3.41078 -19.01566,1.93726c-9.28613,-1.76254 -17.75815,-7.76289 -18.65251,-8.64894c-5.2389,-5.19019 -6.42464,-10.46035 -6.42464,-10.46035c0,0 8.82779,0.63915 16.27333,0.22105c3.48129,-0.19549 6.2583,-1.00107 8.42176,-1.52105c1.85755,-0.44645 4.80032,-1.38785 6.81163,-2.67895c3.38582,-2.17344 5.52036,-4.92036 5.52036,-4.92036c0,0 -2.83554,0.01957 -6.9825,-0.51005c-1.74413,-0.22275 -6.53453,-0.39689 -10.58983,-1.93102c-5.62504,-2.12797 -10.73198,-5.92159 -12.3463,-7.58845c-5.05678,-5.22138 -6.63731,-11.42134 -6.63731,-11.42134c0,0 17.43994,1.39476 23.24305,-1.83982c6.96867,-3.88426 15.24023,-10.60725 15.24023,-10.60725" data-paper-data="{&quot;index&quot;:null}" fill="url(#color-4)" stroke="none" stroke-width="2" stroke-linecap="round"/><g stroke="none" stroke-width="0" stroke-linecap="butt"><path d="M205.40892,174.29214c0,4.86067 -4.2906,8.80102 -9.58333,8.80102c-5.29273,0 -9.58333,-3.94035 -9.58333,-8.80102c0,-4.86067 4.2906,-8.80102 9.58333,-8.80102c5.29273,0 9.58333,3.94035 9.58333,8.80102z" fill="#bd9568"/><path d="M192.724,170.75595c0,0.86412 -0.71643,1.56463 -1.60019,1.56463c-0.88376,0 -1.60019,-0.70051 -1.60019,-1.56463c0,-0.86412 0.71643,-1.56463 1.60019,-1.56463c0.88376,0 1.60019,0.70051 1.60019,1.56463z" fill="#860000"/><path d="M202.68071,172.0361c0,0.86412 -0.71643,1.56463 -1.60019,1.56463c-0.88376,0 -1.60019,-0.70051 -1.60019,-1.56463c0,-0.86412 0.71643,-1.56463 1.60019,-1.56463c0.88376,0 1.60019,0.70051 1.60019,1.56463z" fill="#860000"/><path d="M197.20452,179.29027c0,0.86412 -0.71643,1.56463 -1.60019,1.56463c-0.88376,0 -1.60019,-0.70051 -1.60019,-1.56463c0,-0.86412 0.71643,-1.56463 1.60019,-1.56463c0.88376,0 1.60019,0.70051 1.60019,1.56463z" fill="#860000"/></g><path d="M303.17823,128.25432c0,0 8.19719,6.81347 15.12276,10.77406c5.76721,3.29815 23.22143,2.0951 23.22143,2.0951c0,0 -1.64856,6.18222 -6.7624,11.34772c-1.63254,1.64902 -6.78085,5.3863 -12.42893,7.45234c-4.07192,1.48948 -8.86393,1.61098 -10.61041,1.81455c-4.15253,0.48402 -6.98769,0.4333 -6.98769,0.4333c0,0 2.10423,2.77021 5.46596,4.98071c1.997,1.31312 4.92925,2.2868 6.78178,2.75364c2.15761,0.54372 4.92561,1.37976 8.40454,1.61349c7.4405,0.49989 16.27478,-0.04223 16.27478,-0.04223c0,0 -1.24357,5.25681 -6.53919,10.38912c-0.90404,0.87617 -9.44148,6.78307 -18.74642,8.44347c-7.77917,1.38813 -16.3528,-1.25685 -18.99322,-2.14608c-6.23695,-2.10047 -10.5151,-4.74772 -10.5151,-4.74772" data-paper-data="{&quot;index&quot;:null}" fill="url(#color-5)" stroke="none" stroke-width="2" stroke-linecap="round"/><g data-paper-data="{&quot;index&quot;:null}" stroke="none" stroke-width="0" stroke-linecap="butt"><path d="M287.58315,165.50625c4.74045,0 8.58333,3.52918 8.58333,7.88265c0,4.35347 -3.84289,7.88265 -8.58333,7.88265c-4.74045,0 -8.58333,-3.52918 -8.58333,-7.88265c0,-4.35347 3.84289,-7.88265 8.58333,-7.88265z" fill="#bd9568"/><path d="M291.79433,168.82035c0.79154,0 1.43321,0.62741 1.43321,1.40136c0,0.77395 -0.64167,1.40136 -1.43321,1.40136c-0.79154,0 -1.43321,-0.62741 -1.43321,-1.40136c0,-0.77395 0.64167,-1.40136 1.43321,-1.40136z" fill="#005387"/><path d="M282.87657,169.96694c0.79154,0 1.43321,0.62741 1.43321,1.40136c0,0.77395 -0.64167,1.40136 -1.43321,1.40136c-0.79154,0 -1.43321,-0.62741 -1.43321,-1.40136c0,-0.77395 0.64167,-1.40136 1.43321,-1.40136z" fill="#005387"/><path d="M287.78132,176.46415c0.79154,0 1.43321,0.62741 1.43321,1.40136c0,0.77395 -0.64167,1.40136 -1.43321,1.40136c-0.79154,0 -1.43321,-0.62741 -1.43321,-1.40136c0,-0.77395 0.64167,-1.40136 1.43321,-1.40136z" fill="#005387"/></g><path d="M227.79882,86.15307c0,0 7.19358,-7.86572 11.47733,-14.5962c3.56726,-5.60474 3.19116,-23.09634 3.19116,-23.09634c0,0 6.09732,1.93914 11.01514,7.2916c1.56995,1.70871 5.05953,7.02805 6.85609,12.76754c1.2952,4.13782 1.1899,8.93021 1.31062,10.68437c0.28706,4.17078 0.10228,7.00036 0.10228,7.00036c0,0 2.86664,-1.97083 5.2337,-5.22424c1.40612,-1.93264 2.5174,-4.81556 3.07134,-6.64393c0.64516,-2.12948 1.61121,-4.85483 2.00924,-8.31881c0.85128,-7.40852 0.72763,-16.25855 0.72763,-16.25855c0,0 5.1921,1.49084 10.06817,7.02329c0.83243,0.94448 6.32888,9.75177 7.54728,19.12482c1.01861,7.83612 -2.02896,16.27505 -3.0421,18.87045c-2.39313,6.13061 -5.2398,10.27875 -5.2398,10.27875" data-paper-data="{&quot;index&quot;:null}" fill="url(#color-6)" stroke="none" stroke-width="2" stroke-linecap="round"/><path d="M215.26753,159.42135c-8.03007,0 -17.12896,-0.18008 -21.37722,-6.72501c-1.89369,-2.91744 -2.52779,-5.73191 -3.04203,-9.21768c0.25829,-0.02407 44.96055,-0.57569 46.21261,-0.62024c-1.32791,11.68777 -9.91591,16.56293 -21.79336,16.56293z" fill="#ff5d5d" stroke="none" stroke-width="2" stroke-linecap="butt"/><path d="M197.45389,139.53169c0,-9.12808 7.39976,-16.52784 16.52783,-16.52784c9.12808,0 16.52784,7.39977 16.52784,16.52784c0,9.12808 -7.39977,16.52784 -16.52784,16.52784c-9.12808,0 -16.52783,-7.39977 -16.52783,-16.52784z" fill="#000000" stroke="none" stroke-width="0" stroke-linecap="butt"/><path d="M244.84829,142.35842c1.25206,0.04455 45.95431,0.59617 46.2126,0.62024c-0.51423,3.48577 -1.14834,6.30024 -3.04203,9.21768c-4.24825,6.54493 -11.74714,6.52501 -19.77722,6.52501c-11.87745,0 -22.06545,-4.67515 -23.39336,-16.36292z" data-paper-data="{&quot;index&quot;:null}" fill="#ff5d5d" stroke="none" stroke-width="2" stroke-linecap="butt"/><path d="M268.015,156.05954c-9.12807,0 -16.52783,-7.39977 -16.52783,-16.52784c0,-9.12808 7.39977,-16.52784 16.52783,-16.52784c9.12807,0 16.52783,7.39977 16.52783,16.52784c0,9.12808 -7.39977,16.52784 -16.52783,16.52784z" data-paper-data="{&quot;index&quot;:null}" fill="#000000" stroke="none" stroke-width="0" stroke-linecap="butt"/><path d="M216.04651,140.09023c0,1.07005 -0.89543,1.9375 -2,1.9375c-1.10457,0 -2,-0.86745 -2,-1.9375c0,-1.07005 0.89543,-1.9375 2,-1.9375c1.10457,0 2,0.86745 2,1.9375z" fill="#ff0000" stroke="none" stroke-width="0" stroke-linecap="butt"/><path d="M269.79651,139.59023c0,1.07005 -0.89543,1.9375 -2,1.9375c-1.10457,0 -2,-0.86745 -2,-1.9375c0,-1.07005 0.89543,-1.9375 2,-1.9375c1.10457,0 2,0.86745 2,1.9375z" fill="#ff0000" stroke="none" stroke-width="0" stroke-linecap="butt"/><path d="M218.26872,159.07537c0,1.28867 -4.14137,2.33333 -9.25,2.33333c-5.10863,0 -9.25,-1.04467 -9.25,-2.33333c0,-1.28867 4.14137,-2.33334 9.25,-2.33334c5.10863,0 9.25,1.04467 9.25,2.33334z" fill="#000000" stroke="none" stroke-width="0" stroke-linecap="butt"/><path d="M221.60205,159.40869c0,1.28867 -1.45507,2.33333 -3.25,2.33333c-1.79493,0 -3.25,-1.04467 -3.25,-2.33333c0,-1.28867 1.45507,-2.33333 3.25,-2.33333c1.79493,0 3.25,1.04467 3.25,2.33333z" fill="#000000" stroke="none" stroke-width="0" stroke-linecap="butt"/><path d="M211.85205,172.09622c0,0.27614 -0.16789,0.5 -0.375,0.5c-0.20711,0 -0.375,-0.22386 -0.375,-0.5c0,-0.27614 0.16789,-0.5 0.375,-0.5c0.20711,0 0.375,0.22386 0.375,0.5z" fill="#000000" stroke="none" stroke-width="0" stroke-linecap="butt"/><path d="M221.13724,159.37731c0,0 4.88424,-1.48782 8.63465,-3.70607c1.6296,-0.96386 2.81335,-2.64506 3.67587,-3.4357c0.88784,-0.81386 2.23182,-4.33647 2.96007,-8.20063c0.84904,-4.50513 0.30085,-8.9433 0.30085,-8.9433l8.14285,-0.28572c0,0 0.33259,8.63836 2.45766,14.36477c0.8315,2.24064 2.69684,4.32117 3.4952,4.97823c2.49871,2.05645 11.04714,4.22843 11.04714,4.22843c0,0 -12.83349,-3.71429 -20.14286,-3.71429c-7.26175,0 -20.57143,4.71429 -20.57143,4.71429z" fill="url(#color-7)" stroke="none" stroke-width="0" stroke-linecap="butt"/><g><path d="M266.09701,186.28403c0.07299,0.95844 -11.80506,-1.32321 -23.59166,-1.4352c-11.71249,-0.11129 -24.48599,2.17929 -24.56037,1.20252c-0.29478,-3.8706 0.62072,-12.54513 13.59931,-12.41845c1.77343,0.01731 8.55346,2.2403 10.66885,1.97769c0.56666,-0.07035 10.83866,-3.15699 13.72459,-1.64694c7.63717,3.99606 9.98241,9.99796 10.15929,12.32039z" fill="#000000" stroke="none" stroke-width="0" stroke-linecap="butt"/><path d="M231.56028,174.02492c1.77343,0.01731 8.55346,2.24031 10.66885,1.9777c0.56666,-0.07035 10.83866,-3.15699 13.72459,-1.64695c2.49283,1.30434 4.42185,2.8224 5.89568,4.35645c-1.79039,0.72927 -3.48511,1.97848 -5.14626,3.03431c-3.05046,-0.05645 -5.25083,-3.43837 -8.4572,-3.43837c-1.96482,0.0636 -5.93215,5.63619 -7.3135,2.99175c-2.64065,-3.11466 -5.50565,-3.30739 -8.38011,-0.93712c-0.58705,0.52539 -1.32251,1.2905 -1.97654,1.66571c-0.34866,0.20002 -1.19179,-0.66092 -1.45236,-0.84101c-1.44108,-0.99599 -3.29727,-0.92114 -4.8728,-1.50389c-1.62456,0.05108 -4.44994,2.1777 -6.20536,3.7416c0.56812,-4.16767 3.31925,-9.49973 13.51501,-9.4002z" fill="url(#color-8)" stroke="none" stroke-width="0" stroke-linecap="butt"/><path d="M219.35124,182.50405c0.73385,-0.6909 5.05382,-3.39668 5.05382,-3.39668l6.12933,2.81902l5.18497,-3.66968l5.83188,3.75894l7.14044,-4.23428l6.87932,3.72847l5.67227,-2.41279" fill="none" stroke="#000000" stroke-width="1" stroke-linecap="round"/></g><path d="M253.92919,155.05941c5.40835,1.08167 10.92147,1.36843 16.43966,1.36843c4.66627,0 8.6758,-0.69015 13.21058,-1.32988l0.82184,-0.22446c0.04525,-0.01345 0.09317,-0.02068 0.14279,-0.02068c0.27614,0 0.5,0.22386 0.5,0.5c0,0.13807 -0.05597,0.26307 -0.14645,0.35356l-0.59063,0.59063l-0.10271,-0.10271c-0.88211,1.0708 -2.11106,2.15206 -3.15592,2.74445c-0.51612,0.29262 -2.90834,0.8824 -3.17644,1.41736c-1.14289,2.28056 -1.57691,5.32733 -2.08509,7.86023c-0.62608,6.27502 -1.37269,12.53885 -1.57109,18.84163c0.00013,2.11363 0.99718,7.80419 -0.49634,9.5489c-0.46641,0.54485 -3.13475,1.1071 -3.70407,0.44381c-0.57765,-0.67299 -0.1372,-3.52035 -0.08601,-4.38155c0.40422,-6.77565 0.13644,-13.62839 0.13644,-20.41605c0,-1.74595 0.73361,-8.04891 -1.40537,-8.93704c-0.32266,-0.13397 -0.71541,1.465 -0.75113,1.76389c-0.19398,1.62291 0.00645,3.40418 0.00645,5.03872c0,1.5781 -1.67939,3.62932 -2.58928,3.24359c-0.00075,1.02017 -0.167,2.15449 -0.167,2.85962c0,4.33473 0.86115,8.79107 0.24411,13.09606c-0.35354,1.90107 -0.83485,3.78988 -2.39589,5.0096c-0.39607,0.30947 -0.94819,1.1666 -1.65494,0.36064c-0.42149,-0.48066 -0.14645,-2.7011 -0.14645,-3.35355c0,-3.16244 0.10129,-6.35577 0.36745,-9.50624c0.60694,-5.68265 1.82665,-13.74712 -1.4498,-18.78674c-3.34815,-3.80643 0.0532,4.94384 -2.31615,6.13972c-1.04107,0.52546 -1.42286,-0.31515 -1.69758,-1.07926c-0.63833,-1.77551 -0.3502,-3.89306 -0.87535,-5.7235c-0.41706,-2.36025 -1.51238,-4.40699 -2.27178,-6.67076l-0.02566,-0.55187c0,0 0,-0.5 0.5,-0.5c0.3588,0 0.46013,0.25748 0.48874,0.4029c0.00202,0.00036 0.00307,0.00057 0.00307,0.00057z" data-paper-data="{&quot;index&quot;:null}" fill="#000000" stroke="none" stroke-width="0.5" stroke-linecap="butt"/><path d="M227.05531,155.80886c0.02862,-0.14542 0.12994,-0.4029 0.48874,-0.4029c0.5,0 0.5,0.5 0.5,0.5l-0.02566,0.55187c-0.7594,2.26377 -1.85472,4.31051 -2.27177,6.67076c-0.52516,1.83044 -0.23703,3.94799 -0.87536,5.7235c-0.27471,0.76412 -0.65651,1.60473 -1.69758,1.07926c-2.36936,-1.19589 1.032,-9.94616 -2.31615,-6.13972c-3.27644,5.03961 -2.05674,13.10409 -1.4498,18.78674c0.26615,3.15048 0.36745,6.3438 0.36745,9.50624c0,0.65246 0.27505,2.87289 -0.14644,3.35356c-0.70675,0.80596 -1.25887,-0.05116 -1.65494,-0.36064c-1.56104,-1.21972 -2.04235,-3.10853 -2.39589,-5.0096c-0.61704,-4.30499 0.24411,-8.76132 0.24411,-13.09606c0,-0.70513 -0.16625,-1.83945 -0.167,-2.85962c-0.90989,0.38573 -2.58928,-1.66549 -2.58928,-3.24359c0,-1.63455 0.20043,-3.41582 0.00645,-5.03872c-0.03573,-0.29889 -0.42847,-1.89786 -0.75114,-1.76389c-2.13898,0.88814 -1.40536,7.19109 -1.40536,8.93704c0,6.78766 -0.26779,13.6404 0.13644,20.41605c0.05119,0.8612 0.49165,3.70856 -0.08601,4.38155c-0.56932,0.66329 -3.23766,0.10104 -3.70407,-0.44381c-1.49352,-1.74471 -0.49647,-7.43526 -0.49634,-9.5489c-0.1984,-6.30278 -0.94501,-12.56661 -1.57109,-18.84163c-0.50818,-2.5329 -0.94221,-5.57967 -2.08509,-7.86023c-0.26809,-0.53496 -2.66031,-1.12474 -3.17644,-1.41736c-1.04486,-0.59239 -2.27382,-1.67365 -3.15592,-2.74445l-0.10271,0.10271l-0.59063,-0.59063c-0.09048,-0.09048 -0.14645,-0.21549 -0.14645,-0.35356c0,-0.27614 0.22386,-0.5 0.5,-0.5c0.04961,0 0.09754,0.00723 0.14279,0.02068l0.82183,0.22446c4.53477,0.63974 8.5443,1.32988 13.21058,1.32988c5.51819,0 11.03131,-0.28676 16.43967,-1.36843c0,0 0.00105,-0.00021 0.00307,-0.00057z" fill="#000000" stroke="none" stroke-width="0.5" stroke-linecap="butt"/></g></g></svg>