<svg version="1.1" xmlns="http://www.w3.org/2000/svg" xmlns:xlink="http://www.w3.org/1999/xlink" width="146.15038" height="277.65915" viewBox="0,0,146.15038,277.65915"><defs><linearGradient x1="239.99979" y1="175.91989" x2="239.99979" y2="307.91989" gradientUnits="userSpaceOnUse" id="color-1"><stop offset="0" stop-color="#000000"/><stop offset="1" stop-color="#ff80c9"/></linearGradient><linearGradient x1="213.09101" y1="36.86709" x2="226.11141" y2="135.01412" gradientUnits="userSpaceOnUse" id="color-2"><stop offset="0" stop-color="#000000"/><stop offset="1" stop-color="#8cefef"/></linearGradient><linearGradient x1="222.26618" y1="85.75172" x2="238.12587" y2="205.30097" gradientUnits="userSpaceOnUse" id="color-3"><stop offset="0" stop-color="#000000"/><stop offset="1" stop-color="#8cefef"/></linearGradient><linearGradient x1="239.794" y1="82.15345" x2="240.28038" y2="85.81982" gradientUnits="userSpaceOnUse" id="color-4"><stop offset="0" stop-color="#000000"/><stop offset="1" stop-color="#000000"/></linearGradient><linearGradient x1="183.64482" y1="59.85195" x2="200.75783" y2="188.84884" gradientUnits="userSpaceOnUse" id="color-5"><stop offset="0" stop-color="#000000"/><stop offset="1" stop-color="#ff80c9"/></linearGradient><linearGradient x1="190.90503" y1="88.30289" x2="191.34358" y2="91.60858" gradientUnits="userSpaceOnUse" id="color-6"><stop offset="0" stop-color="#000000"/><stop offset="1" stop-color="#ce52af"/></linearGradient><linearGradient x1="191.46992" y1="89.14462" x2="191.94549" y2="92.72949" gradientUnits="userSpaceOnUse" id="color-7"><stop offset="0" stop-color="#000000"/><stop offset="1" stop-color="#000000"/></linearGradient><linearGradient x1="194.78362" y1="88.12463" x2="195.27001" y2="91.79101" gradientUnits="userSpaceOnUse" id="color-8"><stop offset="0" stop-color="#000000"/><stop offset="1" stop-color="#000000"/></linearGradient><linearGradient x1="197.86132" y1="106.4822" x2="198.29986" y2="109.78789" gradientUnits="userSpaceOnUse" id="color-9"><stop offset="0" stop-color="#000000"/><stop offset="1" stop-color="#ce52af"/></linearGradient><linearGradient x1="197.23718" y1="106.61939" x2="197.94045" y2="111.92064" gradientUnits="userSpaceOnUse" id="color-10"><stop offset="0" stop-color="#000000"/><stop offset="1" stop-color="#000000"/></linearGradient><linearGradient x1="250.52486" y1="51.98825" x2="267.90088" y2="182.96778" gradientUnits="userSpaceOnUse" id="color-11"><stop offset="0" stop-color="#000000"/><stop offset="1" stop-color="#ff80c9"/></linearGradient><linearGradient x1="250.99287" y1="81.79235" x2="251.43815" y2="85.14883" gradientUnits="userSpaceOnUse" id="color-12"><stop offset="0" stop-color="#000000"/><stop offset="1" stop-color="#ce52af"/></linearGradient><linearGradient x1="250.66885" y1="82.76608" x2="251.15173" y2="86.40606" gradientUnits="userSpaceOnUse" id="color-13"><stop offset="0" stop-color="#000000"/><stop offset="1" stop-color="#000000"/></linearGradient><linearGradient x1="247.20264" y1="82.63662" x2="247.6965" y2="86.35934" gradientUnits="userSpaceOnUse" id="color-14"><stop offset="0" stop-color="#000000"/><stop offset="1" stop-color="#000000"/></linearGradient><linearGradient x1="249.05547" y1="101.44511" x2="249.50075" y2="104.8016" gradientUnits="userSpaceOnUse" id="color-15"><stop offset="0" stop-color="#000000"/><stop offset="1" stop-color="#ce52af"/></linearGradient><linearGradient x1="249.69391" y1="101.41564" x2="250.408" y2="106.79836" gradientUnits="userSpaceOnUse" id="color-16"><stop offset="0" stop-color="#000000"/><stop offset="1" stop-color="#000000"/></linearGradient><linearGradient x1="219.92665" y1="79.34396" x2="223.75434" y2="108.19685" gradientUnits="userSpaceOnUse" id="color-17"><stop offset="0" stop-color="#000000"/><stop offset="1" stop-color="#e3e854"/></linearGradient><linearGradient x1="230.75113" y1="147.11676" x2="232.79173" y2="166.00686" gradientUnits="userSpaceOnUse" id="color-18"><stop offset="0" stop-color="#000000" stop-opacity="0"/><stop offset="1" stop-color="#000000"/></linearGradient></defs><g transform="translate(-156.31513,-36.37323)"><g data-paper-data="{&quot;isPaintingLayer&quot;:true}" fill-rule="nonzero" stroke-linejoin="miter" stroke-miterlimit="10" stroke-dasharray="" stroke-dashoffset="0" style="mix-blend-mode: normal"><path d="M179.28348,314.03237v-267.22501h123.18203v267.22501z" fill-opacity="0.01" fill="#000000" stroke="none" stroke-width="0" stroke-linecap="butt"/><path d="M206.7498,307.91988l15.14285,-131.8421l37.78325,-0.15789l13.57389,132z" fill="url(#color-1)" stroke="none" stroke-width="0" stroke-linecap="butt"/><path d="M226.11141,135.01412c-28.87288,3.83033 -55.1937,-15.0355 -58.7892,-42.13806c-3.59548,-27.10254 16.89591,-52.17862 45.76878,-56.00896c28.87289,-3.83033 55.1937,15.03551 58.7892,42.13806c3.59549,27.10255 -16.8959,52.17861 -45.76879,56.00895z" fill="url(#color-2)" stroke="none" stroke-width="0" stroke-linecap="butt"/><g stroke="none" stroke-width="0" stroke-linecap="butt"><path d="M166.51692,153.97417c-4.37953,-33.01262 20.58027,-63.55684 55.74926,-68.22244c35.169,-4.6656 67.22942,18.3142 71.60894,51.3268c4.37953,33.01262 -20.58027,63.55684 -55.74926,68.22244c-35.169,4.6656 -67.22942,-18.3142 -71.60894,-51.3268z" fill="url(#color-3)"/><path d="M203.95141,98.86251c1.11254,1.46674 -1.79047,5.54183 -6.48405,9.10196c-4.6936,3.56013 -9.40039,5.25715 -10.51293,3.7904c-1.11254,-1.46674 1.79048,-5.54183 6.48405,-9.10197c4.6936,-3.56013 9.40039,-5.25714 10.51292,-3.79039z" fill="#d4f0f0"/><path d="M214.35863,95.73928c0.19368,1.45997 -0.83284,2.8005 -2.29281,2.99419c-1.45997,0.19368 -2.8005,-0.83284 -2.99419,-2.2928c-0.19368,-1.45997 0.83285,-2.80053 2.29281,-2.9942c1.45997,-0.19368 2.80051,0.83284 2.9942,2.29281z" fill="#d4f0f0"/></g><path d="M180.00591,152.61793c-1.70542,-12.85537 7.3334,-24.65923 20.18877,-26.36466c12.85537,-1.70542 24.65923,7.33341 26.36466,20.18879c1.70542,12.85537 -7.3334,24.65923 -20.18877,26.36466c-12.85537,1.70542 -24.65923,-7.33341 -26.36466,-20.18879z" fill="#ff0000" stroke="none" stroke-width="0" stroke-linecap="butt"/><path d="M260.15773,165.67114c-12.85537,1.70542 -24.65923,-7.33341 -26.36466,-20.18879c-1.70542,-12.85537 7.33341,-24.65923 20.18879,-26.36466c12.85537,-1.70542 24.65923,7.33341 26.36466,20.18879c1.70542,12.85537 -7.33341,24.65923 -20.18879,26.36466z" data-paper-data="{&quot;index&quot;:null}" fill="#ff0000" stroke="none" stroke-width="0" stroke-linecap="butt"/><path d="M250.83656,104.2817c-4.01667,-0.39757 -11.97705,0.71928 -11.97705,0.71928c0,0 6.93389,-2.83015 12.13503,-2.31536c5.20114,0.5148 12.53163,4.75682 12.53163,4.75682c0,0 -8.49203,-2.74527 -12.6896,-3.16076z" data-paper-data="{&quot;index&quot;:null}" fill="#000000" stroke="none" stroke-width="0" stroke-linecap="butt"/><path d="M179.91566,152.32733l-3.91066,-2.10398" fill="none" stroke="#000000" stroke-width="2" stroke-linecap="round"/><path d="M279.81388,138.87285l3.71639,-3.92282" fill="none" stroke="#000000" stroke-width="2" stroke-linecap="round"/><path d="M200.92607,102.31714c2.09638,2.42198 -0.23256,7.87221 -5.20182,12.17339c-4.96926,4.30117 -10.69708,5.82457 -12.79345,3.40256c-2.09638,-2.42198 0.23256,-7.87221 5.20183,-12.17337c4.96926,-4.30116 10.69708,-5.82457 12.79345,-3.40256z" fill="#ecfefe" stroke="none" stroke-width="0" stroke-linecap="butt"/><path d="M208.67448,98.70382c0.18157,1.36872 -0.69202,2.61371 -1.95124,2.78076c-1.25921,0.16705 -2.42722,-0.80709 -2.60879,-2.17581c-0.18157,-1.36872 0.69202,-2.61371 1.95125,-2.78076c1.25921,-0.16705 2.42722,0.80709 2.60879,2.17581z" fill="#ecfefe" stroke="none" stroke-width="0" stroke-linecap="butt"/><path d="M188.08887,117.45012c0,0 5.97088,-6.00661 10.85788,-7.85973c4.88701,-1.85312 12.31898,-0.92877 12.31898,-0.92877c0,0 -7.97623,0.99734 -11.75031,2.42845c-3.94406,1.49556 -11.42656,6.36006 -11.42656,6.36006z" fill="#000000" stroke="none" stroke-width="0" stroke-linecap="butt"/><path d="M239.33336,85.94544l1.40767,-3.91762" fill="url(#color-4)" stroke="none" stroke-width="2" stroke-linecap="round"/><path d="M198.12041,173.74018l-0.24443,3.22683" fill="none" stroke="#000000" stroke-width="2" stroke-linecap="round"/><path d="M216.73286,174.63354l-0.6137,-4.62613" fill="none" stroke="#000000" stroke-width="2" stroke-linecap="round"/><path d="M248.10591,165.2596l0.28329,4.66996" fill="none" stroke="#000000" stroke-width="2" stroke-linecap="round"/><path d="M269.34047,168.61284l-1.32806,-4.57941" fill="none" stroke="#000000" stroke-width="2" stroke-linecap="round"/><path d="M181.08949,157.66241c0.42234,-0.04226 44.38035,-5.87787 45.50245,-6.13148c0.02433,10.60532 -8.39861,19.93996 -19.90878,21.46692c-4.51057,0.59838 -11.82577,-0.57553 -15.98159,-3.32961c-6.89553,-4.56966 -9.61208,-12.00584 -9.61208,-12.00584z" data-paper-data="{&quot;index&quot;:null}" fill="#ff4242" stroke="none" stroke-width="2" stroke-linecap="butt"/><path d="M186.97369,151.4155c-1.20044,-9.0488 5.16191,-17.35744 14.21071,-18.55786c9.0488,-1.20044 17.35744,5.16192 18.55787,14.21071c1.20044,9.0488 -5.16193,17.35743 -14.21071,18.55787c-9.0488,1.20044 -17.35742,-5.16192 -18.55786,-14.21072z" fill="#000000" stroke="none" stroke-width="0" stroke-linecap="butt"/><path d="M274.55457,158.34237c-3.294,3.74238 -10.05008,6.78303 -14.56065,7.38142c-11.51016,1.52697 -22.07562,-5.28864 -24.81733,-15.53346c1.14941,-0.04775 45.10848,-5.87542 45.52723,-5.94473c0,0 -0.68371,7.88728 -6.14925,14.09678z" data-paper-data="{&quot;index&quot;:null}" fill="#ff4242" stroke="none" stroke-width="2" stroke-linecap="butt"/><path d="M259.09556,158.5203c-9.04879,1.20043 -17.35743,-5.16192 -18.55786,-14.21072c-1.20044,-9.0488 5.16192,-17.35744 14.21071,-18.55786c9.04879,-1.20043 17.35743,5.16192 18.55786,14.21072c1.20044,9.0488 -5.16192,17.35744 -14.21071,18.55786z" data-paper-data="{&quot;index&quot;:null}" fill="#000000" stroke="none" stroke-width="0" stroke-linecap="butt"/><g stroke="none" stroke-width="0"><path d="M223.04274,89.00475c0.02339,0.17631 -16.86675,44.28137 -18.34187,45.10119c-0.10196,0.05666 -19.29688,51.91926 -29.3478,58.04015c-3.18747,1.94113 -10.44152,-19.73294 -11.2091,-22.39271c-6.67676,-23.13612 -7.68141,-62.21119 -7.81439,-68.23974c-0.20055,-9.09172 1.73427,-18.26755 2.81525,-21.29019c4.17815,-11.68304 12.0679,-18.72222 19.81063,-19.74939c10.20664,-1.35404 20.58888,7.4945 29.64418,15.38785c7.13866,6.22263 14.22491,11.49814 14.4431,13.14286z" fill="url(#color-5)" stroke-linecap="butt"/><path d="M193.86097,88.01856c0.03907,0.29452 2.14516,2.97148 0.24324,3.22378c-1.90192,0.25232 -6.71517,-1.40223 -6.75424,-1.69675c-0.03907,-0.29452 1.47107,-0.73783 3.373,-0.99014c1.90192,-0.25232 3.09893,-0.83142 3.13801,-0.5369z" data-paper-data="{&quot;index&quot;:null}" fill="url(#color-6)" stroke-linecap="butt"/><path d="M196.58096,92.11453l-9.7465,-2.35497" fill="url(#color-7)" stroke-linecap="round"/><path d="M196.21703,91.66537l-2.38044,-3.41509" fill="url(#color-8)" stroke-linecap="round"/><path d="M198.05823,109.59154c-1.90193,0.25232 -3.47541,0.21811 -3.51449,-0.07644c-0.03907,-0.29452 4.17629,-3.14681 6.0782,-3.39913c1.90193,-0.25232 0.56667,2.88116 0.60574,3.1757c0.03907,0.29452 -1.26753,0.04755 -3.16945,0.29988z" data-paper-data="{&quot;index&quot;:null}" fill="url(#color-9)" stroke-linecap="butt"/><path d="M193.0773,110.81922l8.79533,-4.81478l-1.8827,5.64431" data-paper-data="{&quot;index&quot;:null}" fill="url(#color-10)" stroke-linecap="round"/></g><path d="M206.31423,149.59742c0.15045,1.13409 -0.67864,2.17962 -1.85183,2.33525c-1.17319,0.15564 -2.24622,-0.63755 -2.39666,-1.77164c-0.15045,-1.13409 0.67864,-2.17962 1.85184,-2.33525c1.17319,-0.15564 2.24622,0.63755 2.39666,1.77164z" fill="#ff0000" stroke="none" stroke-width="0" stroke-linecap="butt"/><path d="M259.46701,142.4692c0.15045,1.13409 -0.67864,2.17962 -1.85184,2.33525c-1.17319,0.15564 -2.2462,-0.63754 -2.39665,-1.77164c-0.15045,-1.13409 0.67864,-2.17962 1.85183,-2.33525c1.17319,-0.15564 2.24622,0.63755 2.39666,1.77164z" fill="#ff0000" stroke="none" stroke-width="0" stroke-linecap="butt"/><g data-paper-data="{&quot;index&quot;:null}" stroke="none" stroke-width="0"><path d="M220.15977,90.92437c-0.22154,-1.67 5.23163,-8.70454 10.48654,-16.68153c6.66579,-10.11872 14.36127,-21.52267 24.56791,-22.8767c7.74274,-1.02718 17.20695,3.80189 24.30906,14.15951c1.83745,2.67972 6.11569,11.1684 8.31089,20.13565c1.45559,5.94602 10.75252,44.52363 10.38726,68.96317c-0.04199,2.80962 -1.34856,25.96727 -4.93494,24.90144c-11.3088,-3.36084 -43.46102,-49.16958 -43.57431,-49.19835c-1.6391,-0.41627 -29.52866,-39.2242 -29.55243,-39.40321z" fill="url(#color-11)" stroke-linecap="butt"/><path d="M251.23496,81.99215c1.90193,-0.25232 3.47591,-0.21442 3.51559,0.08464c0.03967,0.29905 -4.1711,3.18597 -6.07301,3.43829c-1.90193,0.25232 -0.57259,-2.92582 -0.61226,-3.22488c-0.03967,-0.29905 1.26777,-0.04573 3.16968,-0.29805z" data-paper-data="{&quot;index&quot;:null}" fill="url(#color-12)" stroke-linecap="butt"/><path d="M246.51627,87.021l8.78802,-4.86988" fill="url(#color-13)" stroke-linecap="round"/><path d="M248.14967,82.51099l-1.40019,3.97397" fill="url(#color-14)" stroke-linecap="round"/><path d="M246.54459,105.0843c-0.03967,-0.29905 -2.1517,-3.02064 -0.24976,-3.27295c1.90193,-0.25232 6.71977,1.43684 6.75944,1.7359c0.03967,0.29905 -1.46999,0.74603 -3.37192,0.99834c-1.90192,0.25232 -3.09809,0.83778 -3.13777,0.53872z" data-paper-data="{&quot;index&quot;:null}" fill="url(#color-15)" stroke-linecap="butt"/><path d="M248.35851,107.07025l-3.30007,-5.03966l9.75379,2.41009" data-paper-data="{&quot;index&quot;:null}" fill="url(#color-16)" stroke-linecap="round"/></g><path d="M247.53142,191.87187c0.4616,3.47953 -21.34732,6.37276 -21.80892,2.89322c-0.4616,-3.47953 4.04629,-6.94794 10.06865,-7.74688c6.02237,-0.79894 11.27866,1.37413 11.74026,4.85365z" fill="#000000" stroke="none" stroke-width="0" stroke-linecap="butt"/><path d="M204.70758,174.97243l-3.0491,-0.17193" fill="none" stroke="#000000" stroke-width="0.5" stroke-linecap="round"/><path d="M202.1108,176.03747l1.45375,0.09536" fill="none" stroke="#000000" stroke-width="0.5" stroke-linecap="round"/><path d="M263.93888,166.7544l2.03826,-1.11103" fill="none" stroke="#000000" stroke-width="0.5" stroke-linecap="round"/><path d="M265.31459,168.25317l1.21217,-1.00144" fill="none" stroke="#000000" stroke-width="0.5" stroke-linecap="round"/><path d="M157.52945,150.49671c-0.38435,-1.07539 -1.56197,-4.35635 -0.249,-5.30137c0.15965,-0.11492 0.33981,-0.13002 0.52987,-0.08935l-0.0379,-0.2857c-0.05447,-0.41061 0.23424,-0.78765 0.64485,-0.84212c0.41061,-0.05447 0.78765,0.23423 0.84211,0.64484l0.11058,0.83355c0.03817,-0.01002 0.07909,-0.01807 0.12293,-0.02389c0.2891,-0.03835 0.48069,0.05062 0.60691,0.17372c0.03343,0.00034 0.06837,0.0025 0.1049,0.00665c0.34323,0.03899 0.51041,0.21809 0.59092,0.39998c2.40384,0.25189 2.97209,-4.35563 5.48769,-2.5571c1.43124,1.02328 1.12421,3.09796 1.11121,4.56571c-0.025,2.82186 -0.95797,5.57438 -1.69012,8.30978c-0.50748,2.11312 0.08352,4.24048 0.36862,6.38502c0.0957,0.71993 -0.20439,1.61314 0.27144,2.16182c0.37152,0.42839 1.0309,-0.53634 1.39924,-0.96746c3.09696,-3.62488 3.18823,-10.34574 3.5858,-14.87639c-0.11767,-5.17205 -0.38894,-12.40867 2.17309,-17.0129c2.22399,-3.99672 6.77837,-6.78809 8.84638,-1.09552c1.31071,3.02615 2.06384,6.55113 2.98068,9.71326c0.19755,0.68132 -0.07658,1.31497 0.51509,1.84893c0.22628,0.20421 0.44611,-0.4202 0.62742,-0.66521c0.4392,-0.59349 0.57416,-1.36133 0.89958,-2.02405c1.1518,-2.34566 2.54749,-5.01006 5.03013,-6.03986c5.37071,-0.7125 1.73765,8.76109 3.51005,11.95623c0.18766,0.3383 0.43894,-0.67144 0.77402,-0.86481c0.44989,-0.25964 2.01039,-0.89417 2.54888,-0.43341c0.38707,0.3312 0.42792,0.9734 0.37918,1.48049c-0.13288,1.38247 -0.8503,3.85078 -1.33008,5.24349c-0.51765,4.36631 -3.43715,8.12465 -4.99912,12.11993c-1.66641,4.26241 -3.02716,8.69451 -5.66211,12.52136c-2.13294,4.82172 -3.87221,9.58343 -7.1108,13.7999c-0.67558,0.8796 -1.16189,2.26434 -2.05937,2.92718c-2.02517,1.49568 -5.89928,0.96912 -7.01713,-1.21194c-4.25361,-6.30803 -6.12749,-13.48878 -8.58483,-20.68087c-0.89323,-2.40803 -1.35809,-5.00743 -1.68873,-7.63577c-1.19313,-4.16592 -2.17722,-8.41278 -3.63238,-12.48413zM158.25096,148.31119c-0.00792,-0.05422 -0.01578,-0.10846 -0.02365,-0.16269c-0.12147,-0.44772 -0.20463,-0.86152 -0.17992,-1.27481c-0.01248,-0.09064 -0.02489,-0.18129 -0.03725,-0.27194c-0.07723,0.47371 0.04086,1.0763 0.24081,1.70943z" fill="#000000" stroke="none" stroke-width="0.5" stroke-linecap="butt"/><path d="M299.53314,148.40706c0.36609,2.62364 0.59506,5.25432 0.36058,7.81195c-0.49711,7.58405 -0.43388,15.005 -2.89564,22.20392c-0.51051,2.39708 -4.1133,3.91555 -6.45841,2.99964c-1.03926,-0.40589 -1.86979,-1.61597 -2.75135,-2.28898c-4.22596,-3.2262 -7.1466,-7.36973 -10.46298,-11.46852c-3.5416,-3.00745 -6.01092,-6.93143 -8.73102,-10.61192c-2.54965,-3.44982 -6.3481,-6.31696 -7.98629,-10.39727c-0.82631,-1.21945 -2.16249,-3.41533 -2.65122,-4.71534c-0.17928,-0.47683 -0.30729,-1.10747 -0.01996,-1.52815c0.39973,-0.58523 2.0717,-0.37952 2.57371,-0.24616c0.3739,0.09932 0.87977,1.00861 0.97272,0.63308c0.878,-3.54674 -5.09948,-11.74537 0.27122,-12.45787c2.66526,0.34687 4.70739,2.5552 6.43095,4.51941c0.48697,0.55495 0.81745,1.26105 1.3962,1.71948c0.23893,0.18926 0.61396,0.73475 0.77917,0.4786c0.43198,-0.66975 0.00212,-1.21002 0.01519,-1.91928c0.06064,-3.29181 -0.13137,-6.8912 0.34499,-10.15444c0.51222,-6.03488 5.63688,-4.52754 8.82603,-1.24895c3.67389,3.77694 5.29883,10.834 6.53377,15.85783c1.56512,4.2703 3.4056,10.73486 7.34057,13.42688c0.46799,0.32017 1.35612,1.07961 1.60309,0.56918c0.31631,-0.65375 -0.20629,-1.43783 -0.30161,-2.15782c-0.2839,-2.1447 -0.26805,-4.35256 -1.30894,-6.26029c-1.42004,-2.44988 -3.03842,-4.86394 -3.7983,-7.58167c-0.39525,-1.41359 -1.23259,-3.33646 -0.11766,-4.69752c1.95964,-2.39223 3.70959,1.90777 5.9646,1.03781c0.03029,-0.19659 0.145,-0.41309 0.46619,-0.54022c0.03418,-0.01353 0.06737,-0.02473 0.09953,-0.03377c0.08976,-0.15173 0.25153,-0.28757 0.54063,-0.32592c0.04383,-0.00582 0.08544,-0.00871 0.1249,-0.00899l-0.11058,-0.83355c-0.05447,-0.41061 0.23422,-0.78764 0.64484,-0.84211c0.41062,-0.05447 0.78765,0.23424 0.84213,0.64486l0.0379,0.2857c0.17288,-0.08881 0.35074,-0.1212 0.53482,-0.0519c1.51397,0.57 1.23255,4.04451 1.14188,5.18291c-0.34327,4.30995 -0.18602,8.6665 -0.25169,12.99941zM298.30519,131.77274c0.01171,0.09074 0.02336,0.18149 0.03495,0.27224c0.13161,0.39255 0.15924,0.81371 0.1587,1.27763c0.00656,0.0544 0.01308,0.10881 0.01958,0.16322c0.02795,-0.66338 -0.01515,-1.2759 -0.21323,-1.7131z" data-paper-data="{&quot;index&quot;:null}" fill="#000000" stroke="none" stroke-width="0.5" stroke-linecap="butt"/><path d="M242.30022,91.0049c1.41506,10.66664 -5.82556,15.50444 -18.42263,17.17559c-12.59704,1.67115 -21.08182,-0.97795 -22.49687,-11.64457c-1.41506,-10.66664 5.94885,-15.5208 18.5459,-17.19195c12.59704,-1.67115 20.95854,0.99431 22.3736,11.66094z" fill="url(#color-17)" stroke="none" stroke-width="0" stroke-linecap="butt"/><path d="M236.9789,194.96544c0.22971,-1.75739 4.61976,-2.88979 6.59546,-3.34319l0.20759,-0.14068c0.03204,-0.0227 0.0699,-0.03816 0.11152,-0.04368c0.13688,-0.01816 0.26255,0.07809 0.28071,0.21495c0.00786,0.05929 -0.00573,0.11647 -0.0348,0.16372l-0.19182,0.31793c-0.48625,1.88166 -0.41559,3.42043 -0.0143,5.32026c0.93654,3.04894 2.14621,4.15678 4.4952,5.64595l0.00397,-0.01568l0.32057,0.0814c0.09879,0.02265 0.17784,0.10449 0.19197,0.21086c0.01816,0.13688 -0.07809,0.26256 -0.21496,0.28071l-0.23246,0.03084c-0.46116,0.14085 -0.93171,0.24365 -1.39824,0.37399c-2.30675,0.30227 -5.40874,1.79217 -7.77175,1.43319l0.00518,0.03911l-0.24783,0.03288c-0.13688,0.01816 -0.26255,-0.07809 -0.28071,-0.21495c-0.01564,-0.11794 0.05365,-0.22757 0.16068,-0.26725l0.23474,-0.09291l0.00097,0.00243l0.00459,-0.00456c2.0679,-0.67732 1.18454,-3.9391 0.48689,-5.36505c-0.55501,-1.62413 -2.9167,-5.4012 -5.08527,-5.00135c0,0 -0.24784,0.03288 -0.28072,-0.21494c-0.03288,-0.24783 0.21496,-0.28071 0.21496,-0.28071c0.84169,-0.08548 1.6757,0.262 2.43778,0.83675z" fill="#000000" stroke="none" stroke-width="0.5" stroke-linecap="butt"/><path d="M246.2786,198.56723c0.05612,0.42307 -0.22116,0.80884 -0.61934,0.86166c-0.39818,0.05282 -0.76645,-0.24731 -0.82258,-0.67037c-0.05612,-0.42307 0.22116,-0.80884 0.61934,-0.86166c0.39818,-0.05282 0.76645,0.24731 0.82258,0.67037z" fill="#000000" stroke="none" stroke-width="0" stroke-linecap="butt"/><path d="M217.89179,169.29279c0,0 6.44103,-7.43056 7.99696,-11.41947c1.18795,-3.04554 0.53621,-10.45687 0.53621,-10.45687c0,0 7.45069,-1.6846 6.78978,-1.38598c-0.82634,0.37337 1.29873,6.44272 4.87217,11.50227c3.2371,4.58333 9.21044,7.74532 9.21044,7.74532c0,0 -10.0276,-3.17561 -14.84035,-2.51853c-4.98318,0.68035 -14.56522,6.53326 -14.56522,6.53326z" fill="url(#color-18)" stroke="none" stroke-width="0" stroke-linecap="butt"/></g></g></svg>