<svg version="1.1" xmlns="http://www.w3.org/2000/svg" xmlns:xlink="http://www.w3.org/1999/xlink" width="257.44229" height="436.56803" viewBox="0,0,257.44229,436.56803"><defs><linearGradient x1="192.09995" y1="113.87743" x2="211.66541" y2="138.7329" gradientUnits="userSpaceOnUse" id="color-1"><stop offset="0" stop-color="#000000"/><stop offset="1" stop-color="#7ebb78"/></linearGradient><linearGradient x1="197.39639" y1="128.35709" x2="218.4397" y2="146.27695" gradientUnits="userSpaceOnUse" id="color-2"><stop offset="0" stop-color="#000000"/><stop offset="1" stop-color="#7ebb78"/></linearGradient><linearGradient x1="202.86497" y1="134.13807" x2="227.71448" y2="145.38351" gradientUnits="userSpaceOnUse" id="color-3"><stop offset="0" stop-color="#000000"/><stop offset="1" stop-color="#7ebb78"/></linearGradient><linearGradient x1="264.22604" y1="70.35835" x2="278.57093" y2="208.48102" gradientUnits="userSpaceOnUse" id="color-4"><stop offset="0" stop-color="#000000"/><stop offset="1" stop-color="#f5d7d7"/></linearGradient><linearGradient x1="263.86935" y1="70.09082" x2="278.21424" y2="208.2135" gradientUnits="userSpaceOnUse" id="color-5"><stop offset="0" stop-color="#000000"/><stop offset="1" stop-color="#c88989"/></linearGradient><linearGradient x1="243.1496" y1="94.50785" x2="243.1496" y2="316.59794" gradientUnits="userSpaceOnUse" id="color-6"><stop offset="0" stop-color="#000000"/><stop offset="1" stop-color="#d93838"/></linearGradient><linearGradient x1="235.83005" y1="95.66409" x2="235.83005" y2="142.90102" gradientUnits="userSpaceOnUse" id="color-7"><stop offset="0" stop-color="#000000"/><stop offset="1" stop-color="#f5d7d7"/></linearGradient><linearGradient x1="248.60249" y1="95.66411" x2="248.60249" y2="142.49396" gradientUnits="userSpaceOnUse" id="color-8"><stop offset="0" stop-color="#000000"/><stop offset="1" stop-color="#f5b4b4"/></linearGradient><linearGradient x1="218.69271" y1="95.66411" x2="218.69271" y2="141.11135" gradientUnits="userSpaceOnUse" id="color-9"><stop offset="0" stop-color="#000000"/><stop offset="1" stop-color="#f5b4b4"/></linearGradient><linearGradient x1="242.80014" y1="-64.66296" x2="224.79285" y2="4.83959" gradientUnits="userSpaceOnUse" id="color-10"><stop offset="0" stop-color="#000000"/><stop offset="1" stop-color="#7ebb78"/></linearGradient><linearGradient x1="228.50056" y1="-62.49482" x2="248.13584" y2="6.56545" gradientUnits="userSpaceOnUse" id="color-11"><stop offset="0" stop-color="#000000"/><stop offset="1" stop-color="#7ebb78"/></linearGradient><linearGradient x1="238.35665" y1="-5.64156" x2="239.85537" y2="121.91719" gradientUnits="userSpaceOnUse" id="color-12"><stop offset="0" stop-color="#000000"/><stop offset="1" stop-color="#fa4242"/></linearGradient><linearGradient x1="260.82671" y1="-33.78149" x2="319.20068" y2="138.89561" gradientUnits="userSpaceOnUse" id="color-13"><stop offset="0" stop-color="#000000"/><stop offset="1" stop-color="#7ebb78"/></linearGradient><linearGradient x1="254.38668" y1="8.5715" x2="256.0155" y2="147.20418" gradientUnits="userSpaceOnUse" id="color-14"><stop offset="0" stop-color="#000000"/><stop offset="1" stop-color="#7ebb78"/></linearGradient><linearGradient x1="195.65033" y1="-17.0585" x2="170.00733" y2="71.03476" gradientUnits="userSpaceOnUse" id="color-15"><stop offset="0" stop-color="#000000"/><stop offset="1" stop-color="#7ebb78"/></linearGradient><linearGradient x1="185.13438" y1="-3.05559" x2="186.48317" y2="111.74107" gradientUnits="userSpaceOnUse" id="color-16"><stop offset="0" stop-color="#000000"/><stop offset="1" stop-color="#7ebb78"/></linearGradient><linearGradient x1="236.6894" y1="64.7351" x2="236.84606" y2="78.06752" gradientUnits="userSpaceOnUse" id="color-17"><stop offset="0" stop-color="#5c1818" stop-opacity="0"/><stop offset="1" stop-color="#5c1818"/></linearGradient><radialGradient cx="212.00209" cy="58.00059" r="3.17582" gradientUnits="userSpaceOnUse" id="color-18"><stop offset="0" stop-color="#ff0000"/><stop offset="1" stop-color="#ff0000" stop-opacity="0"/></radialGradient></defs><g transform="translate(-121.33512,119.89801)"><g data-paper-data="{&quot;isPaintingLayer&quot;:true}" fill-rule="nonzero" stroke-linejoin="miter" stroke-miterlimit="10" stroke-dasharray="" stroke-dashoffset="0" style="mix-blend-mode: normal"><g stroke="none" stroke-width="0" stroke-linecap="butt"><path d="M211.66541,138.7329c-7.45135,7.58785 -28.87785,9.81171 -29.96856,8.4261c-0.64262,-0.81637 2.17745,-24.90523 10.4031,-33.28157c9.3361,-9.50712 21.28438,-11.65007 26.68723,-4.78643c5.40285,6.86365 2.21433,20.13478 -7.12177,29.6419z" fill="url(#color-1)"/><path d="M218.4397,146.27695c-5.3388,9.19354 -23.76466,17.22462 -24.93776,16.22564c-0.69116,-0.58857 -1.99912,-23.99661 3.89445,-34.14549c6.6892,-11.51896 16.82257,-16.84542 22.63352,-11.89699c5.81095,4.94843 5.09898,18.29788 -1.59021,29.81684z" fill="url(#color-2)"/><path d="M227.71448,145.38351c-3.37314,10.10888 -20.07086,22.64094 -21.45614,22.01405c-0.81617,-0.36936 -7.11703,-22.10018 -3.39337,-33.2595c4.22635,-12.66581 13.21523,-20.4161 20.07723,-17.31075c6.862,3.10535 8.99863,15.89039 4.77228,28.55621z" fill="url(#color-3)"/></g><g stroke="none" stroke-linecap="butt"><g data-paper-data="{&quot;index&quot;:null}" stroke-width="0"><path d="M295.80447,115.31117c1.10895,10.67772 11.30464,68.70208 26.61125,108.16651c14.50819,37.40586 54.48862,75.62699 53.8389,75.70124c-24.67511,2.81966 -145.57315,-116.51227 -149.53438,-154.65379c-3.96123,-38.14152 12.83068,-71.34712 37.50579,-74.16678c24.67511,-2.81966 27.6172,6.8113 31.57843,44.95282z" fill="url(#color-4)"/><g fill="url(#color-5)"><path d="M322.05904,223.21017c0.4109,1.05942 0.84224,2.11949 1.29251,3.17933c-2.21765,2.63072 -4.4417,5.25611 -6.67328,7.87582c-3.96462,4.65418 -7.88209,9.34594 -11.95799,13.89998c-11.96011,-11.51813 -23.967,-24.01732 -34.86598,-36.39607c4.44027,-4.31357 9.08368,-8.44707 13.58894,-12.67983c5.41229,-5.08493 11.63865,-9.45134 17.45919,-14.06459c2.48937,-1.97302 4.98072,-3.94353 7.47304,-5.91282c3.86625,15.11803 8.47952,30.68079 13.68357,44.09819z"/><path d="M375.89794,298.9114c-8.04321,0.91911 -26.31039,-11.14074 -47.41881,-29.13687c3.59367,-3.61433 7.19275,-7.22316 10.79643,-10.82769c0.58115,-0.58128 1.16186,-1.16269 1.74201,-1.74442c16.50266,23.51196 35.32785,41.65784 34.88037,41.70898z"/><path d="M295.44779,115.04366c0.19663,1.8933 0.67895,5.27517 1.42479,9.77821c-5.24469,2.21501 -10.45962,4.5056 -15.69129,6.7476c-6.86144,2.94042 -13.29196,7.05812 -19.80283,10.70796c-6.54043,3.66641 -13.01159,7.43207 -19.46772,11.2448c-3.42163,2.02067 -6.84108,4.02473 -10.28509,5.98637c-2.97825,-5.88464 -4.82665,-11.05833 -5.26208,-15.25098c-1.50404,-14.48196 -0.01621,-28.25233 3.75901,-39.91804c3.94104,-0.84427 7.86317,-1.7739 11.80712,-2.70826c7.28469,-1.72581 14.44433,-4.05349 21.62875,-6.15736c7.24246,-1.90626 14.50546,-3.74917 21.72328,-5.74661c2.08797,-0.57782 4.17389,-1.16594 6.26069,-1.75154c1.61985,6.74475 2.71673,15.62273 3.90538,27.06785z"/></g></g><path d="M351.83358,263.9653c1.62637,2.16514 3.42196,3.94786 5.22165,6.10611c4.10612,4.92419 7.7848,10.11869 11.97574,14.97145c2.36649,2.74019 7.28611,6.65552 8.36539,10.22742c0.69232,2.29124 2.13984,5.08443 0.88936,7.12536c-0.91431,1.49227 -3.52462,0.28369 -5.25027,-0.00777c-3.68818,-0.62293 -6.76706,-3.59429 -9.69261,-5.68396c-5.40614,-3.93412 -10.95847,-7.79077 -16.33333,-11.66667c-2.59206,-1.86917 -4.61046,-4.72162 -7.11248,-6.75267c-4.71479,-3.82731 -10.54237,-6.21153 -14.86019,-10.50766c-2.35024,-2.33844 -4.44724,-4.94194 -6.50766,-7.52685c-0.85883,-1.07745 -2.31385,-1.83559 -2.65099,-3.17157c-0.57524,-2.27948 -1.65229,-5.45321 0.07087,-7.05248c0.67692,-0.62826 6.57287,1.46729 8.88378,2.28797c-0.8133,-1.03081 -1.5066,-2.16566 -2.01289,-3.36842c-1.81296,-4.30687 -1.67701,-14.75799 4.94626,-15.40862c6.47181,-0.63575 7.15309,5.88994 7.84422,10.43558c0.99405,6.53795 2.53474,12.97734 8.55529,16.75766c0.52162,0.32753 1.11222,0.41033 1.73375,0.37532c0.22697,-0.4188 0.62838,-0.81155 1.31,-1.0842c1.30895,-0.52358 2.17502,-0.01376 2.68146,0.53044c0.75426,0.11544 1.91866,0.56547 2.07008,2.23108c0.04276,0.47038 -0.01142,0.85996 -0.12745,1.1825z" fill="#000000" stroke-width="0.5"/></g><g stroke="none" stroke-width="0" stroke-linecap="butt"><path d="M197.89961,316.59792l20.60794,-221.82442l51.41931,-0.26565l18.47274,222.09009z" fill="url(#color-6)"/><path d="M269.84736,94.57992l18.8075,222.09009l-36.00904,-0.00001c0.2516,-0.51191 0.45843,-0.9315 0.52253,-1.10891c0.73517,-2.03948 3.58291,-5.91647 1.42471,-8.02902c-0.43195,-0.42281 -1.82757,0.31333 -1.80626,-0.28528c0.00339,-0.0952 1.38508,-1.88452 1.52842,-2.27686c0.96722,-2.64755 1.00442,-5.28826 1.00408,-8.05478c-0.01105,-1.27685 0.58006,-4.58576 -0.85882,-5.30613c-1.05355,-0.52745 -2.39916,0.61016 -3.20536,0.90728c-0.82425,0.30377 -2.0675,0.08619 -2.97952,0.33412c-0.83655,0.22742 -2.5576,0.90364 -3.21398,-0.13808c-0.5765,-0.91495 0.06419,-4.57446 0.05892,-5.74234c-0.0061,-0.33854 -0.00239,-2.19281 -0.19387,-2.35609c-1.16161,-0.99054 -2.35724,0.6596 -3.26914,0.95292c-1.57825,0.50767 -3.27645,0.52882 -4.91036,1.07732c-0.38037,0.12769 -4.20301,1.0477 -4.27375,0.50333c-0.06813,-0.52424 2.83552,-3.83775 3.33746,-4.50786c4.20645,-5.61581 7.30115,-12.67376 7.27853,-19.66176c-0.00513,-1.58073 0.84848,-6.24762 -1.80493,-5.38063c-1.59793,0.52212 -4.18823,4.06547 -4.90827,5.47125c-0.10839,0.21162 -1.41836,2.81749 -1.55212,2.47825c-0.28901,-0.733 0.13328,-2.80176 0.13328,-3.6627c0,-3.66389 -0.03453,-7.32976 0.01455,-10.99334c0.0143,-1.06712 -0.31795,-2.84778 0.02663,-3.84563c0.56368,-1.63234 2.60981,-3.25264 3.5109,-4.78529c0.70198,-1.19633 1.51738,-2.26852 2.40781,-3.26784c0.67775,-0.59501 1.31007,-1.25027 1.90498,-1.95034c1.68002,-1.59285 3.50555,-3.0726 5.2799,-4.70191c2.09038,-1.91951 4.16416,-2.44197 4.16152,-5.4407c-0.04986,-1.53876 -0.87514,-2.20098 -2.04852,-2.45749c0.05976,-2.41725 0.60368,-5.90067 -0.33714,-8.11616c-0.97443,-2.29464 -3.71198,-2.86653 -5.51027,-4.46273c-1.50979,-1.34012 -1.28752,-3.44927 -1.19577,-5.22903c0.05678,-1.21832 0.31252,-2.48264 0.64956,-3.75988c0.05679,-0.02976 0.11268,-0.06052 0.16763,-0.09231c1.85611,-1.07406 0.23286,-3.33214 2.20798,-3.66734c5.21167,-4.94795 12.49543,-9.73022 10.66769,-17.59104c-1.79411,-0.70208 -2.21176,-2.12426 -4.27497,-2.7401c-3.18827,-0.95165 -6.60859,-0.89498 -9.89518,-1.96861c-0.28195,-0.09211 -2.63011,-0.44362 -2.71105,-0.5506c-0.25048,-0.33107 0.51778,-2.04924 0.68221,-2.35765c1.55065,-2.98627 3.0503,-5.90658 4.54356,-8.92318c1.6843,-3.40252 4.24572,-6.3492 3.86741,-10.37692c-0.11803,-1.18109 0.11749,-2.49283 -1.25291,-3.09587c-0.39642,-0.17444 -2.48423,0.29121 -2.78014,-0.15578c-0.80143,-1.2106 0.69933,-4.21177 1.11335,-5.33113c1.08906,-2.94441 1.1022,-5.9856 0.97638,-9.0707c-0.0141,-0.34495 -0.05355,-2.16492 -0.23758,-2.3388c-0.92059,-0.86984 -3.95119,0.6019 -4.79508,-0.81677c-0.41052,-0.69013 0.89615,-2.81713 1.05046,-3.49256c0.75291,-3.29544 0.98079,-6.58303 0.92835,-9.97875c-0.03956,-2.51076 -0.56171,-4.69023 -1.74818,-6.92709c-0.41747,-0.78705 -1.97536,-2.31277 -1.92853,-3.21776c0.03212,-0.6207 0.58854,-1.10719 0.78219,-1.69887c0.83693,-2.55708 1.18103,-5.12231 2.18646,-7.65046c0.7888,-1.98344 1.18309,-4.03964 1.42616,-6.1244z" fill="#000000"/></g><g stroke="none" stroke-width="0" stroke-linecap="butt"><path d="M278.85008,108.45435c0,16.7447 -38.58415,36.10426 -38.87849,36.10426c-2.40888,0 -7.33187,-2.70742 -9.87832,-3.13086c-16.56616,-2.75472 -35.67652,-14.9043 -35.67652,-29.65824c0,-17.02181 22.92467,-16.00606 41.00482,-16.00606c18.08015,0 43.42852,-4.33093 43.42852,12.69089z" fill="url(#color-7)"/><g><path d="M240.95023,142.49396c-0.00055,-0.01953 -0.0011,-0.0391 -0.00167,-0.05863c-0.20513,-7.22939 -0.36693,-14.44813 -0.497,-21.69166c-0.12957,-7.21579 -0.03692,-14.50101 -0.03692,-21.72656c0,-1.09719 -0.00275,-2.19473 -0.00537,-3.29208c6.15369,-0.08163 11.79902,-0.20587 16.40736,0.57222c-0.01576,3.74812 0.00581,7.50339 0.00581,11.24952c0,7.25192 0,14.50386 0,21.7558c0,1.96413 0,3.92823 0,5.89237c-4.46651,3.71912 -9.91398,6.33659 -15.87222,7.29904z" fill="url(#color-8)"/><path d="M212.00027,132.22923c0,-4.50943 0,-9.01889 0,-13.52833c0,-7.24388 0,-14.48774 0,-21.73162c3.55799,-1.10312 8.04011,-1.31171 13.11787,-1.30504c-0.03296,3.29078 -0.07712,6.58145 -0.12734,9.87989c-0.11025,7.24212 -0.08218,14.54222 -0.0137,21.78782c0.04415,4.6708 0.22117,9.2147 0.40804,13.77937c-5.17876,-1.81982 -9.75932,-4.93065 -13.38487,-8.8821z" fill="url(#color-9)"/></g><path d="M268.56705,110.52633c0,17.02181 -14.85347,32.37469 -32.93362,32.37469c-18.08014,0 -32.54038,-15.35288 -32.54038,-32.37469c0,-17.02181 14.24836,-14.76286 32.32851,-14.76286c18.08015,0 33.14549,-2.25895 33.14549,14.76286z" fill="none"/></g><g stroke="none" stroke-width="0" stroke-linecap="butt"><path d="M220.61986,-81.16156c12.52518,7.21239 53.01492,19.6583 62.11582,40.60915c15.79138,36.35273 -13.39145,75.56216 -33.25147,72.14163c-0.02383,-0.00409 12.7669,-18.03989 2.59996,-33.93786c-7.72758,-12.08358 -37.37995,-19.81777 -45.62751,-35.57246c-16.94499,-32.36873 -4.03864,-78.80014 -3.34421,-81.48042c1.32197,-5.10245 4.28983,30.62889 17.50739,38.23997z" data-paper-data="{&quot;index&quot;:null}" fill="url(#color-10)"/><path d="M266.8912,-118.15072c0.75721,2.66322 14.75093,48.77857 -1.4289,81.53649c-7.87512,15.94411 -37.33759,24.37287 -44.77914,36.63466c-9.79059,16.13245 3.42035,33.86274 3.39662,33.86743c-19.77416,3.8862 -49.87017,-34.62675 -34.93725,-71.34047c8.60616,-21.15889 48.79232,-34.55267 61.14458,-42.05734c13.03509,-7.91952 15.16259,-43.71073 16.60409,-38.64073z" fill="url(#color-11)"/></g><g stroke="none" stroke-width="0" stroke-linecap="butt"><path d="M303.42373,42.24595c0.27291,23.22687 -20.38148,65.52371 -48.99929,76.82669c-4.48381,1.77094 -9.16311,2.78103 -13.98805,2.83772c-35.6199,0.41851 -65.68811,-51.28283 -66.00375,-78.14888c-0.31566,-26.86605 28.30411,-48.98455 63.92401,-49.40305c35.61991,-0.41851 64.75144,21.02147 65.0671,47.88752z" fill="url(#color-12)"/><path d="M303.42178,42.0793c0.27291,23.22687 -20.38148,65.52372 -48.99929,76.82669c-4.48381,1.77094 -9.1631,2.78103 -13.98804,2.83772c-4.94281,0.05807 -15.01217,-0.72194 -21.69235,-4.89969c-0.92887,-0.58091 -5.65543,-2.26836 -9.17532,-5.54093c-5.34998,-4.97406 -10.18967,-12.27294 -12.62993,-14.36962c1.19027,0.05554 5.64298,-0.60928 6.17545,-1.15043c0.31386,-0.31901 11.26266,3.66772 11.81352,3.66124c3.34612,-0.03932 1.19006,-0.25009 4.53562,-0.32541c1.86977,-0.35623 6.85458,4.71934 7.69264,3.18425c1.74832,-3.20244 4.36802,-7.40085 6.85756,-10.16157c1.3668,-1.51567 3.30546,-2.4173 4.33497,-4.16375c2.68464,-3.74781 4.47339,-6.84981 2.32902,-11.38119c-0.49385,-1.04355 -2.73285,-2.9809 -2.8722,-3.89169c-0.10811,-0.70669 1.38263,-2.44078 1.37151,-3.58447c-0.02958,-1.66128 0.09929,-3.60868 -0.66453,-5.14697c-0.27131,-0.5464 -0.81284,-0.98492 -0.91173,-1.5869c-0.42363,-2.57881 2.04877,-6.93848 0.19935,-9.08073c-0.7495,-0.86816 -3.15939,-1.78363 -4.22933,-2.3012c1.1503,-2.06565 3.05062,-3.8891 1.83061,-6.43406c-0.63248,-1.31937 -2.52855,-1.37895 -3.06174,-2.46861c-0.46094,-0.94198 1.65034,-3.29426 1.98114,-4.12006c0.65088,-1.62483 0.45845,-3.45691 0.41094,-5.15842c-0.10868,-1.62588 -1.58201,-2.93221 -1.36261,-4.60606c0.18854,-1.43824 2.20473,-2.41634 3.06532,-3.46547c2.75047,-3.35304 3.04598,-7.1122 -0.08777,-10.27864c-0.89103,-1.38092 -1.36735,-0.78076 -2.6239,-1.45161c-1.22439,-0.65368 -2.82612,-1.97431 -3.83868,-2.95486c-1.47403,-1.42744 -1.10239,-5.34468 0.12029,-6.87196c0.90703,-1.13297 3.1688,-0.72172 4.39694,-0.73615c2.27444,-0.27315 1.46981,-2.57919 1.44703,-4.51731c-0.01442,-1.22744 -0.02884,-2.45489 -0.04327,-3.68233c0.84636,-0.0348 1.69704,-0.05734 2.55176,-0.06738c35.61991,-0.41851 64.75144,21.02147 65.06709,47.88752z" fill="#000000"/></g><path d="M188.52672,57.21742c-0.15235,-12.96711 10.23606,-23.60254 23.20317,-23.75489c12.96711,-0.15235 23.60254,10.23605 23.75489,23.20316c0.15235,12.96711 -10.23605,23.60254 -23.20316,23.75489c-12.96711,0.15235 -23.60254,-10.23606 -23.75489,-23.20317z" fill="#ff0000" stroke="none" stroke-width="2" stroke-linecap="butt"/><path d="M188.80433,60.6635c1.2525,0.02984 45.95814,0.05624 46.21671,0.07728c-0.47324,3.49158 -1.07424,6.3133 -2.93353,9.25279c-4.17106,6.59439 -11.62603,10.37659 -19.65556,10.47094c-11.87663,0.13954 -22.1625,-8.12962 -23.62762,-19.80098z" data-paper-data="{&quot;index&quot;:null}" fill="#ff5d5d" stroke="none" stroke-width="2" stroke-linecap="butt"/><path d="M200.93309,57.79601c-0.07047,-5.99806 4.73477,-10.91756 10.73282,-10.98803c5.99806,-0.07047 10.91755,4.73478 10.98802,10.73283c0.07047,5.99806 -4.73478,10.91754 -10.73283,10.98802c-5.99806,0.07047 -10.91754,-4.73477 -10.988,-10.73282z" fill="#000000" stroke="none" stroke-width="0" stroke-linecap="butt"/><path d="M213.95672,57.80699c0.0116,0.98616 -0.84242,1.79573 -1.90746,1.80825c-1.06505,0.01251 -1.93785,-0.77677 -1.94941,-1.76293c-0.0116,-0.98616 0.84242,-1.79573 1.90746,-1.80825c1.06505,-0.01251 1.93785,0.77677 1.94941,1.76293z" fill="#ff0000" stroke="none" stroke-width="0" stroke-linecap="butt"/><g><g><path d="M308.03645,-5.7667c0.67168,1.98696 25.23833,71.96099 36.99023,86.27681c14.48479,17.64496 33.3147,34.05384 33.23434,34.08693c-0.43203,0.17775 -23.0676,4.46266 -40.00272,0.06364c-17.95843,-4.66485 -30.40927,-18.21928 -35.86506,-25.08151c-22.56762,-28.38521 -36.08297,-58.40803 -53.63372,-68.96905c-2.81373,-1.69315 -10.27828,-4.90532 -14.57924,-0.58084c-7.91277,7.95607 -25.44058,9.45707 -25.60964,8.95696c-7.96495,-23.56124 15.81099,-47.77354 43.70888,-59.25127c27.89789,-11.47773 47.79201,0.93709 55.75695,24.49834z" fill="url(#color-13)" stroke="none" stroke-width="0" stroke-linecap="butt"/><path d="M230.69521,-1.68304c0,0 29.48691,-16.48679 46.34148,-1.43535c8.71588,7.78343 33.52707,62.03096 51.95934,92.07375c8.22651,13.40841 22.61183,17.54896 22.61183,17.54896" fill="none" stroke="#000000" stroke-width="0.5" stroke-linecap="round"/></g><g><path d="M294.3329,41.54171c0.01874,1.59522 1.63746,58.02657 9.0407,71.43924c9.12485,16.53175 23.24625,33.39368 23.1503,33.39481c-0.51577,0.00606 -25.79919,-3.24103 -42.08391,-11.06208c-17.26873,-8.29362 -25.67035,-21.36058 -29.03252,-27.7406c-13.90741,-26.39068 -18.32293,-62.3094 -33.12279,-74.6701c-2.37272,-1.98166 -9.20024,-4.40391 -15.21893,-2.53213c-11.07307,3.44363 -22.7808,13.68101 -22.78551,13.27953c-0.22226,-18.91599 26.59703,-34.56764 59.90254,-34.95895c33.3055,-0.39131 49.92789,13.93434 50.15014,32.85033z" fill="url(#color-14)" stroke="none" stroke-width="0" stroke-linecap="butt"/><path d="M211.59737,22.9623c0,0 36.70958,-3.50144 49.22365,11.84959c6.47132,7.93837 13.78885,53.28783 22.77448,79.70546c4.01037,11.79046 17.70347,18.72028 17.70347,18.72028" fill="none" stroke="#000000" stroke-width="0.5" stroke-linecap="round"/></g></g><g><g data-paper-data="{&quot;index&quot;:null}"><path d="M201.35365,-14.89079c18.6156,7.07544 30.87011,22.55541 27.37121,34.57546c-0.07427,0.25513 -4.81652,-8.67427 -10.41458,-13.14018c-3.04278,-2.42741 -7.30533,-2.28167 -8.98997,-1.50393c-10.50805,4.85111 -25.58208,21.48191 -38.09212,35.46496c-3.02434,3.38045 -7.00338,14.68471 -18.17107,16.43563c-10.53135,1.65116 -31.15919,-10.23697 -31.44747,-10.34655c-0.04209,-0.01599 14.22041,5.5052 23.39874,1.73468c0.93385,-0.38363 12.45309,-6.96806 16.22265,-15.92058c6.38664,-15.16796 10.63217,-32.69242 10.81772,-33.32986c3.49891,-12.02004 10.68931,-21.04507 29.30491,-13.96963z" fill="url(#color-15)" stroke="none" stroke-width="0" stroke-linecap="butt"/><path d="M147.09327,52.84548c0,0 8.91838,-1.61384 13.27148,-8.31248c9.75356,-15.00896 21.94833,-42.43547 26.99498,-46.17271c9.75906,-7.22696 29.72968,2.52994 29.72968,2.52994" fill="none" stroke="#000000" stroke-width="0.5" stroke-linecap="round"/></g><g data-paper-data="{&quot;index&quot;:null}"><path d="M192.55877,-3.14283c24.23304,-0.28472 44.027,12.18235 44.21103,27.84602c0.0039,0.33247 -8.6992,-7.92858 -16.8165,-10.57702c-4.41212,-1.43954 -9.33408,0.69047 -11.02374,2.37436c-10.53928,10.50326 -22.22493,36.87967 -31.85868,58.98132c-2.329,5.34314 -2.95928,20.39054 -15.3687,27.57202c-11.70232,6.77226 -39.99168,2.35454 -40.36694,2.35895c-0.05479,0.00063 18.54715,-0.10023 27.91839,-8.72864c0.95347,-0.87789 12.05738,-13.8728 13.27805,-26.07402c2.06809,-20.6721 0.80136,-43.11531 0.7916,-43.94598c-0.18405,-15.66365 5.00246,-29.52228 29.23551,-29.807z" fill="url(#color-16)" stroke="none" stroke-width="0" stroke-linecap="butt"/><path d="M153.28945,101.00646c0,0 9.83349,-5.98708 12.5351,-15.8211c6.05323,-22.03403 10.54711,-59.71026 15.10916,-66.40029c8.82199,-12.93701 35.58792,-10.70925 35.58792,-10.70925" fill="none" stroke="#000000" stroke-width="0.5" stroke-linecap="round"/></g></g><path d="M222.84703,78.23199c0,0 5.65484,-3.66057 7.82609,-6.18216c2.3142,-2.68764 4.15766,-9.45971 4.15766,-9.45971c0,0 4.50864,0.70963 4.51731,1.44703c0.02433,2.07112 4.33477,14.28339 4.33477,14.28339c0,0 -2.58546,-2.33338 -4.19623,-2.34021c-3.5835,-0.01523 -16.63959,2.25168 -16.63959,2.25168z" fill="url(#color-17)" stroke="none" stroke-width="0" stroke-linecap="butt"/><path d="M242.98488,75.66189c0.0465,3.95777 -1.85578,7.18896 -4.24883,7.21708c-2.39308,0.02812 -4.37074,-3.15748 -4.41724,-7.11526c-0.0465,-3.95777 1.85579,-7.18896 4.24884,-7.21708c2.39308,-0.02812 4.37073,3.15748 4.41722,7.11525z" fill="#000000" stroke="none" stroke-width="0" stroke-linecap="butt"/><path d="M240.59102,70.52298c0.01839,1.56471 -0.63823,2.84102 -1.46662,2.85076c-0.82839,0.00972 -1.5148,-1.2508 -1.53319,-2.8155c-0.01839,-1.56471 0.63823,-2.84103 1.46662,-2.85077c0.82839,-0.00972 1.5148,1.25081 1.53319,2.81551z" fill="#000000" stroke="none" stroke-width="0" stroke-linecap="butt"/><path d="M243.07542,87.99282c0.02116,0.20587 -0.05166,0.33528 -0.14427,0.41626c0.14314,0.05181 0.35817,0.18627 0.32016,0.52235c-0.05618,0.49684 -0.55302,0.44065 -0.55302,0.44065c-0.45034,-0.05108 -1.08153,-0.0127 -1.72278,0.01083c-0.01092,0.01641 -0.02192,0.03282 -0.033,0.04922c0.1337,1.93503 -0.36432,4.3006 -1.28494,6.21548c0.00664,0.03156 0.01031,0.06422 0.01071,0.09769c0.0007,0.05937 -0.009,0.11647 -0.02736,0.16953l-0.15724,0.49081l-0.19159,-0.06137c-0.13482,0.23558 -0.27651,0.46141 -0.42459,0.67551c-0.12452,0.21354 -0.2583,0.42131 -0.38839,0.62277l0.11233,0.08221l-0.4887,0.66779c-0.08953,0.12515 -0.2354,0.20745 -0.40106,0.20938c-0.06878,0.00081 -0.13451,-0.01233 -0.19445,-0.03674c-1.72819,2.52971 -3.4176,5.53234 -5.73469,7.49359c-2.21997,1.87905 -4.24121,1.33153 -5.27815,-0.79608c-0.76182,0.55045 -1.54042,0.89457 -2.12876,0.57603c0.04976,0.75787 0.12648,1.50788 0.24163,2.24501l0.02732,0.17641c0,0 0.07653,0.49411 -0.41759,0.57064c-0.49412,0.07653 -0.57063,-0.41758 -0.57063,-0.41758l-0.02731,-0.17641c-0.25707,-1.67338 -0.32494,-3.40712 -0.32864,-5.14887c-0.21394,-0.05459 -0.3733,-0.24735 -0.37601,-0.47865c-0.00163,-0.13806 0.05287,-0.26371 0.14229,-0.35524l0.23853,-0.2442c0.01111,-1.10909 0.03773,-2.21703 0.04769,-3.31041c-0.04604,-0.86488 -0.03807,-1.7054 -0.07308,-2.15117c-0.36268,-4.62073 -0.37639,-9.231 -0.43084,-13.86471c-0.00395,-0.337 -0.00793,-0.67397 -0.01188,-1.01097c-0.01542,-0.151 -0.02935,-0.30252 -0.04056,-0.45326c-0.14547,0.09743 -0.29252,0.19224 -0.44105,0.28422l0.06224,0.06945l-0.59086,0.52939c-0.2574,0.36964 -0.43524,0.75714 -0.47609,1.16953c0,0 -0.0313,0.23922 -0.2166,0.36355c-0.26194,1.31905 -0.60037,3.61879 -1.34974,4.03802c-2.37138,1.32666 -1.21346,-6.57668 -3.77662,-3.04527c-0.17889,0.24646 -0.3623,0.49335 -0.49772,0.76612c-0.27056,0.54489 -0.30081,0.83039 -0.4122,1.36603c-0.1314,0.63189 -0.22576,1.27271 -0.27981,1.91584c-0.55654,6.54635 0.50533,13.53571 -1.10447,19.92416c-0.66525,0.37044 -1.93905,1.11559 -2.50229,-0.04238c-0.34247,-0.70409 -0.08781,-2.43845 -0.09718,-3.23502c-0.02791,-2.37661 -0.57015,-4.86988 -0.46175,-7.20815c0.01621,-0.34976 -0.02752,0.7075 -0.1298,1.04236c-0.29197,0.95614 -0.55484,1.91782 -0.82005,2.88167c-0.61311,1.77271 -2.85479,2.49822 -2.96061,0.0019c-0.19977,-4.7128 1.39282,-9.8159 0.27766,-14.41584c-0.4583,-1.31175 -1.08351,-3.82638 -2.29422,-4.65615c-1.1316,-0.77554 -2.84333,-0.6315 -4.12092,-1.24753c-1.85522,-0.89458 -3.81497,-2.64113 -5.12827,-4.40867l-0.04522,0.0463l-0.50583,-0.49409c-0.09154,-0.08941 -0.14896,-0.21376 -0.15058,-0.35183c-0.00325,-0.27613 0.21798,-0.50258 0.49409,-0.50583l0.49998,-0.00587c1.6828,-0.00493 3.35148,0.8685 4.93335,1.39855c6.50067,2.18225 11.72773,1.6686 18.06349,-0.30011c1.79193,-0.92756 3.7518,-1.72389 5.74667,-2.09642c1.21817,-0.22749 2.9344,-0.21412 2.39465,1.48613c-0.1823,0.57427 -0.5035,1.01265 -0.9018,1.37065c0.17086,0.07786 0.29052,0.24917 0.29288,0.44935c0.00044,0.03715 -0.00318,0.0734 -0.01047,0.10832l-0.15495,0.82509l-0.10002,-0.01878c-0.03949,1.70742 -0.40763,3.55609 -0.78884,5.33994c-0.07565,2.55621 -0.09924,5.10769 -0.09476,7.66056c0.07158,1.37946 0.22198,2.90099 0.02941,4.26763c0.00184,0.16607 0.00373,0.33217 0.00568,0.49828l0.00782,0.66662c0.00325,0.27613 -0.21798,0.50258 -0.49409,0.50583c0.00919,0.7817 0.01838,1.5634 0.02755,2.3451c0.26352,-0.29055 0.53134,-0.59055 0.80345,-0.89669c0.106,-0.2951 0.29365,-0.57594 0.62098,-0.86116c0.00161,-0.00732 0.00326,-0.01468 0.00495,-0.02207c0.63601,-1.31732 1.70781,-2.65428 2.83338,-3.75047c-0.09053,-0.73587 -0.05864,-1.45103 0.54311,-2.02733c0.29052,-0.27824 1.03743,-0.19845 1.697,-0.13167c0.29318,-0.21911 0.59491,-0.41918 0.90493,-0.59597c0.26511,-0.33009 0.52698,-0.64873 0.78221,-0.95389c0.01572,-0.14601 0.0306,-0.27948 0.05096,-0.38797c0.19272,-0.81017 0.2362,-1.6475 1.23256,-1.90049c0.06966,-0.01769 0.28379,0.04424 0.5237,0.10918c0.49329,-0.58729 1.01683,-1.15062 1.5962,-1.56395c0.01488,-0.01062 0.03001,-0.02117 0.04539,-0.03161c0.07764,-0.11487 0.17466,-0.22169 0.3004,-0.31559c0.27565,-0.20583 0.54606,-0.23941 0.80692,-0.17332c0.88632,-0.24376 1.92549,-0.24811 2.60668,0.19428c0.44801,-0.2864 0.94253,-0.32095 1.44165,0.28318c0.03924,0.04752 0.06833,0.10088 0.08815,0.1594c0.0309,-0.0031 0.06177,-0.00622 0.09262,-0.0094l0.8365,-0.08596c0,0 0.49739,-0.05111 0.54849,0.44626zM239.32695,89.48827c-0.13943,0.38182 -0.42965,0.84105 -0.74461,1.27937c0.30446,-0.37414 0.72507,-0.90713 1.09757,-1.39233c-0.08004,-0.00666 -0.15797,-0.01503 -0.2333,-0.0254c-0.00525,0.00607 -0.01053,0.01216 -0.01583,0.01829zM228.32228,102.25162c-0.04895,0.05 -0.09805,0.09985 -0.1473,0.14953c0.01945,-0.01649 0.03892,-0.03297 0.05837,-0.04948c0.02965,-0.03335 0.05931,-0.0667 0.08894,-0.10008zM225.44616,104.68613c-0.08831,0.02608 -0.17638,0.04205 -0.26337,0.04537c-0.20336,0.27433 -0.36912,0.48594 -0.20512,0.3479c0.15587,-0.13118 0.31204,-0.26226 0.46849,-0.39327zM236.01796,91.47231c-0.05633,0.00575 -0.11436,0.01573 -0.17388,0.02965c-0.20761,0.17226 -0.41366,0.34566 -0.61826,0.52042c0.03986,0.07077 0.06304,0.15227 0.06405,0.23923c0.0011,0.09342 -0.0235,0.18116 -0.06722,0.25649l-0.09325,0.16776c0.12185,-0.16311 0.24305,-0.32701 0.36359,-0.49174c0.17715,-0.24207 0.35252,-0.48169 0.52499,-0.72182zM230.38072,98.2798c0.16881,-0.23923 0.33256,-0.47967 0.49083,-0.72041c0.04666,-0.07085 0.09329,-0.14173 0.13987,-0.21262c-0.09418,0.00778 -0.18639,0.01045 -0.27529,0.00689c-0.45324,0.46698 -0.93064,0.91343 -1.42674,1.34095c-0.18451,0.38755 -0.35898,0.77754 -0.52245,1.16936c0.44296,-0.40405 0.85542,-0.82849 1.19185,-1.17147c0.13482,-0.13706 0.26879,-0.27462 0.40196,-0.41271zM224.57988,103.72413c0.11203,-0.49325 0.39344,-1.07831 0.64095,-1.53051c-0.07585,-0.04345 -0.14957,-0.09435 -0.22088,-0.15317c-0.03252,-0.02682 -0.05701,-0.06093 -0.07423,-0.10149c-0.06532,0.04426 -0.13116,0.08784 -0.19749,0.13071c-0.02743,0.20214 -0.17586,0.36644 -0.37067,0.41645l-0.07298,0.05874c-0.00352,0.64213 0.00036,1.28377 0.01826,1.92207c0.07763,-0.2388 0.17358,-0.4916 0.27704,-0.74281zM236.01576,94.7621c-0.26745,0.21856 -0.53983,0.42975 -0.81592,0.63133c-1.82808,2.46745 -3.7573,4.83461 -5.80358,7.1512c0.44285,-0.24708 0.85804,-0.57222 1.28721,-0.93898c2.192,-1.87001 4.37933,-4.02768 5.33229,-6.84356zM239.77321,90.93502c-0.28209,0.32932 -0.51506,0.58704 -0.62263,0.71557c-0.53195,0.63394 -1.13484,1.28532 -1.78662,1.91264c-0.0848,0.41446 -0.17421,0.76379 -0.22392,0.94217c-0.91117,3.27085 -3.32361,5.74113 -5.80749,7.86098c-0.7253,0.618 -2.18664,1.44923 -3.27765,1.53908c-0.24983,0.24243 -0.52626,0.50494 -0.81624,0.75872c0.14737,0.45859 0.33156,0.89446 0.58946,1.22337c0.79891,1.01886 2.62548,-0.02171 3.30141,-0.59461c2.4218,-2.05261 4.14207,-5.31409 5.9606,-7.87828c0.4034,-0.49693 0.80699,-0.99372 1.21079,-1.49029l0.02114,-0.01131l-0.00555,-0.00541l0.11769,-0.12048c0.03766,-0.07421 0.07395,-0.15079 0.10762,-0.23041c0.61478,-1.45394 1.06881,-3.02845 1.23134,-4.62172zM230.05331,93.82375c0.02547,-0.02496 0.05104,-0.04978 0.07667,-0.07448c-0.01842,0.00599 -0.03146,0.01341 -0.03855,0.02246c-0.0133,0.01704 -0.026,0.03437 -0.03813,0.05203zM231.12993,98.94459c-0.09378,0.12993 -0.18884,0.25899 -0.28512,0.38721c0.18513,-0.22105 0.36935,-0.44272 0.55259,-0.66508c-0.08897,0.09292 -0.17813,0.18554 -0.26747,0.27787zM226.70443,102.29515c-0.03093,0.00884 -0.06179,0.01715 -0.09256,0.02494c0.00966,0.04194 0.01951,0.08383 0.02953,0.12567c0.01814,-0.01433 0.03604,-0.02847 0.0537,-0.04238c0.00251,-0.03535 0.0056,-0.07141 0.00932,-0.10823zM238.8603,87.77781c0.17437,0.00281 0.34609,0.02028 0.51945,0.0494c-0.14506,-0.05553 -0.32275,-0.06832 -0.51945,-0.0494z" fill="#000000" stroke="none" stroke-width="0.5" stroke-linecap="butt"/><path d="M220.08621,89.5497c0.00649,0.55224 -0.39862,1.00476 -0.90485,1.0107c-0.50623,0.00595 -0.92185,-0.43692 -0.92835,-0.98916c-0.00649,-0.55224 0.39863,-1.00476 0.90486,-1.01071c0.50623,-0.00595 0.92184,0.43692 0.92834,0.98916z" fill="#000000" stroke="none" stroke-width="0" stroke-linecap="butt"/><path d="M241.88987,86.21856c0.00649,0.55224 -0.62247,1.00737 -1.40483,1.01657c-0.78235,0.00919 -1.42183,-0.43103 -1.42832,-0.98328c-0.00649,-0.55224 0.62247,-1.00737 1.40483,-1.01657c0.78235,-0.00919 1.42183,0.43104 1.42832,0.98329z" fill="#000000" stroke="none" stroke-width="0" stroke-linecap="butt"/><path d="M244.03779,84.60989c0.02756,2.34706 -1.36773,4.26636 -3.11651,4.28691c-1.74878,0.02054 -3.1888,-1.86545 -3.21639,-4.2125c-0.02756,-2.34706 1.36773,-4.26635 3.11651,-4.2869c1.74878,-0.02054 3.1888,1.86544 3.21639,4.2125z" fill="#000000" stroke="none" stroke-width="0" stroke-linecap="butt"/><path d="M240.18222,82.73838c0.01514,1.28857 -0.97988,2.34501 -2.22244,2.35961c-1.24254,0.0146 -2.26212,-1.01817 -2.27725,-2.30674c-0.01514,-1.28857 0.97987,-2.34501 2.22244,-2.3596c1.24254,-0.0146 2.26213,1.01816 2.27726,2.30673z" fill="#000000" stroke="none" stroke-width="0" stroke-linecap="butt"/><path d="M232.47571,93.57966c0.01676,1.42665 -0.97695,2.59499 -2.21949,2.60958c-1.24254,0.0146 -2.26343,-1.13008 -2.2802,-2.55672c-0.01676,-1.42665 0.97695,-2.59499 2.21949,-2.60959c1.24254,-0.0146 2.26343,1.13009 2.2802,2.55672z" fill="#000000" stroke="none" stroke-width="0" stroke-linecap="butt"/><path d="M241.24773,88.30957c0.02217,1.88685 -1.48944,3.4344 -3.3763,3.45658c-1.88685,0.02217 -3.4344,-1.48944 -3.45658,-3.3763c-0.02217,-1.88685 1.48944,-3.4344 3.3763,-3.45658c1.88685,-0.02217 3.4344,1.48944 3.45658,3.3763z" fill="#000000" stroke="none" stroke-width="0" stroke-linecap="butt"/><path d="M234.43935,90.47305c0.00972,0.82839 -0.57929,1.50691 -1.31561,1.51556c-0.73633,0.00866 -1.34113,-0.65586 -1.35086,-1.48423c-0.00972,-0.82839 0.57929,-1.50691 1.31561,-1.51556c0.73633,-0.00866 1.34113,0.65586 1.35086,1.48423z" fill="#000000" stroke="none" stroke-width="0" stroke-linecap="butt"/><path d="M232.56012,86.57819c0.00811,0.69031 -0.28377,1.25341 -0.65194,1.25776c-0.36817,0.00432 -0.67321,-0.55178 -0.68131,-1.24208c-0.00811,-0.69031 0.28377,-1.25341 0.65194,-1.25776c0.36817,-0.00432 0.67321,0.55178 0.68131,1.24207z" fill="#000000" stroke="none" stroke-width="0" stroke-linecap="butt"/><path d="M221.89104,100.62118c0.01839,1.56471 -1.04862,2.84585 -2.38323,2.86152c-1.3346,0.01569 -2.4314,-1.24004 -2.44979,-2.80475c-0.01839,-1.56471 1.04861,-2.84585 2.38322,-2.86153c1.3346,-0.01569 2.4314,1.24004 2.4498,2.80475z" fill="#000000" stroke="none" stroke-width="0" stroke-linecap="butt"/><path d="M208.34204,96.53007c0.01243,1.05847 -0.83555,1.92662 -1.89402,1.93906c-1.05847,0.01243 -1.92662,-0.83555 -1.93906,-1.89402c-0.01243,-1.05847 0.83555,-1.92662 1.89402,-1.93906c1.05847,-0.01243 1.92662,0.83555 1.93906,1.89402z" fill="#000000" stroke="none" stroke-width="0" stroke-linecap="butt"/><path d="M202.87634,99.48174c-0.00305,-0.25989 0.21833,-0.47318 0.49443,-0.47643c0.27613,-0.00325 0.50244,0.2048 0.50549,0.46468c0.00305,0.25989 -0.21833,0.47319 -0.49443,0.47643c-0.27613,0.00325 -0.50244,-0.2048 -0.50549,-0.46469z" fill="#000000" stroke="none" stroke-width="0" stroke-linecap="butt"/><path d="M207.52932,98.28974c0.01191,1.01244 -0.53807,1.83979 -1.22838,1.84788c-0.69031,0.00811 -1.25956,-0.80606 -1.27146,-1.81851c-0.01191,-1.01244 0.53807,-1.83979 1.22838,-1.84789c0.69031,-0.00811 1.25956,0.80607 1.27146,1.81852z" fill="#000000" stroke="none" stroke-width="0" stroke-linecap="butt"/><path d="M204.85306,97.48778c0.00866,0.73633 -0.65586,1.34113 -1.48423,1.35086c-0.82839,0.00972 -1.50691,-0.57929 -1.51556,-1.31561c-0.00866,-0.73633 0.65586,-1.34113 1.48423,-1.35086c0.82839,-0.00972 1.50691,0.57929 1.51556,1.31561z" fill="#000000" stroke="none" stroke-width="0" stroke-linecap="butt"/><path d="M220.06371,101.14269c0.01191,1.01244 -0.94844,1.84459 -2.14498,1.85865c-1.19653,0.01406 -2.17617,-0.7953 -2.18805,-1.80774c-0.01191,-1.01244 0.94844,-1.8446 2.14498,-1.85866c1.19653,-0.01406 2.17616,0.79531 2.18805,1.80775z" fill="#000000" stroke="none" stroke-width="0" stroke-linecap="butt"/><path d="M215.08666,58.00059c0,1.75396 -1.38101,3.17583 -3.08457,3.17583c-1.70356,0 -3.08457,-1.42187 -3.08457,-3.17583c0,-1.75396 1.38101,-3.17582 3.08457,-3.17582c1.70356,0 3.08457,1.42186 3.08457,3.17582z" fill="url(#color-18)" stroke="none" stroke-width="0" stroke-linecap="butt"/></g></g></svg>