<svg version="1.1" xmlns="http://www.w3.org/2000/svg" xmlns:xlink="http://www.w3.org/1999/xlink" width="210.74445" height="267.22501" viewBox="0,0,210.74445,267.22501"><defs><radialGradient cx="242.75" cy="92.87162" r="42.87838" gradientUnits="userSpaceOnUse" id="color-1"><stop offset="0" stop-color="#ffffff"/><stop offset="1" stop-color="#ffffff" stop-opacity="0"/></radialGradient></defs><g transform="translate(-133.63847,-46.38751)"><g data-paper-data="{&quot;isPaintingLayer&quot;:true}" fill-rule="nonzero" stroke-linejoin="miter" stroke-miterlimit="10" stroke-dasharray="" stroke-dashoffset="0" style="mix-blend-mode: normal"><path d="M284.5,92.87162c0,23.68108 -18.69211,42.87838 -41.75,42.87838c-23.05789,0 -41.75,-19.1973 -41.75,-42.87838c0,-23.68108 18.69211,-42.87837 41.75,-42.87837c23.05789,0 41.75,19.1973 41.75,42.87837z" fill="url(#color-1)" stroke="none" stroke-width="0" stroke-linecap="butt"/><path d="M179.28377,313.61252v-267.22501h123.18203v267.22501z" fill-opacity="0.01" fill="#000000" stroke="none" stroke-width="0" stroke-linecap="butt"/><path d="M206.75009,307.5l15.14285,-131.8421l37.78325,-0.15789l13.57389,132z" fill="#73214c" stroke="#000000" stroke-width="2" stroke-linecap="butt"/><path d="M218.95031,214.36263l3.87142,-36.57765l35.83075,-0.14203l3.76735,36.1059c0,0 -14.31001,4.17734 -21.1187,4.27348c-7.59503,0.10724 -22.35082,-3.6597 -22.35082,-3.6597z" fill="#5e1b3e" stroke="#000000" stroke-width="0" stroke-linecap="butt"/><path d="M280.35871,86.02421c-0.1198,5.79775 -22.45544,6.70422 -37.64004,6.39047c-15.18458,-0.31375 -36.81789,-1.1285 -36.6981,-6.92625c0.1198,-5.79775 21.94731,-14.38301 37.1319,-14.06927c15.18458,0.31375 37.32602,8.8073 37.20624,14.60505z" fill="#ffffff" stroke="#000000" stroke-width="2" stroke-linecap="butt"/><g stroke-linecap="butt"><g><path d="M137.72332,208.81593c0,0 24.30072,-21.6146 28.03658,-34.62431c5.85614,-20.3934 9.4294,-83.30682 13.17019,-99.82266c0.17753,-0.78385 31.87366,4.91971 64.37509,5.36958c32.80613,0.45408 66.82291,-3.59463 66.82291,-3.59463c0,0 1.16345,75.98831 6.07557,100.41421c2.98313,14.83387 27.70827,34.26311 27.16745,34.23464c-2.83269,-0.14911 -24.43659,-9.67119 -58.85786,-9.6773c-14.09404,-0.00249 -29.90962,5.57824 -44.93306,5.09649c-15.83695,-0.50785 -36.33686,-8.09858 -50.2123,-8.27599c-30.01799,-0.38381 -51.64459,10.87997 -51.64459,10.87997z" fill="#d21869" stroke="#000000" stroke-width="2"/><path d="M178.96953,74.0689c0.17753,-0.78385 31.87366,4.91972 64.37509,5.36958c32.80613,0.45408 66.82291,-3.59464 66.82291,-3.59464c0,0 0.09671,6.31696 0.35211,15.89365c-2.88827,0.85043 -5.66318,1.93456 -8.01121,3.67888c-0.81726,0.60713 -2.36989,1.47449 -2.72393,2.43646c-0.09066,-0.17765 -0.18129,-0.35534 -0.27194,-0.53298c-3.17927,-6.22993 -12.50522,-6.28592 -19.17518,-5.84119c-2.94503,0.19757 -6.18847,0.08034 -9.07704,0.59912c-3.88566,0.69785 -7.75879,2.45595 -11.39399,3.80183c-0.9276,0.57311 -3.66854,2.74947 -4.84444,2.59988c-0.50718,-0.06451 -0.50904,-0.78905 -0.70455,-1.20744c-0.54351,-1.16322 -0.98763,-2.21955 -1.81575,-3.25823c-1.59483,-2.00034 -5.24108,-3.66486 -7.94177,-4.18009c-6.54094,-1.22076 -14.78142,-1.56913 -21.16712,0.28875c-4.65827,1.35904 -8.38894,3.40736 -12.4972,5.71848c-0.6031,0.33928 -3.33215,2.388 -3.87712,2.3294c-0.53986,-0.05805 -0.60729,-0.79914 -0.94233,-1.17821c-1.58767,-2.23285 -5.02539,-5.12955 -8.09891,-5.58556c-3.61279,-0.53604 -7.58832,0.43385 -11.16108,0.84606c-3.87147,1.04067 -7.51496,1.85558 -10.85904,3.32446c1.02343,-9.35434 2.01198,-17.09084 3.01252,-21.50823z" fill="#ffffff" stroke="none" stroke-width="0"/><path d="M137.72639,208.66821c0,0 24.30072,-21.61461 28.03658,-34.62432c5.85614,-20.3934 9.4294,-83.30681 13.17019,-99.82265c0.17753,-0.78385 31.87366,4.91972 64.37509,5.36958c32.80613,0.45408 66.82291,-3.59464 66.82291,-3.59464c0,0 1.16345,75.9883 6.07557,100.41421c2.98313,14.83387 27.70827,34.26311 27.16745,34.23464c-2.83269,-0.14911 -24.43659,-9.67119 -58.85786,-9.6773c-14.09404,-0.00249 -29.90962,5.57824 -44.93306,5.09649c-15.83695,-0.50785 -36.33686,-8.09858 -50.2123,-8.27599c-30.01799,-0.38381 -51.64459,10.87997 -51.64459,10.87997z" fill="none" stroke="#000000" stroke-width="2"/></g><path d="M186.41531,165.64786c-0.27381,13.25202 -11.58152,23.76582 -25.25646,23.48326c-1.52179,-0.03144 -3.00878,-0.19526 -4.44947,-0.47987c1.29541,-1.1686 4.57633,-2.68919 5.13704,-4.78312c0.65163,-0.95754 2.9144,-5.91009 4.15951,-10.42026c0.91935,-3.33009 0.82604,-6.27678 1.48569,-7.93083c2.26804,-5.72903 1.20041,-12.27161 2.52031,-18.22175c0.09427,-1.46087 0.24876,-3.00957 0.40853,-4.60164c9.52514,3.50449 16.21038,12.52299 15.99483,22.95419z" fill="#ffffff" stroke="none" stroke-width="0"/><path d="M312.5362,143.72967c0.09385,1.59731 0.18425,3.15108 0.2181,4.61459c1.07302,5.99957 -0.26398,12.49247 1.76548,18.3103c0.59078,1.67989 0.37583,4.62023 1.15685,7.98543c1.05776,4.55774 3.11402,9.59952 3.72553,10.58317c0.47375,2.11531 3.68906,3.77012 4.93508,4.99125c-1.45122,0.22486 -2.9437,0.32713 -4.4655,0.29567c-13.67494,-0.28256 -24.5387,-11.25448 -24.26488,-24.50648c0.21554,-10.43121 7.26757,-19.16587 16.92935,-22.2739z" data-paper-data="{&quot;index&quot;:null}" fill="#ffffff" stroke="none" stroke-width="0"/><g fill="none"><path d="M137.72332,208.81593c0,0 24.30072,-21.6146 28.03658,-34.62431c5.85614,-20.3934 9.4294,-83.30682 13.17019,-99.82266c0.17753,-0.78385 31.87366,4.91971 64.37509,5.36958c32.80613,0.45408 66.82291,-3.59463 66.82291,-3.59463c0,0 1.16345,75.98831 6.07557,100.41421c2.98313,14.83387 27.70827,34.26311 27.16745,34.23464c-2.83269,-0.14911 -24.43659,-9.67119 -58.85786,-9.6773c-14.09404,-0.00249 -29.90962,5.57824 -44.93306,5.09649c-15.83695,-0.50785 -36.33686,-8.09858 -50.2123,-8.27599c-30.01799,-0.38381 -51.64459,10.87997 -51.64459,10.87997z" stroke="#000000" stroke-width="2"/><path d="M178.96953,74.0689c0.17753,-0.78385 31.87366,4.91972 64.37509,5.36958c32.80613,0.45408 66.82291,-3.59464 66.82291,-3.59464c0,0 0.09671,6.31696 0.35211,15.89365c-2.88827,0.85043 -5.66318,1.93456 -8.01121,3.67888c-0.81726,0.60713 -2.36989,1.47449 -2.72393,2.43646c-0.09066,-0.17765 -0.18129,-0.35534 -0.27194,-0.53298c-3.17927,-6.22993 -12.50522,-6.28592 -19.17518,-5.84119c-2.94503,0.19757 -6.18847,0.08034 -9.07704,0.59912c-3.88566,0.69785 -7.75879,2.45595 -11.39399,3.80183c-0.9276,0.57311 -3.66854,2.74947 -4.84444,2.59988c-0.50718,-0.06451 -0.50904,-0.78905 -0.70455,-1.20744c-0.54351,-1.16322 -0.98763,-2.21955 -1.81575,-3.25823c-1.59483,-2.00034 -5.24108,-3.66486 -7.94177,-4.18009c-6.54094,-1.22076 -14.78142,-1.56913 -21.16712,0.28875c-4.65827,1.35904 -8.38894,3.40736 -12.4972,5.71848c-0.6031,0.33928 -3.33215,2.388 -3.87712,2.3294c-0.53986,-0.05805 -0.60729,-0.79914 -0.94233,-1.17821c-1.58767,-2.23285 -5.02539,-5.12955 -8.09891,-5.58556c-3.61279,-0.53604 -7.58832,0.43385 -11.16108,0.84606c-3.87147,1.04067 -7.51496,1.85558 -10.85904,3.32446c1.02343,-9.35434 2.01198,-17.09084 3.01252,-21.50823z" stroke="none" stroke-width="0"/><path d="M137.72639,208.66821c0,0 24.30072,-21.61461 28.03658,-34.62432c5.85614,-20.3934 9.4294,-83.30681 13.17019,-99.82265c0.17753,-0.78385 31.87366,4.91972 64.37509,5.36958c32.80613,0.45408 66.82291,-3.59464 66.82291,-3.59464c0,0 1.16345,75.9883 6.07557,100.41421c2.98313,14.83387 27.70827,34.26311 27.16745,34.23464c-2.83269,-0.14911 -24.43659,-9.67119 -58.85786,-9.6773c-14.09404,-0.00249 -29.90962,5.57824 -44.93306,5.09649c-15.83695,-0.50785 -36.33686,-8.09858 -50.2123,-8.27599c-30.01799,-0.38381 -51.64459,10.87997 -51.64459,10.87997z" stroke="#000000" stroke-width="2"/></g></g><g stroke-linecap="butt"><path d="M187.97809,134.48515c0.26788,-12.96522 10.99546,-23.25846 23.96069,-22.99058c12.96522,0.26788 23.25846,10.99546 22.99058,23.96069c-0.26788,12.96522 -10.99546,23.25846 -23.96069,22.99058c-12.96522,-0.26788 -23.25846,-10.99546 -22.99058,-23.96069z" fill="#ffffff" stroke="#000000" stroke-width="2"/><path d="M195.04767,134.3555c0.18856,-9.12614 7.73961,-16.37145 16.86574,-16.18288c9.12614,0.18856 16.37145,7.73962 16.18288,16.86575c-0.18856,9.12614 -7.73962,16.37145 -16.86575,16.18288c-9.12614,-0.18856 -16.37144,-7.73962 -16.18287,-16.86574z" fill="#000000" stroke="none" stroke-width="0"/><path d="M201.20817,105.94389c0,0 6.8143,-5.02952 11.92615,-6.11848c5.11186,-1.08896 12.31704,0.95402 12.31704,0.95402c0,0 -8.03517,-0.22633 -11.98288,0.61466c-4.12552,0.87886 -12.26032,4.5498 -12.26032,4.5498z" fill="#000000" stroke="none" stroke-width="0"/></g><g stroke-linecap="butt"><path d="M272.0474,159.70783c-12.96522,-0.26788 -23.25846,-10.99546 -22.99058,-23.96069c0.26788,-12.96522 10.99546,-23.25846 23.96069,-22.99058c12.96522,0.26788 23.25846,10.99546 22.99058,23.96069c-0.26788,12.96522 -10.99546,23.25846 -23.96069,22.99058z" data-paper-data="{&quot;index&quot;:null}" fill="#ffffff" stroke="#000000" stroke-width="2"/><path d="M272.08418,152.47863c-9.12613,-0.18856 -16.37144,-7.73962 -16.18287,-16.86574c0.18856,-9.12614 7.73962,-16.37145 16.86574,-16.18288c9.12613,0.18856 16.37144,7.73962 16.18287,16.86574c-0.18856,9.12614 -7.73962,16.37145 -16.86574,16.18288z" data-paper-data="{&quot;index&quot;:null}" fill="#000000" stroke="none" stroke-width="0"/><path d="M272.06012,102.60473c-3.90962,-1.00332 -11.94727,-1.10912 -11.94727,-1.10912c0,0 7.28343,-1.74362 12.34594,-0.44443c5.0625,1.29919 11.66323,6.6059 11.66323,6.6059c0,0 -7.97623,-4.00385 -12.06191,-5.05237z" data-paper-data="{&quot;index&quot;:null}" fill="#000000" stroke="none" stroke-width="0"/></g><path d="M188.19749,134.23962c0.26788,-12.96522 10.9507,-23.25939 23.86071,-22.99265c12.91002,0.26674 23.1585,10.9934 22.8906,23.95864c0,0 -6.54928,-4.58842 -15.05962,-6.57146c-2.28672,-0.53283 -5.77061,-0.89938 -8.04306,-0.91215c-2.64703,-0.01486 -6.65799,0.41121 -9.08994,0.90721c-9.0665,1.8491 -14.5695,6.13311 -14.55871,5.61037z" fill="#d21869" stroke="#000000" stroke-width="2" stroke-linecap="butt"/><path d="M296.33294,136.6073c-0.01079,0.52272 -5.3553,-3.98542 -14.37627,-6.20823c-2.41977,-0.59625 -6.42679,-1.18801 -9.08351,-1.28272c-2.28074,-0.08131 -5.79174,0.14068 -8.10834,0.57842c-8.62153,1.62905 -15.38319,5.94245 -15.38319,5.94245c0.26788,-12.96522 10.99546,-23.25846 23.96069,-22.99058c12.96522,0.26788 23.25846,10.99546 22.99058,23.96069z" data-paper-data="{&quot;index&quot;:null}" fill="#d21869" stroke="#000000" stroke-width="2" stroke-linecap="butt"/><path d="M186.70664,114.47859l6.29101,4.13084" fill="none" stroke="#000000" stroke-width="2" stroke-linecap="round"/><path d="M200.52808,113.18051l-1.35681,-6.94618" fill="none" stroke="#000000" stroke-width="2" stroke-linecap="round"/><g fill="none" stroke="#000000" stroke-width="2" stroke-linecap="round"><path d="M299.77649,118.31518l-6.45626,3.86746" data-paper-data="{&quot;index&quot;:null}"/><path d="M287.66307,109.56309l-1.64256,6.88421" data-paper-data="{&quot;index&quot;:null}"/></g><path d="M253.02337,177.23971c0,0 -4.17843,3.91453 -12.99348,3.87525c-7.26672,-0.03236 -12.11074,-4.39396 -12.11074,-4.39396" fill="none" stroke="#000000" stroke-width="2" stroke-linecap="round"/></g></g></svg>