<svg version="1.1" xmlns="http://www.w3.org/2000/svg" xmlns:xlink="http://www.w3.org/1999/xlink" width="34.17311" height="34.17311" viewBox="0,0,34.17311,34.17311"><defs><radialGradient cx="237.98325" cy="172.42076" r="3.06683" gradientUnits="userSpaceOnUse" id="color-1"><stop offset="0" stop-color="#af4300"/><stop offset="1" stop-color="#af4300" stop-opacity="0"/></radialGradient><radialGradient cx="242.07794" cy="171.21431" r="0.62763" gradientUnits="userSpaceOnUse" id="color-2"><stop offset="0" stop-color="#af4300"/><stop offset="1" stop-color="#af4300" stop-opacity="0"/></radialGradient><radialGradient cx="241.47933" cy="171.71021" r="0.52778" gradientUnits="userSpaceOnUse" id="color-3"><stop offset="0" stop-color="#af4300"/><stop offset="1" stop-color="#af4300" stop-opacity="0"/></radialGradient><radialGradient cx="243.86534" cy="170.53501" r="0.54205" gradientUnits="userSpaceOnUse" id="color-4"><stop offset="0" stop-color="#af4300"/><stop offset="1" stop-color="#af4300" stop-opacity="0"/></radialGradient><radialGradient cx="234.36509" cy="173.87252" r="0.91292" gradientUnits="userSpaceOnUse" id="color-5"><stop offset="0" stop-color="#af4300"/><stop offset="1" stop-color="#af4300" stop-opacity="0"/></radialGradient></defs><g transform="translate(-222.91346,-162.91346)"><g data-paper-data="{&quot;isPaintingLayer&quot;:true}" stroke-miterlimit="10" stroke-dasharray="" stroke-dashoffset="0" style="mix-blend-mode: normal"><path d="M229.98313,162.91347h20.03379c3.9166,0 7.06966,3.15307 7.06966,7.06966v20.03379c0,3.91659 -3.15306,7.06966 -7.06966,7.06966h-20.03379c-3.91659,0 -7.06966,-3.15307 -7.06966,-7.06966v-20.03379c0,-3.91659 3.15307,-7.06966 7.06966,-7.06966z" fill="#d35100" fill-rule="evenodd" stroke="none" stroke-width="4.43922" stroke-linecap="round" stroke-linejoin="round"/><g fill-rule="nonzero" stroke-width="0.5" stroke-linecap="butt" stroke-linejoin="miter"><path d="M229.67633,180.00318c-0.21735,0.16665 -1.87808,1.61912 -2.37089,2.49915c-0.40951,0.73823 -0.13145,2.12684 0.06484,2.71898c0.23944,0.72213 0.61606,1.231 1.29949,1.75769c0.66073,0.50916 3.4072,1.18337 3.82945,1.22985l1.66017,2.20706c0,0 -4.09457,0.51025 -7.05502,-0.67045c-1.00035,-0.39896 -2.69431,-1.80026 -3.36406,-3.43916c-0.63725,-1.55935 -0.28193,-3.35751 -0.02377,-3.80384c1.56618,-2.70781 5.07939,-5.05847 5.07939,-5.05847z" data-paper-data="{&quot;index&quot;:null}" fill="#f7dbb5" stroke="#000000"/><g fill="#f7dbb5" stroke="#000000"><g data-paper-data="{&quot;index&quot;:null}"><g data-paper-data="{&quot;index&quot;:null}"><path d="M240.84357,172.31491c-0.35094,-0.13751 -0.65385,-0.40121 -0.86137,-0.78604c-0.5728,-1.06222 -0.2019,-2.645 0.82844,-3.53525c1.03034,-0.89025 2.32994,-0.75084 2.90275,0.31137c0.5728,1.06222 0.2019,2.645 -0.82844,3.53525c-0.65706,0.56772 -1.42363,0.71671 -2.04138,0.47466z"/></g><g data-paper-data="{&quot;index&quot;:null}"><path d="M246.65495,170.14789c-0.4005,-1.16417 0.26809,-2.46819 1.49333,-2.91261c1.22524,-0.44442 2.54316,0.13906 2.94365,1.30323c0.4005,1.16417 -0.26809,2.46819 -1.49333,2.91261c-1.22524,0.44442 -2.54316,-0.13906 -2.94365,-1.30323z"/><path d="M243.44478,170.16067c-0.4005,-1.16417 0.26809,-2.46819 1.49333,-2.91261c1.22524,-0.44442 2.54316,0.13906 2.94365,1.30323c0.4005,1.16417 -0.26809,2.46819 -1.49333,2.91261c-1.22524,0.44442 -2.54316,-0.13906 -2.94365,-1.30323z"/></g></g><g data-paper-data="{&quot;index&quot;:null}"><path d="M235.33062,174.58034c-1.29763,-0.04585 -2.52111,-1.05032 -2.73271,-2.24355c-0.2116,-1.19323 0.6688,-2.12337 1.96644,-2.07752c1.29763,0.04585 2.52111,1.05032 2.73271,2.24356c0.2116,1.19323 -0.6688,2.12337 -1.96644,2.07751z"/><path d="M238.17133,173.63789c-1.29763,-0.04585 -2.52111,-1.05032 -2.73271,-2.24356c-0.2116,-1.19323 0.6688,-2.12337 1.96644,-2.07752c1.29763,0.04585 2.52111,1.05032 2.73271,2.24355c0.2116,1.19323 -0.6688,2.12337 -1.96644,2.07752z"/></g><g data-paper-data="{&quot;index&quot;:null}"><path d="M230.11786,178.51715c-1.17506,0.42622 -2.4523,-0.17201 -2.8528,-1.33619c-0.4005,-1.16417 0.22742,-2.45344 1.40248,-2.87966c1.17506,-0.42622 2.4523,0.17202 2.8528,1.33619c0.4005,1.16417 -0.22742,2.45344 -1.40248,2.87966z"/><path d="M232.50654,176.49912c-1.17506,0.42622 -2.4523,-0.17202 -2.8528,-1.33619c-0.4005,-1.16417 0.22742,-2.45344 1.40248,-2.87966c1.17506,-0.42622 2.4523,0.17201 2.8528,1.33619c0.4005,1.16417 -0.22742,2.45344 -1.40248,2.87966z"/></g></g><path d="M251.37362,169.34862c0.51275,1.49048 -4.3948,4.62958 -10.96132,7.01138c-6.56652,2.3818 -12.30541,3.10436 -12.81816,1.61388c-0.51275,-1.49048 4.3948,-4.62958 10.96132,-7.01138c6.56652,-2.3818 12.30541,-3.10436 12.81816,-1.61388z" fill="#6c2a00" stroke="#000000"/><g fill="#f7dbb5" stroke="#000000"><g data-paper-data="{&quot;index&quot;:null}"><path d="M242.93128,171.97494c1.30283,-0.09817 2.43774,0.53989 2.5349,1.42515c0.09716,0.88526 -0.88023,1.68249 -2.18305,1.78067c-1.30283,0.09817 -2.43774,-0.53989 -2.5349,-1.42515c-0.0352,-0.32072 0.07064,-0.62988 0.28188,-0.89843c0.37185,-0.47273 1.07033,-0.81962 1.90117,-0.88223z"/></g><g data-paper-data="{&quot;index&quot;:null}"><path d="M248.56557,168.44828c1.22524,-0.44442 2.45382,-0.12064 2.7441,0.72317c0.29029,0.84381 -0.46764,1.88813 -1.69289,2.33255c-1.22524,0.44442 -2.45382,0.12064 -2.7441,-0.72317c-0.29029,-0.84381 0.46764,-1.88813 1.69289,-2.33255z"/><path d="M245.96293,170.22701c1.22524,-0.44442 2.45382,-0.12064 2.7441,0.72317c0.29029,0.84381 -0.46764,1.88813 -1.69289,2.33255c-1.22524,0.44442 -2.45382,0.12064 -2.7441,-0.72317c-0.29029,-0.84381 0.46765,-1.88813 1.69289,-2.33255z"/></g></g><g fill="#f7dbb5" stroke="#000000"><path d="M238.0021,174.55229c0.48102,0.82011 0.04739,2.11158 -0.96854,2.8846c-1.01593,0.77301 -2.22945,0.73483 -2.71047,-0.08527c-0.48102,-0.82011 -0.04739,-2.11158 0.96854,-2.88459c1.01593,-0.77301 2.22945,-0.73483 2.71047,0.08527z"/><path d="M240.79486,173.47045c0.48102,0.82011 0.04739,2.11158 -0.96854,2.88459c-1.01593,0.77301 -2.22945,0.73483 -2.71047,-0.08527c-0.48102,-0.82011 -0.04739,-2.11158 0.96854,-2.88459c1.01593,-0.77301 2.22945,-0.73483 2.71047,0.08527z"/></g><g fill="#f7dbb5" stroke="#000000"><path d="M231.72139,176.22193c0.30549,0.88801 -0.39944,1.9534 -1.5745,2.37961c-1.17506,0.42622 -2.37529,0.05186 -2.68078,-0.83614c-0.30549,-0.88801 0.39944,-1.9534 1.5745,-2.37961c1.17506,-0.42622 2.37528,-0.05186 2.68077,0.83614z"/><path d="M234.73096,176.00873c0.30549,0.88801 -0.39944,1.95339 -1.5745,2.37961c-1.17506,0.42622 -2.37529,0.05186 -2.68078,-0.83614c-0.30549,-0.88801 0.39944,-1.9534 1.5745,-2.37961c1.17506,-0.42622 2.37528,-0.05186 2.68077,0.83614z"/></g><path d="M229.41452,184.88797c-0.10429,-0.30317 -1.95923,-5.90411 -1.83591,-7.20844c0.00661,-0.06991 5.90829,-0.86361 11.52092,-2.8841c6.12214,-2.20391 12.00383,-5.64436 12.12462,-5.57216c0.19632,0.11735 2.29434,6.06507 2.57818,6.89015c2.20843,6.41953 -1.40046,13.58197 -8.06068,15.99775c-6.66022,2.41578 -14.1187,-0.80369 -16.32713,-7.22322z" fill="#f8f7f9" stroke="#000000"/><path d="M240.86629,171.37503c0.10726,0.31178 -1.09657,1.03272 -2.68883,1.61027c-1.59226,0.57754 -2.96999,0.79298 -3.07725,0.4812c-0.10726,-0.31178 1.09657,-1.03272 2.68883,-1.61027c1.59226,-0.57754 2.96999,-0.79298 3.07725,-0.4812z" fill="url(#color-1)" stroke="none"/><path d="M242.66796,171.0003c0.07587,0.22053 -0.12679,0.49512 -0.45265,0.61332c-0.32586,0.11819 -0.65152,0.03524 -0.72739,-0.1853c-0.07587,-0.22053 0.12679,-0.49512 0.45265,-0.61332c0.32586,-0.11819 0.65152,-0.03523 0.72738,0.1853z" fill="url(#color-2)" stroke="none"/><path d="M241.97548,171.53025c0.04971,0.14449 -0.13213,0.34219 -0.40615,0.44158c-0.27402,0.09939 -0.53644,0.06283 -0.58615,-0.08165c-0.04971,-0.14449 0.13213,-0.34218 0.40615,-0.44158c0.27402,-0.09939 0.53645,-0.06284 0.58615,0.08165z" fill="url(#color-3)" stroke="none"/><path d="M244.3749,170.35019c0.04447,0.12928 -0.14761,0.31683 -0.42903,0.4189c-0.28142,0.10208 -0.54561,0.08003 -0.59009,-0.04925c-0.04447,-0.12928 0.14761,-0.31683 0.42903,-0.4189c0.28142,-0.10208 0.54561,-0.08003 0.59009,0.04925z" fill="url(#color-4)" stroke="none"/><path d="M235.2233,173.56123c0.10464,0.30418 -0.19476,0.69013 -0.66873,0.86205c-0.47397,0.17192 -0.94304,0.0647 -1.04768,-0.23948c-0.10464,-0.30418 0.19476,-0.69013 0.66873,-0.86205c0.47397,-0.17192 0.94304,-0.0647 1.04768,0.23948z" fill="url(#color-5)" stroke="none"/></g></g></g></svg>