<svg version="1.1" xmlns="http://www.w3.org/2000/svg" xmlns:xlink="http://www.w3.org/1999/xlink" width="197.1685" height="246.7695" viewBox="0,0,197.1685,246.7695"><defs><linearGradient x1="192.09995" y1="113.87742" x2="211.66541" y2="138.73289" gradientUnits="userSpaceOnUse" id="color-1"><stop offset="0" stop-color="#000000"/><stop offset="1" stop-color="#7ebb78"/></linearGradient><linearGradient x1="197.39639" y1="128.35709" x2="218.4397" y2="146.27695" gradientUnits="userSpaceOnUse" id="color-2"><stop offset="0" stop-color="#000000"/><stop offset="1" stop-color="#7ebb78"/></linearGradient><linearGradient x1="202.86497" y1="134.13806" x2="227.71448" y2="145.38351" gradientUnits="userSpaceOnUse" id="color-3"><stop offset="0" stop-color="#000000"/><stop offset="1" stop-color="#7ebb78"/></linearGradient><linearGradient x1="264.22604" y1="70.35834" x2="278.57093" y2="208.48101" gradientUnits="userSpaceOnUse" id="color-4"><stop offset="0" stop-color="#000000"/><stop offset="1" stop-color="#f5d7d7"/></linearGradient><linearGradient x1="263.86935" y1="70.09082" x2="278.21424" y2="208.21349" gradientUnits="userSpaceOnUse" id="color-5"><stop offset="0" stop-color="#000000"/><stop offset="1" stop-color="#c88989"/></linearGradient><linearGradient x1="243.1496" y1="94.50784" x2="243.1496" y2="316.59793" gradientUnits="userSpaceOnUse" id="color-6"><stop offset="0" stop-color="#000000"/><stop offset="1" stop-color="#d93838"/></linearGradient><linearGradient x1="235.83005" y1="95.66408" x2="235.83005" y2="142.90101" gradientUnits="userSpaceOnUse" id="color-7"><stop offset="0" stop-color="#000000"/><stop offset="1" stop-color="#f5d7d7"/></linearGradient><linearGradient x1="248.60249" y1="95.6641" x2="248.60249" y2="142.49395" gradientUnits="userSpaceOnUse" id="color-8"><stop offset="0" stop-color="#000000"/><stop offset="1" stop-color="#f5b4b4"/></linearGradient><linearGradient x1="218.69271" y1="95.6641" x2="218.69271" y2="141.11134" gradientUnits="userSpaceOnUse" id="color-9"><stop offset="0" stop-color="#000000"/><stop offset="1" stop-color="#f5b4b4"/></linearGradient></defs><g transform="translate(-181.6089,-69.9005)"><g data-paper-data="{&quot;isPaintingLayer&quot;:true}" fill-rule="nonzero" stroke="none" stroke-linecap="butt" stroke-linejoin="miter" stroke-miterlimit="10" stroke-dasharray="" stroke-dashoffset="0" style="mix-blend-mode: normal"><g stroke-width="0"><path d="M211.66541,138.73289c-7.45135,7.58785 -28.87785,9.81171 -29.96856,8.4261c-0.64262,-0.81637 2.17745,-24.90523 10.4031,-33.28157c9.3361,-9.50712 21.28438,-11.65007 26.68723,-4.78643c5.40285,6.86365 2.21433,20.13478 -7.12177,29.6419z" fill="url(#color-1)"/><path d="M218.4397,146.27695c-5.3388,9.19354 -23.76466,17.22462 -24.93776,16.22564c-0.69116,-0.58857 -1.99912,-23.99661 3.89445,-34.14549c6.6892,-11.51896 16.82257,-16.84542 22.63352,-11.89699c5.81095,4.94843 5.09898,18.29788 -1.59021,29.81684z" fill="url(#color-2)"/><path d="M227.71448,145.38351c-3.37314,10.10888 -20.07086,22.64094 -21.45614,22.01405c-0.81617,-0.36936 -7.11703,-22.10018 -3.39337,-33.2595c4.22635,-12.66581 13.21523,-20.4161 20.07723,-17.31075c6.862,3.10535 8.99863,15.89039 4.77228,28.55621z" fill="url(#color-3)"/></g><g><g data-paper-data="{&quot;index&quot;:null}" stroke-width="0"><path d="M295.80447,115.31116c1.10895,10.67772 11.30464,68.70208 26.61125,108.16651c14.50819,37.40586 54.48862,75.62699 53.8389,75.70124c-24.67511,2.81966 -145.57315,-116.51227 -149.53438,-154.65379c-3.96123,-38.14152 12.83068,-71.34712 37.50579,-74.16678c24.67511,-2.81966 27.6172,6.8113 31.57843,44.95282z" fill="url(#color-4)"/><g fill="url(#color-5)"><path d="M322.05904,223.21016c0.4109,1.05942 0.84224,2.11949 1.29251,3.17933c-2.21765,2.63072 -4.4417,5.25611 -6.67328,7.87582c-3.96462,4.65418 -7.88209,9.34594 -11.95799,13.89998c-11.96011,-11.51813 -23.967,-24.01732 -34.86598,-36.39607c4.44027,-4.31357 9.08368,-8.44707 13.58894,-12.67983c5.41229,-5.08493 11.63865,-9.45134 17.45919,-14.06459c2.48937,-1.97302 4.98072,-3.94353 7.47304,-5.91282c3.86625,15.11803 8.47952,30.68079 13.68357,44.09819z"/><path d="M375.89794,298.91139c-8.04321,0.91911 -26.31039,-11.14074 -47.41881,-29.13687c3.59367,-3.61433 7.19275,-7.22316 10.79643,-10.82769c0.58115,-0.58128 1.16186,-1.16269 1.74201,-1.74442c16.50266,23.51196 35.32785,41.65784 34.88037,41.70898z"/><path d="M295.44779,115.04365c0.19663,1.8933 0.67895,5.27517 1.42479,9.77821c-5.24469,2.21501 -10.45962,4.5056 -15.69129,6.7476c-6.86144,2.94042 -13.29196,7.05812 -19.80283,10.70796c-6.54043,3.66641 -13.01159,7.43207 -19.46772,11.2448c-3.42163,2.02067 -6.84108,4.02473 -10.28509,5.98637c-2.97825,-5.88464 -4.82665,-11.05833 -5.26208,-15.25098c-1.50404,-14.48196 -0.01621,-28.25233 3.75901,-39.91804c3.94104,-0.84427 7.86317,-1.7739 11.80712,-2.70826c7.28469,-1.72581 14.44433,-4.05349 21.62875,-6.15736c7.24246,-1.90626 14.50546,-3.74917 21.72328,-5.74661c2.08797,-0.57782 4.17389,-1.16594 6.26069,-1.75154c1.61985,6.74475 2.71673,15.62273 3.90538,27.06785z"/></g></g><path d="M351.83358,263.96529c1.62637,2.16514 3.42196,3.94786 5.22165,6.10611c4.10612,4.92419 7.7848,10.11869 11.97574,14.97145c2.36649,2.74019 7.28611,6.65552 8.36539,10.22742c0.69232,2.29124 2.13984,5.08443 0.88936,7.12536c-0.91431,1.49227 -3.52462,0.28369 -5.25027,-0.00777c-3.68818,-0.62293 -6.76706,-3.59429 -9.69261,-5.68396c-5.40614,-3.93412 -10.95847,-7.79077 -16.33333,-11.66667c-2.59206,-1.86917 -4.61046,-4.72162 -7.11248,-6.75267c-4.71479,-3.82731 -10.54237,-6.21153 -14.86019,-10.50766c-2.35024,-2.33844 -4.44724,-4.94194 -6.50766,-7.52685c-0.85883,-1.07745 -2.31385,-1.83559 -2.65099,-3.17157c-0.57524,-2.27948 -1.65229,-5.45321 0.07087,-7.05248c0.67692,-0.62826 6.57287,1.46729 8.88378,2.28797c-0.8133,-1.03081 -1.5066,-2.16566 -2.01289,-3.36842c-1.81296,-4.30687 -1.67701,-14.75799 4.94626,-15.40862c6.47181,-0.63575 7.15309,5.88994 7.84422,10.43558c0.99405,6.53795 2.53474,12.97734 8.55529,16.75766c0.52162,0.32753 1.11222,0.41033 1.73375,0.37532c0.22697,-0.4188 0.62838,-0.81155 1.31,-1.0842c1.30895,-0.52358 2.17502,-0.01376 2.68146,0.53044c0.75426,0.11544 1.91866,0.56547 2.07008,2.23108c0.04276,0.47038 -0.01142,0.85996 -0.12745,1.1825z" fill="#000000" stroke-width="0.5"/></g><g stroke-width="0"><path d="M197.89961,316.59791l20.60794,-221.82442l51.41931,-0.26565l18.47274,222.09009z" fill="url(#color-6)"/><path d="M269.84736,94.57991l18.8075,222.09009l-36.00904,-0.00001c0.2516,-0.51191 0.45843,-0.9315 0.52253,-1.10891c0.73517,-2.03948 3.58291,-5.91647 1.42471,-8.02902c-0.43195,-0.42281 -1.82757,0.31333 -1.80626,-0.28528c0.00339,-0.0952 1.38508,-1.88452 1.52842,-2.27686c0.96722,-2.64755 1.00442,-5.28826 1.00408,-8.05478c-0.01105,-1.27685 0.58006,-4.58576 -0.85882,-5.30613c-1.05355,-0.52745 -2.39916,0.61016 -3.20536,0.90728c-0.82425,0.30377 -2.0675,0.08619 -2.97952,0.33412c-0.83655,0.22742 -2.5576,0.90364 -3.21398,-0.13808c-0.5765,-0.91495 0.06419,-4.57446 0.05892,-5.74234c-0.0061,-0.33854 -0.00239,-2.19281 -0.19387,-2.35609c-1.16161,-0.99054 -2.35724,0.6596 -3.26914,0.95292c-1.57825,0.50767 -3.27645,0.52882 -4.91036,1.07732c-0.38037,0.12769 -4.20301,1.0477 -4.27375,0.50333c-0.06813,-0.52424 2.83552,-3.83775 3.33746,-4.50786c4.20645,-5.61581 7.30115,-12.67376 7.27853,-19.66176c-0.00513,-1.58073 0.84848,-6.24762 -1.80493,-5.38063c-1.59793,0.52212 -4.18823,4.06547 -4.90827,5.47125c-0.10839,0.21162 -1.41836,2.81749 -1.55212,2.47825c-0.28901,-0.733 0.13328,-2.80176 0.13328,-3.6627c0,-3.66389 -0.03453,-7.32976 0.01455,-10.99334c0.0143,-1.06712 -0.31795,-2.84778 0.02663,-3.84563c0.56368,-1.63234 2.60981,-3.25264 3.5109,-4.78529c0.70198,-1.19633 1.51738,-2.26852 2.40781,-3.26784c0.67775,-0.59501 1.31007,-1.25027 1.90498,-1.95034c1.68002,-1.59285 3.50555,-3.0726 5.2799,-4.70191c2.09038,-1.91951 4.16416,-2.44197 4.16152,-5.4407c-0.04986,-1.53876 -0.87514,-2.20098 -2.04852,-2.45749c0.05976,-2.41725 0.60368,-5.90067 -0.33714,-8.11616c-0.97443,-2.29464 -3.71198,-2.86653 -5.51027,-4.46273c-1.50979,-1.34012 -1.28752,-3.44927 -1.19577,-5.22903c0.05678,-1.21832 0.31252,-2.48264 0.64956,-3.75988c0.05679,-0.02976 0.11268,-0.06052 0.16763,-0.09231c1.85611,-1.07406 0.23286,-3.33214 2.20798,-3.66734c5.21167,-4.94795 12.49543,-9.73022 10.66769,-17.59104c-1.79411,-0.70208 -2.21176,-2.12426 -4.27497,-2.7401c-3.18827,-0.95165 -6.60859,-0.89498 -9.89518,-1.96861c-0.28195,-0.09211 -2.63011,-0.44362 -2.71105,-0.5506c-0.25048,-0.33107 0.51778,-2.04924 0.68221,-2.35765c1.55065,-2.98627 3.0503,-5.90658 4.54356,-8.92318c1.6843,-3.40252 4.24572,-6.3492 3.86741,-10.37692c-0.11803,-1.18109 0.11749,-2.49283 -1.25291,-3.09587c-0.39642,-0.17444 -2.48423,0.29121 -2.78014,-0.15578c-0.80143,-1.2106 0.69933,-4.21177 1.11335,-5.33113c1.08906,-2.94441 1.1022,-5.9856 0.97638,-9.0707c-0.0141,-0.34495 -0.05355,-2.16492 -0.23758,-2.3388c-0.92059,-0.86984 -3.95119,0.6019 -4.79508,-0.81677c-0.41052,-0.69013 0.89615,-2.81713 1.05046,-3.49256c0.75291,-3.29544 0.98079,-6.58303 0.92835,-9.97875c-0.03956,-2.51076 -0.56171,-4.69023 -1.74818,-6.92709c-0.41747,-0.78705 -1.97536,-2.31277 -1.92853,-3.21776c0.03212,-0.6207 0.58854,-1.10719 0.78219,-1.69887c0.83693,-2.55708 1.18103,-5.12231 2.18646,-7.65046c0.7888,-1.98344 1.18309,-4.03964 1.42616,-6.1244z" fill="#000000"/></g><g stroke-width="0"><path d="M278.85008,108.45434c0,16.7447 -38.58415,36.10426 -38.87849,36.10426c-2.40888,0 -7.33187,-2.70742 -9.87832,-3.13086c-16.56616,-2.75472 -35.67652,-14.9043 -35.67652,-29.65824c0,-17.02181 22.92467,-16.00606 41.00482,-16.00606c18.08015,0 43.42852,-4.33093 43.42852,12.69089z" fill="url(#color-7)"/><g><path d="M240.95023,142.49395c-0.00055,-0.01953 -0.0011,-0.0391 -0.00167,-0.05863c-0.20513,-7.22939 -0.36693,-14.44813 -0.497,-21.69166c-0.12957,-7.21579 -0.03692,-14.50101 -0.03692,-21.72656c0,-1.09719 -0.00275,-2.19473 -0.00537,-3.29208c6.15369,-0.08163 11.79902,-0.20587 16.40736,0.57222c-0.01576,3.74812 0.00581,7.50339 0.00581,11.24952c0,7.25192 0,14.50386 0,21.7558c0,1.96413 0,3.92823 0,5.89237c-4.46651,3.71912 -9.91398,6.33659 -15.87222,7.29904z" fill="url(#color-8)"/><path d="M212.00027,132.22923c0,-4.50943 0,-9.01889 0,-13.52833c0,-7.24388 0,-14.48774 0,-21.73162c3.55799,-1.10312 8.04011,-1.31171 13.11787,-1.30504c-0.03296,3.29078 -0.07712,6.58145 -0.12734,9.87989c-0.11025,7.24212 -0.08218,14.54222 -0.0137,21.78782c0.04415,4.6708 0.22117,9.2147 0.40804,13.77937c-5.17876,-1.81982 -9.75932,-4.93065 -13.38487,-8.8821z" fill="url(#color-9)"/></g><path d="M268.56705,110.52632c0,17.02181 -14.85347,32.37469 -32.93362,32.37469c-18.08014,0 -32.54038,-15.35288 -32.54038,-32.37469c0,-17.02181 14.24836,-14.76286 32.32851,-14.76286c18.08015,0 33.14549,-2.25895 33.14549,14.76286z" fill="none"/></g></g></g></svg>