<svg version="1.1" xmlns="http://www.w3.org/2000/svg" xmlns:xlink="http://www.w3.org/1999/xlink" width="34.17311" height="34.17311" viewBox="0,0,34.17311,34.17311"><g transform="translate(-222.91347,-162.91346)"><g data-paper-data="{&quot;isPaintingLayer&quot;:true}" stroke-miterlimit="10" stroke-dasharray="" stroke-dashoffset="0" style="mix-blend-mode: normal"><path d="M229.98313,162.91346h20.03379c3.9166,0 7.06966,3.15307 7.06966,7.06966v20.03379c0,3.91659 -3.15306,7.06966 -7.06966,7.06966h-20.03379c-3.91659,0 -7.06966,-3.15307 -7.06966,-7.06966v-20.03379c0,-3.91659 3.15307,-7.06966 7.06966,-7.06966z" fill="#001361" fill-rule="evenodd" stroke="none" stroke-width="4.43922" stroke-linecap="round" stroke-linejoin="round"/><g fill-rule="nonzero" stroke="#000000" stroke-width="0.5" stroke-linecap="butt" stroke-linejoin="miter"><path d="M238.73382,194.12667c0,0 -0.67654,-5.99032 -1.84468,-9.23317c-0.36927,-1.02513 -1.14935,-3.20751 -1.80335,-4.66874c-2.09691,-4.68513 -4.84981,-9.68887 -4.84981,-9.68887c0,0 5.97194,2.4175 10.95032,5.2393c0.84288,0.47775 3.67563,2.40412 6.13671,4.618c2.52148,2.26821 5.39938,5.61975 5.39938,5.61975z" fill="#313c6c"/><path d="M253.74655,185.89652c0.37615,0.64851 -2.85864,2.68151 -7.14441,5.16738c-4.28578,2.48586 -7.99962,4.48323 -8.37577,3.83473c-0.37615,-0.64851 2.91168,-2.9852 7.19746,-5.47106c4.28578,-2.48586 7.94657,-4.17955 8.32273,-3.53104z" fill="#576ac1"/><path d="M233.25015,167.96885c0.94855,1.63536 0.27749,3.79633 -1.49885,4.82665c-1.77635,1.03032 -3.98531,0.53985 -4.93386,-1.09552c-0.94855,-1.63536 -0.27749,-3.79633 1.49885,-4.82665c1.77635,-1.03032 3.98531,-0.53985 4.93386,1.09552z" fill="#576ac1"/></g></g></g></svg>