<svg version="1.1" xmlns="http://www.w3.org/2000/svg" xmlns:xlink="http://www.w3.org/1999/xlink" width="155.23545" height="221.45215" viewBox="0,0,155.23545,221.45215"><g transform="translate(-169.13416,-87.04791)"><g data-paper-data="{&quot;isPaintingLayer&quot;:true}" fill-rule="nonzero" stroke-linejoin="miter" stroke-miterlimit="10" stroke-dasharray="" stroke-dashoffset="0" style="mix-blend-mode: normal"><g stroke="#000000" stroke-width="2" stroke-linecap="butt"><g fill="#ffd498"><path d="M323.3696,121.93493c0,15.63761 -28.67836,61.72134 -38.05131,61.72134c-9.37295,0 -13.18131,-77.91141 -3.80835,-77.91141c9.37295,0 41.85967,0.55245 41.85967,16.19007z"/></g><path d="M306.80055,153.60038c-8.28353,14.22623 -17.88034,21.68691 -21.43507,16.66391c-3.55473,-5.02301 0.27874,-20.62759 8.56227,-34.85381c1.63476,-2.80755 3.32066,-5.35159 5.00118,-7.58819c6.8349,-9.09656 13.58069,-13.10743 16.43389,-9.07571c3.55473,5.023 -0.27874,20.62759 -8.56227,34.85381z" fill="#000000"/></g><g stroke-linecap="butt"><path d="M206.37765,307.50005l15.14285,-131.8421l37.78325,-0.15789l13.57389,132z" fill="#ffd498" stroke="#000000" stroke-width="2"/><path d="M219.32788,204.11273l3.12142,-26.32765l35.83075,-0.14203l2.76735,26.1059c0,0 -7.51543,4.19603 -21.55904,4.50964c-12.48458,0.27879 -20.16049,-4.14586 -20.16049,-4.14586z" fill="#bd9e72" stroke="#000000" stroke-width="0"/><path d="M205.87765,307.25005l15.37056,-131.8421c0,0 6.56051,0.19568 6.66427,0.4275c0.34633,0.77378 -3.76898,29.24082 -2.32094,36.32235c0.55198,2.69941 26.44508,3.41299 27.28293,-0.02863c1.40092,-5.75448 -0.356,-33.44832 0.55278,-35.54219c0.78319,-1.80452 5.15735,-1.58693 5.15735,-1.58693l14.79305,132.25z" fill="#a18660" stroke="#000000" stroke-width="2"/><path d="M221.24822,175.158c0,0 6.56051,0.19568 6.66427,0.4275c0.17957,0.4012 -1.43017,4.14127 -2.40745,12.90188c-0.90757,8.13577 -1.49645,20.78207 -0.79921,24.19189c0.29206,1.4283 6.45237,2.7932 13.92777,2.84849c6.65269,0.0492 14.70349,-1.02795 15.09802,-2.64855c1.40092,-5.75448 -1.21314,-34.44832 -0.30436,-36.54219c0.78319,-1.80452 5.15735,-1.58693 5.15735,-1.58693c0,0 2.02008,26.86344 2.93538,36.73103c0.54344,5.85865 2.04914,17.00562 2.04914,17.00562c-1.5577,-0.00143 -46.19057,-0.36505 -47.26124,-0.48071c0,0 1.77393,-13.45321 2.42443,-20.41184c0.90849,-9.71832 2.5159,-32.4362 2.5159,-32.4362z" fill="#7c674a" stroke="none" stroke-width="0"/></g><path d="M170.13417,141.40463c0,-41.51744 31.47588,-53.35671 70.30334,-53.35671c38.82746,0 70.30334,11.83928 70.30334,53.35671c0,41.51744 -30.38145,50.23995 -69.20891,50.23995c-38.82746,0 -71.39778,-8.72253 -71.39778,-50.23995z" fill="#ffd498" stroke="#000000" stroke-width="2" stroke-linecap="butt"/><path d="M187.35109,137.2757c0,-12.968 10.51265,-23.48065 23.48065,-23.48065c12.968,0 23.48065,10.51265 23.48065,23.48065c0,12.968 -10.51265,23.48065 -23.48065,23.48065c-12.968,0 -23.48065,-10.51265 -23.48065,-23.48065z" fill="#ffffff" stroke="#000000" stroke-width="2" stroke-linecap="butt"/><path d="M194.28314,137.36667c0,-9.12808 7.39976,-16.52784 16.52783,-16.52784c9.12808,0 16.52784,7.39977 16.52784,16.52784c0,9.12808 -7.39977,16.52784 -16.52784,16.52784c-9.12808,0 -16.52783,-7.39977 -16.52783,-16.52784z" fill="#000000" stroke="none" stroke-width="0" stroke-linecap="butt"/><path d="M268.4235,160.75635c-12.968,0 -23.48065,-10.51265 -23.48065,-23.48065c0,-12.968 10.51265,-23.48065 23.48065,-23.48065c12.968,0 23.48065,10.51265 23.48065,23.48065c0,12.968 -10.51265,23.48065 -23.48065,23.48065z" data-paper-data="{&quot;index&quot;:null}" fill="#ffffff" stroke="#000000" stroke-width="2" stroke-linecap="butt"/><path d="M268.71092,153.89452c-9.12807,0 -16.52783,-7.39977 -16.52783,-16.52784c0,-9.12808 7.39977,-16.52784 16.52783,-16.52784c9.12807,0 16.52783,7.39977 16.52783,16.52784c0,9.12808 -7.39977,16.52784 -16.52783,16.52784z" data-paper-data="{&quot;index&quot;:null}" fill="#000000" stroke="none" stroke-width="0" stroke-linecap="butt"/><path d="M195.65544,112.46726c0,0 6.70895,-5.16922 11.79721,-6.36355c5.08827,-1.19433 12.33413,0.69937 12.33413,0.69937c0,0 -8.03812,-0.06028 -11.96762,0.86207c-4.10648,0.96389 -12.16372,4.80211 -12.16372,4.80211z" fill="#000000" stroke="none" stroke-width="0" stroke-linecap="butt"/><path d="M270.25658,106.66516c-3.9295,-0.92235 -11.96762,-0.86207 -11.96762,-0.86207c0,0 7.24586,-1.8937 12.33413,-0.69937c5.08826,1.19433 11.79721,6.36355 11.79721,6.36355c0,0 -8.05724,-3.83822 -12.16372,-4.80211z" data-paper-data="{&quot;index&quot;:null}" fill="#000000" stroke="none" stroke-width="0" stroke-linecap="butt"/><path d="M252.18239,176.46675c0,0 -1.90061,1.05926 -5.5597,1.75306c-2.39248,0.45363 -6.88987,0.64694 -7.40377,0.64694c-0.46383,0 -4.59418,-0.12298 -6.55922,-0.51534c-3.54899,-0.70862 -5.58691,-1.88466 -5.58691,-1.88466" data-paper-data="{&quot;index&quot;:null}" fill="none" stroke="#000000" stroke-width="2" stroke-linecap="round"/><path d="M203.33176,160.1864l-1.83333,4.33333" fill="none" stroke="#000000" stroke-width="2" stroke-linecap="round"/><path d="M216.99843,160.35306l0.16666,5" fill="none" stroke="#000000" stroke-width="2" stroke-linecap="round"/><g fill="none" stroke="#000000" stroke-width="2" stroke-linecap="round"><path d="M277.66509,160.18642l1.83333,4.33333" data-paper-data="{&quot;index&quot;:null}"/><path d="M263.99843,160.35306l-0.16667,5" data-paper-data="{&quot;index&quot;:null}"/></g><path d="M245.86675,100.68527c0,0 -25.82688,-1.18149 -27.37823,-3.02416c-0.91492,-1.08673 13.2175,-3.46297 26.42383,-3.26455c2.03853,0.03063 8.71719,0.44662 14.45743,1.52292c1.59215,0.29853 5.83704,3.08391 3.73865,5.05915c-1.38563,1.30431 -8.82694,2.06738 -9.88833,2.19856c-16.98819,2.09955 -47.34301,-0.19847 -47.34301,-0.19847" fill="none" stroke="#000000" stroke-width="2" stroke-linecap="round"/><path d="M187.30685,137.11811c0,-12.96801 10.51265,-23.48065 23.48066,-23.48065c12.96801,0 23.48065,10.51264 23.48065,23.48065c0,0 -6.95852,-14.64634 -23.43307,-14.78879c-16.22494,-0.14029 -23.52823,15.4054 -23.52823,14.78879z" fill="#ffd498" stroke="#000000" stroke-width="2" stroke-linecap="butt"/><path d="M292.01815,136.86811c0,0.61661 -7.30329,-14.92908 -23.52823,-14.78879c-16.47455,0.14245 -23.43307,14.78879 -23.43307,14.78879c0,-12.96801 10.51264,-23.48065 23.48065,-23.48065c12.96801,0 23.48066,10.51264 23.48066,23.48065z" data-paper-data="{&quot;index&quot;:null}" fill="#ffd498" stroke="#000000" stroke-width="2" stroke-linecap="butt"/></g></g></svg>