<svg version="1.1" xmlns="http://www.w3.org/2000/svg" xmlns:xlink="http://www.w3.org/1999/xlink" width="172.11768" height="276.65371" viewBox="0,0,172.11768,276.65371"><g transform="translate(-150.41031,-46.00649)"><g data-paper-data="{&quot;isPaintingLayer&quot;:true}" fill-rule="nonzero" stroke-linejoin="miter" stroke-miterlimit="10" stroke-dasharray="" stroke-dashoffset="0" style="mix-blend-mode: normal"><g stroke="#000000" stroke-width="2"><path d="M211.59016,263.77046c-9.45061,4.5737 -28.10116,18.40291 -28.10116,18.40291l-2.85125,-5.89152c0,0 19.03073,-14.01321 28.53356,-18.61218c2.88485,-1.39614 11.57052,-0.33486 18.78834,-3.57427c6.26301,-2.81088 15.38652,-14.19454 20.38001,-17.56363c5.7492,-3.87895 6.92959,0.42947 6.92959,0.42947c0,0 -10.66894,14.17543 -23.31153,21.96759c-7.03317,4.33484 -17.37917,3.39538 -20.36756,4.84162z" fill="#e8aa00" stroke-linecap="butt"/><g stroke-linecap="butt"><path d="M203.17012,279.45921l-17.66102,41.79557l-33.65997,-18.29467l25.00209,-37.53222z" fill="#c50c40"/><path d="M151.88261,302.79832c0.80767,-1.48602 9.00928,1.41114 18.31879,6.47098c9.30951,5.05985 16.20161,10.36633 15.39394,11.85236c-0.80767,1.48602 -9.00928,-1.41113 -18.31879,-6.47098c-9.30951,-5.05985 -16.20161,-10.36633 -15.39394,-11.85236z" fill="#8f092f"/><path d="M151.96262,302.83977c0.51126,-0.94065 4.68053,-1.59131 10.45402,0.0232c2.42902,0.67925 7.16952,2.99644 8.77445,3.86873c1.63029,0.88609 6.19814,3.36156 8.21226,4.95202c4.68147,3.69675 6.76392,7.254 6.25606,8.18839c-0.29522,0.54318 -2.68741,-2.04517 -7.36838,-5.32048c-2.15722,-1.50943 -14.01767,-7.8894 -16.37476,-8.69711c-5.54998,-1.90183 -10.14941,-2.65459 -9.95365,-3.01477z" fill="#b64d6b"/></g><path d="M190.01763,283.57641l-8.56342,-4.16226" fill="none" stroke-linecap="round"/><path d="M172.75523,299.94603l5.81353,3.48778" fill="none" stroke-linecap="round"/></g><g stroke-linecap="butt"><path d="M179.05899,313.23151v-267.22501h123.18203v267.22501z" fill-opacity="0.01" fill="#000000" stroke="none" stroke-width="0"/><g stroke="#000000"><path d="M204.0253,306.41901l18.64285,-132.3421l37.78325,-0.15789l16.82389,131.25c0,0 -5.02256,-2.3858 -10.18011,-1.99017c-5.53178,0.42434 -11.30909,3.62731 -13.98201,3.47494c-2.40795,-0.13727 -4.93774,-1.79572 -7.32122,-2.51924c-3.35354,-1.018 -6.22152,-1.16481 -6.34293,-1.17002c-3.74527,-0.16056 -7.96682,3.37713 -11.31307,3.68497c-6.6019,0.60733 -12.74052,-3.61992 -15.75761,-3.59837c-4.53713,0.03241 -8.35303,3.36788 -8.35303,3.36788z" fill="#edf3f5" stroke-width="2"/><path d="M220.67554,202.73164l3.12142,-26.32765l35.83075,-0.14203l2.76735,26.1059c0,0 -7.51543,4.19603 -21.55904,4.50964c-12.48458,0.27879 -20.16049,-4.14586 -20.16049,-4.14586z" fill="#cbd0d1" stroke-width="0"/></g></g><g data-paper-data="{&quot;index&quot;:null}"><g stroke="#000000" stroke-width="2"><path d="M319.73663,71.79369c0.87099,0.71596 -12.25972,65.30486 -21.44611,76.4803c-10.2244,12.43819 -43.90168,-32.84483 -33.67728,-45.28302c3.34008,-4.06327 54.54903,-31.66941 55.1234,-31.19728z" fill="#e90e4b" stroke-linecap="butt"/><path d="M273.51549,133.37229l43.32346,-59.9014l-36.34373,69.69704" fill="#7d0829" stroke-linecap="round"/></g><path d="M316.44175,85.0158c-0.12636,0.03276 0.90537,-12.35481 1.84218,-12.07035c0.23929,0.07266 0.52009,0.53425 0.44464,1.62915c-0.21992,3.1916 -2.15967,10.40825 -2.28682,10.4412z" fill="#770727" stroke="none" stroke-width="0" stroke-linecap="butt"/><path d="M313.84087,75.70862c0.59818,0.77506 -10.61851,6.13248 -10.6327,6.00272c-0.01427,-0.13057 6.04556,-4.50333 8.95175,-5.84074c0.997,-0.4588 1.52817,-0.35995 1.68096,-0.16197z" data-paper-data="{&quot;index&quot;:null}" fill="#770727" stroke="none" stroke-width="0" stroke-linecap="butt"/><path d="M303.21662,93.88689c1.66278,-2.34616 6.08319,-8.59744 6.29735,-8.44566c0.01815,0.01286 -0.10624,0.2626 -0.33856,0.68606c-1.55804,2.83995 -6.96033,14.75828 -7.77532,14.18068c-0.50507,-0.35796 -1.42967,-1.29657 -1.09767,-2.29659c0.3756,-1.13126 1.81244,-2.56989 2.91421,-4.1245z" fill="#620620" stroke="none" stroke-width="0" stroke-linecap="butt"/></g><g><g stroke="#000000" stroke-width="2"><path d="M210.53475,103.32431c10.22441,12.43819 -23.45288,57.72121 -33.67728,45.28303c-9.1864,-11.17544 -22.31711,-75.76434 -21.44612,-76.48031c0.57436,-0.47213 51.78332,27.13402 55.1234,31.19728z" fill="#e90e4b" stroke-linecap="butt"/><path d="M194.65277,143.50127l-36.34373,-69.69705l43.32346,59.9014" fill="#7d0829" stroke-linecap="round"/></g><path d="M158.70622,85.34913c-0.12715,-0.03295 -2.06689,-7.24959 -2.28681,-10.44119c-0.07545,-1.0949 0.20535,-1.55649 0.44464,-1.62915c0.93681,-0.28446 1.96854,12.1031 1.84218,12.07034z" fill="#770727" stroke="none" stroke-width="0" stroke-linecap="butt"/><path d="M161.3071,76.04196c0.15279,-0.19797 0.68395,-0.29683 1.68096,0.16197c2.90619,1.33741 8.96601,5.71018 8.95174,5.84075c-0.01419,0.12976 -11.23088,-5.22766 -10.63269,-6.00272z" data-paper-data="{&quot;index&quot;:null}" fill="#770727" stroke="none" stroke-width="0" stroke-linecap="butt"/><path d="M171.93135,94.22021c1.10177,1.5546 2.53862,2.99323 2.91421,4.12449c0.33201,1.00003 -0.59259,1.93864 -1.09766,2.2966c-0.81499,0.57759 -6.21728,-11.34074 -7.77532,-14.18068c-0.23232,-0.42346 -0.35672,-0.6732 -0.33856,-0.68606c0.21416,-0.15178 4.63458,6.09949 6.29735,8.44565z" fill="#620620" stroke="none" stroke-width="0" stroke-linecap="butt"/></g><path d="M171.97637,140.26612c0.92481,-0.98563 26.43521,-54.50329 26.86465,-54.72962c0.72159,-0.3803 72.28359,-2.2452 76.23108,-0.42149c0.21874,0.10106 28.56569,52.39963 29.1843,52.98632c0.57062,0.54119 -23.06407,56.31439 -23.08932,56.31684c-3.5528,0.34488 -83.32747,0.89041 -84.83858,-1.01716c-0.37687,-0.47574 -24.64877,-52.81875 -24.35213,-53.13489z" data-paper-data="{&quot;index&quot;:null}" fill="#f9d20e" stroke="#000000" stroke-width="2" stroke-linecap="butt"/><path d="M187.49876,137.44465c0,-12.968 10.51265,-23.48065 23.48065,-23.48065c12.968,0 23.48065,10.51265 23.48065,23.48065c0,12.968 -10.51265,23.48065 -23.48065,23.48065c-12.968,0 -23.48065,-10.51265 -23.48065,-23.48065z" fill="#ffffff" stroke="#000000" stroke-width="2" stroke-linecap="butt"/><path d="M194.56413,131.98567c0,-9.12808 7.39976,-16.52784 16.52783,-16.52784c9.12808,0 16.52784,7.39977 16.52784,16.52784c0,9.12808 -7.39977,16.52784 -16.52784,16.52784c-9.12808,0 -16.52783,-7.39977 -16.52783,-16.52784z" fill="#000000" stroke="none" stroke-width="0" stroke-linecap="butt"/><path d="M265.23782,160.92529c-12.968,0 -23.48065,-10.51265 -23.48065,-23.48065c0,-12.968 10.51265,-23.48065 23.48065,-23.48065c12.968,0 23.48065,10.51265 23.48065,23.48065c0,12.968 -10.51265,23.48065 -23.48065,23.48065z" data-paper-data="{&quot;index&quot;:null}" fill="#ffffff" stroke="#000000" stroke-width="2" stroke-linecap="butt"/><path d="M265.25861,149.6635c-9.12807,0 -16.52783,-7.39977 -16.52783,-16.52784c0,-9.12808 7.39977,-16.52784 16.52783,-16.52784c9.12807,0 16.52783,7.39977 16.52783,16.52784c0,9.12808 -7.39977,16.52784 -16.52783,16.52784z" data-paper-data="{&quot;index&quot;:null}" fill="#000000" stroke="none" stroke-width="0" stroke-linecap="butt"/><path d="M200.13647,105.63618c0,0 6.70895,-5.16922 11.79721,-6.36355c5.08827,-1.19433 12.33413,0.69937 12.33413,0.69937c0,0 -8.03812,-0.06028 -11.96762,0.86207c-4.10648,0.96389 -12.16372,4.80211 -12.16372,4.80211z" fill="#000000" stroke="none" stroke-width="0" stroke-linecap="butt"/><path d="M264.0709,100.83408c-3.9295,-0.92235 -11.96762,-0.86207 -11.96762,-0.86207c0,0 7.24586,-1.8937 12.33413,-0.69937c5.08826,1.19433 11.79721,6.36355 11.79721,6.36355c0,0 -8.05724,-3.83822 -12.16372,-4.80211z" data-paper-data="{&quot;index&quot;:null}" fill="#000000" stroke="none" stroke-width="0" stroke-linecap="butt"/><path d="M187.4154,137.53707c0,-12.96801 10.51265,-23.48065 23.48066,-23.48065c12.96801,0 23.48065,10.51264 23.48065,23.48065c0,0 -6.95852,-14.64634 -23.43307,-14.78879c-16.22494,-0.14029 -23.52823,15.4054 -23.52823,14.78879z" fill="#f9d20e" stroke="#000000" stroke-width="2" stroke-linecap="butt"/><path d="M241.75719,137.43705c0,-12.96801 10.51264,-23.48065 23.48065,-23.48065c12.96801,0 23.48066,10.51264 23.48066,23.48065c0,0.60606 -7.87275,-14.38438 -22.92496,-14.781c-15.05221,-0.39662 -24.03635,14.781 -24.03635,14.781z" data-paper-data="{&quot;index&quot;:null}" fill="#f9d20e" stroke="#000000" stroke-width="2" stroke-linecap="butt"/><path d="M250.66339,178.96903c0,0 -1.90061,1.05926 -5.5597,1.75306c-2.39248,0.45363 -6.88987,0.64694 -7.40377,0.64694c-0.46383,0 -4.59418,-0.12298 -6.55922,-0.51534c-3.54899,-0.70862 -5.58691,-1.88466 -5.58691,-1.88466" data-paper-data="{&quot;index&quot;:null}" fill="none" stroke="#000000" stroke-width="2" stroke-linecap="round"/><path d="M193.82863,120.63902l-3.33333,-5.66666" fill="none" stroke="#000000" stroke-width="2" stroke-linecap="round"/><path d="M189.05632,126.67056l-6.12204,-2.3964" fill="none" stroke="#000000" stroke-width="2" stroke-linecap="round"/><g data-paper-data="{&quot;index&quot;:null}" fill="none" stroke="#000000" stroke-width="2" stroke-linecap="round"><path d="M286.60093,115.97236l-3.33333,5.66666"/><path d="M288.03989,127.67056l6.12205,-2.3964"/></g><path d="M284.48291,183.8258c0,0.03765 -1.87045,5.8573 -1.90648,5.91707c-1.05433,1.74886 -1.44313,3.65836 -2.18858,3.79553c-5.49004,1.01022 -26.2322,0.47489 -31.30494,0.47489c-8.49423,0 -39.81955,-0.06342 -51.69545,-0.489c-0.9262,-0.03319 -6.47122,-14.1067 -6.47122,-14.37867c0,-0.31096 1.41114,8.24619 14.64939,11.27811c9.05355,2.07351 45.50254,1.49352 52.83209,1.49092c8.26984,-0.00293 15.79807,-0.87897 20.14928,-2.82346c4.742,-2.11913 5.93591,-5.31955 5.93591,-5.26539z" fill="#8e7709" stroke="none" stroke-width="0" stroke-linecap="butt"/><path d="M208.50984,113.74779c-0.16888,-0.72993 1.54976,-10.3985 2.35158,-10.3985c0.76516,0 2.65408,9.92852 2.50748,10.71544c-0.08189,0.43955 -1.14484,-0.19624 -2.25618,-0.2753c-1.22782,-0.08734 -2.51472,0.33941 -2.60288,-0.04163z" fill="#c30c40" stroke="#000000" stroke-width="2" stroke-linecap="butt"/><path d="M210.61271,161.27812c1.11134,-0.07906 2.1743,-0.71485 2.25618,-0.2753c0.1466,0.78691 -1.74231,10.71544 -2.50748,10.71544c-0.80183,0 -2.52047,-9.66857 -2.35158,-10.3985c0.08816,-0.38104 1.37505,0.04572 2.60288,-0.04163z" data-paper-data="{&quot;index&quot;:null}" fill="#c30c40" stroke="#000000" stroke-width="2" stroke-linecap="butt"/><g data-paper-data="{&quot;index&quot;:null}" fill="#c30c40" stroke="#000000" stroke-width="2" stroke-linecap="butt"><path d="M263.00984,113.74779c-0.16888,-0.72993 1.54976,-10.3985 2.35158,-10.3985c0.76517,0 2.65409,9.92852 2.50748,10.71544c-0.08189,0.43955 -1.14484,-0.19624 -2.25618,-0.2753c-1.22783,-0.08734 -2.51472,0.33941 -2.60288,-0.04163z" data-paper-data="{&quot;index&quot;:null}"/><path d="M265.11268,161.27812c1.11134,-0.07906 2.17429,-0.71485 2.25618,-0.2753c0.14661,0.78691 -1.74231,10.71544 -2.50748,10.71544c-0.80183,0 -2.52047,-9.66857 -2.35158,-10.3985c0.08816,-0.38104 1.37505,0.04572 2.60288,-0.04163z" data-paper-data="{&quot;index&quot;:null}"/></g></g></g></svg>