<svg version="1.1" xmlns="http://www.w3.org/2000/svg" xmlns:xlink="http://www.w3.org/1999/xlink" width="202.00296" height="272.86641" viewBox="0,0,202.00296,272.86641"><g transform="translate(-140.13738,-43.47779)"><g data-paper-data="{&quot;isPaintingLayer&quot;:true}" fill-rule="nonzero" stroke-linejoin="miter" stroke-miterlimit="10" stroke-dasharray="" stroke-dashoffset="0" style="mix-blend-mode: normal"><path d="M180.28206,316.3442v-267.22501h123.18203v267.22501z" fill-opacity="0.01" fill="#000000" stroke="none" stroke-width="0" stroke-linecap="butt"/><path d="M207.74841,309.03171l15.14285,-131.8421l37.78325,-0.15789l13.57389,132z" fill="#ffc98c" stroke="#000000" stroke-width="2" stroke-linecap="butt"/><path d="M217.1273,234.55256l1.81955,-14.45576h45.32077l1.25968,14.00472c0,0 -4.68002,-3.84225 -12.19042,-3.27595c-1.24659,0.094 -1.77005,3.30928 -3.61006,5.05858c-2.85775,2.71686 -7.12602,4.36879 -8.58021,4.38234c-0.59366,0.00553 -5.24197,-1.01361 -7.39759,-2.86222c-3.31818,-2.84561 -4.49605,-6.9719 -5.21348,-7.0195c-6.54919,-0.43454 -11.40823,4.1678 -11.40823,4.1678z" fill="#c59b6c" stroke="none" stroke-width="NaN" stroke-linecap="butt"/><path d="M220.69863,205.64434l3.12142,-26.32765l35.83075,-0.14203l2.76735,26.1059c0,0 -7.51543,4.19603 -21.55904,4.50964c-12.48458,0.27879 -20.16049,-4.14586 -20.16049,-4.14586z" fill="#cca170" stroke="#000000" stroke-width="0" stroke-linecap="butt"/><g stroke-linecap="butt"><path d="M270.90666,198.69837c0,2.30815 -3.18821,22.08962 -5.54022,24.62356c-2.35122,2.53308 -6.36561,-3.93153 -10.01931,-0.61498c-4.82557,4.38029 -9.76615,12.36642 -16.19046,12.36642c-4.20178,0 -6.94663,-9.88432 -10.55794,-12.06768c-4.81002,-2.90809 -7.96365,4.12979 -11.28693,1.75156c-3.77432,-2.70101 -7.15514,-21.29382 -7.15514,-24.30887c0,-7.66295 12.84567,-7.375 29,-7.375c16.15433,0 31.75,-2.03795 31.75,5.625z" fill="#deaf7a" stroke="#000000" stroke-width="2"/><path d="M211.91499,199.36502l-0.43055,-1.34722c0,0 2.30061,-2.10321 5.7274,-3.10961c3.43428,-1.00861 7.99803,-0.92054 11.00417,-1.02956c4.09936,-0.14865 8.9871,0.36715 12.33397,0.28032c0.22267,-0.00577 8.60029,-0.76212 14.35212,-0.53942c3.36286,0.1302 9.74383,0.44438 13.0537,1.68131c1.40779,0.5261 1.98697,2.6753 1.98697,2.6753c0,0 0.58775,2.10701 -0.45337,2.96919c-0.09479,0.0785 -5.70116,1.34507 -13.70615,2.40924c-6.2198,0.82684 -15.1558,1.53149 -15.94565,1.46168c-0.93945,-0.08303 -8.25238,-0.68599 -11.16764,-1.23828c-8.38563,-1.58865 -16.75496,-4.21295 -16.75496,-4.21295z" fill="#cca170" stroke="none" stroke-width="0"/></g><path d="M176.83829,147.0445c0,-24.86961 0.53942,-44.72272 23.43776,-53.94172c7.76386,-3.12578 78.06474,-7.32917 89.64055,3.26571c11.96565,10.95168 15.39573,33.74936 15.39573,50.67601c0,22.27378 -4.86585,44.06016 -24.00215,54.50148c-9.47466,5.16965 -28.48645,5.79685 -40.23487,5.79685c-8.03759,0 -28.39706,-1.05234 -35.48875,-3.58308c-24.21035,-8.6397 -28.74827,-30.95817 -28.74827,-56.71525z" fill="#ffc98c" stroke="#000000" stroke-width="2" stroke-linecap="butt"/><path d="M177.56135,147.09837c0,-0.50023 -2.54161,28.09005 17.86421,45.10631c9.29088,7.74759 27.30231,11.51046 45.49625,11.82798c18.67549,0.32593 34.97207,-4.44756 44.39578,-13.10363c18.61382,-17.09756 19.1178,-44.50707 19.1178,-43.83066c0,19.32927 -3.52722,40.16877 -18.79528,51.01565c-10.64422,7.56197 -30.24998,8.88268 -44.64174,8.88268c-14.94606,0 -35.01822,-1.67303 -45.85983,-9.77002c-14.57239,-10.8833 -17.57719,-31.31805 -17.57719,-50.12831z" fill="#cca170" stroke="#000000" stroke-width="0" stroke-linecap="butt"/><path d="M190.38851,147.474c0,-12.968 10.51265,-23.48065 23.48065,-23.48065c12.968,0 23.48065,10.51265 23.48065,23.48065c0,12.968 -10.51265,23.48065 -23.48065,23.48065c-12.968,0 -23.48065,-10.51265 -23.48065,-23.48065z" fill="#ffffff" stroke="#000000" stroke-width="2" stroke-linecap="butt"/><path d="M197.45389,147.19834c0,-9.12808 7.39976,-16.52784 16.52783,-16.52784c9.12808,0 16.52784,7.39977 16.52784,16.52784c0,9.12808 -7.39977,16.52784 -16.52784,16.52784c-9.12808,0 -16.52783,-7.39977 -16.52783,-16.52784z" fill="#000000" stroke="none" stroke-width="0" stroke-linecap="butt"/><path d="M268.12755,170.95463c-12.968,0 -23.48065,-10.51265 -23.48065,-23.48065c0,-12.968 10.51265,-23.48065 23.48065,-23.48065c12.968,0 23.48065,10.51265 23.48065,23.48065c0,12.968 -10.51265,23.48065 -23.48065,23.48065z" data-paper-data="{&quot;index&quot;:null}" fill="#ffffff" stroke="#000000" stroke-width="2" stroke-linecap="butt"/><path d="M268.015,163.72618c-9.12807,0 -16.52783,-7.39977 -16.52783,-16.52784c0,-9.12808 7.39977,-16.52784 16.52783,-16.52784c9.12807,0 16.52783,7.39977 16.52783,16.52784c0,9.12808 -7.39977,16.52784 -16.52783,16.52784z" data-paper-data="{&quot;index&quot;:null}" fill="#000000" stroke="none" stroke-width="0" stroke-linecap="butt"/><path d="M202.52618,126.16553c0,0 6.70895,-5.16922 11.79721,-6.36355c5.08827,-1.19433 12.33413,0.69937 12.33413,0.69937c0,0 -8.03812,-0.06028 -11.96762,0.86207c-4.10648,0.96389 -12.16372,4.80211 -12.16372,4.80211z" fill="#000000" stroke="none" stroke-width="0" stroke-linecap="butt"/><g><path d="M201.30522,193.22812c0,0 -18.56655,8.23404 -27.58839,9.91235c-8.48446,1.57835 -25.02953,-0.12388 -25.02953,-0.12388c0,0 12.27617,-8.905 17.81415,-13.82266c5.168,-4.58913 14.3806,-14.7659 14.3806,-14.7659c0,0 -13.90264,-0.3226 -20.39407,-1.49943c-6.28839,-1.14 -17.96475,-5.4546 -17.96475,-5.4546c0,0 9.39743,-5.23545 14.69846,-9.24016c6.36575,-4.80906 20.88977,-17.64527 20.88977,-17.64527" data-paper-data="{&quot;index&quot;:null}" fill="#ffc98c" stroke="#000000" stroke-width="2" stroke-linecap="round"/><path d="M152.09828,201.99627c0,0 -0.49936,0.5787 2.66629,-2.57366c1.9687,-1.96045 21.02576,-14.73281 24.41525,-23.74864c0.36789,-0.97859 -5.26261,-1.60665 -9.55563,-2.38171c-9.22913,-1.66622 -25.4911,-4.08147 -25.25578,-6.18466c0.12662,-1.13165 11.96985,-7.65334 16.18424,-10.574c0.85881,-0.59517 11.40167,-8.48931 14.25552,-11.17345c2.23549,-2.10256 3.62439,-3.34858 3.62439,-3.34858c0,0 0.40138,4.16278 -4.52627,8.47698c-6.0044,5.2569 -22.26453,11.71155 -21.45653,15.64208c1.23841,6.02429 31.47538,1.90594 31.17718,6.67223c-0.16717,2.6719 -3.15926,5.80379 -3.77604,6.51821c-7.26686,8.41708 -21.4148,22.56089 -15.56604,21.56824c7.79018,-1.32214 37.22534,-8.96142 37.22534,-8.96142l0.27752,1.63518c0,0 -19.13485,7.09276 -26.77373,8.38922c-8.39306,1.42446 -22.91571,0.044 -22.91571,0.044z" fill="#cca170" stroke="none" stroke-width="0" stroke-linecap="butt"/><path d="M201.30522,193.22812c0,0 -18.56655,8.23404 -27.58839,9.91235c-8.48446,1.57835 -25.02953,-0.12388 -25.02953,-0.12388c0,0 12.27617,-8.905 17.81415,-13.82266c5.168,-4.58913 14.3806,-14.7659 14.3806,-14.7659c0,0 -13.90264,-0.3226 -20.39407,-1.49943c-6.28839,-1.14 -17.96475,-5.4546 -17.96475,-5.4546c0,0 9.39743,-5.23545 14.69846,-9.24016c6.36575,-4.80906 20.88977,-17.64527 20.88977,-17.64527" data-paper-data="{&quot;index&quot;:null}" fill="none" stroke="#000000" stroke-width="2" stroke-linecap="round"/></g><g data-paper-data="{&quot;index&quot;:null}"><path d="M303.99181,136.33306c0,0 14.62041,12.86153 21.02263,17.66866c5.3314,4.0031 14.76948,9.20604 14.76948,9.20604c0,0 -11.65037,4.52736 -17.93313,5.76309c-6.48561,1.27566 -20.39136,1.7749 -20.39136,1.7749c0,0 9.28812,10.22524 14.49058,14.82371c5.5749,4.92767 17.91879,13.8231 17.91879,13.8231c0,0 -16.53944,1.93345 -25.03834,0.43462c-9.0372,-1.59377 -27.66916,-9.72992 -27.66916,-9.72992" data-paper-data="{&quot;index&quot;:null}" fill="#ffc98c" stroke="#000000" stroke-width="2" stroke-linecap="round"/><path d="M307.5244,198.63604c-7.651,-1.22288 -26.84342,-8.19258 -26.84342,-8.19258l0.26607,-1.66465c0,0 29.50057,7.39785 37.30312,8.64495c5.85804,0.9363 -8.3954,-13.25825 -15.72458,-21.71979c-0.62208,-0.71819 -3.63747,-3.86306 -3.82359,-6.57548c-0.33202,-4.83854 29.94577,-1.02757 31.14207,-7.16311c0.78052,-4.00311 -15.53154,-10.36001 -21.57543,-15.62658c-4.96007,-4.32215 -4.58796,-8.55617 -4.58796,-8.55617c0,0 1.39825,1.24875 3.64948,3.35721c2.87394,2.69169 13.47669,10.58152 14.34005,11.17558c4.23667,2.9152 16.1306,9.39468 16.26527,10.5428c0.25028,2.1338 -16.00091,4.78813 -25.22182,6.59474c-4.2892,0.84036 -9.91744,1.54789 -9.54249,2.53752c3.45455,9.11765 22.60928,21.85839 24.59261,23.82577c3.18916,3.16352 2.68552,2.58176 2.68552,2.58176c0,0 -14.5185,1.5816 -22.92489,0.23799z" fill="#cca170" stroke="none" stroke-width="0" stroke-linecap="butt"/><path d="M303.99181,136.33306c0,0 14.62041,12.86153 21.02263,17.66866c5.3314,4.0031 14.76948,9.20604 14.76948,9.20604c0,0 -11.65037,4.52736 -17.93313,5.76309c-6.48561,1.27566 -20.39136,1.7749 -20.39136,1.7749c0,0 9.28812,10.22524 14.49058,14.82371c5.5749,4.92767 17.91879,13.8231 17.91879,13.8231c0,0 -16.53944,1.93345 -25.03834,0.43462c-9.0372,-1.59377 -27.66916,-9.72992 -27.66916,-9.72992" data-paper-data="{&quot;index&quot;:null}" fill="none" stroke="#000000" stroke-width="2" stroke-linecap="round"/></g><g data-paper-data="{&quot;index&quot;:null}"><path d="M231.98471,91.37789c0,0 13.05164,-18.38743 17.97644,-26.42658c4.10109,-6.69452 9.55608,-18.51691 9.55608,-18.51691c0,0 3.75939,14.42576 4.63129,22.2237c0.90006,8.04971 0.68731,25.34326 0.68731,25.34326c0,0 10.26029,-11.71274 14.92551,-18.25597c4.99919,-7.01167 14.13705,-22.50593 14.13705,-22.50593c0,0 1.03071,20.54838 -0.82803,31.14548c-1.97647,11.26829 -10.69927,34.57441 -10.69927,34.57441" data-paper-data="{&quot;index&quot;:null}" fill="#ffc98c" stroke="#000000" stroke-width="2" stroke-linecap="round"/><path d="M291.86398,86.02812c-1.55214,9.53794 -9.18502,33.52349 -9.18502,33.52349l-1.58197,-0.30553c0,0 8.55552,-36.81727 10.13842,-46.54414c1.18842,-7.30278 -13.12241,10.64848 -21.59522,19.89694c-0.71915,0.78499 -3.8827,4.58485 -6.49119,4.85797c-4.65317,0.48722 0.50373,-37.2421 -5.31637,-38.6365c-3.79732,-0.90978 -10.69976,19.48272 -16.04703,27.08308c-4.38836,6.23741 -8.42724,5.83933 -8.42724,5.83933c0,0 1.26614,-1.7588 3.39854,-4.59204c2.72224,-3.61695 10.8099,-16.92952 11.42209,-18.01279c3.00415,-5.31583 9.80449,-20.21327 10.91141,-20.39841c2.05722,-0.34408 3.79306,19.83459 5.06599,31.27937c0.59212,5.32366 0.99037,12.31534 1.95736,11.83367c8.90897,-4.43777 22.07022,-28.46486 24.05413,-30.96261c3.19007,-4.01635 2.60755,-3.38082 2.60755,-3.38082c0,0 0.79399,18.03936 -0.91141,28.51898z" fill="#cca170" stroke="none" stroke-width="0" stroke-linecap="butt"/><path d="M231.98471,91.37789c0,0 13.05164,-18.38743 17.97644,-26.42658c4.10109,-6.69452 9.55608,-18.51691 9.55608,-18.51691c0,0 3.75939,14.42576 4.63129,22.2237c0.90006,8.04971 0.68731,25.34326 0.68731,25.34326c0,0 10.26029,-11.71274 14.92551,-18.25597c4.99919,-7.01167 14.13705,-22.50593 14.13705,-22.50593c0,0 1.03071,20.54838 -0.82803,31.14548c-1.97647,11.26829 -10.69927,34.57441 -10.69927,34.57441" data-paper-data="{&quot;index&quot;:null}" fill="none" stroke="#000000" stroke-width="2" stroke-linecap="round"/></g><g stroke="none" stroke-width="0" stroke-linecap="butt"><path d="M205.40892,181.95879c0,4.86067 -4.2906,8.80102 -9.58333,8.80102c-5.29273,0 -9.58333,-3.94035 -9.58333,-8.80102c0,-4.86067 4.2906,-8.80102 9.58333,-8.80102c5.29273,0 9.58333,3.94035 9.58333,8.80102z" fill="#bd9568"/><path d="M192.724,178.42257c0,0.86412 -0.71643,1.56463 -1.60019,1.56463c-0.88376,0 -1.60019,-0.70051 -1.60019,-1.56463c0,-0.86412 0.71643,-1.56463 1.60019,-1.56463c0.88376,0 1.60019,0.70051 1.60019,1.56463z" fill="#860000"/><path d="M202.68071,179.70272c0,0.86412 -0.71643,1.56463 -1.60019,1.56463c-0.88376,0 -1.60019,-0.70051 -1.60019,-1.56463c0,-0.86412 0.71643,-1.56463 1.60019,-1.56463c0.88376,0 1.60019,0.70051 1.60019,1.56463z" fill="#860000"/><path d="M197.20452,186.9569c0,0.86412 -0.71643,1.56463 -1.60019,1.56463c-0.88376,0 -1.60019,-0.70051 -1.60019,-1.56463c0,-0.86412 0.71643,-1.56463 1.60019,-1.56463c0.88376,0 1.60019,0.70051 1.60019,1.56463z" fill="#860000"/></g><g data-paper-data="{&quot;index&quot;:null}" stroke="none" stroke-width="0" stroke-linecap="butt"><path d="M287.58315,173.1729c4.74045,0 8.58333,3.52918 8.58333,7.88265c0,4.35347 -3.84289,7.88265 -8.58333,7.88265c-4.74045,0 -8.58333,-3.52918 -8.58333,-7.88265c0,-4.35347 3.84289,-7.88265 8.58333,-7.88265z" fill="#bd9568"/><path d="M291.79433,176.487c0.79154,0 1.43321,0.62741 1.43321,1.40136c0,0.77395 -0.64167,1.40136 -1.43321,1.40136c-0.79154,0 -1.43321,-0.62741 -1.43321,-1.40136c0,-0.77395 0.64167,-1.40136 1.43321,-1.40136z" fill="#005387"/><path d="M282.87657,177.63356c0.79154,0 1.43321,0.62741 1.43321,1.40136c0,0.77395 -0.64167,1.40136 -1.43321,1.40136c-0.79154,0 -1.43321,-0.62741 -1.43321,-1.40136c0,-0.77395 0.64167,-1.40136 1.43321,-1.40136z" fill="#005387"/><path d="M287.78132,184.13078c0.79154,0 1.43321,0.62741 1.43321,1.40136c0,0.77395 -0.64167,1.40136 -1.43321,1.40136c-0.79154,0 -1.43321,-0.62741 -1.43321,-1.40136c0,-0.77395 0.64167,-1.40136 1.43321,-1.40136z" fill="#005387"/></g><path d="M190.32183,147.34067c0,-12.968 10.51265,-23.48065 23.48065,-23.48065c12.968,0 23.48065,10.51265 23.48065,23.48065c0,0 -11.81001,3.32743 -22.54591,3.48899c-12.59558,0.18954 -24.4154,-2.82413 -24.4154,-3.48899z" fill="#ffc98c" stroke="#000000" stroke-width="2" stroke-linecap="butt"/><path d="M291.88311,147.14067c0,0.66485 -11.81982,4.01187 -24.4154,3.82232c-10.7359,-0.16156 -22.54591,-3.82232 -22.54591,-3.82232c0,-12.968 10.51265,-23.48065 23.48065,-23.48065c12.968,0 23.48065,10.51265 23.48065,23.48065z" data-paper-data="{&quot;index&quot;:null}" fill="#ffc98c" stroke="#000000" stroke-width="2" stroke-linecap="butt"/><path d="M240.84458,206.46108c-4.15364,0 -7.52083,-7.11522 -7.52083,-12.5c0,-5.38478 3.36719,-9.75 7.52083,-9.75c4.15364,0 7.52083,4.36522 7.52083,9.75c0,5.38478 -3.36719,12.5 -7.52083,12.5z" data-paper-data="{&quot;index&quot;:null}" fill="#000000" stroke="none" stroke-width="0" stroke-linecap="butt"/><path d="M267.96065,122.11343c-3.9295,-0.92235 -11.96762,-0.86207 -11.96762,-0.86207c0,0 7.24586,-1.8937 12.33413,-0.69937c5.08826,1.19433 11.79721,6.36355 11.79721,6.36355c0,0 -8.05724,-3.83822 -12.16372,-4.80211z" data-paper-data="{&quot;index&quot;:null}" fill="#000000" stroke="none" stroke-width="0" stroke-linecap="butt"/></g></g></svg>