<svg version="1.1" xmlns="http://www.w3.org/2000/svg" xmlns:xlink="http://www.w3.org/1999/xlink" width="135.47405" height="310.18722" viewBox="0,0,135.47405,310.18722"><defs><linearGradient x1="240.00003" y1="175.50005" x2="240.00003" y2="307.50005" gradientUnits="userSpaceOnUse" id="color-1"><stop offset="0" stop-color="#000000"/><stop offset="1" stop-color="#e73d3d"/></linearGradient><linearGradient x1="240.12499" y1="256.78441" x2="240.12499" y2="270.68944" gradientUnits="userSpaceOnUse" id="color-2"><stop offset="0" stop-color="#000000"/><stop offset="1" stop-color="#e5e5e5"/></linearGradient><linearGradient x1="229.5" y1="2.56882" x2="229.5" y2="161.5" gradientUnits="userSpaceOnUse" id="color-3"><stop offset="0" stop-color="#000000"/><stop offset="1" stop-color="#f74848"/></linearGradient><linearGradient x1="228.43037" y1="65.85057" x2="228.43037" y2="111.15829" gradientUnits="userSpaceOnUse" id="color-4"><stop offset="0" stop-color="#000000"/><stop offset="1" stop-color="#e86500"/></linearGradient><linearGradient x1="228.96906" y1="2.23544" x2="228.96906" y2="67.65855" gradientUnits="userSpaceOnUse" id="color-5"><stop offset="0" stop-color="#000000"/><stop offset="1" stop-color="#ff8800"/></linearGradient><linearGradient x1="229.4103" y1="84.04784" x2="229.4103" y2="204.64453" gradientUnits="userSpaceOnUse" id="color-6"><stop offset="0" stop-color="#000000"/><stop offset="1" stop-color="#ffffff"/></linearGradient><radialGradient cx="226.12416" cy="172.73849" r="24.46298" gradientUnits="userSpaceOnUse" id="color-7"><stop offset="0" stop-color="#b74a4a"/><stop offset="1" stop-color="#b74a4a" stop-opacity="0"/></radialGradient><linearGradient x1="200.32256" y1="176.71198" x2="200.32256" y2="183.57572" gradientUnits="userSpaceOnUse" id="color-8"><stop offset="0" stop-color="#000000"/><stop offset="1" stop-color="#3f3f3f"/></linearGradient><linearGradient x1="206.86413" y1="177.46168" x2="207.12461" y2="184.32165" gradientUnits="userSpaceOnUse" id="color-9"><stop offset="0" stop-color="#000000"/><stop offset="1" stop-color="#3f3f3f"/></linearGradient><linearGradient x1="213.15463" y1="178.05867" x2="213.74352" y2="184.90313" gradientUnits="userSpaceOnUse" id="color-10"><stop offset="0" stop-color="#000000"/><stop offset="1" stop-color="#3f3f3f"/></linearGradient><linearGradient x1="219.74216" y1="178.3788" x2="220.59048" y2="185.20249" gradientUnits="userSpaceOnUse" id="color-11"><stop offset="0" stop-color="#000000"/><stop offset="1" stop-color="#3f3f3f"/></linearGradient><linearGradient x1="226.65447" y1="178.62804" x2="227.42781" y2="185.45851" gradientUnits="userSpaceOnUse" id="color-12"><stop offset="0" stop-color="#000000"/><stop offset="1" stop-color="#3f3f3f"/></linearGradient><linearGradient x1="233.24881" y1="178.81276" x2="234.28094" y2="185.61713" gradientUnits="userSpaceOnUse" id="color-13"><stop offset="0" stop-color="#000000"/><stop offset="1" stop-color="#3f3f3f"/></linearGradient><linearGradient x1="259.83934" y1="177.08698" x2="259.83934" y2="183.95072" gradientUnits="userSpaceOnUse" id="color-14"><stop offset="0" stop-color="#000000"/><stop offset="1" stop-color="#3f3f3f"/></linearGradient><linearGradient x1="253.29777" y1="177.83668" x2="253.03729" y2="184.69665" gradientUnits="userSpaceOnUse" id="color-15"><stop offset="0" stop-color="#000000"/><stop offset="1" stop-color="#3f3f3f"/></linearGradient><linearGradient x1="247.00727" y1="178.43367" x2="246.41838" y2="185.27813" gradientUnits="userSpaceOnUse" id="color-16"><stop offset="0" stop-color="#000000"/><stop offset="1" stop-color="#3f3f3f"/></linearGradient><linearGradient x1="240.41974" y1="178.7538" x2="239.57142" y2="185.57749" gradientUnits="userSpaceOnUse" id="color-17"><stop offset="0" stop-color="#000000"/><stop offset="1" stop-color="#3f3f3f"/></linearGradient><linearGradient x1="199.76066" y1="211.57855" x2="199.76066" y2="204.71482" gradientUnits="userSpaceOnUse" id="color-18"><stop offset="0" stop-color="#000000"/><stop offset="1" stop-color="#3f3f3f"/></linearGradient><linearGradient x1="206.09389" y1="212.64704" x2="206.35437" y2="205.78707" gradientUnits="userSpaceOnUse" id="color-19"><stop offset="0" stop-color="#000000"/><stop offset="1" stop-color="#3f3f3f"/></linearGradient><linearGradient x1="213.23114" y1="213.30567" x2="212.67467" y2="206.45914" gradientUnits="userSpaceOnUse" id="color-20"><stop offset="0" stop-color="#000000"/><stop offset="1" stop-color="#3f3f3f"/></linearGradient><linearGradient x1="219.63514" y1="213.98041" x2="219.33879" y2="207.12155" gradientUnits="userSpaceOnUse" id="color-21"><stop offset="0" stop-color="#000000"/><stop offset="1" stop-color="#3f3f3f"/></linearGradient><linearGradient x1="227.14967" y1="213.90938" x2="226.06632" y2="207.11107" gradientUnits="userSpaceOnUse" id="color-22"><stop offset="0" stop-color="#000000"/><stop offset="1" stop-color="#3f3f3f"/></linearGradient><linearGradient x1="233.59117" y1="214.20634" x2="232.76642" y2="207.38045" gradientUnits="userSpaceOnUse" id="color-23"><stop offset="0" stop-color="#000000"/><stop offset="1" stop-color="#3f3f3f"/></linearGradient><linearGradient x1="240.76435" y1="214.0007" x2="239.13255" y2="207.28633" gradientUnits="userSpaceOnUse" id="color-24"><stop offset="0" stop-color="#000000"/><stop offset="1" stop-color="#3f3f3f"/></linearGradient><linearGradient x1="247.2138" y1="213.89918" x2="245.8377" y2="207.14132" gradientUnits="userSpaceOnUse" id="color-25"><stop offset="0" stop-color="#000000"/><stop offset="1" stop-color="#3f3f3f"/></linearGradient><linearGradient x1="254.3142" y1="213.1843" x2="252.12953" y2="206.59068" gradientUnits="userSpaceOnUse" id="color-26"><stop offset="0" stop-color="#000000"/><stop offset="1" stop-color="#3f3f3f"/></linearGradient><linearGradient x1="260.73829" y1="212.67544" x2="258.80504" y2="206.02229" gradientUnits="userSpaceOnUse" id="color-27"><stop offset="0" stop-color="#000000"/><stop offset="1" stop-color="#3f3f3f"/></linearGradient></defs><g transform="translate(-161.67327,2.68717)"><g data-paper-data="{&quot;isPaintingLayer&quot;:true}" fill-rule="nonzero" stroke-linejoin="miter" stroke-miterlimit="10" stroke-dasharray="" stroke-dashoffset="0" style="mix-blend-mode: normal"><g stroke="none" stroke-width="0" stroke-linecap="butt"><path d="M206.75003,307.50004l15.14285,-131.8421l37.78325,-0.15789l13.57389,132z" fill="url(#color-1)"/><path d="M210.70833,265.86771l1.6827,-8.3c0,0 6.06283,5.05378 15.65317,6.71685c3.86372,0.67002 24.00266,0.38985 28.19096,-0.45865c8.21866,-1.665 11.67208,-7.04153 11.67208,-7.04153l1.63442,10.16667c0,0 -2.76294,1.50031 -10.03035,2.90649c-5.85614,1.13311 -30.90348,0.95799 -34.53934,0.36572c-9.56101,-1.55745 -14.26364,-4.35554 -14.26364,-4.35554z" fill="url(#color-2)"/></g><g stroke="none"><g stroke-width="0"><g stroke-linecap="butt"><path d="M297,135.47918c0,19.27264 -30.22078,26.02087 -67.5,26.02087c-37.27922,0 -67.5,-6.74822 -67.5,-26.02086c0,-12.27296 14.62819,-57.30477 28.9325,-88.18972c5.64377,-12.18565 -2.36959,-44.11378 -1.41186,-43.54739c2.96324,1.75241 18.7372,8.30013 28.13496,15.93973c5.23901,4.25889 10.13824,18.37042 11.20154,18.37042c4.14888,0 3.66062,-10.85757 12.35781,-17.99612c9.15437,-7.51379 23.55299,-17.77559 23.86117,-17.48109c1.26058,1.20463 -4.04796,17.4155 0.00943,33.19949c9.08954,35.36001 31.91444,91.25615 31.91444,99.7047z" fill="url(#color-3)"/><path d="M182.76563,65.85057c1.61243,0.15116 3.22486,0.30233 4.83729,0.4535c7.01199,0.65738 13.95191,0.96127 20.9919,1.13052c6.99798,0.16824 13.99595,0.33649 20.99393,0.50473c7.00571,0.16842 14.00172,0.21688 21.00938,0.21747c7,0.00059 14,0.00118 21,0.00178c1.01284,0.00008 2.01694,-0.0108 3.01457,-0.0324c4.96528,14.86387 10.4114,29.98004 14.65933,42.22639c-5.23374,0.18971 -10.48025,0.24445 -15.70891,0.39748c-6.99581,0.20475 -13.98027,0.40936 -20.9793,0.40825c-7,-0.0011 -14,-0.00221 -21,-0.00332c-6.99947,-0.0011 -13.98032,-0.23435 -20.97561,-0.46782c-6.99476,-0.23345 -13.98996,-0.4501 -20.98253,-0.74232c-6.98661,-0.29197 -13.98975,-0.46912 -20.9677,-0.92235c-0.35766,-0.02323 -0.71404,-0.04736 -1.06927,-0.07198c3.8709,-12.98024 9.30498,-28.52361 15.17692,-43.09993z" fill="url(#color-4)"/><path d="M190.9325,47.65027c5.64377,-12.3748 -2.36959,-44.79853 -1.41186,-44.22335c2.96324,1.77961 18.7372,8.42897 28.13496,16.18715c5.23901,4.32499 10.13824,18.65557 11.20154,18.65557c4.14888,0 3.66062,-11.02611 12.35781,-18.27546c9.15437,-7.63042 23.55299,-18.05152 23.86117,-17.75245c1.26058,1.22334 -4.04796,17.68583 0.00943,33.71482c2.41012,9.52137 5.78593,20.50898 9.44588,31.6758c-0.88841,0.01747 -1.78227,0.02626 -2.68323,0.02618c-7,-0.0006 -14,-0.00121 -21,-0.00181c-6.99967,-0.0006 -13.9877,-0.0497 -20.98543,-0.22055c-6.99798,-0.17086 -13.99595,-0.3417 -20.99393,-0.51256c-7.01708,-0.17132 -13.93346,-0.47853 -20.92258,-1.14393c-1.51319,-0.14406 -3.02638,-0.28813 -4.53957,-0.43219c2.46382,-6.1722 4.99986,-12.15871 7.52581,-17.69723z" fill="url(#color-5)"/></g><path d="M201.75,18.71332l10.5,17.75" fill="none" stroke-linecap="round"/><path d="M245.25,44.71331l10.5,-17.75" data-paper-data="{&quot;index&quot;:null}" fill="none" stroke-linecap="round"/></g><path d="M182.90016,1.13405c0.78779,0.32825 1.6602,0.72609 1.76876,0.76495c6.53431,2.35415 12.73875,5.4626 19.23699,7.89944c6.76899,2.53838 12.85792,4.17701 18.13387,9.49101c3.54901,3.57865 6.11101,7.50307 8.11175,11.94783c1.86706,-3.66567 3.92361,-7.33007 6.69813,-10.60851c4.50101,-5.3086 9.89562,-9.80521 14.81141,-14.70666c3.36602,-3.35387 7.16456,-5.75377 11.27773,-7.86073c1.00765,-0.51617 3.8329,-1.35322 4.80017,-0.06934c0.11865,0.15749 0.09438,1.99278 0.09438,2.29236c0,6.88654 -2,13.40833 -2,20.33334c0,6.77778 0,13.55556 0,20.33334c0,2.91344 -0.11019,5.83638 0.35024,8.72034c0.30126,1.88694 1.12618,3.66701 1.31399,5.56372c0.21474,2.1686 0.34489,4.77663 -2.48868,4.39234c-1.49249,-3.65089 -2.04799,-7.68365 -3.68262,-11.23976c-0.71184,-1.54859 -2.4188,-3.286 -3.15104,-4.93131c0.05951,1.93796 0.41374,3.84171 0.65494,5.77186c0.68366,6.76662 1.14465,13.60424 2.17862,20.32506c0.74941,4.91692 3.15919,9.06748 3.15688,14.16764c-0.00083,1.84242 0.45192,5.87869 -2.1859,4.91698c-1.71666,-3.24207 -3.0577,-6.86031 -3.8034,-10.58883c-0.21486,-1.07434 -0.69124,-6.11781 -1.96062,-5.31072c-1.41695,0.87342 -3.1089,3.85146 -4.91786,3.7114c-1.36433,-0.10563 -1.34365,-2.01702 -1.64468,-3.03593c-1.09609,-3.70996 -1.56728,-6.65937 -3.56596,-10.05536c-1.11715,-1.39273 -2.21809,-3.33651 -3.92434,-4.07874c-3.7765,-1.64281 -10.74752,0.7903 -14.04592,2.62273c-5.94961,3.30531 -11.49515,7.18117 -16.72401,11.5386c-5.2253,4.35442 -10.02323,9.18221 -15.05272,13.7554c-3.23296,2.93964 -6.5706,5.68507 -10.13315,8.21961c-2.57743,1.83369 -4.39355,3.24348 -7.60121,2.17599c-0.17437,-1.61479 0.40793,-2.78887 0.5632,-4.35697c0.14141,-1.42815 -0.41137,-3.20789 0.2347,-4.52541c0.14225,-0.29007 -0.34141,0.55332 -0.56068,0.79058c-0.66263,0.71703 -1.29191,1.49854 -1.89631,2.26228c-1.24869,1.57789 -4.52858,3.63318 -4.78015,0.18848c0.01524,-6.57331 3.29413,-13.76098 6.21794,-19.51835c3.37482,-6.0046 6.34611,-11.69253 8.25186,-18.36263c1.83112,-6.40891 1.19688,-13.15086 1.19688,-19.78569c0,-6.7649 -0.64405,-13.6387 -2.02898,-20.27197c-0.33527,-3.3294 -1.07715,-7.12155 -2.48283,-10.18896c-0.18539,-0.40455 -0.99768,-1.2716 -1.45206,-2.04454c-1.01854,-0.5746 -1.75623,-1.29094 -0.799,-1.91985c0.66786,-0.4388 1.32921,0.40964 1.82969,1.27499z" fill="#000000" stroke-width="0.5" stroke-linecap="butt"/></g><path d="M161.67327,144.34617c0,-17.48597 10.94013,-30.23354 24.56777,-41.24733c12.32605,-9.96185 26.48695,-19.051 43.33592,-19.051c21.6572,0 40.05338,8.18461 52.65745,23.69517c8.04293,9.89762 14.91291,23.96395 14.91291,36.9365c0,33.30185 -32.09323,59.96499 -67.57036,59.96499c-10.78843,0 -20.29477,-3.24647 -29.69293,-7.65757c-21.50712,-10.09454 -38.21076,-29.46586 -38.21076,-52.64076z" fill="url(#color-6)" stroke="none" stroke-width="2" stroke-linecap="butt"/><path d="M250.45273,172.73849c0,11.23366 -10.89227,20.34033 -24.32857,20.34033c-13.4363,0 -24.32857,-9.10667 -24.32857,-20.34033c0,-11.23365 10.89228,-20.34034 24.32858,-20.34034c13.4363,0 24.32857,9.10668 24.32857,20.34034z" fill="url(#color-7)" stroke="none" stroke-width="0" stroke-linecap="butt"/><path d="M222.13244,166.54376c0.43959,-2.80927 1.56102,-0.13813 3.7532,-0.92469c3.24798,-1.16539 4.20109,2.55456 6.47652,3.09659c0.37175,0.08856 -1.98645,-3.08162 -1.77145,-3.43306c2.08143,-3.19359 5.48475,-2.36622 7.02505,2.24256c0.81207,2.42983 0.1675,-3.99664 0.84272,-1.33946c0.85128,3.35007 2.32428,5.94155 3.84799,8.47685c5.72492,5.4768 13.32441,1.40769 19.45493,-0.6746c5.99932,-2.03764 13.98805,-5.21064 19.15743,-10.72195c0.92778,-0.97083 4.33661,-5.52053 5.40614,-3.91386c0.95628,1.43654 -0.15332,6.79006 0.53578,7.50385c0.40798,0.4226 0.83437,-0.80667 1.28178,-1.1013c1.61242,-1.06178 6.77071,-6.57654 4.63708,0.60882c-2.21377,10.96477 -8.64314,17.82312 -13.75729,25.10616c-2.02961,2.88793 -3.53237,6.43832 -5.31946,9.69672c-2.83943,5.17714 -6.16691,9.48388 -9.34387,14.04334c-6.27695,4.00438 -11.111,8.77027 -18.02512,8.77027c-6.88387,0 -13.8265,-0.56994 -20.66666,-0.54989c-7.06818,0 -13.35851,-1.78551 -20.22523,-4.13726c-2.06752,-0.71149 -3.60887,-2.42179 -5.52723,-3.64517c-4.35011,-2.77413 -9.50353,-5.51113 -12.89399,-11.08864c-4.81773,-7.94763 -10.11876,-15.43181 -13.9604,-24.83869c-1.78868,-4.38646 -4.77645,-9.12445 -5.949,-14.04971c-0.21062,-0.88471 -0.60683,-4.45111 -0.13103,-5.23603c0.1823,-0.30074 2.00345,-0.24158 2.35356,-0.24158c1.6721,0 3.3442,-0.00029 5.0163,0.00043c2.11417,0.22759 3.89769,1.50486 5.3524,4.11647c0.88248,1.58431 2.12187,4.62675 3.44287,5.26658c0.82036,0.39734 1.59045,-0.31966 2.42978,0.35581c0.64287,0.51735 -1.1141,-1.48255 -1.64328,-2.27644c-1.0263,-1.53969 -2.16429,-2.44035 -2.938,-4.38348c-1.88621,-1.84716 -1.66339,-9.12791 1.19796,-7.41567c1.88933,1.13058 2.55349,6.37369 3.99419,8.60413c2.03996,3.15818 4.45368,4.01783 6.82638,6.19963c2.41248,2.23442 5.5792,3.82964 8.32142,3.82964c0.86246,0 2.56014,0.53419 3.33907,-0.34817c0.44118,-0.49977 0.0748,-3.20072 0.23561,-3.65973c0.84966,-2.42534 3.4545,-0.42022 4.50541,0.16935c2.49758,-0.02892 5.95784,1.24682 7.98168,-1.56193c2.24046,-3.10938 0.32257,2.65215 2.79795,0.49554c0,0 1.72733,-3.20112 1.93887,-3.04139z" fill="#000000" stroke="none" stroke-width="0.5" stroke-linecap="butt"/><path d="M178.89015,144.77567c0,-12.968 10.51265,-23.48065 23.48065,-23.48065c12.968,0 23.48065,10.51265 23.48065,23.48065c0,12.968 -10.51265,23.48065 -23.48065,23.48065c-12.968,0 -23.48065,-10.51265 -23.48065,-23.48065z" fill="#ff0000" stroke="none" stroke-width="2" stroke-linecap="butt"/><path d="M246.95441,166.20002c-8.21821,-3.00278 -13.8058,-11.84996 -13.8058,-21.42435c0,-12.968 10.51265,-23.48065 23.48065,-23.48065c12.968,0 23.48065,10.51265 23.48065,23.48065c0,9.54202 -4.12033,17.65999 -12.29396,20.67947c-1.52099,0.56188 -5.53666,2.52732 -10.18066,2.69718c-4.31639,0.15788 -9.27767,-1.43959 -10.68088,-1.9523z" data-paper-data="{&quot;index&quot;:null}" fill="#ff0000" stroke="none" stroke-width="2" stroke-linecap="butt"/><path d="" fill="#000000" stroke="none" stroke-width="0.5" stroke-linecap="butt"/><path d="M179.1287,147.81716c0.43515,0.01507 45.23836,0.1947 46.41361,0.08003c-1.40593,11.61354 -11.23026,20.60922 -23.14065,20.60922c-12.41175,0 -22.55811,-8.36895 -23.27296,-20.68924z" data-paper-data="{&quot;index&quot;:null}" fill="#ff4242" stroke="none" stroke-width="2" stroke-linecap="butt"/><path d="M185.95554,144.5c0,-9.12808 7.39976,-16.52784 16.52783,-16.52784c9.12808,0 16.52784,7.39977 16.52784,16.52784c0,9.12808 -7.39977,16.52784 -16.52784,16.52784c-9.12808,0 -16.52783,-7.39977 -16.52783,-16.52784z" fill="#000000" stroke="none" stroke-width="0" stroke-linecap="butt"/><path d="M205.77515,144.8909c0,1.933 -1.53798,3.5 -3.43519,3.5c-1.8972,0 -3.43519,-1.567 -3.43519,-3.5c0,-1.933 1.53798,-3.5 3.43519,-3.5c1.8972,0 3.43519,1.567 3.43519,3.5z" fill="none" stroke="#ff0000" stroke-width="2.5" stroke-linecap="butt"/><path d="M279.79231,148.06716c-0.71485,12.32029 -10.86121,20.68924 -23.27296,20.68924c-11.91039,0 -21.73472,-8.99568 -23.14065,-20.60922c1.17525,0.11467 45.97846,-0.06496 46.41361,-0.08003z" data-paper-data="{&quot;index&quot;:null}" fill="#ff4242" stroke="none" stroke-width="2" stroke-linecap="butt"/><path d="M256.51668,161.02785c-9.12807,0 -16.52783,-7.39977 -16.52783,-16.52784c0,-9.12808 7.39977,-16.52784 16.52783,-16.52784c9.12807,0 16.52783,7.39977 16.52783,16.52784c0,9.12808 -7.39977,16.52784 -16.52783,16.52784z" data-paper-data="{&quot;index&quot;:null}" fill="#000000" stroke="none" stroke-width="0" stroke-linecap="butt"/><path d="M264.88163,145.19923c0,4.57016 -3.63623,8.275 -8.12176,8.275c-4.48553,0 -8.12176,-3.70484 -8.12176,-8.275c0,-4.57016 3.63623,-8.275 8.12176,-8.275c4.48553,0 8.12176,3.70484 8.12176,8.275z" fill="none" stroke="#ff0000" stroke-width="2.5" stroke-linecap="butt"/><path d="M269,92.11772c0,1.01252 -0.74619,1.83333 -1.66667,1.83333c-0.92048,0 -1.66667,-0.82081 -1.66667,-1.83333c0,-1.01252 0.74619,-1.83334 1.66667,-1.83334c0.92048,0 1.66667,0.82082 1.66667,1.83334z" fill="#000000" stroke="none" stroke-width="0" stroke-linecap="butt"/><path d="M293.16718,162.31333c0,0.73638 -0.59695,1.33333 -1.33333,1.33333c-0.73638,0 -1.33333,-0.59695 -1.33333,-1.33333c0,-0.73638 0.59695,-1.33334 1.33333,-1.33334c0.73638,0 1.33333,0.59696 1.33333,1.33334z" fill="#000000" stroke="none" stroke-width="0" stroke-linecap="butt"/><g stroke="none" stroke-width="0" stroke-linecap="butt"><g><path d="M203.88463,178.14248c-0.61396,0.63207 -3.60126,5.43323 -3.60126,5.43323c0,0 -3.01454,-5.47789 -3.68657,-6.21489c1.42086,-0.03958 6.32463,0.75587 7.28783,0.78166z" data-paper-data="{&quot;index&quot;:null}" fill="url(#color-8)"/><path d="M210.47854,178.78844c-0.58963,0.64946 -3.39309,5.53434 -3.39309,5.53434c0,0 -3.22078,-5.38775 -3.92041,-6.10493c1.41859,-0.08063 6.34985,0.57265 7.3135,0.57059z" data-paper-data="{&quot;index&quot;:null}" fill="url(#color-9)"/></g><g><path d="M216.82943,179.25239c-0.558,0.67041 -3.125,5.65331 -3.125,5.65331c0,0 -3.47607,-5.26552 -4.20944,-5.95655c1.41348,-0.13232 6.37174,0.34046 7.33444,0.30324z" data-paper-data="{&quot;index&quot;:null}" fill="url(#color-10)"/><path d="M223.46025,179.46565c-0.53225,0.68617 -2.90874,5.74052 -2.90874,5.74052c0,0 -3.674,-5.16217 -4.43319,-5.83161c1.40768,-0.1731 6.38115,0.15611 7.34192,0.09109z" data-paper-data="{&quot;index&quot;:null}" fill="url(#color-11)"/></g><g><path d="M230.36045,179.74594c-0.53976,0.68168 -2.97165,5.71594 -2.97165,5.71594c0,0 -3.61712,-5.19265 -4.36893,-5.86842c1.40952,-0.16132 6.37915,0.20947 7.34059,0.15248z" data-paper-data="{&quot;index&quot;:null}" fill="url(#color-12)"/><path d="M236.99519,179.82293c-0.5136,0.69691 -2.75311,5.79869 -2.75311,5.79869c0,0 -3.8122,-5.08526 -4.58924,-5.73892c1.40262,-0.20197 6.3836,0.02498 7.34234,-0.05976z" data-paper-data="{&quot;index&quot;:null}" fill="url(#color-13)"/></g><g><g data-paper-data="{&quot;index&quot;:null}"><path d="M263.56511,177.73582c-0.67202,0.73701 -3.68657,6.21489 -3.68657,6.21489c0,0 -2.98731,-4.80117 -3.60126,-5.43323c0.9632,-0.02579 5.86697,-0.82124 7.28783,-0.78166z" data-paper-data="{&quot;index&quot;:null}" fill="url(#color-14)"/><path d="M256.99687,178.59285c-0.69963,0.71717 -3.92041,6.10493 -3.92041,6.10493c0,0 -2.80346,-4.88487 -3.39309,-5.53434c0.96365,0.00206 5.89491,-0.65122 7.3135,-0.57059z" data-paper-data="{&quot;index&quot;:null}" fill="url(#color-15)"/></g><g data-paper-data="{&quot;index&quot;:null}"><path d="M250.66691,179.32415c-0.73338,0.69102 -4.20944,5.95655 -4.20944,5.95655c0,0 -2.567,-4.9829 -3.125,-5.65331c0.9627,0.03722 5.92096,-0.43556 7.33444,-0.30324z" data-paper-data="{&quot;index&quot;:null}" fill="url(#color-16)"/><path d="M244.04357,179.74956c-0.75919,0.66944 -4.43318,5.83161 -4.43318,5.83161c0,0 -2.37648,-5.05435 -2.90874,-5.74052c0.96077,0.06502 5.93424,-0.26419 7.34192,-0.09109z" data-paper-data="{&quot;index&quot;:null}" fill="url(#color-17)"/></g></g></g><g stroke="none" stroke-width="0" stroke-linecap="butt"><g><g><path d="M196.03489,210.92971c0.67202,-0.73701 3.68657,-6.2149 3.68657,-6.2149c0,0 2.36229,6.61935 2.97625,7.25142c-0.9632,0.02579 -5.24195,-0.99694 -6.66282,-1.03652z" data-paper-data="{&quot;index&quot;:null}" fill="url(#color-18)"/><path d="M202.3948,211.89087c0.69962,-0.71717 3.9204,-6.10493 3.9204,-6.10493c0,0 2.69929,6.24851 3.28893,6.89798c-0.96365,-0.00206 -5.79074,-0.71241 -7.20933,-0.79305z" data-paper-data="{&quot;index&quot;:null}" fill="url(#color-19)"/></g><g><path d="M209.46211,212.88851c0.61059,-0.77666 3.17347,-6.42695 3.17347,-6.42695c0,0 2.89303,6.4569 3.55669,7.04946c-0.9587,0.08521 -5.30965,-0.67076 -6.73016,-0.62251z" data-paper-data="{&quot;index&quot;:null}" fill="url(#color-20)"/><path d="M215.884,213.45455c0.63972,-0.75858 3.41562,-6.3317 3.41562,-6.3317c0,0 3.19912,6.06617 3.83994,6.6776c-0.96141,0.05745 -5.834,-0.35306 -7.25556,-0.34589z" data-paper-data="{&quot;index&quot;:null}" fill="url(#color-21)"/></g></g><g><path d="M223.35701,213.71461c0.5493,-0.81077 2.67049,-6.59883 2.67049,-6.59883c0,0 3.38456,6.27228 4.09242,6.82451c-0.94995,0.14134 -5.34934,-0.35728 -6.76291,-0.22568z" data-paper-data="{&quot;index&quot;:null}" fill="url(#color-22)"/><path d="M229.80799,213.90206c0.57976,-0.79444 2.91945,-6.51801 2.91945,-6.51801c0,0 3.6598,5.86445 4.34632,6.43685c-0.95479,0.11381 -5.84799,-0.0095 -7.26577,0.08116z" data-paper-data="{&quot;index&quot;:null}" fill="url(#color-23)"/></g><g><path d="M236.9654,214.04061c0.48218,-0.84265 2.1288,-6.74718 2.1288,-6.74718c0,0 3.88459,6.04756 4.63546,6.5547c-0.93611,0.19964 -5.3649,-0.02608 -6.76426,0.19248z" data-paper-data="{&quot;index&quot;:null}" fill="url(#color-24)"/><path d="M243.41542,213.82926c0.51389,-0.82825 2.38369,-6.68195 2.38369,-6.68195c0,0 4.12609,5.62376 4.8573,6.15233c-0.94317,0.17247 -5.83411,0.35163 -7.24099,0.52962z" data-paper-data="{&quot;index&quot;:null}" fill="url(#color-25)"/></g><g><path d="M250.52854,213.46419c0.411,-0.87091 1.56333,-6.86401 1.56333,-6.86401c0,0 4.37622,5.78618 5.16719,6.24454c-0.91709,0.25827 -5.35298,0.31305 -6.73053,0.61947z" data-paper-data="{&quot;index&quot;:null}" fill="url(#color-26)"/><path d="M256.94408,212.84576c0.44382,-0.85855 1.82297,-6.81506 1.82297,-6.81506c0,0 4.58191,5.34824 5.35506,5.82921c-0.92638,0.23163 -5.78961,0.71941 -7.17803,0.98585z" data-paper-data="{&quot;index&quot;:null}" fill="url(#color-27)"/></g></g></g></g></svg>