<svg version="1.1" xmlns="http://www.w3.org/2000/svg" xmlns:xlink="http://www.w3.org/1999/xlink" width="256.80055" height="437.9749" viewBox="0,0,256.80055,437.9749"><defs><linearGradient x1="192.09995" y1="113.87743" x2="211.66541" y2="138.7329" gradientUnits="userSpaceOnUse" id="color-1"><stop offset="0" stop-color="#000000"/><stop offset="1" stop-color="#7ebb78"/></linearGradient><linearGradient x1="197.39639" y1="128.35709" x2="218.4397" y2="146.27695" gradientUnits="userSpaceOnUse" id="color-2"><stop offset="0" stop-color="#000000"/><stop offset="1" stop-color="#7ebb78"/></linearGradient><linearGradient x1="202.86497" y1="134.13807" x2="227.71448" y2="145.38351" gradientUnits="userSpaceOnUse" id="color-3"><stop offset="0" stop-color="#000000"/><stop offset="1" stop-color="#7ebb78"/></linearGradient><linearGradient x1="264.22604" y1="70.35835" x2="278.57093" y2="208.48102" gradientUnits="userSpaceOnUse" id="color-4"><stop offset="0" stop-color="#000000"/><stop offset="1" stop-color="#f5d7d7"/></linearGradient><linearGradient x1="263.86935" y1="70.09082" x2="278.21424" y2="208.2135" gradientUnits="userSpaceOnUse" id="color-5"><stop offset="0" stop-color="#000000"/><stop offset="1" stop-color="#c88989"/></linearGradient><linearGradient x1="243.1496" y1="94.50785" x2="243.1496" y2="316.59794" gradientUnits="userSpaceOnUse" id="color-6"><stop offset="0" stop-color="#000000"/><stop offset="1" stop-color="#d93838"/></linearGradient><linearGradient x1="235.83005" y1="95.66409" x2="235.83005" y2="142.90102" gradientUnits="userSpaceOnUse" id="color-7"><stop offset="0" stop-color="#000000"/><stop offset="1" stop-color="#f5d7d7"/></linearGradient><linearGradient x1="248.60249" y1="95.66411" x2="248.60249" y2="142.49396" gradientUnits="userSpaceOnUse" id="color-8"><stop offset="0" stop-color="#000000"/><stop offset="1" stop-color="#f5b4b4"/></linearGradient><linearGradient x1="218.69271" y1="95.66411" x2="218.69271" y2="141.11135" gradientUnits="userSpaceOnUse" id="color-9"><stop offset="0" stop-color="#000000"/><stop offset="1" stop-color="#f5b4b4"/></linearGradient><linearGradient x1="245.74134" y1="-65.61076" x2="226.91875" y2="3.67543" gradientUnits="userSpaceOnUse" id="color-10"><stop offset="0" stop-color="#000000"/><stop offset="1" stop-color="#7ebb78"/></linearGradient><linearGradient x1="231.41727" y1="-63.61076" x2="250.23986" y2="5.67543" gradientUnits="userSpaceOnUse" id="color-11"><stop offset="0" stop-color="#000000"/><stop offset="1" stop-color="#7ebb78"/></linearGradient><linearGradient x1="240.60475" y1="-6.64564" x2="240.60475" y2="120.92192" gradientUnits="userSpaceOnUse" id="color-12"><stop offset="0" stop-color="#000000"/><stop offset="1" stop-color="#fa4242"/></linearGradient><linearGradient x1="263.40384" y1="-34.51964" x2="319.74512" y2="138.83133" gradientUnits="userSpaceOnUse" id="color-13"><stop offset="0" stop-color="#000000"/><stop offset="1" stop-color="#7ebb78"/></linearGradient><linearGradient x1="256.46669" y1="7.75477" x2="256.46669" y2="146.39701" gradientUnits="userSpaceOnUse" id="color-14"><stop offset="0" stop-color="#000000"/><stop offset="1" stop-color="#7ebb78"/></linearGradient><linearGradient x1="198.0355" y1="-18.56351" x2="171.35932" y2="69.2224" gradientUnits="userSpaceOnUse" id="color-15"><stop offset="0" stop-color="#000000"/><stop offset="1" stop-color="#7ebb78"/></linearGradient><linearGradient x1="187.35578" y1="-4.68513" x2="187.35578" y2="110.11947" gradientUnits="userSpaceOnUse" id="color-16"><stop offset="0" stop-color="#000000"/><stop offset="1" stop-color="#7ebb78"/></linearGradient><linearGradient x1="238.11081" y1="63.70658" x2="238.11081" y2="77.03991" gradientUnits="userSpaceOnUse" id="color-17"><stop offset="0" stop-color="#5c1818" stop-opacity="0"/><stop offset="1" stop-color="#5c1818"/></linearGradient></defs><g transform="translate(-122.28657,121.3049)"><g data-paper-data="{&quot;isPaintingLayer&quot;:true}" fill-rule="nonzero" stroke-linejoin="miter" stroke-miterlimit="10" stroke-dasharray="" stroke-dashoffset="0" style="mix-blend-mode: normal"><g stroke="none" stroke-width="0" stroke-linecap="butt"><path d="M211.66541,138.7329c-7.45135,7.58785 -28.87785,9.81171 -29.96856,8.4261c-0.64262,-0.81637 2.17745,-24.90523 10.4031,-33.28157c9.3361,-9.50712 21.28438,-11.65007 26.68723,-4.78643c5.40285,6.86365 2.21433,20.13478 -7.12177,29.6419z" fill="url(#color-1)"/><path d="M218.4397,146.27695c-5.3388,9.19354 -23.76466,17.22462 -24.93776,16.22564c-0.69116,-0.58857 -1.99912,-23.99661 3.89445,-34.14549c6.6892,-11.51896 16.82257,-16.84542 22.63352,-11.89699c5.81095,4.94843 5.09898,18.29788 -1.59021,29.81684z" fill="url(#color-2)"/><path d="M227.71448,145.38351c-3.37314,10.10888 -20.07086,22.64094 -21.45614,22.01405c-0.81617,-0.36936 -7.11703,-22.10018 -3.39337,-33.2595c4.22635,-12.66581 13.21523,-20.4161 20.07723,-17.31075c6.862,3.10535 8.99863,15.89039 4.77228,28.55621z" fill="url(#color-3)"/></g><g stroke="none" stroke-linecap="butt"><g data-paper-data="{&quot;index&quot;:null}" stroke-width="0"><path d="M295.80447,115.31117c1.10895,10.67772 11.30464,68.70208 26.61125,108.16651c14.50819,37.40586 54.48862,75.62699 53.8389,75.70124c-24.67511,2.81966 -145.57315,-116.51227 -149.53438,-154.65379c-3.96123,-38.14152 12.83068,-71.34712 37.50579,-74.16678c24.67511,-2.81966 27.6172,6.8113 31.57843,44.95282z" fill="url(#color-4)"/><g fill="url(#color-5)"><path d="M322.05904,223.21017c0.4109,1.05942 0.84224,2.11949 1.29251,3.17933c-2.21765,2.63072 -4.4417,5.25611 -6.67328,7.87582c-3.96462,4.65418 -7.88209,9.34594 -11.95799,13.89998c-11.96011,-11.51813 -23.967,-24.01732 -34.86598,-36.39607c4.44027,-4.31357 9.08368,-8.44707 13.58894,-12.67983c5.41229,-5.08493 11.63865,-9.45134 17.45919,-14.06459c2.48937,-1.97302 4.98072,-3.94353 7.47304,-5.91282c3.86625,15.11803 8.47952,30.68079 13.68357,44.09819z"/><path d="M375.89794,298.9114c-8.04321,0.91911 -26.31039,-11.14074 -47.41881,-29.13687c3.59367,-3.61433 7.19275,-7.22316 10.79643,-10.82769c0.58115,-0.58128 1.16186,-1.16269 1.74201,-1.74442c16.50266,23.51196 35.32785,41.65784 34.88037,41.70898z"/><path d="M295.44779,115.04366c0.19663,1.8933 0.67895,5.27517 1.42479,9.77821c-5.24469,2.21501 -10.45962,4.5056 -15.69129,6.7476c-6.86144,2.94042 -13.29196,7.05812 -19.80283,10.70796c-6.54043,3.66641 -13.01159,7.43207 -19.46772,11.2448c-3.42163,2.02067 -6.84108,4.02473 -10.28509,5.98637c-2.97825,-5.88464 -4.82665,-11.05833 -5.26208,-15.25098c-1.50404,-14.48196 -0.01621,-28.25233 3.75901,-39.91804c3.94104,-0.84427 7.86317,-1.7739 11.80712,-2.70826c7.28469,-1.72581 14.44433,-4.05349 21.62875,-6.15736c7.24246,-1.90626 14.50546,-3.74917 21.72328,-5.74661c2.08797,-0.57782 4.17389,-1.16594 6.26069,-1.75154c1.61985,6.74475 2.71673,15.62273 3.90538,27.06785z"/></g></g><path d="M351.83358,263.9653c1.62637,2.16514 3.42196,3.94786 5.22165,6.10611c4.10612,4.92419 7.7848,10.11869 11.97574,14.97145c2.36649,2.74019 7.28611,6.65552 8.36539,10.22742c0.69232,2.29124 2.13984,5.08443 0.88936,7.12536c-0.91431,1.49227 -3.52462,0.28369 -5.25027,-0.00777c-3.68818,-0.62293 -6.76706,-3.59429 -9.69261,-5.68396c-5.40614,-3.93412 -10.95847,-7.79077 -16.33333,-11.66667c-2.59206,-1.86917 -4.61046,-4.72162 -7.11248,-6.75267c-4.71479,-3.82731 -10.54237,-6.21153 -14.86019,-10.50766c-2.35024,-2.33844 -4.44724,-4.94194 -6.50766,-7.52685c-0.85883,-1.07745 -2.31385,-1.83559 -2.65099,-3.17157c-0.57524,-2.27948 -1.65229,-5.45321 0.07087,-7.05248c0.67692,-0.62826 6.57287,1.46729 8.88378,2.28797c-0.8133,-1.03081 -1.5066,-2.16566 -2.01289,-3.36842c-1.81296,-4.30687 -1.67701,-14.75799 4.94626,-15.40862c6.47181,-0.63575 7.15309,5.88994 7.84422,10.43558c0.99405,6.53795 2.53474,12.97734 8.55529,16.75766c0.52162,0.32753 1.11222,0.41033 1.73375,0.37532c0.22697,-0.4188 0.62838,-0.81155 1.31,-1.0842c1.30895,-0.52358 2.17502,-0.01376 2.68146,0.53044c0.75426,0.11544 1.91866,0.56547 2.07008,2.23108c0.04276,0.47038 -0.01142,0.85996 -0.12745,1.1825z" fill="#000000" stroke-width="0.5"/></g><g stroke="none" stroke-width="0" stroke-linecap="butt"><path d="M197.89961,316.59792l20.60794,-221.82442l51.41931,-0.26565l18.47274,222.09009z" fill="url(#color-6)"/><path d="M269.84736,94.57992l18.8075,222.09009l-36.00904,-0.00001c0.2516,-0.51191 0.45843,-0.9315 0.52253,-1.10891c0.73517,-2.03948 3.58291,-5.91647 1.42471,-8.02902c-0.43195,-0.42281 -1.82757,0.31333 -1.80626,-0.28528c0.00339,-0.0952 1.38508,-1.88452 1.52842,-2.27686c0.96722,-2.64755 1.00442,-5.28826 1.00408,-8.05478c-0.01105,-1.27685 0.58006,-4.58576 -0.85882,-5.30613c-1.05355,-0.52745 -2.39916,0.61016 -3.20536,0.90728c-0.82425,0.30377 -2.0675,0.08619 -2.97952,0.33412c-0.83655,0.22742 -2.5576,0.90364 -3.21398,-0.13808c-0.5765,-0.91495 0.06419,-4.57446 0.05892,-5.74234c-0.0061,-0.33854 -0.00239,-2.19281 -0.19387,-2.35609c-1.16161,-0.99054 -2.35724,0.6596 -3.26914,0.95292c-1.57825,0.50767 -3.27645,0.52882 -4.91036,1.07732c-0.38037,0.12769 -4.20301,1.0477 -4.27375,0.50333c-0.06813,-0.52424 2.83552,-3.83775 3.33746,-4.50786c4.20645,-5.61581 7.30115,-12.67376 7.27853,-19.66176c-0.00513,-1.58073 0.84848,-6.24762 -1.80493,-5.38063c-1.59793,0.52212 -4.18823,4.06547 -4.90827,5.47125c-0.10839,0.21162 -1.41836,2.81749 -1.55212,2.47825c-0.28901,-0.733 0.13328,-2.80176 0.13328,-3.6627c0,-3.66389 -0.03453,-7.32976 0.01455,-10.99334c0.0143,-1.06712 -0.31795,-2.84778 0.02663,-3.84563c0.56368,-1.63234 2.60981,-3.25264 3.5109,-4.78529c0.70198,-1.19633 1.51738,-2.26852 2.40781,-3.26784c0.67775,-0.59501 1.31007,-1.25027 1.90498,-1.95034c1.68002,-1.59285 3.50555,-3.0726 5.2799,-4.70191c2.09038,-1.91951 4.16416,-2.44197 4.16152,-5.4407c-0.04986,-1.53876 -0.87514,-2.20098 -2.04852,-2.45749c0.05976,-2.41725 0.60368,-5.90067 -0.33714,-8.11616c-0.97443,-2.29464 -3.71198,-2.86653 -5.51027,-4.46273c-1.50979,-1.34012 -1.28752,-3.44927 -1.19577,-5.22903c0.05678,-1.21832 0.31252,-2.48264 0.64956,-3.75988c0.05679,-0.02976 0.11268,-0.06052 0.16763,-0.09231c1.85611,-1.07406 0.23286,-3.33214 2.20798,-3.66734c5.21167,-4.94795 12.49543,-9.73022 10.66769,-17.59104c-1.79411,-0.70208 -2.21176,-2.12426 -4.27497,-2.7401c-3.18827,-0.95165 -6.60859,-0.89498 -9.89518,-1.96861c-0.28195,-0.09211 -2.63011,-0.44362 -2.71105,-0.5506c-0.25048,-0.33107 0.51778,-2.04924 0.68221,-2.35765c1.55065,-2.98627 3.0503,-5.90658 4.54356,-8.92318c1.6843,-3.40252 4.24572,-6.3492 3.86741,-10.37692c-0.11803,-1.18109 0.11749,-2.49283 -1.25291,-3.09587c-0.39642,-0.17444 -2.48423,0.29121 -2.78014,-0.15578c-0.80143,-1.2106 0.69933,-4.21177 1.11335,-5.33113c1.08906,-2.94441 1.1022,-5.9856 0.97638,-9.0707c-0.0141,-0.34495 -0.05355,-2.16492 -0.23758,-2.3388c-0.92059,-0.86984 -3.95119,0.6019 -4.79508,-0.81677c-0.41052,-0.69013 0.89615,-2.81713 1.05046,-3.49256c0.75291,-3.29544 0.98079,-6.58303 0.92835,-9.97875c-0.03956,-2.51076 -0.56171,-4.69023 -1.74818,-6.92709c-0.41747,-0.78705 -1.97536,-2.31277 -1.92853,-3.21776c0.03212,-0.6207 0.58854,-1.10719 0.78219,-1.69887c0.83693,-2.55708 1.18103,-5.12231 2.18646,-7.65046c0.7888,-1.98344 1.18309,-4.03964 1.42616,-6.1244z" fill="#000000"/></g><g stroke="none" stroke-width="0" stroke-linecap="butt"><path d="M278.85008,108.45435c0,16.7447 -38.58415,36.10426 -38.87849,36.10426c-2.40888,0 -7.33187,-2.70742 -9.87832,-3.13086c-16.56616,-2.75472 -35.67652,-14.9043 -35.67652,-29.65824c0,-17.02181 22.92467,-16.00606 41.00482,-16.00606c18.08015,0 43.42852,-4.33093 43.42852,12.69089z" fill="url(#color-7)"/><g><path d="M240.95023,142.49396c-0.00055,-0.01953 -0.0011,-0.0391 -0.00167,-0.05863c-0.20513,-7.22939 -0.36693,-14.44813 -0.497,-21.69166c-0.12957,-7.21579 -0.03692,-14.50101 -0.03692,-21.72656c0,-1.09719 -0.00275,-2.19473 -0.00537,-3.29208c6.15369,-0.08163 11.79902,-0.20587 16.40736,0.57222c-0.01576,3.74812 0.00581,7.50339 0.00581,11.24952c0,7.25192 0,14.50386 0,21.7558c0,1.96413 0,3.92823 0,5.89237c-4.46651,3.71912 -9.91398,6.33659 -15.87222,7.29904z" fill="url(#color-8)"/><path d="M212.00027,132.22923c0,-4.50943 0,-9.01889 0,-13.52833c0,-7.24388 0,-14.48774 0,-21.73162c3.55799,-1.10312 8.04011,-1.31171 13.11787,-1.30504c-0.03296,3.29078 -0.07712,6.58145 -0.12734,9.87989c-0.11025,7.24212 -0.08218,14.54222 -0.0137,21.78782c0.04415,4.6708 0.22117,9.2147 0.40804,13.77937c-5.17876,-1.81982 -9.75932,-4.93065 -13.38487,-8.8821z" fill="url(#color-9)"/></g><path d="M268.56705,110.52633c0,17.02181 -14.85347,32.37469 -32.93362,32.37469c-18.08014,0 -32.54038,-15.35288 -32.54038,-32.37469c0,-17.02181 14.24836,-14.76286 32.32851,-14.76286c18.08015,0 33.14549,-2.25895 33.14549,14.76286z" fill="none"/></g><g stroke="none" stroke-width="0" stroke-linecap="butt"><path d="M223.7564,-82.3688c12.43958,7.35904 52.7803,20.27979 61.63445,41.3361c15.36322,36.53574 -14.27825,75.39962 -34.09671,71.746c-0.02378,-0.00438 12.97795,-17.88865 2.9985,-33.90497c-7.58508,-12.17353 -37.14455,-20.25556 -45.20645,-36.10605c-16.56355,-32.56557 -3.11258,-78.84213 -2.38672,-81.51408c1.38183,-5.08656 3.92969,30.67717 17.05692,38.44301z" data-paper-data="{&quot;index&quot;:null}" fill="url(#color-10)"/><path d="M270.45912,-118.8118c0.72587,2.67194 14.17684,48.94851 -2.38671,81.51408c-8.0619,15.85049 -37.62136,23.93253 -45.20645,36.10606c-9.97944,16.01632 3.02228,33.90059 2.9985,33.90498c-19.81846,3.65362 -49.45993,-35.21026 -34.09671,-71.746c8.85414,-21.05631 49.19488,-33.97707 61.63446,-41.3361c13.12723,-7.76583 15.67508,-43.52957 17.05692,-38.443z" fill="url(#color-11)"/></g><g stroke="none" stroke-width="0" stroke-linecap="butt"><path d="M305.10474,42.003c0,23.22848 -21.14987,65.27975 -49.89849,76.24573c-4.50431,1.71814 -9.19515,2.67319 -14.02042,2.67319c-35.62236,0 -65.08108,-52.05102 -65.08108,-78.91892c0,-26.8679 28.87764,-48.64864 64.5,-48.64864c35.62237,0 64.5,21.78074 64.5,48.64865z" fill="url(#color-12)"/><path d="M305.10474,41.83634c0,23.22848 -21.14987,65.27975 -49.89849,76.24573c-4.50431,1.71814 -9.19515,2.67319 -14.02042,2.67319c-4.94315,0 -15.00265,-0.89826 -21.63329,-5.1542c-0.92198,-0.59178 -5.62838,-2.33465 -9.10959,-5.64834c-5.29118,-5.03656 -10.04479,-12.39181 -12.46024,-14.51702c1.18954,0.06952 5.64976,-0.54294 6.18854,-1.07781c0.3176,-0.3153 11.2188,3.79978 11.76969,3.79978c3.34636,0 1.19293,-0.2361 4.53912,-0.2721c1.87383,-0.33424 6.79867,4.79954 7.65469,3.27441c1.78581,-3.18168 4.45466,-7.34902 6.97648,-10.08029c1.38451,-1.49951 3.33363,-2.3783 4.38358,-4.11253c2.72848,-3.71602 4.55356,-6.79678 2.46257,-11.35303c-0.48155,-1.04928 -2.69765,-3.01281 -2.82628,-3.92516c-0.09981,-0.7079 1.41121,-2.42436 1.41353,-3.56812c-0.01005,-1.6615 0.14168,-3.60725 -0.60403,-5.15442c-0.26487,-0.54955 -0.80122,-0.9944 -0.89303,-1.59751c-0.3933,-2.5836 2.13016,-6.91394 0.30602,-9.07776c-0.73924,-0.87691 -3.13822,-1.82063 -4.202,-2.35072c1.17448,-2.052 3.09609,-3.853 1.90607,-6.4121c-0.61693,-1.32669 -2.51217,-1.40857 -3.03252,-2.50442c-0.44983,-0.94733 1.68893,-3.27464 2.02941,-4.0965c0.66992,-1.61707 0.49903,-3.45128 0.47151,-5.15324c-0.08957,-1.62704 -1.54746,-2.95058 -1.3084,-4.62175c0.20541,-1.43593 2.23296,-2.39027 3.10581,-3.42921c2.78967,-3.3205 3.12933,-7.07593 0.03299,-10.27895c-0.87474,-1.39131 -1.35809,-0.79677 -2.60667,-1.48234c-1.21663,-0.66803 -2.80273,-2.00737 -3.80371,-2.99976c-1.45716,-1.44466 -1.03952,-5.35725 0.20102,-6.87006c0.92027,-1.12224 3.17707,-0.68444 4.40529,-0.68444c2.2775,-0.24641 1.5,-2.56175 1.5,-4.5c0,-1.22752 0,-2.45506 0,-3.68258c0.8467,-0.02485 1.69759,-0.03739 2.55236,-0.03739c35.62237,0 64.5,21.78074 64.5,48.64865z" fill="#000000"/></g><path d="M190.03976,55.62359c0,-12.968 10.51265,-23.48065 23.48065,-23.48065c12.968,0 23.48065,10.51265 23.48065,23.48065c0,12.968 -10.51265,23.48065 -23.48065,23.48065c-12.968,0 -23.48065,-10.51265 -23.48065,-23.48065z" fill="#ff0000" stroke="none" stroke-width="2" stroke-linecap="butt"/><path d="M190.27687,59.0727c1.25206,0.04455 45.95431,0.59617 46.2126,0.62024c-0.51423,3.48577 -1.14834,6.30024 -3.04203,9.21768c-4.24825,6.54493 -11.74714,10.2393 -19.77722,10.2393c-11.87745,0 -22.06545,-8.38944 -23.39336,-20.07721z" data-paper-data="{&quot;index&quot;:null}" fill="#ff5d5d" stroke="none" stroke-width="2" stroke-linecap="butt"/><path d="M202.43848,56.34789c0,-5.99847 4.86271,-10.86118 10.86117,-10.86118c5.99847,0 10.86118,4.86272 10.86118,10.86118c0,5.99847 -4.86272,10.86117 -10.86118,10.86117c-5.99847,0 -10.86116,-4.86271 -10.86116,-10.86117z" fill="#000000" stroke="none" stroke-width="0" stroke-linecap="butt"/><path d="M215.46108,56.51188c0,0.98622 -0.86345,1.78571 -1.92857,1.78571c-1.06512,0 -1.92857,-0.79949 -1.92857,-1.78571c0,-0.98622 0.86345,-1.78571 1.92857,-1.78571c1.06512,0 1.92857,0.79949 1.92857,1.78571z" fill="#ff0000" stroke="none" stroke-width="0" stroke-linecap="butt"/><g><g><path d="M310.28121,-5.95215c0.6483,1.99472 24.39117,72.25253 35.97407,86.70543c14.27648,17.81391 32.91232,34.4429 32.83158,34.47503c-0.43408,0.17266 -23.11843,4.19135 -40.00071,-0.40633c-17.90239,-4.8755 -30.19312,-18.57529 -35.56792,-25.50114c-22.23258,-28.64838 -35.39428,-58.82792 -52.81975,-69.59439c-2.79365,-1.72608 -10.21994,-5.02574 -14.5714,-0.75208c-8.0057,7.86257 -25.54995,9.15753 -25.71311,8.65548c-7.68759,-23.65319 16.37116,-47.58449 44.40196,-58.73366c28.03081,-11.14918 47.77769,1.4985 55.46528,25.15169z" fill="url(#color-13)" stroke="none" stroke-width="0" stroke-linecap="butt"/><path d="M232.89733,-2.7774c0,0 29.67857,-16.13922 46.35515,-0.89082c8.62385,7.8853 32.796,62.42056 50.87404,92.67782c8.06841,13.50413 22.40409,17.8134 22.40409,17.8134" fill="none" stroke="#000000" stroke-width="0.5" stroke-linecap="round"/></g><g><path d="M296.02279,41.19201c0,1.59533 0.95562,58.0418 8.20078,71.54052c8.93001,16.63782 22.85232,33.66448 22.75637,33.66448c-0.5158,0 -25.75934,-3.54391 -41.95105,-11.55573c-17.17011,-8.49593 -25.41763,-21.66069 -28.70461,-28.07977c-13.59641,-26.55225 -17.58963,-62.52036 -32.24325,-75.05409c-2.34927,-2.00941 -9.14786,-4.51169 -15.18814,-2.71076c-11.11276,3.3133 -22.93995,13.41244 -22.93995,13.01092c0,-18.9173 27.00132,-34.25278 60.30912,-34.25278c33.3078,0 49.76074,14.51995 49.76074,33.43725z" fill="url(#color-14)" stroke="none" stroke-width="0" stroke-linecap="butt"/><path d="M213.51126,21.64187c0,0 36.74818,-3.06991 49.08104,12.42707c6.37761,8.01385 13.16187,53.44615 21.8365,79.96753c3.87158,11.83676 17.48231,18.92697 17.48231,18.92697" fill="none" stroke="#000000" stroke-width="0.5" stroke-linecap="round"/></g></g><g><g data-paper-data="{&quot;index&quot;:null}"><path d="M203.71296,-16.32894c18.53119,7.29367 30.60299,22.91653 26.96311,34.89464c-0.07726,0.25424 -4.71428,-8.73026 -10.25948,-13.26163c-3.01406,-2.46299 -7.27801,-2.36733 -8.97168,-1.60945c-10.56433,4.72732 -25.83269,21.17987 -38.50614,35.01499c-3.06385,3.34469 -7.17542,14.60142 -18.36291,16.22103c-10.55001,1.52732 -31.03677,-10.60233 -31.32375,-10.71529c-0.0419,-0.01649 14.15476,5.67189 23.37673,2.00945c0.93829,-0.37264 12.5341,-6.82127 16.40858,-15.72889c6.5644,-15.09188 11.01551,-32.56526 11.20853,-33.20047c3.63988,-11.97811 10.93582,-20.91804 29.46701,-13.62437z" fill="url(#color-15)" stroke="none" stroke-width="0" stroke-linecap="butt"/><path d="M148.66053,50.76517c0,0 8.93672,-1.50895 13.36823,-8.156c9.92922,-14.89333 22.44537,-42.17469 27.53557,-45.85237c9.8433,-7.1118 29.69791,2.87904 29.69791,2.87904" fill="none" stroke="#000000" stroke-width="0.5" stroke-linecap="round"/></g><g data-paper-data="{&quot;index&quot;:null}"><path d="M194.78066,-4.68513c24.23471,0 43.88083,12.69876 43.88083,28.36349c0,0.33249 -8.60545,-8.03024 -16.69108,-10.77386c-4.3949,-1.49128 -9.34155,0.58077 -11.05087,2.24469c-10.66195,10.37872 -22.65668,36.61601 -32.54941,58.60296c-2.3916,5.31541 -3.19862,20.35438 -15.69157,27.38956c-11.78107,6.6343 -40.01657,1.88455 -40.39187,1.88455c-0.05479,0 18.54705,0.11768 28.01901,-8.40005c0.96372,-0.86663 12.21954,-13.73019 13.58345,-25.91623c2.31082,-20.64637 1.30783,-43.10292 1.30783,-43.93365c0,-15.66473 5.34896,-29.46148 29.58367,-29.46148z" fill="url(#color-16)" stroke="none" stroke-width="0" stroke-linecap="butt"/><path d="M154.29047,98.99562c0,0 9.90315,-5.87114 12.72011,-15.67274c6.31166,-21.9614 11.24788,-59.58223 15.88821,-66.2182c8.97337,-12.83248 35.71129,-10.29041 35.71129,-10.29041" fill="none" stroke="#000000" stroke-width="0.5" stroke-linecap="round"/></g></g><path d="M224.11081,77.03991c0,0 5.69746,-3.59388 7.89817,-6.08979c2.34561,-2.66026 4.2685,-9.41021 4.2685,-9.41021c0,0 4.5,0.76255 4.5,1.5c0,2.07127 4.16667,14.33333 4.16667,14.33333c0,0 -2.55787,-2.36359 -4.16844,-2.38936c-3.58307,-0.05733 -16.6649,2.05603 -16.6649,2.05603z" fill="url(#color-17)" stroke="none" stroke-width="0" stroke-linecap="butt"/><path d="M244.27748,74.70658c0,3.95804 -1.9401,7.16666 -4.33333,7.16666c-2.39324,0 -4.33334,-3.20862 -4.33334,-7.16666c0,-3.95804 1.9401,-7.16666 4.33334,-7.16666c2.39324,0 4.33333,3.20862 4.33333,7.16666z" fill="#000000" stroke="none" stroke-width="0" stroke-linecap="butt"/><path d="M241.94415,69.53991c0,1.56481 -0.67157,2.83333 -1.5,2.83333c-0.82843,0 -1.5,-1.26852 -1.5,-2.83333c0,-1.56481 0.67157,-2.83334 1.5,-2.83334c0.82843,0 1.5,1.26853 1.5,2.83334z" fill="#000000" stroke="none" stroke-width="0" stroke-linecap="butt"/><path d="M244.22314,87.03772c0.01874,0.20611 -0.05559,0.33466 -0.14915,0.41454c0.14252,0.0535 0.35596,0.19047 0.31401,0.52607c-0.06202,0.49614 -0.55816,0.43412 -0.55816,0.43412c-0.44971,-0.05637 -1.0813,-0.0254 -1.72277,-0.00941c-0.01111,0.01627 -0.0223,0.03255 -0.03357,0.04883c0.11095,1.93646 -0.41481,4.29603 -1.35788,6.19996c0.00627,0.03163 0.00956,0.06434 0.00956,0.09781c0,0.05938 -0.01035,0.11635 -0.02935,0.16919l-0.16298,0.48893l-0.19085,-0.06362c-0.13757,0.23398 -0.2819,0.45814 -0.43249,0.67047c-0.12702,0.21206 -0.26322,0.41824 -0.39569,0.61818l0.11136,0.08352l-0.49651,0.66201c-0.09098,0.12409 -0.23783,0.20466 -0.40349,0.20466c-0.0688,0 -0.13435,-0.0139 -0.19401,-0.03903c-1.75779,2.50923 -3.48237,5.49181 -5.82233,7.4257c-2.24189,1.85284 -4.25656,1.28162 -5.26843,-0.85804c-0.76824,0.54146 -1.55081,0.87641 -2.13538,0.55099c0.04084,0.7584 0.10877,1.50926 0.21524,2.24769l0.02525,0.17672c0,0 0.07071,0.49497 -0.42427,0.56569c-0.49498,0.07071 -0.56569,-0.42426 -0.56569,-0.42426l-0.02524,-0.17672c-0.23739,-1.67629 -0.28488,-3.41069 -0.26812,-5.15237c-0.21329,-0.0571 -0.37036,-0.25172 -0.37036,-0.48303c0,-0.13807 0.05596,-0.26307 0.14645,-0.35355l0.24138,-0.24138c0.02413,-1.10887 0.06378,-2.21644 0.08659,-3.30962c-0.03588,-0.86536 -0.01804,-1.70573 -0.04779,-2.15189c-0.30837,-4.62467 -0.26792,-9.23479 -0.26792,-13.86881c0,-0.33702 0,-0.67403 0,-1.01105c-0.01364,-0.15117 -0.02579,-0.30284 -0.03522,-0.4537c-0.14661,0.09572 -0.29477,0.18879 -0.44436,0.27902l0.06141,0.07018l-0.59704,0.52241c-0.26172,0.36659 -0.44411,0.75198 -0.48981,1.16385c0,0 -0.03412,0.23883 -0.22085,0.36099c-0.27742,1.31588 -0.64283,3.61148 -1.39709,4.02189c-2.3868,1.29872 -1.13612,-6.59049 -3.74058,-3.08943c-0.18177,0.24434 -0.36807,0.48906 -0.50669,0.76021c-0.27694,0.54167 -0.31054,0.8268 -0.42822,1.3611c-0.13881,0.63029 -0.2407,1.26998 -0.30231,1.91242c-0.63341,6.53936 0.34627,13.54071 -1.33847,19.90981c-0.66956,0.3626 -1.95202,1.09273 -2.50161,-0.07178c-0.33417,-0.70807 -0.05916,-2.43931 -0.05916,-3.23593c0,-2.37677 -0.5129,-4.87624 -0.37704,-7.21308c0.02033,-0.34955 -0.03584,0.70712 -0.14203,1.04077c-0.30319,0.95264 -0.57733,1.91117 -0.85385,2.87184c-0.63389,1.76538 -2.88394,2.46451 -2.96042,-0.03287c-0.1444,-4.71482 1.50805,-9.79886 0.447,-14.41159c-0.44286,-1.31705 -1.03848,-3.83886 -2.23936,-4.68279c-1.12241,-0.78879 -2.83572,-0.66486 -4.10598,-1.29586c-1.84459,-0.91631 -3.78368,-2.68577 -5.07613,-4.46863l-0.04576,0.04576l-0.5,-0.5c-0.09048,-0.09048 -0.14644,-0.21549 -0.14644,-0.35356c0,-0.27614 0.22386,-0.5 0.5,-0.5h0.5c1.68274,0.01484 3.34105,0.90782 4.91658,1.45641c6.47457,2.25848 11.70731,1.80627 18.06576,-0.08786c1.80271,-0.90645 3.77179,-1.6797 5.7709,-2.02876c1.22077,-0.21316 2.93672,-0.17964 2.37703,1.51417c-0.18903,0.57208 -0.51536,1.00666 -0.91784,1.35995c0.16993,0.07986 0.28758,0.25257 0.28758,0.45276c0,0.03714 -0.00405,0.07335 -0.01174,0.10818l-0.16464,0.82321l-0.0998,-0.01996c-0.05954,1.70684 -0.44937,3.55106 -0.85152,5.33031c-0.10569,2.55515 -0.15923,5.10617 -0.18475,7.65892c0.05537,1.3802 0.18788,2.90341 -0.02073,4.26768c-0.00011,0.16609 -0.00017,0.33219 -0.00017,0.49833v0.66667c0,0.27614 -0.22386,0.5 -0.5,0.5c0,0.78175 0,1.5635 0,2.34525c0.26692,-0.28743 0.53824,-0.58428 0.81392,-0.88718c0.10946,-0.29382 0.3004,-0.57245 0.63106,-0.8538c0.0017,-0.0073 0.00344,-0.01463 0.0052,-0.022c0.65145,-1.30976 1.73888,-2.63404 2.87726,-3.71693c-0.08188,-0.73689 -0.04159,-1.45162 0.56688,-2.02079c0.29378,-0.27481 1.03968,-0.18624 1.69842,-0.11172c0.29574,-0.21565 0.59979,-0.41216 0.91187,-0.58529c0.26898,-0.32695 0.53458,-0.6425 0.79336,-0.94464c0.01743,-0.1458 0.03388,-0.2791 0.05552,-0.38734c0.20223,-0.80785 0.25554,-1.64462 1.25479,-1.88588c0.06986,-0.01687 0.28325,0.04758 0.52237,0.11533c0.50015,-0.58146 1.03029,-1.13859 1.61446,-1.54508c0.01501,-0.01045 0.03027,-0.02081 0.04577,-0.03108c0.07898,-0.11396 0.17726,-0.21963 0.30408,-0.31203c0.27805,-0.20259 0.54884,-0.23298 0.80889,-0.16383c0.88912,-0.23333 1.92828,-0.22548 2.60421,0.22489c0.45135,-0.28113 0.94623,-0.30986 1.43822,0.3001c0.03869,0.04797 0.06713,0.10168 0.08626,0.16043c0.03093,-0.00273 0.06184,-0.0055 0.09273,-0.00831l0.83744,-0.07613c0,0 0.49795,-0.04527 0.54321,0.45268zM240.45735,88.48902c-0.1439,0.38017 -0.4395,0.83594 -0.75958,1.27054c0.30884,-0.37053 0.73567,-0.89855 1.11386,-1.37934c-0.07996,-0.0076 -0.15778,-0.01689 -0.23298,-0.02814c-0.00532,0.00601 -0.01066,0.01204 -0.01603,0.0181zM229.30349,101.1222c-0.04954,0.04942 -0.09922,0.09869 -0.14905,0.14779c0.01965,-0.01626 0.0393,-0.03252 0.05894,-0.04878c0.03005,-0.033 0.06009,-0.066 0.09011,-0.09902zM226.39898,103.52276c-0.0886,0.02505 -0.17686,0.03996 -0.26388,0.04227c-0.20655,0.27192 -0.37481,0.48157 -0.2092,0.34546c0.15739,-0.12935 0.31511,-0.25857 0.47308,-0.38773zM237.1253,90.43405c-0.0564,0.00508 -0.11454,0.01438 -0.17421,0.0276c-0.20962,0.16981 -0.4177,0.34078 -0.62433,0.51312c0.03904,0.07123 0.06124,0.153 0.06124,0.23996c0,0.09343 -0.02563,0.18088 -0.07023,0.25569l-0.09523,0.16665c0.12376,-0.16167 0.24687,-0.32414 0.36933,-0.48744c0.17997,-0.23998 0.35816,-0.47752 0.53344,-0.7156zM231.40845,97.17485c0.1716,-0.23723 0.33817,-0.47573 0.49926,-0.71459c0.04749,-0.0703 0.09494,-0.14062 0.14236,-0.21096c-0.09426,0.00667 -0.1865,0.00825 -0.27536,0.00366c-0.45868,0.46163 -0.9413,0.90243 -1.4424,1.3241c-0.18905,0.38534 -0.3681,0.77326 -0.53615,1.16314c0.44767,-0.39882 0.8651,-0.81837 1.20553,-1.15739c0.13642,-0.13547 0.27201,-0.27145 0.40678,-0.40796zM225.54405,102.55065c0.11781,-0.49189 0.40608,-1.07362 0.65889,-1.52286c-0.07533,-0.04434 -0.14844,-0.0961 -0.21907,-0.15576c-0.0322,-0.0272 -0.05629,-0.06159 -0.07303,-0.10235c-0.06584,0.04349 -0.13217,0.08629 -0.19901,0.12838c-0.0298,0.2018 -0.18016,0.36434 -0.37554,0.41207l-0.07366,0.05788c-0.01106,0.64204 -0.01472,1.28369 -0.00433,1.92213c0.08042,-0.23787 0.17933,-0.48952 0.28574,-0.73949zM237.08444,93.7236c-0.27001,0.2154 -0.54484,0.42338 -0.82328,0.6217c-1.85694,2.44579 -3.81384,4.79014 -5.88719,7.08252c0.44572,-0.24186 0.8647,-0.5621 1.29816,-0.92379c2.21381,-1.84413 4.42634,-3.97595 5.41231,-6.78043zM240.8866,89.94093c-0.28594,0.32599 -0.52192,0.58095 -0.63099,0.7082c-0.53937,0.62765 -1.14987,1.2719 -1.80896,1.89152c-0.08967,0.41343 -0.18318,0.76169 -0.23497,0.93948c-0.94954,3.25991 -3.39082,5.70168 -5.89944,7.7922c-0.73251,0.60945 -2.20352,1.42344 -3.2955,1.50047c-0.25265,0.23947 -0.53215,0.49873 -0.8251,0.74908c0.14197,0.46028 0.32102,0.8983 0.57505,1.23022c0.78689,1.02817 2.62555,0.00914 3.30817,-0.55577c2.44575,-2.02401 4.20422,-5.26506 6.05275,-7.80771c0.40921,-0.49215 0.8186,-0.98416 1.22823,-1.47596l0.02128,-0.01106l-0.00548,-0.00548l0.1191,-0.1191c0.03853,-0.07376 0.07571,-0.1499 0.11031,-0.22913c0.63181,-1.44662 1.1043,-3.01568 1.28555,-4.60694zM231.13343,92.71526c0.02577,-0.02465 0.05162,-0.04918 0.07754,-0.07358c-0.01848,0.00577 -0.03163,0.01304 -0.03881,0.02201c-0.0135,0.01687 -0.0264,0.03406 -0.03874,0.05158zM232.1498,97.84839c-0.0953,0.12882 -0.19187,0.25676 -0.28965,0.38383c0.18772,-0.21887 0.37452,-0.43835 0.56037,-0.65853c-0.09006,0.09186 -0.1803,0.18343 -0.27072,0.2747zM227.68524,101.14672c-0.03103,0.00847 -0.06198,0.01643 -0.09285,0.02385c0.00917,0.04205 0.01852,0.08405 0.02806,0.12601c0.0183,-0.01412 0.03638,-0.02804 0.05419,-0.04175c0.00292,-0.03532 0.00644,-0.07135 0.01059,-0.10811zM240.01084,86.7732c0.17433,0.00485 0.34583,0.02433 0.51884,0.05549c-0.14439,-0.05723 -0.32193,-0.07211 -0.51884,-0.05549z" fill="#000000" stroke="none" stroke-width="0.5" stroke-linecap="butt"/><path d="M221.21722,88.3244c0,0.55228 -0.4104,1 -0.91666,1c-0.50626,0 -0.91667,-0.44772 -0.91667,-1c0,-0.55228 0.41041,-1 0.91667,-1c0.50626,0 0.91666,0.44772 0.91666,1z" fill="#000000" stroke="none" stroke-width="0" stroke-linecap="butt"/><path d="M243.05852,85.24965c0,0.55228 -0.63426,1 -1.41667,1c-0.7824,0 -1.41667,-0.44772 -1.41667,-1c0,-0.55228 0.63426,-1 1.41667,-1c0.7824,0 1.41667,0.44772 1.41667,1z" fill="#000000" stroke="none" stroke-width="0" stroke-linecap="butt"/><path d="M245.22519,83.66632c0,2.34721 -1.41776,4.25 -3.16667,4.25c-1.7489,0 -3.16667,-1.90279 -3.16667,-4.25c0,-2.34721 1.41776,-4.25 3.16667,-4.25c1.7489,0 3.16667,1.90279 3.16667,4.25z" fill="#000000" stroke="none" stroke-width="0" stroke-linecap="butt"/><path d="M241.39186,81.74965c0,1.28866 -1.00736,2.33333 -2.25,2.33333c-1.24264,0 -2.25,-1.04467 -2.25,-2.33333c0,-1.28866 1.00736,-2.33333 2.25,-2.33333c1.24264,0 2.25,1.04467 2.25,2.33333z" fill="#000000" stroke="none" stroke-width="0" stroke-linecap="butt"/><path d="M233.55852,92.49965c0,1.42674 -1.00736,2.58333 -2.25,2.58333c-1.24264,0 -2.25,-1.1566 -2.25,-2.58333c0,-1.42674 1.00736,-2.58333 2.25,-2.58333c1.24264,0 2.25,1.1566 2.25,2.58333z" fill="#000000" stroke="none" stroke-width="0" stroke-linecap="butt"/><path d="M242.39186,87.33298c0,1.88697 -1.52969,3.41667 -3.41667,3.41667c-1.88697,0 -3.41667,-1.52969 -3.41667,-3.41667c0,-1.88697 1.52969,-3.41667 3.41667,-3.41667c1.88697,0 3.41667,1.52969 3.41667,3.41667z" fill="#000000" stroke="none" stroke-width="0" stroke-linecap="butt"/><path d="M235.55852,89.41632c0,0.82843 -0.59695,1.5 -1.33333,1.5c-0.73638,0 -1.33333,-0.67157 -1.33333,-1.5c0,-0.82843 0.59695,-1.5 1.33333,-1.5c0.73638,0 1.33333,0.67157 1.33333,1.5z" fill="#000000" stroke="none" stroke-width="0" stroke-linecap="butt"/><path d="M233.72519,85.49965c0,0.69036 -0.29848,1.25 -0.66667,1.25c-0.36819,0 -0.66667,-0.55964 -0.66667,-1.25c0,-0.69036 0.29848,-1.25 0.66667,-1.25c0.36819,0 0.66667,0.55964 0.66667,1.25z" fill="#000000" stroke="none" stroke-width="0" stroke-linecap="butt"/><path d="M222.89186,99.41632c0,1.56481 -1.08198,2.83333 -2.41667,2.83333c-1.33469,0 -2.41667,-1.26853 -2.41667,-2.83333c0,-1.56481 1.08198,-2.83333 2.41667,-2.83333c1.33469,0 2.41667,1.26853 2.41667,2.83333z" fill="#000000" stroke="none" stroke-width="0" stroke-linecap="butt"/><path d="M209.39186,95.16632c0,1.05855 -0.85812,1.91667 -1.91667,1.91667c-1.05855,0 -1.91667,-0.85812 -1.91667,-1.91667c0,-1.05855 0.85812,-1.91667 1.91667,-1.91667c1.05855,0 1.91667,0.85812 1.91667,1.91667z" fill="#000000" stroke="none" stroke-width="0" stroke-linecap="butt"/><path d="M203.89186,98.05357c0,-0.2599 0.22386,-0.47059 0.5,-0.47059c0.27614,0 0.5,0.21069 0.5,0.47059c0,0.2599 -0.22386,0.47059 -0.5,0.47059c-0.27614,0 -0.5,-0.21069 -0.5,-0.47059z" fill="#000000" stroke="none" stroke-width="0" stroke-linecap="butt"/><path d="M208.55852,96.91632c0,1.01252 -0.55964,1.83333 -1.25,1.83333c-0.69036,0 -1.25,-0.82081 -1.25,-1.83333c0,-1.01252 0.55964,-1.83333 1.25,-1.83333c0.69036,0 1.25,0.82081 1.25,1.83333z" fill="#000000" stroke="none" stroke-width="0" stroke-linecap="butt"/><path d="M205.89186,96.08298c0,0.73638 -0.67157,1.33333 -1.5,1.33333c-0.82843,0 -1.5,-0.59695 -1.5,-1.33333c0,-0.73638 0.67157,-1.33333 1.5,-1.33333c0.82843,0 1.5,0.59695 1.5,1.33333z" fill="#000000" stroke="none" stroke-width="0" stroke-linecap="butt"/><path d="M221.05852,99.91632c0,1.01252 -0.97005,1.83333 -2.16667,1.83333c-1.19662,0 -2.16667,-0.82081 -2.16667,-1.83333c0,-1.01252 0.97005,-1.83333 2.16667,-1.83333c1.19662,0 2.16667,0.82081 2.16667,1.83333z" fill="#000000" stroke="none" stroke-width="0" stroke-linecap="butt"/></g></g></svg>