<svg version="1.1" xmlns="http://www.w3.org/2000/svg" xmlns:xlink="http://www.w3.org/1999/xlink" width="179.38318" height="255.59396" viewBox="0,0,179.38318,255.59396"><defs><linearGradient x1="309.54272" y1="45.6027" x2="268.5609" y2="145.29464" gradientUnits="userSpaceOnUse" id="color-1"><stop offset="0" stop-color="#000000"/><stop offset="1" stop-color="#e90e4b"/></linearGradient><linearGradient x1="313.72822" y1="50.75532" x2="275.64641" y2="143.39268" gradientUnits="userSpaceOnUse" id="color-2"><stop offset="0" stop-color="#000000"/><stop offset="1" stop-color="#7d0829"/></linearGradient><linearGradient x1="327.16002" y1="54.98358" x2="321.20243" y2="69.47595" gradientUnits="userSpaceOnUse" id="color-3"><stop offset="0" stop-color="#000000"/><stop offset="1" stop-color="#770727"/></linearGradient><linearGradient x1="317.46868" y1="56.42662" x2="313.08227" y2="67.09694" gradientUnits="userSpaceOnUse" id="color-4"><stop offset="0" stop-color="#000000"/><stop offset="1" stop-color="#770727"/></linearGradient><linearGradient x1="312.50408" y1="69.29121" x2="304.3261" y2="89.18487" gradientUnits="userSpaceOnUse" id="color-5"><stop offset="0" stop-color="#000000"/><stop offset="1" stop-color="#620620"/></linearGradient><linearGradient x1="169.03872" y1="48.23714" x2="211.86141" y2="147.1523" gradientUnits="userSpaceOnUse" id="color-6"><stop offset="0" stop-color="#000000"/><stop offset="1" stop-color="#e90e4b"/></linearGradient><linearGradient x1="164.94945" y1="53.46645" x2="204.74186" y2="145.382" gradientUnits="userSpaceOnUse" id="color-7"><stop offset="0" stop-color="#000000"/><stop offset="1" stop-color="#7d0829"/></linearGradient><linearGradient x1="151.59833" y1="57.94296" x2="157.82354" y2="72.32242" gradientUnits="userSpaceOnUse" id="color-8"><stop offset="0" stop-color="#000000"/><stop offset="1" stop-color="#770727"/></linearGradient><linearGradient x1="161.31476" y1="59.20611" x2="165.8982" y2="69.79329" gradientUnits="userSpaceOnUse" id="color-9"><stop offset="0" stop-color="#000000"/><stop offset="1" stop-color="#770727"/></linearGradient><linearGradient x1="166.51696" y1="71.97646" x2="175.06229" y2="91.71512" gradientUnits="userSpaceOnUse" id="color-10"><stop offset="0" stop-color="#000000"/><stop offset="1" stop-color="#620620"/></linearGradient><linearGradient x1="213.93055" y1="210.39935" x2="213.93055" y2="282.64432" gradientUnits="userSpaceOnUse" id="color-11"><stop offset="0" stop-color="#000000"/><stop offset="1" stop-color="#e8aa00"/></linearGradient><linearGradient x1="240.65031" y1="173.91904" x2="240.65031" y2="306.70921" gradientUnits="userSpaceOnUse" id="color-12"><stop offset="0" stop-color="#000000"/><stop offset="1" stop-color="#d7d8d8"/></linearGradient><linearGradient x1="239.78679" y1="81.57785" x2="239.78679" y2="192.01394" gradientUnits="userSpaceOnUse" id="color-13"><stop offset="0" stop-color="#000000"/><stop offset="1" stop-color="#e4c54f"/></linearGradient><linearGradient x1="244.3526" y1="168.04829" x2="245.82104" y2="182.53964" gradientUnits="userSpaceOnUse" id="color-14"><stop offset="0" stop-color="#000000"/><stop offset="1" stop-color="#ffffff"/></linearGradient><linearGradient x1="175.90234" y1="184.36039" x2="175.90234" y2="234.24389" gradientUnits="userSpaceOnUse" id="color-15"><stop offset="0" stop-color="#000000"/><stop offset="1" stop-color="#c50c40"/></linearGradient><linearGradient x1="161.74114" y1="184.3347" x2="161.74114" y2="196.47452" gradientUnits="userSpaceOnUse" id="color-16"><stop offset="0" stop-color="#000000"/><stop offset="1" stop-color="#8f092f"/></linearGradient><linearGradient x1="163.88065" y1="184.46197" x2="163.88065" y2="199.02641" gradientUnits="userSpaceOnUse" id="color-17"><stop offset="0" stop-color="#000000"/><stop offset="1" stop-color="#b64d6b"/></linearGradient><linearGradient x1="182.67218" y1="178.6363" x2="177.25464" y2="228.22475" gradientUnits="userSpaceOnUse" id="color-18"><stop offset="0" stop-color="#000000"/><stop offset="1" stop-color="#c50c40"/></linearGradient><linearGradient x1="157.99111" y1="193.39985" x2="156.0983" y2="210.72536" gradientUnits="userSpaceOnUse" id="color-19"><stop offset="0" stop-color="#000000"/><stop offset="1" stop-color="#8f092f"/></linearGradient><linearGradient x1="159.4193" y1="197.37576" x2="157.93904" y2="210.92504" gradientUnits="userSpaceOnUse" id="color-20"><stop offset="0" stop-color="#000000"/><stop offset="1" stop-color="#b64d6b"/></linearGradient><linearGradient x1="240.96517" y1="126.68705" x2="240.96517" y2="155.25848" gradientUnits="userSpaceOnUse" id="color-21"><stop offset="0" stop-color="#380056" stop-opacity="0"/><stop offset="1" stop-color="#380056"/></linearGradient></defs><g transform="translate(-149.66941,-51.08697)"><g data-paper-data="{&quot;isPaintingLayer&quot;:true}" fill-rule="nonzero" stroke-linejoin="miter" stroke-miterlimit="10" stroke-dasharray="" stroke-dashoffset="0" style="mix-blend-mode: normal"><g data-paper-data="{&quot;index&quot;:null}" stroke="none"><g stroke-width="0"><g><path d="M328.17003,53.26217c0.75026,0.91403 -25.86075,81.96014 -37.57478,95.8767c-13.03764,15.48905 -38.47457,-41.99172 -25.43693,-57.48077c4.2591,-5.0599 62.51697,-38.99867 63.01172,-38.39593z" fill="url(#color-1)" stroke-linecap="butt"/><path d="M268.1454,130.01248l56.70473,-74.68512l-51.51618,87.11469" fill="url(#color-2)" stroke-linecap="round"/></g><path d="M322.09844,69.84391c-0.13657,0.03925 3.43858,-15.52752 4.34411,-15.15528c0.2313,0.09509 0.42634,0.68006 0.12652,2.0562c-0.87392,4.01141 -4.33318,13.05958 -4.47061,13.09908z" fill="url(#color-3)" stroke-linecap="butt"/><path d="M321.31323,58.09616c0.45775,0.98416 -12.16299,7.55086 -12.15125,7.38742c0.01183,-0.16446 7.13028,-5.57188 10.38997,-7.20953c1.11828,-0.56181 1.64436,-0.42928 1.76129,-0.17789z" data-paper-data="{&quot;index&quot;:null}" fill="url(#color-4)" stroke-linecap="butt"/><path d="M306.69937,80.79965c2.18592,-2.92573 7.99996,-10.72137 8.18936,-10.52715c0.01606,0.01646 -0.16255,0.32869 -0.48738,0.8578c-2.17845,3.54847 -10.15232,18.45775 -10.87308,17.71865c-0.44668,-0.45805 -1.20688,-1.65299 -0.66252,-2.90583c0.61581,-1.41728 2.38522,-3.20487 3.83364,-5.14349z" fill="url(#color-5)" stroke-linecap="butt"/></g><path d="M327.93576,53.34322c0.06335,-0.15718 0.12733,-0.31438 0.19196,-0.4716c0,0 0.1901,-0.46245 0.63223,-0.28069c0.44211,0.18175 0.25201,0.64419 0.25201,0.64419c-0.29518,0.71808 -0.57657,1.43555 -0.84657,2.15298c0.01578,0.21608 0.02827,0.40239 0.03982,0.54552c-0.37169,4.64332 -2.48306,8.91152 -4.04047,13.28207c-0.78523,2.2036 -1.2292,4.51635 -2.09243,6.69306c-1.28601,3.23758 -1.56282,6.77752 -2.73437,10.07672c-1.11363,3.13612 -2.54738,6.19917 -3.81308,9.27808c-1.556,3.78513 -3.11201,7.57025 -4.66802,11.35539c-0.09091,0.3186 -0.18048,0.63721 -0.2687,0.95578c-1.27529,4.58862 -2.40237,9.84125 -4.8515,14.00465c-1.10097,1.87159 -3.77998,2.85986 -3.63503,-0.1451c-0.08287,-0.22803 -0.31759,-3.05201 -0.82739,-2.52803c-1.90936,1.96247 -1.86199,5.58646 -3.49221,7.75044c-1.86219,2.47191 -2.56178,-0.86733 -2.38304,-2.35533c0.11908,-0.99142 0.25609,-1.98078 0.38933,-2.97069c0.9403,-6.98595 2.7384,-13.50779 4.84209,-20.22852c1.99388,-6.36986 4.91534,-12.44074 5.89784,-19.05713c-0.12756,-0.93252 -0.25149,-1.82991 -0.46345,-2.74374c-0.39343,-1.69624 -2.32226,-3.30715 -3.93101,-1.90149c-2.18598,1.91003 -3.98216,5.82391 -5.13623,8.45217c-0.84406,2.05345 -1.68822,4.10686 -2.53236,6.16028c-0.11384,0.27693 -0.79029,1.98353 -0.95503,2.08589c-0.49951,0.31039 -2.04507,-0.08071 -2.43256,-0.45173c-0.66997,-0.6415 -0.70988,-2.17657 -0.90953,-3.04533c-0.47188,-2.05318 -0.72058,-3.98036 -1.44036,-5.96444c-0.36338,-0.23408 -1.26054,-1.15579 -1.73178,-0.53363c-1.44725,1.91075 -2.86494,5.82471 -5.01488,7.0466c-2.4833,1.41135 -1.87855,-1.65041 -1.37642,-2.98427c0.00316,-0.0084 0.70829,-1.87386 0.70978,-1.87766c0.36753,-0.93215 0.76195,-1.85507 1.14268,-2.78194c2.04804,-4.98239 5.14014,-7.94096 9.18849,-11.29644c1.49055,-1.23544 2.6718,-2.86574 4.34969,-3.8103c3.10299,-1.72586 5.87598,-3.77643 8.79778,-5.73971c2.73527,-1.83796 5.64527,-3.09164 8.31056,-5.14849c2.97928,-2.29804 5.96986,-3.63737 9.38085,-5.0687c1.24545,-0.52262 2.45911,-0.56111 3.61158,-0.83628c0.27779,-0.06633 0.43016,-0.577 0.70457,-0.51336c0.61378,0.14239 0.94573,1.15828 1.13514,2.2508z" fill="#000000" stroke-width="0.5" stroke-linecap="butt"/><path d="M293.89521,95.92254c0.52497,-1.27702 1.53027,-2.07393 2.2454,-1.77995c0.71513,0.29398 0.86929,1.56753 0.34433,2.84454c-0.52496,1.27703 -1.53025,2.07394 -2.24538,1.77995c-0.71514,-0.29398 -0.8693,-1.56753 -0.34434,-2.84455z" fill="#000000" stroke-width="0" stroke-linecap="butt"/></g><g stroke="none"><g stroke-width="0"><g><path d="M214.2692,93.46191c13.32251,15.24472 -11.04458,73.18712 -24.36709,57.9424c-11.96998,-13.69704 -40.07871,-94.23596 -39.34552,-95.16374c0.48349,-0.61181 59.36045,32.24125 63.71261,37.22134z" fill="url(#color-6)" stroke-linecap="butt"/><path d="M207.0363,144.38868l-53.1221,-86.14481l58.07937,73.62119" fill="url(#color-7)" stroke-linecap="round"/></g><path d="M156.93448,72.70692c-0.13814,-0.03694 -3.76452,-9.01943 -4.71265,-13.01396c-0.32527,-1.37035 -0.14111,-1.95884 0.08839,-2.05819c0.89847,-0.38896 4.76156,15.10886 4.62429,15.07215z" fill="url(#color-8)" stroke-linecap="butt"/><path d="M157.50181,60.94663c0.11224,-0.25351 0.63578,-0.39577 1.76428,0.14522c3.28949,1.57695 10.50695,6.85149 10.52182,7.0157c0.01477,0.1632 -12.72553,-6.16843 -12.2861,-7.16091z" data-paper-data="{&quot;index&quot;:null}" fill="url(#color-9)" stroke-linecap="butt"/><path d="M172.53397,83.37531c1.48411,1.91144 3.28635,3.66593 3.92832,5.07155c0.56749,1.24254 -0.17042,2.45137 -0.60854,2.91762c-0.70694,0.75234 -8.9558,-14.00657 -11.19965,-17.51406c-0.33458,-0.523 -0.51895,-0.83186 -0.50319,-0.84862c0.18577,-0.1977 6.14331,7.48883 8.38309,10.37354z" fill="url(#color-10)" stroke-linecap="butt"/></g><path d="M150.79235,56.31728c0.16913,-1.09584 0.48219,-2.11771 1.09323,-2.27146c0.27319,-0.06872 0.435,0.43904 0.71396,0.50021c1.15737,0.25376 2.37154,0.26975 3.62646,0.76919c3.43693,1.36786 6.45182,2.65152 9.47319,4.89395c2.70296,2.00709 5.63569,3.20662 8.40457,4.99355c2.95769,1.90878 5.76822,3.9076 8.90266,5.57564c1.69511,0.9133 2.90638,2.52141 4.41957,3.72902c4.10985,3.27986 7.25625,6.18061 9.3963,11.12418c0.39784,0.91965 0.80931,1.83511 1.19405,2.76028c0.00156,0.00377 0.74114,1.85584 0.74446,1.86419c0.52677,1.32433 1.18817,4.37435 -1.32087,3.00927c-2.17222,-1.18182 -3.66221,-5.06884 -5.14463,-6.95243c-0.48269,-0.61332 -1.36261,0.32486 -1.72159,0.56564c-0.68289,1.99708 -0.89582,3.92854 -1.32956,5.99011c-0.18352,0.87231 -0.19497,2.40785 -0.85293,3.06167c-0.38055,0.37815 -1.91859,0.79783 -2.42377,0.49675c-0.1666,-0.09929 -0.87458,-1.79306 -0.99353,-2.06783c-0.88205,-2.03742 -1.76413,-4.07483 -2.64611,-6.11228c-1.20259,-2.60642 -3.071,-6.48633 -5.29202,-8.35551c-1.63453,-1.37559 -3.53317,0.2708 -3.89509,1.97403c-0.19498,0.9176 -0.30226,1.81713 -0.41251,2.75186c1.10498,6.59704 4.13846,12.61273 6.25008,18.94453c2.22791,6.68059 4.14659,13.16797 5.21621,20.13529c0.15157,0.98728 0.3069,1.97392 0.44433,2.96297c0.2063,1.48443 -0.43128,4.83606 -2.33897,2.39909c-1.67006,-2.1334 -1.68987,-5.75764 -3.63528,-7.68438c-0.51943,-0.51444 -0.70176,2.31341 -0.78039,2.54293c0.20062,3.00175 -2.49624,2.06332 -3.63172,0.21246c-2.52589,-4.11728 -3.75014,-9.34812 -5.11026,-13.91231c-0.0941,-0.31689 -0.18957,-0.63378 -0.28637,-0.95064c-1.62591,-3.75564 -3.25181,-7.51127 -4.8777,-11.26691c-1.32255,-3.05492 -2.81284,-6.09087 -3.98441,-9.20581c-1.2325,-3.27691 -1.57488,-6.81112 -2.92069,-10.0243c-0.90343,-2.16033 -1.39019,-4.46445 -2.21613,-6.65312c-1.63815,-4.34093 -3.82828,-8.56926 -4.28598,-13.20489c0.0089,-0.14332 0.01793,-0.32983 0.0297,-0.54617c-0.28325,-0.7123 -0.57789,-1.42443 -0.88633,-2.13691c0,0 -0.19864,-0.45884 0.24002,-0.64875c0.43868,-0.18992 0.63732,0.26893 0.63732,0.26893c0.06753,0.15599 0.13441,0.31198 0.20066,0.46796z" fill="#000000" stroke-width="0.5" stroke-linecap="butt"/><path d="M185.61627,98.25828c0.54855,1.26707 0.41801,2.54326 -0.29155,2.85044c-0.70956,0.30719 -1.72944,-0.47095 -2.27799,-1.73803c-0.54855,-1.26707 -0.41802,-2.54325 0.29154,-2.85044c0.70956,-0.30719 1.72946,0.47096 2.27801,1.73802z" fill="#000000" stroke-width="0" stroke-linecap="butt"/></g><path d="M208.34091,240.58045c-5.10998,-9.17174 -19.98959,-26.99553 -19.98959,-26.99553l5.71768,-3.18557c0,0 15.08517,18.19276 20.22339,27.41518c1.55984,2.79973 1.00017,11.53208 4.64959,18.55151c3.16664,6.09087 15.05648,14.54414 18.70736,19.33547c4.20338,5.51644 -0.02998,6.94282 -0.02998,6.94282c0,0 -14.76591,-9.83548 -23.27272,-22.0087c-4.7324,-6.77205 -4.38989,-17.15497 -6.00572,-20.05518z" fill="url(#color-11)" stroke="none" stroke-width="0" stroke-linecap="butt"/><path d="M204.02531,306.41902l18.64285,-132.3421l37.78325,-0.15789l16.82389,131.25c0,0 -9.36709,-2.05253 -10.18011,-1.99017c-0.70898,0.05439 -11.65167,3.60778 -13.98201,3.47494c-2.40795,-0.13727 -13.54274,-3.68405 -13.66415,-3.68926c-1.08639,-0.04658 -8.93746,3.46643 -11.31307,3.68497c-4.62067,0.42507 -14.85218,-3.60483 -15.75761,-3.59837c-0.81038,0.00579 -8.35303,3.36788 -8.35303,3.36788z" fill="url(#color-12)" stroke="none" stroke-width="0" stroke-linecap="butt"/><path d="M173.64304,137.51612c0.92481,-0.98563 26.43521,-54.50329 26.86465,-54.72962c0.72159,-0.3803 72.28359,-2.2452 76.23108,-0.42149c0.21874,0.10106 28.56569,52.39963 29.1843,52.98632c0.57062,0.54119 -23.06407,56.31439 -23.08932,56.31684c-3.5528,0.34488 -83.32747,0.89041 -84.83858,-1.01716c-0.37687,-0.47574 -24.64877,-52.81875 -24.35213,-53.13489z" data-paper-data="{&quot;index&quot;:null}" fill="url(#color-13)" stroke="none" stroke-width="0" stroke-linecap="butt"/><path d="M189.16543,134.69465c0,-12.968 10.51265,-23.48065 23.48065,-23.48065c12.968,0 23.48065,10.51265 23.48065,23.48065c0,12.968 -10.51265,23.48065 -23.48065,23.48065c-12.968,0 -23.48065,-10.51265 -23.48065,-23.48065z" fill="#ff0000" stroke="none" stroke-width="2" stroke-linecap="butt"/><path d="M266.90449,158.1753c-12.968,0 -23.48065,-10.51265 -23.48065,-23.48065c0,-12.968 10.51265,-23.48065 23.48065,-23.48065c12.968,0 23.48065,10.51265 23.48065,23.48065c0,12.968 -10.51265,23.48065 -23.48065,23.48065z" data-paper-data="{&quot;index&quot;:null}" fill="#ff0000" stroke="none" stroke-width="2" stroke-linecap="butt"/><path d="M201.80314,102.88619c0,0 6.70895,-5.16922 11.79721,-6.36355c5.08827,-1.19433 12.33413,0.69937 12.33413,0.69937c0,0 -8.03812,-0.06028 -11.96762,0.86207c-4.10648,0.96389 -12.16372,4.80211 -12.16372,4.80211z" fill="#000000" stroke="none" stroke-width="0" stroke-linecap="butt"/><path d="M265.73757,98.08408c-3.9295,-0.92235 -11.96762,-0.86207 -11.96762,-0.86207c0,0 7.24586,-1.8937 12.33413,-0.69937c5.08826,1.19433 11.79721,6.36355 11.79721,6.36355c0,0 -8.05724,-3.83822 -12.16372,-4.80211z" data-paper-data="{&quot;index&quot;:null}" fill="#000000" stroke="none" stroke-width="0" stroke-linecap="butt"/><path d="M192.16197,112.22236l3.33333,5.66666" fill="none" stroke="#000000" stroke-width="2" stroke-linecap="round"/><path d="M184.60095,121.52417l6.12204,2.3964" fill="none" stroke="#000000" stroke-width="2" stroke-linecap="round"/><g data-paper-data="{&quot;index&quot;:null}" fill="none" stroke="#000000" stroke-width="2" stroke-linecap="round"><path d="M284.93426,118.88902l3.33333,-5.66666"/><path d="M295.8286,122.52417l-6.12205,2.3964"/></g><path d="M220.78475,112.51254c0.12538,-0.73865 5.43642,-8.99866 6.17634,-8.68974c0.70609,0.2948 -1.37604,10.1846 -1.8145,10.85429c-0.24491,0.37407 -0.98086,-0.62217 -1.97594,-1.1233c-1.09939,-0.55365 -2.45135,-0.65566 -2.3859,-1.04125z" fill="#c30c40" stroke="none" stroke-width="0" stroke-linecap="butt"/><path d="M205.60363,157.39438c-0.12538,0.73864 -5.43642,8.99866 -6.17634,8.68974c-0.70609,-0.2948 1.37603,-10.1846 1.8145,-10.85429c0.24491,-0.37407 0.98086,0.62217 1.97594,1.1233c1.09939,0.55365 2.45135,0.65565 2.3859,1.04125z" data-paper-data="{&quot;index&quot;:null}" fill="#c30c40" stroke="none" stroke-width="0" stroke-linecap="butt"/><g fill="#c30c40" stroke="none" stroke-width="0" stroke-linecap="butt"><path d="M259.50363,112.21254c0.06545,0.38559 -1.28652,0.48759 -2.3859,1.04125c-0.99509,0.50113 -1.73102,1.49737 -1.97594,1.1233c-0.43847,-0.66969 -2.52059,-10.55949 -1.8145,-10.85429c0.73992,-0.30892 6.05096,7.95109 6.17634,8.68974z" data-paper-data="{&quot;index&quot;:null}"/><path d="M274.68475,157.09437c-0.06545,-0.38559 1.28652,-0.48759 2.3859,-1.04125c0.99509,-0.50113 1.73102,-1.49737 1.97594,-1.1233c0.43847,0.66969 2.52059,10.55949 1.8145,10.85429c-0.73992,0.30892 -6.05096,-7.9511 -6.17634,-8.68974z" data-paper-data="{&quot;index&quot;:null}"/></g><path d="M189.44355,138.0727c1.25206,0.04455 45.95431,0.59617 46.2126,0.62024c-0.51423,3.48577 -1.14834,6.30024 -3.04203,9.21768c-4.24825,6.54493 -11.74714,10.2393 -19.77722,10.2393c-11.87745,0 -22.06545,-8.38944 -23.39336,-20.07721z" data-paper-data="{&quot;index&quot;:null}" fill="#ff5d5d" stroke="none" stroke-width="2" stroke-linecap="butt"/><path d="M196.4808,130.56902c0,-9.12808 7.39976,-16.52784 16.52783,-16.52784c9.12808,0 16.52784,7.39977 16.52784,16.52784c0,9.12808 -7.39977,16.52784 -16.52784,16.52784c-9.12808,0 -16.52783,-7.39977 -16.52783,-16.52784z" fill="#000000" stroke="none" stroke-width="0" stroke-linecap="butt"/><path d="M290.15614,138.07271c-1.32791,11.68777 -11.51591,20.07721 -23.39336,20.07721c-8.03008,0 -15.52897,-3.69437 -19.77722,-10.2393c-1.89369,-2.91744 -2.5278,-5.73191 -3.04203,-9.21768c0.25829,-0.02407 44.96054,-0.57569 46.2126,-0.62024z" data-paper-data="{&quot;index&quot;:null}" fill="#ff5d5d" stroke="none" stroke-width="2" stroke-linecap="butt"/><path d="M266.59193,145.99685c-9.12807,0 -16.52783,-7.39977 -16.52783,-16.52784c0,-9.12808 7.39977,-16.52784 16.52783,-16.52784c9.12807,0 16.52783,7.39977 16.52783,16.52784c0,9.12808 -7.39977,16.52784 -16.52783,16.52784z" data-paper-data="{&quot;index&quot;:null}" fill="#000000" stroke="none" stroke-width="0" stroke-linecap="butt"/><g><path d="M270.25381,165.61699c0.2813,2.77597 -17.93663,16.29668 -24.70897,16.94927c-6.19938,0.59738 -26.77778,-8.97159 -27.08048,-11.95881c-0.05091,-0.50243 12.89492,0.89984 25.83351,-0.34693c13.35287,-1.28669 25.92051,-4.9932 25.95594,-4.64352z" fill="url(#color-14)" stroke="none" stroke-width="0" stroke-linecap="butt"/><path d="M229.79159,177.60257l5.56755,-4.03661l5.18343,3.96875l4.89932,-4.73311l6.13383,3.51777l4.60338,-4.7046l5.36455,1.82404" fill="none" stroke="#000000" stroke-width="1" stroke-linecap="round"/></g><path d="M213.52618,131c0,6.94958 -0.32646,12.58333 -0.72916,12.58333c-0.40271,0 -0.72916,-5.63375 -0.72916,-12.58333c0,-6.94958 0.32646,-12.58333 0.72916,-12.58333c0.40271,0 0.72916,5.63375 0.72916,12.58333z" fill="#ff0000" stroke="#ff0000" stroke-width="2" stroke-linecap="butt"/><path d="M267.92618,130.15001c0,6.94958 -0.32646,12.58333 -0.72917,12.58333c-0.40272,0 -0.72916,-5.63375 -0.72916,-12.58333c0,-6.94958 0.32646,-12.58333 0.72916,-12.58333c0.40272,0 0.72917,5.63375 0.72917,12.58333z" fill="#ff0000" stroke="#ff0000" stroke-width="2" stroke-linecap="butt"/><g stroke="none" stroke-linecap="butt"><g stroke-width="0"><path d="M182.30136,211.14028c-0.53388,-0.62283 -1.38299,-2.10356 -2.27638,-2.21259c-0.71458,-0.08721 -1.35999,0.70409 -1.78592,1.12467c-0.17703,0.1414 -2.30515,1.90436 -2.31615,1.89572c-1.88957,-1.48483 -3.55273,-4.87356 -4.54355,-7.02696c-0.27196,-0.59106 -0.98983,-2.93657 -1.80391,-2.96995c-0.32389,-0.01328 -1.46191,2.00423 -1.79426,2.41182c-1.50508,0 -2.69167,-3.2254 -3.25587,-4.35052c-1.08504,-2.16376 -2.72115,-4.1463 -4.44242,-6.03934l4.52867,-9.61275l38.90885,22.80074l-8.53044,18.49189c-0.00729,-0.00761 -0.01459,-0.01523 -0.02188,-0.02285c-2.38321,-3.32316 -4.69361,-6.91917 -8.03551,-9.23879c-1.49038,-1.78863 -3.11396,-3.48105 -4.63124,-5.25109z" fill="url(#color-15)"/><path d="M164.77498,184.38452c1.16456,0.54863 0.04055,5.51982 -2.55406,12.09c-1.2235,-1.5568 -2.62237,-3.03444 -3.97255,-4.47702c2.9392,-5.00054 5.49667,-8.09819 6.52662,-7.61298z" fill="url(#color-16)"/><path d="M164.73819,184.46677c0.96851,0.45628 1.85803,4.5812 0.57845,10.43803c-0.23442,1.07298 -0.75368,2.60141 -1.32954,4.12161c-0.62487,-1.06033 -1.37079,-2.07846 -2.17863,-3.06604c0.2349,-0.59687 0.4059,-1.07217 0.49277,-1.38296c1.57928,-5.65023 2.06611,-10.28536 2.43696,-10.11065z" fill="url(#color-17)"/></g><path d="M165.17809,185.28245c0.46084,0.04257 0.93051,0.11699 1.41373,0.21035c-0.48528,-0.23841 -0.84198,-0.33882 -1.3869,-0.28548zM164.13605,185.24639c0.0153,-0.05432 0.03243,-0.08859 0.03243,-0.08859l0.42943,-0.74518c1.11952,-0.27005 1.57858,-0.23449 2.59586,0.27745c1.30573,1.30573 1.56852,3.61482 3.01535,4.72581c2.81187,2.15918 7.21757,2.75846 8.19595,6.35303l0.19608,-0.04358l0.2146,0.96566c0.00931,0.03814 0.01424,0.07799 0.01424,0.11899c0,0.27614 -0.22386,0.5 -0.5,0.5c-0.11438,0 -0.21979,-0.03841 -0.30404,-0.10303l-0.46533,-0.349c-1.80736,0.11738 -0.41779,2.41829 0.71958,3.42845c2.82423,2.50836 6.68511,3.23033 9.43096,5.90167c0.69141,0.7105 1.83695,2.29925 0.23873,2.94099c-2.88777,1.15954 -4.03824,-2.30787 -6.36218,-1.83246c-2.47401,0.50611 -2.91363,3.32974 -5.65832,3.28571c-1.31107,-0.71158 -0.63647,-1.35125 -1.38153,-2.27593c-0.41065,-0.50965 -2.00322,0.2837 -2.74461,-0.60461c-0.83518,-1.00069 -0.61614,-2.99765 -1.80746,-3.71558c-0.40489,-0.244 -1.10207,0.97125 -1.31225,1.17732c-0.91467,0.89685 -1.30674,0.85757 -2.59096,0.85171c-1.56587,-0.75188 -1.6789,-5.50991 -2.8918,-7.35484c-1.17263,-1.78367 -3.43389,-2.01124 -4.70753,-3.7045c-1.64902,-2.48095 0.02501,-7.17765 2.42441,-8.70995c1.08584,-0.69343 2.13693,-0.96691 3.2184,-0.99956z" fill="#000000" stroke-width="0.5"/><path d="M193.32999,208.45283c0,0.43394 -0.44771,0.78572 -1,0.78572c-0.55229,0 -1,-0.35178 -1,-0.78572c0,-0.43394 0.44771,-0.78571 1,-0.78571c0.55229,0 1,0.35177 1,0.78571z" fill="#000000" stroke-width="0"/></g><g stroke="none" stroke-linecap="butt"><g stroke-width="0"><path d="M192.28978,229.86733l-40.8362,-19.77844l8.83452,-14.43899c1.68819,1.83685 3.36866,3.68212 4.93683,5.64369c1.16003,1.43561 1.72779,2.93137 2.43435,4.5829c0.08007,0.18718 0.33821,1.61857 0.69285,1.71379c1.14085,0.3063 2.83871,-1.48056 3.5897,-2.16285c0.4074,-0.37011 0.4268,-1.41277 0.9717,-1.33507c0.53968,0.07696 0.35076,1.04455 0.64786,1.50162c0.72165,1.11021 1.51005,2.16328 2.14357,3.32679c0.7307,1.33967 2.26501,6.23091 3.81776,6.55595c0.65064,0.1362 1.21896,-1.09786 1.43878,-1.39408c0.92112,-1.24123 2.03161,-2.41384 3.14254,-3.48536c0.39911,-0.38496 0.86433,-1.56275 1.21663,-1.13453c0.46495,0.56518 0.82181,1.2549 1.35775,1.83225c0.95895,1.19495 2.02005,2.22999 3.13884,3.21376c0.56962,1.21489 1.27903,2.39816 1.83094,3.41632c1.2552,2.31561 2.35376,4.68737 3.62867,6.97069z" fill="url(#color-18)"/><path d="M151.58212,210.18185c-1.37797,-0.84312 1.58298,-8.21799 6.67005,-16.75347c1.4173,1.56106 2.85918,3.0971 4.26251,4.67323c-4.94745,7.6233 -9.63712,12.87286 -10.93257,12.08025z" fill="url(#color-19)"/><path d="M161.32477,204.48134c-3.93166,4.486 -7.59089,6.38352 -8.49805,5.82847c-0.52735,-0.32265 2.18012,-2.57914 5.69087,-7.08621c0.62442,-0.80163 2.04737,-3.00947 3.61278,-5.55166c0.75803,0.84382 1.5066,1.6975 2.23586,2.57118c-1.03253,1.58944 -2.17127,3.24532 -3.04148,4.23821z" fill="url(#color-20)"/></g><path d="M157.5909,194.29102c0.2162,-0.1347 0.47315,-0.01667 0.47315,-0.01667l0.67214,0.323c0.13879,0.1649 0.27757,0.3298 0.41636,0.49469c1.52766,1.23043 4.18032,3.15842 4.20427,5.38808c0.02275,2.11795 -1.30952,0.83777 -1.85102,1.7252c-1.3463,2.20637 1.03122,5.18907 3.0713,5.4432c1.32651,-0.51665 2.84629,-1.69976 4.26765,-0.4692c0.79829,0.69113 1.00308,3.35456 2.0034,3.55814c1.3925,0.28341 1.2342,-1.90766 2.1142,-2.47805c1.77136,-1.14813 3.19864,0.30521 3.02118,1.92955c-0.40133,3.67346 0.91918,5.9404 4.84473,6.8707c0.8607,0.20397 3.81458,0.17824 4.42752,0.82829c0.99711,1.05747 -1.11836,3.63186 -1.66517,4.41671c-2.5579,2.90762 -7.07063,-0.47317 -9.81683,-2.03881c-1.78444,-1.01733 -3.94686,-0.85484 -5.81615,-1.63779c-2.17533,-0.389 -4.15824,-1.47933 -5.99216,-2.67313c-1.93315,-1.2584 -4.38518,-1.75637 -6.41363,-2.85776c-1.64182,-0.89146 -3.05133,-2.16427 -4.60413,-3.18777c0.2205,-4.8134 2.0075,-7.79529 4.10541,-11.94789c0.73581,-1.45648 0.71018,-4.15699 2.41446,-3.75228c0,0 0.05815,0.02671 0.1233,0.08184z" fill="#000000" stroke-width="0.5"/></g><path d="M226.46517,154.68705c0,0 3.45119,-2.53916 5.95979,-6.11341c0.11022,-0.15704 0.36014,-0.46116 0.46406,-0.62589c1.35912,-2.15442 2.03703,-4.75821 2.33551,-6.39534c0.70765,-3.88136 0.52636,-12.15107 0.52636,-12.15107c0,0 8.28571,-0.05739 8.28571,0.42857c0,1.32855 -0.98639,7.25745 0.65957,13.05608c1.77755,6.26221 10.34043,12.08677 10.34043,12.08677c0,0 -10.82096,-2.64821 -15.14308,-2.69143c-5.07901,-0.05079 -13.42835,2.40571 -13.42835,2.40571z" fill="url(#color-21)" stroke="none" stroke-width="0" stroke-linecap="butt"/></g></g></svg>