<svg version="1.1" xmlns="http://www.w3.org/2000/svg" xmlns:xlink="http://www.w3.org/1999/xlink" width="247.39226" height="220.60307" viewBox="0,0,247.39226,220.60307"><defs><linearGradient x1="122.6196" y1="129.50707" x2="227.21969" y2="155.52271" gradientUnits="userSpaceOnUse" id="color-1"><stop offset="0" stop-color="#000000"/><stop offset="1" stop-color="#e90e4b"/></linearGradient><linearGradient x1="124.29284" y1="135.93111" x2="221.49103" y2="160.10578" gradientUnits="userSpaceOnUse" id="color-2"><stop offset="0" stop-color="#000000"/><stop offset="1" stop-color="#7d0829"/></linearGradient><linearGradient x1="119.7455" y1="149.25827" x2="134.95138" y2="153.0402" gradientUnits="userSpaceOnUse" id="color-3"><stop offset="0" stop-color="#000000"/><stop offset="1" stop-color="#770727"/></linearGradient><linearGradient x1="126.64756" y1="142.3037" x2="137.84321" y2="145.08823" gradientUnits="userSpaceOnUse" id="color-4"><stop offset="0" stop-color="#000000"/><stop offset="1" stop-color="#770727"/></linearGradient><linearGradient x1="139.95374" y1="145.92179" x2="160.82683" y2="151.11324" gradientUnits="userSpaceOnUse" id="color-5"><stop offset="0" stop-color="#000000"/><stop offset="1" stop-color="#620620"/></linearGradient><linearGradient x1="357.66981" y1="124.45368" x2="255.26358" y2="158.08344" gradientUnits="userSpaceOnUse" id="color-6"><stop offset="0" stop-color="#000000"/><stop offset="1" stop-color="#e90e4b"/></linearGradient><linearGradient x1="356.47301" y1="130.98328" x2="261.31344" y2="162.23326" gradientUnits="userSpaceOnUse" id="color-7"><stop offset="0" stop-color="#000000"/><stop offset="1" stop-color="#7d0829"/></linearGradient><linearGradient x1="361.98714" y1="143.94036" x2="347.10018" y2="148.82918" gradientUnits="userSpaceOnUse" id="color-8"><stop offset="0" stop-color="#000000"/><stop offset="1" stop-color="#770727"/></linearGradient><linearGradient x1="354.59282" y1="137.51164" x2="343.63198" y2="141.11113" gradientUnits="userSpaceOnUse" id="color-9"><stop offset="0" stop-color="#000000"/><stop offset="1" stop-color="#770727"/></linearGradient><linearGradient x1="341.58846" y1="142.09745" x2="321.15316" y2="148.80832" gradientUnits="userSpaceOnUse" id="color-10"><stop offset="0" stop-color="#000000"/><stop offset="1" stop-color="#620620"/></linearGradient><linearGradient x1="213.93054" y1="210.39936" x2="213.93054" y2="282.64432" gradientUnits="userSpaceOnUse" id="color-11"><stop offset="0" stop-color="#000000"/><stop offset="1" stop-color="#e8aa00"/></linearGradient><linearGradient x1="240.6503" y1="173.91905" x2="240.6503" y2="306.70921" gradientUnits="userSpaceOnUse" id="color-12"><stop offset="0" stop-color="#000000"/><stop offset="1" stop-color="#d7d8d8"/></linearGradient><linearGradient x1="239.78678" y1="86.07786" x2="239.78678" y2="196.51395" gradientUnits="userSpaceOnUse" id="color-13"><stop offset="0" stop-color="#000000"/><stop offset="1" stop-color="#e4c54f"/></linearGradient><linearGradient x1="244.35259" y1="172.5483" x2="245.82103" y2="187.03965" gradientUnits="userSpaceOnUse" id="color-14"><stop offset="0" stop-color="#000000"/><stop offset="1" stop-color="#ffffff"/></linearGradient><linearGradient x1="185.11515" y1="179.05046" x2="171.01875" y2="226.9008" gradientUnits="userSpaceOnUse" id="color-15"><stop offset="0" stop-color="#000000"/><stop offset="1" stop-color="#c50c40"/></linearGradient><linearGradient x1="171.53841" y1="175.02406" x2="168.10786" y2="186.66908" gradientUnits="userSpaceOnUse" id="color-16"><stop offset="0" stop-color="#000000"/><stop offset="1" stop-color="#8f092f"/></linearGradient><linearGradient x1="173.55474" y1="175.75073" x2="169.43902" y2="189.72155" gradientUnits="userSpaceOnUse" id="color-17"><stop offset="0" stop-color="#000000"/><stop offset="1" stop-color="#b64d6b"/></linearGradient><linearGradient x1="167.487" y1="185.39071" x2="182.2181" y2="233.04947" gradientUnits="userSpaceOnUse" id="color-18"><stop offset="0" stop-color="#000000"/><stop offset="1" stop-color="#c50c40"/></linearGradient><linearGradient x1="150.70362" y1="208.74527" x2="155.85047" y2="225.39658" gradientUnits="userSpaceOnUse" id="color-19"><stop offset="0" stop-color="#000000"/><stop offset="1" stop-color="#8f092f"/></linearGradient><linearGradient x1="153.59397" y1="211.82642" x2="157.61901" y2="224.84845" gradientUnits="userSpaceOnUse" id="color-20"><stop offset="0" stop-color="#000000"/><stop offset="1" stop-color="#b64d6b"/></linearGradient><linearGradient x1="240.82232" y1="131.11562" x2="240.82232" y2="159.68705" gradientUnits="userSpaceOnUse" id="color-21"><stop offset="0" stop-color="#380056" stop-opacity="0"/><stop offset="1" stop-color="#380056"/></linearGradient></defs><g transform="translate(-116.76732,-86.07785)"><g data-paper-data="{&quot;isPaintingLayer&quot;:true}" fill-rule="nonzero" stroke-linejoin="miter" stroke-miterlimit="10" stroke-dasharray="" stroke-dashoffset="0" style="mix-blend-mode: normal"><g stroke="none"><g stroke-width="0"><g><path d="M186.01514,121.01705c20.20184,-1.33283 51.45511,53.20439 31.25329,54.53722c-18.1509,1.19752 -99.21595,-25.35573 -99.50816,-26.50157c-0.19268,-0.75561 61.6554,-27.60024 68.25487,-28.03565z" fill="url(#color-1)" stroke-linecap="butt"/><path d="M222.09449,157.67945l-100.70403,-10.07887l93.76116,-1.46287" fill="url(#color-2)" stroke-linecap="round"/></g><path d="M134.71725,153.98012c-0.11321,0.08735 -9.4527,-2.48361 -13.20258,-4.15499c-1.28643,-0.57338 -1.64229,-1.07696 -1.58193,-1.31964c0.23631,-0.9501 14.89703,5.38783 14.78452,5.47463z" fill="url(#color-3)" stroke-linecap="butt"/><path d="M125.71609,146.3903c-0.13332,-0.24309 0.07144,-0.74549 1.18639,-1.31388c3.25001,-1.65678 11.82282,-4.19042 11.96235,-4.10256c0.13866,0.08733 -12.62679,6.36811 -13.14873,5.41642z" data-paper-data="{&quot;index&quot;:null}" fill="url(#color-4)" stroke-linecap="butt"/><path d="M152.66464,148.05982c2.41988,-0.01905 4.90815,-0.38619 6.41485,-0.04308c1.3319,0.30331 1.84457,1.62351 1.94914,2.2547c0.16872,1.01849 -16.56715,-1.38566 -20.71655,-1.73172c-0.61871,-0.0516 -0.97608,-0.0926 -0.97982,-0.11528c-0.04434,-0.26764 9.6804,-0.33587 13.33242,-0.36462z" fill="url(#color-5)" stroke-linecap="butt"/></g><path d="M117.96436,148.9119c-0.76816,-0.79964 -1.39017,-1.66874 -1.14142,-2.24762c0.11121,-0.25881 0.61296,-0.07916 0.83092,-0.26372c0.90423,-0.76569 1.65397,-1.72084 2.81265,-2.4149c3.17335,-1.90088 6.02362,-3.5175 9.6397,-4.55724c3.23579,-0.92958 5.9693,-2.53197 9.07015,-3.64757c3.31228,-1.19168 6.6068,-2.21176 9.83508,-3.69005c1.75477,-0.79264 3.76797,-0.77901 5.6462,-1.24843c5.10125,-1.27496 9.31639,-2.01445 14.544,-0.71413c0.97232,0.2421 1.94959,0.47085 2.91836,0.72672c0.00394,0.00104 1.92469,0.53761 1.93333,0.54003c1.37217,0.38531 4.19743,1.71121 1.58956,2.87641c-2.25779,1.00879 -6.25117,-0.16673 -8.64788,-0.13212c-0.7804,0.01127 -0.569,1.28003 -0.59559,1.71146c1.17249,1.75497 2.57808,3.09666 3.95306,4.6928c0.5818,0.67537 1.7951,1.6166 1.91525,2.53635c0.06949,0.53195 -0.53065,2.00896 -1.07658,2.22764c-0.18004,0.07212 -1.95578,-0.39345 -2.24636,-0.46573c-2.15452,-0.53586 -4.30905,-1.07168 -6.46355,-1.60762c-2.80127,-0.62654 -7.01873,-1.49703 -9.85235,-0.86673c-2.08537,0.46387 -1.92959,2.97209 -0.79578,4.29363c0.61082,0.71196 1.26054,1.34327 1.93642,1.9983c5.91324,3.12657 12.53518,4.36773 18.84871,6.53336c6.6613,2.28494 12.98134,4.69834 19.16738,8.07778c0.87657,0.47887 1.75491,0.95437 2.62432,1.44553c1.30486,0.73716 3.58127,3.27841 0.48663,3.31506c-2.70914,0.03208 -5.60126,-2.15224 -8.31332,-1.77589c-0.72412,0.10049 1.4124,1.96202 1.54707,2.16383c2.50719,1.66275 0.12434,3.2362 -2.03577,3.01498c-4.8052,-0.49211 -9.70516,-2.69456 -14.15786,-4.38436c-0.30894,-0.11758 -0.61872,-0.23408 -0.92927,-0.34951c-3.97149,-0.98777 -7.94297,-1.97554 -11.91445,-2.96331c-3.2305,-0.80347 -6.54773,-1.46214 -9.73427,-2.42202c-3.35225,-1.00979 -6.3686,-2.88311 -9.739,-3.76419c-2.26517,-0.59348 -4.39166,-1.60536 -6.63231,-2.27762c-4.44404,-1.33333 -9.13366,-2.15967 -13.0953,-4.60997c-0.10849,-0.09407 -0.25123,-0.21447 -0.41599,-0.35515c-0.73799,-0.2073 -1.48275,-0.40546 -2.23617,-0.59284c0,0 -0.48522,-0.12068 -0.36984,-0.58457c0.11538,-0.46389 0.60059,-0.34321 0.60059,-0.34321c0.16496,0.04103 0.32951,0.08257 0.49368,0.1246z" fill="#000000" stroke-width="0.5" stroke-linecap="butt"/><path d="M172.43318,146.69827c1.33989,0.33325 2.2748,1.21167 2.08818,1.96201c-0.18662,0.75034 -1.42411,1.08846 -2.76399,0.7552c-1.33989,-0.33325 -2.2748,-1.21167 -2.08818,-1.96201c0.18662,-0.75034 1.42411,-1.08846 2.76399,-0.7552z" fill="#000000" stroke-width="0" stroke-linecap="butt"/></g><g stroke="none"><g data-paper-data="{&quot;index&quot;:null}" stroke-width="0"><g><path d="M363.95192,143.58949c-0.20724,1.16421 -79.10251,33.60113 -97.29234,33.7403c-20.24516,0.1549 6.91711,-56.53096 27.16227,-56.68586c6.61364,-0.0506 70.26672,22.17784 70.13007,22.94556z" fill="url(#color-6)" stroke-linecap="butt"/><path d="M266.60956,147.83722l93.61526,-5.42922l-99.69147,17.44983" fill="url(#color-7)" stroke-linecap="round"/></g><path d="M361.74512,143.20337c0.07803,0.2376 -0.23988,0.76595 -1.48072,1.4323c-3.61696,1.94234 -12.74236,5.19248 -12.86166,5.11369c-0.11858,-0.07831 14.03692,-7.47615 14.34238,-6.54598z" fill="url(#color-8)" stroke-linecap="butt"/><path d="M342.31088,137.08294c0.13269,-0.09789 8.86847,1.7991 12.23141,3.21266c1.15369,0.48493 1.39481,0.97094 1.2797,1.22317c-0.45062,0.98746 -13.64299,-4.33855 -13.51111,-4.43582z" data-paper-data="{&quot;index&quot;:null}" fill="url(#color-9)" stroke-linecap="butt"/><path d="M342.39214,144.5477c-0.00209,0.0229 -0.35546,0.09004 -0.96871,0.18694c-4.11277,0.64996 -20.62681,4.2771 -20.53335,3.24897c0.0579,-0.63716 0.47219,-1.99147 1.77823,-2.3918c1.47741,-0.45287 3.98592,-0.26952 6.40068,-0.42831c3.64426,-0.23962 13.34772,-0.88599 13.32318,-0.61583z" fill="url(#color-10)" stroke-linecap="butt"/></g><path d="M363.50642,144.37258c0,0 0.47504,-0.156 0.62418,0.29816c0.14914,0.45416 -0.3259,0.61016 -0.3259,0.61016c-0.73762,0.24223 -1.4658,0.49457 -2.18658,0.75552c-0.15399,0.1524 -0.28749,0.28296 -0.38878,0.38475c-3.77093,2.73471 -8.38717,3.90334 -12.72125,5.55955c-2.18521,0.83505 -4.23162,2.00042 -6.44707,2.75871c-3.29656,1.1263 -6.16714,3.21615 -9.43614,4.46949c-3.10741,1.19138 -6.36729,2.09197 -9.53004,3.1306c-3.88819,1.27686 -7.77637,2.55373 -11.66456,3.83059c-0.30124,0.13794 -0.60162,0.27688 -0.90109,0.41684c-4.31652,2.01235 -9.04144,4.56883 -13.7975,5.41262c-2.13802,0.37931 -4.63002,-1.01482 -2.25176,-2.85728c0.11948,-0.21116 2.11347,-2.22461 1.38392,-2.27163c-2.73238,-0.1761 -5.45621,2.21479 -8.16039,2.38182c-3.08897,0.1908 -1.0054,-2.51082 0.24178,-3.34185c0.83097,-0.5537 1.67201,-1.09245 2.51103,-1.63442c5.92106,-3.82477 12.04672,-6.69594 18.52216,-9.46408c6.13738,-2.6236 12.65024,-4.34788 18.31781,-7.90042c0.62593,-0.70291 1.22751,-1.38025 1.78438,-2.13516c1.03366,-1.40126 1.00476,-3.91415 -1.10905,-4.22356c-2.87227,-0.42043 -7.01438,0.75754 -9.76205,1.58819c-2.10931,0.69277 -4.21865,1.38542 -6.32798,2.07812c-0.28448,0.09342 -2.02122,0.68819 -2.20608,0.62949c-0.56052,-0.17799 -1.26755,-1.60691 -1.23733,-2.14253c0.05226,-0.92609 1.19313,-1.95391 1.72374,-2.6702c1.25401,-1.69283 2.55724,-3.13416 3.59763,-4.97053c-0.0582,-0.42831 0.05941,-1.70918 -0.71971,-1.66308c-2.39278,0.14155 -6.28901,1.60727 -8.61481,0.76708c-2.68642,-0.97046 0.0338,-2.50034 1.37395,-2.98542c0.00844,-0.00306 1.88458,-0.67928 1.88844,-0.68061c0.94735,-0.32635 1.90518,-0.62627 2.85708,-0.93915c5.11796,-1.68085 9.37603,-1.25303 14.55717,-0.35627c1.90764,0.33017 3.9144,0.16867 5.72266,0.83026c3.32816,1.23713 6.68871,2.01242 10.07959,2.95754c3.17443,0.88479 6.01827,2.28203 9.31361,2.97138c3.68269,0.77128 6.64402,2.17414 9.94844,3.83675c1.20654,0.60707 2.02442,1.50456 2.98246,2.20175c0.23093,0.16805 0.71812,-0.04797 0.84805,0.20197c0.29061,0.55905 -0.26587,1.47149 -0.97322,2.3254c0.16064,-0.05398 0.32169,-0.1075 0.48319,-0.16054z" data-paper-data="{&quot;index&quot;:null}" fill="#000000" stroke-width="0.5" stroke-linecap="butt"/><path d="M305.59187,143.28221c-0.91825,0.30155 -1.94202,-0.30473 -2.28665,-1.35416c-0.34463,-1.04943 0.12038,-2.14462 1.03864,-2.44617c0.91825,-0.30155 1.94202,0.30473 2.28665,1.35416c0.34463,1.04943 -0.12038,2.14462 -1.03864,2.44617z" fill="#000000" stroke-width="0" stroke-linecap="butt"/></g><path d="M208.3409,240.58046c-5.10998,-9.17174 -19.98959,-26.99553 -19.98959,-26.99553l5.71768,-3.18557c0,0 15.08517,18.19276 20.22339,27.41518c1.55984,2.79973 1.00017,11.53208 4.64959,18.55151c3.16664,6.09087 15.05648,14.54414 18.70736,19.33547c4.20338,5.51644 -0.02998,6.94282 -0.02998,6.94282c0,0 -14.76591,-9.83548 -23.27272,-22.0087c-4.7324,-6.77205 -4.38989,-17.15497 -6.00572,-20.05518z" fill="url(#color-11)" stroke="none" stroke-width="0" stroke-linecap="butt"/><path d="M204.0253,306.41902l18.64285,-132.3421l37.78325,-0.15789l16.82389,131.25c0,0 -9.36709,-2.05253 -10.18011,-1.99017c-0.70898,0.05439 -11.65167,3.60778 -13.98201,3.47494c-2.40795,-0.13727 -13.54274,-3.68405 -13.66415,-3.68926c-1.08639,-0.04658 -8.93746,3.46643 -11.31307,3.68497c-4.62067,0.42507 -14.85218,-3.60483 -15.75761,-3.59837c-0.81038,0.00579 -8.35303,3.36788 -8.35303,3.36788z" fill="url(#color-12)" stroke="none" stroke-width="0" stroke-linecap="butt"/><path d="M173.64303,142.01612c0.92481,-0.98563 26.43521,-54.50329 26.86465,-54.72962c0.72159,-0.3803 72.28359,-2.2452 76.23108,-0.42149c0.21874,0.10106 28.56569,52.39963 29.1843,52.98632c0.57062,0.54119 -23.06407,56.31439 -23.08932,56.31684c-3.5528,0.34488 -83.32747,0.89041 -84.83858,-1.01716c-0.37687,-0.47574 -24.64877,-52.81875 -24.35213,-53.13489z" data-paper-data="{&quot;index&quot;:null}" fill="url(#color-13)" stroke="none" stroke-width="0" stroke-linecap="butt"/><path d="M189.16542,139.19466c0,-12.968 10.51265,-23.48065 23.48065,-23.48065c12.968,0 23.48065,10.51265 23.48065,23.48065c0,12.968 -10.51265,23.48065 -23.48065,23.48065c-12.968,0 -23.48065,-10.51265 -23.48065,-23.48065z" fill="#ff0000" stroke="none" stroke-width="2" stroke-linecap="butt"/><path d="M266.90448,162.67531c-12.968,0 -23.48065,-10.51265 -23.48065,-23.48065c0,-12.968 10.51265,-23.48065 23.48065,-23.48065c12.968,0 23.48065,10.51265 23.48065,23.48065c0,12.968 -10.51265,23.48065 -23.48065,23.48065z" data-paper-data="{&quot;index&quot;:null}" fill="#ff0000" stroke="none" stroke-width="2" stroke-linecap="butt"/><path d="M201.80313,107.3862c0,0 6.70895,-5.16922 11.79721,-6.36355c5.08827,-1.19433 12.33413,0.69937 12.33413,0.69937c0,0 -8.03812,-0.06028 -11.96762,0.86207c-4.10648,0.96389 -12.16372,4.80211 -12.16372,4.80211z" fill="#000000" stroke="none" stroke-width="0" stroke-linecap="butt"/><path d="M265.73756,102.58409c-3.9295,-0.92235 -11.96762,-0.86207 -11.96762,-0.86207c0,0 7.24586,-1.8937 12.33413,-0.69937c5.08826,1.19433 11.79721,6.36355 11.79721,6.36355c0,0 -8.05724,-3.83822 -12.16372,-4.80211z" data-paper-data="{&quot;index&quot;:null}" fill="#000000" stroke="none" stroke-width="0" stroke-linecap="butt"/><path d="M195.49529,122.38903l-3.33333,-5.66666" fill="none" stroke="#000000" stroke-width="2" stroke-linecap="round"/><path d="M184.60094,126.02418l6.12204,2.3964" fill="none" stroke="#000000" stroke-width="2" stroke-linecap="round"/><g data-paper-data="{&quot;index&quot;:null}" fill="none" stroke="#000000" stroke-width="2" stroke-linecap="round"><path d="M284.93426,123.38903l3.33333,-5.66666"/><path d="M289.70655,129.42058l6.12205,-2.3964"/></g><path d="M220.78474,117.01255c0.12538,-0.73865 5.43642,-8.99866 6.17634,-8.68974c0.70609,0.2948 -1.37604,10.1846 -1.8145,10.85429c-0.24491,0.37407 -0.98086,-0.62217 -1.97594,-1.1233c-1.09939,-0.55365 -2.45135,-0.65566 -2.3859,-1.04125z" fill="#c30c40" stroke="none" stroke-width="0" stroke-linecap="butt"/><path d="M205.60362,161.89439c-0.12538,0.73864 -5.43642,8.99866 -6.17634,8.68974c-0.70609,-0.2948 1.37603,-10.1846 1.8145,-10.85429c0.24491,-0.37407 0.98086,0.62217 1.97594,1.1233c1.09939,0.55365 2.45135,0.65565 2.3859,1.04125z" data-paper-data="{&quot;index&quot;:null}" fill="#c30c40" stroke="none" stroke-width="0" stroke-linecap="butt"/><g fill="#c30c40" stroke="none" stroke-width="0" stroke-linecap="butt"><path d="M259.50362,116.71255c0.06545,0.38559 -1.28652,0.48759 -2.3859,1.04125c-0.99509,0.50113 -1.73102,1.49737 -1.97594,1.1233c-0.43847,-0.66969 -2.52059,-10.55949 -1.8145,-10.85429c0.73992,-0.30892 6.05096,7.95109 6.17634,8.68974z" data-paper-data="{&quot;index&quot;:null}"/><path d="M274.68474,161.59438c-0.06545,-0.38559 1.28652,-0.48759 2.3859,-1.04125c0.99509,-0.50113 1.73102,-1.49737 1.97594,-1.1233c0.43847,0.66969 2.52059,10.55949 1.8145,10.85429c-0.73992,0.30892 -6.05096,-7.9511 -6.17634,-8.68974z" data-paper-data="{&quot;index&quot;:null}"/></g><path d="M189.44354,142.57271c1.25206,0.04455 45.95431,0.59617 46.2126,0.62024c-0.51423,3.48577 -1.14834,6.30024 -3.04203,9.21768c-4.24825,6.54493 -11.74714,10.2393 -19.77722,10.2393c-11.87745,0 -22.06545,-8.38944 -23.39336,-20.07721z" data-paper-data="{&quot;index&quot;:null}" fill="#ff5d5d" stroke="none" stroke-width="2" stroke-linecap="butt"/><path d="M196.48079,135.06903c0,-9.12808 7.39976,-16.52784 16.52783,-16.52784c9.12808,0 16.52784,7.39977 16.52784,16.52784c0,9.12808 -7.39977,16.52784 -16.52784,16.52784c-9.12808,0 -16.52783,-7.39977 -16.52783,-16.52784z" fill="#000000" stroke="none" stroke-width="0" stroke-linecap="butt"/><path d="M290.15614,142.57271c-1.32791,11.68777 -11.51591,20.07721 -23.39336,20.07721c-8.03008,0 -15.52897,-3.69437 -19.77722,-10.2393c-1.89369,-2.91744 -2.5278,-5.73191 -3.04203,-9.21768c0.25829,-0.02407 44.96054,-0.57569 46.2126,-0.62024z" data-paper-data="{&quot;index&quot;:null}" fill="#ff5d5d" stroke="none" stroke-width="2" stroke-linecap="butt"/><path d="M266.59193,150.49686c-9.12807,0 -16.52783,-7.39977 -16.52783,-16.52784c0,-9.12808 7.39977,-16.52784 16.52783,-16.52784c9.12807,0 16.52783,7.39977 16.52783,16.52784c0,9.12808 -7.39977,16.52784 -16.52783,16.52784z" data-paper-data="{&quot;index&quot;:null}" fill="#000000" stroke="none" stroke-width="0" stroke-linecap="butt"/><g><path d="M270.2538,170.117c0.2813,2.77597 -17.93663,16.29668 -24.70897,16.94927c-6.19938,0.59738 -26.77778,-8.97159 -27.08048,-11.95881c-0.05091,-0.50243 12.89492,0.89984 25.83351,-0.34693c13.35287,-1.28669 25.92051,-4.9932 25.95594,-4.64352z" fill="url(#color-14)" stroke="none" stroke-width="0" stroke-linecap="butt"/><path d="M229.79158,182.10258l5.56755,-4.03661l5.18343,3.96875l4.89932,-4.73311l6.13383,3.51777l4.60338,-4.7046l5.36455,1.82404" fill="none" stroke="#000000" stroke-width="1" stroke-linecap="round"/></g><path d="M213.52617,135.5c0,6.94958 -0.32646,12.58333 -0.72916,12.58333c-0.40271,0 -0.72916,-5.63375 -0.72916,-12.58333c0,-6.94958 0.32646,-12.58333 0.72916,-12.58333c0.40271,0 0.72916,5.63375 0.72916,12.58333z" fill="#ff0000" stroke="#ff0000" stroke-width="2" stroke-linecap="butt"/><path d="M267.92618,134.65002c0,6.94958 -0.32646,12.58333 -0.72917,12.58333c-0.40272,0 -0.72916,-5.63375 -0.72916,-12.58333c0,-6.94958 0.32646,-12.58333 0.72916,-12.58333c0.40272,0 0.72917,5.63375 0.72917,12.58333z" fill="#ff0000" stroke="#ff0000" stroke-width="2" stroke-linecap="butt"/><g stroke="none" stroke-linecap="butt"><g stroke-width="0"><path d="M183.68572,206.54713c-0.33612,-0.74831 -0.73218,-2.40864 -1.55835,-2.76568c-0.66081,-0.28559 -1.50353,0.29108 -2.03095,0.57415c-0.20977,0.08561 -2.74934,1.17534 -2.75745,1.16394c-1.39296,-1.95828 -2.03072,-5.67888 -2.37264,-8.0245c-0.09385,-0.64382 -0.11965,-3.09659 -0.89112,-3.35866c-0.30694,-0.10427 -1.96869,1.50943 -2.40268,1.80648c-1.44374,-0.42532 -1.67051,-3.85457 -1.89377,-5.09327c-0.42937,-2.38219 -1.43855,-4.74626 -2.55472,-7.04856l7.06052,-7.94121l30.87981,32.86654l-13.40831,15.32761c-0.00484,-0.00936 -0.00969,-0.01873 -0.01453,-0.0281c-1.34699,-3.86118 -2.54704,-7.96351 -5.09724,-11.13296c-0.92419,-2.13689 -2.00334,-4.21913 -2.95859,-6.34579z" fill="url(#color-15)"/><path d="M174.43451,175.92917c0.96206,0.85536 -1.52093,5.3063 -5.86643,10.87549c-0.7337,-1.83909 -1.658,-3.65181 -2.54549,-5.41713c4.23249,-3.96615 7.56108,-6.21484 8.41193,-5.45835z" fill="url(#color-16)"/><path d="M174.37597,175.99767c0.8001,0.71137 0.48771,4.91953 -2.39477,10.17606c-0.52808,0.963 -1.45808,2.2824 -2.44006,3.57791c-0.29977,-1.19369 -0.72757,-2.38111 -1.22341,-3.55673c0.39399,-0.50616 0.69234,-0.91377 0.86349,-1.18734c3.11159,-4.97365 4.8884,-9.28229 5.19477,-9.00991z" fill="url(#color-17)"/></g><path d="M174.56744,176.90441c0.43003,0.17106 0.85952,0.37517 1.29667,0.60128c-0.39813,-0.36583 -0.71192,-0.56294 -1.2497,-0.66576zM173.57806,176.57535c0.03003,-0.04778 0.05614,-0.07581 0.05614,-0.07581l0.62251,-0.59346c1.1502,0.05732 1.5805,0.22115 2.41165,0.9997c0.88353,1.62149 0.48309,3.91073 1.557,5.38529c2.08711,2.86577 6.14389,4.68562 6.06662,8.41016l0.2004,0.01361l-0.06703,0.98694c-0.00185,0.03922 -0.00838,0.07884 -0.01997,0.11816c-0.07803,0.26489 -0.35603,0.41636 -0.62091,0.33833c-0.10972,-0.03232 -0.19998,-0.09895 -0.26253,-0.18475l-0.34774,-0.46627c-1.76687,-0.39814 -1.08414,2.20166 -0.27858,3.49206c2.00029,3.20421 5.49979,4.98779 7.37884,8.32619c0.46245,0.87692 1.11234,2.72463 -0.60208,2.88858c-3.09774,0.29623 -3.22148,-3.35496 -5.58504,-3.55564c-2.51619,-0.21364 -3.73582,2.37067 -6.35619,1.55283c-1.05655,-1.05307 -0.22868,-1.47603 -0.68207,-2.57357c-0.24989,-0.60492 -2.00174,-0.29395 -2.46189,-1.35556c-0.51836,-1.19591 0.25607,-3.04958 -0.68382,-4.0749c-0.31944,-0.34847 -1.33161,0.62023 -1.59146,0.75851c-1.13083,0.60182 -1.49582,0.45335 -2.72604,0.08483c-1.28958,-1.16373 -0.05344,-5.75977 -0.69556,-7.87225c-0.62079,-2.04234 -2.72558,-2.89964 -3.46882,-4.8838c-0.88073,-2.84582 2.0523,-6.87803 4.78691,-7.66984c1.23754,-0.35832 2.32307,-0.32363 3.36969,-0.04934z" fill="#000000" stroke-width="0.5"/><path d="M195.02428,207.08576c-0.12263,0.41625 -0.6515,0.62718 -1.18128,0.47111c-0.52978,-0.15607 -0.85983,-0.62003 -0.73721,-1.03628c0.12263,-0.41625 0.65149,-0.62717 1.18127,-0.4711c0.52978,0.15607 0.85984,0.62002 0.73721,1.03627z" fill="#000000" stroke-width="0"/></g><g stroke="none" stroke-linecap="butt"><g stroke-width="0"><path d="M196.66817,228.58303l-45.33295,-1.92507l2.3703,-16.76052c2.27904,1.01488 4.55434,2.04055 6.7728,3.21757c1.63493,0.85652 2.75026,2.00357 4.05484,3.2384c0.14786,0.13996 0.95346,1.35095 1.31675,1.29742c1.16864,-0.1722 2.01676,-2.48657 2.43484,-3.41107c0.2268,-0.50151 -0.16967,-1.46605 0.36126,-1.61124c0.52583,-0.14381 0.73691,0.8192 1.19116,1.1206c1.10335,0.73209 2.24526,1.38522 3.28892,2.20123c1.20283,0.93906 4.55424,4.81803 6.10831,4.49937c0.65119,-0.13353 0.68241,-1.4918 0.76644,-1.85098c0.35212,-1.50504 0.90529,-3.02233 1.49903,-4.44705c0.2133,-0.51185 0.17226,-1.77753 0.6657,-1.52453c0.65123,0.33392 1.25276,0.82507 1.97398,1.14195c1.35479,0.71557 2.73979,1.24379 4.15735,1.70206c1.00543,0.88855 2.12658,1.69255 3.0376,2.40761c2.07192,1.62626 4.02239,3.3663 6.09957,4.95509z" fill="url(#color-18)"/><path d="M151.49011,226.6922c-1.59953,-0.22621 -1.81254,-8.17043 -0.53559,-18.02447c1.92087,0.86942 3.85435,1.70612 5.7684,2.59492c-1.51125,8.96148 -3.72909,15.64221 -5.23281,15.42955z" fill="url(#color-19)"/><path d="M158.16579,217.58998c-1.82561,5.67885 -4.42968,8.87406 -5.48269,8.72514c-0.61213,-0.08656 0.9759,-3.23303 2.40687,-8.76398c0.25451,-0.98373 0.68309,-3.57519 1.10957,-6.53008c1.0309,0.47317 2.05703,0.95916 3.0734,1.47116c-0.31601,1.86884 -0.70308,3.84085 -1.10716,5.09777z" fill="url(#color-20)"/></g><path d="M150.69043,209.7221c0.14488,-0.20951 0.42757,-0.20329 0.42757,-0.20329l0.74514,0.02935c0.19288,0.09618 0.38576,0.19236 0.57864,0.28854c1.89078,0.52216 5.0911,1.23747 5.99898,3.27407c0.86239,1.93456 -0.86885,1.2891 -1.01318,2.31863c-0.35883,2.55965 3.00806,4.35217 4.98118,3.77481c1.01203,-1.00117 1.93662,-2.69073 3.72991,-2.12622c1.00718,0.31705 2.25335,2.67986 3.25221,2.46923c1.39047,-0.2932 0.37464,-2.241 0.95557,-3.11407c1.16936,-1.75742 3.05659,-0.99081 3.53913,0.57031c1.09127,3.53051 3.20377,5.08617 7.1758,4.38016c0.87089,-0.1548 3.57137,-1.35205 4.39214,-0.99905c1.33519,0.57425 0.41673,3.77723 0.22677,4.71473c-1.19206,3.68457 -6.67657,2.37512 -9.81877,2.02948c-2.04175,-0.22459 -3.96159,0.78371 -5.98809,0.80793c-2.15081,0.50733 -4.40371,0.29462 -6.56098,-0.07225c-2.274,-0.38672 -4.72203,0.13056 -7.02111,-0.07422c-1.86086,-0.16574 -3.66006,-0.77374 -5.49169,-1.09602c-1.71013,-4.50477 -1.25501,-7.95119 -0.97973,-12.5955c0.09654,-1.62894 -0.99996,-4.09695 0.72483,-4.40271c0,0 0.06398,0.00141 0.14567,0.02611z" fill="#000000" stroke-width="0.5"/></g><path d="M226.32232,159.11562c0,0 3.45119,-2.53917 5.95978,-6.11341c0.11022,-0.15704 0.36015,-0.46116 0.46407,-0.62589c1.35912,-2.15442 2.03703,-4.7582 2.33551,-6.39534c0.70765,-3.88136 0.52636,-12.15108 0.52636,-12.15108c0,0 8.28572,-0.05739 8.28572,0.42857c0,1.32855 -0.98639,7.25746 0.65957,13.05609c1.77755,6.26221 10.34043,12.08677 10.34043,12.08677c0,0 -10.82096,-2.64821 -15.14308,-2.69143c-5.07901,-0.05079 -13.42835,2.40572 -13.42835,2.40572z" fill="url(#color-21)" stroke="none" stroke-width="0" stroke-linecap="butt"/></g></g></svg>