<svg version="1.1" xmlns="http://www.w3.org/2000/svg" xmlns:xlink="http://www.w3.org/1999/xlink" width="186.75796" height="463.46992" viewBox="0,0,186.75796,463.46992"><defs><linearGradient x1="260.55408" y1="-101.0434" x2="307.92793" y2="-51.25222" gradientUnits="userSpaceOnUse" id="color-1"><stop offset="0" stop-color="#000000"/><stop offset="1" stop-color="#909090"/></linearGradient><linearGradient x1="242.37942" y1="58.23359" x2="242.37942" y2="90.62416" gradientUnits="userSpaceOnUse" id="color-2"><stop offset="0" stop-color="#000000"/><stop offset="1" stop-color="#909090"/></linearGradient><linearGradient x1="316.55257" y1="-0.3236" x2="316.55257" y2="74.20372" gradientUnits="userSpaceOnUse" id="color-3"><stop offset="0" stop-color="#000000"/><stop offset="1" stop-color="#909090"/></linearGradient><linearGradient x1="171.21925" y1="2.67641" x2="171.21925" y2="77.20372" gradientUnits="userSpaceOnUse" id="color-4"><stop offset="0" stop-color="#000000"/><stop offset="1" stop-color="#909090"/></linearGradient><linearGradient x1="242.45012" y1="-21.3554" x2="242.45012" y2="48.95744" gradientUnits="userSpaceOnUse" id="color-5"><stop offset="0" stop-color="#000000"/><stop offset="1" stop-color="#909090"/></linearGradient><linearGradient x1="209.66184" y1="-38.52958" x2="209.66184" y2="6.78528" gradientUnits="userSpaceOnUse" id="color-6"><stop offset="0" stop-color="#000000"/><stop offset="1" stop-color="#b2b2b2"/></linearGradient><linearGradient x1="272.98122" y1="-38.58566" x2="272.98122" y2="6.62443" gradientUnits="userSpaceOnUse" id="color-7"><stop offset="0" stop-color="#000000"/><stop offset="1" stop-color="#b2b2b2"/></linearGradient><linearGradient x1="200.42917" y1="29.30811" x2="200.42917" y2="41.0581" gradientUnits="userSpaceOnUse" id="color-8"><stop offset="0" stop-color="#000000"/><stop offset="1" stop-color="#cecece"/></linearGradient><linearGradient x1="288.01335" y1="29.30811" x2="288.01335" y2="41.0581" gradientUnits="userSpaceOnUse" id="color-9"><stop offset="0" stop-color="#000000"/><stop offset="1" stop-color="#cecece"/></linearGradient><linearGradient x1="240.9548" y1="119.28917" x2="240.9548" y2="204.9006" gradientUnits="userSpaceOnUse" id="color-10"><stop offset="0" stop-color="#909090"/><stop offset="1" stop-color="#000000"/></linearGradient><linearGradient x1="239.92311" y1="216.00664" x2="239.92311" y2="308.48922" gradientUnits="userSpaceOnUse" id="color-11"><stop offset="0" stop-color="#000000"/><stop offset="1" stop-color="#ffffff"/></linearGradient><linearGradient x1="239.50003" y1="112.51895" x2="239.50003" y2="226.44459" gradientUnits="userSpaceOnUse" id="color-12"><stop offset="0" stop-color="#414141"/><stop offset="1" stop-color="#000000"/></linearGradient><linearGradient x1="239.36479" y1="193.67448" x2="239.36479" y2="221.49081" gradientUnits="userSpaceOnUse" id="color-13"><stop offset="0" stop-color="#000000"/><stop offset="1" stop-color="#ffffff"/></linearGradient><linearGradient x1="239.49034" y1="171.89162" x2="239.49034" y2="187.27655" gradientUnits="userSpaceOnUse" id="color-14"><stop offset="0" stop-color="#000000" stop-opacity="0"/><stop offset="1" stop-color="#000000"/></linearGradient><linearGradient x1="240.88144" y1="123.98841" x2="240.88144" y2="142.1884" gradientUnits="userSpaceOnUse" id="color-15"><stop offset="0" stop-color="#000000"/><stop offset="1" stop-color="#afa0a0"/></linearGradient><linearGradient x1="247.29991" y1="128.80424" x2="243.26622" y2="146.29007" gradientTransform="translate(-527.84583,-223.02197) rotate(-17.14579) scale(2.03946,2.62305) skewX(-9.43171)" gradientUnits="userSpaceOnUse" id="color-16"><stop offset="0" stop-color="#000000"/><stop offset="1" stop-color="#adadad"/></linearGradient></defs><g transform="translate(-150.50693,108.73639)"><g data-paper-data="{&quot;isPaintingLayer&quot;:true}" fill-rule="nonzero" stroke-linejoin="miter" stroke-miterlimit="10" stroke-dasharray="" stroke-dashoffset="0" style="mix-blend-mode: normal"><path d="M202.90515,354.73354c0,0 2.42585,-50.69804 2.42585,-77.06044c0,-28.47465 -2.42585,-87.93956 -2.42585,-87.93956h20.21538c0,0 -0.80862,59.33958 -0.80862,87.93956c0,26.18708 0.80862,77.06044 0.80862,77.06044z" fill="#000000" stroke="none" stroke-width="0" stroke-linecap="butt"/><g><g stroke="none" stroke-width="0" stroke-linecap="butt"><path d="M240.74772,161.40823c0,0 48.94505,-56.72278 55.82174,-91.27486c7.42768,-37.32051 -12.78111,-124.98367 -12.78111,-124.98367l16.673,3.31833c0,0 20.33101,89.86586 12.87064,127.35065c-6.83095,34.32229 -55.91126,88.90789 -55.91126,88.90789z" fill="#000000"/><path d="M318.64103,-108.73638l10.36026,37.43036c0,0 -31.1424,29.73138 -32.6818,30.31904c-0.71542,0.27312 -44.40682,-0.39491 -44.40682,-0.39491l-16.77832,-35.47591z" data-paper-data="{&quot;index&quot;:null}" fill="url(#color-1)"/></g><path d="M230.40515,155.73352c0,0 2.16,-24.88813 2.16,-37.82967c0,-13.97846 -2.16,-43.17033 -2.16,-43.17033h18c0,0 -0.72,29.13034 -0.72,43.17033c0,12.85547 0.72,37.82967 0.72,37.82967z" fill="#000000" stroke="none" stroke-width="0" stroke-linecap="butt"/><g stroke-width="2" stroke-linecap="butt"><path d="M185.13339,59.77603v-17.8737h114.33334v17.8737c0,0 -37.97231,11.17107 -57,11.17107c-19.08325,0 -57.33334,-11.17107 -57.33334,-11.17107z" fill="#000000" stroke="none"/><g data-paper-data="{&quot;index&quot;:null}" fill="#dddddd" stroke="#000000"><path d="M210.75527,63.59816l-16.52213,-0.20539l10.43951,-18.20018z"/><path d="M227.60755,65.1804l-17.51092,-1.90794l10.43952,-18.20019z"/><path d="M243.08129,66.76367l-17.51092,-1.90795l10.43951,-18.20019z"/></g><g data-paper-data="{&quot;index&quot;:null}" fill="#dddddd" stroke="#000000"><path d="M282.48898,45.19261l10.43952,18.20018l-16.52213,0.20538z"/><path d="M266.62547,45.07231l10.43951,18.2002l-17.51092,1.90794z"/><path d="M251.15175,46.6556l10.43951,18.20019l-17.51092,1.90795z"/></g><path d="M185.45258,58.23368c0.20838,-0.02056 34.70225,5.75873 57.24341,5.60336c17.83572,-0.12294 44.05563,-1.76503 54.9836,-4.39826c4.16454,-1.00351 -0.98179,18.69311 -0.98179,18.69311c0,0 -53.00359,12.49224 -54.00382,12.49224c-2.15222,0 -54.00382,-12.84915 -54.00382,-12.84915z" data-paper-data="{&quot;index&quot;:null}" fill="url(#color-2)" stroke="none"/></g><path d="M298.25986,0.06869c8.29408,-3.3325 23.88295,15.12543 33.41924,34.1994c2.98197,5.96439 7.53533,18.91533 4.6827,27.89681c-2.71283,8.54134 -12.5462,13.31709 -20.77549,11.74005c-10.7906,-2.06787 -25.62054,-70.50375 -17.32645,-73.83624z" data-paper-data="{&quot;index&quot;:null}" fill="url(#color-3)" stroke="none" stroke-width="2" stroke-linecap="butt"/><path d="M189.51196,3.0687c8.29408,3.3325 -6.53585,71.76837 -17.32645,73.83624c-8.22929,1.57704 -18.06266,-3.19871 -20.77549,-11.74005c-2.85262,-8.98148 1.70073,-21.93242 4.6827,-27.89681c9.53628,-19.07398 25.12515,-37.5319 33.41924,-34.1994z" data-paper-data="{&quot;index&quot;:null}" fill="url(#color-4)" stroke="none" stroke-width="2" stroke-linecap="butt"/><path d="M243.96067,62.8773l-10.21416,-16.80819l17.57743,-0.37122z" fill="#dddddd" stroke="#000000" stroke-width="2" stroke-linecap="butt"/><g fill="#dddddd" stroke="#000000" stroke-width="2" stroke-linecap="butt"><path d="M196.33356,59.79801l-8.66557,-17.42374l16.41899,2.12957z"/><path d="M212.06842,62.12117l-8.66558,-17.42375l17.55919,0.77439z"/><path d="M227.57524,62.89557l-8.66558,-17.42375l17.55919,0.77439z"/></g><g data-paper-data="{&quot;index&quot;:null}" fill="#dddddd" stroke="#000000" stroke-width="2" stroke-linecap="butt"><path d="M282.71564,44.03923l16.41898,-2.12957l-8.66557,17.42375z"/><path d="M265.8406,45.00722l17.55919,-0.77439l-8.66559,17.42375z"/><path d="M250.33378,45.7816l17.55918,-0.77438l-8.66558,17.42374z"/></g><path d="M188.69016,2.59355c0,0 51.8516,-23.949 54.00382,-23.949c1.00023,0 54.00382,23.28376 54.00382,23.28376l3.08319,43.89938c-2.00027,0.11648 -4.00806,0.18221 -5.99494,0.409c-3.46026,0.39768 -48.82969,2.72078 -52.32969,2.72078c-3.5,0 -48.7584,-3.59855 -52.10567,-4.08424c-0.98568,-0.14302 -2.6064,-0.60477 -4.23145,-0.90374z" fill="url(#color-5)" stroke="none" stroke-width="2" stroke-linecap="butt"/><path d="M252.09207,28.40249c0,1.73991 -4.27293,3.15039 -9.54383,3.15039c-5.27092,0 -9.54382,-1.41047 -9.54382,-3.15039c0,-1.73991 4.11647,-7.04205 9.38738,-7.04205c5.27092,0 9.70028,5.30214 9.70028,7.04205z" fill="#000000" stroke="none" stroke-width="NaN" stroke-linecap="butt"/><path d="M241.9286,27.97041l0.33333,19" fill="none" stroke="#000000" stroke-width="2" stroke-linecap="round"/><path d="M218.34135,-38.48585c5.82549,1.19298 7.98332,28.59319 2.31338,40.73301c-1.90602,4.08097 -10.20354,4.84456 -12.16187,4.44353c-1.77258,-0.36301 -12.94608,-4.57418 -13.12249,-8.39037c-0.59828,-12.94183 16.95968,-38.01721 22.97096,-36.78618z" data-paper-data="{&quot;index&quot;:null}" fill="url(#color-6)" stroke="none" stroke-width="2" stroke-linecap="butt"/><path d="M263.94351,-38.53607c5.99527,-1.30674 23.86809,23.54521 23.43307,36.49356c-0.12827,3.81811 -11.24779,8.16986 -13.01563,8.55519c-1.9531,0.42571 -10.2596,-0.2332 -12.21695,-4.28981c-5.82257,-12.06737 -4.01049,-39.49257 1.79951,-40.75894z" data-paper-data="{&quot;index&quot;:null}" fill="url(#color-7)" stroke="none" stroke-width="2" stroke-linecap="butt"/><path d="M211.47689,18.98906c-12.25653,3.06267 -23.72357,-0.58208 -25.61233,-8.14075c-1.88876,-7.55867 6.51599,-16.16897 18.77251,-19.23163c12.25653,-3.06266 23.72357,0.58207 25.61233,8.14074c1.88876,7.55866 -6.51598,16.16897 -18.77251,19.23164z" data-paper-data="{&quot;index&quot;:null}" fill="#ff0000" stroke="none" stroke-width="2" stroke-linecap="butt"/><path d="M255.35847,-0.05719c1.88876,-7.55867 13.35579,-11.2034 25.61231,-8.14076c12.25654,3.06266 20.66127,11.67296 18.77251,19.23164c-1.88876,7.55868 -13.35579,11.20343 -25.61231,8.14075c-12.25653,-3.06267 -20.66127,-11.67296 -18.77251,-19.23162z" data-paper-data="{&quot;index&quot;:null}" fill="#ff0000" stroke="none" stroke-width="2" stroke-linecap="butt"/><path d="M207.92917,35.1831c0,0.35992 0.43305,5.3711 0.31323,5.57529c-0.49273,0.83967 -2.37967,-4.03401 -3.68333,-2.21563c-1.23729,1.7258 -2.08667,6.76534 -3.8799,6.76534c-1.72297,0 -2.35351,-4.94047 -3.67039,-6.56455c-1.00299,-1.23697 -1.86829,1.62799 -2.67891,1.23212c-0.68373,-0.33391 -1.4007,-3.92552 -1.4007,-4.79256c0,-3.24468 3.35787,-5.875 7.5,-5.875c4.14213,0 7.5,2.63032 7.5,5.875z" fill="url(#color-8)" stroke="none" stroke-width="0" stroke-linecap="butt"/><path d="M288.01335,29.30811c4.14213,0 7.5,2.63032 7.5,5.875c0,0.92027 -0.77888,5.76518 -2.08093,5.73488c-0.86951,-0.02023 -2.24936,-5.12334 -2.76558,-4.303c-1.43627,2.28244 -0.7207,8.69312 -2.9035,8.69312c-1.79323,0 -2.64262,-5.03954 -3.8799,-6.76534c-1.30365,-1.81838 -3.1906,3.05531 -3.68333,2.21563c-0.11982,-0.20419 0.31323,-5.21537 0.31323,-5.57529c0,-3.24468 3.35787,-5.875 7.5,-5.875z" data-paper-data="{&quot;index&quot;:null}" fill="url(#color-9)" stroke="none" stroke-width="0" stroke-linecap="butt"/><path d="M211.34304,18.96889c-10.15932,2.53862 -19.77623,0.46884 -23.8455,-4.61845c1.43967,-0.81572 9.25486,-7.23202 19.1289,-11.1133c10.02656,-3.94123 22.10758,-5.34323 22.71619,-5.51346c0.33645,0.63552 0.59648,1.30746 0.77292,2.01357c1.88876,7.55866 -6.51598,16.16897 -18.77251,19.23164z" data-paper-data="{&quot;index&quot;:null}" fill="#ff8787" stroke="none" stroke-width="2" stroke-linecap="butt"/><path d="M207.07701,13.32939c-8.62727,2.15579 -16.69882,-0.40973 -18.0283,-5.73022c-1.32948,-5.32048 4.58655,-11.3812 13.21381,-13.53699c8.62727,-2.15579 16.69882,0.40973 18.0283,5.73022c1.32948,5.32048 -4.58655,11.3812 -13.21381,13.53699z" data-paper-data="{&quot;index&quot;:null}" fill="#000000" stroke="none" stroke-width="0" stroke-linecap="butt"/><path d="M255.16267,0.13731c0.17644,-0.70611 0.43646,-1.37805 0.77291,-2.01357c0.60861,0.17022 12.68963,1.57222 22.71619,5.51346c9.87404,3.88127 17.68923,10.29757 19.1289,11.1133c-4.06928,5.08729 -13.68617,7.15707 -23.8455,4.61845c-12.25653,-3.06267 -20.66127,-11.67297 -18.77251,-19.23164z" data-paper-data="{&quot;index&quot;:null}" fill="#ff8787" stroke="none" stroke-width="2" stroke-linecap="butt"/><path d="M265.317,-0.02227c1.32948,-5.32049 9.40103,-7.886 18.0283,-5.73022c8.62727,2.15577 14.5433,8.2165 13.2138,13.53701c-1.32948,5.32048 -9.40103,7.886 -18.0283,5.73021c-8.62727,-2.15577 -14.5433,-8.2165 -13.21382,-13.53699z" data-paper-data="{&quot;index&quot;:null}" fill="#000000" stroke="none" stroke-width="0" stroke-linecap="butt"/><path d="M205.62199,2.75386c0,1.10457 -0.76112,2 -1.7,2c-0.93888,0 -1.7,-0.89543 -1.7,-2c0,-1.10457 0.76112,-2 1.7,-2c0.93888,0 1.7,0.89543 1.7,2z" fill="#ff0000" stroke="none" stroke-width="0" stroke-linecap="butt"/><path d="M282.95532,3.08719c0,1.10457 -0.76112,2 -1.7,2c-0.93888,0 -1.7,-0.89543 -1.7,-2c0,-1.10457 0.76112,-2 1.7,-2c0.93889,0 1.7,0.89543 1.7,2z" fill="#ff0000" stroke="none" stroke-width="0" stroke-linecap="butt"/><g stroke="none" stroke-width="0" stroke-linecap="butt"><path d="M255.68977,350.73354c0,0 2.42584,-50.69805 2.42584,-77.06044c0,-28.47465 -2.42584,-87.93956 -2.42584,-87.93956h20.21539c0,0 -0.80862,59.33958 -0.80862,87.93956c0,26.18708 0.80862,77.06044 0.80862,77.06044z" fill="#000000"/><path d="M194.11322,204.9006c0,0 -17.25743,-42.01185 -17.25743,-43.60163c0,-0.68872 17.25743,-42.00981 17.25743,-42.00981c0,0 43.50168,-16.49804 46.0198,-16.49804c4.00035,0 47.66337,16.49804 47.66337,16.49804c0,0 13.55941,40.79269 13.55941,42.24569c0,1.64774 -13.55941,43.36575 -13.55941,43.36575c0,0 -46.92213,18.28161 -48.48515,18.28161c-0.40499,0 -45.19802,-18.28161 -45.19802,-18.28161z" fill="url(#color-10)"/></g></g><path d="M213.20002,128.29084l-2.4,-12.8c0,0 4.8021,-2.44509 13.39741,-2.2716c10.93744,0.22076 26.44517,-0.26174 32.86926,-0.26174c0.75641,0 19.73333,5.13334 19.73333,5.13334v10.2c0,0 -30.90068,19.5 -40.32501,19.5c-11.39809,0 -23.27499,-19.5 -23.27499,-19.5z" fill="#000000" stroke="none" stroke-width="0" stroke-linecap="butt"/><path d="M206.67311,308.48922l15.14285,-92.37211l37.78325,-0.11061l13.57389,92.48274z" fill="url(#color-11)" stroke="none" stroke-width="2" stroke-linecap="butt"/><g stroke="#000000" stroke-width="2"><path d="M228.67865,252.77758l-0.4697,-34.69326" fill="none" stroke-linecap="round"/><path d="M228.67865,253.35101c1.90232,0 3.44445,1.21238 3.44445,2.70792c0,1.49554 -1.54214,2.70792 -3.44445,2.70792c-1.90232,0 -3.44445,-1.21238 -3.44445,-2.70792c0,-1.49554 1.54214,-2.70792 3.44445,-2.70792z" fill="#000000" stroke-linecap="butt"/></g><g data-paper-data="{&quot;index&quot;:null}" stroke="#000000" stroke-width="2"><path d="M251.67864,253.71678l0.4697,-31.28216" fill="none" stroke-linecap="round"/><path d="M255.12308,256.67537c0,1.3485 -1.54213,2.44166 -3.44445,2.44166c-1.90231,0 -3.44445,-1.09318 -3.44445,-2.44166c0,-1.3485 1.54213,-2.44168 3.44445,-2.44168c1.90231,0 3.44445,1.09319 3.44445,2.44168z" fill="#000000" stroke-linecap="butt"/></g><path d="M175.26301,166.14614c0,-23.35737 14.14812,-43.61289 34.8388,-53.62733c0.88189,0.63823 16.68245,26.24696 19.78755,27.60578c2.98074,-1.75928 11.96491,-12.02377 14.96517,-13.54678c0.07163,-0.16169 8.23761,2.46048 8.50615,2.13824c0.48193,-0.57832 3.75251,3.01737 4.73278,2.62968c0.36388,-0.14391 10.55111,-6.94976 11.0661,-7.27461c0.39067,-0.24643 2.04213,-9.8178 2.2646,-10.26159c19.30762,10.39965 32.31288,29.94248 32.31288,52.3366c0,33.30185 -28.7599,60.29833 -64.23702,60.29833c-35.47712,0 -64.23702,-26.99649 -64.23702,-60.29833z" fill="url(#color-12)" stroke="none" stroke-width="2" stroke-linecap="butt"/><path d="M188.81324,166.57567c0,-12.968 10.51265,-23.48065 23.48065,-23.48065c12.968,0 23.48065,10.51265 23.48065,23.48065c0,12.968 -10.51265,23.48065 -23.48065,23.48065c-12.968,0 -23.48065,-10.51265 -23.48065,-23.48065z" fill="#ff0000" stroke="none" stroke-width="2" stroke-linecap="butt"/><path d="M266.5523,190.05651c-12.968,0 -23.48065,-10.51265 -23.48065,-23.48065c0,-12.968 10.51265,-23.48065 23.48065,-23.48065c12.968,0 23.48065,10.51265 23.48065,23.48065c0,12.968 -10.51265,23.48065 -23.48065,23.48065z" data-paper-data="{&quot;index&quot;:null}" fill="#ff0000" stroke="none" stroke-width="2" stroke-linecap="butt"/><path d="M201.4509,137.7672c0,0 6.70895,-5.16922 11.79721,-6.36355c5.08827,-1.19433 12.33413,0.69937 12.33413,0.69937c0,0 -8.03812,-0.06028 -11.96762,0.86207c-4.10648,0.96389 -12.16372,4.80211 -12.16372,4.80211z" fill="#000000" stroke="none" stroke-width="0" stroke-linecap="butt"/><path d="M265.38534,132.96517c-3.9295,-0.92235 -11.96762,-0.86207 -11.96762,-0.86207c0,0 7.24586,-1.8937 12.33413,-0.69937c5.08826,1.19433 11.79721,6.36355 11.79721,6.36355c0,0 -8.05724,-3.83822 -12.16372,-4.80211z" data-paper-data="{&quot;index&quot;:null}" fill="#000000" stroke="none" stroke-width="0" stroke-linecap="butt"/><path d="M195.67863,148.50023l-4.66666,-3.33333" fill="none" stroke="#000000" stroke-width="2" stroke-linecap="round"/><path d="M205.44175,142.87158l-1.50717,-5.53329" fill="none" stroke="#000000" stroke-width="2" stroke-linecap="round"/><g data-paper-data="{&quot;index&quot;:null}" fill="none" stroke="#000000" stroke-width="2" stroke-linecap="round"><path d="M283.99651,147.34296l4.66666,-3.33333"/><path d="M274.57624,142.94297l1.50716,-5.53329"/></g><path d="M212.2277,190.25655c-11.91039,0 -21.73472,-8.99568 -23.14064,-20.60921c1.17525,0.11467 45.97846,-0.06495 46.41361,-0.08003c-0.71485,12.32029 -10.86122,20.68924 -23.27297,20.68924z" fill="#ff4242" stroke="none" stroke-width="2" stroke-linecap="butt"/><path d="M195.82859,166.5c0,-9.12808 7.39976,-16.52784 16.52783,-16.52784c9.12808,0 16.52784,7.39977 16.52784,16.52784c0,9.12808 -7.39977,16.52784 -16.52784,16.52784c-9.12808,0 -16.52783,-7.39977 -16.52783,-16.52784z" fill="#000000" stroke="none" stroke-width="0" stroke-linecap="butt"/><path d="M243.25372,169.06725c0.43515,0.01507 45.23836,0.1947 46.41361,0.08003c-1.40593,11.61354 -11.23026,20.60922 -23.14065,20.60922c-12.41175,0 -22.55811,-8.36895 -23.27296,-20.68924z" data-paper-data="{&quot;index&quot;:null}" fill="#ff4242" stroke="none" stroke-width="2" stroke-linecap="butt"/><path d="M266.33974,183.12806c-9.12807,0 -16.52783,-7.39977 -16.52783,-16.52784c0,-9.12808 7.39977,-16.52784 16.52783,-16.52784c9.12807,0 16.52783,7.39977 16.52783,16.52784c0,9.12808 -7.39977,16.52784 -16.52783,16.52784z" data-paper-data="{&quot;index&quot;:null}" fill="#000000" stroke="none" stroke-width="0" stroke-linecap="butt"/><path d="M212.29703,179.33338c-0.32217,0 -0.32216,-25.16666 0,-25.16666c0.32217,0 0.32216,25.16666 0,25.16666z" fill="#ff0000" stroke="#ff0000" stroke-width="2" stroke-linecap="butt"/><path d="M266.4637,179.00011c-0.32217,0 -0.32216,-25.16666 0,-25.16666c0.32217,0 0.32216,25.16666 0,25.16666z" fill="#ff0000" stroke="#ff0000" stroke-width="2" stroke-linecap="butt"/><path d="" fill="none" stroke="#000000" stroke-width="1" stroke-linecap="round"/><path d="" fill="none" stroke="#000000" stroke-width="1" stroke-linecap="round"/><path d="" fill="none" stroke="#000000" stroke-width="1" stroke-linecap="round"/><path d="" fill="none" stroke="#000000" stroke-width="1" stroke-linecap="round"/><path d="" fill="none" stroke="#000000" stroke-width="1" stroke-linecap="round"/><path d="" fill="none" stroke="#000000" stroke-width="1" stroke-linecap="round"/><path d="" fill="none" stroke="#000000" stroke-width="1" stroke-linecap="round"/><g><path d="M254.83813,214.37788c-3.09219,2.63792 -6.64365,4.65731 -10.10357,5.77157c-3.52123,1.13401 -6.92898,1.33946 -7.49727,1.34134c-0.65904,0.00217 -4.18903,-0.36667 -7.38695,-1.76736c-4.07107,-1.78313 -7.9929,-4.77304 -8.99631,-5.73845c-6.05498,-5.82569 -8.23815,-15.84645 -8.15847,-18.74986c0.02277,-0.83028 11.95259,5.96362 25.09977,5.92026c13.56814,-0.04474 28.25665,-8.0288 28.24079,-7.45094c0,0 -4.39599,14.87072 -11.19799,20.67344z" data-paper-data="{&quot;index&quot;:null}" fill="url(#color-13)" stroke="none" stroke-width="0" stroke-linecap="butt"/><path d="M254.88785,214.71717c-2.85282,2.43372 -5.31947,4.09469 -8.54911,5.16803c-0.27098,0.09006 -3.49013,1.03088 -4.58585,1.23034c-2.17145,0.39528 -4.5437,0.66053 -4.67476,0.66096c-0.65904,0.00217 -4.42775,-0.65238 -7.62568,-2.05307c-4.07107,-1.78313 -8.11226,-4.77304 -9.11567,-5.73845c-0.53208,-0.51194 -3.07835,-4.42531 -3.55173,-4.99437c0.51827,-1.69412 5.01094,-10.61313 5.45238,-10.20963c0.52167,0.47682 3.53429,9.89512 4.31098,9.64199c1.35011,-0.44002 6.26395,-6.92898 6.3924,-6.84554c0.31767,0.20634 5.15244,4.92834 6.47408,5.48771c0.78081,0.33048 6.36127,-6.12391 6.72197,-5.90482c0.47823,0.29048 4.11288,4.33353 4.39071,4.47575c0.35077,0.17956 4.50472,-7.51011 5.13039,-8.10442c0.06377,0.58932 3.93014,9.5778 3.96241,10.02884c-0.01628,0.02313 -0.31516,1.69087 -1.07711,2.94471c-1.12859,1.85716 -2.9406,3.6022 -3.65539,4.21198z" data-paper-data="{&quot;index&quot;:null}" fill="#000000" stroke="none" stroke-width="0" stroke-linecap="butt"/><path d="M218.78977,210.76321l3.34213,-5.66666l4.54902,4.44445l6.59143,-5l6.49859,3.66666l6.49859,-4.88889l3.89916,3.44445l5.19888,-4.66666l3.15647,7.55555" fill="none" stroke="#000000" stroke-width="1" stroke-linecap="round"/></g><path d="M224.46153,187.27655c0,0 5.36055,-3.3035 6.90354,-5.55544c1.89715,-2.76881 3.63799,-9.8295 3.63799,-9.8295h8.97455c0,0 2.65543,8.58011 4.2887,11.35407c0.90879,1.5435 4.68585,3.88841 4.68585,3.88841c0,0 -8.59094,-2.0974 -12.96151,-2.07555c-5.03262,0.02516 -15.52913,2.218 -15.52913,2.218z" fill="url(#color-14)" stroke="none" stroke-width="NaN" stroke-linecap="butt"/><path d="M260.88144,133.0884c0,5.02579 -8.95431,10.67143 -20,10.67143c-2.14223,0 -7.10831,-0.21282 -9.57955,-1.29577c-0.8648,-0.37897 -3.5766,-1.29684 -4.63601,-2.55067c-4.7847,-5.66282 -9.11743,-18.17871 -9.90086,-18.85336c-0.73438,-0.63242 10.55646,17.53276 13.31229,18.61587c0.70511,0.27713 2.35906,-1.97321 2.51841,-1.97321c0.40849,0 12.06562,-11.55549 12.46993,-11.68586c0.03379,-0.0109 4.51863,1.97973 7.11568,2.76936c0.7593,0.23087 2.14111,-0.03287 2.22987,0.00732c1.13127,0.51228 6.47023,4.29141 6.47023,4.2949z" fill="url(#color-15)" stroke="none" stroke-width="0" stroke-linecap="butt"/><text transform="translate(238.42744,140.56996) rotate(12.98994) scale(0.5,0.37386) skewX(0.00019)" font-size="40" xml:space="preserve" fill="url(#color-16)" fill-rule="nonzero" stroke="none" stroke-width="1" stroke-linecap="butt" stroke-linejoin="miter" stroke-miterlimit="10" stroke-dasharray="" stroke-dashoffset="0" font-family="Handwriting" font-weight="normal" text-anchor="start" style="mix-blend-mode: normal"><tspan x="0" dy="0">8</tspan></text><path d="M240.99976,121.09502c0,0.5 -0.5,0.5 -0.5,0.5l-0.9199,-0.00646c-0.9272,0.13671 -0.10554,2.41166 0.0428,2.95051c0.12993,0.472 0.25831,0.92521 0.38959,1.36594c0.62985,-3.42136 4.68194,-5.24873 7.80652,-5.96022c1.70362,-0.24186 4.60184,-0.62176 6.01613,0.57917c0.9658,0.8201 1.0274,2.35755 1.3074,3.47964c0.77499,3.10575 1.45265,6.8972 1.45746,10.09141c0,0.88598 0.35757,2.77516 -0.03806,3.59134c-0.66397,1.36975 -2.68918,0.66968 -3.29717,-0.34524c-0.80332,-1.34097 -0.30125,-3.13976 -0.46133,-4.58765c-0.222,-2.00795 -1.05117,-4.30514 -0.97777,-6.30034c-1.6123,-2.17083 -4.91021,0.18711 -5.65303,2.00504c-0.98121,2.40138 -0.18825,6.90148 0.22137,9.35962c0.98542,6.74716 0.09211,12.2805 -2.46925,18.53758c-1.81605,2.25335 -3.39501,1.1958 -3.11832,-1.33022c0.49304,-4.50119 2.19356,-8.76342 2.19356,-13.33014c0,-2.19815 0.30159,-5.02298 -0.3026,-7.34275c-0.08946,-0.0397 -0.16512,-0.10489 -0.21773,-0.18635l-0.3957,-0.59355l0.10479,-0.06986c-0.51951,-0.6224 -0.95976,-1.3383 -1.34053,-2.10597c-1.19725,-1.09027 -2.8101,-2.15366 -2.85795,-1.00346c0,0 -0.09806,0.4903 -0.58835,0.39223c-0.49029,-0.09806 -0.39223,-0.58835 -0.39223,-0.58835c0.4552,-1.58407 1.73875,-1.47731 3.01729,-0.75268c-0.56913,-1.57891 -0.97894,-3.22334 -1.36829,-4.64c-0.43024,-1.56541 -1.08146,-3.46759 0.7612,-4.20281l1.08009,-0.00646c0,0 0.5,0 0.5,0.5z" fill="#000000" stroke="none" stroke-width="0.5" stroke-linecap="butt"/><path d="M256.49976,140.79501c0,0.49705 -0.6268,0.9 -1.4,0.9c-0.7732,0 -1.4,-0.40295 -1.4,-0.9c0,-0.49705 0.6268,-0.9 1.4,-0.9c0.7732,0 1.4,0.40295 1.4,0.9z" fill="#000000" stroke="none" stroke-width="0" stroke-linecap="butt"/><path d="M211.23476,117.45467c-0.07492,-0.85255 -0.01364,-1.62875 0.37265,-1.96527c0.13564,-0.11817 1.66875,0.26991 1.86297,0.33563c1.47993,0.50077 3.46778,1.41453 4.58294,2.51644c1.04084,1.0472 2.55086,1.87143 3.43864,3.04341c1.46724,1.93694 1.10781,4.63531 1.10781,6.91014c0,0.75686 0.28905,3.39356 -0.3691,3.97484c-1.32193,1.16754 -2.08315,-1.64458 -2.21872,-2.26514c-0.34575,-1.40411 -0.84138,-2.76492 -1.19725,-4.18843c-0.00761,-0.03042 -0.32415,-1.29546 -0.39341,-1.57646c0.03077,3.13439 -0.23887,6.31292 0.52409,9.3839c0.36153,1.48566 0.53209,3.61449 0.24797,5.14093c-0.1635,0.87844 -0.33494,2.24495 -1.66045,1.07009c-1.38976,-1.23181 0.30121,-5.09959 -0.65847,-6.67685c-0.50171,-0.82459 -1.95817,-0.2082 -2.78029,-0.97052c-1.63792,-3.23412 -2.89214,-8.4591 -2.89438,-12.09235c-0.00057,-0.93318 -0.16906,-1.85327 0.035,-2.64035zM212.31426,116.18859c-0.08189,-0.03428 -0.13341,-0.03343 -0.1382,0.02238c0.04102,-0.01198 0.08802,-0.0211 0.1382,-0.02238z" fill="#000000" stroke="none" stroke-width="0.5" stroke-linecap="butt"/><path d="M218.69976,141.195c0,0.49705 -0.35817,0.9 -0.8,0.9c-0.44183,0 -0.8,-0.40295 -0.8,-0.9c0,-0.49705 0.35817,-0.9 0.8,-0.9c0.44183,0 0.8,0.40295 0.8,0.9z" fill="#000000" stroke="none" stroke-width="0" stroke-linecap="butt"/><path d="M266.79976,123.32836c0,-0.07778 0,-0.15556 0,-0.23334c0.00964,-1.61352 1.09296,-5.05203 2.35699,-6.16379c0.91197,-0.80212 1.4534,-0.21599 1.82157,0.61889c0.28469,0.64557 0.02145,2.05064 0.02145,2.74489c0,2.57789 -0.14256,5.06085 -0.40062,7.62491c0.00203,3.1917 0.00062,6.3834 0.00062,9.57509c0,0.74466 0.29505,2.48349 -0.29129,3.08802c-2.28431,2.35522 -1.47347,-4.48362 -1.54584,-4.06269c-0.59641,0.18985 -1.31545,0.62118 -1.86849,-0.13298c-0.62329,-0.84995 -0.02538,-3.8341 0.10937,-4.75344c0.08988,-0.61322 0.12618,-1.23712 0.1175,-1.86453c-0.32124,-0.10209 -0.32125,-0.47438 -0.32125,-0.47438c0,-0.52873 0,-1.85746 0,-2.38619c-0.2695,-1.33394 -0.68596,-2.63366 -1.16424,-3.82811c0,0 -0.1857,-0.46424 0.27854,-0.64993c0.46424,-0.18569 0.64994,0.27854 0.64994,0.27854c0.08288,0.20741 0.1614,0.41367 0.23576,0.61904z" fill="#000000" stroke="none" stroke-width="0.5" stroke-linecap="butt"/><path d="M236.16116,177.88912l0.4,-8" fill="none" stroke="#000000" stroke-width="0.5" stroke-linecap="round"/><path d="M238.76116,170.88912l0.5,10.2" fill="none" stroke="#000000" stroke-width="0.5" stroke-linecap="round"/><path d="M241.66116,169.98912l0.6,2.7" fill="none" stroke="#000000" stroke-width="0.5" stroke-linecap="round"/><path d="M237.36116,167.08909l-0.1,1.4" fill="none" stroke="#000000" stroke-width="0.5" stroke-linecap="round"/><path d="M240.56116,165.48908v2.2" fill="none" stroke="#000000" stroke-width="0.5" stroke-linecap="round"/></g></g></svg>