<svg version="1.1" xmlns="http://www.w3.org/2000/svg" xmlns:xlink="http://www.w3.org/1999/xlink" width="160.97338" height="267.22501" viewBox="0,0,160.97338,267.22501"><defs><radialGradient cx="235.41431" cy="93.35173" r="15.35715" gradientUnits="userSpaceOnUse" id="color-1"><stop offset="0" stop-color="#af4300"/><stop offset="1" stop-color="#af4300" stop-opacity="0"/></radialGradient><radialGradient cx="256.77145" cy="94.63744" r="3.14285" gradientUnits="userSpaceOnUse" id="color-2"><stop offset="0" stop-color="#af4300"/><stop offset="1" stop-color="#af4300" stop-opacity="0"/></radialGradient><radialGradient cx="253.12859" cy="95.92316" r="2.64286" gradientUnits="userSpaceOnUse" id="color-3"><stop offset="0" stop-color="#af4300"/><stop offset="1" stop-color="#af4300" stop-opacity="0"/></radialGradient><radialGradient cx="266.34288" cy="94.49459" r="2.71429" gradientUnits="userSpaceOnUse" id="color-4"><stop offset="0" stop-color="#af4300"/><stop offset="1" stop-color="#af4300" stop-opacity="0"/></radialGradient><radialGradient cx="215.91431" cy="93.99459" r="4.57143" gradientUnits="userSpaceOnUse" id="color-5"><stop offset="0" stop-color="#af4300"/><stop offset="1" stop-color="#af4300" stop-opacity="0"/></radialGradient></defs><g transform="translate(-144.34065,-46.38751)"><g data-paper-data="{&quot;isPaintingLayer&quot;:true}" fill-rule="nonzero" stroke-linejoin="miter" stroke-miterlimit="10" stroke-dasharray="" stroke-dashoffset="0" style="mix-blend-mode: normal"><g stroke-linecap="butt"><path d="M179.28375,313.61252v-267.22501h123.18203v267.22501z" fill-opacity="0.01" fill="#000000" stroke="none" stroke-width="0"/><path d="M206.75006,307.5c0,0 2.17955,-18.9764 3.7767,-32.88207c2.77074,-24.12361 11.36615,-98.96003 11.36615,-98.96003l37.78325,-0.15789l13.57389,132z" fill="#e67c00" stroke="#000000" stroke-width="2"/><path d="M219.70029,204.11263l3.12142,-26.32765l35.83075,-0.14203l2.76735,26.1059c0,0 -7.51543,4.19603 -21.55904,4.50964c-12.48458,0.27879 -20.16049,-4.14586 -20.16049,-4.14586z" fill="#a85900" stroke="#000000" stroke-width="0"/><path d="M231.85214,214.86615c-2.13398,1.54514 -3.08827,3.39502 -4.25035,5.58208l-0.05911,0.3547c-0.01506,0.10142 -0.1025,0.17923 -0.20811,0.17923c-0.11621,0 -0.21041,-0.0942 -0.21041,-0.21041v-0.24047c0.00236,-0.50599 -0.1423,-0.98298 -0.40109,-1.41397c-0.53521,-1.55178 -1.79894,-2.95848 -3.45683,-3.26683c-0.71072,-0.13218 -1.4219,-0.06065 -2.12365,-0.14803v0.04959h-0.3607c-0.11621,0 -0.21041,-0.0942 -0.21041,-0.21041c0,-0.08399 0.04922,-0.15649 0.12039,-0.19023l0.23067,-0.11534c0.71767,-0.43462 1.57126,-0.74066 2.20946,-1.2903c0.87711,-0.75181 1.97169,-1.94227 2.20524,-3.17148c0.00492,-0.40392 -0.04991,-0.81418 -0.10098,-1.22111c-0.1551,-0.50711 -0.36622,-1.00557 -0.27,-1.45688c0,0 0.02578,-0.1031 0.11395,-0.14444v-0.045c0,-0.11621 0.0942,-0.21041 0.21041,-0.21041c0.10342,0 0.18942,0.07462 0.20709,0.17297l0.05935,0.29676l-0.00815,0.00163l0.01121,0.0189c-0.00023,0.09705 0.00353,0.19172 0.011,0.28435c0.08928,0.22143 0.13168,0.49954 0.15186,0.76584c0.15715,0.4964 0.41389,0.95432 0.70713,1.44277c1.05053,1.56452 2.70229,2.78143 4.6032,3.09094c0.53089,0.08644 1.02528,0.06326 1.53139,0.11996v-0.06223h0.42082c0.11621,0 0.2104,0.0942 0.2104,0.21041c0,0.10013 -0.06994,0.18393 -0.16364,0.2052l-0.22508,0.05627c-0.37025,0.15268 -0.64625,0.30736 -0.95504,0.56597zM222.15346,215.05318c-0.15022,0.07772 -0.30116,0.15415 -0.45062,0.23188c0.01923,-0.00005 0.03853,0.0001 0.05791,0.00044c0.04252,-0.04563 0.0968,-0.06372 0.0968,-0.06372l0.11544,-0.02481c0.06052,-0.04813 0.12067,-0.09603 0.18046,-0.14379z" fill="#ffc788" stroke="none" stroke-width="0.5"/><path d="M223.68845,209.96124c-0.47488,0.97872 -0.46105,1.83809 -0.457,2.86068l0.04773,0.1406c0.01432,0.03984 -0.00232,0.08522 -0.04075,0.10584c-0.04228,0.02268 -0.09494,0.00679 -0.11763,-0.03549l-0.04693,-0.0875c-0.0979,-0.18457 -0.24364,-0.32989 -0.42192,-0.4362c-0.49762,-0.46016 -1.23201,-0.72535 -1.89543,-0.51395c-0.2844,0.09062 -0.52921,0.25546 -0.8016,0.36064l0.00968,0.01804l-0.13125,0.07041c-0.04228,0.02268 -0.09494,0.00679 -0.11762,-0.03549c-0.01639,-0.03056 -0.01264,-0.06655 0.00667,-0.09271l0.06142,-0.08699c0.1763,-0.29821 0.42715,-0.57618 0.55209,-0.90073c0.1724,-0.44475 0.33832,-1.09155 0.18338,-1.5844c-0.07704,-0.14793 -0.17708,-0.28651 -0.27508,-0.4246c-0.15542,-0.15425 -0.32952,-0.29441 -0.3826,-0.4774c0,0 -0.01074,-0.04254 0.01327,-0.07479l-0.00878,-0.01638c-0.02268,-0.04228 -0.00679,-0.09494 0.03549,-0.11763c0.03763,-0.02018 0.08348,-0.00982 0.1091,0.02251l0.07952,0.0964l-0.00264,0.00218l0.00777,0.00469c0.01886,0.03536 0.0387,0.06907 0.0595,0.10131c0.0757,0.06314 0.14541,0.15606 0.20473,0.24902c0.15407,0.14995 0.33686,0.26645 0.53889,0.38694c0.68761,0.36422 1.52614,0.48461 2.27821,0.2262c0.21004,-0.07217 0.3854,-0.1771 0.58062,-0.25526l-0.01215,-0.02264l0.15311,-0.08213c0.04228,-0.02268 0.09494,-0.0068 0.11763,0.03548c0.01954,0.03644 0.01046,0.08058 -0.01949,0.10661l-0.07092,0.0644c-0.10492,0.12782 -0.17515,0.23797 -0.23703,0.39234zM220.19601,211.9223c-0.03949,0.0576 -0.07949,0.11487 -0.1187,0.17233c0.00699,-0.00377 0.01404,-0.00748 0.02116,-0.01114c0.00656,-0.0249 0.02278,-0.04208 0.02278,-0.04208l0.03716,-0.03156c0.01263,-0.02933 0.02516,-0.05849 0.0376,-0.08755z" fill="#ffc788" stroke="none" stroke-width="0.5"/><path d="M230.00614,217.1689l-0.07091,-0.0644c-0.02994,-0.02603 -0.03904,-0.07017 -0.01949,-0.10661c0.02268,-0.04228 0.07534,-0.05817 0.11763,-0.03548l0.15312,0.08213l-0.01215,0.02264c0.19522,0.07816 0.37058,0.18309 0.58062,0.25526c0.75207,0.25841 1.5906,0.13802 2.27822,-0.2262c0.20203,-0.12049 0.38483,-0.23699 0.53889,-0.38694c0.05932,-0.09295 0.12903,-0.18588 0.20473,-0.24902c0.02079,-0.03224 0.04064,-0.06596 0.05949,-0.10131l0.00777,-0.00469l-0.00264,-0.00219l0.07951,-0.0964c0.02562,-0.03233 0.07147,-0.0427 0.1091,-0.02251c0.04228,0.02268 0.05817,0.07534 0.03549,0.11763l-0.00878,0.01638c0.02401,0.03225 0.01327,0.07479 0.01327,0.07479c-0.05308,0.18299 -0.22718,0.32315 -0.3826,0.4774c-0.09801,0.13809 -0.19804,0.27667 -0.27508,0.4246c-0.15494,0.49284 0.01097,1.13965 0.18337,1.5844c0.12493,0.32456 0.37579,0.60252 0.55209,0.90073l0.06142,0.08699c0.01931,0.02616 0.02307,0.06215 0.00667,0.09271c-0.02268,0.04228 -0.07534,0.05817 -0.11762,0.03549l-0.13125,-0.0704l0.00968,-0.01804c-0.27239,-0.10518 -0.5172,-0.27001 -0.8016,-0.36064c-0.66342,-0.2114 -1.3978,0.05378 -1.89542,0.51395c-0.17828,0.1063 -0.32403,0.25163 -0.42193,0.4362l-0.04693,0.0875c-0.02268,0.04228 -0.07534,0.05818 -0.11763,0.03549c-0.03842,-0.02061 -0.05506,-0.066 -0.04074,-0.10584l0.04772,-0.1406c0.00404,-1.02259 0.01788,-1.88196 -0.457,-2.86068c-0.06188,-0.15437 -0.13211,-0.26452 -0.23703,-0.39234zM233.7732,219.60985l0.03716,0.03156c0,0 0.01622,0.01718 0.02278,0.04208c0.00712,0.00366 0.01417,0.00737 0.02116,0.01114c-0.03921,-0.05746 -0.07922,-0.11472 -0.1187,-0.17233c0.01244,0.02905 0.02497,0.05822 0.0376,0.08755z" data-paper-data="{&quot;index&quot;:null}" fill="#ffc788" stroke="none" stroke-width="0.5"/><g fill="#ffc788" stroke="none" stroke-width="0.5"><path d="M252.92444,293.90018l-0.22508,-0.05627c-0.0937,-0.02127 -0.16364,-0.10506 -0.16364,-0.2052c0,-0.1162 0.0942,-0.2104 0.2104,-0.2104h0.42082v0.06223c0.50611,-0.0567 1.00051,-0.03352 1.53139,-0.11996c1.9009,-0.30951 3.55266,-1.52642 4.6032,-3.09094c0.29324,-0.48845 0.54998,-0.94636 0.70713,-1.44276c0.02018,-0.2663 0.06257,-0.54442 0.15186,-0.76584c0.00746,-0.09262 0.01122,-0.1873 0.01099,-0.28434l0.01121,-0.0189l-0.00815,-0.00163l0.05935,-0.29676c0.01767,-0.09834 0.10366,-0.17297 0.20708,-0.17297c0.1162,0 0.21041,0.09421 0.21041,0.21041v0.045c0.08817,0.04134 0.11395,0.14443 0.11395,0.14443c0.09621,0.4513 -0.1149,0.94977 -0.27,1.45688c-0.05106,0.40693 -0.1059,0.81719 -0.10098,1.2211c0.23355,1.22922 1.32813,2.41968 2.20524,3.17149c0.6382,0.54964 1.49179,0.85568 2.20945,1.2903l0.23067,0.11534c0.07117,0.03373 0.12039,0.10623 0.12039,0.19023c0,0.1162 -0.0942,0.21041 -0.21041,0.21041h-0.3607v-0.04959c-0.70175,0.08738 -1.41293,0.01585 -2.12365,0.14803c-1.65789,0.30834 -2.92162,1.71505 -3.45683,3.26683c-0.2588,0.43099 -0.40346,0.90798 -0.40109,1.41397v0.24046c0,0.1162 -0.09421,0.21041 -0.21041,0.21041c-0.10561,0 -0.19305,-0.07781 -0.20811,-0.17923l-0.05912,-0.3547c-1.16208,-2.18705 -2.11637,-4.03694 -4.25035,-5.58208c-0.30879,-0.25861 -0.58479,-0.41329 -0.95504,-0.56597zM263.75862,294.79697l0.11545,0.02481c0,0 0.05428,0.0181 0.09679,0.06372c0.01938,-0.00034 0.03869,-0.00049 0.05792,-0.00044c-0.14945,-0.07773 -0.30041,-0.15416 -0.45062,-0.23188c0.0598,0.04776 0.11995,0.09566 0.18046,0.1438z" data-paper-data="{&quot;index&quot;:null}"/><path d="M261.80614,289.1689l-0.07092,-0.06441c-0.02994,-0.02603 -0.03904,-0.07017 -0.01949,-0.10661c0.02268,-0.04228 0.07535,-0.05816 0.11763,-0.03548l0.15312,0.08213l-0.01215,0.02264c0.19522,0.07815 0.37058,0.18309 0.58062,0.25525c0.75207,0.2584 1.5906,0.13802 2.27821,-0.2262c0.20204,-0.12049 0.38483,-0.23699 0.5389,-0.38694c0.05932,-0.09296 0.12903,-0.18588 0.20473,-0.24902c0.0208,-0.03224 0.04064,-0.06595 0.0595,-0.10131l0.00777,-0.00469l-0.00264,-0.00218l0.07951,-0.09639c0.02562,-0.03233 0.07148,-0.0427 0.1091,-0.02251c0.04228,0.02268 0.05817,0.07534 0.03549,0.11762l-0.00878,0.01638c0.02402,0.03225 0.01327,0.07479 0.01327,0.07479c-0.05307,0.18299 -0.22718,0.32315 -0.3826,0.4774c-0.09801,0.1381 -0.19804,0.27667 -0.27508,0.4246c-0.15494,0.49284 0.01097,1.13964 0.18337,1.58439c0.12493,0.32456 0.37579,0.60252 0.55209,0.90073l0.06142,0.08699c0.01931,0.02616 0.02306,0.06216 0.00667,0.09271c-0.02268,0.04228 -0.07534,0.05817 -0.11762,0.03549l-0.13124,-0.0704l0.00968,-0.01804c-0.2724,-0.10517 -0.5172,-0.27001 -0.8016,-0.36064c-0.66342,-0.2114 -1.39781,0.05378 -1.89542,0.51394c-0.17829,0.10631 -0.32403,0.25163 -0.42192,0.4362l-0.04694,0.08749c-0.02268,0.04228 -0.07534,0.05817 -0.11762,0.03549c-0.03843,-0.02062 -0.05506,-0.06599 -0.04075,-0.10583l0.04773,-0.1406c0.00405,-1.0226 0.01788,-1.88196 -0.457,-2.86068c-0.06188,-0.15437 -0.13211,-0.26452 -0.23703,-0.39234zM265.5732,291.60985l0.03717,0.03156c0,0 0.01621,0.01718 0.02278,0.04208c0.00712,0.00366 0.01417,0.00737 0.02116,0.01114c-0.03921,-0.05746 -0.07921,-0.11473 -0.1187,-0.17233c0.01244,0.02905 0.02497,0.05822 0.0376,0.08755z" data-paper-data="{&quot;index&quot;:null}"/><path d="M255.48845,297.16123c-0.47488,0.97872 -0.46104,1.83808 -0.457,2.86068l0.04772,0.1406c0.01432,0.03984 -0.00232,0.08522 -0.04074,0.10584c-0.04228,0.02268 -0.09494,0.00678 -0.11763,-0.0355l-0.04693,-0.08749c-0.0979,-0.18457 -0.24364,-0.32989 -0.42193,-0.4362c-0.49762,-0.46017 -1.232,-0.72535 -1.89542,-0.51394c-0.2844,0.09062 -0.52921,0.25546 -0.8016,0.36064l0.00968,0.01804l-0.13125,0.0704c-0.04228,0.02268 -0.09494,0.00679 -0.11762,-0.03549c-0.01639,-0.03056 -0.01264,-0.06655 0.00667,-0.09271l0.06142,-0.08699c0.1763,-0.29822 0.42715,-0.57617 0.55209,-0.90073c0.1724,-0.44475 0.33832,-1.09155 0.18337,-1.5844c-0.07704,-0.14793 -0.17708,-0.2865 -0.27508,-0.4246c-0.15542,-0.15425 -0.32952,-0.29441 -0.3826,-0.4774c0,0 -0.01074,-0.04254 0.01327,-0.07479l-0.00878,-0.01638c-0.02268,-0.04228 -0.00679,-0.09495 0.03549,-0.11763c0.03763,-0.02019 0.08348,-0.00982 0.1091,0.02251l0.07951,0.0964l-0.00264,0.00218l0.00777,0.00469c0.01886,0.03535 0.0387,0.06907 0.05949,0.10131c0.0757,0.06314 0.14541,0.15606 0.20473,0.24902c0.15407,0.14995 0.33686,0.26645 0.53889,0.38694c0.68761,0.36422 1.52615,0.4846 2.27822,0.2262c0.21004,-0.07216 0.3854,-0.1771 0.58062,-0.25526l-0.01215,-0.02264l0.15312,-0.08213c0.04228,-0.02268 0.09494,-0.0068 0.11763,0.03548c0.01954,0.03643 0.01045,0.08058 -0.01949,0.10661l-0.07091,0.0644c-0.10492,0.12782 -0.17515,0.23797 -0.23703,0.39234zM251.99601,299.1223c-0.03949,0.0576 -0.07949,0.11487 -0.1187,0.17233c0.00699,-0.00377 0.01404,-0.00748 0.02116,-0.01114c0.00656,-0.0249 0.02278,-0.04208 0.02278,-0.04208l0.03716,-0.03156c0.01263,-0.02932 0.02516,-0.05849 0.0376,-0.08754z" data-paper-data="{&quot;index&quot;:null}"/></g></g><path d="M275.65602,167.66531c9.14649,0.69331 13.32248,25.6704 11.46487,50.17676c-1.65943,21.89197 -14.53862,63.77197 -24.40369,70.20581c-0.7846,0.51171 -3.01179,-50.31107 -1.15419,-74.81744c1.8576,-24.50637 4.94652,-46.25845 14.093,-45.56514z" data-paper-data="{&quot;index&quot;:null}" fill="#ffffff" stroke="#000000" stroke-width="2" stroke-linecap="butt"/><path d="M220.00346,215.85672c0.25321,10.41577 -0.90346,31.08531 -2.33342,47.85889c-1.21101,14.20537 -2.61803,25.61648 -3.53068,25.63866c-9.17002,0.22292 -19.29952,-45.63444 -19.8968,-70.20386c-0.59728,-24.56941 4.85524,-49.29923 14.02526,-49.52215c9.17002,-0.22292 11.13836,21.65904 11.73563,46.22845z" fill="#ffffff" stroke="#000000" stroke-width="2" stroke-linecap="butt"/><path d="M183.72135,114.42593c-1.30084,0.40498 -11.53203,4.32572 -15.29959,7.56004c-3.14207,2.7197 -4.08754,9.58924 -4.12269,12.64864c-0.04255,3.73108 0.91197,6.70808 3.29049,10.28053c2.29956,3.4536 14.20782,11.15765 16.13179,12.07841l4.26648,12.95639c0,0 -20.22227,-4.49645 -32.31874,-14.89443c-4.08744,-3.51352 -9.8267,-12.8102 -10.32844,-21.48936c-0.47739,-8.25788 4.13488,-15.95673 6.0846,-17.58337c11.82862,-9.86858 32.2961,-14.83284 32.2961,-14.83284z" data-paper-data="{&quot;index&quot;:null}" fill="#f7dbb5" stroke="#000000" stroke-width="2" stroke-linecap="butt"/><g fill="#f7dbb5" stroke="#000000" stroke-width="2" stroke-linecap="butt"><g data-paper-data="{&quot;index&quot;:null}"><g data-paper-data="{&quot;index&quot;:null}"><path d="M249.13261,97.64853c-1.43795,-1.22127 -2.44285,-2.94424 -2.79866,-5.06624c-0.98212,-5.85726 3.35305,-12.53671 9.6829,-14.91897c6.32984,-2.38226 12.25738,0.43479 13.23951,6.29205c0.98212,5.85726 -3.35306,12.5367 -9.68291,14.91896c-4.03664,1.5192 -7.90966,0.92395 -10.44083,-1.2258z"/></g><g data-paper-data="{&quot;index&quot;:null}"><path d="M280.18455,97.37582c0,-6.03925 5.29078,-10.93502 11.8173,-10.93502c6.52652,0 11.8173,4.89578 11.8173,10.93502c0,6.03925 -5.29078,10.93502 -11.8173,10.93502c-6.52652,0 -11.8173,-4.89577 -11.8173,-10.93502z"/><path d="M264.96108,92.06452c0,-6.03925 5.29079,-10.93502 11.8173,-10.93502c6.52652,0 11.8173,4.89577 11.8173,10.93502c0,6.03925 -5.29078,10.93502 -11.8173,10.93502c-6.52652,0 -11.8173,-4.89578 -11.8173,-10.93502z"/></g></g><g data-paper-data="{&quot;index&quot;:null}"><path d="M219.33368,98.87433c-6.07061,-2.38226 -10.22825,-9.0617 -9.28634,-14.91896c0.9419,-5.85726 6.62668,-8.67431 12.69729,-6.29205c6.07061,2.38226 10.22824,9.06171 9.28634,14.91897c-0.9419,5.85726 -6.62668,8.6743 -12.69728,6.29204z"/><path d="M234.32209,99.27984c-6.07061,-2.38226 -10.22825,-9.06171 -9.28634,-14.91897c0.9419,-5.85726 6.62668,-8.6743 12.69729,-6.29204c6.07061,2.38226 10.22824,9.0617 9.28634,14.91896c-0.9419,5.85726 -6.62668,8.6743 -12.69728,6.29205z"/></g><g data-paper-data="{&quot;index&quot;:null}"><path d="M188.23336,108.31084c-6.25922,0 -11.33334,-4.89577 -11.33334,-10.93502c0,-6.03925 5.07411,-10.93502 11.33334,-10.93502c6.25922,0 11.33333,4.89578 11.33333,10.93502c0,6.03925 -5.07411,10.93502 -11.33333,10.93502z"/><path d="M202.83336,102.99954c-6.25922,0 -11.33334,-4.89578 -11.33334,-10.93502c0,-6.03925 5.07411,-10.93502 11.33334,-10.93502c6.25922,0 11.33333,4.89577 11.33333,10.93502c0,6.03925 -5.07411,10.93502 -11.33333,10.93502z"/></g></g><path d="M303.83333,101.58334c0,7.73199 -28.3553,14 -63.33333,14c-34.97803,0 -63.33333,-6.26801 -63.33333,-14c0,-7.73199 28.3553,-14 63.33333,-14c34.97803,0 63.33333,6.26801 63.33333,14z" fill="#6c2a00" stroke="#000000" stroke-width="2" stroke-linecap="butt"/><g fill="#f7dbb5" stroke="#000000" stroke-width="2" stroke-linecap="butt"><g data-paper-data="{&quot;index&quot;:null}"><path d="M259.57344,99.57307c6.32984,1.7267 10.66503,6.56807 9.68291,10.81351c-0.98212,4.24544 -6.90966,6.28728 -13.23951,4.56059c-6.32985,-1.7267 -10.66502,-6.56808 -9.6829,-10.81352c0.35581,-1.53806 1.36071,-2.7869 2.79866,-3.67209c2.53117,-1.55818 6.40419,-1.98963 10.44083,-0.88849z"/></g><g data-paper-data="{&quot;index&quot;:null}"><path d="M292.00185,92.73334c6.52652,0 11.8173,3.54854 11.8173,7.92589c0,4.37735 -5.29078,7.92589 -11.8173,7.92589c-6.52652,0 -11.8173,-3.54854 -11.8173,-7.92589c0,-4.37735 5.29078,-7.92589 11.8173,-7.92589z"/><path d="M276.77838,96.58305c6.52652,0 11.8173,3.54854 11.8173,7.92589c0,4.37735 -5.29078,7.92589 -11.8173,7.92589c-6.52652,0 -11.8173,-3.54854 -11.8173,-7.92589c0,-4.37735 5.29079,-7.92589 11.8173,-7.92589z"/></g></g><g fill="#f7dbb5" stroke="#000000" stroke-width="2" stroke-linecap="butt"><path d="M232.03096,103.21405c0.9419,4.58709 -3.21573,9.81808 -9.28634,11.68374c-6.07061,1.86566 -11.75538,-0.34051 -12.69729,-4.9276c-0.9419,-4.58709 3.21573,-9.81807 9.28634,-11.68373c6.07061,-1.86566 11.75538,0.3405 12.69728,4.92759z"/><path d="M247.01938,102.89648c0.9419,4.58709 -3.21573,9.81807 -9.28634,11.68373c-6.07061,1.86566 -11.75538,-0.3405 -12.69729,-4.92759c-0.9419,-4.58709 3.21573,-9.81808 9.28634,-11.68373c6.07061,-1.86566 11.75538,0.3405 12.69728,4.92759z"/></g><g fill="#f7dbb5" stroke="#000000" stroke-width="2" stroke-linecap="butt"><path d="M199.56669,100.40767c0,4.60661 -5.07411,8.341 -11.33333,8.341c-6.25922,0 -11.33334,-3.73439 -11.33334,-8.341c0,-4.60661 5.07411,-8.341 11.33334,-8.341c6.25922,0 11.33333,3.73439 11.33333,8.341z"/><path d="M214.16669,104.45901c0,4.60661 -5.07411,8.34099 -11.33333,8.34099c-6.25922,0 -11.33334,-3.73439 -11.33334,-8.34099c0,-4.60661 5.07411,-8.341 11.33334,-8.341c6.25922,0 11.33333,3.73439 11.33333,8.341z"/></g><path d="M174.52325,136.51699c0,-1.57271 0.34044,-30.50779 3.04944,-36.31717c0.14519,-0.31137 29.38735,5.90088 59.25932,5.9715c32.58371,0.07703 66.0433,-5.95118 66.49769,-5.41611c0.73852,0.86965 0.98433,31.81078 0.98433,36.09095c0,33.30185 -28.7599,60.29833 -64.23702,60.29833c-35.47712,0 -65.55375,-27.32567 -65.55375,-60.62751z" fill="#f8f7f9" stroke="#000000" stroke-width="2" stroke-linecap="butt"/><path d="M175.57549,136.90001c0,-0.72799 6.19421,55.91939 64.34801,56.93429c55.56352,0.9697 63.51358,-57.95314 63.51358,-56.93429c0,32.80479 -28.40173,59.39833 -63.43702,59.39833c-35.03529,0 -64.42457,-26.59354 -64.42457,-59.39833z" fill="#bdbcbe" stroke="#000000" stroke-width="0" stroke-linecap="butt"/><path d="M189.39019,137.27564c0,-12.968 10.51265,-23.48065 23.48065,-23.48065c12.968,0 23.48065,10.51265 23.48065,23.48065c0,12.968 -10.51265,23.48065 -23.48065,23.48065c-12.968,0 -23.48065,-10.51265 -23.48065,-23.48065z" fill="#d95300" stroke="#000000" stroke-width="2" stroke-linecap="butt"/><path d="M267.12926,160.75627c-12.968,0 -23.48065,-10.51265 -23.48065,-23.48065c0,-12.968 10.51265,-23.48065 23.48065,-23.48065c12.968,0 23.48065,10.51265 23.48065,23.48065c0,12.968 -10.51265,23.48065 -23.48065,23.48065z" data-paper-data="{&quot;index&quot;:null}" fill="#d95300" stroke="#000000" stroke-width="2" stroke-linecap="butt"/><path d="M267.62905,109.33173c-3.9295,-0.92235 -11.96762,-0.86207 -11.96762,-0.86207c0,0 7.24586,-1.8937 12.33413,-0.69937c5.08826,1.19433 11.79721,6.36355 11.79721,6.36355c0,0 -8.05724,-3.83822 -12.16372,-4.80211z" data-paper-data="{&quot;index&quot;:null}" fill="#000000" stroke="none" stroke-width="0" stroke-linecap="butt"/><path d="M201.72476,163.03745l2,-4" fill="none" stroke="#000000" stroke-width="2" stroke-linecap="round"/><path d="M213.32476,161.23745l-0.2,4" fill="none" stroke="#000000" stroke-width="2" stroke-linecap="round"/><g fill="none" stroke="#000000" stroke-width="2" stroke-linecap="round"><path d="M278.52476,163.23745l-2,-4" data-paper-data="{&quot;index&quot;:null}"/><path d="M267.12476,165.43745l-0.2,-4" data-paper-data="{&quot;index&quot;:null}"/></g><path d="M250.77145,93.35173c0,1.61741 -6.87563,2.92857 -15.35715,2.92857c-8.48152,0 -15.35714,-1.31117 -15.35714,-2.92857c0,-1.61741 6.87563,-2.92857 15.35714,-2.92857c8.48152,0 15.35715,1.31117 15.35715,2.92857z" fill="url(#color-1)" stroke="none" stroke-width="0" stroke-linecap="butt"/><path d="M259.91431,94.63744c0,1.14402 -1.40711,2.07143 -3.14285,2.07143c-1.73575,0 -3.14286,-0.92741 -3.14286,-2.07143c0,-1.14402 1.40711,-2.07143 3.14286,-2.07143c1.73575,0 3.14285,0.92741 3.14285,2.07143z" fill="url(#color-2)" stroke="none" stroke-width="0" stroke-linecap="butt"/><path d="M255.77145,95.92316c0,0.74953 -1.18325,1.35715 -2.64286,1.35715c-1.45961,0 -2.64285,-0.60761 -2.64285,-1.35715c0,-0.74953 1.18324,-1.35714 2.64285,-1.35714c1.45961,0 2.64286,0.60761 2.64286,1.35714z" fill="url(#color-3)" stroke="none" stroke-width="0" stroke-linecap="butt"/><path d="M269.05717,94.49459c0,0.67063 -1.21523,1.21429 -2.71429,1.21429c-1.49906,0 -2.71429,-0.54366 -2.71429,-1.21429c0,-0.67063 1.21523,-1.21429 2.71429,-1.21429c1.49906,0 2.71429,0.54366 2.71429,1.21429z" fill="url(#color-4)" stroke="none" stroke-width="0" stroke-linecap="butt"/><path d="M220.48574,93.99459c0,1.57796 -2.0467,2.85714 -4.57143,2.85714c-2.52473,0 -4.57143,-1.27918 -4.57143,-2.85714c0,-1.57796 2.04669,-2.85715 4.57143,-2.85715c2.52473,0 4.57143,1.27919 4.57143,2.85715z" fill="url(#color-5)" stroke="none" stroke-width="0" stroke-linecap="butt"/><path d="M195.66142,116.13384c0,0 6.70895,-5.16922 11.79721,-6.36355c5.08827,-1.19433 12.33413,0.69937 12.33413,0.69937c0,0 -8.03812,-0.06028 -11.96762,0.86207c-4.10648,0.96389 -12.16372,4.80211 -12.16372,4.80211z" data-paper-data="{&quot;index&quot;:null}" fill="#000000" stroke="none" stroke-width="0" stroke-linecap="butt"/><path d="M246.57897,181.02192c0,1.49724 -3.0805,0.59734 -7.29167,0.59734c-4.21117,0 -7.95833,0.8999 -7.95833,-0.59734c0,-1.49724 3.41383,-2.711 7.625,-2.711c4.21117,0 7.625,1.21375 7.625,2.711z" fill="#000000" stroke="none" stroke-width="0" stroke-linecap="butt"/><g fill="#fa6000" stroke="none" stroke-width="0" stroke-linecap="butt"><path d="M212.57083,160.75629c-2.4121,0 -4.73926,-0.36371 -6.92962,-1.03929c1.15799,-2.98587 2.42549,-5.89337 3.75907,-8.81203c1.45167,-3.1771 3.28688,-6.17208 4.88939,-9.2752c1.60584,-3.10958 3.20774,-6.21187 4.92318,-9.26255c1.70773,-3.03697 3.34467,-6.11133 4.904,-9.22778c0.74651,-1.49201 1.42322,-3.27231 2.36103,-4.7849c2.0471,1.50716 3.84077,3.33855 5.30524,5.41844c-0.86848,1.40949 -1.59464,2.89518 -2.36093,4.49162c-1.50952,3.14485 -2.88874,6.34322 -4.36351,9.50326c-1.48416,3.18035 -2.92108,6.36173 -4.26576,9.60367c-1.34276,3.2373 -2.80196,6.41686 -3.95368,9.72807c-0.40157,1.15452 -0.80966,2.30659 -1.21432,3.45986c-0.99965,0.12984 -2.01905,0.19681 -3.05409,0.19681z"/><path d="M212.57083,113.79499c2.61799,0 5.13591,0.42845 7.48746,1.21906c-1.42544,1.77619 -2.82904,4.784 -3.7171,6.18482c-1.7983,2.98962 -3.22666,6.19241 -4.58891,9.40489c-1.36674,3.22334 -2.79055,6.40841 -4.26555,9.58364c-1.45844,3.13957 -2.94158,6.27104 -4.62272,9.2971c-1.29397,2.32915 -2.48658,4.70342 -3.69839,7.07167c-4.01622,-2.7976 -7.11711,-6.81797 -8.76328,-11.52168c0.07671,-0.14416 0.15353,-0.28827 0.23047,-0.43234c1.64336,-3.07727 3.47983,-6.04497 5.14391,-9.11038c1.66126,-3.06021 3.31663,-6.11284 5.09442,-9.10707c1.78594,-3.00794 3.54942,-6.0282 5.28557,-9.06524c0.53596,-0.93756 1.04438,-1.9931 1.59788,-3.03005c1.55454,-0.32406 3.16548,-0.49441 4.81621,-0.49441z"/></g><path d="M189.39019,137.27564c0,-12.968 10.51265,-23.48065 23.48065,-23.48065c12.968,0 23.48065,10.51265 23.48065,23.48065c0,12.968 -10.51265,23.48065 -23.48065,23.48065c-12.968,0 -23.48065,-10.51265 -23.48065,-23.48065z" fill="none" stroke="#000000" stroke-width="2" stroke-linecap="butt"/><g data-paper-data="{&quot;index&quot;:null}" fill="#fa6000" stroke="none" stroke-width="0" stroke-linecap="butt"><path d="M267.11463,160.75627c-1.03504,0 -2.05444,-0.06697 -3.05409,-0.19681c-0.40466,-1.15327 -0.81275,-2.30534 -1.21432,-3.45986c-1.15172,-3.31121 -2.61092,-6.49077 -3.95368,-9.72807c-1.34468,-3.24194 -2.7816,-6.42332 -4.26576,-9.60367c-1.47477,-3.16004 -2.85399,-6.35841 -4.36351,-9.50326c-0.76629,-1.59644 -1.49245,-3.08213 -2.36093,-4.49162c1.46447,-2.07989 3.25814,-3.91128 5.30524,-5.41844c0.93781,1.51259 1.61452,3.29289 2.36103,4.7849c1.55933,3.11645 3.19627,6.19081 4.904,9.22778c1.71544,3.05068 3.31734,6.15297 4.92318,9.26255c1.60251,3.10312 3.43772,6.0981 4.88939,9.2752c1.33358,2.91866 2.60108,5.82616 3.75907,8.81203c-2.19036,0.67558 -4.51752,1.03929 -6.92962,1.03929z"/><path d="M267.11466,113.795c1.65073,0 3.26167,0.17035 4.81621,0.49441c0.5535,1.03695 1.06192,2.09249 1.59788,3.03005c1.73615,3.03704 3.49963,6.0573 5.28557,9.06524c1.77779,2.99423 3.43316,6.04686 5.09442,9.10707c1.66408,3.06541 3.50055,6.03311 5.14391,9.11038c0.07694,0.14407 0.15376,0.28818 0.23047,0.43234c-1.64617,4.70371 -4.74706,8.72408 -8.76328,11.52168c-1.21181,-2.36825 -2.40442,-4.74252 -3.69839,-7.07167c-1.68114,-3.02606 -3.16428,-6.15753 -4.62272,-9.2971c-1.475,-3.17523 -2.89881,-6.3603 -4.26555,-9.58364c-1.36225,-3.21248 -2.79061,-6.41527 -4.58891,-9.40489c-0.88806,-1.40082 -2.29166,-4.40863 -3.7171,-6.18482c2.35155,-0.79061 4.86947,-1.21906 7.48746,-1.21906z"/></g><path d="M243.64019,137.02564c0,-12.968 10.51265,-23.48065 23.48065,-23.48065c12.968,0 23.48065,10.51265 23.48065,23.48065c0,12.968 -10.51265,23.48065 -23.48065,23.48065c-12.968,0 -23.48065,-10.51265 -23.48065,-23.48065z" fill="none" stroke="#000000" stroke-width="2" stroke-linecap="butt"/><path d="M189.39019,137.52564c0,-13.10607 10.51265,-23.73065 23.48065,-23.73065c12.968,0 23.48065,10.62458 23.48065,23.73065c0,13.10607 -10.51265,23.73065 -23.48065,23.73065c-12.968,0 -23.48065,-10.62458 -23.48065,-23.73065z" fill="none" stroke="#000000" stroke-width="2" stroke-linecap="butt"/><path d="M243.64019,137.27564c0,-13.10607 10.51265,-23.73065 23.48065,-23.73065c12.968,0 23.48065,10.62458 23.48065,23.73065c0,13.10607 -10.51265,23.73065 -23.48065,23.73065c-12.968,0 -23.48065,-10.62458 -23.48065,-23.73065z" fill="none" stroke="#000000" stroke-width="2" stroke-linecap="butt"/><path d="M252.5548,177.92738c0,0 -4.09668,4 -12.91066,4.14285c-7.26585,0.11777 -12.19893,-4.14285 -12.19893,-4.14285" fill="none" stroke="#000000" stroke-width="2" stroke-linecap="round"/></g></g></svg>