<svg version="1.1" xmlns="http://www.w3.org/2000/svg" xmlns:xlink="http://www.w3.org/1999/xlink" width="156.46178" height="283.26385" viewBox="0,0,156.46178,283.26385"><defs><linearGradient x1="213.93054" y1="210.39935" x2="213.93054" y2="282.64432" gradientUnits="userSpaceOnUse" id="color-1"><stop offset="0" stop-color="#000000"/><stop offset="1" stop-color="#e8aa00"/></linearGradient><linearGradient x1="240.65031" y1="173.91904" x2="240.65031" y2="306.70921" gradientUnits="userSpaceOnUse" id="color-2"><stop offset="0" stop-color="#000000"/><stop offset="1" stop-color="#d7d8d8"/></linearGradient><linearGradient x1="276.50982" y1="23.89717" x2="276.50982" y2="131.68398" gradientUnits="userSpaceOnUse" id="color-3"><stop offset="0" stop-color="#000000"/><stop offset="1" stop-color="#e90e4b"/></linearGradient><linearGradient x1="282.34008" y1="27.07148" x2="282.34008" y2="127.23088" gradientUnits="userSpaceOnUse" id="color-4"><stop offset="0" stop-color="#000000"/><stop offset="1" stop-color="#7d0829"/></linearGradient><linearGradient x1="296.37077" y1="25.87525" x2="296.37077" y2="41.5444" gradientUnits="userSpaceOnUse" id="color-5"><stop offset="0" stop-color="#000000"/><stop offset="1" stop-color="#770727"/></linearGradient><linearGradient x1="287.95592" y1="30.89468" x2="287.95592" y2="42.43142" gradientUnits="userSpaceOnUse" id="color-6"><stop offset="0" stop-color="#000000"/><stop offset="1" stop-color="#770727"/></linearGradient><linearGradient x1="288.25543" y1="44.68066" x2="288.25543" y2="66.18967" gradientUnits="userSpaceOnUse" id="color-7"><stop offset="0" stop-color="#000000"/><stop offset="1" stop-color="#620620"/></linearGradient><linearGradient x1="202.75985" y1="25.40985" x2="202.75985" y2="133.19663" gradientUnits="userSpaceOnUse" id="color-8"><stop offset="0" stop-color="#000000"/><stop offset="1" stop-color="#e90e4b"/></linearGradient><linearGradient x1="196.9296" y1="28.58413" x2="196.9296" y2="128.74352" gradientUnits="userSpaceOnUse" id="color-9"><stop offset="0" stop-color="#000000"/><stop offset="1" stop-color="#7d0829"/></linearGradient><linearGradient x1="182.8989" y1="27.38791" x2="182.8989" y2="43.05705" gradientUnits="userSpaceOnUse" id="color-10"><stop offset="0" stop-color="#000000"/><stop offset="1" stop-color="#770727"/></linearGradient><linearGradient x1="191.31376" y1="32.40734" x2="191.31376" y2="43.94408" gradientUnits="userSpaceOnUse" id="color-11"><stop offset="0" stop-color="#000000"/><stop offset="1" stop-color="#770727"/></linearGradient><linearGradient x1="191.01424" y1="46.19339" x2="191.01424" y2="67.70239" gradientUnits="userSpaceOnUse" id="color-12"><stop offset="0" stop-color="#000000"/><stop offset="1" stop-color="#620620"/></linearGradient><linearGradient x1="239.78679" y1="82.57785" x2="239.78679" y2="193.01394" gradientUnits="userSpaceOnUse" id="color-13"><stop offset="0" stop-color="#000000"/><stop offset="1" stop-color="#e4c54f"/></linearGradient><linearGradient x1="244.3526" y1="169.04829" x2="245.82104" y2="183.53964" gradientUnits="userSpaceOnUse" id="color-14"><stop offset="0" stop-color="#000000"/><stop offset="1" stop-color="#ffffff"/></linearGradient><linearGradient x1="175.90234" y1="184.36039" x2="175.90234" y2="234.24389" gradientUnits="userSpaceOnUse" id="color-15"><stop offset="0" stop-color="#000000"/><stop offset="1" stop-color="#c50c40"/></linearGradient><linearGradient x1="161.74116" y1="184.3347" x2="161.74116" y2="196.47452" gradientUnits="userSpaceOnUse" id="color-16"><stop offset="0" stop-color="#000000"/><stop offset="1" stop-color="#8f092f"/></linearGradient><linearGradient x1="163.88067" y1="184.46197" x2="163.88067" y2="199.02641" gradientUnits="userSpaceOnUse" id="color-17"><stop offset="0" stop-color="#000000"/><stop offset="1" stop-color="#b64d6b"/></linearGradient><linearGradient x1="177.65234" y1="180.86039" x2="177.65234" y2="230.74389" gradientUnits="userSpaceOnUse" id="color-18"><stop offset="0" stop-color="#000000"/><stop offset="1" stop-color="#c50c40"/></linearGradient><linearGradient x1="154.72063" y1="198.21707" x2="154.72063" y2="215.64567" gradientUnits="userSpaceOnUse" id="color-19"><stop offset="0" stop-color="#000000"/><stop offset="1" stop-color="#8f092f"/></linearGradient><linearGradient x1="156.57217" y1="202.01436" x2="156.57217" y2="215.64426" gradientUnits="userSpaceOnUse" id="color-20"><stop offset="0" stop-color="#000000"/><stop offset="1" stop-color="#b64d6b"/></linearGradient><linearGradient x1="240.67946" y1="127.5442" x2="240.67946" y2="156.11563" gradientUnits="userSpaceOnUse" id="color-21"><stop offset="0" stop-color="#380056" stop-opacity="0"/><stop offset="1" stop-color="#380056"/></linearGradient></defs><g transform="translate(-149.47146,-23.41707)"><g data-paper-data="{&quot;isPaintingLayer&quot;:true}" fill-rule="nonzero" stroke-linejoin="miter" stroke-miterlimit="10" stroke-dasharray="" stroke-dashoffset="0" style="mix-blend-mode: normal"><path d="M208.3409,240.58045c-5.10998,-9.17174 -19.98959,-26.99553 -19.98959,-26.99553l5.71768,-3.18557c0,0 15.08517,18.19276 20.22339,27.41518c1.55984,2.79973 1.00017,11.53208 4.64959,18.55151c3.16664,6.09087 15.05648,14.54414 18.70736,19.33547c4.20338,5.51644 -0.02998,6.94282 -0.02998,6.94282c0,0 -14.76591,-9.83548 -23.27272,-22.0087c-4.7324,-6.77205 -4.38989,-17.15497 -6.00572,-20.05518z" fill="url(#color-1)" stroke="none" stroke-width="0" stroke-linecap="butt"/><path d="M204.02531,306.41902l18.64285,-132.3421l37.78325,-0.15789l16.82389,131.25c0,0 -9.36709,-2.05253 -10.18011,-1.99017c-0.70898,0.05439 -11.65167,3.60778 -13.98201,3.47494c-2.40795,-0.13727 -13.54274,-3.68405 -13.66415,-3.68926c-1.08639,-0.04658 -8.93746,3.46643 -11.31307,3.68497c-4.62067,0.42507 -14.85218,-3.60483 -15.75761,-3.59837c-0.81038,0.00579 -8.35303,3.36788 -8.35303,3.36788z" fill="url(#color-2)" stroke="none" stroke-width="0" stroke-linecap="butt"/><g stroke="none" stroke-width="0"><g data-paper-data="{&quot;index&quot;:null}"><g><path d="M296.65044,23.89908c1.04143,0.56013 7.24362,85.63745 1.70057,102.96269c-6.16937,19.28288 -51.55085,-24.20962 -45.38148,-43.4925c2.0154,-6.29928 42.99415,-59.83955 43.68091,-59.47019z" fill="url(#color-3)" stroke-linecap="butt"/><path d="M270.31507,117.70753l24.05,-90.63604l-14.52524,100.15939" fill="url(#color-4)" stroke-linecap="round"/></g><path d="M295.59506,25.87525c0.25008,0 0.65287,0.46688 0.89881,1.85368c0.71688,4.04242 0.95763,13.72634 0.84555,13.81511c-0.1114,0.08823 -2.7234,-15.66879 -1.74435,-15.66879z" fill="url(#color-5)" stroke-linecap="butt"/><path d="M283.71663,42.42977c-0.0516,-0.15661 4.47628,-7.86444 6.86852,-10.61848c0.82068,-0.9448 1.35766,-1.02225 1.56138,-0.83419c0.79757,0.73621 -8.37862,11.60831 -8.42989,11.45267z" data-paper-data="{&quot;index&quot;:null}" fill="url(#color-6)" stroke-linecap="butt"/><path d="M290.83411,44.68159c0.02111,0.00913 -0.02536,0.36581 -0.12463,0.97868c-0.66568,4.11026 -2.37202,20.93161 -3.31967,20.52204c-0.58729,-0.25381 -1.74473,-1.06996 -1.71759,-2.43571c0.03069,-1.54496 0.98755,-3.87104 1.5901,-6.2148c0.90936,-3.53711 3.32276,-12.95785 3.57178,-12.85024z" fill="url(#color-7)" stroke-linecap="butt"/></g><g><g><path d="M226.30015,84.88194c6.16938,19.28288 -39.2121,62.77537 -45.38148,43.4925c-5.54305,-17.32524 0.65913,-102.40256 1.70057,-102.96269c0.68676,-0.36936 41.66551,53.17092 43.68091,59.47019z" fill="url(#color-8)" stroke-linecap="butt"/><path d="M199.42984,128.74352l-14.52524,-100.15939l24.05,90.63604" fill="url(#color-9)" stroke-linecap="round"/></g><path d="M181.93026,43.05669c-0.11209,-0.08878 0.12866,-9.77268 0.84555,-13.81511c0.24593,-1.38679 0.64873,-1.85367 0.89881,-1.85367c0.97905,0 -1.63296,15.75702 -1.74435,15.66878z" fill="url(#color-10)" stroke-linecap="butt"/><path d="M187.12315,32.48976c0.20372,-0.18805 0.74069,-0.1106 1.56138,0.83419c2.39223,2.75404 6.92011,10.46187 6.86852,10.61848c-0.05128,0.15564 -9.22746,-10.71646 -8.42989,-11.45267z" data-paper-data="{&quot;index&quot;:null}" fill="url(#color-11)" stroke-linecap="butt"/><path d="M192.00734,59.04454c0.60255,2.34374 1.55941,4.66983 1.59011,6.2148c0.02713,1.36573 -1.1303,2.18189 -1.71759,2.43571c-0.94765,0.40956 -2.65399,-16.41179 -3.31967,-20.52204c-0.09926,-0.61287 -0.14573,-0.96957 -0.12462,-0.97868c0.24902,-0.10763 2.66242,9.31313 3.57178,12.85024z" fill="url(#color-12)" stroke-linecap="butt"/></g></g><path d="M173.64304,138.51612c0.92481,-0.98563 26.43521,-54.50329 26.86465,-54.72962c0.72159,-0.3803 72.28359,-2.2452 76.23108,-0.42149c0.21874,0.10106 28.56569,52.39963 29.1843,52.98632c0.57062,0.54119 -23.06407,56.31439 -23.08932,56.31684c-3.5528,0.34488 -83.32747,0.89041 -84.83858,-1.01716c-0.37687,-0.47574 -24.64877,-52.81875 -24.35213,-53.13489z" data-paper-data="{&quot;index&quot;:null}" fill="url(#color-13)" stroke="none" stroke-width="0" stroke-linecap="butt"/><path d="M189.16543,135.69465c0,-12.968 10.51265,-23.48065 23.48065,-23.48065c12.968,0 23.48065,10.51265 23.48065,23.48065c0,12.968 -10.51265,23.48065 -23.48065,23.48065c-12.968,0 -23.48065,-10.51265 -23.48065,-23.48065z" fill="#ff0000" stroke="none" stroke-width="2" stroke-linecap="butt"/><path d="M266.90449,159.1753c-12.968,0 -23.48065,-10.51265 -23.48065,-23.48065c0,-12.968 10.51265,-23.48065 23.48065,-23.48065c12.968,0 23.48065,10.51265 23.48065,23.48065c0,12.968 -10.51265,23.48065 -23.48065,23.48065z" data-paper-data="{&quot;index&quot;:null}" fill="#ff0000" stroke="none" stroke-width="2" stroke-linecap="butt"/><path d="M201.80314,103.88619c0,0 6.70895,-5.16922 11.79721,-6.36355c5.08827,-1.19433 12.33413,0.69937 12.33413,0.69937c0,0 -8.03812,-0.06028 -11.96762,0.86207c-4.10648,0.96389 -12.16372,4.80211 -12.16372,4.80211z" fill="#000000" stroke="none" stroke-width="0" stroke-linecap="butt"/><path d="M265.73757,99.08408c-3.9295,-0.92235 -11.96762,-0.86207 -11.96762,-0.86207c0,0 7.24586,-1.8937 12.33413,-0.69937c5.08826,1.19433 11.79721,6.36355 11.79721,6.36355c0,0 -8.05724,-3.83822 -12.16372,-4.80211z" data-paper-data="{&quot;index&quot;:null}" fill="#000000" stroke="none" stroke-width="0" stroke-linecap="butt"/><path d="M195.4953,118.88902l-3.33333,-5.66666" fill="none" stroke="#000000" stroke-width="2" stroke-linecap="round"/><path d="M184.60095,122.52417l6.12204,2.3964" fill="none" stroke="#000000" stroke-width="2" stroke-linecap="round"/><g data-paper-data="{&quot;index&quot;:null}" fill="none" stroke="#000000" stroke-width="2" stroke-linecap="round"><path d="M288.26759,114.22236l-3.33333,5.66666"/><path d="M295.82861,123.52417l-6.12205,2.3964"/></g><path d="M220.78475,113.51254c0.12538,-0.73865 5.43642,-8.99866 6.17634,-8.68974c0.70609,0.2948 -1.37604,10.1846 -1.8145,10.85429c-0.24491,0.37407 -0.98086,-0.62217 -1.97594,-1.1233c-1.09939,-0.55365 -2.45135,-0.65566 -2.3859,-1.04125z" fill="#c30c40" stroke="none" stroke-width="0" stroke-linecap="butt"/><path d="M205.60363,158.39438c-0.12538,0.73864 -5.43642,8.99866 -6.17634,8.68974c-0.70609,-0.2948 1.37603,-10.1846 1.8145,-10.85429c0.24491,-0.37407 0.98086,0.62217 1.97594,1.1233c1.09939,0.55365 2.45135,0.65565 2.3859,1.04125z" data-paper-data="{&quot;index&quot;:null}" fill="#c30c40" stroke="none" stroke-width="0" stroke-linecap="butt"/><g fill="#c30c40" stroke="none" stroke-width="0" stroke-linecap="butt"><path d="M259.50363,113.21254c0.06545,0.38559 -1.28652,0.48759 -2.3859,1.04125c-0.99509,0.50113 -1.73102,1.49737 -1.97594,1.1233c-0.43847,-0.66969 -2.52059,-10.55949 -1.8145,-10.85429c0.73992,-0.30892 6.05096,7.95109 6.17634,8.68974z" data-paper-data="{&quot;index&quot;:null}"/><path d="M274.68475,158.09437c-0.06545,-0.38559 1.28652,-0.48759 2.3859,-1.04125c0.99509,-0.50113 1.73102,-1.49737 1.97594,-1.1233c0.43847,0.66969 2.52059,10.55949 1.8145,10.85429c-0.73992,0.30892 -6.05096,-7.9511 -6.17634,-8.68974z" data-paper-data="{&quot;index&quot;:null}"/></g><path d="M189.44355,139.0727c1.25206,0.04455 45.95431,0.59617 46.2126,0.62024c-0.51423,3.48577 -1.14834,6.30024 -3.04203,9.21768c-4.24825,6.54493 -11.74714,10.2393 -19.77722,10.2393c-11.87745,0 -22.06545,-8.38944 -23.39336,-20.07721z" data-paper-data="{&quot;index&quot;:null}" fill="#ff5d5d" stroke="none" stroke-width="2" stroke-linecap="butt"/><path d="M196.2308,135.56902c0,-9.12808 7.39976,-16.52784 16.52783,-16.52784c9.12808,0 16.52784,7.39977 16.52784,16.52784c0,9.12808 -7.39977,16.52784 -16.52784,16.52784c-9.12808,0 -16.52783,-7.39977 -16.52783,-16.52784z" fill="#000000" stroke="none" stroke-width="0" stroke-linecap="butt"/><path d="M290.15614,139.07271c-1.32791,11.68777 -11.51591,20.07721 -23.39336,20.07721c-8.03008,0 -15.52897,-3.69437 -19.77722,-10.2393c-1.89369,-2.91744 -2.5278,-5.73191 -3.04203,-9.21768c0.25829,-0.02407 44.96054,-0.57569 46.2126,-0.62024z" data-paper-data="{&quot;index&quot;:null}" fill="#ff5d5d" stroke="none" stroke-width="2" stroke-linecap="butt"/><path d="M266.59193,152.24685c-9.12807,0 -16.52783,-7.39977 -16.52783,-16.52784c0,-9.12808 7.39977,-16.52784 16.52783,-16.52784c9.12807,0 16.52783,7.39977 16.52783,16.52784c0,9.12808 -7.39977,16.52784 -16.52783,16.52784z" data-paper-data="{&quot;index&quot;:null}" fill="#000000" stroke="none" stroke-width="0" stroke-linecap="butt"/><g><path d="M270.25381,166.61699c0.2813,2.77597 -17.93663,16.29668 -24.70897,16.94927c-6.19938,0.59738 -26.77778,-8.97159 -27.08048,-11.95881c-0.05091,-0.50243 12.89492,0.89984 25.83351,-0.34693c13.35287,-1.28669 25.92051,-4.9932 25.95594,-4.64352z" fill="url(#color-14)" stroke="none" stroke-width="0" stroke-linecap="butt"/><path d="M229.79159,178.60257l5.56755,-4.03661l5.18343,3.96875l4.89932,-4.73311l6.13383,3.51777l4.60338,-4.7046l5.36455,1.82404" fill="none" stroke="#000000" stroke-width="1" stroke-linecap="round"/></g><path d="M213.52618,135.75c0,6.94958 -0.32646,12.58333 -0.72916,12.58333c-0.40271,0 -0.72916,-5.63375 -0.72916,-12.58333c0,-6.94958 0.32646,-12.58333 0.72916,-12.58333c0.40271,0 0.72916,5.63375 0.72916,12.58333z" fill="#ff0000" stroke="#ff0000" stroke-width="2" stroke-linecap="butt"/><path d="M267.92618,135.15001c0,6.94958 -0.32646,12.58333 -0.72917,12.58333c-0.40272,0 -0.72916,-5.63375 -0.72916,-12.58333c0,-6.94958 0.32646,-12.58333 0.72916,-12.58333c0.40272,0 0.72917,5.63375 0.72917,12.58333z" fill="#ff0000" stroke="#ff0000" stroke-width="2" stroke-linecap="butt"/><g stroke="none" stroke-linecap="butt"><g stroke-width="0"><path d="M182.30136,211.14028c-0.53388,-0.62283 -1.38299,-2.10356 -2.27638,-2.21259c-0.71458,-0.08721 -1.35999,0.70409 -1.78592,1.12467c-0.17703,0.1414 -2.30515,1.90436 -2.31615,1.89572c-1.88957,-1.48483 -3.55273,-4.87356 -4.54355,-7.02696c-0.27196,-0.59106 -0.98983,-2.93657 -1.80391,-2.96995c-0.32389,-0.01328 -1.46191,2.00423 -1.79426,2.41182c-1.50508,0 -2.69167,-3.2254 -3.25587,-4.35052c-1.08504,-2.16376 -2.72115,-4.1463 -4.44242,-6.03934l4.52867,-9.61275l38.90885,22.80074l-8.53044,18.49189c-0.00729,-0.00762 -0.01458,-0.01523 -0.02188,-0.02285c-2.38321,-3.32316 -4.69361,-6.91917 -8.03551,-9.23879c-1.49037,-1.78863 -3.11395,-3.48104 -4.63123,-5.25109z" fill="url(#color-15)"/><path d="M164.77499,184.38452c1.16456,0.54863 0.04055,5.51982 -2.55406,12.09c-1.2235,-1.5568 -2.62237,-3.03444 -3.97255,-4.47702c2.9392,-5.00054 5.49667,-8.09819 6.52662,-7.61298z" fill="url(#color-16)"/><path d="M164.73821,184.46677c0.96851,0.45628 1.85803,4.5812 0.57845,10.43803c-0.23442,1.07298 -0.75368,2.60141 -1.32954,4.12161c-0.62487,-1.06033 -1.37079,-2.07846 -2.17863,-3.06604c0.2349,-0.59687 0.4059,-1.07217 0.49277,-1.38296c1.57928,-5.65023 2.06611,-10.28536 2.43696,-10.11065z" fill="url(#color-17)"/></g><path d="M165.17809,185.28245c0.46084,0.04257 0.93052,0.11699 1.41373,0.21035c-0.48527,-0.23841 -0.84198,-0.33882 -1.38691,-0.28548zM164.13605,185.24639c0.0153,-0.05432 0.03244,-0.0886 0.03244,-0.0886l0.42943,-0.74518c1.11952,-0.27004 1.57857,-0.23449 2.59585,0.27745c1.30573,1.30573 1.56852,3.61481 3.01535,4.7258c2.81188,2.15918 7.21757,2.75846 8.19595,6.35302l0.19608,-0.04357l0.21459,0.96566c0.00931,0.03814 0.01425,0.07799 0.01425,0.11899c0,0.27614 -0.22386,0.5 -0.5,0.5c-0.11438,0 -0.21979,-0.03841 -0.30404,-0.10303l-0.46532,-0.34899c-1.80736,0.11738 -0.41779,2.41829 0.71958,3.42845c2.82424,2.50837 6.68511,3.23033 9.43096,5.90167c0.69141,0.71049 1.83695,2.29925 0.23874,2.94099c-2.88777,1.15953 -4.03824,-2.30787 -6.36218,-1.83246c-2.47401,0.50611 -2.91363,3.32975 -5.65832,3.28571c-1.31107,-0.71158 -0.63648,-1.35125 -1.38153,-2.27593c-0.41065,-0.50965 -2.00322,0.2837 -2.74461,-0.60461c-0.83518,-1.00068 -0.61614,-2.99765 -1.80747,-3.71558c-0.40489,-0.244 -1.10207,0.97125 -1.31225,1.17733c-0.91467,0.89685 -1.30674,0.85757 -2.59096,0.85171c-1.56587,-0.75188 -1.67889,-5.50991 -2.8918,-7.35484c-1.17263,-1.78367 -3.4339,-2.01124 -4.70753,-3.70449c-1.64902,-2.48095 0.02502,-7.17765 2.42441,-8.70995c1.08584,-0.69344 2.13693,-0.96691 3.2184,-0.99956z" fill="#000000" stroke-width="0.5"/><path d="M193.32998,208.45283c0,0.43394 -0.44772,0.78571 -1,0.78571c-0.55228,0 -1,-0.35178 -1,-0.78571c0,-0.43394 0.44772,-0.78571 1,-0.78571c0.55228,0 1,0.35178 1,0.78571z" fill="#000000" stroke-width="0"/></g><g stroke="none" stroke-linecap="butt"><g stroke-width="0"><path d="M192.77694,230.74389l-42.74267,-15.22649l7.21414,-15.31305c1.87769,1.64264 3.74863,3.29449 5.52056,5.07415c1.30908,1.30113 2.03593,2.72639 2.91767,4.29141c0.09993,0.17738 0.51199,1.57227 0.87488,1.62841c1.16737,0.18059 2.66112,-1.7801 3.33357,-2.53991c0.36479,-0.41217 0.27084,-1.45077 0.82096,-1.4327c0.54485,0.01789 0.46213,1.00028 0.80711,1.42238c0.83795,1.02527 1.73606,1.98649 2.49219,3.07431c0.87187,1.25239 2.92831,5.94807 4.50718,6.10255c0.66158,0.06473 1.09252,-1.22375 1.27887,-1.54209c0.78087,-1.33393 1.75744,-2.6202 2.74543,-3.80604c0.35494,-0.42603 0.6895,-1.64738 1.08622,-1.25995c0.52358,0.51134 0.95324,1.15823 1.54871,1.67396c1.08305,1.08374 2.25029,1.99741 3.4693,2.85386c0.69819,1.14583 1.53192,2.24507 2.19113,3.19727c1.49926,2.16559 2.8489,4.40402 4.36425,6.53537z" fill="url(#color-18)"/><path d="M150.17214,215.59585c-1.46139,-0.68848 0.68111,-8.3413 4.81111,-17.37877c1.57845,1.3979 3.17862,2.76826 4.74483,4.18266c-4.09027,8.11552 -8.18208,13.84335 -9.55594,13.19611z" fill="url(#color-19)"/><path d="M159.23807,208.87097c-3.42121,4.88646 -6.85272,7.17016 -7.81479,6.71692c-0.55927,-0.26347 1.88712,-2.80065 4.88762,-7.66235c0.53367,-0.8647 1.70842,-3.21402 2.98848,-5.91118c0.84519,0.7565 1.68204,1.52384 2.50188,2.31315c-0.8538,1.69217 -1.80597,3.46193 -2.5632,4.54346z" fill="url(#color-20)"/></g><path d="M154.41956,199.14644c0.20029,-0.15737 0.46853,-0.06796 0.46853,-0.06796l0.70324,0.24809c0.15587,0.14885 0.31175,0.2977 0.46762,0.44655c1.65225,1.05724 4.49861,2.68575 4.76457,4.89962c0.25263,2.10295 -1.21079,0.97503 -1.65271,1.91602c-1.09872,2.33953 1.58867,5.04638 3.64429,5.07745c1.26255,-0.65766 2.64485,-1.99883 4.19145,-0.92992c0.86863,0.60034 1.36145,3.22578 2.37798,3.31953c1.41504,0.1305 1.01972,-2.03042 1.83258,-2.69301c1.63619,-1.33372 3.21286,-0.04397 3.21286,1.59002c0,3.69532 1.55889,5.80544 5.56227,6.30389c0.87776,0.10929 3.81137,-0.23708 4.49129,0.34255c1.10606,0.94293 -0.71731,3.73184 -1.17564,4.57142c-2.22699,3.16822 -7.08021,0.29753 -9.98019,-0.96061c-1.88437,-0.81752 -4.01635,-0.42114 -5.95962,-0.99645c-2.20471,-0.15045 -4.29431,-1.01897 -6.24703,-2.00655c-2.05837,-1.041 -4.55,-1.26973 -6.68606,-2.14431c-1.72891,-0.70788 -3.26833,-1.82008 -4.9231,-2.6689c-0.30356,-4.80888 1.14903,-7.9672 2.78353,-12.32307c0.57328,-1.52778 0.2545,-4.20954 1.99267,-3.99232c0,0 0.06072,0.02024 0.13147,0.06796z" fill="#000000" stroke-width="0.5"/></g><path d="M182.80511,25.57583c0.59059,-0.93845 1.28387,-1.75185 1.90568,-1.65017c0.278,0.04546 0.22476,0.57573 0.45648,0.7427c0.9613,0.69269 2.06917,1.18972 3.02238,2.14663c2.61061,2.62074 4.86737,4.99654 6.74916,8.25475c1.6831,2.91576 3.89787,5.1817 5.72892,7.92161c1.9559,2.92673 3.74099,5.87763 5.95476,8.65367c1.19275,1.51157 1.66542,3.46855 2.5743,5.17794c2.46851,4.64271 4.20351,8.55474 4.20338,13.94165c-0.00027,1.00201 0.01363,2.0056 -0.00085,3.00748c-0.00006,0.00408 -0.05717,1.99755 -0.05743,2.00652c-0.04273,1.42461 -0.64752,4.48636 -2.40771,2.23683c-1.5239,-1.94755 -1.34699,-6.1066 -1.95905,-8.4241c-0.1993,-0.75461 -1.37952,-0.24323 -1.80461,-0.1649c-1.42009,1.56141 -2.38286,3.24928 -3.59994,4.96885c-0.51498,0.7276 -1.13554,2.13221 -1.99909,2.4708c-0.49946,0.19583 -2.07764,-0.03007 -2.42163,-0.50708c-0.11344,-0.15731 -0.09023,-1.99292 -0.09023,-2.29236c0,-2.22016 -0.00005,-4.44032 0.00004,-6.66047c-0.0681,-2.86967 -0.24128,-7.17255 -1.53688,-9.77026c-0.95348,-1.91176 -3.34995,-1.15519 -4.35876,0.26407c-0.54348,0.7646 -0.99931,1.54748 -1.47184,2.36148c-1.60691,6.49305 -1.21309,13.21879 -1.79084,19.86836c-0.6096,7.01586 -1.42623,13.73154 -3.21268,20.55037c-0.25314,0.96623 -0.50259,1.93338 -0.76939,2.89563c-0.40042,1.44421 -2.31711,4.26667 -3.0996,1.27238c-0.68501,-2.6213 0.73668,-5.95513 -0.28313,-8.49617c-0.27229,-0.67846 -1.56311,1.84419 -1.72645,2.02359c-1.00846,2.83439 -3.11051,0.90176 -3.4172,-1.24788c-0.68223,-4.78191 0.27244,-10.0686 0.83757,-14.7975c0.03954,-0.32819 0.07783,-0.65693 0.11489,-0.98616c0,-4.09248 0,-8.18496 0,-12.27743c0,-3.32892 -0.16147,-6.70706 0.00092,-10.03107c0.17084,-3.49687 1.26073,-6.87619 1.30227,-10.35959c0.02921,-2.34144 0.49792,-4.6493 0.6095,-6.98596c0.22129,-4.63446 -0.10869,-9.38489 1.31296,-13.82081c0.0651,-0.12799 0.1475,-0.29557 0.24425,-0.48942c0.02305,-0.76621 0.03559,-1.53677 0.03559,-2.31315c0,0 0,-0.5 0.47802,-0.5c0.47802,0 0.47802,0.5 0.47802,0.5c0,0.16999 -0.0006,0.3397 -0.00177,0.50916z" fill="#000000" stroke="none" stroke-width="0.5" stroke-linecap="butt"/><path d="M198.10001,77.9c0,1.38071 -0.6268,2.5 -1.4,2.5c-0.7732,0 -1.4,-1.11929 -1.4,-2.5c0,-1.38071 0.6268,-2.5 1.4,-2.5c0.7732,0 1.4,1.11929 1.4,2.5z" fill="#000000" stroke="none" stroke-width="0" stroke-linecap="butt"/><path d="M297.25545,24.56667c0,0 0,-0.5 0.47802,-0.5c0.47802,0 0.47802,0.5 0.47802,0.5c0,0.77638 0.01254,1.54694 0.03559,2.31315c0.09675,0.19385 0.17914,0.36143 0.24424,0.48942c1.42166,4.43592 1.09168,9.18635 1.31297,13.82081c0.11157,2.33666 0.58029,4.64452 0.60949,6.98596c0.04155,3.4834 1.13144,6.86273 1.30228,10.35959c0.16239,3.32401 0.00093,6.70215 0.00093,10.03106c0,4.09248 0,8.18496 0,12.27743c0.03706,0.32923 0.07535,0.65797 0.11489,0.98616c0.56513,4.7289 1.51981,10.01559 0.83757,14.7975c-0.30669,2.14964 -2.40875,4.08227 -3.4172,1.24788c-0.16334,-0.1794 -1.45416,-2.70206 -1.72645,-2.0236c-1.01981,2.54104 0.40188,5.87486 -0.28314,8.49616c-0.78249,2.9943 -2.69917,0.17183 -3.0996,-1.27237c-0.2668,-0.96225 -0.51625,-1.92939 -0.76938,-2.89562c-1.78646,-6.81883 -2.60308,-13.53451 -3.21269,-20.55037c-0.57776,-6.64957 -0.18393,-13.37531 -1.79084,-19.86836c-0.47253,-0.814 -0.92836,-1.59688 -1.47184,-2.36148c-1.00881,-1.41926 -3.40527,-2.17583 -4.35876,-0.26407c-1.2956,2.59771 -1.46878,6.90059 -1.53688,9.77026c0.00008,2.22016 0.00004,4.44032 0.00004,6.66048c0,0.29943 0.02321,2.13505 -0.09023,2.29236c-0.34398,0.47701 -1.92217,0.70292 -2.42162,0.50709c-0.86356,-0.33859 -1.48412,-1.7432 -1.9991,-2.4708c-1.21708,-1.71958 -2.17984,-3.40745 -3.59994,-4.96886c-0.42509,-0.07833 -1.60532,-0.58971 -1.80462,0.1649c-0.61206,2.3175 -0.43515,6.47655 -1.95905,8.4241c-1.76019,2.24953 -2.36498,-0.81222 -2.40771,-2.23682c-0.00027,-0.00898 -0.05738,-2.00244 -0.05743,-2.00652c-0.01448,-1.00188 -0.00059,-2.00547 -0.00086,-3.00748c-0.00013,-5.38691 1.73487,-9.29894 4.20339,-13.94165c0.90888,-1.7094 1.38155,-3.66637 2.5743,-5.17795c2.21377,-2.77603 3.99886,-5.72694 5.95476,-8.65367c1.83105,-2.73991 4.04583,-5.00585 5.72892,-7.9216c1.88179,-3.25821 4.13855,-5.63402 6.74916,-8.25475c0.95321,-0.9569 2.06108,-1.45394 3.02238,-2.14663c0.23172,-0.16697 0.17848,-0.69724 0.45648,-0.7427c0.62181,-0.10168 1.31508,0.71171 1.90567,1.65016c-0.00117,-0.16946 -0.00176,-0.33917 -0.00176,-0.50916z" data-paper-data="{&quot;index&quot;:null}" fill="#000000" stroke="none" stroke-width="0.5" stroke-linecap="butt"/><path d="M278.15001,79.25c0,0.9665 -0.89543,1.75 -2,1.75c-1.10457,0 -2,-0.7835 -2,-1.75c0,-0.9665 0.89543,-1.75 2,-1.75c1.10457,0 2,0.7835 2,1.75z" fill="#000000" stroke="none" stroke-width="0" stroke-linecap="butt"/><path d="M226.17946,155.5442c0,0 3.45119,-2.53916 5.95979,-6.11341c0.11022,-0.15704 0.36014,-0.46117 0.46406,-0.62589c1.35912,-2.15442 2.03702,-4.75821 2.3355,-6.39534c0.70765,-3.88136 0.52636,-12.15108 0.52636,-12.15108c0,0 8.28572,-0.05739 8.28572,0.42857c0,1.32855 -0.9864,7.25745 0.65956,13.05608c1.77755,6.26221 10.34044,12.08677 10.34044,12.08677c0,0 -10.82096,-2.64821 -15.14309,-2.69143c-5.07902,-0.05079 -13.42834,2.40572 -13.42834,2.40572z" fill="url(#color-21)" stroke="none" stroke-width="0" stroke-linecap="butt"/></g></g></svg>