<svg version="1.1" xmlns="http://www.w3.org/2000/svg" xmlns:xlink="http://www.w3.org/1999/xlink" width="265.64229" height="426.61872" viewBox="0,0,265.64229,426.61872"><defs><linearGradient x1="192.09995" y1="113.87743" x2="211.66541" y2="138.7329" gradientUnits="userSpaceOnUse" id="color-1"><stop offset="0" stop-color="#000000"/><stop offset="1" stop-color="#7ebb78"/></linearGradient><linearGradient x1="197.39639" y1="128.35709" x2="218.4397" y2="146.27695" gradientUnits="userSpaceOnUse" id="color-2"><stop offset="0" stop-color="#000000"/><stop offset="1" stop-color="#7ebb78"/></linearGradient><linearGradient x1="202.86497" y1="134.13807" x2="227.71448" y2="145.38351" gradientUnits="userSpaceOnUse" id="color-3"><stop offset="0" stop-color="#000000"/><stop offset="1" stop-color="#7ebb78"/></linearGradient><linearGradient x1="264.22604" y1="70.35835" x2="278.57093" y2="208.48102" gradientUnits="userSpaceOnUse" id="color-4"><stop offset="0" stop-color="#000000"/><stop offset="1" stop-color="#f5d7d7"/></linearGradient><linearGradient x1="263.86935" y1="70.09082" x2="278.21424" y2="208.2135" gradientUnits="userSpaceOnUse" id="color-5"><stop offset="0" stop-color="#000000"/><stop offset="1" stop-color="#c88989"/></linearGradient><linearGradient x1="243.1496" y1="94.50785" x2="243.1496" y2="316.59794" gradientUnits="userSpaceOnUse" id="color-6"><stop offset="0" stop-color="#000000"/><stop offset="1" stop-color="#d93838"/></linearGradient><linearGradient x1="235.83005" y1="95.66409" x2="235.83005" y2="142.90102" gradientUnits="userSpaceOnUse" id="color-7"><stop offset="0" stop-color="#000000"/><stop offset="1" stop-color="#f5d7d7"/></linearGradient><linearGradient x1="248.60249" y1="95.66411" x2="248.60249" y2="142.49396" gradientUnits="userSpaceOnUse" id="color-8"><stop offset="0" stop-color="#000000"/><stop offset="1" stop-color="#f5b4b4"/></linearGradient><linearGradient x1="218.69271" y1="95.66411" x2="218.69271" y2="141.11135" gradientUnits="userSpaceOnUse" id="color-9"><stop offset="0" stop-color="#000000"/><stop offset="1" stop-color="#f5b4b4"/></linearGradient><linearGradient x1="235.78187" y1="-55.36708" x2="219.59954" y2="14.58289" gradientUnits="userSpaceOnUse" id="color-10"><stop offset="0" stop-color="#000000"/><stop offset="1" stop-color="#7ebb78"/></linearGradient><linearGradient x1="221.54392" y1="-52.82547" x2="242.97971" y2="15.69732" gradientUnits="userSpaceOnUse" id="color-11"><stop offset="0" stop-color="#000000"/><stop offset="1" stop-color="#7ebb78"/></linearGradient><linearGradient x1="232.88442" y1="3.75039" x2="237.72066" y2="131.22624" gradientUnits="userSpaceOnUse" id="color-12"><stop offset="0" stop-color="#000000"/><stop offset="1" stop-color="#fa4242"/></linearGradient><linearGradient x1="254.31799" y1="-29.56379" x2="329.29253" y2="136.57987" gradientUnits="userSpaceOnUse" id="color-13"><stop offset="0" stop-color="#000000"/><stop offset="1" stop-color="#7ebb78"/></linearGradient><linearGradient x1="252.04906" y1="13.2159" x2="267.22219" y2="151.02536" gradientUnits="userSpaceOnUse" id="color-14"><stop offset="0" stop-color="#000000"/><stop offset="1" stop-color="#7ebb78"/></linearGradient><linearGradient x1="186.15461" y1="-3.65485" x2="170.97305" y2="86.82999" gradientUnits="userSpaceOnUse" id="color-15"><stop offset="0" stop-color="#000000"/><stop offset="1" stop-color="#7ebb78"/></linearGradient><linearGradient x1="177.34562" y1="11.48013" x2="192.08918" y2="125.33409" gradientUnits="userSpaceOnUse" id="color-16"><stop offset="0" stop-color="#000000"/><stop offset="1" stop-color="#7ebb78"/></linearGradient><linearGradient x1="233.05941" y1="74.14658" x2="233.56489" y2="87.47032" gradientUnits="userSpaceOnUse" id="color-17"><stop offset="0" stop-color="#5c1818" stop-opacity="0"/><stop offset="1" stop-color="#5c1818"/></linearGradient><radialGradient cx="208.27467" cy="67.82477" r="12.42857" gradientUnits="userSpaceOnUse" id="color-18"><stop offset="0" stop-color="#ff0000"/><stop offset="1" stop-color="#ff0000" stop-opacity="0"/></radialGradient></defs><g transform="translate(-120.05261,109.94872)"><g data-paper-data="{&quot;isPaintingLayer&quot;:true}" fill-rule="nonzero" stroke-linejoin="miter" stroke-miterlimit="10" stroke-dasharray="" stroke-dashoffset="0" style="mix-blend-mode: normal"><g stroke="none" stroke-width="0" stroke-linecap="butt"><path d="M211.66541,138.7329c-7.45135,7.58785 -28.87785,9.81171 -29.96856,8.4261c-0.64262,-0.81637 2.17745,-24.90523 10.4031,-33.28157c9.3361,-9.50712 21.28438,-11.65007 26.68723,-4.78643c5.40285,6.86365 2.21433,20.13478 -7.12177,29.6419z" fill="url(#color-1)"/><path d="M218.4397,146.27695c-5.3388,9.19354 -23.76466,17.22462 -24.93776,16.22564c-0.69116,-0.58857 -1.99912,-23.99661 3.89445,-34.14549c6.6892,-11.51896 16.82257,-16.84542 22.63352,-11.89699c5.81095,4.94843 5.09898,18.29788 -1.59021,29.81684z" fill="url(#color-2)"/><path d="M227.71448,145.38351c-3.37314,10.10888 -20.07086,22.64094 -21.45614,22.01405c-0.81617,-0.36936 -7.11703,-22.10018 -3.39337,-33.2595c4.22635,-12.66581 13.21523,-20.4161 20.07723,-17.31075c6.862,3.10535 8.99863,15.89039 4.77228,28.55621z" fill="url(#color-3)"/></g><g stroke="none" stroke-linecap="butt"><g data-paper-data="{&quot;index&quot;:null}" stroke-width="0"><path d="M295.80447,115.31117c1.10895,10.67772 11.30464,68.70208 26.61125,108.16651c14.50819,37.40586 54.48862,75.62699 53.8389,75.70124c-24.67511,2.81966 -145.57315,-116.51227 -149.53438,-154.65379c-3.96123,-38.14152 12.83068,-71.34712 37.50579,-74.16678c24.67511,-2.81966 27.6172,6.8113 31.57843,44.95282z" fill="url(#color-4)"/><g fill="url(#color-5)"><path d="M322.05904,223.21017c0.4109,1.05942 0.84224,2.11949 1.29251,3.17933c-2.21765,2.63072 -4.4417,5.25611 -6.67328,7.87582c-3.96462,4.65418 -7.88209,9.34594 -11.95799,13.89998c-11.96011,-11.51813 -23.967,-24.01732 -34.86598,-36.39607c4.44027,-4.31357 9.08368,-8.44707 13.58894,-12.67983c5.41229,-5.08493 11.63865,-9.45134 17.45919,-14.06459c2.48937,-1.97302 4.98072,-3.94353 7.47304,-5.91282c3.86625,15.11803 8.47952,30.68079 13.68357,44.09819z"/><path d="M375.89794,298.9114c-8.04321,0.91911 -26.31039,-11.14074 -47.41881,-29.13687c3.59367,-3.61433 7.19275,-7.22316 10.79643,-10.82769c0.58115,-0.58128 1.16186,-1.16269 1.74201,-1.74442c16.50266,23.51196 35.32785,41.65784 34.88037,41.70898z"/><path d="M295.44779,115.04366c0.19663,1.8933 0.67895,5.27517 1.42479,9.77821c-5.24469,2.21501 -10.45962,4.5056 -15.69129,6.7476c-6.86144,2.94042 -13.29196,7.05812 -19.80283,10.70796c-6.54043,3.66641 -13.01159,7.43207 -19.46772,11.2448c-3.42163,2.02067 -6.84108,4.02473 -10.28509,5.98637c-2.97825,-5.88464 -4.82665,-11.05833 -5.26208,-15.25098c-1.50404,-14.48196 -0.01621,-28.25233 3.75901,-39.91804c3.94104,-0.84427 7.86317,-1.7739 11.80712,-2.70826c7.28469,-1.72581 14.44433,-4.05349 21.62875,-6.15736c7.24246,-1.90626 14.50546,-3.74917 21.72328,-5.74661c2.08797,-0.57782 4.17389,-1.16594 6.26069,-1.75154c1.61985,6.74475 2.71673,15.62273 3.90538,27.06785z"/></g></g><path d="M351.83358,263.9653c1.62637,2.16514 3.42196,3.94786 5.22165,6.10611c4.10612,4.92419 7.7848,10.11869 11.97574,14.97145c2.36649,2.74019 7.28611,6.65552 8.36539,10.22742c0.69232,2.29124 2.13984,5.08443 0.88936,7.12536c-0.91431,1.49227 -3.52462,0.28369 -5.25027,-0.00777c-3.68818,-0.62293 -6.76706,-3.59429 -9.69261,-5.68396c-5.40614,-3.93412 -10.95847,-7.79077 -16.33333,-11.66667c-2.59206,-1.86917 -4.61046,-4.72162 -7.11248,-6.75267c-4.71479,-3.82731 -10.54237,-6.21153 -14.86019,-10.50766c-2.35024,-2.33844 -4.44724,-4.94194 -6.50766,-7.52685c-0.85883,-1.07745 -2.31385,-1.83559 -2.65099,-3.17157c-0.57524,-2.27948 -1.65229,-5.45321 0.07087,-7.05248c0.67692,-0.62826 6.57287,1.46729 8.88378,2.28797c-0.8133,-1.03081 -1.5066,-2.16566 -2.01289,-3.36842c-1.81296,-4.30687 -1.67701,-14.75799 4.94626,-15.40862c6.47181,-0.63575 7.15309,5.88994 7.84422,10.43558c0.99405,6.53795 2.53474,12.97734 8.55529,16.75766c0.52162,0.32753 1.11222,0.41033 1.73375,0.37532c0.22697,-0.4188 0.62838,-0.81155 1.31,-1.0842c1.30895,-0.52358 2.17502,-0.01376 2.68146,0.53044c0.75426,0.11544 1.91866,0.56547 2.07008,2.23108c0.04276,0.47038 -0.01142,0.85996 -0.12745,1.1825z" fill="#000000" stroke-width="0.5"/></g><g stroke="none" stroke-width="0" stroke-linecap="butt"><path d="M197.89961,316.59792l20.60794,-221.82442l51.41931,-0.26565l18.47274,222.09009z" fill="url(#color-6)"/><path d="M269.84736,94.57992l18.8075,222.09009l-36.00904,-0.00001c0.2516,-0.51191 0.45843,-0.9315 0.52253,-1.10891c0.73517,-2.03948 3.58291,-5.91647 1.42471,-8.02902c-0.43195,-0.42281 -1.82757,0.31333 -1.80626,-0.28528c0.00339,-0.0952 1.38508,-1.88452 1.52842,-2.27686c0.96722,-2.64755 1.00442,-5.28826 1.00408,-8.05478c-0.01105,-1.27685 0.58006,-4.58576 -0.85882,-5.30613c-1.05355,-0.52745 -2.39916,0.61016 -3.20536,0.90728c-0.82425,0.30377 -2.0675,0.08619 -2.97952,0.33412c-0.83655,0.22742 -2.5576,0.90364 -3.21398,-0.13808c-0.5765,-0.91495 0.06419,-4.57446 0.05892,-5.74234c-0.0061,-0.33854 -0.00239,-2.19281 -0.19387,-2.35609c-1.16161,-0.99054 -2.35724,0.6596 -3.26914,0.95292c-1.57825,0.50767 -3.27645,0.52882 -4.91036,1.07732c-0.38037,0.12769 -4.20301,1.0477 -4.27375,0.50333c-0.06813,-0.52424 2.83552,-3.83775 3.33746,-4.50786c4.20645,-5.61581 7.30115,-12.67376 7.27853,-19.66176c-0.00513,-1.58073 0.84848,-6.24762 -1.80493,-5.38063c-1.59793,0.52212 -4.18823,4.06547 -4.90827,5.47125c-0.10839,0.21162 -1.41836,2.81749 -1.55212,2.47825c-0.28901,-0.733 0.13328,-2.80176 0.13328,-3.6627c0,-3.66389 -0.03453,-7.32976 0.01455,-10.99334c0.0143,-1.06712 -0.31795,-2.84778 0.02663,-3.84563c0.56368,-1.63234 2.60981,-3.25264 3.5109,-4.78529c0.70198,-1.19633 1.51738,-2.26852 2.40781,-3.26784c0.67775,-0.59501 1.31007,-1.25027 1.90498,-1.95034c1.68002,-1.59285 3.50555,-3.0726 5.2799,-4.70191c2.09038,-1.91951 4.16416,-2.44197 4.16152,-5.4407c-0.04986,-1.53876 -0.87514,-2.20098 -2.04852,-2.45749c0.05976,-2.41725 0.60368,-5.90067 -0.33714,-8.11616c-0.97443,-2.29464 -3.71198,-2.86653 -5.51027,-4.46273c-1.50979,-1.34012 -1.28752,-3.44927 -1.19577,-5.22903c0.05678,-1.21832 0.31252,-2.48264 0.64956,-3.75988c0.05679,-0.02976 0.11268,-0.06052 0.16763,-0.09231c1.85611,-1.07406 0.23286,-3.33214 2.20798,-3.66734c5.21167,-4.94795 12.49543,-9.73022 10.66769,-17.59104c-1.79411,-0.70208 -2.21176,-2.12426 -4.27497,-2.7401c-3.18827,-0.95165 -6.60859,-0.89498 -9.89518,-1.96861c-0.28195,-0.09211 -2.63011,-0.44362 -2.71105,-0.5506c-0.25048,-0.33107 0.51778,-2.04924 0.68221,-2.35765c1.55065,-2.98627 3.0503,-5.90658 4.54356,-8.92318c1.6843,-3.40252 4.24572,-6.3492 3.86741,-10.37692c-0.11803,-1.18109 0.11749,-2.49283 -1.25291,-3.09587c-0.39642,-0.17444 -2.48423,0.29121 -2.78014,-0.15578c-0.80143,-1.2106 0.69933,-4.21177 1.11335,-5.33113c1.08906,-2.94441 1.1022,-5.9856 0.97638,-9.0707c-0.0141,-0.34495 -0.05355,-2.16492 -0.23758,-2.3388c-0.92059,-0.86984 -3.95119,0.6019 -4.79508,-0.81677c-0.41052,-0.69013 0.89615,-2.81713 1.05046,-3.49256c0.75291,-3.29544 0.98079,-6.58303 0.92835,-9.97875c-0.03956,-2.51076 -0.56171,-4.69023 -1.74818,-6.92709c-0.41747,-0.78705 -1.97536,-2.31277 -1.92853,-3.21776c0.03212,-0.6207 0.58854,-1.10719 0.78219,-1.69887c0.83693,-2.55708 1.18103,-5.12231 2.18646,-7.65046c0.7888,-1.98344 1.18309,-4.03964 1.42616,-6.1244z" fill="#000000"/></g><g stroke="none" stroke-width="0" stroke-linecap="butt"><path d="M278.85008,108.45435c0,16.7447 -38.58415,36.10426 -38.87849,36.10426c-2.40888,0 -7.33187,-2.70742 -9.87832,-3.13086c-16.56616,-2.75472 -35.67652,-14.9043 -35.67652,-29.65824c0,-17.02181 22.92467,-16.00606 41.00482,-16.00606c18.08015,0 43.42852,-4.33093 43.42852,12.69089z" fill="url(#color-7)"/><g><path d="M240.95023,142.49396c-0.00055,-0.01953 -0.0011,-0.0391 -0.00167,-0.05863c-0.20513,-7.22939 -0.36693,-14.44813 -0.497,-21.69166c-0.12957,-7.21579 -0.03692,-14.50101 -0.03692,-21.72656c0,-1.09719 -0.00275,-2.19473 -0.00537,-3.29208c6.15369,-0.08163 11.79902,-0.20587 16.40736,0.57222c-0.01576,3.74812 0.00581,7.50339 0.00581,11.24952c0,7.25192 0,14.50386 0,21.7558c0,1.96413 0,3.92823 0,5.89237c-4.46651,3.71912 -9.91398,6.33659 -15.87222,7.29904z" fill="url(#color-8)"/><path d="M212.00027,132.22923c0,-4.50943 0,-9.01889 0,-13.52833c0,-7.24388 0,-14.48774 0,-21.73162c3.55799,-1.10312 8.04011,-1.31171 13.11787,-1.30504c-0.03296,3.29078 -0.07712,6.58145 -0.12734,9.87989c-0.11025,7.24212 -0.08218,14.54222 -0.0137,21.78782c0.04415,4.6708 0.22117,9.2147 0.40804,13.77937c-5.17876,-1.81982 -9.75932,-4.93065 -13.38487,-8.8821z" fill="url(#color-9)"/></g><path d="M268.56705,110.52633c0,17.02181 -14.85347,32.37469 -32.93362,32.37469c-18.08014,0 -32.54038,-15.35288 -32.54038,-32.37469c0,-17.02181 14.24836,-14.76286 32.32851,-14.76286c18.08015,0 33.14549,-2.25895 33.14549,14.76286z" fill="none"/></g><g stroke="none" stroke-width="0" stroke-linecap="butt"><path d="M213.17742,-71.27959c12.70963,6.88215 53.51119,18.26424 63.15725,38.96974c16.73729,35.92704 -11.40949,75.88672 -31.35222,72.98707c-0.02393,-0.00348 12.29044,-18.3678 1.71096,-33.99427c-8.04114,-11.87722 -37.88576,-18.8328 -46.54278,-34.36626c-17.78624,-31.91421 -6.09935,-78.66745 -5.47531,-81.365c1.188,-5.13529 5.08988,30.50614 18.50208,37.76872z" data-paper-data="{&quot;index&quot;:null}" fill="url(#color-10)"/><path d="M258.46496,-109.46696c0.82664,2.6425 16.02235,48.37586 0.70531,81.54596c-7.45519,16.14473 -36.687,25.3416 -43.80513,37.79394c-9.36507,16.38314 4.30532,33.76164 4.28173,33.76693c-19.6657,4.40234 -50.75924,-33.30986 -36.79218,-70.40177c8.0495,-21.37684 47.8714,-35.81768 60.02305,-43.64302c12.82338,-8.25792 14.01355,-44.09254 15.58724,-39.06201z" fill="url(#color-11)"/></g><g stroke="none" stroke-width="0" stroke-linecap="butt"><path d="M299.18237,49.91878c0.88062,23.21178 -18.65983,66.03464 -46.97205,78.08263c-4.43594,1.88767 -9.0872,3.01987 -13.909,3.2028c-35.59675,1.35049 -67.00761,-49.5463 -68.02621,-76.39488c-1.0186,-26.84858 27.01255,-49.70845 62.6093,-51.05894c35.59676,-1.35049 65.27937,19.31981 66.29796,46.1684z" fill="url(#color-12)"/><path d="M299.17605,49.75224c0.88062,23.21178 -18.65983,66.03464 -46.97205,78.08263c-4.43594,1.88767 -9.0872,3.01987 -13.909,3.2028c-4.9396,0.1874 -15.02592,-0.32884 -21.81314,-4.33035c-0.94375,-0.5564 -5.71284,-2.11959 -9.31718,-5.29892c-5.47832,-4.83234 -10.50736,-12.00209 -13.00164,-14.0342c1.19132,0.02437 5.62511,-0.75674 6.14323,-1.31165c0.30542,-0.32711 11.35479,3.37173 11.90528,3.35084c3.34395,-0.12686 1.18312,-0.28116 4.52554,-0.44399c1.85981,-0.40504 6.97574,4.53834 7.77332,2.98186c1.6639,-3.2471 4.17285,-7.51262 6.58931,-10.33753c1.32667,-1.55092 3.24107,-2.50297 4.22452,-4.27576c2.58564,-3.81679 4.29261,-6.96453 2.03039,-11.43823c-0.52098,-1.03027 -2.80993,-2.90837 -2.97306,-3.81519c-0.12658,-0.70361 1.31828,-2.47612 1.27724,-3.61914c-0.07303,-1.65992 0.00482,-3.61003 -0.79901,-5.12781c-0.28551,-0.53911 -0.83834,-0.96331 -0.95295,-1.56251c-0.49096,-2.56683 1.86651,-6.98973 -0.03835,-9.08284c-0.77195,-0.84825 -3.20499,-1.70035 -4.2881,-2.18973c1.09584,-2.09505 2.94779,-3.96761 1.66161,-6.47975c-0.66678,-1.30235 -2.56376,-1.31232 -3.12529,-2.38765c-0.48542,-0.9296 1.56357,-3.33632 1.87265,-4.17049c0.60813,-1.64131 0.36783,-3.46772 0.27581,-5.16741c-0.15119,-1.62247 -1.65821,-2.88979 -1.48268,-4.56882c0.15082,-1.44269 2.14074,-2.47321 2.97357,-3.54449c2.66178,-3.42387 2.85882,-7.18948 -0.35672,-10.27281c-0.92686,-1.35715 -1.38732,-0.74471 -2.66099,-1.38245c-1.24108,-0.62143 -2.87682,-1.89967 -3.9147,-2.8534c-1.51088,-1.38838 -1.24187,-5.31399 -0.05958,-6.87274c0.87706,-1.15632 3.14884,-0.80439 4.37618,-0.85096c2.26652,-0.33258 1.4018,-2.61678 1.32832,-4.55363c-0.04654,-1.22664 -0.09307,-2.4533 -0.13961,-3.67993c0.84515,-0.05693 1.69495,-0.10172 2.54911,-0.13413c35.59676,-1.35049 65.27937,19.31981 66.29796,46.1684z" fill="#000000"/></g><path d="M184.71648,67.89183c-0.49163,-12.95868 9.61491,-23.86232 22.57359,-24.35395c12.95868,-0.49163 23.86232,9.61491 24.35395,22.57359c0.49163,12.95868 -9.61491,23.86232 -22.57359,24.35395c-12.95868,0.49163 -23.86232,-9.61491 -24.35395,-22.57359z" fill="#ff0000" stroke="none" stroke-width="2" stroke-linecap="butt"/><path d="M185.08418,71.32948c1.25285,-0.00295 45.94388,-1.14644 46.20289,-1.13218c-0.38171,3.50276 -0.90866,6.33925 -2.69039,9.32638c-3.99707,6.70128 -11.35051,10.67729 -19.37482,10.98172c-11.86891,0.45029 -22.36764,-7.54688 -24.1377,-19.1759z" data-paper-data="{&quot;index&quot;:null}" fill="#ff5d5d" stroke="none" stroke-width="2" stroke-linecap="butt"/><path d="M197.13375,68.14556c-0.22741,-5.99416 4.44745,-11.03772 10.4416,-11.26513c5.99416,-0.22741 11.03772,4.44746 11.26513,10.44161c0.22741,5.99416 -4.44746,11.03771 -10.44161,11.26512c-5.99416,0.22741 -11.0377,-4.44745 -11.26511,-10.4416z" fill="#000000" stroke="none" stroke-width="0" stroke-linecap="butt"/><path d="M210.1532,67.81573c0.03739,0.98551 -0.79513,1.81716 -1.85949,1.85754c-1.06435,0.04038 -1.95749,-0.7258 -1.99488,-1.71131c-0.03739,-0.98551 0.79513,-1.81716 1.85949,-1.85754c1.06435,-0.04038 1.95749,0.7258 1.99488,1.71131z" fill="#ff0000" stroke="none" stroke-width="0" stroke-linecap="butt"/><g><g><path d="M304.04024,-6.29819c0.86271,1.91179 32.15204,69.14914 45.2471,82.24759c16.14029,16.14447 36.48408,30.63406 36.40735,30.67483c-0.41257,0.21913 -22.52086,6.69628 -39.80491,3.97382c-18.32844,-2.88696 -32.04466,-15.15935 -38.14514,-21.45538c-25.23434,-26.04315 -41.61986,-54.60098 -60.11895,-63.39572c-2.96577,-1.40997 -10.70858,-3.87708 -14.56619,0.84714c-7.09712,8.69149 -24.39427,11.89874 -24.61139,11.41755c-10.23004,-22.66978 11.06513,-49.09034 37.70738,-63.24025c26.64226,-14.14993 47.6547,-3.73933 57.88474,18.93044z" fill="url(#color-13)" stroke="none" stroke-width="0" stroke-linecap="butt"/><path d="M227.46863,5.32644c0,0 27.73401,-19.29033 45.97921,-5.95862c9.43502,6.89413 39.43037,58.4564 60.7112,86.55344c9.49785,12.54 24.21903,15.25448 24.21903,15.25448" fill="none" stroke="#000000" stroke-width="0.5" stroke-linecap="round"/></g><g><path d="M295.02696,42.12324c0.17459,1.58574 7.30203,57.58858 15.98098,70.2133c10.69723,15.56057 26.39932,30.96129 26.30395,30.97179c-0.5127,0.05645 -25.99246,-0.70349 -42.96373,-6.89516c-17.99678,-6.56578 -27.63552,-18.74885 -31.60526,-24.76965c-16.42065,-24.90475 -24.32626,-60.2198 -40.26356,-71.07453c-2.55507,-1.74023 -9.58668,-3.48344 -15.39358,-1.03227c-10.6834,4.50959 -21.33429,15.84244 -21.37823,15.44334c-2.07033,-18.80367 23.09047,-37.00208 56.19821,-40.64732c33.10773,-3.64523 51.05092,8.98687 53.12125,27.79054z" fill="url(#color-14)" stroke="none" stroke-width="0" stroke-linecap="butt"/><path d="M210.87147,31.72067c0,0 36.19147,-7.07322 50.14625,6.98095c7.21634,7.26775 18.93201,51.68466 30.45705,77.09738c5.14375,11.34195 19.44869,16.9 19.44869,16.9" fill="none" stroke="#000000" stroke-width="0.5" stroke-linecap="round"/></g></g><g><g data-paper-data="{&quot;index&quot;:null}"><path d="M192.07203,-2.1679c19.31442,4.85345 33.29259,18.79664 31.22112,31.14301c-0.04397,0.26206 -5.79641,-8.05255 -11.87763,-11.83427c-3.30541,-2.05552 -7.52177,-1.41306 -9.10408,-0.44396c-9.86976,6.04488 -22.8988,24.322 -33.69056,39.67012c-2.60895,3.71046 -5.24084,15.402 -16.1277,18.44493c-10.2665,2.86954 -32.14136,-6.5287 -32.44046,-6.60387c-0.04368,-0.01097 14.76595,3.80713 23.44122,-1.0093c0.88267,-0.49005 11.55431,-8.37445 14.25276,-17.70588c4.5719,-15.80994 6.74217,-33.71025 6.85201,-34.36498c2.07148,-12.34637 8.15891,-22.14924 27.47333,-17.2958z" fill="url(#color-15)" stroke="none" stroke-width="0" stroke-linecap="butt"/><path d="M146.09189,71.44064c0,0 8.66894,-2.64414 12.21012,-9.80525c7.93436,-16.04514 16.84331,-44.70796 21.41906,-49.00889c8.84848,-8.31702 29.82173,-0.9587 29.82173,-0.9587" fill="none" stroke="#000000" stroke-width="0.5" stroke-linecap="round"/></g><g data-paper-data="{&quot;index&quot;:null}"><path d="M184.70902,10.52661c24.03404,-3.1123 45.14829,6.9583 47.16,22.49332c0.0427,0.32974 -9.56546,-6.8586 -17.93648,-8.54112c-4.55003,-0.91452 -9.18962,1.77563 -10.6711,3.64529c-9.24079,11.66202 -17.76673,39.22245 -24.75392,62.29779c-1.68918,5.57854 -0.55816,20.59661 -12.04419,29.17792c-10.83152,8.09233 -39.4432,7.00799 -39.81539,7.05619c-0.05434,0.00704 18.40859,-2.26517 26.70824,-11.92878c0.84444,-0.98321 10.35509,-15.18577 10.14273,-27.44605c-0.35978,-20.77217 -4.23841,-42.91397 -4.34509,-43.73781c-2.01171,-15.53502 1.52113,-29.90446 25.55517,-33.01674z" fill="url(#color-16)" stroke="none" stroke-width="0" stroke-linecap="butt"/><path d="M157.86911,118.5487c0,0 9.06716,-7.09432 10.60204,-17.17652c3.43905,-22.59012 3.50302,-60.53335 7.2527,-67.71029c7.25108,-13.87861 34.09406,-14.79135 34.09406,-14.79135" fill="none" stroke="#000000" stroke-width="0.5" stroke-linecap="round"/></g></g><path d="M219.57496,88.00108c0,0 5.55712,-3.80729 7.66162,-6.38484c2.24307,-2.74727 3.90868,-9.56527 3.90868,-9.56527c0,0 4.52567,0.5914 4.55363,1.32832c0.07852,2.06978 4.70707,14.16506 4.70707,14.16506c0,0 -2.64564,-2.26492 -4.25603,-2.22961c-3.58267,0.07855 -16.57497,2.68634 -16.57497,2.68634z" fill="url(#color-17)" stroke="none" stroke-width="0" stroke-linecap="butt"/><path d="M239.63867,84.90489c0.15005,3.95519 -1.66701,7.23506 -4.05852,7.32579c-2.39152,0.09073 -4.45187,-3.04203 -4.60192,-6.99723c-0.15005,-3.95519 1.66701,-7.23506 4.05853,-7.32579c2.39152,-0.09073 4.45186,3.04203 4.60191,6.99723z" fill="#000000" stroke="none" stroke-width="0" stroke-linecap="butt"/><path d="M237.11114,79.83039c0.05932,1.56369 -0.56367,2.85675 -1.39151,2.88816c-0.82783,0.03141 -1.54701,-1.21074 -1.60634,-2.77443c-0.05932,-1.56369 0.56367,-2.85676 1.39151,-2.88817c0.82783,-0.03141 1.54701,1.21075 1.60634,2.77444z" fill="#000000" stroke="none" stroke-width="0" stroke-linecap="butt"/><path d="M240.05186,97.22922c0.02654,0.20525 -0.04286,0.33653 -0.13333,0.4199c0.14445,0.04806 0.36293,0.17684 0.33373,0.51379c-0.04317,0.49813 -0.5413,0.45497 -0.5413,0.45497c-0.45152,-0.03928 -1.08149,0.01561 -1.72189,0.05591c-0.01049,0.01668 -0.02105,0.03337 -0.03169,0.05007c0.18428,1.93086 -0.25164,4.30867 -1.12186,6.24698c0.00746,0.03137 0.01199,0.06393 0.01326,0.09738c0.00225,0.05934 -0.00593,0.11666 -0.02291,0.17018l-0.14433,0.49476l-0.19312,-0.05634c-0.1286,0.23903 -0.26433,0.4685 -0.40676,0.68638c-0.11889,0.21672 -0.24717,0.42792 -0.37197,0.63274l0.11445,0.07924l-0.47106,0.68036c-0.08621,0.12745 -0.2299,0.21353 -0.39544,0.21981c-0.06875,0.00261 -0.13478,-0.0088 -0.19535,-0.03165c-1.6614,2.57407 -3.27167,5.61988 -5.53663,7.64109c-2.17003,1.9365 -4.20491,1.44207 -5.29717,-0.65769c-0.74716,0.5702 -1.51647,0.93457 -2.11296,0.63155c0.06956,0.75631 0.16591,1.50405 0.3003,2.23791l0.03193,0.17564c0,0 0.08942,0.49193 -0.40252,0.58137c-0.49194,0.08942 -0.58137,-0.40251 -0.58137,-0.40251l-0.03192,-0.17564c-0.30077,-1.66609 -0.41398,-3.39744 -0.46326,-5.1385c-0.2153,-0.04897 -0.37964,-0.2375 -0.38841,-0.46864c-0.00523,-0.13797 0.04595,-0.265 0.13294,-0.35885l0.23206,-0.25036c-0.01793,-1.10899 -0.02029,-2.21726 -0.03894,-3.31052c-0.06866,-0.86338 -0.08269,-1.70382 -0.12934,-2.14853c-0.48348,-4.60965 -0.61783,-9.21799 -0.79351,-13.84868c-0.01278,-0.33678 -0.02555,-0.67355 -0.03833,-1.01032c-0.01936,-0.15054 -0.03725,-0.30164 -0.0524,-0.45204c-0.14288,0.10121 -0.2874,0.19983 -0.43346,0.29567l0.06403,0.0678l-0.57681,0.54467c-0.24763,0.37625 -0.41528,0.76828 -0.44533,1.18158c0,0 -0.02504,0.23995 -0.20701,0.3691c-0.22733,1.32545 -0.50545,3.63325 -1.24361,4.07196c-2.33585,1.38827 -1.38516,-6.54268 -3.85502,-2.9454c-0.17238,0.25106 -0.34926,0.50266 -0.47751,0.77887c-0.25621,0.55178 -0.27897,0.83798 -0.37631,1.37636c-0.11482,0.6351 -0.19238,1.27819 -0.22959,1.92251c-0.38504,6.55867 0.85937,13.51785 -0.5827,19.94624c-0.65533,0.38772 -1.90919,1.16595 -2.50253,0.02311c-0.36077,-0.69489 -0.15159,-2.43531 -0.1818,-3.23136c-0.09011,-2.37506 -0.6974,-4.85329 -0.65023,-7.1936c0.00706,-0.35007 -0.00901,0.70797 -0.10247,1.04541c-0.26686,0.96345 -0.50446,1.93168 -0.74436,2.90215c-0.56651,1.78814 -2.78843,2.57207 -2.95954,0.07939c-0.32304,-4.70596 1.13548,-9.84899 -0.09968,-14.41818c-0.49247,-1.29931 -1.18327,-3.79673 -2.41528,-4.59453c-1.15151,-0.74567 -2.85889,-0.55688 -4.15216,-1.13927c-1.878,-0.84572 -3.88278,-2.5404 -5.24189,-4.27298l-0.04399,0.04746l-0.5186,-0.48068c-0.09385,-0.08698 -0.1545,-0.20978 -0.15974,-0.34775c-0.01047,-0.27594 0.20474,-0.50813 0.48068,-0.5186l0.49964,-0.01896c1.68209,-0.04897 3.37306,0.7805 4.96826,1.26897c6.55554,2.0114 11.76737,1.36113 18.04944,-0.77269c1.76705,-0.97414 3.7054,-1.82149 5.68984,-2.24608c1.21181,-0.25929 2.9278,-0.29085 2.43273,1.42297c-0.16721,0.57884 -0.47683,1.02547 -0.86562,1.39377c0.17284,0.07336 0.29695,0.24149 0.30454,0.44153c0.00141,0.03711 -0.00127,0.07345 -0.00763,0.10855l-0.13331,0.82886l-0.10048,-0.01616c0.00521,1.70787 -0.31442,3.56554 -0.64883,5.35876c-0.00875,2.55732 0.03447,5.10854 0.10574,7.66042c0.10766,1.37711 0.29782,2.8942 0.14108,4.2654c0.00619,0.16597 0.01242,0.33196 0.01872,0.49798l0.02527,0.66619c0.01047,0.27594 -0.20474,0.50813 -0.48068,0.5186c0.02964,0.78119 0.05927,1.56238 0.08891,2.34356c0.25583,-0.29734 0.5157,-0.60427 0.7797,-0.9174c0.09824,-0.29776 0.27848,-0.58343 0.59824,-0.87711c0.00142,-0.00736 0.00288,-0.01475 0.00436,-0.02218c0.60133,-1.33352 1.63777,-2.69807 2.73428,-3.82334c-0.10976,-0.73326 -0.09659,-1.449 0.48986,-2.04083c0.28315,-0.28575 1.03187,-0.22552 1.69296,-0.17603c0.28735,-0.22671 0.58373,-0.4346 0.88903,-0.61944c0.25639,-0.33691 0.50984,-0.6623 0.75698,-0.97404c0.01189,-0.14636 0.02327,-0.28018 0.0408,-0.38917c0.17146,-0.81494 0.19301,-1.65313 1.18239,-1.93209c0.06917,-0.01951 0.28485,0.03681 0.52637,0.09544c0.47775,-0.6 0.98638,-1.17683 1.55472,-1.60518c0.0146,-0.01101 0.02946,-0.02194 0.04456,-0.03279c0.0746,-0.11687 0.16881,-0.22619 0.29203,-0.32333c0.27017,-0.21299 0.53961,-0.25362 0.8021,-0.19438c0.87963,-0.26687 1.91835,-0.29842 2.61086,0.126c0.44037,-0.29804 0.9338,-0.34551 1.44856,0.24536c0.04048,0.04647 0.07094,0.09906 0.09228,0.15704c0.0308,-0.0039 0.06159,-0.00784 0.09235,-0.01182l0.83395,-0.10782c0,0 0.49588,-0.06412 0.55998,0.43176zM236.3438,98.82224c-0.12938,0.38535 -0.40749,0.852 -0.71087,1.29842c0.29457,-0.38197 0.70108,-0.92579 1.06077,-1.42058c-0.08019,-0.00456 -0.15831,-0.0109 -0.23388,-0.01929c-0.00509,0.00621 -0.0102,0.01244 -0.01533,0.01869zM225.6769,111.8692c-0.04763,0.05126 -0.09541,0.10238 -0.14334,0.15333c0.01902,-0.01699 0.03804,-0.03399 0.05705,-0.05098c0.02878,-0.03412 0.05754,-0.06823 0.08629,-0.10236zM222.86548,114.37815c-0.08759,0.02839 -0.17522,0.04664 -0.26209,0.05224c-0.19609,0.27956 -0.35628,0.49543 -0.19595,0.35314c0.15237,-0.13522 0.30508,-0.27033 0.45804,-0.40539zM233.08788,100.8922c-0.05617,0.00721 -0.11391,0.01871 -0.17304,0.03418c-0.20303,0.17763 -0.40448,0.35637 -0.60443,0.53642c0.04171,0.0697 0.067,0.15057 0.07029,0.23747c0.00354,0.09336 -0.01875,0.18172 -0.06049,0.25817l-0.08884,0.17014c0.11754,-0.16625 0.2344,-0.33327 0.35059,-0.50109c0.17074,-0.24663 0.3398,-0.49076 0.50593,-0.73531zM227.63069,107.84488c0.16248,-0.24357 0.31989,-0.48821 0.47181,-0.733c0.04479,-0.07205 0.08954,-0.14412 0.13426,-0.21621c-0.09394,0.01024 -0.18605,0.01531 -0.27502,0.0141c-0.44085,0.47869 -0.90641,0.93747 -1.39116,1.37783c-0.17431,0.39223 -0.33852,0.78666 -0.49167,1.18263c0.43223,-0.41551 0.83345,-0.85058 1.16079,-1.20226c0.13119,-0.14054 0.26152,-0.28157 0.39102,-0.42309zM221.97431,113.43915c0.09908,-0.496 0.36509,-1.08824 0.60068,-1.54674c-0.07696,-0.04145 -0.15198,-0.0904 -0.22482,-0.14734c-0.03321,-0.02596 -0.05858,-0.05941 -0.07686,-0.09951c-0.06414,0.04595 -0.1288,0.09124 -0.194,0.13583c-0.02213,0.20278 -0.16622,0.37091 -0.35965,0.42601l-0.07141,0.06063c0.01329,0.642 0.03396,1.28333 0.06854,1.92091c0.07134,-0.24075 0.16064,-0.49597 0.2575,-0.74979zM233.17176,104.18093c-0.26165,0.22548 -0.5284,0.44373 -0.79912,0.65246c-1.76288,2.51443 -3.6295,4.93128 -5.61445,7.30062c0.43623,-0.25858 0.84277,-0.59448 1.2622,-0.97234c2.14231,-1.92673 4.27242,-4.1409 5.15136,-6.98074zM236.82778,100.25684c-0.27338,0.3366 -0.49952,0.60032 -0.60369,0.73161c-0.51519,0.64765 -1.10082,1.31458 -1.73595,1.95874c-0.07393,0.41653 -0.15417,0.76809 -0.19918,0.94771c-0.82527,3.29356 -3.17222,5.82613 -5.59979,8.01025c-0.70888,0.63678 -2.14797,1.50595 -3.23625,1.62433c-0.24339,0.24888 -0.51286,0.51855 -0.79611,0.77982c0.15932,0.45457 0.35484,0.88548 0.62128,1.20753c0.8253,0.9976 2.62401,-0.0904 3.28472,-0.68079c2.36726,-2.11528 4.00159,-5.42066 5.7524,-8.03156c0.39026,-0.50731 0.7807,-1.01449 1.17139,-1.52146l0.02085,-0.01186l-0.00568,-0.00527l0.1145,-0.12353c0.03571,-0.07517 0.06997,-0.15266 0.10154,-0.23315c0.57651,-1.46953 0.98918,-3.05538 1.10997,-4.65236zM227.1868,103.39893c0.02482,-0.02561 0.04972,-0.0511 0.07469,-0.07647c-0.01825,0.00647 -0.03111,0.01423 -0.03795,0.02347c-0.01285,0.01737 -0.02509,0.03504 -0.03676,0.05301zM228.39705,108.48983c-0.09035,0.13234 -0.182,0.26385 -0.27489,0.39454c0.17929,-0.22583 0.35763,-0.45223 0.535,-0.6793c-0.08651,0.09521 -0.17322,0.19013 -0.26011,0.28477zM224.06074,111.95505c-0.03069,0.00964 -0.06131,0.01877 -0.09188,0.02735c0.01076,0.04167 0.02169,0.08329 0.03282,0.12486c0.01775,-0.0148 0.03529,-0.0294 0.05257,-0.04377c0.00158,-0.03541 0.00373,-0.07154 0.00648,-0.10843zM235.83256,97.12458c0.17439,-0.00176 0.3465,0.0112 0.52057,0.03578c-0.14646,-0.05171 -0.32443,-0.05985 -0.52057,-0.03578z" fill="#000000" stroke="none" stroke-width="0.5" stroke-linecap="butt"/><path d="M217.11126,99.38716c0.02094,0.55188 -0.37219,1.01484 -0.87809,1.03403c-0.5059,0.01919 -0.93298,-0.41265 -0.95392,-0.96453c-0.02094,-0.55188 0.3722,-1.01484 0.8781,-1.03403c0.5059,-0.01919 0.93297,0.41265 0.95391,0.96453z" fill="#000000" stroke="none" stroke-width="0" stroke-linecap="butt"/><path d="M238.82029,95.48659c0.02094,0.55188 -0.59589,1.02333 -1.37774,1.05299c-0.78184,0.02966 -1.43263,-0.39369 -1.45356,-0.94557c-0.02094,-0.55188 0.59589,-1.02333 1.37774,-1.05299c0.78184,-0.02966 1.43263,0.39369 1.45356,0.94557z" fill="#000000" stroke="none" stroke-width="0" stroke-linecap="butt"/><path d="M240.92538,93.82226c0.08899,2.34552 -1.25562,4.30069 -3.00327,4.367c-1.74764,0.0663 -3.23653,-1.78137 -3.32552,-4.12689c-0.08899,-2.34552 1.25562,-4.30069 3.00327,-4.367c1.74764,-0.0663 3.23653,1.78137 3.32552,4.12689z" fill="#000000" stroke="none" stroke-width="0" stroke-linecap="butt"/><path d="M237.02214,92.05229c0.04885,1.28773 -0.91818,2.36984 -2.15992,2.41695c-1.24175,0.04711 -2.28799,-0.95862 -2.33684,-2.24635c-0.04885,-1.28773 0.91818,-2.36984 2.15992,-2.41695c1.24175,-0.04711 2.28799,0.95862 2.33684,2.24635z" fill="#000000" stroke="none" stroke-width="0" stroke-linecap="butt"/><path d="M229.60198,103.09153c0.05409,1.42571 -0.9087,2.61966 -2.15045,2.66677c-1.24175,0.04711 -2.29223,-1.07047 -2.34632,-2.49617c-0.05409,-1.42571 0.9087,-2.61966 2.15045,-2.66677c1.24175,-0.04711 2.29223,1.07047 2.34632,2.49617z" fill="#000000" stroke="none" stroke-width="0" stroke-linecap="butt"/><path d="M238.23309,97.59369c0.07154,1.88561 -1.39906,3.47221 -3.28468,3.54374c-1.88561,0.07154 -3.47221,-1.39906 -3.54374,-3.28468c-0.07154,-1.88561 1.39906,-3.47221 3.28468,-3.54374c1.88561,-0.07154 3.47221,1.39906 3.54374,3.28468z" fill="#000000" stroke="none" stroke-width="0" stroke-linecap="butt"/><path d="M231.48364,99.9346c0.03141,0.82783 -0.53965,1.52155 -1.2755,1.54947c-0.73585,0.02792 -1.35783,-0.62054 -1.38924,-1.44837c-0.03141,-0.82783 0.53965,-1.52155 1.2755,-1.54947c0.73585,-0.02792 1.35783,0.62054 1.38924,1.44837z" fill="#000000" stroke="none" stroke-width="0" stroke-linecap="butt"/><path d="M229.50315,96.09025c0.02617,0.68986 -0.25088,1.26042 -0.6188,1.27438c-0.36793,0.01396 -0.68741,-0.53396 -0.71358,-1.22383c-0.02617,-0.68986 0.25088,-1.26042 0.6188,-1.27438c0.36793,-0.01396 0.68741,0.53396 0.71358,1.22383z" fill="#000000" stroke="none" stroke-width="0" stroke-linecap="butt"/><path d="M219.2052,110.40762c0.05932,1.56369 -0.97379,2.87231 -2.30752,2.92291c-1.33373,0.0506 -2.46302,-1.176 -2.52235,-2.73967c-0.05932,-1.56369 0.97379,-2.87231 2.30752,-2.92291c1.33373,-0.0506 2.46302,1.176 2.52235,2.73967z" fill="#000000" stroke="none" stroke-width="0" stroke-linecap="butt"/><path d="M205.55379,106.67248c0.04013,1.05779 -0.78484,1.94782 -1.84263,1.98796c-1.05779,0.04013 -1.94782,-0.78484 -1.98796,-1.84263c-0.04013,-1.05779 0.78484,-1.94782 1.84263,-1.98796c1.05779,-0.04013 1.94782,0.78484 1.98796,1.84263z" fill="#000000" stroke="none" stroke-width="0" stroke-linecap="butt"/><path d="M200.1672,109.76616c-0.00985,-0.25971 0.20586,-0.47874 0.4818,-0.48921c0.27594,-0.01047 0.50763,0.19158 0.51748,0.4513c0.00985,0.25971 -0.20586,0.47874 -0.4818,0.48921c-0.27594,0.01047 -0.50763,-0.19158 -0.51748,-0.4513z" fill="#000000" stroke="none" stroke-width="0" stroke-linecap="butt"/><path d="M204.78739,108.45281c0.03839,1.01179 -0.48973,1.85323 -1.1796,1.8794c-0.68986,0.02617 -1.28022,-0.77283 -1.31861,-1.78462c-0.03839,-1.01179 0.48973,-1.85323 1.1796,-1.8794c0.68986,-0.02617 1.28022,0.77283 1.31861,1.78462z" fill="#000000" stroke="none" stroke-width="0" stroke-linecap="butt"/><path d="M202.09105,107.72117c0.02792,0.73585 -0.62054,1.35783 -1.44837,1.38924c-0.82783,0.03141 -1.52155,-0.53965 -1.54947,-1.2755c-0.02792,-0.73585 0.62054,-1.35783 1.44837,-1.38924c0.82783,-0.03141 1.52155,0.53965 1.54947,1.2755z" fill="#000000" stroke="none" stroke-width="0" stroke-linecap="butt"/><path d="M217.39214,110.97676c0.03839,1.01179 -0.89985,1.86879 -2.09561,1.91415c-1.19576,0.04537 -2.19623,-0.73808 -2.23462,-1.74987c-0.03839,-1.01179 0.89985,-1.86879 2.09561,-1.91415c1.19576,-0.04537 2.19623,0.73808 2.23462,1.74987z" fill="#000000" stroke="none" stroke-width="0" stroke-linecap="butt"/><path d="M220.3461,67.82477c0,6.86411 -5.40456,12.42857 -12.07143,12.42857c-6.66687,0 -12.07143,-5.56446 -12.07143,-12.42857c0,-6.86411 5.40456,-12.42857 12.07143,-12.42857c6.66687,0 12.07143,5.56446 12.07143,12.42857z" fill="url(#color-18)" stroke="none" stroke-width="0" stroke-linecap="butt"/></g></g></svg>