<svg version="1.1" xmlns="http://www.w3.org/2000/svg" xmlns:xlink="http://www.w3.org/1999/xlink" width="736.3205" height="478.54528" viewBox="0,0,736.3205,478.54528"><defs><radialGradient cx="99.09138" cy="27.09427" r="26.77394" gradientUnits="userSpaceOnUse" id="color-1"><stop offset="0" stop-color="#002e73"/><stop offset="1" stop-color="#001940"/></radialGradient><linearGradient x1="24.37746" y1="3.83819" x2="24.37746" y2="112.76932" gradientUnits="userSpaceOnUse" id="color-2"><stop offset="0" stop-color="#808080"/><stop offset="1" stop-color="#404040"/></linearGradient><linearGradient x1="63.34209" y1="4.83819" x2="63.34209" y2="113.76932" gradientUnits="userSpaceOnUse" id="color-3"><stop offset="0" stop-color="#808080"/><stop offset="1" stop-color="#404040"/></linearGradient><linearGradient x1="42.98608" y1="2.99608" x2="42.98608" y2="149.82338" gradientUnits="userSpaceOnUse" id="color-4"><stop offset="0" stop-color="#808080"/><stop offset="1" stop-color="#404040"/></linearGradient><radialGradient cx="135.95539" cy="15.36481" r="24.44355" gradientUnits="userSpaceOnUse" id="color-5"><stop offset="0" stop-color="#002e73"/><stop offset="1" stop-color="#001940"/></radialGradient><radialGradient cx="125.5407" cy="57.69268" r="2.60528" gradientUnits="userSpaceOnUse" id="color-6"><stop offset="0" stop-color="#002e73"/><stop offset="1" stop-color="#001940"/></radialGradient><radialGradient cx="125.51117" cy="57.29024" r="2.625" gradientUnits="userSpaceOnUse" id="color-7"><stop offset="0" stop-color="#260000"/><stop offset="1" stop-color="#000000"/></radialGradient><radialGradient cx="138.82841" cy="46.20061" r="2.625" gradientUnits="userSpaceOnUse" id="color-8"><stop offset="0" stop-color="#002e73"/><stop offset="1" stop-color="#001940"/></radialGradient><radialGradient cx="138.07597" cy="46.04024" r="2.625" gradientUnits="userSpaceOnUse" id="color-9"><stop offset="0" stop-color="#260000"/><stop offset="1" stop-color="#000000"/></radialGradient><radialGradient cx="98.79361" cy="90.20331" r="33.75971" gradientUnits="userSpaceOnUse" id="color-10"><stop offset="0" stop-color="#002e73"/><stop offset="1" stop-color="#001940"/></radialGradient><linearGradient x1="89.12338" y1="200.77514" x2="89.12338" y2="242.01069" gradientUnits="userSpaceOnUse" id="color-11"><stop offset="0" stop-color="#808080"/><stop offset="1" stop-color="#404040"/></linearGradient><linearGradient x1="113.93415" y1="206.04393" x2="113.93415" y2="247.27949" gradientUnits="userSpaceOnUse" id="color-12"><stop offset="0" stop-color="#808080"/><stop offset="1" stop-color="#404040"/></linearGradient><linearGradient x1="134.2281" y1="206.35359" x2="134.2281" y2="268.50242" gradientUnits="userSpaceOnUse" id="color-13"><stop offset="0" stop-color="#808080"/><stop offset="1" stop-color="#404040"/></linearGradient><linearGradient x1="180.24863" y1="227.73635" x2="180.24863" y2="289.88518" gradientUnits="userSpaceOnUse" id="color-14"><stop offset="0" stop-color="#808080"/><stop offset="1" stop-color="#404040"/></linearGradient><linearGradient x1="226.42296" y1="208.35851" x2="226.42296" y2="329.36873" gradientUnits="userSpaceOnUse" id="color-15"><stop offset="0" stop-color="#808080"/><stop offset="1" stop-color="#404040"/></linearGradient><linearGradient x1="306.29743" y1="233.01034" x2="323.10469" y2="226.42726" gradientUnits="userSpaceOnUse" id="color-16"><stop offset="0" stop-color="#999999"/><stop offset="1" stop-color="#666666"/></linearGradient><linearGradient x1="310.34048" y1="231.88359" x2="319.81375" y2="228.1731" gradientUnits="userSpaceOnUse" id="color-17"><stop offset="0" stop-color="#999999"/><stop offset="1" stop-color="#666666"/></linearGradient><linearGradient x1="319.77381" y1="257.27302" x2="337.81586" y2="256.7209" gradientUnits="userSpaceOnUse" id="color-18"><stop offset="0" stop-color="#999999"/><stop offset="1" stop-color="#666666"/></linearGradient><linearGradient x1="323.96038" y1="257.57049" x2="334.12963" y2="257.25929" gradientUnits="userSpaceOnUse" id="color-19"><stop offset="0" stop-color="#999999"/><stop offset="1" stop-color="#666666"/></linearGradient><linearGradient x1="326.20931" y1="281.51349" x2="341.33518" y2="291.36382" gradientUnits="userSpaceOnUse" id="color-20"><stop offset="0" stop-color="#999999"/><stop offset="1" stop-color="#666666"/></linearGradient><linearGradient x1="329.47614" y1="284.14858" x2="338.00172" y2="289.70062" gradientUnits="userSpaceOnUse" id="color-21"><stop offset="0" stop-color="#999999"/><stop offset="1" stop-color="#666666"/></linearGradient><linearGradient x1="314.2989" y1="306.58207" x2="325.2349" y2="320.94261" gradientUnits="userSpaceOnUse" id="color-22"><stop offset="0" stop-color="#999999"/><stop offset="1" stop-color="#666666"/></linearGradient><linearGradient x1="316.49023" y1="310.16173" x2="322.65422" y2="318.25591" gradientUnits="userSpaceOnUse" id="color-23"><stop offset="0" stop-color="#999999"/><stop offset="1" stop-color="#666666"/></linearGradient><linearGradient x1="291.28257" y1="335.67872" x2="308.24323" y2="341.85585" gradientUnits="userSpaceOnUse" id="color-24"><stop offset="0" stop-color="#999999"/><stop offset="1" stop-color="#666666"/></linearGradient><linearGradient x1="295.0604" y1="337.50732" x2="304.62012" y2="340.98904" gradientUnits="userSpaceOnUse" id="color-25"><stop offset="0" stop-color="#999999"/><stop offset="1" stop-color="#666666"/></linearGradient><linearGradient x1="308.56728" y1="369.93822" x2="320.8348" y2="356.69704" gradientUnits="userSpaceOnUse" id="color-26"><stop offset="0" stop-color="#999999"/><stop offset="1" stop-color="#666666"/></linearGradient><linearGradient x1="311.71709" y1="367.16433" x2="318.63157" y2="359.70104" gradientUnits="userSpaceOnUse" id="color-27"><stop offset="0" stop-color="#999999"/><stop offset="1" stop-color="#666666"/></linearGradient><linearGradient x1="346.4636" y1="255.79776" x2="358.85827" y2="258.39058" gradientUnits="userSpaceOnUse" id="color-28"><stop offset="0" stop-color="#666666"/><stop offset="1" stop-color="#999999"/></linearGradient><linearGradient x1="349.39045" y1="256.52301" x2="356.37651" y2="257.98441" gradientUnits="userSpaceOnUse" id="color-29"><stop offset="0" stop-color="#666666"/><stop offset="1" stop-color="#999999"/></linearGradient><linearGradient x1="362.62701" y1="258.08292" x2="374.94058" y2="260.65875" gradientUnits="userSpaceOnUse" id="color-30"><stop offset="0" stop-color="#666666"/><stop offset="1" stop-color="#999999"/></linearGradient><linearGradient x1="365.5723" y1="258.73477" x2="372.51263" y2="260.1866" gradientUnits="userSpaceOnUse" id="color-31"><stop offset="0" stop-color="#666666"/><stop offset="1" stop-color="#999999"/></linearGradient><linearGradient x1="379.33338" y1="256.14959" x2="390.25708" y2="258.43468" gradientUnits="userSpaceOnUse" id="color-32"><stop offset="0" stop-color="#666666"/><stop offset="1" stop-color="#999999"/></linearGradient><linearGradient x1="381.98678" y1="256.60299" x2="388.1438" y2="257.89095" gradientUnits="userSpaceOnUse" id="color-33"><stop offset="0" stop-color="#666666"/><stop offset="1" stop-color="#999999"/></linearGradient><linearGradient x1="393.11176" y1="250.82429" x2="402.90162" y2="252.8722" gradientUnits="userSpaceOnUse" id="color-34"><stop offset="0" stop-color="#666666"/><stop offset="1" stop-color="#999999"/></linearGradient><linearGradient x1="395.49583" y1="251.15534" x2="401.01378" y2="252.30962" gradientUnits="userSpaceOnUse" id="color-35"><stop offset="0" stop-color="#666666"/><stop offset="1" stop-color="#999999"/></linearGradient><linearGradient x1="403.35093" y1="237.07373" x2="411.93787" y2="238.87001" gradientUnits="userSpaceOnUse" id="color-36"><stop offset="0" stop-color="#666666"/><stop offset="1" stop-color="#999999"/></linearGradient><linearGradient x1="405.42301" y1="237.27713" x2="410.26295" y2="238.28958" gradientUnits="userSpaceOnUse" id="color-37"><stop offset="0" stop-color="#666666"/><stop offset="1" stop-color="#999999"/></linearGradient><linearGradient x1="430.29778" y1="211.95087" x2="430.29778" y2="336.77118" gradientUnits="userSpaceOnUse" id="color-38"><stop offset="0" stop-color="#808080"/><stop offset="1" stop-color="#404040"/></linearGradient><linearGradient x1="209.55036" y1="202.73802" x2="209.55036" y2="243.97359" gradientUnits="userSpaceOnUse" id="color-39"><stop offset="0" stop-color="#808080"/><stop offset="1" stop-color="#404040"/></linearGradient><linearGradient x1="500.7526" y1="211.45691" x2="500.7526" y2="378.37844" gradientUnits="userSpaceOnUse" id="color-40"><stop offset="0" stop-color="#808080"/><stop offset="1" stop-color="#404040"/></linearGradient><linearGradient x1="156.35322" y1="206.56895" x2="156.35322" y2="289.09894" gradientUnits="userSpaceOnUse" id="color-41"><stop offset="0" stop-color="#808080"/><stop offset="1" stop-color="#404040"/></linearGradient></defs><g transform="translate(198.17897,-1.90974)"><g data-paper-data="{&quot;isPaintingLayer&quot;:true}" fill-rule="nonzero" stroke-linejoin="miter" stroke-miterlimit="10" stroke-dasharray="" stroke-dashoffset="0" style="mix-blend-mode: normal"><path d="M85.96396,42.59817c-0.20157,2.78451 -0.41232,5.56572 -0.63365,8.34254l-0.05208,0.15466l0.02741,0.02256l-0.50116,3.12244c-0.12725,0.85462 -0.48393,1.47 -0.90406,1.47c-0.52684,0 -0.9539,-0.96761 -0.9539,-2.16122v-4.32244c-0.40425,-5.24644 0.14752,-11.47534 0.22621,-16.77498c0.09206,-6.2005 0.03769,-12.42617 0.02922,-18.63285c-0.0936,-0.92377 -0.15092,-1.66941 -0.12735,-1.9596c0.00972,-0.11965 0.02176,-0.23742 0.03593,-0.35343l-0.02944,-0.00834l0.12562,-2.27685c0.05218,-1.07153 0.4501,-1.90707 0.93544,-1.9214c0.17021,-0.35777 0.39812,-0.57652 0.6486,-0.57652c0.18513,0 0.35793,0.11947 0.50423,0.32626l1.62247,2.2056c0.39133,0.28326 2.01442,1.71877 2.1894,1.96c1.03477,1.42645 2.09468,4.08219 3.19907,5.20918c0.59517,0.60731 1.18482,1.11255 1.77287,1.53244c0.58027,-0.21172 1.13892,0.54618 1.70905,0.9959c1.86589,0.85685 3.75436,1.02046 5.79158,1.02608c0.66144,0.00181 1.21902,0.06944 1.77108,0.01441c1.11612,-0.46853 2.15216,-1.17086 3.14359,-2.09889c1.97694,-2.36846 3.62261,-6.14131 5.2588,-9.49201l1.3419,-3.01807c0.17245,-0.38806 0.40998,-0.62782 0.67223,-0.62782c0.52684,0 0.95389,0.96759 0.95389,2.16119c0,0.47578 -0.06787,0.91567 -0.18284,1.27267l-0.82593,2.63342c0.00898,0.11899 0.01361,0.24131 0.01361,0.36611c0,0.6302 -0.11907,1.19736 -0.30897,1.59242l-0.09888,0.20694c0.01718,0.16228 0.02629,0.3317 0.02629,0.50593c0,0.63347 -0.1203,1.20327 -0.31196,1.59858l-0.71,1.47455c0.45495,2.61086 0.56456,4.72536 0.48395,6.89784l0.1545,-0.02224l0.11686,4.16948c0.00165,0.05189 0.00248,0.10429 0.00248,0.15713c0,1.19363 -0.42708,2.16122 -0.95389,2.16122c-0.44583,0 -0.82025,-0.69303 -0.92483,-1.62956l-0.18234,1.34259c-0.11316,0.90741 -0.48134,1.57239 -0.91807,1.57239c-0.51576,0 -0.93591,-0.92741 -0.95333,-2.08637l-0.04731,-2.71787c-0.11625,1.58078 -0.22309,3.03195 -0.22511,3.05523c-0.09233,1.05435 -0.04729,2.27901 -0.33465,3.13432c-0.42743,1.27219 -1.04233,3.52794 -1.68947,2.89031c-0.29254,-0.28825 -0.49932,-0.80454 -0.65521,-1.44123c-0.02512,1.80023 -0.11334,3.54579 -0.36326,5.07407c-0.00176,0.01081 -0.00355,0.02161 -0.0053,0.03239l0.00333,0.00107l-0.25239,4.00284c-0.05946,1.06415 -0.46046,1.88701 -0.9463,1.88701c-0.52684,0 -0.95392,-0.96761 -0.95392,-2.16122v-2.88161h0.02397l-0.02224,-0.12997c0.1199,-2.26982 0.25486,-4.50853 0.40665,-6.74508c-0.28848,0.98509 -0.59905,1.8673 -0.93114,2.53904c-0.68288,1.38135 -1.40996,3.24607 -2.32494,3.31213c-0.03772,0.00271 -0.07486,0.00064 -0.1114,-0.00607c-0.24315,0.69301 -0.52686,1.19022 -0.89257,1.17307c-0.89766,-0.04209 -1.31276,-2.77855 -1.93707,-4.2405c-0.05008,-0.11726 -0.10005,-0.23473 -0.14992,-0.35249l-0.43398,1.54514c-0.16779,0.61887 -0.46933,1.03162 -0.81338,1.03162c-0.52684,0 -0.9539,-0.96761 -0.9539,-2.16122v-2.3053c0.00021,-0.7527 -0.01196,-1.4928 -0.02509,-2.22448c-0.19879,1.72774 -0.41773,3.36737 -0.67367,4.43664c-0.015,0.06257 -0.03042,0.12442 -0.04635,0.18558l0.00847,0.00959l-0.49951,2.26343c-0.15296,0.73102 -0.48164,1.23657 -0.86242,1.23657c-0.15775,0 -0.30654,-0.08676 -0.43763,-0.24035c-0.04379,1.93179 -0.09637,3.86104 -0.1696,5.78359c-0.06329,1.66184 -0.20485,5.68216 -0.61376,7.48172l-0.52825,4.10334c-0.10874,0.92267 -0.48017,1.60228 -0.92169,1.60228c-0.52684,0 -0.9539,-0.96761 -0.9539,-2.16122v-2.59347h0.00104l-0.00104,-0.00605c0.01337,-5.43746 0.14749,-10.85077 0.21539,-16.27584c-0.00818,0.00045 -0.01641,0.00069 -0.02461,0.00069c-0.52684,0 -0.9539,-0.96761 -0.9539,-2.16122v-0.75696c-0.13567,0.16795 -0.29128,0.26339 -0.45675,0.26339c-0.40116,0 -0.74447,-0.56102 -0.88544,-1.35564l-0.74284,-3.92716l0.0183,-0.01776l-0.04552,-0.14361c-0.08351,-0.75233 -0.19017,-1.5993 -0.30309,-2.49826c-0.05186,0.04627 -0.10599,0.08252 -0.16185,0.10772c0.01351,0.39485 0.01824,0.78725 0.00237,1.17397c0.03396,0.59168 0.06449,1.18764 0.09121,1.78891l-0.00877,0.05919l0.01026,-0.00106l0.06422,3.17601c0.00088,0.03783 0.00131,0.07586 0.00131,0.11417c0,0.63866 -0.1223,1.21265 -0.3167,1.6083c-0.05828,2.63236 -0.16427,5.26261 -0.35428,7.90027z" fill="url(#color-1)" stroke="none" stroke-width="0.5" stroke-linecap="butt"/><g stroke="#000000" stroke-width="1" stroke-linecap="round"><g data-paper-data="{&quot;index&quot;:null}"><path d="M40.04924,33.70213c-4.18034,14.54918 -15.14515,15.56696 -19.77444,32.9616c-4.62929,17.39464 -1.26796,46.10559 -1.26796,46.10559c0,0 -12.21212,-30.07575 -12.14247,-45.6001c0.06965,-15.52435 10.75455,-28.33625 12.51633,-37.73013c1.76179,-9.39388 -1.49347,-27.81688 10.31531,-25.38124c11.80878,2.43564 14.53356,15.0951 10.35322,29.64428z" fill="url(#color-2)"/><path d="M41.22768,20.59184c0,0 -6.6244,-1.68938 -9.84489,-3.40717c-3.30023,-1.76033 -9.72313,-7.0303 -9.72313,-7.0303" fill="none"/><path d="M40.24933,32.5795c0,0 -9.77112,-4.03913 -13.50843,-6.29751c-2.75592,-1.66534 -6.88208,-6.02399 -6.88208,-6.02399" fill="none"/><path d="M35.54189,42.74421c0,0 -6.12105,-1.88963 -9.05732,-3.38344c-2.90433,-1.47757 -8.46554,-5.53122 -8.46554,-5.53122" fill="none"/><path d="M26.70515,53.33123c0,0 -4.57747,-1.32376 -6.82083,-2.57752c-2.31871,-1.29586 -6.87289,-5.07551 -6.87289,-5.07551" fill="none"/><path d="M19.71348,66.56368c0,0 -4.06304,-0.66213 -5.91574,-1.60749c-2.16762,-1.10606 -6.29413,-4.62277 -6.29413,-4.62277" fill="none"/><path d="M18.07378,79.01261c0,0 -2.88074,1.51507 -4.30326,1.72333c-1.54126,0.22564 -4.61667,-0.41745 -4.61667,-0.41745" fill="none"/><path d="M17.51772,95.12956c0,0 -1.46436,1.15329 -2.16485,1.40326c-0.74042,0.26421 -2.16453,0.14167 -2.16453,0.14167" fill="none"/></g><g><path d="M58.02353,5.05785c11.80878,-2.43565 8.55352,15.98737 10.31531,25.38125c1.76179,9.39388 12.44669,22.20577 12.51634,37.73012c0.06965,15.52435 -12.14247,45.6001 -12.14247,45.6001c0,0 3.36133,-28.71095 -1.26797,-46.10559c-4.62929,-17.39464 -15.5941,-18.41242 -19.77444,-32.9616c-4.18034,-14.54918 -1.45557,-27.20863 10.35322,-29.64428z" fill="url(#color-3)"/><path d="M66.05988,11.15437c0,0 -6.42291,5.26997 -9.72314,7.0303c-3.22049,1.71778 -9.84488,3.40717 -9.84488,3.40717" fill="none"/><path d="M67.86072,21.258c0,0 -4.12616,4.35865 -6.88208,6.02399c-3.73732,2.25838 -13.50842,6.29751 -13.50842,6.29751" fill="none"/><path d="M69.70053,34.82956c0,0 -5.56121,4.05365 -8.46555,5.53122c-2.93626,1.49381 -9.05731,3.38344 -9.05731,3.38344" fill="none"/><path d="M74.70811,46.6782c0,0 -4.55417,3.77965 -6.87288,5.07551c-2.24336,1.25375 -6.82083,2.57752 -6.82083,2.57752" fill="none"/><path d="M80.21594,61.33342c0,0 -4.12651,3.5167 -6.29413,4.62276c-1.85271,0.94537 -5.91575,1.6075 -5.91575,1.6075" fill="none"/><path d="M78.5657,81.31847c0,0 -3.07541,0.6431 -4.61667,0.41746c-1.42252,-0.20825 -4.30326,-1.72332 -4.30326,-1.72332" fill="none"/><path d="M74.5312,97.67449c0,0 -1.42411,0.12254 -2.16453,-0.14167c-0.70049,-0.24997 -2.16485,-1.40326 -2.16485,-1.40326" fill="none"/></g><g><path d="M45.51246,3.00211c16.24998,-0.43919 7.57089,23.24353 7.68698,36.1288c0.11608,12.88527 11.26717,32.41823 7.68698,53.04015c-3.5802,20.62192 -26.90442,57.65233 -26.90442,57.65233c0,0 11.25372,-37.31279 9.22437,-61.49582c-2.02935,-24.18303 -16.34214,-28.12791 -18.44875,-48.42795c-2.10661,-20.30005 4.50486,-36.45831 20.75484,-36.8975z" fill="url(#color-4)"/><path d="M54.73684,12.99517c0,0 -9.77184,5.47534 -14.56868,7.03107c-4.68093,1.51815 -13.87314,2.19331 -13.87314,2.19331" fill="none"/><path d="M54.73683,26.83174c0,0 -6.50779,4.80909 -10.55969,6.36752c-5.49481,2.11338 -19.41953,5.16296 -19.41953,5.16296" fill="none"/><path d="M53.96814,45.28048c0,0 -8.34036,4.06477 -12.54484,5.33886c-4.2507,1.2881 -12.82219,2.34812 -12.82219,2.34812" fill="none"/><path d="M57.81162,62.19184c0,0 -6.93889,3.93932 -10.32309,5.11077c-3.27422,1.13338 -9.66305,1.80751 -9.66305,1.80751" fill="none"/><path d="M61.65511,82.94668c0,0 -6.30906,3.69149 -9.4478,4.64676c-2.68273,0.81649 -8.23225,0.73412 -8.23225,0.73412" fill="none"/><path d="M54.73684,109.0824c0,0 -4.23412,0.12602 -6.22645,-0.53809c-1.83884,-0.61295 -5.30402,-3.3054 -5.30402,-3.3054" fill="none"/><path d="M45.51246,129.83724c0,0 -1.9192,-0.17425 -2.83945,-0.70011c-0.87062,-0.49749 -2.54143,-2.37468 -2.54143,-2.37468" fill="none"/></g></g><g stroke-linecap="butt"><path d="M139.63617,17.16524c0,2.59812 1.30103,5.18873 0.74354,8.08009c-0.07022,0.3642 -3.0032,3.53894 -3.25753,5.41801c-0.73263,5.41293 0.69268,12.8459 -0.2341,11.30805c-0.92486,-3.34655 -2.68746,-7.29718 -1.99545,-10.88624c0.33176,-1.72064 1.22755,-3.21068 1.79439,-4.88959c1.3257,-1.90207 -0.05228,-4.23873 -0.54182,-6.18577c-0.34495,-1.37198 -0.12648,-3.11476 -0.03977,-4.65268c-0.14174,0.03791 -0.21925,0.05812 -0.21925,0.05812c0,0 -0.69192,-0.33603 -1.67919,-0.6763c0.11243,2.15177 0.26153,4.46431 -0.34646,6.33441c-1.40166,4.08098 -1.72399,8.7092 -1.72439,13.08522c0.02488,1.19651 0.71996,3.7621 0.61803,6.51104c-0.17878,4.82146 -1.25217,10.2069 -1.54331,9.75849c-0.63957,-0.98508 -0.17457,-2.62212 -0.3281,-3.72925c-0.23272,-1.67826 -0.63603,-3.52801 -1.03883,-5.19578c-0.35441,-1.77496 -1.02855,-3.48678 -1.44438,-5.22295c-0.77838,-3.24989 0.80184,-6.51812 0.73663,-9.61488c0,-4.09922 0.08446,-8.2925 0.01217,-12.38191c-0.28217,0.10853 -0.5404,0.25687 -0.76547,0.45271c-2.37774,2.06901 -2.58786,6.28355 -3.33629,9.66741c-0.74843,3.38386 -0.66924,10.16589 -0.69039,14.26033c-0.03443,6.66406 0.6485,14.2222 0.53373,13.31254c-0.5712,-4.52744 -1.72053,-8.98069 -2.40326,-13.51725c-0.58006,-3.85854 -1.11729,-11.37158 -0.88955,-17.29535c0.11119,-2.89218 0.97595,-6.16715 1.00376,-6.98186c0.00679,-0.64445 0.02318,-1.2873 0.03939,-1.91665c0.01253,-1.38595 -0.00409,-2.7087 -0.00409,-3.84998c0,0 0,-0.00894 0.00119,-0.02443c-0.07467,-1.14506 -0.26019,-2.08915 -0.66722,-2.69822c0,0 -0.27735,-0.41603 0.13867,-0.69338c0.41602,-0.27735 0.69338,0.13868 0.69338,0.13868c0.56628,0.85133 3.55536,5.73527 9.13198,6.81786c4.39664,0.85352 11.6315,-1.88567 12.09995,-2.37128c2.65435,-2.75161 3.80743,-6.26203 4.22371,-6.40248c1.08585,-0.36636 1.77727,4.95516 -2.09686,8.45754c-0.94334,0.85282 -3.99156,1.91865 -6.52481,2.70023c0,0.94234 0,1.9537 0,2.82548z" fill="url(#color-5)" stroke="none" stroke-width="0.5"/><path d="M125.88335,57.24435c0.12662,1.02706 -0.05099,2.65116 -0.05099,2.65116c0,0 -0.56676,-1.53233 -0.69338,-2.55939c-0.12662,-1.02706 0.05098,-2.65116 0.05098,-2.65116c0,0 0.56676,1.53233 0.69338,2.55939z" fill="url(#color-6)" stroke="url(#color-7)" stroke-width="0"/><path d="M138.45097,46.04024c0,1.03484 -0.375,2.625 -0.375,2.625c0,0 -0.375,-1.59016 -0.375,-2.625c0,-1.03484 0.375,-2.625 0.375,-2.625c0,0 0.375,1.59016 0.375,2.625z" fill="url(#color-8)" stroke="url(#color-9)" stroke-width="0"/></g><path d="M218.7095,187.99833l-9.11217,-10.95844l-8.0997,10.34964l-22.27418,-6.08802l-2.53116,-10.34964l-7.08724,10.34964l-15.69317,-9.13204l-2.53116,-14.61126l-6.58101,10.34964c0,0 -8.124,-2.6187 -12.14955,-4.87042c-4.02555,-2.25172 -9.6184,-7.30563 -9.6184,-7.30563c0,0 14.14831,-25.36317 15.18694,-43.22496c1.03863,-17.8618 5.28997,-21.51996 5.06231,-43.83376c-0.22766,-22.3138 2.63794,-42.999 11.64332,-56.41347c9.00539,-13.41447 67.32878,-8.11957 67.32878,-8.11957c0,0 55.79223,-6.81359 64.79762,6.60088c9.00539,13.41447 10.85852,35.61837 10.63086,57.93217c-0.22766,22.31379 7.06107,25.97196 8.0997,43.83377c1.03863,17.8618 15.18694,43.22496 15.18694,43.22496c0,0 -5.59284,5.05391 -9.6184,7.30563c-4.02555,2.25172 -12.14955,4.87042 -12.14955,4.87042l-6.58101,-10.34964l-2.53116,14.61126l-15.69317,9.13204l-7.08724,-10.34964l-2.53116,10.34964l-22.27418,6.08802l-8.0997,-10.34964l-9.11217,10.95844z" data-paper-data="{&quot;index&quot;:null}" fill="#0d0d0d" stroke="#000000" stroke-width="1" stroke-linecap="round"/><path d="M288.858,15.79782c0,0 4.90063,15.73734 3.87267,25.31157c-1.02796,9.57424 -8.17562,22.78041 -8.17562,22.78041c0,0 -4.07003,-3.38491 -6.45444,-9.11217c-2.3844,-5.72726 -3.87267,-15.69317 -3.87267,-15.69317l-6.88473,8.0997c0,0 -5.81289,-1.53917 -8.83991,-2.69656c-2.66365,-1.01846 -8.37192,-3.88445 -8.37192,-3.88445l-5.59385,-9.11217l-5.59385,8.60593c0,0 -5.59449,0.38848 -8.1919,0.31742l-8.87819,-0.82365c0,0 -6.94302,0.73151 -10.31082,0.82365c-2.59742,0.07106 -8.1919,-0.31742 -8.1919,-0.31742l-5.59384,-8.60593l-5.59385,9.11217c0,0 -5.70827,2.86599 -8.37191,3.88445c-3.02703,1.1574 -8.83991,2.69656 -8.83991,2.69656l-6.88473,-8.0997c0,0 -1.48825,9.96591 -3.87266,15.69317c-2.38441,5.72726 -6.45444,9.11217 -6.45444,9.11217c0,0 -7.14765,-13.20618 -8.17562,-22.78041c-1.02796,-9.57423 3.87267,-25.31157 3.87267,-25.31157" data-paper-data="{&quot;index&quot;:null}" fill="#0d0d0d" stroke="#000000" stroke-width="1" stroke-linecap="round"/><path d="M113.61147,74.29686c0,0.39342 -0.06301,0.75719 -0.16976,1.05239l-0.21156,0.60081c-0.01427,5.06285 -0.03365,10.13253 0.03525,15.18569c0.07305,5.36 0.58531,11.65983 0.21002,16.96603v4.37166c0,1.2072 -0.39651,2.18584 -0.88562,2.18584c-0.39005,0 -0.7212,-0.62237 -0.83933,-1.48674l-0.46529,-3.15799l0.02544,-0.02282l-0.04834,-0.15642c-0.20547,-2.80842 -0.40117,-5.62133 -0.58829,-8.43754l-0.00003,-0.00009c-0.1764,-2.66771 -0.2748,-5.32792 -0.32892,-7.99026c-0.05809,-0.12879 -0.10927,-0.27626 -0.15192,-0.43859l-0.01853,0.12147c-0.10504,0.75035 -0.44688,1.30024 -0.85234,1.30024c-0.38064,0 -0.70519,-0.48462 -0.83041,-1.1648c-0.08231,0.0624 -0.16974,0.09597 -0.26034,0.09597c-0.02584,0 -0.05143,-0.00273 -0.07673,-0.00809c-0.0506,0.77727 -0.05143,1.61321 -0.28124,2.22246c-0.25745,0.68254 -0.5882,1.70744 -0.95286,2.19914c0.06627,4.90847 0.16716,9.81045 0.17828,14.73201l-0.00097,0.00612h0.00097v2.62301c0,1.2072 -0.39651,2.18584 -0.88562,2.18584c-0.40992,0 -0.75479,-0.68734 -0.85571,-1.62052l-0.49042,-4.15007c-0.27357,-1.31149 -0.41824,-3.78923 -0.49972,-5.70035c-0.04014,0.01124 -0.08111,0.01704 -0.12276,0.01704c-0.48911,0 -0.88565,-0.80014 -0.88565,-1.78715v-2.38285h0.02224l-0.02064,-0.10748c0.06467,-1.0905 0.13406,-2.17231 0.2085,-3.25013c-0.18769,-0.08698 -0.35448,-0.32008 -0.48028,-0.64961c-0.07062,0.14949 -0.14235,0.29045 -0.21519,0.42169c-0.63397,1.14226 -1.30903,2.68424 -2.15848,2.73886c-0.03502,0.00225 -0.0695,0.00053 -0.10344,-0.00502c-0.22574,0.57304 -0.48914,0.98421 -0.82867,0.97004c-0.74075,-0.03094 -1.1276,-1.82219 -1.61148,-3.06892c-0.11287,0.12947 -0.23455,0.20577 -0.36763,0.21258c-0.08165,0.00417 -0.15893,-0.02174 -0.23232,-0.07329l-0.12908,0.40933c-0.15578,0.51175 -0.4357,0.85306 -0.75516,0.85306c-0.48911,0 -0.88562,-0.80014 -0.88562,-1.78715v-1.59679c-0.08708,-0.15151 -0.17248,-0.31426 -0.25645,-0.48409c-0.12073,0.77955 -0.25039,1.4758 -0.39228,2.00385c-0.01392,0.05173 -0.02825,0.1029 -0.04303,0.15346l0.00786,0.00793l-0.46375,1.87167c-0.08823,0.37562 -0.23944,0.67924 -0.42613,0.85533v0.55637c0,1.18757 -0.3837,2.15394 -0.86183,2.18506c-0.02264,0.67069 -0.04786,1.34064 -0.07648,2.00961c-0.05875,1.37421 -0.19015,4.69867 -0.56982,6.18674l-0.49045,3.39313c-0.10092,0.76297 -0.4458,1.32496 -0.85571,1.32496c-0.48911,0 -0.88559,-0.80014 -0.88559,-1.78715v-2.14459h0.00097l-0.00097,-0.005c0.01244,-4.49634 0.13697,-8.97268 0.20001,-13.45877c-0.0076,0.00037 -0.01521,0.00057 -0.02284,0.00057c-0.48911,0 -0.88565,-0.80014 -0.88565,-1.78715v-0.62595c-0.12594,0.13888 -0.27043,0.21781 -0.42404,0.21781c-0.37241,0 -0.69118,-0.46393 -0.82203,-1.12102l-0.68967,-3.24742l0.01695,-0.0147l-0.04223,-0.11874c-0.07756,-0.6221 -0.17657,-1.3225 -0.28138,-2.06586c-0.04814,0.03825 -0.09841,0.06825 -0.15027,0.08907c0.01255,0.32653 0.01695,0.65097 0.00223,0.97077c0.03153,0.48927 0.05984,0.9821 0.08465,1.47929l-0.00815,0.04894l0.00955,-0.00089l0.05964,2.62629c0.0008,0.03128 0.00123,0.06272 0.00123,0.09441c0,0.52812 -0.11353,1.00276 -0.29404,1.32993c-0.05412,2.17674 -0.1525,4.35175 -0.32892,6.53287l-0.00003,0.00007c-0.18712,2.30256 -0.38281,4.6024 -0.58829,6.89859l-0.04834,0.12789l0.02544,0.01867l-0.46529,2.58201c-0.11813,0.70671 -0.44928,1.21557 -0.83933,1.21557c-0.48911,0 -0.88562,-0.80014 -0.88562,-1.78715v-3.57429c-0.37529,-4.33838 0.13694,-9.48915 0.21002,-13.87152c0.01264,-0.7584 0.02233,-1.51726 0.02959,-2.27647c-0.14858,-0.23076 -0.23961,-0.54117 -0.23961,-0.88253v-2.58041c-0.37201,-3.10456 0.12802,-6.78539 0.20799,-9.931c-0.06924,-0.6409 -0.10841,-1.14606 -0.08908,-1.35786c0.00903,-0.09895 0.02024,-0.19632 0.03336,-0.29227l-0.02733,-0.00688l0.11659,-1.88277c0.00343,-0.0627 0.00846,-0.12441 0.01501,-0.18497c0.01046,-2.49377 -0.01409,-4.99043 -0.01938,-7.48197c-0.08691,-0.55146 -0.14012,-0.99659 -0.11825,-1.16984c0.00903,-0.07143 0.02024,-0.14174 0.03336,-0.211l-0.02733,-0.00498l0.01552,-0.18089l-0.10675,-0.37081c-0.10672,-0.36106 -0.16976,-0.80596 -0.16976,-1.28716c0,-1.2072 0.39651,-2.18582 0.88562,-2.18582c0.24347,0 0.46401,0.2425 0.62411,0.63498l0.22443,0.54986c0.03737,-0.00699 0.07545,-0.01062 0.1141,-0.01062c0.17188,0 0.3323,0.07132 0.46812,0.19476l1.50635,1.3167c0.36332,0.1691 1.87021,1.02606 2.03266,1.17007c0.96069,0.85155 1.94475,2.43699 2.97008,3.10974c0.55258,0.36255 1.10004,0.66417 1.64596,0.91484c0.53871,-0.1264 1.05738,0.32604 1.58669,0.59453c1.7323,0.51152 3.48558,0.60918 5.37695,0.61256c0.6141,0.00108 1.13174,0.04144 1.6443,0.0086c1.03623,-0.2797 1.99812,-0.69896 2.91853,-1.253c1.83542,-1.41393 3.36327,-3.66623 4.88232,-5.66653l1.24585,-1.80173c0.1601,-0.23166 0.38064,-0.3748 0.62411,-0.3748c0.48911,0 0.88559,0.57763 0.88559,1.29019c0,0.28403 -0.06301,0.54663 -0.16976,0.75975l-0.51155,1.04883c0.16588,0.35141 0.27846,0.85171 0.30374,1.41696l0.11662,2.30279l-0.02736,0.00844c0.01312,0.11732 0.02433,0.23643 0.03336,0.35746c0.0219,0.2935 -0.03131,1.04762 -0.11825,1.98191c-0.00023,0.1824 -0.00049,0.3648 -0.0008,0.54722c0.22631,0.32375 0.37401,0.85653 0.37401,1.45892z" fill="url(#color-10)" stroke="none" stroke-width="0.5" stroke-linecap="butt"/><path d="M64.90543,184.8704c12.06481,15.49064 11.13597,32.71636 0.93155,50.30272c-10.20443,17.58635 -39.2625,13.15903 -44.71355,25.15135c-5.45104,11.99232 21.42524,26.08289 21.42524,26.08289c0,0 -35.72838,-11.05129 -49.76666,-18.85032c-13.90643,-7.72581 -34.0712,-27.72625 -34.0712,-27.72625l8.38379,30.74055c0,0 -30.83073,-17.86314 -41.62724,-28.20982c-11.51404,-11.03429 -25.44304,-36.06587 -25.44304,-36.06587l4.65766,19.56217c0,0 -17.24098,-10.72029 -23.75405,-17.23333c-6.20274,-6.20274 -14.43875,-20.95947 -14.43875,-20.95947c0,0 -23.11289,10.22091 -32.64237,18.23119c-11.51702,9.68095 -31.63334,35.79765 -31.63334,35.79765c0,0 14.79264,-97.42092 39.12434,-127.61986c24.3317,-30.19893 58.34405,-33.06801 92.22165,-35.39821c33.8776,-2.33023 83.83786,23.28828 83.83786,23.28828c0,0 -50.50083,11.14552 -27.01442,36.32973c23.4864,25.18421 62.45773,31.08596 74.52255,46.57659z" fill="#000000" stroke="#000000" stroke-width="0.5" stroke-linecap="round"/><path d="M89.06629,201.0882c1.433,-1.07285 2.0863,0.79874 2.58102,2.78097c1.97973,7.92906 3.85572,22.45525 4.08161,30.46414c0.05471,2.1217 -1.16128,4.27684 -2.6335,5.86352c-0.98911,1.06361 -2.65433,1.84523 -4.29543,1.8129c-1.64105,-0.03232 -3.19341,-0.89023 -4.11398,-1.9785c-1.27979,-1.51403 -2.19699,-3.55104 -2.16934,-5.51161c0.17513,-5.28425 1.868,-16.80084 2.79886,-20.54665c0.88268,-3.55185 2.48775,-11.93918 3.75074,-12.88479z" data-paper-data="{&quot;origRot&quot;:0,&quot;index&quot;:null}" fill="url(#color-11)" stroke="#000000" stroke-width="1" stroke-linecap="butt"/><g stroke="#000000" stroke-width="1"><g fill="#e6e6e6" stroke-linecap="round"><path d="M110.02345,242.00558c0.23939,2.37053 -1.2262,3.91084 -1.32606,6.11328c-0.09987,2.20243 0.80052,5.47714 0.80052,5.47714c0,0 -2.4786,-3.08904 -2.78129,-5.58007c-0.30268,-2.49105 0.88085,-5.67975 1.31684,-6.47215c0.43598,-0.7924 1.75066,-1.90874 1.99002,0.46179z"/><path d="M110.51056,243.63366c0.43599,-0.7924 1.75065,-1.90874 1.99002,0.46179c0.23938,2.37053 -1.22621,3.91086 -1.32606,6.11328c-0.09987,2.20243 0.80052,5.47714 0.80052,5.47714c0,0 -2.4786,-3.08903 -2.7813,-5.58007c-0.30268,-2.49104 0.88085,-5.67974 1.31683,-6.47214z"/><path d="M112.54041,245.07616c0.43599,-0.7924 1.75065,-1.90873 1.99002,0.46179c0.23938,2.37053 -1.22621,3.91085 -1.32608,6.11328c-0.09987,2.20243 0.80052,5.47714 0.80052,5.47714c0,0 -2.4786,-3.08902 -2.7813,-5.58007c-0.30268,-2.49104 0.88086,-5.67974 1.31684,-6.47215z"/><path d="M114.77274,246.02212c0.43598,-0.7924 1.75065,-1.90874 1.99002,0.46179c0.23938,2.37053 -1.22621,3.91085 -1.32607,6.11329c-0.09987,2.20243 0.80052,5.47714 0.80052,5.47714c0,0 -2.4786,-3.08903 -2.7813,-5.58007c-0.30268,-2.49104 0.88085,-5.67974 1.31682,-6.47214z"/><path d="M120.16994,242.55988c0.47378,0.67431 1.81322,3.53548 1.64048,6.08823c-0.17272,2.55277 -2.47613,6.26259 -2.47613,6.26259c0,0 0.72617,-3.48587 0.51384,-5.64778c-0.21232,-2.1619 -1.74725,-3.3127 -1.63123,-5.72937c0.11602,-2.41667 1.47927,-1.64797 1.95304,-0.97367z" data-paper-data="{&quot;index&quot;:null}"/></g><path d="M113.87706,206.357c1.433,-1.07285 2.08629,0.79874 2.58102,2.78097c1.97972,7.92906 3.85572,22.45525 4.08161,30.46414c0.05471,2.1217 -1.16128,4.27684 -2.6335,5.86352c-0.98912,1.06361 -2.65433,1.84523 -4.29543,1.8129c-1.64105,-0.03232 -3.19341,-0.89023 -4.11398,-1.9785c-1.27979,-1.51403 -2.19699,-3.55104 -2.16933,-5.51161c0.17513,-5.28425 1.868,-16.80084 2.79886,-20.54665c0.88268,-3.55185 2.48775,-11.93918 3.75074,-12.88479z" data-paper-data="{&quot;origRot&quot;:0,&quot;index&quot;:null}" fill="url(#color-12)" stroke-linecap="butt"/></g><g stroke="#000000" stroke-width="1"><g fill="#e6e6e6" stroke-linecap="round"><path d="M129.17075,260.1473c0.53017,3.38988 -1.17954,5.72918 -1.09535,8.90584c0.0842,3.17665 1.53847,7.8115 1.53847,7.8115c0,0 -3.43631,-4.23471 -4.05823,-7.7926c-0.6219,-3.55791 0.57267,-8.24468 1.0493,-9.4213c0.47661,-1.17663 2.03568,-2.89332 2.56582,0.49656z"/><path d="M129.94377,262.44824c0.47662,-1.17663 2.03567,-2.89331 2.56582,0.49656c0.53016,3.38987 -1.17955,5.7292 -1.09535,8.90584c0.0842,3.17665 1.53847,7.8115 1.53847,7.8115c0,0 -3.43631,-4.23471 -4.05825,-7.79259c-0.6219,-3.55789 0.57268,-8.24466 1.04929,-9.42128z"/><path d="M132.6539,264.35224c0.47662,-1.17663 2.03567,-2.89331 2.56582,0.49656c0.53016,3.38987 -1.17956,5.72919 -1.09536,8.90584c0.0842,3.17665 1.53847,7.8115 1.53847,7.8115c0,0 -3.43632,-4.2347 -4.05824,-7.7926c-0.6219,-3.5579 0.57269,-8.24466 1.0493,-9.42129z"/><path d="M135.57308,265.52486c0.47662,-1.17663 2.03567,-2.89331 2.56582,0.49656c0.53016,3.38987 -1.17955,5.72919 -1.09535,8.90585c0.0842,3.17665 1.53847,7.8115 1.53847,7.8115c0,0 -3.43632,-4.2347 -4.05824,-7.7926c-0.6219,-3.55789 0.57268,-8.24466 1.04929,-9.42128z"/><path d="M142.08079,260.08944c0.66486,0.93007 2.63589,4.93302 2.66129,8.61977c0.02541,3.68677 -2.53835,9.21756 -2.53835,9.21756c0,0 0.58661,-5.0757 0.11069,-8.16775c-0.47591,-3.09204 -2.531,-4.6181 -2.61524,-8.10432c-0.08423,-3.48621 1.71675,-2.49532 2.38159,-1.56526z" data-paper-data="{&quot;index&quot;:null}"/></g><path d="M133.26174,206.66666c1.433,-1.07285 2.0863,0.79874 2.58102,2.78097c1.97972,7.92906 4.765,43.36852 4.99088,51.37741c0.05471,2.1217 -1.16128,4.27684 -2.6335,5.86352c-0.98912,1.06362 -2.65433,1.84523 -4.29543,1.8129c-1.64105,-0.03232 -3.19341,-0.89023 -4.11398,-1.9785c-1.27979,-1.51403 -2.19699,-3.55104 -2.16934,-5.51161c0.17513,-5.28425 4.37734,-53.3991 5.64033,-54.34471z" data-paper-data="{&quot;origRot&quot;:0,&quot;index&quot;:null}" fill="url(#color-13)" stroke-linecap="butt"/></g><g stroke="#000000" stroke-width="1"><path d="M180.64618,208.9547c1.433,-1.07285 2.0863,0.79874 2.58102,2.78097c0.76654,3.0701 -4.68857,32.97105 -3.29107,47.19884c2.21179,22.51791 9.96207,51.55385 10.10049,56.46173c0.05471,2.1217 -1.16128,4.27684 -2.6335,5.86352c-0.98912,1.06362 -2.65433,1.84523 -4.29543,1.8129c-1.64105,-0.03232 -3.19341,-0.89023 -4.11398,-1.9785c-1.27979,-1.51403 -2.19699,-3.55104 -2.16934,-5.51161c0.08899,-2.68533 -5.9688,-35.45864 -5.52248,-56.88496c0.43195,-20.73688 8.7231,-49.27784 9.34427,-49.74292z" data-paper-data="{&quot;origRot&quot;:0,&quot;index&quot;:null}" fill="url(#color-14)" stroke-linecap="butt"/><g fill="#e6e6e6" stroke-linecap="round"><path d="M178.65171,317.26403c1.3837,3.69062 0.33274,6.86459 1.23065,10.44775c0.89791,3.58315 3.49467,8.40881 3.49467,8.40881c0,0 -4.40935,-3.77224 -5.92491,-7.626c-1.51554,-3.85379 -1.56581,-9.53877 -1.40764,-11.01938c0.15815,-1.48063 1.22357,-3.90182 2.60725,-0.21117z"/><path d="M179.99021,319.64428c0.15816,-1.48063 1.22356,-3.90179 2.60725,-0.21117c1.38369,3.69061 0.33273,6.86462 1.23065,10.44775c0.89791,3.58315 3.49467,8.40881 3.49467,8.40881c0,0 -4.40935,-3.77224 -5.92493,-7.62599c-1.51553,-3.85377 -1.5658,-9.53874 -1.40764,-11.01936z"/><path d="M183.09868,320.98831c0.15816,-1.48063 1.22356,-3.90179 2.60725,-0.21117c1.38369,3.69061 0.33272,6.86461 1.23063,10.44776c0.89791,3.58315 3.49467,8.40881 3.49467,8.40881c0,0 -4.40936,-3.77224 -5.92492,-7.626c-1.51554,-3.85378 -1.56579,-9.53874 -1.40764,-11.01937z"/><path d="M186.2212,321.43833c0.15816,-1.48063 1.22356,-3.90179 2.60725,-0.21117c1.38369,3.69061 0.33273,6.86461 1.23065,10.44776c0.89791,3.58315 3.49467,8.40881 3.49467,8.40881c0,0 -4.40936,-3.77224 -5.92492,-7.626c-1.51553,-3.85377 -1.5658,-9.53874 -1.40764,-11.01936z"/><path d="M191.1131,313.29757c0.88159,0.85564 3.81533,4.80735 4.78752,8.98772c0.97222,4.1804 -0.08375,11.23785 -0.08375,11.23785c0,0 -0.73777,-5.9431 -1.9925,-9.31179c-1.25471,-3.36868 -3.63301,-4.48131 -4.61053,-8.4161c-0.9775,-3.93479 1.01767,-3.35332 1.89923,-2.49768z" data-paper-data="{&quot;index&quot;:null}"/></g></g><g stroke="#000000" stroke-width="1"><path d="M252.84911,301.93972c0.82027,5.20742 -2.85837,12.4377 -4.65462,15.32789c-1.20689,1.93808 -9.27261,7.9875 -11.61283,8.57864c-2.34009,0.59109 -8.05167,4.51616 -9.5655,3.28485c-2.10456,-1.71353 -12.62636,-2.62448 -13.02135,-5.45659c-0.15038,-1.09474 -14.21026,-11.38987 -14.11506,-16.1052c0.0561,-2.77995 14.21405,0.92458 14.30997,-2.64565c0.09436,-3.51207 -10.08477,-18.5431 -9.98436,-22.48659c0.09988,-3.92214 10.47936,3.24468 10.55351,-0.7781c0.03887,-2.10911 -11.53806,-15.3558 -11.01369,-21.06858c0.54464,-5.93345 11.42887,-1.19668 11.43522,-3.25001c0.07656,-24.77865 22.29836,-47.38384 24.45389,-48.61874c1.68054,-0.96279 2.94457,-0.1586 2.90801,4.20394c-0.01305,1.55655 -0.73447,4.61663 -2.09534,5.82946c-3.46878,3.09146 -13.69628,24.67846 -10.74958,48.2417c2.38066,19.03689 22.00728,30.17274 22.68106,34.4497z" fill="url(#color-15)" stroke-linecap="butt"/><g fill="#e6e6e6" stroke-linecap="round"><path d="M217.60009,322.60199c1.2602,3.27374 -0.51556,6.27656 0.13948,9.49221c0.65503,3.21565 8.02517,10.26037 8.02517,10.26037c0,0 -9.82734,-5.92569 -11.23343,-9.33819c-1.40611,-3.41252 -0.69165,-8.62935 -0.28704,-10.00237c0.40459,-1.37303 2.09568,-3.68571 3.35584,-0.41198z"/><path d="M220.23022,324.13788c0.4046,-1.37304 2.09565,-3.68568 3.35584,-0.41198c1.26018,3.27372 -0.51554,6.27655 0.13948,9.49221c0.65503,3.21565 9.01189,9.95872 9.01189,9.95872c0,0 -10.81408,-5.62401 -12.22017,-9.03654c-1.40607,-3.41254 -0.69163,-8.62936 -0.28706,-10.00237z"/><path d="M227.37616,326.09851c0.4046,-1.37304 2.09567,-3.68569 3.35584,-0.41198c1.26018,3.27372 -0.51556,6.27656 0.13948,9.49221c0.65503,3.21565 9.4665,7.9003 9.4665,7.9003c0,0 -11.26869,-3.56561 -12.67479,-6.97813c-1.40607,-3.41254 -0.69163,-8.62936 -0.28706,-10.00237z"/><path d="M234.57277,324.1429c0.4046,-1.37304 2.09567,-3.68569 3.35584,-0.41198c1.26019,3.27371 -0.51556,6.27654 0.13948,9.4922c0.65503,3.21565 10.61422,6.06341 10.61422,6.06341c0,0 -12.41639,-1.72874 -13.8225,-5.14125c-1.40607,-3.41254 -0.69164,-8.62934 -0.28706,-10.00237z"/><path d="M254.76614,301.32453c1.00776,0.71208 4.21005,4.09595 4.8781,7.85382c0.66805,3.75793 -5.1144,13.80285 -5.1144,13.80285c0,0 3.34098,-8.8715 2.20127,-11.86032c-1.13971,-2.98883 -4.02209,-3.81177 -4.73054,-7.34368c-0.70843,-3.53193 1.75782,-3.16478 2.76556,-2.45271z" data-paper-data="{&quot;index&quot;:null}"/></g></g><g stroke="#000000" stroke-width="1"><g data-paper-data="{&quot;index&quot;:null,&quot;origRot&quot;:0}" stroke-linecap="butt"><path d="M305.2084,229.70368c-0.52222,-2.72791 0.06772,-5.19882 1.44363,-6.98619c1.37574,-1.78748 3.53762,-2.89111 6.15647,-2.88689c2.61872,0.00409 5.2045,1.11539 7.26558,2.90825c2.0612,1.79284 3.59757,4.26722 4.11976,6.99515c0.52205,2.72778 -0.06793,5.19894 -1.44382,6.98627c-1.37572,1.7872 -3.53779,2.891 -6.15647,2.88689c-2.61872,-0.00409 -5.2045,-1.11554 -7.26554,-2.90838c-2.06124,-1.79271 -3.59755,-4.2671 -4.1196,-6.99515z" fill="url(#color-16)"/><path d="M309.72664,230.01979c-0.29424,-1.53746 0.03826,-2.93027 0.81374,-3.93767c0.7755,-1.00742 1.99397,-1.62945 3.46999,-1.62714c1.47617,0.00233 2.93357,0.62865 4.09526,1.63921c1.1617,1.01054 2.02772,2.40516 2.32195,3.94273c0.29424,1.53759 -0.03826,2.93027 -0.81376,3.93769c-0.7755,1.00742 -1.99397,1.62949 -3.46999,1.62716c-1.47599,-0.00233 -2.93355,-0.62869 -4.09523,-1.63909c-1.1617,-1.01054 -2.02772,-2.40527 -2.32196,-3.94289z" fill="url(#color-17)"/></g><g data-paper-data="{&quot;index&quot;:null,&quot;origRot&quot;:0}" stroke-linecap="butt"><path d="M319.85933,253.79271c0.42487,-2.74476 1.81086,-4.87372 3.70739,-6.09476c1.89642,-1.22121 4.30344,-1.53415 6.76857,-0.65011c2.46505,0.88388 4.527,2.7995 5.86572,5.18073c1.33884,2.38125 1.95434,5.22803 1.52943,7.97279c-0.42498,2.74458 -1.81109,4.87376 -3.70759,6.09477c-1.89631,1.22094 -4.30357,1.53399 -6.76858,0.6501c-2.46505,-0.88388 -4.52695,-2.79964 -5.86563,-5.18083c-1.33892,-2.38114 -1.95437,-5.22791 -1.52928,-7.97274z" fill="url(#color-18)"/><path d="M324.00858,255.60879c0.23954,-1.54693 1.02076,-2.74699 2.08967,-3.4352c1.06894,-0.68822 2.42558,-0.86461 3.81499,-0.36642c1.38954,0.49826 2.55171,1.57792 3.30624,2.92009c0.75454,1.34216 1.10154,2.94671 0.86194,4.49373c-0.23958,1.54705 -1.02076,2.747 -2.0897,3.43522c-1.06894,0.68822 -2.4256,0.86465 -3.815,0.36644c-1.38937,-0.4982 -2.55167,-1.57795 -3.30624,-2.91997c-0.75454,-1.34216 -1.1015,-2.94682 -0.86191,-4.49388z" fill="url(#color-19)"/></g><g data-paper-data="{&quot;index&quot;:null,&quot;origRot&quot;:0}" stroke-linecap="butt"><path d="M328.26705,278.70538c1.91626,-2.01051 4.26983,-2.96665 6.52399,-2.8859c2.25417,0.08054 4.40879,1.19826 5.92753,3.33176c1.51877,2.13332 2.11742,4.88339 1.85648,7.60263c-0.26085,2.71934 -1.38134,5.40774 -3.29764,7.41824c-1.91625,2.0103 -4.27003,2.96654 -6.52417,2.88579c-2.25392,-0.08069 -4.4088,-1.19847 -5.92753,-3.33177c-1.51877,-2.13332 -2.1173,-4.88348 -1.85635,-7.60267c0.26072,-2.71929 1.38125,-5.40765 3.29774,-7.4181z" fill="url(#color-20)"/><path d="M330.636,282.56576c1.08006,-1.13306 2.4067,-1.67205 3.67719,-1.62655c1.27052,0.0455 2.48491,0.67546 3.34095,1.87789c0.85612,1.20257 1.19355,2.75254 1.04645,4.28523c-0.14708,1.53267 -0.77857,3.048 -1.85873,4.18112c-1.08017,1.13314 -2.4067,1.67205 -3.67722,1.62655c-1.27052,-0.0455 -2.48494,-0.67544 -3.34097,-1.87788c-0.85601,-1.20241 -1.1935,-2.75255 -1.04652,-4.28513c0.14708,-1.53267 0.77866,-3.04806 1.85885,-4.18122z" fill="url(#color-21)"/></g><g data-paper-data="{&quot;index&quot;:null,&quot;origRot&quot;:0}" stroke-linecap="butt"><path d="M317.18066,304.62878c2.48045,-1.24962 5.01845,-1.35924 7.11439,-0.52567c2.09601,0.83337 3.74971,2.61016 4.46316,5.12995c0.71354,2.51964 0.35321,5.31095 -0.80636,7.78436c-1.15952,2.47353 -3.11829,4.62904 -5.59876,5.87864c-2.48037,1.24943 -5.01862,1.35906 -7.11452,0.5255c-2.09573,-0.83343 -3.74965,-2.61035 -4.46316,-5.12996c-0.71354,-2.51964 -0.35307,-5.31099 0.8065,-7.78435c1.15939,-2.47353 3.11817,-4.62899 5.59882,-5.87847z" fill="url(#color-22)"/><path d="M318.11455,309.06073c1.39802,-0.70421 2.82863,-0.76603 4.00995,-0.29623c1.18135,0.46981 2.1134,1.47124 2.51558,2.89141c0.4022,1.42033 0.19914,2.99356 -0.45447,4.38767c-0.65359,1.39411 -1.75759,2.60909 -3.15571,3.31333c-1.39814,0.70425 -2.82863,0.76603 -4.00996,0.29622c-1.18135,-0.46981 -2.11344,-1.47123 -2.5156,-2.89141c-0.40214,-1.42015 -0.19909,-2.99354 0.45437,-4.3876c0.65359,-1.39411 1.75769,-2.60913 3.15585,-3.31338z" fill="url(#color-23)"/></g><g data-paper-data="{&quot;index&quot;:null,&quot;origRot&quot;:0}" stroke-linecap="butt"><path d="M292.65247,332.47821c1.41232,-2.39156 3.48891,-3.85483 5.70302,-4.28561c2.21405,-0.43097 4.56553,0.17091 6.52713,1.90598c1.96159,1.7349 3.16625,4.27853 3.52659,6.9864c0.36044,2.70793 -0.12349,5.58001 -1.53585,7.97156c-1.41236,2.39134 -3.48915,3.8548 -5.70321,4.28555c-2.21385,0.43077 -4.56558,-0.17111 -6.52713,-1.906c-1.96159,-1.7349 -3.16615,-4.27863 -3.52647,-6.98646c-0.36056,-2.70787 0.12342,-5.57991 1.53599,-7.97145z" fill="url(#color-24)"/><path d="M295.83254,335.70335c0.79606,-1.34783 1.96657,-2.17269 3.21448,-2.41549c1.24793,-0.2428 2.57327,0.09641 3.67891,1.07428c1.10573,0.97798 1.78472,2.4116 1.9878,3.93788c0.20309,1.52626 -0.0696,3.1451 -0.86575,4.49301c-0.79614,1.34794 -1.96657,2.17269 -3.2145,2.41549c-1.24793,0.2428 -2.5733,-0.09639 -3.67893,-1.07427c-1.10559,-0.97785 -1.78468,-2.41162 -1.98784,-3.93776c-0.20309,-1.52626 0.06968,-3.14518 0.86584,-4.49313z" fill="url(#color-25)"/></g><g data-paper-data="{&quot;index&quot;:null,&quot;origRot&quot;:0}" stroke-linecap="butt"><path d="M306.14779,367.43502c-1.6573,-2.2288 -2.20144,-4.7102 -1.74047,-6.91822c0.46076,-2.20804 1.92692,-4.14249 4.28663,-5.27835c2.35953,-1.13593 5.17124,-1.26064 7.80713,-0.54339c2.636,0.71719 5.09606,2.27637 6.75334,4.50521c1.65709,2.22875 2.20131,4.7104 1.74034,6.91837c-0.46088,2.20778 -1.92714,4.14245 -4.28665,5.27834c-2.35953,1.13593 -5.1713,1.26052 -7.80714,0.54325c-2.63597,-0.71705 -5.09599,-2.27627 -6.75318,-4.5053z" fill="url(#color-26)"/><path d="M310.35333,365.75338c-0.93399,-1.2562 -1.24074,-2.6549 -0.98093,-3.89938c0.25982,-1.2445 1.08615,-2.3348 2.41608,-2.97506c1.33007,-0.6403 2.91479,-0.71062 4.4005,-0.30632c1.48569,0.40429 2.87233,1.28306 3.80634,2.53936c0.93405,1.25632 1.24075,2.6549 0.98093,3.89941c-0.25982,1.2445 -1.08614,2.33484 -2.41608,2.97507c-1.3299,0.64022 -2.9148,0.71058 -4.40042,0.30641c-1.48569,-0.40429 -2.87237,-1.28315 -3.80642,-2.53949z" fill="url(#color-27)"/></g><path d="M323.52237,243.2522c12.9163,21.79489 15.05723,35.21782 9.08556,52.04863c-6.64091,18.71703 -25.36449,25.70971 -30.33483,32.70082c-8.32267,11.70641 -4.4849,22.51099 -2.55276,27.1409c3.09662,7.42035 9.88418,12.03769 13.46168,13.06762c5.12333,1.47496 19.64154,-2.86979 24.08623,-6.9352c4.44469,-4.06541 6.57439,-11.79566 6.57439,-11.79566c0,0 7.32132,7.27116 -0.12923,17.59889c-5.83473,8.08792 -18.81164,14.96877 -24.87489,15.75404c-13.80559,1.788 -30.66957,-1.92622 -38.84936,-14.55015c-8.1798,-12.62393 -9.82078,-40.62335 -6.10264,-51.63702c3.71814,-11.01367 34.93665,-29.98271 33.33921,-46.61442c-2.31376,-24.08967 -35.71789,-48.48344 -23.93604,-57.94911c11.78184,-9.46567 27.31638,9.37577 40.23268,31.17066z" fill="#404040" stroke-linecap="round"/></g><g data-paper-data="{&quot;index&quot;:null}" stroke="#000000" stroke-width="1"><g data-paper-data="{&quot;index&quot;:null,&quot;origRot&quot;:0}" stroke-linecap="butt"><path d="M351.71043,252.70252c1.68422,0.11412 3.31723,0.70942 4.59439,1.57944c1.27722,0.86994 2.19874,2.01449 2.46089,3.22601c0.26215,1.21152 -0.18391,2.26348 -1.11692,2.98353c-0.93307,0.72013 -2.3533,1.10853 -4.03732,0.99441c-1.68416,-0.11423 -3.31718,-0.70951 -4.59442,-1.57952c-1.27721,-0.86992 -2.19867,-2.01449 -2.46081,-3.22601c-0.26224,-1.2116 0.18374,-2.26347 1.11692,-2.98353c0.93308,-0.72012 2.35315,-1.10851 4.03728,-0.99431z" fill="url(#color-28)"/><path d="M352.34771,254.77838c0.94928,0.06435 1.86974,0.39991 2.58966,0.89023c0.71983,0.49034 1.23918,1.13551 1.38693,1.81835c0.14779,0.68285 -0.10363,1.27571 -0.62952,1.68161c-0.5259,0.4059 -1.32628,0.6248 -2.27555,0.56047c-0.94926,-0.06434 -1.86966,-0.39992 -2.58958,-0.89024c-0.71989,-0.49033 -1.23925,-1.13543 -1.38703,-1.81835c-0.14778,-0.68285 0.10363,-1.2757 0.62952,-1.68159c0.52589,-0.4059 1.32636,-0.62482 2.27555,-0.56048z" fill="url(#color-29)"/></g><g data-paper-data="{&quot;index&quot;:null,&quot;origRot&quot;:0}" stroke-linecap="butt"><path d="M366.62656,255.42923c1.64741,-0.36833 3.38221,-0.26072 4.85371,0.21127c1.47153,0.47188 2.67987,1.30802 3.27493,2.39541c0.59506,1.08739 0.46573,2.22266 -0.22471,3.1778c-0.69046,0.95523 -1.94218,1.73055 -3.5894,2.09882c-1.64738,0.36822 -3.38218,0.26062 -4.85374,-0.21134c-1.47152,-0.47188 -2.6798,-1.30805 -3.27485,-2.39543c-0.59517,-1.08743 -0.46588,-2.22261 0.22471,-3.1778c0.69048,-0.95523 1.94203,-1.73049 3.58938,-2.09872z" fill="url(#color-30)"/><path d="M367.82651,257.23901c0.92853,-0.20758 1.90638,-0.14691 2.73583,0.11906c0.82937,0.26601 1.51039,0.73735 1.84579,1.35023c0.33542,0.61289 0.26251,1.2527 -0.12664,1.79111c-0.38914,0.53841 -1.09456,0.97536 -2.02309,1.18295c-0.92852,0.20759 -1.90629,0.14687 -2.73574,-0.11908c-0.82942,-0.26598 -1.51043,-0.73727 -1.84587,-1.35021c-0.33543,-0.61289 -0.26252,-1.25269 0.12663,-1.79108c0.38914,-0.53841 1.09464,-0.97539 2.02309,-1.18295z" fill="url(#color-31)"/></g><g data-paper-data="{&quot;index&quot;:null,&quot;origRot&quot;:0}" stroke-linecap="butt"><path d="M381.0119,254.86804c1.26894,-1.11329 2.84282,-1.85085 4.36041,-2.14242c1.51757,-0.29166 2.97887,-0.13747 4.02253,0.53132c1.04366,0.66878 1.47465,1.72701 1.32686,2.89626c-0.14775,1.16933 -0.87427,2.45001 -2.14308,3.56315c-1.26898,1.11318 -2.84284,1.85075 -4.36048,2.14237c-1.51757,0.29166 -2.97883,0.13742 -4.02249,-0.53137c-1.04379,-0.66877 -1.47475,-1.7269 -1.32687,-2.89627c0.14778,-1.16935 0.87418,-2.44988 2.14312,-3.56306z" fill="url(#color-32)"/><path d="M382.93279,255.88065c0.71522,-0.62748 1.60237,-1.04322 2.45775,-1.20762c0.85533,-0.16433 1.67899,-0.07735 2.26722,0.2996c0.58826,0.37694 0.83114,0.97334 0.74789,1.63242c-0.08325,0.65908 -0.49269,1.38082 -1.2079,2.00828c-0.71522,0.62747 -1.60232,1.04314 -2.4577,1.20754c-0.85537,0.1644 -1.67897,0.07745 -2.26727,-0.29953c-0.58826,-0.37694 -0.83113,-0.97331 -0.74787,-1.6324c0.08326,-0.65909 0.49273,-1.38088 1.2079,-2.00829z" fill="url(#color-33)"/></g><g data-paper-data="{&quot;index&quot;:null,&quot;origRot&quot;:0}" stroke-linecap="butt"><path d="M393.71273,250.52458c0.92487,-1.41217 2.24408,-2.5439 3.62835,-3.23081c1.38423,-0.687 2.83353,-0.92936 4.01806,-0.56414c1.18453,0.36521 1.88291,1.26957 2.0533,2.43574c0.17046,1.16625 -0.18699,2.59459 -1.11177,4.00659c-0.92493,1.41207 -2.24412,2.54381 -3.62843,3.23079c-1.38423,0.68701 -2.8335,0.9293 -4.01803,0.56408c-1.18465,-0.36515 -1.88298,-1.26942 -2.0533,-2.43574c-0.17042,-1.16627 0.18695,-2.59445 1.11184,-4.00651z" fill="url(#color-34)"/><path d="M395.83454,250.98644c0.52131,-0.79594 1.2649,-1.43384 2.04513,-1.82109c0.7802,-0.38716 1.59711,-0.5237 2.26474,-0.31785c0.66767,0.20582 1.06124,0.71552 1.15732,1.37286c0.09609,0.65733 -0.10534,1.46229 -0.62663,2.25822c-0.52129,0.79592 -1.26485,1.43374 -2.04509,1.821c-0.78022,0.38722 -1.59706,0.52378 -2.26477,0.31792c-0.66767,-0.20582 -1.06123,-0.7155 -1.15732,-1.37284c-0.09609,-0.65734 0.10538,-1.46237 0.62663,-2.25823z" fill="url(#color-35)"/></g><g data-paper-data="{&quot;index&quot;:null,&quot;origRot&quot;:0}" stroke-linecap="butt"><path d="M403.15227,238.07822c0.4293,-1.63257 1.32153,-3.12423 2.41652,-4.21469c1.09492,-1.09051 2.39256,-1.77996 3.63176,-1.80924c1.23921,-0.02929 2.18833,0.60692 2.71975,1.65887c0.53152,1.05199 0.64547,2.51998 0.21621,4.15236c-0.42938,1.6325 -1.32157,3.12417 -2.41658,4.21469c-1.09492,1.09052 -2.39255,1.77988 -3.63176,1.80917c-1.23929,0.02937 -2.18834,-0.60677 -2.71975,-1.65887c-0.53149,-1.05203 -0.64547,-2.51983 -0.21612,-4.15231z" fill="url(#color-36)"/><path d="M405.31099,237.84332c0.24198,-0.92018 0.7449,-1.76096 1.36205,-2.37566c0.61716,-0.61459 1.34859,-1.00314 2.04705,-1.01963c0.69848,-0.01653 1.23338,0.34206 1.53295,0.93499c0.29959,0.59294 0.36382,1.42023 0.12185,2.34039c-0.24197,0.92017 -0.74489,1.76087 -1.36204,2.37557c-0.61715,0.61466 -1.34852,1.00321 -2.04705,1.01972c-0.69848,0.01653 -1.23336,-0.34203 -1.53292,-0.93497c-0.29959,-0.59293 -0.36383,-1.42031 -0.12186,-2.34039z" fill="url(#color-37)"/></g><path d="M353.30736,256.53265c-11.78321,-3.72635 -15.01704,-13.69925 -15.01704,-13.69925c0,0 12.30917,2.38621 19.8067,1.72037c7.49753,-0.66584 18.63141,-4.44466 21.94855,-5.52965c5.26081,-1.72075 9.48808,-5.1837 11.44267,-6.28162c3.81004,-2.14015 10.39651,-19.92226 13.42489,-22.40745c3.02838,-2.48519 11.16714,0.24837 13.01426,3.10163c1.84712,2.85326 -4.09776,16.33027 -7.28456,21.89906c-6.18379,10.80589 -13.93137,16.47229 -27.77847,21.49678c-3.056,1.10889 -17.77379,3.42648 -29.557,-0.29987z" fill="#404040" stroke-linecap="round"/></g><g><path d="M118.95537,295.44841l22.58475,-1.19692l-7.21624,82.00335l9.83389,13.46092l33.31563,4.46312l14.81389,-9.91536l13.82933,11.7072l-4.77193,41.50022l-20.86376,13.72491l-15.17478,-22.69026l-32.7992,-3.45535l-28.08482,-38.95509l13.74061,-92.00248z" fill="#404040" stroke="#808080" stroke-width="5.18141" stroke-linecap="round"/><g fill="none" stroke="#262626" stroke-width="6.04498" stroke-linecap="round"><path d="M139.35145,313.28539l26.65534,4.64579"/><path d="M136.77905,332.90747l27.31199,-3.8149"/><path d="M137.00081,347.4762l21.50838,8.16402"/><path d="M135.95582,375.81016l19.13832,-6.96787"/><path d="M146.89431,390.66269l19.11332,-9.50001"/><path d="M176.22968,374.75026l-4.40873,19.09479"/><path d="M190.16664,385.52146l-2.44181,-14.50784"/><path d="M196.26375,387.48709l11.2158,-12.30508"/><path d="M219.84874,396.83839l-14.1132,-0.99053"/><path d="M230.65453,410.09485l-23.57084,-3.97493"/><path d="M229.95108,421.71177l-26.28243,-2.38979"/><path d="M202.12588,432.73932l28.45567,5.48516"/><path d="M193.82593,444.43123l19.5754,5.72864"/><path d="M174.3257,446.299l-11.0114,13.27704"/><path d="M162.35437,429.43082l-17.37374,8.11921"/><path d="M129.14644,424.03149l-3.49766,16.67035"/><path d="M102.89989,421.32962l19.7733,-9.74029"/><path d="M89.81309,405.91392l20.92471,-11.50481"/><path d="M81.94175,378.13547l21.83133,5.35579"/></g><g fill="none" stroke="#bfbfbf" stroke-width="1.72714" stroke-linecap="round"><g><path d="M135.86207,305.13834l-16.81437,11.5032"/><path d="M123.74666,303.27095l8.30032,19.92389"/></g><g><path d="M131.07208,348.3126l-16.81437,11.5032"/><path d="M118.95667,346.44524l8.30032,19.92388"/></g><g><path d="M127.63113,407.00855l16.81438,-11.5032"/><path d="M132.33008,393.63796l8.30032,19.92389"/></g><g><path d="M196.10674,397.65924l-16.81438,11.5032"/><path d="M183.99133,395.79185l8.30032,19.92388"/></g><g><path d="M177.71715,430.21914l16.81438,-11.5032"/><path d="M190.71642,436.77244l-8.30032,-19.92389"/></g></g><g fill="none" stroke="#ffffff" stroke-width="1.72714" stroke-linecap="round"><g><path d="M115.80079,338.14831l16.81438,-11.5032"/><path d="M128.80008,344.70161l-8.30033,-19.92388"/></g><g><path d="M129.14323,372.10187l-16.81438,11.5032"/><path d="M125.32813,390.15836l-8.30032,-19.92388"/></g><g><path d="M167.97757,405.08535l-16.81438,11.5032"/><path d="M164.16247,423.14184l-8.30033,-19.92388"/></g></g><g><path d="M152.15328,366.92333l20.90606,2.40393l-10.01039,87.0567l-20.90606,-2.40393z" fill="#ffffff" stroke="#000000" stroke-width="2.5907" stroke-linecap="butt"/><path d="M154.50489,419.80458c2.04478,-0.21301 4.38829,0.29511 5.98146,1.59677c0.9787,0.83018 0.80382,2.57104 0.54908,3.81746c-0.23886,1.16922 -0.96302,2.30551 -1.96197,2.99842c-1.0221,0.70924 -2.40285,0.8595 -3.62432,0.90399c-2.49061,-0.52189 -4.11837,-1.21968 -4.96327,-2.54667c-0.70828,-1.16117 -0.62803,-2.93109 0.07638,-4.10126c0.82903,-1.37398 2.36594,-2.50455 3.94265,-2.66871z" fill="#bfbfbf" stroke="none" stroke-width="0.86357" stroke-linecap="round"/><text transform="translate(155.86606,373.38964) rotate(96.79131) scale(0.78522,0.78522)" font-size="22" xml:space="preserve" fill="#000000" fill-rule="nonzero" stroke="none" stroke-width="1" stroke-linecap="butt" stroke-linejoin="miter" stroke-miterlimit="10" stroke-dasharray="" stroke-dashoffset="0" font-family="Serif" font-weight="400" text-anchor="start" style="mix-blend-mode: normal"><tspan x="0" dy="0">TERROR</tspan></text></g></g><g stroke-linecap="round"><path d="M249.85242,477.84264v-90.92725l22.12563,-0.30309v75.16653l14.24527,15.76072z" data-paper-data="{&quot;index&quot;:null}" fill="#404040" stroke="#808080" stroke-width="5.18141"/><g data-paper-data="{&quot;index&quot;:null}" fill="none" stroke="#bfbfbf" stroke-width="1.72714"><path d="M266.82551,391.52977l-9.69891,9.69891"/><path d="M266.71819,400.87817l-9.48426,-8.99789"/></g><g data-paper-data="{&quot;index&quot;:null}" fill="none" stroke="#ffffff" stroke-width="1.72714"><path d="M266.82551,404.25958l-9.69891,9.6989"/><path d="M257.23393,404.6101l9.48426,8.99789"/></g><g data-paper-data="{&quot;index&quot;:null}" fill="none" stroke="#bfbfbf" stroke-width="1.72714"><path d="M257.1266,427.37027l9.69891,-9.69891"/><path d="M266.71819,427.01975l-9.48426,-8.99789"/></g><g data-paper-data="{&quot;index&quot;:null}" fill="none" stroke="#ffffff" stroke-width="1.72714"><path d="M266.82551,430.40117l-9.69891,9.6989"/><path d="M266.71819,439.74957l-9.48426,-8.99789"/></g><g data-paper-data="{&quot;index&quot;:null}" fill="none" stroke="#bfbfbf" stroke-width="1.72714"><path d="M257.1266,453.51183l9.69891,-9.69891"/><path d="M266.71819,453.16134l-9.48426,-8.99789"/></g><path d="M279.32803,402.06217l-7.27418,2.5005" data-paper-data="{&quot;index&quot;:null}" fill="none" stroke="#cc0000" stroke-width="6.04498"/><path d="M278.87339,453.66336l-7.72882,2.72782" data-paper-data="{&quot;index&quot;:null}" fill="none" stroke="#cc0000" stroke-width="6.04498"/><g data-paper-data="{&quot;index&quot;:null}" fill="none" stroke="#262626" stroke-width="6.04498"><path d="M271.37189,390.92358l8.41077,1.13659"/><path d="M272.28117,420.47494l5.001,2.27318"/><path d="M271.82653,436.15989l5.22832,-3.18245"/><path d="M279.55535,402.06217l-7.27418,2.5005"/><path d="M271.37189,456.39118l7.72882,-2.72782"/><path d="M241.82054,455.25459l8.41077,1.13659"/><path d="M244.32104,424.56666l5.001,2.27318"/><path d="M249.77667,411.15489l-5.22832,3.18245"/><path d="M242.04786,445.25259l7.27418,-2.5005"/><path d="M242.50249,393.6514l7.72882,-2.72782"/></g></g><g stroke="#000000" stroke-width="1"><path d="M420.71699,262.0837c-0.06202,-1.42032 0.29517,-2.60975 0.34521,-4.0014c0.14202,-3.94891 0.56941,-8.28104 2.16001,-11.95099c1.09528,-2.52714 2.3347,-5.03295 3.4442,-7.57584c4.49597,-8.30398 9.502,-16.39159 15.75596,-23.48509c1.23518,-1.13894 2.62821,-1.92012 4.17435,-2.57335c0.8767,-0.37039 2.13123,-0.97232 3.03021,-0.08633c0.47549,0.46862 0.59165,2.30692 0.73642,3.00117c0.53204,2.55155 1.8644,6.0789 1.36074,8.6907c-0.32949,1.70868 -1.72208,3.63928 -2.46055,5.21705c-1.0146,2.16481 -1.73382,4.43811 -2.64341,6.64662c-1.08443,2.63302 -2.45514,5.15756 -3.48889,7.8104c-1.54134,3.95544 -2.65258,8.59902 -3.27479,12.78914c-0.66854,4.45388 -0.14504,9.26328 -0.17931,13.77231c-0.02414,3.17746 -0.48412,6.23193 0.00968,9.34861c0.64652,-0.68387 1.31805,-1.34839 1.87827,-2.08616c1.02109,-1.3447 1.05346,-3.44455 1.48447,-5.04472l-0.00735,-0.8992c-0.00958,-0.34421 0.22805,-0.65645 0.57697,-0.7292c0.34892,-0.07276 0.69154,0.1185 0.82031,0.43784l0.38139,0.89463l-0.1982,0.0845c1.44042,2.47512 2.36512,6.14334 2.25695,8.68053c-0.03971,0.93135 -0.29948,1.88632 -0.65348,2.82511c1.70165,-1.83812 3.22196,-3.81607 4.4576,-6.05756l0.02589,-0.65665c0.00582,-0.33107 0.23931,-0.62599 0.57713,-0.69643c0.39203,-0.08175 0.77611,0.16979 0.85786,0.56183l0.27629,1.32504l-0.16306,0.03401c1.4646,3.90163 1.52873,8.65389 0.32296,12.5337c-0.38473,1.23797 -1.0396,2.40075 -1.57061,3.5827c1.59886,-1.1297 3.08811,-2.61249 3.6667,-4.32872l0.21164,-0.80179c0.06375,-0.26384 0.27373,-0.48088 0.55709,-0.53997c0.34892,-0.07276 0.69155,0.1185 0.82032,0.43785l0.38138,0.89463l-0.26581,0.11331c0.92153,2.22804 0.78147,5.05151 0.69092,7.43347c-0.10288,2.70596 0.41486,12.49956 -1.11292,19.66865c-1.32095,6.19847 -4.70075,10.0468 -4.95351,10.33072c-0.58834,0.66087 -6.02976,6.73592 -13.3482,8.67473c-3.71633,0.98453 -16.74085,0.71028 -24.68074,-6.63308c-6.95084,-6.42863 -9.13178,-19.84128 -9.37645,-21.72922c-0.17237,-1.3301 -0.11873,-2.78572 -0.04602,-4.1206c0.03671,-0.67379 -0.32091,-1.52822 0.14178,-2.01939c0.80651,-0.85615 2.18135,0.57967 2.61921,0.93785c0.60816,0.39926 1.24359,0.76127 1.90289,1.06884c0.37813,0.17641 1.25567,0.96318 1.11411,0.57067c-0.63198,-1.75233 -1.61565,-3.33401 -2.20892,-5.12593c-0.86213,-2.60403 -1.31112,-5.32702 -1.85437,-8.00959c-0.41582,-2.05328 -0.82415,-3.98146 -0.5919,-5.93987l-0.23711,-0.02767l0.13982,-1.19808c0.02872,-0.30866 0.25483,-0.57582 0.57415,-0.6424c0.28337,-0.05908 0.56259,0.05596 0.72647,0.27233l0.52672,0.66591l-0.02895,0.0229l0.08952,0.06667c0.8651,2.18729 1.59155,4.48088 2.57687,6.61544c0.34755,0.75293 1.03308,1.5524 1.60565,2.37511c-0.04963,-0.23803 -0.09927,-0.47605 -0.14889,-0.71407c-1.39761,-6.70257 -2.64823,-13.63424 -2.55996,-20.50319c0.02621,-2.03847 -0.05768,-3.9233 0.25162,-5.82985l-0.1942,-0.01415l0.10113,-1.388c0.01607,-0.32152 0.24647,-0.60436 0.57634,-0.67314c0.34892,-0.07276 0.69154,0.11851 0.82031,0.43785l0.38114,0.89406c1.0624,2.47669 2.12478,4.95483 3.73683,7.14206c0.25693,0.34861 0.55002,0.65389 0.83524,0.95898c-1.30698,-6.19496 -1.99588,-11.81162 -1.25481,-18.14191c0.29848,-2.54966 0.71322,-5.0315 1.81222,-7.2591l-0.20935,-0.07284l0.47221,-1.35713c0.07827,-0.23822 0.27809,-0.42925 0.54119,-0.48411c0.39203,-0.08175 0.77612,0.1698 0.85786,0.56183c0.02486,0.11922 0.01889,0.23771 -0.01247,0.34718l-0.19397,0.73483c0.36069,4.67886 1.08226,9.05383 2.16735,13.62692c0.43892,1.84983 0.82205,3.72602 1.43835,5.52329c-0.1104,-1.70975 0.3479,-3.55765 0.64829,-5.21526z" fill="url(#color-38)" stroke-linecap="butt"/><path d="M455.39209,315.8716c1.75723,0.76284 7.69637,4.89077 9.90255,10.39022c2.2062,5.49953 -3.39862,22.59809 -3.39862,22.59809c0,0 2.26615,-14.54151 -0.41312,-18.7227c-2.67928,-4.1812 -7.32065,-4.51846 -9.51661,-9.66167c-2.19594,-5.14326 1.66859,-5.36684 3.42578,-4.604z" data-paper-data="{&quot;index&quot;:null}" fill="#e6e6e6" stroke-linecap="round"/><path d="M433.69143,332.63357c0.5633,-1.83094 3.24641,-4.6212 5.72532,0.39183c2.47886,5.013 1.85435,10.48508 3.28809,15.23959c1.43374,4.75449 18.4026,13.93266 18.4026,13.93266c0,0 -19.71,-7.40602 -22.45287,-12.65853c-2.74282,-5.25244 -5.52644,-15.07452 -4.96312,-16.90549z" data-paper-data="{&quot;index&quot;:null}" fill="#e6e6e6" stroke-linecap="round"/><path d="M426.63086,331.13032c0.88138,-1.70083 4.01985,-3.9668 5.56319,1.40846c1.5433,5.37523 -0.04884,10.64769 0.51236,15.58186c0.56118,4.93416 15.61716,16.99644 15.61716,16.99644c0,0 -18.06963,-10.80841 -19.82991,-16.46647c-1.76024,-5.65798 -2.74417,-15.81936 -1.86277,-17.52022z" data-paper-data="{&quot;index&quot;:null}" fill="#e6e6e6" stroke-linecap="round"/><path d="M418.77422,329.20223c1.15516,-1.52816 4.63033,-3.23336 5.24663,2.32501c0.61626,5.55835 -1.84086,10.48746 -2.11842,15.44568c-0.27757,4.9582 12.53258,19.38323 12.53258,19.38323c0,0 -15.9919,-13.69644 -16.77441,-19.5701c-0.78249,-5.87357 -0.04154,-16.05556 1.11364,-17.58375z" data-paper-data="{&quot;index&quot;:null}" fill="#e6e6e6" stroke-linecap="round"/><path d="M412.15343,326.38667c1.32437,-1.38409 4.97366,-2.67532 4.94204,2.91703c-0.03165,5.59232 -3.04313,10.20367 -3.89309,15.09638c-0.84997,4.89269 10.20327,20.7043 10.20327,20.7043c0,0 -14.29796,-15.45645 -14.39492,-21.38122c-0.09696,-5.92467 1.8183,-15.95232 3.1427,-17.33643z" data-paper-data="{&quot;index&quot;:null}" fill="#e6e6e6" stroke-linecap="round"/></g><path d="M212.12244,209.49815c0.09926,-0.22149 0.32728,-0.38039 0.59833,-0.38959c0.37298,-0.01266 0.68621,0.26296 0.6996,0.6156c0.07182,1.89191 0.17058,4.4933 0.24241,6.38521c0.0071,0.18722 0.02249,0.41949 0.01003,0.64156c0.34564,0.01734 2.08096,-2.8097 2.09361,-2.4764c0,0 -0.09638,1.92822 -0.47301,3.65927c-0.26191,1.20376 -0.84716,2.31217 -0.84556,2.61053c0.24225,-0.06334 0.61139,-0.07217 1.1572,0.00198c1.24471,0.16909 0.67116,4.04726 0.57505,4.63723c-0.07085,0.43492 -0.11317,0.875 -0.21484,1.30442c-0.12007,0.50713 -1.03673,1.23269 -0.54796,1.47045c0.22256,0.10827 0.59041,-0.20745 0.7504,-0.02546c1.05627,1.20159 0.00783,5.22699 -1.08454,7.17637c0.78186,-0.55597 1.91653,-1.29894 2.47177,-0.87597c0.89722,0.68347 -0.43828,3.04003 -0.73249,3.65037c-1.42277,2.95152 -4.19383,6.6271 -8.10666,6.02433c-3.24181,0.11001 -7.66719,-3.63303 -8.1895,-6.65554c-0.10211,-0.59092 1.49744,-1.31618 1.68665,-1.88758c0.16839,-0.50853 -2.166,-5.39121 -2.18475,-5.88525c-0.05684,-1.49726 2.74154,2.50295 2.67876,1.03267c0.0191,-2.22785 -1.36706,-7.3389 -0.87827,-9.51727c0.1241,-0.55307 1.16336,1.76032 1.54154,1.32235c0.20881,-0.24183 -0.8786,-9.50849 -0.82929,-9.81717c0.16317,-1.02144 0.99504,1.11209 2.68697,2.55209c0.14974,0.12743 -0.19291,-0.35212 -0.18967,-0.54258c0.0057,-0.33462 0.09954,-0.6639 0.11238,-0.99834c0.03767,-0.98173 -0.01739,-1.60375 0.10934,-2.30688l-0.19032,-0.02339l0.11633,-0.84604c0.03667,-0.30942 0.30835,-0.55507 0.64734,-0.56657c0.2696,-0.00915 0.50797,0.13232 0.62447,0.34461l0.45221,0.78349c0.37199,-2.05553 -0.64513,-7.15916 2.71718,-8.06125c3.36231,-0.90209 2.3427,4.71039 2.49531,6.66275z" fill="url(#color-39)" stroke="#000000" stroke-width="1" stroke-linecap="butt"/><g stroke="#000000" stroke-width="1" stroke-linecap="round"><path d="M513.65996,224.6068c-0.8168,19.05457 1.89688,57.66025 1.89688,57.66025l3.58221,-10.8374l-2.39123,23.90616l3.17326,-9.05658l-1.05555,26.02655l3.01791,-10.76119l3.66585,27.68972l0.1447,-10.94836c0,0 5.02198,12.9069 5.40517,21.70281c0.38318,8.79591 -0.21919,9.61825 -2.0394,15.23065c-1.82019,5.61241 -3.46543,8.92275 -7.32505,13.64371c-3.85963,4.72095 -7.32845,6.11749 -12.97323,8.07931c-5.64475,1.96184 -7.14938,1.7363 -11.38927,0.38779c-4.23986,-1.34851 -8.12226,-4.3791 -12.73022,-8.0591c-4.60798,-3.67999 -11.91237,-11.62076 -11.91237,-11.62076l8.82674,2.83429c0,0 -3.49722,-3.0348 -4.51958,-5.71681c-1.02236,-2.68199 -6.74086,-23.82321 -6.74086,-23.82321l6.36776,7.19278l-3.20512,-28.90234l5.39985,15.37632l-0.23367,-33.90525l4.57669,12.61149l-0.48194,-24.0933l2.41779,7.72626c0,0 12.4307,-56.70984 13.56607,-66.7914c1.13538,-10.08155 15.77339,-14.60693 14.9566,4.44762z" fill="url(#color-40)"/><path d="M527.22461,353.29917c1.75723,0.76284 7.69637,4.89077 9.90255,10.39022c2.2062,5.49953 -3.39862,22.59809 -3.39862,22.59809c0,0 2.26615,-14.54151 -0.41312,-18.7227c-2.67928,-4.1812 -7.32065,-4.51846 -9.51661,-9.66167c-2.19594,-5.14326 1.66859,-5.36684 3.42578,-4.604z" data-paper-data="{&quot;index&quot;:null}" fill="#e6e6e6"/><path d="M505.52396,370.06113c0.5633,-1.83094 3.24641,-4.6212 5.72532,0.39183c2.47886,5.013 1.85435,10.48508 3.28809,15.23959c1.43374,4.75449 18.4026,13.93266 18.4026,13.93266c0,0 -19.71,-7.40602 -22.45287,-12.65853c-2.74282,-5.25244 -5.52644,-15.07452 -4.96312,-16.90549z" data-paper-data="{&quot;index&quot;:null}" fill="#e6e6e6"/><path d="M498.46339,368.55789c0.88138,-1.70083 4.01985,-3.9668 5.56319,1.40846c1.5433,5.37523 -0.04884,10.64769 0.51236,15.58186c0.56118,4.93416 15.61716,16.99644 15.61716,16.99644c0,0 -18.06963,-10.80841 -19.82991,-16.46647c-1.76024,-5.65798 -2.74417,-15.81936 -1.86277,-17.52022z" data-paper-data="{&quot;index&quot;:null}" fill="#e6e6e6"/><path d="M490.60675,366.62979c1.15516,-1.52816 4.63033,-3.23336 5.24663,2.32501c0.61626,5.55835 -1.84086,10.48746 -2.11842,15.44568c-0.27757,4.9582 12.53258,19.38323 12.53258,19.38323c0,0 -15.9919,-13.69644 -16.77441,-19.5701c-0.78249,-5.87357 -0.04154,-16.05556 1.11364,-17.58375z" data-paper-data="{&quot;index&quot;:null}" fill="#e6e6e6"/><path d="M483.98596,363.81423c1.32437,-1.38409 4.97366,-2.67532 4.94204,2.91703c-0.03165,5.59232 -3.04313,10.20367 -3.89309,15.09638c-0.84997,4.89269 10.20327,20.7043 10.20327,20.7043c0,0 -14.29796,-15.45645 -14.39492,-21.38122c-0.09696,-5.92467 1.8183,-15.95232 3.1427,-17.33643z" data-paper-data="{&quot;index&quot;:null}" fill="#e6e6e6"/></g><g stroke="#000000" stroke-width="1"><g fill="#e6e6e6" stroke-linecap="round"><path d="M151.29587,280.74382c0.53017,3.38988 -1.17954,5.72918 -1.09535,8.90584c0.0842,3.17665 1.53847,7.8115 1.53847,7.8115c0,0 -3.43631,-4.23471 -4.05823,-7.7926c-0.6219,-3.55791 0.57267,-8.24468 1.0493,-9.4213c0.47661,-1.17663 2.03568,-2.89332 2.56582,0.49656z"/><path d="M152.06889,283.04477c0.47662,-1.17663 2.03567,-2.89331 2.56582,0.49656c0.53016,3.38987 -1.17955,5.7292 -1.09535,8.90584c0.0842,3.17665 1.53847,7.8115 1.53847,7.8115c0,0 -3.43631,-4.23471 -4.05825,-7.79259c-0.6219,-3.55789 0.57268,-8.24466 1.04929,-9.42128z"/><path d="M154.77902,284.94876c0.47662,-1.17663 2.03567,-2.89331 2.56582,0.49656c0.53016,3.38987 -1.17956,5.72919 -1.09536,8.90584c0.0842,3.17665 1.53847,7.8115 1.53847,7.8115c0,0 -3.43632,-4.2347 -4.05824,-7.7926c-0.6219,-3.5579 0.57269,-8.24466 1.0493,-9.42129z"/><path d="M157.6982,286.12138c0.47662,-1.17663 2.03567,-2.89331 2.56582,0.49656c0.53016,3.38987 -1.17955,5.72919 -1.09535,8.90585c0.0842,3.17665 1.53847,7.8115 1.53847,7.8115c0,0 -3.43632,-4.2347 -4.05824,-7.7926c-0.6219,-3.55789 0.57268,-8.24466 1.04929,-9.42128z"/><path d="M164.20591,280.68597c0.66486,0.93007 2.63589,4.93302 2.66129,8.61977c0.02541,3.68677 -2.53835,9.21756 -2.53835,9.21756c0,0 0.58661,-5.0757 0.11069,-8.16775c-0.47591,-3.09204 -2.531,-4.6181 -2.61524,-8.10432c-0.08423,-3.48621 1.71675,-2.49532 2.38159,-1.56526z" data-paper-data="{&quot;index&quot;:null}"/></g><path d="M155.38686,206.98469c1.433,-1.42468 2.0863,1.06068 2.58102,3.69296c1.97972,10.52932 4.765,57.59084 4.99088,68.22617c0.05471,2.81749 -1.16128,5.67939 -2.6335,7.7864c-0.98912,1.41243 -2.65433,2.45036 -4.29543,2.40743c-1.64105,-0.04292 -3.19341,-1.18217 -4.11398,-2.62733c-1.27979,-2.01054 -2.19699,-4.71557 -2.16934,-7.31909c0.17513,-7.01716 4.37734,-70.91086 5.64033,-72.16657z" data-paper-data="{&quot;origRot&quot;:0,&quot;index&quot;:null}" fill="url(#color-41)" stroke-linecap="butt"/></g></g></g></svg>