<svg version="1.1" xmlns="http://www.w3.org/2000/svg" xmlns:xlink="http://www.w3.org/1999/xlink" width="153.23545" height="305.55529" viewBox="0,0,153.23545,305.55529"><defs><linearGradient x1="239.12765" y1="76.44561" x2="239.12765" y2="286.0001" gradientUnits="userSpaceOnUse" id="color-1"><stop offset="0" stop-color="#2a241d"/><stop offset="1" stop-color="#efdbc0"/></linearGradient><linearGradient x1="239.12765" y1="76.29936" x2="239.12765" y2="285.60321" gradientUnits="userSpaceOnUse" id="color-2"><stop offset="0" stop-color="#000000"/><stop offset="1" stop-color="#846f51"/></linearGradient><linearGradient x1="298.7357" y1="18.74488" x2="298.7357" y2="96.65634" gradientUnits="userSpaceOnUse" id="color-3"><stop offset="0" stop-color="#000000"/><stop offset="1" stop-color="#ffd498"/></linearGradient><linearGradient x1="239.43751" y1="1.04794" x2="239.43751" y2="104.64464" gradientUnits="userSpaceOnUse" id="color-4"><stop offset="0" stop-color="#000000"/><stop offset="1" stop-color="#efd0a4"/></linearGradient><linearGradient x1="239.35921" y1="60.61366" x2="239.35921" y2="73.06006" gradientUnits="userSpaceOnUse" id="color-5"><stop offset="0" stop-color="#6a5d49" stop-opacity="0"/><stop offset="1" stop-color="#6a5d49"/></linearGradient><linearGradient x1="238.9883" y1="83.37757" x2="238.9883" y2="92.72067" gradientUnits="userSpaceOnUse" id="color-6"><stop offset="0" stop-color="#000000"/><stop offset="1" stop-color="#ffffff"/></linearGradient></defs><g transform="translate(-169.13416,-1.04795)"><g data-paper-data="{&quot;isPaintingLayer&quot;:true}" fill-rule="nonzero" stroke-linejoin="miter" stroke-miterlimit="10" stroke-dasharray="" stroke-dashoffset="0" style="mix-blend-mode: normal"><g data-paper-data="{&quot;index&quot;:null}" fill="#000000" stroke-linecap="butt"><path d="M236.18297,259.1667v-92.62046h6.67534v92.62046z" stroke="none" stroke-width="0"/><g data-paper-data="{&quot;index&quot;:null}" stroke="#000000" stroke-width="0.5"><path d="M237.94994,187.58737l17.76273,-14.86198l3.50394,3.81471z"/><path d="M254.79946,177.88759l0.85499,-5.10868l22.99477,2.76293z" data-paper-data="{&quot;index&quot;:null}"/></g><g data-paper-data="{&quot;index&quot;:null}" stroke="#000000" stroke-width="0.5"><path d="M239.34064,203.71949l17.76273,-14.86199l3.50394,3.81471z"/><path d="M256.19015,194.01967l0.85499,-5.10868l22.99477,2.76293z" data-paper-data="{&quot;index&quot;:null}"/></g><g stroke="#000000" stroke-width="0.5"><g data-paper-data="{&quot;index&quot;:null}"><path d="M217.78939,176.03946l3.50394,-3.81472l17.76273,14.86199z"/><path d="M198.35678,175.04116l22.99477,-2.76293l0.85499,5.10868z" data-paper-data="{&quot;index&quot;:null}"/></g><g data-paper-data="{&quot;index&quot;:null}"><path d="M219.18008,192.17154l3.50394,-3.81471l17.76273,14.86199z"/><path d="M199.74748,191.17329l22.99477,-2.76293l0.85499,5.10868z" data-paper-data="{&quot;index&quot;:null}"/></g></g><g data-paper-data="{&quot;index&quot;:null}" stroke="#000000" stroke-width="0.5"><path d="M238.57576,219.0867l17.76273,-14.86198l3.50394,3.81471z"/><path d="M255.42527,209.38688l0.85499,-5.10868l22.99477,2.76293z" data-paper-data="{&quot;index&quot;:null}"/></g><g data-paper-data="{&quot;index&quot;:null}" stroke="#000000" stroke-width="0.5"><path d="M239.96645,235.21879l17.76273,-14.86199l3.50394,3.81471z"/><path d="M256.81597,225.51896l0.85499,-5.10868l22.99477,2.76293z" data-paper-data="{&quot;index&quot;:null}"/></g><g stroke="#000000" stroke-width="0.5"><g data-paper-data="{&quot;index&quot;:null}"><path d="M218.4152,208.09505l3.50394,-3.81471l17.76273,14.86198z"/><path d="M198.9826,207.09676l22.99477,-2.76293l0.85499,5.10868z" data-paper-data="{&quot;index&quot;:null}"/></g><g data-paper-data="{&quot;index&quot;:null}"><path d="M219.8059,224.22714l3.50394,-3.81471l17.76273,14.86198z"/><path d="M200.37329,223.22884l22.99477,-2.76293l0.85499,5.10868z" data-paper-data="{&quot;index&quot;:null}"/></g></g><g stroke="#000000" stroke-width="0.5"><path d="M219.52776,241.41616l3.50394,-3.81471l17.76273,14.86199z" data-paper-data="{&quot;index&quot;:null}"/><path d="M200.09515,240.41786l22.99477,-2.76293l0.85499,5.10868z" data-paper-data="{&quot;index&quot;:null}"/><g data-paper-data="{&quot;index&quot;:null}"><path d="M239.68831,252.51904l17.76273,-14.86199l3.50394,3.81471z"/><path d="M256.53783,242.81925l0.85499,-5.10868l22.99477,2.76293z" data-paper-data="{&quot;index&quot;:null}"/></g></g></g><g stroke="none" stroke-linecap="butt"><path d="M217.26495,76.69625l45.61978,-0.25065l7.16304,91.58746c-1.88894,-0.84003 -5.29413,2.3217 -7.06429,2.26905c-0.72163,-0.02146 -1.1511,-0.88931 -1.80211,-1.2014c-0.17131,-0.08212 -0.56286,0.12268 -0.73633,0.16363c-4.06877,0.96051 -4.42571,0.87938 -7.82269,0.87938c-1.18417,0 -3.03621,-1.09807 -3.94099,-1.04301c-1.89487,0.11532 -3.80325,2.15845 -5.52868,1.3668c-1.16858,-0.53616 -3.93407,-2.48773 -5.47132,-2.3668c-1.71267,0.13473 -3.37821,0.64985 -5.03115,1.11803c-0.54487,0.15434 -1.14158,1.10574 -1.54448,0.70777c-4.10153,-4.05132 -7.51194,-4.34409 -13.48338,-2.5135c-1.10621,0.33911 -1.44858,1.8569 -2.41477,2.49344c-1.68666,1.1112 -3.85652,1.11572 -6.16475,0.91356z" fill="url(#color-1)" stroke-width="0"/><path d="M216.93618,76.29936c0,0 7.9212,0.31065 8.04648,0.67867c0.41816,1.2284 -4.5507,46.42081 -2.80232,57.66298c0.66646,4.2854 31.92999,5.41824 32.94162,-0.04545c1.69148,-9.13544 -0.42984,-53.10035 0.66743,-56.42444c0.94563,-2.86473 7.22702,-1.51931 7.22702,-1.51931c0,0 4.88277,58.59783 9.0272,76.98666c2.18147,9.67921 13.99459,25.16099 13.99459,25.16099c-2.69441,1.28011 -20.23812,-6.07022 -22.2088,-4.96562c-2.38252,1.33544 -6.08759,-1.66731 -8.63821,-1.06069c-0.39361,0.09361 0.2006,3.47156 -0.22055,3.45475c-2.43318,-0.09715 -3.09764,17.63219 -5.49816,18.23232c-1.50835,0.37709 -1.53578,-8.24603 -2.89389,-7.99699c-0.55815,0.10235 -5.62516,-11.68119 -5.75206,-11.70589c-1.91216,-0.37221 -5.42352,0.27635 -7.71741,-0.29712c-0.7253,-0.18132 -2.94815,-0.70536 -4.69525,0.25996c-0.24899,0.13757 -0.84196,3.21739 -1.11233,3.21965c-2.0053,0.01678 -3.36332,-3.66728 -4.38298,-2.67703c-2.20963,2.14589 -0.06605,7.23288 -1.59994,7.72143c-0.09377,0.02987 -5.84866,-6.17765 -5.87617,-6.19067c-2.10082,-0.99513 -23.16539,5.06757 -24.76362,5.05605c-0.04656,-0.00034 13.27551,-8.21025 13.14582,-8.30852c0,0 5.58307,-15.52733 6.31975,-21.96266c1.75167,-15.30178 6.79179,-75.27906 6.79179,-75.27906z" fill="url(#color-2)" stroke-width="0"/><path d="M206.625,172.75005c0,0.29424 -0.17315,0.41533 -0.31566,0.46516c2.0659,0.81874 4.91119,2.21513 6.58661,1.56483c2.21013,-0.85783 3.08491,-5.62038 3.71965,-7.56041c0.23892,-0.34448 0.36145,-0.77467 0.65584,-1.07314c2.50144,-2.53606 3.35978,0.70512 3.84018,2.73868c0.09118,0.38599 -0.3373,1.03099 0.02624,1.18955c1.51323,0.66002 2.43784,-1.53899 2.71235,-2.55047c1.21982,-5.88619 -0.74535,-11.61807 -1.4723,-17.47737c-0.00387,-1.76546 -0.60676,-5.02172 0.32176,-6.5597c0.91821,-1.5209 3.22526,-1.72002 3.90387,0.11798c0.6917,1.87344 0.52146,4.149 0.52146,6.14489c0,3.9052 -0.56234,8.3051 -0.00645,12.16991c0.22927,1.59399 1.06089,3.30163 0.96839,4.88875c2.29058,1.98074 3.21221,-1.32043 4.11274,-2.82153c1.4524,-2.42103 3.80751,-2.43148 5.56199,-0.80413c1.34398,2.00945 -0.03291,3.92054 0.78865,5.80413c0.20986,0.48113 1.04977,0.01287 1.57468,0.01287c1.87835,0 3.65012,-0.25 5.5,-0.25c3.08844,0.10727 -0.05043,-6.40668 1.64645,-8.10355c0.83737,-0.83737 3.01222,-0.58803 3.56549,0.41222c0.34074,0.61601 0.03806,2.23955 0.03806,2.94134c-0.28463,0.28463 0.64475,0.13605 0.73713,0.07468c0.7038,-0.46749 0.51156,-2.86202 0.51287,-3.57573c0.00646,-3.51778 -0.01595,-7.03578 0.00298,-10.55351c0.58264,-2.65735 0.91648,-6.16909 2.71329,-8.31599c0.57069,-0.68187 2.25266,-2.05196 3.29659,-1.30477c0.94088,0.67344 1.31232,4.41532 1.72212,5.55369c0.85633,5.88663 -0.07814,12.85626 2.3306,18.34695c0.28627,0.96482 0.72498,1.81431 1.11115,2.74319c0.03449,0.08297 0.31841,0.51166 0.5314,0.87842c0.08434,-0.28579 0.274,-0.59495 0.30524,-0.7118c0.26944,-1.00787 1.00811,-6.07299 2.94857,-2.82646c0.24654,0.41248 0.47451,1.19832 0.73528,1.71774c0.69259,1.38519 1.22548,2.67871 2.18945,3.90661c0.09663,0.12309 1.1215,0.95669 1.32098,0.66137c1.35048,-1.99939 0.64601,-4.34438 4.04235,-4.34438c3.36953,0.05211 5.88457,3.87844 7.19916,6.53033c0.81261,1.63924 1.18445,4.21013 -0.86907,4.96322c-4.4117,0 -8.91326,0.9616 -13.18474,-0.647c-0.99644,-0.37525 -3.00237,-0.58033 -3.40821,-1.67122c-0.73623,0.06292 -0.82891,-0.57714 -1.56723,-0.68178c-2.03348,-0.28818 -4.36672,0.67135 -6.28478,0.24308c-0.20369,-0.04548 -1.91484,-1.30649 -2.12226,-1.0613c-0.29176,0.34489 -0.26687,1.15928 -0.26286,1.57468c0,5.89791 -2.75,11.6756 -2.75,17.75c0,1.34804 -0.03675,5.2851 -2.54235,3.40562c-0.60671,-0.45509 -0.72865,-2.275 -0.92316,-2.95744c-0.70044,-2.4575 -1.63307,-3.83171 -2.7317,-5.97458c-0.56067,-1.3271 -1.72033,-0.70091 -2.53871,-1.28277c-0.86479,-0.61485 -1.25591,-2.3416 -1.49732,-3.3125c-0.34276,-1.37849 -0.06993,-6.55479 -1.38163,-7.14171c-3.91613,0.05918 -7.84347,0.06287 -11.76046,0.00726c0.32015,0.70624 0.32379,2.13737 0.05066,2.51898c-0.74084,1.03504 -2.61557,0.47958 -3.27888,-0.15931c-0.15691,-0.15114 -0.40588,-0.43449 -0.60707,-0.70505c0.05822,0.8838 -0.03938,2.36378 -0.03938,2.6015c-0.01361,1.74928 -1.94344,7.95939 -4.64736,4.80349c-2.13145,-2.48775 -1.47164,-5.31987 -4.71752,-7.06687c-0.1813,0.00629 -1.03157,-0.13307 -1.03157,-0.13307c0,0 0.14644,1.65773 0.14644,1.89645v0.75c0,0.27614 -0.22386,0.5 -0.5,0.5c-0.1996,0 -0.37189,-0.11695 -0.45206,-0.28608l-0.24516,-0.49032l0.18946,-0.09472c-0.0841,-0.15703 -0.15788,-0.31922 -0.22079,-0.48399c-0.14635,-0.38336 -0.58373,-1.3408 -0.75859,-0.96957c-0.8392,1.78174 0.27536,5.21752 -0.01661,7.13577c-0.40027,2.6298 -2.13265,1.69262 -2.82575,-0.03923c-0.79658,-1.68222 -1.43331,-3.6874 -1.84714,-5.47924c-0.10607,-0.45927 -0.10702,-1.3612 -0.57336,-1.29262c-0.71419,0.10502 -1.97467,1.1279 -2.80866,1.46194c-1.97494,0.79101 -4.06016,1.23092 -6.04919,2.01743c-1.97556,0.39346 -4.94841,1.7108 -7.00702,1.00726c-0.71406,-0.24403 -1.432,-1.34135 -0.73868,-2.09018c0.38503,-0.41584 2.61847,-0.86522 3.21551,-1.15264c1.781,-0.85738 3.21434,-2.20163 4.72066,-3.46072c2.65054,-2.19547 3.47074,-4.53308 7.16739,-4.53308h0.25c0,0 0.5,0 0.5,0.5z" fill="#000000" stroke-width="0.5"/><path d="M225.875,138.625c0,1.03554 -1.11929,1.875 -2.5,1.875c-1.38071,0 -2.5,-0.83946 -2.5,-1.875c0,-1.03554 1.11929,-1.875 2.5,-1.875c1.38071,0 2.5,0.83946 2.5,1.875z" fill="#000000" stroke-width="0"/></g><path d="M199.37765,306.60321l7.09432,-61.01433c0.91843,0.08647 4.62757,6.50971 4.95788,6.81313c1.11192,1.0214 4.78332,0.96323 6.96785,1.19027c5.68485,0.59081 8.27417,3.29001 11.87187,3.56484c3.15789,0.24124 4.59942,-4.56263 7.71146,-4.01492c1.52246,0.26794 4.42635,0.84755 5.7643,1.19662c2.26136,0.58997 3.56502,3.4071 6.08793,2.45984c0.72949,-0.2739 2.41367,0.14258 3.07883,-0.34136c1.01919,-0.74151 3.99375,-3.87533 5.01828,-4.19001c1.72242,-0.52905 4.70025,-0.45416 6.61042,-0.87999c2.68579,-0.59875 4.11453,3.49315 5.92962,-0.0564c0.77024,-1.50626 1.86004,-5.91229 2.89499,-6.33734l7.51225,61.60968z" fill="#000000" stroke="none" stroke-width="0" stroke-linecap="butt"/><g stroke="none" stroke-width="0" stroke-linecap="butt"><g fill="url(#color-3)"><path d="M322.3696,34.93498c0,15.63761 -28.67836,61.72134 -38.05131,61.72134c-9.37295,0 -13.18131,-77.91141 -3.80835,-77.91141c9.37295,0 41.85967,0.55245 41.85967,16.19007z"/></g><path d="M305.80055,66.6004c-8.28353,14.22623 -17.88034,21.68691 -21.43507,16.66391c-3.55473,-5.02301 0.27874,-20.62759 8.56227,-34.85381c1.63476,-2.80755 3.32066,-5.35159 5.00118,-7.58819c6.8349,-9.09656 13.58069,-13.10743 16.43389,-9.07571c3.55473,5.023 -0.27874,20.62759 -8.56227,34.85381z" fill="#000000"/></g><path d="M169.13417,54.40467c0,-41.51744 31.47588,-53.35671 70.30334,-53.35671c38.82746,0 70.30334,11.83928 70.30334,53.35671c0,41.51744 -30.38145,50.23995 -69.20891,50.23995c-38.82746,0 -71.39778,-8.72253 -71.39778,-50.23995z" fill="url(#color-4)" stroke="none" stroke-width="0" stroke-linecap="butt"/><path d="M216.24314,73.06006v-12.44643h46.23214v12.44643c0,0 -16.22423,-3.21769 -23.86607,-3.21769c-7.76684,0 -22.36607,3.21769 -22.36607,3.21769z" fill="url(#color-5)" stroke="none" stroke-width="0" stroke-linecap="butt"/><path d="M194.40544,22.21728c0,0 6.70895,-5.16922 11.79721,-6.36355c5.08827,-1.19433 12.33413,0.69937 12.33413,0.69937c0,0 -8.03812,-0.06028 -11.96762,0.86207c-4.10648,0.96389 -12.16372,4.80211 -12.16372,4.80211z" fill="#000000" stroke="none" stroke-width="0" stroke-linecap="butt"/><path d="M269.75658,14.6652c-3.9295,-0.92235 -11.96762,-0.86207 -11.96762,-0.86207c0,0 7.24586,-1.8937 12.33413,-0.69937c5.08826,1.19433 11.79721,6.36355 11.79721,6.36355c0,0 -8.05724,-3.83822 -12.16372,-4.80211z" data-paper-data="{&quot;index&quot;:null}" fill="#000000" stroke="none" stroke-width="0" stroke-linecap="butt"/><path d="M202.33176,73.18645l-1.83333,4.33333" fill="none" stroke="#000000" stroke-width="2" stroke-linecap="round"/><path d="M216.16509,78.35312l-0.16666,-5" fill="none" stroke="#000000" stroke-width="2" stroke-linecap="round"/><g fill="none" stroke="#000000" stroke-width="2" stroke-linecap="round"><path d="M278.33175,76.18648l-1.83333,-4.33333" data-paper-data="{&quot;index&quot;:null}"/><path d="M262.83176,78.35311l0.16667,-5" data-paper-data="{&quot;index&quot;:null}"/></g><path d="M244.86675,11.68528c0,0 -25.82688,-1.18149 -27.37823,-3.02416c-0.91492,-1.08673 13.2175,-3.46297 26.42383,-3.26455c2.03853,0.03063 8.71719,0.44662 14.45743,1.52292c1.59215,0.29853 5.83704,3.08391 3.73865,5.05915c-1.38563,1.30431 -8.82694,2.06738 -9.88833,2.19856c-16.98819,2.09955 -47.34301,-0.19847 -47.34301,-0.19847" fill="none" stroke="#000000" stroke-width="1" stroke-linecap="round"/><path d="M186.35109,50.27574c0,-12.968 10.51265,-23.48065 23.48065,-23.48065c12.968,0 23.48065,10.51265 23.48065,23.48065c0,12.968 -10.51265,23.48065 -23.48065,23.48065c-12.968,0 -23.48065,-10.51265 -23.48065,-23.48065z" fill="#ff5b5b" stroke="none" stroke-width="0" stroke-linecap="butt"/><path d="M267.4235,73.75638c-12.968,0 -23.48065,-10.51265 -23.48065,-23.48065c0,-12.968 10.51265,-23.48065 23.48065,-23.48065c12.968,0 23.48065,10.51265 23.48065,23.48065c0,12.968 -10.51265,23.48065 -23.48065,23.48065z" data-paper-data="{&quot;index&quot;:null}" fill="#ff5b5b" stroke="none" stroke-width="0" stroke-linecap="butt"/><path d="M186.18443,49.77575c0,-12.968 10.51265,-23.48065 23.48065,-23.48065c12.968,0 23.48065,10.51265 23.48065,23.48065c0,0.35838 -46.9613,0.47831 -46.9613,0z" fill="#ff0000" stroke="none" stroke-width="0" stroke-linecap="butt"/><path d="M243.93443,50.47575c0,-12.968 10.51265,-23.48065 23.48065,-23.48065c12.968,0 23.48065,10.51265 23.48065,23.48065c0,0.47831 -46.9613,0.35838 -46.9613,0z" data-paper-data="{&quot;index&quot;:null}" fill="#ff0000" stroke="none" stroke-width="0" stroke-linecap="butt"/><g stroke="none" stroke-width="0" stroke-linecap="butt"><path d="M205.16648,50.79275c0,-4.79783 3.59418,-8.68723 8.02783,-8.68723c4.43365,0 8.02784,3.88941 8.02784,8.68723c0,4.79783 -3.59419,8.68722 -8.02784,8.68722c-4.43365,0 -8.02783,-3.8894 -8.02783,-8.68722z" fill="#000000"/><path d="M214.88861,50.79593c0,0.86294 -0.75552,1.5625 -1.6875,1.5625c-0.93198,0 -1.6875,-0.69956 -1.6875,-1.5625c0,-0.86294 0.75552,-1.5625 1.6875,-1.5625c0.93198,0 1.6875,0.69956 1.6875,1.5625z" fill="#ff5b5b"/></g><g stroke="none" stroke-width="0" stroke-linecap="butt"><path d="M255.4998,50.39277c0,-4.79783 3.59419,-8.68722 8.02784,-8.68722c4.43365,0 8.02783,3.8894 8.02783,8.68722c0,4.79783 -3.59418,8.68722 -8.02783,8.68722c-4.43365,0 -8.02784,-3.8894 -8.02784,-8.68722z" fill="#000000"/><path d="M265.22194,50.39593c0,0.86294 -0.75552,1.5625 -1.6875,1.5625c-0.93198,0 -1.6875,-0.69956 -1.6875,-1.5625c0,-0.86294 0.75552,-1.5625 1.6875,-1.5625c0.93198,0 1.6875,0.69956 1.6875,1.5625z" fill="#ff5b5b"/></g><path d="M208.84201,85.28369c0.00501,1.0908 0.30537,3.36986 -1.1814,3.74752c-1.6803,0.42682 -1.24479,-4.65291 -3.00619,-2.89329c-2.28768,2.28535 -0.94582,6.52933 -1.88336,9.26953c-3.4958,3.34947 -1.93833,-3.20183 -3.48819,-4.23754c-2.28823,-1.52913 -5.07858,-0.4771 -7.29068,-2.67177c-1.1216,-1.1373 -3.28911,-4.77088 -1.33447,-6.16226c0.83927,-0.59742 2.12372,-0.17514 3.05661,-0.29259c1.84482,-0.23225 4.53141,-0.99871 4.83141,-0.5987c0.11355,0.1514 9.38486,0.24949 10.29628,3.83911z" fill="#000000" stroke="none" stroke-width="0.5" stroke-linecap="butt"/><path d="M208.14573,91.34459c0,0.22092 -0.44771,0.4 -1,0.4c-0.55229,0 -1,-0.17909 -1,-0.4c0,-0.22092 0.44771,-0.4 1,-0.4c0.55229,0 1,0.17908 1,0.4z" fill="#000000" stroke="none" stroke-width="0" stroke-linecap="butt"/><path d="M279.56192,82.61679c0.01221,-0.23449 0.0304,-0.46421 0.05709,-0.69618h-0.08021v-0.8c0,-0.27614 0.22386,-0.5 0.5,-0.5c0.13807,0 0.26308,0.05597 0.35356,0.14644l0.4,0.4c1.99911,2.10319 5.60395,-0.16615 7.6465,-0.70473c2.81277,-1.82279 6.01402,0.48161 4.44911,3.67796c-0.77371,1.58031 -2.79814,1.50789 -4.27569,2.04926c-1.26328,0.46287 -2.13781,1.65501 -2.81948,2.74806c-0.90951,1.45109 -1.97106,6.15216 -3.97319,6.08263c-2.52828,-0.08781 0.0583,-3.51712 -1.24367,-4.2743c-1.07491,-0.62514 -3.78088,0.27543 -5.12848,-0.16339c-1.55474,-0.77678 -4.35344,-3.04172 -1.62833,-4.5111c1.26912,-0.68431 3.06362,0.11599 4.15681,-0.57617c0.95593,-0.60525 0.88585,-1.59656 1.18853,-2.53279c0,0 0.10426,-0.3128 0.39746,-0.34571z" fill="#000000" stroke="none" stroke-width="0.5" stroke-linecap="butt"/><path d="M281.8388,79.32062c0,0.44183 -0.40294,0.8 -0.9,0.8c-0.49705,0 -0.9,-0.35817 -0.9,-0.8c0,-0.44183 0.40295,-0.8 0.9,-0.8c0.49705,0 0.9,0.35817 0.9,0.8z" fill="#000000" stroke="none" stroke-width="0" stroke-linecap="butt"/><g><path d="M260.55361,83.3781c0,2.24925 -11.07821,9.21423 -21.10211,9.34039c-11.44671,0.14406 -22.02851,-6.86531 -22.02851,-9.34039c0,-0.03541 10.63066,2.36217 21.45122,2.36075c10.74449,-0.00141 21.6794,-2.4021 21.6794,-2.36075z" fill="url(#color-6)" stroke="none" stroke-width="0" stroke-linecap="butt"/><path d="M255.36197,87.5967l-3.76537,-2.07287l-4.67819,5.44128l-7.53074,-4.92307l-6.27563,5.44129l-5.3628,-5.95951l-4.56408,2.93657" fill="none" stroke="#000000" stroke-width="0.5" stroke-linecap="round"/></g></g></g></svg>