<svg version="1.1" xmlns="http://www.w3.org/2000/svg" xmlns:xlink="http://www.w3.org/1999/xlink" width="143.8419" height="285.17667" viewBox="0,0,143.8419,285.17667"><defs><linearGradient x1="239.99979" y1="175.91989" x2="239.99979" y2="307.91989" gradientUnits="userSpaceOnUse" id="color-1"><stop offset="0" stop-color="#000000"/><stop offset="1" stop-color="#ff80c9"/></linearGradient><linearGradient x1="227.26588" y1="28.92293" x2="232.06527" y2="127.81344" gradientUnits="userSpaceOnUse" id="color-2"><stop offset="0" stop-color="#000000"/><stop offset="1" stop-color="#8cefef"/></linearGradient><linearGradient x1="232.33702" y1="78.40194" x2="238.18298" y2="198.85683" gradientUnits="userSpaceOnUse" id="color-3"><stop offset="0" stop-color="#000000"/><stop offset="1" stop-color="#8cefef"/></linearGradient><linearGradient x1="250.10366" y1="76.27627" x2="250.28295" y2="79.97041" gradientUnits="userSpaceOnUse" id="color-4"><stop offset="0" stop-color="#000000"/><stop offset="1" stop-color="#000000"/></linearGradient><linearGradient x1="196.00736" y1="49.37499" x2="202.31531" y2="179.34906" gradientUnits="userSpaceOnUse" id="color-5"><stop offset="0" stop-color="#000000"/><stop offset="1" stop-color="#ff80c9"/></linearGradient><linearGradient x1="200.87236" y1="78.33183" x2="201.03401" y2="81.66255" gradientUnits="userSpaceOnUse" id="color-6"><stop offset="0" stop-color="#000000"/><stop offset="1" stop-color="#ce52af"/></linearGradient><linearGradient x1="201.36516" y1="79.21769" x2="201.54045" y2="82.82972" gradientUnits="userSpaceOnUse" id="color-7"><stop offset="0" stop-color="#000000"/><stop offset="1" stop-color="#000000"/></linearGradient><linearGradient x1="204.7523" y1="78.47728" x2="204.93159" y2="82.17142" gradientUnits="userSpaceOnUse" id="color-8"><stop offset="0" stop-color="#000000"/><stop offset="1" stop-color="#000000"/></linearGradient><linearGradient x1="206.2901" y1="97.02742" x2="206.45176" y2="100.35814" gradientUnits="userSpaceOnUse" id="color-9"><stop offset="0" stop-color="#000000"/><stop offset="1" stop-color="#ce52af"/></linearGradient><linearGradient x1="205.6567" y1="97.11215" x2="205.91593" y2="102.45355" gradientUnits="userSpaceOnUse" id="color-10"><stop offset="0" stop-color="#000000"/><stop offset="1" stop-color="#000000"/></linearGradient><linearGradient x1="263.31001" y1="47.10981" x2="269.71491" y2="179.08154" gradientUnits="userSpaceOnUse" id="color-11"><stop offset="0" stop-color="#000000"/><stop offset="1" stop-color="#ff80c9"/></linearGradient><linearGradient x1="261.29368" y1="76.84931" x2="261.45782" y2="80.23122" gradientUnits="userSpaceOnUse" id="color-12"><stop offset="0" stop-color="#000000"/><stop offset="1" stop-color="#ce52af"/></linearGradient><linearGradient x1="260.88967" y1="77.79267" x2="261.06766" y2="81.46021" gradientUnits="userSpaceOnUse" id="color-13"><stop offset="0" stop-color="#000000"/><stop offset="1" stop-color="#000000"/></linearGradient><linearGradient x1="257.4463" y1="77.3749" x2="257.62833" y2="81.12583" gradientUnits="userSpaceOnUse" id="color-14"><stop offset="0" stop-color="#000000"/><stop offset="1" stop-color="#000000"/></linearGradient><linearGradient x1="257.72592" y1="96.27237" x2="257.89005" y2="99.65428" gradientUnits="userSpaceOnUse" id="color-15"><stop offset="0" stop-color="#000000"/><stop offset="1" stop-color="#ce52af"/></linearGradient><linearGradient x1="258.36459" y1="96.29619" x2="258.62781" y2="101.71968" gradientUnits="userSpaceOnUse" id="color-16"><stop offset="0" stop-color="#000000"/><stop offset="1" stop-color="#000000"/></linearGradient><linearGradient x1="230.5394" y1="71.82157" x2="231.9503" y2="100.89303" gradientUnits="userSpaceOnUse" id="color-17"><stop offset="0" stop-color="#000000"/><stop offset="1" stop-color="#e3e854"/></linearGradient><linearGradient x1="236.00455" y1="139.7669" x2="236.37033" y2="158.76338" gradientUnits="userSpaceOnUse" id="color-18"><stop offset="0" stop-color="#000000" stop-opacity="0"/><stop offset="1" stop-color="#000000"/></linearGradient></defs><g transform="translate(-161.87331,-28.8557)"><g data-paper-data="{&quot;isPaintingLayer&quot;:true}" fill-rule="nonzero" stroke-linejoin="miter" stroke-miterlimit="10" stroke-dasharray="" stroke-dashoffset="0" style="mix-blend-mode: normal"><path d="M179.28348,314.03237v-267.22501h123.18203v267.22501z" fill-opacity="0.01" fill="#000000" stroke="none" stroke-width="0" stroke-linecap="butt"/><path d="M206.7498,307.91988l15.14285,-131.8421l37.78325,-0.15789l13.57389,132z" fill="url(#color-1)" stroke="none" stroke-width="0" stroke-linecap="butt"/><path d="M232.06527,127.81344c-29.0916,1.41188 -53.74941,-19.58094 -55.07472,-46.8888c-1.32532,-27.30785 21.18373,-50.58981 50.27532,-52.0017c29.09161,-1.41188 53.74941,19.58095 55.07472,46.8888c1.32531,27.30786 -21.18372,50.58981 -50.27532,52.0017z" fill="url(#color-2)" stroke="none" stroke-width="0" stroke-linecap="butt"/><g stroke="none" stroke-width="0" stroke-linecap="butt"><path d="M171.09851,141.74329c-1.61431,-33.2627 25.80311,-61.62159 61.23852,-63.34135c35.43541,-1.71976 65.47016,23.85084 67.08448,57.11353c1.61431,33.2627 -25.80311,61.62159 -61.23852,63.34135c-35.43541,1.71976 -65.47016,-23.85084 -67.08448,-57.11353z" fill="url(#color-3)"/><path d="M212.99376,89.94153c0.98649,1.55432 -2.24589,5.37341 -7.21974,8.5302c-4.97384,3.15678 -9.80565,4.45583 -10.79214,2.90149c-0.98649,-1.55432 2.2459,-5.37342 7.21974,-8.53021c4.97384,-3.15678 9.80565,-4.45582 10.79213,-2.90148z" fill="#d4f0f0"/><path d="M223.62497,87.69609c0.0714,1.47103 -1.06324,2.7214 -2.53427,2.7928c-1.47103,0.0714 -2.7214,-1.06324 -2.7928,-2.53426c-0.0714,-1.47103 1.06324,-2.72141 2.53425,-2.79281c1.47103,-0.0714 2.72141,1.06324 2.79281,2.53426z" fill="#d4f0f0"/></g><path d="M184.65359,141.51543c-0.62862,-12.95275 9.36205,-23.96265 22.31481,-24.59128c12.95275,-0.62862 23.96265,9.36205 24.59128,22.31481c0.62862,12.95275 -9.36205,23.96265 -22.31481,24.59128c-12.95275,0.62862 -23.96265,-9.36205 -24.59128,-22.31481z" fill="#ff0000" stroke="none" stroke-width="0" stroke-linecap="butt"/><path d="M263.4395,161.20001c-12.95275,0.62862 -23.96265,-9.36205 -24.59128,-22.31481c-0.62862,-12.95275 9.36205,-23.96265 22.31481,-24.59128c12.95275,-0.62862 23.96265,9.36205 24.59128,22.31481c0.62862,12.95275 -9.36205,23.96265 -22.31481,24.59128z" data-paper-data="{&quot;index&quot;:null}" fill="#ff0000" stroke="none" stroke-width="0" stroke-linecap="butt"/><path d="M259.26453,99.24747c-3.96959,-0.73078 -11.99534,-0.28093 -11.99534,-0.28093c0,0 7.14554,-2.24272 12.28572,-1.29645c5.14017,0.94627 12.09181,5.7842 12.09181,5.7842c0,0 -8.23383,-3.44313 -12.38221,-4.20682z" data-paper-data="{&quot;index&quot;:null}" fill="#000000" stroke="none" stroke-width="0" stroke-linecap="butt"/><path d="M180.86605,138.7959l3.72181,2.42243" fill="none" stroke="#000000" stroke-width="2" stroke-linecap="round"/><path d="M289.2899,132.53263l-4.03025,3.5996" fill="none" stroke="#000000" stroke-width="2" stroke-linecap="round"/><path d="M209.69115,93.13214c1.88734,2.58821 -0.88752,7.82547 -6.19779,11.69775c-5.31028,3.87229 -11.14509,4.91324 -13.03243,2.32503c-1.88734,-2.58821 0.88752,-7.82547 6.1978,-11.69775c5.31028,-3.87228 11.14509,-4.91324 13.03243,-2.32503z" fill="#ecfefe" stroke="none" stroke-width="0" stroke-linecap="butt"/><path d="M217.71364,90.17682c0.06693,1.37909 -0.90736,2.54697 -2.17611,2.60855c-1.26876,0.06158 -2.35156,-1.00648 -2.41849,-2.38556c-0.06693,-1.37909 0.90735,-2.54698 2.17611,-2.60855c1.26876,-0.06158 2.35156,1.00648 2.41849,2.38556z" fill="#ecfefe" stroke="none" stroke-width="0" stroke-linecap="butt"/><path d="M195.63798,107.14317c0,0 6.45048,-5.48836 11.47487,-6.92794c5.02439,-1.43959 12.35353,0.10065 12.35353,0.10065c0,0 -8.03159,0.32944 -11.91176,1.44119c-4.05493,1.16182 -11.91664,5.3861 -11.91664,5.3861z" fill="#000000" stroke="none" stroke-width="0" stroke-linecap="butt"/><path d="M251.05785,76.22995l-1.72912,3.78675" fill="url(#color-4)" stroke="none" stroke-width="2" stroke-linecap="round"/><path d="M200.43324,167.26848l0.51238,-3.19525" fill="none" stroke="#000000" stroke-width="2" stroke-linecap="round"/><path d="M219.41898,166.51391l-0.22622,-4.66117" fill="none" stroke="#000000" stroke-width="2" stroke-linecap="round"/><path d="M251.46384,159.78596l-0.10672,4.67733" fill="none" stroke="#000000" stroke-width="2" stroke-linecap="round"/><path d="M271.4033,160.22231l0.94198,4.67411" fill="none" stroke="#000000" stroke-width="2" stroke-linecap="round"/><path d="M185.3132,146.63263c0.42439,-0.00693 44.71573,-2.16051 45.85506,-2.31976c-0.85919,10.57049 -10.03044,19.17105 -21.6278,19.73389c-4.54474,0.22057 -11.73673,-1.55863 -15.64869,-4.64932c-6.4909,-5.12818 -8.57858,-12.76481 -8.57858,-12.76481z" data-paper-data="{&quot;index&quot;:null}" fill="#ff4242" stroke="none" stroke-width="2" stroke-linecap="butt"/><path d="M191.69731,140.8976c-0.44249,-9.11735 6.58987,-16.86712 15.70721,-17.3096c9.11735,-0.44249 16.86712,6.58988 17.30961,15.70722c0.44249,9.11735 -6.58988,16.86712 -15.70722,17.30961c-9.11735,0.44249 -16.86711,-6.58987 -17.3096,-15.70722z" fill="#000000" stroke="none" stroke-width="0" stroke-linecap="butt"/><path d="M278.39678,155.09599c-3.59429,3.45498 -10.58018,5.92227 -15.12492,6.14283c-11.59736,0.56285 -21.55836,-7.10918 -23.43712,-17.54678c1.1494,0.04817 45.44114,-2.0974 45.8642,-2.1316c0,0 -1.33836,7.80291 -7.30215,13.53555z" data-paper-data="{&quot;index&quot;:null}" fill="#ff4242" stroke="none" stroke-width="2" stroke-linecap="butt"/><path d="M262.97668,153.98554c-9.11734,0.44249 -16.86711,-6.58987 -17.3096,-15.70722c-0.44249,-9.11735 6.58988,-16.86712 15.70721,-17.3096c9.11734,-0.44249 16.86711,6.58987 17.3096,15.70722c0.44249,9.11735 -6.58988,16.86712 -15.70721,17.3096z" data-paper-data="{&quot;index&quot;:null}" fill="#000000" stroke="none" stroke-width="0" stroke-linecap="butt"/><g stroke="none" stroke-width="0"><path d="M232.83989,81.70836c0.00862,0.17765 -20.49684,42.72244 -22.0351,43.41654c-0.10632,0.04797 -23.55475,50.13136 -34.08061,55.39372c-3.33809,1.66887 -8.76146,-20.53416 -9.30481,-23.24862c-4.7263,-23.61189 -2.47244,-62.63483 -2.10278,-68.65351c0.5575,-9.07684 3.24995,-18.05959 4.57896,-20.98168c5.13684,-11.2944 13.58554,-17.65188 21.38692,-18.03049c10.28397,-0.49911 19.89301,9.18353 28.25933,17.80376c6.59551,6.79567 13.21766,12.64312 13.29809,14.3003z" fill="url(#color-5)" stroke-linecap="butt"/><path d="M203.84169,78.29472c0.01441,0.29676 1.89018,3.13984 -0.02616,3.23283c-1.91633,0.09301 -6.57503,-1.95672 -6.58942,-2.25348c-0.01441,-0.29676 1.52742,-0.61273 3.44376,-0.70572c1.91633,-0.09301 3.15742,-0.57039 3.17182,-0.27363z" data-paper-data="{&quot;index&quot;:null}" fill="url(#color-6)" stroke-linecap="butt"/><path d="M196.69458,79.44434l9.51645,3.1587" fill="url(#color-7)" stroke-linecap="round"/><path d="M203.79811,78.5236l2.08769,3.60151" fill="url(#color-8)" stroke-linecap="round"/><path d="M206.22732,100.14235c-1.91634,0.09301 -3.48151,-0.07217 -3.49591,-0.36893c-0.01441,-0.29676 4.4239,-2.78799 6.34024,-2.88099c1.91634,-0.09301 0.32469,2.91835 0.33909,3.21512c0.01441,0.29676 -1.26709,-0.0582 -3.18342,0.03481z" data-paper-data="{&quot;index&quot;:null}" fill="url(#color-9)" stroke-linecap="butt"/><path d="M201.16143,100.95086l9.16584,-4.06539l-2.34634,5.46786" data-paper-data="{&quot;index&quot;:null}" fill="url(#color-10)" stroke-linecap="round"/></g><path d="M211.12208,140.69693c0.05546,1.14268 -0.85785,2.1155 -2.03992,2.17287c-1.18208,0.05737 -2.1853,-0.82245 -2.24075,-1.96512c-0.05546,-1.14268 0.85785,-2.1155 2.03992,-2.17287c1.18208,-0.05737 2.1853,0.82245 2.24075,1.96512z" fill="#ff0000" stroke="none" stroke-width="0" stroke-linecap="butt"/><path d="M264.68392,138.02117c0.05546,1.14268 -0.85785,2.1155 -2.03992,2.17287c-1.18208,0.05737 -2.18529,-0.82244 -2.24074,-1.96512c-0.05546,-1.14268 0.85785,-2.1155 2.03991,-2.17287c1.18208,-0.05737 2.1853,0.82245 2.24075,1.96512z" fill="#ff0000" stroke="none" stroke-width="0" stroke-linecap="butt"/><g data-paper-data="{&quot;index&quot;:null}" stroke="none" stroke-width="0"><path d="M229.80703,83.38116c-0.08166,-1.68265 5.93854,-8.23848 11.83968,-15.75001c7.48553,-9.52829 16.10422,-20.25155 26.38818,-20.75065c7.80139,-0.37862 16.83044,5.22202 23.04508,16.13527c1.60785,2.82348 5.1641,11.63902 6.60468,20.75798c0.95523,6.0466 7.00628,45.26457 4.60644,69.58875c-0.27589,2.79635 -3.50699,25.76469 -6.99212,24.40382c-10.98953,-4.2912 -39.21409,-52.61904 -39.32459,-52.65714c-1.59872,-0.55137 -26.15862,-41.54764 -26.16738,-41.72801z" fill="url(#color-11)" stroke-linecap="butt"/><path d="M261.5183,77.06858c1.91634,-0.09301 3.4817,0.07587 3.49631,0.37719c0.01463,0.30132 -4.422,2.82744 -6.33832,2.92045c-1.91634,0.09301 -0.32687,-2.96334 -0.3415,-3.26466c-0.01463,-0.30132 1.26718,0.06002 3.18351,-0.03298z" data-paper-data="{&quot;index&quot;:null}" fill="url(#color-12)" stroke-linecap="butt"/><path d="M265.56024,77.56598l-9.16315,4.1209" fill="url(#color-13)" stroke-linecap="round"/><path d="M256.67414,81.17212l1.72636,-3.84353" fill="url(#color-14)" stroke-linecap="round"/><path d="M254.92063,99.68975c-0.01463,-0.30132 -1.89258,-3.18938 0.02375,-3.28239c1.91634,-0.09301 6.57671,1.99162 6.59134,2.29294c0.01463,0.30132 -1.52702,0.62098 -3.44336,0.71399c-1.91633,0.09301 -3.15711,0.57679 -3.17173,0.27546z" data-paper-data="{&quot;index&quot;:null}" fill="url(#color-15)" stroke-linecap="butt"/><path d="M256.56281,101.8199l-2.86879,-5.29704l9.51913,3.21421" data-paper-data="{&quot;index&quot;:null}" fill="url(#color-16)" stroke-linecap="round"/></g><path d="M248.67452,186.2579c0.17015,3.5059 -21.80398,4.57236 -21.97414,1.06646c-0.17015,-3.5059 4.611,-6.58673 10.67899,-6.88123c6.06799,-0.2945 11.12501,2.30888 11.29515,5.81477z" fill="#000000" stroke="none" stroke-width="0" stroke-linecap="butt"/><path d="M207.40725,165.84992l-3.02418,-0.42533" fill="none" stroke="#000000" stroke-width="0.5" stroke-linecap="round"/><path d="M206.17152,166.91106l-1.44074,-0.21613" fill="none" stroke="#000000" stroke-width="0.5" stroke-linecap="round"/><path d="M269.24098,161.6571l-2.12373,0.93738" fill="none" stroke="#000000" stroke-width="0.5" stroke-linecap="round"/><path d="M269.65471,163.30565l-1.29136,0.89699" fill="none" stroke="#000000" stroke-width="0.5" stroke-linecap="round"/><path d="M162.43196,137.52927c-0.29344,-1.10366 -1.19365,-4.47132 0.19348,-5.30369c0.16867,-0.10122 0.34945,-0.10127 0.53546,-0.0449l-0.01397,-0.28786c-0.02008,-0.41372 0.29904,-0.7654 0.71276,-0.78547c0.41372,-0.02008 0.7654,0.29904 0.78547,0.71276l0.04076,0.83986c0.03887,-0.00681 0.08032,-0.01143 0.12449,-0.01357c0.29129,-0.01413 0.47481,0.09049 0.59033,0.22366c0.03329,0.00313 0.06792,0.00818 0.10398,0.01537c0.33879,0.06744 0.49047,0.25985 0.55555,0.44782c2.37449,0.45127 3.32459,-4.09292 5.68162,-2.09108c1.34103,1.13894 0.86225,3.18084 0.72702,4.64241c-0.25998,2.80997 -1.41898,5.47522 -2.37645,8.14011c-0.68173,2.0635 -0.27001,4.23271 -0.16455,6.39354c0.0354,0.72539 -0.33806,1.59051 0.09041,2.17691c0.33454,0.45784 1.072,-0.4486 1.47496,-0.84754c3.38815,-3.35431 4.03897,-10.0442 4.81256,-14.52599c0.31358,-5.16387 0.64607,-12.39794 3.58273,-16.77274c2.54919,-3.79757 7.32028,-6.19986 8.90689,-0.3548c1.05407,3.12482 1.51096,6.70028 2.1612,9.92778c0.14011,0.6954 -0.18584,1.30402 0.35928,1.88541c0.20848,0.22235 0.47957,-0.38157 0.68066,-0.61063c0.48711,-0.55484 0.68556,-1.30876 1.06505,-1.94207c1.34319,-2.24157 2.95598,-4.78044 5.51578,-5.59986c5.41139,-0.26263 1.0018,8.87539 2.50188,12.20707c0.15882,0.35275 0.49335,-0.63253 0.84336,-0.79732c0.46996,-0.22125 2.07789,-0.72359 2.57614,-0.21957c0.35813,0.36228 0.34535,1.00567 0.25453,1.50693c-0.24758,1.36659 -1.16811,3.76656 -1.76225,5.11448c-0.87958,4.30802 -4.10199,7.81009 -5.99135,11.66137c-2.01568,4.10879 -3.7409,8.41212 -6.68547,12.00619c-2.52719,4.62729 -4.65707,9.22757 -8.23564,13.1596c-0.74651,0.82025 -1.34647,2.15969 -2.29605,2.74546c-2.14273,1.32179 -5.9595,0.47433 -6.89179,-1.79226c-3.71337,-6.64044 -4.98256,-13.95232 -6.83225,-21.32413c-0.68953,-2.47407 -0.93625,-5.10316 -1.0468,-7.7499c-0.84196,-4.25083 -1.46886,-8.5649 -2.57981,-12.74332zM163.333,135.41144c-0.00337,-0.05469 -0.0067,-0.10939 -0.01002,-0.16409c-0.08376,-0.45629 -0.13215,-0.87557 -0.0731,-1.28536c-0.00488,-0.09137 -0.0097,-0.18275 -0.01447,-0.2741c-0.11643,0.46564 -0.04894,1.07595 0.09758,1.72355z" fill="#000000" stroke="none" stroke-width="0.5" stroke-linecap="butt"/><path d="M304.11617,147.27594c0.14627,2.64502 0.15532,5.28564 -0.29141,7.81485c-1.12713,7.51628 -1.68232,14.91671 -4.73519,21.88553c-0.70841,2.34622 -4.42519,3.5593 -6.68584,2.45122c-1.00184,-0.49105 -1.72867,-1.7661 -2.55112,-2.51022c-3.94252,-3.56701 -6.50786,-7.93942 -9.47126,-12.30024c-3.27877,-3.29203 -5.41262,-7.40806 -7.81669,-11.30235c-2.25342,-3.65023 -5.79982,-6.8238 -7.09244,-11.0264c-0.72185,-1.28405 -1.87048,-3.5836 -2.24923,-4.91979c-0.13892,-0.49012 -0.21397,-1.12922 0.10741,-1.5245c0.44709,-0.5499 2.09611,-0.20563 2.58528,-0.03092c0.36433,0.13012 0.79269,1.0784 0.91661,0.71191c1.1704,-3.46128 -4.10337,-12.12935 1.30803,-12.39198c2.62711,0.56767 4.47818,2.93844 6.03213,5.03941c0.43905,0.59359 0.70956,1.32476 1.24811,1.82981c0.22233,0.20851 0.55062,0.78334 0.73659,0.54184c0.48626,-0.63144 0.10291,-1.20563 0.17501,-1.91134c0.33464,-3.27531 0.44314,-6.8782 1.18968,-10.09041c1.01314,-5.97123 5.99444,-4.04224 8.8994,-0.50939c3.3465,4.06985 4.37794,11.23773 5.1901,16.34697c1.20396,4.38582 2.49954,10.98125 6.19659,13.99168c0.4397,0.35805 1.26147,1.18882 1.5501,0.70074c0.36967,-0.62513 -0.08581,-1.45002 -0.12082,-2.17544c-0.10426,-2.1609 0.09546,-4.35978 -0.7829,-6.34756c-1.21102,-2.55966 -2.62269,-5.10014 -3.15354,-7.87172c-0.27613,-1.4416 -0.95038,-3.42754 0.27405,-4.691c2.1521,-2.22067 3.53778,2.21016 5.85741,1.53107c0.04656,-0.19339 0.17891,-0.39958 0.50957,-0.49951c0.03519,-0.01064 0.06919,-0.01903 0.102,-0.02537c0.10208,-0.14373 0.27461,-0.26563 0.56589,-0.27976c0.04416,-0.00214 0.08587,-0.00155 0.12522,0.00145l-0.04076,-0.83986c-0.02008,-0.41372 0.29903,-0.7654 0.71276,-0.78547c0.41373,-0.02008 0.7654,0.29904 0.78547,0.71276l0.01397,0.28786c0.17968,-0.07411 0.35962,-0.09157 0.53729,-0.00716c1.46123,0.69414 0.89135,4.13313 0.70617,5.26002c-0.70111,4.26637 -0.9073,8.62088 -1.33367,12.93327zM304.27815,130.59716c0.00411,0.09139 0.00816,0.1828 0.01215,0.27422c0.09846,0.40215 0.0909,0.82415 0.05171,1.2864c0.002,0.05476 0.00397,0.10952 0.00591,0.16428c0.08311,-0.65875 0.09118,-1.27272 -0.06979,-1.7249z" data-paper-data="{&quot;index&quot;:null}" fill="#000000" stroke="none" stroke-width="0.5" stroke-linecap="butt"/><path d="M251.86383,85.30574c0.5216,10.74743 -7.09685,14.96528 -19.78934,15.58127c-12.69247,0.61599 -20.92708,-2.73069 -21.44868,-13.47812c-0.5216,-10.74743 7.22108,-14.97131 19.91356,-15.58732c12.69247,-0.61599 20.80287,2.73673 21.32447,13.48417z" fill="url(#color-17)" stroke="none" stroke-width="0" stroke-linecap="butt"/><path d="M237.90097,188.46166c0.37532,-1.73215 4.84443,-2.4949 6.85103,-2.78216l0.21859,-0.12289c0.03381,-0.01995 0.07284,-0.03221 0.11478,-0.03424c0.1379,-0.0067 0.25514,0.09968 0.26182,0.23758c0.0029,0.05973 -0.01541,0.11559 -0.04832,0.16026l-0.21763,0.30086c-0.6413,1.83462 -0.69907,3.37393 -0.45743,5.30057c0.67931,3.11635 1.79249,4.32112 4.00927,6.00078l0.00527,-0.0153l0.31268,0.10781c0.09656,0.03081 0.16853,0.11894 0.17373,0.22613c0.0067,0.1379 -0.09968,0.25514 -0.23758,0.26182l-0.23422,0.01137c-0.47129,0.10195 -0.94876,0.16518 -1.42453,0.25622c-2.32391,0.10908 -5.53922,1.33539 -7.86411,0.78081l0.00191,0.0394l-0.2497,0.01212c-0.1379,0.0067 -0.25514,-0.09968 -0.26182,-0.23758c-0.00577,-0.11884 0.07242,-0.22231 0.18239,-0.25294l0.24168,-0.07304l0.00076,0.00251l0.00495,-0.00417c2.11712,-0.50271 1.50854,-3.82674 0.93211,-5.30584c-0.41779,-1.66471 -2.45664,-5.62538 -4.65098,-5.40757c0,0 -0.2497,0.01212 -0.26182,-0.23758c-0.01212,-0.2497 0.23758,-0.26182 0.23758,-0.26182c0.84588,-0.01508 1.64804,0.40067 2.35961,1.03691z" fill="#000000" stroke="none" stroke-width="0.5" stroke-linecap="butt"/><path d="M246.86833,192.82562c0.02069,0.42627 -0.28777,0.78761 -0.68896,0.80708c-0.40119,0.01947 -0.74318,-0.3103 -0.76387,-0.73656c-0.02069,-0.42627 0.28777,-0.78761 0.68896,-0.80708c0.40119,-0.01947 0.74318,0.3103 0.76387,0.73656z" fill="#000000" stroke="none" stroke-width="0" stroke-linecap="butt"/><path d="M221.23856,160.72171c0,0 7.07158,-6.83321 8.97343,-10.66926c1.45206,-2.92883 1.45684,-10.36877 1.45684,-10.36877c0,0 7.57028,-1.02058 6.8856,-0.78144c-0.85606,0.299 0.72515,6.53218 3.8382,11.88732c2.82003,4.85109 8.49106,8.52785 8.49106,8.52785c0,0 -9.70827,-4.04807 -14.56022,-3.81823c-5.02378,0.23798 -15.0849,5.22253 -15.0849,5.22253z" fill="url(#color-18)" stroke="none" stroke-width="0" stroke-linecap="butt"/></g></g></svg>