<svg version="1.1" xmlns="http://www.w3.org/2000/svg" xmlns:xlink="http://www.w3.org/1999/xlink" width="192.66079" height="467.46992" viewBox="0,0,192.66079,467.46992"><defs><linearGradient x1="240.9548" y1="119.28918" x2="240.9548" y2="204.90061" gradientUnits="userSpaceOnUse" id="color-1"><stop offset="0" stop-color="#909090"/><stop offset="1" stop-color="#000000"/></linearGradient><linearGradient x1="260.88741" y1="-105.04339" x2="308.26126" y2="-55.25221" gradientUnits="userSpaceOnUse" id="color-2"><stop offset="0" stop-color="#000000"/><stop offset="1" stop-color="#909090"/></linearGradient><linearGradient x1="242.37942" y1="69.2336" x2="242.37942" y2="101.62417" gradientUnits="userSpaceOnUse" id="color-3"><stop offset="0" stop-color="#000000"/><stop offset="1" stop-color="#909090"/></linearGradient><linearGradient x1="310.58783" y1="-3.7875" x2="323.18396" y2="69.66764" gradientUnits="userSpaceOnUse" id="color-4"><stop offset="0" stop-color="#000000"/><stop offset="1" stop-color="#909090"/></linearGradient><linearGradient x1="173.8102" y1="-3.18092" x2="167.29498" y2="71.06106" gradientUnits="userSpaceOnUse" id="color-5"><stop offset="0" stop-color="#000000"/><stop offset="1" stop-color="#909090"/></linearGradient><linearGradient x1="242.78346" y1="-25.35539" x2="242.78346" y2="44.95745" gradientUnits="userSpaceOnUse" id="color-6"><stop offset="0" stop-color="#000000"/><stop offset="1" stop-color="#909090"/></linearGradient><linearGradient x1="204.64635" y1="-48.83758" x2="212.67735" y2="-4.24005" gradientUnits="userSpaceOnUse" id="color-7"><stop offset="0" stop-color="#000000"/><stop offset="1" stop-color="#b2b2b2"/></linearGradient><linearGradient x1="280.44978" y1="-47.74466" x2="274.84602" y2="-2.88322" gradientUnits="userSpaceOnUse" id="color-8"><stop offset="0" stop-color="#000000"/><stop offset="1" stop-color="#b2b2b2"/></linearGradient><linearGradient x1="200.76251" y1="25.30812" x2="200.76251" y2="37.05811" gradientUnits="userSpaceOnUse" id="color-9"><stop offset="0" stop-color="#000000"/><stop offset="1" stop-color="#cecece"/></linearGradient><linearGradient x1="288.34668" y1="25.30812" x2="288.34668" y2="37.05811" gradientUnits="userSpaceOnUse" id="color-10"><stop offset="0" stop-color="#000000"/><stop offset="1" stop-color="#cecece"/></linearGradient><linearGradient x1="239.92312" y1="216.00665" x2="239.92312" y2="308.48922" gradientUnits="userSpaceOnUse" id="color-11"><stop offset="0" stop-color="#000000"/><stop offset="1" stop-color="#ffffff"/></linearGradient><linearGradient x1="239.83341" y1="104.1856" x2="239.83341" y2="218.11124" gradientUnits="userSpaceOnUse" id="color-12"><stop offset="0" stop-color="#414141"/><stop offset="1" stop-color="#000000"/></linearGradient><linearGradient x1="239.69817" y1="182.34112" x2="239.69817" y2="214.44674" gradientUnits="userSpaceOnUse" id="color-13"><stop offset="0" stop-color="#000000"/><stop offset="1" stop-color="#ffffff"/></linearGradient><linearGradient x1="239.82372" y1="163.55827" x2="239.82372" y2="178.9432" gradientUnits="userSpaceOnUse" id="color-14"><stop offset="0" stop-color="#000000" stop-opacity="0"/><stop offset="1" stop-color="#000000"/></linearGradient><linearGradient x1="241.21482" y1="115.65506" x2="241.21482" y2="133.85506" gradientUnits="userSpaceOnUse" id="color-15"><stop offset="0" stop-color="#000000"/><stop offset="1" stop-color="#afa0a0"/></linearGradient><linearGradient x1="247.63435" y1="120.47179" x2="243.60068" y2="137.95753" gradientTransform="translate(-524.74924,-201.10194) rotate(-17.14579) scale(2.03946,2.62305) skewX(-9.43171)" gradientUnits="userSpaceOnUse" id="color-16"><stop offset="0" stop-color="#000000"/><stop offset="1" stop-color="#adadad"/></linearGradient></defs><g transform="translate(-148.17641,112.73637)"><g data-paper-data="{&quot;isPaintingLayer&quot;:true}" fill-rule="nonzero" stroke-linejoin="miter" stroke-miterlimit="10" stroke-dasharray="" stroke-dashoffset="0" style="mix-blend-mode: normal"><g stroke="none" stroke-width="0" stroke-linecap="butt"><path d="M202.90515,354.73355c0,0 2.42585,-50.69804 2.42585,-77.06044c0,-28.47465 -2.42585,-87.93956 -2.42585,-87.93956h20.21538c0,0 -0.80862,59.33958 -0.80862,87.93956c0,26.18708 0.80862,77.06044 0.80862,77.06044z" fill="#000000"/><g><path d="M255.68977,350.73355c0,0 2.42584,-50.69805 2.42584,-77.06044c0,-28.47465 -2.42584,-87.93956 -2.42584,-87.93956h20.21539c0,0 -0.80862,59.33958 -0.80862,87.93956c0,26.18708 0.80862,77.06044 0.80862,77.06044z" fill="#000000"/><path d="M194.11322,204.90061c0,0 -17.25743,-42.01185 -17.25743,-43.60163c0,-0.68872 17.25743,-42.00981 17.25743,-42.00981c0,0 43.50168,-16.49804 46.0198,-16.49804c4.00035,0 47.66337,16.49804 47.66337,16.49804c0,0 13.55941,40.79269 13.55941,42.24569c0,1.64774 -13.55941,43.36575 -13.55941,43.36575c0,0 -46.92213,18.28161 -48.48515,18.28161c-0.40499,0 -45.19802,-18.28161 -45.19802,-18.28161z" fill="url(#color-1)"/></g></g><g stroke="none" stroke-width="0" stroke-linecap="butt"><path d="M241.08106,157.40824c0,0 48.94505,-56.72278 55.82174,-91.27486c7.42768,-37.32051 -12.78111,-124.98367 -12.78111,-124.98367l16.673,3.31833c0,0 20.33101,89.86586 12.87064,127.35065c-6.83095,34.32229 -55.91126,88.90789 -55.91126,88.90789z" fill="#000000"/><path d="M318.97436,-112.73637l10.36026,37.43036c0,0 -31.1424,29.73138 -32.6818,30.31904c-0.71542,0.27312 -44.40682,-0.39491 -44.40682,-0.39491l-16.77832,-35.47591z" data-paper-data="{&quot;index&quot;:null}" fill="url(#color-2)"/></g><path d="M230.40515,155.73353c0,0 2.16,-24.88813 2.16,-37.82967c0,-13.97846 -2.16,-43.17033 -2.16,-43.17033h18c0,0 -0.72,29.13034 -0.72,43.17033c0,12.85547 0.72,37.82967 0.72,37.82967z" fill="#000000" stroke="none" stroke-width="0" stroke-linecap="butt"/><g stroke-width="2" stroke-linecap="butt"><path d="M185.13339,70.77604l1.66666,-35.20704l111.00001,3.66667l1.66666,31.54037c0,0 -37.97231,11.17107 -57,11.17107c-19.08325,0 -57.33334,-11.17107 -57.33334,-11.17107z" fill="#000000" stroke="none"/><g data-paper-data="{&quot;index&quot;:null}" fill="#dddddd" stroke="#000000"><path d="M210.75527,74.59816l-16.52213,-0.20539l10.43951,-18.20018z"/><path d="M227.60755,76.18041l-17.51092,-1.90794l10.43952,-18.20019z"/><path d="M243.08129,77.76368l-17.51092,-1.90795l10.43951,-18.20019z"/></g><g data-paper-data="{&quot;index&quot;:null}" fill="#dddddd" stroke="#000000"><path d="M282.48898,56.19262l10.43952,18.20018l-16.52213,0.20538z"/><path d="M266.62547,56.07232l10.43951,18.2002l-17.51092,1.90794z"/><path d="M251.15175,57.65561l10.43951,18.20019l-17.51092,1.90795z"/></g><path d="M185.45258,69.23369c0.20838,-0.02056 34.70225,5.75873 57.24341,5.60336c17.83572,-0.12294 44.05563,-1.76503 54.9836,-4.39826c4.16454,-1.00351 -0.98179,18.69311 -0.98179,18.69311c0,0 -53.00359,12.49224 -54.00382,12.49224c-2.15222,0 -54.00382,-12.84915 -54.00382,-12.84915z" data-paper-data="{&quot;index&quot;:null}" fill="url(#color-3)" stroke="none"/></g><path d="M292.62459,-0.30915c7.61152,-4.68637 26.09577,10.87129 38.71863,28.05909c3.94713,5.37459 10.62387,17.36964 9.33027,26.70404c-1.2302,8.87697 -10.11494,15.24599 -18.49238,15.08249c-10.98486,-0.21436 -37.16805,-65.15924 -29.55652,-69.84561z" data-paper-data="{&quot;index&quot;:null}" fill="url(#color-4)" stroke="none" stroke-width="2" stroke-linecap="butt"/><path d="M191.99858,-1.19097c7.971,4.04482 -12.78486,70.92224 -23.71492,72.03887c-8.33565,0.85159 -17.71387,-4.76551 -19.66963,-13.51131c-2.05653,-9.19647 3.61156,-21.69977 7.10353,-27.38064c11.16723,-18.16729 28.31002,-35.19175 36.28103,-31.14694z" data-paper-data="{&quot;index&quot;:null}" fill="url(#color-5)" stroke="none" stroke-width="2" stroke-linecap="butt"/><path d="M244.29401,58.87731l-10.21416,-16.80819l17.57743,-0.37122z" fill="#dddddd" stroke="#000000" stroke-width="2" stroke-linecap="butt"/><g fill="#dddddd" stroke="#000000" stroke-width="2" stroke-linecap="butt"><path d="M196.6669,55.79802l-8.66557,-17.42374l16.41899,2.12957z"/><path d="M212.40176,58.12118l-8.66558,-17.42375l17.55919,0.77439z"/><path d="M227.90858,58.89558l-8.66558,-17.42375l17.55919,0.77439z"/></g><g data-paper-data="{&quot;index&quot;:null}" fill="#dddddd" stroke="#000000" stroke-width="2" stroke-linecap="butt"><path d="M283.04898,40.03924l16.41898,-2.12957l-8.66557,17.42375z"/><path d="M266.17393,41.00723l17.55919,-0.77439l-8.66559,17.42375z"/><path d="M250.66712,41.78161l17.55918,-0.77438l-8.66558,17.42374z"/></g><path d="M189.0235,-1.40643c0,0 51.8516,-23.949 54.00382,-23.949c1.00023,0 54.00382,23.28376 54.00382,23.28376l3.08319,43.89938c-2.00027,0.11648 -4.00806,0.18221 -5.99494,0.409c-3.46026,0.39768 -48.82969,2.72078 -52.32969,2.72078c-3.5,0 -48.7584,-3.59855 -52.10567,-4.08424c-0.98568,-0.14302 -2.6064,-0.60477 -4.23145,-0.90374z" fill="url(#color-6)" stroke="none" stroke-width="2" stroke-linecap="butt"/><path d="M252.42541,24.4025c0,1.73991 -4.27293,3.15039 -9.54383,3.15039c-5.27092,0 -9.54382,-1.41047 -9.54382,-3.15039c0,-1.73991 4.11647,-7.04205 9.38738,-7.04205c5.27092,0 9.70028,5.30214 9.70028,7.04205z" fill="#000000" stroke="none" stroke-width="NaN" stroke-linecap="butt"/><path d="M242.59527,42.97042l-0.33333,-19" fill="none" stroke="#000000" stroke-width="2" stroke-linecap="round"/><path d="M213.19621,-50.33278c5.9447,0.14166 12.92442,26.7257 9.49573,39.67822c-1.15259,4.35417 -9.18343,6.57621 -11.18184,6.5286c-1.80886,-0.04312 -13.55181,-2.20738 -14.40176,-5.9319c-2.88245,-12.63093 9.95355,-40.42111 16.08784,-40.27492z" data-paper-data="{&quot;index&quot;:null}" fill="url(#color-7)" stroke="none" stroke-width="2" stroke-linecap="butt"/><path d="M271.47561,-48.81568c6.11101,-0.55355 20.76562,26.32208 18.72901,39.11666c-0.60053,3.77277 -12.1737,6.7127 -13.97567,6.87594c-1.99081,0.18034 -10.15158,-1.50307 -11.59102,-5.77101c-4.28193,-12.69602 0.91552,-39.68512 6.83768,-40.22158z" data-paper-data="{&quot;index&quot;:null}" fill="url(#color-8)" stroke="none" stroke-width="2" stroke-linecap="butt"/><path d="M211.81023,14.98907c-12.25653,3.06267 -23.72357,-0.58208 -25.61233,-8.14075c-1.88876,-7.55867 6.51599,-16.16897 18.77251,-19.23163c12.25653,-3.06266 23.72357,0.58207 25.61233,8.14074c1.88876,7.55866 -6.51598,16.16897 -18.77251,19.23164z" data-paper-data="{&quot;index&quot;:null}" fill="#ff0000" stroke="none" stroke-width="2" stroke-linecap="butt"/><path d="M255.69181,-4.05718c1.88876,-7.55867 13.35579,-11.2034 25.61231,-8.14076c12.25654,3.06266 20.66127,11.67296 18.77251,19.23164c-1.88876,7.55868 -13.35579,11.20343 -25.61231,8.14075c-12.25653,-3.06267 -20.66127,-11.67296 -18.77251,-19.23162z" data-paper-data="{&quot;index&quot;:null}" fill="#ff0000" stroke="none" stroke-width="2" stroke-linecap="butt"/><path d="M208.26251,31.18312c0,0.35992 0.43305,5.3711 0.31323,5.57529c-0.49273,0.83967 -2.37967,-4.03401 -3.68333,-2.21563c-1.23729,1.7258 -2.08667,6.76534 -3.8799,6.76534c-1.72297,0 -2.35351,-4.94047 -3.67039,-6.56455c-1.00299,-1.23697 -1.86829,1.62799 -2.67891,1.23212c-0.68373,-0.33391 -1.4007,-3.92552 -1.4007,-4.79256c0,-3.24468 3.35787,-5.875 7.5,-5.875c4.14213,0 7.5,2.63032 7.5,5.875z" fill="url(#color-9)" stroke="none" stroke-width="0" stroke-linecap="butt"/><path d="M288.34668,25.30812c4.14213,0 7.5,2.63032 7.5,5.875c0,0.92027 -0.77888,5.76518 -2.08093,5.73488c-0.86951,-0.02023 -2.24936,-5.12334 -2.76558,-4.303c-1.43627,2.28244 -0.7207,8.69312 -2.9035,8.69312c-1.79323,0 -2.64262,-5.03954 -3.8799,-6.76534c-1.30365,-1.81838 -3.1906,3.05531 -3.68333,2.21563c-0.11982,-0.20419 0.31323,-5.21537 0.31323,-5.57529c0,-3.24468 3.35787,-5.875 7.5,-5.875z" data-paper-data="{&quot;index&quot;:null}" fill="url(#color-10)" stroke="none" stroke-width="0" stroke-linecap="butt"/><path d="M211.67638,14.9689c-10.15932,2.53862 -19.77623,0.46884 -23.8455,-4.61845c1.43967,-0.81572 9.25486,-7.23202 19.1289,-11.1133c10.02656,-3.94123 22.10758,-5.34323 22.71619,-5.51346c0.33645,0.63552 0.59648,1.30746 0.77292,2.01357c1.88876,7.55866 -6.51598,16.16897 -18.77251,19.23164z" data-paper-data="{&quot;index&quot;:null}" fill="#ff8787" stroke="none" stroke-width="2" stroke-linecap="butt"/><path d="M209.73332,14.00448c-6.64888,1.66142 -12.86946,-0.31577 -13.89407,-4.41617c-1.02461,-4.10039 3.53477,-8.77128 10.18363,-10.4327c6.64888,-1.66142 12.86947,0.31577 13.89407,4.41617c1.02461,4.1004 -3.53477,8.77127 -10.18364,10.4327z" data-paper-data="{&quot;index&quot;:null}" fill="#000000" stroke="none" stroke-width="0" stroke-linecap="butt"/><path d="M255.49601,-3.86268c0.17644,-0.70611 0.43646,-1.37805 0.77291,-2.01357c0.60861,0.17022 12.68963,1.57222 22.71619,5.51346c9.87404,3.88127 17.68923,10.29757 19.1289,11.1133c-4.06928,5.08729 -13.68617,7.15707 -23.8455,4.61845c-12.25653,-3.06267 -20.66127,-11.67297 -18.77251,-19.23164z" data-paper-data="{&quot;index&quot;:null}" fill="#ff8787" stroke="none" stroke-width="2" stroke-linecap="butt"/><path d="M263.27765,3.32659c1.04913,-4.19857 7.41865,-6.22309 14.22671,-4.5219c6.80806,1.70119 11.47658,6.48391 10.42743,10.68249c-1.04913,4.19856 -7.41865,6.2231 -14.22671,4.5219c-6.80806,-1.70119 -11.47658,-6.4839 -10.42745,-10.68247z" data-paper-data="{&quot;index&quot;:null}" fill="#000000" stroke="none" stroke-width="0" stroke-linecap="butt"/><path d="M209.75533,6.75387c0,1.10457 -0.76112,2 -1.7,2c-0.93888,0 -1.7,-0.89543 -1.7,-2c0,-1.10457 0.76112,-2 1.7,-2c0.93888,0 1.7,0.89543 1.7,2z" fill="#ff0000" stroke="none" stroke-width="0" stroke-linecap="butt"/><path d="M277.28866,6.08719c0,1.10457 -0.76112,2 -1.7,2c-0.93888,0 -1.7,-0.89543 -1.7,-2c0,-1.10457 0.76112,-2 1.7,-2c0.93889,0 1.7,0.89543 1.7,2z" fill="#ff0000" stroke="none" stroke-width="0" stroke-linecap="butt"/><path d="M273.60004,80.9643c0,7.45584 -7.72309,13.5 -17.25,13.5c-9.52691,0 -17.25,-6.04416 -17.25,-13.5c0,-7.45584 7.72309,-13.5 17.25,-13.5c9.52691,0 17.25,6.04416 17.25,13.5z" fill="#a8a8a8" stroke="none" stroke-width="0" stroke-linecap="butt"/><path d="M280.10004,73.0893c0,3.24467 -2.91015,5.875 -6.5,5.875c-3.58985,0 -6.5,-2.63033 -6.5,-5.875c0,-3.24467 2.91015,-5.875 6.5,-5.875c3.58985,0 6.5,2.63033 6.5,5.875z" fill="#a8a8a8" stroke="none" stroke-width="0" stroke-linecap="butt"/><path d="M280.35004,80.9643c0,2.20914 -2.07068,4 -4.625,4c-2.55432,0 -4.625,-1.79086 -4.625,-4c0,-2.20914 2.07068,-4 4.625,-4c2.55432,0 4.625,1.79086 4.625,4z" fill="#a8a8a8" stroke="none" stroke-width="0" stroke-linecap="butt"/><path d="M281.60004,88.4643c0,0.69036 -0.95139,1.25 -2.125,1.25c-1.17361,0 -2.125,-0.55964 -2.125,-1.25c0,-0.69036 0.95139,-1.25 2.125,-1.25c1.17361,0 2.125,0.55964 2.125,1.25z" fill="#a8a8a8" stroke="none" stroke-width="0" stroke-linecap="butt"/><path d="M211.10004,42.9643c0,2.48528 -2.85418,4.5 -6.375,4.5c-3.52082,0 -6.375,-2.01472 -6.375,-4.5c0,-2.48528 2.85418,-4.5 6.375,-4.5c3.52082,0 6.375,2.01472 6.375,4.5z" fill="#a8a8a8" stroke="none" stroke-width="0" stroke-linecap="butt"/><path d="M201.60004,41.9643c0,1.10457 -1.11929,2 -2.5,2c-1.38071,0 -2.5,-0.89543 -2.5,-2c0,-1.10457 1.11929,-2 2.5,-2c1.38071,0 2.5,0.89543 2.5,2z" fill="#a8a8a8" stroke="none" stroke-width="0" stroke-linecap="butt"/><path d="M201.35004,38.2143c0,0.9665 -1.45507,1.75 -3.25,1.75c-1.79493,0 -3.25,-0.7835 -3.25,-1.75c0,-0.9665 1.45507,-1.75 3.25,-1.75c1.79493,0 3.25,0.7835 3.25,1.75z" fill="#a8a8a8" stroke="none" stroke-width="0" stroke-linecap="butt"/><path d="M211.35004,37.0893c0,2.41625 -1.567,4.375 -3.5,4.375c-1.933,0 -3.5,-1.95875 -3.5,-4.375c0,-2.41625 1.567,-4.375 3.5,-4.375c1.933,0 3.5,1.95875 3.5,4.375z" fill="#a8a8a8" stroke="none" stroke-width="0" stroke-linecap="butt"/><path d="M208.85004,38.4643c0,2.62335 -2.35051,4.75 -5.25,4.75c-2.89949,0 -5.25,-2.12665 -5.25,-4.75c0,-2.62335 2.35051,-4.75 5.25,-4.75c2.89949,0 5.25,2.12665 5.25,4.75z" fill="#a8a8a8" stroke="none" stroke-width="0" stroke-linecap="butt"/><path d="M206.67312,308.48922l15.14285,-92.37211l37.78325,-0.11061l13.57389,92.48274z" fill="url(#color-11)" stroke="none" stroke-width="2" stroke-linecap="butt"/><g stroke="#000000" stroke-width="2"><path d="M228.20896,218.08432l0.4697,34.69326" fill="none" stroke-linecap="round"/><path d="M228.67866,253.35102c1.90232,0 3.44445,1.21238 3.44445,2.70792c0,1.49554 -1.54214,2.70792 -3.44445,2.70792c-1.90232,0 -3.44445,-1.21238 -3.44445,-2.70792c0,-1.49554 1.54214,-2.70792 3.44445,-2.70792z" fill="#000000" stroke-linecap="butt"/></g><g data-paper-data="{&quot;index&quot;:null}" stroke="#000000" stroke-width="2"><path d="M252.14835,222.43463l-0.4697,31.28216" fill="none" stroke-linecap="round"/><path d="M255.12309,256.67537c0,1.3485 -1.54213,2.44166 -3.44445,2.44166c-1.90231,0 -3.44445,-1.09318 -3.44445,-2.44166c0,-1.3485 1.54213,-2.44168 3.44445,-2.44168c1.90231,0 3.44445,1.09319 3.44445,2.44168z" fill="#000000" stroke-linecap="butt"/></g><path d="M213.53339,119.95752l-2.4,-12.8c0,0 4.8021,-2.44509 13.39741,-2.2716c10.93744,0.22076 26.44517,-0.26174 32.86926,-0.26174c0.75641,0 19.73333,5.13334 19.73333,5.13334v10.2c0,0 -29.43895,14.25 -39.65835,14.25c-10.93247,0 -23.94165,-14.25 -23.94165,-14.25z" fill="#000000" stroke="none" stroke-width="0" stroke-linecap="butt"/><path d="M175.59639,157.81282c0,-23.35737 14.14812,-43.61289 34.8388,-53.62733c0.88189,0.63823 16.68245,26.24696 19.78755,27.60578c2.98074,-1.75928 11.96491,-12.02377 14.96517,-13.54678c0.07163,-0.16169 8.23761,2.46048 8.50615,2.13824c0.48193,-0.57832 3.75251,3.01737 4.73278,2.62968c0.36388,-0.14391 10.55111,-6.94976 11.0661,-7.27461c0.39067,-0.24643 2.04213,-9.8178 2.2646,-10.26159c19.30762,10.39965 32.31288,29.94248 32.31288,52.3366c0,33.30185 -28.7599,60.29833 -64.23702,60.29833c-35.47712,0 -64.23702,-26.99649 -64.23702,-60.29833z" fill="url(#color-12)" stroke="none" stroke-width="2" stroke-linecap="butt"/><path d="M189.14662,158.24235c0,-12.968 10.51265,-23.48065 23.48065,-23.48065c12.968,0 23.48065,10.51265 23.48065,23.48065c0,12.968 -10.51265,23.48065 -23.48065,23.48065c-12.968,0 -23.48065,-10.51265 -23.48065,-23.48065z" fill="#ff0000" stroke="none" stroke-width="2" stroke-linecap="butt"/><path d="M266.88563,181.72316c-12.968,0 -23.48065,-10.51265 -23.48065,-23.48065c0,-12.968 10.51265,-23.48065 23.48065,-23.48065c12.968,0 23.48065,10.51265 23.48065,23.48065c0,12.968 -10.51265,23.48065 -23.48065,23.48065z" data-paper-data="{&quot;index&quot;:null}" fill="#ff0000" stroke="none" stroke-width="2" stroke-linecap="butt"/><path d="M201.78427,129.43388c0,0 6.70895,-5.16922 11.79721,-6.36355c5.08827,-1.19433 12.33413,0.69937 12.33413,0.69937c0,0 -8.03812,-0.06028 -11.96762,0.86207c-4.10648,0.96389 -12.16372,4.80211 -12.16372,4.80211z" fill="#000000" stroke="none" stroke-width="0" stroke-linecap="butt"/><path d="M265.71871,124.63185c-3.9295,-0.92235 -11.96762,-0.86207 -11.96762,-0.86207c0,0 7.24586,-1.8937 12.33413,-0.69937c5.08826,1.19433 11.79721,6.36355 11.79721,6.36355c0,0 -8.05724,-3.83822 -12.16372,-4.80211z" data-paper-data="{&quot;index&quot;:null}" fill="#000000" stroke="none" stroke-width="0" stroke-linecap="butt"/><path d="M196.012,140.16689l-4.66666,-3.33333" fill="none" stroke="#000000" stroke-width="2" stroke-linecap="round"/><path d="M205.77513,134.53825l-1.50717,-5.53329" fill="none" stroke="#000000" stroke-width="2" stroke-linecap="round"/><g data-paper-data="{&quot;index&quot;:null}" fill="none" stroke="#000000" stroke-width="2" stroke-linecap="round"><path d="M288.99652,135.67628l-4.66666,3.33333"/><path d="M274.9096,134.60964l1.50716,-5.53329"/></g><path d="M212.56108,181.9232c-11.91039,0 -21.73472,-8.99568 -23.14064,-20.60921c1.17525,0.11467 45.97846,-0.06495 46.41361,-0.08003c-0.71485,12.32029 -10.86122,20.68924 -23.27297,20.68924z" fill="#ff4242" stroke="none" stroke-width="2" stroke-linecap="butt"/><path d="M196.16196,158.16668c0,-9.12808 7.39976,-16.52784 16.52783,-16.52784c9.12808,0 16.52784,7.39977 16.52784,16.52784c0,9.12808 -7.39977,16.52784 -16.52784,16.52784c-9.12808,0 -16.52783,-7.39977 -16.52783,-16.52784z" fill="#000000" stroke="none" stroke-width="0" stroke-linecap="butt"/><path d="M243.58709,160.7339c0.43515,0.01507 45.23836,0.1947 46.41361,0.08003c-1.40593,11.61354 -11.23026,20.60922 -23.14065,20.60922c-12.41175,0 -22.55811,-8.36895 -23.27296,-20.68924z" data-paper-data="{&quot;index&quot;:null}" fill="#ff4242" stroke="none" stroke-width="2" stroke-linecap="butt"/><path d="M266.67311,174.79471c-9.12807,0 -16.52783,-7.39977 -16.52783,-16.52784c0,-9.12808 7.39977,-16.52784 16.52783,-16.52784c9.12807,0 16.52783,7.39977 16.52783,16.52784c0,9.12808 -7.39977,16.52784 -16.52783,16.52784z" data-paper-data="{&quot;index&quot;:null}" fill="#000000" stroke="none" stroke-width="0" stroke-linecap="butt"/><path d="M212.63041,171.00003c-0.32217,0 -0.32216,-25.16666 0,-25.16666c0.32217,0 0.32216,25.16666 0,25.16666z" fill="#ff0000" stroke="#ff0000" stroke-width="2" stroke-linecap="butt"/><path d="M266.79706,170.66676c-0.32217,0 -0.32216,-25.16666 0,-25.16666c0.32217,0 0.32216,25.16666 0,25.16666z" fill="#ff0000" stroke="#ff0000" stroke-width="2" stroke-linecap="butt"/><g><path d="M255.17151,206.23699c-3.09219,3.04469 -6.64365,5.37547 -10.10357,6.66155c-3.52123,1.30887 -6.92898,1.54601 -7.49727,1.54817c-0.65904,0.0025 -4.18903,-0.42321 -7.38695,-2.03989c-4.07107,-2.05809 -7.9929,-5.50904 -8.99631,-6.62332c-6.05498,-6.72401 -8.23815,-18.28998 -8.15847,-21.64109c0.02277,-0.95831 11.78592,4.38321 24.9331,4.33317c13.56814,-0.05164 28.42332,-6.76684 28.40746,-6.09988c0,0 -4.39599,17.16379 -11.19799,23.86129z" data-paper-data="{&quot;index&quot;:null}" fill="url(#color-13)" stroke="none" stroke-width="0" stroke-linecap="butt"/><path d="M255.22123,206.6286c-2.85282,2.809 -5.31947,4.72609 -8.54911,5.96494c-0.27098,0.10395 -3.49013,1.18984 -4.58585,1.42006c-2.17145,0.45623 -4.5437,0.76238 -4.67476,0.76288c-0.65904,0.0025 -4.42775,-0.75298 -7.62568,-2.36965c-4.07107,-2.05809 -8.11226,-5.50904 -9.11567,-6.62332c-0.53208,-0.59088 -3.07835,-5.10769 -3.55173,-5.7645c0.51827,-1.95535 5.01094,-12.24968 5.45238,-11.78396c0.52167,0.55035 3.53429,11.42095 4.31098,11.12879c1.35011,-0.50787 6.26395,-7.99743 6.3924,-7.90112c0.31767,0.23816 5.15244,5.68829 6.47408,6.33392c0.78081,0.38144 6.36127,-7.06822 6.72197,-6.81534c0.47823,0.33527 4.11288,5.00176 4.39071,5.16591c0.35077,0.20725 4.50472,-8.66817 5.13039,-9.35412c0.06377,0.68019 3.93014,11.0547 3.96241,11.57529c-0.01628,0.0267 -0.31516,1.9516 -1.07711,3.39879c-1.12859,2.14353 -2.9406,4.15766 -3.65539,4.86147z" data-paper-data="{&quot;index&quot;:null}" fill="#000000" stroke="none" stroke-width="0" stroke-linecap="butt"/><path d="M219.12315,202.06494l3.34213,-6.54046l4.54902,5.12979l6.59143,-5.771l6.49859,4.23206l6.49859,-5.64276l3.89916,3.97559l5.19888,-5.38626l3.15647,8.72062" fill="none" stroke="#000000" stroke-width="1" stroke-linecap="round"/></g><path d="M224.79491,178.9432c0,0 5.36055,-3.3035 6.90354,-5.55544c1.89715,-2.76881 3.63799,-9.8295 3.63799,-9.8295h8.97455c0,0 2.65543,8.58011 4.2887,11.35407c0.90879,1.5435 4.68585,3.88841 4.68585,3.88841c0,0 -8.59094,-2.0974 -12.96151,-2.07555c-5.03262,0.02516 -15.52913,2.218 -15.52913,2.218z" fill="url(#color-14)" stroke="none" stroke-width="NaN" stroke-linecap="butt"/><path d="M261.21479,124.75506c0,5.02579 -8.95431,10.67143 -20,10.67143c-2.14223,0 -7.10831,-0.21282 -9.57955,-1.29577c-0.8648,-0.37897 -3.5766,-1.29684 -4.63601,-2.55067c-4.7847,-5.66282 -9.11743,-18.17871 -9.90086,-18.85336c-0.73438,-0.63242 10.55646,17.53276 13.31229,18.61587c0.70511,0.27713 2.35906,-1.97321 2.51841,-1.97321c0.40849,0 12.06562,-11.55549 12.46993,-11.68586c0.03379,-0.0109 4.51863,1.97973 7.11568,2.76936c0.7593,0.23087 2.14111,-0.03287 2.22987,0.00732c1.13127,0.51228 6.47023,4.29141 6.47023,4.2949z" fill="url(#color-15)" stroke="none" stroke-width="0" stroke-linecap="butt"/><text transform="translate(238.76081,132.23662) rotate(12.98994) scale(0.5,0.37386) skewX(0.00019)" font-size="40" xml:space="preserve" fill="url(#color-16)" fill-rule="nonzero" stroke="none" stroke-width="1" stroke-linecap="butt" stroke-linejoin="miter" stroke-miterlimit="10" stroke-dasharray="" stroke-dashoffset="0" font-family="Handwriting" font-weight="normal" text-anchor="start" style="mix-blend-mode: normal"><tspan x="0" dy="0">8</tspan></text><path d="M241.33314,112.76167c0,0.5 -0.5,0.5 -0.5,0.5l-0.9199,-0.00646c-0.9272,0.13671 -0.10554,2.41166 0.0428,2.95051c0.12993,0.472 0.25831,0.92521 0.38959,1.36594c0.62985,-3.42136 4.68194,-5.24873 7.80652,-5.96022c1.70362,-0.24186 4.60184,-0.62176 6.01613,0.57917c0.9658,0.8201 1.0274,2.35755 1.3074,3.47964c0.77499,3.10575 1.45265,6.8972 1.45746,10.09141c0,0.88598 0.35757,2.77516 -0.03806,3.59134c-0.66397,1.36975 -2.68918,0.66968 -3.29717,-0.34524c-0.80332,-1.34097 -0.30125,-3.13976 -0.46133,-4.58765c-0.222,-2.00795 -1.05117,-4.30514 -0.97777,-6.30034c-1.6123,-2.17083 -4.91021,0.18711 -5.65303,2.00504c-0.98121,2.40138 -0.18825,6.90148 0.22137,9.35962c0.98542,6.74716 0.09211,12.2805 -2.46925,18.53758c-1.81605,2.25335 -3.39501,1.1958 -3.11832,-1.33022c0.49304,-4.50119 2.19356,-8.76342 2.19356,-13.33014c0,-2.19815 0.30159,-5.02298 -0.3026,-7.34275c-0.08946,-0.0397 -0.16512,-0.10489 -0.21773,-0.18635l-0.3957,-0.59355l0.10479,-0.06986c-0.51951,-0.6224 -0.95976,-1.3383 -1.34053,-2.10597c-1.19725,-1.09027 -2.8101,-2.15366 -2.85795,-1.00346c0,0 -0.09806,0.4903 -0.58835,0.39223c-0.49029,-0.09806 -0.39223,-0.58835 -0.39223,-0.58835c0.4552,-1.58407 1.73875,-1.47731 3.01729,-0.75268c-0.56913,-1.57891 -0.97894,-3.22334 -1.36829,-4.64c-0.43024,-1.56541 -1.08146,-3.46759 0.7612,-4.20281l1.08009,-0.00646c0,0 0.5,0 0.5,0.5z" fill="#000000" stroke="none" stroke-width="0.5" stroke-linecap="butt"/><path d="M256.83314,132.46167c0,0.49705 -0.6268,0.9 -1.4,0.9c-0.7732,0 -1.4,-0.40295 -1.4,-0.9c0,-0.49705 0.6268,-0.9 1.4,-0.9c0.7732,0 1.4,0.40295 1.4,0.9z" fill="#000000" stroke="none" stroke-width="0" stroke-linecap="butt"/><path d="M211.56813,109.12132c-0.07492,-0.85255 -0.01364,-1.62875 0.37265,-1.96527c0.13564,-0.11817 1.66875,0.26991 1.86297,0.33563c1.47993,0.50077 3.46778,1.41453 4.58294,2.51644c1.04084,1.0472 2.55086,1.87143 3.43864,3.04341c1.46724,1.93694 1.10781,4.63531 1.10781,6.91014c0,0.75686 0.28905,3.39356 -0.3691,3.97484c-1.32193,1.16754 -2.08315,-1.64458 -2.21872,-2.26514c-0.34575,-1.40411 -0.84138,-2.76492 -1.19725,-4.18843c-0.00761,-0.03042 -0.32415,-1.29546 -0.39341,-1.57646c0.03077,3.13439 -0.23887,6.31292 0.52409,9.3839c0.36153,1.48566 0.53209,3.61449 0.24797,5.14093c-0.1635,0.87844 -0.33494,2.24495 -1.66045,1.07009c-1.38976,-1.23181 0.30121,-5.09959 -0.65847,-6.67685c-0.50171,-0.82459 -1.95817,-0.2082 -2.78029,-0.97052c-1.63792,-3.23412 -2.89214,-8.4591 -2.89438,-12.09235c-0.00057,-0.93318 -0.16906,-1.85327 0.035,-2.64035zM212.64763,107.85524c-0.08189,-0.03428 -0.13341,-0.03343 -0.1382,0.02238c0.04102,-0.01198 0.08802,-0.0211 0.1382,-0.02238z" fill="#000000" stroke="none" stroke-width="0.5" stroke-linecap="butt"/><path d="M219.03314,132.86167c0,0.49705 -0.35817,0.9 -0.8,0.9c-0.44183,0 -0.8,-0.40295 -0.8,-0.9c0,-0.49705 0.35817,-0.9 0.8,-0.9c0.44183,0 0.8,0.40295 0.8,0.9z" fill="#000000" stroke="none" stroke-width="0" stroke-linecap="butt"/><path d="M267.13311,114.99501c0,-0.07778 0,-0.15556 0,-0.23334c0.00964,-1.61352 1.09296,-5.05203 2.35699,-6.16379c0.91197,-0.80212 1.4534,-0.21599 1.82157,0.61889c0.28469,0.64557 0.02145,2.05064 0.02145,2.74489c0,2.57789 -0.14256,5.06085 -0.40062,7.62491c0.00203,3.1917 0.00062,6.3834 0.00062,9.57509c0,0.74466 0.29505,2.48349 -0.29129,3.08802c-2.28431,2.35522 -1.47347,-4.48362 -1.54584,-4.06269c-0.59641,0.18985 -1.31545,0.62118 -1.86849,-0.13298c-0.62329,-0.84995 -0.02538,-3.8341 0.10937,-4.75344c0.08988,-0.61322 0.12618,-1.23712 0.1175,-1.86453c-0.32124,-0.10209 -0.32125,-0.47438 -0.32125,-0.47438c0,-0.52873 0,-1.85746 0,-2.38619c-0.2695,-1.33394 -0.68596,-2.63366 -1.16424,-3.82811c0,0 -0.1857,-0.46424 0.27854,-0.64993c0.46424,-0.18569 0.64994,0.27854 0.64994,0.27854c0.08288,0.20741 0.1614,0.41367 0.23576,0.61904z" fill="#000000" stroke="none" stroke-width="0.5" stroke-linecap="butt"/><path d="M236.89454,161.55577l-0.4,8" fill="none" stroke="#000000" stroke-width="0.5" stroke-linecap="round"/><path d="M239.09453,162.55577l0.5,10.2" fill="none" stroke="#000000" stroke-width="0.5" stroke-linecap="round"/><path d="M241.99454,161.65577l0.6,2.7" fill="none" stroke="#000000" stroke-width="0.5" stroke-linecap="round"/><path d="M237.69454,158.75577l-0.1,1.4" fill="none" stroke="#000000" stroke-width="0.5" stroke-linecap="round"/><path d="M240.89454,157.15575v2.2" fill="none" stroke="#000000" stroke-width="0.5" stroke-linecap="round"/></g></g></svg>