<svg version="1.1" xmlns="http://www.w3.org/2000/svg" xmlns:xlink="http://www.w3.org/1999/xlink" width="191.56259" height="292.2434" viewBox="0,0,191.56259,292.2434"><defs><linearGradient x1="217.44241" y1="191.17244" x2="217.44241" y2="224.50578" gradientUnits="userSpaceOnUse" id="color-1"><stop offset="0" stop-color="#000000"/><stop offset="1" stop-color="#7d2222"/></linearGradient><linearGradient x1="240.00012" y1="175.50007" x2="240.00012" y2="307.50005" gradientUnits="userSpaceOnUse" id="color-2"><stop offset="0" stop-color="#000000"/><stop offset="1" stop-color="#3e3e3e"/></linearGradient><linearGradient x1="223.00001" y1="203.32794" x2="223.00001" y2="299.82096" gradientUnits="userSpaceOnUse" id="color-3"><stop offset="0" stop-color="#000000"/><stop offset="1" stop-color="#7d3838"/></linearGradient><linearGradient x1="273.90139" y1="142.8004" x2="273.90139" y2="190.7499" gradientUnits="userSpaceOnUse" id="color-4"><stop offset="0" stop-color="#000000"/><stop offset="1" stop-color="#7d3838"/></linearGradient><linearGradient x1="205.11114" y1="141.5732" x2="205.11114" y2="192.5732" gradientUnits="userSpaceOnUse" id="color-5"><stop offset="0" stop-color="#000000"/><stop offset="1" stop-color="#7d3838"/></linearGradient><linearGradient x1="300.21725" y1="30.77962" x2="305.37798" y2="169.79138" gradientUnits="userSpaceOnUse" id="color-6"><stop offset="0" stop-color="#000000"/><stop offset="1" stop-color="#7d7d7d"/></linearGradient><linearGradient x1="280.25023" y1="143.76907" x2="280.25023" y2="160.05658" gradientUnits="userSpaceOnUse" id="color-7"><stop offset="0" stop-color="#000000"/><stop offset="1" stop-color="#ffffff"/></linearGradient><linearGradient x1="176.00409" y1="29.91255" x2="181.37435" y2="174.56835" gradientUnits="userSpaceOnUse" id="color-8"><stop offset="0" stop-color="#000000"/><stop offset="1" stop-color="#dedede"/></linearGradient><linearGradient x1="208.49834" y1="146.59545" x2="208.76716" y2="161.38136" gradientUnits="userSpaceOnUse" id="color-9"><stop offset="0" stop-color="#000000"/><stop offset="1" stop-color="#ffffff"/></linearGradient><linearGradient x1="263.16668" y1="183.83333" x2="263.16668" y2="310.33333" gradientUnits="userSpaceOnUse" id="color-10"><stop offset="0" stop-color="#000000"/><stop offset="1" stop-color="#7d3838"/></linearGradient><linearGradient x1="237.6667" y1="167.23689" x2="237.6667" y2="203.98267" gradientUnits="userSpaceOnUse" id="color-11"><stop offset="0" stop-color="#000000"/><stop offset="1" stop-color="#7d3838"/></linearGradient><linearGradient x1="206.7267" y1="122.21641" x2="206.7267" y2="134.21641" gradientUnits="userSpaceOnUse" id="color-12"><stop offset="0" stop-color="#000000" stop-opacity="0"/><stop offset="1" stop-color="#000000"/></linearGradient><linearGradient x1="277.33307" y1="121.20804" x2="277.33307" y2="135.92233" gradientUnits="userSpaceOnUse" id="color-13"><stop offset="0" stop-color="#300050" stop-opacity="0"/><stop offset="1" stop-color="#300050"/></linearGradient></defs><g transform="translate(-145.08392,-21.08344)"><g data-paper-data="{&quot;isPaintingLayer&quot;:true}" fill-rule="nonzero" stroke-linejoin="miter" stroke-miterlimit="10" stroke-dasharray="" stroke-dashoffset="0" style="mix-blend-mode: normal"><path d="M223.44734,224.50578c0,0 -3.67995,-3.98402 -6.53186,-8.88447c-1.29989,-2.23361 -2.16368,-5.71395 -2.89428,-7.23135c-0.8107,-1.68377 -1.72928,-6.02095 -2.13481,-9.31268c-0.55374,-4.49479 -0.43906,-7.90484 -0.43906,-7.90484l11.66666,6.33333v12.66667z" fill="url(#color-1)" stroke="none" stroke-width="0" stroke-linecap="butt"/><path d="M181.99809,313.32684v-267.22501h123.18203v267.22501z" fill-opacity="0.01" fill="#000000" stroke="none" stroke-width="0" stroke-linecap="butt"/><path d="M206.75013,307.50005l15.14285,-131.8421l37.78325,-0.15789l13.57389,132z" fill="url(#color-2)" stroke="none" stroke-width="0" stroke-linecap="butt"/><path d="M186.50001,303.35116l39,-118.85116l11,18.82791l-9.5,107.67209z" fill="url(#color-3)" stroke="none" stroke-width="0" stroke-linecap="butt"/><path d="M277.88521,78.54882c1.69297,0.01094 2.30247,0.31765 3.42226,1.9919c0.34616,0.68949 0.98544,1.40857 1.27949,2.05962c0.55883,1.2373 -0.73608,3.09973 -0.97165,4.2894c-0.64598,3.26234 -1.24029,6.56751 -1.24029,9.90194c0,3.8481 -0.17637,7.74447 0.52721,11.5502c0.54144,2.92871 1.74335,5.72102 2.46532,8.6084c1.51326,6.09012 0.55847,13.44761 0.08269,19.63271c-0.50554,6.54972 -1.83542,13.21464 -3.20774,19.63006c-0.88272,4.11933 -1.53441,8.20223 -2.65022,12.27061c-0.74338,2.71043 -1.48244,4.5926 -4.58214,4.54466c-3.65109,-1.82555 -1.26837,-6.17856 -0.37175,-9.3515c0.39953,-1.41385 0.18333,-4.38847 -0.11143,-5.82591c-0.70099,-3.50495 -2.33872,-7.86056 -1.89051,-11.40197c0.31847,-2.51624 1.48856,-4.57545 1.48856,-7.15725c0,-2.14895 0.5,-4.15978 0.5,-6.25c0,-0.41978 0.20643,-1.76173 -0.12772,-2.17239c-0.97944,-1.20369 -2.87594,-1.83871 -3.58422,-3.38626c-0.42978,-0.93905 -0.02516,-3.00345 0.01942,-4.02057c0.45171,-2.27072 1.66899,-4.68343 1.20774,-7.04834c-0.1784,-0.91472 -1.58751,-1.36522 -1.97716,-2.18109c-0.79375,-1.66196 0.69724,-4.03567 -0.42473,-5.62435c-0.7117,-0.73577 -1.48082,-0.5932 -2.07527,-1.62565c-0.43166,-0.74971 -0.03878,-2.82971 -0.03806,-3.69134c0.00312,-3.73678 0.90616,-8.42115 2.43503,-11.81579c1.58682,-3.46076 2.13547,-7.26796 4.72708,-10.30115c1.17998,-1.38103 3.13421,-1.81463 4.23433,-2.98661c0,0 0.35355,-0.35356 0.70711,0c0.1255,0.1255 0.1619,0.251 0.15665,0.36069z" fill="#000000" stroke="none" stroke-width="0.5" stroke-linecap="butt"/><path d="M205.62501,153.7917c0,-3.15876 0.04444,-8.12694 1.48835,-11.778c-0.44851,-0.73168 -0.73835,-1.59024 -0.73835,-2.972c0,-2.34474 1.13338,-4.28157 1.50645,-6.58009c0.46522,-2.86627 0.74355,-5.47082 0.74355,-8.41991c0,-6.30199 -0.85766,-12.68877 -1.79639,-18.93316c-1.2159,-6.077 -3.15839,-10.4504 -0.08004,-16.41172c0.81492,-1.57807 2.07999,-4.56791 3.62286,-5.57449c1.03291,-0.67387 2.61875,-0.46368 2.9902,0.8045c0.67164,2.29313 -0.73663,4.80546 -0.73663,7.11487c0,0.2566 -0.18685,1.78661 -0.03806,2.05866c0.27956,0.51117 1.19624,0.74221 1.46338,1.17848c0.39266,0.64124 0.07468,2.54347 0.07468,3.26286c0,2.84998 0.71786,6.69064 -0.56754,9.25097c-3.04997,4.53562 -0.88731,12.86805 0.31754,17.68748c0.75001,3.00004 0.91356,6.20152 1.72726,9.16247c1.02542,3.73138 1.67801,6.07822 1.00139,10.04363c-0.37587,0.85277 -0.68799,1.99427 -1.50504,2.55266c-0.47827,0.32686 -1.43999,-0.27372 -1.87005,0.15634c-0.65553,0.65553 0.22618,2.61746 0.38307,3.28157c0.3415,1.44558 -0.86697,1.1402 -1.02468,1.8062c-0.17022,0.71879 0.0427,1.82276 0.04937,2.56613c0.11235,2.74406 1.9021,6.4805 1.22531,9.10742c-0.30268,1.17487 -1.43612,1.97278 -2.49381,2.46409c-0.01615,0.08574 -0.0456,0.14464 -0.0456,0.14464l-0.43435,0.70172c-0.25429,0.02489 -0.50858,0.04978 -0.76287,0.07467c-0.18071,0 -0.37477,0.01214 -0.57065,0.01564c-0.065,0.11957 -0.18978,0.23436 -0.42935,0.23436c-0.33372,0 -0.4447,-0.22274 -0.48161,-0.37088c-0.16726,-0.0759 -0.31871,-0.19161 -0.44371,-0.36625c-0.68511,-0.95719 0.40553,-3.03462 0.70098,-3.92097c0.03623,-0.10869 0.07142,-0.21692 0.10558,-0.3247c-1.94727,-2.18495 -3.38124,-5.16258 -3.38124,-8.01719z" fill="#000000" stroke="none" stroke-width="0.5" stroke-linecap="butt"/><path d="M242.84453,183.06655c0,0 39.98688,-33.00456 42.84315,-36.53012c0.44389,-0.54791 -10.22119,-3.73603 -10.22119,-3.73603l29.49176,8.40715c0,0 -21.18461,19.614 -29.90704,26.90279c-6.05799,5.06229 -17.41294,12.63956 -17.41294,12.63956z" data-paper-data="{&quot;index&quot;:null}" fill="url(#color-4)" stroke="none" stroke-width="0" stroke-linecap="butt"/><path d="M214.27781,192.5732c0,0 -8.84263,-10.39989 -13.28072,-16.929c-6.39006,-9.40077 -21.38595,-34.071 -21.38595,-34.071h30.66667c0,0 -11.1305,0.14218 -10.85382,0.79079c1.78032,4.17353 31.18715,46.87588 31.18715,46.87588z" fill="url(#color-5)" stroke="none" stroke-width="0" stroke-linecap="butt"/><path d="M318.45193,51.95056c0,0 6.37551,-7.69493 9.00839,-11.06174c2.10943,-2.69744 5.56947,-7.57977 5.56947,-7.57977l0.65973,28.77859c0,0 -2.35254,-19.36085 -3.82413,-20.50465c-1.88014,-1.46135 -11.41346,10.36758 -11.41346,10.36758z" fill="#2f2f2f" stroke="none" stroke-width="0" stroke-linecap="butt"/><path d="M335.33411,29.5416c-0.16313,23.65253 6.72913,72.43862 -9.54579,103.23974c-14.07404,26.63581 -50.0093,37.74627 -55.52496,38.31366c0.62316,-2.3835 1.19825,-4.78698 1.80448,-7.1683c0.65104,-3.42154 2.0285,-6.83471 1.89833,-10.33936c-0.04761,-1.27515 0.27873,-3.48554 -0.44346,-4.58207c-1.11817,-1.69777 -2.82618,-2.6151 -2.90869,-4.85362c-0.06904,-2.51242 3.8534,-6.49661 5.19435,-8.75949c2.17645,-3.70209 -2.90496,-5.93467 -4.72398,-8.49903c-1.86474,-2.59675 -0.14465,-6.81306 0.34462,-9.85236c0.55782,-3.46518 0.8707,-6.9755 0.84868,-10.48508c-0.0182,-2.25826 0.85744,-5.08006 1.68656,-7.16982c0.39716,-1.00101 1.09147,-2.15079 -0.05353,-2.90281c-0.85397,-1.42805 -3.57828,-2.74146 -3.89461,-4.26925c-0.32431,-1.56633 0.46429,-2.73986 0.91853,-4.15864c1.5435,-3.10405 3.40368,-5.66714 4.53141,-9.0041c30.76687,-5.03432 59.88202,-51.53429 59.86806,-49.50946z" fill="url(#color-6)" stroke="none" stroke-width="2" stroke-linecap="butt"/><path d="M299.32946,133.50063c-12.9673,0.13423 -23.58821,-10.26903 -23.72244,-23.23634c-0.13424,-12.96732 10.26903,-23.5882 23.23633,-23.72244c12.9673,-0.13422 23.58821,10.26903 23.72245,23.23634c0.13424,12.96732 -10.26903,23.58821 -23.23633,23.72244z" data-paper-data="{&quot;index&quot;:null}" fill="#ff0000" stroke="none" stroke-width="2" stroke-linecap="butt"/><path d="M301.82558,82.72325c3.81122,1.32904 11.81139,2.11137 11.81139,2.11137c0,0 -7.40439,1.12402 -12.33951,-0.59692c-4.9351,-1.72095 -11.06545,-7.5647 -11.06545,-7.5647c0,0 7.61069,4.66138 11.59356,6.05027z" data-paper-data="{&quot;index&quot;:null}" fill="#000000" stroke="none" stroke-width="0" stroke-linecap="butt"/><path d="M322.17566,113.67553c-0.71023,11.83979 -10.791,19.88236 -23.12253,19.88236c-11.83341,0 -21.59424,-8.64485 -22.99108,-19.80546c1.16766,0.11019 45.68127,-0.06244 46.11361,-0.07692z" data-paper-data="{&quot;index&quot;:null}" fill="#ff4242" stroke="none" stroke-width="2" stroke-linecap="butt"/><path d="M289.496,150.75989c3.2858,3.74886 4.75863,9.33739 4.13254,9.81383c-0.25902,0.19711 -6.0042,-1.57225 -6.33612,-1.71101c-3.29167,-1.09558 -13.94581,-0.02339 -14.05791,-0.19212c-0.31315,-0.47134 1.37032,-7.72203 0.6086,-9.22943c-0.55978,-1.10776 -1.59671,-1.76196 -2.24871,-2.77633c-0.64166,-0.99828 -1.45486,-1.87227 -0.65966,-2.89576c0,0 6.98003,-0.02647 12.46633,2.0301c2.79135,1.04636 5.25304,4.00018 6.09492,4.96071z" fill="url(#color-7)" stroke="none" stroke-width="0.5" stroke-linecap="butt"/><path d="M312.62673,134.74383l-6.55555,-1.88889" fill="none" stroke="#000000" stroke-width="0.5" stroke-linecap="round"/><path d="M310.07118,131.63273l2.88889,1.55555" fill="none" stroke="#000000" stroke-width="0.5" stroke-linecap="round"/><path d="M286.18228,134.74382l4.44444,-2.11111" fill="none" stroke="#000000" stroke-width="0.5" stroke-linecap="round"/><path d="M289.62673,131.52158l-4.44444,2.33333" fill="none" stroke="#000000" stroke-width="0.5" stroke-linecap="round"/><path d="M288.4045,135.85494l1,-0.88889" fill="none" stroke="#000000" stroke-width="0.5" stroke-linecap="round"/><path d="M288.6661,130.92729c0.0064,-0.05909 0.02497,-0.12366 0.06,-0.19372c0.22361,-0.44721 0.67082,-0.22361 0.67082,-0.22361l0.28572,0.14286c0.33589,0.16855 0.66821,0.34819 0.97791,0.56105c3.56137,0.82541 7.30415,0.58456 10.92395,0.38691c2.88038,-0.15728 5.60766,0.08184 8.33183,-1.07251c0.6253,-0.50576 2.03196,-2.19955 2.77915,-2.35438c1.25204,-0.25945 1.77669,1.72373 1.68999,2.54371c-0.21341,2.01841 -0.80303,4.07689 -1.38171,6.01701c-0.13695,0.45915 -0.6864,1.94137 -1.13067,2.13439c-0.36624,0.15912 -0.83186,-0.15828 -1.05118,-0.54501c-0.14918,0.51075 -0.1855,1.03871 -0.2767,1.58613c-0.44681,2.68086 -0.58098,5.28837 -0.2846,8.00039c0.14554,1.33176 0.77481,3.26219 -0.30516,4.40022c-1.22798,1.29398 -3.33158,2.40857 -4.80754,3.46266c-1.8798,1.57752 -3.98832,3.09856 -6.17553,4.2004c-0.51577,0.25983 -1.8382,1.39086 -2.47144,0.5861c-0.32747,-0.41618 0.12461,-1.2001 0.17613,-1.6638c0.15975,-1.43767 -0.23512,-3.02763 0.00961,-4.46299c-0.27512,0.35745 -0.56817,0.6248 -0.89961,0.86647l0.01835,0.01835l-0.70711,0.7071c-0.09048,0.09048 -0.21548,0.14644 -0.35355,0.14644c-0.27614,0 -0.5,-0.22386 -0.5,-0.5c0,-0.04575 0.00615,-0.09005 0.01765,-0.13214l0.13797,-0.55187c0.40629,-2.03612 0.27295,-4.09918 0.27295,-6.17312c0,-0.25816 0.19095,-2.10127 -0.19143,-2.28896c-0.40739,-0.19997 -0.90944,-0.41758 -1.06977,-0.84213c-0.11577,-0.30656 0.1937,-0.99406 -0.13338,-0.97398c-0.48545,0.02981 -1.18411,0.04938 -1.40812,-0.38233c-0.17331,-0.334 0.06008,-0.75018 0.09012,-1.12527c-0.00027,-0.10472 0.11984,-1.44948 -0.06773,-1.54472c-0.42095,-0.21375 -0.98771,-0.46004 -1.07308,-0.92437c-0.32457,-1.76513 0.25529,-3.57727 -0.26873,-5.34719c-0.45889,-1.54993 -2.07913,-2.49899 -2.16359,-3.99962c0,0 0,-0.33849 0.2785,-0.45846z" fill="#000000" stroke="none" stroke-width="0.5" stroke-linecap="butt"/><path d="M151.86278,21.13697c0.01211,-1.75497 7.96698,40.10858 29.50127,56.95579c6.07216,4.75051 19.66744,3.83 26.59836,3.87903c1.64988,0.01167 3.2997,-0.11043 4.94529,-0.35256c-1.13256,3.20863 -2.94459,5.70774 -4.43666,8.7293c-0.48395,1.49728 -1.31867,2.79637 -0.9438,4.45315c0.38122,1.68486 3.07377,2.99331 4.02865,4.51542c1.07186,0.62169 0.08363,1.97632 -0.22904,2.84365c-0.74089,2.0552 -1.55964,4.68408 -1.54947,6.87951c0.02185,3.4824 -0.28883,6.9641 -0.84234,10.40248c-0.51615,3.20633 -2.23815,7.46466 -0.25711,10.22347c1.66948,2.30051 6.67483,4.6495 4.69997,7.95249c-1.4109,2.38092 -5.33765,6.34552 -5.26394,9.03046c0.02073,0.56241 0.13389,1.04853 0.31072,1.48679c-0.64704,1.92882 -0.50811,4.25741 0.12831,6.4921c0.89426,3.06313 1.40533,6.37962 1.47479,9.66988c-0.16659,0.66775 -0.32179,1.3348 -0.44837,2.00174c-0.61773,2.4217 -1.20148,4.86648 -1.83688,7.28976c-3.49586,-0.45663 -41.30908,-16.56872 -53.28364,-38.41509c-9.6914,-17.68098 -10.54015,-42.22313 -8.4234,-65.2702c1.7214,-18.74253 5.74266,-36.4963 5.8273,-48.76716z" fill="url(#color-8)" stroke="none" stroke-width="2" stroke-linecap="butt"/><path d="M160.35107,112.80742c-0.13425,-12.96732 10.26903,-23.58821 23.23634,-23.72245c12.9673,-0.13422 23.58821,10.26903 23.72244,23.23634c0.13424,12.96732 -10.26903,23.58821 -23.23633,23.72244c-12.96731,0.13423 -23.5882,-10.26903 -23.72244,-23.23634z" fill="#ff0000" stroke="none" stroke-width="2" stroke-linecap="butt"/><path d="M160.76206,116.07551c0.43234,0.01448 44.94595,0.18711 46.11361,0.07692c-1.39684,11.16062 -11.15767,19.80546 -22.99108,19.80546c-12.33153,0 -22.4123,-8.04256 -23.12253,-19.88236z" data-paper-data="{&quot;index&quot;:null}" fill="#ff4242" stroke="none" stroke-width="2" stroke-linecap="butt"/><path d="M175.95684,112.80766c-0.07508,-8.7448 5.74434,-15.90727 12.99807,-15.99779c7.25373,-0.09054 13.19489,6.92518 13.26999,15.66997c0.07509,8.74483 -5.74434,15.90727 -12.99806,15.99779c-7.25373,0.09052 -13.1949,-6.92516 -13.26999,-15.66998z" fill="#000000" stroke="none" stroke-width="0" stroke-linecap="butt"/><path d="M193.31775,113.65969c0,2.64307 -1.54269,4.78571 -3.44571,4.78571c-1.90302,0 -3.44571,-2.14264 -3.44571,-4.78571c0,-2.64307 1.5427,-4.78571 3.44571,-4.78571c1.90302,0 3.44571,2.14263 3.44571,4.78571z" fill="#ff0000" stroke="none" stroke-width="0" stroke-linecap="butt"/><path d="M186.67646,154.78711c-8.05514,-6.07566 -13.1346,-17.56475 -13.16655,-19.32187c-0.0057,-0.31397 4.52595,5.21996 13.65559,9.03631c0.95428,0.3989 3.93694,1.02631 4.94349,1.37301c3.52031,1.21255 10.58396,2.36721 14.47243,2.4274c1.40991,0.02182 2.83664,-0.86021 2.91225,-0.86208c-0.12668,0.34351 -0.48383,4.78102 0.05931,6.68816c0.65612,2.24743 1.10597,4.63124 1.32645,7.04102c-0.24778,0.03383 -3.39368,0.47884 -5.56399,-0.01651c-6.57666,-1.50104 -17.49159,-5.50001 -18.63899,-6.36544z" fill="url(#color-9)" stroke="none" stroke-width="0" stroke-linecap="butt"/><path d="M196.25879,132.41923l-4.66667,4" fill="none" stroke="#000000" stroke-width="0.5" stroke-linecap="round"/><path d="M196.25879,134.19699l-1.11111,1.88889" fill="none" stroke="#000000" stroke-width="0.5" stroke-linecap="round"/><path d="M170.98101,132.86363h1l-0.3143,-0.35313c0.0833,0.03343 0.16663,0.06661 0.24999,0.09954c4.12745,1.63034 8.33463,2.642 12.76478,2.64257c0.95548,-0.10691 5.14611,-0.91275 5.61239,0.35829c0.16535,0.45073 -1.86946,4.1038 -2.2756,4.41877c-1.3026,1.01021 -1.5211,-0.58026 -2.591,-0.66894c-1.00768,-0.08352 -1.50505,1.27067 -2.60108,0.95649c-0.31823,-0.09123 -0.34366,-0.64938 -0.66196,-0.74039c-0.45359,-0.08362 -0.98568,1.09642 -1.29657,1.49271c-1.23645,1.57606 -2.04311,4.73181 -3.72796,5.84042c-1.58999,1.0462 -2.06964,-0.78538 -1.86458,-1.99299c0.07638,-0.44981 -0.3552,1.05783 -0.80911,1.10401c-1.15245,0.11724 -1.00077,-0.79216 -1.04056,-1.37956c0,-2.4352 -0.11106,-5.28495 -0.75928,-7.64305c-0.3922,-1.42676 -1.64719,-2.69257 -1.68516,-4.13473h1c-0.01236,0.28761 0.06254,0.59538 0.18722,0.91424c-0.29133,-0.10998 -0.58228,-0.22298 -0.87292,-0.33889z" fill="#000000" stroke="none" stroke-width="0.5" stroke-linecap="butt"/><path d="M179.87684,147.73863c0,0.44873 -0.41974,0.8125 -0.9375,0.8125c-0.51776,0 -0.9375,-0.36377 -0.9375,-0.8125c0,-0.44873 0.41974,-0.8125 0.9375,-0.8125c0.51776,0 0.9375,0.36377 0.9375,0.8125z" fill="#000000" stroke="#000000" stroke-width="0.5" stroke-linecap="butt"/><path d="M247.66668,310.33333l-9.5,-107.67209l11,-18.82791l39,118.85116z" data-paper-data="{&quot;index&quot;:null}" fill="url(#color-10)" stroke="none" stroke-width="0" stroke-linecap="butt"/><path d="M269.1667,169.68014c0,3.82102 -2.75972,13.4329 -9.17136,21.5486c-4.92771,6.23738 -12.49006,11.591 -19.6995,12.75278c-0.81004,0.13054 -34.12914,-10.8804 -34.12914,-17.96805c0,-7.08766 14.47613,-12.83333 32.33334,-12.83333c17.8572,0 30.66666,-10.58766 30.66666,-3.5z" fill="url(#color-11)" stroke="none" stroke-width="0" stroke-linecap="butt"/><path d="M221.137,175.66328c0.08663,-0.08767 0.18154,-0.17231 0.28485,-0.25318c1.46797,-1.14901 3.9083,-1.39273 5.69053,-1.61551c6.21925,-0.77733 12.43687,-2.29856 18.6798,-2.86864c2.98154,-0.26952 8.44601,-2.38118 11.27709,-1.03343c2.40552,1.14516 -1.33171,5.79064 -2.45626,6.5015c-1.46381,0.91328 -2.9972,1.3638 -4.5448,2.0474c-4.55698,2.01291 -2.84095,8.99989 -3.15355,12.77024c-0.24137,2.87846 -0.75702,5.63778 -2.71757,7.8545c-1.30641,1.47711 -4.19048,1.57515 -5.1521,-0.52553c-0.5969,-1.30393 -0.79184,-2.94063 -1.19807,-4.32288c-1.84932,-0.17577 -3.87563,2.06815 -5.63494,0.85764c-1.24278,-0.85511 -0.6431,-3.11398 -1.57384,-4.23033c-0.64211,-0.77017 -2.67404,-0.34514 -3.52074,-0.34748c-5.65942,-1.18902 -5.21035,-7.21353 -5.8861,-11.80428c-0.79799,-0.53494 -1.00573,-1.52723 -0.54969,-2.40984c-0.02567,-0.11886 -0.0622,-0.46142 0.32695,-0.59113c0.0457,-0.01523 0.08847,-0.0246 0.12844,-0.02908z" fill="#000000" stroke="none" stroke-width="0.5" stroke-linecap="butt"/><path d="M253.50001,185.25003c0,0.9665 -0.74619,1.75 -1.66667,1.75c-0.92047,0 -1.66667,-0.7835 -1.66667,-1.75c0,-0.9665 0.74619,-1.75 1.66667,-1.75c0.92047,0 1.66667,0.7835 1.66667,1.75z" fill="#000000" stroke="none" stroke-width="0" stroke-linecap="butt"/><path d="M300.88302,110.48858c0,6.19871 -3.39624,11.22376 -7.58571,11.22376c-4.18948,0 -7.58571,-5.02505 -7.58571,-11.22376c0,-6.19871 3.39624,-11.22376 7.58571,-11.22376c4.18948,0 7.58571,5.02505 7.58571,11.22376z" fill="#000000" stroke="none" stroke-width="0" stroke-linecap="butt"/><g stroke="none" stroke-width="0" stroke-linecap="butt"><path d="M296.91634,110.79576c0,3.21904 -1.63096,5.82858 -3.64285,5.82858c-2.01189,0 -3.64286,-2.60954 -3.64286,-5.82858c0,-3.21904 1.63097,-5.82856 3.64286,-5.82856c2.01189,0 3.64285,2.60953 3.64285,5.82856z" fill="#ff0000"/><path d="M295.82349,110.72291c0,2.25333 -1.14167,4.08 -2.55,4.08c-1.40833,0 -2.55,-1.82667 -2.55,-4.08c0,-2.25333 1.14168,-4.08 2.55,-4.08c1.40833,0 2.55,1.82667 2.55,4.08z" fill="#000000"/></g><path d="M276.59184,144.88746l0.13333,13.6" fill="none" stroke="#000000" stroke-width="0.5" stroke-linecap="round"/><path d="M284.05851,158.35415l0.06667,-11.93334" fill="none" stroke="#000000" stroke-width="0.5" stroke-linecap="round"/><path d="M290.12518,159.88747v-8.13333" fill="none" stroke="#000000" stroke-width="0.5" stroke-linecap="round"/><path d="M184.06974,152.30641l3.625,-4.625l2.75,6.375l3.75,-5.125l2.625,6.25l3.75,-5l3.5,6.125l3.25,-5.625l4.25,5.375" fill="none" stroke="#000000" stroke-width="0.5" stroke-linecap="round"/><path d="M193.81004,132.71641c0,0 5.59282,-3.08322 7.47555,-5.32703c2.13983,-2.55021 4.69111,-9.17298 4.69111,-9.17298l7.5,4v12z" fill="url(#color-12)" stroke="none" stroke-width="0" stroke-linecap="butt"/><path d="M273.97593,134.49375l-4.28571,-13.42857c0,0 1.10152,-1.45741 1.5179,-1.50505c2.39522,-0.27406 6.48211,0.40092 6.48211,0.79077c0,1.27013 5.29053,7.28051 9.71783,10.52759c1.9863,1.4568 5.28217,1.90098 5.28217,1.90098z" fill="url(#color-13)" stroke="none" stroke-width="0" stroke-linecap="butt"/></g></g></svg>