<svg version="1.1" xmlns="http://www.w3.org/2000/svg" xmlns:xlink="http://www.w3.org/1999/xlink" width="143.3341" height="291.54832" viewBox="0,0,143.3341,291.54832"><defs><linearGradient x1="239.99979" y1="175.91989" x2="239.99979" y2="307.91989" gradientUnits="userSpaceOnUse" id="color-1"><stop offset="0" stop-color="#000000"/><stop offset="1" stop-color="#ff80c9"/></linearGradient><linearGradient x1="225.14229" y1="22.93132" x2="237.533" y2="121.15981" gradientUnits="userSpaceOnUse" id="color-2"><stop offset="0" stop-color="#000000"/><stop offset="1" stop-color="#8cefef"/></linearGradient><linearGradient x1="234.00378" y1="71.87376" x2="249.09644" y2="191.52227" gradientUnits="userSpaceOnUse" id="color-3"><stop offset="0" stop-color="#000000"/><stop offset="1" stop-color="#8cefef"/></linearGradient><linearGradient x1="251.55431" y1="68.38798" x2="252.01718" y2="72.05739" gradientUnits="userSpaceOnUse" id="color-4"><stop offset="0" stop-color="#000000"/><stop offset="1" stop-color="#000000"/></linearGradient><linearGradient x1="195.5493" y1="45.72685" x2="211.83469" y2="174.83082" gradientUnits="userSpaceOnUse" id="color-5"><stop offset="0" stop-color="#000000"/><stop offset="1" stop-color="#ff80c9"/></linearGradient><linearGradient x1="202.62691" y1="74.22376" x2="203.04424" y2="77.53219" gradientUnits="userSpaceOnUse" id="color-6"><stop offset="0" stop-color="#000000"/><stop offset="1" stop-color="#ce52af"/></linearGradient><linearGradient x1="203.18638" y1="75.06909" x2="203.63896" y2="78.65693" gradientUnits="userSpaceOnUse" id="color-7"><stop offset="0" stop-color="#000000"/><stop offset="1" stop-color="#000000"/></linearGradient><linearGradient x1="206.50656" y1="74.07037" x2="206.96943" y2="77.73979" gradientUnits="userSpaceOnUse" id="color-8"><stop offset="0" stop-color="#000000"/><stop offset="1" stop-color="#000000"/></linearGradient><linearGradient x1="209.46647" y1="92.44731" x2="209.8838" y2="95.75573" gradientUnits="userSpaceOnUse" id="color-9"><stop offset="0" stop-color="#000000"/><stop offset="1" stop-color="#ce52af"/></linearGradient><linearGradient x1="208.84145" y1="92.5805" x2="209.51072" y2="97.88614" gradientUnits="userSpaceOnUse" id="color-10"><stop offset="0" stop-color="#000000"/><stop offset="1" stop-color="#000000"/></linearGradient><linearGradient x1="262.47839" y1="38.29223" x2="279.01408" y2="169.38048" gradientUnits="userSpaceOnUse" id="color-11"><stop offset="0" stop-color="#000000"/><stop offset="1" stop-color="#ff80c9"/></linearGradient><linearGradient x1="262.75526" y1="68.09871" x2="263.17901" y2="71.45797" gradientUnits="userSpaceOnUse" id="color-12"><stop offset="0" stop-color="#000000"/><stop offset="1" stop-color="#ce52af"/></linearGradient><linearGradient x1="262.42499" y1="69.07035" x2="262.88453" y2="72.71334" gradientUnits="userSpaceOnUse" id="color-13"><stop offset="0" stop-color="#000000"/><stop offset="1" stop-color="#000000"/></linearGradient><linearGradient x1="258.9597" y1="68.91865" x2="259.42968" y2="72.64447" gradientUnits="userSpaceOnUse" id="color-14"><stop offset="0" stop-color="#000000"/><stop offset="1" stop-color="#000000"/></linearGradient><linearGradient x1="260.69186" y1="87.73863" x2="261.1156" y2="91.0979" gradientUnits="userSpaceOnUse" id="color-15"><stop offset="0" stop-color="#000000"/><stop offset="1" stop-color="#ce52af"/></linearGradient><linearGradient x1="261.33048" y1="87.71326" x2="262.01002" y2="93.10045" gradientUnits="userSpaceOnUse" id="color-16"><stop offset="0" stop-color="#000000"/><stop offset="1" stop-color="#000000"/></linearGradient><linearGradient x1="231.70538" y1="65.45113" x2="235.34796" y2="94.32798" gradientUnits="userSpaceOnUse" id="color-17"><stop offset="0" stop-color="#000000"/><stop offset="1" stop-color="#e3e854"/></linearGradient><linearGradient x1="242.33202" y1="133.22864" x2="244.05367" y2="152.15047" gradientUnits="userSpaceOnUse" id="color-18"><stop offset="0" stop-color="#000000" stop-opacity="0"/><stop offset="1" stop-color="#000000"/></linearGradient></defs><g transform="translate(-167.9602,-22.48405)"><g data-paper-data="{&quot;isPaintingLayer&quot;:true}" fill-rule="nonzero" stroke-linejoin="miter" stroke-miterlimit="10" stroke-dasharray="" stroke-dashoffset="0" style="mix-blend-mode: normal"><path d="M179.28348,314.03237v-267.22501h123.18203v267.22501z" fill-opacity="0.01" fill="#000000" stroke="none" stroke-width="0" stroke-linecap="butt"/><path d="M206.7498,307.91988l15.14285,-131.8421l37.78325,-0.15789l13.57389,132z" fill="url(#color-1)" stroke="none" stroke-width="0" stroke-linecap="butt"/><path d="M237.533,121.15981c-28.89685,3.6451 -55.09615,-15.38915 -58.51774,-42.51421c-3.4216,-27.12504 17.23019,-52.06918 46.12704,-55.71428c28.89686,-3.6451 55.09615,15.38916 58.51774,42.51421c3.4216,27.12505 -17.23018,52.06918 -46.12704,55.71428z" fill="url(#color-2)" stroke="none" stroke-width="0" stroke-linecap="butt"/><g stroke="none" stroke-width="0" stroke-linecap="butt"><path d="M177.81813,139.73727c-4.16772,-33.04002 20.98745,-63.42356 56.18565,-67.86352c35.1982,-4.43996 67.11059,18.74498 71.27832,51.785c4.16772,33.04002 -20.98745,63.42356 -56.18565,67.86352c-35.1982,4.43996 -67.11059,-18.74498 -71.27832,-51.785z" fill="url(#color-3)"/><path d="M215.6053,84.86683c1.10311,1.47385 -1.82598,5.53023 -6.5423,9.06019c-4.71632,3.52996 -9.43392,5.19676 -10.53703,3.7229c-1.10311,-1.47385 1.82599,-5.53024 6.5423,-9.0602c4.71632,-3.52996 9.43392,-5.19675 10.53702,-3.72289z" fill="#d4f0f0"/><path d="M226.03234,81.81041c0.18432,1.46118 -0.85079,2.79511 -2.31197,2.97943c-1.46118,0.18432 -2.79511,-0.85079 -2.97943,-2.31196c-0.18432,-1.46118 0.85079,-2.79512 2.31196,-2.97944c1.46118,-0.18432 2.79512,0.85079 2.97944,2.31197z" fill="#d4f0f0"/></g><path d="M191.31555,138.46758c-1.62294,-12.86604 7.49139,-24.6117 20.35744,-26.23464c12.86604,-1.62294 24.6117,7.49139 26.23464,20.35744c1.62294,12.86604 -7.49139,24.6117 -20.35744,26.23464c-12.86604,1.62294 -24.6117,-7.49139 -26.23464,-20.35744z" fill="#ff0000" stroke="none" stroke-width="0" stroke-linecap="butt"/><path d="M271.38202,152.03455c-12.86604,1.62294 -24.6117,-7.49139 -26.23464,-20.35744c-1.62294,-12.86604 7.49139,-24.6117 20.35744,-26.23464c12.86604,-1.62294 24.6117,7.49139 26.23464,20.35744c1.62294,12.86604 -7.49139,24.6117 -20.35744,26.23464z" data-paper-data="{&quot;index&quot;:null}" fill="#ff0000" stroke="none" stroke-width="0" stroke-linecap="butt"/><path d="M262.45472,90.58659c-4.01404,-0.42332 -11.98141,0.64245 -11.98141,0.64245c0,0 6.9519,-2.78563 12.14963,-2.23748c5.19773,0.54815 12.50085,4.8371 12.50085,4.8371c0,0 -8.47424,-2.79968 -12.66907,-3.24207z" data-paper-data="{&quot;index&quot;:null}" fill="#000000" stroke="none" stroke-width="0" stroke-linecap="butt"/><path d="M191.22715,138.17642l-3.89708,-2.12902" fill="none" stroke="#000000" stroke-width="2" stroke-linecap="round"/><path d="M294.95108,121.46396l-3.74147,3.8989" fill="none" stroke="#000000" stroke-width="2" stroke-linecap="round"/><path d="M212.55786,88.30199c2.0808,2.43539 -0.28305,7.87055 -5.27978,12.13977c-4.99674,4.26922 -10.73422,5.75584 -12.81501,3.32045c-2.0808,-2.43539 0.28305,-7.87055 5.27979,-12.13977c4.99674,-4.26921 10.73422,-5.75584 12.81501,-3.32045z" fill="#ecfefe" stroke="none" stroke-width="0" stroke-linecap="butt"/><path d="M220.32929,84.73843c0.1728,1.36985 -0.70878,2.60922 -1.96904,2.76819c-1.26026,0.15897 -2.422,-0.82264 -2.59479,-2.1925c-0.1728,-1.36985 0.70877,-2.60922 1.96904,-2.76819c1.26026,-0.15897 2.422,0.82264 2.59479,2.1925z" fill="#ecfefe" stroke="none" stroke-width="0" stroke-linecap="butt"/><path d="M199.62388,103.35233c0,0 6.00928,-5.96821 10.90806,-7.78994c4.89879,-1.82173 12.32468,-0.84974 12.32468,-0.84974c0,0 -7.98247,0.94616 -11.76564,2.35304c-3.95357,1.47024 -11.4671,6.28664 -11.4671,6.28664z" fill="#000000" stroke="none" stroke-width="0" stroke-linecap="butt"/><path d="M252.50212,68.26842l-1.43276,3.90852" fill="url(#color-4)" stroke="none" stroke-width="2" stroke-linecap="round"/><path d="M209.29421,159.70557l-0.26512,3.2252" fill="none" stroke="#000000" stroke-width="2" stroke-linecap="round"/><path d="M227.90056,160.71827l-0.58404,-4.62997" fill="none" stroke="#000000" stroke-width="2" stroke-linecap="round"/><path d="M259.33307,151.54571l0.25332,4.67169" fill="none" stroke="#000000" stroke-width="2" stroke-linecap="round"/><path d="M280.5457,155.03507l-1.29867,-4.58783" fill="none" stroke="#000000" stroke-width="2" stroke-linecap="round"/><path d="M192.36675,143.5189c0.42259,-0.03955 44.41713,-5.59313 45.54084,-5.83953c-0.04368,10.60526 -8.52631,19.88569 -20.04604,21.33881c-4.51431,0.56944 -11.82183,-0.65136 -15.95992,-3.43203c-6.86608,-4.61379 -9.53489,-12.06725 -9.53489,-12.06725z" data-paper-data="{&quot;index&quot;:null}" fill="#ff4242" stroke="none" stroke-width="2" stroke-linecap="butt"/><path d="M204.57842,137.00698c-0.74499,-5.90598 3.43881,-11.29764 9.34479,-12.04263c5.90598,-0.74499 11.29764,3.43882 12.04264,9.34479c0.74499,5.90598 -3.43882,11.29764 -9.34479,12.04264c-5.90598,0.74499 -11.29764,-3.43882 -12.04263,-9.34479z" fill="#000000" stroke="none" stroke-width="0" stroke-linecap="butt"/><path d="M285.82555,144.79826c-3.31793,3.72119 -10.09337,6.71844 -14.60769,7.28788c-11.51973,1.45312 -22.04125,-5.4301 -24.7172,-15.6923c1.1497,-0.04037 45.14524,-5.586 45.56442,-5.65264c0,0 -0.73428,7.88273 -6.23953,14.05705z" data-paper-data="{&quot;index&quot;:null}" fill="#ff4242" stroke="none" stroke-width="2" stroke-linecap="butt"/><path d="M270.06496,140.32166c-5.98815,0.75536 -11.45484,-3.48667 -12.21021,-9.47482c-0.75536,-5.98816 3.48667,-11.45485 9.47482,-12.21021c5.98815,-0.75536 11.45484,3.48667 12.21021,9.47482c0.75536,5.98816 -3.48667,11.45485 -9.47482,12.21021z" data-paper-data="{&quot;index&quot;:null}" fill="#000000" stroke="none" stroke-width="0" stroke-linecap="butt"/><g stroke="none" stroke-width="0"><path d="M234.75944,75.13171c0.02226,0.17646 -17.1504,44.17229 -18.63074,44.98264c-0.10232,0.05601 -19.62945,51.79444 -29.71942,57.85075c-3.19985,1.92065 -10.31476,-19.79951 -11.06527,-22.46414c-6.52825,-23.17846 -7.28227,-62.25916 -7.37659,-68.28845c-0.14223,-9.09283 1.85139,-18.25606 2.95172,-21.2717c4.25299,-11.65601 12.18772,-18.64444 19.93688,-19.62193c10.21512,-1.28855 20.54038,7.62639 29.54488,15.57764c7.09862,6.26829 14.15088,11.58913 14.35852,13.2352z" fill="url(#color-5)" stroke-linecap="butt"/><path d="M205.5846,73.95839c0.03718,0.29478 2.12606,2.98516 0.22255,3.22527c-1.9035,0.24011 -6.70604,-1.44525 -6.74322,-1.74003c-0.03718,-0.29478 1.47578,-0.72838 3.37928,-0.96849c1.9035,-0.24011 3.10421,-0.81153 3.14139,-0.51676z" data-paper-data="{&quot;index&quot;:null}" fill="url(#color-6)" stroke-linecap="butt"/><path d="M198.54707,75.65429l9.73119,2.41744" fill="url(#color-7)" stroke-linecap="round"/><path d="M205.55874,74.18993l2.35849,3.43028" fill="url(#color-8)" stroke-linecap="round"/><path d="M209.64343,95.55784c-1.90351,0.24011 -3.47675,0.19581 -3.51393,-0.09897c-0.03718,-0.29478 4.19638,-3.11997 6.09988,-3.36008c1.90351,-0.24011 0.54817,2.88474 0.58535,3.17951c0.03718,0.29478 -1.26781,0.03943 -3.17131,0.27954z" data-paper-data="{&quot;index&quot;:null}" fill="url(#color-9)" stroke-linecap="butt"/><path d="M204.65473,96.75356l8.82602,-4.75828l-1.91887,5.63212" data-paper-data="{&quot;index&quot;:null}" fill="url(#color-10)" stroke-linecap="round"/></g><path d="M217.64269,135.61585c0.14317,1.13503 -0.69261,2.17521 -1.86677,2.32333c-1.17416,0.14811 -2.24208,-0.65194 -2.38525,-1.78697c-0.14317,-1.13503 0.69261,-2.17521 1.86677,-2.32333c1.17416,-0.14811 2.24208,0.65194 2.38525,1.78697z" fill="#ff0000" stroke="none" stroke-width="0" stroke-linecap="butt"/><path d="M270.84009,128.82865c0.14317,1.13503 -0.69261,2.17521 -1.86677,2.32333c-1.17416,0.14811 -2.24207,-0.65193 -2.38524,-1.78697c-0.14317,-1.13503 0.69261,-2.17521 1.86676,-2.32332c1.17416,-0.14811 2.24208,0.65194 2.38525,1.78697z" fill="#ff0000" stroke="none" stroke-width="0" stroke-linecap="butt"/><g data-paper-data="{&quot;index&quot;:null}" stroke="none" stroke-width="0"><path d="M231.86424,77.03281c-0.21084,-1.67139 5.28734,-8.6708 10.59331,-16.61393c6.73054,-10.07577 14.49901,-21.43011 24.71413,-22.71867c7.74916,-0.97749 17.18221,3.91216 24.21776,14.31511c1.82024,2.69146 6.04394,11.20739 8.18159,20.18854c1.41743,5.95523 10.46676,44.59166 9.94477,69.02836c-0.06001,2.80928 -1.51508,25.9581 -5.09454,24.86929c-11.28702,-3.4333 -43.1448,-49.44729 -43.2579,-49.47678c-1.63639,-0.42678 -29.27652,-39.41276 -29.29912,-39.59193z" fill="url(#color-11)" stroke-linecap="butt"/><path d="M262.99607,68.30005c1.90351,-0.24011 3.47722,-0.19212 3.51497,0.10717c0.03776,0.29931 -4.19145,3.15915 -6.09494,3.39926c-1.90351,0.24011 -0.55381,-2.92942 -0.59156,-3.22873c-0.03776,-0.29931 1.26805,-0.03761 3.17154,-0.27772z" data-paper-data="{&quot;index&quot;:null}" fill="url(#color-12)" stroke-linecap="butt"/><path d="M267.0643,68.48513l-8.81908,4.81342" fill="url(#color-13)" stroke-linecap="round"/><path d="M258.48186,72.764l1.42565,-3.96491" fill="url(#color-14)" stroke-linecap="round"/><path d="M258.15771,91.36164c-0.03776,-0.29931 -2.13227,-3.03438 -0.22876,-3.2745c1.90351,-0.24011 6.71041,1.47991 6.74817,1.77921c0.03776,0.29931 -1.47474,0.73659 -3.37825,0.9767c-1.9035,0.24011 -3.10341,0.81789 -3.14116,0.51859z" data-paper-data="{&quot;index&quot;:null}" fill="url(#color-15)" stroke-linecap="butt"/><path d="M259.95885,93.35919l-3.26768,-5.06072l9.73814,2.47259" data-paper-data="{&quot;index&quot;:null}" fill="url(#color-16)" stroke-linecap="round"/></g><path d="M258.58793,178.15377c0.43928,3.48243 -21.38775,6.23572 -21.82703,2.7533c-0.43928,-3.48243 4.09076,-6.92185 10.11812,-7.68216c6.02736,-0.7603 11.26963,1.44643 11.7089,4.92885z" fill="#000000" stroke="none" stroke-width="0" stroke-linecap="butt"/><path d="M212.82541,160.78855l3.04793,0.19149" fill="none" stroke="#000000" stroke-width="0.5" stroke-linecap="round"/><path d="M213.26979,162.0284l1.4531,0.10468" fill="none" stroke="#000000" stroke-width="0.5" stroke-linecap="round"/><path d="M275.15612,153.14203l2.04534,-1.09793" fill="none" stroke="#000000" stroke-width="0.5" stroke-linecap="round"/><path d="M277.74076,153.65595l-1.21855,0.99365" fill="none" stroke="#000000" stroke-width="0.5" stroke-linecap="round"/><path d="M168.85317,136.20226c-0.37745,-1.07783 -1.534,-4.36627 -0.21499,-5.30286c0.16038,-0.11389 0.34063,-0.12784 0.53042,-0.08594l-0.03606,-0.28593c-0.05184,-0.41096 0.23929,-0.78612 0.65024,-0.83797c0.41096,-0.05184 0.78612,0.23929 0.83797,0.65024l0.10524,0.83424c0.03824,-0.00977 0.0792,-0.01757 0.12307,-0.0231c0.28934,-0.0365 0.48035,0.05371 0.60578,0.17759c0.03342,0.00057 0.06835,0.00294 0.10486,0.00733c0.34297,0.04118 0.509,0.22135 0.58835,0.40377c2.40217,0.26731 2.99996,-4.33649 5.50398,-2.52185c1.42465,1.03244 1.10433,3.1051 1.08192,4.57275c-0.0431,2.82164 -0.99369,5.56813 -1.74337,8.29877c-0.52101,2.10982 0.05632,4.24094 0.32766,6.38726c0.09109,0.72053 -0.21473,1.6118 0.25757,2.16352c0.36876,0.43076 1.03431,-0.52972 1.40541,-0.95848c3.12014,-3.60494 3.25451,-10.32508 3.68113,-14.85309c-0.0845,-5.17269 -0.30935,-12.41091 2.28215,-16.99861c2.24958,-3.98237 6.82177,-6.74449 8.85322,-1.03877c1.29128,3.03449 2.02179,6.56423 2.91832,9.73217c0.19318,0.68257 -0.085,1.31445 0.50322,1.8522c0.22497,0.20567 0.4488,-0.41733 0.63168,-0.66118c0.44299,-0.59065 0.58287,-1.35761 0.91253,-2.01823c1.16683,-2.33823 2.57956,-4.99363 5.06876,-6.00748c5.37517,-0.67804 1.68144,8.77206 3.43331,11.9785c0.18549,0.3395 0.44324,-0.6686 0.77954,-0.85982c0.45155,-0.25674 2.01608,-0.88126 2.55162,-0.41705c0.38493,0.33367 0.42167,0.97614 0.36967,1.4829c-0.14174,1.38158 -0.87498,3.84524 -1.36368,5.23486c-0.54565,4.3629 -3.48919,8.10244 -5.07674,12.08762c-1.6937,4.25164 -3.08286,8.67492 -5.7423,12.48479c-2.16383,4.80795 -3.93359,9.55841 -7.19915,13.75401c-0.68122,0.87524 -1.17639,2.25685 -2.07811,2.91391c-2.03472,1.48267 -5.90537,0.93126 -7.00922,-1.25692c-4.21307,-6.33518 -6.04086,-13.5278 -8.45202,-20.7355c-0.87776,-2.41371 -1.32595,-5.01604 -1.63973,-7.64645c-1.16639,-4.17349 -2.12323,-8.42656 -3.55224,-12.50717zM169.58866,134.02141c-0.00756,-0.05427 -0.0151,-0.10856 -0.02261,-0.16283c-0.1186,-0.44849 -0.19909,-0.86281 -0.17175,-1.27594c-0.01189,-0.09072 -0.02373,-0.18146 -0.0355,-0.27218c-0.08027,0.47322 0.03395,1.07653 0.22984,1.71094z" fill="#000000" stroke="none" stroke-width="0.5" stroke-linecap="butt"/><path d="M310.86732,135.02334c0.34926,2.62594 0.56137,5.25803 0.31049,7.81411c-0.54572,7.5807 -0.53011,15.00191 -3.03797,22.18489c-0.52586,2.39375 -4.13833,3.88909 -6.47751,2.95816c-1.03664,-0.41255 -1.85938,-1.62792 -2.73661,-2.30657c-4.20517,-3.25324 -7.09919,-7.41539 -10.38921,-11.53538c-3.52224,-3.03011 -5.96634,-6.96984 -8.66279,-10.66771c-2.52747,-3.4661 -6.30746,-6.35754 -7.91946,-10.44826c-0.81847,-1.22473 -2.14054,-3.42913 -2.62094,-4.73223c-0.1762,-0.47798 -0.30019,-1.10943 -0.01016,-1.52824c0.40347,-0.58265 2.07409,-0.36622 2.57525,-0.22966c0.37326,0.10171 0.87329,1.01423 0.96865,0.6393c0.90073,-3.54105 -5.02406,-11.77784 0.35111,-12.45587c2.66299,0.36395 4.6909,2.58533 6.40184,4.56056c0.4834,0.55807 0.80935,1.26626 1.38514,1.72839c0.23771,0.19079 0.60924,0.73868 0.77609,0.48359c0.43626,-0.66696 0.00988,-1.20998 0.0275,-1.91914c0.08176,-3.29135 -0.08716,-6.89191 0.41011,-10.15202c0.5509,-6.03146 5.6658,-4.4913 8.83386,-1.19232c3.6496,3.80042 5.22925,10.86775 6.43194,15.89939c1.5377,4.28024 3.33669,10.75649 7.25432,13.47367c0.46593,0.32317 1.34917,1.08829 1.5994,0.57945c0.3205,-0.65171 -0.19707,-1.43912 -0.28777,-2.1597c-0.27015,-2.14647 -0.24012,-4.3542 -1.26877,-6.26855c-1.4043,-2.45893 -3.00717,-4.88333 -3.7496,-7.60588c-0.38618,-1.41609 -1.21117,-3.3443 -0.08754,-4.69818c1.97494,-2.37961 3.69728,1.93152 5.95782,1.07605c0.03155,-0.19639 0.14765,-0.41216 0.46965,-0.53722c0.03426,-0.01331 0.06752,-0.02429 0.09975,-0.03313c0.09073,-0.15116 0.25337,-0.28595 0.54271,-0.32245c0.04387,-0.00553 0.08549,-0.00816 0.12496,-0.00818l-0.10524,-0.83424c-0.05184,-0.41096 0.23928,-0.78612 0.65024,-0.83797c0.41097,-0.05184 0.78612,0.23929 0.83797,0.65024l0.03606,0.28593c0.17345,-0.08771 0.35151,-0.11896 0.53515,-0.04847c1.51028,0.57969 1.20659,4.05234 1.10861,5.19013c-0.37092,4.30766 -0.24159,8.66512 -0.33505,12.99753zM309.74609,118.38149c0.01114,0.09081 0.02219,0.18163 0.03321,0.27246c0.1291,0.39339 0.15402,0.81472 0.15049,1.27862c0.00622,0.05444 0.01237,0.10889 0.01853,0.16335c0.0322,-0.66319 -0.00698,-1.27596 -0.20224,-1.71443z" data-paper-data="{&quot;index&quot;:null}" fill="#000000" stroke="none" stroke-width="0.5" stroke-linecap="butt"/><path d="M254.00371,77.25532c1.34662,10.67548 -5.92488,15.46676 -18.53239,17.0571c-12.6075,1.59033 -21.07512,-1.11313 -22.42174,-11.78862c-1.34662,-10.67548 6.04827,-15.48233 18.65578,-17.07267c12.6075,-1.59033 20.95173,1.1287 22.29836,11.80418z" fill="url(#color-17)" stroke="none" stroke-width="0" stroke-linecap="butt"/><path d="M248.01579,181.1796c0.24099,-1.75588 4.63819,-2.86009 6.61677,-3.30083l0.20849,-0.13934c0.03218,-0.02249 0.07014,-0.03771 0.11181,-0.04297c0.13699,-0.01728 0.26204,0.07976 0.27932,0.21675c0.00749,0.05933 -0.00648,0.11643 -0.03585,0.1635l-0.19385,0.3167c-0.4983,1.8785 -0.43751,3.4177 -0.04842,5.32005c0.91697,3.05488 2.11951,4.17047 4.4589,5.67465l0.00409,-0.01566l0.32005,0.08344c0.09864,0.02329 0.17717,0.10563 0.19061,0.21209c0.01728,0.13699 -0.07976,0.26204 -0.21675,0.27932l-0.23266,0.02935c-0.46205,0.1379 -0.93325,0.23767 -1.4006,0.36503c-2.30865,0.28748 -5.42011,1.75744 -7.78077,1.38332l0.00493,0.03914l-0.24804,0.03129c-0.13699,0.01728 -0.26204,-0.07976 -0.27932,-0.21675c-0.01489,-0.11805 0.05511,-0.22722 0.1624,-0.26622l0.23534,-0.0914l0.00095,0.00243l0.00461,-0.00454c2.07219,-0.66404 1.20976,-3.93142 0.52129,-5.36182c-0.54458,-1.62765 -2.882,-5.41979 -5.05309,-5.03386c0,0 -0.24804,0.03129 -0.27932,-0.21675c-0.03129,-0.24804 0.21675,-0.27932 0.21675,-0.27932c0.84221,-0.0801 1.67397,0.27273 2.43236,0.85237z" fill="#000000" stroke="none" stroke-width="0.5" stroke-linecap="butt"/><path d="M257.2922,184.84096c0.05341,0.42341 -0.22634,0.8074 -0.62484,0.85767c-0.3985,0.05027 -0.76485,-0.25222 -0.81826,-0.67563c-0.05341,-0.42341 0.22634,-0.8074 0.62484,-0.85767c0.3985,-0.05027 0.76485,0.25222 0.81826,0.67563z" fill="#000000" stroke="none" stroke-width="0" stroke-linecap="butt"/><path d="M229.10042,155.18459c0,0 6.56547,-7.32084 8.18847,-11.28294c1.23916,-3.02507 0.71253,-10.44634 0.71253,-10.44634c0,0 7.47805,-1.55867 6.8122,-1.27124c-0.83253,0.35938 1.18986,6.46371 4.67745,11.58283c3.15932,4.63728 9.07847,7.89959 9.07847,7.89959c0,0 -9.9726,-3.34431 -14.79575,-2.76852c-4.99394,0.59619 -14.67336,6.28663 -14.67336,6.28663z" fill="url(#color-18)" stroke="none" stroke-width="0" stroke-linecap="butt"/></g></g></svg>