<svg version="1.1" xmlns="http://www.w3.org/2000/svg" xmlns:xlink="http://www.w3.org/1999/xlink" width="160.97336" height="267.22501" viewBox="0,0,160.97336,267.22501"><defs><radialGradient cx="235.21435" cy="88.20173" r="15.35715" gradientUnits="userSpaceOnUse" id="color-1"><stop offset="0" stop-color="#af4300"/><stop offset="1" stop-color="#af4300" stop-opacity="0"/></radialGradient><radialGradient cx="256.57147" cy="89.48744" r="3.14285" gradientUnits="userSpaceOnUse" id="color-2"><stop offset="0" stop-color="#af4300"/><stop offset="1" stop-color="#af4300" stop-opacity="0"/></radialGradient><radialGradient cx="252.92863" cy="90.77316" r="2.64286" gradientUnits="userSpaceOnUse" id="color-3"><stop offset="0" stop-color="#af4300"/><stop offset="1" stop-color="#af4300" stop-opacity="0"/></radialGradient><radialGradient cx="266.14291" cy="89.34459" r="2.71429" gradientUnits="userSpaceOnUse" id="color-4"><stop offset="0" stop-color="#af4300"/><stop offset="1" stop-color="#af4300" stop-opacity="0"/></radialGradient><radialGradient cx="215.71435" cy="88.84459" r="4.57143" gradientUnits="userSpaceOnUse" id="color-5"><stop offset="0" stop-color="#af4300"/><stop offset="1" stop-color="#af4300" stop-opacity="0"/></radialGradient></defs><g transform="translate(-144.14069,-46.38751)"><g data-paper-data="{&quot;isPaintingLayer&quot;:true}" fill-rule="nonzero" stroke-linejoin="miter" stroke-miterlimit="10" stroke-dasharray="" stroke-dashoffset="0" style="mix-blend-mode: normal"><g stroke-linecap="butt"><path d="M179.28375,313.61252v-267.22501h123.18203v267.22501z" fill-opacity="0.01" fill="#000000" stroke="none" stroke-width="0"/><path d="M206.75006,307.5c0,0 2.17955,-18.9764 3.7767,-32.88207c2.77074,-24.12361 11.36615,-98.96003 11.36615,-98.96003l37.78325,-0.15789l13.57389,132z" fill="#e67c00" stroke="#000000" stroke-width="2"/><path d="M219.70029,204.11263l3.12142,-26.32765l35.83075,-0.14203l2.76735,26.1059c0,0 -7.51543,4.19603 -21.55904,4.50964c-12.48458,0.27879 -20.16049,-4.14586 -20.16049,-4.14586z" fill="#a85900" stroke="#000000" stroke-width="0"/><path d="M231.85214,214.86615c-2.13398,1.54514 -3.08827,3.39502 -4.25035,5.58208l-0.05911,0.3547c-0.01506,0.10142 -0.1025,0.17923 -0.20811,0.17923c-0.11621,0 -0.21041,-0.0942 -0.21041,-0.21041v-0.24047c0.00236,-0.50599 -0.1423,-0.98298 -0.40109,-1.41397c-0.53521,-1.55178 -1.79894,-2.95848 -3.45683,-3.26683c-0.71072,-0.13218 -1.4219,-0.06065 -2.12365,-0.14803v0.04959h-0.3607c-0.11621,0 -0.21041,-0.0942 -0.21041,-0.21041c0,-0.08399 0.04922,-0.15649 0.12039,-0.19023l0.23067,-0.11534c0.71767,-0.43462 1.57126,-0.74066 2.20946,-1.2903c0.87711,-0.75181 1.97169,-1.94227 2.20524,-3.17148c0.00492,-0.40392 -0.04991,-0.81418 -0.10098,-1.22111c-0.1551,-0.50711 -0.36622,-1.00557 -0.27,-1.45688c0,0 0.02578,-0.1031 0.11395,-0.14444v-0.045c0,-0.11621 0.0942,-0.21041 0.21041,-0.21041c0.10342,0 0.18942,0.07462 0.20709,0.17297l0.05935,0.29676l-0.00815,0.00163l0.01121,0.0189c-0.00023,0.09705 0.00353,0.19172 0.011,0.28435c0.08928,0.22143 0.13168,0.49954 0.15186,0.76584c0.15715,0.4964 0.41389,0.95432 0.70713,1.44277c1.05053,1.56452 2.70229,2.78143 4.6032,3.09094c0.53089,0.08644 1.02528,0.06326 1.53139,0.11996v-0.06223h0.42082c0.11621,0 0.2104,0.0942 0.2104,0.21041c0,0.10013 -0.06994,0.18393 -0.16364,0.2052l-0.22508,0.05627c-0.37025,0.15268 -0.64625,0.30736 -0.95504,0.56597zM222.15346,215.05318c-0.15022,0.07772 -0.30116,0.15415 -0.45062,0.23188c0.01923,-0.00005 0.03853,0.0001 0.05791,0.00044c0.04252,-0.04563 0.0968,-0.06372 0.0968,-0.06372l0.11544,-0.02481c0.06052,-0.04813 0.12067,-0.09603 0.18046,-0.14379z" fill="#ffc788" stroke="none" stroke-width="0.5"/><path d="M223.68845,209.96124c-0.47488,0.97872 -0.46105,1.83809 -0.457,2.86068l0.04773,0.1406c0.01432,0.03984 -0.00232,0.08522 -0.04075,0.10584c-0.04228,0.02268 -0.09494,0.00679 -0.11763,-0.03549l-0.04693,-0.0875c-0.0979,-0.18457 -0.24364,-0.32989 -0.42192,-0.4362c-0.49762,-0.46016 -1.23201,-0.72535 -1.89543,-0.51395c-0.2844,0.09062 -0.52921,0.25546 -0.8016,0.36064l0.00968,0.01804l-0.13125,0.07041c-0.04228,0.02268 -0.09494,0.00679 -0.11762,-0.03549c-0.01639,-0.03056 -0.01264,-0.06655 0.00667,-0.09271l0.06142,-0.08699c0.1763,-0.29821 0.42715,-0.57618 0.55209,-0.90073c0.1724,-0.44475 0.33832,-1.09155 0.18338,-1.5844c-0.07704,-0.14793 -0.17708,-0.28651 -0.27508,-0.4246c-0.15542,-0.15425 -0.32952,-0.29441 -0.3826,-0.4774c0,0 -0.01074,-0.04254 0.01327,-0.07479l-0.00878,-0.01638c-0.02268,-0.04228 -0.00679,-0.09494 0.03549,-0.11763c0.03763,-0.02018 0.08348,-0.00982 0.1091,0.02251l0.07952,0.0964l-0.00264,0.00218l0.00777,0.00469c0.01886,0.03536 0.0387,0.06907 0.0595,0.10131c0.0757,0.06314 0.14541,0.15606 0.20473,0.24902c0.15407,0.14995 0.33686,0.26645 0.53889,0.38694c0.68761,0.36422 1.52614,0.48461 2.27821,0.2262c0.21004,-0.07217 0.3854,-0.1771 0.58062,-0.25526l-0.01215,-0.02264l0.15311,-0.08213c0.04228,-0.02268 0.09494,-0.0068 0.11763,0.03548c0.01954,0.03644 0.01046,0.08058 -0.01949,0.10661l-0.07092,0.0644c-0.10492,0.12782 -0.17515,0.23797 -0.23703,0.39234zM220.19601,211.9223c-0.03949,0.0576 -0.07949,0.11487 -0.1187,0.17233c0.00699,-0.00377 0.01404,-0.00748 0.02116,-0.01114c0.00656,-0.0249 0.02278,-0.04208 0.02278,-0.04208l0.03716,-0.03156c0.01263,-0.02933 0.02516,-0.05849 0.0376,-0.08755z" fill="#ffc788" stroke="none" stroke-width="0.5"/><path d="M230.00614,217.1689l-0.07091,-0.0644c-0.02994,-0.02603 -0.03904,-0.07017 -0.01949,-0.10661c0.02268,-0.04228 0.07534,-0.05817 0.11763,-0.03548l0.15312,0.08213l-0.01215,0.02264c0.19522,0.07816 0.37058,0.18309 0.58062,0.25526c0.75207,0.25841 1.5906,0.13802 2.27822,-0.2262c0.20203,-0.12049 0.38483,-0.23699 0.53889,-0.38694c0.05932,-0.09295 0.12903,-0.18588 0.20473,-0.24902c0.02079,-0.03224 0.04064,-0.06596 0.05949,-0.10131l0.00777,-0.00469l-0.00264,-0.00219l0.07951,-0.0964c0.02562,-0.03233 0.07147,-0.0427 0.1091,-0.02251c0.04228,0.02268 0.05817,0.07534 0.03549,0.11763l-0.00878,0.01638c0.02401,0.03225 0.01327,0.07479 0.01327,0.07479c-0.05308,0.18299 -0.22718,0.32315 -0.3826,0.4774c-0.09801,0.13809 -0.19804,0.27667 -0.27508,0.4246c-0.15494,0.49284 0.01097,1.13965 0.18337,1.5844c0.12493,0.32456 0.37579,0.60252 0.55209,0.90073l0.06142,0.08699c0.01931,0.02616 0.02307,0.06215 0.00667,0.09271c-0.02268,0.04228 -0.07534,0.05817 -0.11762,0.03549l-0.13125,-0.0704l0.00968,-0.01804c-0.27239,-0.10518 -0.5172,-0.27001 -0.8016,-0.36064c-0.66342,-0.2114 -1.3978,0.05378 -1.89542,0.51395c-0.17828,0.1063 -0.32403,0.25163 -0.42193,0.4362l-0.04693,0.0875c-0.02268,0.04228 -0.07534,0.05818 -0.11763,0.03549c-0.03842,-0.02061 -0.05506,-0.066 -0.04074,-0.10584l0.04772,-0.1406c0.00404,-1.02259 0.01788,-1.88196 -0.457,-2.86068c-0.06188,-0.15437 -0.13211,-0.26452 -0.23703,-0.39234zM233.7732,219.60985l0.03716,0.03156c0,0 0.01622,0.01718 0.02278,0.04208c0.00712,0.00366 0.01417,0.00737 0.02116,0.01114c-0.03921,-0.05746 -0.07922,-0.11472 -0.1187,-0.17233c0.01244,0.02905 0.02497,0.05822 0.0376,0.08755z" data-paper-data="{&quot;index&quot;:null}" fill="#ffc788" stroke="none" stroke-width="0.5"/><g fill="#ffc788" stroke="none" stroke-width="0.5"><path d="M252.92444,293.90018l-0.22508,-0.05627c-0.0937,-0.02127 -0.16364,-0.10506 -0.16364,-0.2052c0,-0.1162 0.0942,-0.2104 0.2104,-0.2104h0.42082v0.06223c0.50611,-0.0567 1.00051,-0.03352 1.53139,-0.11996c1.9009,-0.30951 3.55266,-1.52642 4.6032,-3.09094c0.29324,-0.48845 0.54998,-0.94636 0.70713,-1.44276c0.02018,-0.2663 0.06257,-0.54442 0.15186,-0.76584c0.00746,-0.09262 0.01122,-0.1873 0.01099,-0.28434l0.01121,-0.0189l-0.00815,-0.00163l0.05935,-0.29676c0.01767,-0.09834 0.10366,-0.17297 0.20708,-0.17297c0.1162,0 0.21041,0.09421 0.21041,0.21041v0.045c0.08817,0.04134 0.11395,0.14443 0.11395,0.14443c0.09621,0.4513 -0.1149,0.94977 -0.27,1.45688c-0.05106,0.40693 -0.1059,0.81719 -0.10098,1.2211c0.23355,1.22922 1.32813,2.41968 2.20524,3.17149c0.6382,0.54964 1.49179,0.85568 2.20945,1.2903l0.23067,0.11534c0.07117,0.03373 0.12039,0.10623 0.12039,0.19023c0,0.1162 -0.0942,0.21041 -0.21041,0.21041h-0.3607v-0.04959c-0.70175,0.08738 -1.41293,0.01585 -2.12365,0.14803c-1.65789,0.30834 -2.92162,1.71505 -3.45683,3.26683c-0.2588,0.43099 -0.40346,0.90798 -0.40109,1.41397v0.24046c0,0.1162 -0.09421,0.21041 -0.21041,0.21041c-0.10561,0 -0.19305,-0.07781 -0.20811,-0.17923l-0.05912,-0.3547c-1.16208,-2.18705 -2.11637,-4.03694 -4.25035,-5.58208c-0.30879,-0.25861 -0.58479,-0.41329 -0.95504,-0.56597zM263.75862,294.79697l0.11545,0.02481c0,0 0.05428,0.0181 0.09679,0.06372c0.01938,-0.00034 0.03869,-0.00049 0.05792,-0.00044c-0.14945,-0.07773 -0.30041,-0.15416 -0.45062,-0.23188c0.0598,0.04776 0.11995,0.09566 0.18046,0.1438z" data-paper-data="{&quot;index&quot;:null}"/><path d="M261.80614,289.1689l-0.07092,-0.06441c-0.02994,-0.02603 -0.03904,-0.07017 -0.01949,-0.10661c0.02268,-0.04228 0.07535,-0.05816 0.11763,-0.03548l0.15312,0.08213l-0.01215,0.02264c0.19522,0.07815 0.37058,0.18309 0.58062,0.25525c0.75207,0.2584 1.5906,0.13802 2.27821,-0.2262c0.20204,-0.12049 0.38483,-0.23699 0.5389,-0.38694c0.05932,-0.09296 0.12903,-0.18588 0.20473,-0.24902c0.0208,-0.03224 0.04064,-0.06595 0.0595,-0.10131l0.00777,-0.00469l-0.00264,-0.00218l0.07951,-0.09639c0.02562,-0.03233 0.07148,-0.0427 0.1091,-0.02251c0.04228,0.02268 0.05817,0.07534 0.03549,0.11762l-0.00878,0.01638c0.02402,0.03225 0.01327,0.07479 0.01327,0.07479c-0.05307,0.18299 -0.22718,0.32315 -0.3826,0.4774c-0.09801,0.1381 -0.19804,0.27667 -0.27508,0.4246c-0.15494,0.49284 0.01097,1.13964 0.18337,1.58439c0.12493,0.32456 0.37579,0.60252 0.55209,0.90073l0.06142,0.08699c0.01931,0.02616 0.02306,0.06216 0.00667,0.09271c-0.02268,0.04228 -0.07534,0.05817 -0.11762,0.03549l-0.13124,-0.0704l0.00968,-0.01804c-0.2724,-0.10517 -0.5172,-0.27001 -0.8016,-0.36064c-0.66342,-0.2114 -1.39781,0.05378 -1.89542,0.51394c-0.17829,0.10631 -0.32403,0.25163 -0.42192,0.4362l-0.04694,0.08749c-0.02268,0.04228 -0.07534,0.05817 -0.11762,0.03549c-0.03843,-0.02062 -0.05506,-0.06599 -0.04075,-0.10583l0.04773,-0.1406c0.00405,-1.0226 0.01788,-1.88196 -0.457,-2.86068c-0.06188,-0.15437 -0.13211,-0.26452 -0.23703,-0.39234zM265.5732,291.60985l0.03717,0.03156c0,0 0.01621,0.01718 0.02278,0.04208c0.00712,0.00366 0.01417,0.00737 0.02116,0.01114c-0.03921,-0.05746 -0.07921,-0.11473 -0.1187,-0.17233c0.01244,0.02905 0.02497,0.05822 0.0376,0.08755z" data-paper-data="{&quot;index&quot;:null}"/><path d="M255.48845,297.16123c-0.47488,0.97872 -0.46104,1.83808 -0.457,2.86068l0.04772,0.1406c0.01432,0.03984 -0.00232,0.08522 -0.04074,0.10584c-0.04228,0.02268 -0.09494,0.00678 -0.11763,-0.0355l-0.04693,-0.08749c-0.0979,-0.18457 -0.24364,-0.32989 -0.42193,-0.4362c-0.49762,-0.46017 -1.232,-0.72535 -1.89542,-0.51394c-0.2844,0.09062 -0.52921,0.25546 -0.8016,0.36064l0.00968,0.01804l-0.13125,0.0704c-0.04228,0.02268 -0.09494,0.00679 -0.11762,-0.03549c-0.01639,-0.03056 -0.01264,-0.06655 0.00667,-0.09271l0.06142,-0.08699c0.1763,-0.29822 0.42715,-0.57617 0.55209,-0.90073c0.1724,-0.44475 0.33832,-1.09155 0.18337,-1.5844c-0.07704,-0.14793 -0.17708,-0.2865 -0.27508,-0.4246c-0.15542,-0.15425 -0.32952,-0.29441 -0.3826,-0.4774c0,0 -0.01074,-0.04254 0.01327,-0.07479l-0.00878,-0.01638c-0.02268,-0.04228 -0.00679,-0.09495 0.03549,-0.11763c0.03763,-0.02019 0.08348,-0.00982 0.1091,0.02251l0.07951,0.0964l-0.00264,0.00218l0.00777,0.00469c0.01886,0.03535 0.0387,0.06907 0.05949,0.10131c0.0757,0.06314 0.14541,0.15606 0.20473,0.24902c0.15407,0.14995 0.33686,0.26645 0.53889,0.38694c0.68761,0.36422 1.52615,0.4846 2.27822,0.2262c0.21004,-0.07216 0.3854,-0.1771 0.58062,-0.25526l-0.01215,-0.02264l0.15312,-0.08213c0.04228,-0.02268 0.09494,-0.0068 0.11763,0.03548c0.01954,0.03643 0.01045,0.08058 -0.01949,0.10661l-0.07091,0.0644c-0.10492,0.12782 -0.17515,0.23797 -0.23703,0.39234zM251.99601,299.1223c-0.03949,0.0576 -0.07949,0.11487 -0.1187,0.17233c0.00699,-0.00377 0.01404,-0.00748 0.02116,-0.01114c0.00656,-0.0249 0.02278,-0.04208 0.02278,-0.04208l0.03716,-0.03156c0.01263,-0.02932 0.02516,-0.05849 0.0376,-0.08754z" data-paper-data="{&quot;index&quot;:null}"/></g></g><path d="M275.65602,167.66531c9.14649,0.69331 13.32248,25.6704 11.46487,50.17676c-1.65943,21.89197 -14.53862,63.77197 -24.40369,70.20581c-0.7846,0.51171 -3.01179,-50.31107 -1.15419,-74.81744c1.8576,-24.50637 4.94652,-46.25845 14.093,-45.56514z" data-paper-data="{&quot;index&quot;:null}" fill="#ffffff" stroke="#000000" stroke-width="2" stroke-linecap="butt"/><path d="M220.00346,215.85672c0.25321,10.41577 -0.90346,31.08531 -2.33342,47.85889c-1.21101,14.20537 -2.61803,25.61648 -3.53068,25.63866c-9.17002,0.22292 -19.29952,-45.63444 -19.8968,-70.20386c-0.59728,-24.56941 4.85524,-49.29923 14.02526,-49.52215c9.17002,-0.22292 11.13836,21.65904 11.73563,46.22845z" fill="#ffffff" stroke="#000000" stroke-width="2" stroke-linecap="butt"/><path d="M183.52139,109.27593c-1.30084,0.40498 -11.53203,4.32572 -15.29959,7.56004c-3.14207,2.7197 -4.08754,9.58924 -4.12269,12.64864c-0.04255,3.73108 0.91197,6.70808 3.29049,10.28053c2.29956,3.4536 14.20782,11.15765 16.13179,12.07841l4.26648,12.95639c0,0 -20.22227,-4.49645 -32.31874,-14.89443c-4.08744,-3.51352 -9.8267,-12.8102 -10.32844,-21.48936c-0.47739,-8.25788 4.13488,-15.95673 6.0846,-17.58337c11.82862,-9.86858 32.2961,-14.83284 32.2961,-14.83284z" data-paper-data="{&quot;index&quot;:null}" fill="#f7dbb5" stroke="#000000" stroke-width="2" stroke-linecap="butt"/><g fill="#f7dbb5" stroke="#000000" stroke-width="2" stroke-linecap="butt"><g data-paper-data="{&quot;index&quot;:null}"><g data-paper-data="{&quot;index&quot;:null}"><path d="M248.93265,92.49853c-1.43795,-1.22127 -2.44285,-2.94424 -2.79866,-5.06624c-0.98212,-5.85726 3.35305,-12.53671 9.6829,-14.91897c6.32984,-2.38226 12.25738,0.43479 13.23951,6.29205c0.98212,5.85726 -3.35306,12.5367 -9.68291,14.91896c-4.03664,1.5192 -7.90966,0.92395 -10.44083,-1.2258z"/></g><g data-paper-data="{&quot;index&quot;:null}"><path d="M279.98458,92.22582c0,-6.03925 5.29078,-10.93502 11.8173,-10.93502c6.52652,0 11.8173,4.89578 11.8173,10.93502c0,6.03925 -5.29078,10.93502 -11.8173,10.93502c-6.52652,0 -11.8173,-4.89577 -11.8173,-10.93502z"/><path d="M264.76111,86.91452c0,-6.03925 5.29079,-10.93502 11.8173,-10.93502c6.52652,0 11.8173,4.89577 11.8173,10.93502c0,6.03925 -5.29078,10.93502 -11.8173,10.93502c-6.52652,0 -11.8173,-4.89578 -11.8173,-10.93502z"/></g></g><g data-paper-data="{&quot;index&quot;:null}"><path d="M219.13371,93.72433c-6.07061,-2.38226 -10.22825,-9.0617 -9.28634,-14.91896c0.9419,-5.85726 6.62668,-8.67431 12.69729,-6.29205c6.07061,2.38226 10.22824,9.06171 9.28634,14.91897c-0.9419,5.85726 -6.62668,8.6743 -12.69728,6.29204z"/><path d="M234.12213,94.12984c-6.07061,-2.38226 -10.22825,-9.06171 -9.28634,-14.91897c0.9419,-5.85726 6.62668,-8.6743 12.69729,-6.29204c6.07061,2.38226 10.22824,9.0617 9.28634,14.91896c-0.9419,5.85726 -6.62668,8.6743 -12.69728,6.29205z"/></g><g data-paper-data="{&quot;index&quot;:null}"><path d="M188.0334,103.16084c-6.25922,0 -11.33334,-4.89577 -11.33334,-10.93502c0,-6.03925 5.07411,-10.93502 11.33334,-10.93502c6.25922,0 11.33333,4.89578 11.33333,10.93502c0,6.03925 -5.07411,10.93502 -11.33333,10.93502z"/><path d="M202.6334,97.84954c-6.25922,0 -11.33334,-4.89578 -11.33334,-10.93502c0,-6.03925 5.07411,-10.93502 11.33334,-10.93502c6.25922,0 11.33333,4.89577 11.33333,10.93502c0,6.03925 -5.07411,10.93502 -11.33333,10.93502z"/></g></g><path d="M303.63334,96.43334c0,7.73199 -28.3553,14 -63.33333,14c-34.97803,0 -63.33333,-6.26801 -63.33333,-14c0,-7.73199 28.3553,-14 63.33333,-14c34.97803,0 63.33333,6.26801 63.33333,14z" fill="#6c2a00" stroke="#000000" stroke-width="2" stroke-linecap="butt"/><g fill="#f7dbb5" stroke="#000000" stroke-width="2" stroke-linecap="butt"><g data-paper-data="{&quot;index&quot;:null}"><path d="M259.37347,94.42307c6.32984,1.7267 10.66503,6.56807 9.68291,10.81351c-0.98212,4.24544 -6.90966,6.28728 -13.23951,4.56059c-6.32985,-1.7267 -10.66502,-6.56808 -9.6829,-10.81352c0.35581,-1.53806 1.36071,-2.7869 2.79866,-3.67209c2.53117,-1.55818 6.40419,-1.98963 10.44083,-0.88849z"/></g><g data-paper-data="{&quot;index&quot;:null}"><path d="M291.80186,87.58334c6.52652,0 11.8173,3.54854 11.8173,7.92589c0,4.37735 -5.29078,7.92589 -11.8173,7.92589c-6.52652,0 -11.8173,-3.54854 -11.8173,-7.92589c0,-4.37735 5.29078,-7.92589 11.8173,-7.92589z"/><path d="M276.57842,91.43305c6.52652,0 11.8173,3.54854 11.8173,7.92589c0,4.37735 -5.29078,7.92589 -11.8173,7.92589c-6.52652,0 -11.8173,-3.54854 -11.8173,-7.92589c0,-4.37735 5.29079,-7.92589 11.8173,-7.92589z"/></g></g><g fill="#f7dbb5" stroke="#000000" stroke-width="2" stroke-linecap="butt"><path d="M231.83098,98.06405c0.9419,4.58709 -3.21573,9.81808 -9.28634,11.68374c-6.07061,1.86566 -11.75538,-0.34051 -12.69729,-4.9276c-0.9419,-4.58709 3.21573,-9.81807 9.28634,-11.68373c6.07061,-1.86566 11.75538,0.3405 12.69728,4.92759z"/><path d="M246.81941,97.74648c0.9419,4.58709 -3.21573,9.81807 -9.28634,11.68373c-6.07061,1.86566 -11.75538,-0.3405 -12.69729,-4.92759c-0.9419,-4.58709 3.21573,-9.81808 9.28634,-11.68373c6.07061,-1.86566 11.75538,0.3405 12.69728,4.92759z"/></g><g fill="#f7dbb5" stroke="#000000" stroke-width="2" stroke-linecap="butt"><path d="M199.36672,95.25767c0,4.60661 -5.07411,8.341 -11.33333,8.341c-6.25922,0 -11.33334,-3.73439 -11.33334,-8.341c0,-4.60661 5.07411,-8.341 11.33334,-8.341c6.25922,0 11.33333,3.73439 11.33333,8.341z"/><path d="M213.96672,99.30901c0,4.60661 -5.07411,8.34099 -11.33333,8.34099c-6.25922,0 -11.33334,-3.73439 -11.33334,-8.34099c0,-4.60661 5.07411,-8.341 11.33334,-8.341c6.25922,0 11.33333,3.73439 11.33333,8.341z"/></g><path d="M174.32327,131.36699c0,-1.57271 0.34044,-30.50779 3.04944,-36.31717c0.14519,-0.31137 29.38735,5.90088 59.25932,5.9715c32.58371,0.07703 66.0433,-5.95118 66.49769,-5.41611c0.73852,0.86965 0.98433,31.81078 0.98433,36.09095c0,33.30185 -28.7599,60.29833 -64.23702,60.29833c-35.47712,0 -65.55375,-27.32567 -65.55375,-60.62751z" fill="#f8f7f9" stroke="#000000" stroke-width="2" stroke-linecap="butt"/><path d="M175.37553,131.75001c0,-0.72799 6.19421,55.91939 64.34801,56.93429c55.56352,0.9697 63.51358,-57.95314 63.51358,-56.93429c0,32.80479 -28.40173,59.39833 -63.43702,59.39833c-35.03529,0 -64.42457,-26.59354 -64.42457,-59.39833z" fill="#bdbcbe" stroke="#000000" stroke-width="0" stroke-linecap="butt"/><path d="M189.19021,132.12564c0,-12.968 10.51265,-23.48065 23.48065,-23.48065c12.968,0 23.48065,10.51265 23.48065,23.48065c0,12.968 -10.51265,23.48065 -23.48065,23.48065c-12.968,0 -23.48065,-10.51265 -23.48065,-23.48065z" fill="#ffffff" stroke="#000000" stroke-width="2" stroke-linecap="butt"/><path d="M196.25562,131.85c0,-9.12808 7.39976,-16.52784 16.52783,-16.52784c9.12808,0 16.52784,7.39977 16.52784,16.52784c0,9.12808 -7.39977,16.52784 -16.52784,16.52784c-9.12808,0 -16.52783,-7.39977 -16.52783,-16.52784z" fill="#000000" stroke="none" stroke-width="0" stroke-linecap="butt"/><path d="M266.92927,155.60627c-12.968,0 -23.48065,-10.51265 -23.48065,-23.48065c0,-12.968 10.51265,-23.48065 23.48065,-23.48065c12.968,0 23.48065,10.51265 23.48065,23.48065c0,12.968 -10.51265,23.48065 -23.48065,23.48065z" data-paper-data="{&quot;index&quot;:null}" fill="#ffffff" stroke="#000000" stroke-width="2" stroke-linecap="butt"/><path d="M266.81672,148.37785c-9.12807,0 -16.52783,-7.39977 -16.52783,-16.52784c0,-9.12808 7.39977,-16.52784 16.52783,-16.52784c9.12807,0 16.52783,7.39977 16.52783,16.52784c0,9.12808 -7.39977,16.52784 -16.52783,16.52784z" data-paper-data="{&quot;index&quot;:null}" fill="#000000" stroke="none" stroke-width="0" stroke-linecap="butt"/><path d="M267.42908,104.18173c-3.9295,-0.92235 -11.96762,-0.86207 -11.96762,-0.86207c0,0 7.24586,-1.8937 12.33413,-0.69937c5.08826,1.19433 11.79721,6.36355 11.79721,6.36355c0,0 -8.05724,-3.83822 -12.16372,-4.80211z" data-paper-data="{&quot;index&quot;:null}" fill="#000000" stroke="none" stroke-width="0" stroke-linecap="butt"/><path d="M201.5248,157.88745l2,-4" fill="none" stroke="#000000" stroke-width="2" stroke-linecap="round"/><path d="M213.1248,156.08745l-0.2,4" fill="none" stroke="#000000" stroke-width="2" stroke-linecap="round"/><g fill="none" stroke="#000000" stroke-width="2" stroke-linecap="round"><path d="M278.32478,158.08745l-2,-4" data-paper-data="{&quot;index&quot;:null}"/><path d="M266.72479,156.28745l0.2,4" data-paper-data="{&quot;index&quot;:null}"/></g><path d="M250.57148,88.20173c0,1.61741 -6.87563,2.92857 -15.35715,2.92857c-8.48152,0 -15.35714,-1.31117 -15.35714,-2.92857c0,-1.61741 6.87563,-2.92857 15.35714,-2.92857c8.48152,0 15.35715,1.31117 15.35715,2.92857z" fill="url(#color-1)" stroke="none" stroke-width="0" stroke-linecap="butt"/><path d="M259.71434,89.48744c0,1.14402 -1.40711,2.07143 -3.14285,2.07143c-1.73575,0 -3.14286,-0.92741 -3.14286,-2.07143c0,-1.14402 1.40711,-2.07143 3.14286,-2.07143c1.73575,0 3.14285,0.92741 3.14285,2.07143z" fill="url(#color-2)" stroke="none" stroke-width="0" stroke-linecap="butt"/><path d="M255.57148,90.77316c0,0.74953 -1.18325,1.35715 -2.64286,1.35715c-1.45961,0 -2.64285,-0.60761 -2.64285,-1.35715c0,-0.74953 1.18324,-1.35714 2.64285,-1.35714c1.45961,0 2.64286,0.60761 2.64286,1.35714z" fill="url(#color-3)" stroke="none" stroke-width="0" stroke-linecap="butt"/><path d="M268.85718,89.34459c0,0.67063 -1.21523,1.21429 -2.71429,1.21429c-1.49906,0 -2.71429,-0.54366 -2.71429,-1.21429c0,-0.67063 1.21523,-1.21429 2.71429,-1.21429c1.49906,0 2.71429,0.54366 2.71429,1.21429z" fill="url(#color-4)" stroke="none" stroke-width="0" stroke-linecap="butt"/><path d="M220.28576,88.84459c0,1.57796 -2.0467,2.85714 -4.57143,2.85714c-2.52473,0 -4.57143,-1.27918 -4.57143,-2.85714c0,-1.57796 2.04669,-2.85715 4.57143,-2.85715c2.52473,0 4.57143,1.27919 4.57143,2.85715z" fill="url(#color-5)" stroke="none" stroke-width="0" stroke-linecap="butt"/><path d="M195.46144,110.98384c0,0 6.70895,-5.16922 11.79721,-6.36355c5.08827,-1.19433 12.33413,0.69937 12.33413,0.69937c0,0 -8.03812,-0.06028 -11.96762,0.86207c-4.10648,0.96389 -12.16372,4.80211 -12.16372,4.80211z" data-paper-data="{&quot;index&quot;:null}" fill="#000000" stroke="none" stroke-width="0" stroke-linecap="butt"/><path d="M252.20239,171.48264c4.68608,1.07161 9.93606,6.01848 -0.44304,9.17429c-10.3791,3.15581 -27.74989,-7.50763 -27.74989,-7.50763c0,0 7.91833,1.06058 14.40774,0.50898c6.44368,-0.54772 11.45042,-2.70956 13.78518,-2.17565z" fill="#000000" stroke="#000000" stroke-width="2" stroke-linecap="round"/><path d="M246.44288,174.81483c0,1.97515 -13.28571,2.20914 -13.28571,0c0,-2.20914 2.97411,-4 6.64286,-4c3.66875,0 6.64286,1.79086 6.64286,4z" fill="#000000" stroke="#000000" stroke-width="2" stroke-linecap="butt"/></g></g></svg>