<svg version="1.1" xmlns="http://www.w3.org/2000/svg" xmlns:xlink="http://www.w3.org/1999/xlink" width="156.51275" height="276.65371" viewBox="0,0,156.51275,276.65371"><g transform="translate(-150.41029,-46.00647)"><g data-paper-data="{&quot;isPaintingLayer&quot;:true}" fill-rule="nonzero" stroke-linejoin="miter" stroke-miterlimit="10" stroke-dasharray="" stroke-dashoffset="0" style="mix-blend-mode: normal"><g><g stroke="#000000" stroke-width="2"><path d="M211.59014,263.77044c-9.45061,4.5737 -28.10116,18.40291 -28.10116,18.40291l-2.85125,-5.89152c0,0 19.03073,-14.01321 28.53356,-18.61218c2.88485,-1.39614 11.57052,-0.33486 18.78834,-3.57427c6.26301,-2.81088 15.38652,-14.19454 20.38001,-17.56363c5.7492,-3.87895 6.92959,0.42947 6.92959,0.42947c0,0 -10.66894,14.17543 -23.31153,21.96759c-7.03317,4.33484 -17.37917,3.39538 -20.36756,4.84162z" fill="#e8aa00" stroke-linecap="butt"/><g stroke-linecap="butt"><path d="M203.1701,279.45919l-17.66102,41.79557l-33.65997,-18.29467l25.00209,-37.53222z" fill="#c50c40"/><path d="M151.88261,302.7983c0.80767,-1.48602 9.00928,1.41114 18.31879,6.47098c9.30951,5.05985 16.20161,10.36633 15.39394,11.85236c-0.80767,1.48602 -9.00928,-1.41113 -18.31879,-6.47098c-9.30951,-5.05985 -16.20161,-10.36633 -15.39394,-11.85236z" fill="#8f092f"/><path d="M151.9626,302.83976c0.51126,-0.94065 4.68053,-1.59131 10.45402,0.0232c2.42902,0.67925 7.16952,2.99644 8.77445,3.86873c1.63029,0.88609 6.19814,3.36156 8.21226,4.95202c4.68147,3.69675 6.76392,7.254 6.25606,8.18839c-0.29522,0.54318 -2.68741,-2.04517 -7.36838,-5.32048c-2.15722,-1.50943 -14.01767,-7.8894 -16.37476,-8.69711c-5.54998,-1.90183 -10.14941,-2.65459 -9.95365,-3.01477z" fill="#b64d6b"/></g><path d="M181.45419,279.41413l8.56342,4.16226" fill="none" stroke-linecap="round"/><path d="M178.56874,303.43379l-5.81353,-3.48778" fill="none" stroke-linecap="round"/></g><g stroke-linecap="butt"><path d="M179.05897,313.23149v-267.22501h123.18203v267.22501z" fill-opacity="0.01" fill="#000000" stroke="none" stroke-width="0"/><g stroke="#000000"><path d="M204.02528,306.41899l18.64285,-132.3421l37.78325,-0.15789l16.82389,131.25c0,0 -5.02256,-2.3858 -10.18011,-1.99017c-5.53178,0.42434 -11.30909,3.62731 -13.98201,3.47494c-2.40795,-0.13727 -4.93774,-1.79572 -7.32122,-2.51924c-3.35354,-1.018 -6.22152,-1.16481 -6.34293,-1.17002c-3.74527,-0.16056 -7.96682,3.37713 -11.31307,3.68497c-6.6019,0.60733 -12.74052,-3.61992 -15.75761,-3.59837c-4.53713,0.03241 -8.35303,3.36788 -8.35303,3.36788z" fill="#edf3f5" stroke-width="2"/><path d="M220.67552,202.73162l3.12142,-26.32765l35.83075,-0.14203l2.76735,26.1059c0,0 -7.51543,4.19603 -21.55904,4.50964c-12.48458,0.27879 -20.16049,-4.14586 -20.16049,-4.14586z" fill="#cbd0d1" stroke-width="0"/></g></g><g><g data-paper-data="{&quot;index&quot;:null}"><g stroke="#000000" stroke-width="2"><path d="M296.65042,48.89862c1.04143,0.43201 7.24362,66.04965 1.70057,79.4121c-6.16937,14.87232 -51.55085,-18.67217 -45.38148,-33.54449c2.0154,-4.85845 42.99415,-46.15249 43.68091,-45.86761z" fill="#e90e4b" stroke-linecap="butt"/><path d="M270.31507,121.25031l24.05,-69.90492l-14.52524,77.25" fill="#7d0829" stroke-linecap="round"/></g><path d="M295.59506,50.42278c0.25008,0 0.65287,0.36009 0.89881,1.42969c0.71688,3.1178 0.95763,10.58672 0.84555,10.65519c-0.1114,0.06805 -2.7234,-12.08488 -1.74435,-12.08488z" fill="#770727" stroke="none" stroke-width="0" stroke-linecap="butt"/><path d="M283.71661,63.1908c-0.0516,-0.12079 4.47628,-6.06561 6.86852,-8.18972c0.82068,-0.7287 1.35766,-0.78843 1.56138,-0.64339c0.79757,0.56782 -8.37862,8.95315 -8.42989,8.83311z" data-paper-data="{&quot;index&quot;:null}" fill="#770727" stroke="none" stroke-width="0" stroke-linecap="butt"/><path d="M290.83409,64.92756c0.02111,0.00704 -0.02536,0.28214 -0.12463,0.75483c-0.66568,3.17012 -2.37202,16.14394 -3.31967,15.82805c-0.58729,-0.19576 -1.74473,-0.82523 -1.71759,-1.87859c0.03069,-1.19158 0.98755,-2.98562 1.5901,-4.79329c0.90936,-2.72807 3.32276,-9.99401 3.57178,-9.91101z" fill="#620620" stroke="none" stroke-width="0" stroke-linecap="butt"/></g><g><g stroke="#000000" stroke-width="2"><path d="M226.30013,95.9329c6.16938,14.87232 -39.2121,48.4168 -45.38148,33.54449c-5.54305,-13.36245 0.65913,-78.98009 1.70057,-79.4121c0.68676,-0.28488 41.66551,41.00917 43.68091,45.86761z" fill="#e90e4b" stroke-linecap="butt"/><path d="M199.42982,129.76206l-14.52524,-77.25l24.05,69.90492" fill="#7d0829" stroke-linecap="round"/></g><path d="M181.93024,63.67432c-0.11209,-0.06847 0.12866,-7.53738 0.84555,-10.65519c0.24593,-1.06959 0.64873,-1.42968 0.89881,-1.42968c0.97905,0 -1.63296,12.15293 -1.74435,12.08487z" fill="#770727" stroke="none" stroke-width="0" stroke-linecap="butt"/><path d="M187.12313,55.52435c0.20372,-0.14504 0.74069,-0.0853 1.56138,0.64339c2.39223,2.12411 6.92011,8.06893 6.86852,8.18972c-0.05128,0.12004 -9.22746,-8.26529 -8.42989,-8.83311z" data-paper-data="{&quot;index&quot;:null}" fill="#770727" stroke="none" stroke-width="0" stroke-linecap="butt"/><path d="M192.00732,76.00528c0.60255,1.80766 1.55941,3.6017 1.59011,4.79329c0.02713,1.05335 -1.1303,1.68283 -1.71759,1.87859c-0.94765,0.31588 -2.65399,-12.65793 -3.31967,-15.82805c-0.09926,-0.47269 -0.14573,-0.7478 -0.12462,-0.75483c0.24902,-0.08301 2.66242,7.18294 3.57178,9.91101z" fill="#620620" stroke="none" stroke-width="0" stroke-linecap="butt"/></g></g><path d="M173.64302,138.51609c0.92481,-0.98563 26.43521,-54.50329 26.86465,-54.72962c0.72159,-0.3803 72.28359,-2.2452 76.23108,-0.42149c0.21874,0.10106 28.56569,52.39963 29.1843,52.98632c0.57062,0.54119 -23.06407,56.31439 -23.08932,56.31684c-3.5528,0.34488 -83.32747,0.89041 -84.83858,-1.01716c-0.37687,-0.47574 -24.64877,-52.81875 -24.35213,-53.13489z" data-paper-data="{&quot;index&quot;:null}" fill="#f9d20e" stroke="#000000" stroke-width="2" stroke-linecap="butt"/><path d="M189.16541,135.69462c0,-12.968 10.51265,-23.48065 23.48065,-23.48065c12.968,0 23.48065,10.51265 23.48065,23.48065c0,12.968 -10.51265,23.48065 -23.48065,23.48065c-12.968,0 -23.48065,-10.51265 -23.48065,-23.48065z" fill="#ffffff" stroke="#000000" stroke-width="2" stroke-linecap="butt"/><path d="M196.23078,135.56899c0,-9.12808 7.39976,-16.52784 16.52783,-16.52784c9.12808,0 16.52784,7.39977 16.52784,16.52784c0,9.12808 -7.39977,16.52784 -16.52784,16.52784c-9.12808,0 -16.52783,-7.39977 -16.52783,-16.52784z" fill="#000000" stroke="none" stroke-width="0" stroke-linecap="butt"/><path d="M266.90447,159.17526c-12.968,0 -23.48065,-10.51265 -23.48065,-23.48065c0,-12.968 10.51265,-23.48065 23.48065,-23.48065c12.968,0 23.48065,10.51265 23.48065,23.48065c0,12.968 -10.51265,23.48065 -23.48065,23.48065z" data-paper-data="{&quot;index&quot;:null}" fill="#ffffff" stroke="#000000" stroke-width="2" stroke-linecap="butt"/><path d="M266.59193,152.24682c-9.12807,0 -16.52783,-7.39977 -16.52783,-16.52784c0,-9.12808 7.39977,-16.52784 16.52783,-16.52784c9.12807,0 16.52783,7.39977 16.52783,16.52784c0,9.12808 -7.39977,16.52784 -16.52783,16.52784z" data-paper-data="{&quot;index&quot;:null}" fill="#000000" stroke="none" stroke-width="0" stroke-linecap="butt"/><path d="M201.80312,103.88615c0,0 6.70895,-5.16922 11.79721,-6.36355c5.08827,-1.19433 12.33413,0.69937 12.33413,0.69937c0,0 -8.03812,-0.06028 -11.96762,0.86207c-4.10648,0.96389 -12.16372,4.80211 -12.16372,4.80211z" fill="#000000" stroke="none" stroke-width="0" stroke-linecap="butt"/><path d="M265.73755,99.08405c-3.9295,-0.92235 -11.96762,-0.86207 -11.96762,-0.86207c0,0 7.24586,-1.8937 12.33413,-0.69937c5.08826,1.19433 11.79721,6.36355 11.79721,6.36355c0,0 -8.05724,-3.83822 -12.16372,-4.80211z" data-paper-data="{&quot;index&quot;:null}" fill="#000000" stroke="none" stroke-width="0" stroke-linecap="butt"/><path d="M189.08205,135.78705c0,-12.96801 10.51265,-23.48065 23.48066,-23.48065c12.96801,0 23.48065,10.51264 23.48065,23.48065c0,0 -6.95852,-14.64634 -23.43307,-14.78879c-16.22494,-0.14029 -23.52823,15.4054 -23.52823,14.78879z" fill="#f9d20e" stroke="#000000" stroke-width="2" stroke-linecap="butt"/><path d="M243.42384,135.68703c0,-12.96801 10.51264,-23.48065 23.48065,-23.48065c12.96801,0 23.48066,10.51264 23.48066,23.48065c0,0.60606 -7.87275,-14.38438 -22.92496,-14.781c-15.05221,-0.39662 -24.03635,14.781 -24.03635,14.781z" data-paper-data="{&quot;index&quot;:null}" fill="#f9d20e" stroke="#000000" stroke-width="2" stroke-linecap="butt"/><path d="M252.33004,177.21899c0,0 -1.90061,1.05926 -5.5597,1.75306c-2.39248,0.45363 -6.88987,0.64694 -7.40377,0.64694c-0.46383,0 -4.59418,-0.12298 -6.55922,-0.51534c-3.54899,-0.70862 -5.58691,-1.88466 -5.58691,-1.88466" data-paper-data="{&quot;index&quot;:null}" fill="none" stroke="#000000" stroke-width="2" stroke-linecap="round"/><path d="M192.16195,113.22233l3.33333,5.66666" fill="none" stroke="#000000" stroke-width="2" stroke-linecap="round"/><path d="M190.72297,124.92053l-6.12204,-2.3964" fill="none" stroke="#000000" stroke-width="2" stroke-linecap="round"/><g data-paper-data="{&quot;index&quot;:null}" fill="none" stroke="#000000" stroke-width="2" stroke-linecap="round"><path d="M288.26758,114.22233l-3.33333,5.66666"/><path d="M289.70655,125.92053l6.12205,-2.3964"/></g><path d="M286.14956,182.07577c0,0.03765 -1.87045,5.8573 -1.90648,5.91707c-1.05433,1.74886 -1.44313,3.65836 -2.18858,3.79553c-5.49004,1.01022 -26.2322,0.47489 -31.30494,0.47489c-8.49423,0 -39.81955,-0.06342 -51.69545,-0.489c-0.9262,-0.03319 -6.47122,-14.1067 -6.47122,-14.37867c0,-0.31096 1.41114,8.24619 14.64939,11.27811c9.05355,2.07351 45.50254,1.49352 52.83209,1.49092c8.26984,-0.00293 15.79807,-0.87897 20.14928,-2.82346c4.742,-2.11913 5.93591,-5.31955 5.93591,-5.26539z" fill="#8e7709" stroke="none" stroke-width="0" stroke-linecap="butt"/><path d="M210.17649,111.99775c-0.16888,-0.72993 1.54976,-10.3985 2.35158,-10.3985c0.76516,0 2.65408,9.92852 2.50748,10.71544c-0.08189,0.43955 -1.14484,-0.19624 -2.25618,-0.2753c-1.22782,-0.08734 -2.51472,0.33941 -2.60288,-0.04163z" fill="#c30c40" stroke="#000000" stroke-width="2" stroke-linecap="butt"/><path d="M212.27936,159.52809c1.11134,-0.07906 2.1743,-0.71485 2.25618,-0.2753c0.1466,0.78691 -1.74231,10.71544 -2.50748,10.71544c-0.80183,0 -2.52047,-9.66857 -2.35158,-10.3985c0.08816,-0.38104 1.37505,0.04572 2.60288,-0.04163z" data-paper-data="{&quot;index&quot;:null}" fill="#c30c40" stroke="#000000" stroke-width="2" stroke-linecap="butt"/><g data-paper-data="{&quot;index&quot;:null}" fill="#c30c40" stroke="#000000" stroke-width="2" stroke-linecap="butt"><path d="M264.67649,111.99775c-0.16888,-0.72993 1.54976,-10.3985 2.35158,-10.3985c0.76517,0 2.65409,9.92852 2.50748,10.71544c-0.08189,0.43955 -1.14484,-0.19624 -2.25618,-0.2753c-1.22783,-0.08734 -2.51472,0.33941 -2.60288,-0.04163z" data-paper-data="{&quot;index&quot;:null}"/><path d="M266.77934,159.52809c1.11134,-0.07906 2.17429,-0.71485 2.25618,-0.2753c0.14661,0.78691 -1.74231,10.71544 -2.50748,10.71544c-0.80183,0 -2.52047,-9.66857 -2.35158,-10.3985c0.08816,-0.38104 1.37505,0.04572 2.60288,-0.04163z" data-paper-data="{&quot;index&quot;:null}"/></g></g></g></g></svg>