<svg version="1.1" xmlns="http://www.w3.org/2000/svg" xmlns:xlink="http://www.w3.org/1999/xlink" width="131" height="232.7061" viewBox="0,0,131,232.7061"><g transform="translate(-174.28031,-75.79393)"><g data-paper-data="{&quot;isPaintingLayer&quot;:true}" fill-rule="nonzero" stroke-linejoin="miter" stroke-miterlimit="10" stroke-dasharray="" stroke-dashoffset="0" style="mix-blend-mode: normal"><path d="M206.75015,307.50002l15.14285,-131.8421l37.78325,-0.15789l13.57389,132z" fill="#8e32a5" stroke="#000000" stroke-width="2" stroke-linecap="butt"/><path d="M217.30038,227.0229l5.23426,-49.10961l36.62021,-0.27033l4.53172,49.68756c0,0 1.29793,14.55983 -0.05886,16.18149c-1.46085,1.74604 -6.82407,-4.188 -9.50614,-4.07461c-3.01701,0.12754 -3.68462,2.94521 -6.15985,5.29442c-0.53392,0.50673 -1.59439,2.18077 -2.66778,2.2926c-1.53729,0.16015 -3.20306,-5.46182 -3.1677,-7.05739c0.05545,-2.50275 -1.14751,-1.26268 -3.17711,-1.17827c-12.75966,0.53062 -21.64874,-11.76585 -21.64874,-11.76585z" fill="#5e216e" stroke="#000000" stroke-width="0" stroke-linecap="butt"/><g stroke="#000000" stroke-width="2"><g><path d="M261.61485,224.25491c2.02366,6.34669 -0.78435,16.08162 -1.45194,16.29448c-0.55373,0.17656 -8.50598,-5.82868 -10.61611,-12.44654c-2.53062,-7.93661 -1.88056,-15.23189 1.45194,-16.29447c3.3325,-1.06258 8.0855,4.50992 10.61611,12.44653z" fill="#44b1ea" stroke-linecap="butt"/><path d="M253.74871,221.07772l3.05667,8.29687" fill="none" stroke-linecap="round"/></g><g><path d="M254.35382,229.26012c-0.82264,6.61051 -7.45218,14.27229 -8.14753,14.18576c-0.57674,-0.07178 -5.27998,-8.85702 -4.42219,-15.74999c1.02873,-8.26653 4.67649,-14.61772 8.14753,-14.18577c3.47103,0.43195 5.45091,7.48347 4.42219,15.75z" fill="#44b1ea" stroke-linecap="butt"/><path d="M247.84137,231.8927l0.70209,-8.8141" fill="none" stroke-linecap="round"/></g><path d="M262.17573,214.5736c0,5.39016 -4.3696,9.75976 -9.75976,9.75976c-5.39016,0 -9.75976,-4.3696 -9.75976,-9.75976c0,-5.39016 4.3696,-9.75976 9.75976,-9.75976c5.39016,0 9.75976,4.3696 9.75976,9.75976z" fill="#44b1ea" stroke-linecap="butt"/></g><path d="M216.96155,194.69357l46.78867,1.9676c0,0 3.75655,2.89716 -1.74073,11.90896c-6.6288,10.86674 -22.74264,28.19639 -22.99959,28.18284c-0.10439,-0.0055 -20.37561,-26.82656 -21.22637,-30.78935c-1.53592,-7.15421 -0.82199,-11.27005 -0.82199,-11.27005z" fill="#44b1ea" stroke="#000000" stroke-width="2" stroke-linecap="butt"/><path d="M175.28031,198.29393v-121.5h129v121.5z" fill="#9534ae" stroke="#000000" stroke-width="2" stroke-linecap="butt"/><path d="M176.30691,197.1053v-5.5c0,0 44.18556,3.33334 65.75,3.33334c20.67595,0 61.08333,-3.33334 61.08333,-3.33334v5.5z" fill="#6c267e" stroke="none" stroke-width="0" stroke-linecap="butt"/><path d="M187.78031,187.11368v-100.31976h103.51235v100.31976z" fill="#9534ae" stroke="#69257a" stroke-width="2" stroke-linecap="butt"/><path d="M190.19104,184.66592l8,-7.33334" fill="none" stroke="#69257a" stroke-width="2" stroke-linecap="round"/><path d="M283.19097,178.33257l8,7.33334" data-paper-data="{&quot;index&quot;:null}" fill="none" stroke="#69257a" stroke-width="2" stroke-linecap="round"/><g fill="none" stroke="#69257a" stroke-width="2" stroke-linecap="round"><path d="M196.69104,94.83258l-8,-7.33334" data-paper-data="{&quot;index&quot;:null}"/><path d="M283.02432,94.16592l8,-7.33334" data-paper-data="{&quot;index&quot;:null}"/></g><g stroke-linecap="butt"><g><path d="M222.8687,93.08027v-15.45064h36.66844v15.45064z" fill="#ababab" stroke="#000000" stroke-width="2"/><g fill="#c6c6c6" stroke="none" stroke-width="0"><path d="M259.4722,77.6495v1.59134c-0.57321,0.7044 -1.14251,1.41036 -1.72495,2.10559c-1.90143,2.26962 -7.83601,10.15394 -9.04347,11.75371h-8.24236c0.44981,-0.51406 15.49269,-15.15693 15.78902,-15.45064z"/><path d="M222.80384,93.10013v-6.42332c2.13425,-1.99802 8.64694,-7.94528 9.84454,-9.02731h15.82395c-0.16859,0.14757 -0.33815,0.29569 -0.50928,0.4441c-2.2634,1.96293 -14.45491,14.18009 -15.1616,15.00654z"/></g><path d="M222.8687,93.08027v-15.45064h36.66844v15.45064z" fill="none" stroke="#000000" stroke-width="2"/></g><path d="M222.89664,107.03132v-13.80624h7.17955v13.80624z" fill="#ababab" stroke="#000000" stroke-width="2"/><path d="M252.34497,107.03132v-13.80624h7.17955v13.80624z" fill="#ababab" stroke="#000000" stroke-width="2"/><path d="M222.83562,107.00681v-5.16493h36.66843v5.16493z" fill="#ababab" stroke="#000000" stroke-width="2"/></g><path d="M221.89159,116.35357v-8.54762h38.66667v8.54762z" fill="#69257a" stroke="none" stroke-width="0" stroke-linecap="butt"/><path d="M231.13285,100.82454v-6.7h20.1v6.7z" fill="#69257a" stroke="none" stroke-width="0" stroke-linecap="butt"/><path d="M223.9303,101.8751c0,0 -6.66476,5.16922 -11.71951,6.36355c-5.05476,1.19433 -12.25289,-0.69937 -12.25289,-0.69937c0,0 7.98518,0.06028 11.8888,-0.86207c4.07943,-0.96389 12.08361,-4.80211 12.08361,-4.80211z" data-paper-data="{&quot;index&quot;:null}" fill="#000000" stroke="none" stroke-width="0" stroke-linecap="butt"/><path d="M267.30861,105.67722c3.90362,0.92235 11.8888,0.86207 11.8888,0.86207c0,0 -7.19814,1.8937 -12.25289,0.69937c-5.05475,-1.19433 -11.71951,-6.36355 -11.71951,-6.36355c0,0 8.00417,3.83822 12.08361,4.80211z" data-paper-data="{&quot;index&quot;:null}" fill="#000000" stroke="none" stroke-width="0" stroke-linecap="butt"/><path d="M189.39026,133.10896c0,-12.968 10.44341,-23.48065 23.326,-23.48065c12.88259,0 23.326,10.51265 23.326,23.48065c0,6.6207 -0.62436,11.68281 -4.20669,14.63272c-0.92815,0.7643 -10.00631,3.83661 -18.9014,3.93915c-8.26109,0.09524 -16.38718,-2.73762 -17.10268,-3.12073c-5.15931,-2.76254 -6.44123,-7.44977 -6.44123,-15.45114z" fill="#ffffff" stroke="#000000" stroke-width="2" stroke-linecap="butt"/><path d="M266.61735,156.5896c-12.88259,0 -23.326,-10.51265 -23.326,-23.48065c0,-12.968 10.44341,-23.48065 23.326,-23.48065c12.88259,0 23.326,10.51265 23.326,23.48065c0,12.968 -10.44341,23.48065 -23.326,23.48065z" data-paper-data="{&quot;index&quot;:null}" fill="#ffffff" stroke="#000000" stroke-width="2" stroke-linecap="butt"/><path d="M196.40913,132.83333c0,-9.12808 7.35102,-16.52784 16.41897,-16.52784c9.06796,0 16.41898,7.39977 16.41898,16.52784c0,9.12808 -7.35103,16.52784 -16.41898,16.52784c-9.06796,0 -16.41897,-7.39977 -16.41897,-16.52784z" fill="#000000" stroke="none" stroke-width="0" stroke-linecap="butt"/><path d="M266.50548,149.36117c-9.06795,0 -16.41897,-7.39977 -16.41897,-16.52784c0,-9.12808 7.35103,-16.52784 16.41897,-16.52784c9.06795,0 16.41897,7.39977 16.41897,16.52784c0,9.12808 -7.35103,16.52784 -16.41897,16.52784z" data-paper-data="{&quot;index&quot;:null}" fill="#000000" stroke="none" stroke-width="0" stroke-linecap="butt"/><path d="M208.94006,154.86111l3.66667,-0.16667" fill="none" stroke="#000000" stroke-width="2" stroke-linecap="round"/><path d="M254.61665,165.90645c0,0 -4.74929,18.94574 -14.96735,19.14257c-8.42331,0.16227 -14.14224,-19.14257 -14.14224,-19.14257z" fill="#000000" stroke="#000000" stroke-width="2" stroke-linecap="round"/></g></g></svg>