<svg version="1.1" xmlns="http://www.w3.org/2000/svg" xmlns:xlink="http://www.w3.org/1999/xlink" width="131" height="239.12276" viewBox="0,0,131,239.12276"><g transform="translate(-174.28034,-69.37726)"><g data-paper-data="{&quot;isPaintingLayer&quot;:true}" fill-rule="nonzero" stroke-linejoin="miter" stroke-miterlimit="10" stroke-dasharray="" stroke-dashoffset="0" style="mix-blend-mode: normal"><path d="M206.75016,307.50001l15.14285,-131.8421l37.78325,-0.15789l13.57389,132z" fill="#8e32a5" stroke="#000000" stroke-width="2" stroke-linecap="butt"/><path d="M217.30039,227.02289l5.23426,-49.10961l36.62021,-0.27033l4.53172,49.68756c0,0 1.29793,14.55983 -0.05886,16.18149c-1.46085,1.74604 -6.82407,-4.188 -9.50614,-4.07461c-3.01701,0.12754 -3.68462,2.94521 -6.15985,5.29442c-0.53392,0.50673 -1.59439,2.18077 -2.66778,2.2926c-1.53729,0.16015 -3.20306,-5.46182 -3.1677,-7.05739c0.05545,-2.50275 -1.14751,-1.26268 -3.17711,-1.17827c-12.75966,0.53062 -21.64874,-11.76585 -21.64874,-11.76585z" fill="#5e216e" stroke="#000000" stroke-width="0" stroke-linecap="butt"/><g stroke="#000000" stroke-width="2"><g><path d="M261.61487,224.2549c2.02366,6.34669 -0.78435,16.08162 -1.45194,16.29448c-0.55373,0.17656 -8.50598,-5.82868 -10.61611,-12.44654c-2.53062,-7.93661 -1.88056,-15.23189 1.45194,-16.29447c3.3325,-1.06258 8.0855,4.50992 10.61611,12.44653z" fill="#44b1ea" stroke-linecap="butt"/><path d="M253.74872,221.07771l3.05667,8.29687" fill="none" stroke-linecap="round"/></g><g><path d="M254.35383,229.26011c-0.82264,6.61051 -7.45218,14.27229 -8.14753,14.18576c-0.57674,-0.07178 -5.27998,-8.85702 -4.42219,-15.74999c1.02873,-8.26653 4.67649,-14.61772 8.14753,-14.18577c3.47103,0.43195 5.45091,7.48347 4.42219,15.75z" fill="#44b1ea" stroke-linecap="butt"/><path d="M248.54347,223.07859l-0.70209,8.8141" fill="none" stroke-linecap="round"/></g><path d="M262.17575,214.57359c0,5.39016 -4.3696,9.75976 -9.75976,9.75976c-5.39016,0 -9.75976,-4.3696 -9.75976,-9.75976c0,-5.39016 4.3696,-9.75976 9.75976,-9.75976c5.39016,0 9.75976,4.3696 9.75976,9.75976z" fill="#44b1ea" stroke-linecap="butt"/></g><path d="M216.96156,190.44356l46.78867,2.16642c0,0 3.75655,3.18991 -1.74073,13.11233c-6.6288,11.9648 -22.74264,31.04557 -22.99959,31.03065c-0.10439,-0.00606 -20.37561,-29.53732 -21.22637,-33.90054c-1.53592,-7.87713 -0.82199,-12.40886 -0.82199,-12.40886z" fill="#44b1ea" stroke="#000000" stroke-width="2" stroke-linecap="butt"/><path d="M175.28035,191.87726v-121.5h129v121.5z" fill="#9534ae" stroke="#000000" stroke-width="2" stroke-linecap="butt"/><path d="M176.30694,190.68863v-5.5c0,0 44.18556,3.33334 65.75,3.33334c20.67595,0 61.08333,-3.33334 61.08333,-3.33334v5.5z" fill="#6c267e" stroke="none" stroke-width="0" stroke-linecap="butt"/><path d="M187.78035,180.69701v-100.31976h103.51235v100.31976z" fill="#9534ae" stroke="#69257a" stroke-width="2" stroke-linecap="butt"/><path d="M190.19107,178.24925l8,-7.33334" fill="none" stroke="#69257a" stroke-width="2" stroke-linecap="round"/><path d="M283.19097,171.9159l8,7.33334" data-paper-data="{&quot;index&quot;:null}" fill="none" stroke="#69257a" stroke-width="2" stroke-linecap="round"/><g fill="none" stroke="#69257a" stroke-width="2" stroke-linecap="round"><path d="M188.69106,81.08257l8,7.33334" data-paper-data="{&quot;index&quot;:null}"/><path d="M283.02432,87.74925l8,-7.33334" data-paper-data="{&quot;index&quot;:null}"/></g><g stroke-linecap="butt"><g><path d="M222.86873,86.6636v-15.45064h36.66844v15.45064z" fill="#ababab" stroke="#000000" stroke-width="2"/><g fill="#c6c6c6" stroke="none" stroke-width="0"><path d="M259.47222,71.23283v1.59134c-0.57321,0.7044 -1.14251,1.41036 -1.72495,2.10559c-1.90143,2.26962 -7.83601,10.15394 -9.04347,11.75371h-8.24236c0.44981,-0.51406 15.49269,-15.15693 15.78902,-15.45064z"/><path d="M222.80385,86.68346v-6.42332c2.13425,-1.99802 8.64694,-7.94528 9.84454,-9.02731h15.82395c-0.16859,0.14757 -0.33815,0.29569 -0.50928,0.4441c-2.2634,1.96293 -14.45491,14.18009 -15.1616,15.00654z"/></g><path d="M222.86873,86.6636v-15.45064h36.66844v15.45064z" fill="none" stroke="#000000" stroke-width="2"/></g><path d="M222.89667,100.61465v-13.80624h7.17955v13.80624z" fill="#ababab" stroke="#000000" stroke-width="2"/><path d="M252.345,100.61465v-13.80624h7.17955v13.80624z" fill="#ababab" stroke="#000000" stroke-width="2"/><path d="M222.83562,100.59014v-5.16493h36.66843v5.16493z" fill="#ababab" stroke="#000000" stroke-width="2"/></g><path d="M221.8916,109.9369v-8.54762h38.66667v8.54762z" fill="#69257a" stroke="none" stroke-width="0" stroke-linecap="butt"/><path d="M231.13288,94.40787v-6.7h20.1v6.7z" fill="#69257a" stroke="none" stroke-width="0" stroke-linecap="butt"/><path d="M223.93033,95.45843c0,0 -6.66476,5.16922 -11.71951,6.36355c-5.05476,1.19433 -12.25289,-0.69937 -12.25289,-0.69937c0,0 7.98518,0.06028 11.8888,-0.86207c4.07943,-0.96389 12.08361,-4.80211 12.08361,-4.80211z" data-paper-data="{&quot;index&quot;:null}" fill="#000000" stroke="none" stroke-width="0" stroke-linecap="butt"/><path d="M267.30863,99.26055c3.90362,0.92235 11.8888,0.86207 11.8888,0.86207c0,0 -7.19814,1.8937 -12.25289,0.69937c-5.05475,-1.19433 -11.71951,-6.36355 -11.71951,-6.36355c0,0 8.00417,3.83822 12.08361,4.80211z" data-paper-data="{&quot;index&quot;:null}" fill="#000000" stroke="none" stroke-width="0" stroke-linecap="butt"/><path d="M189.39027,126.69229c0,-12.968 10.44341,-23.48065 23.326,-23.48065c12.88259,0 23.326,10.51265 23.326,23.48065c0,12.968 -10.44341,23.48065 -23.326,23.48065c-12.88259,0 -23.326,-10.51265 -23.326,-23.48065z" fill="#ffffff" stroke="#000000" stroke-width="2" stroke-linecap="butt"/><path d="M266.61735,150.17293c-12.88259,0 -23.326,-10.51265 -23.326,-23.48065c0,-12.968 10.44341,-23.48065 23.326,-23.48065c12.88259,0 23.326,10.51265 23.326,23.48065c0,12.968 -10.44341,23.48065 -23.326,23.48065z" data-paper-data="{&quot;index&quot;:null}" fill="#ffffff" stroke="#000000" stroke-width="2" stroke-linecap="butt"/><path d="M196.40913,126.41666c0,-9.12808 7.35102,-16.52784 16.41897,-16.52784c9.06796,0 16.41898,7.39977 16.41898,16.52784c0,9.12808 -7.35103,16.52784 -16.41898,16.52784c-9.06796,0 -16.41897,-7.39977 -16.41897,-16.52784z" fill="#000000" stroke="none" stroke-width="0" stroke-linecap="butt"/><path d="M266.5055,142.9445c-9.06795,0 -16.41897,-7.39977 -16.41897,-16.52784c0,-9.12808 7.35103,-16.52784 16.41897,-16.52784c9.06795,0 16.41897,7.39977 16.41897,16.52784c0,9.12808 -7.35103,16.52784 -16.41897,16.52784z" data-paper-data="{&quot;index&quot;:null}" fill="#000000" stroke="none" stroke-width="0" stroke-linecap="butt"/><path d="M250.10227,171.32336c0,1.26565 -21.5,1.26565 -21.5,0c0,-1.26565 4.81294,-2.29167 10.75,-2.29167c5.93706,0 10.75,1.02602 10.75,2.29167z" fill="#000000" stroke="#000000" stroke-width="2" stroke-linecap="butt"/><path d="M223.96656,176.5538c0,0 7.30596,-15.47768 15.66625,-15.19669c10.14162,0.34084 13.27265,15.71517 13.27265,15.71517z" data-paper-data="{&quot;index&quot;:null}" fill="#000000" stroke="#000000" stroke-width="2" stroke-linecap="round"/></g></g></svg>