<svg version="1.1" xmlns="http://www.w3.org/2000/svg" xmlns:xlink="http://www.w3.org/1999/xlink" width="143.79333" height="288.583" viewBox="0,0,143.79333,288.583"><defs><linearGradient x1="239.99979" y1="175.91989" x2="239.99979" y2="307.91989" gradientUnits="userSpaceOnUse" id="color-1"><stop offset="0" stop-color="#000000"/><stop offset="1" stop-color="#ff80c9"/></linearGradient><linearGradient x1="231.05888" y1="25.56173" x2="237.26484" y2="124.37394" gradientUnits="userSpaceOnUse" id="color-2"><stop offset="0" stop-color="#000000"/><stop offset="1" stop-color="#8cefef"/></linearGradient><linearGradient x1="236.83352" y1="74.96358" x2="244.39277" y2="195.32309" gradientUnits="userSpaceOnUse" id="color-3"><stop offset="0" stop-color="#000000"/><stop offset="1" stop-color="#8cefef"/></linearGradient><linearGradient x1="254.56811" y1="72.58533" x2="254.79994" y2="76.27655" gradientUnits="userSpaceOnUse" id="color-4"><stop offset="0" stop-color="#000000"/><stop offset="1" stop-color="#000000"/></linearGradient><linearGradient x1="200.09453" y1="46.45648" x2="208.25116" y2="176.32764" gradientUnits="userSpaceOnUse" id="color-5"><stop offset="0" stop-color="#000000"/><stop offset="1" stop-color="#ff80c9"/></linearGradient><linearGradient x1="205.37104" y1="75.34116" x2="205.58006" y2="78.66925" gradientUnits="userSpaceOnUse" id="color-6"><stop offset="0" stop-color="#000000"/><stop offset="1" stop-color="#ce52af"/></linearGradient><linearGradient x1="205.87639" y1="76.21992" x2="206.10307" y2="79.82908" gradientUnits="userSpaceOnUse" id="color-7"><stop offset="0" stop-color="#000000"/><stop offset="1" stop-color="#000000"/></linearGradient><linearGradient x1="209.25267" y1="75.43139" x2="209.4845" y2="79.12261" gradientUnits="userSpaceOnUse" id="color-8"><stop offset="0" stop-color="#000000"/><stop offset="1" stop-color="#000000"/></linearGradient><linearGradient x1="211.05425" y1="93.95778" x2="211.26327" y2="97.28586" gradientUnits="userSpaceOnUse" id="color-9"><stop offset="0" stop-color="#000000"/><stop offset="1" stop-color="#ce52af"/></linearGradient><linearGradient x1="210.42211" y1="94.05151" x2="210.75732" y2="99.38868" gradientUnits="userSpaceOnUse" id="color-10"><stop offset="0" stop-color="#000000"/><stop offset="1" stop-color="#000000"/></linearGradient><linearGradient x1="267.35813" y1="43.23392" x2="275.64013" y2="175.10116" gradientUnits="userSpaceOnUse" id="color-11"><stop offset="0" stop-color="#000000"/><stop offset="1" stop-color="#ff80c9"/></linearGradient><linearGradient x1="265.76515" y1="72.99909" x2="265.97739" y2="76.37832" gradientUnits="userSpaceOnUse" id="color-12"><stop offset="0" stop-color="#000000"/><stop offset="1" stop-color="#ce52af"/></linearGradient><linearGradient x1="265.3746" y1="73.94811" x2="265.60476" y2="77.61275" gradientUnits="userSpaceOnUse" id="color-13"><stop offset="0" stop-color="#000000"/><stop offset="1" stop-color="#000000"/></linearGradient><linearGradient x1="261.92564" y1="73.57938" x2="262.16103" y2="77.32734" gradientUnits="userSpaceOnUse" id="color-14"><stop offset="0" stop-color="#000000"/><stop offset="1" stop-color="#000000"/></linearGradient><linearGradient x1="262.47411" y1="92.47095" x2="262.68634" y2="95.85018" gradientUnits="userSpaceOnUse" id="color-15"><stop offset="0" stop-color="#000000"/><stop offset="1" stop-color="#ce52af"/></linearGradient><linearGradient x1="263.11306" y1="92.48568" x2="263.45341" y2="97.90488" gradientUnits="userSpaceOnUse" id="color-16"><stop offset="0" stop-color="#000000"/><stop offset="1" stop-color="#000000"/></linearGradient><linearGradient x1="234.94244" y1="68.40945" x2="236.76685" y2="97.45789" gradientUnits="userSpaceOnUse" id="color-17"><stop offset="0" stop-color="#000000"/><stop offset="1" stop-color="#e3e854"/></linearGradient><linearGradient x1="241.67122" y1="136.26691" x2="242.03699" y2="155.26338" gradientUnits="userSpaceOnUse" id="color-18"><stop offset="0" stop-color="#000000" stop-opacity="0"/><stop offset="1" stop-color="#000000"/></linearGradient></defs><g transform="translate(-167.17014,-25.44937)"><g data-paper-data="{&quot;isPaintingLayer&quot;:true}" fill-rule="nonzero" stroke-linejoin="miter" stroke-miterlimit="10" stroke-dasharray="" stroke-dashoffset="0" style="mix-blend-mode: normal"><path d="M179.28348,314.03237v-267.22501h123.18203v267.22501z" fill-opacity="0.01" fill="#000000" stroke="none" stroke-width="0" stroke-linecap="butt"/><path d="M206.7498,307.91988l15.14285,-131.8421l37.78325,-0.15789l13.57389,132z" fill="url(#color-1)" stroke="none" stroke-width="0" stroke-linecap="butt"/><path d="M237.26484,124.37394c-29.06857,1.82567 -54.02257,-18.81419 -55.73629,-46.10044c-1.71373,-27.28623 20.46177,-50.8861 49.53034,-52.71177c29.06858,-1.82567 54.02257,18.8142 55.73629,46.10044c1.71373,27.28624 -20.46176,50.8861 -49.53034,52.71177z" fill="url(#color-2)" stroke="none" stroke-width="0" stroke-linecap="butt"/><g stroke="none" stroke-width="0" stroke-linecap="butt"><path d="M176.50244,139.16984c-2.08743,-33.23636 24.92372,-61.98249 60.33108,-64.20627c35.40736,-2.22378 65.8029,22.91689 67.89033,56.15325c2.08743,33.23636 -24.92372,61.98249 -60.33108,64.20627c-35.40736,2.22378 -65.8029,-22.91689 -67.89033,-56.15325z" fill="url(#color-3)"/><path d="M217.6564,86.77722c1.00851,1.54013 -2.16921,5.40483 -7.09763,8.63206c-4.92842,3.22723 -9.74126,4.59489 -10.74977,3.05475c-1.00851,-1.54013 2.16922,-5.40484 7.09763,-8.63207c4.92842,-3.22723 9.74126,-4.59488 10.74976,-3.05474z" fill="#d4f0f0"/><path d="M228.2546,84.38074c0.09232,1.46986 -1.02441,2.73625 -2.49427,2.82857c-1.46986,0.09232 -2.73625,-1.02441 -2.82857,-2.49426c-0.09232,-1.46986 1.02441,-2.73626 2.49426,-2.82858c1.46986,-0.09232 2.73626,1.02441 2.82858,2.49427z" fill="#d4f0f0"/></g><path d="M190.05292,138.74913c-0.81286,-12.9425 9.02016,-24.09343 21.96266,-24.90629c12.9425,-0.81286 24.09343,9.02016 24.90629,21.96266c0.81286,12.9425 -9.02016,24.09343 -21.96266,24.90629c-12.9425,0.81286 -24.09343,-9.02016 -24.90629,-21.96266z" fill="#ff0000" stroke="none" stroke-width="0" stroke-linecap="butt"/><path d="M269.11093,157.31073c-12.9425,0.81286 -24.09343,-9.02016 -24.90629,-21.96266c-0.81286,-12.9425 9.02016,-24.09343 21.96266,-24.90629c12.9425,-0.81286 24.09343,9.02016 24.90629,21.96266c0.81286,12.9425 -9.02016,24.09343 -21.96266,24.90629z" data-paper-data="{&quot;index&quot;:null}" fill="#ff0000" stroke="none" stroke-width="0" stroke-linecap="butt"/><path d="M264.05489,95.42386c-3.97959,-0.67423 -11.99812,-0.11022 -11.99812,-0.11022c0,0 7.11291,-2.34416 12.26604,-1.47112c5.15312,0.87304 12.17289,5.61156 12.17289,5.61156c0,0 -8.28198,-3.32563 -12.44081,-4.03022z" data-paper-data="{&quot;index&quot;:null}" fill="#000000" stroke="none" stroke-width="0" stroke-linecap="butt"/><path d="M189.98295,138.453l-3.75589,-2.36923" fill="none" stroke="#000000" stroke-width="2" stroke-linecap="round"/><path d="M294.55082,128.27844l-3.97862,3.65658" fill="none" stroke="#000000" stroke-width="2" stroke-linecap="round"/><path d="M214.39953,90.01449c1.92397,2.56109 -0.77609,7.83731 -6.03073,11.78475c-5.25465,3.94745 -11.07406,5.07132 -12.99802,2.51023c-1.92397,-2.56109 0.77609,-7.83731 6.03074,-11.78475c5.25465,-3.94744 11.07406,-5.07132 12.99802,-2.51023z" fill="#ecfefe" stroke="none" stroke-width="0" stroke-linecap="butt"/><path d="M222.37915,86.94533c0.08655,1.37799 -0.87102,2.55963 -2.13877,2.63925c-1.26775,0.07962 -2.36564,-0.97292 -2.45218,-2.35092c-0.08655,-1.37799 0.87101,-2.55963 2.13877,-2.63925c1.26775,-0.07962 2.36564,0.97292 2.45218,2.35092z" fill="#ecfefe" stroke="none" stroke-width="0" stroke-linecap="butt"/><path d="M200.54713,104.22406c0,0 6.37174,-5.57959 11.37513,-7.09051c5.0034,-1.51092 12.35371,-0.07513 12.35371,-0.07513c0,0 -8.02609,0.44368 -11.89005,1.61053c-4.03799,1.2194 -11.83879,5.55511 -11.83879,5.55511z" fill="#000000" stroke="none" stroke-width="0" stroke-linecap="butt"/><path d="M253.84649,76.33642l1.67506,-3.81097" fill="url(#color-4)" stroke="none" stroke-width="2" stroke-linecap="round"/><path d="M206.19739,164.27506l0.46686,-3.20222" fill="none" stroke="#000000" stroke-width="2" stroke-linecap="round"/><path d="M224.87795,158.59295l0.29252,4.65748" fill="none" stroke="#000000" stroke-width="2" stroke-linecap="round"/><path d="M257.11636,156.06721l-0.04016,4.67838" fill="none" stroke="#000000" stroke-width="2" stroke-linecap="round"/><path d="M277.06001,156.2198l1.00839,4.66024" fill="none" stroke="#000000" stroke-width="2" stroke-linecap="round"/><path d="M190.78526,143.85643c0.42424,-0.01297 44.68047,-2.79652 45.81742,-2.97196c-0.7087,10.58164 -9.75665,19.31182 -21.34483,20.03963c-4.54114,0.28521 -11.75771,-1.39148 -15.71326,-4.42619c-6.56321,-5.03531 -8.75933,-12.64147 -8.75933,-12.64147z" data-paper-data="{&quot;index&quot;:null}" fill="#ff4242" stroke="none" stroke-width="2" stroke-linecap="butt"/><path d="M199.48314,138.30578c-0.50294,-8.00777 5.58094,-14.90705 13.5887,-15.40998c8.00777,-0.50293 14.90705,5.58094 15.40998,13.5887c0.50294,8.00777 -5.58094,14.90704 -13.5887,15.40998c-8.00777,0.50294 -14.90704,-5.58094 -15.40998,-13.5887z" fill="#000000" stroke="none" stroke-width="0" stroke-linecap="butt"/><path d="M283.97985,150.9945c-3.54477,3.50578 -10.49485,6.07221 -15.03599,6.35742c-11.58818,0.7278 -21.65732,-6.80172 -23.68441,-17.21154c1.14997,0.03181 45.4067,-2.74374 45.82923,-2.78396c0,0 -1.2272,7.82116 -7.10883,13.63807z" data-paper-data="{&quot;index&quot;:null}" fill="#ff4242" stroke="none" stroke-width="2" stroke-linecap="butt"/><path d="M268.73895,148.90697c-8.17311,0.51332 -15.21486,-5.69618 -15.72818,-13.8693c-0.51332,-8.17312 5.69618,-15.21486 13.86929,-15.72819c8.17311,-0.51332 15.21486,5.69618 15.72818,13.8693c0.51332,8.17312 -5.69618,15.21486 -13.86929,15.72819z" data-paper-data="{&quot;index&quot;:null}" fill="#000000" stroke="none" stroke-width="0" stroke-linecap="butt"/><g stroke="none" stroke-width="0"><path d="M237.38337,78.2625c0.01115,0.17751 -19.88689,43.00976 -21.41513,43.72567c-0.10563,0.04948 -22.83908,50.46143 -33.289,55.87303c-3.314,1.71619 -9.05274,-20.40742 -9.63466,-23.11387c-5.06177,-23.54225 -3.36338,-62.59331 -3.07939,-68.61664c0.4283,-9.08385 2.99267,-18.10401 4.27996,-21.04471c4.97562,-11.36634 13.33301,-17.84339 21.12822,-18.33297c10.27582,-0.64538 20.02166,8.89956 28.50978,17.39987c6.69153,6.70114 13.39622,12.45378 13.50022,14.10964z" fill="url(#color-5)" stroke-linecap="butt"/><path d="M208.33955,75.26181c0.01862,0.29653 1.93466,3.11262 0.01984,3.23288c-1.91481,0.12026 -6.6022,-1.86297 -6.62082,-2.1595c-0.01862,-0.29653 1.51855,-0.63439 3.43337,-0.75465c1.91481,-0.12026 3.14899,-0.61525 3.16761,-0.31873z" data-paper-data="{&quot;index&quot;:null}" fill="url(#color-6)" stroke-linecap="butt"/><path d="M201.20951,76.51301l9.56043,3.02297" fill="url(#color-7)" stroke-linecap="round"/><path d="M208.29922,75.49127l2.13872,3.57144" fill="url(#color-8)" stroke-linecap="round"/><path d="M211.03579,97.07328c-1.91482,0.12026 -3.48219,-0.02262 -3.50081,-0.31915c-0.01862,-0.29653 4.38379,-2.85065 6.2986,-2.97091c1.91482,-0.12026 0.36618,2.91344 0.3848,3.20996c0.01862,0.29653 -1.26779,-0.04016 -3.1826,0.0801z" data-paper-data="{&quot;index&quot;:null}" fill="url(#color-9)" stroke-linecap="butt"/><path d="M205.98192,97.95379l9.10706,-4.19539l-2.26831,5.50069" data-paper-data="{&quot;index&quot;:null}" fill="url(#color-10)" stroke-linecap="round"/></g><path d="M216.50708,137.55411c0.07171,1.14177 -0.82766,2.12749 -2.0088,2.20168c-1.18114,0.07418 -2.19678,-0.79127 -2.26849,-1.93304c-0.07171,-1.14177 0.82766,-2.12749 2.0088,-2.20168c1.18114,-0.07418 2.19678,0.79127 2.26849,1.93304z" fill="#ff0000" stroke="none" stroke-width="0" stroke-linecap="butt"/><path d="M270.02542,134.11652c0.07171,1.14177 -0.82766,2.12749 -2.0088,2.20168c-1.18114,0.07418 -2.19677,-0.79126 -2.26848,-1.93304c-0.07171,-1.14177 0.82766,-2.12749 2.00879,-2.20167c1.18114,-0.07418 2.19678,0.79127 2.26849,1.93304z" fill="#ff0000" stroke="none" stroke-width="0" stroke-linecap="butt"/><g data-paper-data="{&quot;index&quot;:null}" stroke="none" stroke-width="0"><path d="M234.37464,79.97829c-0.1056,-1.68132 5.82072,-8.32214 11.61439,-15.91687c7.34919,-9.63383 15.81445,-20.47863 26.09027,-21.12401c7.79521,-0.48958 16.90304,4.98203 23.27232,15.80574c1.64786,2.80032 5.32918,11.56437 6.89937,20.6619c1.04116,6.0324 7.64961,45.1603 5.59611,69.51616c-0.23607,2.79999 -3.14005,25.81198 -6.64418,24.50083c-11.04948,-4.1344 -39.9588,-52.05576 -40.06983,-52.09229c-1.6064,-0.52857 -26.74713,-41.17124 -26.75845,-41.35147z" fill="url(#color-11)" stroke-linecap="butt"/><path d="M265.99286,73.21514c1.91482,-0.12026 3.48242,0.02633 3.50133,0.3274c0.01891,0.30109 -4.38132,2.89007 -6.29613,3.01033c-1.91482,0.12026 -0.369,-2.95839 -0.38791,-3.25947c-0.01891,-0.30109 1.26791,0.04199 3.18271,-0.07827z" data-paper-data="{&quot;index&quot;:null}" fill="url(#color-12)" stroke-linecap="butt"/><path d="M260.93789,77.90585l9.10359,-4.25086" fill="url(#color-13)" stroke-linecap="round"/><path d="M262.87909,73.5195l-1.6715,3.8677" fill="url(#color-14)" stroke-linecap="round"/><path d="M259.71773,95.9279c-0.01891,-0.30109 -1.93777,-3.16213 -0.02295,-3.2824c1.91482,-0.12026 6.60439,1.89784 6.6233,2.19892c0.01891,0.30109 -1.51803,0.64265 -3.43285,0.76291c-1.91481,0.12026 -3.14859,0.62165 -3.1675,0.32057z" data-paper-data="{&quot;index&quot;:null}" fill="url(#color-15)" stroke-linecap="butt"/><path d="M261.39005,98.03447l-2.94387,-5.25569l9.5639,3.07845" data-paper-data="{&quot;index&quot;:null}" fill="url(#color-16)" stroke-linecap="round"/></g><path d="M254.70397,182.57616c0.22002,3.50312 -21.73672,4.88212 -21.95674,1.37901c-0.22002,-3.50312 4.51681,-6.65167 10.57999,-7.03248c6.06318,-0.3808 11.15673,2.15035 11.37674,5.65347z" fill="#000000" stroke="none" stroke-width="0" stroke-linecap="butt"/><path d="M213.15051,162.75741l-3.02992,-0.38226" fill="none" stroke="#000000" stroke-width="0.5" stroke-linecap="round"/><path d="M210.48634,163.64042l1.44367,0.1956" fill="none" stroke="#000000" stroke-width="0.5" stroke-linecap="round"/><path d="M274.91832,157.68522l-2.11017,0.9675" fill="none" stroke="#000000" stroke-width="0.5" stroke-linecap="round"/><path d="M274.077,160.24299l1.27847,-0.91527" fill="none" stroke="#000000" stroke-width="0.5" stroke-linecap="round"/><path d="M167.77682,135.07955c-0.30911,-1.09938 -1.25715,-4.45388 0.118,-5.3059c0.16721,-0.10361 0.34798,-0.10623 0.53477,-0.05251l-0.01806,-0.28763c-0.02596,-0.4134 0.28812,-0.76957 0.70151,-0.79554c0.4134,-0.02596 0.76957,0.28812 0.79554,0.70151l0.05271,0.8392c0.03878,-0.00735 0.08015,-0.01257 0.12428,-0.01534c0.29106,-0.01828 0.47604,0.08373 0.59345,0.21523c0.03332,0.00266 0.06803,0.00722 0.10419,0.01389c0.33971,0.06261 0.49412,0.25284 0.56187,0.43987c2.38068,0.41744 3.26602,-4.13981 5.6513,-2.17171c1.3571,1.11975 0.90742,3.16825 0.79301,4.6316c-0.21997,2.81338 -1.34094,5.49485 -2.26039,8.1731c-0.6523,2.07299 -0.20976,4.23612 -0.07356,6.39524c0.04572,0.72482 -0.31539,1.59516 0.12138,2.17541c0.34102,0.45304 1.0655,-0.46381 1.46275,-0.86845c3.34008,-3.40217 3.89564,-10.10065 4.60539,-14.59299c0.24007,-5.16781 0.4696,-12.40588 3.34372,-16.82202c2.4949,-3.83345 7.23132,-6.30339 8.90094,-0.4815c1.09843,3.1095 1.60614,6.6781 2.30223,9.89603c0.14999,0.69334 -0.16727,1.30653 0.38607,1.88011c0.21163,0.21937 0.47409,-0.38836 0.6719,-0.62026c0.47916,-0.56171 0.66686,-1.31838 1.03731,-1.95703c1.31117,-2.26045 2.88766,-4.82202 5.43554,-5.67777c5.40711,-0.3396 1.12799,8.86024 2.67532,12.17024c0.16383,0.35046 0.4843,-0.63949 0.83193,-0.80924c0.46676,-0.22792 2.06738,-0.75309 2.57275,-0.25621c0.36325,0.35715 0.35962,1.00066 0.27594,1.50316c-0.22811,1.36997 -1.11441,3.7828 -1.6893,5.13903c-0.81819,4.32009 -3.99046,7.86767 -5.82482,11.74544c-1.95701,4.13705 -3.62084,8.4645 -6.51397,12.10009c-2.4611,4.66278 -4.5253,9.2929 -8.04756,13.27544c-0.73477,0.83079 -1.31561,2.17863 -2.25676,2.77785c-2.1237,1.35214 -5.95215,0.55907 -6.91659,-1.69403c-3.80747,-6.58693 -5.18058,-13.88002 -7.13496,-21.22475c-0.72466,-2.46401 -1.00876,-5.08932 -1.15696,-7.73423c-0.90236,-4.23842 -1.59058,-8.54313 -2.76087,-12.70533zM168.64764,132.94912c-0.00414,-0.05464 -0.00826,-0.10929 -0.01235,-0.16393c-0.09024,-0.45505 -0.14459,-0.8736 -0.09139,-1.2842c-0.00618,-0.09129 -0.0123,-0.18259 -0.01836,-0.27387c-0.10979,0.46725 -0.03363,1.07654 0.12209,1.72199z" fill="#000000" stroke="none" stroke-width="0.5" stroke-linecap="butt"/><path d="M309.58536,142.80931c0.18389,2.64267 0.23051,5.28289 -0.18018,7.8182c-1.02007,7.53155 -1.4699,14.93913 -4.42331,21.95069c-0.67495,2.35606 -4.37409,3.6219 -6.65028,2.5461c-1.00873,-0.47675 -1.75363,-1.74133 -2.58657,-2.47366c-3.99287,-3.51056 -6.62016,-7.84602 -9.64532,-12.16423c-3.32527,-3.24504 -5.51748,-7.3303 -7.97672,-11.18999c-2.30512,-3.61779 -5.89633,-6.74059 -7.24861,-10.92436c-0.74005,-1.27365 -1.92127,-3.55662 -2.319,-4.88729c-0.14588,-0.48809 -0.23002,-1.12607 0.0857,-1.52587c0.43922,-0.5562 2.09297,-0.23542 2.58458,-0.0677c0.36615,0.12492 0.80796,1.067 0.92665,0.69879c1.12103,-3.47759 -4.27553,-12.06974 1.13158,-12.40933c2.63492,0.53024 4.51953,2.87443 6.10322,4.95307c0.44745,0.58729 0.72834,1.31453 1.27402,1.81186c0.22528,0.20532 0.56171,0.77543 0.74423,0.53131c0.47723,-0.63829 0.08574,-1.20698 0.1478,-1.91364c0.28801,-3.27974 0.34523,-6.88381 1.04598,-10.10632c0.92808,-5.98504 5.93632,-4.12713 8.89125,-0.63596c3.40407,4.02182 4.53739,11.17431 5.42216,16.27147c1.26624,4.36825 2.65553,10.94457 6.39504,13.9021c0.44475,0.35175 1.27826,1.17076 1.55991,0.67861c0.36074,-0.63033 -0.10643,-1.44865 -0.15176,-2.1735c-0.135,-2.15919 0.03342,-4.36069 -0.87314,-6.33578c-1.24732,-2.54216 -2.69499,-5.06231 -3.26522,-7.82606c-0.29661,-1.43752 -0.99905,-3.41367 0.20728,-4.69442c2.12029,-2.25107 3.56887,2.15959 5.87861,1.44757c0.0438,-0.19403 0.17321,-0.40209 0.50242,-0.50671c0.03503,-0.01114 0.06891,-0.02001 0.10163,-0.02681c0.10003,-0.14517 0.2708,-0.2695 0.56186,-0.28778c0.04413,-0.00277 0.08583,-0.00278 0.12523,-0.00033l-0.05271,-0.8392c-0.02596,-0.4134 0.28811,-0.76957 0.70151,-0.79554c0.41341,-0.02596 0.76957,0.28812 0.79554,0.70151l0.01806,0.28763c0.17861,-0.07666 0.35828,-0.09668 0.53714,-0.01481c1.47095,0.67327 0.95007,4.12003 0.78093,5.24944c-0.64034,4.27592 -0.78454,8.63291 -1.14952,12.95093zM309.51002,126.1299c0.00542,0.09133 0.01076,0.18266 0.01606,0.27401c0.10417,0.40071 0.10262,0.82278 0.07001,1.28554c0.00279,0.05472 0.00552,0.10945 0.00825,0.16419c0.07373,-0.65986 0.07306,-1.27389 -0.09432,-1.72374z" data-paper-data="{&quot;index&quot;:null}" fill="#000000" stroke="none" stroke-width="0.5" stroke-linecap="butt"/><path d="M256.45658,81.58883c0.67446,10.73892 -6.88321,15.06474 -19.56564,15.86127c-12.68242,0.79653 -20.96382,-2.43266 -21.63828,-13.17158c-0.67446,-10.73892 7.00733,-15.07254 19.68976,-15.86907c12.68242,-0.79653 20.8397,2.44046 21.51417,13.17938z" fill="url(#color-17)" stroke="none" stroke-width="0" stroke-linecap="butt"/><path d="M243.96288,184.933c0.35063,-1.73731 4.80843,-2.56358 6.81075,-2.87936l0.21682,-0.12599c0.03353,-0.02043 0.07237,-0.03324 0.11428,-0.03587c0.1378,-0.00865 0.25652,0.09604 0.26518,0.23384c0.00375,0.05968 -0.01377,0.11579 -0.04603,0.16093l-0.21333,0.30392c-0.61513,1.84355 -0.65099,3.38353 -0.38197,5.30654c0.72358,3.10637 1.85379,4.29518 4.09424,5.94312l0.00506,-0.01537l0.31419,0.10335c0.09699,0.02943 0.1702,0.11653 0.17693,0.22363c0.00865,0.1378 -0.09604,0.25652 -0.23384,0.26518l-0.23404,0.0147c-0.46979,0.10865 -0.94632,0.17867 -1.42074,0.27647c-2.32213,0.14213 -5.51966,1.41406 -7.85221,0.89263l0.00247,0.03937l-0.24951,0.01567c-0.1378,0.00865 -0.25652,-0.09604 -0.26518,-0.23384c-0.00746,-0.11875 0.06925,-0.22332 0.17878,-0.25551l0.24061,-0.07646l0.0008,0.00249l0.00489,-0.00424c2.10976,-0.53278 1.45394,-3.84781 0.85653,-5.31857c-0.44143,-1.6586 -2.53643,-5.58986 -4.72745,-5.34085c0,0 -0.24951,0.01567 -0.26518,-0.23384c-0.01567,-0.24951 0.23384,-0.26518 0.23384,-0.26518c0.84558,-0.02712 1.65357,0.37718 2.37412,1.00324z" fill="#000000" stroke="none" stroke-width="0.5" stroke-linecap="butt"/><path d="M252.99141,189.16892c0.02675,0.42593 -0.27653,0.79162 -0.6774,0.8168c-0.40087,0.02518 -0.74753,-0.29969 -0.77428,-0.72562c-0.02675,-0.42593 0.27653,-0.79162 0.6774,-0.8168c0.40087,-0.02518 0.74753,0.29969 0.77428,0.72562z" fill="#000000" stroke="none" stroke-width="0" stroke-linecap="butt"/><path d="M226.90522,157.22171c0,0 7.07158,-6.83321 8.97343,-10.66926c1.45206,-2.92883 1.45684,-10.36876 1.45684,-10.36876c0,0 7.57027,-1.02058 6.88559,-0.78144c-0.85607,0.299 0.72516,6.53218 3.8382,11.88733c2.82003,4.85109 8.49107,8.52785 8.49107,8.52785c0,0 -9.70827,-4.04807 -14.56023,-3.81823c-5.02378,0.23798 -15.0849,5.22253 -15.0849,5.22253z" fill="url(#color-18)" stroke="none" stroke-width="0" stroke-linecap="butt"/></g></g></svg>