<?xml version="1.0" encoding="utf-8"?>
<!-- Generator: Adobe Illustrator 22.0.1, SVG Export Plug-In . SVG Version: 6.00 Build 0)  -->
<svg version="1.1" xmlns="http://www.w3.org/2000/svg" xmlns:xlink="http://www.w3.org/1999/xlink" x="0px" y="0px"
	 viewBox="0 0 231.3 60.7" style="enable-background:new 0 0 231.3 60.7;" xml:space="preserve">
<style type="text/css">
	.st0{display:none;}
	.st1{display:inline;opacity:0.8;fill:#333333;}
	.st2{display:inline;}
	.st3{fill:#FFFFFF;}
	.st4{fill:none;stroke:#FFFFFF;stroke-width:0.75;stroke-miterlimit:10;}
	.st5{fill:none;stroke:#FFFFFF;stroke-width:4;stroke-linecap:round;stroke-linejoin:round;stroke-miterlimit:10;}
	.st6{clip-path:url(#SVGID_2_);}
	.st7{opacity:0.5;fill:#494949;}
	.st8{clip-path:url(#SVGID_8_);}
	.st9{clip-path:url(#SVGID_12_);}
	.st10{display:inline;opacity:0.5;}
	.st11{fill:#333333;}
	.st12{display:inline;fill:#F2F2F2;}
	.st13{clip-path:url(#SVGID_16_);}
	.st14{fill:none;stroke:#FFFFFF;stroke-width:2;stroke-miterlimit:10;}
	.st15{fill:none;stroke:#FFFFFF;stroke-width:2;stroke-linecap:round;stroke-linejoin:round;stroke-miterlimit:10;}
	.st16{fill:#E6E6E6;}
	.st17{fill:#3370AA;}
	.st18{fill:none;stroke:#3370AA;stroke-width:2;stroke-miterlimit:10;}
	.st19{display:none;fill:none;stroke:#FFFFFF;stroke-width:0.75;stroke-miterlimit:10;}
	.st20{fill:#FFFFFF;stroke:#808080;stroke-width:0.5;stroke-miterlimit:10;}
	.st21{fill:#808080;}
	.st22{fill:#666666;}
	.st23{fill:#F2F2F2;}
	.st24{clip-path:url(#SVGID_18_);}
	.st25{clip-path:url(#SVGID_24_);}
	.st26{clip-path:url(#SVGID_28_);}
	.st27{display:inline;fill:#C1272D;}
	.st28{display:inline;fill:none;stroke:#FFFFFF;stroke-width:3;stroke-linecap:round;stroke-linejoin:round;stroke-miterlimit:10;}
	.st29{display:inline;fill:none;stroke:#666666;stroke-miterlimit:10;}
	.st30{display:inline;fill:none;stroke:#666666;stroke-linecap:round;stroke-linejoin:round;stroke-miterlimit:10;}
	.st31{display:inline;fill:#D8202E;}
	.st32{display:inline;fill:#FFFFFF;}
	.st33{fill:#909090;}
	.st34{fill:#262627;}
	.st35{fill:#767676;}
	.st36{fill:#8C8C8C;}
	.st37{fill:#5C5E62;}
	.st38{fill:#BABABA;}
	.st39{fill:none;stroke:#959595;stroke-width:0.7437;stroke-linecap:round;stroke-linejoin:round;stroke-miterlimit:10;}
	.st40{fill:#959595;}
	.st41{fill:#F7F7F7;}
	.st42{clip-path:url(#SVGID_34_);}
	.st43{fill:none;stroke:#808080;stroke-width:4.6823;stroke-linecap:round;stroke-linejoin:round;stroke-miterlimit:10;}
	.st44{fill:none;stroke:#808080;stroke-width:5.2349;stroke-linecap:round;stroke-linejoin:round;stroke-miterlimit:10;}
	.st45{fill:none;stroke:#3370AA;stroke-width:1.8362;stroke-miterlimit:10;}
	.st46{fill:#999999;}
	.st47{fill:#CCCCCC;}
	.st48{fill:none;stroke:#808080;stroke-width:0.25;stroke-miterlimit:10;}
	.st49{display:inline;fill-rule:evenodd;clip-rule:evenodd;fill:#FFFFFF;}
	.st50{fill-rule:evenodd;clip-rule:evenodd;fill:#FFFFFF;}
	.st51{fill:url(#SVGID_41_);}
	.st52{fill:#000095;}
</style>
<g id="圖層_1">
</g>
<g id="手機版">
</g>
<g id="備註">
</g>
<g id="切圖">
	<g>
		<g>
			<g>
				<path class="st22" d="M42.7,4.9V4L46,4v2.9c-0.5,0.4-1,0.7-1.6,0.9c-0.5,0.2-1.1,0.3-1.7,0.3c-0.8,0-1.5-0.2-2.1-0.5
					c-0.6-0.3-1.1-0.8-1.4-1.4s-0.5-1.3-0.5-2.1c0-0.8,0.2-1.5,0.5-2.1c0.3-0.7,0.8-1.2,1.4-1.5S41.9,0,42.7,0
					c0.6,0,1.1,0.1,1.5,0.3C44.7,0.5,45,0.7,45.3,1s0.5,0.8,0.6,1.3l-0.9,0.3c-0.1-0.4-0.3-0.7-0.4-0.9s-0.4-0.4-0.8-0.6
					c-0.3-0.1-0.7-0.2-1.1-0.2c-0.5,0-0.9,0.1-1.2,0.2c-0.3,0.1-0.6,0.3-0.8,0.6c-0.2,0.2-0.4,0.5-0.5,0.8c-0.2,0.5-0.3,1-0.3,1.6
					c0,0.7,0.1,1.3,0.4,1.8c0.2,0.5,0.6,0.8,1.1,1.1s1,0.3,1.5,0.3c0.5,0,0.9-0.1,1.3-0.3c0.4-0.2,0.8-0.4,1-0.6V4.9H42.7z"/>
				<path class="st22" d="M47.1,5.2c0-1.1,0.3-1.8,0.9-2.3c0.5-0.4,1.1-0.6,1.8-0.6c0.8,0,1.4,0.3,1.9,0.8c0.5,0.5,0.7,1.2,0.7,2.1
					c0,0.7-0.1,1.3-0.3,1.7c-0.2,0.4-0.5,0.7-1,1c-0.4,0.2-0.9,0.3-1.4,0.3c-0.8,0-1.4-0.3-1.9-0.8C47.3,6.9,47.1,6.1,47.1,5.2z
					 M48,5.2c0,0.7,0.2,1.3,0.5,1.6c0.3,0.4,0.7,0.5,1.2,0.5c0.5,0,0.9-0.2,1.2-0.5s0.5-0.9,0.5-1.7c0-0.7-0.2-1.2-0.5-1.6
					C50.6,3.2,50.2,3,49.7,3c-0.5,0-0.9,0.2-1.2,0.5S48,4.4,48,5.2z"/>
				<path class="st22" d="M55.1,8l-2.2-5.7h1l1.2,3.4c0.1,0.4,0.3,0.8,0.4,1.1c0.1-0.3,0.2-0.7,0.4-1.1l1.3-3.5h1L56,8H55.1z"/>
				<path class="st22" d="M62.9,6.2l1,0.1c-0.2,0.6-0.4,1-0.9,1.4s-1,0.5-1.6,0.5c-0.8,0-1.5-0.3-2-0.8c-0.5-0.5-0.7-1.2-0.7-2.2
					c0-1,0.2-1.7,0.7-2.2s1.1-0.8,1.9-0.8c0.8,0,1.4,0.3,1.9,0.8S64,4.2,64,5.1c0,0.1,0,0.1,0,0.3h-4.3c0,0.6,0.2,1.1,0.5,1.4
					s0.7,0.5,1.2,0.5c0.4,0,0.7-0.1,0.9-0.3S62.8,6.6,62.9,6.2z M59.8,4.6h3.2c0-0.5-0.2-0.8-0.4-1.1C62.3,3.2,61.9,3,61.4,3
					c-0.4,0-0.8,0.1-1.1,0.4C60,3.7,59.8,4.1,59.8,4.6z"/>
				<path class="st22" d="M65.1,8V2.3H66v0.9c0.2-0.4,0.4-0.7,0.6-0.8c0.2-0.1,0.4-0.2,0.6-0.2c0.3,0,0.7,0.1,1,0.3l-0.3,0.9
					c-0.2-0.1-0.5-0.2-0.7-0.2c-0.2,0-0.4,0.1-0.6,0.2c-0.2,0.1-0.3,0.3-0.4,0.5c-0.1,0.3-0.2,0.7-0.2,1.1v3H65.1z"/>
				<path class="st22" d="M68.8,8V2.3h0.9v0.8c0.4-0.6,1-0.9,1.8-0.9c0.3,0,0.7,0.1,0.9,0.2c0.3,0.1,0.5,0.3,0.6,0.5
					s0.2,0.4,0.3,0.7c0,0.2,0.1,0.5,0.1,0.9V8h-1V4.5c0-0.4,0-0.7-0.1-0.9c-0.1-0.2-0.2-0.4-0.4-0.5C71.8,3.1,71.5,3,71.3,3
					c-0.4,0-0.8,0.1-1.1,0.4c-0.3,0.3-0.4,0.8-0.4,1.5V8H68.8z"/>
				<path class="st22" d="M74.9,8V2.3h0.9v0.8c0.2-0.3,0.4-0.5,0.7-0.7c0.3-0.2,0.6-0.3,1-0.3c0.4,0,0.8,0.1,1,0.3
					c0.3,0.2,0.5,0.4,0.6,0.7c0.5-0.7,1-1,1.8-1c0.6,0,1,0.2,1.3,0.5c0.3,0.3,0.5,0.8,0.5,1.4V8h-1V4.4c0-0.4,0-0.7-0.1-0.8
					c-0.1-0.2-0.2-0.3-0.3-0.4S80.9,3,80.7,3c-0.4,0-0.7,0.1-1,0.4c-0.3,0.3-0.4,0.7-0.4,1.3V8h-1V4.3c0-0.4-0.1-0.8-0.2-1
					S77.7,3,77.3,3c-0.3,0-0.5,0.1-0.8,0.2c-0.2,0.1-0.4,0.4-0.5,0.6S75.9,4.5,75.9,5v3H74.9z"/>
				<path class="st22" d="M88,6.2l1,0.1c-0.2,0.6-0.4,1-0.9,1.4s-1,0.5-1.6,0.5c-0.8,0-1.5-0.3-2-0.8c-0.5-0.5-0.7-1.2-0.7-2.2
					c0-1,0.2-1.7,0.7-2.2s1.1-0.8,1.9-0.8c0.8,0,1.4,0.3,1.9,0.8S89,4.2,89,5.1c0,0.1,0,0.1,0,0.3h-4.3c0,0.6,0.2,1.1,0.5,1.4
					s0.7,0.5,1.2,0.5c0.4,0,0.7-0.1,0.9-0.3S87.8,6.6,88,6.2z M84.8,4.6H88c0-0.5-0.2-0.8-0.4-1.1C87.3,3.2,86.9,3,86.4,3
					c-0.4,0-0.8,0.1-1.1,0.4C85,3.7,84.9,4.1,84.8,4.6z"/>
				<path class="st22" d="M90.2,8V2.3h0.9v0.8c0.4-0.6,1-0.9,1.8-0.9c0.3,0,0.7,0.1,0.9,0.2c0.3,0.1,0.5,0.3,0.6,0.5
					s0.2,0.4,0.3,0.7c0,0.2,0.1,0.5,0.1,0.9V8h-1V4.5c0-0.4,0-0.7-0.1-0.9c-0.1-0.2-0.2-0.4-0.4-0.5C93.2,3.1,92.9,3,92.7,3
					c-0.4,0-0.8,0.1-1.1,0.4c-0.3,0.3-0.4,0.8-0.4,1.5V8H90.2z"/>
				<path class="st22" d="M98.4,7.1L98.6,8c-0.3,0.1-0.5,0.1-0.7,0.1c-0.4,0-0.6-0.1-0.8-0.2s-0.3-0.3-0.4-0.4
					c-0.1-0.2-0.1-0.6-0.1-1.1V3.1h-0.7V2.3h0.7V0.9l1-0.6v2h1v0.8h-1v3.3c0,0.3,0,0.5,0.1,0.5c0,0.1,0.1,0.1,0.2,0.2
					c0.1,0,0.2,0.1,0.3,0.1C98.1,7.2,98.3,7.2,98.4,7.1z"/>
				<path class="st22" d="M102.6,8V0.1h3c0.5,0,0.9,0,1.2,0.1c0.4,0.1,0.7,0.2,1,0.4c0.3,0.2,0.5,0.4,0.6,0.8
					c0.2,0.3,0.2,0.7,0.2,1.1c0,0.7-0.2,1.2-0.6,1.7c-0.4,0.5-1.2,0.7-2.3,0.7h-2V8H102.6z M103.6,3.9h2c0.7,0,1.2-0.1,1.4-0.4
					s0.4-0.6,0.4-1.1c0-0.3-0.1-0.6-0.2-0.8c-0.2-0.2-0.4-0.4-0.7-0.5c-0.2,0-0.5-0.1-1-0.1h-2V3.9z"/>
				<path class="st22" d="M109.4,5.2c0-1.1,0.3-1.8,0.9-2.3c0.5-0.4,1.1-0.6,1.8-0.6c0.8,0,1.4,0.3,1.9,0.8c0.5,0.5,0.7,1.2,0.7,2.1
					c0,0.7-0.1,1.3-0.3,1.7c-0.2,0.4-0.5,0.7-1,1c-0.4,0.2-0.9,0.3-1.4,0.3c-0.8,0-1.4-0.3-1.9-0.8C109.7,6.9,109.4,6.1,109.4,5.2z
					 M110.4,5.2c0,0.7,0.2,1.3,0.5,1.6c0.3,0.4,0.7,0.5,1.2,0.5c0.5,0,0.9-0.2,1.2-0.5s0.5-0.9,0.5-1.7c0-0.7-0.2-1.2-0.5-1.6
					C113,3.2,112.6,3,112.1,3c-0.5,0-0.9,0.2-1.2,0.5S110.4,4.4,110.4,5.2z"/>
				<path class="st22" d="M115.9,8V2.3h0.9v0.9c0.2-0.4,0.4-0.7,0.6-0.8c0.2-0.1,0.4-0.2,0.6-0.2c0.3,0,0.7,0.1,1,0.3l-0.3,0.9
					c-0.2-0.1-0.5-0.2-0.7-0.2c-0.2,0-0.4,0.1-0.6,0.2c-0.2,0.1-0.3,0.3-0.4,0.5c-0.1,0.3-0.2,0.7-0.2,1.1v3H115.9z"/>
				<path class="st22" d="M121.7,7.1l0.1,0.9c-0.3,0.1-0.5,0.1-0.7,0.1c-0.4,0-0.6-0.1-0.8-0.2s-0.3-0.3-0.4-0.4
					c-0.1-0.2-0.1-0.6-0.1-1.1V3.1H119V2.3h0.7V0.9l1-0.6v2h1v0.8h-1v3.3c0,0.3,0,0.5,0.1,0.5c0,0.1,0.1,0.1,0.2,0.2
					c0.1,0,0.2,0.1,0.3,0.1C121.3,7.2,121.5,7.2,121.7,7.1z"/>
				<path class="st22" d="M126.3,7.3c-0.4,0.3-0.7,0.5-1,0.6c-0.3,0.1-0.7,0.2-1.1,0.2c-0.6,0-1.1-0.2-1.4-0.5
					c-0.3-0.3-0.5-0.7-0.5-1.2c0-0.3,0.1-0.5,0.2-0.8c0.1-0.2,0.3-0.4,0.5-0.6c0.2-0.1,0.4-0.2,0.7-0.3c0.2-0.1,0.5-0.1,0.9-0.1
					c0.8-0.1,1.4-0.2,1.7-0.3c0-0.1,0-0.2,0-0.3c0-0.4-0.1-0.7-0.3-0.8c-0.2-0.2-0.6-0.3-1.1-0.3c-0.5,0-0.8,0.1-1,0.2
					c-0.2,0.2-0.4,0.4-0.5,0.8l-0.9-0.1c0.1-0.4,0.2-0.7,0.4-1c0.2-0.2,0.5-0.4,0.9-0.6c0.4-0.1,0.8-0.2,1.3-0.2
					c0.5,0,0.9,0.1,1.2,0.2s0.5,0.3,0.7,0.4c0.1,0.2,0.2,0.4,0.3,0.7c0,0.2,0,0.5,0,0.9v1.3c0,0.9,0,1.5,0.1,1.7
					c0,0.2,0.1,0.5,0.2,0.7h-1C126.4,7.8,126.4,7.6,126.3,7.3z M126.3,5.1c-0.4,0.1-0.9,0.3-1.6,0.4c-0.4,0.1-0.7,0.1-0.8,0.2
					s-0.3,0.2-0.4,0.3c-0.1,0.1-0.1,0.3-0.1,0.5c0,0.3,0.1,0.5,0.3,0.6c0.2,0.2,0.5,0.3,0.9,0.3c0.4,0,0.7-0.1,1-0.2
					c0.3-0.2,0.5-0.4,0.6-0.7c0.1-0.2,0.2-0.5,0.2-1V5.1z"/>
				<path class="st22" d="M128.7,8V0.1h1V8H128.7z"/>
				<path class="st22" d="M133.9,5.2c0-1.1,0.3-1.8,0.9-2.3c0.5-0.4,1.1-0.6,1.8-0.6c0.8,0,1.4,0.3,1.9,0.8c0.5,0.5,0.7,1.2,0.7,2.1
					c0,0.7-0.1,1.3-0.3,1.7c-0.2,0.4-0.5,0.7-1,1c-0.4,0.2-0.9,0.3-1.4,0.3c-0.8,0-1.4-0.3-1.9-0.8C134.1,6.9,133.9,6.1,133.9,5.2z
					 M134.9,5.2c0,0.7,0.2,1.3,0.5,1.6c0.3,0.4,0.7,0.5,1.2,0.5c0.5,0,0.9-0.2,1.2-0.5s0.5-0.9,0.5-1.7c0-0.7-0.2-1.2-0.5-1.6
					C137.4,3.2,137,3,136.5,3c-0.5,0-0.9,0.2-1.2,0.5S134.9,4.4,134.9,5.2z"/>
				<path class="st22" d="M140.6,8v-5h-0.9V2.3h0.9V1.7c0-0.4,0-0.7,0.1-0.9c0.1-0.3,0.3-0.5,0.5-0.6c0.2-0.2,0.6-0.2,1-0.2
					c0.3,0,0.6,0,0.9,0.1l-0.1,0.8c-0.2,0-0.4-0.1-0.6-0.1c-0.3,0-0.5,0.1-0.6,0.2s-0.2,0.4-0.2,0.7v0.5h1.1v0.8h-1.1v5H140.6z"/>
				<path class="st22" d="M41,19.1l0.1,0.9c-0.3,0.1-0.5,0.1-0.7,0.1c-0.4,0-0.6-0.1-0.8-0.2s-0.3-0.3-0.4-0.4
					c-0.1-0.2-0.1-0.6-0.1-1.1v-3.3h-0.7v-0.8H39v-1.4l1-0.6v2h1v0.8h-1v3.3c0,0.3,0,0.5,0.1,0.5c0,0.1,0.1,0.1,0.2,0.2
					c0.1,0,0.2,0.1,0.3,0.1C40.6,19.2,40.8,19.2,41,19.1z"/>
				<path class="st22" d="M41.9,20v-7.9h1V15c0.5-0.5,1-0.8,1.7-0.8c0.4,0,0.8,0.1,1.1,0.3c0.3,0.2,0.5,0.4,0.7,0.7
					c0.1,0.3,0.2,0.7,0.2,1.3V20h-1v-3.6c0-0.5-0.1-0.8-0.3-1.1c-0.2-0.2-0.5-0.3-0.9-0.3c-0.3,0-0.6,0.1-0.8,0.2
					c-0.3,0.1-0.4,0.3-0.5,0.6s-0.2,0.6-0.2,1.1V20H41.9z"/>
				<path class="st22" d="M51.9,18.2l1,0.1c-0.2,0.6-0.4,1-0.9,1.4s-1,0.5-1.6,0.5c-0.8,0-1.5-0.3-2-0.8c-0.5-0.5-0.7-1.2-0.7-2.2
					c0-1,0.2-1.7,0.7-2.2s1.1-0.8,1.9-0.8c0.8,0,1.4,0.3,1.9,0.8s0.7,1.2,0.7,2.2c0,0.1,0,0.1,0,0.3h-4.3c0,0.6,0.2,1.1,0.5,1.4
					s0.7,0.5,1.2,0.5c0.4,0,0.7-0.1,0.9-0.3S51.8,18.6,51.9,18.2z M48.8,16.6h3.2c0-0.5-0.2-0.8-0.4-1.1c-0.3-0.4-0.7-0.6-1.2-0.6
					c-0.4,0-0.8,0.1-1.1,0.4C49,15.7,48.8,16.1,48.8,16.6z"/>
				<path class="st22" d="M57.3,20v-7.9h3.5c0.7,0,1.2,0.1,1.6,0.2c0.4,0.1,0.7,0.4,0.9,0.7s0.3,0.8,0.3,1.2c0,0.6-0.2,1-0.5,1.4
					s-0.9,0.6-1.7,0.7c0.3,0.1,0.5,0.3,0.6,0.4c0.3,0.3,0.6,0.6,0.9,1l1.4,2.1H63l-1-1.6c-0.3-0.5-0.6-0.8-0.8-1.1s-0.4-0.4-0.5-0.5
					c-0.2-0.1-0.3-0.2-0.5-0.2c-0.1,0-0.3,0-0.6,0h-1.2V20H57.3z M58.4,15.6h2.2c0.5,0,0.8,0,1.1-0.1c0.3-0.1,0.5-0.3,0.6-0.5
					c0.1-0.2,0.2-0.5,0.2-0.7c0-0.4-0.1-0.7-0.4-0.9c-0.3-0.2-0.7-0.4-1.3-0.4h-2.5V15.6z"/>
				<path class="st22" d="M69.1,18.2l1,0.1c-0.2,0.6-0.4,1-0.9,1.4s-1,0.5-1.6,0.5c-0.8,0-1.5-0.3-2-0.8c-0.5-0.5-0.7-1.2-0.7-2.2
					c0-1,0.2-1.7,0.7-2.2s1.1-0.8,1.9-0.8c0.8,0,1.4,0.3,1.9,0.8s0.7,1.2,0.7,2.2c0,0.1,0,0.1,0,0.3h-4.3c0,0.6,0.2,1.1,0.5,1.4
					s0.7,0.5,1.2,0.5c0.4,0,0.7-0.1,0.9-0.3S68.9,18.6,69.1,18.2z M65.9,16.6h3.2c0-0.5-0.2-0.8-0.4-1.1C68.4,15.2,68,15,67.5,15
					c-0.4,0-0.8,0.1-1.1,0.4C66.1,15.7,65.9,16.1,65.9,16.6z"/>
				<path class="st22" d="M71.3,22.2v-7.9h0.9V15c0.2-0.3,0.4-0.5,0.7-0.7c0.3-0.1,0.6-0.2,1-0.2c0.5,0,0.9,0.1,1.3,0.4
					s0.7,0.6,0.8,1.1c0.2,0.5,0.3,1,0.3,1.5c0,0.6-0.1,1.1-0.3,1.6c-0.2,0.5-0.5,0.8-0.9,1.1c-0.4,0.2-0.8,0.4-1.3,0.4
					c-0.3,0-0.6-0.1-0.9-0.2c-0.3-0.1-0.5-0.3-0.6-0.5v2.8H71.3z M72.1,17.2c0,0.7,0.1,1.3,0.4,1.6s0.7,0.5,1.1,0.5
					c0.4,0,0.8-0.2,1.1-0.5c0.3-0.4,0.5-0.9,0.5-1.7c0-0.7-0.1-1.3-0.4-1.6c-0.3-0.4-0.7-0.5-1.1-0.5c-0.4,0-0.8,0.2-1.1,0.6
					C72.3,15.9,72.1,16.5,72.1,17.2z"/>
				<path class="st22" d="M81.1,20v-0.8c-0.4,0.6-1,1-1.8,1c-0.3,0-0.7-0.1-0.9-0.2c-0.3-0.1-0.5-0.3-0.7-0.5
					c-0.1-0.2-0.2-0.4-0.3-0.7c0-0.2-0.1-0.5-0.1-0.9v-3.5h1v3.2c0,0.5,0,0.8,0.1,1c0.1,0.3,0.2,0.5,0.4,0.6
					c0.2,0.1,0.4,0.2,0.7,0.2s0.6-0.1,0.8-0.2c0.3-0.1,0.4-0.4,0.5-0.6c0.1-0.3,0.2-0.6,0.2-1.1v-3.1h1V20H81.1z"/>
				<path class="st22" d="M84.4,20h-0.9v-7.9h1v2.8c0.4-0.5,0.9-0.8,1.6-0.8c0.4,0,0.7,0.1,1,0.2c0.3,0.1,0.6,0.3,0.8,0.6
					c0.2,0.3,0.4,0.6,0.5,0.9s0.2,0.7,0.2,1.2c0,1-0.2,1.7-0.7,2.3s-1.1,0.8-1.7,0.8c-0.7,0-1.2-0.3-1.6-0.8V20z M84.4,17.1
					c0,0.7,0.1,1.2,0.3,1.5c0.3,0.5,0.7,0.7,1.2,0.7c0.4,0,0.8-0.2,1.1-0.6c0.3-0.4,0.5-0.9,0.5-1.6c0-0.7-0.1-1.3-0.4-1.6
					c-0.3-0.4-0.7-0.5-1.1-0.5c-0.4,0-0.8,0.2-1.1,0.6C84.5,15.9,84.4,16.4,84.4,17.1z"/>
				<path class="st22" d="M89.6,20v-7.9h1V20H89.6z"/>
				<path class="st22" d="M92.1,13.2v-1.1h1v1.1H92.1z M92.1,20v-5.7h1V20H92.1z"/>
				<path class="st22" d="M98.2,17.9l1,0.1c-0.1,0.7-0.4,1.2-0.8,1.5c-0.4,0.4-1,0.6-1.6,0.6c-0.8,0-1.4-0.3-1.9-0.8
					c-0.5-0.5-0.7-1.2-0.7-2.2c0-0.6,0.1-1.2,0.3-1.6s0.5-0.8,0.9-1c0.4-0.2,0.9-0.3,1.4-0.3c0.6,0,1.1,0.2,1.5,0.5
					c0.4,0.3,0.6,0.8,0.8,1.3l-0.9,0.1c-0.1-0.4-0.2-0.7-0.5-0.9c-0.2-0.2-0.5-0.3-0.8-0.3c-0.5,0-0.9,0.2-1.2,0.5
					c-0.3,0.3-0.5,0.9-0.5,1.7c0,0.8,0.1,1.3,0.4,1.7s0.7,0.5,1.1,0.5c0.4,0,0.7-0.1,1-0.3S98.2,18.4,98.2,17.9z"/>
				<path class="st22" d="M102.7,17.2c0-1.1,0.3-1.8,0.9-2.3c0.5-0.4,1.1-0.6,1.8-0.6c0.8,0,1.4,0.3,1.9,0.8
					c0.5,0.5,0.7,1.2,0.7,2.1c0,0.7-0.1,1.3-0.3,1.7c-0.2,0.4-0.5,0.7-1,1c-0.4,0.2-0.9,0.3-1.4,0.3c-0.8,0-1.4-0.3-1.9-0.8
					C102.9,18.9,102.7,18.1,102.7,17.2z M103.7,17.2c0,0.7,0.2,1.3,0.5,1.6c0.3,0.4,0.7,0.5,1.2,0.5c0.5,0,0.9-0.2,1.2-0.5
					s0.5-0.9,0.5-1.7c0-0.7-0.2-1.2-0.5-1.6c-0.3-0.4-0.7-0.5-1.2-0.5c-0.5,0-0.9,0.2-1.2,0.5S103.7,16.4,103.7,17.2z"/>
				<path class="st22" d="M109.4,20v-5h-0.9v-0.8h0.9v-0.6c0-0.4,0-0.7,0.1-0.9c0.1-0.3,0.3-0.5,0.5-0.6c0.2-0.2,0.6-0.2,1-0.2
					c0.3,0,0.6,0,0.9,0.1l-0.1,0.8c-0.2,0-0.4-0.1-0.6-0.1c-0.3,0-0.5,0.1-0.6,0.2s-0.2,0.4-0.2,0.7v0.5h1.1v0.8h-1.1v5H109.4z"/>
				<path class="st22" d="M121,17.2l1,0.3c-0.2,0.9-0.6,1.5-1.2,2c-0.6,0.4-1.3,0.7-2.1,0.7c-0.8,0-1.5-0.2-2.1-0.5
					c-0.5-0.3-0.9-0.8-1.2-1.5c-0.3-0.7-0.4-1.4-0.4-2.1c0-0.8,0.2-1.5,0.5-2.1c0.3-0.6,0.8-1.1,1.3-1.4c0.6-0.3,1.2-0.5,1.9-0.5
					c0.8,0,1.5,0.2,2,0.6s0.9,1,1.1,1.7l-1,0.2c-0.2-0.6-0.4-1-0.8-1.3s-0.8-0.4-1.3-0.4c-0.6,0-1.1,0.1-1.5,0.4
					c-0.4,0.3-0.7,0.7-0.9,1.2c-0.2,0.5-0.2,1-0.2,1.5c0,0.7,0.1,1.3,0.3,1.8c0.2,0.5,0.5,0.9,0.9,1.1s0.9,0.4,1.3,0.4
					c0.6,0,1.1-0.2,1.5-0.5S120.9,17.9,121,17.2z"/>
				<path class="st22" d="M123.2,20v-7.9h1V15c0.5-0.5,1-0.8,1.7-0.8c0.4,0,0.8,0.1,1.1,0.3c0.3,0.2,0.5,0.4,0.7,0.7
					c0.1,0.3,0.2,0.7,0.2,1.3V20h-1v-3.6c0-0.5-0.1-0.8-0.3-1.1c-0.2-0.2-0.5-0.3-0.9-0.3c-0.3,0-0.6,0.1-0.8,0.2
					c-0.3,0.1-0.4,0.3-0.5,0.6s-0.2,0.6-0.2,1.1V20H123.2z"/>
				<path class="st22" d="M129.4,13.2v-1.1h1v1.1H129.4z M129.4,20v-5.7h1V20H129.4z"/>
				<path class="st22" d="M131.8,20v-5.7h0.9v0.8c0.4-0.6,1-0.9,1.8-0.9c0.3,0,0.7,0.1,0.9,0.2c0.3,0.1,0.5,0.3,0.6,0.5
					s0.2,0.4,0.3,0.7c0,0.2,0.1,0.5,0.1,0.9V20h-1v-3.5c0-0.4,0-0.7-0.1-0.9c-0.1-0.2-0.2-0.4-0.4-0.5c-0.2-0.1-0.4-0.2-0.7-0.2
					c-0.4,0-0.8,0.1-1.1,0.4c-0.3,0.3-0.4,0.8-0.4,1.5V20H131.8z"/>
				<path class="st22" d="M141.6,19.3c-0.4,0.3-0.7,0.5-1,0.6c-0.3,0.1-0.7,0.2-1.1,0.2c-0.6,0-1.1-0.2-1.4-0.5
					c-0.3-0.3-0.5-0.7-0.5-1.2c0-0.3,0.1-0.5,0.2-0.8c0.1-0.2,0.3-0.4,0.5-0.6c0.2-0.1,0.4-0.2,0.7-0.3c0.2-0.1,0.5-0.1,0.9-0.1
					c0.8-0.1,1.4-0.2,1.7-0.3c0-0.1,0-0.2,0-0.3c0-0.4-0.1-0.7-0.3-0.8c-0.2-0.2-0.6-0.3-1.1-0.3c-0.5,0-0.8,0.1-1,0.2
					c-0.2,0.2-0.4,0.4-0.5,0.8l-0.9-0.1c0.1-0.4,0.2-0.7,0.4-1c0.2-0.2,0.5-0.4,0.9-0.6c0.4-0.1,0.8-0.2,1.3-0.2
					c0.5,0,0.9,0.1,1.2,0.2s0.5,0.3,0.7,0.4c0.1,0.2,0.2,0.4,0.3,0.7c0,0.2,0,0.5,0,0.9v1.3c0,0.9,0,1.5,0.1,1.7
					c0,0.2,0.1,0.5,0.2,0.7h-1C141.7,19.8,141.7,19.6,141.6,19.3z M141.6,17.1c-0.4,0.1-0.9,0.3-1.6,0.4c-0.4,0.1-0.7,0.1-0.8,0.2
					s-0.3,0.2-0.4,0.3c-0.1,0.1-0.1,0.3-0.1,0.5c0,0.3,0.1,0.5,0.3,0.6c0.2,0.2,0.5,0.3,0.9,0.3c0.4,0,0.7-0.1,1-0.2
					c0.3-0.2,0.5-0.4,0.6-0.7c0.1-0.2,0.2-0.5,0.2-1V17.1z"/>
				<path class="st22" d="M152.1,21.1c-0.7-0.7-1.2-1.4-1.5-2c-0.6-1.2-0.8-2.3-0.8-3.2c0-0.9,0.3-1.9,0.8-2.9
					c0.6-1.1,1.1-1.8,1.5-2.2l0.1,0.1c-0.4,0.4-0.8,1.1-1.3,2.1c-0.4,0.9-0.6,1.8-0.6,2.9c0,1.1,0.2,2,0.6,2.8
					c0.5,1,0.9,1.8,1.4,2.3L152.1,21.1z"/>
				<path class="st22" d="M157.2,20v-6.9h-2.6v-0.9h6.2v0.9h-2.6V20H157.2z"/>
				<path class="st22" d="M164.3,19.3c-0.4,0.3-0.7,0.5-1,0.6c-0.3,0.1-0.7,0.2-1.1,0.2c-0.6,0-1.1-0.2-1.4-0.5
					c-0.3-0.3-0.5-0.7-0.5-1.2c0-0.3,0.1-0.5,0.2-0.8c0.1-0.2,0.3-0.4,0.5-0.6c0.2-0.1,0.4-0.2,0.7-0.3c0.2-0.1,0.5-0.1,0.9-0.1
					c0.8-0.1,1.4-0.2,1.7-0.3c0-0.1,0-0.2,0-0.3c0-0.4-0.1-0.7-0.3-0.8c-0.2-0.2-0.6-0.3-1.1-0.3c-0.5,0-0.8,0.1-1,0.2
					c-0.2,0.2-0.4,0.4-0.5,0.8l-0.9-0.1c0.1-0.4,0.2-0.7,0.4-1c0.2-0.2,0.5-0.4,0.9-0.6c0.4-0.1,0.8-0.2,1.3-0.2
					c0.5,0,0.9,0.1,1.2,0.2s0.5,0.3,0.7,0.4c0.1,0.2,0.2,0.4,0.3,0.7c0,0.2,0,0.5,0,0.9v1.3c0,0.9,0,1.5,0.1,1.7
					c0,0.2,0.1,0.5,0.2,0.7h-1C164.3,19.8,164.3,19.6,164.3,19.3z M164.2,17.1c-0.4,0.1-0.9,0.3-1.6,0.4c-0.4,0.1-0.7,0.1-0.8,0.2
					s-0.3,0.2-0.4,0.3c-0.1,0.1-0.1,0.3-0.1,0.5c0,0.3,0.1,0.5,0.3,0.6c0.2,0.2,0.5,0.3,0.9,0.3c0.4,0,0.7-0.1,1-0.2
					c0.3-0.2,0.5-0.4,0.6-0.7c0.1-0.2,0.2-0.5,0.2-1V17.1z"/>
				<path class="st22" d="M166.7,13.2v-1.1h1v1.1H166.7z M166.7,20v-5.7h1V20H166.7z"/>
				<path class="st22" d="M170.1,20l-1.7-5.7h1l0.9,3.3l0.3,1.2c0-0.1,0.1-0.5,0.3-1.2l0.9-3.3h1l0.9,3.3l0.3,1.1l0.3-1.1l1-3.3h0.9
					l-1.8,5.7h-1l-0.9-3.4l-0.2-1l-1.2,4.4H170.1z"/>
				<path class="st22" d="M180.8,19.3c-0.4,0.3-0.7,0.5-1,0.6c-0.3,0.1-0.7,0.2-1.1,0.2c-0.6,0-1.1-0.2-1.4-0.5
					c-0.3-0.3-0.5-0.7-0.5-1.2c0-0.3,0.1-0.5,0.2-0.8c0.1-0.2,0.3-0.4,0.5-0.6c0.2-0.1,0.4-0.2,0.7-0.3c0.2-0.1,0.5-0.1,0.9-0.1
					c0.8-0.1,1.4-0.2,1.7-0.3c0-0.1,0-0.2,0-0.3c0-0.4-0.1-0.7-0.3-0.8c-0.2-0.2-0.6-0.3-1.1-0.3c-0.5,0-0.8,0.1-1,0.2
					c-0.2,0.2-0.4,0.4-0.5,0.8l-0.9-0.1c0.1-0.4,0.2-0.7,0.4-1c0.2-0.2,0.5-0.4,0.9-0.6c0.4-0.1,0.8-0.2,1.3-0.2
					c0.5,0,0.9,0.1,1.2,0.2s0.5,0.3,0.7,0.4c0.1,0.2,0.2,0.4,0.3,0.7c0,0.2,0,0.5,0,0.9v1.3c0,0.9,0,1.5,0.1,1.7
					c0,0.2,0.1,0.5,0.2,0.7h-1C180.9,19.8,180.8,19.6,180.8,19.3z M180.7,17.1c-0.4,0.1-0.9,0.3-1.6,0.4c-0.4,0.1-0.7,0.1-0.8,0.2
					s-0.3,0.2-0.4,0.3c-0.1,0.1-0.1,0.3-0.1,0.5c0,0.3,0.1,0.5,0.3,0.6c0.2,0.2,0.5,0.3,0.9,0.3c0.4,0,0.7-0.1,1-0.2
					c0.3-0.2,0.5-0.4,0.6-0.7c0.1-0.2,0.2-0.5,0.2-1V17.1z"/>
				<path class="st22" d="M183.2,20v-5.7h0.9v0.8c0.4-0.6,1-0.9,1.8-0.9c0.3,0,0.7,0.1,0.9,0.2c0.3,0.1,0.5,0.3,0.6,0.5
					s0.2,0.4,0.3,0.7c0,0.2,0.1,0.5,0.1,0.9V20h-1v-3.5c0-0.4,0-0.7-0.1-0.9c-0.1-0.2-0.2-0.4-0.4-0.5c-0.2-0.1-0.4-0.2-0.7-0.2
					c-0.4,0-0.8,0.1-1.1,0.4c-0.3,0.3-0.4,0.8-0.4,1.5V20H183.2z"/>
				<path class="st22" d="M190.8,10.7c0.9,0.8,2.3,3.1,2.3,5.1c0,0.9-0.3,2-0.9,3.2c-0.3,0.6-0.8,1.2-1.4,2l-0.1-0.2
					c0.5-0.5,0.9-1.3,1.5-2.3c0.4-0.8,0.6-1.7,0.6-2.8c0-1-0.2-1.8-0.5-2.6c-0.5-1.1-1-1.9-1.4-2.4L190.8,10.7z"/>
			</g>
		</g>
		<g>
			<g>
				<path class="st17" d="M0,28.8h15.4V34h-5.1v22.7H4.9V34H0V28.8z"/>
				<path class="st17" d="M35.7,36h5.2v20.6h-5.2v-2.2c-1,1-2,1.7-3,2.1c-1,0.4-2.1,0.6-3.3,0.6c-2.7,0-5-1-6.9-3.1
					c-1.9-2.1-2.9-4.6-2.9-7.7c0-3.2,0.9-5.8,2.8-7.8c1.9-2,4.2-3.1,6.9-3.1c1.2,0,2.4,0.2,3.5,0.7c1.1,0.5,2.1,1.2,3,2.1V36z
					 M30.2,40.3c-1.6,0-2.9,0.6-4,1.7c-1.1,1.1-1.6,2.6-1.6,4.4c0,1.8,0.5,3.2,1.6,4.4c1.1,1.2,2.4,1.7,4,1.7c1.6,0,3-0.6,4-1.7
					c1.1-1.1,1.6-2.6,1.6-4.4c0-1.8-0.5-3.2-1.6-4.4C33.2,40.8,31.9,40.3,30.2,40.3z"/>
				<path class="st17" d="M58.5,36h5.1l4.1,11.7L72.2,36h3.1l4.4,11.6L83.9,36H89l-7.5,20.6h-3.3l-4.4-11.8l-4.5,11.8H66L58.5,36z"
					/>
				<path class="st17" d="M109.1,36h5.2v20.6h-5.2v-2.2c-1,1-2,1.7-3,2.1c-1,0.4-2.1,0.6-3.3,0.6c-2.7,0-5-1-6.9-3.1
					c-1.9-2.1-2.9-4.6-2.9-7.7c0-3.2,0.9-5.8,2.8-7.8c1.9-2,4.2-3.1,6.9-3.1c1.2,0,2.4,0.2,3.5,0.7c1.1,0.5,2.1,1.2,3,2.1V36z
					 M103.6,40.3c-1.6,0-2.9,0.6-4,1.7c-1.1,1.1-1.6,2.6-1.6,4.4c0,1.8,0.5,3.2,1.6,4.4c1.1,1.2,2.4,1.7,4,1.7c1.6,0,3-0.6,4-1.7
					c1.1-1.1,1.6-2.6,1.6-4.4c0-1.8-0.5-3.2-1.6-4.4C106.6,40.8,105.3,40.3,103.6,40.3z"/>
				<path class="st17" d="M121.4,36h5.2v2.1c1.2-1,2.2-1.7,3.2-2.1c1-0.4,1.9-0.6,2.9-0.6c2,0,3.8,0.7,5.2,2.1
					c1.2,1.2,1.8,3,1.8,5.4v13.6h-5.1v-9c0-2.5-0.1-4.1-0.3-4.9c-0.2-0.8-0.6-1.4-1.2-1.8c-0.5-0.4-1.2-0.6-2-0.6
					c-1,0-1.9,0.4-2.7,1.1c-0.8,0.7-1.3,1.7-1.6,2.9c-0.2,0.6-0.2,2-0.2,4.2v8.3h-5.2V36z"/>
			</g>
			<path class="st17" d="M49.5,57.2c0,0,0.2-0.1,0.5,0.1c0.2,0.2,0.2,0,0.3-0.3c0.1-0.3,0.1-1.3,0.2-1.7c0.1-0.4,0-1.3,0.3-1.7
				c0.3-0.4,0.5-0.9,0.9-1.2s0.7-0.9,0.9-1.2c0.2-0.3,0.4-0.6,0.5-0.9c0,0,0.7-1.3,0.8-1.8c0-0.6,0.3-2.4,0.5-3.1
				c0.2-0.6,0.3-1.4,0.5-1.9c0.2-0.6,0.6-1,0.7-1.2c0.1-0.2,0.5-1.9,0.5-1.9s-0.8-1.6,0.5-2.6c0,0,0.2-0.1-0.1-0.3
				c-0.3-0.3-0.8-0.9-1-1c-0.2-0.1-0.4-0.2-0.6-0.5c-0.2-0.4-0.3-0.7-0.9-0.7c-0.5,0.1-0.6,0-0.5,0.3c0,0.3,0.1,0.3-0.2,0.4
				c-0.4,0-1.7,0.2-2.3,1.1c-0.6,0.9-0.7,1.5-1,1.6c-0.3,0.1-0.4,0.2-0.6,0.6c-0.2,0.4-1,1.8-1.2,2.2c-0.2,0.4-0.9,1.7-1.2,2
				c-0.3,0.3-0.7,0.7-0.8,1.4c-0.1,0.7,0,2.1-0.1,2.4c-0.1,0.4-0.4,1.2-0.3,1.4c0.1,0.3,0.6,0.1,0.6,0.8c0,0.7,0.1,1.1,0.3,1.5
				c0.1,0.5,0,0.7,0.3,1.2c0.2,0.5,0.4,0.9,0.7,1c0.3,0.1,0.3,0.2,0.4,0.3c0.1,0.1,1,1.5,1.1,2.4S49.3,57.1,49.5,57.2z"/>
			<circle class="st17" cx="55.4" cy="28.8" r="3.5"/>
			<g>
				<path class="st17" d="M148.5,53.8c0.4,0,0.7,0.1,0.9,0.4c0.3,0.3,0.4,0.6,0.4,0.9c0,0.4-0.1,0.7-0.4,0.9
					c-0.3,0.3-0.6,0.4-0.9,0.4c-0.4,0-0.7-0.1-0.9-0.4c-0.3-0.3-0.4-0.6-0.4-0.9c0-0.4,0.1-0.7,0.4-0.9
					C147.8,53.9,148.1,53.8,148.5,53.8z"/>
				<path class="st17" d="M164.1,44.4h1.5v9.4c0,1.6-0.1,2.9-0.4,3.6c-0.4,1.1-1.1,1.9-2.1,2.5c-1,0.6-2.2,0.9-3.5,0.9
					c-1,0-1.9-0.1-2.7-0.4c-0.8-0.3-1.5-0.7-2-1.1c-0.5-0.5-1-1.2-1.4-2.1h1.6c0.4,0.8,1,1.4,1.7,1.7c0.7,0.4,1.6,0.6,2.6,0.6
					c1,0,1.9-0.2,2.6-0.6c0.7-0.4,1.2-0.9,1.5-1.4c0.3-0.6,0.5-1.5,0.5-2.8v-0.6c-0.6,0.7-1.3,1.3-2.1,1.7c-0.8,0.4-1.7,0.6-2.6,0.6
					c-1.1,0-2.1-0.3-3-0.8c-1-0.5-1.7-1.3-2.2-2.2c-0.5-0.9-0.8-1.9-0.8-3c0-1.1,0.3-2.1,0.8-3c0.5-0.9,1.3-1.7,2.2-2.2
					c1-0.5,2-0.8,3-0.8c0.9,0,1.7,0.2,2.5,0.5c0.8,0.4,1.5,1,2.2,1.8V44.4z M159.7,45.6c-0.9,0-1.7,0.2-2.4,0.6
					c-0.7,0.4-1.3,1-1.7,1.7c-0.4,0.7-0.6,1.5-0.6,2.4c0,1.3,0.4,2.4,1.3,3.2c0.9,0.8,2,1.3,3.4,1.3c1.4,0,2.5-0.4,3.3-1.3
					c0.8-0.8,1.3-1.9,1.3-3.3c0-0.9-0.2-1.7-0.6-2.4c-0.4-0.7-0.9-1.2-1.7-1.6C161.3,45.8,160.5,45.6,159.7,45.6z"/>
				<path class="st17" d="M175.5,44.1c1.8,0,3.3,0.7,4.5,2c1.1,1.2,1.6,2.6,1.6,4.2c0,1.6-0.6,3.1-1.7,4.3c-1.1,1.2-2.6,1.8-4.4,1.8
					c-1.8,0-3.3-0.6-4.4-1.8c-1.1-1.2-1.7-2.7-1.7-4.3c0-1.6,0.5-3,1.6-4.2C172.2,44.8,173.7,44.1,175.5,44.1z M175.5,45.6
					c-1.3,0-2.3,0.5-3.2,1.4c-0.9,0.9-1.4,2-1.4,3.4c0,0.8,0.2,1.6,0.6,2.4c0.4,0.7,1,1.3,1.7,1.7c0.7,0.4,1.5,0.6,2.3,0.6
					c0.8,0,1.6-0.2,2.3-0.6c0.7-0.4,1.3-1,1.7-1.7c0.4-0.7,0.6-1.5,0.6-2.4c0-1.3-0.5-2.4-1.4-3.4C177.9,46,176.8,45.6,175.5,45.6z"
					/>
				<path class="st17" d="M184.5,44.4h1.6L190,53l3.9-8.6h1.6l-5.4,11.7h-0.3L184.5,44.4z"/>
				<path class="st17" d="M200.6,53.8c0.4,0,0.7,0.1,0.9,0.4c0.3,0.3,0.4,0.6,0.4,0.9c0,0.4-0.1,0.7-0.4,0.9
					c-0.3,0.3-0.6,0.4-0.9,0.4c-0.4,0-0.7-0.1-0.9-0.4c-0.3-0.3-0.4-0.6-0.4-0.9c0-0.4,0.1-0.7,0.4-0.9
					C199.9,53.9,200.2,53.8,200.6,53.8z"/>
				<path class="st17" d="M207.5,40h1.5v4.4h2.4v1.3H209v10.4h-1.5V45.7h-2.1v-1.3h2.1V40z"/>
				<path class="st17" d="M213.1,44.4h1.6l3.6,8.5l3.7-8.5h0.3l3.8,8.5l3.7-8.5h1.6l-5.1,11.7h-0.3l-3.8-8.4l-3.8,8.4h-0.3
					L213.1,44.4z"/>
			</g>
		</g>
		<g>
			<linearGradient id="SVGID_2_" gradientUnits="userSpaceOnUse" x1="0.325" y1="10.0083" x2="32.568" y2="10.0083">
				<stop  offset="0" style="stop-color:#CF1400"/>
				<stop  offset="1" style="stop-color:#CF1400"/>
			</linearGradient>
			<polygon style="fill:url(#SVGID_2_);" points="0.3,0 0.3,6.6 0.3,6.8 0.3,13.2 0.3,13.4 0.3,20 32.6,20 32.6,13.4 32.6,13.2 
				32.6,6.8 32.6,6.6 32.6,0 			"/>
			<rect x="0.3" y="0" class="st52" width="16.6" height="10"/>
			<g>
				<g>
					<path class="st3" d="M8.6,2.9c0.1,0,0.3,0,0.4,0L8.6,1.4L8.2,3C8.4,2.9,8.5,2.9,8.6,2.9z"/>
					<path class="st3" d="M8,3L6.9,1.9l0.4,1.5C7.5,3.3,7.7,3.1,8,3z"/>
					<path class="st3" d="M12.2,5l-1.5-0.4c0,0.1,0,0.3,0,0.4c0,0.1,0,0.3,0,0.4L12.2,5z"/>
					<path class="st3" d="M10.6,4.3l1.1-1.1l-1.5,0.4C10.4,3.8,10.5,4.1,10.6,4.3z"/>
					<path class="st3" d="M10,3.5l0.4-1.5L9.3,3C9.6,3.1,9.8,3.3,10,3.5z"/>
					<path class="st3" d="M8.6,7.1c-0.1,0-0.3,0-0.4,0l0.4,1.5L9.1,7C8.9,7,8.8,7.1,8.6,7.1z"/>
					<path class="st3" d="M9.3,7l1.1,1.1L10,6.5C9.8,6.7,9.6,6.9,9.3,7z"/>
					<path class="st3" d="M10.2,6.4l1.5,0.4l-1.1-1.1C10.5,5.9,10.4,6.2,10.2,6.4z"/>
					<path class="st3" d="M7.1,3.6L5.6,3.2l1.1,1.1C6.8,4.1,6.9,3.8,7.1,3.6z"/>
					<path class="st3" d="M7.3,6.5L6.9,8.1L8,7C7.7,6.9,7.5,6.7,7.3,6.5z"/>
					<path class="st3" d="M6.6,5c0-0.1,0-0.3,0-0.4L5.1,5l1.5,0.4C6.6,5.3,6.6,5.1,6.6,5z"/>
					<path class="st3" d="M6.7,5.7L5.6,6.8l1.5-0.4C6.9,6.2,6.8,5.9,6.7,5.7z"/>
				</g>
				<circle class="st3" cx="8.6" cy="5" r="1.8"/>
			</g>
		</g>
	</g>
</g>
</svg>
